mtllib ./fire06.mtl
g fire06
v 5.054474E-05 24.00009 24.00034
v 5.054474E-05 -23.99991 24.00034
v 5.054474E-05 24.00009 -23.99966
v 5.054474E-05 -23.99991 -23.99966
v 24.00004 24.00009 0.0003356934
v 24.00004 -23.99991 0.0003356934
v -23.99997 24.00009 0.0003356934
v -23.99997 -23.99991 0.0003356934

vn 1 0 0
vn 1 0 0
vn 1 0 0
vn 1 0 0
vn 0 0 -1
vn 0 0 -1
vn 0 0 -1
vn 0 0 -1

vt 0.09390219 0.8553733
vt 0.093902 0.04317756
vt 0.9060979 0.8553731
vt 0.9060978 0.04317736
vt 0.09390219 0.8553733
vt 0.093902 0.04317756
vt 0.9060979 0.8553731
vt 0.9060978 0.04317736

usemtl sn10_07_sn10f00.JPG
usemap sn10_07_sn10f00.JPG
f 3/3/3 1/1/1 2/2/2
f 2/2/2 4/4/4 3/3/3
f 7/7/7 5/5/5 6/6/6
f 6/6/6 8/8/8 7/7/7
