mtllib ./Virus.mtl
g Virus
v 0.0001514293 -0.0002975464 -0.0001527965
v -499.7848 -0.0002975464 162.3898
v -525.5049 -0.0002975464 -0.0001527965
v -425.1423 -0.0002975464 308.8839
v -308.8839 -0.0002975464 425.1423
v -162.3898 -0.0002975464 499.7848
v 0.0001743995 -0.0002975464 525.5049
v 162.3902 -0.0002975464 499.7848
v 308.8843 -0.0002975464 425.1423
v 425.1426 -0.0002975464 308.8839
v 499.7851 -0.0002975464 162.3898
v 525.5051 -0.0002975464 -0.0001987517
v 499.7851 -0.0002975464 -162.3902
v 425.1426 -0.0002975464 -308.8843
v 308.8842 -0.0002975464 -425.1427
v 162.3901 -0.0002975464 -499.7851
v 8.251891E-05 -0.0002975464 -525.5051
v -162.3899 -0.0002975464 -499.7851
v -308.884 -0.0002975464 -425.1426
v -425.1424 -0.0002975464 -308.8842
v -499.7848 -0.0002975464 -162.39
v -525.5049 -0.0002975464 -0.0001527965
v -499.7848 14.29375 162.3898
v -525.5049 14.29375 -0.0001530647
v -499.7848 -0.0002975464 162.3898
v -425.1423 14.29375 308.8839
v -425.1423 -0.0002975464 308.8839
v -308.8839 14.29375 425.1423
v -308.8839 -0.0002975464 425.1423
v -162.3898 14.29375 499.7848
v -162.3898 -0.0002975464 499.7848
v 0.0001743995 14.29375 525.5049
v 0.0001743995 -0.0002975464 525.5049
v 162.3902 14.29375 499.7848
v 162.3902 -0.0002975464 499.7848
v 308.8843 14.29375 425.1423
v 308.8843 -0.0002975464 425.1423
v 425.1426 14.29375 308.8839
v 425.1426 -0.0002975464 308.8839
v 499.7851 14.29375 162.3898
v 499.7851 -0.0002975464 162.3898
v 525.5051 14.29375 -0.0001990199
v 525.5051 -0.0002975464 -0.0001987517
v 499.7851 14.29375 -162.3902
v 499.7851 -0.0002975464 -162.3902
v 425.1426 14.29375 -308.8843
v 425.1426 -0.0002975464 -308.8843
v 308.8842 14.29375 -425.1427
v 308.8842 -0.0002975464 -425.1427
v 162.3901 14.29375 -499.7851
v 162.3901 -0.0002975464 -499.7851
v 8.251891E-05 14.29375 -525.5051
v 8.251891E-05 -0.0002975464 -525.5051
v -162.3899 14.29375 -499.7851
v -162.3899 -0.0002975464 -499.7851
v -308.884 14.29375 -425.1426
v -308.884 -0.0002975464 -425.1426
v -425.1424 14.29375 -308.8842
v -425.1424 -0.0002975464 -308.8842
v -499.7848 14.29375 -162.39
v -499.7848 -0.0002975464 -162.39
v 0.0001514293 14.29375 -0.0001530647
v 0.0001743995 14.29375 525.5049
v 425.1426 14.29375 -308.8843
v 308.8842 14.29375 -425.1427
v 162.3901 14.29375 -499.7851
v 8.251891E-05 14.29375 -525.5051

vn 0 -1 0
vn 0 -1 0
vn 0 -1 0
vn 0 -1 0
vn 0 -1 0
vn 0 -1 0
vn 0 -1 0
vn 0 -1 0
vn 0 -1 0
vn 0 -1 0
vn 0 -1 0
vn 0 -1 0
vn 0 -1 0
vn 0 -1 0
vn 0 -1 0
vn 0 -1 0
vn 0 -1 0
vn 0 -1 0
vn 0 -1 0
vn 0 -1 0
vn 0 -1 0
vn -0.9986093 9.892935E-10 0.05272156
vn -0.03943669 0.9991664 0.01055072
vn -0.04076686 0.9991664 -0.002152278
vn -0.9334421 0 0.3587283
vn -0.03424617 0.9991664 0.02222093
vn -0.776903 0 0.6296203
vn -0.02570339 0.9991663 0.031716
vn -0.5443153 0 0.8388808
vn -0.0146446 0.9991664 0.03810651
vn -0.2584462 0 0.9660256
vn -0.05272136 0 0.9986093
vn 0.05272155 0 0.9986092
vn 0.01055072 0.9991663 0.03943668
vn 0.3587283 0 0.9334421
vn 0.02222093 0.9991664 0.03424617
vn 0.6296204 0 0.776903
vn 0.03171601 0.9991664 0.02570339
vn 0.8388808 0 0.5443152
vn 0.03810651 0.9991664 0.01464459
vn 0.9660258 0 0.258446
vn 0.04076687 0.9991664 0.002152273
vn 0.9986093 -9.892911E-10 -0.05272142
vn 0.03943669 0.9991664 -0.01055071
vn 0.9334421 0 -0.3587283
vn 0.8388807 0 -0.5443154
vn 0.776903 0 -0.6296204
vn 0.6296202 0 -0.7769031
vn 0.5443152 0 -0.8388808
vn 0.3587281 0 -0.9334421
vn 0.258446 0 -0.9660258
vn 0.05272124 0 -0.9986093
vn -0.05272142 0 -0.9986093
vn -0.01055072 0.9991664 -0.03943668
vn -0.3587284 0 -0.9334421
vn -0.02222094 0.9991664 -0.03424617
vn -0.6296204 0 -0.7769029
vn -0.03171601 0.9991664 -0.02570339
vn -0.8388808 0 -0.5443152
vn -0.03810651 0.9991664 -0.0146446
vn -0.9660257 0 -0.2584463
vn 0 1 0
vn 0 1 0
vn 0 1 0
vn 0 1 0
vn 0 1 0
vn 0 1 0

vt 1.5 1.5
vt 2.925159 1.963062
vt 2.998502 1.5
vt 2.712313 2.380797
vt 2.380797 2.712313
vt 1.963063 2.925159
vt 1.5 2.998502
vt 1.036938 2.925159
vt 0.6192032 2.712313
vt 0.287687 2.380797
vt 0.07484043 1.963063
vt 0.001498461 1.5
vt 0.07484034 1.036938
vt 0.2876867 0.6192032
vt 0.6192028 0.2876869
vt 1.036937 0.07484043
vt 1.5 0.001498461
vt 1.963062 0.07484034
vt 2.380797 0.2876868
vt 2.712313 0.6192028
vt 2.925159 1.036937
vt 2.998502 1.5
vt 2.925159 1.963062
vt 2.998502 1.5
vt 2.925159 1.963062
vt 2.712313 2.380797
vt 2.712313 2.380797
vt 2.380797 2.712313
vt 2.380797 2.712313
vt 1.963063 2.925159
vt 1.963063 2.925159
vt 1.5 2.998502
vt 1.5 2.998502
vt 1.036938 2.925159
vt 1.036938 2.925159
vt 0.6192032 2.712313
vt 0.6192032 2.712313
vt 0.287687 2.380797
vt 0.287687 2.380797
vt 0.07484043 1.963063
vt 0.07484043 1.963063
vt 0.001498461 1.5
vt 0.001498461 1.5
vt 0.07484034 1.036938
vt 0.07484034 1.036938
vt 0.2876867 0.6192032
vt 0.2876867 0.6192032
vt 0.6192028 0.2876869
vt 0.6192028 0.2876869
vt 1.036937 0.07484043
vt 1.036937 0.07484043
vt 1.5 0.001498461
vt 1.5 0.001498461
vt 1.963062 0.07484034
vt 1.963062 0.07484034
vt 2.380797 0.2876868
vt 2.380797 0.2876868
vt 2.712313 0.6192028
vt 2.712313 0.6192028
vt 2.925159 1.036937
vt 2.925159 1.036937
vt 1.5 1.5
vt 1.5 2.998502
vt 0.2876867 0.6192032
vt 0.6192028 0.2876869
vt 1.036937 0.07484043
vt 1.5 0.001498461

usemtl sn10_00_sn1007.JPG
usemap sn10_00_sn1007.JPG
f 3/3/3 1/1/1 2/2/2
f 2/2/2 1/1/1 4/4/4
f 4/4/4 1/1/1 5/5/5
f 5/5/5 1/1/1 6/6/6
f 6/6/6 1/1/1 7/7/7
f 7/7/7 1/1/1 8/8/8
f 8/8/8 1/1/1 9/9/9
f 9/9/9 1/1/1 10/10/10
f 10/10/10 1/1/1 11/11/11
f 11/11/11 1/1/1 12/12/12
f 12/12/12 1/1/1 13/13/13
f 13/13/13 1/1/1 14/14/14
f 14/14/14 1/1/1 15/15/15
f 15/15/15 1/1/1 16/16/16
f 16/16/16 1/1/1 17/17/17
f 17/17/17 1/1/1 18/18/18
f 18/18/18 1/1/1 19/19/19
f 19/19/19 1/1/1 20/20/20
f 20/20/20 1/1/1 21/21/21
f 21/21/21 1/1/1 3/3/3
f 24/24/24 22/22/22 23/23/23
f 23/23/23 22/22/22 25/25/25
f 23/23/23 25/25/25 26/26/26
f 26/26/26 25/25/25 27/27/27
f 26/26/26 27/27/27 28/28/28
f 28/28/28 27/27/27 29/29/29
f 28/28/28 29/29/29 30/30/30
f 30/30/30 29/29/29 31/31/31
f 30/30/30 31/31/31 32/32/32
f 32/32/32 31/31/31 33/33/33
f 32/32/32 33/33/33 34/34/34
f 34/34/34 33/33/33 35/35/35
f 34/34/34 35/35/35 36/36/36
f 36/36/36 35/35/35 37/37/37
f 36/36/36 37/37/37 38/38/38
f 38/38/38 37/37/37 39/39/39
f 38/38/38 39/39/39 40/40/40
f 40/40/40 39/39/39 41/41/41
f 40/40/40 41/41/41 42/42/42
f 42/42/42 41/41/41 43/43/43
f 42/42/42 43/43/43 44/44/44
f 44/44/44 43/43/43 45/45/45
f 44/44/44 45/45/45 46/46/46
f 46/46/46 45/45/45 47/47/47
f 46/46/46 47/47/47 48/48/48
f 48/48/48 47/47/47 49/49/49
f 48/48/48 49/49/49 50/50/50
f 50/50/50 49/49/49 51/51/51
f 50/50/50 51/51/51 52/52/52
f 52/52/52 51/51/51 53/53/53
f 52/52/52 53/53/53 54/54/54
f 54/54/54 53/53/53 55/55/55
f 54/54/54 55/55/55 56/56/56
f 56/56/56 55/55/55 57/57/57
f 56/56/56 57/57/57 58/58/58
f 58/58/58 57/57/57 59/59/59
f 58/58/58 59/59/59 60/60/60
f 60/60/60 59/59/59 61/61/61
f 60/60/60 61/61/61 24/24/24
f 24/24/24 61/61/61 22/22/22
f 23/23/23 62/62/62 24/24/24
f 26/26/26 62/62/62 23/23/23
f 28/28/28 62/62/62 26/26/26
f 30/30/30 62/62/62 28/28/28
f 63/63/63 62/62/62 30/30/30
f 34/34/34 62/62/62 63/63/63
f 36/36/36 62/62/62 34/34/34
f 38/38/38 62/62/62 36/36/36
f 40/40/40 62/62/62 38/38/38
f 42/42/42 62/62/62 40/40/40
f 44/44/44 62/62/62 42/42/42
f 64/64/64 62/62/62 44/44/44
f 65/65/65 62/62/62 64/64/64
f 66/66/66 62/62/62 65/65/65
f 67/67/67 62/62/62 66/66/66
f 54/54/54 62/62/62 67/67/67
f 56/56/56 62/62/62 54/54/54
f 58/58/58 62/62/62 56/56/56
f 60/60/60 62/62/62 58/58/58
f 24/24/24 62/62/62 60/60/60
