mtllib ./Virus04.mtl
g Virus04
v 0.0001514293 14.29371 -0.0001532435
v -525.5049 14.29371 -0.0001532435
v -499.7848 14.29371 162.3898
v -425.1423 14.29371 308.8839
v -308.8839 14.29371 425.1423
v -162.3898 14.29371 499.7848
v 0.0001743995 14.29371 525.5049
v 162.3902 14.29371 499.7848
v 308.8843 14.29371 425.1423
v 425.1426 14.29371 308.8839
v 499.7851 14.29371 162.3898
v 525.5051 14.29371 -0.0001991987
v 499.7851 14.29371 -162.3902
v 425.1426 14.29371 -308.8843
v 308.8842 14.29371 -425.1427
v 162.3901 14.29371 -499.7851
v 8.251891E-05 14.29371 -525.5051
v -162.3899 14.29371 -499.7851
v -308.884 14.29371 -425.1426
v -425.1424 14.29371 -308.8842
v -499.7848 14.29371 -162.39

vn 0 1 0
vn 0 1 0
vn 0 1 0
vn 0 1 0
vn 0 1 0
vn 0 1 0
vn 0 1 0
vn 0 1 0
vn 0 1 0
vn 0 1 0
vn 0 1 0
vn 0 1 0
vn 0 1 0
vn 0 1 0
vn 0 1 0
vn 0 1 0
vn 0 1 0
vn 0 1 0
vn 0 1 0
vn 0 1 0
vn 0 1 0

vt 1.5 1.5
vt 4.946553 1.499999
vt 4.777866 2.565043
vt 4.288321 3.525832
vt 3.525834 4.288321
vt 2.565044 4.777867
vt 1.500001 4.946554
vt 0.4349573 4.777867
vt -0.5258327 4.288321
vt -1.28832 3.525834
vt -1.777867 2.565044
vt -1.946553 1.500001
vt -1.777867 0.4349569
vt -1.288321 -0.5258326
vt -0.5258335 -1.28832
vt 0.434956 -1.777867
vt 1.499999 -1.946553
vt 2.565043 -1.777867
vt 3.525833 -1.28832
vt 4.288321 -0.5258334
vt 4.777866 0.4349563

usemtl sn10_00_sn1007.JPG
usemap sn10_00_sn1007.JPG
f 3/3/3 1/1/1 2/2/2
f 4/4/4 1/1/1 3/3/3
f 5/5/5 1/1/1 4/4/4
f 6/6/6 1/1/1 5/5/5
f 7/7/7 1/1/1 6/6/6
f 8/8/8 1/1/1 7/7/7
f 9/9/9 1/1/1 8/8/8
f 10/10/10 1/1/1 9/9/9
f 11/11/11 1/1/1 10/10/10
f 12/12/12 1/1/1 11/11/11
f 13/13/13 1/1/1 12/12/12
f 14/14/14 1/1/1 13/13/13
f 15/15/15 1/1/1 14/14/14
f 16/16/16 1/1/1 15/15/15
f 17/17/17 1/1/1 16/16/16
f 18/18/18 1/1/1 17/17/17
f 19/19/19 1/1/1 18/18/18
f 20/20/20 1/1/1 19/19/19
f 21/21/21 1/1/1 20/20/20
f 2/2/2 1/1/1 21/21/21
