mtllib ./Wv12.mtl
g Wv12
v -2.220795 36.8943 -11.27829
v -6.097626 21.89209 -9.843567
v -0.4658508 21.89209 -0.08743286
v 10.76425 48.93062 -6.571136
v 3.063721 36.8943 -2.125244
v 8.684021 36.8943 7.609421
v 15.10486 50.89986 -9.077179
v 15.19489 48.93062 1.102951
v 71.90042 56.132 -41.86812
v 18.73389 50.89986 -2.791489
v 5.590088 21.89209 10.40015
v -0.4700928 1.915543 -0.08499146
v 6.143646 1.915543 11.37036
v 6.07019 48.93062 -14.70148
v 11.01001 50.89987 -16.16968
v 74.72852 56.132 -36.96974
v 68.60284 56.132 -47.5797
v -6.549347 1.915543 -10.61461

vn -0.7840052 0.4248148 0.4526235
vn -0.8602274 0.1158733 0.4965704
vn -0.8622699 0.09302975 0.4978313
vn -0.655294 0.6537989 0.3783342
vn -0.7954088 0.3954974 0.4592458
vn -0.7598218 0.4798214 0.4386826
vn -0.1070123 0.9923362 0.0617837
vn -0.5674057 0.7554698 0.3275914
vn -0.06887284 0.9968327 0.03976385
vn -0.07991697 0.995733 0.04614002
vn -0.8550188 0.1587572 0.4936994
vn -0.866026 0.000245004 0.4999989
vn -0.8660096 0.0002663445 0.5000272
vn -0.5648041 0.7580642 0.3260905
vn -0.07976447 0.9957494 0.04605225
vn -0.06887277 0.9968326 0.03976389
vn -0.06887288 0.9968327 0.03976373
vn -0.866043 0.0002654858 0.4999694

vt 0.06305078 -0.02736247
vt 0.03566527 -0.3645995
vt 0.4789671 -0.3646141
vt 0.4789675 0.3425979
vt 0.4789674 -0.02736253
vt 0.9213119 -0.02736276
vt 0.4789676 0.4660117
vt 0.8276793 0.3425977
vt 0.478968 1.717839
vt 0.7645905 0.4660116
vt 0.9555433 -0.3645998
vt 0.478967 -0.7178391
vt 0.9995004 -0.7178394
vt 0.1095236 0.3425979
vt 0.1566834 0.4660119
vt 0.7015511 1.717839
vt 0.2194323 1.717839
vt 0.0004993379 -0.7178389

usemtl sn10_00_sn1007.JPG
usemap sn10_00_sn1007.JPG
f 3/3/3 1/1/1 2/2/2
f 6/6/6 4/4/4 5/5/5
f 8/8/8 7/7/7 4/4/4
f 10/10/10 9/9/9 7/7/7
f 5/5/5 3/3/3 11/11/11
f 13/13/13 3/3/3 12/12/12
f 3/3/3 13/13/13 11/11/11
f 4/4/4 6/6/6 8/8/8
f 5/5/5 4/4/4 1/1/1
f 4/4/4 14/14/14 1/1/1
f 7/7/7 8/8/8 10/10/10
f 4/4/4 7/7/7 14/14/14
f 7/7/7 15/15/15 14/14/14
f 9/9/9 10/10/10 16/16/16
f 7/7/7 9/9/9 15/15/15
f 9/9/9 17/17/17 15/15/15
f 1/1/1 3/3/3 5/5/5
f 5/5/5 11/11/11 6/6/6
f 12/12/12 3/3/3 18/18/18
f 3/3/3 2/2/2 18/18/18
