mtllib ./sn07eye.mtl
g 1
v -1.733346 1.00054 2.01598
v -1.821043 1.035345 0.6928399
v -1.849802 -0.3989048 2.128074
v -0.8180699 -1.035024 -0.08198476
v -1.53787 -0.802318 1.052518
v -1.124222 0.495285 -0.3609195
v 0.2875491 -0.3699314 -1.150087
v -1.430773 0.4770353 3.378718

vn -0.9821652 0.0947408 0.1624065
vn -0.9413395 -0.1608366 -0.2966676
vn -0.9996045 -0.01034845 0.02614891
vn -0.7735538 -0.2490738 -0.582732
vn -0.9076075 -0.2109051 -0.3629982
vn -0.7280393 -0.2611814 -0.633832
vn -0.5868549 -0.2573385 -0.7677096
vn -0.9624568 0.1002952 0.252226

vt 0.9355754 0.5575476
vt 0.9130387 0.5320394
vt 0.9595711 0.552371
vt 0.9480805 0.4864805
vt 0.9578807 0.5144124
vt 0.9208632 0.4956701
vt 0.9358714 0.4617251
vt 0.9567691 0.5817161

usemtl sn07eye_00_km07lo.JPG
usemap sn07eye_00_km07lo.JPG
f 3/3/3 1/1/1 2/2/2
f 5/5/5 2/2/2 4/4/4
f 5/5/5 3/3/3 2/2/2
f 4/4/4 6/6/6 7/7/7
f 4/4/4 2/2/2 6/6/6
f 3/3/3 8/8/8 1/1/1
g 0
v 1.821334 1.035345 0.6928399
v 1.733637 1.00054 2.01598
v 1.850094 -0.3989048 2.128074
v 0.8183614 -1.035024 -0.08198476
v 1.538161 -0.802318 1.052518
v -0.2872577 -0.3699314 -1.150087
v 1.124513 0.495285 -0.3609195
v 1.431065 0.4770353 3.378718

vn 0.9413394 -0.1608365 -0.2966676
vn 0.9821652 0.09474083 0.1624065
vn 0.9996045 -0.01034838 0.02614897
vn 0.7735539 -0.2490738 -0.582732
vn 0.9076074 -0.210905 -0.3629982
vn 0.586855 -0.2573386 -0.7677096
vn 0.7280393 -0.2611814 -0.633832
vn 0.9624568 0.1002952 0.252226

vt 0.9130387 0.5320394
vt 0.9355754 0.5575476
vt 0.9595711 0.552371
vt 0.9480805 0.4864805
vt 0.9578807 0.5144124
vt 0.9358714 0.4617251
vt 0.9208632 0.4956701
vt 0.9567691 0.5817161

usemtl sn07eye_00_km07lo.JPG
usemap sn07eye_00_km07lo.JPG
f 11/11/11 9/9/9 10/10/10
f 13/13/13 12/12/12 9/9/9
f 13/13/13 9/9/9 11/11/11
f 12/12/12 14/14/14 15/15/15
f 12/12/12 15/15/15 9/9/9
f 11/11/11 10/10/10 16/16/16
