mtllib ./Boll05.mtl
g Boll05
v 1.32894 7.26761 0.109414
v -0.9102484 5.305357 -6.421088
v -4.8607 6.237158 -3.37453
v 1.32894 7.26761 0.109414
v -5.603118 6.220516 1.645847
v 1.32894 7.26761 0.109414
v -2.702527 5.265156 5.699213
v 1.32894 7.26761 0.109414
v 2.141887 3.930733 6.411134
v 1.32894 7.26761 0.109414
v 6.09234 2.998931 3.364573
v 1.32894 7.26761 0.109414
v 6.834759 3.015573 -1.655804
v 1.32894 7.26761 0.109414
v 3.934168 3.970932 -5.70917
v 1.32894 7.26761 0.109414
v -0.9102484 5.305357 -6.421088
v -3.263991 -0.8066224 -9.35489
v -8.850774 0.5111443 -5.046402
v -9.90074 0.487617 2.053469
v -5.79869 -0.8634639 7.785792
v 1.052354 -2.750626 8.792597
v 6.639187 -4.068408 4.48414
v 7.689101 -4.044865 -2.615759
v 3.587051 -2.693784 -8.348082
v -3.263991 -0.8066224 -9.35489
v -4.353528 -7.48798 -6.973421
v -8.303979 -6.556179 -3.926863
v -9.046398 -6.572821 1.093515
v -6.145807 -7.528181 5.14688
v -1.301392 -8.862604 5.858802
v 2.64906 -9.794406 2.81224
v 3.391479 -9.777764 -2.208137
v 0.4908878 -8.822404 -6.261503
v -4.353528 -7.48798 -6.973421
v -3.540581 -10.82486 -0.6717004
v -3.540581 -10.82486 -0.6717004
v -3.540581 -10.82486 -0.6717004
v -3.540581 -10.82486 -0.6717004
v -3.540581 -10.82486 -0.6717004
v -3.540581 -10.82486 -0.6717004
v -3.540581 -10.82486 -0.6717004
v -3.540581 -10.82486 -0.6717004

vn 0.1792971 0.9125025 -0.3676842
vn 0.3668537 0.5469822 -0.7524818
vn -0.05957356 0.6234238 -0.7796113
vn -0.1331969 0.9125202 -0.3867371
vn -0.5934016 0.6234349 -0.5091201
vn -0.3676475 0.9125291 -0.1792374
vn -0.7796125 0.6234172 0.05962718
vn -0.3867031 0.912524 0.1332688
vn -0.5091065 0.623386 0.5934649
vn -0.1791957 0.9125085 0.3677186
vn 0.0596531 0.6233611 0.7796553
vn 0.1333094 0.9124923 0.3867639
vn 0.5934765 0.6233539 0.5091322
vn 0.3677524 0.9124838 0.1792527
vn 0.7796534 0.6233675 -0.05961268
vn 0.3867967 0.9124877 -0.1332461
vn 0.6944274 0.6786236 -0.2392497
vn 0.4360096 -0.09943061 -0.8944323
vn 0.06085122 5.57676E-05 -0.9981468
vn -0.66277 5.493313E-05 -0.748823
vn -0.9981472 2.31266E-05 -0.06084281
vn -0.7488211 -2.478436E-05 0.6627722
vn -0.06085116 -5.708635E-05 0.9981467
vn 0.6627718 -5.551707E-05 0.7488213
vn 0.9981472 -2.213567E-05 0.06084284
vn 0.9407634 0.09947407 -0.3241439
vn 0.3218042 -0.678629 -0.6602308
vn 0.1538437 -0.6233655 -0.766647
vn -0.4333119 -0.6233538 -0.6508999
vn -0.7666447 -0.6233602 -0.1538768
vn -0.6509057 -0.6233851 0.4332584
vn -0.1539121 -0.6234168 0.7665915
vn 0.4332311 -0.6234359 0.6508752
vn 0.7665927 -0.6234258 0.1538691
vn 0.7914783 -0.5469756 -0.2727264
vn 0.1791958 -0.9125086 -0.3677187
vn -0.1333095 -0.9124923 -0.386764
vn -0.3677525 -0.9124836 -0.1792529
vn -0.3867969 -0.9124876 0.133246
vn -0.1792969 -0.9125024 0.3676844
vn 0.1331968 -0.9125202 0.3867371
vn 0.3676473 -0.9125291 0.1792372
vn 0.386703 -0.9125241 -0.1332692

vt 0.08099476 0.975283
vt 0.02091102 0.7349483
vt 0.1410785 0.7349483
vt 0.2011622 0.975283
vt 0.2612459 0.7349483
vt 0.3213296 0.975283
vt 0.3814133 0.7349483
vt 0.441497 0.975283
vt 0.5015807 0.7349483
vt 0.5616644 0.975283
vt 0.621748 0.7349483
vt 0.6818319 0.975283
vt 0.7419155 0.7349483
vt 0.8019992 0.975283
vt 0.8620829 0.7349483
vt 0.9221666 0.975283
vt 0.9822503 0.7349483
vt 0.02091102 0.4946135
vt 0.1410785 0.4946135
vt 0.2612459 0.4946135
vt 0.3814133 0.4946135
vt 0.5015807 0.4946135
vt 0.621748 0.4946135
vt 0.7419155 0.4946135
vt 0.8620829 0.4946135
vt 0.9822503 0.4946135
vt 0.02091102 0.2542787
vt 0.1410785 0.2542787
vt 0.2612459 0.2542787
vt 0.3814133 0.2542787
vt 0.5015807 0.2542787
vt 0.621748 0.2542787
vt 0.7419155 0.2542787
vt 0.8620829 0.2542787
vt 0.9822503 0.2542787
vt 0.08099476 0.0139439
vt 0.2011622 0.0139439
vt 0.3213296 0.0139439
vt 0.441497 0.0139439
vt 0.5616644 0.0139439
vt 0.6818319 0.0139439
vt 0.8019992 0.0139439
vt 0.9221666 0.0139439

usemtl sn21_05_sn2121.jpg
usemap sn21_05_sn2121.jpg
f 3/3/3 1/1/1 2/2/2
f 5/5/5 4/4/4 3/3/3
f 7/7/7 6/6/6 5/5/5
f 9/9/9 8/8/8 7/7/7
f 11/11/11 10/10/10 9/9/9
f 13/13/13 12/12/12 11/11/11
f 15/15/15 14/14/14 13/13/13
f 17/17/17 16/16/16 15/15/15
f 19/19/19 2/2/2 18/18/18
f 3/3/3 2/2/2 19/19/19
f 20/20/20 3/3/3 19/19/19
f 5/5/5 3/3/3 20/20/20
f 21/21/21 5/5/5 20/20/20
f 7/7/7 5/5/5 21/21/21
f 22/22/22 7/7/7 21/21/21
f 9/9/9 7/7/7 22/22/22
f 23/23/23 9/9/9 22/22/22
f 11/11/11 9/9/9 23/23/23
f 24/24/24 11/11/11 23/23/23
f 13/13/13 11/11/11 24/24/24
f 25/25/25 13/13/13 24/24/24
f 15/15/15 13/13/13 25/25/25
f 26/26/26 15/15/15 25/25/25
f 17/17/17 15/15/15 26/26/26
f 28/28/28 18/18/18 27/27/27
f 19/19/19 18/18/18 28/28/28
f 29/29/29 19/19/19 28/28/28
f 20/20/20 19/19/19 29/29/29
f 30/30/30 20/20/20 29/29/29
f 21/21/21 20/20/20 30/30/30
f 31/31/31 21/21/21 30/30/30
f 22/22/22 21/21/21 31/31/31
f 32/32/32 22/22/22 31/31/31
f 23/23/23 22/22/22 32/32/32
f 33/33/33 23/23/23 32/32/32
f 24/24/24 23/23/23 33/33/33
f 34/34/34 24/24/24 33/33/33
f 25/25/25 24/24/24 34/34/34
f 35/35/35 25/25/25 34/34/34
f 26/26/26 25/25/25 35/35/35
f 27/27/27 36/36/36 28/28/28
f 28/28/28 37/37/37 29/29/29
f 29/29/29 38/38/38 30/30/30
f 30/30/30 39/39/39 31/31/31
f 31/31/31 40/40/40 32/32/32
f 32/32/32 41/41/41 33/33/33
f 33/33/33 42/42/42 34/34/34
f 34/34/34 43/43/43 35/35/35
