mtllib ./Boll03.mtl
g Boll03
v 1.338374 7.266484 -0.06944243
v -3.732296 5.683568 -4.892308
v -5.774667 6.359413 -0.2979263
v 1.338374 7.266484 -0.06944243
v -4.074726 6.015465 4.469444
v 1.338374 7.266484 -0.06944243
v 0.3717352 4.853201 6.617082
v 1.338374 7.266484 -0.06944243
v 4.960017 3.553467 4.886995
v 1.338374 7.266484 -0.06944243
v 7.002388 2.877622 0.2926131
v 1.338374 7.266484 -0.06944243
v 5.302458 3.221567 -4.474747
v 1.338374 7.266484 -0.06944243
v 0.8559855 4.383834 -6.622396
v 1.338374 7.266484 -0.06944243
v -3.732296 5.683568 -4.892308
v -7.281806 -0.2680412 -6.756262
v -10.17015 0.6877456 -0.2588052
v -7.765969 0.2013002 6.483132
v -1.477747 -1.442382 9.520414
v 5.011085 -3.28049 7.073671
v 7.89935 -4.236254 0.5763074
v 5.495249 -3.749832 -6.165723
v -0.7929627 -2.106153 -9.202996
v -7.281806 -0.2680412 -6.756262
v -7.230738 -7.101998 -4.569586
v -9.273108 -6.426154 0.02479577
v -7.573167 -6.770102 4.792166
v -3.126706 -7.932365 6.939804
v 1.461576 -9.2321 5.209717
v 3.503946 -9.907945 0.6153352
v 1.804016 -9.564 -4.152025
v -2.642456 -8.401732 -6.299673
v -7.230738 -7.101998 -4.569586
v -3.609158 -10.81499 0.3869545
v -3.609158 -10.81499 0.3869545
v -3.609158 -10.81499 0.3869545
v -3.609158 -10.81499 0.3869545
v -3.609158 -10.81499 0.3869545
v -3.609158 -10.81499 0.3869545
v -3.609158 -10.81499 0.3869545
v -3.609158 -10.81499 0.3869545

vn -0.3954342 0.9123333 0.1062068
vn -0.8087142 0.5466011 0.2172752
vn -0.5492942 0.6230445 0.5568587
vn -0.2046311 0.9123731 0.3545441
vn 0.005277544 0.6231524 0.7820826
vn 0.1059181 0.912461 0.3952166
vn 0.5567015 0.6233197 0.549141
vn 0.3542637 0.9125394 0.2043751
vn 0.7818506 0.6234419 -0.005469993
vn 0.394911 0.9125653 -0.1061598
vn 0.5488974 0.623459 -0.5567859
vn 0.2040785 0.9125298 -0.3544592
vn -0.005640477 0.6233693 -0.7819073
vn -0.1064332 0.9124505 -0.3951026
vn -0.5569611 0.6232072 -0.5490057
vn -0.3547494 0.9123678 -0.2042984
vn -0.6365775 0.6784061 -0.3667892
vn -0.9609315 -0.09969062 0.25821
vn -0.7929329 -0.0002884548 0.6093088
vn -0.1298509 -0.0002308469 0.9915335
vn 0.6093198 -4.032813E-05 0.7929245
vn 0.9915379 0.0001781043 0.1298174
vn 0.7929332 0.0002929447 -0.6093087
vn 0.1298578 0.0002327245 -0.9915326
vn -0.6093196 3.787316E-05 -0.7929247
vn -0.8621039 0.099363 -0.4968942
vn -0.7092443 -0.6787051 0.1906095
vn -0.6792476 -0.6234677 0.3871832
vn -0.2064489 -0.6234104 0.7541475
vn 0.3873476 -0.6232634 0.6793413
vn 0.7543624 -0.6231041 0.2065886
vn 0.6796206 -0.6230356 -0.3872241
vn 0.2068473 -0.6231052 -0.7542905
vn -0.3870575 -0.6232654 -0.6795048
vn -0.7252678 -0.5469351 -0.4181491
vn -0.3949118 -0.9125649 0.10616
vn -0.2040808 -0.9125273 0.3544644
vn 0.1064354 -0.9124475 0.395109
vn 0.354753 -0.912366 0.2043004
vn 0.3954333 -0.9123336 -0.1062064
vn 0.2046287 -0.9123757 -0.3545388
vn -0.1059162 -0.9124641 -0.3952102
vn -0.35426 -0.9125412 -0.2043731

vt 0.08099476 0.975283
vt 0.02091102 0.7349483
vt 0.1410785 0.7349483
vt 0.2011622 0.975283
vt 0.2612459 0.7349483
vt 0.3213296 0.975283
vt 0.3814133 0.7349483
vt 0.441497 0.975283
vt 0.5015807 0.7349483
vt 0.5616644 0.975283
vt 0.621748 0.7349483
vt 0.6818319 0.975283
vt 0.7419155 0.7349483
vt 0.8019992 0.975283
vt 0.8620829 0.7349483
vt 0.9221666 0.975283
vt 0.9822503 0.7349483
vt 0.02091102 0.4946135
vt 0.1410785 0.4946135
vt 0.2612459 0.4946135
vt 0.3814133 0.4946135
vt 0.5015807 0.4946135
vt 0.621748 0.4946135
vt 0.7419155 0.4946135
vt 0.8620829 0.4946135
vt 0.9822503 0.4946135
vt 0.02091102 0.2542787
vt 0.1410785 0.2542787
vt 0.2612459 0.2542787
vt 0.3814133 0.2542787
vt 0.5015807 0.2542787
vt 0.621748 0.2542787
vt 0.7419155 0.2542787
vt 0.8620829 0.2542787
vt 0.9822503 0.2542787
vt 0.08099476 0.0139439
vt 0.2011622 0.0139439
vt 0.3213296 0.0139439
vt 0.441497 0.0139439
vt 0.5616644 0.0139439
vt 0.6818319 0.0139439
vt 0.8019992 0.0139439
vt 0.9221666 0.0139439

usemtl sn21_05_sn2121.jpg
usemap sn21_05_sn2121.jpg
f 3/3/3 1/1/1 2/2/2
f 5/5/5 4/4/4 3/3/3
f 7/7/7 6/6/6 5/5/5
f 9/9/9 8/8/8 7/7/7
f 11/11/11 10/10/10 9/9/9
f 13/13/13 12/12/12 11/11/11
f 15/15/15 14/14/14 13/13/13
f 17/17/17 16/16/16 15/15/15
f 19/19/19 2/2/2 18/18/18
f 3/3/3 2/2/2 19/19/19
f 20/20/20 3/3/3 19/19/19
f 5/5/5 3/3/3 20/20/20
f 21/21/21 5/5/5 20/20/20
f 7/7/7 5/5/5 21/21/21
f 22/22/22 7/7/7 21/21/21
f 9/9/9 7/7/7 22/22/22
f 23/23/23 9/9/9 22/22/22
f 11/11/11 9/9/9 23/23/23
f 24/24/24 11/11/11 23/23/23
f 13/13/13 11/11/11 24/24/24
f 25/25/25 13/13/13 24/24/24
f 15/15/15 13/13/13 25/25/25
f 26/26/26 15/15/15 25/25/25
f 17/17/17 15/15/15 26/26/26
f 28/28/28 18/18/18 27/27/27
f 19/19/19 18/18/18 28/28/28
f 29/29/29 19/19/19 28/28/28
f 20/20/20 19/19/19 29/29/29
f 30/30/30 20/20/20 29/29/29
f 21/21/21 20/20/20 30/30/30
f 31/31/31 21/21/21 30/30/30
f 22/22/22 21/21/21 31/31/31
f 32/32/32 22/22/22 31/31/31
f 23/23/23 22/22/22 32/32/32
f 33/33/33 23/23/23 32/32/32
f 24/24/24 23/23/23 33/33/33
f 34/34/34 24/24/24 33/33/33
f 25/25/25 24/24/24 34/34/34
f 35/35/35 25/25/25 34/34/34
f 26/26/26 25/25/25 35/35/35
f 27/27/27 36/36/36 28/28/28
f 28/28/28 37/37/37 29/29/29
f 29/29/29 38/38/38 30/30/30
f 30/30/30 39/39/39 31/31/31
f 31/31/31 40/40/40 32/32/32
f 32/32/32 41/41/41 33/33/33
f 33/33/33 42/42/42 34/34/34
f 34/34/34 43/43/43 35/35/35
