mtllib ./Boll10.mtl
g Boll10
v 1.354599 7.264474 0.01185833
v -2.573853 5.534955 -5.739407
v -5.550682 6.338801 -1.709165
v 1.354599 7.264474 0.01185833
v -4.912407 6.134694 3.320784
v 1.354599 7.264474 0.01185833
v -1.032923 5.042195 6.404046
v 1.354599 7.264474 0.01185833
v 3.815231 3.701274 5.734501
v 1.354599 7.264474 0.01185833
v 6.792074 2.897423 1.704257
v 1.354599 7.264474 0.01185833
v 6.153789 3.101534 -3.325752
v 1.354599 7.264474 0.01185833
v 2.274304 4.194033 -6.409014
v 1.354599 7.264474 0.01185833
v -2.573853 5.534955 -5.739407
v -5.668918 -0.4742024 -8.150315
v -9.878786 0.6626078 -2.450762
v -8.97613 0.3739558 4.662742
v -3.489702 -1.171073 9.023146
v 3.366615 -3.067419 8.076103
v 7.576483 -4.204229 2.376551
v 6.673838 -3.91558 -4.736894
v 1.18741 -2.370552 -9.097298
v -5.668918 -0.4742024 -8.150315
v -6.117529 -7.242865 -5.80865
v -9.094358 -6.439019 -1.778408
v -8.456084 -6.643126 3.25154
v -4.576599 -7.735625 6.334803
v 0.2715544 -9.076546 5.665258
v 3.248398 -9.880397 1.635013
v 2.610112 -9.676286 -3.394995
v -1.269372 -8.583787 -6.478257
v -6.117529 -7.242865 -5.80865
v -3.656916 -10.80609 -0.08606689
v -3.656916 -10.80609 -0.08606689
v -3.656916 -10.80609 -0.08606689
v -3.656916 -10.80609 -0.08606689
v -3.656916 -10.80609 -0.08606689
v -3.656916 -10.80609 -0.08606689
v -3.656916 -10.80609 -0.08606689
v -3.656916 -10.80609 -0.08606689

vn -0.2736207 0.912536 -0.3039897
vn -0.5601535 0.5470264 -0.6220852
vn -0.7450992 0.6234791 -0.2368564
vn -0.4083889 0.912558 -0.02136033
vn -0.6943212 0.6234565 0.3594722
vn -0.3038391 0.912536 0.2737878
vn -0.2367528 0.6233656 0.7452271
vn -0.02121598 0.9124867 0.4085558
vn 0.3595611 0.6232683 0.6944439
vn 0.27393 0.9124401 0.3039989
vn 0.7453125 0.6232221 0.2368619
vn 0.4086951 0.912421 0.02136595
vn 0.6945208 0.6232404 -0.3594609
vn 0.3041409 0.9124389 -0.2737766
vn 0.236955 0.6233187 -0.7452019
vn 0.02151813 0.9124856 -0.4085423
vn 0.03847195 0.6786008 -0.7334992
vn -0.6659058 -0.09932927 -0.7393938
vn -0.9026311 0.0001637666 -0.4304149
vn -0.9426009 0.0001429347 0.3339214
vn -0.4304004 4.310603E-05 0.9026381
vn 0.3339071 -8.566584E-05 0.942606
vn 0.9026306 -0.000164872 0.430416
vn 0.9426007 -0.0001440486 -0.333922
vn 0.4304017 -4.013255E-05 -0.9026374
vn 0.05197865 0.09948597 -0.9936804
vn -0.4916608 -0.678504 -0.5458038
vn -0.6532496 -0.6232311 -0.4299397
vn -0.7659475 -0.6232264 0.1578398
vn -0.4300256 -0.6232896 0.6531373
vn 0.1577275 -0.6233863 0.7658404
vn 0.6530311 -0.6234674 0.4299287
vn 0.7657441 -0.6234749 -0.1578451
vn 0.4298254 -0.6234012 -0.6531624
vn 0.04362771 -0.5468988 -0.8360611
vn -0.273935 -0.9124371 -0.3040032
vn -0.4086997 -0.9124188 -0.0213665
vn -0.3041443 -0.9124368 0.2737795
vn -0.02152322 -0.9124848 0.4085442
vn 0.2736207 -0.9125355 0.3039911
vn 0.4083918 -0.9125569 0.02136023
vn 0.3038414 -0.9125347 -0.2737898
vn 0.0212113 -0.9124842 -0.4085615

vt 0.08099476 0.975283
vt 0.02091102 0.7349483
vt 0.1410785 0.7349483
vt 0.2011622 0.975283
vt 0.2612459 0.7349483
vt 0.3213296 0.975283
vt 0.3814133 0.7349483
vt 0.441497 0.975283
vt 0.5015807 0.7349483
vt 0.5616644 0.975283
vt 0.621748 0.7349483
vt 0.6818319 0.975283
vt 0.7419155 0.7349483
vt 0.8019992 0.975283
vt 0.8620829 0.7349483
vt 0.9221666 0.975283
vt 0.9822503 0.7349483
vt 0.02091102 0.4946135
vt 0.1410785 0.4946135
vt 0.2612459 0.4946135
vt 0.3814133 0.4946135
vt 0.5015807 0.4946135
vt 0.621748 0.4946135
vt 0.7419155 0.4946135
vt 0.8620829 0.4946135
vt 0.9822503 0.4946135
vt 0.02091102 0.2542787
vt 0.1410785 0.2542787
vt 0.2612459 0.2542787
vt 0.3814133 0.2542787
vt 0.5015807 0.2542787
vt 0.621748 0.2542787
vt 0.7419155 0.2542787
vt 0.8620829 0.2542787
vt 0.9822503 0.2542787
vt 0.08099476 0.0139439
vt 0.2011622 0.0139439
vt 0.3213296 0.0139439
vt 0.441497 0.0139439
vt 0.5616644 0.0139439
vt 0.6818319 0.0139439
vt 0.8019992 0.0139439
vt 0.9221666 0.0139439

usemtl sn21_05_sn2121.jpg
usemap sn21_05_sn2121.jpg
f 3/3/3 1/1/1 2/2/2
f 5/5/5 4/4/4 3/3/3
f 7/7/7 6/6/6 5/5/5
f 9/9/9 8/8/8 7/7/7
f 11/11/11 10/10/10 9/9/9
f 13/13/13 12/12/12 11/11/11
f 15/15/15 14/14/14 13/13/13
f 17/17/17 16/16/16 15/15/15
f 19/19/19 2/2/2 18/18/18
f 3/3/3 2/2/2 19/19/19
f 20/20/20 3/3/3 19/19/19
f 5/5/5 3/3/3 20/20/20
f 21/21/21 5/5/5 20/20/20
f 7/7/7 5/5/5 21/21/21
f 22/22/22 7/7/7 21/21/21
f 9/9/9 7/7/7 22/22/22
f 23/23/23 9/9/9 22/22/22
f 11/11/11 9/9/9 23/23/23
f 24/24/24 11/11/11 23/23/23
f 13/13/13 11/11/11 24/24/24
f 25/25/25 13/13/13 24/24/24
f 15/15/15 13/13/13 25/25/25
f 26/26/26 15/15/15 25/25/25
f 17/17/17 15/15/15 26/26/26
f 28/28/28 18/18/18 27/27/27
f 19/19/19 18/18/18 28/28/28
f 29/29/29 19/19/19 28/28/28
f 20/20/20 19/19/19 29/29/29
f 30/30/30 20/20/20 29/29/29
f 21/21/21 20/20/20 30/30/30
f 31/31/31 21/21/21 30/30/30
f 22/22/22 21/21/21 31/31/31
f 32/32/32 22/22/22 31/31/31
f 23/23/23 22/22/22 32/32/32
f 33/33/33 23/23/23 32/32/32
f 24/24/24 23/23/23 33/33/33
f 34/34/34 24/24/24 33/33/33
f 25/25/25 24/24/24 34/34/34
f 35/35/35 25/25/25 34/34/34
f 26/26/26 25/25/25 35/35/35
f 27/27/27 36/36/36 28/28/28
f 28/28/28 37/37/37 29/29/29
f 29/29/29 38/38/38 30/30/30
f 30/30/30 39/39/39 31/31/31
f 31/31/31 40/40/40 32/32/32
f 32/32/32 41/41/41 33/33/33
f 33/33/33 42/42/42 34/34/34
f 34/34/34 43/43/43 35/35/35
