mtllib ./Hedra13.mtl
g Hedra13
v -0.0004119873 8.241516 5.09375
v -19.43752 11.3894 -6.080017
v 15.16718 0.0001831055 14.72693
v -0.0004119873 18.42834 -11.38892
v -11.38964 0.0001831055 18.42847
v 21.16419 11.3894 0.1209106
v -0.0004119873 8.241516 -5.09314
v -11.37351 0.0001831055 -14.14063
v -0.0004119873 21.46216 11.38953
v 11.38882 0.0001831055 -18.42786
v -5.093826 0.0001831055 -8.241028
v 11.38882 0.0001831055 -18.42786
v -19.43752 -11.38904 -6.080017
v -0.0004119873 18.42834 -11.38892
v -0.0004119873 -15.0755 -11.38892
v -19.43752 11.3894 -6.080017
v -0.0004119873 -8.24115 -5.09314
v 11.38882 0.0001831055 -18.42786
v -0.0004119873 -18.42798 11.38953
v -11.37351 0.0001831055 -14.14063
v 21.16419 -11.38904 0.1209106
v -19.43752 -11.38904 -6.080017
v -0.0004119873 -8.24115 5.09375
v -11.38964 0.0001831055 18.42847
v -0.0004119873 -15.0755 -11.38892
v 15.16718 0.0001831055 14.72693
v 5.093002 0.0001831055 8.241638
v 21.16419 -11.38904 0.1209106
v -0.0004119873 21.46216 11.38953
v -0.0004119873 -18.42798 11.38953
v 21.16419 11.3894 0.1209106
v -11.38964 0.0001831055 18.42847
v 8.240913 -5.093262 0.0003051758
v -0.0004119873 -18.42798 11.38953
v 11.38882 0.0001831055 -18.42786
v 15.16718 0.0001831055 14.72693
v -0.0004119873 -15.0755 -11.38892
v 21.16419 11.3894 0.1209106
v 8.240913 5.093628 0.0003051758
v -0.0004119873 21.46216 11.38953
v 21.16419 -11.38904 0.1209106
v -0.0004119873 18.42834 -11.38892
v 5.093002 0.0001831055 -8.241028
v 21.16419 -11.38904 0.1209106
v -11.37351 0.0001831055 -14.14063
v 21.16419 11.3894 0.1209106
v -5.093826 0.0001831055 8.241638
v -19.43752 -11.38904 -6.080017
v 15.16718 0.0001831055 14.72693
v -19.43752 11.3894 -6.080017
v -8.241737 5.093628 0.0003051758
v -0.0004119873 21.46216 11.38953
v -11.37351 0.0001831055 -14.14063
v -11.38964 0.0001831055 18.42847
v -0.0004119873 18.42834 -11.38892
v -19.43752 -11.38904 -6.080017
v -8.241737 -5.093262 0.0003051758
v -0.0004119873 -18.42798 11.38953
v -19.43752 11.3894 -6.080017
v -0.0004119873 -15.0755 -11.38892

vn -0.03698317 0.8416005 0.5388329
vn -0.01660015 0.9997187 -0.01694299
vn -0.06349203 0.7067521 0.7046065
vn 0.07308133 0.8483766 0.5243246
vn -0.002047742 0.8514296 0.524465
vn 0.01749441 0.9998469 -6.579205E-05
vn 0.02488534 0.7783679 -0.6273151
vn -0.004027073 0.7417839 -0.6706269
vn -0.1170374 0.7747104 -0.6213903
vn 0.01806736 0.8573391 -0.5144349
vn -0.3481544 0 -0.9374372
vn -0.5257309 0 -0.850651
vn -0.2864282 0.1822579 -0.9406067
vn 0.1437106 -0.05300235 -0.9881994
vn 0.135199 0.06095155 -0.9889418
vn -0.3032552 -0.2053645 -0.9305169
vn 0.0381173 -0.8088394 -0.5867928
vn 0.09640364 -0.8814121 -0.4624056
vn -0.09853818 -0.8465114 -0.5231718
vn -0.07124664 -0.7803558 -0.6212639
vn 0.01749441 -0.9998469 -6.579205E-05
vn -0.01660015 -0.9997187 -0.01694299
vn -0.04911445 -0.8742468 0.482991
vn -0.09748498 -0.881688 0.4616525
vn 0.05330994 -0.9224271 0.3824739
vn 0.02394052 -0.7779578 0.6278602
vn 0.4836314 0 0.8752717
vn 0.4721444 0.03828911 0.8806894
vn -0.139703 0.01948907 0.9900017
vn -0.1330807 -0.02162161 0.9908693
vn 0.4744692 -0.04260248 0.8792406
vn 0.5257309 0 0.850651
vn 0.7919803 -0.6043861 -0.0865145
vn 0.816406 -0.5720482 -0.07900746
vn 0.9992927 0 -0.03760212
vn 0.9795628 2.644992E-08 -0.2011386
vn 0.8208348 -0.5621124 -0.1012912
vn 0.7840535 -0.614078 -0.09037857
vn 0.8250425 0.5581139 -0.08839501
vn 0.8466579 0.516205 -0.1292391
vn 0.7846032 0.6145713 -0.08185348
vn 0.8638898 0.5023209 -0.03699033
vn 0.4201871 0 -0.9074376
vn 0.3969857 -0.1089212 -0.9113389
vn 0.3372844 0 -0.9414028
vn 0.3867818 0.1250218 -0.9136572
vn -0.5676773 0 0.8232511
vn -0.5610681 -0.2751141 0.7807143
vn -0.3048512 0 0.9524
vn -0.5415196 0.3037393 0.7838998
vn -0.8470713 0.5309494 -0.02372556
vn -0.8490646 0.5135924 -0.1237428
vn -0.9999019 -1.199872E-08 0.0140066
vn -0.9998705 -1.181882E-08 0.01609478
vn -0.8407869 0.5407989 0.02477792
vn -0.811284 0.5795347 -0.07718702
vn -0.8139866 -0.5801812 -0.02855935
vn -0.8308707 -0.5544018 -0.0478798
vn -0.8092341 -0.581225 -0.08554333
vn -0.7865126 -0.6169202 -0.02841819

vt 0.2752247 0.8044956
vt 0.5169184 0.7376931
vt 0.1258497 0.979387
vt 0.2752246 0.5883182
vt 0.4245997 0.979387
vt 0.03353088 0.7376931
vt 0.2752246 0.6708906
vt 0.4245996 0.4959993
vt 0.2752247 0.8870682
vt 0.1258496 0.4959995
vt 0.3420272 0.7376931
vt 0.1258496 0.7376931
vt 0.5169184 0.5883182
vt 0.2752246 0.979387
vt 0.2752246 0.4959993
vt 0.5169184 0.8870682
vt 0.2752247 0.6708906
vt 0.4245997 0.4959995
vt 0.2752246 0.8870682
vt 0.1258497 0.4959993
vt 0.5169184 0.7376931
vt 0.03353088 0.7376931
vt 0.2752246 0.8044956
vt 0.1258496 0.979387
vt 0.2752247 0.5883182
vt 0.4245996 0.979387
vt 0.3420272 0.7376931
vt 0.5169184 0.5883182
vt 0.2752246 0.979387
vt 0.2752246 0.4959993
vt 0.5169184 0.8870682
vt 0.1258496 0.7376931
vt 0.2752246 0.6708906
vt 0.1258497 0.4959993
vt 0.5169184 0.7376931
vt 0.03353084 0.7376931
vt 0.4245996 0.4959993
vt 0.2752246 0.8870682
vt 0.2752246 0.8044956
vt 0.1258497 0.979387
vt 0.2752246 0.5883182
vt 0.4245996 0.979387
vt 0.2084221 0.7376931
vt 0.03353088 0.5883182
vt 0.4245996 0.7376931
vt 0.03353088 0.8870682
vt 0.2084221 0.7376931
vt 0.03353088 0.5883182
vt 0.4245996 0.7376931
vt 0.03353088 0.8870682
vt 0.2752246 0.8044956
vt 0.4245996 0.979387
vt 0.03353084 0.7376931
vt 0.5169184 0.7376931
vt 0.1258497 0.979387
vt 0.2752246 0.5883182
vt 0.2752246 0.6708906
vt 0.4245996 0.4959993
vt 0.2752246 0.8870682
vt 0.1258497 0.4959993

usemtl sn21_06_sn2122.jpg
usemap sn21_06_sn2122.jpg
f 3/3/3 1/1/1 2/2/2
f 4/4/4 1/1/1 3/3/3
f 5/5/5 1/1/1 4/4/4
f 6/6/6 1/1/1 5/5/5
f 2/2/2 1/1/1 6/6/6
f 8/8/8 7/7/7 6/6/6
f 9/9/9 7/7/7 8/8/8
f 10/10/10 7/7/7 9/9/9
f 2/2/2 7/7/7 10/10/10
f 6/6/6 7/7/7 2/2/2
f 13/13/13 11/11/11 12/12/12
f 14/14/14 11/11/11 13/13/13
f 15/15/15 11/11/11 14/14/14
f 16/16/16 11/11/11 15/15/15
f 12/12/12 11/11/11 16/16/16
f 19/19/19 17/17/17 18/18/18
f 20/20/20 17/17/17 19/19/19
f 21/21/21 17/17/17 20/20/20
f 22/22/22 17/17/17 21/21/21
f 18/18/18 17/17/17 22/22/22
f 24/24/24 23/23/23 21/21/21
f 25/25/25 23/23/23 24/24/24
f 26/26/26 23/23/23 25/25/25
f 22/22/22 23/23/23 26/26/26
f 21/21/21 23/23/23 22/22/22
f 29/29/29 27/27/27 28/28/28
f 30/30/30 27/27/27 29/29/29
f 31/31/31 27/27/27 30/30/30
f 32/32/32 27/27/27 31/31/31
f 28/28/28 27/27/27 32/32/32
f 35/35/35 33/33/33 34/34/34
f 36/36/36 33/33/33 35/35/35
f 37/37/37 33/33/33 36/36/36
f 38/38/38 33/33/33 37/37/37
f 34/34/34 33/33/33 38/38/38
f 40/40/40 39/39/39 35/35/35
f 41/41/41 39/39/39 40/40/40
f 42/42/42 39/39/39 41/41/41
f 36/36/36 39/39/39 42/42/42
f 35/35/35 39/39/39 36/36/36
f 45/45/45 43/43/43 44/44/44
f 46/46/46 43/43/43 45/45/45
f 15/15/15 43/43/43 46/46/46
f 14/14/14 43/43/43 15/15/15
f 44/44/44 43/43/43 14/14/14
f 48/48/48 47/47/47 29/29/29
f 49/49/49 47/47/47 48/48/48
f 50/50/50 47/47/47 49/49/49
f 30/30/30 47/47/47 50/50/50
f 29/29/29 47/47/47 30/30/30
f 53/53/53 51/51/51 52/52/52
f 54/54/54 51/51/51 53/53/53
f 55/55/55 51/51/51 54/54/54
f 56/56/56 51/51/51 55/55/55
f 52/52/52 51/51/51 56/56/56
f 58/58/58 57/57/57 53/53/53
f 59/59/59 57/57/57 58/58/58
f 60/60/60 57/57/57 59/59/59
f 54/54/54 57/57/57 60/60/60
f 53/53/53 57/57/57 54/54/54
