mtllib ./Hedra14.mtl
g Hedra14
v 0.0002346039 8.241028 5.093567
v -19.43687 11.38892 -6.0802
v 15.16782 -0.0003051758 14.72675
v 0.0002346039 18.42786 -11.3891
v -11.38899 -0.0003051758 18.42828
v 21.16483 11.38892 0.1207275
v 0.0002346039 8.241028 -5.093323
v -11.37286 -0.0003051758 -14.14081
v 0.0002346039 21.46167 11.38934
v 11.38946 -0.0003051758 -18.42804
v -5.093184 -0.0003051758 -8.241211
v 11.38946 -0.0003051758 -18.42804
v -19.43687 -11.38953 -6.0802
v 0.0002346039 18.42786 -11.3891
v 0.0002346039 -15.07602 -11.3891
v -19.43687 11.38892 -6.0802
v 0.0002346039 -8.241638 -5.093323
v 11.38946 -0.0003051758 -18.42804
v 0.0002346039 -18.42847 11.38934
v -11.37286 -0.0003051758 -14.14081
v 21.16483 -11.38953 0.1207275
v -19.43687 -11.38953 -6.0802
v 0.0002346039 -8.241638 5.093567
v -11.38899 -0.0003051758 18.42828
v 0.0002346039 -15.07602 -11.3891
v 15.16782 -0.0003051758 14.72675
v 5.093653 -0.0003051758 8.241455
v 21.16483 -11.38953 0.1207275
v 0.0002346039 21.46167 11.38934
v 0.0002346039 -18.42847 11.38934
v 21.16483 11.38892 0.1207275
v -11.38899 -0.0003051758 18.42828
v 8.241556 -5.09375 0.0001220703
v 0.0002346039 -18.42847 11.38934
v 11.38946 -0.0003051758 -18.42804
v 15.16782 -0.0003051758 14.72675
v 0.0002346039 -15.07602 -11.3891
v 21.16483 11.38892 0.1207275
v 8.241556 5.09314 0.0001220703
v 0.0002346039 21.46167 11.38934
v 21.16483 -11.38953 0.1207275
v 0.0002346039 18.42786 -11.3891
v 5.093653 -0.0003051758 -8.241211
v 21.16483 -11.38953 0.1207275
v -11.37286 -0.0003051758 -14.14081
v 21.16483 11.38892 0.1207275
v -5.093184 -0.0003051758 8.241455
v -19.43687 -11.38953 -6.0802
v 15.16782 -0.0003051758 14.72675
v -19.43687 11.38892 -6.0802
v -8.241089 5.09314 0.0001220703
v 0.0002346039 21.46167 11.38934
v -11.37286 -0.0003051758 -14.14081
v -11.38899 -0.0003051758 18.42828
v 0.0002346039 18.42786 -11.3891
v -19.43687 -11.38953 -6.0802
v -8.241089 -5.09375 0.0001220703
v 0.0002346039 -18.42847 11.38934
v -19.43687 11.38892 -6.0802
v 0.0002346039 -15.07602 -11.3891

vn -0.03698317 0.8416005 0.5388329
vn -0.01660015 0.9997187 -0.01694296
vn -0.06349204 0.7067521 0.7046065
vn 0.07308134 0.8483766 0.5243246
vn -0.002047742 0.8514295 0.524465
vn 0.01749441 0.9998469 -6.583161E-05
vn 0.02488534 0.7783678 -0.6273151
vn -0.004027074 0.7417839 -0.670627
vn -0.1170374 0.7747105 -0.6213904
vn 0.01806736 0.8573391 -0.5144349
vn -0.3481543 0 -0.9374371
vn -0.5257308 0 -0.850651
vn -0.2864282 0.1822579 -0.9406067
vn 0.1437106 -0.05300223 -0.9881994
vn 0.135199 0.06095133 -0.9889419
vn -0.3032551 -0.2053642 -0.930517
vn 0.0381173 -0.8088394 -0.5867929
vn 0.09640364 -0.8814121 -0.4624056
vn -0.09853819 -0.8465114 -0.5231718
vn -0.07124665 -0.7803557 -0.6212639
vn 0.01749441 -0.9998469 -6.581184E-05
vn -0.01660015 -0.9997187 -0.01694296
vn -0.04911435 -0.8742465 0.4829915
vn -0.0974841 -0.8816878 0.4616532
vn 0.05331013 -0.9224265 0.3824754
vn 0.02393963 -0.7779571 0.627861
vn 0.4836315 0 0.8752717
vn 0.4721444 0.03828901 0.8806892
vn -0.139703 0.0194892 0.9900017
vn -0.1330807 -0.02162176 0.9908693
vn 0.4744692 -0.04260238 0.8792406
vn 0.5257308 0 0.850651
vn 0.7919804 -0.6043857 -0.08651422
vn 0.8164061 -0.5720481 -0.07900748
vn 0.9992929 1.982578E-08 -0.03760187
vn 0.9795627 2.64499E-08 -0.2011388
vn 0.8208354 -0.5621116 -0.1012904
vn 0.7840536 -0.614078 -0.09037776
vn 0.8250425 0.5581138 -0.08839495
vn 0.8466581 0.5162048 -0.1292391
vn 0.7846032 0.6145713 -0.08185348
vn 0.8638898 0.5023207 -0.03699019
vn 0.4201871 0 -0.9074374
vn 0.3969858 -0.1089213 -0.9113388
vn 0.3372843 0 -0.9414029
vn 0.386782 0.1250217 -0.913657
vn -0.5676774 2.801869E-09 0.8232511
vn -0.5610682 -0.2751141 0.7807143
vn -0.3048512 0 0.9524
vn -0.5415198 0.3037393 0.7838998
vn -0.8470713 0.5309494 -0.02372559
vn -0.8490645 0.5135924 -0.1237429
vn -0.9999019 0 0.01400661
vn -0.9998705 0 0.01609449
vn -0.8407869 0.5407988 0.02477797
vn -0.8112839 0.5795348 -0.07718701
vn -0.8139868 -0.5801808 -0.02855911
vn -0.8308707 -0.5544018 -0.04787997
vn -0.8092343 -0.5812249 -0.08554254
vn -0.7865132 -0.6169193 -0.02841759

vt 0.2752247 0.8044956
vt 0.5169184 0.7376931
vt 0.1258497 0.979387
vt 0.2752246 0.5883182
vt 0.4245997 0.979387
vt 0.03353088 0.7376931
vt 0.2752246 0.6708906
vt 0.4245996 0.4959993
vt 0.2752247 0.8870682
vt 0.1258496 0.4959995
vt 0.3420272 0.7376931
vt 0.1258496 0.7376931
vt 0.5169184 0.5883182
vt 0.2752246 0.979387
vt 0.2752246 0.4959993
vt 0.5169184 0.8870682
vt 0.2752247 0.6708906
vt 0.4245997 0.4959995
vt 0.2752246 0.8870682
vt 0.1258497 0.4959993
vt 0.5169184 0.7376931
vt 0.03353088 0.7376931
vt 0.2752246 0.8044956
vt 0.1258496 0.979387
vt 0.2752247 0.5883182
vt 0.4245996 0.979387
vt 0.3420272 0.7376931
vt 0.5169184 0.5883182
vt 0.2752246 0.979387
vt 0.2752246 0.4959993
vt 0.5169184 0.8870682
vt 0.1258496 0.7376931
vt 0.2752246 0.6708906
vt 0.1258497 0.4959993
vt 0.5169184 0.7376931
vt 0.03353084 0.7376931
vt 0.4245996 0.4959993
vt 0.2752246 0.8870682
vt 0.2752246 0.8044956
vt 0.1258497 0.979387
vt 0.2752246 0.5883182
vt 0.4245996 0.979387
vt 0.2084221 0.7376931
vt 0.03353088 0.5883182
vt 0.4245996 0.7376931
vt 0.03353088 0.8870682
vt 0.2084221 0.7376931
vt 0.03353088 0.5883182
vt 0.4245996 0.7376931
vt 0.03353088 0.8870682
vt 0.2752246 0.8044956
vt 0.4245996 0.979387
vt 0.03353084 0.7376931
vt 0.5169184 0.7376931
vt 0.1258497 0.979387
vt 0.2752246 0.5883182
vt 0.2752246 0.6708906
vt 0.4245996 0.4959993
vt 0.2752246 0.8870682
vt 0.1258497 0.4959993

usemtl sn21_06_sn2122.jpg
usemap sn21_06_sn2122.jpg
f 3/3/3 1/1/1 2/2/2
f 4/4/4 1/1/1 3/3/3
f 5/5/5 1/1/1 4/4/4
f 6/6/6 1/1/1 5/5/5
f 2/2/2 1/1/1 6/6/6
f 8/8/8 7/7/7 6/6/6
f 9/9/9 7/7/7 8/8/8
f 10/10/10 7/7/7 9/9/9
f 2/2/2 7/7/7 10/10/10
f 6/6/6 7/7/7 2/2/2
f 13/13/13 11/11/11 12/12/12
f 14/14/14 11/11/11 13/13/13
f 15/15/15 11/11/11 14/14/14
f 16/16/16 11/11/11 15/15/15
f 12/12/12 11/11/11 16/16/16
f 19/19/19 17/17/17 18/18/18
f 20/20/20 17/17/17 19/19/19
f 21/21/21 17/17/17 20/20/20
f 22/22/22 17/17/17 21/21/21
f 18/18/18 17/17/17 22/22/22
f 24/24/24 23/23/23 21/21/21
f 25/25/25 23/23/23 24/24/24
f 26/26/26 23/23/23 25/25/25
f 22/22/22 23/23/23 26/26/26
f 21/21/21 23/23/23 22/22/22
f 29/29/29 27/27/27 28/28/28
f 30/30/30 27/27/27 29/29/29
f 31/31/31 27/27/27 30/30/30
f 32/32/32 27/27/27 31/31/31
f 28/28/28 27/27/27 32/32/32
f 35/35/35 33/33/33 34/34/34
f 36/36/36 33/33/33 35/35/35
f 37/37/37 33/33/33 36/36/36
f 38/38/38 33/33/33 37/37/37
f 34/34/34 33/33/33 38/38/38
f 40/40/40 39/39/39 35/35/35
f 41/41/41 39/39/39 40/40/40
f 42/42/42 39/39/39 41/41/41
f 36/36/36 39/39/39 42/42/42
f 35/35/35 39/39/39 36/36/36
f 45/45/45 43/43/43 44/44/44
f 46/46/46 43/43/43 45/45/45
f 15/15/15 43/43/43 46/46/46
f 14/14/14 43/43/43 15/15/15
f 44/44/44 43/43/43 14/14/14
f 48/48/48 47/47/47 29/29/29
f 49/49/49 47/47/47 48/48/48
f 50/50/50 47/47/47 49/49/49
f 30/30/30 47/47/47 50/50/50
f 29/29/29 47/47/47 30/30/30
f 53/53/53 51/51/51 52/52/52
f 54/54/54 51/51/51 53/53/53
f 55/55/55 51/51/51 54/54/54
f 56/56/56 51/51/51 55/55/55
f 52/52/52 51/51/51 56/56/56
f 58/58/58 57/57/57 53/53/53
f 59/59/59 57/57/57 58/58/58
f 60/60/60 57/57/57 59/59/59
f 54/54/54 57/57/57 60/60/60
f 53/53/53 57/57/57 54/54/54
