mtllib ./Hedra15.mtl
g Hedra15
v -4.577637E-05 8.241028 5.093628
v -19.43715 11.38892 -6.080078
v 15.16754 -0.0003051758 14.72681
v -4.577637E-05 18.42786 -11.38904
v -11.38928 -0.0003051758 18.42834
v 21.16455 11.38892 0.1208496
v -4.577637E-05 8.241028 -5.09314
v -11.37314 -0.0003051758 -14.14063
v -4.577637E-05 21.46167 11.38953
v 11.38919 -0.0003051758 -18.42786
v -5.09346 -0.0003051758 -8.241089
v 11.38919 -0.0003051758 -18.42786
v -19.43715 -11.38953 -6.080078
v -4.577637E-05 18.42786 -11.38904
v -4.577637E-05 -15.07602 -11.38904
v -19.43715 11.38892 -6.080078
v -4.577637E-05 -8.241638 -5.09314
v 11.38919 -0.0003051758 -18.42786
v -4.577637E-05 -18.42847 11.38953
v -11.37314 -0.0003051758 -14.14063
v 21.16455 -11.38953 0.1208496
v -19.43715 -11.38953 -6.080078
v -4.577637E-05 -8.241638 5.093628
v -11.38928 -0.0003051758 18.42834
v -4.577637E-05 -15.07602 -11.38904
v 15.16754 -0.0003051758 14.72681
v 5.093369 -0.0003051758 8.241577
v 21.16455 -11.38953 0.1208496
v -4.577637E-05 21.46167 11.38953
v -4.577637E-05 -18.42847 11.38953
v 21.16455 11.38892 0.1208496
v -11.38928 -0.0003051758 18.42834
v 8.241272 -5.09375 0.0002441406
v -4.577637E-05 -18.42847 11.38953
v 11.38919 -0.0003051758 -18.42786
v 15.16754 -0.0003051758 14.72681
v -4.577637E-05 -15.07602 -11.38904
v 21.16455 11.38892 0.1208496
v 8.241272 5.09314 0.0002441406
v -4.577637E-05 21.46167 11.38953
v 21.16455 -11.38953 0.1208496
v -4.577637E-05 18.42786 -11.38904
v 5.093369 -0.0003051758 -8.241089
v 21.16455 -11.38953 0.1208496
v -11.37314 -0.0003051758 -14.14063
v 21.16455 11.38892 0.1208496
v -5.09346 -0.0003051758 8.241577
v -19.43715 -11.38953 -6.080078
v 15.16754 -0.0003051758 14.72681
v -19.43715 11.38892 -6.080078
v -8.241364 5.09314 0.0002441406
v -4.577637E-05 21.46167 11.38953
v -11.37314 -0.0003051758 -14.14063
v -11.38928 -0.0003051758 18.42834
v -4.577637E-05 18.42786 -11.38904
v -19.43715 -11.38953 -6.080078
v -8.241364 -5.09375 0.0002441406
v -4.577637E-05 -18.42847 11.38953
v -19.43715 11.38892 -6.080078
v -4.577637E-05 -15.07602 -11.38904

vn -0.03698319 0.8416002 0.5388333
vn -0.0165988 0.9997186 -0.01694302
vn -0.06349059 0.7067533 0.7046053
vn 0.07308131 0.8483766 0.5243247
vn -0.002048776 0.8514299 0.5244644
vn 0.0174932 0.999847 -6.584182E-05
vn 0.02488536 0.7783675 -0.6273155
vn -0.004028239 0.7417846 -0.6706262
vn -0.1170374 0.7747104 -0.6213903
vn 0.01806828 0.8573394 -0.5144343
vn -0.3481536 0 -0.9374375
vn -0.5257284 0 -0.8506523
vn -0.2864253 0.182254 -0.9406084
vn 0.1437106 -0.05300464 -0.9881992
vn 0.135199 0.0609541 -0.9889417
vn -0.3032519 -0.2053599 -0.930519
vn 0.03811733 -0.8088391 -0.5867933
vn 0.09640446 -0.8814123 -0.462405
vn -0.09853818 -0.8465114 -0.5231718
vn -0.07124779 -0.7803563 -0.621263
vn 0.01749319 -0.999847 -6.584182E-05
vn -0.01659879 -0.9997186 -0.01694301
vn -0.04911437 -0.8742463 0.4829918
vn -0.09748502 -0.8816881 0.4616525
vn 0.05331011 -0.9224265 0.3824754
vn 0.02394105 -0.7779582 0.6278597
vn 0.4836313 0 0.8752719
vn 0.4721424 0.03828529 0.8806905
vn -0.139703 0.01948714 0.9900017
vn -0.1330808 -0.02161948 0.9908693
vn 0.474467 -0.04259824 0.879242
vn 0.5257284 0 0.8506523
vn 0.7919805 -0.6043857 -0.0865142
vn 0.8164061 -0.5720479 -0.07900727
vn 0.9992928 -1.982587E-08 -0.0376015
vn 0.9795625 2.645005E-08 -0.2011403
vn 0.8208358 -0.562111 -0.1012905
vn 0.7840536 -0.614078 -0.09037727
vn 0.8250426 0.5581138 -0.08839494
vn 0.846658 0.5162048 -0.1292389
vn 0.7846032 0.6145713 -0.08185304
vn 0.86389 0.5023203 -0.03699037
vn 0.4201866 0 -0.9074377
vn 0.3969831 -0.1089255 -0.9113395
vn 0.3372814 0 -0.9414039
vn 0.386779 0.1250265 -0.9136577
vn -0.5676772 -5.603738E-09 0.8232513
vn -0.5610661 -0.2751171 0.7807148
vn -0.3048486 0 0.9524008
vn -0.5415173 0.3037426 0.7839002
vn -0.8470712 0.5309495 -0.02372588
vn -0.8490642 0.5135928 -0.1237436
vn -0.999902 -1.199879E-08 0.01400657
vn -0.9998705 -1.181887E-08 0.01609378
vn -0.8407871 0.5407986 0.02477793
vn -0.8112838 0.5795348 -0.07718664
vn -0.8139868 -0.5801808 -0.02855937
vn -0.8308706 -0.5544019 -0.04788052
vn -0.8092343 -0.581225 -0.08554211
vn -0.7865134 -0.6169189 -0.0284176

vt 0.2752247 0.8044956
vt 0.5169184 0.7376931
vt 0.1258497 0.979387
vt 0.2752246 0.5883182
vt 0.4245997 0.979387
vt 0.03353088 0.7376931
vt 0.2752246 0.6708906
vt 0.4245996 0.4959993
vt 0.2752247 0.8870682
vt 0.1258496 0.4959995
vt 0.3420272 0.7376931
vt 0.1258496 0.7376931
vt 0.5169184 0.5883182
vt 0.2752246 0.979387
vt 0.2752246 0.4959993
vt 0.5169184 0.8870682
vt 0.2752247 0.6708906
vt 0.4245997 0.4959995
vt 0.2752246 0.8870682
vt 0.1258497 0.4959993
vt 0.5169184 0.7376931
vt 0.03353088 0.7376931
vt 0.2752246 0.8044956
vt 0.1258496 0.979387
vt 0.2752247 0.5883182
vt 0.4245996 0.979387
vt 0.3420272 0.7376931
vt 0.5169184 0.5883182
vt 0.2752246 0.979387
vt 0.2752246 0.4959993
vt 0.5169184 0.8870682
vt 0.1258496 0.7376931
vt 0.2752246 0.6708906
vt 0.1258497 0.4959993
vt 0.5169184 0.7376931
vt 0.03353084 0.7376931
vt 0.4245996 0.4959993
vt 0.2752246 0.8870682
vt 0.2752246 0.8044956
vt 0.1258497 0.979387
vt 0.2752246 0.5883182
vt 0.4245996 0.979387
vt 0.2084221 0.7376931
vt 0.03353088 0.5883182
vt 0.4245996 0.7376931
vt 0.03353088 0.8870682
vt 0.2084221 0.7376931
vt 0.03353088 0.5883182
vt 0.4245996 0.7376931
vt 0.03353088 0.8870682
vt 0.2752246 0.8044956
vt 0.4245996 0.979387
vt 0.03353084 0.7376931
vt 0.5169184 0.7376931
vt 0.1258497 0.979387
vt 0.2752246 0.5883182
vt 0.2752246 0.6708906
vt 0.4245996 0.4959993
vt 0.2752246 0.8870682
vt 0.1258497 0.4959993

usemtl sn21_06_sn2122.jpg
usemap sn21_06_sn2122.jpg
f 3/3/3 1/1/1 2/2/2
f 4/4/4 1/1/1 3/3/3
f 5/5/5 1/1/1 4/4/4
f 6/6/6 1/1/1 5/5/5
f 2/2/2 1/1/1 6/6/6
f 8/8/8 7/7/7 6/6/6
f 9/9/9 7/7/7 8/8/8
f 10/10/10 7/7/7 9/9/9
f 2/2/2 7/7/7 10/10/10
f 6/6/6 7/7/7 2/2/2
f 13/13/13 11/11/11 12/12/12
f 14/14/14 11/11/11 13/13/13
f 15/15/15 11/11/11 14/14/14
f 16/16/16 11/11/11 15/15/15
f 12/12/12 11/11/11 16/16/16
f 19/19/19 17/17/17 18/18/18
f 20/20/20 17/17/17 19/19/19
f 21/21/21 17/17/17 20/20/20
f 22/22/22 17/17/17 21/21/21
f 18/18/18 17/17/17 22/22/22
f 24/24/24 23/23/23 21/21/21
f 25/25/25 23/23/23 24/24/24
f 26/26/26 23/23/23 25/25/25
f 22/22/22 23/23/23 26/26/26
f 21/21/21 23/23/23 22/22/22
f 29/29/29 27/27/27 28/28/28
f 30/30/30 27/27/27 29/29/29
f 31/31/31 27/27/27 30/30/30
f 32/32/32 27/27/27 31/31/31
f 28/28/28 27/27/27 32/32/32
f 35/35/35 33/33/33 34/34/34
f 36/36/36 33/33/33 35/35/35
f 37/37/37 33/33/33 36/36/36
f 38/38/38 33/33/33 37/37/37
f 34/34/34 33/33/33 38/38/38
f 40/40/40 39/39/39 35/35/35
f 41/41/41 39/39/39 40/40/40
f 42/42/42 39/39/39 41/41/41
f 36/36/36 39/39/39 42/42/42
f 35/35/35 39/39/39 36/36/36
f 45/45/45 43/43/43 44/44/44
f 46/46/46 43/43/43 45/45/45
f 15/15/15 43/43/43 46/46/46
f 14/14/14 43/43/43 15/15/15
f 44/44/44 43/43/43 14/14/14
f 48/48/48 47/47/47 29/29/29
f 49/49/49 47/47/47 48/48/48
f 50/50/50 47/47/47 49/49/49
f 30/30/30 47/47/47 50/50/50
f 29/29/29 47/47/47 30/30/30
f 53/53/53 51/51/51 52/52/52
f 54/54/54 51/51/51 53/53/53
f 55/55/55 51/51/51 54/54/54
f 56/56/56 51/51/51 55/55/55
f 52/52/52 51/51/51 56/56/56
f 58/58/58 57/57/57 53/53/53
f 59/59/59 57/57/57 58/58/58
f 60/60/60 57/57/57 59/59/59
f 54/54/54 57/57/57 60/60/60
f 53/53/53 57/57/57 54/54/54
