mtllib ./Hedra04.mtl
g Hedra04
v -0.0001678467 6.339661 3.918091
v -14.95178 8.761108 -4.677002
v 11.66721 0.0001831055 11.32825
v -0.0001678467 14.17572 -8.760864
v -8.761108 0.0001831055 14.17566
v 16.2803 8.761108 0.09289551
v -0.0001678467 6.339661 -3.917847
v -8.748703 0.0001831055 -10.87756
v -0.0001678467 16.5094 8.761108
v 8.76078 0.0001831055 -14.17542
v -3.918182 0.0001831055 -6.339355
v 8.76078 0.0001831055 -14.17542
v -14.95178 -8.760742 -4.677002
v -0.0001678467 14.17572 -8.760864
v -0.0001678467 -11.5965 -8.760864
v -14.95178 8.761108 -4.677002
v -0.0001678467 -6.339294 -3.917847
v 8.76078 0.0001831055 -14.17542
v -0.0001678467 -14.17535 8.761108
v -8.748703 0.0001831055 -10.87756
v 16.2803 -8.760742 0.09289551
v -14.95178 -8.760742 -4.677002
v -0.0001678467 -6.339294 3.918091
v -8.761108 0.0001831055 14.17566
v -0.0001678467 -11.5965 -8.760864
v 11.66721 0.0001831055 11.32825
v 3.917847 0.0001831055 6.3396
v 16.2803 -8.760742 0.09289551
v -0.0001678467 16.5094 8.761108
v -0.0001678467 -14.17535 8.761108
v 16.2803 8.761108 0.09289551
v -8.761108 0.0001831055 14.17566
v 6.33931 -3.917847 0.0001220703
v -0.0001678467 -14.17535 8.761108
v 8.76078 0.0001831055 -14.17542
v 11.66721 0.0001831055 11.32825
v -0.0001678467 -11.5965 -8.760864
v 16.2803 8.761108 0.09289551
v 6.33931 3.918213 0.0001220703
v -0.0001678467 16.5094 8.761108
v 16.2803 -8.760742 0.09289551
v -0.0001678467 14.17572 -8.760864
v 3.917847 0.0001831055 -6.339355
v 16.2803 -8.760742 0.09289551
v -8.748703 0.0001831055 -10.87756
v 16.2803 8.761108 0.09289551
v -3.918182 0.0001831055 6.3396
v -14.95178 -8.760742 -4.677002
v 11.66721 0.0001831055 11.32825
v -14.95178 8.761108 -4.677002
v -6.339645 3.918213 0.0001220703
v -0.0001678467 16.5094 8.761108
v -8.748703 0.0001831055 -10.87756
v -8.761108 0.0001831055 14.17566
v -0.0001678467 14.17572 -8.760864
v -14.95178 -8.760742 -4.677002
v -6.339645 -3.917847 0.0001220703
v -0.0001678467 -14.17535 8.761108
v -14.95178 8.761108 -4.677002
v -0.0001678467 -11.5965 -8.760864

vn -0.03698173 0.8416004 0.538833
vn -0.01659754 0.9997187 -0.01694295
vn -0.06349105 0.7067544 0.7046043
vn 0.07308359 0.848375 0.5243269
vn -0.002045199 0.851431 0.5244625
vn 0.01749149 0.999847 -6.579723E-05
vn 0.02488468 0.7783694 -0.6273132
vn -0.00402395 0.7417878 -0.6706226
vn -0.117037 0.7747096 -0.6213915
vn 0.018064 0.8573403 -0.514433
vn -0.3481574 0 -0.937436
vn -0.5257325 0 -0.8506499
vn -0.2864294 0.1822555 -0.9406068
vn 0.1437092 -0.05300469 -0.9881994
vn 0.1351976 0.06095432 -0.9889418
vn -0.3032564 -0.205362 -0.930517
vn 0.03811636 -0.8088406 -0.5867914
vn 0.09639979 -0.8814131 -0.4624045
vn -0.09853807 -0.8465099 -0.5231742
vn -0.07124328 -0.780359 -0.6212601
vn 0.01749149 -0.999847 -6.581395E-05
vn -0.01659755 -0.9997187 -0.01694297
vn -0.04911337 -0.8742471 0.4829905
vn -0.09748369 -0.8816895 0.4616497
vn 0.0533115 -0.9224266 0.382475
vn 0.02394237 -0.7779604 0.627857
vn 0.4836325 0 0.8752711
vn 0.4721437 0.03828871 0.8806897
vn -0.1397016 0.01948642 0.9900019
vn -0.1330794 -0.02161865 0.9908696
vn 0.4744684 -0.04260199 0.8792411
vn 0.5257328 0 0.8506498
vn 0.7919803 -0.6043859 -0.0865146
vn 0.8164063 -0.5720475 -0.07900835
vn 0.9992929 0 -0.0376012
vn 0.9795625 0 -0.20114
vn 0.8208351 -0.562112 -0.1012905
vn 0.784053 -0.6140786 -0.09037915
vn 0.8250426 0.5581139 -0.08839464
vn 0.846658 0.516205 -0.1292392
vn 0.7846027 0.614572 -0.08185231
vn 0.8638902 0.5023201 -0.03698906
vn 0.4201887 0 -0.9074367
vn 0.3969855 -0.1089208 -0.911339
vn 0.3372881 0 -0.9414015
vn 0.3867815 0.1250215 -0.9136572
vn -0.5676762 -2.367581E-09 0.8232518
vn -0.561065 -0.2751159 0.7807159
vn -0.3048491 0 0.9524007
vn -0.5415164 0.303741 0.7839013
vn -0.8470715 0.5309489 -0.02372519
vn -0.8490648 0.5135921 -0.1237426
vn -0.9999019 -1.013887E-08 0.01400707
vn -0.9998704 -9.986874E-09 0.01609435
vn -0.8407874 0.5407981 0.02477892
vn -0.8112839 0.5795348 -0.07718584
vn -0.8139868 -0.5801809 -0.02855952
vn -0.830871 -0.5544012 -0.04788125
vn -0.8092338 -0.5812254 -0.08554388
vn -0.7865126 -0.61692 -0.02841759

vt 0.2752247 0.8044956
vt 0.5169184 0.7376931
vt 0.1258497 0.979387
vt 0.2752246 0.5883182
vt 0.4245997 0.979387
vt 0.03353088 0.7376931
vt 0.2752246 0.6708906
vt 0.4245996 0.4959993
vt 0.2752247 0.8870682
vt 0.1258496 0.4959995
vt 0.3420272 0.7376931
vt 0.1258496 0.7376931
vt 0.5169184 0.5883182
vt 0.2752246 0.979387
vt 0.2752246 0.4959993
vt 0.5169184 0.8870682
vt 0.2752247 0.6708906
vt 0.4245997 0.4959995
vt 0.2752246 0.8870682
vt 0.1258497 0.4959993
vt 0.5169184 0.7376931
vt 0.03353088 0.7376931
vt 0.2752246 0.8044956
vt 0.1258496 0.979387
vt 0.2752247 0.5883182
vt 0.4245996 0.979387
vt 0.3420272 0.7376931
vt 0.5169184 0.5883182
vt 0.2752246 0.979387
vt 0.2752246 0.4959993
vt 0.5169184 0.8870682
vt 0.1258496 0.7376931
vt 0.2752246 0.6708906
vt 0.1258497 0.4959993
vt 0.5169184 0.7376931
vt 0.03353084 0.7376931
vt 0.4245996 0.4959993
vt 0.2752246 0.8870682
vt 0.2752246 0.8044956
vt 0.1258497 0.979387
vt 0.2752246 0.5883182
vt 0.4245996 0.979387
vt 0.2084221 0.7376931
vt 0.03353088 0.5883182
vt 0.4245996 0.7376931
vt 0.03353088 0.8870682
vt 0.2084221 0.7376931
vt 0.03353088 0.5883182
vt 0.4245996 0.7376931
vt 0.03353088 0.8870682
vt 0.2752246 0.8044956
vt 0.4245996 0.979387
vt 0.03353084 0.7376931
vt 0.5169184 0.7376931
vt 0.1258497 0.979387
vt 0.2752246 0.5883182
vt 0.2752246 0.6708906
vt 0.4245996 0.4959993
vt 0.2752246 0.8870682
vt 0.1258497 0.4959993

usemtl sn21_06_sn2122.jpg
usemap sn21_06_sn2122.jpg
f 3/3/3 1/1/1 2/2/2
f 4/4/4 1/1/1 3/3/3
f 5/5/5 1/1/1 4/4/4
f 6/6/6 1/1/1 5/5/5
f 2/2/2 1/1/1 6/6/6
f 8/8/8 7/7/7 6/6/6
f 9/9/9 7/7/7 8/8/8
f 10/10/10 7/7/7 9/9/9
f 2/2/2 7/7/7 10/10/10
f 6/6/6 7/7/7 2/2/2
f 13/13/13 11/11/11 12/12/12
f 14/14/14 11/11/11 13/13/13
f 15/15/15 11/11/11 14/14/14
f 16/16/16 11/11/11 15/15/15
f 12/12/12 11/11/11 16/16/16
f 19/19/19 17/17/17 18/18/18
f 20/20/20 17/17/17 19/19/19
f 21/21/21 17/17/17 20/20/20
f 22/22/22 17/17/17 21/21/21
f 18/18/18 17/17/17 22/22/22
f 24/24/24 23/23/23 21/21/21
f 25/25/25 23/23/23 24/24/24
f 26/26/26 23/23/23 25/25/25
f 22/22/22 23/23/23 26/26/26
f 21/21/21 23/23/23 22/22/22
f 29/29/29 27/27/27 28/28/28
f 30/30/30 27/27/27 29/29/29
f 31/31/31 27/27/27 30/30/30
f 32/32/32 27/27/27 31/31/31
f 28/28/28 27/27/27 32/32/32
f 35/35/35 33/33/33 34/34/34
f 36/36/36 33/33/33 35/35/35
f 37/37/37 33/33/33 36/36/36
f 38/38/38 33/33/33 37/37/37
f 34/34/34 33/33/33 38/38/38
f 40/40/40 39/39/39 35/35/35
f 41/41/41 39/39/39 40/40/40
f 42/42/42 39/39/39 41/41/41
f 36/36/36 39/39/39 42/42/42
f 35/35/35 39/39/39 36/36/36
f 45/45/45 43/43/43 44/44/44
f 46/46/46 43/43/43 45/45/45
f 15/15/15 43/43/43 46/46/46
f 14/14/14 43/43/43 15/15/15
f 44/44/44 43/43/43 14/14/14
f 48/48/48 47/47/47 29/29/29
f 49/49/49 47/47/47 48/48/48
f 50/50/50 47/47/47 49/49/49
f 30/30/30 47/47/47 50/50/50
f 29/29/29 47/47/47 30/30/30
f 53/53/53 51/51/51 52/52/52
f 54/54/54 51/51/51 53/53/53
f 55/55/55 51/51/51 54/54/54
f 56/56/56 51/51/51 55/55/55
f 52/52/52 51/51/51 56/56/56
f 58/58/58 57/57/57 53/53/53
f 59/59/59 57/57/57 58/58/58
f 60/60/60 57/57/57 59/59/59
f 54/54/54 57/57/57 60/60/60
f 53/53/53 57/57/57 54/54/54
