mtllib ./light26.mtl
g light26
v 5.555819 -8.693882 19.56863
v 12.37954 18.1812 2.370429
v -12.38016 -18.18097 -2.36939
v -5.55643 8.694109 -19.56759
v 8.200325 -20.41644 2.2995
v 15.02404 6.458641 -14.8987
v -15.02465 -6.45841 14.89974
v -8.200943 20.41668 -2.298459

vn -0.9612353 0.0002268255 0.2757298
vn -0.9612352 0.0002268255 0.2757297
vn -0.9612352 0.0002268255 0.2757297
vn -0.9612352 0.0002268851 0.2757297
vn 0.2674125 0.0001548827 0.9635822
vn 0.2674124 0.0001549125 0.9635822
vn 0.2674124 0.0001549125 0.9635822
vn 0.2674125 0.0001549125 0.9635822

vt 0 1
vt 0 0
vt 1 1
vt 1 0
vt 0 1
vt 0 0
vt 1 1
vt 1 0

usemtl sn21_35_
usemap sn21_35_
f 3/3/3 1/1/1 2/2/2
f 2/2/2 4/4/4 3/3/3
f 7/7/7 5/5/5 6/6/6
f 6/6/6 8/8/8 7/7/7
