mtllib ./light67.mtl
g light67
v 14.4456 -16.72104 1.033113
v 9.289904 9.499385 -17.68609
v -9.290947 -9.498867 17.68583
v -14.44664 16.72155 -1.033376
v -6.081886 -21.26627 0.3193378
v -11.23758 4.954154 -18.39987
v 11.23654 -4.953633 18.3996
v 6.08085 21.26679 -0.3196

vn 0.8090029 9.074807E-05 0.5878047
vn 0.8090029 9.074807E-05 0.5878047
vn 0.8090029 9.074807E-05 0.5878047
vn 0.8090029 9.074807E-05 0.5878047
vn 0.5948659 -3.954768E-05 -0.8038251
vn 0.5948659 -3.951788E-05 -0.8038251
vn 0.5948659 -3.951788E-05 -0.8038251
vn 0.5948659 -3.951788E-05 -0.803825

vt 0 1
vt 0 0
vt 1 1
vt 1 0
vt 0 1
vt 0 0
vt 1 1
vt 1 0

usemtl sn21_36_
usemap sn21_36_
f 3/3/3 1/1/1 2/2/2
f 2/2/2 4/4/4 3/3/3
f 7/7/7 5/5/5 6/6/6
f 6/6/6 8/8/8 7/7/7
