mtllib ./light48.mtl
g light48
v 5.555638 -8.694401 19.5681
v 12.37935 18.18069 2.369897
v -12.38034 -18.18149 -2.369925
v -5.556624 8.693595 -19.56812
v 8.200137 -20.41696 2.298966
v 15.02385 6.458124 -14.89923
v -15.02484 -6.458927 14.89921
v -8.20113 20.41616 -2.298993

vn -0.9612352 0.0002263784 0.2757297
vn -0.9612352 0.0002264082 0.2757297
vn -0.9612352 0.0002264082 0.2757297
vn -0.9612352 0.000226438 0.2757298
vn 0.2674125 0.0001548827 0.9635822
vn 0.2674125 0.0001548827 0.9635822
vn 0.2674125 0.0001548827 0.9635822
vn 0.2674125 0.0001548827 0.9635822

vt 0 1
vt 0 0
vt 1 1
vt 1 0
vt 0 1
vt 0 0
vt 1 1
vt 1 0

usemtl sn21_07_
usemap sn21_07_
f 3/3/3 1/1/1 2/2/2
f 2/2/2 4/4/4 3/3/3
f 7/7/7 5/5/5 6/6/6
f 6/6/6 8/8/8 7/7/7
