mtllib ./light05.mtl
g light05
v 10.27383 -19.07798 -4.431402
v 2.61177 8.370795 -20.30709
v -2.612352 -8.37024 20.30657
v -10.27441 19.07853 4.430886
v -9.126301 -19.81225 3.668003
v -16.78836 7.636523 -12.20768
v 16.78778 -7.635968 12.20717
v 9.125719 19.81281 -3.668519

vn 0.9986385 -0.000300318 0.052163
vn 0.9986386 -0.0003003031 0.05216299
vn 0.9986386 -0.0003003031 0.05216299
vn 0.9986386 -0.0003002584 0.052163
vn 0.06076214 0.0002636313 -0.9981523
vn 0.0607622 0.0002636015 -0.9981523
vn 0.0607622 0.0002636015 -0.9981523
vn 0.06076223 0.0002636313 -0.9981522

vt 0 1
vt 0 0
vt 1 1
vt 1 0
vt 0 1
vt 0 0
vt 1 1
vt 1 0

usemtl sn21_35_
usemap sn21_35_
f 3/3/3 1/1/1 2/2/2
f 2/2/2 4/4/4 3/3/3
f 7/7/7 5/5/5 6/6/6
f 6/6/6 8/8/8 7/7/7
