mtllib ./light55.mtl
g light55
v 12.77428 -10.95269 14.35792
v 15.50667 14.78155 -5.502137
v -15.50574 -14.7821 5.502352
v -12.77334 10.95213 -14.35771
v 3.416624 -21.82878 -1.023475
v 6.149019 3.90545 -20.88353
v -6.148094 -3.906002 20.88375
v -3.415699 21.82823 1.02369

vn -0.469513 -0.0003902912 0.8829255
vn -0.4695131 -0.000390172 0.8829255
vn -0.4695131 -0.000390172 0.8829255
vn -0.4695131 -0.000390172 0.8829255
vn 0.8787598 -8.669496E-05 0.4772643
vn 0.8787598 -8.669496E-05 0.4772643
vn 0.8787598 -8.669496E-05 0.4772643
vn 0.8787598 -8.672476E-05 0.4772643

vt 0 1
vt 0 0
vt 1 1
vt 1 0
vt 0 1
vt 0 0
vt 1 1
vt 1 0

usemtl sn21_07_
usemap sn21_07_
f 3/3/3 1/1/1 2/2/2
f 2/2/2 4/4/4 3/3/3
f 7/7/7 5/5/5 6/6/6
f 6/6/6 8/8/8 7/7/7
