mtllib ./light75.mtl
g light75
v 5.555952 -8.69389 19.56769
v 12.37968 18.18119 2.369485
v -12.38002 -18.18098 -2.370333
v -5.556297 8.694101 -19.56853
v 8.200458 -20.41645 2.298556
v 15.02417 6.458633 -14.89964
v -15.02452 -6.458421 14.89879
v -8.200803 20.41667 -2.299404

vn -0.9612352 0.0002268255 0.2757297
vn -0.9612352 0.0002268255 0.2757297
vn -0.9612352 0.0002268255 0.2757297
vn -0.9612352 0.0002268553 0.2757297
vn 0.2674125 0.0001549125 0.9635822
vn 0.2674125 0.0001549125 0.963582
vn 0.2674125 0.0001549125 0.963582
vn 0.2674125 0.0001548231 0.9635821

vt 0 1
vt 0 0
vt 1 1
vt 1 0
vt 0 1
vt 0 0
vt 1 1
vt 1 0

usemtl sn21_07_
usemap sn21_07_
f 3/3/3 1/1/1 2/2/2
f 2/2/2 4/4/4 3/3/3
f 7/7/7 5/5/5 6/6/6
f 6/6/6 8/8/8 7/7/7
