mtllib ./light44.mtl
g light44
v 5.556556 -8.693865 19.56837
v 12.38028 18.18122 2.370168
v -12.37942 -18.18095 -2.36965
v -5.555693 8.694126 -19.56785
v 8.201062 -20.41643 2.299239
v 15.02477 6.458657 -14.89896
v -15.02391 -6.458396 14.89948
v -8.200199 20.41669 -2.298721

vn -0.9612352 0.0002268553 0.2757297
vn -0.9612352 0.0002268553 0.2757297
vn -0.9612352 0.0002268553 0.2757297
vn -0.9612352 0.0002268553 0.2757297
vn 0.2674125 0.0001548231 0.9635821
vn 0.2674125 0.0001549125 0.963582
vn 0.2674125 0.0001549125 0.963582
vn 0.2674125 0.0001549125 0.9635822

vt 0 1
vt 0 0
vt 1 1
vt 1 0
vt 0 1
vt 0 0
vt 1 1
vt 1 0

usemtl sn21_07_
usemap sn21_07_
f 3/3/3 1/1/1 2/2/2
f 2/2/2 4/4/4 3/3/3
f 7/7/7 5/5/5 6/6/6
f 6/6/6 8/8/8 7/7/7
