mtllib ./light46.mtl
g light46
v 5.555968 -8.693296 19.56833
v 12.37969 18.18178 2.370129
v -12.38001 -18.18039 -2.36969
v -5.556281 8.694695 -19.56789
v 8.200474 -20.41586 2.2992
v 15.02419 6.459226 -14.899
v -15.0245 -6.457828 14.89944
v -8.200787 20.41726 -2.298761

vn -0.9612352 0.0002268255 0.2757297
vn -0.9612352 0.0002268255 0.2757297
vn -0.9612352 0.0002268255 0.2757297
vn -0.9612352 0.0002268553 0.2757297
vn 0.2674125 0.0001548231 0.9635821
vn 0.2674126 0.0001548827 0.9635821
vn 0.2674126 0.0001548827 0.9635821
vn 0.2674125 0.0001548529 0.9635821

vt 0 1
vt 0 0
vt 1 1
vt 1 0
vt 0 1
vt 0 0
vt 1 1
vt 1 0

usemtl sn21_07_
usemap sn21_07_
f 3/3/3 1/1/1 2/2/2
f 2/2/2 4/4/4 3/3/3
f 7/7/7 5/5/5 6/6/6
f 6/6/6 8/8/8 7/7/7
