mtllib ./light65.mtl
g light65
v 14.44637 -16.72132 1.033731
v 9.290674 9.499104 -17.68547
v -9.290175 -9.499147 17.68645
v -14.44587 16.72127 -1.032759
v -6.081115 -21.26655 0.3199556
v -11.23681 4.953873 -18.39925
v 11.23732 -4.953911 18.40022
v 6.081628 21.26651 -0.318981

vn 0.8090029 9.074807E-05 0.5878047
vn 0.8090029 9.077787E-05 0.5878047
vn 0.8090029 9.077787E-05 0.5878047
vn 0.8090029 9.077787E-05 0.5878047
vn 0.5948657 -3.951788E-05 -0.8038251
vn 0.5948657 -3.951788E-05 -0.8038251
vn 0.5948657 -3.951788E-05 -0.8038251
vn 0.5948657 -3.954768E-05 -0.8038251

vt 0 1
vt 0 0
vt 1 1
vt 1 0
vt 0 1
vt 0 0
vt 1 1
vt 1 0

usemtl sn21_35_
usemap sn21_35_
f 3/3/3 1/1/1 2/2/2
f 2/2/2 4/4/4 3/3/3
f 7/7/7 5/5/5 6/6/6
f 6/6/6 8/8/8 7/7/7
