mtllib ./light59.mtl
g light59
v 12.7735 -10.95194 14.35768
v 15.50589 14.7823 -5.502376
v -15.50653 -14.78135 5.502112
v -12.77413 10.95288 -14.35795
v 3.415845 -21.82803 -1.023714
v 6.148239 3.9062 -20.88377
v -6.148874 -3.905253 20.88351
v -3.416481 21.82898 1.02345

vn -0.469513 -0.0003903508 0.8829254
vn -0.469513 -0.0003902912 0.8829254
vn -0.469513 -0.0003902912 0.8829254
vn -0.469513 -0.0003902316 0.8829253
vn 0.8787598 -8.666515E-05 0.4772643
vn 0.8787598 -8.665025E-05 0.4772643
vn 0.8787598 -8.665025E-05 0.4772643
vn 0.8787598 -8.663535E-05 0.4772643

vt 0 1
vt 0 0
vt 1 1
vt 1 0
vt 0 1
vt 0 0
vt 1 1
vt 1 0

usemtl sn21_35_
usemap sn21_35_
f 3/3/3 1/1/1 2/2/2
f 2/2/2 4/4/4 3/3/3
f 7/7/7 5/5/5 6/6/6
f 6/6/6 8/8/8 7/7/7
