mtllib ./light58.mtl
g light58
v 12.77423 -10.95264 14.35813
v 15.50663 14.78159 -5.501932
v -15.50579 -14.78205 5.502557
v -12.77339 10.95218 -14.3575
v 3.41658 -21.82874 -1.023269
v 6.148975 3.905498 -20.88333
v -6.148138 -3.905954 20.88395
v -3.415743 21.82828 1.023896

vn -0.4695131 -0.0003902316 0.8829254
vn -0.4695131 -0.0003902316 0.8829254
vn -0.4695131 -0.0003902316 0.8829254
vn -0.4695131 -0.0003902316 0.8829254
vn 0.8787598 -8.672476E-05 0.4772643
vn 0.8787598 -8.672476E-05 0.4772643
vn 0.8787598 -8.672476E-05 0.4772643
vn 0.8787598 -8.672476E-05 0.4772643

vt 0 1
vt 0 0
vt 1 1
vt 1 0
vt 0 1
vt 0 0
vt 1 1
vt 1 0

usemtl sn21_07_
usemap sn21_07_
f 3/3/3 1/1/1 2/2/2
f 2/2/2 4/4/4 3/3/3
f 7/7/7 5/5/5 6/6/6
f 6/6/6 8/8/8 7/7/7
