mtllib ./light60.mtl
g light60
v 12.77423 -10.95232 14.35789
v 15.50664 14.78191 -5.502171
v -15.50579 -14.78173 5.502318
v -12.77338 10.9525 -14.35774
v 3.416583 -21.82842 -1.023508
v 6.148979 3.905816 -20.88357
v -6.148135 -3.905636 20.88371
v -3.41574 21.8286 1.023657

vn -0.469513 -0.0003902316 0.8829253
vn -0.4695131 -0.0003902316 0.8829254
vn -0.4695131 -0.0003902316 0.8829254
vn -0.4695131 -0.0003902316 0.8829254
vn 0.8787598 -8.672476E-05 0.4772643
vn 0.8787598 -8.672476E-05 0.4772643
vn 0.8787598 -8.672476E-05 0.4772643
vn 0.8787599 -8.672476E-05 0.4772643

vt 0 1
vt 0 0
vt 1 1
vt 1 0
vt 0 1
vt 0 0
vt 1 1
vt 1 0

usemtl sn21_35_
usemap sn21_35_
f 3/3/3 1/1/1 2/2/2
f 2/2/2 4/4/4 3/3/3
f 7/7/7 5/5/5 6/6/6
f 6/6/6 8/8/8 7/7/7
