mtllib ./Object60.mtl
g Object60
v -310.535 -196.6712 53.79444
v 0.2008299 -48.66013 45.51656
v -309.99 -170.711 2.01615
v 0.6751289 -28.33307 0.458264
v -309.4814 -193.7635 -46.29354
v 1.115489 -45.95496 -41.37306
v -308.9279 -255.2843 -98.87484
v 1.737185 -112.9064 -100.4327
v -311.052 -255.2843 102.907
v -0.3868702 -112.9064 101.3491

vn -0.2064865 0.690336 0.693397
vn -0.2557095 0.7616023 0.5954617
vn -0.3867446 0.8995477 0.2030826
vn -0.4319376 0.8989811 -0.07254611
vn -0.4327391 0.7596123 -0.4855162
vn -0.4166037 0.6852005 -0.5974461
vn -0.3991261 0.6264927 -0.6694813
vn -0.4022778 0.631005 -0.6633289
vn -0.1603895 0.6180878 0.769573
vn -0.1622385 0.6248811 0.7636768

vt 0.2578874 0.9903381
vt 0.2894596 0.007246375
vt 0.5531401 0.9903381
vt 0.5531401 0.007246375
vt 0.7587385 0.9903381
vt 0.7511576 0.007246375
vt 1 0.9903381
vt 1 0.007246375
vt 0 0.9903381
vt 0 0.007246375

usemtl sn21_03_kmsn2103.jpg
usemap sn21_03_kmsn2103.jpg
f 3/3/3 1/1/1 2/2/2
f 2/2/2 4/4/4 3/3/3
f 7/7/7 5/5/5 6/6/6
f 6/6/6 8/8/8 7/7/7
f 5/5/5 3/3/3 4/4/4
f 4/4/4 6/6/6 5/5/5
f 1/1/1 9/9/9 10/10/10
f 10/10/10 2/2/2 1/1/1
