mtllib ./Object45.mtl
g Object45
v -366.3118 -169.5439 14.23179
v -7.109411 -41.94818 53.57887
v -364.9977 -147.1645 -47.65499
v 0.7201809 -24.42487 0.6487639
v -348.9197 -167.0373 -103.3416
v 7.989221 -39.61618 -48.49049
v -318.7278 -211.3452 -162.1969
v 18.2518 -97.33292 -117.868
v -353.7909 -211.3452 74.83664
v -16.81132 -97.33292 119.1655

vn 0.5466681 0.794234 0.2652289
vn 0.4528663 0.845612 0.2825819
vn 0.1052025 0.942623 0.3168506
vn -0.1198631 0.9406195 0.317597
vn -0.4479163 0.8462772 0.2884195
vn -0.5428098 0.7944993 0.2722653
vn -0.616658 0.7452021 0.2537853
vn -0.6160593 0.7455894 0.2541013
vn 0.6207916 0.7444746 0.2457142
vn 0.6204002 0.7447995 0.2457184

vt 0.2578874 0.9903381
vt 0.2894596 0.007246375
vt 0.5531401 0.9903381
vt 0.5531401 0.007246375
vt 0.7587385 0.9903381
vt 0.7511576 0.007246375
vt 1 0.9903381
vt 1 0.007246375
vt 0 0.9903381
vt 0 0.007246375

usemtl sn21_03_kmsn2103.jpg
usemap sn21_03_kmsn2103.jpg
f 3/3/3 1/1/1 2/2/2
f 2/2/2 4/4/4 3/3/3
f 7/7/7 5/5/5 6/6/6
f 6/6/6 8/8/8 7/7/7
f 5/5/5 3/3/3 4/4/4
f 4/4/4 6/6/6 5/5/5
f 1/1/1 9/9/9 10/10/10
f 10/10/10 2/2/2 1/1/1
