mtllib ./Object57.mtl
g Object57
v -302.6407 -196.6712 87.67828
v 5.216361 -48.66013 45.20617
v -307.8058 -170.711 36.16756
v 0.7217555 -28.33307 0.3806807
v -312.6247 -193.7635 -11.89236
v -3.450967 -45.95496 -41.23441
v -317.8698 -255.2843 -64.202
v -9.342256 -112.9064 -99.9889
v -297.7417 -255.2843 136.5371
v 10.78576 -112.9064 100.7502

vn 0.506621 0.6902515 0.5166121
vn 0.3970968 0.7615274 0.5122405
vn -0.009699345 0.8995073 0.4367979
vn -0.2727686 0.8989405 0.3427874
vn -0.6344655 0.7595367 0.1433797
vn -0.7245606 0.6851152 0.07502899
vn -0.7791032 0.6264036 0.02483594
vn -0.7752485 0.6309162 0.0305742
vn 0.5955892 0.6179989 0.5131772
vn 0.5895362 0.6247922 0.5119392

vt 0.2578874 0.9903381
vt 0.2894596 0.007246375
vt 0.5531401 0.9903381
vt 0.5531401 0.007246375
vt 0.7587385 0.9903381
vt 0.7511576 0.007246375
vt 1 0.9903381
vt 1 0.007246375
vt 0 0.9903381
vt 0 0.007246375

usemtl sn21_03_kmsn2103.jpg
usemap sn21_03_kmsn2103.jpg
f 3/3/3 1/1/1 2/2/2
f 2/2/2 4/4/4 3/3/3
f 7/7/7 5/5/5 6/6/6
f 6/6/6 8/8/8 7/7/7
f 5/5/5 3/3/3 4/4/4
f 4/4/4 6/6/6 5/5/5
f 1/1/1 9/9/9 10/10/10
f 10/10/10 2/2/2 1/1/1
