mtllib ./Object47.mtl
g Object47
v -350.9687 -169.5439 67.40155
v 0.9016803 -41.94818 54.09397
v -368.3914 -147.1645 6.91001
v 0.8093998 -24.42487 0.5355577
v -351.1737 -167.0373 -51.56759
v 0.7237077 -39.61618 -49.18711
v -324.9081 -194.2162 -106.9508
v 0.6027439 -97.33292 -119.3882
v -324.4948 -194.2162 132.8967
v 1.016055 -97.33292 120.4592

vn 0.4754768 0.8257307 -0.3034647
vn 0.4750239 0.8382032 -0.2678951
vn 0.3292456 0.9420484 0.0643608
vn 0.2127898 0.9379753 0.2737204
vn 0.06172687 0.8613803 0.5041963
vn -0.003174499 0.8157696 0.5783685
vn -0.05589157 0.7725537 0.6324848
vn -0.09030539 0.7488425 0.6565667
vn 0.4221891 0.8712574 -0.2503336
vn 0.4807882 0.8055734 -0.3462575

vt 0.2578874 0.9903381
vt 0.2894596 0.007246375
vt 0.5531401 0.9903381
vt 0.5531401 0.007246375
vt 0.7587385 0.9903381
vt 0.7511576 0.007246375
vt 1 0.9903381
vt 1 0.007246375
vt 0 0.9903381
vt 0 0.007246375

usemtl sn21_03_kmsn2103.jpg
usemap sn21_03_kmsn2103.jpg
f 3/3/3 1/1/1 2/2/2
f 2/2/2 4/4/4 3/3/3
f 7/7/7 5/5/5 6/6/6
f 6/6/6 8/8/8 7/7/7
f 5/5/5 3/3/3 4/4/4
f 4/4/4 6/6/6 5/5/5
f 1/1/1 9/9/9 10/10/10
f 10/10/10 2/2/2 1/1/1
