mtllib ./Object53.mtl
g Object53
v -330.2025 -196.6713 50.67606
v -0.7157179 -48.66019 48.24317
v -328.5684 -170.7111 -4.187421
v 0.7062879 -28.3331 0.5001159
v -327.0438 -193.7635 -55.37559
v 2.026464 -45.95505 -43.82375
v -325.3843 -255.2844 -111.09
v 3.890351 -112.9065 -106.4025
v -331.7524 -255.2844 102.7151
v -2.477732 -112.9065 107.4026

vn -0.3363458 0.7111114 0.6174076
vn -0.3611778 0.7798272 0.5112927
vn -0.4009398 0.9091393 0.1127526
vn -0.3884833 0.9086186 -0.1532739
vn -0.3114509 0.7779254 -0.5457385
vn -0.2754372 0.7061123 -0.652334
vn -0.2453658 0.6485366 -0.7205525
vn -0.249542 0.6529894 -0.7150761
vn -0.3096283 0.640231 0.7030183
vn -0.3100435 0.6469454 0.6966597

vt 0.2578874 0.9903381
vt 0.2894596 0.007246375
vt 0.5531401 0.9903381
vt 0.5531401 0.007246375
vt 0.7587385 0.9903381
vt 0.7511576 0.007246375
vt 1 0.9903381
vt 1 0.007246375
vt 0 0.9903381
vt 0 0.007246375

usemtl sn21_03_kmsn2103.jpg
usemap sn21_03_kmsn2103.jpg
f 3/3/3 1/1/1 2/2/2
f 2/2/2 4/4/4 3/3/3
f 7/7/7 5/5/5 6/6/6
f 6/6/6 8/8/8 7/7/7
f 5/5/5 3/3/3 4/4/4
f 4/4/4 6/6/6 5/5/5
f 1/1/1 9/9/9 10/10/10
f 10/10/10 2/2/2 1/1/1
