mtllib ./Object50.mtl
g Object50
v -351.3505 -169.5439 39.613
v -2.441525 -41.94818 54.09263
v -364.4345 -147.1645 -16.71483
v 0.7751911 -24.42487 0.5842857
v -344.2052 -167.0373 -79.24498
v 3.76158 -39.61618 -49.09187
v -308.3707 -197.8395 -140.0302
v 7.977881 -97.33292 -119.2273
v -322.776 -197.8395 99.59293
v -6.427412 -97.33292 120.3958

vn -0.03898492 0.7958438 -0.6042455
vn 0.006258786 0.8310848 -0.5561104
vn 0.2237823 0.9406449 -0.2551641
vn 0.3416341 0.9383308 -0.05311802
vn 0.4641216 0.8636972 0.1965153
vn 0.4948674 0.8165194 0.2973256
vn 0.5133981 0.775353 0.3677639
vn 0.5153271 0.7511413 0.412583
vn -0.04863802 0.8049381 -0.5913621
vn -0.07274809 0.7694387 -0.6345642

vt 0.2578874 0.9903381
vt 0.2894596 0.007246375
vt 0.5531401 0.9903381
vt 0.5531401 0.007246375
vt 0.7587385 0.9903381
vt 0.7511576 0.007246375
vt 1 0.9903381
vt 1 0.007246375
vt 0 0.9903381
vt 0 0.007246375

usemtl sn21_03_kmsn2103.jpg
usemap sn21_03_kmsn2103.jpg
f 3/3/3 1/1/1 2/2/2
f 2/2/2 4/4/4 3/3/3
f 7/7/7 5/5/5 6/6/6
f 6/6/6 8/8/8 7/7/7
f 5/5/5 3/3/3 4/4/4
f 4/4/4 6/6/6 5/5/5
f 1/1/1 9/9/9 10/10/10
f 10/10/10 2/2/2 1/1/1
