mtllib ./Object77.mtl
g Object77
v -201.3092 -172.5183 -92.75574
v -18.04556 -42.68402 26.4412
v -180.3328 -149.7462 -122.5253
v 0.2084758 -24.85321 0.5352287
v -160.7616 -169.9677 -150.3006
v 17.15518 -40.3111 -23.51537
v -139.4598 -223.9333 -180.5319
v 41.08139 -99.04041 -57.47134
v -221.2058 -223.9333 -64.51878
v -40.66456 -99.04041 58.54176

vn -0.536088 0.6076077 -0.5860226
vn -0.4256843 0.6857797 -0.5903379
vn 0.02946578 0.8553452 -0.5172197
vn 0.3372573 0.8545878 -0.3948889
vn 0.7171312 0.6835214 -0.136093
vn 0.7964951 0.6021721 -0.05462605
vn 0.8405681 0.5417005 0.002387524
vn 0.8376152 0.5462464 -0.003945589
vn -0.6213166 0.5332761 -0.5740924
vn -0.6159286 0.5400813 -0.5735364

vt 0.2578874 0.9903381
vt 0.2894596 0.007246375
vt 0.5531401 0.9903381
vt 0.5531401 0.007246375
vt 0.7587385 0.9903381
vt 0.7511576 0.007246375
vt 1 0.9903381
vt 1 0.007246375
vt 0 0.9903381
vt 0 0.007246375

usemtl sn21_03_kmsn2103.jpg
usemap sn21_03_kmsn2103.jpg
f 3/3/3 1/1/1 2/2/2
f 2/2/2 4/4/4 3/3/3
f 7/7/7 5/5/5 6/6/6
f 6/6/6 8/8/8 7/7/7
f 5/5/5 3/3/3 4/4/4
f 4/4/4 6/6/6 5/5/5
f 1/1/1 9/9/9 10/10/10
f 10/10/10 2/2/2 1/1/1
