mtllib ./Object85.mtl
g Object85
v -167.6387 -172.5187 43.08231
v 2.107907 -42.68439 24.90926
v -169.6134 -149.7465 14.71274
v 0.3894961 -24.85358 0.2215901
v -171.4558 -169.968 -11.75631
v -1.205831 -40.31146 -22.69797
v -173.4611 -223.9337 -40.56593
v -3.458231 -99.04077 -55.05696
v -165.7657 -223.9337 69.99129
v 4.237218 -99.04077 55.50026

vn -0.1428869 0.5128526 0.8465019
vn -0.225231 0.5926539 0.7733256
vn -0.5038326 0.79018 0.3489531
vn -0.6135351 0.7892011 -0.02713327
vn -0.6065427 0.5902663 -0.5326273
vn -0.5753287 0.5075048 -0.6414325
vn -0.5475408 0.449528 -0.7057788
vn -0.551517 0.4537946 -0.6999282
vn -0.0746178 0.4416559 0.8940762
vn -0.07779345 0.4480112 0.8906369

vt 0.2578874 0.9903381
vt 0.2894596 0.007246375
vt 0.5531401 0.9903381
vt 0.5531401 0.007246375
vt 0.7587385 0.9903381
vt 0.7511576 0.007246375
vt 1 0.9903381
vt 1 0.007246375
vt 0 0.9903381
vt 0 0.007246375

usemtl sn21_03_kmsn2103.jpg
usemap sn21_03_kmsn2103.jpg
f 3/3/3 1/1/1 2/2/2
f 2/2/2 4/4/4 3/3/3
f 7/7/7 5/5/5 6/6/6
f 6/6/6 8/8/8 7/7/7
f 5/5/5 3/3/3 4/4/4
f 4/4/4 6/6/6 5/5/5
f 1/1/1 9/9/9 10/10/10
f 10/10/10 2/2/2 1/1/1
