mtllib ./Object72.mtl
g Object72
v -243.2999 -196.6709 13.93224
v -3.860904 -48.65979 34.98402
v -238.3137 -170.7107 -25.79599
v 0.478177 -28.33276 0.4118212
v -233.6615 -193.7632 -62.8628
v 4.506509 -45.95465 -31.68433
v -228.598 -255.284 -103.2072
v 10.19393 -112.9061 -76.99941
v -248.0294 -255.284 51.61524
v -9.237499 -112.9061 77.82316

vn -0.6391559 0.5937093 0.4888652
vn -0.6359917 0.6725354 0.378432
vn -0.5262516 0.8468547 -0.0767878
vn -0.3733746 0.8460644 -0.3804819
vn -0.0737669 0.6702458 -0.7384639
vn 0.01577348 0.5882595 -0.8085185
vn 0.07703187 0.5278781 -0.8458197
vn 0.07040787 0.5324018 -0.8435586
vn -0.6327825 0.5195011 0.5741994
vn -0.6319093 0.5262675 0.5689756

vt 0.2578874 0.9903381
vt 0.2894596 0.007246375
vt 0.5531401 0.9903381
vt 0.5531401 0.007246375
vt 0.7587385 0.9903381
vt 0.7511576 0.007246375
vt 1 0.9903381
vt 1 0.007246375
vt 0 0.9903381
vt 0 0.007246375

usemtl sn21_03_kmsn2103.jpg
usemap sn21_03_kmsn2103.jpg
f 3/3/3 1/1/1 2/2/2
f 2/2/2 4/4/4 3/3/3
f 7/7/7 5/5/5 6/6/6
f 6/6/6 8/8/8 7/7/7
f 5/5/5 3/3/3 4/4/4
f 4/4/4 6/6/6 5/5/5
f 1/1/1 9/9/9 10/10/10
f 10/10/10 2/2/2 1/1/1
