mtllib ./Object70.mtl
g Object70
v -117.9813 -196.6709 -213.3276
v -33.21561 -48.65979 11.67698
v -80.00101 -170.7107 -226.0458
v -0.1645502 -28.33276 0.6094157
v -44.56508 -193.7632 -237.9119
v 30.51946 -45.95465 -9.665476
v -5.995687 -255.284 -250.8273
v 73.84078 -112.9061 -24.17216
v -154.0063 -255.284 -201.2641
v -74.16977 -112.9061 25.39103

vn -0.1042049 0.5938357 -0.7978098
vn -0.01012874 0.6726564 -0.7398856
vn 0.3293259 0.8469335 -0.4174303
vn 0.5160018 0.8461435 -0.1333543
vn 0.6764745 0.6703675 0.3049423
vn 0.6924543 0.5883865 0.4175027
vn 0.6941823 0.5280039 0.4892065
vn 0.6955313 0.5325278 0.4823386
vn -0.1813091 0.519626 -0.8349347
vn -0.1772202 0.5263923 -0.8315673

vt 0.2578874 0.9903381
vt 0.2894596 0.007246375
vt 0.5531401 0.9903381
vt 0.5531401 0.007246375
vt 0.7587385 0.9903381
vt 0.7511576 0.007246375
vt 1 0.9903381
vt 1 0.007246375
vt 0 0.9903381
vt 0 0.007246375

usemtl sn21_03_kmsn2103.jpg
usemap sn21_03_kmsn2103.jpg
f 3/3/3 1/1/1 2/2/2
f 2/2/2 4/4/4 3/3/3
f 7/7/7 5/5/5 6/6/6
f 6/6/6 8/8/8 7/7/7
f 5/5/5 3/3/3 4/4/4
f 4/4/4 6/6/6 5/5/5
f 1/1/1 9/9/9 10/10/10
f 10/10/10 2/2/2 1/1/1
