mtllib ./san009.mtl
g san009
v 4104.172 31.66492 -3205.25
v 4019.47 33.56393 -3232.403
v 4024.077 33.5639 -3180.288
v 4104.172 31.66492 -3205.25
v 4024.077 33.5639 -3180.288
v 4107.948 -55.33464 -3187.025
v 4096.532 -55.33464 -3252.223
v 4107.948 -55.33464 -3187.025
v 4125.063 -67.94356 -3222.226
v 4104.172 31.66492 -3205.25
v 4107.948 -55.33464 -3187.025
v 4096.532 -55.33464 -3252.223
v 4104.172 31.66492 -3205.25
v 4096.532 -55.33464 -3252.223
v 4019.47 33.56393 -3232.403
v 4019.47 33.56393 -3232.403
v 3968.072 -274.3381 -3208.72
v 4024.077 33.5639 -3180.288
v 4025.956 -260.0332 -3148.045
v 4089.04 -153.484 -3174.238
v 4107.948 -55.33464 -3187.025
v 4107.948 -55.33464 -3187.025
v 4127.207 -155.2737 -3219.487
v 4125.063 -67.94356 -3222.226
v 4083.699 -112.8862 -3277.576
v 4096.532 -55.33464 -3252.223
v 4096.532 -55.33464 -3252.223
v 4083.699 -112.8862 -3277.576
v 4014.612 -112.8862 -3240.692
v 4019.47 33.56393 -3232.403
v 3972.484 -245.8537 -3173.385
v 4138.492 -172.9724 -3169.704
v 4126.692 -251.1241 -3155.152
v 4162.269 -247.6306 -3194.908
v 4156.314 -172.9724 -3188.915
v 4127.207 -155.2737 -3219.487
v 4162.269 -247.6306 -3194.908
v 4166.173 -261.9203 -3263.312
v 4100.286 -264.7243 -3327.17
v 4083.699 -112.8862 -3277.576
v 4035.016 -123.4711 -3299.534
v 4042.607 -256.5933 -3303.416
v 3965.982 -253.6176 -3293.368
v 4014.612 -112.8862 -3240.692
v 4127.207 -155.2737 -3219.487
v 4042.607 -256.5933 -3303.416
v 4125.063 -67.94356 -3222.226
v 4046.478 -252.7741 -3132.209
v 4156.314 -172.9724 -3188.915
v 4014.612 -112.8862 -3240.692
v 4083.699 -112.8862 -3277.576
v 4035.016 -123.4711 -3299.534
v 4035.016 -123.4711 -3299.534
v 4021.796 -357.1085 -3215.996
v 4069.269 -342.8037 -3165.316
v 4025.956 -260.0332 -3148.045
v 3972.484 -245.8537 -3173.385
v 3968.072 -274.3381 -3208.72
v 4142.576 -366.0505 -3138.115
v 4188.038 -352.0778 -3169.519
v 4162.269 -247.6306 -3194.908
v 4126.692 -251.1241 -3155.152
v 4144.566 -344.6906 -3265.692
v 4166.173 -261.9203 -3263.312
v 4100.145 -347.4948 -3326.961
v 4100.286 -264.7243 -3327.17
v 4042.467 -339.3637 -3303.206
v 3985.511 -336.3881 -3273.982
v 3965.982 -253.6176 -3293.368
v 4042.607 -256.5933 -3303.416
v 4069.269 -342.8037 -3165.316
v 4046.478 -252.7741 -3132.209
v 4025.956 -260.0332 -3148.045
v 4008.706 -455.9956 -3221.374
v 4069.642 -455.9955 -3167.42
v 4142.949 -455.9956 -3140.217
v 4166.944 -455.9956 -3174.214
v 4144.938 -455.9955 -3267.795
v 4121.984 -455.9955 -3326.472
v 4042.839 -455.9955 -3305.309
v 3985.884 -455.9955 -3276.085
v 4069.642 -455.9955 -3167.42
v 3996.406 -853.6368 -3190.651
v 4040.661 -853.3472 -3124.924
v 4069.642 -455.9955 -3167.42
v 4008.706 -455.9956 -3221.374
v 4143.351 -853.818 -3142.317
v 4167.346 -853.5349 -3176.313
v 4166.944 -455.9956 -3174.214
v 4142.949 -455.9956 -3140.217
v 4151.638 -574.8638 -3240.441
v 4166.806 -853.3854 -3267.304
v 4144.938 -455.9955 -3267.795
v 4122.386 -853.4421 -3328.572
v 4121.984 -455.9955 -3326.472
v 4023.571 -853.2775 -3326.584
v 3966.615 -853.2172 -3297.361
v 3985.884 -455.9955 -3276.085
v 4042.839 -455.9955 -3305.309
v 4040.661 -853.3472 -3124.924
v 4069.642 -455.9955 -3167.42
v 4087.889 -254.572 -3120.325
v 4063.247 -253.5506 -3125.697
v 4063.247 -253.5506 -3125.697
v 4087.889 -254.572 -3120.325
v 4117.37 -252.0396 -3144.733
v 4117.37 -252.0396 -3144.733

vn 0.02306748 0.9997319 -0.002038696
vn 0.02306748 0.9997319 -0.002038696
vn 0.02306748 0.9997319 -0.002038696
vn 0.2955094 0.2081419 0.9323901
vn 0.2955094 0.2081419 0.9323901
vn 0.2955094 0.2081419 0.9323901
vn 0.4746228 0.8762572 -0.08310503
vn 0.4746228 0.8762572 -0.08310503
vn 0.4746228 0.8762572 -0.08310503
vn 0.9849927 0.006621048 -0.1724693
vn 0.9849927 0.006621048 -0.1724693
vn 0.9849927 0.006621048 -0.1724693
vn 0.2835519 0.436202 -0.8540059
vn 0.2835519 0.436202 -0.8540059
vn 0.2835519 0.436202 -0.8540059
vn -0.9683411 0.1460763 -0.2024285
vn -0.977011 0.1988777 -0.07679333
vn -0.5032709 0.1739118 0.8464473
vn -0.1251566 0.1439275 0.9816418
vn 0.2344022 0.2372511 0.9427447
vn 0.177687 0.09340216 0.9796445
vn 0.8216566 -0.02660752 0.5693614
vn 0.7815946 0.2903049 0.5521168
vn 0.7851798 0.0385425 -0.6180673
vn 0.7851798 0.0385425 -0.6180673
vn 0.7444088 0.1231224 -0.6562746
vn -0.2593424 0.179001 -0.9490522
vn -0.4223134 0.4426388 -0.7910261
vn -0.2593424 0.179001 -0.9490522
vn -0.1814079 0.06157072 -0.9814785
vn -0.7327973 0.1516961 0.6633224
vn 0.4876184 0.374935 0.788449
vn 0.4502979 0.1572772 0.8789173
vn 0.74093 0.009271128 0.6715183
vn 0.6661842 0.4173944 0.6180457
vn 0.814331 0.3465275 -0.4656005
vn 0.9290723 0.2924312 -0.2265142
vn 0.7799142 0.4595646 -0.4248932
vn 0.5103016 0.3883536 -0.7673159
vn 0.4355522 0.2441943 -0.8664083
vn -0.5377753 0.247065 -0.8060749
vn -0.1291637 0.02154193 -0.9913893
vn -0.8315428 0.3078244 -0.462364
vn -0.9156734 0.2904285 -0.2778374
vn 0.8006968 0.0008631669 -0.5990691
vn -0.02082085 0.1826936 -0.9829495
vn 0.9037118 0.03555635 0.4266624
vn -0.5054815 0.5109785 0.6952621
vn 0.7512887 0.1121323 -0.6503781
vn -0.1143309 0.9700866 -0.2141504
vn -0.1143309 0.9700866 -0.2141504
vn -0.1143309 0.9700866 -0.2141504
vn 0.4016683 0.04956713 -0.9144428
vn -0.7678559 -0.2597867 0.5855836
vn -0.6793895 -0.1248773 0.7230737
vn -0.5303692 -0.4707862 0.705031
vn -0.5639741 -0.5013085 0.6562186
vn -0.8779885 -0.4258375 0.2186291
vn 0.05433565 0.09873144 0.9936295
vn 0.9952084 -0.02536075 0.09443098
vn 0.8160816 0.2765132 0.507495
vn 0.2054091 0.1019222 0.9733545
vn 0.873868 -0.09282821 -0.4772187
vn 0.9141366 -0.05880045 -0.4011193
vn 0.4016584 0.02752277 -0.9153759
vn 0.516416 -0.07697924 -0.852871
vn -0.3415415 -0.04920276 -0.9385779
vn -0.8967214 -0.2103573 -0.3894106
vn -0.646264 -0.215267 -0.7321222
vn -0.2873558 -0.001939764 -0.957822
vn -0.1881246 -0.1740637 0.9665976
vn -0.4172301 -0.4048291 0.8136538
vn -0.4635183 -0.4068121 0.7871815
vn -0.7687283 0.03986688 0.6383317
vn -0.6628345 -0.01609467 0.7485929
vn 0.2855267 -0.07811235 0.9551821
vn 0.9764627 -0.1047925 -0.1885181
vn 0.9208198 0.05727346 -0.3857597
vn 0.07367738 0.04934315 -0.9960607
vn -0.3815769 0.01533623 -0.9242099
vn -0.9991785 0.03801734 -0.01403821
vn -0.3506956 -0.0206734 0.9362613
vn -0.8560929 0.08131783 0.5103846
vn -0.8238097 0.1193501 0.5541599
vn -0.7475225 0.09930488 0.6567714
vn -0.883191 0.05501254 0.4657761
vn 0.4929475 -0.00409597 0.8700495
vn 0.9985063 0.02178219 0.05010536
vn 0.9873017 0.0001585023 0.1588569
vn 0.1201405 0.04561767 0.9917083
vn 0.9922348 0.02804201 -0.1211761
vn 0.9511858 0.03834398 -0.3062276
vn 0.9668512 0.04041788 -0.2521215
vn 0.1689467 0.02693802 -0.985257
vn 0.5588516 0.02202832 -0.8289751
vn -0.2726421 0.06463304 -0.9599422
vn -0.9979317 0.06021574 -0.02250579
vn -0.776969 0.07118623 -0.6255011
vn -0.2173754 0.04255184 -0.9751601
vn -0.05543171 0.05264414 0.9970738
vn -0.3451815 0.1246601 0.9302202
vn 0.3025211 -0.4828769 0.8217729
vn -0.2683328 -0.4059073 0.8736343
vn -0.2242783 0.4715172 0.8528604
vn 0.2853948 0.4484736 0.8470073
vn 0.6126513 -0.4689489 0.636196
vn 0.5980171 0.3827123 0.7042066

vt 0.424595 0.5248583
vt 0.2945408 0.6164657
vt 0.1922746 0.3960247
vt 0.2699854 0.8197269
vt 0.3776298 0.8096322
vt 0.2237329 0.6632655
vt 0.4981067 0.6018504
vt 0.3422135 0.3897259
vt 0.635309 0.427203
vt 0.2639887 0.8207565
vt 0.210982 0.6599914
vt 0.1525751 0.679315
vt 0.792345 1.062148
vt 0.9097924 0.9720588
vt 0.611895 0.8237379
vt 0.5938803 0.8134511
vt 0.6857957 -0.05852899
vt 0.3858441 0.8064946
vt 0.3578836 -0.05925435
vt 0.179527 0.3939313
vt 0.2210412 0.6549924
vt 0.2139235 0.6519052
vt 0.01989822 0.5057152
vt 0.05039132 0.7922229
vt -0.2937565 0.4530817
vt -0.2092609 0.8426
vt 0.9173523 0.9595083
vt 0.8429024 0.4525987
vt 0.7555511 0.4267518
vt 0.6088408 0.8097498
vt 0.5941707 -0.05873168
vt -0.1331789 0.3339104
vt -0.07191903 -0.08563358
vt -0.3310222 -0.08238247
vt -0.25827 0.393693
vt 0.005511036 0.4952107
vt -0.33652 -0.0904569
vt -0.5393305 -0.05648257
vt -0.02525383 -0.095699
vt -0.2909699 0.4505274
vt 0.9762633 0.4761143
vt 1.165936 -0.008810718
vt 0.9529787 -0.05551583
vt 0.7434406 0.4241487
vt 0.007118434 0.4991597
vt -0.5951231 -0.07894304
vt 0.06120927 0.7765018
vt 0.2427399 -0.06632131
vt -0.2710665 0.3983555
vt 0.2242391 0.6917546
vt 0.4793198 0.7204949
vt 0.4559973 0.8867408
vt -0.449483 0.4483941
vt 1.827125 0.5011689
vt 2.333347 0.5843484
vt 2.150143 0.9576126
vt 1.920918 0.8976748
vt 1.832031 0.8744327
vt 0.1017393 0.4491735
vt 0.2869751 0.5304214
vt 0.2877865 0.9036857
vt 0.1026114 0.8224377
vt 0.6910574 0.5733762
vt 0.6369035 0.94664
vt 1.023022 0.5570705
vt 1.022669 0.9303347
vt 1.286325 0.6043509
vt 1.556956 0.6216536
vt 1.531113 0.9949178
vt 1.285294 0.9776151
vt -0.2066532 0.5843484
vt -0.2579254 0.9213994
vt -0.3898572 0.9576126
vt 1.781183 0.03153123
vt 2.334053 0.03153159
vt 0.1074978 0.03153101
vt 0.265616 0.03153141
vt 0.6993911 0.03153159
vt 0.9434369 0.03153159
vt 1.280632 0.03153178
vt 1.549002 0.03153178
vt -0.2059468 0.03153159
vt 1.919553 0.0008337796
vt 2.245618 0.001368552
vt 2.334053 0.9427988
vt 1.781183 0.9427987
vt 0.1134927 0.0004995465
vt 0.273495 0.001021922
vt 0.265616 0.9427987
vt 0.1074978 0.9427986
vt 0.5720438 0.661198
vt 0.651082 0.00129804
vt 0.6993911 0.9427988
vt 0.9452363 0.001193166
vt 0.9434369 0.9427988
vt 1.31337 0.001497209
vt 1.519547 0.001608431
vt 1.549002 0.9427989
vt 1.280632 0.9427989
vt -0.2943819 0.001368552
vt -0.2059468 0.9427988
vt -0.09352869 0.8762751
vt -0.1716785 0.8977259
vt 0.1674678 -0.07094115
vt 0.0992625 -0.07512727
vt 0.04591624 0.8379997
vt -0.02243825 -0.08259668

usemtl sn21_12_sn2101.jpg
usemap sn21_12_sn2101.jpg
f 3/3/3 1/1/1 2/2/2
f 6/6/6 4/4/4 5/5/5
f 12/12/12 10/10/10 11/11/11
f 15/15/15 13/13/13 14/14/14
f 18/18/18 16/16/16 17/17/17
f 20/20/20 18/18/18 19/19/19
f 21/21/21 18/18/18 20/20/20
f 23/23/23 22/22/22 20/20/20
f 26/26/26 24/24/24 25/25/25
f 29/29/29 27/27/27 28/28/28
f 30/30/30 27/27/27 29/29/29
f 31/31/31 18/18/18 17/17/17
f 34/34/34 32/32/32 33/33/33
f 35/35/35 32/32/32 34/34/34
f 38/38/38 36/36/36 37/37/37
f 39/39/39 36/36/36 38/38/38
f 39/39/39 40/40/40 36/36/36
f 43/43/43 41/41/41 42/42/42
f 44/44/44 41/41/41 43/43/43
f 16/16/16 44/44/44 17/17/17
f 24/24/24 45/45/45 25/25/25
f 46/46/46 40/40/40 39/39/39
f 22/22/22 23/23/23 47/47/47
f 32/32/32 23/23/23 20/20/20
f 23/23/23 32/32/32 35/35/35
f 48/48/48 20/20/20 19/19/19
f 20/20/20 33/33/33 32/32/32
f 49/49/49 37/37/37 36/36/36
f 52/52/52 50/50/50 51/51/51
f 40/40/40 46/46/46 53/53/53
f 17/17/17 44/44/44 43/43/43
f 19/19/19 18/18/18 31/31/31
f 105/105/105 20/20/20 104/104/104
f 104/104/104 20/20/20 48/48/48
f 33/33/33 20/20/20 107/107/107
f 107/107/107 20/20/20 105/105/105

usemtl sn21_17_sn2110.jpg
usemap sn21_17_sn2110.jpg
f 9/9/9 7/7/7 8/8/8

usemtl sn21_13_sn2102.jpg
usemap sn21_13_sn2102.jpg
f 56/56/56 54/54/54 55/55/55
f 54/54/54 57/57/57 58/58/58
f 61/61/61 59/59/59 60/60/60
f 59/59/59 61/61/61 62/62/62
f 64/64/64 60/60/60 63/63/63
f 60/60/60 64/64/64 61/61/61
f 66/66/66 63/63/63 65/65/65
f 63/63/63 66/66/66 64/64/64
f 69/69/69 67/67/67 68/68/68
f 67/67/67 69/69/69 70/70/70
f 70/70/70 65/65/65 67/67/67
f 65/65/65 70/70/70 66/66/66
f 62/62/62 71/71/71 59/59/59
f 71/71/71 72/72/72 73/73/73
f 58/58/58 68/68/68 54/54/54
f 68/68/68 58/58/58 69/69/69
f 55/55/55 74/74/74 75/75/75
f 74/74/74 55/55/55 54/54/54
f 60/60/60 76/76/76 77/77/77
f 76/76/76 60/60/60 59/59/59
f 63/63/63 77/77/77 78/78/78
f 77/77/77 63/63/63 60/60/60
f 65/65/65 78/78/78 79/79/79
f 78/78/78 65/65/65 63/63/63
f 68/68/68 80/80/80 81/81/81
f 80/80/80 68/68/68 67/67/67
f 67/67/67 79/79/79 80/80/80
f 79/79/79 67/67/67 65/65/65
f 59/59/59 82/82/82 76/76/76
f 82/82/82 59/59/59 71/71/71
f 54/54/54 81/81/81 74/74/74
f 81/81/81 54/54/54 68/68/68
f 54/54/54 56/56/56 57/57/57
f 71/71/71 102/102/102 103/103/103
f 71/71/71 103/103/103 72/72/72
f 71/71/71 62/62/62 106/106/106
f 71/71/71 106/106/106 102/102/102

usemtl sn21_14_sn2103.jpg
usemap sn21_14_sn2103.jpg
f 85/85/85 83/83/83 84/84/84
f 83/83/83 85/85/85 86/86/86
f 89/89/89 87/87/87 88/88/88
f 87/87/87 89/89/89 90/90/90
f 93/93/93 91/91/91 92/92/92
f 91/91/91 93/93/93 89/89/89
f 95/95/95 92/92/92 94/94/94
f 92/92/92 95/95/95 93/93/93
f 98/98/98 96/96/96 97/97/97
f 96/96/96 98/98/98 99/99/99
f 99/99/99 94/94/94 96/96/96
f 94/94/94 99/99/99 95/95/95
f 90/90/90 100/100/100 87/87/87
f 100/100/100 90/90/90 101/101/101
f 86/86/86 97/97/97 83/83/83
f 97/97/97 86/86/86 98/98/98
f 88/88/88 91/91/91 89/89/89
f 91/91/91 88/88/88 92/92/92
