mtllib ./san012.mtl
g san012
v 9.2031 41.91409 -24.87634
v 15.42663 41.91409 -51.12741
v -16.12731 41.91409 -80.20975
v -88.48528 41.91409 43.27481
v -30.63691 41.91409 40.99994
v -11.54143 41.91409 18.48022
v -7.416334 41.91409 -9.020386
v -106.4291 41.91409 -65.67148
v -151.6884 41.91409 -25.00156
v -137.2507 41.91409 15.56198
v 8.623381 12.53807 -58.89664
v 15.42663 12.53807 -51.12741
v 15.42663 41.91409 -51.12741
v 9.2031 41.91409 -24.87634
v 15.42663 12.53807 -51.12741
v -16.12731 12.53807 -80.20975
v -16.12731 41.91409 -80.20975
v -88.48528 12.53807 43.27481
v -30.63691 12.53807 40.99994
v -30.63691 41.91409 40.99994
v -88.48528 41.91409 43.27481
v -11.54143 12.53807 18.48022
v -11.54143 41.91409 18.48022
v -7.416334 12.53807 -9.020386
v 8.623381 12.53807 -58.89664
v -7.416334 41.91409 -9.020386
v -115.0449 12.53807 -79.59207
v -106.4291 41.91409 -65.67148
v -171.2948 12.53807 -25.00156
v -151.6884 41.91409 -25.00156
v -156.857 12.53807 15.56198
v -137.2507 41.91409 15.56198
v -88.48528 12.53807 43.27481
v -88.48528 41.91409 43.27481
v 3.386003 -26.43461 -62.02917
v 10.18925 -26.43461 -54.25943
v 10.18925 -26.43461 -54.25943
v -6.246943 -26.43461 -94.04388
v -91.96398 -26.43461 50.58823
v -35.87429 -26.43461 51.96298
v -16.7788 -26.43461 15.34772
v -12.65371 -26.43461 -12.15292
v 3.386003 -26.43461 -62.02917
v -122.4719 -26.43461 -92.46848
v -192.7228 -26.43461 -28.13409
v -179.8878 -26.43461 25.11832
v -91.96398 -26.43461 50.58823

vn 0 1 0
vn 0 1 0
vn 0 1 0
vn 0 1 0
vn 0 1 0
vn 0 1 0
vn 0 1 0
vn 0 1 0
vn 0 1 0
vn 0 1 0
vn 0.3328753 -0.2877273 0.8980017
vn -0.7518765 0.0349544 0.6583767
vn 0.9213142 -0.1496424 -0.3588696
vn 0.8885189 -0.2635647 0.3755899
vn 0.6776665 -0.01275369 -0.7352588
vn 0.235732 0.2543724 -0.9379366
vn 0.2735331 0 -0.9618626
vn 0.039189 0.07318358 0.9965483
vn 0.2739085 0.13426 0.9523384
vn 0.1968925 0 0.9804251
vn 0.03929437 0 0.9992276
vn 0.9161922 -0.05139286 0.3974299
vn 0.8637735 0 0.5038803
vn 0.9452922 -0.1661716 0.2807304
vn 0.9311009 -0.2083052 0.2994329
vn 0.943569 0 0.3311761
vn -0.2682134 0.3964075 -0.878022
vn -0.2197017 0.3165369 -0.9227868
vn -0.783788 0.4773205 -0.3972928
vn -0.7217315 0.5148168 -0.4626741
vn -0.6436475 0.4091623 0.6467642
vn -0.7153216 0.4774253 0.5102744
vn -0.3267931 0.2290405 0.9169224
vn -0.4234148 0.1412991 0.8948489
vn -0.7514683 0.04810143 0.6580133
vn -0.751479 0.04810827 0.6580008
vn 0.8083907 0.1707722 -0.5633307
vn 0.1496893 0.3566974 -0.9221496
vn 0.007692718 0.2274639 0.9737561
vn 0.5194237 0.106588 0.8478432
vn 0.9473786 -0.1500428 0.2827733
vn 0.9510133 -0.1495506 0.2705708
vn 0.9410976 -0.1507963 0.3026478
vn -0.4126979 0.3723087 -0.8313041
vn -0.8309376 0.5084802 -0.225811
vn -0.4887633 0.3973624 0.7766683
vn -0.2725695 0.2008993 0.9409279

vt 0.5454143 0.107607
vt 0.7435305 0.04195295
vt 0.9831684 0.2987326
vt 0.06964177 0.9085464
vt 0.06094426 0.4799545
vt 0.223689 0.3057354
vt 0.4324909 0.2574792
vt 0.9148015 1.011212
vt 0.6223966 1.35049
vt 0.3036557 1.245788
vt 0.5979609 0.7489688
vt 0.5661541 0.7489688
vt 0.5661541 0.934467
vt 0.4820133 0.934467
vt 0.5661541 0.5037515
vt 0.708676 0.5037515
vt 0.708676 0.934467
vt -0.04646301 0.5037515
vt 0.1758628 0.5037515
vt 0.1758628 0.934467
vt -0.04646301 0.934467
vt 0.2982239 0.5037515
vt 0.2982239 0.934467
vt 0.4156153 0.5037515
vt 0.5979609 0.5037515
vt 0.4156153 0.934467
vt 1.106131 0.5037515
vt 1.094954 0.934467
vt 1.442735 0.5037515
vt 1.435537 0.934467
vt 1.628025 0.5037515
vt 1.683593 0.934467
vt 1.953537 0.5037515
vt 1.953537 0.934467
vt 0.6152564 0.5048966
vt 0.5816444 0.5048966
vt 0.5816444 -0.02186669
vt 0.7181175 -0.02186669
vt -0.06105518 -0.02186669
vt 0.1342347 -0.02186669
vt 0.2987315 -0.02186669
vt 0.4266913 -0.02186669
vt 0.6152564 -0.02186669
vt 1.110582 -0.02186669
vt 1.437246 -0.02186669
vt 1.618004 -0.02186669
vt 1.938945 -0.02186669

usemtl sn21_17_sn2110.jpg
usemap sn21_17_sn2110.jpg
f 3/3/3 1/1/1 2/2/2
f 6/6/6 4/4/4 5/5/5
f 3/3/3 7/7/7 1/1/1
f 8/8/8 7/7/7 3/3/3
f 9/9/9 7/7/7 8/8/8
f 10/10/10 7/7/7 9/9/9
f 4/4/4 7/7/7 10/10/10
f 6/6/6 7/7/7 4/4/4

usemtl sn21_12_sn2101.jpg
usemap sn21_12_sn2101.jpg
f 13/13/13 11/11/11 12/12/12
f 11/11/11 13/13/13 14/14/14
f 17/17/17 15/15/15 16/16/16
f 15/15/15 17/17/17 13/13/13
f 20/20/20 18/18/18 19/19/19
f 18/18/18 20/20/20 21/21/21
f 23/23/23 19/19/19 22/22/22
f 19/19/19 23/23/23 20/20/20
f 14/14/14 24/24/24 25/25/25
f 24/24/24 14/14/14 26/26/26
f 28/28/28 16/16/16 27/27/27
f 16/16/16 28/28/28 17/17/17
f 30/30/30 27/27/27 29/29/29
f 27/27/27 30/30/30 28/28/28
f 32/32/32 29/29/29 31/31/31
f 29/29/29 32/32/32 30/30/30
f 34/34/34 31/31/31 33/33/33
f 31/31/31 34/34/34 32/32/32
f 26/26/26 22/22/22 24/24/24
f 22/22/22 26/26/26 23/23/23
f 12/12/12 35/35/35 36/36/36
f 35/35/35 12/12/12 11/11/11
f 16/16/16 37/37/37 38/38/38
f 37/37/37 16/16/16 15/15/15
f 19/19/19 39/39/39 40/40/40
f 39/39/39 19/19/19 18/18/18
f 22/22/22 40/40/40 41/41/41
f 40/40/40 22/22/22 19/19/19
f 25/25/25 42/42/42 43/43/43
f 42/42/42 25/25/25 24/24/24
f 27/27/27 38/38/38 44/44/44
f 38/38/38 27/27/27 16/16/16
f 29/29/29 44/44/44 45/45/45
f 44/44/44 29/29/29 27/27/27
f 31/31/31 45/45/45 46/46/46
f 45/45/45 31/31/31 29/29/29
f 33/33/33 46/46/46 47/47/47
f 46/46/46 33/33/33 31/31/31
f 24/24/24 41/41/41 42/42/42
f 41/41/41 24/24/24 22/22/22
