mtllib ./san011.mtl
g san011
v -57.54808 -41.58207 74.53198
v 60.02042 -41.97009 80.07507
v 45.46082 5.287041 61.7561
v -39.11903 3.772282 76.73291
v 123.4935 -42.16088 -11.15808
v 86.65205 -41.43267 -42.7146
v 83.75624 7.857933 -58.2002
v 97.28571 6.650543 -9.208984
v 18.18658 -41.14429 -59.24304
v 13.19014 9.549145 -67.25623
v -45.81396 -41.52267 -75.50708
v -48.27582 9.086994 -80.07434
v -94.23152 -43.15714 -47.12988
v -88.2139 6.949371 -49.23657
v -123.4928 -40.93047 1.811768
v -91.92168 -42.16766 38.1062
v -87.93126 4.454571 27.62134
v -110.5185 5.704239 -10.49585
v -57.54808 -41.58207 74.53198
v -39.11903 3.772282 76.73291
v 56.81486 33.74013 45.75269
v -17.38675 35.30009 40.83557
v 73.22324 37.10643 -52.5575
v 86.90264 34.9394 5.078491
v 4.035995 32.72644 -58.34131
v -47.06758 37.40563 -78.85193
v -100.5028 30.0745 -52.0166
v -73.814 34.66777 10.88208
v -97.90736 32.07817 -23.19263
v -17.38675 35.30009 40.83557
v -17.38675 35.30009 40.83557
v 56.81486 33.74013 45.75269
v 86.90264 34.9394 5.078491
v 4.035995 32.72644 -58.34131
v -47.06758 37.40563 -78.85193
v 73.22324 37.10643 -52.5575
v -73.814 34.66777 10.88208
v -97.90736 32.07817 -23.19263
v -100.5028 30.0745 -52.0166

vn 0.0449998 0.1694631 0.9845086
vn 0.5073113 0.4261794 0.7490036
vn 0.3913629 0.256142 0.8838701
vn 0.1058825 0.3751797 0.920885
vn 0.9356102 0.3454998 0.0725493
vn 0.2975234 -0.2137664 -0.9304751
vn 0.5209987 0.128437 -0.8438389
vn 0.8629289 0.3914969 0.3195055
vn 0.2277213 -0.1128614 -0.9671636
vn 0.2025204 -0.03669645 -0.9785903
vn -0.268447 -0.05530755 -0.9617054
vn -0.09341494 -0.1001435 -0.9905781
vn -0.7532476 0.07041611 -0.6539569
vn -0.7205012 -0.06273761 -0.6906097
vn -0.9490135 0.2513534 0.190249
vn -0.7082708 0.2245343 0.6692808
vn -0.6365095 0.4834595 0.6009347
vn -0.9441088 0.3214074 -0.07318186
vn -0.705385 0.254519 0.6615527
vn -0.6271045 0.47378 0.6182819
vn 0.2052595 0.5660321 0.798421
vn -0.02713528 0.7591664 0.6503307
vn 0.6943772 0.3931378 -0.6027296
vn 0.9156331 0.1536563 0.3714911
vn 0.169384 0.3451912 -0.9231208
vn 0.02480329 0.1795406 -0.9834378
vn -0.6544052 -0.2251958 -0.7218314
vn -0.5733433 0.5813105 0.5773695
vn -0.9741635 0.2217356 0.04287915
vn -0.4181063 0.7176124 0.5569735
vn 0.004082996 0.9999684 0.006829209
vn 0.01815857 0.998915 0.04288523
vn 0.0161082 0.9991891 0.03690232
vn 0.007789339 0.9996753 -0.02425918
vn -0.01324301 0.9999118 0.0009316183
vn -0.02381347 0.9997094 -0.003768242
vn -0.05188408 0.9985405 0.01500159
vn -0.1251257 0.9919523 -0.01934597
vn -0.1622365 0.9852797 -0.05388204

vt -0.6545635 -0.2853051
vt -0.2060673 -0.2869632
vt -0.194591 0.5280777
vt -0.5834268 0.5216048
vt 0.05973762 -0.2877784
vt 0.1391836 -0.2846667
vt 0.1851182 0.5390636
vt 0.0617775 0.5339041
vt 0.4004411 -0.2834343
vt 0.4372624 0.5462905
vt 0.828335 -0.2850512
vt 0.7481736 0.5443155
vt 0.9957765 -0.2920356
vt 0.9717336 0.5351811
vt 1.105288 -0.2825207
vt 1.202201 -0.2878074
vt 1.179512 0.5245204
vt 1.075513 0.5298604
vt 1.345436 -0.2853051
vt 1.416573 0.5216048
vt -0.117511 0.9685032
vt -0.5142288 0.9751692
vt 0.1835333 0.982888
vt 0.02751112 0.973628
vt 0.472041 0.9641716
vt 0.7888832 0.9841666
vt 0.9735976 0.9528394
vt 1.148959 0.9724672
vt 1.04184 0.9614015
vt 1.485771 0.9751692
vt 0.0005045235 0.7851272
vt 0.1225533 0.1623165
vt 0.5369034 0.0008339441
vt 0.8959579 0.8200015
vt 0.9583328 1.285484
vt 0.9995057 0.2367199
vt 0.1318548 1.314694
vt 0.3699505 1.586234
vt 0.6106887 1.669166

usemtl sn21_12_sn2101.jpg
usemap sn21_12_sn2101.jpg
f 3/3/3 1/1/1 2/2/2
f 1/1/1 3/3/3 4/4/4
f 7/7/7 5/5/5 6/6/6
f 2/2/2 5/5/5 8/8/8
f 10/10/10 6/6/6 9/9/9
f 6/6/6 10/10/10 7/7/7
f 12/12/12 9/9/9 11/11/11
f 9/9/9 12/12/12 10/10/10
f 14/14/14 11/11/11 13/13/13
f 11/11/11 14/14/14 12/12/12
f 17/17/17 15/15/15 16/16/16
f 13/13/13 15/15/15 18/18/18
f 20/20/20 16/16/16 19/19/19
f 16/16/16 20/20/20 17/17/17
f 21/21/21 4/4/4 3/3/3
f 4/4/4 21/21/21 22/22/22
f 23/23/23 8/8/8 7/7/7
f 3/3/3 24/24/24 21/21/21
f 25/25/25 7/7/7 10/10/10
f 7/7/7 25/25/25 23/23/23
f 26/26/26 10/10/10 12/12/12
f 10/10/10 26/26/26 25/25/25
f 27/27/27 12/12/12 14/14/14
f 12/12/12 27/27/27 26/26/26
f 28/28/28 18/18/18 17/17/17
f 14/14/14 29/29/29 27/27/27
f 30/30/30 17/17/17 20/20/20
f 17/17/17 30/30/30 28/28/28
f 3/3/3 8/8/8 24/24/24
f 23/23/23 24/24/24 8/8/8
f 2/2/2 8/8/8 3/3/3
f 7/7/7 8/8/8 5/5/5
f 14/14/14 18/18/18 29/29/29
f 28/28/28 29/29/29 18/18/18
f 13/13/13 18/18/18 14/14/14
f 17/17/17 18/18/18 15/15/15

usemtl sn21_17_sn2110.jpg
usemap sn21_17_sn2110.jpg
f 33/33/33 31/31/31 32/32/32
f 35/35/35 31/31/31 34/34/34
f 34/34/34 31/31/31 36/36/36
f 35/35/35 37/37/37 31/31/31
f 39/39/39 38/38/38 35/35/35
f 36/36/36 31/31/31 33/33/33
f 38/38/38 37/37/37 35/35/35
