mtllib ./san008.mtl
g san008
v 3665.125 -1.425446 -3044.867
v 3700.269 24.41873 -3068.719
v 3649.893 11.78949 -3075.85
v 3666.794 16.61932 -3099.68
v 3587.665 -259.571 -3010.026
v 3624.434 -229.298 -2968.354
v 3675.504 -84.56021 -2984.753
v 3599.072 -259.2578 -3102.645
v 3587.665 -259.571 -3010.026
v 3602.096 -125.9355 -3103.746
v 3602.096 -125.9355 -3103.746
v 3677.243 -259.5482 -3144.225
v 3599.072 -259.2578 -3102.645
v 3759.005 -229.5307 -3019.167
v 3766.334 -259.5193 -3070.49
v 3738.779 -33.45943 -3084.262
v 3655.231 -229.298 -2961.016
v 3685.606 -229.298 -2958.682
v 3718.375 -94.88818 -3000.547
v 3602.096 -125.9355 -3103.746
v 3656.109 -67.12138 -3042.311
v 3635.898 -52.72844 -3093.084
v 3679.839 -53.0851 -3120.137
v 3635.898 -52.72844 -3093.084
v 3679.839 -53.0851 -3120.137
v 3766.334 -259.5193 -3070.49
v 3738.779 -33.45943 -3084.262
v 3695.743 -76.69807 -3025.436
v 3700.269 24.41873 -3068.719
v 3695.743 -76.69807 -3025.436
v 3665.125 -1.425446 -3044.867
v 3700.269 24.41873 -3068.719
v 3656.109 -67.12138 -3042.311
v 3675.504 -84.56021 -2984.753
v 3695.743 -76.69807 -3025.436
v 3649.893 11.78949 -3075.85
v 3666.794 16.61932 -3099.68
v 3649.893 11.78949 -3075.85
v 3738.779 -33.45943 -3084.262
v 3700.269 24.41873 -3068.719
v 3666.794 16.61932 -3099.68
v 3718.375 -94.88818 -3000.547
v 3738.779 -33.45943 -3084.262
v 3695.743 -76.69807 -3025.436
v 3718.375 -94.88818 -3000.547
v 3759.005 -229.5307 -3019.167
v 3729.228 -229.4059 -2986.205
v 3718.375 -94.88818 -3000.547
v 3720.966 -229.3712 -2977.059
v 3738.779 -33.45943 -3084.262
v 3588.306 -373.9284 -3008.769
v 3653.47 -373.9387 -2965.497
v 3655.231 -229.298 -2961.016
v 3624.434 -229.298 -2968.354
v 3587.665 -259.571 -3010.026
v 3616.84 -373.6152 -3101.387
v 3599.072 -259.2578 -3102.645
v 3669.531 -373.9055 -3112.483
v 3677.243 -259.5482 -3144.225
v 3714.637 -373.9035 -3000.113
v 3728.668 -373.8767 -3064.017
v 3766.334 -259.5193 -3070.49
v 3752.303 -259.5462 -3006.585
v 3653.47 -373.9387 -2965.497
v 3713.943 -373.8268 -2967.894
v 3713.302 -259.4695 -2969.151
v 3685.606 -229.298 -2958.682
v 3655.231 -229.298 -2961.016
v 3615.22 -455.9958 -2984.661
v 3656.964 -455.9958 -2958.477
v 3603.206 -455.9958 -3094.367
v 3673.024 -455.9958 -3105.463
v 3718.13 -455.9958 -2993.093
v 3732.162 -455.9958 -3056.998
v 3656.964 -455.9958 -2958.477
v 3717.436 -455.9958 -2960.874
v 3614.149 -854.635 -2986.817
v 3679.314 -854.6353 -2943.544
v 3656.964 -455.9958 -2958.477
v 3656.964 -455.9958 -2958.477
v 3615.22 -455.9958 -2984.661
v 3614.149 -854.635 -2986.817
v 3578.714 -854.6287 -3113.613
v 3603.206 -455.9958 -3094.367
v 3680.306 -854.6345 -3138.104
v 3673.024 -455.9958 -3105.463
v 3755.366 -854.6344 -3000.465
v 3769.397 -854.6339 -3064.369
v 3732.162 -455.9958 -3056.998
v 3718.13 -455.9958 -2993.093
v 3716.365 -854.6329 -2963.03
v 3717.436 -455.9958 -2960.874
v 3708.49 -229.3188 -2963.248
v 3708.49 -229.3188 -2963.248
v 3720.966 -229.3712 -2977.059
v 3701.317 -229.298 -2959.783
v 3701.317 -229.298 -2959.783
v 3713.302 -259.4695 -2969.151
v 3729.228 -229.4059 -2986.205
v 3713.302 -259.4695 -2969.151
v 3752.303 -259.5462 -3006.585
v 3713.302 -259.4695 -2969.151
v 3752.303 -259.5462 -3006.585

vn -0.2766171 0.8273374 0.4888719
vn -0.2713495 0.9166391 0.2935
vn -0.2713495 0.9166391 0.2935
vn -0.2460341 0.9690138 0.02190185
vn -0.8364788 0.3601949 0.4129925
vn -0.645098 0.3069052 0.6997556
vn -0.7000928 0.3542359 0.6199895
vn -0.9922802 0.02149933 -0.1221379
vn -0.9922802 0.02149933 -0.1221379
vn -0.9435753 0.1087198 -0.3128028
vn -0.3756303 0.06873467 -0.9242172
vn 0.2150089 0.0680007 -0.9742418
vn -0.4695967 0.003360498 -0.8828747
vn 0.9919533 0.08994696 0.08909689
vn 0.9919533 0.08994696 0.08909689
vn 0.8790001 0.2227103 0.4216145
vn 0.07559706 0.1914303 0.9785905
vn -0.0254864 0.3029388 0.9526692
vn 0.2881263 0.1983686 0.9368207
vn -0.8435364 0.3606012 0.3980114
vn -0.8225732 0.2396712 0.515685
vn -0.8825413 0.2223582 0.4143402
vn 0.1561111 0.1859289 -0.9700822
vn -0.577398 0.269277 -0.7707797
vn -0.5057295 0.2530468 -0.8247454
vn 0.6372808 0.03077094 -0.7700171
vn 0.5896586 0.05324807 -0.8058953
vn 0.6753393 0.2644692 0.6884569
vn 0.6753393 0.2644692 0.6884569
vn 0.03290561 0.262345 0.964413
vn -0.2320721 0.2569648 0.9381427
vn 0.3286835 0.359181 0.8734736
vn 0.1262833 0.9603839 0.2484257
vn 0.2208669 0.9312392 0.2898473
vn 0.2208669 0.9312392 0.2898473
vn -0.8977038 0.1105555 0.4265037
vn -0.6360042 0.2128024 -0.7417639
vn -0.8040243 0.309947 -0.5074227
vn 0.3488599 0.4525142 -0.8206874
vn 0.4529649 0.4068803 -0.7932662
vn 0.5996252 0.3266377 -0.7305869
vn 0.3360667 0.8794276 0.3371445
vn -0.002050501 0.8064684 0.5912735
vn -0.002050501 0.8064684 0.5912735
vn -0.002050501 0.8064684 0.5912735
vn 0.7160691 0.264737 0.6458788
vn 0.7151319 0.2354454 0.6581427
vn 0.9567208 0.06786115 0.2829845
vn 0.9224158 0.1097503 0.3702757
vn 0.9258264 0.1131492 0.3606147
vn -0.9144191 -0.05255195 0.4013427
vn -0.5490765 0.01800271 0.8355783
vn -0.4651642 -0.07595684 0.8819597
vn -0.5575998 -0.09127026 0.8250769
vn -0.9976873 -0.06663641 -0.01340415
vn -0.810247 -0.04326215 -0.5844897
vn -0.7038756 -0.1729122 -0.6889561
vn 0.1782347 -0.1515772 -0.9722431
vn 0.3225571 -0.2719271 -0.906649
vn 0.97196 -0.1781148 0.1535212
vn 0.8788103 -0.1849037 -0.4398898
vn 0.9084206 -0.3147795 -0.2751104
vn 0.9079679 -0.2052258 0.3653446
vn 0.07176565 -0.01392874 0.9973243
vn 0.4655324 -0.003110153 0.8850254
vn 0.3624938 -0.01255805 0.9319016
vn -0.0267202 -0.04111809 0.9987969
vn -0.07655489 -0.0299434 0.9966155
vn -0.8275799 -0.1156772 0.5493
vn -0.5307083 0.04978461 0.846091
vn -0.921929 -0.1019126 -0.3737121
vn 0.142325 -0.06570229 -0.987637
vn 0.9826365 0.05691181 0.1765979
vn 0.8391319 -0.01079215 -0.543821
vn 0.03938084 0.08677258 0.9954495
vn 0.7308883 0.08889695 0.6766827
vn -0.5531905 0.0001915858 0.8330548
vn -0.1303421 0.01317451 0.9913816
vn -0.3093315 0.01827357 0.9507787
vn -0.5313647 -0.003153699 0.8471375
vn -0.9466721 0.02217779 0.3214346
vn -0.8928139 -3.677385E-05 0.4504257
vn -0.9780404 0.04766204 -0.2028925
vn -0.6712976 0.08355311 -0.7364634
vn 0.1444568 0.07787468 -0.9864419
vn 0.4525278 0.08054947 -0.8881049
vn 0.9236751 0.07934532 0.3748716
vn 0.8080617 0.08671784 -0.5826803
vn 0.9803826 0.09477022 -0.1728254
vn 0.9261749 0.05821483 0.3725735
vn 0.7576602 0.02067486 0.6523218
vn 0.4823988 0.01833831 0.8757598
vn 0.3507217 -0.147806 0.924742
vn 0.6662018 0.1348631 0.733476
vn 0.7381892 0.104386 0.6664686
vn 0.194531 -0.102885 0.9754856
vn 0.1890041 0.2629521 0.946115
vn 0.7419615 -0.01279962 0.6703203
vn 0.7190799 0.249318 0.6486638
vn 0.7419571 -0.01279715 0.6703253
vn 0.713375 0.07500171 0.6967573
vn 0.6918955 0.04232995 0.7207558
vn 0.968811 -0.1271916 0.2126681

vt 0.5464925 0.4446145
vt 0.6396126 0.6694912
vt 0.4119957 0.5635778
vt 0.42862 0.7364606
vt 0.3008443 0.0005360842
vt 0.5749296 0.0005091649
vt 0.7269917 0.6161557
vt 0.417699 0.001637906
vt 0.9581653 0.0005360842
vt 0.4262358 0.4706136
vt 0.8521135 0.4706136
vt 0.6290197 0.0006164014
vt 0.9995002 0.001637906
vt 1.232216 0.03802972
vt 1.417386 -0.01860576
vt 0.8604256 0.795908
vt 0.6728622 0.0004995465
vt 0.7969493 0.0006961307
vt 0.870895 0.5798256
vt 0.1478865 0.4706136
vt 0.5144858 0.6774986
vt 0.3140103 0.7281276
vt 0.5632535 0.7268726
vt 0.3859522 0.7281276
vt 0.1192837 0.7268726
vt 0.04325091 0.03839907
vt 0.020682 0.7770674
vt 0.7197646 0.6475274
vt 0.6471946 1.003217
vt 0.7192288 0.6438113
vt 0.5464925 0.9085908
vt 0.6396126 0.9995005
vt 0.5144858 0.4055863
vt 0.7269917 0.1592653
vt 0.7192288 0.4299095
vt 0.4119957 0.9550761
vt 0.2635394 0.9720655
vt 0.4364221 0.9550761
vt 0.02647911 0.7814152
vt 0.1043488 1.023655
vt 0.513409 1.001051
vt 0.870895 0.3639053
vt 0.8586937 0.7861037
vt 0.7237805 0.6439255
vt 0.8114376 0.598019
vt 1.223966 0.03828984
vt 1.127222 0.02331913
vt 0.8158743 0.5958663
vt 1.106624 0.01756278
vt 0.8604255 0.778317
vt 1.906594 0.3221385
vt 2.280655 0.3220777
vt 2.27591 0.9930195
vt 2.177076 0.9930355
vt 1.900468 0.9930803
vt 1.430963 0.323976
vt 1.480772 0.9949178
vt 1.141102 0.322273
vt 1.101637 0.9932145
vt 0.146691 0.3222844
vt 0.6222554 0.3224419
vt 0.5929517 0.9933837
vt 0.2996552 0.9932262
vt -0.2593448 0.3220777
vt 0.03987553 0.3227344
vt 0.0399566 0.9936762
vt -0.1121294 0.9933478
vt -0.2640896 0.9930195
vt 2.0683 0.05595867
vt 2.304628 0.05595867
vt 1.499202 0.05595867
vt 1.121245 0.05595867
vt 0.1334009 0.05595867
vt 0.5692043 0.05595867
vt -0.2353721 0.05595867
vt 0.03914536 0.05595867
vt -0.4828379 0.0005001128
vt -0.1343628 0.0004996657
vt -0.2353721 0.9505533
vt 2.304628 0.9505533
vt 2.0683 0.9505533
vt 2.057162 0.0005001128
vt 1.494202 0.0005118847
vt 1.499202 0.9505533
vt 1.087695 0.0005009472
vt 1.121245 0.9505533
vt 0.2811982 0.0005010664
vt 0.5650318 0.0005020201
vt 0.5692043 0.9505533
vt 0.1334009 0.9505533
vt 0.03936409 0.0005039573
vt 0.03914536 0.9505533
vt 0.01245174 0.9936168
vt 0.8986793 0.0008572958
vt 0.9138849 0.08447815
vt -0.03255524 0.9935197
vt 0.8619276 0.0007990722
vt 0.9211391 0.0008928776
vt 1.123506 0.02331913
vt 1.089089 -0.02857572
vt 1.284595 -0.0251291
vt 1.096521 -0.02857572
vt 1.293959 -0.02353118

usemtl sn21_17_sn2110.jpg
usemap sn21_17_sn2110.jpg
f 3/3/3 1/1/1 2/2/2
f 4/4/4 3/3/3 2/2/2

usemtl sn21_12_sn2101.jpg
usemap sn21_12_sn2101.jpg
f 7/7/7 5/5/5 6/6/6
f 10/10/10 8/8/8 9/9/9
f 13/13/13 11/11/11 12/12/12
f 16/16/16 14/14/14 15/15/15
f 19/19/19 17/17/17 18/18/18
f 17/17/17 19/19/19 7/7/7
f 7/7/7 20/20/20 5/5/5
f 20/20/20 7/7/7 21/21/21
f 20/20/20 21/21/21 22/22/22
f 23/23/23 12/12/12 11/11/11
f 10/10/10 24/24/24 25/25/25
f 27/27/27 26/26/26 12/12/12
f 12/12/12 23/23/23 27/27/27
f 29/29/29 28/28/28 16/16/16
f 31/31/31 21/21/21 30/30/30
f 30/30/30 32/32/32 31/31/31
f 35/35/35 33/33/33 34/34/34
f 36/36/36 22/22/22 21/21/21
f 21/21/21 31/31/31 36/36/36
f 37/37/37 25/25/25 24/24/24
f 24/24/24 38/38/38 37/37/37
f 40/40/40 39/39/39 23/23/23
f 23/23/23 41/41/41 40/40/40
f 42/42/42 35/35/35 34/34/34
f 45/45/45 43/43/43 44/44/44
f 47/47/47 46/46/46 16/16/16
f 50/50/50 48/48/48 49/49/49
f 19/19/19 94/94/94 95/95/95
f 7/7/7 6/6/6 17/17/17
f 19/19/19 18/18/18 97/97/97
f 19/19/19 97/97/97 94/94/94
f 95/95/95 94/94/94 98/98/98
f 50/50/50 49/49/49 99/99/99
f 99/99/99 49/49/49 100/100/100
f 102/102/102 101/101/101 47/47/47
f 47/47/47 101/101/101 46/46/46
f 14/14/14 103/103/103 15/15/15

usemtl sn21_13_sn2102.jpg
usemap sn21_13_sn2102.jpg
f 53/53/53 51/51/51 52/52/52
f 51/51/51 54/54/54 55/55/55
f 55/55/55 56/56/56 51/51/51
f 56/56/56 55/55/55 57/57/57
f 57/57/57 58/58/58 56/56/56
f 58/58/58 57/57/57 59/59/59
f 62/62/62 60/60/60 61/61/61
f 60/60/60 62/62/62 63/63/63
f 66/66/66 64/64/64 65/65/65
f 64/64/64 67/67/67 68/68/68
f 59/59/59 61/61/61 58/58/58
f 61/61/61 59/59/59 62/62/62
f 63/63/63 65/65/65 60/60/60
f 65/65/65 63/63/63 66/66/66
f 52/52/52 69/69/69 70/70/70
f 69/69/69 52/52/52 51/51/51
f 51/51/51 71/71/71 69/69/69
f 71/71/71 51/51/51 56/56/56
f 56/56/56 72/72/72 71/71/71
f 72/72/72 56/56/56 58/58/58
f 61/61/61 73/73/73 74/74/74
f 73/73/73 61/61/61 60/60/60
f 65/65/65 75/75/75 76/76/76
f 75/75/75 65/65/65 64/64/64
f 58/58/58 74/74/74 72/72/72
f 74/74/74 58/58/58 61/61/61
f 60/60/60 76/76/76 73/73/73
f 76/76/76 60/60/60 65/65/65
f 64/64/64 66/66/66 93/93/93
f 51/51/51 53/53/53 54/54/54
f 64/64/64 96/96/96 67/67/67
f 64/64/64 93/93/93 96/96/96

usemtl sn21_14_sn2103.jpg
usemap sn21_14_sn2103.jpg
f 79/79/79 77/77/77 78/78/78
f 82/82/82 80/80/80 81/81/81
f 81/81/81 83/83/83 82/82/82
f 83/83/83 81/81/81 84/84/84
f 84/84/84 85/85/85 83/83/83
f 85/85/85 84/84/84 86/86/86
f 89/89/89 87/87/87 88/88/88
f 87/87/87 89/89/89 90/90/90
f 92/92/92 78/78/78 91/91/91
f 78/78/78 92/92/92 79/79/79
f 86/86/86 88/88/88 85/85/85
f 88/88/88 86/86/86 89/89/89
f 90/90/90 91/91/91 87/87/87
f 91/91/91 90/90/90 92/92/92
