mtllib ./tt01.mtl
g tt01
v 1369.981 -240.9984 2040.794
v -93.9211 -240.8758 3266.748
v 1829.729 -240.8759 2691.999
v 3048.165 -240.8759 1096.324
v 2326.375 -240.996 -668.3799
v 3095.987 -240.8759 -910.7828
v 1436.259 -241.0216 -1870.141
v 1954.929 -240.8759 -2562.675
v 40.05774 -241.0099 -2384.91
v 60.83397 -240.8758 -3228.387
v -1382.714 -241.0182 -1942.731
v -1862.816 -240.8758 -2653.638
v -2306.801 -241.0058 -771.9362
v -3081.253 -240.8758 -1057.963
v -2335.935 -241.0092 725.6041
v -3129.075 -240.8757 949.1437
v -1485.592 -241.0096 1955.501
v -1988.015 -240.8758 2601.036
v -75.91409 -240.9933 2482.475
v 2244.304 -241.0205 828.7084
v -19.40338 -242.2281 139.2117
v -59.9821 -241.1204 1746.075
v 932.6754 -241.1397 1421.189
v -1039.793 -241.1355 1378.975
v -1604.129 -241.1534 517.1477
v -1614.611 -241.1294 -518.3659
v -976.1791 -241.1342 -1342.544
v 20.94638 -241.1279 -1650.528
v 970.0508 -241.1688 -1251.31
v 1603.208 -241.1278 -442.592
v 1517.817 -241.1694 584.8684

vn -0.000121175 1 -0.0001136649
vn -4.317913E-05 1 -0.0001457498
vn -0.0001133364 0.9999999 -0.0001039023
vn -0.0001589337 1 -1.814697E-05
vn -0.0001555739 1 6.756205E-05
vn -0.0001298579 1 8.841038E-05
vn -8.985098E-05 1 0.0001452065
vn -5.489046E-05 1 0.0001562672
vn 1.67337E-05 1 0.0001669148
vn 4.584693E-05 1 0.0001553295
vn 0.0001074635 1 0.0001220852
vn 0.0001298758 1 9.908361E-05
vn 0.0001604503 1 3.513874E-05
vn 0.0001593328 0.9999999 4.158785E-06
vn 0.0001572218 1 -6.617168E-05
vn 0.0001343134 1 -9.239768E-05
vn 8.449235E-05 1 -0.000148445
vn 5.263362E-05 1 -0.0001504564
vn -2.433258E-05 0.9999999 -0.000165351
vn -0.0001783547 1 -3.055244E-05
vn 4.089632E-06 1 -2.045947E-06
vn -0.0001041511 0.9999999 -0.0005164075
vn -0.0003020239 0.9999999 -0.0002855666
vn 0.0001743806 0.9999999 -0.0004225268
vn 0.0003869134 0.9999999 -0.0002293074
vn 0.0004382019 0.9999999 4.183658E-05
vn 0.000323847 0.9999999 0.0002831625
vn 9.870481E-05 0.9999999 0.0004154483
vn -0.0001691593 0.9999999 0.000394766
vn -0.0003781229 0.9999999 0.0002255243
vn -0.0004458955 0.9999999 -3.675905E-05

vt 0.6578377 2.607426
vt 1.5 2.998502
vt 0.5738754 2.712313
vt 0.001498729 1.963063
vt 0.1345735 1.082979
vt 0.00149855 1.036938
vt 0.6736233 0.4242248
vt 0.5738747 0.2876869
vt 1.5 0.1555436
vt 1.5 0.00149855
vt 2.328588 0.4211972
vt 2.426125 0.2876869
vt 2.854403 1.086792
vt 2.998501 1.036937
vt 2.850561 1.922814
vt 2.998502 1.963062
vt 2.334455 2.597797
vt 2.426125 2.712313
vt 1.5 2.873109
vt 0.1617978 1.919452
vt 1.5 1.555385
vt 1.5 2.737502
vt 0.7545462 2.486616
vt 2.24821 2.490059
vt 2.69088 1.879372
vt 2.717487 1.134162
vt 2.24914 0.5299471
vt 1.5 0.2911508
vt 0.7744519 0.5622409
vt 0.2806506 1.133518
vt 0.3267513 1.874575

usemtl sn21_17_sn2110.jpg
usemap sn21_17_sn2110.jpg
f 3/3/3 1/1/1 2/2/2
f 4/4/4 1/1/1 3/3/3
f 6/6/6 5/5/5 4/4/4
f 8/8/8 7/7/7 6/6/6
f 10/10/10 9/9/9 8/8/8
f 12/12/12 11/11/11 10/10/10
f 14/14/14 13/13/13 12/12/12
f 16/16/16 15/15/15 14/14/14
f 18/18/18 17/17/17 16/16/16
f 2/2/2 19/19/19 18/18/18
f 1/1/1 19/19/19 2/2/2
f 4/4/4 20/20/20 1/1/1
f 23/23/23 21/21/21 22/22/22
f 19/19/19 17/17/17 18/18/18
f 22/22/22 21/21/21 24/24/24
f 17/17/17 15/15/15 16/16/16
f 24/24/24 21/21/21 25/25/25
f 15/15/15 13/13/13 14/14/14
f 25/25/25 21/21/21 26/26/26
f 13/13/13 11/11/11 12/12/12
f 26/26/26 21/21/21 27/27/27
f 11/11/11 9/9/9 10/10/10
f 27/27/27 21/21/21 28/28/28
f 9/9/9 7/7/7 8/8/8
f 28/28/28 21/21/21 29/29/29
f 7/7/7 5/5/5 6/6/6
f 29/29/29 21/21/21 30/30/30
f 5/5/5 20/20/20 4/4/4
f 30/30/30 21/21/21 31/31/31
f 31/31/31 21/21/21 23/23/23
f 20/20/20 23/23/23 1/1/1
f 1/1/1 23/23/23 19/19/19
f 20/20/20 31/31/31 23/23/23
f 5/5/5 31/31/31 20/20/20
f 5/5/5 30/30/30 31/31/31
f 7/7/7 30/30/30 5/5/5
f 7/7/7 29/29/29 30/30/30
f 9/9/9 29/29/29 7/7/7
f 9/9/9 28/28/28 29/29/29
f 11/11/11 28/28/28 9/9/9
f 11/11/11 27/27/27 28/28/28
f 13/13/13 27/27/27 11/11/11
f 13/13/13 26/26/26 27/27/27
f 15/15/15 26/26/26 13/13/13
f 15/15/15 25/25/25 26/26/26
f 17/17/17 25/25/25 15/15/15
f 17/17/17 24/24/24 25/25/25
f 19/19/19 24/24/24 17/17/17
f 19/19/19 22/22/22 24/24/24
f 23/23/23 22/22/22 19/19/19
