mtllib ./wu05.mtl
g wu05
v 281.432 -533.5368 1869.182
v 432.1218 -637.509 2329.546
v 287.9293 -108.8092 1872.364
v 429.7479 -206 2339.755
v -90.85356 -412.2159 1304.248
v -88.16979 -0.0003051758 1307.697
v -211.7726 -404.3713 921.0774
v -212.3279 -0.0003051758 923.5674
v -198.3455 -409.3405 447.7281
v -195.7587 -0.0003051758 446.6969
v -241.0999 -423.9659 102.3463
v -238.2092 -0.0003051758 93.94782
v -206.3584 -466.557 -402.491
v -208.8301 -0.0003051758 -399.1997
v 147.2412 -458.6181 -906.4036
v 146.0781 -0.0003051758 -906.3497
v 778.122 -414.8503 -1554.438
v 775.1678 -0.0003051758 -1550.081
v 1369 -526.4094 -1742.476
v 1383.541 -0.0003051758 -1744.466
v 1359.39 -874.3303 -1741.161
v 781.3942 -874.3303 -1559.263
v 148.2954 -874.3303 -906.4525
v -204.1982 -874.3303 -405.3676
v -244.1707 -874.3303 111.2676
v -201.2838 -874.3303 448.8994
v -211.1271 -874.3303 918.1835
v -93.86236 -874.3303 1300.382
v 274.5542 -983.1393 1865.815
v 434.5578 -1080.33 2319.068

vn -0.8826087 0.005153911 -0.4700805
vn -0.7920322 -0.004335856 -0.6104642
vn -0.8557758 0.003467042 -0.5173354
vn -0.7821066 -0.01208268 -0.6230277
vn -0.8856494 0.002798235 -0.4643463
vn -0.9045277 0.004531131 -0.4263909
vn -0.6679369 0.0002707151 -0.7442179
vn -0.7092018 -0.0002618097 -0.7050055
vn -0.5985883 0.005236016 -0.8010399
vn -0.5775015 0.003659411 -0.8163815
vn -0.5788616 0.004531509 -0.8154133
vn -0.6066942 0.006977272 -0.7949048
vn -0.2352087 -0.001120547 -0.9719442
vn -0.3223894 -5.646004E-05 -0.9466071
vn 0.1018273 -0.0008643386 -0.994802
vn 0.07344761 -0.001393953 -0.9972981
vn 0.366725 0.003509721 -0.9303228
vn 0.2841023 0.002132551 -0.9587916
vn 0.6118478 0.005808628 -0.7909542
vn 0.6105025 0.00612933 -0.7919906
vn 0.6130839 0.004685165 -0.790004
vn 0.4195324 0.004678529 -0.9077282
vn 0.1264313 -0.0002335953 -0.9919754
vn -0.1484235 -0.002275554 -0.9889213
vn -0.5516371 0.00280829 -0.8340797
vn -0.6217327 0.007239719 -0.7831962
vn -0.6265496 0.0008276304 -0.7793812
vn -0.8589494 0.0005539352 -0.5120603
vn -0.9022116 0.006615528 -0.4312431
vn -0.8038148 -0.0002817408 -0.5948796

vt -0.8406718 0.519413
vt -1.504954 0.511799
vt -0.8406718 0.9962791
vt -1.504954 0.9962791
vt -0.5232922 0.5334607
vt -0.5232922 0.996279
vt -0.1247226 0.5422684
vt -0.1247226 0.996279
vt 0.09670488 0.5366891
vt 0.09670488 0.996279
vt 0.5469409 0.5202683
vt 0.5469409 0.996279
vt 0.7314638 0.472449
vt 0.7314638 0.996279
vt 1.070986 0.4813624
vt 1.070986 0.996279
vt 1.949315 0.530503
vt 1.949315 0.996279
vt 2.532408 0.4052492
vt 2.532408 0.996279
vt 2.532408 0.01461835
vt 1.949315 0.01461839
vt 1.070986 0.01461839
vt 0.7314638 0.01461839
vt 0.5469409 0.01461835
vt 0.09670488 0.01461835
vt -0.1247226 0.01461839
vt -0.5232922 0.01461839
vt -0.8406718 0.01461839
vt -1.504954 0.01461842

usemtl sn21_09_sn2128.jpg
usemap sn21_09_sn2128.jpg
f 3/3/3 1/1/1 2/2/2
f 4/4/4 3/3/3 2/2/2
f 6/6/6 5/5/5 1/1/1
f 3/3/3 6/6/6 1/1/1
f 8/8/8 7/7/7 5/5/5
f 6/6/6 8/8/8 5/5/5
f 10/10/10 9/9/9 7/7/7
f 8/8/8 10/10/10 7/7/7
f 12/12/12 11/11/11 9/9/9
f 10/10/10 12/12/12 9/9/9
f 14/14/14 13/13/13 11/11/11
f 12/12/12 14/14/14 11/11/11
f 16/16/16 15/15/15 13/13/13
f 14/14/14 16/16/16 13/13/13
f 18/18/18 17/17/17 15/15/15
f 16/16/16 18/18/18 15/15/15
f 20/20/20 19/19/19 17/17/17
f 18/18/18 20/20/20 17/17/17
f 19/19/19 21/21/21 22/22/22
f 17/17/17 19/19/19 22/22/22
f 17/17/17 22/22/22 23/23/23
f 15/15/15 17/17/17 23/23/23
f 15/15/15 23/23/23 24/24/24
f 13/13/13 15/15/15 24/24/24
f 13/13/13 24/24/24 25/25/25
f 11/11/11 13/13/13 25/25/25
f 11/11/11 25/25/25 26/26/26
f 9/9/9 11/11/11 26/26/26
f 9/9/9 26/26/26 27/27/27
f 7/7/7 9/9/9 27/27/27
f 7/7/7 27/27/27 28/28/28
f 5/5/5 7/7/7 28/28/28
f 5/5/5 28/28/28 29/29/29
f 1/1/1 5/5/5 29/29/29
f 1/1/1 29/29/29 30/30/30
f 2/2/2 1/1/1 30/30/30
