mtllib ./sn01st01.mtl
g 8
v -8.776737 -1.382366 14.92496
v -12.09693 12.58812 -10.35977
v -17.36884 -12.58773 -14.92502
v -12.09693 12.58812 -10.35977
v -8.776737 -1.382366 14.92496
v 17.36979 7.052792 13.74875
v 17.36979 7.052792 13.74875
v -8.776737 -1.382366 14.92496

vn -0.9627565 0.162408 0.2161563
vn -0.1080943 0.1992493 -0.9739689
vn 0.246898 -0.8340955 -0.4932807
vn -0.246898 0.8340955 0.4932808
vn -0.246898 0.8340955 0.4932808
vn 0.1080943 -0.1992493 0.9739689
vn 0.6340482 0.007446303 -0.7732578
vn 0.3072228 -0.9166501 0.255669

vt 0.4416432 0.8039408
vt 0.1804212 0.7429441
vt 0.1804213 0.8494228
vt 0.2673777 0.5327992
vt 0.3305321 0.847419
vt 0.7190683 0.7512165
vt 0.680421 0.7681247
vt 0.4947833 0.9392065

usemtl sn01st01_00_SN01s2.jpg
usemap sn01st01_00_SN01s2.jpg
f 3/3/3 1/1/1 2/2/2
f 6/6/6 4/4/4 5/5/5
f 2/2/2 7/7/7 3/3/3
f 3/3/3 6/6/6 8/8/8
g 7
v 16.36935 -14.97587 14.7676
v -8.776737 6.541634 13.82296
v -10.68959 -10.29967 16.02755
v -17.36884 -4.663734 -16.02702
v 17.36979 14.97679 12.64675
v 16.36935 -14.97587 14.7676
v -10.68959 -10.29967 16.02755
v -17.36884 -4.663734 -16.02702
v -8.776737 6.541634 13.82296

vn 0.9744786 0.00940023 0.2242835
vn -0.3285916 0.1287877 0.9356502
vn -0.635273 0.1707487 0.7531754
vn 0.0795828 0.5625121 -0.82295
vn 0.5971636 0.6791278 -0.4268267
vn -0.1748338 -0.9752923 -0.1350486
vn -0.1748338 -0.9752923 -0.1350486
vn -0.1748338 -0.9752923 -0.1350486
vn -0.3072228 0.9166501 -0.255669

vt 0.6804211 0.8954536
vt 0.4416432 0.8039408
vt 0.4416432 0.8756837
vt 0.1804213 0.8494228
vt 0.680421 0.7681247
vt 0.7480539 0.9002845
vt 0.4802906 0.8636065
vt 0.5403247 0.5281668
vt 0.3426094 0.6904142

usemtl sn01st01_00_SN01s2.jpg
usemap sn01st01_00_SN01s2.jpg
f 11/11/11 9/9/9 10/10/10
f 10/10/10 12/12/12 11/11/11
f 13/13/13 10/10/10 9/9/9
f 16/16/16 14/14/14 15/15/15
f 9/9/9 12/12/12 13/13/13
f 17/17/17 13/13/13 12/12/12
g 6
v 13.41753 -17.53471 15.15954
v -0.1939068 -17.7677 -15.159
v 0.5395527 17.84114 -5.054146
v 11.47394 5.085869 10.77746
v -0.1939068 -17.7677 -15.159
v -13.4167 -17.84116 -4.484505
v -10.58627 10.94798 0.1710739
v 0.5395527 17.84114 -5.054146
v 11.47394 5.085869 10.77746
v 0.5395527 17.84114 -5.054146
v -10.58627 10.94798 0.1710739
v -13.4167 -17.84116 -4.484505
v 13.41753 -17.53471 15.15954

vn 0.9770601 0.1857997 -0.1040769
vn 0.8583096 -0.3418162 -0.3827092
vn 0.8881323 0.06319642 -0.4552222
vn -0.4173225 -0.009131369 0.9087125
vn -0.5761862 0.212763 -0.7891396
vn -0.7754301 0.07033213 0.6275042
vn -0.9802392 0.1480714 -0.1311712
vn -0.5310394 0.2414266 -0.8122256
vn -0.1320869 0.7253275 0.6756131
vn -0.1320869 0.7253275 0.6756131
vn -0.1320869 0.7253275 0.6756131
vn 0.008631027 -0.9999555 0.003809651
vn 0.008631027 -0.9999555 0.003809651

vt 0.6804209 0.6749958
vt 0.9416432 0.6749958
vt 0.9675947 0.4276354
vt 0.6975963 0.5173713
vt -0.05835682 0.6749958
vt 0.1804212 0.6749958
vt 0.2021824 0.4752854
vt -0.03240531 0.4276354
vt 0.9463885 0.5874196
vt 0.9386092 0.3382634
vt 0.5331002 0.3979907
vt 0.694914 0.7377977
vt 0.7214837 0.5228219

usemtl sn01st01_00_SN01s2.jpg
usemap sn01st01_00_SN01s2.jpg
f 20/20/20 18/18/18 19/19/19
f 18/18/18 20/20/20 21/21/21
f 24/24/24 22/22/22 23/23/23
f 24/24/24 25/25/25 22/22/22
f 28/28/28 26/26/26 27/27/27
f 30/30/30 29/29/29 19/19/19
f 23/23/23 21/21/21 24/24/24
f 21/21/21 23/23/23 18/18/18
g 5
v 11.02994 -9.372131 6.811458
v -8.965986 14.56786 7.455867
v -9.903898 -14.57707 9.020015
v -11.03027 -3.510025 -3.794927
v -9.26161 14.47958 -0.885808
v 0.09555244 3.383141 -9.020146
v 0.09555244 3.383141 -9.020146
v 8.972216 14.57671 2.172053
v 0.324297 14.48843 -5.868718
v 0.324297 14.48843 -5.868718
v -8.965986 14.56786 7.455867
v 8.972216 14.57671 2.172053
v 0.324297 14.48843 -5.868718
v -9.26161 14.47958 -0.885808
v -11.03027 -3.510025 -3.794927
v 0.09555244 3.383141 -9.020146
v 11.02994 -9.372131 6.811458

vn 0.5290557 0.1122054 0.8411362
vn -0.2833973 0.1336439 0.9496448
vn -0.3962313 -0.846126 0.3564708
vn -0.9698378 0.1083689 -0.2183365
vn -0.7264265 0.1976376 -0.6582127
vn -0.4876411 0.2099956 -0.8474126
vn 0.7766595 0.01379044 -0.6297697
vn 0.9670499 0.1830431 0.1769455
vn -0.4464291 0.2527818 -0.858372
vn 0.6674119 0.1905436 -0.719899
vn -0.003873742 0.999955 -0.008661177
vn -0.00283027 0.9999646 -0.007933696
vn -0.003873742 0.999955 -0.008661177
vn -0.006307301 0.9999264 -0.01035775
vn 0.1523388 -0.7413384 -0.6536133
vn 0.1238574 -0.7366988 -0.6647813
vn 0.1120391 -0.7345731 -0.6692157

vt 0.6975963 0.5173713
vt 0.4756882 0.3504913
vt 0.454411 0.5532973
vt 0.2021824 0.4752854
vt 0.2157804 0.3504913
vt -0.03240531 0.4276354
vt 0.9675947 0.4276354
vt 0.7157801 0.3504913
vt -0.02431184 0.3504913
vt 0.9756882 0.3504913
vt 0.01192005 0.9905879
vt 0.657809 0.9881725
vt 0.6568476 0.1765782
vt 0.008050963 0.1789937
vt 0.07899401 0.5453337
vt 0.05696667 0.2174904
vt 0.4995286 0.1743761

usemtl sn01st01_00_SN01s2.jpg
usemap sn01st01_00_SN01s2.jpg
f 33/33/33 31/31/31 32/32/32
f 36/36/36 34/34/34 35/35/35
f 32/32/32 34/34/34 33/33/33
f 34/34/34 32/32/32 35/35/35
f 31/31/31 37/37/37 38/38/38
f 38/38/38 32/32/32 31/31/31
f 36/36/36 35/35/35 39/39/39
f 40/40/40 38/38/38 37/37/37
f 43/43/43 41/41/41 42/42/42
f 41/41/41 43/43/43 44/44/44
f 46/46/46 33/33/33 45/45/45
f 33/33/33 46/46/46 47/47/47
g 4
v -9.775879 -16.95903 28.81335
v 19.76685 -17.0457 25.48169
v 20.58435 7.430132 23.7486
v 20.51628 -17.23904 -19.87482
v -2.137787 -17.50655 -28.81335
v -20.58441 -17.74214 -13.48059
v -13.15384 17.74227 -7.046021
v -6.474594 12.10633 25.00854
v 14.96281 12.76696 -16.95648
v -2.137787 -17.50655 -28.81335
v 2.988632 12.51729 -21.69946
v 2.988632 12.51729 -21.69946
v 2.988632 12.51729 -21.69946
v -13.15384 17.74227 -7.046021
v -6.474594 12.10633 25.00854
v 20.58435 7.430132 23.7486
v 14.96281 12.76696 -16.95648

vn -0.5065702 0.1515884 0.8487683
vn 0.8490663 0.009042353 0.5282089
vn 0.863824 0.1231104 0.4885201
vn 0.9494902 0.1170786 -0.291137
vn -0.6079447 0.2708925 -0.746338
vn -0.9791878 0.2018986 -0.02068841
vn -0.8912858 0.2594754 -0.3718631
vn -0.847778 0.1711554 0.5019745
vn 0.7960243 0.202792 -0.5702812
vn 0.3609257 0.1562212 -0.9194169
vn 0.3609245 0.156222 -0.9194174
vn -0.5939401 0.2801069 -0.7541718
vn 0.1901435 0.9806233 0.04715176
vn 0.37517 0.9231302 0.08413301
vn 0.1825678 0.9803715 0.07443669
vn 0.1740772 0.9791886 0.1043403
vn 0.1062473 0.9918805 0.06988981

vt 0.4416432 0.9995005
vt 0.6804211 0.9995005
vt 0.6804211 0.8954536
vt 0.7900118 0.9995005
vt -0.05835682 0.9995005
vt 0.1804213 0.9995005
vt 0.1804213 0.8494228
vt 0.4416432 0.8756837
vt 0.8423554 0.8874806
vt 0.9416432 0.9995005
vt 0.922448 0.8878839
vt -0.05835682 0.8722489
vt 0.9296944 0.677739
vt 0.4267981 0.6996644
vt 0.4488896 0.8660219
vt 0.5596481 0.9751637
vt 0.9582974 0.8754033

usemtl sn01st01_00_SN01s2.jpg
usemap sn01st01_00_SN01s2.jpg
f 50/50/50 48/48/48 49/49/49
f 49/49/49 51/51/51 50/50/50
f 54/54/54 52/52/52 53/53/53
f 53/53/53 55/55/55 54/54/54
f 55/55/55 53/53/53 48/48/48
f 48/48/48 50/50/50 55/55/55
f 50/50/50 51/51/51 56/56/56
f 56/56/56 51/51/51 57/57/57
f 58/58/58 56/56/56 57/57/57
f 52/52/52 54/54/54 59/59/59
f 62/62/62 60/60/60 61/61/61
f 64/64/64 62/62/62 63/63/63
f 62/62/62 64/64/64 60/60/60
g 3
v -10.02272 -14.16117 8.586614
v 13.41753 -14.08771 9.821538
v 11.47394 8.532867 5.439458
v -9.459898 3.327927 7.648015
v -10.58627 14.39497 -5.166926
v -13.4167 -14.39417 -9.822505
v -10.58627 14.39497 -5.166926
v -9.459898 3.327927 7.648015
v 11.47394 8.532867 5.439458
v 13.41753 -14.08771 9.821538
v -13.4167 -14.39417 -9.822505

vn -0.3003353 -0.2807571 0.9115778
vn 0.9821246 0.04918796 -0.1816912
vn 0.898706 0.1284092 -0.4193311
vn -0.8224885 0.07307218 0.5640683
vn -0.1455241 0.1718664 -0.9743125
vn 0.03139376 0.03327216 -0.9989532
vn -0.1165266 0.7465895 0.6550006
vn -0.1165266 0.7465895 0.6550006
vn -0.1165266 0.7465895 0.6550006
vn 0.002491288 -0.9999225 0.01219616
vn 0.002491288 -0.9999225 0.01219616

vt 0.4416432 0.6749958
vt 0.6804209 0.6749958
vt 0.6975963 0.5173713
vt 0.454411 0.5532973
vt 0.2021824 0.4752854
vt 0.1804212 0.6749958
vt 0.5331002 0.3979907
vt 0.5341212 0.5967755
vt 0.9463885 0.5874196
vt 0.7214837 0.5228219
vt 0.694914 0.7377977

usemtl sn01st01_00_SN01s2.jpg
usemap sn01st01_00_SN01s2.jpg
f 67/67/67 65/65/65 66/66/66
f 70/70/70 68/68/68 69/69/69
f 68/68/68 70/70/70 65/65/65
f 65/65/65 67/67/67 68/68/68
f 73/73/73 71/71/71 72/72/72
f 75/75/75 74/74/74 65/65/65
f 70/70/70 69/69/69 67/67/67
f 66/66/66 70/70/70 67/67/67
g 2
v 15.09953 15.17129 15.52254
v -8.340718 15.09783 14.28761
v -11.77874 -15.17137 18.24995
v -15.09893 -1.200878 -7.034774
v 1.539714 2.180172 -18.24919
v 1.488093 14.9383 -14.796
v -11.7347 14.86483 -4.121505
v 1.539714 2.180172 -18.24919
v 14.36779 -6.73621 17.07375
v 1.488093 14.9383 -14.796
v -15.09893 -1.200878 -7.034774
v 1.539714 2.180172 -18.24919
v 14.36779 -6.73621 17.07375
v -11.77874 -15.17137 18.24995
v 1.488093 14.9383 -14.796
v -11.7347 14.86483 -4.121505
v -8.340718 15.09783 14.28761
v 15.09953 15.17129 15.52254

vn 0.8048707 0.1002614 0.5849194
vn -0.7409804 0.177122 0.6477467
vn -0.4536126 0.1462134 0.879123
vn -0.9797394 0.1953849 -0.04399391
vn 0.9276849 0.002284242 -0.373357
vn 0.9060059 0.1139959 -0.4076251
vn -0.8324295 0.2455702 -0.4967458
vn -0.5919618 0.2381035 -0.7699922
vn 0.9405087 -0.007361587 0.3396897
vn -0.6156765 0.2035543 -0.7612543
vn 0.1414048 -0.9130808 -0.3824764
vn 0.02569139 -0.9670129 -0.2534282
vn 0.1414048 -0.9130808 -0.3824764
vn 0.246898 -0.8340955 -0.4932808
vn -0.005936024 0.9999543 -0.00749107
vn -0.01372768 0.9998545 -0.01012371
vn -0.005936024 0.9999543 -0.00749107
vn -0.002795251 0.9999754 -0.006429762

vt 0.6804209 0.6749958
vt 0.4416432 0.6749958
vt 0.4416432 0.8039408
vt 0.1804212 0.7429441
vt 0.9008502 0.7622963
vt 0.9416432 0.6749958
vt 0.1804212 0.6749958
vt -0.05835682 0.7290694
vt 0.680421 0.7681247
vt -0.05835682 0.6749958
vt 0.5403246 0.7042968
vt 0.8670338 0.6753398
vt 0.7335611 0.8744049
vt 0.4368123 0.9078055
vt 0.8571021 0.7426287
vt 0.458199 0.7643678
vt 0.4150731 0.5373147
vt 0.8446721 0.5445611

usemtl sn01st01_00_SN01s2.jpg
usemap sn01st01_00_SN01s2.jpg
f 78/78/78 76/76/76 77/77/77
f 77/77/77 79/79/79 78/78/78
f 81/81/81 76/76/76 80/80/80
f 79/79/79 77/77/77 82/82/82
f 82/82/82 83/83/83 79/79/79
f 76/76/76 78/78/78 84/84/84
f 80/80/80 76/76/76 84/84/84
f 83/83/83 82/82/82 85/85/85
f 88/88/88 86/86/86 87/87/87
f 86/86/86 88/88/88 89/89/89
f 92/92/92 90/90/90 91/91/91
f 90/90/90 92/92/92 93/93/93
g 1
v -8.820986 -14.65115 6.661867
v 9.117216 -14.6423 1.378054
v -2.111696 14.73894 0.8982563
v 9.117216 -14.6423 1.378054
v 0.4692974 -14.73057 -6.662718
v -2.111696 14.73894 0.8982563
v -9.11661 -14.73942 -1.679808
v -2.111696 14.73894 0.8982563
v -2.111696 14.73894 0.8982563
v -8.820986 -14.65115 6.661867
v 0.4692974 -14.73057 -6.662718

vn -0.1623031 0.2254403 0.9606426
vn 0.2656365 -0.3457504 0.899941
vn 0.2803631 0.1226957 0.9520201
vn 0.6596328 0.24047 -0.7120806
vn 0.1584382 0.2583775 -0.952963
vn 0.6596328 0.24047 -0.7120806
vn -0.7814107 -0.3075064 -0.5429891
vn -0.453481 0.1840273 -0.8720602
vn -0.9730352 0.228417 0.03206664
vn 0.003572863 -0.999939 0.01045479
vn 0.0042523 -0.9999705 0.006404354

vt 0.4756882 0.3504913
vt 0.7157801 0.3504913
vt 0.7667663 0.007610321
vt -0.2842199 0.3504913
vt -0.02431184 0.3504913
vt 0.02806621 0.02364576
vt 0.2157804 0.3504913
vt 0.2667673 0.01653492
vt 0.528066 0.0004995465
vt 0.5602292 0.5606362
vt 0.3259297 0.1669164

usemtl sn01st01_00_SN01s2.jpg
usemap sn01st01_00_SN01s2.jpg
f 96/96/96 94/94/94 95/95/95
f 99/99/99 97/97/97 98/98/98
f 101/101/101 98/98/98 100/100/100
f 102/102/102 100/100/100 94/94/94
f 100/100/100 95/95/95 103/103/103
f 95/95/95 100/100/100 104/104/104
g 0
v -12.09693 16.05312 -3.505774
v 4.541714 19.43417 -14.72019
v -1.226368 -14.34771 -22.72446
v 10.74781 -14.09804 -17.98148
v 4.541714 19.43417 -14.72019
v 17.36979 10.51779 20.60275
v -1.226368 -14.34771 -22.72446
v -17.36884 -9.122734 -8.07102
v 16.36935 -19.43487 22.7236
v -1.226368 -14.34771 -22.72446
v 10.74781 -14.09804 -17.98148
v 16.36935 -19.43487 22.7236
v -17.36884 -9.122734 -8.07102
v 17.36979 10.51779 20.60275
v 4.541714 19.43417 -14.72019
v -12.09693 16.05312 -3.505774

vn -0.960922 0.2371666 -0.1427617
vn -0.5750134 0.2802996 -0.7686298
vn -0.5865444 0.2724404 -0.7627201
vn 0.9334798 0.1001973 -0.3443488
vn 0.8514782 0.2045517 -0.4828492
vn 0.5703692 0.1946856 0.7979826
vn 0.3609246 0.1562206 -0.9194175
vn -0.8057939 0.1055127 0.5827206
vn 0.3405817 0.05508343 0.9386
vn -0.1869277 -0.9816573 -0.03750918
vn 0.07601245 -0.9872388 -0.1399341
vn -0.1869277 -0.9816573 -0.03750918
vn -0.3001642 -0.9538409 0.009445172
vn -0.0256914 0.9670129 0.2534282
vn -0.0256914 0.9670129 0.2534282
vn -0.0256914 0.9670129 0.2534282

vt 0.1804212 0.7429441
vt -0.05835682 0.7290694
vt -0.05835682 0.8722489
vt 0.8423554 0.8874806
vt 0.9008502 0.7622963
vt 0.680421 0.7681247
vt 0.922448 0.8878839
vt 0.1804213 0.8494228
vt 0.6804211 0.8954536
vt 0.8812567 0.5050991
vt 0.9124037 0.8681569
vt 0.7480539 0.9002845
vt 0.5403247 0.5281668
vt 0.7190683 0.7512165
vt 0.6711118 0.4198906
vt 0.2673777 0.5327992

usemtl sn01st01_00_SN01s2.jpg
usemap sn01st01_00_SN01s2.jpg
f 107/107/107 105/105/105 106/106/106
f 110/110/110 108/108/108 109/109/109
f 109/109/109 108/108/108 111/111/111
f 105/105/105 107/107/107 112/112/112
f 110/110/110 113/113/113 108/108/108
f 116/116/116 114/114/114 115/115/115
f 116/116/116 117/117/117 114/114/114
f 120/120/120 118/118/118 119/119/119
f 112/112/112 110/110/110 105/105/105
f 110/110/110 112/112/112 113/113/113
