mtllib ./Box157.mtl
g Box157
v -100.0004 0.0004935265 15.00037
v -0.0003662109 0.0004935265 15.00037
v -0.0003662109 100.0005 15.00037
v -100.0004 100.0005 15.00037
v 99.99963 0.0004935265 15.00037
v 99.99963 100.0005 15.00037
v -100.0004 100.0005 15.00037
v -0.0003662109 100.0005 15.00037
v -0.0003662109 208.634 15.00037
v -100.0004 208.634 15.00037
v 99.99963 100.0005 15.00037
v 99.99963 208.634 15.00037

vn 0 0 1
vn 0 0 1
vn 0 0 1
vn 0 0 1
vn 0 0 1
vn 0 0 1
vn 0 0 1
vn 0 0 0.9999999
vn 0 0 0.9999999
vn 0 0 1
vn 0 0 1
vn 0 0 1

vt 0.9995004 0.003685813
vt 0.4999999 0.003685931
vt 0.5 0.4760737
vt 0.9995005 0.4760736
vt 0.0004993677 0.003686049
vt 0.0004994869 0.4760738
vt 0.9995005 0.4760736
vt 0.5 0.4760737
vt 0.5000001 0.9892449
vt 0.9995006 0.9892448
vt 0.0004994869 0.4760738
vt 0.0004996359 0.9892451

usemtl sn03_43_sn3door2.JPG
usemap sn03_43_sn3door2.JPG
f 3/3/3 1/1/1 2/2/2
f 1/1/1 3/3/3 4/4/4
f 6/6/6 2/2/2 5/5/5
f 2/2/2 6/6/6 3/3/3

usemtl sn03_44_sn3door.JPG
usemap sn03_44_sn3door.JPG
f 9/9/9 7/7/7 8/8/8
f 7/7/7 9/9/9 10/10/10
f 12/12/12 8/8/8 11/11/11
f 8/8/8 12/12/12 9/9/9
