mtllib ./Box158.mtl
g Box158
v -99.99988 0.0004935265 15.00012
v 0.0001220703 0.0004935265 15.00012
v 0.0001220703 100.0005 15.00012
v -99.99988 100.0005 15.00012
v 100.0001 0.0004935265 15.00012
v 100.0001 100.0005 15.00012
v -99.99988 100.0005 15.00012
v 0.0001220703 100.0005 15.00012
v 0.0001220703 208.6177 15.00012
v -99.99988 208.6177 15.00012
v 100.0001 100.0005 15.00012
v 100.0001 208.6177 15.00012

vn 0 0 1
vn 0 0 1
vn 0 0 1
vn 0 0 1
vn 0 0 1
vn 0 0 1
vn 0 0 1
vn 0 0 1
vn 0 0 1
vn 0 0 1
vn 0 0 1
vn 0 0 1

vt 0.9995004 0.004411255
vt 0.4999999 0.004411356
vt 0.5 0.4783543
vt 0.9995005 0.4783542
vt 0.0004993677 0.004411457
vt 0.0004994869 0.4783545
vt 0.9995005 0.4783542
vt 0.5 0.4783543
vt 0.5000001 0.9931381
vt 0.9995006 0.993138
vt 0.0004994869 0.4783545
vt 0.0004996359 0.9931383

usemtl sn03_43_sn3door2.JPG
usemap sn03_43_sn3door2.JPG
f 3/3/3 1/1/1 2/2/2
f 1/1/1 3/3/3 4/4/4
f 6/6/6 2/2/2 5/5/5
f 2/2/2 6/6/6 3/3/3

usemtl sn03_44_sn3door.JPG
usemap sn03_44_sn3door.JPG
f 9/9/9 7/7/7 8/8/8
f 7/7/7 9/9/9 10/10/10
f 12/12/12 8/8/8 11/11/11
f 8/8/8 12/12/12 9/9/9
