mtllib ./inder42.mtl
g inder42
v 47.96291 127.3073 -32.04822
v 32.74788 105.4009 -79.20994
v 1.956103 125.4642 -20.11486
v 55.33692 130.4023 18.33198
v 86.75555 101.1162 -39.22381
v 44.24811 135.6257 -36.15416
v 37.21421 122.3575 -59.26975
v 21.40466 131.0562 -28.69625
v 52.65017 131.7794 -8.185978
v 71.51837 114.8269 -36.44231
v 46.8046 124.0915 -1.858018
v 59.38648 121.5445 -54.49665
v 1.723285 128.9136 -16.24046
v 25.52265 109.964 42.2964
v 82.68576 93.44324 2.085558
v 41.36932 102.4287 -45.67815
v 41.16854 81.11087 -95.48905
v -4.165142 113.5184 -53.80569
v 28.33563 107.9376 3.331021
v 71.1057 66.62764 -36.9393
v -31.4402 147.4601 -29.88351
v -12.65323 143.3449 20.76954
v 13.71756 141.5534 -43.60645
v -42.16815 132.8169 -77.55541
v -69.04535 125.4272 -11.37022
v -27.66371 156.6858 -29.19342
v -18.81766 152.2965 -3.457595
v -5.255111 149.7937 -36.17056
v -37.78463 143.343 -53.42439
v -54.35377 137.3031 -19.79695
v -32.18449 133.9295 -57.07727
v -41.22926 149.8827 -6.093917
v 13.61403 143.4373 -48.44428
v -13.50849 105.2969 -94.93887
v -67.50723 103.8443 -47.61539
v -32.66698 126.1196 -15.74308
v -28.69846 123.4863 38.22844
v 13.02499 139.3236 -15.16849
v -23.0044 114.2068 -64.39331
v -62.05095 89.53108 -9.402676
v -7.126617 181.6918 -36.05798
v -22.5014 156.3978 -97.83495
v -65.93938 168.3829 -20.43578
v 1.755202 186.56 29.94067
v 47.7594 165.6779 -45.43831
v -13.49055 188.9299 -41.44095
v -19.99872 174.1538 -71.71886
v -41.99527 178.7342 -31.67485
v -1.957552 187.247 -4.799111
v 25.54755 175.3282 -41.80362
v -8.008359 178.2381 3.492112
v 8.667925 178.8952 -65.46036
v -66.89819 171.7098 -15.36173
v -32.68803 159.0412 61.33477
v 43.98226 157.1187 8.678961
v -12.72942 166.8154 -21.6225
v -0.9913353 157.6762 -88.62646
v -68.37901 144.2564 -35.37077
v -29.99873 153.4868 41.36591
v 39.58286 157.4855 -11.2587
v 10.88927 158.3828 45.38831
v -4.319068 158.9123 -6.612091
v -35.11818 151.5764 55.35968
v 18.25928 139.4879 92.19412
v 49.6866 137.8369 27.64122
v 7.173376 167.6581 45.26297
v 0.1430397 165.6332 18.68622
v -15.66988 160.3204 50.0242
v 15.57405 152.1469 68.85192
v 34.44702 149.0126 36.05239
v 9.727194 133.3303 71.24374
v 22.31308 153.6944 22.63801
v -35.35388 143.8692 60.33249
v -11.55544 101.5675 105.0121
v 45.6132 103.9741 61.61344
v 11.98266 138.9861 36.50874
v 11.00965 143.4433 -17.48015
v -35.22297 144.4737 34.52349
v 2.285404 118.8536 82.36475
v 47.47551 108.9836 27.42906
v -3.142327 127.9356 36.0677
v -5.201317 128.5807 -18.07061
v -32.3918 90.51799 33.45431
v 7.032113 109.8783 82.6782
v 41.32875 142.3898 28.602
v -44.21558 146.4231 31.16514
v -59.42391 146.9526 -20.83526
v -90.22291 139.6166 41.13652
v -36.84545 127.5282 77.97096
v -5.418247 125.8771 13.41805
v -47.93147 155.6983 31.0398
v -54.96169 153.6734 4.463062
v -70.77461 148.3606 35.80104
v -39.53067 140.1872 54.62876
v -20.65782 137.0529 21.82919
v -45.37555 130.5232 57.02977
v -32.78954 150.8873 8.424049
v -90.45662 141.0621 46.11852
v -66.65806 98.76038 90.7981
v -9.489542 101.167 47.39948
v -50.57841 136.7502 20.60458
v -43.52094 131.3111 -32.83907
v -82.10602 101.3472 16.72165
v -49.91497 123.5184 69.86516
v -4.404538 147.2065 19.61397
v -59.21384 124.8256 20.94947
v -60.79637 117.7943 -32.75033
v -82.66906 83.5399 23.7397
v -46.98879 114.9533 69.47998
v -17.2512 144.4568 11.14723
v -5.862959 156.3263 -37.46873
v -4.119581 115.2384 -98.41318
v -72.65257 147.909 -38.05139
v -17.27625 178.798 30.38244
v 52.5611 138.0436 -25.0134
v 78.96159 153.4708 33.26963
v 64.18021 160.882 -18.3269
v 32.43499 150.7053 42.75967
v 83.99394 129.2668 77.88985
v 115.4064 130.7476 13.3256
v 77.88466 165.4226 36.68185
v 70.82019 166.8598 10.07593
v 54.3569 160.1539 40.80596
v 84.43262 146.7952 58.53937
v 103.0328 144.9635 25.48645
v 67.83231 158.2532 53.64339
v 75.26762 163.3727 0.2193398
v 23.00595 146.4751 42.95212
v 57.71763 134.8751 97.83931
v 112.7201 143.222 52.42416
v 70.12521 153.2305 21.0787
v 71.27188 155.1648 -33.05594
v 23.81484 143.4065 16.46649
v 64.31688 132.7607 67.44012
v 113.751 135.703 15.42944
v 61.50647 142.3332 20.66664
v 64.29288 142.7202 -33.44158
v 17.06277 126.3682 14.98188
v 56.79032 122.7266 67.52242
v 107.2161 130.5261 16.98627

vn -0.02422816 0.9981201 -0.0562976
vn -0.2016872 0.9794488 -0.001517057
vn 0.04748205 0.9688005 0.2432505
vn 0.1658695 0.9797062 -0.1125313
vn -0.0942454 0.9308138 -0.3531335
vn 0.008403346 0.9931026 -0.1169471
vn -0.2883878 0.9566491 -0.04068071
vn 0.1608492 0.9161539 0.3671369
vn 0.2894082 0.9403097 -0.179055
vn -0.1023598 0.8893247 -0.4456727
vn 0.4644272 0.8558492 -0.2276612
vn 0.2923819 0.9198507 -0.2615102
vn 0.4024284 0.9127653 0.07007712
vn 0.6299945 0.7547692 -0.182839
vn 0.48191 0.7153257 -0.5060354
vn 0.07051387 0.9056398 -0.4181441
vn -0.1160212 0.8995468 -0.4211348
vn 0.04028012 0.9916536 -0.1224774
vn 0.2666492 0.8773677 -0.3989038
vn 0.09418011 0.7309182 -0.6759356
vn 0.2274733 0.9112952 0.3432157
vn 0.3952988 0.878466 0.2683955
vn 0.140034 0.988525 0.05664796
vn 0.03984247 0.9113063 0.4097966
vn 0.2936336 0.7448892 0.5990987
vn 0.19682 0.8939597 0.4026136
vn 0.4770254 0.8294725 0.2905549
vn 0.01376307 0.9977517 -0.06559002
vn -0.08650161 0.8765041 0.4735591
vn 0.2966958 0.6763295 0.6742032
vn -0.2730048 0.8143868 0.5120961
vn -0.09042281 0.8326932 0.5463017
vn -0.2121005 0.947449 0.2394866
vn -0.4571524 0.7636091 0.4559747
vn -0.307966 0.6010439 0.7374978
vn 0.1297654 0.7313084 0.6695887
vn 0.3112007 0.6909172 0.652524
vn 0.1655397 0.8966862 0.410549
vn -0.06862184 0.7462901 0.6620741
vn 0.08106497 0.4934171 0.866007
vn 0.04881152 0.9836189 0.1735258
vn -0.09861918 0.9735173 0.2062485
vn 0.09349343 0.911841 0.3997561
vn 0.1994112 0.9704763 0.1356874
vn -0.002449751 0.9966936 -0.08121505
vn 0.07666933 0.9888972 0.1272955
vn -0.1735207 0.9704325 0.1677834
vn 0.1758505 0.8532476 0.4909633
vn 0.2983669 0.9507762 0.08367734
vn -0.009297684 0.9852496 -0.1708708
vn 0.4407769 0.8967797 0.03875791
vn 0.3057511 0.9519839 0.01557674
vn 0.3725736 0.8868059 0.2734306
vn 0.5769563 0.8143375 0.06305458
vn 0.4856515 0.8445769 -0.2254607
vn 0.2758805 0.9255189 0.2594316
vn 0.1249779 0.9647928 0.2314202
vn 0.208002 0.8450579 0.4925567
vn 0.4241061 0.8607574 0.2814794
vn 0.3311078 0.9432189 -0.02656551
vn 0.3992438 0.9138494 -0.07405114
vn 0.2346778 0.972041 -0.007921979
vn 0.4709273 0.8540579 0.2209356
vn 0.5593411 0.8167365 -0.1417007
vn 0.2881437 0.8854762 -0.3645614
vn 0.4226266 0.8959635 -0.1365149
vn 0.144178 0.9886965 -0.04113415
vn 0.558886 0.7570174 0.3384838
vn 0.6497649 0.7290822 -0.2150461
vn 0.2571589 0.8522378 -0.4555875
vn 0.7686394 0.5785691 -0.2728575
vn 0.6383924 0.7100559 -0.2971122
vn 0.756219 0.6537607 0.02701381
vn 0.8779724 0.4161961 -0.2365277
vn 0.7065568 0.4465208 -0.5489961
vn 0.4772574 0.8310674 -0.2855735
vn 0.3096501 0.9117239 -0.269956
vn 0.4978716 0.8669952 0.02104659
vn 0.6376011 0.7131853 -0.2912584
vn 0.4101225 0.7141311 -0.5672885
vn 0.4340692 0.6267829 0.6470912
vn 0.2600085 0.6856915 0.6798698
vn 0.3680595 0.3953612 0.841559
vn 0.6029502 0.5399258 0.5873085
vn 0.4585474 0.7994853 0.3880175
vn 0.399244 0.9138494 -0.07405104
vn 0.2346784 0.9720407 -0.007921934
vn 0.4709278 0.8540576 0.220936
vn 0.5593407 0.8167368 -0.1417005
vn 0.2881437 0.8854765 -0.3645608
vn 0.4226263 0.8959636 -0.136515
vn 0.1441778 0.9886965 -0.04113382
vn 0.5588859 0.7570164 0.3384857
vn 0.6497641 0.7290828 -0.2150463
vn 0.2571587 0.8522379 -0.4555875
vn 0.7686396 0.5785691 -0.2728576
vn 0.6383929 0.7100555 -0.2971123
vn 0.756219 0.6537606 0.02701402
vn 0.8779721 0.4161966 -0.2365279
vn 0.7065568 0.4465206 -0.5489963
vn 0.2725036 0.7345334 0.6214519
vn 0.09138671 0.7796406 0.6195232
vn 0.1937597 0.5211322 0.8311909
vn 0.4551087 0.6582515 0.5996506
vn 0.3255171 0.8785893 0.3494561
vn 0.3151168 0.5742784 0.7555831
vn 0.133411 0.6059833 0.7842104
vn 0.2703599 0.3106635 0.9112595
vn 0.4967139 0.5184354 0.6960604
vn 0.3296944 0.7845668 0.5251254
vn -0.1717137 0.9845877 0.03318793
vn -0.3087546 0.9508734 0.02259552
vn -0.189237 0.9485829 0.2537318
vn -0.02850574 0.9986555 0.04329938
vn -0.1431532 0.9679377 -0.2064065
vn 0.4773159 0.8585714 -0.1871493
vn 0.3222154 0.9388646 -0.1212859
vn 0.5575483 0.8228867 0.1095327
vn 0.6243258 0.7400206 -0.2501737
vn 0.3500093 0.8112361 -0.4683903
vn 0.4958757 0.8321691 -0.2481972
vn 0.2321104 0.9606536 -0.1525435
vn 0.6418734 0.7304595 0.2332972
vn 0.7026289 0.6369639 -0.3171588
vn 0.3116909 0.7719313 -0.5540496
vn 0.5314125 0.8393877 0.1141443
vn 0.3654098 0.9245328 0.1082348
vn 0.4664564 0.783069 0.4113653
vn 0.6879672 0.7164012 0.1160617
vn 0.5453774 0.8147383 -0.1968891
vn 0.4771366 0.8779604 0.03906694
vn 0.3057275 0.9506902 0.05214017
vn 0.4524344 0.8233589 0.3426126
vn 0.6415376 0.7667276 0.02363139
vn 0.4557464 0.8478331 -0.2710613
vn 0.4505617 0.8752806 0.1757213
vn 0.2768501 0.942992 0.1847167
vn 0.4060712 0.7847735 0.4682271
vn 0.6184375 0.7695004 0.1593867
vn 0.4517217 0.8816497 -0.1365329

vt 0.5 0.5
vt 0.0004994869 0.0004997253
vt 0.9995003 0.0004994869
vt 0.9995005 0.9995003
vt 0.0004997253 0.9995005
vt 0.5 0.5
vt 0.0004994869 0.0004997253
vt 0.9995003 0.0004994869
vt 0.9995005 0.9995003
vt 0.0004997253 0.9995005
vt 0.5 0.5
vt 0.0004994869 0.0004997253
vt 0.9995003 0.0004994869
vt 0.9995005 0.9995003
vt 0.0004997253 0.9995005
vt 0.5 0.5
vt 0.0004994869 0.0004997253
vt 0.9995003 0.0004994869
vt 0.9995005 0.9995003
vt 0.0004997253 0.9995005
vt 0.5 0.5
vt 0.0004994869 0.0004997253
vt 0.9995003 0.0004994869
vt 0.9995005 0.9995003
vt 0.0004997253 0.9995005
vt 0.5 0.5
vt 0.0004994869 0.0004997253
vt 0.9995003 0.0004994869
vt 0.9995005 0.9995003
vt 0.0004997253 0.9995005
vt 0.5 0.5
vt 0.0004994869 0.0004997253
vt 0.9995003 0.0004994869
vt 0.9995005 0.9995003
vt 0.0004997253 0.9995005
vt 0.5 0.5
vt 0.0004994869 0.0004997253
vt 0.9995003 0.0004994869
vt 0.9995005 0.9995003
vt 0.0004997253 0.9995005
vt 0.5 0.5
vt 0.0004994869 0.0004997253
vt 0.9995003 0.0004994869
vt 0.9995005 0.9995003
vt 0.0004997253 0.9995005
vt 0.5 0.5
vt 0.0004994869 0.0004997253
vt 0.9995003 0.0004994869
vt 0.9995005 0.9995003
vt 0.0004997253 0.9995005
vt 0.5 0.5
vt 0.0004994869 0.0004997253
vt 0.9995003 0.0004994869
vt 0.9995005 0.9995003
vt 0.0004997253 0.9995005
vt 0.5 0.5
vt 0.0004994869 0.0004997253
vt 0.9995003 0.0004994869
vt 0.9995005 0.9995003
vt 0.0004997253 0.9995005
vt 0.5 0.5
vt 0.0004994869 0.0004997253
vt 0.9995003 0.0004994869
vt 0.9995005 0.9995003
vt 0.0004997253 0.9995005
vt 0.5 0.5
vt 0.0004994869 0.0004997253
vt 0.9995003 0.0004994869
vt 0.9995005 0.9995003
vt 0.0004997253 0.9995005
vt 0.5 0.5
vt 0.0004994869 0.0004997253
vt 0.9995003 0.0004994869
vt 0.9995005 0.9995003
vt 0.0004997253 0.9995005
vt 0.5 0.5
vt 0.0004994869 0.0004997253
vt 0.9995003 0.0004994869
vt 0.9995005 0.9995003
vt 0.0004997253 0.9995005
vt 0.5 0.5
vt 0.0004994869 0.0004997253
vt 0.9995003 0.0004994869
vt 0.9995005 0.9995003
vt 0.0004997253 0.9995005
vt 0.5 0.5
vt 0.0004994869 0.0004997253
vt 0.9995003 0.0004994869
vt 0.9995005 0.9995003
vt 0.0004997253 0.9995005
vt 0.5 0.5
vt 0.0004994869 0.0004997253
vt 0.9995003 0.0004994869
vt 0.9995005 0.9995003
vt 0.0004997253 0.9995005
vt 0.5 0.5
vt 0.0004994869 0.0004997253
vt 0.9995003 0.0004994869
vt 0.9995005 0.9995003
vt 0.0004997253 0.9995005
vt 0.5 0.5
vt 0.0004994869 0.0004997253
vt 0.9995003 0.0004994869
vt 0.9995005 0.9995003
vt 0.0004997253 0.9995005
vt 0.5 0.5
vt 0.0004994869 0.0004997253
vt 0.9995003 0.0004994869
vt 0.9995005 0.9995003
vt 0.0004997253 0.9995005
vt 0.5 0.5
vt 0.0004994869 0.0004997253
vt 0.9995003 0.0004994869
vt 0.9995005 0.9995003
vt 0.0004997253 0.9995005
vt 0.5 0.5
vt 0.0004994869 0.0004997253
vt 0.9995003 0.0004994869
vt 0.9995005 0.9995003
vt 0.0004997253 0.9995005
vt 0.5 0.5
vt 0.0004994869 0.0004997253
vt 0.9995003 0.0004994869
vt 0.9995005 0.9995003
vt 0.0004997253 0.9995005
vt 0.5 0.5
vt 0.0004994869 0.0004997253
vt 0.9995003 0.0004994869
vt 0.9995005 0.9995003
vt 0.0004997253 0.9995005
vt 0.5 0.5
vt 0.0004994869 0.0004997253
vt 0.9995003 0.0004994869
vt 0.9995005 0.9995003
vt 0.0004997253 0.9995005
vt 0.5 0.5
vt 0.0004994869 0.0004997253
vt 0.9995003 0.0004994869
vt 0.9995005 0.9995003
vt 0.0004997253 0.9995005

usemtl sn03_39_kms03t01.JPG
usemap sn03_39_kms03t01.JPG
f 3/3/3 1/1/1 2/2/2
f 4/4/4 1/1/1 3/3/3
f 5/5/5 1/1/1 4/4/4
f 2/2/2 1/1/1 5/5/5
f 8/8/8 6/6/6 7/7/7
f 9/9/9 6/6/6 8/8/8
f 10/10/10 6/6/6 9/9/9
f 7/7/7 6/6/6 10/10/10
f 13/13/13 11/11/11 12/12/12
f 14/14/14 11/11/11 13/13/13
f 15/15/15 11/11/11 14/14/14
f 12/12/12 11/11/11 15/15/15
f 18/18/18 16/16/16 17/17/17
f 19/19/19 16/16/16 18/18/18
f 20/20/20 16/16/16 19/19/19
f 17/17/17 16/16/16 20/20/20
f 23/23/23 21/21/21 22/22/22
f 24/24/24 21/21/21 23/23/23
f 25/25/25 21/21/21 24/24/24
f 22/22/22 21/21/21 25/25/25
f 28/28/28 26/26/26 27/27/27
f 29/29/29 26/26/26 28/28/28
f 30/30/30 26/26/26 29/29/29
f 27/27/27 26/26/26 30/30/30
f 33/33/33 31/31/31 32/32/32
f 34/34/34 31/31/31 33/33/33
f 35/35/35 31/31/31 34/34/34
f 32/32/32 31/31/31 35/35/35
f 38/38/38 36/36/36 37/37/37
f 39/39/39 36/36/36 38/38/38
f 40/40/40 36/36/36 39/39/39
f 37/37/37 36/36/36 40/40/40
f 43/43/43 41/41/41 42/42/42
f 44/44/44 41/41/41 43/43/43
f 45/45/45 41/41/41 44/44/44
f 42/42/42 41/41/41 45/45/45
f 48/48/48 46/46/46 47/47/47
f 49/49/49 46/46/46 48/48/48
f 50/50/50 46/46/46 49/49/49
f 47/47/47 46/46/46 50/50/50
f 53/53/53 51/51/51 52/52/52
f 54/54/54 51/51/51 53/53/53
f 55/55/55 51/51/51 54/54/54
f 52/52/52 51/51/51 55/55/55
f 58/58/58 56/56/56 57/57/57
f 59/59/59 56/56/56 58/58/58
f 60/60/60 56/56/56 59/59/59
f 57/57/57 56/56/56 60/60/60
f 63/63/63 61/61/61 62/62/62
f 64/64/64 61/61/61 63/63/63
f 65/65/65 61/61/61 64/64/64
f 62/62/62 61/61/61 65/65/65
f 68/68/68 66/66/66 67/67/67
f 69/69/69 66/66/66 68/68/68
f 70/70/70 66/66/66 69/69/69
f 67/67/67 66/66/66 70/70/70
f 73/73/73 71/71/71 72/72/72
f 74/74/74 71/71/71 73/73/73
f 75/75/75 71/71/71 74/74/74
f 72/72/72 71/71/71 75/75/75
f 78/78/78 76/76/76 77/77/77
f 79/79/79 76/76/76 78/78/78
f 80/80/80 76/76/76 79/79/79
f 77/77/77 76/76/76 80/80/80
f 83/83/83 81/81/81 82/82/82
f 84/84/84 81/81/81 83/83/83
f 85/85/85 81/81/81 84/84/84
f 82/82/82 81/81/81 85/85/85
f 88/88/88 86/86/86 87/87/87
f 89/89/89 86/86/86 88/88/88
f 90/90/90 86/86/86 89/89/89
f 87/87/87 86/86/86 90/90/90
f 93/93/93 91/91/91 92/92/92
f 94/94/94 91/91/91 93/93/93
f 95/95/95 91/91/91 94/94/94
f 92/92/92 91/91/91 95/95/95
f 98/98/98 96/96/96 97/97/97
f 99/99/99 96/96/96 98/98/98
f 100/100/100 96/96/96 99/99/99
f 97/97/97 96/96/96 100/100/100
f 103/103/103 101/101/101 102/102/102
f 104/104/104 101/101/101 103/103/103
f 105/105/105 101/101/101 104/104/104
f 102/102/102 101/101/101 105/105/105
f 108/108/108 106/106/106 107/107/107
f 109/109/109 106/106/106 108/108/108
f 110/110/110 106/106/106 109/109/109
f 107/107/107 106/106/106 110/110/110
f 113/113/113 111/111/111 112/112/112
f 114/114/114 111/111/111 113/113/113
f 115/115/115 111/111/111 114/114/114
f 112/112/112 111/111/111 115/115/115
f 118/118/118 116/116/116 117/117/117
f 119/119/119 116/116/116 118/118/118
f 120/120/120 116/116/116 119/119/119
f 117/117/117 116/116/116 120/120/120
f 123/123/123 121/121/121 122/122/122
f 124/124/124 121/121/121 123/123/123
f 125/125/125 121/121/121 124/124/124
f 122/122/122 121/121/121 125/125/125
f 128/128/128 126/126/126 127/127/127
f 129/129/129 126/126/126 128/128/128
f 130/130/130 126/126/126 129/129/129
f 127/127/127 126/126/126 130/130/130
f 133/133/133 131/131/131 132/132/132
f 134/134/134 131/131/131 133/133/133
f 135/135/135 131/131/131 134/134/134
f 132/132/132 131/131/131 135/135/135
f 138/138/138 136/136/136 137/137/137
f 139/139/139 136/136/136 138/138/138
f 140/140/140 136/136/136 139/139/139
f 137/137/137 136/136/136 140/140/140
