mtllib ./Line13.mtl
g Line13
v 10.73904 237.6841 65.87856
v 68.30929 237.6841 89.96601
v 46.91582 452.0522 45.76593
v 16.36258 452.0522 51.53514
v 68.30929 237.6841 89.96601
v 80.85728 237.6841 -8.55193
v 42.11144 452.0522 -7.722738
v 46.91582 452.0522 45.76593
v 36.46766 237.6841 -82.80611
v 17.36351 452.0522 -39.92825
v 80.85728 237.6841 -8.55193
v 17.36351 452.0522 -39.92825
v 42.11144 452.0522 -7.722738
v 36.46766 237.6841 -82.80611
v -89.42744 237.6841 -154.3471
v -35.58131 452.0522 -63.58231
v -83.22543 237.6841 -83.26833
v -29.6503 452.0522 -35.66051
v -89.42744 237.6841 -154.3471
v -29.6503 452.0522 -35.66051
v -35.58131 452.0522 -63.58231
v -83.22543 237.6841 -83.26833
v -159.1138 237.6841 -75.42507
v -46.05364 452.0522 -7.209049
v -46.05364 452.0522 -7.209049
v -50.81143 237.6841 86.68021
v -24.23103 452.0522 32.00256
v -159.1138 237.6841 -75.42507
v -24.23103 452.0522 32.00256
v -46.05364 452.0522 -7.209049
v -50.81143 237.6841 86.68021
v -24.23103 452.0522 32.00256
v 17.36351 452.0522 -39.92825
v -35.58131 452.0522 -63.58231
v -29.6503 452.0522 -35.66051
v 42.11144 452.0522 -7.722738
v 46.91582 452.0522 45.76593
v 16.36258 452.0522 51.53514

vn -0.5574651 0.09925756 0.8242455
vn -0.8359495 0.1499745 0.5279167
vn -0.7228195 0.125212 0.6795983
vn -0.5247945 0.1359991 0.8402948
vn 0.7804807 0.1437282 0.6084341
vn 0.8935148 0.1859843 0.4087067
vn 0.7804807 0.1437282 0.6084341
vn 0.8641584 0.08068812 0.496709
vn 0.9817508 0.1763183 0.07125363
vn 0.9817508 0.1763183 0.07125363
vn 0.9886003 0.1441527 -0.0434681
vn 0.926648 0.1909532 -0.3238215
vn 0.9886003 0.1441527 -0.0434681
vn 0.8673466 0.2306897 -0.4410125
vn 0.529715 0.396665 -0.7497059
vn 0.8673466 0.2306897 -0.4410125
vn -0.7297722 0.2618015 -0.6315795
vn -0.7297722 0.2618015 -0.6315795
vn -0.9090607 0.1558023 -0.3864382
vn -0.9090607 0.1558023 -0.3864382
vn -0.9090607 0.1558023 -0.3864382
vn 0.4563134 0.3476303 -0.819104
vn -0.834924 0.4022271 -0.3756529
vn 0.4563134 0.3476303 -0.819104
vn -0.401824 0.311182 -0.8612219
vn -0.9710796 0.237775 -0.0216222
vn -0.9710796 0.237775 -0.0216222
vn -0.9510978 0.2926949 -0.09870521
vn -0.8102515 0.5800187 -0.08408815
vn -0.9112616 0.4008226 -0.09457099
vn -0.5565954 0.1580307 0.815615
vn -0.8391298 0.2728434 0.4705504
vn 0 1 0
vn 0 1 0
vn 0 1 0
vn 0 1 0
vn 0 1 0
vn 0 1 0

vt 1.01872 1.999501
vt 1.573677 1.999501
vt 1.470842 2.998501
vt 1.121902 2.998501
vt 0.2433231 1.999501
vt 1.355385 1.999501
vt 1.206412 2.998501
vt 0.6446108 2.998501
vt 1.999001 1.999501
vt 1.465706 2.998501
vt 0.0009989738 1.999501
vt 0.598946 2.998501
vt 0.4244761 2.998501
vt 0.2655771 1.999501
vt 1.259799 1.999501
vt 1.104908 2.998501
vt 1.564909 1.999501
vt 1.122356 2.998501
vt 0.04500043 1.999501
vt 0.7503712 2.998501
vt 0.4694715 2.998501
vt 0.4284627 1.999501
vt 1.199422 1.999501
vt 1.117703 2.998501
vt 1.38406 2.998501
vt 1.999001 1.999501
vt 1.463428 2.998501
vt 1.999001 1.799133
vt 1.261932 2.195142
vt 1.38406 1.676555
vt 0.5221853 1.999501
vt 0.7380685 2.998501
vt 0.598946 0.801441
vt 1.104908 0.7042073
vt 1.122356 1.125557
vt 0.4244761 1.190382
vt 0.5291581 2.033084
vt 0.8780978 2.292375

usemtl sn03_01_sn301.jpg
usemap sn03_01_sn301.jpg
f 3/3/3 1/1/1 2/2/2
f 4/4/4 1/1/1 3/3/3
f 7/7/7 5/5/5 6/6/6
f 8/8/8 5/5/5 7/7/7
f 10/10/10 6/6/6 9/9/9
f 13/13/13 11/11/11 12/12/12
f 16/16/16 14/14/14 15/15/15
f 12/12/12 14/14/14 16/16/16
f 18/18/18 15/15/15 17/17/17
f 21/21/21 19/19/19 20/20/20
f 24/24/24 22/22/22 23/23/23
f 18/18/18 17/17/17 25/25/25
f 27/27/27 23/23/23 26/26/26
f 30/30/30 28/28/28 29/29/29
f 4/4/4 31/31/31 1/1/1
f 32/32/32 31/31/31 4/4/4
f 35/35/35 33/33/33 34/34/34
f 35/35/35 36/36/36 33/33/33
f 35/35/35 37/37/37 36/36/36
f 35/35/35 38/38/38 37/37/37
f 35/35/35 29/29/29 38/38/38
f 30/30/30 29/29/29 35/35/35
