mtllib ./Line17.mtl
g Line17
v -882.2604 34.72321 1185.423
v -838.1106 60.65073 1422.728
v -882.2604 359.2988 1185.423
v -838.1106 359.2988 1422.728
v -849.148 34.72321 1058.492
v -849.148 359.2988 1058.492
v -675.1617 43.3403 810.1492
v -675.1617 367.9159 810.1491
v -501.4683 34.72321 628.0313
v -501.4684 359.2988 628.0312
v -330.5176 75.59271 440.3945
v -330.5176 400.1683 440.3946
v -148.2432 34.72321 330.6027
v -148.2432 359.2988 330.6027
v 78.51953 5.755432 169.9771
v 78.51953 330.331 169.9771
v 178.7683 -2.040253 -77.94867
v 178.7683 322.5353 -77.94867
v 353.934 34.72321 -348.7832
v 353.934 359.2988 -348.7831
v 450.202 34.72321 -641.0826
v 450.202 359.2988 -641.0826
v 616.2372 71.04752 -871.0988
v 616.2372 395.6231 -871.0988
v 715.048 34.72321 -1035.582
v 715.048 359.2988 -1035.582
v 839.582 34.72321 -1397.341
v 839.582 359.2988 -1397.341
v 920.8171 34.72321 -1796.302
v 920.8171 359.2988 -1796.302

vn -0.9989916 0 -0.04489861
vn -0.9831301 0 0.1829078
vn -0.9960914 0 0.08832798
vn -0.98313 0 0.1829078
vn -0.8532902 -8.953414E-08 -0.5214363
vn -0.9021157 0 -0.4314942
vn -0.7615212 -2.661254E-07 -0.64814
vn -0.7929009 -1.537517E-07 -0.6093507
vn -0.7340944 -1.348618E-07 -0.6790475
vn -0.7289062 -3.075913E-07 -0.6846136
vn -0.6053102 2.029038E-07 -0.7959897
vn -0.6791949 7.317269E-08 -0.7339579
vn -0.5611514 0 -0.8277131
vn -0.5408385 1.027165E-07 -0.8411264
vn -0.8381225 0 -0.545482
vn -0.7167382 0 -0.6973423
vn -0.8685353 1.811618E-08 -0.4956275
vn -0.8979962 0 -0.4400031
vn -0.9187217 1.117131E-08 -0.3949056
vn -0.8815545 3.013102E-08 -0.4720822
vn -0.8690209 -6.261544E-08 -0.4947753
vn -0.9152568 -4.738293E-08 -0.4028709
vn -0.8382254 0 -0.545324
vn -0.8231013 -4.758561E-08 -0.5678948
vn -0.9311004 0 -0.364763
vn -0.9062751 0 -0.4226885
vn -0.9707142 0 -0.2402375
vn -0.959328 0 -0.2822937
vn -0.9798933 0 -0.1995225
vn -0.9798933 0 -0.1995225

vt -0.7777475 0
vt -0.9707233 0
vt -0.7777475 1
vt -0.9707233 1
vt -0.672873 0
vt -0.672873 1
vt -0.4303533 0
vt -0.4303533 1
vt -0.229033 0
vt -0.229033 1
vt -0.02348468 0
vt -0.02348468 1
vt 0.1494692 0
vt 0.1494692 1
vt 0.3982494 0
vt 0.3982494 1
vt 0.6121421 0
vt 0.6121421 1
vt 0.8716784 0
vt 0.8716784 1
vt 1.117713 0
vt 1.117713 1
vt 1.331975 0
vt 1.331975 1
vt 1.499418 0
vt 1.499418 1
vt 1.827371 0
vt 1.827371 1
vt 2.152877 0
vt 2.152877 1

usemtl sn03_28_asn3wu.bmp
usemap sn03_28_asn3wu.bmp
f 3/3/3 1/1/1 2/2/2
f 4/4/4 3/3/3 2/2/2
f 6/6/6 5/5/5 1/1/1
f 3/3/3 6/6/6 1/1/1
f 8/8/8 7/7/7 5/5/5
f 6/6/6 8/8/8 5/5/5
f 10/10/10 9/9/9 7/7/7
f 8/8/8 10/10/10 7/7/7
f 12/12/12 11/11/11 9/9/9
f 10/10/10 12/12/12 9/9/9
f 14/14/14 13/13/13 11/11/11
f 12/12/12 14/14/14 11/11/11
f 16/16/16 15/15/15 13/13/13
f 14/14/14 16/16/16 13/13/13
f 18/18/18 17/17/17 15/15/15
f 16/16/16 18/18/18 15/15/15
f 20/20/20 19/19/19 17/17/17
f 18/18/18 20/20/20 17/17/17
f 22/22/22 21/21/21 19/19/19
f 20/20/20 22/22/22 19/19/19
f 24/24/24 23/23/23 21/21/21
f 22/22/22 24/24/24 21/21/21
f 26/26/26 25/25/25 23/23/23
f 24/24/24 26/26/26 23/23/23
f 28/28/28 27/27/27 25/25/25
f 26/26/26 28/28/28 25/25/25
f 30/30/30 29/29/29 27/27/27
f 28/28/28 30/30/30 27/27/27
