mtllib ./Line01.mtl
g Line01
v 14.7963 -0.008433265 60.07983
v 45.42537 -0.02641582 50.75708
v 78.94496 66.6148 88.16675
v 25.74108 66.64601 104.3607
v 57.41066 -0.0334358 25.45251
v 99.76382 66.60259 44.21191
v 53.41554 -0.03109577 -50.46082
v 92.82416 66.60666 -87.65247
v 17.45965 -0.01001024 -49.12915
v 30.36748 66.6433 -85.33923
v -21.15959 0.01265226 -61.11548
v 5.651139 66.65779 -97.30591
v -62.44231 0.03686466 -38.47449
v -66.05845 66.69986 -57.97778
v -58.44719 0.03452292 8.139038
v -101.4855 66.72063 14.1377
v -46.46195 0.02747746 54.75256
v -80.66671 66.70841 95.10718
v -46.46195 0.02747746 54.75256
v -80.66671 66.70841 95.10718
v 66.13886 133.2832 73.81409
v 21.59609 133.3093 87.37183
v 83.56862 133.273 37.01465
v 77.75867 133.2764 -73.38342
v 25.46935 133.3071 -71.44678
v -30.69324 133.34 -88.87805
v -90.72917 133.3752 -55.95215
v -84.91925 133.3718 11.83618
v -67.48949 133.3616 79.62463
v -67.48949 133.3616 79.62463
v 76.41287 199.938 57.60046
v 43.67202 199.9572 67.56592
v 89.22448 199.9305 30.55127
v 84.95391 199.933 -50.59607
v 46.51905 199.9556 -49.17249
v 5.237144 199.9798 -61.98523
v -38.89186 200.0057 -37.78333
v -34.62129 200.0032 12.04407
v -21.80969 199.9957 61.87146
v -21.80969 199.9957 61.87146
v 89.22448 199.9305 30.55127
v 84.95391 199.933 -50.59607
v 46.51905 199.9556 -49.17249
v -34.62129 200.0032 12.04407
v -21.80969 199.9957 61.87146
v 43.67202 199.9572 67.56592
v 5.237144 199.9798 -61.98523
v -38.89186 200.0057 -37.78333
v 76.41287 199.938 57.60046

vn -0.1492559 -0.5542593 0.8188524
vn 0.2924006 -0.8126361 0.5041074
vn 0.4722589 -0.4704 0.7454498
vn -0.05057461 -0.2149732 0.9753095
vn 0.5153486 -0.8569723 0.003802934
vn 0.826626 -0.5585219 0.06886689
vn 0.1253976 -0.7588059 -0.6391315
vn 0.624251 -0.6109268 -0.4869079
vn -0.05821113 -0.5437979 -0.8371949
vn 0.06258029 -0.167383 -0.9839038
vn -0.4232123 -0.1947516 -0.8848521
vn -0.329307 -0.1151167 -0.9371793
vn -0.9006317 0.06569983 -0.4295884
vn -0.7674937 0.1858195 -0.6135346
vn -0.9773045 -0.1219334 0.1732289
vn -0.9363312 0.3506346 -0.01842196
vn -0.9700522 -0.1238428 0.2089538
vn -0.9583477 0.157097 0.2385165
vn -0.3077876 -0.4538999 0.8362067
vn -0.1073564 -0.02154163 0.9939872
vn 0.6124092 -0.1030554 0.7837949
vn 0.1380997 0.2109634 0.9676895
vn 0.9216045 -0.3765357 0.09415971
vn 0.8918465 -0.1897841 -0.4105991
vn 0.2159869 0.1533795 -0.964274
vn 0.01634996 0.3354387 -0.9419202
vn -0.6384317 0.582409 -0.5031945
vn -0.6782488 0.7326415 0.056702
vn -0.6392736 0.733377 0.2312733
vn 0.05273038 0.2916655 0.9550658
vn 0.4945057 -0.09514659 0.863951
vn 0.1136734 0.2675496 0.9568154
vn 0.8495116 -0.4973727 0.1759272
vn 0.8581179 -0.4500231 -0.2472102
vn 0.1935478 0.2350905 -0.9525082
vn 0.1943157 0.3001156 -0.9339015
vn -0.2533379 0.7992249 -0.5450316
vn -0.4432502 0.8898021 0.1085425
vn -0.4369778 0.876684 0.2011856
vn 0.0641453 0.3130755 0.9475596
vn 0.4465288 0.8947693 1.073379E-07
vn 0.4465286 0.8947694 1.874658E-07
vn 0.4465289 0.8947693 8.55743E-08
vn 0.4465293 0.8947691 -6.582499E-08
vn 0.4465295 0.8947689 -5.78327E-07
vn 0.4465291 0.8947691 -3.344083E-08
vn 0.4465292 0.8947691 8.165843E-08
vn 0.4465294 0.8947689 2.261787E-07
vn 0.4465289 0.8947693 1.711606E-07

vt 0.1830181 0.0004995167
vt 0.4796628 0.0004995167
vt 0.4751372 0.3334998
vt 0.1753215 0.3334998
vt 0.7388353 0.0004995167
vt 0.7371051 0.3334998
vt 1.461582 0.0004995167
vt 1.4675 0.3334998
vt 1.743953 0.0004995167
vt 1.754234 0.3334998
vt 2.180393 0.0004995167
vt 2.188062 0.3334998
vt 2.63458 0.0004995167
vt 2.637397 0.3334998
vt 3.102334 0.0004995167
vt 3.098818 0.3334998
vt 3.582788 0.0004995167
vt 3.575744 0.3334998
vt -0.4172118 0.0004995167
vt -0.4242558 0.3334998
vt 0.4790029 0.6665001
vt 0.1818924 0.6665001
vt 0.7385837 0.6665001
vt 1.462447 0.6665001
vt 1.745461 0.6665001
vt 2.181527 0.6665001
vt 2.634998 0.6665001
vt 3.10181 0.6665001
vt 3.581748 0.6665001
vt -0.4182525 0.6665001
vt 0.5981684 0.9995005
vt 0.3873732 0.9995005
vt 0.7915415 0.9995005
vt 1.325096 0.9995005
vt 1.484773 0.9995005
vt 1.899305 0.9995005
vt 2.473949 0.9995005
vt 3.263005 0.9995005
vt 3.831621 0.9995005
vt -0.1683793 0.9995005
vt 0.2837765 1.342275
vt 0.3073935 0.9689397
vt 0.5199468 0.9754888
vt 0.9686707 1.257128
vt 0.8978199 1.486369
vt 0.5356916 1.512568
vt 0.7482448 0.9165412
vt 0.9922878 1.027887
vt 0.3546274 1.46672

usemtl sn03_01_sn301.jpg
usemap sn03_01_sn301.jpg
f 3/3/3 1/1/1 2/2/2
f 4/4/4 1/1/1 3/3/3
f 6/6/6 2/2/2 5/5/5
f 3/3/3 2/2/2 6/6/6
f 8/8/8 5/5/5 7/7/7
f 6/6/6 5/5/5 8/8/8
f 10/10/10 7/7/7 9/9/9
f 8/8/8 7/7/7 10/10/10
f 12/12/12 9/9/9 11/11/11
f 10/10/10 9/9/9 12/12/12
f 14/14/14 11/11/11 13/13/13
f 12/12/12 11/11/11 14/14/14
f 16/16/16 13/13/13 15/15/15
f 14/14/14 13/13/13 16/16/16
f 18/18/18 15/15/15 17/17/17
f 16/16/16 15/15/15 18/18/18
f 4/4/4 19/19/19 1/1/1
f 20/20/20 19/19/19 4/4/4
f 21/21/21 4/4/4 3/3/3
f 22/22/22 4/4/4 21/21/21
f 23/23/23 3/3/3 6/6/6
f 21/21/21 3/3/3 23/23/23
f 24/24/24 6/6/6 8/8/8
f 23/23/23 6/6/6 24/24/24
f 25/25/25 8/8/8 10/10/10
f 24/24/24 8/8/8 25/25/25
f 26/26/26 10/10/10 12/12/12
f 25/25/25 10/10/10 26/26/26
f 27/27/27 12/12/12 14/14/14
f 26/26/26 12/12/12 27/27/27
f 28/28/28 14/14/14 16/16/16
f 27/27/27 14/14/14 28/28/28
f 29/29/29 16/16/16 18/18/18
f 28/28/28 16/16/16 29/29/29
f 22/22/22 20/20/20 4/4/4
f 30/30/30 20/20/20 22/22/22
f 31/31/31 22/22/22 21/21/21
f 32/32/32 22/22/22 31/31/31
f 33/33/33 21/21/21 23/23/23
f 31/31/31 21/21/21 33/33/33
f 34/34/34 23/23/23 24/24/24
f 33/33/33 23/23/23 34/34/34
f 35/35/35 24/24/24 25/25/25
f 34/34/34 24/24/24 35/35/35
f 36/36/36 25/25/25 26/26/26
f 35/35/35 25/25/25 36/36/36
f 37/37/37 26/26/26 27/27/27
f 36/36/36 26/26/26 37/37/37
f 38/38/38 27/27/27 28/28/28
f 37/37/37 27/27/27 38/38/38
f 39/39/39 28/28/28 29/29/29
f 38/38/38 28/28/28 39/39/39
f 32/32/32 30/30/30 22/22/22
f 40/40/40 30/30/30 32/32/32
f 43/43/43 41/41/41 42/42/42
f 46/46/46 44/44/44 45/45/45
f 44/44/44 47/47/47 48/48/48
f 46/46/46 47/47/47 44/44/44
f 46/46/46 43/43/43 47/47/47
f 46/46/46 41/41/41 43/43/43
f 49/49/49 41/41/41 46/46/46
