mtllib ./Line03.mtl
g Line03
v 2.256817 0.02638176 27.30281
v 24.65417 0.0003939806 18.33358
v 27.78621 50.00629 14.41747
v -5.680343 50.06089 43.39407
v 31.35727 -0.03404555 -10.79273
v 35.38692 49.9681 -17.81671
v 6.016555 -0.02131367 -17.26173
v 20.89099 49.96248 -34.33599
v -12.33846 -0.01776019 -27.57899
v -27.49016 49.97174 -61.57016
v -13.44974 -0.002269521 -13.01674
v -29.96922 50.00636 -29.0846
v -30.24026 0.02966157 6.031924
v -75.6423 50.06847 -1.772787
v -22.38834 0.0416991 23.95137
v -49.90946 50.10451 53.38395
v -22.38834 0.0416991 23.95137
v -49.90946 50.10451 53.38395
v 37.13528 100.0426 45.35768
v -5.830314 100.0719 42.0727
v 70.0206 99.94765 -24.17006
v 49.51302 99.92271 -64.39555
v -27.45584 99.98396 -61.61688
v -51.06227 100.026 -37.63777
v -84.63933 100.1 10.56762
v -44.25976 100.1197 60.53523
v -44.25976 100.1197 60.53523
v 29.19307 150.0356 20.22901
v 2.18546 150.067 31.04454
v 37.27594 149.9941 -14.8926
v 23.75895 149.9881 -31.09622
v -15.41405 150.0137 -35.13406
v -16.75407 150.0324 -17.57435
v -37.00072 150.0709 5.395252
v -27.53261 150.0855 27.00326
v -27.53261 150.0855 27.00326
v 23.75895 149.9881 -31.09622
v -15.41405 150.0137 -35.13406
v -16.75407 150.0324 -17.57435
v 37.27594 149.9941 -14.8926
v 29.19307 150.0356 20.22901
v 2.18546 150.067 31.04454
v -27.53261 150.0855 27.00326
v -37.00072 150.0709 5.395252

vn 0.2471963 -0.7775929 0.5781378
vn 0.7366379 -0.6655648 0.1199505
vn 0.4742627 -0.8780369 0.06423414
vn 0.1173365 -0.8087991 0.5762603
vn 0.5622764 -0.2557778 -0.7863987
vn 0.5389893 -0.6147683 -0.5758042
vn 0.119577 -0.01060766 -0.9927683
vn 0.08534889 0.04283237 -0.99543
vn -0.8976873 0.2007679 -0.3922369
vn -0.3324574 0.2979929 -0.894803
vn -0.7705713 0.2735837 -0.575649
vn -0.8189383 0.4267123 -0.3837402
vn -0.9793961 -0.1993162 0.03250244
vn -0.9846466 0.171123 0.03446704
vn -0.9405893 -0.2652721 0.2119493
vn -0.912495 -0.1023013 0.3960901
vn -0.1335395 -0.8131915 0.5664687
vn 0.1322197 -0.7795285 0.6122525
vn 0.6237103 -0.6720257 0.3992077
vn 0.2354098 -0.5497779 0.8014528
vn 0.8453358 -0.4826297 -0.2290763
vn 0.3244687 0.3752276 -0.8682881
vn -0.08591144 0.6865878 -0.7219531
vn -0.567257 0.8128346 -0.1323603
vn -0.664129 0.6710482 0.329586
vn -0.6117258 0.1640502 0.7738727
vn 0.3356546 -0.5237065 0.7829862
vn 0.5724128 -0.3872742 0.7227464
vn 0.3670526 -0.3997094 0.8399432
vn 0.9760806 -0.1827928 0.1177011
vn 0.7550451 0.54495 -0.3646043
vn 0.1880791 0.8854485 -0.4249792
vn -0.2608154 0.9633324 0.06297541
vn -0.2297758 0.9472775 0.2233122
vn -0.2328198 0.471098 0.8508006
vn 0.2174079 0.01873881 0.9759011
vn 0.5369833 0.7077437 0.4590727
vn 0.536983 0.7077444 0.4590719
vn 0.5369834 0.7077442 0.4590719
vn 0.5369837 0.7077441 0.4590718
vn 0.5369834 0.7077445 0.4590715
vn 0.536983 0.7077444 0.459072
vn 0.5369833 0.7077442 0.4590721
vn 0.5369841 0.7077436 0.4590721

vt 0.1339188 0.0004995763
vt 0.5132849 0.0004995763
vt 0.4955778 0.3334998
vt 0.02131192 0.3334998
vt 0.8529903 0.0004995763
vt 0.8588141 0.3334998
vt 1.060809 0.0004995763
vt 1.096397 0.3334998
vt 1.670032 0.0004995763
vt 1.688742 0.3334998
vt 1.860751 0.0004995763
vt 1.881843 0.3334998
vt 2.354182 0.0004995763
vt 2.250463 0.3334998
vt 2.65206 0.0004995763
vt 2.635986 0.3334998
vt -0.3479401 0.0004995763
vt -0.3640137 0.3334998
vt 0.4108886 0.6665002
vt 0.01946665 0.6665002
vt 0.8588141 0.6665002
vt 1.096397 0.6665002
vt 1.688742 0.6665002
vt 1.971589 0.6665002
vt 2.311793 0.6665002
vt 2.697796 0.6665002
vt -0.3022043 0.6665002
vt 0.5316526 0.9995004
vt 0.1624311 0.9995004
vt 0.8596737 0.9995004
vt 1.0594 0.9995004
vt 1.640607 0.9995004
vt 1.807801 0.9995004
vt 2.344161 0.9995004
vt 2.658975 0.9995004
vt -0.3410248 0.9995004
vt 0.395755 0.370391
vt 0.5685038 0.3523062
vt 0.5744607 0.4306741
vt 0.3361864 0.4427311
vt 0.3719276 0.5994675
vt 0.4910647 0.6476938
vt 0.6221156 0.629609
vt 0.6638136 0.5331558

usemtl sn03_01_sn301.jpg
usemap sn03_01_sn301.jpg
f 3/3/3 1/1/1 2/2/2
f 4/4/4 1/1/1 3/3/3
f 6/6/6 2/2/2 5/5/5
f 3/3/3 2/2/2 6/6/6
f 8/8/8 5/5/5 7/7/7
f 6/6/6 5/5/5 8/8/8
f 10/10/10 7/7/7 9/9/9
f 8/8/8 7/7/7 10/10/10
f 12/12/12 9/9/9 11/11/11
f 10/10/10 9/9/9 12/12/12
f 14/14/14 11/11/11 13/13/13
f 12/12/12 11/11/11 14/14/14
f 16/16/16 13/13/13 15/15/15
f 14/14/14 13/13/13 16/16/16
f 4/4/4 17/17/17 1/1/1
f 18/18/18 17/17/17 4/4/4
f 19/19/19 4/4/4 3/3/3
f 20/20/20 4/4/4 19/19/19
f 21/21/21 3/3/3 6/6/6
f 19/19/19 3/3/3 21/21/21
f 22/22/22 6/6/6 8/8/8
f 21/21/21 6/6/6 22/22/22
f 23/23/23 8/8/8 10/10/10
f 22/22/22 8/8/8 23/23/23
f 24/24/24 10/10/10 12/12/12
f 23/23/23 10/10/10 24/24/24
f 25/25/25 12/12/12 14/14/14
f 24/24/24 12/12/12 25/25/25
f 26/26/26 14/14/14 16/16/16
f 25/25/25 14/14/14 26/26/26
f 20/20/20 18/18/18 4/4/4
f 27/27/27 18/18/18 20/20/20
f 28/28/28 20/20/20 19/19/19
f 29/29/29 20/20/20 28/28/28
f 30/30/30 19/19/19 21/21/21
f 28/28/28 19/19/19 30/30/30
f 31/31/31 21/21/21 22/22/22
f 30/30/30 21/21/21 31/31/31
f 32/32/32 22/22/22 23/23/23
f 31/31/31 22/22/22 32/32/32
f 33/33/33 23/23/23 24/24/24
f 32/32/32 23/23/23 33/33/33
f 34/34/34 24/24/24 25/25/25
f 33/33/33 24/24/24 34/34/34
f 35/35/35 25/25/25 26/26/26
f 34/34/34 25/25/25 35/35/35
f 29/29/29 27/27/27 20/20/20
f 36/36/36 27/27/27 29/29/29
f 39/39/39 37/37/37 38/38/38
f 39/39/39 40/40/40 37/37/37
f 39/39/39 41/41/41 40/40/40
f 39/39/39 42/42/42 41/41/41
f 39/39/39 43/43/43 42/42/42
f 44/44/44 43/43/43 39/39/39
