mtllib ./nder36.mtl
g nder36
v 47.88516 127.2854 -32.23414
v 32.6157 105.328 -79.3476
v 1.900544 125.4437 -20.24051
v 55.3232 130.4327 18.12648
v 86.66926 101.0959 -39.43308
v 44.16359 135.5987 -36.34308
v 37.1035 122.3058 -59.43296
v 21.33403 131.0315 -28.85173
v 52.60184 131.7826 -8.385777
v 71.43459 114.8059 -36.64582
v 46.76711 124.0997 -2.043303
v 59.27921 121.5026 -54.68865
v 1.671977 128.897 -16.36979
v 25.54892 110.0117 42.14713
v 82.65572 93.46359 1.8837
v 41.28046 102.3915 -45.82862
v 41.01965 81.02359 -95.61104
v -4.261098 113.4626 -53.90679
v 28.31117 107.9468 3.18536
v 71.03249 66.60611 -37.0938
v -31.50913 147.4221 -29.98638
v -12.65766 143.3622 20.63941
v 13.626 141.512 -43.76042
v -42.29431 132.7285 -77.62306
v -69.07998 125.3993 -11.40437
v -27.73429 156.6494 -29.31056
v -18.85493 152.2881 -3.585378
v -5.336339 149.7554 -36.30908
v -37.8824 143.2799 -53.51164
v -54.40396 137.2701 -19.86104
v -32.28559 133.864 -57.16188
v -41.26638 149.8664 -6.189671
v 13.51582 143.391 -48.59937
v -13.65489 105.1976 -95.01391
v -67.58422 103.7803 -47.62492
v -32.71233 126.0956 -15.82478
v -28.67326 123.5175 38.13689
v 12.97118 139.3106 -15.32319
v -23.11178 114.1361 -64.46905
v -62.07564 89.50674 -9.41015
v -7.214709 181.6532 -36.22611
v -22.66221 156.2935 -97.94923
v -65.99611 168.3465 -20.51592
v 1.750797 186.5898 29.74705
v 47.65527 165.6424 -45.66074
v -13.58654 188.8844 -41.60733
v -20.12989 174.0763 -71.85779
v -42.0723 178.692 -31.79513
v -2.006823 187.2411 -4.983819
v 25.44896 175.2913 -42.00723
v -8.044024 178.2391 3.323226
v 8.539992 178.8306 -65.64232
v -66.94882 171.6783 -15.44463
v -32.64035 159.0947 61.20951
v 43.95121 157.1369 8.462736
v -12.79454 166.79 -21.77031
v -1.143358 157.5862 -88.77134
v -68.4493 144.2045 -35.42145
v -29.97619 153.5208 41.24548
v 39.52637 157.4825 -11.46684
v 10.91033 158.4303 45.20905
v -4.363897 158.904 -6.765011
v -35.07622 151.6233 55.24593
v 18.34485 139.5841 92.01785
v 49.68402 137.8753 27.43434
v 7.192642 167.7046 45.07925
v 0.1291321 165.6513 18.5173
v -15.63958 160.3664 49.87699
v 15.62659 152.219 68.6696
v 34.45486 149.0561 35.85304
v 9.787999 133.4035 71.08765
v 22.30406 153.7216 22.4516
v -35.30371 143.9211 60.22611
v -11.44033 101.6698 104.9111
v 45.66335 104.0458 61.44131
v 11.99655 139.0249 36.34871
v 10.95212 143.4275 -17.63607
v -35.20662 144.4997 34.41985
v 2.365064 118.9363 82.23142
v 47.47969 109.0213 27.25414
v -3.124393 127.9705 35.93861
v -5.253951 128.5606 -18.19033
v -32.3647 90.54355 33.40131
v 7.113529 109.9624 82.54765
v 41.32754 142.4273 28.40138
v -44.20283 146.4436 31.07173
v -59.47705 146.9173 -20.90233
v -90.18938 139.6366 41.10861
v -36.76828 127.5975 77.88059
v -5.429082 125.8887 13.29706
v -47.92052 155.7179 30.94193
v -54.98404 153.6646 4.380004
v -70.75275 148.3797 35.7397
v -39.48657 140.2324 54.53228
v -20.6583 137.0694 21.71572
v -45.32518 130.5695 56.95036
v -32.80906 150.8876 8.314342
v -90.41687 141.0871 46.08879
v -66.55348 98.83578 90.77379
v -9.449831 101.2118 47.30402
v -50.57631 136.7587 20.53064
v -43.58831 131.2674 -32.90955
v -82.09653 101.3446 16.72495
v -49.84564 123.5766 69.79696
v -4.412445 147.2245 19.46936
v -59.20737 124.8324 20.89871
v -60.85817 117.7467 -32.78466
v -82.64628 83.54416 23.76067
v -46.91842 115.0117 69.41663
v -17.26773 144.4634 11.02332
v -5.947261 156.2867 -37.61286
v -4.274179 115.1378 -98.51
v -72.72675 147.8534 -38.09981
v -17.27566 178.8239 30.22144
v 52.48937 138.0298 -25.21708
v 78.95877 153.5216 33.00811
v 64.11044 160.8775 -18.5696
v 32.4515 150.755 42.56035
v 84.05427 129.3637 77.64004
v 115.378 130.7868 13.04206
v 77.88375 165.4767 36.40925
v 70.78518 166.8855 9.814683
v 54.36575 160.2067 40.56877
v 84.46355 146.8727 58.27396
v 103.0186 145.0121 25.20312
v 67.85655 158.322 53.38879
v 75.21991 163.3894 -0.04282787
v 23.02497 146.5229 42.76933
v 57.80624 134.9861 97.61543
v 112.7401 143.2998 52.12624
v 70.10776 153.267 20.83059
v 71.18316 155.1472 -33.30016
v 23.79991 143.4278 16.28934
v 64.36541 132.8426 67.21386
v 113.7243 135.7439 15.14278
v 61.49216 142.3674 20.44081
v 64.20748 142.7007 -33.66413
v 17.05079 126.3864 14.83082
v 56.84238 122.8069 67.31609
v 107.1936 130.567 16.71313

vn 0.007600099 0.935653 -0.3528395
vn -0.1321452 0.8770539 -0.4618594
vn -0.2079324 0.9690143 -0.1333249
vn 0.156277 0.9621927 -0.2230758
vn 0.2243672 0.8111392 -0.5401043
vn 0.07645248 0.9313422 -0.3560292
vn -0.1440924 0.8262264 -0.5445983
vn -0.2517295 0.9670848 0.03713833
vn 0.2790923 0.9491501 -0.1456758
vn 0.2997498 0.7565452 -0.5811965
vn 0.4151351 0.9097511 -0.003984012
vn 0.3512017 0.9190048 -0.1791299
vn 0.1281294 0.9884622 0.08078008
vn 0.4673457 0.8649549 0.1828682
vn 0.6644562 0.7419924 -0.08913544
vn 0.3672855 0.8231017 -0.4331339
vn 0.271427 0.765963 -0.5827761
vn 0.09802925 0.9378955 -0.3327796
vn 0.4553679 0.8524075 -0.2569852
vn 0.6033411 0.6273497 -0.4923534
vn -0.1960911 0.9773185 0.07998034
vn -0.04301196 0.9814653 0.1867507
vn -0.001199789 0.9870869 -0.1601811
vn -0.3517388 0.9353704 -0.03690439
vn -0.373728 0.8725646 0.3145763
vn -0.2622233 0.9607122 0.09094469
vn -0.01729114 0.9602144 0.2787282
vn 0.03557171 0.9443806 -0.3269252
vn -0.4716509 0.8766183 -0.09532015
vn -0.433965 0.8185813 0.3762964
vn -0.6011834 0.77193 -0.2066458
vn -0.5342529 0.8439624 -0.04797177
vn -0.3413068 0.8772917 -0.3374446
vn -0.6494467 0.6655118 -0.3678493
vn -0.8050686 0.5906644 -0.05459059
vn -0.5197577 0.8247109 0.2229433
vn -0.4083022 0.8334122 0.3724425
vn -0.2855598 0.9558729 0.06901158
vn -0.6186089 0.7837702 0.05502235
vn -0.7056313 0.6122879 0.3566344
vn -0.1484612 0.97378 -0.1723712
vn -0.2538543 0.9284658 -0.2711257
vn -0.3148837 0.9491298 0.0009457003
vn -0.03641128 0.9971162 -0.0665829
vn 0.04029393 0.9367719 -0.3476128
vn -0.09465095 0.9799759 -0.1751814
vn -0.2607011 0.899725 -0.3500427
vn -0.3471663 0.9285231 0.1316071
vn 0.06055833 0.9981361 -0.007551023
vn 0.1130785 0.9115263 -0.3953897
vn 0.1754113 0.9793514 0.1005066
vn 0.1222248 0.991822 -0.03674554
vn -0.05952192 0.9839022 0.1685035
vn 0.2290062 0.9414175 0.2475663
vn 0.4247906 0.9051197 0.01764559
vn -0.09979469 0.9924145 0.07179414
vn -0.1568342 0.9847097 -0.07582794
vn -0.3313049 0.9297253 0.1607724
vn -0.03840855 0.9742905 0.2219974
vn 0.1716301 0.9845326 -0.03519416
vn 0.2487385 0.9685611 0.004315207
vn 0.1040625 0.988243 -0.1120115
vn 0.03789793 0.9722666 0.2307845
vn 0.393406 0.9103898 0.128149
vn 0.4373593 0.8707754 -0.2246487
vn 0.3145956 0.94922 -0.003309967
vn 0.08397207 0.9747695 -0.2068165
vn -0.01272854 0.920249 0.3911262
vn 0.5058281 0.8414129 0.1901643
vn 0.4991458 0.8180015 -0.2858791
vn 0.6218143 0.7225274 0.3021609
vn 0.569984 0.8087723 0.1449336
vn 0.3587089 0.8324587 0.4223036
vn 0.6531899 0.6028575 0.4581546
vn 0.8269561 0.5414475 0.1515862
vn 0.471741 0.881598 -0.01566644
vn 0.3677167 0.9148059 -0.1670765
vn 0.2214285 0.9641152 0.1464628
vn 0.5645128 0.81235 0.1463308
vn 0.6785384 0.7127331 -0.1777554
vn -0.3370107 0.8051401 0.4880301
vn -0.4584142 0.8182682 0.3468338
vn -0.5305591 0.5938818 0.6048235
vn -0.1946594 0.7602321 0.6198024
vn -0.1089489 0.9401852 0.322772
vn 0.2487381 0.9685611 0.004315907
vn 0.1040629 0.9882431 -0.1120103
vn 0.03789807 0.9722666 0.2307847
vn 0.3934046 0.9103904 0.1281489
vn 0.4373585 0.8707761 -0.2246475
vn 0.3145962 0.9492198 -0.0033108
vn 0.08397418 0.9747695 -0.2068159
vn -0.01272652 0.9202498 0.3911243
vn 0.5058277 0.8414136 0.1901623
vn 0.4991457 0.8180016 -0.2858792
vn 0.6218145 0.7225271 0.3021613
vn 0.5699846 0.8087716 0.1449349
vn 0.3587098 0.8324583 0.4223037
vn 0.6531899 0.6028575 0.4581546
vn 0.826956 0.5414473 0.1515869
vn -0.4035782 0.8600476 0.3121582
vn -0.4988758 0.8532792 0.1517808
vn -0.6173082 0.6645864 0.421017
vn -0.2864974 0.8342394 0.4711304
vn -0.1486842 0.9738147 0.1719828
vn -0.4904883 0.737784 0.4637846
vn -0.6116576 0.7223493 0.3226241
vn -0.6389965 0.4962916 0.5876887
vn -0.3424922 0.7259097 0.5964514
vn -0.2929845 0.9098886 0.2937054
vn -0.1459034 0.8949602 -0.421614
vn -0.2083958 0.8239753 -0.5269117
vn -0.3413474 0.8865963 -0.3121362
vn -0.07920302 0.9488593 -0.3056025
vn 0.07298501 0.8535544 -0.5158663
vn 0.3874902 0.9215007 0.02622874
vn 0.2474397 0.9647731 -0.08936672
vn 0.1790718 0.9507288 0.2530774
vn 0.5218984 0.8399927 0.1484401
vn 0.5601935 0.8025325 -0.2052433
vn 0.4498289 0.8929324 0.01804768
vn 0.2257593 0.9565675 -0.1844224
vn 0.1211224 0.9029784 0.4122615
vn 0.6229358 0.7539322 0.2086555
vn 0.6137149 0.7427303 -0.267779
vn 0.1608953 0.9599465 0.2293811
vn 0.07586169 0.9948714 0.06690212
vn -0.1241333 0.9299647 0.3460587
vn 0.2453589 0.885859 0.3937678
vn 0.4329185 0.896993 0.0893591
vn 0.1948772 0.9714029 0.1356437
vn 0.09121649 0.9956737 -0.01770432
vn -0.07429803 0.9549262 0.2873946
vn 0.2978918 0.9082317 0.2938972
vn 0.4475996 0.8937079 -0.03067062
vn 0.06492944 0.9806193 0.1848512
vn -0.03635054 0.9989153 0.02910111
vn -0.2043459 0.9230165 0.3260111
vn 0.1703964 0.9234626 0.3437761
vn 0.3303769 0.9435325 0.02444351

vt 0.5 0.5
vt 0.0004994869 0.0004997253
vt 0.9995003 0.0004994869
vt 0.9995005 0.9995003
vt 0.0004997253 0.9995005
vt 0.5 0.5
vt 0.0004994869 0.0004997253
vt 0.9995003 0.0004994869
vt 0.9995005 0.9995003
vt 0.0004997253 0.9995005
vt 0.5 0.5
vt 0.0004994869 0.0004997253
vt 0.9995003 0.0004994869
vt 0.9995005 0.9995003
vt 0.0004997253 0.9995005
vt 0.5 0.5
vt 0.0004994869 0.0004997253
vt 0.9995003 0.0004994869
vt 0.9995005 0.9995003
vt 0.0004997253 0.9995005
vt 0.5 0.5
vt 0.0004994869 0.0004997253
vt 0.9995003 0.0004994869
vt 0.9995005 0.9995003
vt 0.0004997253 0.9995005
vt 0.5 0.5
vt 0.0004994869 0.0004997253
vt 0.9995003 0.0004994869
vt 0.9995005 0.9995003
vt 0.0004997253 0.9995005
vt 0.5 0.5
vt 0.0004994869 0.0004997253
vt 0.9995003 0.0004994869
vt 0.9995005 0.9995003
vt 0.0004997253 0.9995005
vt 0.5 0.5
vt 0.0004994869 0.0004997253
vt 0.9995003 0.0004994869
vt 0.9995005 0.9995003
vt 0.0004997253 0.9995005
vt 0.5 0.5
vt 0.0004994869 0.0004997253
vt 0.9995003 0.0004994869
vt 0.9995005 0.9995003
vt 0.0004997253 0.9995005
vt 0.5 0.5
vt 0.0004994869 0.0004997253
vt 0.9995003 0.0004994869
vt 0.9995005 0.9995003
vt 0.0004997253 0.9995005
vt 0.5 0.5
vt 0.0004994869 0.0004997253
vt 0.9995003 0.0004994869
vt 0.9995005 0.9995003
vt 0.0004997253 0.9995005
vt 0.5 0.5
vt 0.0004994869 0.0004997253
vt 0.9995003 0.0004994869
vt 0.9995005 0.9995003
vt 0.0004997253 0.9995005
vt 0.5 0.5
vt 0.0004994869 0.0004997253
vt 0.9995003 0.0004994869
vt 0.9995005 0.9995003
vt 0.0004997253 0.9995005
vt 0.5 0.5
vt 0.0004994869 0.0004997253
vt 0.9995003 0.0004994869
vt 0.9995005 0.9995003
vt 0.0004997253 0.9995005
vt 0.5 0.5
vt 0.0004994869 0.0004997253
vt 0.9995003 0.0004994869
vt 0.9995005 0.9995003
vt 0.0004997253 0.9995005
vt 0.5 0.5
vt 0.0004994869 0.0004997253
vt 0.9995003 0.0004994869
vt 0.9995005 0.9995003
vt 0.0004997253 0.9995005
vt 0.5 0.5
vt 0.0004994869 0.0004997253
vt 0.9995003 0.0004994869
vt 0.9995005 0.9995003
vt 0.0004997253 0.9995005
vt 0.5 0.5
vt 0.0004994869 0.0004997253
vt 0.9995003 0.0004994869
vt 0.9995005 0.9995003
vt 0.0004997253 0.9995005
vt 0.5 0.5
vt 0.0004994869 0.0004997253
vt 0.9995003 0.0004994869
vt 0.9995005 0.9995003
vt 0.0004997253 0.9995005
vt 0.5 0.5
vt 0.0004994869 0.0004997253
vt 0.9995003 0.0004994869
vt 0.9995005 0.9995003
vt 0.0004997253 0.9995005
vt 0.5 0.5
vt 0.0004994869 0.0004997253
vt 0.9995003 0.0004994869
vt 0.9995005 0.9995003
vt 0.0004997253 0.9995005
vt 0.5 0.5
vt 0.0004994869 0.0004997253
vt 0.9995003 0.0004994869
vt 0.9995005 0.9995003
vt 0.0004997253 0.9995005
vt 0.5 0.5
vt 0.0004994869 0.0004997253
vt 0.9995003 0.0004994869
vt 0.9995005 0.9995003
vt 0.0004997253 0.9995005
vt 0.5 0.5
vt 0.0004994869 0.0004997253
vt 0.9995003 0.0004994869
vt 0.9995005 0.9995003
vt 0.0004997253 0.9995005
vt 0.5 0.5
vt 0.0004994869 0.0004997253
vt 0.9995003 0.0004994869
vt 0.9995005 0.9995003
vt 0.0004997253 0.9995005
vt 0.5 0.5
vt 0.0004994869 0.0004997253
vt 0.9995003 0.0004994869
vt 0.9995005 0.9995003
vt 0.0004997253 0.9995005
vt 0.5 0.5
vt 0.0004994869 0.0004997253
vt 0.9995003 0.0004994869
vt 0.9995005 0.9995003
vt 0.0004997253 0.9995005
vt 0.5 0.5
vt 0.0004994869 0.0004997253
vt 0.9995003 0.0004994869
vt 0.9995005 0.9995003
vt 0.0004997253 0.9995005

usemtl sn03_39_kms03t01.JPG
usemap sn03_39_kms03t01.JPG
f 3/3/3 1/1/1 2/2/2
f 4/4/4 1/1/1 3/3/3
f 5/5/5 1/1/1 4/4/4
f 2/2/2 1/1/1 5/5/5
f 8/8/8 6/6/6 7/7/7
f 9/9/9 6/6/6 8/8/8
f 10/10/10 6/6/6 9/9/9
f 7/7/7 6/6/6 10/10/10
f 13/13/13 11/11/11 12/12/12
f 14/14/14 11/11/11 13/13/13
f 15/15/15 11/11/11 14/14/14
f 12/12/12 11/11/11 15/15/15
f 18/18/18 16/16/16 17/17/17
f 19/19/19 16/16/16 18/18/18
f 20/20/20 16/16/16 19/19/19
f 17/17/17 16/16/16 20/20/20
f 23/23/23 21/21/21 22/22/22
f 24/24/24 21/21/21 23/23/23
f 25/25/25 21/21/21 24/24/24
f 22/22/22 21/21/21 25/25/25
f 28/28/28 26/26/26 27/27/27
f 29/29/29 26/26/26 28/28/28
f 30/30/30 26/26/26 29/29/29
f 27/27/27 26/26/26 30/30/30
f 33/33/33 31/31/31 32/32/32
f 34/34/34 31/31/31 33/33/33
f 35/35/35 31/31/31 34/34/34
f 32/32/32 31/31/31 35/35/35
f 38/38/38 36/36/36 37/37/37
f 39/39/39 36/36/36 38/38/38
f 40/40/40 36/36/36 39/39/39
f 37/37/37 36/36/36 40/40/40
f 43/43/43 41/41/41 42/42/42
f 44/44/44 41/41/41 43/43/43
f 45/45/45 41/41/41 44/44/44
f 42/42/42 41/41/41 45/45/45
f 48/48/48 46/46/46 47/47/47
f 49/49/49 46/46/46 48/48/48
f 50/50/50 46/46/46 49/49/49
f 47/47/47 46/46/46 50/50/50
f 53/53/53 51/51/51 52/52/52
f 54/54/54 51/51/51 53/53/53
f 55/55/55 51/51/51 54/54/54
f 52/52/52 51/51/51 55/55/55
f 58/58/58 56/56/56 57/57/57
f 59/59/59 56/56/56 58/58/58
f 60/60/60 56/56/56 59/59/59
f 57/57/57 56/56/56 60/60/60
f 63/63/63 61/61/61 62/62/62
f 64/64/64 61/61/61 63/63/63
f 65/65/65 61/61/61 64/64/64
f 62/62/62 61/61/61 65/65/65
f 68/68/68 66/66/66 67/67/67
f 69/69/69 66/66/66 68/68/68
f 70/70/70 66/66/66 69/69/69
f 67/67/67 66/66/66 70/70/70
f 73/73/73 71/71/71 72/72/72
f 74/74/74 71/71/71 73/73/73
f 75/75/75 71/71/71 74/74/74
f 72/72/72 71/71/71 75/75/75
f 78/78/78 76/76/76 77/77/77
f 79/79/79 76/76/76 78/78/78
f 80/80/80 76/76/76 79/79/79
f 77/77/77 76/76/76 80/80/80
f 83/83/83 81/81/81 82/82/82
f 84/84/84 81/81/81 83/83/83
f 85/85/85 81/81/81 84/84/84
f 82/82/82 81/81/81 85/85/85
f 88/88/88 86/86/86 87/87/87
f 89/89/89 86/86/86 88/88/88
f 90/90/90 86/86/86 89/89/89
f 87/87/87 86/86/86 90/90/90
f 93/93/93 91/91/91 92/92/92
f 94/94/94 91/91/91 93/93/93
f 95/95/95 91/91/91 94/94/94
f 92/92/92 91/91/91 95/95/95
f 98/98/98 96/96/96 97/97/97
f 99/99/99 96/96/96 98/98/98
f 100/100/100 96/96/96 99/99/99
f 97/97/97 96/96/96 100/100/100
f 103/103/103 101/101/101 102/102/102
f 104/104/104 101/101/101 103/103/103
f 105/105/105 101/101/101 104/104/104
f 102/102/102 101/101/101 105/105/105
f 108/108/108 106/106/106 107/107/107
f 109/109/109 106/106/106 108/108/108
f 110/110/110 106/106/106 109/109/109
f 107/107/107 106/106/106 110/110/110
f 113/113/113 111/111/111 112/112/112
f 114/114/114 111/111/111 113/113/113
f 115/115/115 111/111/111 114/114/114
f 112/112/112 111/111/111 115/115/115
f 118/118/118 116/116/116 117/117/117
f 119/119/119 116/116/116 118/118/118
f 120/120/120 116/116/116 119/119/119
f 117/117/117 116/116/116 120/120/120
f 123/123/123 121/121/121 122/122/122
f 124/124/124 121/121/121 123/123/123
f 125/125/125 121/121/121 124/124/124
f 122/122/122 121/121/121 125/125/125
f 128/128/128 126/126/126 127/127/127
f 129/129/129 126/126/126 128/128/128
f 130/130/130 126/126/126 129/129/129
f 127/127/127 126/126/126 130/130/130
f 133/133/133 131/131/131 132/132/132
f 134/134/134 131/131/131 133/133/133
f 135/135/135 131/131/131 134/134/134
f 132/132/132 131/131/131 135/135/135
f 138/138/138 136/136/136 137/137/137
f 139/139/139 136/136/136 138/138/138
f 140/140/140 136/136/136 139/139/139
f 137/137/137 136/136/136 140/140/140
