mtllib ./Object60.mtl
g Object60
v 56.55017 69.16531 -288.4566
v 85.81806 56.50848 -285.3003
v 54.86122 48.27313 -312.3895
v 24.43015 58.91592 -287.6471
v 57.82943 63.01825 -258.493
v 4.420629 49.43137 -323.6806
v 4.415687 38.28604 -284.2845
v 43.26661 39.66333 -316.1155
v 18.79657 25.28897 -360.1295
v -27.51881 30.11847 -327.0775
v 51.82522 56.32523 -284.8255
v 58.64964 32.91183 -254.1848
v 87.05206 41.92789 -310.9605
v 38.31701 62.89905 -331.4589
v 10.04881 54.41968 -274.4618
v 51.50079 81.67978 -343.9803
v 61.96576 76.89774 -316.0061
v 84.29494 63.38675 -354.1526
v 47.3064 64.24863 -371.3401
v 23.69261 74.37338 -332.5384
v 44.40057 83.58035 -295.2733
v 53.69014 65.86133 -278.2915
v 62.23336 77.53928 -304.7818
v 35.64367 74.47189 -316.4448
v 26.96355 62.44611 -290.0182
v -6.403907 51.21338 -320.8279
v 14.42971 53.15207 -285.5331
v 37.2844 47.00739 -327.0681
v -4.681073 31.0813 -350.4431
v -25.0708 38.15332 -308.9211
v 21.1098 96.13358 -290.8476
v 20.04319 84.54849 -268.5275
v 50.11584 83.39395 -288.549
v 22.1942 77.26694 -315.3908
v -3.198971 76.6066 -294.369
v 54.89444 89.08731 -342.2765
v 54.14567 86.49295 -323.2194
v 71.9975 87.91617 -343.6241
v 56.31086 77.60977 -363.2815
v 34.37042 83.29385 -345.0287
v 2.160704 38.10605 -311.4688
v 26.98789 38.55603 -267.7079
v 57.39654 39.83261 -330.7083
v -5.15378 6.332123 -345.1108
v -31.45093 26.44211 -285.6627
v 27.18059 83.0239 -344.6624
v 39.45484 93.48953 -311.2902
v 59.06233 77.24045 -352.3655
v 23.65839 53.44461 -370.4006
v 5.31981 60.00613 -325.2888
v 25.21069 95.21927 -332.5668
v 42.41159 97.51346 -316.8183
v 41.54939 81.43497 -347.6937
v 13.75289 72.92923 -346.4006
v 15.63438 83.35458 -315.0768
v 29.08321 85.42307 -300.9067
v 55.14421 77.67722 -266.0525
v 52.96704 62.31375 -320.9478
v -2.474846 56.6019 -321.5269
v -0.6287231 71.53372 -266.3801
v 56.06789 36.10004 -292.0596
v 29.75928 14.18597 -253.9567
v 108.4152 9.012909 -281.9553
v 86.31542 32.64331 -348.8965
v 7.715825 38.55161 -320.6424

vn -0.2270588 0.9627708 0.1466858
vn -0.4690441 0.8752212 -0.1182605
vn -0.5185409 0.7503054 0.41007
vn 0.03288506 0.9239734 0.3810402
vn 0.1247842 0.9793922 -0.1588083
vn -0.06632363 0.9769842 0.2027387
vn 0.3116618 0.9483305 -0.05946445
vn -0.263182 0.957967 -0.1141689
vn -0.3910554 0.8288322 0.4001411
vn 0.1582241 0.8424326 0.5150461
vn 0.0129347 0.9170746 -0.398506
vn 0.1219303 0.7764798 -0.6182332
vn -0.1918836 0.8467338 -0.4962083
vn -0.07541902 0.977117 -0.1988826
vn 0.226181 0.9352332 -0.2723616
vn -0.2384118 0.96575 0.1024047
vn -0.07745562 0.9740632 -0.2126063
vn -0.4879515 0.8692694 -0.07920814
vn -0.3641351 0.845354 0.3908737
vn 0.1084806 0.9432021 0.3140093
vn 0.4109372 0.9109084 -0.03710312
vn 0.522999 0.6932775 -0.4958211
vn -0.1990102 0.9377585 -0.2846117
vn 0.1711732 0.8719709 0.4586573
vn 0.7568337 0.6335229 0.1607843
vn -0.04626597 0.9429333 0.3297516
vn 0.109065 0.9907383 0.08088603
vn -0.2726749 0.9419479 0.1959148
vn -0.2168912 0.7882683 0.5758397
vn 0.3505689 0.7885702 0.5052313
vn -0.0414153 0.9816247 0.1862735
vn 0.4375726 0.8791243 -0.1888665
vn -0.3671924 0.9051548 -0.2141599
vn -0.4222593 0.7916285 0.4416123
vn 0.3048949 0.7813297 0.5445762
vn -0.08565086 0.968995 0.2317603
vn 0.1800254 0.983655 0.00369738
vn -0.1901784 0.9756352 0.1093996
vn -0.2914102 0.8715128 0.3943926
vn -0.0005927533 0.9456618 0.3251515
vn -0.00860849 0.9226465 0.385551
vn 0.124258 0.9910823 0.04812236
vn -0.142072 0.9333666 0.3296093
vn -0.1504526 0.7078342 0.6901702
vn 0.1706819 0.87769 0.4478035
vn 0.01379466 0.7875195 0.6161354
vn 0.1422891 0.9165671 0.3737091
vn -0.4208771 0.8261147 0.3746961
vn -0.1082998 0.6000108 0.7926276
vn 0.3994685 0.5882971 0.7030874
vn 0.00166893 0.8583588 0.5130473
vn -0.03805484 0.994436 0.0982291
vn -0.4990789 0.7545003 0.4262041
vn 0.03430784 0.621871 0.782368
vn 0.5484084 0.7055731 0.4487927
vn -0.1219631 0.9602064 0.2512542
vn -0.1126254 0.9740633 -0.1962558
vn -0.6018764 0.7743503 0.1952603
vn -0.108852 0.7759825 0.621291
vn 0.2921259 0.9237462 0.2477001
vn 0.09243849 0.9441111 -0.3164007
vn 0.3487846 0.8509364 -0.3927552
vn 0.0299831 0.8486438 -0.5281144
vn -0.1174447 0.9643075 -0.2373135
vn 0.1515332 0.9854006 -0.07760969

vt 0.5 0.5
vt 0.0004995465 0.0004997253
vt 0.9995002 0.0004994869
vt 0.9995004 0.9995003
vt 0.0004997849 0.9995005
vt 0.5 0.5
vt 0.0004995763 0.0004997253
vt 0.9995002 0.0004994869
vt 0.9995004 0.9995003
vt 0.0004997849 0.9995005
vt 0.5 0.5
vt 0.0004995465 0.0004997849
vt 0.9995002 0.0004995465
vt 0.9995004 0.9995002
vt 0.0004997849 0.9995005
vt 0.5 0.5
vt 0.0004995167 0.0004997551
vt 0.9995003 0.0004995167
vt 0.9995005 0.9995003
vt 0.0004997551 0.9995005
vt 0.5 0.5
vt 0.0004994869 0.0004997551
vt 0.9995003 0.0004995167
vt 0.9995005 0.9995003
vt 0.0004997253 0.9995005
vt 0.5 0.5
vt 0.0004995465 0.0004997253
vt 0.9995002 0.0004994869
vt 0.9995004 0.9995003
vt 0.0004997849 0.9995005
vt 0.5 0.5
vt 0.0004995763 0.0004997551
vt 0.9995002 0.0004994869
vt 0.9995004 0.9995003
vt 0.0004998147 0.9995005
vt 0.5 0.5
vt 0.0004995167 0.0004997551
vt 0.9995003 0.0004995167
vt 0.9995005 0.9995003
vt 0.0004997551 0.9995005
vt 0.5 0.5
vt 0.0004995167 0.0004997253
vt 0.9995003 0.0004994869
vt 0.9995005 0.9995003
vt 0.0004997551 0.9995005
vt 0.5 0.5
vt 0.0004994869 0.0004997253
vt 0.9995003 0.0004994869
vt 0.9995005 0.9995003
vt 0.0004997253 0.9995005
vt 0.5 0.5
vt 0.0004995465 0.0004997551
vt 0.9995002 0.0004995167
vt 0.9995004 0.9995003
vt 0.0004997849 0.9995005
vt 0.5 0.5
vt 0.0004994869 0.0004997551
vt 0.9995003 0.0004995167
vt 0.9995005 0.9995003
vt 0.0004997253 0.9995005
vt 0.5 0.5
vt 0.0004995465 0.0004997849
vt 0.9995002 0.0004995465
vt 0.9995004 0.9995002
vt 0.0004997849 0.9995005

usemtl sn03_39_kms03t01.JPG
usemap sn03_39_kms03t01.JPG
f 3/3/3 1/1/1 2/2/2
f 4/4/4 1/1/1 3/3/3
f 5/5/5 1/1/1 4/4/4
f 2/2/2 1/1/1 5/5/5
f 8/8/8 6/6/6 7/7/7
f 9/9/9 6/6/6 8/8/8
f 10/10/10 6/6/6 9/9/9
f 7/7/7 6/6/6 10/10/10
f 13/13/13 11/11/11 12/12/12
f 14/14/14 11/11/11 13/13/13
f 15/15/15 11/11/11 14/14/14
f 12/12/12 11/11/11 15/15/15
f 18/18/18 16/16/16 17/17/17
f 19/19/19 16/16/16 18/18/18
f 20/20/20 16/16/16 19/19/19
f 17/17/17 16/16/16 20/20/20
f 23/23/23 21/21/21 22/22/22
f 24/24/24 21/21/21 23/23/23
f 25/25/25 21/21/21 24/24/24
f 22/22/22 21/21/21 25/25/25
f 28/28/28 26/26/26 27/27/27
f 29/29/29 26/26/26 28/28/28
f 30/30/30 26/26/26 29/29/29
f 27/27/27 26/26/26 30/30/30
f 33/33/33 31/31/31 32/32/32
f 34/34/34 31/31/31 33/33/33
f 35/35/35 31/31/31 34/34/34
f 32/32/32 31/31/31 35/35/35
f 38/38/38 36/36/36 37/37/37
f 39/39/39 36/36/36 38/38/38
f 40/40/40 36/36/36 39/39/39
f 37/37/37 36/36/36 40/40/40
f 43/43/43 41/41/41 42/42/42
f 44/44/44 41/41/41 43/43/43
f 45/45/45 41/41/41 44/44/44
f 42/42/42 41/41/41 45/45/45
f 48/48/48 46/46/46 47/47/47
f 49/49/49 46/46/46 48/48/48
f 50/50/50 46/46/46 49/49/49
f 47/47/47 46/46/46 50/50/50
f 53/53/53 51/51/51 52/52/52
f 54/54/54 51/51/51 53/53/53
f 55/55/55 51/51/51 54/54/54
f 52/52/52 51/51/51 55/55/55
f 58/58/58 56/56/56 57/57/57
f 59/59/59 56/56/56 58/58/58
f 60/60/60 56/56/56 59/59/59
f 57/57/57 56/56/56 60/60/60
f 63/63/63 61/61/61 62/62/62
f 64/64/64 61/61/61 63/63/63
f 65/65/65 61/61/61 64/64/64
f 62/62/62 61/61/61 65/65/65
