mtllib ./Object33.mtl
g Object33
v -11.20686 -0.0001220703 0.0110407
v 0.01046725 44.61902 11.2064
v -11.20686 44.61902 0.0110407
v 0.01046725 -0.0001220703 11.2064
v 0.01046725 -0.0001220703 11.2064
v 11.20582 44.61902 -0.01092679
v 0.01046725 44.61902 11.2064
v 11.20582 -0.0001220703 -0.01092679
v -0.01150024 44.61902 -11.20628
v -0.01150024 -0.0001220703 -11.20628
v 2.850716 89.23816 -3.281292
v -4.780113 89.23816 -10.89718
v 10.46662 89.23816 -10.91213
v 2.850716 89.23816 -3.281292
v 2.835781 89.23816 -18.52802
v 12.10438 152.0049 1.138171
v 7.093331 152.0049 -3.863076
v 17.10564 152.0049 -3.872891
v 12.09459 152.0049 -8.874138
v 1.729628 105.7832 -13.39998
v -18.90174 123.7174 -26.21355
v -18.74444 118.7159 -30.24383
v 1.572328 110.7847 -9.369698
v 1.572328 110.7847 -9.369698
v -14.82003 123.7174 -31.17496
v -18.90174 123.7174 -26.21355
v 5.654042 110.7847 -14.33111
v 5.654042 110.7847 -14.33111
v -18.74444 118.7159 -30.24383
v -14.82003 123.7174 -31.17496
v 1.729628 105.7832 -13.39998
v -31.14891 146.2406 -38.39978
v -31.07142 143.7768 -40.38514
v -29.13822 146.2406 -40.84382
v -31.14891 146.2406 -38.39978
v -31.07142 143.7768 -40.38514
v -29.13822 146.2406 -40.84382
v 8.492439 87.36395 -13.56634
v 27.58961 105.2981 -28.57098
v 31.32304 100.2967 -27.04473
v 4.759006 92.36545 -15.09259
v 4.759006 92.36545 -15.09259
v 30.85578 105.2981 -23.03854
v 27.58961 105.2981 -28.57098
v 8.025192 92.36545 -9.560146
v 8.025192 92.36545 -9.560146
v 31.32304 100.2967 -27.04473
v 30.85578 105.2981 -23.03854
v 8.492439 87.36395 -13.56634
v 43.22972 127.8214 -35.91161
v 45.06883 125.3576 -35.15976
v 44.83865 127.8214 -33.18626
v 43.22972 127.8214 -35.91161
v 45.06883 125.3576 -35.15976
v 44.83865 127.8214 -33.18626
v 8.354772 115.9849 -5.203221
v 10.17767 129.0229 24.6589
v 6.844336 124.0215 26.92974
v 11.68812 120.9864 -7.474088
v 11.68812 120.9864 -7.474088
v 3.761531 129.0229 24.32893
v 10.17767 129.0229 24.6589
v 5.271967 120.9864 -7.804035
v 5.271967 120.9864 -7.804035
v 6.844336 124.0215 26.92974
v 3.761531 129.0229 24.32893
v 8.354772 115.9849 -5.203221
v 8.908742 157.2672 51.21668
v 7.26673 154.8034 52.33528
v 5.748107 157.2672 51.05411
v 8.908742 157.2672 51.21668
v 7.26673 154.8034 52.33528
v 5.748107 157.2672 51.05411
v 8.009821 140.6735 -8.514494
v -8.870378 155.3469 -18.99834
v -8.741679 151.2548 -22.29584
v 7.881134 144.7656 -5.21699
v 7.881134 144.7656 -5.21699
v -5.530792 155.3469 -23.05767
v -8.870378 155.3469 -18.99834
v 11.22071 144.7656 -9.276327
v 11.22071 144.7656 -9.276327
v -8.741679 151.2548 -22.29584
v -5.530792 155.3469 -23.05767
v 8.009821 140.6735 -8.514494
v -18.89078 173.775 -28.9689
v -18.82738 171.7592 -30.59328
v -17.24567 173.775 -30.96858
v -18.89078 173.775 -28.9689
v -18.82738 171.7592 -30.59328
v -17.24567 173.775 -30.96858
v 0.3431799 93.03409 -6.337126
v -36.68145 117.6914 26.96634
v -40.61692 112.6899 25.67564
v 4.278652 98.03555 -5.046456
v 4.278652 98.03555 -5.046456
v -39.76654 117.6914 21.2163
v -36.68145 117.6914 26.96634
v 1.193544 98.03555 -10.79647
v 1.193544 98.03555 -10.79647
v -40.61692 112.6899 25.67564
v -39.76654 117.6914 21.2163
v 0.3431799 93.03409 -6.337126
v -60.17275 145.2143 42.94862
v -62.1114 142.7505 42.31279
v -61.69247 145.2143 40.11606
v -60.17275 145.2143 42.94862
v -62.1114 142.7505 42.31279
v -61.69247 145.2143 40.11606
v 8.018301 118.828 -6.138695
v 51.97649 136.7621 17.26262
v 52.10966 131.7607 21.4022
v 7.885119 123.8294 -10.27824
v 7.885119 123.8294 -10.27824
v 47.62838 136.7621 22.1283
v 51.97649 136.7621 17.26262
v 3.53703 123.8294 -5.412591
v 3.53703 123.8294 -5.412591
v 52.10966 131.7607 21.4022
v 47.62838 136.7621 22.1283
v 8.018301 118.828 -6.138695
v 79.00815 164.039 35.55521
v 79.07374 161.5752 37.59443
v 76.86621 164.039 37.95211
v 79.00815 164.039 35.55521
v 79.07374 161.5752 37.59443
v 76.86621 164.039 37.95211

vn -0.6093073 0 0.7929342
vn -0.1895764 0.0912139 0.97762
vn -0.8548966 0.09672894 0.5097012
vn -0.1903701 0 0.9817124
vn 0.9817125 0 0.1903701
vn 0.8587252 -0.02151818 -0.5119842
vn 0.9752237 0.1147839 0.189112
vn 0.6093073 0 -0.7929342
vn -0.5108659 -0.06945936 -0.8568496
vn -0.7929342 0 -0.6093072
vn -0.1835659 0.2649657 0.9466239
vn -0.8641352 0.1024372 0.4927242
vn 0.8685758 0.01724125 -0.4952562
vn 0.8299733 -0.02720469 0.5571394
vn -0.4953196 0.006674421 -0.8686852
vn 0.1847757 -0.006293014 0.9827605
vn -0.9602123 0.2130708 0.1805352
vn 0.9730829 -0.1401329 -0.1829542
vn -0.1841484 0.08255945 -0.979425
vn -0.3008136 -0.4493474 0.8411885
vn -0.3815548 -0.4072776 0.8297836
vn -0.4482263 -0.3684775 0.8144431
vn -0.300813 -0.4493466 0.8411892
vn 0.4364196 0.8987706 0.04182566
vn 0.5648092 0.8234443 0.0541303
vn 0.6626377 0.7462428 0.06350588
vn 0.4364196 0.8987706 0.04182568
vn -0.1355708 -0.4493493 -0.8830094
vn -0.2170088 -0.4072794 -0.8871474
vn -0.2853801 -0.368479 -0.8847492
vn -0.1355705 -0.4493484 -0.88301
vn -0.5497345 -0.30121 0.7791433
vn -0.5497354 -0.3012104 0.7791426
vn 0.7911344 0.6069246 0.07582063
vn 0.7911345 0.6069246 0.07582034
vn -0.3917457 -0.3012111 -0.8693717
vn -0.391746 -0.3012115 -0.8693714
vn -0.6875744 -0.4493471 -0.570376
vn -0.6492421 -0.4072771 -0.6423472
vn -0.6120239 -0.3684767 -0.6997511
vn -0.687575 -0.4493464 -0.5703756
vn -0.1885665 0.8987706 0.3957955
vn -0.2440409 0.8234439 0.5122345
vn -0.2863119 0.746242 0.6009561
vn -0.1885663 0.8987706 0.3957957
vn 0.8761259 -0.4493478 0.1746134
vn 0.9078678 -0.4072778 0.09950253
vn 0.928999 -0.3684767 0.03443468
vn 0.876126 -0.4493476 0.1746135
vn -0.5441352 -0.3012092 -0.7830644
vn -0.5441345 -0.3012094 -0.7830647
vn -0.3418332 0.6069235 0.7174914
vn -0.3418374 0.6069242 0.7174888
vn 0.950928 -0.3012093 -0.07077495
vn 0.950928 -0.3012091 -0.07077464
vn 0.7994393 -0.4945207 -0.3410954
vn 0.8535393 -0.4508424 -0.261174
vn 0.8876642 -0.4149635 -0.1996436
vn 0.7994394 -0.4945204 -0.3410956
vn -0.1249272 0.9701816 -0.2077039
vn -0.2258239 0.8989084 -0.3754559
vn -0.2951641 0.8197851 -0.4907449
vn -0.1249276 0.9701815 -0.2077038
vn -0.673043 -0.4916094 0.5525697
vn -0.6145122 -0.4355447 0.6577807
vn -0.5641323 -0.3890289 0.7282934
vn -0.6730435 -0.4916083 0.55257
vn 0.9256697 -0.3611734 -0.1126479
vn 0.9256698 -0.3611718 -0.1126507
vn -0.3752924 0.6854337 -0.6239681
vn -0.3752885 0.6854339 -0.6239702
vn -0.4870424 -0.3198922 0.812686
vn -0.4870432 -0.3198915 0.8126859
vn -0.3008141 -0.4493474 0.8411883
vn -0.3815554 -0.4072773 0.8297834
vn -0.4482266 -0.3684767 0.8144433
vn -0.3008139 -0.4493471 0.8411886
vn 0.43642 0.8987703 0.04182563
vn 0.5648097 0.8234439 0.05413061
vn 0.6626382 0.7462422 0.06350648
vn 0.4364203 0.8987702 0.04182499
vn -0.1355711 -0.4493507 -0.8830088
vn -0.2170092 -0.4072803 -0.8871471
vn -0.2853808 -0.3684797 -0.8847489
vn -0.1355711 -0.4493507 -0.8830088
vn -0.5497348 -0.3012091 0.7791434
vn -0.5497353 -0.3012094 0.779143
vn 0.7911348 0.606924 0.07582122
vn 0.7911352 0.6069238 0.07581973
vn -0.3917464 -0.301212 -0.869371
vn -0.3917483 -0.3012139 -0.8693695
vn 0.7478827 -0.4964496 0.4406917
vn 0.7292423 -0.4685086 0.4987036
vn 0.7076293 -0.4388651 0.5537673
vn 0.7478839 -0.4964481 0.4406913
vn 0.1671575 0.9336343 -0.3168365
vn 0.2124311 0.8903632 -0.4026491
vn 0.2543783 0.8383436 -0.4821531
vn 0.1671568 0.9336343 -0.3168367
vn -0.8973905 -0.4235966 -0.1235161
vn -0.9157603 -0.3937117 -0.07983924
vn -0.9306337 -0.3639887 -0.03785557
vn -0.89739 -0.4235975 -0.1235158
vn 0.6564816 -0.3754325 0.6542799
vn 0.6564826 -0.3754321 0.6542792
vn 0.3255903 0.7163408 -0.6171279
vn 0.3255945 0.7163408 -0.6171256
vn -0.9513391 -0.3053721 0.041252
vn -0.9513402 -0.305369 0.04124913
vn 0.1003208 -0.5207258 -0.8478092
vn 0.1692781 -0.4916085 -0.8542048
vn 0.2319518 -0.462334 -0.8558303
vn 0.1003203 -0.5207244 -0.8478101
vn -0.2424988 0.9695805 -0.03328477
vn -0.363348 0.9303177 -0.04987225
vn -0.4701422 0.8802284 -0.06453057
vn -0.2424989 0.9695805 -0.03328487
vn 0.1429703 -0.4521324 0.8804179
vn 0.2049583 -0.4148724 0.8864948
vn 0.2589394 -0.380059 0.8879782
vn 0.1429702 -0.4521323 0.8804181
vn 0.340229 -0.4050397 -0.8486383
vn 0.3402301 -0.4050406 -0.8486376
vn -0.6386837 0.7644594 -0.08766422
vn -0.6386836 0.7644594 -0.08766415
vn 0.347603 -0.3177523 0.8821596
vn 0.3476015 -0.3177501 0.8821611

vt 1.584354 0.0009990335
vt 1.940507 0.587487
vt 1.584354 0.587487
vt 1.940507 0.0009990335
vt -0.05949318 0.0009990335
vt 0.3613258 0.587487
vt -0.05949318 0.587487
vt 0.3613258 0.0009990335
vt 1.113504 0.587487
vt 1.113504 0.0009990335
vt 1.92401 1.173975
vt 1.252414 1.173975
vt 0.7516499 1.173975
vt -0.07598996 1.173975
vt 1.001985 1.173975
vt 0.3395066 1.999001
vt 0.5158446 1.999001
vt 0.5046431 1.999001
vt 0.6712966 1.999001
vt 0.0004995763 -0.2512252
vt 0.3048176 0.5471682
vt 0.0004995763 0.5471682
vt 0.3048176 -0.2512252
vt 0.3700571 -0.2512252
vt 0.6299429 0.5471682
vt 0.3700571 0.5471682
vt 0.6299429 -0.2512252
vt 0.6951823 -0.2512252
vt 0.9995004 0.5471682
vt 0.6951823 0.5471682
vt 0.9995004 -0.2512252
vt 0.2795607 1.232798
vt 0.1296503 1.232798
vt 0.5640112 1.232798
vt 0.4359886 1.232798
vt 0.9167974 1.232798
vt 0.7668869 1.232798
vt 0.0004995763 -0.2512252
vt 0.3048176 0.5471682
vt 0.0004995763 0.5471682
vt 0.3048176 -0.2512252
vt 0.3700571 -0.2512252
vt 0.6299429 0.5471682
vt 0.3700571 0.5471682
vt 0.6299429 -0.2512252
vt 0.6951823 -0.2512252
vt 0.9995004 0.5471682
vt 0.6951823 0.5471682
vt 0.9995004 -0.2512252
vt 0.2795607 1.232798
vt 0.1296503 1.232798
vt 0.5640112 1.232798
vt 0.4359886 1.232798
vt 0.9167974 1.232798
vt 0.7668869 1.232798
vt 0.0004995763 -0.2512252
vt 0.3048176 0.5471682
vt 0.0004995763 0.5471682
vt 0.3048176 -0.2512252
vt 0.3700571 -0.2512252
vt 0.6299429 0.5471682
vt 0.3700571 0.5471682
vt 0.6299429 -0.2512252
vt 0.6951823 -0.2512252
vt 0.9995004 0.5471682
vt 0.6951823 0.5471682
vt 0.9995004 -0.2512252
vt 0.2795607 1.232798
vt 0.1296503 1.232798
vt 0.5640112 1.232798
vt 0.4359886 1.232798
vt 0.9167974 1.232798
vt 0.7668869 1.232798
vt 0.0004995763 -0.2512252
vt 0.3048176 0.5471682
vt 0.0004995763 0.5471682
vt 0.3048176 -0.2512252
vt 0.3700571 -0.2512252
vt 0.6299429 0.5471682
vt 0.3700571 0.5471682
vt 0.6299429 -0.2512252
vt 0.6951823 -0.2512252
vt 0.9995004 0.5471682
vt 0.6951823 0.5471682
vt 0.9995004 -0.2512252
vt 0.2795607 1.232798
vt 0.1296503 1.232798
vt 0.5640112 1.232798
vt 0.4359886 1.232798
vt 0.9167974 1.232798
vt 0.7668869 1.232798
vt 0.0004995763 -0.2512252
vt 0.3048176 0.5471682
vt 0.0004995763 0.5471682
vt 0.3048176 -0.2512252
vt 0.3700571 -0.2512252
vt 0.6299429 0.5471682
vt 0.3700571 0.5471682
vt 0.6299429 -0.2512252
vt 0.6951823 -0.2512252
vt 0.9995004 0.5471682
vt 0.6951823 0.5471682
vt 0.9995004 -0.2512252
vt 0.2795607 1.232798
vt 0.1296503 1.232798
vt 0.5640112 1.232798
vt 0.4359886 1.232798
vt 0.9167974 1.232798
vt 0.7668869 1.232798
vt 0.0004995763 -0.2512252
vt 0.3048176 0.5471682
vt 0.0004995763 0.5471682
vt 0.3048176 -0.2512252
vt 0.3700571 -0.2512252
vt 0.6299429 0.5471682
vt 0.3700571 0.5471682
vt 0.6299429 -0.2512252
vt 0.6951823 -0.2512252
vt 0.9995004 0.5471682
vt 0.6951823 0.5471682
vt 0.9995004 -0.2512252
vt 0.2795607 1.232798
vt 0.1296503 1.232798
vt 0.5640112 1.232798
vt 0.4359886 1.232798
vt 0.9167974 1.232798
vt 0.7668869 1.232798

usemtl sn03_40_sn3tr.JPG
usemap sn03_40_sn3tr.JPG
f 3/3/3 1/1/1 2/2/2
f 2/2/2 1/1/1 4/4/4
f 7/7/7 5/5/5 6/6/6
f 6/6/6 5/5/5 8/8/8
f 6/6/6 8/8/8 9/9/9
f 9/9/9 8/8/8 10/10/10
f 9/9/9 10/10/10 3/3/3
f 3/3/3 10/10/10 1/1/1
f 12/12/12 3/3/3 11/11/11
f 11/11/11 3/3/3 2/2/2
f 14/14/14 7/7/7 13/13/13
f 13/13/13 7/7/7 6/6/6
f 13/13/13 6/6/6 15/15/15
f 15/15/15 6/6/6 9/9/9
f 15/15/15 9/9/9 12/12/12
f 12/12/12 9/9/9 3/3/3
f 16/16/16 12/12/12 14/14/14
f 12/12/12 16/16/16 17/17/17
f 18/18/18 14/14/14 13/13/13
f 14/14/14 18/18/18 16/16/16
f 19/19/19 13/13/13 15/15/15
f 13/13/13 19/19/19 18/18/18
f 17/17/17 15/15/15 12/12/12
f 15/15/15 17/17/17 19/19/19
f 22/22/22 20/20/20 21/21/21
f 21/21/21 20/20/20 23/23/23
f 26/26/26 24/24/24 25/25/25
f 25/25/25 24/24/24 27/27/27
f 30/30/30 28/28/28 29/29/29
f 29/29/29 28/28/28 31/31/31
f 33/33/33 22/22/22 32/32/32
f 32/32/32 22/22/22 21/21/21
f 35/35/35 26/26/26 34/34/34
f 34/34/34 26/26/26 25/25/25
f 37/37/37 30/30/30 36/36/36
f 36/36/36 30/30/30 29/29/29
f 40/40/40 38/38/38 39/39/39
f 39/39/39 38/38/38 41/41/41
f 44/44/44 42/42/42 43/43/43
f 43/43/43 42/42/42 45/45/45
f 48/48/48 46/46/46 47/47/47
f 47/47/47 46/46/46 49/49/49
f 51/51/51 40/40/40 50/50/50
f 50/50/50 40/40/40 39/39/39
f 53/53/53 44/44/44 52/52/52
f 52/52/52 44/44/44 43/43/43
f 55/55/55 48/48/48 54/54/54
f 54/54/54 48/48/48 47/47/47
f 58/58/58 56/56/56 57/57/57
f 57/57/57 56/56/56 59/59/59
f 62/62/62 60/60/60 61/61/61
f 61/61/61 60/60/60 63/63/63
f 66/66/66 64/64/64 65/65/65
f 65/65/65 64/64/64 67/67/67
f 69/69/69 58/58/58 68/68/68
f 68/68/68 58/58/58 57/57/57
f 71/71/71 62/62/62 70/70/70
f 70/70/70 62/62/62 61/61/61
f 73/73/73 66/66/66 72/72/72
f 72/72/72 66/66/66 65/65/65
f 76/76/76 74/74/74 75/75/75
f 75/75/75 74/74/74 77/77/77
f 80/80/80 78/78/78 79/79/79
f 79/79/79 78/78/78 81/81/81
f 84/84/84 82/82/82 83/83/83
f 83/83/83 82/82/82 85/85/85
f 87/87/87 76/76/76 86/86/86
f 86/86/86 76/76/76 75/75/75
f 89/89/89 80/80/80 88/88/88
f 88/88/88 80/80/80 79/79/79
f 91/91/91 84/84/84 90/90/90
f 90/90/90 84/84/84 83/83/83
f 94/94/94 92/92/92 93/93/93
f 93/93/93 92/92/92 95/95/95
f 98/98/98 96/96/96 97/97/97
f 97/97/97 96/96/96 99/99/99
f 102/102/102 100/100/100 101/101/101
f 101/101/101 100/100/100 103/103/103
f 105/105/105 94/94/94 104/104/104
f 104/104/104 94/94/94 93/93/93
f 107/107/107 98/98/98 106/106/106
f 106/106/106 98/98/98 97/97/97
f 109/109/109 102/102/102 108/108/108
f 108/108/108 102/102/102 101/101/101
f 112/112/112 110/110/110 111/111/111
f 111/111/111 110/110/110 113/113/113
f 116/116/116 114/114/114 115/115/115
f 115/115/115 114/114/114 117/117/117
f 120/120/120 118/118/118 119/119/119
f 119/119/119 118/118/118 121/121/121
f 123/123/123 112/112/112 122/122/122
f 122/122/122 112/112/112 111/111/111
f 125/125/125 116/116/116 124/124/124
f 124/124/124 116/116/116 115/115/115
f 127/127/127 120/120/120 126/126/126
f 126/126/126 120/120/120 119/119/119
