mtllib ./Object14.mtl
g Object14
v 556.3478 368.1835 52.41211
v 520.0227 357.21 59.53314
v 544.9067 375.2238 39.37018
v 521.6803 342.3857 81.52405
v 543.6457 342.6734 86.46155
v 567.7889 361.1432 65.45407
v 601.4103 380.0491 46.12299
v 597.4874 396.2673 21.54993
v 573.2569 397.3734 14.03024
v 544.9067 375.2238 39.37018
v 516.2393 402.0446 63.0524
v 541.1234 420.0586 42.88943
v 520.0227 357.21 59.53314
v 520.0227 357.21 59.53314
v 517.897 387.2204 85.04327
v 516.2393 402.0446 63.0524
v 521.6803 342.3857 81.52405
v 539.8623 387.5081 89.9808
v 543.6457 342.6734 86.46155
v 543.6457 342.6734 86.46155
v 564.0055 405.9779 68.97333
v 539.8623 387.5081 89.9808
v 567.7889 361.1432 65.45407
v 597.6269 424.8838 49.64227
v 601.4103 380.0491 46.12299
v 601.4103 380.0491 46.12299
v 593.7041 441.102 25.06918
v 597.6269 424.8838 49.64227
v 597.4874 396.2673 21.54993
v 569.4735 442.2081 17.5495
v 573.2569 397.3734 14.03024
v 573.2569 397.3734 14.03024
v 569.4735 442.2081 17.5495
v 528.9623 451.9018 63.28345
v 543.0211 462.0791 51.89194
v 529.8988 443.5265 75.7077
v 528.9623 451.9018 63.28345
v 542.3086 443.6891 78.49725
v 555.9488 454.124 66.6286
v 542.3086 443.6891 78.49725
v 574.944 464.8052 55.70709
v 572.7277 473.968 41.82404
v 574.944 464.8052 55.70709
v 559.0381 474.593 37.57559
v 559.0381 474.593 37.57559
v 549.4849 458.1015 59.26028
v 543.0211 462.0791 51.89194
v 528.9623 451.9018 63.28345
v 529.8988 443.5265 75.7077
v 542.3086 443.6891 78.49725
v 555.9488 454.124 66.6286
v 574.944 464.8052 55.70709
v 572.7277 473.968 41.82404
v 559.0381 474.593 37.57559

vn 0.136754 -0.8165922 -0.5607812
vn 0.1367539 -0.8165923 -0.5607809
vn 0.1367539 -0.8165921 -0.5607813
vn 0.1367535 -0.8165923 -0.5607812
vn 0.1367536 -0.8165922 -0.5607814
vn 0.1367543 -0.8165922 -0.5607811
vn 0.1367541 -0.816592 -0.5607814
vn 0.1367542 -0.816592 -0.5607814
vn 0.1367543 -0.8165922 -0.5607813
vn -0.6458168 0.005430681 -0.7634731
vn -0.6556018 0.06343094 -0.7524379
vn -0.6833549 0.08026462 -0.7256609
vn -0.632756 0.007383932 -0.7743161
vn -0.9961899 -0.08543646 0.01749695
vn -0.7628714 0.08333511 0.6411573
vn -0.9797935 0.1236508 0.1572101
vn -0.5926691 -0.1126133 0.7975348
vn -0.2195356 0.02201846 0.975356
vn -0.21715 -0.09458476 0.9715449
vn 0.6579726 -0.00358547 0.7530335
vn 0.5531997 0.05600681 0.8311639
vn 0.6162276 0.08502686 0.7829648
vn 0.5545884 -0.01850183 0.8319191
vn 0.4874547 0.02553472 0.8727748
vn 0.5086689 -0.02462919 0.8606099
vn 0.9909949 0.09131204 -0.09793564
vn 0.8178362 0.3525615 -0.4548014
vn 0.9394318 0.3352401 0.07128833
vn 0.6243346 0.1133511 -0.7728892
vn 0.2974337 0.2482919 -0.9218917
vn 0.2990666 0.09972812 -0.9490066
vn -0.6673443 0.002144142 -0.7447463
vn -0.707435 0.1060483 -0.6987772
vn -0.694791 0.1805288 -0.6961859
vn -0.7208658 0.1761632 -0.6703126
vn -0.8295413 0.2588617 0.4948252
vn -0.9426553 0.2394772 0.2324899
vn -0.2172272 0.2045506 0.9544482
vn 0.5462621 0.1316953 0.8271965
vn 0.5883616 0.137262 0.7968625
vn 0.4444527 0.1176222 0.8880467
vn 0.8307084 0.5546383 -0.04795636
vn 0.8676828 0.4672061 0.1698378
vn 0.2675382 0.5676642 -0.7785761
vn -0.7285532 0.174796 -0.6623115
vn -0.1367538 0.8165921 0.5607815
vn -0.1367537 0.8165919 0.5607817
vn -0.1367535 0.8165923 0.5607811
vn -0.1367534 0.8165923 0.560781
vn -0.1367535 0.8165923 0.5607811
vn -0.136754 0.8165922 0.5607811
vn -0.136754 0.816592 0.5607815
vn -0.136754 0.8165918 0.5607817
vn -0.1367539 0.8165918 0.5607817

vt 0.4602131 0.5230715
vt 0.2077304 0.7683872
vt 0.2156485 0.5230714
vt 0.460213 0.8700004
vt 0.7126957 0.7683873
vt 0.7047777 0.5230715
vt 0.8009039 0.2316128
vt 0.5000001 0.1299997
vt 0.1990961 0.2316127
vt 0.5230714 0.2586954
vt 0.7683872 0.5
vt 0.5230714 0.5
vt 0.7683872 0.2586954
vt 0.2077304 0.2586954
vt 0.460213 0.5
vt 0.2077304 0.5
vt 0.460213 0.2586954
vt 0.7126957 0.5
vt 0.7126957 0.2586954
vt 0.2316127 0.2586954
vt 0.4769285 0.5
vt 0.2316127 0.5
vt 0.4769285 0.2586954
vt 0.7683872 0.5
vt 0.7683872 0.2586954
vt 0.1990961 0.2586954
vt 0.5 0.5
vt 0.1990961 0.5
vt 0.5 0.2586954
vt 0.8009039 0.5
vt 0.8009039 0.2586954
vt 0.2316127 0.2586954
vt 0.2316127 0.5
vt 0.6566495 0.7413046
vt 0.5180531 0.7413046
vt 0.46454 0.7413046
vt 0.3218945 0.7413046
vt 0.6071856 0.7413046
vt 0.4819469 0.7413046
vt 0.3433504 0.7413046
vt 0.6466128 0.7413046
vt 0.5129815 0.7413046
vt 0.3429793 0.7413046
vt 0.6829836 0.7413046
vt 0.3533871 0.7413046
vt 0.5354599 0.5180531
vt 0.673632 0.5180531
vt 0.6781055 0.6566495
vt 0.53546 0.714058
vt 0.3928144 0.6566496
vt 0.3972878 0.5180531
vt 0.3429793 0.3533872
vt 0.5129815 0.2959786
vt 0.6829836 0.3533871

usemtl sn03_03_sn308.JPG
usemap sn03_03_sn308.JPG
f 3/3/3 1/1/1 2/2/2
f 2/2/2 1/1/1 4/4/4
f 4/4/4 1/1/1 5/5/5
f 5/5/5 1/1/1 6/6/6
f 6/6/6 1/1/1 7/7/7
f 7/7/7 1/1/1 8/8/8
f 8/8/8 1/1/1 9/9/9
f 9/9/9 1/1/1 3/3/3
f 12/12/12 10/10/10 11/11/11
f 11/11/11 10/10/10 13/13/13
f 16/16/16 14/14/14 15/15/15
f 15/15/15 14/14/14 17/17/17
f 15/15/15 17/17/17 18/18/18
f 18/18/18 17/17/17 19/19/19
f 22/22/22 20/20/20 21/21/21
f 21/21/21 20/20/20 23/23/23
f 21/21/21 23/23/23 24/24/24
f 24/24/24 23/23/23 25/25/25
f 28/28/28 26/26/26 27/27/27
f 27/27/27 26/26/26 29/29/29
f 27/27/27 29/29/29 30/30/30
f 30/30/30 29/29/29 31/31/31
f 33/33/33 32/32/32 12/12/12
f 12/12/12 32/32/32 10/10/10
f 35/35/35 12/12/12 34/34/34
f 34/34/34 12/12/12 11/11/11
f 37/37/37 16/16/16 36/36/36
f 36/36/36 16/16/16 15/15/15
f 36/36/36 15/15/15 38/38/38
f 38/38/38 15/15/15 18/18/18
f 40/40/40 22/22/22 39/39/39
f 39/39/39 22/22/22 21/21/21
f 39/39/39 21/21/21 41/41/41
f 41/41/41 21/21/21 24/24/24
f 43/43/43 28/28/28 42/42/42
f 42/42/42 28/28/28 27/27/27
f 42/42/42 27/27/27 44/44/44
f 44/44/44 27/27/27 30/30/30
f 45/45/45 33/33/33 35/35/35
f 35/35/35 33/33/33 12/12/12
f 48/48/48 46/46/46 47/47/47
f 49/49/49 46/46/46 48/48/48
f 50/50/50 46/46/46 49/49/49
f 51/51/51 46/46/46 50/50/50
f 52/52/52 46/46/46 51/51/51
f 53/53/53 46/46/46 52/52/52
f 54/54/54 46/46/46 53/53/53
f 47/47/47 46/46/46 54/54/54
