mtllib ./Object61.mtl
g Object61
v -11.20584 0.000453949 0.01084209
v 0.01146665 44.61959 11.20622
v -11.20584 44.61959 0.01084209
v 0.01146665 0.000453949 11.20622
v 0.01146665 0.000453949 11.20622
v 11.20681 44.61959 -0.01107477
v 0.01146665 44.61959 11.20622
v 11.20681 0.000453949 -0.01107477
v -0.01050084 44.61959 -11.20646
v -0.01050084 0.000453949 -11.20646
v 2.851715 89.23874 -3.281466
v -4.779144 89.23874 -10.89734
v 10.46763 89.23874 -10.91233
v 2.851715 89.23874 -3.281466
v 2.836793 89.23874 -18.52818
v 12.10541 152.0055 1.137981
v 7.094347 152.0055 -3.863275
v 17.10661 152.0055 -3.873005
v 12.09555 152.0055 -8.874261
v 1.730657 105.7838 -13.40017
v -18.90076 123.718 -26.2137
v -18.74345 118.7165 -30.24397
v 1.573344 110.7853 -9.369896
v 1.573344 110.7853 -9.369896
v -14.81902 123.718 -31.17517
v -18.90076 123.718 -26.2137
v 5.655037 110.7853 -14.33125
v 5.655037 110.7853 -14.33125
v -18.74345 118.7165 -30.24397
v -14.81902 123.718 -31.17517
v 1.730657 105.7838 -13.40017
v -31.14786 146.2412 -38.4
v -31.07044 143.7774 -40.38529
v -29.13721 146.2412 -40.84399
v -31.14786 146.2412 -38.4
v -31.07044 143.7774 -40.38529
v -29.13721 146.2412 -40.84399
v 8.493485 87.36453 -13.56655
v 27.59065 105.2987 -28.57119
v 31.32406 100.2972 -27.04493
v 4.759989 92.36601 -15.09273
v 4.759989 92.36601 -15.09273
v 30.85676 105.2987 -23.03866
v 27.59065 105.2987 -28.57119
v 8.026161 92.36601 -9.560303
v 8.026161 92.36601 -9.560303
v 31.32406 100.2972 -27.04493
v 30.85676 105.2987 -23.03866
v 8.493485 87.36453 -13.56655
v 43.23068 127.822 -35.91173
v 45.06984 125.3582 -35.15993
v 44.83962 127.8219 -33.18641
v 43.23068 127.822 -35.91173
v 45.06984 125.3582 -35.15993
v 44.83962 127.8219 -33.18641
v 8.355792 115.9855 -5.203454
v 10.17862 129.0235 24.65877
v 6.84533 124.022 26.9296
v 11.68914 120.987 -7.474253
v 11.68914 120.987 -7.474253
v 3.762513 129.0235 24.32878
v 10.17862 129.0235 24.65877
v 5.272933 120.987 -7.804157
v 5.272933 120.987 -7.804157
v 6.84533 124.022 26.9296
v 3.762513 129.0235 24.32878
v 8.355792 115.9855 -5.203454
v 8.909741 157.2677 51.21651
v 7.267729 154.804 52.33511
v 5.749073 157.2677 51.05399
v 8.909741 157.2677 51.21651
v 7.267729 154.804 52.33511
v 5.749073 157.2677 51.05399
v 8.01085 140.6741 -8.514685
v -8.869345 155.3475 -18.99856
v -8.740666 151.2554 -22.296
v 7.882104 144.7662 -5.217146
v 7.882104 144.7662 -5.217146
v -5.52984 155.3475 -23.0578
v -8.869345 155.3475 -18.99856
v 11.2217 144.7662 -9.276467
v 11.2217 144.7662 -9.276467
v -8.740666 151.2554 -22.296
v -5.52984 155.3475 -23.0578
v 8.01085 140.6741 -8.514685
v -18.88978 173.7756 -28.96904
v -18.82638 171.7598 -30.59345
v -17.24467 173.7756 -30.96875
v -18.88978 173.7756 -28.96904
v -18.82638 171.7598 -30.59345
v -17.24467 173.7756 -30.96875
v 0.3441452 93.03467 -6.337249
v -36.68043 117.692 26.96611
v -40.6159 112.6905 25.67547
v 4.279622 98.03613 -5.046612
v 4.279622 98.03613 -5.046612
v -39.76553 117.692 21.21613
v -36.68043 117.692 26.96611
v 1.194565 98.03613 -10.79671
v 1.194565 98.03613 -10.79671
v -40.6159 112.6905 25.67547
v -39.76553 117.692 21.21613
v 0.3441452 93.03467 -6.337249
v -60.17175 145.2149 42.94844
v -62.11042 142.7511 42.31268
v -61.69147 145.2149 40.11589
v -60.17175 145.2149 42.94844
v -62.11042 142.7511 42.31268
v -61.69147 145.2149 40.11589
v 8.019266 118.8286 -6.138817
v 51.97745 136.7627 17.2625
v 52.11063 131.7612 21.40208
v 7.886115 123.83 -10.27838
v 7.886115 123.83 -10.27838
v 47.62938 136.7627 22.12812
v 51.97745 136.7627 17.2625
v 3.538016 123.83 -5.412773
v 3.538016 123.83 -5.412773
v 52.11063 131.7612 21.40208
v 47.62938 136.7627 22.12812
v 8.019266 118.8286 -6.138817
v 79.00912 164.0396 35.55506
v 79.07475 161.5758 37.59426
v 76.86723 164.0396 37.9519
v 79.00912 164.0396 35.55506
v 79.07475 161.5758 37.59426
v 76.86723 164.0396 37.9519

vn -0.6093078 0 0.7929338
vn -0.1895783 0.09121378 0.9776196
vn -0.8548962 0.09672877 0.5097018
vn -0.1903718 0 0.981712
vn 0.9817123 0 0.1903704
vn 0.8587252 -0.02151833 -0.5119843
vn 0.9752237 0.1147841 0.1891118
vn 0.6093078 0 -0.7929338
vn -0.5108643 -0.06945945 -0.8568506
vn -0.7929332 0 -0.6093085
vn -0.1835658 0.2649651 0.946624
vn -0.8641351 0.1024373 0.4927241
vn 0.8685758 0.01724145 -0.4952562
vn 0.8299733 -0.02720463 0.5571392
vn -0.4953194 0.006674223 -0.8686854
vn 0.1847724 -0.006291858 0.9827611
vn -0.9602124 0.2130712 0.180535
vn 0.9730825 -0.1401327 -0.1829565
vn -0.1841455 0.08255988 -0.9794254
vn -0.3008122 -0.4493487 0.8411883
vn -0.381555 -0.4072782 0.8297833
vn -0.4482222 -0.3684744 0.8144467
vn -0.3008122 -0.4493487 0.8411884
vn 0.4364198 0.8987705 0.04182566
vn 0.5648105 0.8234434 0.05412954
vn 0.6626378 0.7462428 0.06350457
vn 0.4364193 0.8987706 0.04182705
vn -0.135571 -0.4493496 -0.8830093
vn -0.2170116 -0.4072811 -0.8871461
vn -0.2853848 -0.368484 -0.8847457
vn -0.1355689 -0.449342 -0.8830135
vn -0.5497295 -0.3012041 0.7791493
vn -0.5497137 -0.3011957 0.7791635
vn 0.7911353 0.6069237 0.0758196
vn 0.7911348 0.606924 0.07582208
vn -0.3917519 -0.3012144 -0.8693678
vn -0.3917489 -0.3012114 -0.8693702
vn -0.6875759 -0.4493455 -0.5703753
vn -0.6492424 -0.4072762 -0.6423476
vn -0.6120242 -0.3684753 -0.6997515
vn -0.6875789 -0.4493426 -0.5703739
vn -0.1885701 0.8987707 0.3957937
vn -0.2440476 0.8234438 0.5122315
vn -0.286318 0.7462425 0.6009527
vn -0.188567 0.8987703 0.395796
vn 0.8761253 -0.4493493 0.1746127
vn 0.9078676 -0.4072789 0.09950143
vn 0.9289986 -0.3684778 0.03443456
vn 0.8761263 -0.449347 0.1746137
vn -0.5441364 -0.3012064 -0.7830646
vn -0.5441461 -0.3012021 -0.7830597
vn -0.3418391 0.6069226 0.7174892
vn -0.3418301 0.6069211 0.7174949
vn 0.9509283 -0.3012083 -0.07077362
vn 0.9509298 -0.3012047 -0.07076928
vn 0.7994406 -0.4945183 -0.341096
vn 0.8535398 -0.4508397 -0.2611765
vn 0.8876648 -0.4149605 -0.1996468
vn 0.7994397 -0.4945212 -0.3410937
vn -0.1249278 0.9701814 -0.207704
vn -0.225823 0.8989089 -0.3754555
vn -0.2951654 0.8197851 -0.4907441
vn -0.1249294 0.9701814 -0.2077035
vn -0.6730403 -0.491614 0.5525692
vn -0.6145103 -0.4355476 0.6577806
vn -0.5641292 -0.3890317 0.7282942
vn -0.6730385 -0.4916172 0.5525681
vn 0.9256699 -0.3611718 -0.1126507
vn 0.9256697 -0.3611732 -0.112648
vn -0.3752944 0.6854343 -0.6239663
vn -0.3752995 0.685434 -0.6239637
vn -0.4870375 -0.3198962 0.8126875
vn -0.4870289 -0.319904 0.8126894
vn -0.3008153 -0.4493475 0.8411877
vn -0.3815533 -0.4072766 0.8297848
vn -0.4482228 -0.3684729 0.8144471
vn -0.3008208 -0.4493546 0.8411821
vn 0.4364198 0.8987704 0.04182665
vn 0.5648088 0.8234445 0.05413105
vn 0.6626397 0.746241 0.06350574
vn 0.4364197 0.8987705 0.04182738
vn -0.1355674 -0.449342 -0.8830137
vn -0.2170039 -0.4072728 -0.8871517
vn -0.2853755 -0.368474 -0.8847529
vn -0.1355675 -0.4493423 -0.8830135
vn -0.5497314 -0.3012081 0.7791464
vn -0.5497394 -0.3012125 0.779139
vn 0.7911354 0.6069235 0.07582013
vn 0.791136 0.6069232 0.07581776
vn -0.3917405 -0.3012091 -0.8693748
vn -0.3917454 -0.3012141 -0.8693708
vn 0.7478862 -0.4964446 0.4406914
vn 0.7292467 -0.4685032 0.4987022
vn 0.7076358 -0.4388582 0.5537645
vn 0.747886 -0.4964448 0.4406915
vn 0.1671587 0.9336342 -0.3168361
vn 0.2124309 0.8903635 -0.4026487
vn 0.2543763 0.8383435 -0.4821543
vn 0.167161 0.9336342 -0.316835
vn -0.8973899 -0.4235983 -0.123515
vn -0.9157598 -0.3937129 -0.0798384
vn -0.9306337 -0.363989 -0.03785448
vn -0.8973887 -0.4236011 -0.1235138
vn 0.6564903 -0.3754261 0.6542749
vn 0.6564938 -0.3754238 0.6542728
vn 0.3255877 0.7163412 -0.6171288
vn 0.325594 0.7163412 -0.6171254
vn -0.9513388 -0.3053731 0.04125324
vn -0.9513389 -0.3053725 0.04125271
vn 0.1003216 -0.5207274 -0.847808
vn 0.1692784 -0.4916098 -0.8542041
vn 0.2319502 -0.4623332 -0.8558312
vn 0.1003217 -0.5207277 -0.8478078
vn -0.242499 0.9695805 -0.03328574
vn -0.3633479 0.9303177 -0.0498732
vn -0.470142 0.8802285 -0.06453141
vn -0.2424988 0.9695805 -0.0332862
vn 0.1429685 -0.4521248 0.8804221
vn 0.2049559 -0.4148651 0.8864987
vn 0.2589364 -0.3800519 0.8879821
vn 0.1429685 -0.4521247 0.8804221
vn 0.3402263 -0.4050381 -0.8486401
vn 0.3402227 -0.4050352 -0.848643
vn -0.6386837 0.7644594 -0.08766532
vn -0.6386834 0.7644594 -0.08766565
vn 0.347599 -0.3177459 0.8821634
vn 0.3475974 -0.3177432 0.8821651

vt 1.584354 0.0009990335
vt 1.940507 0.587487
vt 1.584354 0.587487
vt 1.940507 0.0009990335
vt -0.05949318 0.0009990335
vt 0.3613258 0.587487
vt -0.05949318 0.587487
vt 0.3613258 0.0009990335
vt 1.113504 0.587487
vt 1.113504 0.0009990335
vt 1.92401 1.173975
vt 1.252414 1.173975
vt 0.7516499 1.173975
vt -0.07598996 1.173975
vt 1.001985 1.173975
vt 0.3395066 1.999001
vt 0.5158446 1.999001
vt 0.5046431 1.999001
vt 0.6712966 1.999001
vt 0.0004995763 -0.2512252
vt 0.3048176 0.5471682
vt 0.0004995763 0.5471682
vt 0.3048176 -0.2512252
vt 0.3700571 -0.2512252
vt 0.6299429 0.5471682
vt 0.3700571 0.5471682
vt 0.6299429 -0.2512252
vt 0.6951823 -0.2512252
vt 0.9995004 0.5471682
vt 0.6951823 0.5471682
vt 0.9995004 -0.2512252
vt 0.2795607 1.232798
vt 0.1296503 1.232798
vt 0.5640112 1.232798
vt 0.4359886 1.232798
vt 0.9167974 1.232798
vt 0.7668869 1.232798
vt 0.0004995763 -0.2512252
vt 0.3048176 0.5471682
vt 0.0004995763 0.5471682
vt 0.3048176 -0.2512252
vt 0.3700571 -0.2512252
vt 0.6299429 0.5471682
vt 0.3700571 0.5471682
vt 0.6299429 -0.2512252
vt 0.6951823 -0.2512252
vt 0.9995004 0.5471682
vt 0.6951823 0.5471682
vt 0.9995004 -0.2512252
vt 0.2795607 1.232798
vt 0.1296503 1.232798
vt 0.5640112 1.232798
vt 0.4359886 1.232798
vt 0.9167974 1.232798
vt 0.7668869 1.232798
vt 0.0004995763 -0.2512252
vt 0.3048176 0.5471682
vt 0.0004995763 0.5471682
vt 0.3048176 -0.2512252
vt 0.3700571 -0.2512252
vt 0.6299429 0.5471682
vt 0.3700571 0.5471682
vt 0.6299429 -0.2512252
vt 0.6951823 -0.2512252
vt 0.9995004 0.5471682
vt 0.6951823 0.5471682
vt 0.9995004 -0.2512252
vt 0.2795607 1.232798
vt 0.1296503 1.232798
vt 0.5640112 1.232798
vt 0.4359886 1.232798
vt 0.9167974 1.232798
vt 0.7668869 1.232798
vt 0.0004995763 -0.2512252
vt 0.3048176 0.5471682
vt 0.0004995763 0.5471682
vt 0.3048176 -0.2512252
vt 0.3700571 -0.2512252
vt 0.6299429 0.5471682
vt 0.3700571 0.5471682
vt 0.6299429 -0.2512252
vt 0.6951823 -0.2512252
vt 0.9995004 0.5471682
vt 0.6951823 0.5471682
vt 0.9995004 -0.2512252
vt 0.2795607 1.232798
vt 0.1296503 1.232798
vt 0.5640112 1.232798
vt 0.4359886 1.232798
vt 0.9167974 1.232798
vt 0.7668869 1.232798
vt 0.0004995763 -0.2512252
vt 0.3048176 0.5471682
vt 0.0004995763 0.5471682
vt 0.3048176 -0.2512252
vt 0.3700571 -0.2512252
vt 0.6299429 0.5471682
vt 0.3700571 0.5471682
vt 0.6299429 -0.2512252
vt 0.6951823 -0.2512252
vt 0.9995004 0.5471682
vt 0.6951823 0.5471682
vt 0.9995004 -0.2512252
vt 0.2795607 1.232798
vt 0.1296503 1.232798
vt 0.5640112 1.232798
vt 0.4359886 1.232798
vt 0.9167974 1.232798
vt 0.7668869 1.232798
vt 0.0004995763 -0.2512252
vt 0.3048176 0.5471682
vt 0.0004995763 0.5471682
vt 0.3048176 -0.2512252
vt 0.3700571 -0.2512252
vt 0.6299429 0.5471682
vt 0.3700571 0.5471682
vt 0.6299429 -0.2512252
vt 0.6951823 -0.2512252
vt 0.9995004 0.5471682
vt 0.6951823 0.5471682
vt 0.9995004 -0.2512252
vt 0.2795607 1.232798
vt 0.1296503 1.232798
vt 0.5640112 1.232798
vt 0.4359886 1.232798
vt 0.9167974 1.232798
vt 0.7668869 1.232798

usemtl sn03_40_sn3tr.JPG
usemap sn03_40_sn3tr.JPG
f 3/3/3 1/1/1 2/2/2
f 2/2/2 1/1/1 4/4/4
f 7/7/7 5/5/5 6/6/6
f 6/6/6 5/5/5 8/8/8
f 6/6/6 8/8/8 9/9/9
f 9/9/9 8/8/8 10/10/10
f 9/9/9 10/10/10 3/3/3
f 3/3/3 10/10/10 1/1/1
f 12/12/12 3/3/3 11/11/11
f 11/11/11 3/3/3 2/2/2
f 14/14/14 7/7/7 13/13/13
f 13/13/13 7/7/7 6/6/6
f 13/13/13 6/6/6 15/15/15
f 15/15/15 6/6/6 9/9/9
f 15/15/15 9/9/9 12/12/12
f 12/12/12 9/9/9 3/3/3
f 16/16/16 12/12/12 14/14/14
f 12/12/12 16/16/16 17/17/17
f 18/18/18 14/14/14 13/13/13
f 14/14/14 18/18/18 16/16/16
f 19/19/19 13/13/13 15/15/15
f 13/13/13 19/19/19 18/18/18
f 17/17/17 15/15/15 12/12/12
f 15/15/15 17/17/17 19/19/19
f 22/22/22 20/20/20 21/21/21
f 21/21/21 20/20/20 23/23/23
f 26/26/26 24/24/24 25/25/25
f 25/25/25 24/24/24 27/27/27
f 30/30/30 28/28/28 29/29/29
f 29/29/29 28/28/28 31/31/31
f 33/33/33 22/22/22 32/32/32
f 32/32/32 22/22/22 21/21/21
f 35/35/35 26/26/26 34/34/34
f 34/34/34 26/26/26 25/25/25
f 37/37/37 30/30/30 36/36/36
f 36/36/36 30/30/30 29/29/29
f 40/40/40 38/38/38 39/39/39
f 39/39/39 38/38/38 41/41/41
f 44/44/44 42/42/42 43/43/43
f 43/43/43 42/42/42 45/45/45
f 48/48/48 46/46/46 47/47/47
f 47/47/47 46/46/46 49/49/49
f 51/51/51 40/40/40 50/50/50
f 50/50/50 40/40/40 39/39/39
f 53/53/53 44/44/44 52/52/52
f 52/52/52 44/44/44 43/43/43
f 55/55/55 48/48/48 54/54/54
f 54/54/54 48/48/48 47/47/47
f 58/58/58 56/56/56 57/57/57
f 57/57/57 56/56/56 59/59/59
f 62/62/62 60/60/60 61/61/61
f 61/61/61 60/60/60 63/63/63
f 66/66/66 64/64/64 65/65/65
f 65/65/65 64/64/64 67/67/67
f 69/69/69 58/58/58 68/68/68
f 68/68/68 58/58/58 57/57/57
f 71/71/71 62/62/62 70/70/70
f 70/70/70 62/62/62 61/61/61
f 73/73/73 66/66/66 72/72/72
f 72/72/72 66/66/66 65/65/65
f 76/76/76 74/74/74 75/75/75
f 75/75/75 74/74/74 77/77/77
f 80/80/80 78/78/78 79/79/79
f 79/79/79 78/78/78 81/81/81
f 84/84/84 82/82/82 83/83/83
f 83/83/83 82/82/82 85/85/85
f 87/87/87 76/76/76 86/86/86
f 86/86/86 76/76/76 75/75/75
f 89/89/89 80/80/80 88/88/88
f 88/88/88 80/80/80 79/79/79
f 91/91/91 84/84/84 90/90/90
f 90/90/90 84/84/84 83/83/83
f 94/94/94 92/92/92 93/93/93
f 93/93/93 92/92/92 95/95/95
f 98/98/98 96/96/96 97/97/97
f 97/97/97 96/96/96 99/99/99
f 102/102/102 100/100/100 101/101/101
f 101/101/101 100/100/100 103/103/103
f 105/105/105 94/94/94 104/104/104
f 104/104/104 94/94/94 93/93/93
f 107/107/107 98/98/98 106/106/106
f 106/106/106 98/98/98 97/97/97
f 109/109/109 102/102/102 108/108/108
f 108/108/108 102/102/102 101/101/101
f 112/112/112 110/110/110 111/111/111
f 111/111/111 110/110/110 113/113/113
f 116/116/116 114/114/114 115/115/115
f 115/115/115 114/114/114 117/117/117
f 120/120/120 118/118/118 119/119/119
f 119/119/119 118/118/118 121/121/121
f 123/123/123 112/112/112 122/122/122
f 122/122/122 112/112/112 111/111/111
f 125/125/125 116/116/116 124/124/124
f 124/124/124 116/116/116 115/115/115
f 127/127/127 120/120/120 126/126/126
f 126/126/126 120/120/120 119/119/119
