mtllib ./Object12.mtl
g Object12
v -2.69397 -21.27866 3.000061
v -19.78979 -21.27866 34.89972
v -19.25369 -21.27866 3.000122
v -2.69397 -21.27866 48.11298
v 14.40186 -21.27866 34.89972
v 13.86572 -21.27866 3.000122
v 20.37451 -21.27866 -34.89978
v 3.051758E-05 -21.27866 -48.11304
v -20.37445 -21.27866 -34.89978
v -19.25369 -21.27866 3.000122
v -19.78983 0.0002746582 34.89972
v -19.25363 0.0002746582 3.000061
v -19.78979 -21.27866 34.89972
v -19.78979 -21.27866 34.89972
v -2.69397 0.0002746582 48.11298
v -19.78983 0.0002746582 34.89972
v -2.69397 -21.27866 48.11298
v 14.40189 0.0002746582 34.89966
v 14.40186 -21.27866 34.89972
v 14.40186 -21.27866 34.89972
v 13.86569 0.0002746582 3.000122
v 14.40189 0.0002746582 34.89966
v 13.86572 -21.27866 3.000122
v 20.37451 0.0002746582 -34.89978
v 20.37451 -21.27866 -34.89978
v 20.37451 -21.27866 -34.89978
v 3.051758E-05 0.0002746582 -48.11304
v 20.37451 0.0002746582 -34.89978
v 3.051758E-05 -21.27866 -48.11304
v -20.37445 0.0002746582 -34.89978
v -20.37445 -21.27866 -34.89978
v -20.37445 -21.27866 -34.89978
v -20.37445 0.0002746582 -34.89978
v -12.05966 21.27921 20.36987
v -11.75674 21.27921 2.347534
v -2.401001 21.27921 27.83502
v -12.05966 21.27921 20.36987
v 7.25766 21.27921 20.36987
v 6.954773 21.27921 2.347534
v 7.25766 21.27921 20.36987
v 10.63205 21.27921 -19.06482
v -0.8789368 21.27921 -26.52997
v 10.63205 21.27921 -19.06482
v -12.38998 21.27921 -19.06482
v -12.38998 21.27921 -19.06482
v -2.40097 21.27921 2.347534
v -11.75674 21.27921 2.347534
v -12.05966 21.27921 20.36987
v -2.401001 21.27921 27.83502
v 7.25766 21.27921 20.36987
v 6.954773 21.27921 2.347534
v 10.63205 21.27921 -19.06482
v -0.8789368 21.27921 -26.52997
v -12.38998 21.27921 -19.06482

vn 0 -1 0
vn 0 -1 0
vn 0 -1 0
vn 0 -1 0
vn 0 -1 0
vn 0 -1 0
vn 0 -0.9999999 0
vn 0 -1 0
vn 0 -1 0
vn -0.9999999 1.5368E-06 0.000476523
vn -0.9930559 0.116453 -0.01669111
vn -0.9876524 0.1563394 0.01003756
vn -0.9998589 -1.432861E-06 -0.01680356
vn -0.6115297 -4.385184E-07 0.7912216
vn -0.05525407 0.4007066 0.9145387
vn -0.5544739 0.4217767 0.7174002
vn 0.2494856 5.686606E-07 0.9683785
vn 0.593477 0.2411908 0.7678621
vn 0.61153 1.393887E-06 0.7912213
vn 0.9998588 -2.465475E-08 -0.01680548
vn 0.9852477 0.1528074 0.0770503
vn 0.9808521 0.1940547 -0.01648641
vn 0.9933515 9.229732E-07 0.1151213
vn 0.9798287 0.1077964 0.1682727
vn 0.9855717 0 0.1692584
vn 0.5441151 0 -0.8390106
vn 0.04592467 0.4210369 -0.9058802
vn 0.4801809 0.4703163 -0.7404248
vn -0.2112927 0 -0.9774228
vn -0.5244807 0.2662098 -0.808735
vn -0.5441151 0 -0.8390106
vn -0.999563 1.477518E-06 0.02955944
vn -0.9771478 0.210587 0.02889746
vn -0.9432091 0.3318211 -0.01585388
vn -0.9428579 0.3327253 0.01769223
vn -0.2534794 0.6691709 0.6985402
vn -0.4863101 0.6063039 0.6292043
vn 0.4902628 0.5977304 0.634319
vn 0.950075 0.3097233 0.03780092
vn 0.9511176 0.3084152 -0.01598468
vn 0.9372343 0.3093295 0.1609576
vn 0.2077886 0.7007815 -0.6824436
vn 0.4097987 0.6578559 -0.6318945
vn -0.4189896 0.6379974 -0.6460704
vn -0.942541 0.3329255 0.02787432
vn 0 0.9999999 0
vn 0 1 0
vn 0 1 0
vn 0 1 0
vn 0 1 0
vn 0 1 0
vn 0 1 0
vn 0 1 0
vn 0 1 0

vt 0.4602131 0.5230715
vt 0.2077304 0.7683872
vt 0.2156485 0.5230714
vt 0.460213 0.8700004
vt 0.7126957 0.7683873
vt 0.7047777 0.5230715
vt 0.8009039 0.2316128
vt 0.5000001 0.1299997
vt 0.1990961 0.2316127
vt 0.5230714 0.2586954
vt 0.7683872 0.5
vt 0.5230714 0.5
vt 0.7683872 0.2586954
vt 0.2077304 0.2586954
vt 0.460213 0.5
vt 0.2077304 0.5
vt 0.460213 0.2586954
vt 0.7126957 0.5
vt 0.7126957 0.2586954
vt 0.2316127 0.2586954
vt 0.4769285 0.5
vt 0.2316127 0.5
vt 0.4769285 0.2586954
vt 0.7683872 0.5
vt 0.7683872 0.2586954
vt 0.1990961 0.2586954
vt 0.5 0.5
vt 0.1990961 0.5
vt 0.5 0.2586954
vt 0.8009039 0.5
vt 0.8009039 0.2586954
vt 0.2316127 0.2586954
vt 0.2316127 0.5
vt 0.6566495 0.7413046
vt 0.5180531 0.7413046
vt 0.46454 0.7413046
vt 0.3218945 0.7413046
vt 0.6071856 0.7413046
vt 0.4819469 0.7413046
vt 0.3433504 0.7413046
vt 0.6466128 0.7413046
vt 0.5129815 0.7413046
vt 0.3429793 0.7413046
vt 0.6829836 0.7413046
vt 0.3533871 0.7413046
vt 0.5354599 0.5180531
vt 0.673632 0.5180531
vt 0.6781055 0.6566495
vt 0.53546 0.714058
vt 0.3928144 0.6566496
vt 0.3972878 0.5180531
vt 0.3429793 0.3533872
vt 0.5129815 0.2959786
vt 0.6829836 0.3533871

usemtl sn03_03_sn308.JPG
usemap sn03_03_sn308.JPG
f 3/3/3 1/1/1 2/2/2
f 2/2/2 1/1/1 4/4/4
f 4/4/4 1/1/1 5/5/5
f 5/5/5 1/1/1 6/6/6
f 6/6/6 1/1/1 7/7/7
f 7/7/7 1/1/1 8/8/8
f 8/8/8 1/1/1 9/9/9
f 9/9/9 1/1/1 3/3/3
f 12/12/12 10/10/10 11/11/11
f 11/11/11 10/10/10 13/13/13
f 16/16/16 14/14/14 15/15/15
f 15/15/15 14/14/14 17/17/17
f 15/15/15 17/17/17 18/18/18
f 18/18/18 17/17/17 19/19/19
f 22/22/22 20/20/20 21/21/21
f 21/21/21 20/20/20 23/23/23
f 21/21/21 23/23/23 24/24/24
f 24/24/24 23/23/23 25/25/25
f 28/28/28 26/26/26 27/27/27
f 27/27/27 26/26/26 29/29/29
f 27/27/27 29/29/29 30/30/30
f 30/30/30 29/29/29 31/31/31
f 33/33/33 32/32/32 12/12/12
f 12/12/12 32/32/32 10/10/10
f 35/35/35 12/12/12 34/34/34
f 34/34/34 12/12/12 11/11/11
f 37/37/37 16/16/16 36/36/36
f 36/36/36 16/16/16 15/15/15
f 36/36/36 15/15/15 38/38/38
f 38/38/38 15/15/15 18/18/18
f 40/40/40 22/22/22 39/39/39
f 39/39/39 22/22/22 21/21/21
f 39/39/39 21/21/21 41/41/41
f 41/41/41 21/21/21 24/24/24
f 43/43/43 28/28/28 42/42/42
f 42/42/42 28/28/28 27/27/27
f 42/42/42 27/27/27 44/44/44
f 44/44/44 27/27/27 30/30/30
f 45/45/45 33/33/33 35/35/35
f 35/35/35 33/33/33 12/12/12
f 48/48/48 46/46/46 47/47/47
f 49/49/49 46/46/46 48/48/48
f 50/50/50 46/46/46 49/49/49
f 51/51/51 46/46/46 50/50/50
f 52/52/52 46/46/46 51/51/51
f 53/53/53 46/46/46 52/52/52
f 54/54/54 46/46/46 53/53/53
f 47/47/47 46/46/46 54/54/54
