mtllib ./Object10.mtl
g Object10
v 62.83372 0.0002726316 -14.41259
v 62.8337 70.00027 -14.41257
v 68.5462 73.64948 -22.29972
v 68.54622 0.0002732277 -22.29975
v 62.8337 70.00027 -14.41257
v -28.93668 70.00027 -54.22583
v -27.91404 73.64948 -63.50684
v 68.5462 73.64948 -22.29972
v -28.93668 70.00027 -54.22583
v -28.9367 0.0002715588 -54.22581
v -27.91396 0.000272274 -63.50675
v -27.91404 73.64948 -63.50684
v -38.4127 0.0002677441 -57.6846
v -38.4127 80.08437 -57.6846
v -35.04521 80.08437 -66.26878
v -35.04521 73.66135 -66.26878
v -38.4127 80.08437 -57.6846
v 72.3097 80.08442 -10.95377
v 75.67725 80.08442 -19.53785
v 75.67725 80.08442 -19.53785
v -35.04521 80.08437 -66.26878
v 72.3097 80.08442 -10.95377
v 72.30975 0.0002725124 -10.95382
v 75.6773 0.0002732277 -19.53789
v 75.67728 74.03262 -19.53787
v 75.67728 74.03262 -19.53787
v 75.6773 0.0002732277 -19.53789
v 68.54622 0.0002732277 -22.29975
v 68.5462 73.64948 -22.29972
v -35.04521 80.08437 -66.26878
v 75.67725 80.08442 -19.53785
v 68.5462 73.64948 -22.29972
v -27.91404 73.64948 -63.50684
v -35.04521 73.66135 -66.26878
v -35.04515 0.000272274 -66.26868
v -27.91404 73.64948 -63.50684
v -27.91396 0.000272274 -63.50675
v -61.84285 0.0002728701 21.66572
v -61.84283 70.00027 21.6657
v -67.38786 73.64947 29.15908
v -67.38789 0.0002509356 29.1591
v -61.84283 70.00027 21.6657
v 30.03993 70.00027 61.22089
v 29.19032 73.59388 70.11021
v -67.38786 73.64947 29.15908
v 30.03993 70.00027 61.22089
v 30.03995 0.0002728701 61.22086
v 29.18468 0.0002530813 70.10802
v 29.19032 73.59388 70.11021
v 39.51595 0.0002690554 64.67966
v 39.51603 80.08437 64.67974
v 36.31585 80.08436 72.86996
v 36.31585 73.58752 72.86996
v 39.51603 80.08437 64.67974
v -71.31885 80.08442 18.20693
v -74.51901 80.08439 26.39712
v -74.51901 80.08439 26.39712
v 36.31585 80.08436 72.86996
v -71.31885 80.08442 18.20693
v -71.31889 0.0002728701 18.20697
v -74.51905 0.0002514124 26.39716
v -74.51903 73.9893 26.39714
v -74.51903 73.9893 26.39714
v -74.51905 0.0002514124 26.39716
v -67.38789 0.0002509356 29.1591
v -67.38786 73.64947 29.15908
v 36.31585 80.08436 72.86996
v -74.51901 80.08439 26.39712
v -67.38786 73.64947 29.15908
v 29.19032 73.59388 70.11021
v -35.04521 73.66135 -66.26878
v -35.04515 0.000272274 -66.26868
v 75.67728 74.03262 -19.53787
v 75.67725 80.08442 -19.53785
v -74.51903 73.9893 26.39714
v -74.51901 80.08439 26.39712
v 36.31585 73.58752 72.86996
v 29.19032 73.59388 70.11021
v 36.31578 0.0002526045 72.86985
v 29.19032 73.59388 70.11021
v 29.18468 0.0002530813 70.10802

vn -0.9845301 -8.310381E-08 0.1752156
vn -0.98453 -8.100624E-08 0.1752156
vn -0.9845301 -8.310381E-08 0.1752156
vn -0.98453 -8.509745E-08 0.1752156
vn -0.142176 -0.9297662 -0.3395892
vn -0.1452079 -0.9255617 -0.349643
vn -0.142176 -0.9297662 -0.3395892
vn -0.1394211 -0.9334625 -0.3304684
vn 0.7691988 5.06107E-07 -0.6390095
vn 0.7692027 -2.891915E-07 -0.6390049
vn 0.7691988 5.06107E-07 -0.6390095
vn 0.7691951 1.261996E-06 -0.6390138
vn -0.9093355 -5.979363E-07 0.4160635
vn -0.9093336 0 0.4160679
vn -0.9093335 0 0.4160678
vn -0.9093375 -1.195877E-06 0.4160592
vn -3.464773E-07 1 1.585294E-07
vn -3.464783E-07 1 1.585276E-07
vn -3.464783E-07 1 1.585276E-07
vn -3.464764E-07 1 1.585312E-07
vn -3.464764E-07 1 1.585312E-07
vn 0.9093381 3.408526E-07 -0.4160578
vn 0.9093378 3.407647E-07 -0.4160583
vn 0.9093381 2.656548E-07 -0.4160578
vn 0.9093383 3.409405E-07 -0.4160572
vn -0.4200047 3.759186E-07 -0.907522
vn -0.4200046 3.759299E-07 -0.907522
vn -0.4200047 3.759186E-07 -0.907522
vn -0.4200047 3.759072E-07 -0.907522
vn -0.3918147 -1.65079E-06 -0.9200442
vn -0.3940481 -0.03345963 -0.9184805
vn -0.3917609 -1.511523E-06 -0.920067
vn -0.3905682 0.03786559 -0.9197949
vn -0.4199985 0 -0.9075247
vn -0.4200001 -8.769702E-07 -0.907524
vn -0.4200001 -8.769702E-07 -0.907524
vn -0.4200016 -7.010049E-07 -0.9075234
vn 0.9862709 -8.10823E-08 -0.1651351
vn 0.9862708 -8.454798E-08 -0.1651351
vn 0.9862709 -8.10823E-08 -0.1651351
vn 0.986271 -7.778834E-08 -0.1651352
vn 0.147864 -0.9245842 0.3511133
vn 0.1503527 -0.9210796 0.3591745
vn 0.147864 -0.9245842 0.3511133
vn 0.1456116 -0.9276748 0.3438264
vn -0.7600947 4.041566E-05 0.6498122
vn -0.760302 -2.670257E-07 0.6495697
vn -0.7600947 4.041566E-05 0.6498122
vn -0.7598976 7.910509E-05 0.6500428
vn 0.9087702 -1.298988E-06 -0.4172967
vn 0.9087707 -1.357461E-06 -0.4172959
vn 0.9087702 -1.255599E-06 -0.4172966
vn 0.9708132 -1.613021E-06 0.239837
vn 1.316673E-06 1 2.259641E-06
vn 1.717094E-06 1 3.030525E-06
vn 1.717094E-06 1 3.030525E-06
vn 9.162519E-07 1 1.48876E-06
vn 9.162519E-07 1 1.48876E-06
vn -0.9087701 2.968041E-07 0.4172968
vn -0.9087699 3.417138E-07 0.4172975
vn -0.9087701 2.663101E-07 0.4172968
vn -0.9087705 2.518946E-07 0.4172962
vn 0.4199986 3.777161E-07 0.9075247
vn 0.4199985 3.761511E-07 0.9075248
vn 0.4199986 3.777161E-07 0.9075247
vn 0.4199986 3.792883E-07 0.9075247
vn 0.3940457 -1.010302E-05 0.9190909
vn 0.3961198 -0.03081897 0.9176813
vn 0.3939928 -9.99569E-06 0.9191135
vn 0.3909341 0.0370625 0.9196721
vn -0.4199985 -1.052907E-06 -0.9075247
vn -0.9093379 -1.300155E-06 0.4160584
vn -0.4200048 4.598789E-06 -0.9075217
vn 0.9093378 2.255856E-06 -0.4160583
vn 0.4199987 4.114064E-06 0.9075247
vn -0.9087702 1.067639E-06 0.4172967
vn 0.4200005 0 0.9075239
vn 0.4200005 0 0.9075239
vn 0.8161035 -1.194986E-06 0.5779057
vn 0.4200043 -6.038576E-07 0.9075221
vn 0.420008 -1.728443E-07 0.9075203

vt 0.1402089 0.0004995465
vt 0.1402091 0.9647512
vt 0.01287353 1.010273
vt 0.01287198 0.0004995465
vt 0.3690605 0.9278467
vt 2.054437 0.917181
vt 2.095731 0.8104904
vt 0.3268717 0.8116474
vt 0.01506316 0.9654947
vt 0.01506313 0.0004994869
vt 0.143316 0.0004995167
vt 0.1433179 1.011017
vt 0.1430335 0.0004994571
vt 0.1430315 1.091288
vt 0.01589173 1.091288
vt 0.01589173 1.011165
vt 2.22075 0.9576595
vt 0.2231832 0.9802819
vt 0.222748 0.8688368
vt 0.222748 0.8442057
vt 2.220315 0.8462145
vt 0.01237596 1.090545
vt 0.01237741 0.0004995465
vt 0.1416544 0.0004995465
vt 0.141654 1.009478
vt 0.141654 1.009478
vt 0.1416544 0.0004995465
vt 0.01287198 0.0004995465
vt 0.01287353 1.010273
vt 2.226655 0.9540901
vt 0.2098843 0.9604337
vt 0.3369196 0.8426251
vt 2.09962 0.8362823
vt 2.226655 0.8263334
vt 0.01589119 0.0004995167
vt 0.1433179 1.011017
vt 0.143316 0.0004995167
vt 0.01025388 0.0004998147
vt 0.01025417 0.9605623
vt 0.1396364 1.006084
vt 0.1396345 0.0004995465
vt 0.3817929 0.8384697
vt 2.043951 0.8385909
vt 2.083339 0.9104579
vt 0.3415509 0.9198456
vt 0.01527685 0.9606639
vt 0.01527661 0.0004998147
vt 0.1385924 0.0004995763
vt 0.1387279 1.005492
vt 0.01687551 0.0004997551
vt 0.01687381 1.086457
vt 0.1382033 1.086457
vt 0.1382032 1.005413
vt 2.192721 0.8945717
vt 0.2119709 0.9366637
vt 0.2115356 0.8600421
vt 0.2115356 0.835411
vt 2.192285 0.8179502
vt 0.01243407 1.086356
vt 0.01243532 0.0004998147
vt 0.1408075 0.0004995465
vt 0.1408071 1.010323
vt 0.01061395 1.007025
vt 0.01061437 0.0004995465
vt 0.1396345 0.0004995465
vt 0.1396364 1.006084
vt 2.207541 0.9773301
vt 0.2100087 0.9836738
vt 0.337044 0.8313264
vt 2.080506 0.8249836
vt 0.01589173 1.011165
vt 0.01589119 0.0004995167
vt 0.2098843 0.8409603
vt 0.1416539 1.090545
vt 0.2100087 0.8285022
vt 0.140807 1.086356
vt 2.207541 0.8193527
vt 2.080707 0.8222231
vt 0.1382027 0.0004995763
vt 0.01553947 1.005492
vt 0.01540405 0.0004995763

usemtl sn03_18_sn314.jpg
usemap sn03_18_sn314.jpg
f 3/3/3 1/1/1 2/2/2
f 4/4/4 1/1/1 3/3/3
f 7/7/7 5/5/5 6/6/6
f 8/8/8 5/5/5 7/7/7
f 11/11/11 9/9/9 10/10/10
f 12/12/12 9/9/9 11/11/11
f 15/15/15 13/13/13 14/14/14
f 16/16/16 13/13/13 15/15/15
f 19/19/19 17/17/17 18/18/18
f 21/21/21 17/17/17 20/20/20
f 24/24/24 22/22/22 23/23/23
f 25/25/25 22/22/22 24/24/24
f 28/28/28 26/26/26 27/27/27
f 29/29/29 26/26/26 28/28/28
f 32/32/32 30/30/30 31/31/31
f 33/33/33 30/30/30 32/32/32
f 33/33/33 34/34/34 30/30/30
f 37/37/37 35/35/35 36/36/36
f 40/40/40 38/38/38 39/39/39
f 41/41/41 38/38/38 40/40/40
f 44/44/44 42/42/42 43/43/43
f 45/45/45 42/42/42 44/44/44
f 48/48/48 46/46/46 47/47/47
f 49/49/49 46/46/46 48/48/48
f 52/52/52 50/50/50 51/51/51
f 53/53/53 50/50/50 52/52/52
f 56/56/56 54/54/54 55/55/55
f 58/58/58 54/54/54 57/57/57
f 61/61/61 59/59/59 60/60/60
f 62/62/62 59/59/59 61/61/61
f 65/65/65 63/63/63 64/64/64
f 66/66/66 63/63/63 65/65/65
f 69/69/69 67/67/67 68/68/68
f 70/70/70 67/67/67 69/69/69
f 36/36/36 35/35/35 71/71/71
f 72/72/72 13/13/13 16/16/16
f 32/32/32 31/31/31 73/73/73
f 74/74/74 22/22/22 25/25/25
f 69/69/69 68/68/68 75/75/75
f 76/76/76 59/59/59 62/62/62
f 78/78/78 77/77/77 67/67/67
f 81/81/81 79/79/79 80/80/80
f 80/80/80 79/79/79 53/53/53
f 79/79/79 50/50/50 53/53/53
