mtllib ./Object59.mtl
g Object59
v 27.11914 70.08719 -664.3418
v 80.02731 53.15033 -652.6397
v 28.18587 51.56937 -710.5388
v -33.48979 63.9397 -670.6783
v 22.15096 60.83334 -608.6334
v -62.96786 60.51178 -742.8425
v -72.83582 45.48203 -670.1609
v 6.923903 44.79065 -720.6028
v -29.31617 37.79703 -808.9236
v -122.8479 45.61389 -757.5153
v 26.82238 58.05896 -653.8862
v 33.28352 42.63248 -584.287
v 95.05991 33.05029 -685.6431
v 8.646662 53.44302 -742.3387
v -52.86333 63.59515 -640.903
v 31.41349 88.72226 -768.1068
v 44.08545 79.81808 -713.9537
v 93.61273 66.9249 -780.7668
v 28.83658 74.3544 -821.0402
v -23.45075 83.94278 -753.4994
v 7.023274 86.87955 -678.9016
v 19.22647 66.15665 -646.2574
v 42.02002 79.34622 -692.9559
v -4.942942 80.90524 -720.8392
v -27.99889 67.38956 -674.3108
v -83.65501 63.46689 -739.8596
v -52.95771 59.25378 -669.3389
v -1.192439 54.03995 -741.9006
v -74.87289 45.81085 -795.8232
v -121.9893 51.63364 -722.6756
v -36.53005 102.1883 -675.1478
v -44.43927 88.50357 -634.5258
v 16.08458 85.28549 -665.1066
v -30.0314 85.40262 -721.7353
v -82.19769 86.07523 -688.3479
v 37.80893 95.57169 -763.7257
v 31.82684 91.21848 -728.5672
v 69.86775 92.25461 -762.4566
v 44.57978 85.84579 -803.2064
v -0.1116132 92.72043 -773.8168
v -70.735 48.22208 -721.2943
v -34.66768 41.16287 -634.2011
v 36.61065 44.496 -744.5836
v -78.58228 20.42233 -787.4886
v -140.0105 38.43558 -681.5095
v -10.95959 96.8956 -771.6884
v 6.188802 94.57156 -704.3807
v 47.29412 83.79831 -782.0995
v -20.70504 76.64066 -830.9501
v -63.88348 76.88193 -749.4364
v -19.27828 104.7482 -751.9579
v 9.218516 103.2603 -718.6268
v 13.74411 90.15292 -777.2749
v -38.82058 85.14249 -781.6332
v -41.91749 92.37564 -722.2608
v -20.05002 91.31009 -692.7266
v 19.85224 76.68863 -622.4318
v 27.55098 66.79312 -726.056
v -75.83578 68.4429 -739.9532
v -84.23647 77.92313 -635.9614
v 21.68227 48.52512 -677.2068
v -28.19008 29.07184 -602.4207
v 124.3154 30.80963 -637.41
v 93.46282 40.19214 -773.3046
v -59.28941 39.23746 -738.1887

vn -0.134528 0.9906802 -0.02133216
vn -0.2660005 0.9458309 -0.1861389
vn -0.3660953 0.919493 0.1432021
vn -0.007890888 0.9913029 0.1313627
vn 0.07818908 0.9833182 -0.1642306
vn -0.04959206 0.9985958 0.0186341
vn 0.176824 0.9793927 -0.09758648
vn -0.1372453 0.9764435 -0.1664987
vn -0.2667628 0.9548812 0.1305353
vn 0.05692325 0.9698852 0.2368176
vn -0.1200479 0.9767082 -0.1778476
vn -0.03593187 0.9493393 -0.3121922
vn -0.230569 0.9373933 -0.2610208
vn -0.1840341 0.980499 -0.06894097
vn -0.01262834 0.9953656 -0.09533009
vn -0.1374782 0.9894142 -0.04646794
vn -0.02799413 0.9779363 -0.2070191
vn -0.2811161 0.945402 -0.1648905
vn -0.2466659 0.9611672 0.1237481
vn 0.03887575 0.9946447 0.09576318
vn 0.2367378 0.9685021 -0.07719365
vn 0.3926379 0.8440301 -0.3653065
vn -0.09171663 0.9618891 -0.2575992
vn 0.0673317 0.978134 0.196775
vn 0.519432 0.8480103 0.1052098
vn -0.04834184 0.9943978 0.09399948
vn 0.0532742 0.9979123 -0.03650816
vn -0.1653514 0.9862247 0.004451111
vn -0.1797738 0.9483221 0.2614698
vn 0.1802336 0.94842 0.2607976
vn -0.03484821 0.9993327 0.01093192
vn 0.268784 0.9494267 -0.1623088
vn -0.195134 0.9528466 -0.2323923
vn -0.2970471 0.9411156 0.1614451
vn 0.1495077 0.9470635 0.2841097
vn -0.06238262 0.9974746 0.03395668
vn 0.09702761 0.9926051 -0.07294349
vn -0.1107473 0.9930425 -0.04001947
vn -0.1994561 0.9717574 0.1261145
vn -0.02255627 0.995305 0.09412259
vn -0.0316561 0.9908391 0.1312845
vn 0.06359427 0.9965632 -0.05308078
vn -0.102378 0.9907666 0.088884
vn -0.1564535 0.9165174 0.3681282
vn 0.06753589 0.9796441 0.1890408
vn -0.02131034 0.9881304 0.1521322
vn 0.06716676 0.9977362 0.003364749
vn -0.2557585 0.9666208 -0.01522717
vn -0.1179697 0.9431877 0.3106125
vn 0.2162 0.9266284 0.3075994
vn -0.03638464 0.9748371 0.2199291
vn -0.02692903 0.9989477 -0.03712332
vn -0.3537012 0.9225713 0.1541353
vn -0.04396141 0.87335 0.4851055
vn 0.3285976 0.9063057 0.26577
vn -0.08405821 0.9955242 0.04319663
vn -0.04822982 0.9785069 -0.2004947
vn -0.3953422 0.9185272 -0.003511101
vn -0.1168389 0.9460841 0.3021151
vn 0.1477064 0.9862353 0.07431448
vn 0.04622561 0.9975123 -0.05321974
vn 0.1989483 0.9757493 -0.09128454
vn 0.02822305 0.9829296 -0.181804
vn -0.07223959 0.9971226 -0.02297609
vn 0.06453191 0.9943117 0.08473359

vt 0.5 0.5
vt 0.0004995465 0.0004997253
vt 0.9995002 0.0004994869
vt 0.9995004 0.9995003
vt 0.0004997849 0.9995005
vt 0.5 0.5
vt 0.0004995763 0.0004997253
vt 0.9995002 0.0004994869
vt 0.9995004 0.9995003
vt 0.0004997849 0.9995005
vt 0.5 0.5
vt 0.0004995465 0.0004997849
vt 0.9995002 0.0004995465
vt 0.9995004 0.9995002
vt 0.0004997849 0.9995005
vt 0.5 0.5
vt 0.0004995167 0.0004997551
vt 0.9995003 0.0004995167
vt 0.9995005 0.9995003
vt 0.0004997551 0.9995005
vt 0.5 0.5
vt 0.0004994869 0.0004997551
vt 0.9995003 0.0004995167
vt 0.9995005 0.9995003
vt 0.0004997253 0.9995005
vt 0.5 0.5
vt 0.0004995465 0.0004997253
vt 0.9995002 0.0004994869
vt 0.9995004 0.9995003
vt 0.0004997849 0.9995005
vt 0.5 0.5
vt 0.0004995763 0.0004997551
vt 0.9995002 0.0004994869
vt 0.9995004 0.9995003
vt 0.0004998147 0.9995005
vt 0.5 0.5
vt 0.0004995167 0.0004997551
vt 0.9995003 0.0004995167
vt 0.9995005 0.9995003
vt 0.0004997551 0.9995005
vt 0.5 0.5
vt 0.0004995167 0.0004997253
vt 0.9995003 0.0004994869
vt 0.9995005 0.9995003
vt 0.0004997551 0.9995005
vt 0.5 0.5
vt 0.0004994869 0.0004997253
vt 0.9995003 0.0004994869
vt 0.9995005 0.9995003
vt 0.0004997253 0.9995005
vt 0.5 0.5
vt 0.0004995465 0.0004997551
vt 0.9995002 0.0004995167
vt 0.9995004 0.9995003
vt 0.0004997849 0.9995005
vt 0.5 0.5
vt 0.0004994869 0.0004997551
vt 0.9995003 0.0004995167
vt 0.9995005 0.9995003
vt 0.0004997253 0.9995005
vt 0.5 0.5
vt 0.0004995465 0.0004997849
vt 0.9995002 0.0004995465
vt 0.9995004 0.9995002
vt 0.0004997849 0.9995005

usemtl sn03_39_kms03t01.JPG
usemap sn03_39_kms03t01.JPG
f 3/3/3 1/1/1 2/2/2
f 4/4/4 1/1/1 3/3/3
f 5/5/5 1/1/1 4/4/4
f 2/2/2 1/1/1 5/5/5
f 8/8/8 6/6/6 7/7/7
f 9/9/9 6/6/6 8/8/8
f 10/10/10 6/6/6 9/9/9
f 7/7/7 6/6/6 10/10/10
f 13/13/13 11/11/11 12/12/12
f 14/14/14 11/11/11 13/13/13
f 15/15/15 11/11/11 14/14/14
f 12/12/12 11/11/11 15/15/15
f 18/18/18 16/16/16 17/17/17
f 19/19/19 16/16/16 18/18/18
f 20/20/20 16/16/16 19/19/19
f 17/17/17 16/16/16 20/20/20
f 23/23/23 21/21/21 22/22/22
f 24/24/24 21/21/21 23/23/23
f 25/25/25 21/21/21 24/24/24
f 22/22/22 21/21/21 25/25/25
f 28/28/28 26/26/26 27/27/27
f 29/29/29 26/26/26 28/28/28
f 30/30/30 26/26/26 29/29/29
f 27/27/27 26/26/26 30/30/30
f 33/33/33 31/31/31 32/32/32
f 34/34/34 31/31/31 33/33/33
f 35/35/35 31/31/31 34/34/34
f 32/32/32 31/31/31 35/35/35
f 38/38/38 36/36/36 37/37/37
f 39/39/39 36/36/36 38/38/38
f 40/40/40 36/36/36 39/39/39
f 37/37/37 36/36/36 40/40/40
f 43/43/43 41/41/41 42/42/42
f 44/44/44 41/41/41 43/43/43
f 45/45/45 41/41/41 44/44/44
f 42/42/42 41/41/41 45/45/45
f 48/48/48 46/46/46 47/47/47
f 49/49/49 46/46/46 48/48/48
f 50/50/50 46/46/46 49/49/49
f 47/47/47 46/46/46 50/50/50
f 53/53/53 51/51/51 52/52/52
f 54/54/54 51/51/51 53/53/53
f 55/55/55 51/51/51 54/54/54
f 52/52/52 51/51/51 55/55/55
f 58/58/58 56/56/56 57/57/57
f 59/59/59 56/56/56 58/58/58
f 60/60/60 56/56/56 59/59/59
f 57/57/57 56/56/56 60/60/60
f 63/63/63 61/61/61 62/62/62
f 64/64/64 61/61/61 63/63/63
f 65/65/65 61/61/61 64/64/64
f 62/62/62 61/61/61 65/65/65
