mtllib ./Object57.mtl
g Object57
v 128.2223 28.98511 66.26586
v 133.5569 12.43921 33.01455
v 94.34299 25.14175 62.50374
v 118.0479 26.37201 105.0372
v 158.51 9.011932 73.4157
v 66.08568 9.800354 117.9218
v 111.766 -2.715912 130.4974
v 90.20764 13.34528 75.41628
v 30.00315 -2.546936 82.45164
v 49.94701 -15.93753 147.7143
v 132.3706 19.58575 67.6052
v 178.6033 12.94183 71.25093
v 121.8731 -2.27475 20.55292
v 74.66089 7.356995 69.50181
v 131.4205 23.06796 120.0345
v 61.50662 33.12054 55.42842
v 97.853 37.41217 53.1752
v 66.20568 8.934357 18.08768
v 32.74511 9.950836 54.91096
v 65.3326 36.14279 92.32295
v 111.7936 41.05072 77.34346
v 135.6686 26.85239 73.26234
v 107.3602 34.4902 53.42599
v 84.39993 31.96939 80.41046
v 112.6004 24.03442 100.398
v 65.27168 13.3197 128.8222
v 113.7474 16.89978 116.9805
v 73.8119 7.611115 75.84731
v 32.27237 -6.225861 117.1248
v 73.03372 3.762482 155.3418
v 108.0705 52.99457 105.5547
v 134.1919 44.83722 115.1912
v 121.6778 41.19226 73.07446
v 80.69536 34.94318 96.34989
v 96.12736 36.93781 133.4403
v 60.55976 41.76871 48.20512
v 82.60177 41.03723 55.9466
v 65.15814 40.02429 27.83589
v 37.1019 30.29388 39.56771
v 50.26657 37.37219 71.39156
v 80.33958 0.5978699 124.4192
v 140.1935 2.664246 110.9606
v 77.4781 21.99438 56.38012
v 37.5228 -23.15958 114.0367
v 98.2049 -23.11307 167.9209
v 50.06462 40.75729 78.54779
v 94.8554 45.24811 75.01591
v 50.97316 30.51483 40.17373
v 13.17843 18.19318 78.36676
v 60.17077 24.33871 115.0205
v 60.9851 48.86572 86.0062
v 85.37984 51.38937 71.44854
v 49.81129 35.31012 62.15237
v 41.74731 29.17621 95.36318
v 78.4493 40.41791 103.8606
v 99.67346 42.76816 93.12622
v 149.9283 37.83813 75.4288
v 85.88136 20.58072 59.11243
v 65.62749 17.72665 123.774
v 129.8677 34.64664 140.5831
v 118.1878 10.74194 64.57426
v 161.0021 15.77002 107.0589
v 156.2686 -24.10931 13.56379
v 65.66307 -23.08359 17.43838
v 70.41106 17.4678 110.8074
v 122.5552 39.75571 128.0713
v 148.6766 31.59839 137.7078
v 136.1625 27.95343 95.59105
v 95.18005 21.70435 118.8665
v 110.6121 23.69897 155.9569

vn -0.2730133 0.9563954 -0.1037868
vn -0.4801416 0.875338 0.05698603
vn -0.09167904 0.9743488 0.2055221
vn -0.06151077 0.967169 -0.2465777
vn -0.4099022 0.8296985 -0.3789205
vn 0.3251871 0.9427004 -0.07462698
vn 0.2294805 0.8931373 -0.3868393
vn 0.07018372 0.9973796 -0.01755614
vn 0.3831036 0.8951017 0.228089
vn 0.5901222 0.7961565 -0.1337568
vn -0.1441771 0.9690259 0.2005038
vn -0.295864 0.9532648 0.06124416
vn -0.2732406 0.9096439 0.3128701
vn -0.01973069 0.952243 0.3047032
vn -0.01324058 0.9963673 0.084124
vn 0.02033263 0.8689292 0.4945185
vn -0.160668 0.9303213 0.3296787
vn -0.1637276 0.7695749 0.6172097
vn 0.2031434 0.7496543 0.629882
vn 0.2402005 0.920494 0.3082118
vn 0.06226359 0.971306 -0.2295385
vn -0.262892 0.8424419 -0.4702974
vn -0.2394943 0.9600009 0.1450544
vn 0.3663002 0.9295102 0.04283887
vn 0.3156924 0.7967941 -0.5152257
vn 0.2182947 0.9610941 0.1692501
vn 0.0771459 0.9969385 0.01272722
vn 0.0779063 0.9516047 0.2972864
vn 0.3807995 0.8541441 0.3541605
vn 0.4576447 0.8850698 -0.08492845
vn 0.1177704 0.9837199 0.135739
vn -0.03931069 0.9569305 -0.2876435
vn -0.2300518 0.9324849 0.2784746
vn 0.2331811 0.8478974 0.4761266
vn 0.478313 0.8771541 -0.04263043
vn 0.1403377 0.974462 0.1752975
vn 0.03982787 0.9978716 -0.05163103
vn 0.03490001 0.9747127 0.2207195
vn 0.218904 0.9070731 0.3595822
vn 0.2244599 0.9648365 0.1367785
vn 0.4371578 0.8915918 -0.1181403
vn 0.2332658 0.9291028 -0.2869759
vn 0.3728814 0.9269366 -0.04180726
vn 0.6464593 0.7559422 0.1031594
vn 0.5177597 0.826423 -0.2212463
vn 0.2949516 0.9443015 0.1459394
vn 0.1308899 0.9913902 0.003645107
vn 0.03025545 0.9155604 0.401041
vn 0.4509403 0.8451397 0.2870399
vn 0.5124745 0.8504004 -0.1191176
vn 0.3706557 0.9119207 0.1761112
vn 0.05837896 0.9916012 0.1154082
vn 0.2079211 0.8178099 0.5366151
vn 0.6415678 0.7355302 0.2176835
vn 0.4796803 0.837383 -0.2621003
vn 0.1467166 0.9678382 0.2043611
vn -0.157006 0.9820359 0.1046632
vn 0.008494258 0.8303818 0.5571302
vn 0.4421237 0.8505561 0.2847473
vn 0.2353798 0.9682932 -0.08369413
vn -0.2867711 0.9185763 0.2719925
vn -0.3027546 0.9504745 0.07026973
vn -0.4449186 0.8588458 0.2538337
vn -0.2660152 0.8671144 0.4211278
vn -0.1106558 0.9528242 0.2826327
vn 0.1177704 0.98372 0.1357391
vn -0.03931038 0.9569307 -0.2876427
vn -0.2300511 0.9324852 0.2784743
vn 0.2331808 0.8478979 0.476126
vn 0.4783124 0.8771545 -0.04263002

vt 0.5 0.5
vt 0.0004995465 0.0004997253
vt 0.9995002 0.0004994869
vt 0.9995004 0.9995003
vt 0.0004997849 0.9995005
vt 0.5 0.5
vt 0.0004995763 0.0004997253
vt 0.9995002 0.0004994869
vt 0.9995004 0.9995003
vt 0.0004997849 0.9995005
vt 0.5 0.5
vt 0.0004995465 0.0004997849
vt 0.9995002 0.0004995465
vt 0.9995004 0.9995002
vt 0.0004997849 0.9995005
vt 0.5 0.5
vt 0.0004995167 0.0004997551
vt 0.9995003 0.0004995167
vt 0.9995005 0.9995003
vt 0.0004997551 0.9995005
vt 0.5 0.5
vt 0.0004994869 0.0004997551
vt 0.9995003 0.0004995167
vt 0.9995005 0.9995003
vt 0.0004997253 0.9995005
vt 0.5 0.5
vt 0.0004995465 0.0004997253
vt 0.9995002 0.0004994869
vt 0.9995004 0.9995003
vt 0.0004997849 0.9995005
vt 0.5 0.5
vt 0.0004995763 0.0004997551
vt 0.9995002 0.0004994869
vt 0.9995004 0.9995003
vt 0.0004998147 0.9995005
vt 0.5 0.5
vt 0.0004995167 0.0004997551
vt 0.9995003 0.0004995167
vt 0.9995005 0.9995003
vt 0.0004997551 0.9995005
vt 0.5 0.5
vt 0.0004995167 0.0004997253
vt 0.9995003 0.0004994869
vt 0.9995005 0.9995003
vt 0.0004997551 0.9995005
vt 0.5 0.5
vt 0.0004994869 0.0004997253
vt 0.9995003 0.0004994869
vt 0.9995005 0.9995003
vt 0.0004997253 0.9995005
vt 0.5 0.5
vt 0.0004995465 0.0004997551
vt 0.9995002 0.0004995167
vt 0.9995004 0.9995003
vt 0.0004997849 0.9995005
vt 0.5 0.5
vt 0.0004994869 0.0004997551
vt 0.9995003 0.0004995167
vt 0.9995005 0.9995003
vt 0.0004997253 0.9995005
vt 0.5 0.5
vt 0.0004995465 0.0004997849
vt 0.9995002 0.0004995465
vt 0.9995004 0.9995002
vt 0.0004997849 0.9995005
vt 0.5 0.5
vt 0.0004995763 0.0004997551
vt 0.9995002 0.0004994869
vt 0.9995004 0.9995003
vt 0.0004998147 0.9995005

usemtl sn03_39_kms03t01.JPG
usemap sn03_39_kms03t01.JPG
f 3/3/3 1/1/1 2/2/2
f 4/4/4 1/1/1 3/3/3
f 5/5/5 1/1/1 4/4/4
f 2/2/2 1/1/1 5/5/5
f 8/8/8 6/6/6 7/7/7
f 9/9/9 6/6/6 8/8/8
f 10/10/10 6/6/6 9/9/9
f 7/7/7 6/6/6 10/10/10
f 13/13/13 11/11/11 12/12/12
f 14/14/14 11/11/11 13/13/13
f 15/15/15 11/11/11 14/14/14
f 12/12/12 11/11/11 15/15/15
f 18/18/18 16/16/16 17/17/17
f 19/19/19 16/16/16 18/18/18
f 20/20/20 16/16/16 19/19/19
f 17/17/17 16/16/16 20/20/20
f 23/23/23 21/21/21 22/22/22
f 24/24/24 21/21/21 23/23/23
f 25/25/25 21/21/21 24/24/24
f 22/22/22 21/21/21 25/25/25
f 28/28/28 26/26/26 27/27/27
f 29/29/29 26/26/26 28/28/28
f 30/30/30 26/26/26 29/29/29
f 27/27/27 26/26/26 30/30/30
f 33/33/33 31/31/31 32/32/32
f 34/34/34 31/31/31 33/33/33
f 35/35/35 31/31/31 34/34/34
f 32/32/32 31/31/31 35/35/35
f 38/38/38 36/36/36 37/37/37
f 39/39/39 36/36/36 38/38/38
f 40/40/40 36/36/36 39/39/39
f 37/37/37 36/36/36 40/40/40
f 43/43/43 41/41/41 42/42/42
f 44/44/44 41/41/41 43/43/43
f 45/45/45 41/41/41 44/44/44
f 42/42/42 41/41/41 45/45/45
f 48/48/48 46/46/46 47/47/47
f 49/49/49 46/46/46 48/48/48
f 50/50/50 46/46/46 49/49/49
f 47/47/47 46/46/46 50/50/50
f 53/53/53 51/51/51 52/52/52
f 54/54/54 51/51/51 53/53/53
f 55/55/55 51/51/51 54/54/54
f 52/52/52 51/51/51 55/55/55
f 58/58/58 56/56/56 57/57/57
f 59/59/59 56/56/56 58/58/58
f 60/60/60 56/56/56 59/59/59
f 57/57/57 56/56/56 60/60/60
f 63/63/63 61/61/61 62/62/62
f 64/64/64 61/61/61 63/63/63
f 65/65/65 61/61/61 64/64/64
f 62/62/62 61/61/61 65/65/65
f 68/68/68 66/66/66 67/67/67
f 69/69/69 66/66/66 68/68/68
f 70/70/70 66/66/66 69/69/69
f 67/67/67 66/66/66 70/70/70
