mtllib ./Object25.mtl
g Object25
v -870.6909 353.1066 -429.8729
v -846.1223 364.2363 -404.371
v -856.3741 351.186 -398.0509
v -867.939 366.9575 -444.0684
v -846.1223 364.2363 -404.371
v -850.0892 364.1291 -439.4099
v -846.1223 364.2363 -404.371
v -831.7432 364.3474 -414.3011
v -846.1223 364.2363 -404.371
v -815.2254 369.5043 -382.8061
v -831.7432 364.3474 -414.3011
v -822.0463 361.1712 -364.4423
v -832.1318 361.8315 -367.254
v -846.1223 364.2363 -404.371
v -870.879 371.7921 -430.3024
v -856.3741 351.186 -398.0509
v -856.5622 369.8715 -398.4803
v -870.6909 353.1066 -429.8729
v -868.127 372.7039 -444.4979
v -870.6909 353.1066 -429.8729
v -870.879 371.7921 -430.3024
v -867.939 366.9575 -444.0684
v -850.2772 369.8755 -439.8392
v -850.0892 364.1291 -439.4099
v -832.617 370.0939 -410.894
v -850.0892 364.1291 -439.4099
v -850.2772 369.8755 -439.8392
v -831.7432 364.3474 -414.3011
v -832.617 370.0939 -410.894
v -815.4135 375.2508 -383.2356
v -831.7432 364.3474 -414.3011
v -815.2254 369.5043 -382.8061
v -831.7432 364.3474 -414.3011
v -815.4135 375.2508 -383.2356
v -822.2343 366.9177 -364.8718
v -815.2254 369.5043 -382.8061
v -815.4135 375.2508 -383.2356
v -822.0463 361.1712 -364.4423
v -832.3198 367.5779 -367.6835
v -832.1318 361.8315 -367.254
v -832.1318 361.8315 -367.254
v -832.3198 367.5779 -367.6835
v -859.9115 380.9495 -415.5738
v -851.8229 379.8644 -401.2481
v -857.2047 377.2292 -425.2419
v -859.9115 380.9495 -415.5738
v -847.9524 376.8437 -422.9464
v -840.2388 375.7546 -408.3894
v -847.9524 376.8437 -422.9464
v -832.617 370.0939 -410.894
v -840.2388 375.7546 -408.3894
v -828.575 381.887 -392.6352
v -832.617 370.0939 -410.894
v -815.4135 375.2508 -383.2356
v -832.617 370.0939 -410.894
v -832.4286 381.3594 -382.2602
v -815.4135 375.2508 -383.2356
v -828.575 381.887 -392.6352
v -822.2343 366.9177 -364.8718
v -842.8277 381.7324 -383.8488
v -842.8277 381.7324 -383.8488
v -832.3198 367.5779 -367.6835
v -851.8229 379.8644 -401.2481
v -846.0308 375.6918 -404.8188
v -859.9115 380.9495 -415.5738
v -857.2047 377.2292 -425.2419
v -847.9524 376.8437 -422.9464
v -840.2388 375.7546 -408.3894
v -840.2388 375.7546 -408.3894
v -828.575 381.887 -392.6352
v -832.4286 381.3594 -382.2602
v -842.8277 381.7324 -383.8488
v -851.8229 379.8644 -401.2481

vn 0.6813656 -0.6227177 -0.3846605
vn 0.6549967 -0.677043 -0.3355476
vn 0.6658174 -0.6759832 -0.315807
vn 0.3596514 -0.8963911 -0.2591019
vn 0.3597883 -0.9098348 -0.2067677
vn -0.08200165 -0.9965559 0.01233209
vn -0.1618976 -0.9865766 0.02134697
vn 0.009129897 -0.9999563 0.00202505
vn 0.009129897 -0.9999563 0.00202505
vn 0.2399613 -0.9647419 -0.1081275
vn 0.08774301 -0.9893687 0.115978
vn 0.2338042 -0.9484887 -0.2137868
vn 0.4759904 -0.8476557 -0.2343347
vn 0.6751182 -0.6747579 -0.2981898
vn -0.9068934 0.08331376 0.4130414
vn -0.8726217 0.002440875 0.4883908
vn -0.8287573 0.177005 0.5308772
vn -0.9119487 0.0002527903 0.410304
vn -0.3796145 0.810066 -0.4468623
vn -0.9792674 -0.02215092 -0.2013574
vn -0.7168494 0.6597441 -0.225532
vn -0.1091816 -0.07762554 -0.9909862
vn 0.2891921 0.6101332 -0.737635
vn 0.2424373 -0.06440146 -0.9680272
vn 0.8536426 -0.01098469 -0.5207434
vn 0.8118881 0.2155821 -0.5425516
vn 0.7122333 0.5690203 -0.4110226
vn 0.727878 0.4282213 -0.5355558
vn 0.7288321 0.4277974 -0.5345961
vn 0.7298019 0.4273649 -0.5336182
vn 0.7298019 0.4273649 -0.5336182
vn 0.8859617 -0.005652968 -0.4637239
vn 0.8859617 -0.005652968 -0.4637239
vn 0.8859617 -0.005652968 -0.4637239
vn 0.2613609 0.5774086 0.7734919
vn 0.926963 0.05803765 0.3706363
vn 0.9269624 0.0580424 0.3706368
vn 0.4080797 0.08130948 0.9093183
vn -0.2065492 0.478753 0.8533071
vn -0.2641622 0.06327737 0.9624003
vn -0.786359 0.009607675 0.6176952
vn -0.8438539 -0.06117417 0.5330744
vn -0.8124615 0.4035814 0.4207473
vn -0.7917175 0.2932041 0.5359244
vn -0.1847933 0.9587743 -0.2158779
vn -0.2063718 0.8924423 -0.4011949
vn 0.2010239 0.9098636 -0.3629566
vn 0.7315546 0.5888786 -0.3435837
vn 0.7315546 0.5888786 -0.3435837
vn 0.4989061 0.8091256 -0.3104974
vn 0.4532507 0.7915929 -0.4098102
vn 0.5546321 0.6376273 -0.5346164
vn 0.367036 0.7422534 -0.5606644
vn 0.648758 0.5657108 -0.5090033
vn 0.648758 0.5657108 -0.5090033
vn 0.2215674 0.8496063 0.4786199
vn 0.3310346 0.8600962 0.3881377
vn 0.3415639 0.9236427 0.1738345
vn 0.319654 0.8125407 0.4874415
vn -0.1103591 0.7218001 0.6832464
vn -0.876779 -0.1186697 0.4660216
vn -0.6734406 0.4760386 0.5655659
vn 0.4836763 0.8499973 -0.2087145
vn 0.118087 0.979435 -0.1635927
vn 0.4795388 0.8541042 -0.2013669
vn 0.2788791 0.9569426 -0.08054405
vn 0.02653466 0.9978096 0.06059467
vn 0.02653595 0.9978098 0.06059454
vn -0.1643338 0.9542556 -0.2497811
vn -0.2488064 0.9595895 -0.1314662
vn -0.1181072 0.9775679 -0.1743897
vn 0.2233963 0.9270345 -0.3011663
vn 0.4225438 0.8517187 -0.3098901

vt 0.2077304 0.7683872
vt 0.4602131 0.5230715
vt 0.2156485 0.5230714
vt 0.460213 0.8700004
vt 0.4602131 0.5230715
vt 0.7126957 0.7683873
vt 0.4602131 0.5230715
vt 0.7047777 0.5230715
vt 0.4602131 0.5230715
vt 0.8009039 0.2316128
vt 0.7047777 0.5230715
vt 0.5000001 0.1299997
vt 0.1990961 0.2316127
vt 0.4602131 0.5230715
vt 0.7683872 0.5
vt 0.5230714 0.2586954
vt 0.5230714 0.5
vt 0.7683872 0.2586954
vt 0.460213 0.5
vt 0.2077304 0.2586954
vt 0.2077304 0.5
vt 0.460213 0.2586954
vt 0.7126957 0.5
vt 0.7126957 0.2586954
vt 0.4769285 0.5
vt 0.2316127 0.2586954
vt 0.2316127 0.5
vt 0.4769285 0.2586954
vt 0.4769285 0.5
vt 0.7683872 0.5
vt 0.4769285 0.2586954
vt 0.7683872 0.2586954
vt 0.4769285 0.2586954
vt 0.7683872 0.5
vt 0.5 0.5
vt 0.1990961 0.2586954
vt 0.1990961 0.5
vt 0.5 0.2586954
vt 0.8009039 0.5
vt 0.8009039 0.2586954
vt 0.2316127 0.2586954
vt 0.2316127 0.5
vt 0.6566495 0.7413046
vt 0.5180531 0.7413046
vt 0.46454 0.7413046
vt 0.3218945 0.7413046
vt 0.6071856 0.7413046
vt 0.4819469 0.7413046
vt 0.3433504 0.7413046
vt 0.4769285 0.5
vt 0.4819469 0.7413046
vt 0.6466128 0.7413046
vt 0.4769285 0.5
vt 0.7683872 0.5
vt 0.4769285 0.5
vt 0.5129815 0.7413046
vt 0.1990961 0.5
vt 0.3429793 0.7413046
vt 0.5 0.5
vt 0.6829836 0.7413046
vt 0.3533871 0.7413046
vt 0.2316127 0.5
vt 0.673632 0.5180531
vt 0.5354599 0.5180531
vt 0.6781055 0.6566495
vt 0.53546 0.714058
vt 0.3928144 0.6566496
vt 0.3972878 0.5180531
vt 0.3972878 0.5180531
vt 0.3429793 0.3533872
vt 0.5129815 0.2959786
vt 0.6829836 0.3533871
vt 0.673632 0.5180531

usemtl sn03_03_sn308.JPG
usemap sn03_03_sn308.JPG
f 3/3/3 1/1/1 2/2/2
f 1/1/1 4/4/4 5/5/5
f 4/4/4 6/6/6 7/7/7
f 6/6/6 8/8/8 9/9/9
f 11/11/11 10/10/10 5/5/5
f 10/10/10 12/12/12 5/5/5
f 12/12/12 13/13/13 5/5/5
f 13/13/13 3/3/3 14/14/14
f 17/17/17 15/15/15 16/16/16
f 15/15/15 18/18/18 16/16/16
f 21/21/21 19/19/19 20/20/20
f 19/19/19 22/22/22 20/20/20
f 19/19/19 23/23/23 22/22/22
f 23/23/23 24/24/24 22/22/22
f 27/27/27 25/25/25 26/26/26
f 29/29/29 28/28/28 26/26/26
f 29/29/29 30/30/30 31/31/31
f 34/34/34 32/32/32 33/33/33
f 37/37/37 35/35/35 36/36/36
f 35/35/35 38/38/38 36/36/36
f 35/35/35 39/39/39 38/38/38
f 39/39/39 40/40/40 38/38/38
f 42/42/42 17/17/17 41/41/41
f 17/17/17 16/16/16 41/41/41
f 44/44/44 43/43/43 17/17/17
f 43/43/43 15/15/15 17/17/17
f 46/46/46 45/45/45 21/21/21
f 45/45/45 19/19/19 21/21/21
f 45/45/45 47/47/47 19/19/19
f 47/47/47 23/23/23 19/19/19
f 49/49/49 48/48/48 27/27/27
f 51/51/51 50/50/50 27/27/27
f 51/51/51 52/52/52 53/53/53
f 52/52/52 54/54/54 55/55/55
f 58/58/58 56/56/56 57/57/57
f 56/56/56 59/59/59 57/57/57
f 56/56/56 60/60/60 35/35/35
f 60/60/60 39/39/39 35/35/35
f 61/61/61 44/44/44 42/42/42
f 44/44/44 17/17/17 62/62/62
f 65/65/65 63/63/63 64/64/64
f 66/66/66 65/65/65 64/64/64
f 67/67/67 66/66/66 64/64/64
f 68/68/68 67/67/67 64/64/64
f 70/70/70 69/69/69 64/64/64
f 71/71/71 70/70/70 64/64/64
f 72/72/72 71/71/71 64/64/64
f 73/73/73 72/72/72 64/64/64
