mtllib ./Sphere01.mtl
g Sphere01
v -0.0002365112 3227.609 2386.874
v -0.0003166199 3710.495 1.525879E-05
v 1687.774 3227.609 1687.775
v 2386.874 3227.609 -0.000213623
v 1687.774 3227.609 -1687.775
v -0.0006523132 3227.609 -2386.874
v -1687.775 3227.609 -1687.775
v -2386.874 3227.609 0.0004119873
v -1687.775 3227.609 1687.775
v -0.0001564026 2346.742 3459.102
v -0.0002365112 3227.609 2386.874
v 848.1631 2346.742 3107.78
v 3227.609 -0.0002746582 3227.609
v 1958.509 1307.502 3292.161
v 2901.543 1307.502 2901.543
v 2445.954 2346.742 2445.953
v 1687.774 3227.609 1687.775
v 2797.274 2346.742 1597.79
v 4564.528 -0.0002746582 -0.0004119873
v 3712.784 1307.502 943.0343
v 4103.402 1307.502 -0.0003814697
v 3459.1 2346.742 -0.0003051758
v 2386.874 3227.609 -0.000213623
v 3107.78 2346.742 -848.1636
v 3227.608 -0.0002746582 -3227.61
v 3292.161 1307.502 -1958.509
v 2901.543 1307.502 -2901.544
v 2445.953 2346.742 -2445.954
v 1687.774 3227.609 -1687.775
v 1597.79 2346.742 -2797.275
v -0.0009155273 -0.0002746582 -4564.529
v 943.0338 1307.502 -3712.785
v -0.0008544922 1307.502 -4103.402
v -0.0007629395 2346.742 -3459.101
v -0.0006523132 3227.609 -2386.874
v -848.164 2346.742 -3107.78
v -3227.61 -0.0002746582 -3227.609
v -1958.51 1307.502 -3292.161
v -2901.544 1307.502 -2901.543
v -2445.955 2346.742 -2445.954
v -1687.775 3227.609 -1687.775
v -2797.275 2346.742 -1597.79
v -4564.529 -0.0002746582 0.0007781982
v -3712.785 1307.502 -943.0341
v -4103.403 1307.502 0.0007019043
v -3459.101 2346.742 0.0005950928
v -2386.874 3227.609 0.0004119873
v -3107.781 2346.742 848.1638
v -3227.609 -0.0002746582 3227.61
v -3292.161 1307.502 1958.51
v -2901.543 1307.502 2901.544
v -2445.954 2346.742 2445.954
v -1687.775 3227.609 1687.775
v -1597.791 2346.742 2797.275
v -0.0001182556 -0.0002746582 4564.528
v -943.0345 1307.502 3712.785
v -0.0001373291 1307.502 4103.402
v -0.0001182556 -0.0002746582 4564.528
v -0.0001373291 1307.502 4103.402
v 500.5958 1307.502 3896.049
v 3108.897 1307.502 2400.948
v 3896.048 1307.502 -500.5962
v 2400.947 1307.502 -3108.897
v -500.5966 1307.502 -3896.049
v -3108.898 1307.502 -2400.947
v -3896.049 1307.502 500.5965
v -2400.947 1307.502 3108.898
v -0.0001564026 2346.742 3459.102
v -0.0002365112 3227.609 2386.874

vn -1.140478E-08 -0.9801431 -0.1982917
vn 3.87861E-09 -0.9999999 3.87861E-09
vn -0.1402134 -0.980143 -0.1402134
vn -0.1982917 -0.980143 0
vn -0.1402134 -0.9801431 0.1402134
vn 7.603182E-09 -0.980143 0.1982917
vn 0.1402135 -0.980143 0.1402134
vn 0.1982917 -0.9801431 -4.181752E-08
vn 0.1402134 -0.980143 -0.1402134
vn -0.295058 -0.6368074 -0.7123321
vn -0.2542936 -0.7472874 -0.6139188
vn -0.2963146 -0.6328099 -0.7153665
vn -0.6962023 -0.3323002 -0.636301
vn -0.353461 -0.3832662 -0.8533301
vn -0.6223261 -0.4484554 -0.641559
vn -0.4404061 -0.6403852 -0.629245
vn -0.424677 -0.7722453 -0.4725321
vn -0.7153665 -0.6328099 -0.2963145
vn -0.9422221 -0.3323002 0.0423567
vn -0.8533301 -0.3832662 -0.3534608
vn -0.8937016 -0.4484555 -0.01359969
vn -0.7563576 -0.6403852 -0.1335292
vn -0.6344227 -0.7722453 -0.0338386
vn -0.7153665 -0.6328099 0.2963145
vn -0.6363009 -0.3323002 0.6962023
vn -0.8533301 -0.3832662 0.353461
vn -0.6415591 -0.4484554 0.6223261
vn -0.6292451 -0.6403852 0.4404061
vn -0.4725321 -0.7722453 0.424677
vn -0.2963145 -0.6328099 0.7153666
vn 0.0423567 -0.3323003 0.942222
vn -0.3534608 -0.3832662 0.8533303
vn -0.01359971 -0.4484554 0.8937017
vn -0.1335292 -0.640385 0.7563577
vn -0.03383859 -0.7722453 0.6344227
vn 0.2963147 -0.6328099 0.7153665
vn 0.6962024 -0.3323002 0.6363009
vn 0.3534611 -0.3832662 0.8533301
vn 0.6223263 -0.4484553 0.6415589
vn 0.4404061 -0.6403852 0.6292451
vn 0.4246771 -0.7722453 0.4725321
vn 0.7153667 -0.6328098 0.2963144
vn 0.9422221 -0.3323001 -0.04235679
vn 0.8533301 -0.3832662 0.3534608
vn 0.8937017 -0.4484553 0.01359966
vn 0.7563576 -0.6403852 0.1335292
vn 0.6344227 -0.7722453 0.03383853
vn 0.7153665 -0.6328099 -0.2963147
vn 0.6363009 -0.3323002 -0.6962023
vn 0.8533301 -0.3832662 -0.3534612
vn 0.6415589 -0.4484555 -0.6223261
vn 0.6292451 -0.6403852 -0.4404062
vn 0.4725321 -0.7722453 -0.4246771
vn 0.2963146 -0.63281 -0.7153665
vn 0.3638557 -0.3098008 -0.8784261
vn 0.3534608 -0.3832662 -0.8533303
vn 0.3508947 -0.3990411 -0.8471358
vn -0.3638559 -0.3098007 -0.8784261
vn -0.3430784 -0.4430289 -0.8282648
vn -0.3508948 -0.3990413 -0.8471357
vn -0.8471355 -0.3990412 -0.350895
vn -0.8471355 -0.3990414 0.350895
vn -0.3508949 -0.3990412 0.8471357
vn 0.3508951 -0.3990415 0.8471355
vn 0.8471357 -0.3990412 0.350895
vn 0.8471355 -0.3990411 -0.3508953
vn 0.350895 -0.3990413 -0.8471357
vn 0.3039976 -0.6074159 -0.7339151
vn 0.2542936 -0.7472875 -0.6139188

vt 0.5043666 0.9981815
vt 0.5043857 0.9970837
vt 0.5038041 0.9980419
vt 0.5035979 0.997121
vt 0.5038515 0.995921
vt 0.5044141 0.9961107
vt 0.5049387 0.995921
vt 0.5051354 0.997121
vt 0.5048913 0.9980419
vt -1.788139E-07 0.7279345
vt -1.788139E-07 0.9982619
vt 0.1023434 0.7279345
vt 0.3749999 0.007747529
vt 0.2230877 0.4090042
vt 0.3749999 0.4090042
vt 0.375 0.7279345
vt 0.375 0.9982619
vt 0.4773435 0.7279345
vt 0.7499999 0.007747529
vt 0.5980877 0.4090042
vt 0.7499999 0.4090042
vt 0.7499999 0.7279345
vt 0.7499999 0.9982619
vt 0.8523435 0.7279345
vt 1.125 0.007747529
vt 0.9730877 0.4090042
vt 1.125 0.4090042
vt 1.125 0.7279345
vt 1.125 0.9982619
vt 1.227343 0.7279345
vt 1.5 0.007747529
vt 1.348088 0.4090042
vt 1.5 0.4090042
vt 1.5 0.7279345
vt 1.5 0.9982619
vt 1.602343 0.7279345
vt 1.875 0.007747529
vt 1.723088 0.4090042
vt 1.875 0.4090042
vt 1.875 0.7279345
vt 1.875 0.9982619
vt 1.977344 0.7279345
vt 2.25 0.007747529
vt 2.098088 0.4090042
vt 2.25 0.4090042
vt 2.25 0.7279345
vt 2.25 0.9982619
vt 2.352344 0.7279345
vt 2.625 0.007747529
vt 2.473088 0.4090042
vt 2.625 0.4090042
vt 2.625 0.7279345
vt 2.625 0.9982619
vt 2.727344 0.7279345
vt 3 0.007747529
vt 2.848088 0.4090042
vt 3 0.4090042
vt -1.788139E-07 0.007747529
vt -1.788139E-07 0.4090042
vt 0.05702118 0.4090042
vt 0.4320213 0.4090042
vt 0.8070213 0.4090042
vt 1.182021 0.4090042
vt 1.557021 0.4090042
vt 1.932021 0.4090042
vt 2.307021 0.4090042
vt 2.682021 0.4090042
vt 3 0.7279345
vt 3 0.9982619

usemtl sn03_29_sn3sky.jpg
usemap sn03_29_sn3sky.jpg
f 3/3/3 1/1/1 2/2/2
f 4/4/4 3/3/3 2/2/2
f 5/5/5 4/4/4 2/2/2
f 6/6/6 5/5/5 2/2/2
f 7/7/7 6/6/6 2/2/2
f 8/8/8 7/7/7 2/2/2
f 9/9/9 8/8/8 2/2/2
f 1/1/1 9/9/9 2/2/2
f 12/12/12 10/10/10 11/11/11
f 15/15/15 13/13/13 14/14/14
f 18/18/18 16/16/16 17/17/17
f 21/21/21 19/19/19 20/20/20
f 24/24/24 22/22/22 23/23/23
f 27/27/27 25/25/25 26/26/26
f 30/30/30 28/28/28 29/29/29
f 33/33/33 31/31/31 32/32/32
f 36/36/36 34/34/34 35/35/35
f 39/39/39 37/37/37 38/38/38
f 42/42/42 40/40/40 41/41/41
f 45/45/45 43/43/43 44/44/44
f 48/48/48 46/46/46 47/47/47
f 51/51/51 49/49/49 50/50/50
f 54/54/54 52/52/52 53/53/53
f 57/57/57 55/55/55 56/56/56
f 60/60/60 58/58/58 59/59/59
f 14/14/14 60/60/60 12/12/12
f 17/17/17 16/16/16 12/12/12
f 17/17/17 12/12/12 11/11/11
f 61/61/61 13/13/13 15/15/15
f 20/20/20 61/61/61 18/18/18
f 23/23/23 22/22/22 18/18/18
f 23/23/23 18/18/18 17/17/17
f 62/62/62 19/19/19 21/21/21
f 26/26/26 62/62/62 24/24/24
f 29/29/29 28/28/28 24/24/24
f 29/29/29 24/24/24 23/23/23
f 63/63/63 25/25/25 27/27/27
f 32/32/32 63/63/63 30/30/30
f 35/35/35 34/34/34 30/30/30
f 35/35/35 30/30/30 29/29/29
f 64/64/64 31/31/31 33/33/33
f 38/38/38 64/64/64 36/36/36
f 41/41/41 40/40/40 36/36/36
f 41/41/41 36/36/36 35/35/35
f 65/65/65 37/37/37 39/39/39
f 44/44/44 65/65/65 42/42/42
f 47/47/47 46/46/46 42/42/42
f 47/47/47 42/42/42 41/41/41
f 66/66/66 43/43/43 45/45/45
f 50/50/50 66/66/66 48/48/48
f 53/53/53 52/52/52 48/48/48
f 53/53/53 48/48/48 47/47/47
f 67/67/67 49/49/49 51/51/51
f 56/56/56 67/67/67 54/54/54
f 69/69/69 68/68/68 54/54/54
f 69/69/69 54/54/54 53/53/53
f 16/16/16 15/15/15 14/14/14
f 16/16/16 14/14/14 12/12/12
f 22/22/22 21/21/21 20/20/20
f 22/22/22 20/20/20 18/18/18
f 28/28/28 27/27/27 26/26/26
f 28/28/28 26/26/26 24/24/24
f 34/34/34 33/33/33 32/32/32
f 34/34/34 32/32/32 30/30/30
f 40/40/40 39/39/39 38/38/38
f 40/40/40 38/38/38 36/36/36
f 46/46/46 45/45/45 44/44/44
f 46/46/46 44/44/44 42/42/42
f 52/52/52 51/51/51 50/50/50
f 52/52/52 50/50/50 48/48/48
f 68/68/68 57/57/57 56/56/56
f 68/68/68 56/56/56 54/54/54
f 12/12/12 60/60/60 59/59/59
f 12/12/12 59/59/59 10/10/10
f 14/14/14 58/58/58 60/60/60
f 13/13/13 58/58/58 14/14/14
f 18/18/18 61/61/61 15/15/15
f 18/18/18 15/15/15 16/16/16
f 20/20/20 13/13/13 61/61/61
f 19/19/19 13/13/13 20/20/20
f 24/24/24 62/62/62 21/21/21
f 24/24/24 21/21/21 22/22/22
f 26/26/26 19/19/19 62/62/62
f 25/25/25 19/19/19 26/26/26
f 30/30/30 63/63/63 27/27/27
f 30/30/30 27/27/27 28/28/28
f 32/32/32 25/25/25 63/63/63
f 31/31/31 25/25/25 32/32/32
f 36/36/36 64/64/64 33/33/33
f 36/36/36 33/33/33 34/34/34
f 38/38/38 31/31/31 64/64/64
f 37/37/37 31/31/31 38/38/38
f 42/42/42 65/65/65 39/39/39
f 42/42/42 39/39/39 40/40/40
f 44/44/44 37/37/37 65/65/65
f 43/43/43 37/37/37 44/44/44
f 48/48/48 66/66/66 45/45/45
f 48/48/48 45/45/45 46/46/46
f 50/50/50 43/43/43 66/66/66
f 49/49/49 43/43/43 50/50/50
f 54/54/54 67/67/67 51/51/51
f 54/54/54 51/51/51 52/52/52
f 56/56/56 49/49/49 67/67/67
f 55/55/55 49/49/49 56/56/56
