mtllib ./stone01.mtl
g stone01
v -24.21598 -23.28858 -3.820022
v -20.27359 -22.23245 12.23874
v -13.37627 -8.479324 15.65996
v -13.15678 -10.42128 -3.208755
v -5.273396 -23.59504 20.18866
v -6.428246 -9.727263 13.25045
v 7.774761 -26.34862 11.61369
v 11.02748 -13.12808 4.572294
v 8.951859 -28.02949 -3.309271
v 10.82121 -14.32443 -7.539447
v -0.9800051 -27.21846 -9.474335
v 2.879314 -13.8251 -13.94217
v -6.908836 -26.94761 -15.2602
v -3.73957 -13.19715 -17.18675
v -20.9652 -24.58758 -12.01101
v -13.77683 -11.00227 -9.832579
v -24.21598 -23.28858 -3.820022
v -13.15678 -10.42128 -3.208755
v -22.1845 13.86594 21.41971
v -17.67169 10.44694 -5.910908
v 1.246367 11.61201 32.59743
v 13.95875 7.117041 6.341679
v 25.72229 3.982246 -7.832603
v 6.906807 5.730943 -17.41426
v 0.7588937 5.081959 -32.59922
v -25.75276 9.904297 -22.80487
v -17.67169 10.44694 -5.910908
v -11.10679 28.02928 4.800836
v -6.274704 26.14914 -6.873074
v 5.912108 26.29354 11.94592
v 12.16483 24.62515 4.391459
v 18.89494 22.33291 -8.645508
v 7.903963 23.23029 -15.46788
v -2.112806 23.60259 -26.08768
v -11.097 25.42048 -20.95397
v -6.274704 26.14914 -6.873074
v -0.9800051 -27.21846 -9.474335
v 12.16483 24.62515 4.391459
v 18.89494 22.33291 -8.645508
v 7.903963 23.23029 -15.46788
v 5.912108 26.29354 11.94592
v -11.10679 28.02928 4.800836
v -6.274704 26.14914 -6.873074
v -2.112806 23.60259 -26.08768
v -11.097 25.42048 -20.95397

vn -0.937852 0.2841331 0.1992542
vn -0.5098923 -0.1145932 0.8525715
vn -0.664077 0.4712194 0.5804774
vn -0.970215 0.2420693 -0.00924129
vn 0.07502916 0.02477932 0.9968735
vn 0.5364061 0.1466322 0.8311241
vn 0.4697227 -0.5038658 0.7248999
vn 0.8078315 0.09486321 0.5817294
vn 0.4153341 -0.9081386 0.05274251
vn 0.5301548 -0.8400092 -0.1154144
vn -0.1999183 -0.8961843 0.3960889
vn 0.3411679 -0.8979648 -0.2779631
vn -0.5172988 -0.794265 -0.3186612
vn -0.563367 -0.7830181 -0.2636291
vn -0.7291769 -0.00753516 -0.6842838
vn -0.9920716 -0.06580907 -0.1070654
vn -0.8126813 -0.4202551 0.4036517
vn -0.8277028 0.4856182 -0.2812173
vn -0.6426624 0.7497801 0.1575274
vn -0.9042795 0.32037 -0.2822085
vn 0.5639404 0.3579118 0.7442247
vn 0.8325086 -0.01149139 0.5538929
vn 0.7570454 -0.6366666 -0.1467579
vn 0.4714561 -0.7354645 -0.4866429
vn -0.1673902 -0.7411109 -0.6501809
vn -0.937869 -0.04258822 -0.3443662
vn -0.7611508 0.6067787 0.2290608
vn -0.4550552 0.7887939 -0.4131933
vn -0.6587995 0.3943691 -0.6406686
vn 0.3062242 0.9490491 -0.07438076
vn 0.9717025 0.1186539 0.2042437
vn 0.998772 -0.02099381 -0.04487613
vn 0.3725111 -0.6273026 -0.6839055
vn 0.4845769 -0.5035557 -0.715274
vn -0.5067346 0.1336915 -0.8516729
vn -0.4738984 0.8628725 -0.1757027
vn -0.3698827 -0.5996785 0.7096283
vn 0.3698851 0.5996771 -0.7096283
vn 0.3698781 0.5996819 -0.7096279
vn 0.3698834 0.5996771 -0.7096293
vn 0.3698853 0.5996747 -0.7096303
vn 0.3698809 0.5996757 -0.7096318
vn 0.3698837 0.5996793 -0.7096272
vn 0.3698866 0.5996809 -0.7096244
vn 0.3698861 0.599681 -0.7096245

vt -0.08539248 0.0004995167
vt 0.2620054 0.0004995167
vt 0.1869887 0.2754173
vt -0.1335933 0.2754173
vt 0.5686784 0.0004995167
vt 0.5718627 0.2754173
vt 0.8452064 0.0004995167
vt 0.9072497 0.2754173
vt 1.133023 0.0004995167
vt 1.200748 0.2754173
vt 1.358543 0.0004995167
vt 1.380107 0.2754173
vt 1.578846 0.0004995167
vt 1.575012 0.2754173
vt 1.753522 0.0004995167
vt 1.719597 0.2754173
vt 1.914608 0.0004995167
vt 1.866407 0.2754173
vt 0.291022 0.6665001
vt -0.1468507 0.6665001
vt 0.5689081 0.6665001
vt 0.9544314 0.6665001
vt 1.144892 0.6665001
vt 1.357118 0.6665001
vt 1.578288 0.6665001
vt 1.747273 0.6665001
vt 1.853149 0.6665001
vt 0.163166 0.9995005
vt -0.2881422 0.9995005
vt 0.6895748 0.9995005
vt 0.9363102 0.9995005
vt 1.177865 0.9995005
vt 1.373899 0.9995005
vt 1.57059 0.9995005
vt 1.656142 0.9995005
vt 1.711858 0.9995005
vt -0.6414568 0.0004995167
vt 0.5777507 0.5031953
vt 0.7321619 0.4188094
vt 0.7975209 0.5894418
vt 0.4857672 0.586917
vt 0.548357 0.847143
vt 0.6853566 0.7892558
vt 0.8781478 0.788241
vt 0.8392636 0.8770667

usemtl sn03_01_sn301.jpg
usemap sn03_01_sn301.jpg
f 3/3/3 1/1/1 2/2/2
f 4/4/4 1/1/1 3/3/3
f 6/6/6 2/2/2 5/5/5
f 3/3/3 2/2/2 6/6/6
f 8/8/8 5/5/5 7/7/7
f 6/6/6 5/5/5 8/8/8
f 10/10/10 7/7/7 9/9/9
f 8/8/8 7/7/7 10/10/10
f 12/12/12 9/9/9 11/11/11
f 10/10/10 9/9/9 12/12/12
f 14/14/14 11/11/11 13/13/13
f 12/12/12 11/11/11 14/14/14
f 16/16/16 13/13/13 15/15/15
f 14/14/14 13/13/13 16/16/16
f 18/18/18 15/15/15 17/17/17
f 16/16/16 15/15/15 18/18/18
f 19/19/19 4/4/4 3/3/3
f 20/20/20 4/4/4 19/19/19
f 21/21/21 3/3/3 6/6/6
f 19/19/19 3/3/3 21/21/21
f 22/22/22 6/6/6 8/8/8
f 21/21/21 6/6/6 22/22/22
f 23/23/23 8/8/8 10/10/10
f 22/22/22 8/8/8 23/23/23
f 24/24/24 10/10/10 12/12/12
f 23/23/23 10/10/10 24/24/24
f 25/25/25 12/12/12 14/14/14
f 24/24/24 12/12/12 25/25/25
f 26/26/26 14/14/14 16/16/16
f 25/25/25 14/14/14 26/26/26
f 27/27/27 16/16/16 18/18/18
f 26/26/26 16/16/16 27/27/27
f 28/28/28 20/20/20 19/19/19
f 29/29/29 20/20/20 28/28/28
f 30/30/30 19/19/19 21/21/21
f 28/28/28 19/19/19 30/30/30
f 31/31/31 21/21/21 22/22/22
f 30/30/30 21/21/21 31/31/31
f 32/32/32 22/22/22 23/23/23
f 31/31/31 22/22/22 32/32/32
f 33/33/33 23/23/23 24/24/24
f 32/32/32 23/23/23 33/33/33
f 34/34/34 24/24/24 25/25/25
f 33/33/33 24/24/24 34/34/34
f 35/35/35 25/25/25 26/26/26
f 34/34/34 25/25/25 35/35/35
f 36/36/36 26/26/26 27/27/27
f 35/35/35 26/26/26 36/36/36
f 9/9/9 7/7/7 11/11/11
f 7/7/7 5/5/5 11/11/11
f 5/5/5 2/2/2 37/37/37
f 2/2/2 1/1/1 37/37/37
f 11/11/11 17/17/17 13/13/13
f 13/13/13 17/17/17 15/15/15
f 40/40/40 38/38/38 39/39/39
f 40/40/40 41/41/41 38/38/38
f 40/40/40 42/42/42 41/41/41
f 40/40/40 43/43/43 42/42/42
f 44/44/44 43/43/43 40/40/40
f 45/45/45 43/43/43 44/44/44
