mtllib ./stone.mtl
g stone
v -24.21014 -23.29771 -3.840576
v -20.284 -22.24004 12.22437
v -13.3913 -8.482711 15.65186
v -13.1524 -10.42586 -3.219971
v -5.291077 -23.60014 20.18848
v -6.440369 -9.729842 13.2478
v 7.766663 -26.35246 11.62305
v 11.02533 -13.12889 4.583008
v 8.959167 -28.03413 -3.301514
v 10.83148 -14.32606 -7.531006
v -0.96698 -27.22487 -9.476074
v 2.895691 -13.82817 -13.94165
v -6.890198 -26.95512 -15.26807
v -3.720276 -13.20137 -17.19238
v -20.95074 -24.59676 -12.03027
v -13.76569 -11.00737 -9.845459
v -24.21014 -23.29771 -3.840576
v -13.1524 -10.42586 -3.219971
v -22.20807 13.86614 21.40479
v -17.66693 10.44597 -5.926758
v 1.212708 11.61598 32.60449
v 13.95282 7.121018 6.35498
v 25.73163 3.986894 -7.811768
v 6.924866 5.732469 -17.41113
v 0.7921753 5.081712 -32.604
v -25.73114 9.90117 -22.83057
v -17.66693 10.44597 -5.926758
v -11.11444 28.03355 4.792236
v -6.270081 26.15334 -6.879639
v 5.898132 26.30049 11.95313
v 12.159 24.63252 4.402588
v 18.90289 22.34029 -8.630859
v 7.918274 23.23582 -15.46387
v -2.088196 23.60606 -26.09399
v -11.07819 25.42308 -20.96704
v -6.270081 26.15334 -6.879639
v -0.96698 -27.22487 -9.476074
v 12.159 24.63252 4.402588
v 18.90289 22.34029 -8.630859
v 7.918274 23.23582 -15.46387
v 5.898132 26.30049 11.95313
v -11.11444 28.03355 4.792236
v -6.270081 26.15334 -6.879639
v -2.088196 23.60606 -26.09399
v -11.07819 25.42308 -20.96704

vn -0.9784622 -0.1694959 0.1178263
vn -0.4398268 -0.7644241 0.4713898
vn -0.7852464 -0.208341 0.5830799
vn -0.9944713 -0.07415455 -0.07435047
vn 0.06219595 -0.603626 0.794838
vn 0.4539936 -0.2884238 0.8430312
vn 0.6139302 -0.7055467 0.3539684
vn 0.7266738 -0.09415612 0.6804997
vn 0.7011144 -0.5784296 -0.4169629
vn 0.7856666 -0.3911752 -0.4792805
vn 0.1189197 -0.9519351 -0.2822723
vn 0.6279052 -0.3778766 -0.6804001
vn -0.214344 -0.5020645 -0.8378472
vn -0.2614756 -0.5414369 -0.7990473
vn -0.6826741 0.2435343 -0.6889462
vn -0.9096631 -0.2384497 -0.3400803
vn -0.6198101 -0.7749323 -0.1237553
vn -0.9439418 0.3132798 -0.1040645
vn -0.8604904 0.2696883 0.4322318
vn -0.9593297 0.1749757 -0.2215175
vn 0.4075549 -0.07333609 0.9102312
vn 0.7862414 -0.1462945 0.6003519
vn 0.9292433 -0.1652578 -0.3304494
vn 0.6946937 -0.09260445 -0.7133197
vn 0.09623493 -0.1589145 -0.982591
vn -0.8666976 -0.05494724 -0.4957984
vn -0.9228687 0.08975355 0.3745095
vn -0.6976243 0.7139394 0.06008965
vn -0.754078 0.5230411 -0.3972333
vn -0.03705285 0.8109239 0.5839774
vn 0.8724505 0.2086364 0.4419288
vn 0.9456534 0.2754751 0.1727806
vn 0.5646682 0.08615302 -0.8208091
vn 0.6276227 0.2247327 -0.7453758
vn -0.5220399 0.5110701 -0.6828482
vn -0.7406589 0.609579 0.2825558
vn -0.1422444 -0.9848077 0.09960008
vn 0.1422457 0.9848075 -0.0996002
vn 0.1422444 0.9848078 -0.09959996
vn 0.1422446 0.9848077 -0.09960077
vn 0.1422459 0.9848076 -0.09960064
vn 0.1422443 0.9848076 -0.09960189
vn 0.142243 0.9848079 -0.0996006
vn 0.1422442 0.984808 -0.0995987
vn 0.1422443 0.9848079 -0.09959867

vt -0.08539248 0.0004995167
vt 0.2620054 0.0004995167
vt 0.1869887 0.2754173
vt -0.1335933 0.2754173
vt 0.5686784 0.0004995167
vt 0.5718627 0.2754173
vt 0.8452064 0.0004995167
vt 0.9072497 0.2754173
vt 1.133023 0.0004995167
vt 1.200748 0.2754173
vt 1.358543 0.0004995167
vt 1.380107 0.2754173
vt 1.578846 0.0004995167
vt 1.575012 0.2754173
vt 1.753522 0.0004995167
vt 1.719597 0.2754173
vt 1.914608 0.0004995167
vt 1.866407 0.2754173
vt 0.291022 0.6665001
vt -0.1468507 0.6665001
vt 0.5689081 0.6665001
vt 0.9544314 0.6665001
vt 1.144892 0.6665001
vt 1.357118 0.6665001
vt 1.578288 0.6665001
vt 1.747273 0.6665001
vt 1.853149 0.6665001
vt 0.163166 0.9995005
vt -0.2881422 0.9995005
vt 0.6895748 0.9995005
vt 0.9363102 0.9995005
vt 1.177865 0.9995005
vt 1.373899 0.9995005
vt 1.57059 0.9995005
vt 1.656142 0.9995005
vt 1.711858 0.9995005
vt -0.6414568 0.0004995167
vt 0.5777507 0.5031953
vt 0.7321619 0.4188094
vt 0.7975209 0.5894418
vt 0.4857672 0.586917
vt 0.548357 0.847143
vt 0.6853566 0.7892558
vt 0.8781478 0.788241
vt 0.8392636 0.8770667

usemtl sn03_01_sn301.jpg
usemap sn03_01_sn301.jpg
f 3/3/3 1/1/1 2/2/2
f 4/4/4 1/1/1 3/3/3
f 6/6/6 2/2/2 5/5/5
f 3/3/3 2/2/2 6/6/6
f 8/8/8 5/5/5 7/7/7
f 6/6/6 5/5/5 8/8/8
f 10/10/10 7/7/7 9/9/9
f 8/8/8 7/7/7 10/10/10
f 12/12/12 9/9/9 11/11/11
f 10/10/10 9/9/9 12/12/12
f 14/14/14 11/11/11 13/13/13
f 12/12/12 11/11/11 14/14/14
f 16/16/16 13/13/13 15/15/15
f 14/14/14 13/13/13 16/16/16
f 18/18/18 15/15/15 17/17/17
f 16/16/16 15/15/15 18/18/18
f 19/19/19 4/4/4 3/3/3
f 20/20/20 4/4/4 19/19/19
f 21/21/21 3/3/3 6/6/6
f 19/19/19 3/3/3 21/21/21
f 22/22/22 6/6/6 8/8/8
f 21/21/21 6/6/6 22/22/22
f 23/23/23 8/8/8 10/10/10
f 22/22/22 8/8/8 23/23/23
f 24/24/24 10/10/10 12/12/12
f 23/23/23 10/10/10 24/24/24
f 25/25/25 12/12/12 14/14/14
f 24/24/24 12/12/12 25/25/25
f 26/26/26 14/14/14 16/16/16
f 25/25/25 14/14/14 26/26/26
f 27/27/27 16/16/16 18/18/18
f 26/26/26 16/16/16 27/27/27
f 28/28/28 20/20/20 19/19/19
f 29/29/29 20/20/20 28/28/28
f 30/30/30 19/19/19 21/21/21
f 28/28/28 19/19/19 30/30/30
f 31/31/31 21/21/21 22/22/22
f 30/30/30 21/21/21 31/31/31
f 32/32/32 22/22/22 23/23/23
f 31/31/31 22/22/22 32/32/32
f 33/33/33 23/23/23 24/24/24
f 32/32/32 23/23/23 33/33/33
f 34/34/34 24/24/24 25/25/25
f 33/33/33 24/24/24 34/34/34
f 35/35/35 25/25/25 26/26/26
f 34/34/34 25/25/25 35/35/35
f 36/36/36 26/26/26 27/27/27
f 35/35/35 26/26/26 36/36/36
f 9/9/9 7/7/7 11/11/11
f 7/7/7 5/5/5 11/11/11
f 5/5/5 2/2/2 37/37/37
f 2/2/2 1/1/1 37/37/37
f 11/11/11 17/17/17 13/13/13
f 13/13/13 17/17/17 15/15/15
f 40/40/40 38/38/38 39/39/39
f 40/40/40 41/41/41 38/38/38
f 40/40/40 42/42/42 41/41/41
f 40/40/40 43/43/43 42/42/42
f 44/44/44 43/43/43 40/40/40
f 45/45/45 43/43/43 44/44/44
