mtllib ./tizi09.mtl
g tizi09
v -78.16012 50.07827 42.6097
v -74.49448 50.07827 46.61731
v -14.45337 0.7153168 -15.72802
v 54.92528 -49.92173 -71.21848
v 50.9227 -49.92173 -75.59428
v 17.40055 -23.93863 -44.86014
v -51.95271 50.07827 71.25051
v -47.97558 50.07827 75.59698
v 78.15759 -49.92173 -40.48821
v 74.89893 -49.93686 -44.14435
v -10.67871 0.8660011 -11.48644
v -11.28323 -24.91836 -11.2656
v 21.24811 -23.90289 -40.55668
v -74.34988 0.07826996 46.77695
v -74.49448 50.07827 46.61731
v -74.34988 -24.91161 46.77695
v -74.34988 -49.92173 46.77695
v -11.28323 -49.92173 -11.2656
v 54.92528 -49.92173 -71.21848
v 74.89893 -49.93686 -44.14435
v -52.56709 -50.07744 71.81234
v -51.95271 50.07827 71.25051
v 18.36444 -25.24183 -39.92536
v 10.6168 -25.25624 -32.84153
v 42.92358 -25.24182 -13.06503
v 35.17597 -25.25624 -5.981087
v 18.36444 -31.41533 -39.92536
v 18.36444 -25.24183 -39.92536
v 42.92358 -31.41533 -13.06503
v 42.92358 -25.24182 -13.06503
v 26.71314 -31.41534 -47.55878
v 18.36444 -31.41533 -39.92536
v 51.27228 -31.41533 -20.69844
v 42.92358 -31.41533 -13.06503
v 26.71314 -37.85384 -47.55878
v 26.71314 -31.41534 -47.55878
v 51.27228 -37.85384 -20.69844
v 51.27228 -31.41533 -20.69844
v 34.29416 -37.85384 -54.49047
v 26.71314 -37.85384 -47.55878
v 58.85339 -37.85384 -27.63004
v 51.27228 -37.85384 -20.69844
v 34.29416 -43.66518 -54.49047
v 34.29416 -37.85384 -54.49047
v 58.85339 -43.66518 -27.63004
v 58.85339 -37.85384 -27.63004
v 42.39536 -43.66518 -61.89748
v 34.29416 -43.66518 -54.49047
v 66.95455 -43.66518 -35.03717
v 58.85339 -43.66518 -27.63004
v 42.38823 -50.07051 -61.891
v 42.39536 -43.66518 -61.89748
v 66.94743 -50.07051 -35.03069
v 66.95455 -43.66518 -35.03717
v -68.66599 44.4162 39.64871
v -75.34027 44.41619 45.75123
v -44.10678 44.4162 66.50915
v -50.78109 44.41619 72.61168
v -68.66599 37.73823 39.64871
v -68.66599 44.4162 39.64871
v -44.10678 37.73823 66.50915
v -44.10678 44.4162 66.50915
v -60.31729 37.73823 32.0153
v -68.66599 37.73823 39.64871
v -35.75808 37.73823 58.87574
v -44.10678 37.73823 66.50915
v -60.31729 30.61614 32.0153
v -60.31729 37.73823 32.0153
v -35.75808 30.61614 58.87574
v -35.75808 37.73823 58.87574
v -52.02988 30.61614 24.43801
v -60.31729 30.61614 32.0153
v -27.47075 30.61614 51.29835
v -35.75808 30.61614 58.87574
v -52.02988 24.57738 24.43801
v -52.02988 30.61614 24.43801
v -27.47075 24.57738 51.29835
v -27.47075 30.61614 51.29835
v -43.9287 24.57738 17.03075
v -52.02988 24.57738 24.43801
v -19.36953 24.57738 43.8912
v -27.47075 24.57738 51.29835
v -43.93585 18.22625 17.03737
v -43.9287 24.57738 17.03075
v -19.37671 18.22625 43.8977
v -19.36953 24.57738 43.8912
v -35.7019 18.2258 9.508824
v -43.93585 18.22625 17.03737
v -11.14272 18.22581 36.36927
v -19.37671 18.22625 43.8977
v -35.7019 12.59161 9.508824
v -35.7019 18.2258 9.508824
v -11.14272 12.59161 36.36927
v -11.14272 18.22581 36.36927
v -28.46213 12.59138 2.889359
v -35.7019 12.59161 9.508824
v -3.902937 12.59138 29.74967
v -11.14272 12.59161 36.36927
v -28.46213 6.226547 2.889359
v -28.46213 12.59138 2.889359
v -3.902994 6.226547 29.74969
v -3.902937 12.59138 29.74967
v -21.06834 6.226547 -3.871038
v -28.46213 6.226547 2.889359
v 3.490891 6.226547 22.98939
v -3.902994 6.226547 29.74969
v -21.06834 0.09094238 -3.871038
v -21.06834 6.226547 -3.871038
v 3.490891 0.09094238 22.98939
v 3.490891 6.226547 22.98939
v -13.41916 0.1138992 -10.86486
v -21.06834 0.09094238 -3.871038
v 11.14008 0.1138992 15.99557
v 3.490891 0.09094238 22.98939
v -13.41916 -6.205334 -10.86486
v -13.41916 0.1138992 -10.86486
v 11.14008 -6.205334 15.99557
v 11.14008 0.1138992 15.99557
v -5.276672 -6.205334 -18.30971
v -13.41916 -6.205334 -10.86486
v 19.28251 -6.205334 8.550742
v 11.14008 -6.205334 15.99557
v -5.276672 -12.50497 -18.30971
v -5.276672 -6.205334 -18.30971
v 19.28251 -12.50496 8.550742
v 19.28251 -6.205334 8.550742
v 3.093924 -12.50497 -25.96314
v -5.276672 -12.50497 -18.30971
v 27.65306 -12.50496 0.8971913
v 19.28251 -12.50496 8.550742
v 3.101241 -18.98621 -25.96982
v 3.093924 -12.50497 -25.96314
v 27.66038 -18.98621 0.890511
v 27.65306 -12.50496 0.8971913
v 10.60923 -19.01625 -32.83464
v 3.101241 -18.98621 -25.96982
v 35.16841 -19.01625 -5.974187
v 27.66038 -18.98621 0.890511
v 10.6168 -25.25624 -32.84153
v 10.60923 -19.01625 -32.83464
v 35.17597 -25.25624 -5.981087
v 35.16841 -19.01625 -5.974187
v -75.59107 49.98916 45.98051
v -51.03189 49.98916 72.84097
v -50.78109 44.41619 72.61168
v -75.34027 44.41619 45.75123

vn -0.1898528 0.8682351 -0.4583924
vn -0.1904383 0.8682755 -0.4580732
vn -0.1911606 0.8682737 -0.4577755
vn -0.1899119 0.8682775 -0.4582875
vn -0.1898307 0.8682824 -0.458312
vn -0.1905113 0.8682891 -0.4580169
vn -0.1912427 0.8637921 -0.4661433
vn -0.1929031 0.863769 -0.4655013
vn -0.1912427 0.8637921 -0.4661433
vn -0.1892451 0.8638161 -0.4669133
vn 0.924248 -0.001707655 -0.3817885
vn 0.9240314 -0.003628222 -0.3822994
vn 0.9262871 -0.004740153 -0.3767886
vn 0.9235389 -0.0002962235 -0.3835046
vn 0.9238169 0.004307565 -0.3828104
vn 0.9227115 0 -0.3854913
vn 0.9227115 0 -0.3854913
vn 0.9242401 -0.001431383 -0.381809
vn 0.925787 -0.004745679 -0.3780158
vn -0.9249263 -2.161522E-05 0.3801463
vn -0.9249263 -2.161522E-05 0.3801463
vn -0.9249263 -2.161522E-05 0.3801463
vn 0.0005252113 0.999999 0.001269181
vn 0.0005252094 0.999999 0.001269178
vn 0.0005252094 0.999999 0.001269178
vn 0.0005252074 0.999999 0.001269176
vn -0.3824782 0 -0.9239646
vn -0.3824782 0 -0.9239646
vn -0.3824782 0 -0.9239646
vn -0.3824782 0 -0.9239646
vn -4.516406E-07 1 -5.42972E-07
vn -3.951855E-07 1 -4.751004E-07
vn -3.951855E-07 1 -4.751004E-07
vn -3.387304E-07 1 -4.072289E-07
vn -0.3824782 0 -0.9239646
vn -0.3824782 0 -0.9239646
vn -0.3824782 0 -0.9239646
vn -0.3824782 0 -0.9239645
vn -9.684217E-08 1 4.008948E-08
vn -9.684263E-08 1 4.008892E-08
vn -9.684263E-08 1 4.008892E-08
vn -9.684307E-08 1 4.008836E-08
vn -0.3824784 0 -0.9239645
vn -0.3824784 0 -0.9239645
vn -0.3824784 0 -0.9239645
vn -0.3824784 0 -0.9239645
vn -9.684332E-08 1 4.008755E-08
vn -9.684296E-08 1 4.0088E-08
vn -9.684296E-08 1 4.0088E-08
vn -9.68426E-08 1 4.008844E-08
vn -0.3824792 -0.001504245 -0.923963
vn -0.3824792 -0.001504025 -0.923963
vn -0.3824792 -0.001504025 -0.923963
vn -0.3824792 -0.001503805 -0.923963
vn 3.226673E-07 1 7.794786E-07
vn 3.226664E-07 1 7.794772E-07
vn 3.226664E-07 1 7.794772E-07
vn 3.226654E-07 1 7.79476E-07
vn -0.3824778 0 -0.9239646
vn -0.3824778 0 -0.9239646
vn -0.3824778 0 -0.9239646
vn -0.3824778 0 -0.9239646
vn 0 1 0
vn 0 0.9999999 0
vn 0 0.9999999 0
vn 0 1 0
vn -0.3824776 0 -0.9239646
vn -0.3824776 0 -0.9239646
vn -0.3824776 0 -0.9239646
vn -0.3824776 0 -0.9239646
vn 0 1 0
vn 0 1 0
vn 0 1 0
vn 0 1 0
vn -0.3824781 0 -0.9239646
vn -0.3824781 0 -0.9239645
vn -0.3824781 0 -0.9239645
vn -0.3824782 0 -0.9239646
vn 2.658323E-07 1 6.421819E-07
vn 3.607393E-08 1 3.611803E-07
vn 3.607393E-08 1 3.611803E-07
vn -1.936861E-07 0.9999999 8.017673E-08
vn -0.3824777 -0.001533444 -0.9239634
vn -0.382477 -0.001529803 -0.9239638
vn -0.382477 -0.001529803 -0.9239638
vn -0.3824765 -0.001526162 -0.923964
vn -1.581869E-05 1 -3.711771E-05
vn -1.536351E-05 1 -3.656613E-05
vn -1.536351E-05 1 -3.656613E-05
vn -1.490833E-05 1 -3.601453E-05
vn -0.3824769 0 -0.9239651
vn -0.3824769 0 -0.923965
vn -0.3824769 0 -0.923965
vn -0.382477 0 -0.9239652
vn -8.924025E-06 1 -2.155795E-05
vn -8.923946E-06 1 -2.155785E-05
vn -8.923946E-06 1 -2.155785E-05
vn -8.923866E-06 1 -2.155775E-05
vn -0.3824782 0 -0.9239646
vn -0.3824789 -4.443401E-06 -0.9239641
vn -0.3824789 -4.443401E-06 -0.9239641
vn -0.3824797 -8.886799E-06 -0.923964
vn 0 1 0
vn 0 1 0
vn 0 1 0
vn 0 1 0
vn -0.3824784 0 -0.9239645
vn -0.3824784 0 -0.9239645
vn -0.3824784 0 -0.9239645
vn -0.3824784 0 -0.9239645
vn 0.0008471654 0.9999976 0.002046523
vn 0.0008471654 0.9999976 0.002046523
vn 0.0008471654 0.9999976 0.002046523
vn 0.0008471652 0.9999976 0.002046522
vn -0.3824784 0 -0.9239645
vn -0.3824784 0 -0.9239645
vn -0.3824784 0 -0.9239645
vn -0.3824784 0 -0.9239645
vn 0 0.9999999 0
vn 0 1 0
vn 0 1 0
vn 0 1 0
vn -0.3824769 0 -0.923965
vn -0.382477 0 -0.923965
vn -0.382477 0 -0.923965
vn -0.3824769 0 -0.923965
vn -1.936862E-07 1 8.01766E-08
vn -1.936855E-07 0.9999999 8.017745E-08
vn -1.936855E-07 0.9999999 8.017745E-08
vn -1.936848E-07 1 8.017831E-08
vn -0.3824778 0.001528644 -0.9239634
vn -0.3824777 0.001528752 -0.9239634
vn -0.3824777 0.001528752 -0.9239634
vn -0.3824778 0.00152886 -0.9239634
vn -0.001129414 0.9999956 -0.00272837
vn -0.001129538 0.9999956 -0.002728529
vn -0.001129538 0.9999956 -0.002728529
vn -0.001129663 0.9999956 -0.002728687
vn -0.3824765 0.001640273 -0.9239638
vn -0.3824765 0.00164029 -0.9239638
vn -0.3824765 0.00164029 -0.9239638
vn -0.3824765 0.001640307 -0.9239639
vn -0.381768 0.06086215 -0.9222521
vn -0.381768 0.06086185 -0.9222522
vn -0.381768 0.06086215 -0.9222521
vn -0.3817679 0.06086245 -0.9222521

vt -0.4022097 0.9985048
vt -0.4022377 0.9455481
vt 0.5364567 0.998426
vt 1.494862 0.9453873
vt 1.494941 0.9983472
vt 1.003562 0.9983866
vt -0.4024177 0.998382
vt -0.4024493 0.9454656
vt 1.494374 0.9453121
vt 1.494436 0.9982543
vt 1.197861 0.5086337
vt 1.197861 0.2639635
vt 0.9781265 0.2639304
vt 1.63733 0.5086338
vt 1.63733 0.9980403
vt 1.63733 0.2640296
vt 1.63733 0.01922733
vt 1.197861 0.01922733
vt 0.7583919 0.01922733
vt 0.0004996061 0.001692683
vt 0.9995005 0.0004995465
vt 0.9947736 0.9995004
vt 0 0
vt 0 1
vt 1 0
vt 1 1
vt 0 1
vt 0 0
vt 1 1
vt 1 0
vt 0 0
vt 0 1
vt 1 0
vt 1 1
vt 0 1
vt 0 0
vt 1 1
vt 1 0
vt 0 0
vt 0 1
vt 1 0
vt 1 1
vt 0 1
vt 0 0
vt 1 1
vt 1 0
vt 0 0
vt 0 1
vt 1 0
vt 1 1
vt 0 1
vt 0 0
vt 1 1
vt 1 0
vt 0 0
vt 0 1
vt 1 0
vt 1 1
vt 0 1
vt 0 0
vt 1 1
vt 1 0
vt 0 0
vt 0 1
vt 1 0
vt 1 1
vt 0 1
vt 0 0
vt 1 1
vt 1 0
vt 0 0
vt 0 1
vt 1 0
vt 1 1
vt 0 1
vt 0 0
vt 1 1
vt 1 0
vt 0 0
vt 0 1
vt 1 0
vt 1 1
vt 0 1
vt 0 0
vt 1 1
vt 1 0
vt 0 0
vt 0 1
vt 1 0
vt 1 1
vt 0 1
vt 0 0
vt 1 1
vt 1 0
vt 0 0
vt 0 1
vt 1 0
vt 1 1
vt 0 1
vt 0 0
vt 1 1
vt 1 0
vt 0 0
vt 0 1
vt 1 0
vt 1 1
vt 0 1
vt 0 0
vt 1 1
vt 1 0
vt 0 0
vt 0 1
vt 1 0
vt 1 1
vt 0 1
vt 0 0
vt 1 1
vt 1 0
vt 0 0
vt 0 1
vt 1 0
vt 1 1
vt 0 1
vt 0 0
vt 1 1
vt 1 0
vt 0 0
vt 0 1
vt 1 0
vt 1 1
vt 0 1
vt 0 0
vt 1 1
vt 1 0
vt 0 0
vt 0 1
vt 1 0
vt 1 1
vt 1 0
vt 1 1
vt 0 0
vt 0 1
vt 1 1
vt 0 1
vt 0 0
vt 1 0

usemtl sn03_00_sn312.JPG
usemap sn03_00_sn312.JPG
f 3/3/3 1/1/1 2/2/2
f 6/6/6 4/4/4 5/5/5
f 9/9/9 7/7/7 8/8/8
f 6/6/6 2/2/2 4/4/4
f 9/9/9 10/10/10 7/7/7
f 6/6/6 3/3/3 2/2/2
f 22/22/22 20/20/20 21/21/21

usemtl sn03_20_sn333.jpg
usemap sn03_20_sn333.jpg
f 13/13/13 11/11/11 12/12/12
f 12/12/12 11/11/11 14/14/14
f 11/11/11 15/15/15 14/14/14
f 18/18/18 16/16/16 17/17/17
f 19/19/19 13/13/13 18/18/18
f 13/13/13 12/12/12 18/18/18
f 16/16/16 12/12/12 14/14/14
f 18/18/18 12/12/12 16/16/16

usemtl sn03_42_sn300c.jpg
usemap sn03_42_sn300c.jpg
f 25/25/25 23/23/23 24/24/24
f 26/26/26 25/25/25 24/24/24
f 29/29/29 27/27/27 28/28/28
f 30/30/30 29/29/29 28/28/28
f 33/33/33 31/31/31 32/32/32
f 34/34/34 33/33/33 32/32/32
f 37/37/37 35/35/35 36/36/36
f 38/38/38 37/37/37 36/36/36
f 41/41/41 39/39/39 40/40/40
f 42/42/42 41/41/41 40/40/40
f 45/45/45 43/43/43 44/44/44
f 46/46/46 45/45/45 44/44/44
f 49/49/49 47/47/47 48/48/48
f 50/50/50 49/49/49 48/48/48
f 53/53/53 51/51/51 52/52/52
f 54/54/54 53/53/53 52/52/52
f 57/57/57 55/55/55 56/56/56
f 58/58/58 57/57/57 56/56/56
f 61/61/61 59/59/59 60/60/60
f 62/62/62 61/61/61 60/60/60
f 65/65/65 63/63/63 64/64/64
f 66/66/66 65/65/65 64/64/64
f 69/69/69 67/67/67 68/68/68
f 70/70/70 69/69/69 68/68/68
f 73/73/73 71/71/71 72/72/72
f 74/74/74 73/73/73 72/72/72
f 77/77/77 75/75/75 76/76/76
f 78/78/78 77/77/77 76/76/76
f 81/81/81 79/79/79 80/80/80
f 82/82/82 81/81/81 80/80/80
f 85/85/85 83/83/83 84/84/84
f 86/86/86 85/85/85 84/84/84
f 89/89/89 87/87/87 88/88/88
f 90/90/90 89/89/89 88/88/88
f 93/93/93 91/91/91 92/92/92
f 94/94/94 93/93/93 92/92/92
f 97/97/97 95/95/95 96/96/96
f 98/98/98 97/97/97 96/96/96
f 101/101/101 99/99/99 100/100/100
f 102/102/102 101/101/101 100/100/100
f 105/105/105 103/103/103 104/104/104
f 106/106/106 105/105/105 104/104/104
f 109/109/109 107/107/107 108/108/108
f 110/110/110 109/109/109 108/108/108
f 113/113/113 111/111/111 112/112/112
f 114/114/114 113/113/113 112/112/112
f 117/117/117 115/115/115 116/116/116
f 118/118/118 117/117/117 116/116/116
f 121/121/121 119/119/119 120/120/120
f 122/122/122 121/121/121 120/120/120
f 125/125/125 123/123/123 124/124/124
f 126/126/126 125/125/125 124/124/124
f 129/129/129 127/127/127 128/128/128
f 130/130/130 129/129/129 128/128/128
f 133/133/133 131/131/131 132/132/132
f 134/134/134 133/133/133 132/132/132
f 137/137/137 135/135/135 136/136/136
f 138/138/138 137/137/137 136/136/136
f 141/141/141 139/139/139 140/140/140
f 142/142/142 141/141/141 140/140/140
f 145/145/145 143/143/143 144/144/144
f 143/143/143 145/145/145 146/146/146
