mtllib ./tizi2.mtl
g tizi2
v 54.98157 -49.95934 -65.07023
v 51.49817 -49.95934 -68.86839
v -74.44808 50.04066 47.30898
v 78.77798 -49.95934 -39.12496
v 19.21422 0.04065323 22.68267
v 50.70078 -24.95937 -6.361706
v 82.18734 -49.95934 -35.40602
v -47.35735 50.04066 76.84624
v -43.75896 50.04066 80.7713
v -71.71083 50.04066 50.29352
v -47.30431 0.04066849 76.90259
v -47.35735 50.04066 76.84624
v 15.66887 0.04065323 18.81396
v -47.30431 -49.95934 76.90259
v -47.30431 -24.95933 76.90259
v 15.66881 -49.95934 18.81396
v 15.66881 -24.95936 18.81396
v 47.15543 -24.95937 -10.23042
v 78.77798 -49.95934 -39.12496
v -71.67373 -49.89162 50.25945
v 55.01867 -50.04152 -65.10429
v 54.98157 -49.95934 -65.07023
v -71.71083 50.04066 50.29352
v 21.6129 -25.27943 -35.83708
v 13.87669 -25.29385 -28.74756
v 46.19177 -25.27942 -9.016327
v 38.45556 -25.29384 -1.926744
v 21.6129 -31.45294 -35.83708
v 21.6129 -25.27943 -35.83708
v 46.19177 -31.45293 -9.016327
v 46.19177 -25.27942 -9.016327
v 29.94931 -31.45294 -43.4766
v 21.6129 -31.45294 -35.83708
v 54.52818 -31.45294 -16.65584
v 46.19177 -31.45293 -9.016327
v 29.94931 -37.89145 -43.4766
v 29.94931 -31.45294 -43.4766
v 54.52818 -37.89145 -16.65584
v 54.52818 -31.45294 -16.65584
v 37.51918 -37.89145 -50.41376
v 29.94931 -37.89145 -43.4766
v 62.09805 -37.89145 -23.593
v 54.52818 -37.89145 -16.65584
v 37.51918 -43.70279 -50.41376
v 37.51918 -37.89145 -50.41376
v 62.09805 -43.70278 -23.59306
v 62.09805 -37.89145 -23.593
v 45.60843 -43.70279 -57.82685
v 37.51918 -43.70279 -50.41376
v 70.18729 -43.70278 -31.00616
v 62.09805 -43.70278 -23.59306
v 45.60128 -50.10812 -57.82032
v 45.60843 -43.70279 -57.82685
v 70.18015 -50.10811 -30.99957
v 70.18729 -43.70278 -31.00616
v -65.28901 44.37859 43.80096
v -72.00953 44.37859 49.95961
v -40.71014 44.37859 70.62165
v -47.43066 44.37859 76.78037
v -65.28901 37.70062 43.80096
v -65.28901 44.37859 43.80096
v -40.71014 37.70062 70.62165
v -40.71014 44.37859 70.62165
v -56.95266 37.70062 36.16138
v -65.28901 37.70062 43.80096
v -32.37379 37.70062 62.98214
v -40.71014 37.70062 70.62165
v -56.95266 30.57854 36.16138
v -56.95266 37.70062 36.16138
v -32.37379 30.57854 62.98214
v -32.37379 37.70062 62.98214
v -48.67751 30.57854 28.57793
v -56.95266 30.57854 36.16138
v -24.09864 30.57854 55.39869
v -32.37379 30.57854 62.98214
v -48.67751 24.53977 28.57793
v -48.67751 30.57854 28.57793
v -24.09864 24.53978 55.39869
v -24.09864 30.57854 55.39869
v -40.58826 24.53978 21.16484
v -48.67751 24.53977 28.57793
v -16.0094 24.53978 47.98559
v -24.09864 24.53978 55.39869
v -40.59541 18.18864 21.17143
v -40.58826 24.53978 21.16484
v -16.01654 18.18864 47.99218
v -16.0094 24.53978 47.98559
v -32.37365 18.18819 13.63684
v -40.59541 18.18864 21.17143
v -7.794722 18.18821 40.45759
v -16.01654 18.18864 47.99218
v -32.37365 12.554 13.63684
v -32.37365 18.18819 13.63684
v -7.794722 12.554 40.45759
v -7.794722 18.18821 40.45759
v -25.14453 12.55377 7.012039
v -32.37365 12.554 13.63684
v -0.5656585 12.55378 33.83279
v -7.794722 12.554 40.45759
v -25.14453 6.188942 7.012039
v -25.14453 12.55377 7.012039
v -0.5656585 6.188942 33.83279
v -0.5656585 12.55378 33.83279
v -17.76165 6.188942 0.2462165
v -25.14453 6.188942 7.012039
v 6.817221 6.188942 27.06703
v -0.5656585 6.188942 33.83279
v -17.76165 0.0533371 0.2462165
v -17.76165 6.188942 0.2462165
v 6.817221 0.0533371 27.06703
v 6.817221 6.188942 27.06703
v -10.12374 0.07629395 -6.753232
v -17.76165 0.0533371 0.2462165
v 14.45513 0.07629395 20.06752
v 6.817221 0.0533371 27.06703
v -10.12374 -6.242939 -6.753232
v -10.12374 0.07629395 -6.753232
v 14.45513 -6.242939 20.06752
v 14.45513 0.07629395 20.06752
v -1.993329 -6.242939 -14.20409
v -10.12374 -6.242939 -6.753232
v 22.58554 -6.242939 12.61672
v 14.45513 -6.242939 20.06752
v -1.993329 -12.54257 -14.20409
v -1.993329 -6.242939 -14.20409
v 22.58554 -12.54256 12.61672
v 22.58554 -6.242939 12.61672
v 6.364932 -12.54257 -21.86363
v -1.993329 -12.54257 -14.20409
v 30.9438 -12.54256 4.957123
v 22.58554 -12.54256 12.61672
v 6.372257 -19.02382 -21.87035
v 6.364932 -12.54257 -21.86363
v 30.95113 -19.02381 4.950408
v 30.9438 -12.54256 4.957123
v 13.86918 -19.05386 -28.7406
v 6.372257 -19.02382 -21.87035
v 38.44805 -19.05386 -1.919844
v 30.95113 -19.02381 4.950408
v 13.87669 -25.29385 -28.74756
v 13.86918 -19.05386 -28.7406
v 38.45556 -25.29384 -1.926744
v 38.44805 -19.05386 -1.919844
v -72.11407 49.96613 50.05548
v -47.5352 49.96613 76.87624
v -47.43066 44.37859 76.78037
v -72.00953 44.37859 49.95961

vn -0.3375304 0.8636729 -0.3743556
vn -0.337529 0.863673 -0.3743569
vn -0.3375304 0.8636729 -0.3743556
vn -0.3374529 0.8636729 -0.374426
vn -0.3374539 0.8636729 -0.3744252
vn -0.3374509 0.8636729 -0.3744276
vn -0.3374529 0.863673 -0.3744252
vn -0.3374547 0.8636729 -0.3744244
vn -0.3374565 0.8636729 -0.3744228
vn -0.3375323 0.8636729 -0.3743541
vn -0.7407659 -0.001031692 0.6717625
vn -0.7407654 -0.001547537 0.671762
vn -0.740766 -0.0006872623 0.6717628
vn -0.740766 0 0.6717632
vn -0.740766 3.989541E-07 0.671763
vn -0.7412945 0 0.67118
vn -0.741162 -0.001010896 0.6713256
vn -0.7407598 -0.004045127 0.6717578
vn -0.7418197 -0.00269733 0.670594
vn 0.745079 -4.275137E-06 -0.666976
vn 0.7450773 -0.002567264 -0.6669732
vn 0.745079 -4.275137E-06 -0.666976
vn 0.7450791 -2.16785E-06 -0.6669761
vn 0.0009196663 0.999999 0.001021044
vn 0.000919664 0.999999 0.001021043
vn 0.000919664 0.999999 0.001021043
vn 0.0009196615 0.999999 0.001021041
vn -0.6693419 0 -0.7429546
vn -0.6693419 0 -0.7429546
vn -0.6693419 0 -0.7429546
vn -0.6693419 0 -0.7429546
vn -6.074316E-07 1 -3.609182E-07
vn -5.315027E-07 1 -3.158034E-07
vn -5.315027E-07 1 -3.158034E-07
vn -4.555737E-07 1 -2.706887E-07
vn -0.6693418 0 -0.7429546
vn -0.6693419 0 -0.7429547
vn -0.6693419 0 -0.7429547
vn -0.6693418 0 -0.7429546
vn -7.790468E-08 1 7.018622E-08
vn -7.790469E-08 1 7.018622E-08
vn -7.790469E-08 1 7.018622E-08
vn -7.790469E-08 1 7.018621E-08
vn -0.6693428 0 -0.7429539
vn -0.6693423 3.547959E-06 -0.7429541
vn -0.6693423 3.547959E-06 -0.7429541
vn -0.6693419 7.095913E-06 -0.7429546
vn -7.790493E-08 1 7.018613E-08
vn -7.790493E-08 1 7.018614E-08
vn -7.790493E-08 1 7.018614E-08
vn -7.790491E-08 0.9999999 7.018614E-08
vn -0.6693411 -0.001511226 -0.7429539
vn -0.6693414 -0.001514326 -0.7429535
vn -0.6693414 -0.001514326 -0.7429535
vn -0.6693419 -0.001517426 -0.742953
vn 5.602122E-07 1 6.218218E-07
vn 5.602105E-07 1 6.218205E-07
vn 5.602105E-07 1 6.218205E-07
vn 5.602088E-07 1 6.218194E-07
vn -0.6693427 0 -0.7429537
vn -0.6693427 0 -0.7429537
vn -0.6693427 0 -0.7429537
vn -0.6693427 0 -0.7429537
vn 0 1 0
vn 0 1 0
vn 0 1 0
vn 0 1 0
vn -0.6693417 0 -0.7429546
vn -0.6693417 0 -0.7429546
vn -0.6693417 0 -0.7429546
vn -0.6693417 0 -0.7429546
vn 0 1 0
vn 0 0.9999999 0
vn 0 0.9999999 0
vn 0 1 0
vn -0.6693418 0 -0.7429545
vn -0.6693418 0 -0.7429546
vn -0.6693418 0 -0.7429546
vn -0.6693419 0 -0.7429546
vn 4.654177E-07 1 5.166033E-07
vn 1.548041E-07 1 3.284878E-07
vn 1.548041E-07 1 3.284878E-07
vn -1.558097E-07 1 1.403721E-07
vn -0.6693411 -0.001530614 -0.7429537
vn -0.6693411 -0.001530503 -0.7429537
vn -0.6693411 -0.001530503 -0.7429537
vn -0.6693411 -0.001530393 -0.7429538
vn -2.732864E-05 1 -2.970747E-05
vn -2.671484E-05 1 -2.933953E-05
vn -2.671484E-05 1 -2.933953E-05
vn -2.610105E-05 1 -2.897158E-05
vn -0.6693428 0 -0.7429538
vn -0.6693428 0 -0.7429538
vn -0.6693428 0 -0.7429538
vn -0.6693428 0 -0.7429536
vn -1.570178E-05 1 -1.727197E-05
vn -1.553267E-05 1 -1.716257E-05
vn -1.553267E-05 1 -1.716257E-05
vn -1.536357E-05 1 -1.705318E-05
vn -0.6693419 0 -0.7429546
vn -0.6693419 0 -0.7429546
vn -0.6693419 0 -0.7429546
vn -0.6693418 0 -0.7429546
vn 0 1 0
vn 0 0.9999999 0
vn 0 0.9999999 0
vn 0 1 0
vn -0.669341 0 -0.7429553
vn -0.669341 0 -0.7429553
vn -0.669341 0 -0.7429553
vn -0.669341 0 -0.7429553
vn 0.001483197 0.9999976 0.001646315
vn 0.001483193 0.9999976 0.001646313
vn 0.001483193 0.9999976 0.001646313
vn 0.001483189 0.9999976 0.001646311
vn -0.6693419 0 -0.7429547
vn -0.6693419 0 -0.7429547
vn -0.6693419 0 -0.7429547
vn -0.6693419 0 -0.7429547
vn 0 1 0
vn 0 1 0
vn 0 1 0
vn 0 1 0
vn -0.669341 0 -0.7429554
vn -0.669341 0 -0.7429553
vn -0.669341 0 -0.7429553
vn -0.669341 0 -0.7429554
vn -1.558105E-07 1 1.403712E-07
vn -1.558101E-07 1 1.403714E-07
vn -1.558101E-07 1 1.403714E-07
vn -1.558097E-07 1 1.403717E-07
vn -0.6693411 0.00153326 -0.7429537
vn -0.669341 0.001533341 -0.7429537
vn -0.669341 0.001533341 -0.7429537
vn -0.669341 0.001533423 -0.7429538
vn -0.001977493 0.9999955 -0.002194974
vn -0.00197774 0.9999955 -0.00219513
vn -0.00197774 0.9999955 -0.00219513
vn -0.001977987 0.9999955 -0.002195287
vn -0.6693402 0.001640531 -0.7429543
vn -0.6693405 0.001637302 -0.7429539
vn -0.6693405 0.001637302 -0.7429539
vn -0.669341 0.001634072 -0.7429537
vn -0.6691263 0.02537662 -0.7427154
vn -0.6691263 0.02537632 -0.7427154
vn -0.6691263 0.02537662 -0.7427154
vn -0.6691263 0.02537692 -0.7427154

vt 1.214631 0.9488063
vt 1.215327 0.997383
vt -0.7756556 0.9982426
vt 1.20985 0.995527
vt 0.2168485 0.9482131
vt 0.7137544 0.9479973
vt 1.209196 0.9477816
vt -0.7760407 0.9978904
vt -0.7760928 0.9486445
vt -0.7756944 0.9526492
vt 2.360837 0.5086338
vt 2.360837 0.9980403
vt 2.740169 0.5086337
vt 2.360837 0.01922733
vt 2.360837 0.2639306
vt 2.740169 0.01922733
vt 2.740169 0.2639304
vt 2.929835 0.2639302
vt 3.1195 0.01922733
vt 0.0007930994 0.001996428
vt 0.9995006 0.0004995465
vt 0.9992068 0.001319885
vt 0.0004996359 0.9995004
vt 0 0
vt 0 1
vt 1 0
vt 1 1
vt 0 1
vt 0 0
vt 1 1
vt 1 0
vt 0 0
vt 0 1
vt 1 0
vt 1 1
vt 0 1
vt 0 0
vt 1 1
vt 1 0
vt 0 0
vt 0 1
vt 1 0
vt 1 1
vt 0 1
vt 0 0
vt 1 1
vt 1 0
vt 0 0
vt 0 1
vt 1 0
vt 1 1
vt 0 1
vt 0 0
vt 1 1
vt 1 0
vt 0 0
vt 0 1
vt 1 0
vt 1 1
vt 0 1
vt 0 0
vt 1 1
vt 1 0
vt 0 0
vt 0 1
vt 1 0
vt 1 1
vt 0 1
vt 0 0
vt 1 1
vt 1 0
vt 0 0
vt 0 1
vt 1 0
vt 1 1
vt 0 1
vt 0 0
vt 1 1
vt 1 0
vt 0 0
vt 0 1
vt 1 0
vt 1 1
vt 0 1
vt 0 0
vt 1 1
vt 1 0
vt 0 0
vt 0 1
vt 1 0
vt 1 1
vt 0 1
vt 0 0
vt 1 1
vt 1 0
vt 0 0
vt 0 1
vt 1 0
vt 1 1
vt 0 1
vt 0 0
vt 1 1
vt 1 0
vt 0 0
vt 0 1
vt 1 0
vt 1 1
vt 0 1
vt 0 0
vt 1 1
vt 1 0
vt 0 0
vt 0 1
vt 1 0
vt 1 1
vt 0 1
vt 0 0
vt 1 1
vt 1 0
vt 0 0
vt 0 1
vt 1 0
vt 1 1
vt 0 1
vt 0 0
vt 1 1
vt 1 0
vt 0 0
vt 0 1
vt 1 0
vt 1 1
vt 0 1
vt 0 0
vt 1 1
vt 1 0
vt 0 0
vt 0 1
vt 1 0
vt 1 1
vt 1 0
vt 1 1
vt 0 0
vt 0 1
vt 1 1
vt 0 1
vt 0 0
vt 1 0

usemtl sn03_00_sn312.JPG
usemap sn03_00_sn312.JPG
f 3/3/3 1/1/1 2/2/2
f 6/6/6 4/4/4 5/5/5
f 7/7/7 4/4/4 6/6/6
f 5/5/5 8/8/8 9/9/9
f 3/3/3 10/10/10 1/1/1
f 5/5/5 4/4/4 8/8/8
f 22/22/22 20/20/20 21/21/21
f 20/20/20 22/22/22 23/23/23

usemtl sn03_20_sn333.jpg
usemap sn03_20_sn333.jpg
f 13/13/13 11/11/11 12/12/12
f 16/16/16 14/14/14 15/15/15
f 18/18/18 17/17/17 13/13/13
f 13/13/13 15/15/15 11/11/11
f 19/19/19 17/17/17 18/18/18
f 17/17/17 15/15/15 13/13/13
f 19/19/19 16/16/16 17/17/17
f 16/16/16 15/15/15 17/17/17

usemtl sn03_42_sn300c.jpg
usemap sn03_42_sn300c.jpg
f 26/26/26 24/24/24 25/25/25
f 27/27/27 26/26/26 25/25/25
f 30/30/30 28/28/28 29/29/29
f 31/31/31 30/30/30 29/29/29
f 34/34/34 32/32/32 33/33/33
f 35/35/35 34/34/34 33/33/33
f 38/38/38 36/36/36 37/37/37
f 39/39/39 38/38/38 37/37/37
f 42/42/42 40/40/40 41/41/41
f 43/43/43 42/42/42 41/41/41
f 46/46/46 44/44/44 45/45/45
f 47/47/47 46/46/46 45/45/45
f 50/50/50 48/48/48 49/49/49
f 51/51/51 50/50/50 49/49/49
f 54/54/54 52/52/52 53/53/53
f 55/55/55 54/54/54 53/53/53
f 58/58/58 56/56/56 57/57/57
f 59/59/59 58/58/58 57/57/57
f 62/62/62 60/60/60 61/61/61
f 63/63/63 62/62/62 61/61/61
f 66/66/66 64/64/64 65/65/65
f 67/67/67 66/66/66 65/65/65
f 70/70/70 68/68/68 69/69/69
f 71/71/71 70/70/70 69/69/69
f 74/74/74 72/72/72 73/73/73
f 75/75/75 74/74/74 73/73/73
f 78/78/78 76/76/76 77/77/77
f 79/79/79 78/78/78 77/77/77
f 82/82/82 80/80/80 81/81/81
f 83/83/83 82/82/82 81/81/81
f 86/86/86 84/84/84 85/85/85
f 87/87/87 86/86/86 85/85/85
f 90/90/90 88/88/88 89/89/89
f 91/91/91 90/90/90 89/89/89
f 94/94/94 92/92/92 93/93/93
f 95/95/95 94/94/94 93/93/93
f 98/98/98 96/96/96 97/97/97
f 99/99/99 98/98/98 97/97/97
f 102/102/102 100/100/100 101/101/101
f 103/103/103 102/102/102 101/101/101
f 106/106/106 104/104/104 105/105/105
f 107/107/107 106/106/106 105/105/105
f 110/110/110 108/108/108 109/109/109
f 111/111/111 110/110/110 109/109/109
f 114/114/114 112/112/112 113/113/113
f 115/115/115 114/114/114 113/113/113
f 118/118/118 116/116/116 117/117/117
f 119/119/119 118/118/118 117/117/117
f 122/122/122 120/120/120 121/121/121
f 123/123/123 122/122/122 121/121/121
f 126/126/126 124/124/124 125/125/125
f 127/127/127 126/126/126 125/125/125
f 130/130/130 128/128/128 129/129/129
f 131/131/131 130/130/130 129/129/129
f 134/134/134 132/132/132 133/133/133
f 135/135/135 134/134/134 133/133/133
f 138/138/138 136/136/136 137/137/137
f 139/139/139 138/138/138 137/137/137
f 142/142/142 140/140/140 141/141/141
f 143/143/143 142/142/142 141/141/141
f 146/146/146 144/144/144 145/145/145
f 144/144/144 146/146/146 147/147/147
