mtllib ./tone01.mtl
g tone01
v 13.69759 -12.09061 36.37402
v -0.5529881 -12.09061 3.105743
v 15.94372 -12.09061 4.549042
v -4.484781 -12.09061 48.047
v -20.36396 -12.09061 33.39404
v -0.5529881 -12.09061 3.105743
v -17.0496 -12.09061 1.662537
v -0.5529881 -12.09061 3.105743
v -20.23045 -12.09061 -36.66037
v -0.5529881 -12.09061 3.105743
v 1.2181 -12.09061 -48.04758
v -0.5529881 -12.09061 3.105743
v 20.36345 -12.09061 -33.10889
v -0.5529881 -12.09061 3.105743
v 15.94372 -12.09061 4.549042
v -0.5529881 -12.09061 3.105743
v 20.36345 -12.09061 -33.10889
v 13.69759 -0.0003051758 36.37402
v 15.94372 -12.09061 4.549042
v 15.94375 -0.0003051758 4.549072
v 13.69759 -12.09061 36.37402
v 15.94372 -12.09061 4.549042
v 13.69759 -0.0003051758 36.37402
v -4.484812 -0.0003051758 48.047
v 13.69759 -12.09061 36.37402
v 13.69759 -0.0003051758 36.37402
v -4.484781 -12.09061 48.047
v -20.36396 -0.0003051758 33.39404
v -4.484781 -12.09061 48.047
v -20.36396 -12.09061 33.39404
v -4.484781 -12.09061 48.047
v -20.36396 -0.0003051758 33.39404
v -17.04963 -0.0003051758 1.662476
v -20.36396 -12.09061 33.39404
v -20.36396 -0.0003051758 33.39404
v -17.0496 -12.09061 1.662537
v -20.23048 -0.0003051758 -36.66037
v -20.23045 -12.09061 -36.66037
v 1.218069 -0.0003051758 -48.04764
v -20.23045 -12.09061 -36.66037
v -20.23048 -0.0003051758 -36.66037
v 1.2181 -12.09061 -48.04758
v 20.36342 -0.0003051758 -33.10889
v 20.36345 -12.09061 -33.10889
v 20.36342 -0.0003051758 -33.10889
v 15.94375 -0.0003051758 4.549072
v 20.36345 -12.09061 -33.10889
v 20.36342 -0.0003051758 -33.10889
v 15.94372 -12.09061 4.549042
v 20.36345 -12.09061 -33.10889
v 7.263205 12.09 21.22577
v 15.94375 -0.0003051758 4.549072
v 8.532187 12.09 3.245544
v 13.69759 -0.0003051758 36.37402
v 15.94375 -0.0003051758 4.549072
v 7.263205 12.09 21.22577
v -3.009317 12.09 27.82068
v 13.69759 -0.0003051758 36.37402
v 7.263205 12.09 21.22577
v -4.484812 -0.0003051758 48.047
v -3.009317 12.09 27.82068
v -11.98063 12.09 19.54218
v -4.484812 -0.0003051758 48.047
v -4.484812 -0.0003051758 48.047
v -11.98063 12.09 19.54218
v -10.1081 12.09 1.614746
v -20.36396 -0.0003051758 33.39404
v -11.98063 12.09 19.54218
v -10.1081 12.09 1.614746
v -11.90519 12.09 -20.03662
v 0.2126675 12.09 -26.47006
v -11.90519 12.09 -20.03662
v 11.02923 12.09 -18.03009
v 20.36342 -0.0003051758 -33.10889
v 11.02923 12.09 -18.03009
v 8.532187 12.09 3.245544
v 20.36342 -0.0003051758 -33.10889
v 11.02923 12.09 -18.03009
v 15.94375 -0.0003051758 4.549072
v 20.36342 -0.0003051758 -33.10889
v 8.532187 12.09 3.245544
v -0.7879429 12.09 2.430176
v 7.263205 12.09 21.22577
v 7.263205 12.09 21.22577
v -3.009317 12.09 27.82068
v -3.009317 12.09 27.82068
v -11.98063 12.09 19.54218
v -11.98063 12.09 19.54218
v -10.1081 12.09 1.614746
v -10.1081 12.09 1.614746
v -11.90519 12.09 -20.03662
v 0.2126675 12.09 -26.47006
v 11.02923 12.09 -18.03009
v 11.02923 12.09 -18.03009
v 8.532187 12.09 3.245544

vn 0 -0.9999999 0
vn 0 -0.9999999 0
vn 0 -1 0
vn 0 -1 0
vn 0 -1 0
vn 0 -0.9999999 0
vn 0 -1 0
vn 0 -1 0
vn 0 -1 0
vn 0 -1 0
vn 0 -1 0
vn 0 -1 0
vn 0 -1 0
vn 0 -1 0
vn 0 -1 0
vn 0 -1 0
vn 0 -1 0
vn 0.9975186 -2.689956E-06 0.07040329
vn 0.9975186 -2.689956E-06 0.07040329
vn 0.9954296 -2.751078E-06 0.09549732
vn 0.9975187 0 0.07040227
vn 0.9975187 0 0.07040227
vn 0.9975187 0 0.07040227
vn 0.1641358 -1.347338E-07 0.9864377
vn 0.5402433 6.81824E-07 0.8415089
vn 0.5402429 0 0.8415092
vn 0.5402436 1.363649E-06 0.8415087
vn -0.5670123 0.5485749 0.6144614
vn -0.678162 -1.693906E-06 0.7349123
vn -0.6781614 0 0.7349131
vn -0.6781614 0 0.7349131
vn -0.6781614 0 0.7349131
vn -0.9648674 0.2625867 -0.008897315
vn -0.9945894 -1.517459E-06 -0.1038845
vn -0.9564232 0.2743633 -0.09989746
vn -0.999605 -2.530261E-06 0.02810672
vn -0.9789082 0.1874489 0.08125065
vn -0.996573 -2.515487E-06 0.08271676
vn 0.02834761 0.6326734 -0.7738997
vn -0.4689207 -3.418898E-06 -0.8832403
vn -0.3420151 0.6841236 -0.6442056
vn 0.2956766 -2.51648E-06 -0.9552882
vn 0.6151695 -2.390679E-06 -0.788395
vn 0.6151679 1.552768E-06 -0.7883962
vn 0.6151679 1.552768E-06 -0.7883962
vn 0.9931833 2.496415E-06 0.1165637
vn 0.9931833 2.496415E-06 0.1165637
vn 0.9931833 2.496415E-06 0.1165637
vn 0.9931831 -2.801157E-06 0.1165653
vn 0.9931831 -2.801157E-06 0.1165653
vn 0.8481407 0.5263784 0.05985883
vn 0.8481407 0.5263784 0.05985883
vn 0.8451903 0.527433 0.08641548
vn 0.8481417 0.5263768 0.0598605
vn 0.8481417 0.5263768 0.0598605
vn 0.8481417 0.5263768 0.0598605
vn 0.3228234 0.801831 0.5028439
vn 0.322823 0.8018308 0.5028445
vn 0.3228234 0.801831 0.5028439
vn 0.3228228 0.8018308 0.5028448
vn 0.06443841 0.8544823 0.5154684
vn -0.4110484 0.7953711 0.4454481
vn -0.4110484 0.7953711 0.4454481
vn -0.4110505 0.7953699 0.4454482
vn -0.4110505 0.7953699 0.4454482
vn -0.8638461 0.4956093 -0.09022912
vn -0.8638461 0.4956093 -0.09022912
vn -0.8638461 0.4956093 -0.09022912
vn -0.867007 0.4976863 -0.02464196
vn -0.8648685 0.4968393 0.07178518
vn -0.1035353 0.8656341 -0.4898552
vn -0.2556882 0.8382587 -0.4816075
vn 0.3479172 0.8247055 -0.4458861
vn 0.3479163 0.824706 -0.445886
vn 0.3479163 0.824706 -0.445886
vn 0.8435802 0.5277972 0.09900779
vn 0.8435802 0.5277972 0.09900779
vn 0.8435802 0.5277972 0.09900779
vn 0.8435777 0.5278018 0.09900541
vn 0.8435777 0.5278018 0.09900541
vn 0 0.9999999 0
vn 0 1 0
vn 0 0.9999999 0
vn 0 0.9999999 0
vn 0 0.9999999 0
vn 0 1 0
vn 0 1 0
vn 0 1 0
vn 0 1 0
vn 0 1 0
vn 0 1 0
vn 0 1 0
vn 0 1 0
vn 0 1 0
vn 0 1 0

vt 0.2077304 0.7683872
vt 0.4602131 0.5230715
vt 0.2156485 0.5230714
vt 0.460213 0.8700004
vt 0.7126957 0.7683873
vt 0.4602131 0.5230715
vt 0.7047777 0.5230715
vt 0.4602131 0.5230715
vt 0.8009039 0.2316128
vt 0.4602131 0.5230715
vt 0.5000001 0.1299997
vt 0.4602131 0.5230715
vt 0.1990961 0.2316127
vt 0.4602131 0.5230715
vt 0.2156485 0.5230714
vt 0.4602131 0.5230715
vt 0.1990961 0.2316127
vt 0.7683872 0.5
vt 0.5230714 0.2586954
vt 0.5230714 0.5
vt 0.7683872 0.2586954
vt 0.5230714 0.2586954
vt 0.7683872 0.5
vt 0.460213 0.5
vt 0.2077304 0.2586954
vt 0.2077304 0.5
vt 0.460213 0.2586954
vt 0.7126957 0.5
vt 0.460213 0.2586954
vt 0.7126957 0.2586954
vt 0.460213 0.2586954
vt 0.7126957 0.5
vt 0.4769285 0.5
vt 0.2316127 0.2586954
vt 0.2316127 0.5
vt 0.4769285 0.2586954
vt 0.7683872 0.5
vt 0.7683872 0.2586954
vt 0.5 0.5
vt 0.1990961 0.2586954
vt 0.1990961 0.5
vt 0.5 0.2586954
vt 0.8009039 0.5
vt 0.8009039 0.2586954
vt 0.8009039 0.5
vt 0.5230714 0.5
vt 0.2316127 0.2586954
vt 0.2316127 0.5
vt 0.5230714 0.2586954
vt 0.2316127 0.2586954
vt 0.6566495 0.7413046
vt 0.5230714 0.5
vt 0.5180531 0.7413046
vt 0.7683872 0.5
vt 0.5230714 0.5
vt 0.6566495 0.7413046
vt 0.46454 0.7413046
vt 0.2077304 0.5
vt 0.3218945 0.7413046
vt 0.460213 0.5
vt 0.46454 0.7413046
vt 0.6071856 0.7413046
vt 0.460213 0.5
vt 0.460213 0.5
vt 0.6071856 0.7413046
vt 0.4819469 0.7413046
vt 0.2316127 0.5
vt 0.3433504 0.7413046
vt 0.4819469 0.7413046
vt 0.6466128 0.7413046
vt 0.5129815 0.7413046
vt 0.3429793 0.7413046
vt 0.6829836 0.7413046
vt 0.8009039 0.5
vt 0.6829836 0.7413046
vt 0.5180531 0.7413046
vt 0.2316127 0.5
vt 0.3533871 0.7413046
vt 0.5230714 0.5
vt 0.2316127 0.5
vt 0.673632 0.5180531
vt 0.5354599 0.5180531
vt 0.6781055 0.6566495
vt 0.6781055 0.6566495
vt 0.53546 0.714058
vt 0.53546 0.714058
vt 0.3928144 0.6566496
vt 0.3928144 0.6566496
vt 0.3972878 0.5180531
vt 0.3972878 0.5180531
vt 0.3429793 0.3533872
vt 0.5129815 0.2959786
vt 0.6829836 0.3533871
vt 0.6829836 0.3533871
vt 0.673632 0.5180531

usemtl sn03_03_sn308.JPG
usemap sn03_03_sn308.JPG
f 3/3/3 1/1/1 2/2/2
f 1/1/1 4/4/4 2/2/2
f 4/4/4 5/5/5 6/6/6
f 5/5/5 7/7/7 8/8/8
f 7/7/7 9/9/9 10/10/10
f 9/9/9 11/11/11 12/12/12
f 11/11/11 13/13/13 14/14/14
f 17/17/17 15/15/15 16/16/16
f 20/20/20 18/18/18 19/19/19
f 23/23/23 21/21/21 22/22/22
f 26/26/26 24/24/24 25/25/25
f 24/24/24 27/27/27 25/25/25
f 24/24/24 28/28/28 29/29/29
f 32/32/32 30/30/30 31/31/31
f 35/35/35 33/33/33 34/34/34
f 33/33/33 36/36/36 34/34/34
f 33/33/33 37/37/37 36/36/36
f 37/37/37 38/38/38 36/36/36
f 41/41/41 39/39/39 40/40/40
f 39/39/39 42/42/42 40/40/40
f 39/39/39 43/43/43 42/42/42
f 45/45/45 44/44/44 42/42/42
f 48/48/48 46/46/46 47/47/47
f 20/20/20 49/49/49 50/50/50
f 53/53/53 51/51/51 52/52/52
f 56/56/56 54/54/54 55/55/55
f 59/59/59 57/57/57 58/58/58
f 61/61/61 60/60/60 58/58/58
f 61/61/61 62/62/62 63/63/63
f 65/65/65 28/28/28 64/64/64
f 68/68/68 66/66/66 67/67/67
f 69/69/69 33/33/33 35/35/35
f 69/69/69 70/70/70 33/33/33
f 70/70/70 37/37/37 33/33/33
f 72/72/72 71/71/71 41/41/41
f 71/71/71 39/39/39 41/41/41
f 71/71/71 73/73/73 39/39/39
f 75/75/75 74/74/74 39/39/39
f 78/78/78 76/76/76 77/77/77
f 53/53/53 79/79/79 80/80/80
f 83/83/83 81/81/81 82/82/82
f 85/85/85 84/84/84 82/82/82
f 87/87/87 86/86/86 82/82/82
f 89/89/89 88/88/88 82/82/82
f 91/91/91 90/90/90 82/82/82
f 92/92/92 91/91/91 82/82/82
f 93/93/93 92/92/92 82/82/82
f 95/95/95 94/94/94 82/82/82
