mtllib ./wu.mtl
g wu
v -0.0001869202 348.8884 2691.502
v -0.0001983643 2601.696 2245.751
v 1903.179 348.8884 1903.179
v 1587.986 2601.696 1587.986
v 2691.501 348.8884 -0.0002593994
v 2245.751 2601.695 -0.0002441406
v 1903.178 348.8884 -1903.18
v 1587.986 2601.696 -1587.986
v -0.0006561279 348.8884 -2691.502
v -0.0005912781 2601.696 -2245.751
v -1903.18 348.8884 -1903.179
v -1587.986 2601.696 -1587.986
v -2691.502 348.8884 0.0004577637
v -2245.751 2601.696 0.0003509521
v -1903.179 348.8884 1903.18
v -1587.986 2601.696 1587.987
v -0.0001869202 348.8884 2691.502
v -0.0001983643 2601.696 2245.751

vn -0.3764454 -0.1798231 -0.9088193
vn -0.3764453 -0.179823 -0.9088194
vn -0.6047654 -0.1927274 -0.7727321
vn -0.7921902 -0.1918899 -0.5793212
vn -0.9740379 -0.1927274 -0.1187703
vn -0.9698049 -0.1918899 0.1505212
vn -0.772732 -0.1927275 0.6047655
vn -0.5793211 -0.1918899 0.7921902
vn -0.1187703 -0.1927275 0.9740379
vn 0.1505211 -0.19189 0.9698049
vn 0.6047655 -0.1927275 0.772732
vn 0.7921902 -0.19189 0.5793211
vn 0.9740378 -0.1927276 0.1187702
vn 0.9698049 -0.19189 -0.1505213
vn 0.772732 -0.1927275 -0.6047655
vn 0.5793211 -0.1918899 -0.7921902
vn 0.3764451 -0.179823 -0.9088194
vn 0.376445 -0.1798231 -0.9088194

vt -3.576279E-07 0.0004995465
vt -3.576279E-07 0.9995005
vt 0.7499999 0.0004995465
vt 0.7499999 0.9995005
vt 1.5 0.0004995465
vt 1.5 0.9995005
vt 2.25 0.0004995465
vt 2.25 0.9995005
vt 3 0.0004995465
vt 3 0.9995005
vt 3.75 0.0004995465
vt 3.75 0.9995005
vt 4.5 0.0004995465
vt 4.5 0.9995005
vt 5.25 0.0004995465
vt 5.25 0.9995005
vt 6 0.0004995465
vt 6 0.9995005

usemtl sn03_28_asn3wu.bmp
usemap sn03_28_asn3wu.bmp
f 3/3/3 1/1/1 2/2/2
f 4/4/4 3/3/3 2/2/2
f 5/5/5 3/3/3 4/4/4
f 6/6/6 5/5/5 4/4/4
f 7/7/7 5/5/5 6/6/6
f 8/8/8 7/7/7 6/6/6
f 9/9/9 7/7/7 8/8/8
f 10/10/10 9/9/9 8/8/8
f 11/11/11 9/9/9 10/10/10
f 12/12/12 11/11/11 10/10/10
f 13/13/13 11/11/11 12/12/12
f 14/14/14 13/13/13 12/12/12
f 15/15/15 13/13/13 14/14/14
f 16/16/16 15/15/15 14/14/14
f 17/17/17 15/15/15 16/16/16
f 18/18/18 17/17/17 16/16/16
