mtllib ./Box03.mtl
g Box03
v -0.6257353 1.298202 -44.03218
v -4.035818 1.298202 -43.85128
v 0.5028108 1.298216 41.70343
v 3.912892 1.298216 41.52253
v 2.79642 0.0004036427 -44.21371
v -7.457983 0.0004036427 -43.66973
v -4.035818 1.298202 -43.85128
v -0.6257353 1.298202 -44.03218
v -7.457983 0.0004036427 -43.66973
v -2.919346 0.0004173517 41.88496
v -2.919346 0.0004173517 41.88496
v 7.335056 0.0004173517 41.34098
v 3.912892 1.298216 41.52253
v 0.5028108 1.298216 41.70343
v 7.335056 0.0004173517 41.34098
v 2.79642 0.0004036427 -44.21371
v -0.6257353 1.298202 -44.03218
v 3.912892 1.298216 41.52253

vn -1.131062E-07 1 -1.131855E-07
vn -0.1318238 0.9824811 0.131732
vn -0.1318239 0.9824811 0.1317321
vn -1.131062E-07 1 -1.131855E-07
vn -0.7068599 -4.188746E-06 -0.7073536
vn -0.7068602 -6.672999E-06 -0.7073534
vn -0.7068599 -4.188746E-06 -0.7073536
vn -0.7068589 3.281615E-06 -0.7073545
vn -0.2505133 0.9351864 0.250339
vn -0.2505136 0.9351861 0.2503393
vn 0.7068599 -4.255874E-06 0.7073536
vn 0.7068602 -6.726671E-06 0.7073532
vn 0.7068599 -4.255874E-06 0.7073536
vn 0.7068589 3.174023E-06 0.7073545
vn 0.2505132 0.9351863 -0.2503393
vn 0.2505134 0.9351861 -0.2503396
vn 0.2505132 0.9351863 -0.2503393
vn 0.2505129 0.9351865 -0.250339

vt 0.0004995763 0.4728798
vt 0.0004995763 0.4305035
vt 1.030901 0.430502
vt 1.030901 0.4728784
vt 0.3299448 0.4328667
vt 0.6522027 0.4328667
vt 0.6178058 0.4753459
vt 0.3821926 0.4753459
vt 0.0004995465 0.4956701
vt 1.030901 0.4956686
vt 0.3299448 0.4328667
vt 0.6522027 0.4328667
vt 0.617806 0.4753459
vt 0.3821929 0.4753459
vt 1.030901 0.4970345
vt 0.0004996061 0.497033
vt 0.0004995763 0.4318662
vt 1.030901 0.4318677

usemtl sn13_07_sn13h08.JPG
usemap sn13_07_sn13h08.JPG
f 3/3/3 1/1/1 2/2/2
f 1/1/1 3/3/3 4/4/4
f 7/7/7 5/5/5 6/6/6
f 5/5/5 7/7/7 8/8/8
f 3/3/3 9/9/9 10/10/10
f 9/9/9 3/3/3 2/2/2
f 13/13/13 11/11/11 12/12/12
f 11/11/11 13/13/13 14/14/14
f 17/17/17 15/15/15 16/16/16
f 15/15/15 17/17/17 18/18/18
