mtllib ./Box98.mtl
g Box98
v 565.1307 35.9998 -567.2626
v 545.0961 35.9998 -547.228
v 552.1672 35.9998 -540.1569
v 572.2019 35.9998 -560.1916
v 398.1278 35.9998 -402.8336
v 378.0931 35.9998 -382.7989
v 385.1642 35.9998 -375.7278
v 405.1989 35.9998 -395.7625
v 585.1654 -0.0001983643 -586.7626
v 565.1307 -0.0001983643 -567.2626
v 565.1307 17.9998 -567.2626
v 585.1654 17.9998 -587.2973
v 565.1307 -0.0001983643 -567.2626
v 545.0961 -0.0001983643 -547.228
v 545.0961 17.9998 -547.228
v 565.1307 17.9998 -567.2626
v 398.1278 -0.0001983643 -402.8336
v 378.0931 -0.0001983643 -382.7989
v 378.0931 17.9998 -382.7989
v 398.1278 17.9998 -402.8336
v 378.0931 -0.0001983643 -382.7989
v 358.0585 -0.0001983643 -362.7642
v 358.0585 17.9998 -362.7642
v 378.0931 17.9998 -382.7989
v 565.1307 17.9998 -567.2626
v 545.0961 17.9998 -547.228
v 545.0961 35.9998 -547.228
v 565.1307 35.9998 -567.2626
v 398.1278 17.9998 -402.8336
v 378.0931 17.9998 -382.7989
v 378.0931 35.9998 -382.7989
v 398.1278 35.9998 -402.8336
v 362.1462 -0.0001983643 -352.6112
v 385.1642 -0.0001983643 -375.7278
v 385.1639 17.9998 -375.7276
v 362.146 17.9998 -352.611
v 385.1642 -0.0001983643 -375.7278
v 405.1989 -0.0001983643 -395.7625
v 405.1986 17.9998 -395.7623
v 385.1639 17.9998 -375.7276
v 552.1672 -0.0001983643 -540.1569
v 572.2019 -0.0001983643 -560.1916
v 572.2017 17.9998 -560.1913
v 552.167 17.9998 -540.1567
v 572.2019 -0.0001983643 -560.1916
v 595.1591 -0.0001983643 -583.4535
v 595.1589 17.9998 -583.4533
v 572.2017 17.9998 -560.1913
v 385.1639 17.9998 -375.7276
v 405.1986 17.9998 -395.7623
v 405.1989 35.9998 -395.7625
v 385.1642 35.9998 -375.7278
v 552.167 17.9998 -540.1567
v 572.2017 17.9998 -560.1913
v 572.2019 35.9998 -560.1916
v 552.1672 35.9998 -540.1569
v 565.1307 35.9998 -567.2626
v 572.2019 35.9998 -560.1916
v 572.2017 17.9998 -560.1913
v 565.1307 17.9998 -567.2626
v 398.1278 35.9998 -402.8336
v 405.1989 35.9998 -395.7625
v 405.1986 17.9998 -395.7623
v 398.1278 17.9998 -402.8336
v 385.1642 35.9998 -375.7278
v 378.0931 35.9998 -382.7989
v 378.0931 17.9998 -382.7989
v 385.1639 17.9998 -375.7276
v 378.0931 17.9998 -382.7989
v 358.0585 17.9998 -362.7642
v 385.1639 17.9998 -375.7276
v 362.146 17.9998 -352.611
v 552.1672 35.9998 -540.1569
v 545.0961 35.9998 -547.228
v 545.0961 17.9998 -547.228
v 552.167 17.9998 -540.1567
v 585.1654 17.9998 -587.2973
v 565.1307 17.9998 -567.2626
v 595.1589 17.9998 -583.4533
v 572.2017 17.9998 -560.1913
v 545.0961 -0.0001983643 -547.228
v 552.1672 -0.0001983643 -540.1569
v 405.1989 -0.0001983643 -395.7625
v 398.1278 -0.0001983643 -402.8336
v 362.146 17.9998 -352.611
v 358.5231 17.9998 -352.611
v 358.5233 -0.0001983643 -352.6112
v 362.1462 -0.0001983643 -352.6112
v 358.5231 17.9998 -352.611
v 595.1588 17.9998 -587.2069
v 595.1589 17.9998 -583.4533
v 595.1591 -0.0001983643 -583.4535
v 595.1591 -0.0001983643 -587.2072
v 595.1588 17.9998 -587.2069

vn 0 1 0
vn 0 1 0
vn 0 1 0
vn 0 1 0
vn 0 1 0
vn 0 1 0
vn 0 1 0
vn 0 1 0
vn -0.7023024 -0.01057157 -0.7118003
vn -0.6974801 0 -0.7166042
vn -0.7023024 -0.01057157 -0.7118003
vn -0.7069509 -0.02099909 -0.7069509
vn -0.7071068 0 -0.7071068
vn -0.7071068 0 -0.7071068
vn -0.7071068 0 -0.7071068
vn -0.7071068 0 -0.7071068
vn -0.7071068 0 -0.7071068
vn -0.7071068 0 -0.7071068
vn -0.7071068 0 -0.7071068
vn -0.7071068 0 -0.7071068
vn -0.7071068 0 -0.7071068
vn -0.7071068 0 -0.7071068
vn -0.7071068 0 -0.7071068
vn -0.7071068 0 -0.7071068
vn -0.7071068 0 -0.7071068
vn -0.7071068 0 -0.7071068
vn -0.7071068 0 -0.7071068
vn -0.7071068 0 -0.7071068
vn -0.7071068 0 -0.7071068
vn -0.7071068 0 -0.7071068
vn -0.7071068 0 -0.7071068
vn -0.7071068 0 -0.7071068
vn 0.7086169 2.390691E-06 0.7055934
vn 0.7086169 2.390691E-06 0.7055934
vn 0.7086169 2.390691E-06 0.7055934
vn 0.7086169 2.390691E-06 0.7055934
vn 0.7071079 2.393535E-06 0.7071057
vn 0.7071079 2.393535E-06 0.7071057
vn 0.7071079 2.393535E-06 0.7071057
vn 0.7071079 2.393535E-06 0.7071057
vn 0.7071068 0 0.7071068
vn 0.7071068 0 0.7071068
vn 0.7071068 0 0.7071068
vn 0.7071068 0 0.7071068
vn 0.7117532 -1.141258E-06 0.7024297
vn 0.7117537 -2.386272E-06 0.7024292
vn 0.7117532 -1.141258E-06 0.7024297
vn 0.7117527 1.037505E-07 0.7024301
vn 0.7071079 -2.393535E-06 0.7071057
vn 0.7071079 -2.393535E-06 0.7071057
vn 0.7071079 -2.393535E-06 0.7071057
vn 0.7071079 -2.393535E-06 0.7071057
vn 0.7071068 0 0.7071068
vn 0.7071068 0 0.7071068
vn 0.7071068 0 0.7071068
vn 0.7071068 0 0.7071068
vn 0.7071128 -9.589673E-06 -0.7071006
vn 0.7071006 -1.917935E-05 -0.7071128
vn 0.7071128 -9.589673E-06 -0.7071006
vn 0.7071251 0 -0.7070885
vn 0.7071174 -8.39238E-06 -0.7070961
vn 0.7071068 -1.678472E-05 -0.7071068
vn 0.707121 0 -0.7070925
vn 0.707121 5.594924E-06 -0.7070925
vn -0.7071205 8.391929E-06 0.7070931
vn -0.7071099 0 0.7071037
vn -0.7071205 8.391929E-06 0.7070931
vn -0.7071311 1.678389E-05 0.7070823
vn 0 1 0
vn 0 0.9999999 0
vn 0 1 0
vn 0 1 0
vn -0.7071128 9.590749E-06 0.7071006
vn -0.7071006 0 0.7071128
vn -0.707117 6.393834E-06 0.7070967
vn -0.707117 7.174595E-10 0.7070967
vn 0 1 0
vn 0 1 0
vn 0 1 0
vn 0 1 0
vn -0.7071128 -9.589673E-06 0.7071006
vn -0.7071006 -1.917935E-05 0.7071128
vn 0.7071174 8.39238E-06 -0.7070961
vn 0.7071068 0 -0.7071068
vn 8.423464E-06 -1.186783E-05 1
vn 1.684693E-05 -1.356314E-05 1
vn 8.423464E-06 -1.186783E-05 1
vn 0 -1.017253E-05 1
vn 0 1 0
vn 1 1.017272E-05 -1.62603E-05
vn 1 6.782015E-06 -3.252085E-05
vn 1 1.017272E-05 -1.62603E-05
vn 1 1.356337E-05 0
vn 0 1 0

vt 0.1695652 0.7299517
vt 0.3248792 0.7299517
vt 0.3248792 0.6845411
vt 0.1695652 0.6845411
vt 0.1695652 0.7299517
vt 0.3248792 0.7299517
vt 0.3248792 0.6845411
vt 0.1695652 0.6845411
vt 0 0.5823671
vt 0.4913043 0.5823671
vt 0.4913043 0.4992754
vt 0 0.4992754
vt 0 0.5823671
vt 0.4913043 0.5823671
vt 0.4913043 0.4992754
vt 0 0.4992754
vt 0 0.5823671
vt 0.4913043 0.5823671
vt 0.4913043 0.4992754
vt 0 0.4992754
vt 0 0.5823671
vt 0.4913043 0.5823671
vt 0.4913043 0.4992754
vt 0 0.4992754
vt 0.3260869 0.5772947
vt 0.1690821 0.5772947
vt 0.1690821 0.7246377
vt 0.3260869 0.7246377
vt 0.3260869 0.5772947
vt 0.1690821 0.5772947
vt 0.1690821 0.7246377
vt 0.3260869 0.7246377
vt 0 0.5823671
vt 0.4913043 0.5823671
vt 0.4913043 0.4992754
vt 0 0.4992754
vt 0 0.5823671
vt 0.4913043 0.5823671
vt 0.4913043 0.4992754
vt 0 0.4992754
vt 0 0.5823671
vt 0.4913043 0.5823671
vt 0.4913043 0.4992754
vt 0 0.4992754
vt 0 0.5823671
vt 0.4913043 0.5823671
vt 0.4913043 0.4992754
vt 0 0.4992754
vt 0.3260869 0.5772947
vt 0.1690821 0.5772947
vt 0.1690821 0.7246377
vt 0.3260869 0.7246377
vt 0.3260869 0.5772947
vt 0.1690821 0.5772947
vt 0.1690821 0.7246377
vt 0.3260869 0.7246377
vt 0.2273126 0.728969
vt 0.167165 0.728969
vt 0.167165 0.5748792
vt 0.2273126 0.5748792
vt 0.2289661 0.728969
vt 0.1688222 0.728969
vt 0.1688222 0.5748792
vt 0.2289661 0.5748792
vt 0.3255571 0.7265536
vt 0.2710307 0.7265536
vt 0.2710307 0.5753788
vt 0.3255872 0.5753788
vt 0.0004990697 0.490839
vt 0.3774437 0.4908384
vt 0.0005076826 0.577126
vt 0.4992251 0.5840424
vt 0.2289698 0.728969
vt 0.1688222 0.728969
vt 0.1688222 0.5748792
vt 0.2289698 0.5748792
vt 0.2271084 0.4952989
vt 0.447776 0.4952988
vt 0.1932424 0.5733897
vt 0.4477783 0.5751091
vt 0.1688222 0.3700648
vt 0.2289698 0.3700648
vt 0.1688222 0.3700648
vt 0.2289661 0.3700648
vt 1 0
vt 0 0
vt 0 1
vt 1 1
vt 0.5719639 0.532796
vt 1 0
vt 0 0
vt 0 1
vt 1 1
vt 0.1725714 0.5522058

usemtl sn13_06_sn13r14.jpg
usemap sn13_06_sn13r14.jpg
f 3/3/3 1/1/1 2/2/2
f 1/1/1 3/3/3 4/4/4
f 7/7/7 5/5/5 6/6/6
f 5/5/5 7/7/7 8/8/8
f 11/11/11 9/9/9 10/10/10
f 9/9/9 11/11/11 12/12/12
f 15/15/15 13/13/13 14/14/14
f 13/13/13 15/15/15 16/16/16
f 19/19/19 17/17/17 18/18/18
f 17/17/17 19/19/19 20/20/20
f 23/23/23 21/21/21 22/22/22
f 21/21/21 23/23/23 24/24/24
f 27/27/27 25/25/25 26/26/26
f 25/25/25 27/27/27 28/28/28
f 31/31/31 29/29/29 30/30/30
f 29/29/29 31/31/31 32/32/32
f 35/35/35 33/33/33 34/34/34
f 33/33/33 35/35/35 36/36/36
f 39/39/39 37/37/37 38/38/38
f 37/37/37 39/39/39 40/40/40
f 43/43/43 41/41/41 42/42/42
f 41/41/41 43/43/43 44/44/44
f 47/47/47 45/45/45 46/46/46
f 45/45/45 47/47/47 48/48/48
f 51/51/51 49/49/49 50/50/50
f 49/49/49 51/51/51 52/52/52
f 55/55/55 53/53/53 54/54/54
f 53/53/53 55/55/55 56/56/56
f 59/59/59 57/57/57 58/58/58
f 57/57/57 59/59/59 60/60/60
f 63/63/63 61/61/61 62/62/62
f 61/61/61 63/63/63 64/64/64
f 67/67/67 65/65/65 66/66/66
f 67/67/67 68/68/68 65/65/65
f 71/71/71 69/69/69 70/70/70
f 72/72/72 71/71/71 70/70/70
f 75/75/75 73/73/73 74/74/74
f 75/75/75 76/76/76 73/73/73
f 79/79/79 77/77/77 78/78/78
f 80/80/80 79/79/79 78/78/78
f 81/81/81 76/76/76 75/75/75
f 76/76/76 81/81/81 82/82/82
f 83/83/83 64/64/64 63/63/63
f 64/64/64 83/83/83 84/84/84
f 87/87/87 85/85/85 86/86/86
f 85/85/85 87/87/87 88/88/88
f 89/89/89 72/72/72 70/70/70
f 92/92/92 90/90/90 91/91/91
f 90/90/90 92/92/92 93/93/93
f 79/79/79 94/94/94 77/77/77
