mtllib ./bridge0210.mtl
g bridge0210
v 150.4501 9.999722 -4.096891
v 142.449 9.999722 -4.090318
v 142.4555 9.999722 3.910779
v 150.4566 9.999722 3.904207
v 150.4501 -10.00028 -4.096891
v 142.449 -10.00028 -4.090318
v 142.449 9.999722 -4.090318
v 150.4501 9.999722 -4.096891
v 142.449 -10.00028 -4.090318
v 142.4555 -10.00028 3.910779
v 142.4555 9.999722 3.910779
v 142.449 9.999722 -4.090318
v 142.4555 -10.00028 3.910779
v 150.4566 -10.00028 3.904207
v 150.4566 9.999722 3.904207
v 142.4555 9.999722 3.910779
v 150.4566 -10.00028 3.904207
v 150.4501 -10.00028 -4.096891
v 150.4501 9.999722 -4.096891
v 150.4566 9.999722 3.904207
v 120.824 9.999722 -4.072531
v 112.8229 9.999722 -4.065979
v 112.8294 9.999722 3.935118
v 120.8305 9.999722 3.928523
v 120.824 -10.00028 -4.072531
v 112.8229 -10.00028 -4.065979
v 112.8229 9.999722 -4.065979
v 120.824 9.999722 -4.072531
v 112.8229 -10.00028 -4.065979
v 112.8294 -10.00028 3.935118
v 112.8294 9.999722 3.935118
v 112.8229 9.999722 -4.065979
v 112.8294 -10.00028 3.935118
v 120.8305 -10.00028 3.928523
v 120.8305 9.999722 3.928523
v 112.8294 9.999722 3.935118
v 120.8305 -10.00028 3.928523
v 120.824 -10.00028 -4.072531
v 120.824 9.999722 -4.072531
v 120.8305 9.999722 3.928523
v 90.59377 9.999722 -4.047718
v 82.59267 9.999722 -4.041145
v 82.59926 9.999722 3.959931
v 90.60033 9.999722 3.95338
v 90.59377 -10.00028 -4.047718
v 82.59267 -10.00028 -4.041145
v 82.59267 9.999722 -4.041145
v 90.59377 9.999722 -4.047718
v 82.59267 -10.00028 -4.041145
v 82.59926 -10.00028 3.959931
v 82.59926 9.999722 3.959931
v 82.59267 9.999722 -4.041145
v 82.59926 -10.00028 3.959931
v 90.60033 -10.00028 3.95338
v 90.60033 9.999722 3.95338
v 82.59926 9.999722 3.959931
v 90.60033 -10.00028 3.95338
v 90.59377 -10.00028 -4.047718
v 90.59377 9.999722 -4.047718
v 90.60033 9.999722 3.95338
v 60.14821 9.999722 -4.022706
v 52.14715 9.999722 -4.016133
v 52.15371 9.999722 3.984943
v 60.1548 9.999722 3.97837
v 60.14821 -10.00028 -4.022706
v 52.14715 -10.00028 -4.016133
v 52.14715 9.999722 -4.016133
v 60.14821 9.999722 -4.022706
v 52.14715 -10.00028 -4.016133
v 52.15371 -10.00028 3.984943
v 52.15371 9.999722 3.984943
v 52.14715 9.999722 -4.016133
v 52.15371 -10.00028 3.984943
v 60.1548 -10.00028 3.97837
v 60.1548 9.999722 3.97837
v 52.15371 9.999722 3.984943
v 60.1548 -10.00028 3.97837
v 60.14821 -10.00028 -4.022706
v 60.14821 9.999722 -4.022706
v 60.1548 9.999722 3.97837
v 31.28078 9.999722 -3.998991
v 23.27968 9.999722 -3.992418
v 23.28628 9.999722 4.008658
v 31.28735 9.999722 4.002107
v 31.28078 -10.00028 -3.998991
v 23.27968 -10.00028 -3.992418
v 23.27968 9.999722 -3.992418
v 31.28078 9.999722 -3.998991
v 23.27968 -10.00028 -3.992418
v 23.28628 -10.00028 4.008658
v 23.28628 9.999722 4.008658
v 23.27968 9.999722 -3.992418
v 23.28628 -10.00028 4.008658
v 31.28735 -10.00028 4.002107
v 31.28735 9.999722 4.002107
v 23.28628 9.999722 4.008658
v 31.28735 -10.00028 4.002107
v 31.28078 -10.00028 -3.998991
v 31.28078 9.999722 -3.998991
v 31.28735 9.999722 4.002107
v 1.174149 9.999722 -3.974258
v -6.826949 9.999722 -3.967685
v -6.820376 9.999722 4.033413
v 1.180722 9.999722 4.02684
v 1.174149 -10.00028 -3.974258
v -6.826949 -10.00028 -3.967685
v -6.826949 9.999722 -3.967685
v 1.174149 9.999722 -3.974258
v -6.826949 -10.00028 -3.967685
v -6.820376 -10.00028 4.033413
v -6.820376 9.999722 4.033413
v -6.826949 9.999722 -3.967685
v -6.820376 -10.00028 4.033413
v 1.180722 -10.00028 4.02684
v 1.180722 9.999722 4.02684
v -6.820376 9.999722 4.033413
v 1.180722 -10.00028 4.02684
v 1.174149 -10.00028 -3.974258
v 1.174149 9.999722 -3.974258
v 1.180722 9.999722 4.02684
v -29.05604 9.999722 -3.949445
v -37.05711 9.999722 -3.94285
v -37.05056 9.999722 4.058226
v -29.04947 9.999722 4.051653
v -29.05604 -10.00028 -3.949445
v -37.05711 -10.00028 -3.94285
v -37.05711 9.999722 -3.94285
v -29.05604 9.999722 -3.949445
v -37.05711 -10.00028 -3.94285
v -37.05056 -10.00028 4.058226
v -37.05056 9.999722 4.058226
v -37.05711 9.999722 -3.94285
v -37.05056 -10.00028 4.058226
v -29.04947 -10.00028 4.051653
v -29.04947 9.999722 4.051653
v -37.05056 9.999722 4.058226
v -29.04947 -10.00028 4.051653
v -29.05604 -10.00028 -3.949445
v -29.05604 9.999722 -3.949445
v -29.04947 9.999722 4.051653
v -59.10873 9.999722 -3.924745
v -67.10979 9.999722 -3.918161
v -67.10323 9.999722 4.082904
v -59.10214 9.999722 4.076342
v -59.10873 -10.00028 -3.924745
v -67.10979 -10.00028 -3.918161
v -67.10979 9.999722 -3.918161
v -59.10873 9.999722 -3.924745
v -67.10979 -10.00028 -3.918161
v -67.10323 -10.00028 4.082904
v -67.10323 9.999722 4.082904
v -67.10979 9.999722 -3.918161
v -67.10323 -10.00028 4.082904
v -59.10214 -10.00028 4.076342
v -59.10214 9.999722 4.076342
v -67.10323 9.999722 4.082904
v -59.10214 -10.00028 4.076342
v -59.10873 -10.00028 -3.924745
v -59.10873 9.999722 -3.924745
v -59.10214 9.999722 4.076342
v -89.36329 9.999722 -3.899879
v -97.36439 9.999722 -3.893306
v -97.35781 9.999722 4.107791
v -89.35674 9.999722 4.101196
v -89.36329 -10.00028 -3.899879
v -97.36439 -10.00028 -3.893306
v -97.36439 9.999722 -3.893306
v -89.36329 9.999722 -3.899879
v -97.36439 -10.00028 -3.893306
v -97.35781 -10.00028 4.107791
v -97.35781 9.999722 4.107791
v -97.36439 9.999722 -3.893306
v -97.35781 -10.00028 4.107791
v -89.35674 -10.00028 4.101196
v -89.35674 9.999722 4.101196
v -97.35781 9.999722 4.107791
v -89.35674 -10.00028 4.101196
v -89.36329 -10.00028 -3.899879
v -89.36329 9.999722 -3.899879
v -89.35674 9.999722 4.101196
v -118.9894 9.999722 -3.875552
v -126.9905 9.999722 -3.868979
v -126.9839 9.999722 4.132119
v -118.9828 9.999722 4.125546
v -118.9894 -10.00028 -3.875552
v -126.9905 -10.00028 -3.868979
v -126.9905 9.999722 -3.868979
v -118.9894 9.999722 -3.875552
v -126.9905 -10.00028 -3.868979
v -126.9839 -10.00028 4.132119
v -126.9839 9.999722 4.132119
v -126.9905 9.999722 -3.868979
v -126.9839 -10.00028 4.132119
v -118.9828 -10.00028 4.125546
v -118.9828 9.999722 4.125546
v -126.9839 9.999722 4.132119
v -118.9828 -10.00028 4.125546
v -118.9894 -10.00028 -3.875552
v -118.9894 9.999722 -3.875552
v -118.9828 9.999722 4.125546
v -152.9381 4.945539 -1.417773
v -152.9356 4.945539 1.616534
v -93.08351 4.945539 1.567364
v -93.08599 4.945539 -1.466921
v -93.08599 4.945539 -1.466921
v -93.08351 4.945539 1.567364
v -33.23143 4.945539 1.518173
v -33.23392 4.945539 -1.516101
v -33.23392 4.945539 -1.516101
v -33.23143 4.945539 1.518173
v 26.62066 4.945539 1.469025
v 26.61819 4.945539 -1.565271
v 26.61819 4.945539 -1.565271
v 26.62066 4.945539 1.469025
v 86.47276 4.945539 1.419855
v 86.47029 4.945539 -1.61444
v 86.47029 4.945539 -1.61444
v 86.47276 4.945539 1.419855
v 146.3249 4.945539 1.370685
v 146.3224 4.945539 -1.66361
v -152.9356 -10.00028 1.616534
v -93.08351 -10.00028 1.567364
v -93.08351 4.945539 1.567364
v -152.9356 4.945539 1.616534
v -93.08351 -10.00028 1.567364
v -33.23143 -10.00028 1.518173
v -33.23143 4.945539 1.518173
v -93.08351 4.945539 1.567364
v -33.23143 -10.00028 1.518173
v 26.62066 -10.00028 1.469025
v 26.62066 4.945539 1.469025
v -33.23143 4.945539 1.518173
v 26.62066 -10.00028 1.469025
v 86.47276 -10.00028 1.419855
v 86.47276 4.945539 1.419855
v 26.62066 4.945539 1.469025
v 86.47276 -10.00028 1.419855
v 146.3249 -10.00028 1.370685
v 146.3249 4.945539 1.370685
v 86.47276 4.945539 1.419855
v 146.3249 -10.00028 1.370685
v 146.3224 -10.00028 -1.66361
v 146.3224 4.945539 -1.66361
v 146.3249 4.945539 1.370685
v 146.3224 -10.00028 -1.66361
v 86.47029 -10.00028 -1.61444
v 86.47029 4.945539 -1.61444
v 146.3224 4.945539 -1.66361
v 86.47029 -10.00028 -1.61444
v 26.61819 -10.00028 -1.565271
v 26.61819 4.945539 -1.565271
v 86.47029 4.945539 -1.61444
v 26.61819 -10.00028 -1.565271
v -33.23392 -10.00028 -1.516101
v -33.23392 4.945539 -1.516101
v 26.61819 4.945539 -1.565271
v -33.23392 -10.00028 -1.516101
v -93.08599 -10.00028 -1.466921
v -93.08599 4.945539 -1.466921
v -33.23392 4.945539 -1.516101
v -93.08599 -10.00028 -1.466921
v -152.9381 -10.00028 -1.417773
v -152.9381 4.945539 -1.417773
v -93.08599 4.945539 -1.466921

vn 0 1 0
vn 0 1 0
vn 0 1 0
vn 0 1 0
vn 0.7068742 0 -0.7073393
vn 0.7068742 0 -0.7073393
vn 0.7068742 0 -0.7073393
vn 0.7068742 0 -0.7073393
vn -0.7073396 0 -0.7068738
vn -0.7073396 0 -0.7068738
vn -0.7073396 0 -0.7068738
vn -0.7073396 0 -0.7068738
vn -0.7068742 0 0.7073393
vn -0.7068742 0 0.7073393
vn -0.7068742 0 0.7073393
vn -0.7068742 0 0.7073393
vn 0.7073396 0 0.7068739
vn 0.7073396 0 0.7068739
vn 0.7073396 0 0.7068739
vn 0.7073396 0 0.7068739
vn 0 1 0
vn 0 1 0
vn 0 1 0
vn 0 1 0
vn 0.706876 0 -0.7073374
vn 0.706876 0 -0.7073374
vn 0.706876 0 -0.7073374
vn 0.706876 0 -0.7073374
vn -0.707339 0 -0.7068745
vn -0.707339 0 -0.7068745
vn -0.707339 0 -0.7068745
vn -0.707339 0 -0.7068745
vn -0.7068722 0 0.7073412
vn -0.7068722 0 0.7073412
vn -0.7068722 0 0.7073412
vn -0.7068722 0 0.7073412
vn 0.7073389 0 0.7068745
vn 0.7073389 0 0.7068745
vn 0.7073389 0 0.7068745
vn 0.7073389 0 0.7068745
vn 0 1 0
vn 0 1 0
vn 0 1 0
vn 0 1 0
vn 0.7068742 0 -0.7073393
vn 0.7068742 0 -0.7073393
vn 0.7068742 0 -0.7073393
vn 0.7068742 0 -0.7073393
vn -0.707341 0 -0.7068725
vn -0.707341 0 -0.7068725
vn -0.707341 0 -0.7068725
vn -0.707341 0 -0.7068725
vn -0.706876 0 0.7073374
vn -0.706876 0 0.7073374
vn -0.706876 0 0.7073374
vn -0.706876 0 0.7073374
vn 0.7073389 0 0.7068745
vn 0.7073389 0 0.7068745
vn 0.7073389 0 0.7068745
vn 0.7073389 0 0.7068745
vn 0 1 0
vn 0 1 0
vn 0 1 0
vn 0 1 0
vn 0.7068741 0 -0.7073393
vn 0.7068741 0 -0.7073393
vn 0.7068741 0 -0.7073393
vn 0.7068741 0 -0.7073393
vn -0.7073376 0 -0.7068759
vn -0.7073376 0 -0.7068759
vn -0.7073376 0 -0.7068759
vn -0.7073376 0 -0.7068759
vn -0.7068741 0 0.7073393
vn -0.7068741 0 0.7073393
vn -0.7068741 0 0.7073393
vn -0.7068741 0 0.7073393
vn 0.707341 0 0.7068725
vn 0.707341 0 0.7068725
vn 0.707341 0 0.7068725
vn 0.707341 0 0.7068725
vn 0 1 0
vn 0 1 0
vn 0 1 0
vn 0 1 0
vn 0.7068741 0 -0.7073393
vn 0.7068741 0 -0.7073393
vn 0.7068741 0 -0.7073393
vn 0.7068741 0 -0.7073393
vn -0.7073411 0 -0.7068723
vn -0.7073411 0 -0.7068723
vn -0.7073411 0 -0.7068723
vn -0.7073411 0 -0.7068723
vn -0.706876 0 0.7073374
vn -0.706876 0 0.7073374
vn -0.706876 0 0.7073374
vn -0.706876 0 0.7073374
vn 0.7073393 0 0.7068742
vn 0.7073393 0 0.7068742
vn 0.7073393 0 0.7068742
vn 0.7073393 0 0.7068742
vn 0 1 0
vn 0 1 0
vn 0 1 0
vn 0 1 0
vn 0.7068741 0 -0.7073393
vn 0.7068741 0 -0.7073393
vn 0.7068741 0 -0.7073393
vn 0.7068741 0 -0.7073393
vn -0.7073393 0 -0.7068742
vn -0.7073393 0 -0.7068742
vn -0.7073393 0 -0.7068742
vn -0.7073393 0 -0.7068742
vn -0.7068742 0 0.7073393
vn -0.7068742 0 0.7073393
vn -0.7068742 0 0.7073393
vn -0.7068742 0 0.7073393
vn 0.7073393 0 0.7068742
vn 0.7073393 0 0.7068742
vn 0.7073393 0 0.7068742
vn 0.7073393 0 0.7068742
vn 0 1 0
vn 0 1 0
vn 0 1 0
vn 0 1 0
vn 0.7068723 0 -0.7073412
vn 0.7068723 0 -0.7073412
vn 0.7068723 0 -0.7073412
vn 0.7068723 0 -0.7073412
vn -0.7073372 0 -0.7068762
vn -0.7073372 0 -0.7068762
vn -0.7073372 0 -0.7068762
vn -0.7073372 0 -0.7068762
vn -0.7068741 0 0.7073393
vn -0.7068741 0 0.7073393
vn -0.7068741 0 0.7073393
vn -0.7068741 0 0.7073393
vn 0.7073393 0 0.7068742
vn 0.7073393 0 0.7068742
vn 0.7073393 0 0.7068742
vn 0.7073393 0 0.7068742
vn 0 1 0
vn 0 1 0
vn 0 1 0
vn 0 1 0
vn 0.7068732 0 -0.7073402
vn 0.7068732 0 -0.7073402
vn 0.7068732 0 -0.7073402
vn 0.7068732 0 -0.7073402
vn -0.7073383 0 -0.7068752
vn -0.7073383 0 -0.7068752
vn -0.7073383 0 -0.7068752
vn -0.7073383 0 -0.7068752
vn -0.7068751 0 0.7073383
vn -0.7068751 0 0.7073383
vn -0.7068751 0 0.7073383
vn -0.7068751 0 0.7073383
vn 0.7073402 0 0.7068732
vn 0.7073402 0 0.7068732
vn 0.7073402 0 0.7068732
vn 0.7073402 0 0.7068732
vn 0 1 0
vn 0 1 0
vn 0 1 0
vn 0 1 0
vn 0.7068742 0 -0.7073393
vn 0.7068742 0 -0.7073393
vn 0.7068742 0 -0.7073393
vn 0.7068742 0 -0.7073393
vn -0.7073396 0 -0.7068739
vn -0.7073396 0 -0.7068739
vn -0.7073396 0 -0.7068739
vn -0.7073396 0 -0.7068739
vn -0.7068722 0 0.7073412
vn -0.7068722 0 0.7073412
vn -0.7068722 0 0.7073412
vn -0.7068722 0 0.7073412
vn 0.7073376 0 0.7068759
vn 0.7073376 0 0.7068759
vn 0.7073376 0 0.7068759
vn 0.7073376 0 0.7068759
vn 0 1 0
vn 0 1 0
vn 0 1 0
vn 0 1 0
vn 0.7068742 0 -0.7073393
vn 0.7068742 0 -0.7073393
vn 0.7068742 0 -0.7073393
vn 0.7068742 0 -0.7073393
vn -0.707339 0 -0.7068745
vn -0.707339 0 -0.7068745
vn -0.707339 0 -0.7068745
vn -0.707339 0 -0.7068745
vn -0.7068742 0 0.7073393
vn -0.7068742 0 0.7073393
vn -0.7068742 0 0.7073393
vn -0.7068742 0 0.7073393
vn 0.7073389 0 0.7068745
vn 0.7073389 0 0.7068745
vn 0.7073389 0 0.7068745
vn 0.7073389 0 0.7068745
vn -0.08763589 0.9922953 -0.08757771
vn -0.3160417 0.8946328 -0.3158319
vn 0 1 0
vn 0 1 0
vn 0 0.9999999 0
vn 0 1 0
vn 0 0.9999999 0
vn 0 1 0
vn 0 1 0
vn 0 1 0
vn 0 1 0
vn 0 1 0
vn 0 1 0
vn 0 1 0
vn 0 1 0
vn 0 1 0
vn 0 1 0
vn 0 1 0
vn 0 1 0
vn 0 1 0
vn -0.7245713 0 0.6891998
vn -0.7068742 0 0.7073393
vn -0.7068742 0 0.7073393
vn -0.7068742 0 0.7073393
vn -0.706874 0 0.7073396
vn -0.706874 0 0.7073396
vn -0.706874 0 0.7073396
vn -0.706874 0 0.7073396
vn -0.7068744 0 0.7073392
vn -0.7068744 0 0.7073392
vn -0.7068744 0 0.7073392
vn -0.7068744 0 0.7073392
vn -0.7068742 0 0.7073393
vn -0.7068742 0 0.7073393
vn -0.7068742 0 0.7073393
vn -0.7068742 0 0.7073393
vn -0.7068742 0 0.7073394
vn -0.7068742 0 0.7073394
vn -0.7068742 0 0.7073394
vn -0.7068742 0 0.7073394
vn 0.7073451 0 0.7068683
vn 0.7073451 0 0.7068683
vn 0.7073451 0 0.7068683
vn 0.7073451 0 0.7068683
vn 0.7068742 0 -0.7073393
vn 0.7068742 0 -0.7073393
vn 0.7068742 0 -0.7073393
vn 0.7068742 0 -0.7073393
vn 0.7068742 0 -0.7073393
vn 0.7068742 0 -0.7073393
vn 0.7068742 0 -0.7073393
vn 0.7068742 0 -0.7073393
vn 0.7068742 0 -0.7073393
vn 0.7068742 0 -0.7073393
vn 0.7068742 0 -0.7073393
vn 0.7068742 0 -0.7073393
vn 0.7068741 0 -0.7073395
vn 0.7068741 0 -0.7073395
vn 0.7068741 0 -0.7073395
vn 0.7068741 0 -0.7073395
vn 0.7068744 0 -0.707339
vn 0.6319149 0 -0.7750378
vn 0.7068744 0 -0.707339
vn 0.7068744 0 -0.707339

vt 0.7559186 0.618599
vt 0.9928537 0.618599
vt 0.9928537 0.817054
vt 0.7559186 0.817054
vt 0.7507439 0.3429952
vt 0.9978011 0.3429952
vt 0.9978011 1
vt 0.7507439 1
vt 0.7507439 0.3429952
vt 0.9978011 0.3429952
vt 0.9978011 1
vt 0.7507439 1
vt 0.7507439 0.3429952
vt 0.9978011 0.3429952
vt 0.9978011 1
vt 0.7507439 1
vt 0.7507439 0.3429952
vt 0.9978011 0.3429952
vt 0.9978011 1
vt 0.7507439 1
vt 0.7559186 0.618599
vt 0.9928537 0.618599
vt 0.9928537 0.817054
vt 0.7559186 0.817054
vt 0.7507439 0.3429952
vt 0.9978011 0.3429952
vt 0.9978011 1
vt 0.7507439 1
vt 0.7507439 0.3429952
vt 0.9978011 0.3429952
vt 0.9978011 1
vt 0.7507439 1
vt 0.7507439 0.3429952
vt 0.9978011 0.3429952
vt 0.9978011 1
vt 0.7507439 1
vt 0.7507439 0.3429952
vt 0.9978011 0.3429952
vt 0.9978011 1
vt 0.7507439 1
vt 0.7559186 0.618599
vt 0.9928537 0.618599
vt 0.9928537 0.817054
vt 0.7559186 0.817054
vt 0.7507439 0.3429952
vt 0.9978011 0.3429952
vt 0.9978011 1
vt 0.7507439 1
vt 0.7507439 0.3429952
vt 0.9978011 0.3429952
vt 0.9978011 1
vt 0.7507439 1
vt 0.7507439 0.3429952
vt 0.9978011 0.3429952
vt 0.9978011 1
vt 0.7507439 1
vt 0.7507439 0.3429952
vt 0.9978011 0.3429952
vt 0.9978011 1
vt 0.7507439 1
vt 0.7559186 0.618599
vt 0.9928537 0.618599
vt 0.9928537 0.817054
vt 0.7559186 0.817054
vt 0.7507439 0.3429952
vt 0.9978011 0.3429952
vt 0.9978011 1
vt 0.7507439 1
vt 0.7507439 0.3429952
vt 0.9978011 0.3429952
vt 0.9978011 1
vt 0.7507439 1
vt 0.7507439 0.3429952
vt 0.9978011 0.3429952
vt 0.9978011 1
vt 0.7507439 1
vt 0.7507439 0.3429952
vt 0.9978011 0.3429952
vt 0.9978011 1
vt 0.7507439 1
vt 0.7559186 0.618599
vt 0.9928537 0.618599
vt 0.9928537 0.817054
vt 0.7559186 0.817054
vt 0.7507439 0.3429952
vt 0.9978011 0.3429952
vt 0.9978011 1
vt 0.7507439 1
vt 0.7507439 0.3429952
vt 0.9978011 0.3429952
vt 0.9978011 1
vt 0.7507439 1
vt 0.7507439 0.3429952
vt 0.9978011 0.3429952
vt 0.9978011 1
vt 0.7507439 1
vt 0.7507439 0.3429952
vt 0.9978011 0.3429952
vt 0.9978011 1
vt 0.7507439 1
vt 0.7559186 0.618599
vt 0.9928537 0.618599
vt 0.9928537 0.817054
vt 0.7559186 0.817054
vt 0.7507439 0.3429952
vt 0.9978011 0.3429952
vt 0.9978011 1
vt 0.7507439 1
vt 0.7507439 0.3429952
vt 0.9978011 0.3429952
vt 0.9978011 1
vt 0.7507439 1
vt 0.7507439 0.3429952
vt 0.9978011 0.3429952
vt 0.9978011 1
vt 0.7507439 1
vt 0.7507439 0.3429952
vt 0.9978011 0.3429952
vt 0.9978011 1
vt 0.7507439 1
vt 0.7559186 0.618599
vt 0.9928537 0.618599
vt 0.9928537 0.817054
vt 0.7559186 0.817054
vt 0.7507439 0.3429952
vt 0.9978011 0.3429952
vt 0.9978011 1
vt 0.7507439 1
vt 0.7507439 0.3429952
vt 0.9978011 0.3429952
vt 0.9978011 1
vt 0.7507439 1
vt 0.7507439 0.3429952
vt 0.9978011 0.3429952
vt 0.9978011 1
vt 0.7507439 1
vt 0.7507439 0.3429952
vt 0.9978011 0.3429952
vt 0.9978011 1
vt 0.7507439 1
vt 0.7559186 0.618599
vt 0.9928537 0.618599
vt 0.9928537 0.817054
vt 0.7559186 0.817054
vt 0.7507439 0.3429952
vt 0.9978011 0.3429952
vt 0.9978011 1
vt 0.7507439 1
vt 0.7507439 0.3429952
vt 0.9978011 0.3429952
vt 0.9978011 1
vt 0.7507439 1
vt 0.7507439 0.3429952
vt 0.9978011 0.3429952
vt 0.9978011 1
vt 0.7507439 1
vt 0.7507439 0.3429952
vt 0.9978011 0.3429952
vt 0.9978011 1
vt 0.7507439 1
vt 0.7559186 0.618599
vt 0.9928537 0.618599
vt 0.9928537 0.817054
vt 0.7559186 0.817054
vt 0.7507439 0.3429952
vt 0.9978011 0.3429952
vt 0.9978011 1
vt 0.7507439 1
vt 0.7507439 0.3429952
vt 0.9978011 0.3429952
vt 0.9978011 1
vt 0.7507439 1
vt 0.7507439 0.3429952
vt 0.9978011 0.3429952
vt 0.9978011 1
vt 0.7507439 1
vt 0.7507439 0.3429952
vt 0.9978011 0.3429952
vt 0.9978011 1
vt 0.7507439 1
vt 0.7559186 0.618599
vt 0.9928537 0.618599
vt 0.9928537 0.817054
vt 0.7559186 0.817054
vt 0.7507439 0.3429952
vt 0.9978011 0.3429952
vt 0.9978011 1
vt 0.7507439 1
vt 0.7507439 0.3429952
vt 0.9978011 0.3429952
vt 0.9978011 1
vt 0.7507439 1
vt 0.7507439 0.3429952
vt 0.9978011 0.3429952
vt 0.9978011 1
vt 0.7507439 1
vt 0.7507439 0.3429952
vt 0.9978011 0.3429952
vt 0.9978011 1
vt 0.7507439 1
vt 0.7323186 0
vt 0.7441614 0
vt 0.7441614 1
vt 0.7323186 1
vt 0.7323186 0
vt 0.7441614 0
vt 0.7441614 1
vt 0.7323186 1
vt 0.7323186 0
vt 0.7441614 0
vt 0.7441614 1
vt 0.7323186 1
vt 0.7323186 0
vt 0.7441614 0
vt 0.7441614 1
vt 0.7323186 1
vt 0.7323186 0
vt 0.7441614 0
vt 0.7441614 1
vt 0.7323186 1
vt 0.4951709 -5.960464E-08
vt 0.4951708 2.07115
vt 0.7457017 2.07115
vt 0.7457018 1.589326E-08
vt 0.4951709 -5.960464E-08
vt 0.4951708 2.07115
vt 0.7457017 2.07115
vt 0.7457018 1.589326E-08
vt 0.4951709 -5.960464E-08
vt 0.4951708 2.07115
vt 0.7457017 2.07115
vt 0.7457018 1.589326E-08
vt 0.4951709 -5.960464E-08
vt 0.4951708 2.07115
vt 0.7457017 2.07115
vt 0.7457018 1.589326E-08
vt 0.4951709 -5.960464E-08
vt 0.4951708 2.07115
vt 0.7457017 2.07115
vt 0.7457018 1.589326E-08
vt 0 0
vt 1 0
vt 1 1
vt 0 1
vt 0.4951709 -5.960464E-08
vt 0.4951708 2.07115
vt 0.7457017 2.07115
vt 0.7457018 1.589326E-08
vt 0.4951709 -5.960464E-08
vt 0.4951708 2.07115
vt 0.7457017 2.07115
vt 0.7457018 1.589326E-08
vt 0.4951709 -5.960464E-08
vt 0.4951708 2.07115
vt 0.7457017 2.07115
vt 0.7457018 1.589326E-08
vt 0.4951709 -5.960464E-08
vt 0.4951708 2.07115
vt 0.7457017 2.07115
vt 0.7457018 1.589326E-08
vt 0.4951709 -5.960464E-08
vt 0.4951708 2.07115
vt 0.7457017 2.07115
vt 0.7457018 1.589326E-08

usemtl sn13_08_sn13r08.jpg
usemap sn13_08_sn13r08.jpg
f 3/3/3 1/1/1 2/2/2
f 1/1/1 3/3/3 4/4/4
f 7/7/7 5/5/5 6/6/6
f 5/5/5 7/7/7 8/8/8
f 11/11/11 9/9/9 10/10/10
f 9/9/9 11/11/11 12/12/12
f 15/15/15 13/13/13 14/14/14
f 13/13/13 15/15/15 16/16/16
f 19/19/19 17/17/17 18/18/18
f 17/17/17 19/19/19 20/20/20
f 23/23/23 21/21/21 22/22/22
f 21/21/21 23/23/23 24/24/24
f 27/27/27 25/25/25 26/26/26
f 25/25/25 27/27/27 28/28/28
f 31/31/31 29/29/29 30/30/30
f 29/29/29 31/31/31 32/32/32
f 35/35/35 33/33/33 34/34/34
f 33/33/33 35/35/35 36/36/36
f 39/39/39 37/37/37 38/38/38
f 37/37/37 39/39/39 40/40/40
f 43/43/43 41/41/41 42/42/42
f 41/41/41 43/43/43 44/44/44
f 47/47/47 45/45/45 46/46/46
f 45/45/45 47/47/47 48/48/48
f 51/51/51 49/49/49 50/50/50
f 49/49/49 51/51/51 52/52/52
f 55/55/55 53/53/53 54/54/54
f 53/53/53 55/55/55 56/56/56
f 59/59/59 57/57/57 58/58/58
f 57/57/57 59/59/59 60/60/60
f 63/63/63 61/61/61 62/62/62
f 61/61/61 63/63/63 64/64/64
f 67/67/67 65/65/65 66/66/66
f 65/65/65 67/67/67 68/68/68
f 71/71/71 69/69/69 70/70/70
f 69/69/69 71/71/71 72/72/72
f 75/75/75 73/73/73 74/74/74
f 73/73/73 75/75/75 76/76/76
f 79/79/79 77/77/77 78/78/78
f 77/77/77 79/79/79 80/80/80
f 83/83/83 81/81/81 82/82/82
f 81/81/81 83/83/83 84/84/84
f 87/87/87 85/85/85 86/86/86
f 85/85/85 87/87/87 88/88/88
f 91/91/91 89/89/89 90/90/90
f 89/89/89 91/91/91 92/92/92
f 95/95/95 93/93/93 94/94/94
f 93/93/93 95/95/95 96/96/96
f 99/99/99 97/97/97 98/98/98
f 97/97/97 99/99/99 100/100/100
f 103/103/103 101/101/101 102/102/102
f 101/101/101 103/103/103 104/104/104
f 107/107/107 105/105/105 106/106/106
f 105/105/105 107/107/107 108/108/108
f 111/111/111 109/109/109 110/110/110
f 109/109/109 111/111/111 112/112/112
f 115/115/115 113/113/113 114/114/114
f 113/113/113 115/115/115 116/116/116
f 119/119/119 117/117/117 118/118/118
f 117/117/117 119/119/119 120/120/120
f 123/123/123 121/121/121 122/122/122
f 121/121/121 123/123/123 124/124/124
f 127/127/127 125/125/125 126/126/126
f 125/125/125 127/127/127 128/128/128
f 131/131/131 129/129/129 130/130/130
f 129/129/129 131/131/131 132/132/132
f 135/135/135 133/133/133 134/134/134
f 133/133/133 135/135/135 136/136/136
f 139/139/139 137/137/137 138/138/138
f 137/137/137 139/139/139 140/140/140
f 143/143/143 141/141/141 142/142/142
f 141/141/141 143/143/143 144/144/144
f 147/147/147 145/145/145 146/146/146
f 145/145/145 147/147/147 148/148/148
f 151/151/151 149/149/149 150/150/150
f 149/149/149 151/151/151 152/152/152
f 155/155/155 153/153/153 154/154/154
f 153/153/153 155/155/155 156/156/156
f 159/159/159 157/157/157 158/158/158
f 157/157/157 159/159/159 160/160/160
f 163/163/163 161/161/161 162/162/162
f 161/161/161 163/163/163 164/164/164
f 167/167/167 165/165/165 166/166/166
f 165/165/165 167/167/167 168/168/168
f 171/171/171 169/169/169 170/170/170
f 169/169/169 171/171/171 172/172/172
f 175/175/175 173/173/173 174/174/174
f 173/173/173 175/175/175 176/176/176
f 179/179/179 177/177/177 178/178/178
f 177/177/177 179/179/179 180/180/180
f 183/183/183 181/181/181 182/182/182
f 181/181/181 183/183/183 184/184/184
f 187/187/187 185/185/185 186/186/186
f 185/185/185 187/187/187 188/188/188
f 191/191/191 189/189/189 190/190/190
f 189/189/189 191/191/191 192/192/192
f 195/195/195 193/193/193 194/194/194
f 193/193/193 195/195/195 196/196/196
f 199/199/199 197/197/197 198/198/198
f 197/197/197 199/199/199 200/200/200
f 203/203/203 201/201/201 202/202/202
f 201/201/201 203/203/203 204/204/204
f 207/207/207 205/205/205 206/206/206
f 205/205/205 207/207/207 208/208/208
f 211/211/211 209/209/209 210/210/210
f 209/209/209 211/211/211 212/212/212
f 215/215/215 213/213/213 214/214/214
f 213/213/213 215/215/215 216/216/216
f 219/219/219 217/217/217 218/218/218
f 217/217/217 219/219/219 220/220/220
f 223/223/223 221/221/221 222/222/222
f 221/221/221 223/223/223 224/224/224
f 227/227/227 225/225/225 226/226/226
f 225/225/225 227/227/227 228/228/228
f 231/231/231 229/229/229 230/230/230
f 229/229/229 231/231/231 232/232/232
f 235/235/235 233/233/233 234/234/234
f 233/233/233 235/235/235 236/236/236
f 239/239/239 237/237/237 238/238/238
f 237/237/237 239/239/239 240/240/240
f 243/243/243 241/241/241 242/242/242
f 241/241/241 243/243/243 244/244/244
f 247/247/247 245/245/245 246/246/246
f 245/245/245 247/247/247 248/248/248
f 251/251/251 249/249/249 250/250/250
f 249/249/249 251/251/251 252/252/252
f 255/255/255 253/253/253 254/254/254
f 253/253/253 255/255/255 256/256/256
f 259/259/259 257/257/257 258/258/258
f 257/257/257 259/259/259 260/260/260
f 263/263/263 261/261/261 262/262/262
f 261/261/261 263/263/263 264/264/264
f 262/262/262 202/202/202 201/201/201
f 221/221/221 202/202/202 262/262/262
