mtllib ./bridge03.mtl
g bridge03
v -445.092 -150.0002 -169.619
v -392.5914 -150.0002 -112.9806
v -392.6324 -15.16814 -112.9722
v -442.9894 -0.000213623 -163.6205
v -223.5618 -150.0002 56.43982
v -130.8842 -150.0002 149.3579
v -130.8354 -15.16814 149.3348
v -223.502 -15.16812 56.46844
v 41.31258 -15.16814 321.1984
v 40.2101 -150.0003 320.2126
v 162.4309 -150.0003 442.3245
v 162.481 -0.0002593994 442.3364
v -444.0845 149.9998 -164.7097
v -234.9941 43.86549 44.91083
v -119.4443 43.86548 160.4727
v -238.2588 149.9998 41.63715
v 162.435 149.9998 442.331
v 445.2969 -150.0002 159.4805
v 323.4462 -150.0002 36.70239
v 323.476 -15.16814 36.7298
v 445.2859 -0.0002288818 159.4796
v -107.296 -14.49557 -393.3991
v -110.2741 -150.0002 -396.6575
v -162.5935 -150.0002 -449.3207
v -157.6557 -14.73453 -444.2078
v 151.5531 -15.16812 -133.9924
v 59.33821 -15.16811 -226.9984
v 48.14977 43.86555 -237.7576
v 163.6133 43.86556 -122.297
v 44.58394 149.9998 -241.2053
v 445.2777 149.9998 159.4885
v 59.38853 -150.0002 -227.0317
v 151.678 -150.0002 -134.26
v -157.7866 149.9998 -444.3016
v -130.8354 -15.16814 149.3348
v -10.12837 -15.16812 27.92017
v 0.3525238 43.86554 40.05591
v -119.4443 43.86548 160.4727
v 82.73598 -15.16812 -65.06183
v 102.1905 43.86553 -61.85535
v -234.9941 43.86549 44.91083
v -223.8923 43.86549 33.93048
v -209.4575 -15.16812 42.40692
v -223.502 -15.16812 56.46844
v -133.4884 43.86549 -56.53973
v -31.62462 43.86551 -158.4767
v -26.73128 -15.16812 -140.5505
v -119.5852 -15.16812 -47.57874
v -211.6729 -150.0002 -294.5455
v -110.2741 -150.0002 -396.6575
v -107.296 -14.49557 -393.3991
v -196.4368 -15.16811 -310.2562
v -289.2909 -15.16812 -217.2844
v -300.6455 -150.0002 -205.3179
v -392.6324 -15.16814 -112.9722
v -392.5914 -150.0002 -112.9806
v 50.52132 -150.0002 -32.35107
v 151.678 -150.0002 -134.26
v 151.5531 -15.16812 -133.9924
v -8.248413 -150.0002 26.58704
v -40.62663 -150.0002 -126.7465
v -114.5216 -150.0002 -52.63965
v -130.8842 -150.0002 149.3579
v -196.6992 -150.0002 29.77344
v -223.5618 -150.0002 56.43982
v -223.502 -15.16812 56.46844
v 237.1532 -150.0002 123.039
v 163.2582 -150.0002 197.1458
v 161.6589 -15.16814 198.7596
v 254.5232 -15.16814 105.7775
v 40.2101 -150.0003 320.2126
v 41.31258 -15.16814 321.1984
v 44.57076 -15.16814 318.0602
v 323.476 -15.16814 36.7298
v 323.4462 -150.0002 36.70239
v 163.6133 43.86556 -122.297
v 59.33821 -15.16811 -226.9984
v 48.14977 43.86555 -237.7576
v 59.38853 -150.0002 -227.0317
v -223.8923 43.86549 33.93048
v -209.4575 -15.16812 42.40692
v -196.6992 -150.0002 29.77344
v 44.58394 149.9998 -241.2053
v -238.2588 149.9998 41.63715
v -119.4443 43.86548 160.4727
v 0.3525238 43.86554 40.05591
v 102.1905 43.86553 -61.85535
v 163.6133 43.86556 -122.297
v -238.2588 149.9998 41.63715
v 44.58394 149.9998 -241.2053
v 48.14977 43.86555 -237.7576
v -31.62462 43.86551 -158.4767
v -133.4884 43.86549 -56.53973
v -223.8923 43.86549 33.93048
v -234.9941 43.86549 44.91083
v -99.08496 43.86556 -385.5029
v -67.48105 87.78858 -353.7
v -107.296 -14.49557 -393.3991
v -99.08496 43.86556 -385.5029
v -178.5939 43.86551 -305.4461
v -67.48105 87.78858 -353.7
v -142.9106 87.78854 -279.0744
v -157.7866 149.9998 -444.3016
v -252.0675 149.9998 -350.0208
v -142.9106 87.78854 -279.0744
v -67.48105 87.78858 -353.7
v -251.1802 87.78853 -170.7634
v -98.84088 103.8655 -238.3143
v -209.3732 103.8655 -127.7516
v -209.3732 103.8655 -127.7516
v -252.0675 149.9998 -350.0208
v -251.1802 87.78853 -170.7634
v -98.84088 103.8655 -238.3143
v -142.9106 87.78854 -279.0744
v -98.84088 103.8655 -238.3143
v -209.3732 103.8655 -127.7516
v -280.4578 43.86549 -203.5091
v -346.3483 149.9998 -255.7398
v -251.1802 87.78853 -170.7634
v -381.6129 43.86548 -101.8196
v -350.687 87.78854 -71.02039
v -381.6129 43.86548 -101.8196
v -350.687 87.78854 -71.02039
v -444.0845 149.9998 -164.7097
v -350.687 87.78854 -71.02039
v 350.9967 149.9997 253.7693
v 445.2777 149.9998 159.4885
v 244.931 149.9998 -40.85834
v 150.6499 149.9998 53.42242
v 279.0137 87.78857 -6.951355
v 236.5595 103.8656 -49.34955
v 244.931 149.9998 -40.85834
v 312.4219 43.86551 25.74133
v 323.476 -15.16814 36.7298
v 254.5232 -15.16814 105.7775
v 251.2415 43.86551 86.24774
v 312.4219 43.86551 25.74133
v 279.0137 87.78857 -6.951355
v 223.8862 87.78856 48.21515
v 236.5595 103.8656 -49.34955
v 183.519 103.8656 3.70874
v 150.6499 149.9998 53.42242
v 244.931 149.9998 -40.85834
v 236.5595 103.8656 -49.34955
v 183.519 103.8656 3.70874
v 256.716 149.9998 348.0503
v 56.36916 149.9998 147.7034
v 73.0215 103.8656 114.2368
v 115.6538 87.78858 156.4891
v 149.4034 43.86551 188.159
v 161.6589 -15.16814 198.7596
v 56.36916 149.9998 147.7034
v 73.0215 103.8656 114.2368
v 162.435 149.9998 442.331
v -37.91183 149.9998 241.9842
v 28.56758 43.86548 308.4441
v -3.657272 87.78856 276.2326
v -37.91183 149.9998 241.9842
v -45.73825 103.8655 234.1467
v -45.73825 103.8655 234.1467
v -3.657272 87.78856 276.2326
v 30.79118 43.86548 306.858
v 28.56758 43.86548 308.4441
v -3.657272 87.78856 276.2326
v 44.57076 -15.16814 318.0602
v 41.31258 -15.16814 321.1984
v 30.79118 43.86548 306.858
v 44.57076 -15.16814 318.0602
v -37.91183 149.9998 241.9842
v -45.73825 103.8655 234.1467

vn -0.7224782 -0.009350112 0.6913305
vn -0.7333882 -0.000265222 0.67981
vn -0.716612 -0.005223481 0.6974526
vn -0.7104793 -0.009128723 0.7036589
vn -0.7079452 0.0002704361 0.7062674
vn -0.7080221 0.0003766105 0.70619
vn -0.7077872 0.0008098614 0.7064252
vn -0.7078682 0.0002624046 0.7063447
vn -0.7069831 0.0001692339 0.7072304
vn -0.7067913 0.0006069689 0.7074217
vn -0.7069162 0.0003830456 0.7072973
vn -0.7070175 -5.616642E-06 0.7071959
vn -0.7087812 0.0006333075 0.7054281
vn -0.7073049 0.0009839153 0.7069079
vn -0.7071432 0.001126596 0.7070694
vn -0.7071437 5.799286E-05 0.7070699
vn -0.7070809 -0.0001087405 0.7071327
vn 0.7098001 1.881291E-05 -0.7044032
vn 0.7097821 -1.394297E-05 -0.7044213
vn 0.7096721 0.0002453346 -0.7045321
vn 0.7098153 6.426452E-05 -0.7043879
vn 0.7091461 7.708136E-05 -0.7050615
vn 0.709418 0.001356289 -0.7047867
vn 0.7098193 0.001025987 -0.7043831
vn 0.7102369 0.0003974806 -0.7039626
vn 0.7091749 0.0009565926 -0.7050319
vn 0.7101188 0.00221306 -0.7040783
vn 0.7077722 0.0005755076 -0.7064406
vn 0.7070972 -0.001055522 -0.7071155
vn 0.7070974 0.0007860188 -0.7071157
vn 0.7081784 0.002596767 -0.7060287
vn 0.7095338 0.001247449 -0.7046703
vn 0.7089456 0.002056537 -0.7052602
vn 0.708469 -0.0003329857 -0.7057419
vn 0.7062476 -0.0804877 0.7033748
vn 0.7054869 -0.08901344 0.7031108
vn 0.6839651 -0.2611292 0.6811778
vn 0.6844451 -0.2605403 0.6809211
vn 0.7052986 -0.08079096 0.7042916
vn 0.6812956 -0.2640705 0.6827174
vn -0.6803436 -0.2653242 -0.6831805
vn -0.678202 -0.2642907 -0.6857059
vn -0.7015716 -0.1202793 -0.7023746
vn -0.6820197 -0.2661336 -0.6811916
vn -0.682334 -0.2639692 -0.6817189
vn -0.6825919 -0.2607505 -0.6826988
vn -0.7036632 -0.1102411 -0.7019296
vn -0.7049823 -0.08666641 -0.7039098
vn 0.7023915 -0.005763261 0.7117676
vn 0.7092052 -0.03252159 0.7042517
vn 0.6970516 -0.01394339 0.7168853
vn 0.6934302 -0.07804381 0.7162848
vn 0.7062374 -0.08290031 0.7031047
vn 0.7091082 0.001963953 0.705097
vn 0.7071549 -0.08298211 0.7021722
vn 0.7086071 0.0001711373 0.7056033
vn 0.7083688 0.001479307 0.7058409
vn 0.7097212 -0.0007404211 0.7044823
vn 0.7061799 -0.0689059 0.7046714
vn 0.708286 0.001674754 0.7059235
vn -0.7080849 0.0003006121 -0.7061273
vn -0.7079115 -0.0003269461 -0.7063012
vn 0.707496 -0.000134648 0.7067174
vn -0.7055532 5.05924E-05 -0.7086569
vn -0.7045099 0.0004633674 -0.7096941
vn -0.7055532 5.05924E-05 -0.7086569
vn -0.70762 0.0004383665 -0.706593
vn -0.7096738 0.004567769 -0.7045155
vn -0.7102519 0.0002027476 -0.7039475
vn -0.7075707 0.0006885299 -0.7066422
vn -0.7071184 0.0109511 -0.7070103
vn -0.7067761 0.01156637 -0.7073427
vn -0.7131745 0.0008491606 -0.700986
vn -0.7074218 0.0004752534 -0.7067913
vn -0.7072853 0.0003002475 -0.7069281
vn 0.6746199 -0.2736429 0.685571
vn -0.7059445 -0.07470816 -0.704316
vn -0.6817479 -0.2542345 -0.6859917
vn -0.7080597 -8.973652E-05 -0.7061526
vn -0.6822783 -0.2644232 -0.6815987
vn -0.7068384 -0.05135497 -0.7055084
vn -0.7081176 -0.0008451772 -0.706094
vn 0.3779652 0.8450674 0.3781579
vn 0.3775932 0.845486 0.3775936
vn 0.3783789 0.8450435 0.3777975
vn 0.3794699 0.8443352 0.3782867
vn 0.3769413 0.8451254 0.3790494
vn 0.3742267 0.8457687 0.3803021
vn -0.7061189 -0.04419329 -0.7067129
vn -0.7063357 -0.04667608 -0.7063364
vn -0.7059369 -0.04411759 -0.7068993
vn -0.7057143 -0.04026874 -0.7073511
vn -0.7066665 -0.04437454 -0.706154
vn -0.7062211 -0.04428669 -0.7066049
vn -0.7025396 -0.04351913 -0.7103128
vn 0.7070249 -0.000737401 -0.7071882
vn 0.7086141 0.001023957 -0.7055956
vn 0.6778488 -0.2261544 0.6995535
vn 0.6217823 -0.4817121 0.6175275
vn 0.6102542 -0.4990983 0.6152161
vn 0.497137 -0.7105567 0.4979598
vn 0.394399 -0.8293688 0.3957233
vn 0.3091358 0.8988647 0.3106077
vn 0.2490478 0.9359277 0.2490272
vn 0.3091358 0.8988647 0.3106077
vn 0.307593 0.8992905 0.3109069
vn 0.40313 -0.8219333 0.4023828
vn 0.1831001 -0.9659041 0.1830399
vn 0.1831069 -0.9658997 0.1830563
vn -0.5753214 0.7718294 0.2707111
vn -0.2051002 0.9570095 -0.205102
vn -0.5753214 0.7718294 0.2707111
vn 0.6171639 0.2220407 -0.7548553
vn 0.6171639 0.2220407 -0.7548553
vn 0.1691037 0.970991 0.1690574
vn 0.1691037 0.970991 0.1690574
vn 0.6313894 -0.4541041 0.6285992
vn 0.303717 0.9007094 0.3106102
vn 0.3104911 0.8985685 0.3101127
vn -0.7085239 0.001112279 0.7056859
vn -0.7073939 0.002446515 0.7068152
vn 0.5803185 -0.5739514 0.5777631
vn 0.5021719 -0.7048686 0.5009826
vn 0.2901774 0.9048377 0.3115541
vn 0.3005556 0.9017215 0.3107484
vn 1.253498E-07 0.9999999 1.792977E-07
vn -1.66604E-07 1 3.189277E-07
vn 1.190021E-08 0.9999999 2.546663E-07
vn 1.396301E-07 0.9999999 1.396301E-07
vn 0.7065446 0.004895487 -0.7076516
vn 0.7069936 0.001875837 -0.7072174
vn 0.7070894 0.001980624 -0.7071214
vn 0.7072662 0.005510438 -0.7069257
vn -0.6813347 -0.2596282 -0.6843802
vn -0.6824496 -0.2636918 -0.6817105
vn -0.5863822 -0.5576871 -0.587487
vn -0.6015522 -0.5178447 -0.6082531
vn -0.3996167 -0.8241057 -0.4014428
vn -0.2942435 -0.9093512 -0.2941107
vn -0.1830416 -0.965933 -0.1829458
vn -0.1829997 -0.965941 -0.1829456
vn -0.6846715 0.2500384 -0.6846209
vn -0.6846094 0.2502345 -0.6846112
vn -0.6846804 0.2500745 -0.6845987
vn -0.6847686 0.2497211 -0.6846397
vn 1.428036E-07 1 3.490744E-08
vn 5.236127E-08 0.9999999 -1.586706E-09
vn -0.183286 -0.9659474 -0.1826245
vn -0.3444621 -0.8736609 -0.3436021
vn -0.6011012 -0.5275131 -0.6003393
vn -0.6828739 -0.272309 -0.6778871
vn -0.6847503 0.2496589 -0.6846806
vn -0.68705 0.2436194 -0.6845523
vn 1.404234E-07 1 -1.023425E-07
vn 8.092196E-08 1 -8.092199E-08
vn -0.7071369 -5.379158E-05 0.7070765
vn -0.7071043 -0.000121092 0.7071092
vn -0.7071165 -8.095152E-05 0.7070971
vn -0.7071755 -0.0001459627 0.707038
vn -0.1842806 -0.9656751 -0.1830638
vn -0.3997061 -0.82537 -0.3987471
vn -0.4973309 -0.5162345 -0.6972547
vn -0.5793219 -0.4172677 -0.7001956
vn -0.4058994 -0.7151271 -0.5690683
vn -0.6252314 -0.2876681 -0.725488
vn -0.6634755 -0.2920656 -0.6888382
vn -0.6364576 -0.4423699 -0.631847
vn -0.6836872 -0.2869155 -0.6710077
vn -0.6881828 0.2405843 -0.6844879
vn -0.6908749 0.2334457 -0.6842478

vt 1.879629 -0.002006466
vt 1.622163 -0.002006379
vt 1.623348 0.4479046
vt 1.85876 0.4985172
vt 0.8220422 -0.002006379
vt 0.3839331 -0.002006379
vt 0.386285 0.4479046
vt 0.8230694 0.4479046
vt -0.4151614 0.4479046
vt -0.4161885 -0.002006466
vt -1.002198 -0.002006466
vt -1.000362 0.4985172
vt 1.865819 0.999041
vt 0.8772315 0.6448894
vt 0.3330733 0.6448894
vt 0.892584 0.999041
vt -0.9997204 0.999041
vt -1.022426 -0.002006291
vt -0.4364169 -0.002006291
vt -0.4379359 0.4479046
vt -1.023327 0.4985172
vt 1.587259 0.4501488
vt 1.601935 -0.002006291
vt 1.853535 -0.002006379
vt 1.826368 0.4493514
vt 0.3635105 0.4479046
vt 0.8002949 0.4479046
vt 0.85388 0.6448895
vt 0.3097222 0.6448897
vt 0.8692675 0.999041
vt -1.023036 0.999041
vt 0.8018138 -0.002006291
vt 0.3637043 -0.002006291
vt 1.82666 0.9990412
vt 0.9898787 0.005848378
vt 0.9897031 1.303134
vt 0.7742159 1.294572
vt 0.7742175 0.00149864
vt 0.9895726 2.264719
vt 0.774215 2.348787
vt 0.7522206 0.001498729
vt 0.7522208 0.1660037
vt 0.9697184 0.1968326
vt 0.9696923 0.005848378
vt 0.7522219 1.101861
vt 0.752223 2.156344
vt 0.9699774 2.088911
vt 0.9698453 1.127433
vt 0.4709977 1.936391
vt 0.4709978 2.867688
vt 0.9949661 2.980364
vt 0.9945422 2.098124
vt 0.993823 1.126091
vt 0.4709978 1.005093
vt 0.9945424 0.001498729
vt 0.4709978 0.07379633
vt 0.5192149 1.944394
vt 0.5192149 2.875984
vt 0.9894775 2.97207
vt 0.5192149 1.329044
vt 0.4537564 1.961126
vt 0.4537565 1.187406
vt 0.519215 0.08121389
vt 0.4537564 0.3269627
vt 0.4537564 0.08096957
vt 0.9698536 0.006486116
vt 0.0004999042 2.102764
vt 0.0005000234 1.329044
vt 0.9995003 1.312246
vt 0.9995003 2.283809
vt 0.0005000234 0.08121425
vt 0.9995005 0.001498908
vt 0.9995005 0.08167806
vt 0.9995002 2.998502
vt 0.0005000234 2.875985
vt 0.7742143 2.995408
vt 0.970098 2.972072
vt 0.7522238 2.995409
vt 0.4537565 2.87574
vt 0.7522208 0.1660037
vt 0.9697184 0.1968326
vt 0.4537564 0.3269627
vt 1.289246 0.9978278
vt -0.3014662 0.9756621
vt -0.289861 0.2148412
vt 0.3855916 0.2256458
vt 0.9585329 0.2337942
vt 1.301265 0.2363668
vt 1.197965 0.742202
vt -0.1972449 0.7422021
vt -0.1975362 0.3712459
vt 0.1947589 0.3712883
vt 0.6974148 0.3712819
vt 1.143524 0.3712762
vt 1.197988 0.3712867
vt 1.547953 0.6448897
vt 1.401331 0.7914531
vt 0.9943728 2.980322
vt 0.7721899 2.995408
vt 0.7721909 2.156344
vt 0.4715791 2.998502
vt 0.4714959 2.204524
vt 1.2261 0.8985062
vt 0.7450848 0.8985063
vt 0.8425586 0.5191851
vt 1.225345 0.5178177
vt 0.4713855 1.083918
vt 0.06875486 2.221648
vt 0.06858177 1.077684
vt 0.2869942 0.3937092
vt 0.7450848 0.8985063
vt 0.2900678 0.5191149
vt 0.8510011 0.3937608
vt 0.8425586 0.5191851
vt 0.8510011 0.3937608
vt 0.2869942 0.3937092
vt 0.7721921 1.101861
vt 0.2640692 0.898506
vt 0.2900678 0.5191149
vt 1.570137 0.6448895
vt 1.42485 0.7914531
vt 0.7722004 0.008817941
vt 0.4712746 0.01230481
vt -0.2174683 0.9099124
vt -0.2182127 0.5187131
vt 0.692273 0.001354417
vt 1.029182 0.001354417
vt 1.029181 0.9002157
vt 0.692273 0.9002159
vt -0.2376228 0.7914531
vt -0.03721122 0.8450992
vt -0.07688475 0.999041
vt -0.3843508 0.6448895
vt 0.996608 2.97207
vt 0.9965116 2.264719
vt 0.7787925 2.348787
vt 0.7787932 2.995408
vt 0.4766975 2.998502
vt 0.47676 2.408937
vt 0.05793133 2.996268
vt 0.05802342 2.430354
vt 0.2713701 0.6074374
vt -0.1868132 0.6046374
vt -0.186389 0.3498273
vt 0.07141808 0.351418
vt 0.3463965 0.00135361
vt 0.3463962 0.9002153
vt 0.05819669 1.28675
vt 0.4768718 1.288715
vt 0.7787913 1.294572
vt 0.9963795 1.303134
vt 0.7295534 0.6102375
vt 0.6084831 0.3547262
vt 0.0005198073 0.001354013
vt 0.0005195903 0.9002157
vt -0.3609993 0.6448894
vt -0.2141038 0.7914531
vt -0.05356843 0.999041
vt -0.01369216 0.8450992
vt 0.05839607 0.01962671
vt 0.4770034 0.01230535
vt 0.7787901 0.0667036
vt 0.77879 0.04865491
vt 0.4770034 0.01230535
vt 0.9962132 0.08520422
vt 0.9962023 0.05300447
vt 0.7787901 0.0667036
vt 0.9962132 0.08520422
vt 1.187737 0.6130375
vt 1.188374 0.3592489

usemtl sn13_27_sn13r16.JPG
usemap sn13_27_sn13r16.JPG
f 3/3/3 1/1/1 2/2/2
f 4/4/4 1/1/1 3/3/3
f 7/7/7 5/5/5 6/6/6
f 7/7/7 8/8/8 5/5/5
f 11/11/11 9/9/9 10/10/10
f 12/12/12 9/9/9 11/11/11
f 13/13/13 4/4/4 3/3/3
f 7/7/7 14/14/14 8/8/8
f 14/14/14 15/15/15 16/16/16
f 14/14/14 7/7/7 15/15/15
f 12/12/12 17/17/17 9/9/9
f 20/20/20 18/18/18 19/19/19
f 21/21/21 18/18/18 20/20/20
f 24/24/24 22/22/22 23/23/23
f 25/25/25 22/22/22 24/24/24
f 28/28/28 26/26/26 27/27/27
f 28/28/28 29/29/29 26/26/26
f 30/30/30 29/29/29 28/28/28
f 21/21/21 20/20/20 31/31/31
f 26/26/26 32/32/32 27/27/27
f 26/26/26 33/33/33 32/32/32
f 34/34/34 22/22/22 25/25/25
f 34/34/34 96/96/96 22/22/22
f 34/34/34 97/97/97 96/96/96
f 13/13/13 120/120/120 121/121/121
f 13/13/13 3/3/3 120/120/120
f 132/132/132 130/130/130 131/131/131
f 31/31/31 130/130/130 132/132/132
f 133/133/133 31/31/31 20/20/20
f 133/133/133 130/130/130 31/31/31
f 9/9/9 17/17/17 156/156/156
f 17/17/17 157/157/157 156/156/156
f 158/158/158 157/157/157 17/17/17
f 159/159/159 157/157/157 158/158/158

usemtl sn13_09_sn13r01.jpg
usemap sn13_09_sn13r01.jpg
f 37/37/37 35/35/35 36/36/36
f 35/35/35 37/37/37 38/38/38
f 40/40/40 36/36/36 39/39/39
f 36/36/36 40/40/40 37/37/37
f 43/43/43 41/41/41 42/42/42
f 41/41/41 43/43/43 44/44/44
f 47/47/47 45/45/45 46/46/46
f 45/45/45 47/47/47 48/48/48
f 51/51/51 49/49/49 50/50/50
f 52/52/52 49/49/49 51/51/51
f 53/53/53 49/49/49 52/52/52
f 54/54/54 49/49/49 53/53/53
f 55/55/55 54/54/54 53/53/53
f 56/56/56 54/54/54 55/55/55
f 59/59/59 57/57/57 58/58/58
f 57/57/57 59/59/59 39/39/39
f 36/36/36 57/57/57 39/39/39
f 60/60/60 57/57/57 36/36/36
f 48/48/48 61/61/61 62/62/62
f 47/47/47 61/61/61 48/48/48
f 35/35/35 60/60/60 36/36/36
f 63/63/63 60/60/60 35/35/35
f 66/66/66 64/64/64 65/65/65
f 43/43/43 64/64/64 66/66/66
f 69/69/69 67/67/67 68/68/68
f 70/70/70 67/67/67 69/69/69
f 72/72/72 68/68/68 71/71/71
f 73/73/73 68/68/68 72/72/72
f 74/74/74 67/67/67 70/70/70
f 67/67/67 74/74/74 75/75/75
f 40/40/40 59/59/59 76/76/76
f 39/39/39 59/59/59 40/40/40
f 46/46/46 77/77/77 47/47/47
f 78/78/78 77/77/77 46/46/46
f 77/77/77 61/61/61 47/47/47
f 77/77/77 79/79/79 61/61/61
f 48/48/48 80/80/80 45/45/45
f 80/80/80 48/48/48 81/81/81
f 48/48/48 62/62/62 81/81/81
f 81/81/81 62/62/62 82/82/82
f 69/69/69 68/68/68 73/73/73
f 100/100/100 98/98/98 99/99/99
f 52/52/52 98/98/98 100/100/100
f 101/101/101 100/100/100 99/99/99
f 100/100/100 101/101/101 102/102/102
f 102/102/102 107/107/107 100/100/100
f 108/108/108 107/107/107 102/102/102
f 107/107/107 108/108/108 109/109/109
f 100/100/100 53/53/53 52/52/52
f 53/53/53 100/100/100 117/117/117
f 117/117/117 100/100/100 107/107/107
f 117/117/117 55/55/55 53/53/53
f 55/55/55 117/117/117 122/122/122
f 107/107/107 122/122/122 117/117/117
f 122/122/122 107/107/107 123/123/123
f 128/128/128 126/126/126 127/127/127
f 126/126/126 128/128/128 129/129/129
f 136/136/136 134/134/134 135/135/135
f 137/137/137 134/134/134 136/136/136
f 136/136/136 138/138/138 137/137/137
f 138/138/138 136/136/136 139/139/139
f 139/139/139 140/140/140 138/138/138
f 141/141/141 140/140/140 139/139/139
f 129/129/129 146/146/146 126/126/126
f 146/146/146 129/129/129 147/147/147
f 139/139/139 148/148/148 141/141/141
f 148/148/148 139/139/139 149/149/149
f 136/136/136 149/149/149 139/139/139
f 149/149/149 136/136/136 150/150/150
f 135/135/135 150/150/150 136/136/136
f 150/150/150 135/135/135 151/151/151
f 147/147/147 154/154/154 146/146/146
f 154/154/154 147/147/147 155/155/155
f 149/149/149 160/160/160 148/148/148
f 160/160/160 149/149/149 161/161/161
f 150/150/150 161/161/161 149/149/149
f 164/164/164 162/162/162 163/163/163
f 165/165/165 163/163/163 162/162/162
f 163/163/163 165/165/165 166/166/166
f 161/161/161 150/150/150 167/167/167
f 151/151/151 167/167/167 150/150/150
f 167/167/167 151/151/151 168/168/168

usemtl sn13_21_sn13h06.JPG
usemap sn13_21_sn13h06.JPG
f 85/85/85 83/83/83 84/84/84
f 86/86/86 83/83/83 85/85/85
f 83/83/83 87/87/87 88/88/88
f 87/87/87 83/83/83 86/86/86
f 91/91/91 89/89/89 90/90/90
f 92/92/92 89/89/89 91/91/91
f 89/89/89 93/93/93 94/94/94
f 93/93/93 89/89/89 92/92/92
f 95/95/95 89/89/89 94/94/94
f 105/105/105 103/103/103 104/104/104
f 106/106/106 103/103/103 105/105/105
f 112/112/112 110/110/110 111/111/111
f 114/114/114 111/111/111 113/113/113
f 116/116/116 115/115/115 104/104/104
f 119/119/119 104/104/104 118/118/118
f 125/125/125 118/118/118 124/124/124
f 119/119/119 118/118/118 125/125/125
f 144/144/144 142/142/142 143/143/143
f 145/145/145 142/142/142 144/144/144
f 145/145/145 152/152/152 142/142/142
f 153/153/153 152/152/152 145/145/145
f 153/153/153 169/169/169 152/152/152
f 170/170/170 169/169/169 153/153/153
