mtllib ./ian0003.mtl
g ian0003
v -3.690796 -3.749166 0.5577393
v -2.510925 -3.749166 3.544983
v -3.690796 62.8064 0.5577393
v -2.510925 62.8064 3.544983
v -2.39325 -3.749166 -2.434967
v -2.39325 62.8064 -2.434967
v 0.6217041 -3.749166 -3.680115
v 0.6217041 62.8064 -3.680115
v 3.587891 -3.749166 -2.448273
v 3.587891 62.8064 -2.448273
v 4.767761 -3.749166 0.5389709
v 4.767761 62.8064 0.5389709
v 3.470215 -3.749166 3.531708
v 3.470215 62.8064 3.531708
v 0.4552612 -3.749166 4.776825
v 0.4552612 62.8064 4.776825
v 0.4552612 -3.749166 4.776825
v 0.4552612 62.8064 4.776825
v -5.756348 -9.133829 0.5623474
v -4.000244 -9.133829 5.008545
v -6.68512 -7.731282 0.5643921
v -4.669861 -7.731282 5.666595
v -3.825073 -9.133829 -3.892029
v -4.468872 -7.731282 -4.54718
v 0.6622925 -9.133829 -5.7453
v 0.680603 -7.731282 -6.673859
v 5.077209 -9.133829 -3.911804
v 5.746826 -7.731282 -4.569855
v 6.833374 -9.133829 0.5343933
v 7.762085 -7.731282 0.5323181
v 4.902039 -9.133829 4.98877
v 5.545898 -7.731282 5.643921
v 0.4146729 -9.133828 6.842041
v 0.3963623 -7.731282 7.770599
v 0.4146729 -9.133828 6.842041
v 0.3963623 -7.731282 7.770599
v -4.621216 -6.969096 0.5598145
v -3.181763 -6.969096 4.204254
v -3.038208 -6.969096 -3.091309
v 0.6400146 -6.969096 -4.610382
v 4.258728 -6.969096 -3.107513
v 5.698242 -6.969096 0.5368958
v 4.115173 -6.969096 4.188049
v 0.4370117 -6.969096 5.707092
v 0.4370117 -6.969096 5.707092
v -5.756348 -5.433554 0.5623474
v -4.000244 -5.433554 5.008545
v -3.825073 -5.433554 -3.892029
v 0.6622925 -5.433554 -5.7453
v 5.077209 -5.433554 -3.911804
v 6.833374 -5.433554 0.5343933
v 4.902039 -5.433554 4.98877
v 0.4146729 -5.433554 6.84201
v 0.4146729 -5.433554 6.84201
v -4.621216 -4.662369 0.5598145
v -3.181763 -4.662369 4.204254
v -3.038208 -4.662369 -3.091309
v 0.6400146 -4.662369 -4.610382
v 4.258728 -4.662369 -3.107513
v 5.698242 -4.662369 0.5368958
v 4.115173 -4.662369 4.188049
v 0.4370117 -4.662369 5.707092
v 0.4370117 -4.662369 5.707092
v -4.621216 -3.773708 0.5598145
v -3.181763 -3.773708 4.204254
v -3.038208 -3.773708 -3.091309
v 0.6400146 -3.773708 -4.610382
v 4.258728 -3.773708 -3.107513
v 5.698242 -3.773708 0.5368958
v 4.115173 -3.773708 4.188049
v 0.4370117 -3.773708 5.707092
v 0.4370117 -3.773708 5.707092
v -3.690796 -3.749166 0.5577393
v -2.510925 -3.749166 3.544983
v -2.39325 -3.749166 -2.434967
v 0.6217041 -3.749166 -3.680115
v 3.587891 -3.749166 -2.448273
v 4.767761 -3.749166 0.5389709
v 3.470215 -3.749166 3.531708
v 0.4552612 -3.749166 4.776825
v 0.4552612 -3.749166 4.776825

vn -0.9877886 0 -0.1558
vn -0.8042023 0 0.5943557
vn -0.9930574 0 0.1176311
vn -0.6083056 0 0.7937029
vn -0.5991193 0 -0.8006598
vn -0.7900783 0 -0.6130059
vn 0.1349443 0 -0.9908533
vn -0.1385399 0 -0.9903568
vn 0.8042023 0 -0.5943557
vn 0.6083056 0 -0.793703
vn 0.9877888 0 0.155799
vn 0.9930574 0 -0.1176307
vn 0.5991171 0 0.8006613
vn 0.7900796 0 0.6130042
vn 0.3817105 0 0.924282
vn 0.3817105 0 0.924282
vn -0.3835357 0 0.9235261
vn -0.3835357 0 0.9235261
vn -0.8255442 -0.5464666 -0.1408936
vn -0.6770743 -0.5517461 0.4869769
vn -0.9007381 0.4337119 0.02376739
vn -0.6111055 0.4372495 0.6598204
vn -0.4944412 -0.5437261 -0.6781518
vn -0.6612958 0.4295648 -0.6149487
vn 0.1233533 -0.5489333 -0.8267142
vn -0.04341732 0.4330016 -0.9003469
vn 0.677076 -0.5517388 -0.4869829
vn 0.6111056 0.4372424 -0.6598248
vn 0.82555 -0.5464585 0.1408907
vn 0.9007345 0.4337192 -0.02377223
vn 0.4944335 -0.5437377 0.6781482
vn 0.6612939 0.42957 0.6149471
vn 0.3263228 -0.5188485 0.7901327
vn 0.3802421 0.08783121 0.9207071
vn -0.3264923 -0.5247374 0.7861638
vn -0.2855628 0.6675682 0.6876093
vn -0.9116982 0.4066967 -0.05834597
vn -0.6785516 0.4107724 0.6089612
vn -0.612486 0.4033677 -0.6798201
vn 0.03843957 0.4073409 -0.9124669
vn 0.6785524 0.4107652 -0.6089652
vn 0.9117045 0.4066819 0.05834952
vn 0.6124848 0.4033733 0.679818
vn 0.2645552 0.7208729 0.640588
vn -0.3815594 -0.1012664 0.9187804
vn -0.9997956 -5.468582E-06 0.02022445
vn -0.6840954 -6.988735E-07 0.7293926
vn -0.7281992 4.916748E-06 -0.6853654
vn -0.042043 1.216776E-06 -0.9991158
vn 0.6840955 2.213089E-06 -0.7293925
vn 0.9997954 -3.739063E-06 -0.02022608
vn 0.7281954 -3.41892E-06 0.6853697
vn 0.3712456 -0.2326346 0.8989204
vn -0.367886 0.2827004 0.8858557
vn -0.8153855 0.5787808 -0.01262195
vn -0.5770419 0.5830091 0.5719468
vn -0.5760543 0.5745726 -0.5814015
vn -0.00523354 0.5787076 -0.8155182
vn 0.5770426 0.5830051 -0.57195
vn 0.8153848 0.5787817 0.01262222
vn 0.5760528 0.5745747 0.5814009
vn 0.2854043 0.664055 0.6910682
vn -0.354284 0.3830145 0.8531018
vn -0.7192637 0.6900584 0.0804932
vn -0.4423535 0.6928955 0.5694025
vn -0.5726064 0.6852451 -0.4500678
vn -0.09594573 0.6880161 -0.7193249
vn 0.4423554 0.6928975 -0.5693985
vn 0.7192459 0.6900766 -0.08049533
vn 0.5726046 0.685246 0.4500688
vn 0.3450212 0.4278183 0.8354231
vn -0.1954241 0.8604476 0.4705734
vn -0.02636037 0.9996459 0.003620233
vn -0.01567173 0.999651 0.02126704
vn -0.02160684 0.9996361 -0.016147
vn -0.004196899 0.9996412 -0.02645518
vn 0.01567198 0.999651 -0.02126709
vn 0.02635928 0.9996459 -0.003620251
vn 0.02160632 0.9996362 0.01614672
vn 0.01098002 0.9995862 0.02658694
vn -0.01086342 0.9995987 0.02615832

vt 0.3792136 0.2260768
vt 0.4407364 0.2260768
vt 0.3792136 0.9995005
vt 0.4407363 0.9995005
vt 0.3159515 0.2260768
vt 0.3159515 0.9995005
vt 0.2526738 0.2260768
vt 0.2526738 0.9995005
vt 0.1911363 0.2260768
vt 0.1911363 0.9995005
vt 0.1296136 0.2260768
vt 0.1296136 0.9995005
vt 0.06635147 0.2260768
vt 0.0663515 0.9995005
vt 0.003073812 0.2260768
vt 0.003073812 0.9995005
vt 0.5022738 0.2260768
vt 0.5022738 0.9995005
vt 0.3792135 0.003488531
vt 0.4407363 0.003488531
vt 0.3792135 0.06146628
vt 0.4407363 0.06146628
vt 0.3159515 0.003488531
vt 0.3159515 0.06146628
vt 0.2526739 0.003488531
vt 0.2526739 0.06146628
vt 0.1911363 0.003488531
vt 0.1911363 0.06146628
vt 0.1296135 0.003488531
vt 0.1296135 0.06146628
vt 0.06635147 0.003488531
vt 0.06635147 0.06146628
vt 0.003073913 0.003488531
vt 0.00307388 0.06146628
vt 0.5022739 0.003488531
vt 0.5022739 0.06146628
vt 0.3792135 0.09297308
vt 0.4407363 0.09297308
vt 0.3159515 0.09297308
vt 0.2526739 0.09297308
vt 0.1911363 0.09297308
vt 0.1296135 0.09297308
vt 0.06635147 0.09297308
vt 0.003073913 0.09297308
vt 0.5022739 0.09297308
vt 0.3792135 0.1564484
vt 0.4407363 0.1564484
vt 0.3159515 0.1564484
vt 0.2526739 0.1564484
vt 0.1911363 0.1564484
vt 0.1296135 0.1564484
vt 0.0663515 0.1564484
vt 0.003073913 0.1564484
vt 0.5022739 0.1564484
vt 0.3792135 0.1883273
vt 0.4407363 0.1883273
vt 0.3159515 0.1883273
vt 0.2526739 0.1883273
vt 0.1911363 0.1883273
vt 0.1296135 0.1883273
vt 0.0663515 0.1883273
vt 0.003073913 0.1883273
vt 0.5022739 0.1883273
vt 0.3792135 0.2250623
vt 0.4407363 0.2250623
vt 0.3159515 0.2250623
vt 0.2526739 0.2250623
vt 0.1911363 0.2250623
vt 0.1296135 0.2250623
vt 0.06635147 0.2250623
vt 0.003073913 0.2250623
vt 0.5022739 0.2250623
vt 0.3792136 0.2260768
vt 0.4407364 0.2260768
vt 0.3159515 0.2260768
vt 0.2526738 0.2260768
vt 0.1911363 0.2260768
vt 0.1296136 0.2260768
vt 0.06635147 0.2260768
vt 0.003073812 0.2260768
vt 0.5022738 0.2260768

usemtl sn13_13_deco3.JPG
usemap sn13_13_deco3.JPG
f 3/3/3 1/1/1 2/2/2
f 4/4/4 3/3/3 2/2/2
f 6/6/6 5/5/5 1/1/1
f 3/3/3 6/6/6 1/1/1
f 8/8/8 7/7/7 5/5/5
f 6/6/6 8/8/8 5/5/5
f 10/10/10 9/9/9 7/7/7
f 8/8/8 10/10/10 7/7/7
f 12/12/12 11/11/11 9/9/9
f 10/10/10 12/12/12 9/9/9
f 14/14/14 13/13/13 11/11/11
f 12/12/12 14/14/14 11/11/11
f 16/16/16 15/15/15 13/13/13
f 14/14/14 16/16/16 13/13/13
f 4/4/4 2/2/2 17/17/17
f 18/18/18 4/4/4 17/17/17
f 21/21/21 19/19/19 20/20/20
f 22/22/22 21/21/21 20/20/20
f 24/24/24 23/23/23 19/19/19
f 21/21/21 24/24/24 19/19/19
f 26/26/26 25/25/25 23/23/23
f 24/24/24 26/26/26 23/23/23
f 28/28/28 27/27/27 25/25/25
f 26/26/26 28/28/28 25/25/25
f 30/30/30 29/29/29 27/27/27
f 28/28/28 30/30/30 27/27/27
f 32/32/32 31/31/31 29/29/29
f 30/30/30 32/32/32 29/29/29
f 34/34/34 33/33/33 31/31/31
f 32/32/32 34/34/34 31/31/31
f 22/22/22 20/20/20 35/35/35
f 36/36/36 22/22/22 35/35/35
f 37/37/37 21/21/21 22/22/22
f 38/38/38 37/37/37 22/22/22
f 39/39/39 24/24/24 21/21/21
f 37/37/37 39/39/39 21/21/21
f 40/40/40 26/26/26 24/24/24
f 39/39/39 40/40/40 24/24/24
f 41/41/41 28/28/28 26/26/26
f 40/40/40 41/41/41 26/26/26
f 42/42/42 30/30/30 28/28/28
f 41/41/41 42/42/42 28/28/28
f 43/43/43 32/32/32 30/30/30
f 42/42/42 43/43/43 30/30/30
f 44/44/44 34/34/34 32/32/32
f 43/43/43 44/44/44 32/32/32
f 38/38/38 22/22/22 36/36/36
f 45/45/45 38/38/38 36/36/36
f 46/46/46 37/37/37 38/38/38
f 47/47/47 46/46/46 38/38/38
f 48/48/48 39/39/39 37/37/37
f 46/46/46 48/48/48 37/37/37
f 49/49/49 40/40/40 39/39/39
f 48/48/48 49/49/49 39/39/39
f 50/50/50 41/41/41 40/40/40
f 49/49/49 50/50/50 40/40/40
f 51/51/51 42/42/42 41/41/41
f 50/50/50 51/51/51 41/41/41
f 52/52/52 43/43/43 42/42/42
f 51/51/51 52/52/52 42/42/42
f 53/53/53 44/44/44 43/43/43
f 52/52/52 53/53/53 43/43/43
f 47/47/47 38/38/38 45/45/45
f 54/54/54 47/47/47 45/45/45
f 55/55/55 46/46/46 47/47/47
f 56/56/56 55/55/55 47/47/47
f 57/57/57 48/48/48 46/46/46
f 55/55/55 57/57/57 46/46/46
f 58/58/58 49/49/49 48/48/48
f 57/57/57 58/58/58 48/48/48
f 59/59/59 50/50/50 49/49/49
f 58/58/58 59/59/59 49/49/49
f 60/60/60 51/51/51 50/50/50
f 59/59/59 60/60/60 50/50/50
f 61/61/61 52/52/52 51/51/51
f 60/60/60 61/61/61 51/51/51
f 62/62/62 53/53/53 52/52/52
f 61/61/61 62/62/62 52/52/52
f 56/56/56 47/47/47 54/54/54
f 63/63/63 56/56/56 54/54/54
f 64/64/64 55/55/55 56/56/56
f 65/65/65 64/64/64 56/56/56
f 66/66/66 57/57/57 55/55/55
f 64/64/64 66/66/66 55/55/55
f 67/67/67 58/58/58 57/57/57
f 66/66/66 67/67/67 57/57/57
f 68/68/68 59/59/59 58/58/58
f 67/67/67 68/68/68 58/58/58
f 69/69/69 60/60/60 59/59/59
f 68/68/68 69/69/69 59/59/59
f 70/70/70 61/61/61 60/60/60
f 69/69/69 70/70/70 60/60/60
f 71/71/71 62/62/62 61/61/61
f 70/70/70 71/71/71 61/61/61
f 65/65/65 56/56/56 63/63/63
f 72/72/72 65/65/65 63/63/63
f 73/73/73 64/64/64 65/65/65
f 74/74/74 73/73/73 65/65/65
f 75/75/75 66/66/66 64/64/64
f 73/73/73 75/75/75 64/64/64
f 76/76/76 67/67/67 66/66/66
f 75/75/75 76/76/76 66/66/66
f 77/77/77 68/68/68 67/67/67
f 76/76/76 77/77/77 67/67/67
f 78/78/78 69/69/69 68/68/68
f 77/77/77 78/78/78 68/68/68
f 79/79/79 70/70/70 69/69/69
f 78/78/78 79/79/79 69/69/69
f 80/80/80 71/71/71 70/70/70
f 79/79/79 80/80/80 70/70/70
f 74/74/74 65/65/65 72/72/72
f 81/81/81 74/74/74 72/72/72
