mtllib ./ian0001.mtl
g ian0001
v -51.26672 78.24525 1.9646
v -24.98145 78.43268 -25.42102
v -51.26672 37.05399 1.9646
v -24.98145 37.24141 -25.42102
v 22.97198 78.43268 75.03729
v -51.26672 78.24525 1.9646
v 22.97198 37.24141 75.03729
v -51.26672 37.05399 1.9646
v 2.858704 78.24525 -51.22437
v 74.62463 80.81906 24.27838
v 2.858704 37.05399 -51.22433
v 74.62463 37.24141 24.27838
v 122.5781 78.43268 124.7367
v 94.73792 78.24525 150.54
v 94.73792 37.05399 150.54
v 122.5781 37.24141 124.7367
v 94.73792 78.24525 150.54
v 94.73792 37.05399 150.54
v 148.8633 78.24525 97.35104
v 148.8633 37.05399 97.35104
v 148.8633 78.24525 97.35104
v 148.8633 37.05399 97.35104
v 2.858704 78.24525 -51.22437
v 2.858704 37.05399 -51.22433

vn -0.7214521 0 -0.6924644
vn -0.7078262 0 -0.7063866
vn -0.7214521 0 -0.6924644
vn -0.6939263 -1.811946E-07 -0.720046
vn -0.7132505 0 0.7009093
vn -0.7014879 0 0.7126814
vn -0.7132504 0 0.7009093
vn -0.7014879 0 0.7126814
vn 0.7248157 -5.104204E-07 -0.6889428
vn 0.7132505 -1.240301E-07 -0.7009091
vn 0.7248157 -2.480257E-07 -0.6889428
vn 0.7132505 0 -0.7009091
vn 0.6939263 0 0.720046
vn 0.6797674 0 0.7334278
vn 0.6797674 0 0.7334278
vn 0.707827 0 0.7063858
vn -0.7248155 0 0.6889431
vn -0.7248155 0 0.6889431
vn 0.7214538 0 0.6924626
vn 0.7214538 0 0.6924626
vn 0.7014879 0 -0.7126813
vn 0.701488 0 -0.7126814
vn -0.6797684 -2.716888E-07 -0.7334269
vn -0.6797681 -5.433777E-07 -0.733427

vt 0.9761283 0.9407496
vt 0.4881895 0.9450279
vt 0.9761283 0.0004996061
vt 0.4881895 0.004777998
vt 1.495468 0.9450279
vt 0.001498371 0.9407496
vt 1.495468 0.004777998
vt 0.001498461 0.0004996061
vt 2.989004 0.9407496
vt 1.495468 0.9995006
vt 2.989003 0.0004996061
vt 1.495468 0.004777998
vt 0.4881895 0.9450279
vt 0.0004994869 0.9407496
vt 0.0004994869 0.0004996061
vt 0.4881895 0.004777998
vt 2.989004 0.9407496
vt 2.989004 0.0004996061
vt 0.9761285 0.9407496
vt 0.9761285 0.0004996061
vt 0.001498371 0.9407496
vt 0.001498371 0.0004996061
vt 0.0004994571 0.9407496
vt 0.0004994869 0.0004996061

usemtl sn13_12_sn13h04.JPG
usemap sn13_12_sn13h04.JPG
f 3/3/3 1/1/1 2/2/2
f 2/2/2 4/4/4 3/3/3
f 7/7/7 5/5/5 6/6/6
f 6/6/6 8/8/8 7/7/7
f 11/11/11 9/9/9 10/10/10
f 10/10/10 12/12/12 11/11/11
f 15/15/15 13/13/13 14/14/14
f 13/13/13 15/15/15 16/16/16
f 7/7/7 17/17/17 5/5/5
f 17/17/17 7/7/7 18/18/18
f 16/16/16 19/19/19 13/13/13
f 19/19/19 16/16/16 20/20/20
f 22/22/22 10/10/10 21/21/21
f 10/10/10 22/22/22 12/12/12
f 4/4/4 2/2/2 23/23/23
f 23/23/23 24/24/24 4/4/4
