mtllib ./ian1642.mtl
g ian1642
v -59.36551 50.83309 -13.37073
v 58.65085 50.79243 -13.40637
v 70.20154 38.84279 -29.64385
v -69.81667 39.1356 -29.44157
v -69.31316 39.4604 29.55962
v -58.6993 50.83309 13.80959
v -59.36551 50.83309 -13.37073
v -69.81667 39.1356 -29.44157
v 70.24599 38.93421 29.85868
v 58.65895 50.79243 13.43086
v -58.6993 50.83309 13.80959
v -69.31316 39.4604 29.55962
v 70.20154 38.84279 -29.64385
v 58.65085 50.79243 -13.40637
v 58.65895 50.79243 13.43086
v 70.24599 38.93421 29.85868
v 54.75782 61.40318 0.9967043
v -55.9674 61.44386 1.045037
v -56.56438 61.44386 -0.1364329
v 54.75746 61.40318 -0.1700575
v -48.35328 17.91315 4.978194
v -48.40649 30.16607 4.97821
v -48.35669 17.91315 -6.299771
v -48.40989 30.16607 -6.299756
v 46.73125 17.91316 -6.066121
v -48.35669 17.91315 -6.299771
v 46.67792 30.16607 -6.066104
v -48.40989 30.16607 -6.299756
v 46.33373 17.91316 5.474094
v 46.28053 30.16607 5.47411
v -48.35328 17.91315 4.978194
v -48.40649 30.16607 4.97821
v 46.73125 17.91316 -6.066121
v 46.67792 30.16607 -6.066104
v 46.33373 17.91316 5.474094
v 46.28053 30.16607 5.47411
v -69.31316 39.4604 29.55962
v -69.81667 39.1356 -29.44157
v -48.40989 30.16607 -6.299756
v -48.40649 30.16607 4.97821
v -69.81667 39.1356 -29.44157
v 70.20154 38.84279 -29.64385
v 46.67792 30.16607 -6.066104
v -48.40989 30.16607 -6.299756
v 70.24599 38.93421 29.85868
v -69.31316 39.4604 29.55962
v -48.40649 30.16607 4.97821
v 46.28053 30.16607 5.47411
v 70.20154 38.84279 -29.64385
v 70.24599 38.93421 29.85868
v 46.28053 30.16607 5.47411
v 46.67792 30.16607 -6.066104
v -38.02896 8.494827 -9.410717
v -42.01104 -77.64433 -9.425867
v -50.5895 19.01632 -9.406923
v -56.97124 -77.64433 -9.421349
v -50.58407 19.00655 8.550544
v -50.5895 19.01632 -9.406923
v -56.96581 -77.64433 8.55601
v -56.97124 -77.64433 -9.421349
v -38.02353 8.494827 8.566763
v -42.00561 -77.64433 8.551491
v -38.02896 8.494827 -9.410717
v -42.01104 -77.64433 -9.425867
v -50.58407 19.00655 8.550544
v -56.96581 -77.64433 8.55601
v -38.02353 8.494827 8.566763
v -42.00561 -77.64433 8.551491
v 49.49071 18.83905 8.611231
v -50.58407 19.00655 8.550544
v 36.99474 8.488136 8.635018
v -38.02353 8.494827 8.566763
v 36.9893 8.488136 -9.34234
v 36.99474 8.488136 8.635018
v -38.02896 8.494827 -9.410717
v -38.02353 8.494827 8.566763
v -50.5895 19.01632 -9.406923
v 49.48529 18.84882 -9.346114
v 49.49071 18.83905 8.611231
v -50.58407 19.00655 8.550544
v 36.9893 8.488136 -9.34234
v -38.02896 8.494827 -9.410717
v 49.48529 18.84882 -9.346114
v -50.5895 19.01632 -9.406923
v 56.93104 -77.12656 9.253442
v 49.49071 18.83905 8.611231
v 41.93203 -77.01301 9.257973
v 36.99474 8.488136 8.635018
v 41.9266 -77.01301 -8.719507
v 41.93203 -77.01301 9.257973
v 36.9893 8.488136 -9.34234
v 36.99474 8.488136 8.635018
v 41.9266 -77.01301 -8.719507
v 36.9893 8.488136 -9.34234
v 56.92561 -77.12656 -8.724038
v 49.48529 18.84882 -9.346114
v 56.93104 -77.12656 9.253442
v 56.92561 -77.12656 -8.724038
v 49.49071 18.83905 8.611231
v 49.48529 18.84882 -9.346114
v 58.65085 50.79243 -13.40637
v 54.75746 61.40318 -0.1700575
v 54.75782 61.40318 0.9967043
v 58.65895 50.79243 13.43086
v -58.6993 50.83309 13.80959
v -55.9674 61.44386 1.045037
v -56.56438 61.44386 -0.1364329
v -58.6993 50.83309 13.80959
v -56.56438 61.44386 -0.1364329
v -59.36551 50.83309 -13.37073
v -50.58407 19.00655 8.550544
v 49.49071 18.83905 8.611231
v 49.48529 18.84882 -9.346114
v -50.5895 19.01632 -9.406923

vn -0.6057436 0.7956598 -0.0003221035
vn -0.6077876 0.7940996 -9.012222E-05
vn -0.590611 0.8069562 -0.0004983544
vn -0.5888443 0.808246 -0.000839591
vn 0.007482527 0.6742103 0.7385015
vn 0.01761538 0.6951203 0.7186775
vn 0.007482527 0.6742103 0.7385015
vn 0.002723367 0.6641774 0.7475701
vn 0.5853068 0.8108094 -0.00197041
vn 0.6213339 0.7835439 -0.001746833
vn 0.6005795 0.7995623 -0.002070844
vn 0.5862067 0.8101594 -0.001798391
vn -0.001174425 0.6969368 -0.7171315
vn -0.0002170648 0.6951551 -0.7188597
vn -0.001174425 0.6969368 -0.7171315
vn -0.001607106 0.6977404 -0.7163489
vn 0.6490268 0.7607653 -0.0005627275
vn 0.6441228 0.7649208 -0.001478791
vn -0.6255459 0.7801873 -9.62019E-05
vn -0.625502 0.7802226 -8.785725E-05
vn 0.0003019889 -0.004342387 0.9999905
vn 0.0003019889 -0.004342387 0.9999905
vn 0.0003019889 -0.004342387 0.9999905
vn 0.0003019891 -0.004342387 0.9999905
vn -0.9999969 1.201708E-05 -0.002457261
vn -0.9999969 1.198544E-05 -0.002457261
vn -0.9999969 1.198544E-05 -0.002457261
vn -0.999997 1.195381E-05 -0.002457321
vn 0.9999862 -2.406522E-05 0.005237281
vn 0.9999863 -2.404577E-05 0.005237222
vn 0.9999863 -2.404577E-05 0.005237222
vn 0.9999863 -2.402631E-05 0.005237222
vn 0.03442532 0.004349415 -0.9993977
vn 0.03442021 0.004344594 -0.9993979
vn 0.03442021 0.004344594 -0.9993979
vn 0.0344151 0.004339772 -0.9993981
vn 0.007100442 -0.9181892 0.3960788
vn 0.008422984 -0.918999 0.39417
vn 0.007100442 -0.9181892 0.3960788
vn 0.0001226358 -0.9138248 0.4061085
vn -0.3533857 -0.935477 0.001117885
vn -0.3475234 -0.9376681 0.002462894
vn -0.3533857 -0.935477 0.001117885
vn -0.362109 -0.9321353 -0.0008898079
vn 0.3462615 -0.9381322 0.003282458
vn 0.3504758 -0.9365619 0.004282236
vn 0.3462615 -0.9381322 0.003282458
vn 0.3399158 -0.9404542 0.001780242
vn 0.002920848 -0.9386825 -0.3447704
vn 0.001187674 -0.9395079 -0.3425254
vn 0.002920848 -0.9386825 -0.3447704
vn 0.01228855 -0.9340795 -0.3568533
vn -0.9999999 0.0001827642 0.0001488924
vn -0.9999999 0.000175119 0.0002350211
vn -0.9999999 0.000175119 0.0002350211
vn -0.9999998 0.0001691773 0.0003019571
vn 0.0003371886 0.06588529 0.9978271
vn 0.000319308 0.06588198 0.9978273
vn 0.000319308 0.06588198 0.9978273
vn 0.0003014489 0.06587868 0.9978276
vn -0.000301569 -0.04617906 -0.9989331
vn -0.00030157 -0.04617906 -0.998933
vn -0.00030157 -0.04617906 -0.998933
vn -0.000301571 -0.04617906 -0.998933
vn 0.9999993 0.0001343937 0.001178861
vn 0.9999999 -2.891477E-05 0.0004361868
vn 0.9999999 -2.891477E-05 0.0004361868
vn 0.9999999 -0.0001912617 -0.0003020167
vn 0.9999951 0.003024068 0.0006014109
vn 0.9999978 0.001915344 0.0007346272
vn 0.9999978 0.001915344 0.0007346272
vn 0.9999995 0.0004558174 0.0009098649
vn 2.694323E-08 -1 8.919134E-05
vn 2.693367E-08 -1 8.919134E-05
vn 2.693367E-08 -1 8.919134E-05
vn 2.692412E-08 -1 8.919134E-05
vn -0.0005433151 -0.9999985 0.001673449
vn -0.0005433166 -0.9999985 0.001673449
vn -0.0005433151 -0.9999985 0.001673449
vn -0.0005433135 -0.9999985 0.00167345
vn -0.9999984 -0.001463495 -0.0009114146
vn -0.9999996 3.194509E-06 -0.0007379055
vn -0.9999996 3.194509E-06 -0.0007379055
vn -0.9999991 0.001088138 -0.0006095767
vn 0.9999773 0.006719307 -0.0003528595
vn 0.9999752 0.00686755 0.00152719
vn 0.9999752 0.00686755 0.00152719
vn 0.9999673 0.007057998 0.003942966
vn 0.000301389 -0.05764717 0.9983369
vn 0.0003014959 -0.05764715 0.9983369
vn 0.0003014959 -0.05764715 0.9983369
vn 0.0003016029 -0.05764712 0.9983369
vn -0.9999732 -0.007304933 0.0003573298
vn -0.999975 -0.00670976 -0.002198637
vn -0.999975 -0.00670976 -0.002198637
vn -0.9999699 -0.006111988 -0.00476557
vn -0.0003009877 0.0772972 -0.997008
vn -0.0002800455 0.07729344 -0.9970083
vn -0.0002800455 0.07729344 -0.9970083
vn -0.0002590817 0.07728967 -0.9970086
vn -0.000283552 0.3447828 -0.9386824
vn -0.0002854148 0.3447852 -0.9386815
vn -0.000283552 0.3447828 -0.9386824
vn -0.000283471 0.3447827 -0.9386825
vn 0.3569262 0.6112446 0.7063878
vn 0.3569262 0.6112446 0.7063878
vn 0.3569262 0.6112446 0.7063878
vn 0.02386242 0.227243 0.9735456
vn 0.02386242 0.227243 0.9735456
vn 0.02386242 0.227243 0.9735456
vn 0.0005433153 0.9999984 -0.001673449
vn 0.0005433171 0.9999985 -0.00167345
vn 0.0005433153 0.9999984 -0.001673449
vn 0.0005433135 0.9999985 -0.001673449

vt 2.76709 0.5509652
vt 0.2479839 0.5509663
vt 0.00149855 0.0005010366
vt 2.998502 0.0004995167
vt -0.464467 0.0129832
vt 0.04534461 0.5113042
vt 0.9358147 0.5113042
vt 1.471332 0.0129832
vt 0.00149864 0.0004994869
vt 0.2494453 0.5654114
vt 2.769361 0.5534306
vt 2.998502 0.006618738
vt 1.471332 0.0129832
vt 0.9358147 0.5113042
vt 0.04534461 0.5113042
vt -0.464467 0.0129832
vt 0.3331296 0.9995005
vt 2.710619 0.9989798
vt 2.707384 0.9994994
vt 0.331175 0.9995005
vt 2.381634 0.3215712
vt 2.381634 0.4919546
vt 2.880066 0.3215712
vt 2.880066 0.4919546
vt 0.0355739 0.3012985
vt 3.02577 0.3012985
vt 0.03862742 0.4935415
vt 3.028824 0.4935415
vt 0.05857562 0.3012985
vt 0.06162663 0.4935415
vt 3.02577 0.3012985
vt 3.028824 0.4935415
vt 2.880066 0.3215712
vt 2.880066 0.4919546
vt 2.381634 0.3215712
vt 2.381634 0.4919546
vt 0.7459205 0.9794685
vt 2.298349 0.9794685
vt 1.674359 0.07140502
vt 1.327835 0.07140502
vt 6.026956 0.9935727
vt -0.9242747 0.9891304
vt -0.4068708 0.03443104
vt 5.522316 0.02998868
vt -0.8880289 0.9891304
vt 6.026957 0.9935727
vt 5.522316 0.02998868
vt -0.3785538 0.03443104
vt 2.262246 0.9794685
vt 0.6737141 0.9794686
vt 1.311717 0.07140502
vt 1.6663 0.07140502
vt 1.095748 0.3411923
vt 1.134982 0.01020096
vt 1.202362 0.4297917
vt 1.311748 0.01020096
vt 0.9602318 0.4341822
vt 0.8274642 0.4342831
vt 0.9604233 0.0004995167
vt 0.8265865 0.0004995167
vt 0.8647858 0.325542
vt 0.8656635 0.0004995167
vt 0.9986226 0.325542
vt 0.9995003 0.0004995167
vt 1.202362 0.4297917
vt 1.311748 0.01020096
vt 1.095748 0.3411923
vt 1.134982 0.01020096
vt 0.9276401 0.4166632
vt 0.06379823 0.4260128
vt 0.8197752 0.1799162
vt 0.17222 0.1802898
vt 0.8197752 0.1828764
vt 0.8197752 0.4265579
vt 0.17222 0.1799163
vt 0.17222 0.4235977
vt 0.418378 1.354844
vt 0.9801114 1.352442
vt 0.9801114 0.8779396
vt 0.418378 0.8803413
vt 0.171663 0.1799162
vt 0.8192182 0.1802896
vt 0.06379832 0.4172084
vt 0.9276401 0.4265579
vt 0.3270259 0.01294242
vt 0.4614627 0.4224084
vt 0.5225446 0.01467127
vt 0.6170032 0.3138285
vt 0.8656633 0.007024348
vt 0.9995002 0.007024348
vt 0.8323241 0.3254728
vt 0.966161 0.3254728
vt 0.5225446 0.01467127
vt 0.6170032 0.3138285
vt 0.3270259 0.01294242
vt 0.4614627 0.4224084
vt 0.8265865 0.005850732
vt 0.9604234 0.005850732
vt 0.8609948 0.432451
vt 0.9937625 0.4325519
vt 0.983077 -0.01572227
vt 0.4811044 0.9634071
vt 0.4811044 0.9634071
vt 0.005952766 -0.01954442
vt 0.005952766 -0.01954442
vt 0.4811044 0.9634071
vt 0.4811044 0.9634071
vt 0.005952766 -0.01954442
vt 0.4811044 0.9634071
vt 0.983077 -0.01572227
vt 0.9511911 0.4244139
vt 0.4232049 0.4294522
vt 0.4232052 0.259161
vt 0.9511913 0.2541227

usemtl sn13_14_sn13h02.JPG
usemap sn13_14_sn13h02.JPG
f 3/3/3 1/1/1 2/2/2
f 4/4/4 1/1/1 3/3/3
f 7/7/7 5/5/5 6/6/6
f 8/8/8 5/5/5 7/7/7
f 11/11/11 9/9/9 10/10/10
f 12/12/12 9/9/9 11/11/11
f 15/15/15 13/13/13 14/14/14
f 16/16/16 13/13/13 15/15/15
f 18/18/18 10/10/10 17/17/17
f 11/11/11 10/10/10 18/18/18
f 20/20/20 1/1/1 19/19/19
f 2/2/2 1/1/1 20/20/20

usemtl sn13_07_sn13h08.JPG
usemap sn13_07_sn13h08.JPG
f 23/23/23 21/21/21 22/22/22
f 24/24/24 23/23/23 22/22/22
f 27/27/27 25/25/25 26/26/26
f 28/28/28 27/27/27 26/26/26
f 31/31/31 29/29/29 30/30/30
f 32/32/32 31/31/31 30/30/30
f 35/35/35 33/33/33 34/34/34
f 36/36/36 35/35/35 34/34/34
f 55/55/55 53/53/53 54/54/54
f 56/56/56 55/55/55 54/54/54
f 59/59/59 57/57/57 58/58/58
f 60/60/60 59/59/59 58/58/58
f 63/63/63 61/61/61 62/62/62
f 64/64/64 63/63/63 62/62/62
f 67/67/67 65/65/65 66/66/66
f 68/68/68 67/67/67 66/66/66
f 71/71/71 69/69/69 70/70/70
f 72/72/72 71/71/71 70/70/70
f 75/75/75 73/73/73 74/74/74
f 76/76/76 75/75/75 74/74/74
f 79/79/79 77/77/77 78/78/78
f 80/80/80 77/77/77 79/79/79
f 83/83/83 81/81/81 82/82/82
f 84/84/84 83/83/83 82/82/82
f 87/87/87 85/85/85 86/86/86
f 88/88/88 87/87/87 86/86/86
f 91/91/91 89/89/89 90/90/90
f 92/92/92 91/91/91 90/90/90
f 95/95/95 93/93/93 94/94/94
f 96/96/96 95/95/95 94/94/94
f 99/99/99 97/97/97 98/98/98
f 100/100/100 99/99/99 98/98/98
f 113/113/113 111/111/111 112/112/112
f 111/111/111 113/113/113 114/114/114

usemtl sn13_15_sn13h03.jpg
usemap sn13_15_sn13h03.jpg
f 39/39/39 37/37/37 38/38/38
f 37/37/37 39/39/39 40/40/40
f 43/43/43 41/41/41 42/42/42
f 41/41/41 43/43/43 44/44/44
f 47/47/47 45/45/45 46/46/46
f 45/45/45 47/47/47 48/48/48
f 51/51/51 49/49/49 50/50/50
f 49/49/49 51/51/51 52/52/52

usemtl sn13_16_deco4.JPG
usemap sn13_16_deco4.JPG
f 103/103/103 101/101/101 102/102/102
f 104/104/104 101/101/101 103/103/103
f 107/107/107 105/105/105 106/106/106
f 110/110/110 108/108/108 109/109/109
