mtllib ./ian1608.mtl
g ian1608
v -52.8183 19.09488 116.348
v -23.09453 31.55037 110.4764
v -63.78144 19.614 -112.8072
v -33.63197 31.56039 -109.7805
v 3.436385 47.54027 108.1588
v -6.998738 47.55021 -109.9596
v 3.436385 47.54027 108.1588
v 7.370725 47.46904 107.9706
v -6.998738 47.55021 -109.9596
v -3.064399 47.47898 -110.1479
v 7.370725 47.46904 107.9706
v 33.58296 32.1408 107.7649
v -3.064399 47.47898 -110.1479
v 23.04553 32.15082 -112.4921
v 63.68437 18.75742 110.7744
v 52.72116 18.76785 -118.3809
v 63.68437 18.75742 110.7744
v 60.15581 17.37974 110.9433
v 52.72116 18.76785 -118.3809
v 49.1926 17.39017 -118.212
v 60.15581 17.37974 110.9433
v 31.9225 30.5663 107.8443
v 49.1926 17.39017 -118.212
v 21.38501 30.57633 -112.4125
v 5.096916 45.67057 108.0795
v -5.338269 45.6805 -110.039
v 5.096916 45.67057 108.0795
v -21.434 30.17268 110.3971
v -5.338269 45.6805 -110.039
v -31.97143 30.18271 -109.8598
v -21.434 30.17268 110.3971
v -48.66558 17.82925 116.1494
v -31.97143 30.18271 -109.8598
v -59.62879 17.83968 -113.0058
v -48.66558 17.82925 116.1494
v -52.8183 19.09488 116.348
v -59.62879 17.83968 -113.0058
v -63.78144 19.614 -112.8072
v -48.66558 17.82925 116.1494
v -23.09453 31.55037 110.4764
v -52.8183 19.09488 116.348
v -21.434 30.17268 110.3971
v 3.436385 47.54027 108.1588
v 5.096916 45.67057 108.0795
v 7.370725 47.46904 107.9706
v 31.9225 30.5663 107.8443
v 33.58296 32.1408 107.7649
v 60.15581 17.37974 110.9433
v 63.68437 18.75742 110.7744
v -59.62879 17.83968 -113.0058
v -63.78144 19.614 -112.8072
v -33.63197 31.56039 -109.7805
v -31.97143 30.18271 -109.8598
v -6.998738 47.55021 -109.9596
v -5.338269 45.6805 -110.039
v -3.064399 47.47898 -110.1479
v 21.38501 30.57633 -112.4125
v 23.04553 32.15082 -112.4921
v 52.72116 18.76785 -118.3809
v 49.1926 17.39017 -118.212
v -51.85768 -51.61513 -103.6848
v -51.48893 15.27725 -96.71811
v -51.82252 15.27756 -103.6908
v -51.48893 15.27725 -96.71811
v -54.52654 20.2515 -96.57291
v -55.13932 19.84044 -103.5325
v -51.82252 15.27756 -103.6908
v 46.46806 19.07135 -101.4047
v 41.91336 15.23336 -101.1867
v 41.57977 15.23367 -108.1594
v 45.76418 19.35784 -108.3598
v 41.91336 15.23336 -101.1867
v 41.55717 -51.65195 -108.1538
v 41.57977 15.23367 -108.1594
v -51.82252 15.27756 -103.6908
v -55.13932 19.84044 -103.5325
v -31.35408 30.37928 -104.6711
v 19.7275 31.56015 -107.1151
v 45.76418 19.35784 -108.3598
v 41.57977 15.23367 -108.1594
v 41.55717 -51.65195 -108.1538
v -51.85768 -51.61513 -103.6848
v -4.914352 45.77872 -105.9371
v 51.23001 15.22448 93.5533
v 51.541 -51.66147 100.5316
v -41.87385 -51.62464 105.0007
v -41.83869 15.26805 104.9946
v -42.17228 15.26838 98.02187
v -41.83869 15.26805 104.9946
v -45.15548 19.83093 105.153
v -45.20984 20.24263 98.16694
v -42.17228 15.26838 98.02187
v 55.74801 19.34833 100.3256
v 51.56359 15.22416 100.526
v 51.23001 15.22448 93.5533
v 55.78476 19.06249 93.33527
v 51.56359 15.22416 100.526
v -41.83869 15.26805 104.9946
v -21.37025 30.36977 104.0144
v -45.15548 19.83093 105.153
v 29.71133 31.55064 101.5704
v 51.56359 15.22416 100.526
v 55.74801 19.34833 100.3256
v 51.541 -51.66147 100.5316
v -41.87385 -51.62464 105.0007
v 5.069539 45.76921 102.7483
v -42.17228 15.26838 98.02187
v -45.20984 20.24263 98.16694
v -54.52654 20.2515 -96.57291
v -51.48893 15.27725 -96.71811
v -42.17228 15.26838 98.02187
v 46.46806 19.07135 -101.4047
v 55.78476 19.06249 93.33527
v 51.23001 15.22448 93.5533
v 41.91336 15.23336 -101.1867

vn 0.001983959 0.9235362 0.383506
vn 0.0006387793 0.9064652 0.4222802
vn 0.0009852424 0.9261912 0.3770528
vn -8.858368E-05 0.8843849 0.4667583
vn -0.0001031701 0.8571652 0.5150415
vn -0.0001031589 0.8571653 0.5150415
vn 5.047285E-05 0.9998366 -0.01808054
vn 5.047291E-05 0.9998366 -0.01808054
vn 5.047291E-05 0.9998366 -0.01808054
vn 5.047297E-05 0.9998365 -0.01808054
vn 0.0001786668 0.8630688 -0.5050866
vn 0.0001702532 0.8817763 -0.4716678
vn 0.0001786519 0.8630686 -0.5050867
vn 0.0001619831 0.8984617 -0.439052
vn 0.0001541134 0.9128581 -0.4082769
vn 0.0001540668 0.9128579 -0.4082773
vn 5.78016E-05 -0.931658 -0.3633365
vn 5.783141E-05 -0.931658 -0.3633366
vn 5.783141E-05 -0.931658 -0.3633366
vn 5.782954E-05 -0.931658 -0.3633366
vn -0.0001584236 -0.9050055 0.4254
vn -0.0001639389 -0.8944827 0.4471024
vn -0.0001584273 -0.9050055 0.4253999
vn -0.0001694933 -0.883108 0.4691698
vn -0.0001749713 -0.8712177 0.4908967
vn -0.0001749769 -0.8712178 0.4908969
vn 9.94429E-05 -0.8641384 -0.5032543
vn 9.948947E-05 -0.8641382 -0.5032547
vn 9.948947E-05 -0.8641382 -0.5032547
vn 9.95677E-05 -0.864138 -0.5032551
vn 7.159822E-05 -0.9121783 -0.4097936
vn 7.153861E-05 -0.9121785 -0.4097933
vn 7.153861E-05 -0.9121785 -0.4097933
vn 7.151067E-05 -0.9121786 -0.409793
vn -0.0001237765 -0.956654 0.291227
vn -0.001178666 -0.9391978 0.3433743
vn -0.001178666 -0.9391978 0.3433743
vn -0.002189513 -0.9197364 0.3925305
vn 0.982107 0.1715838 -0.07762003
vn 0.9896939 0.1293314 -0.06147683
vn 0.9776111 0.2013827 -0.06100804
vn 0.9973356 0.05504157 -0.04787856
vn 0.9994509 0.0238789 -0.0229755
vn 0.9996882 0.02497482 -0.0001764297
vn 0.9993927 0.02634948 0.02280915
vn 0.9973734 0.05332176 0.04902315
vn 0.9915672 0.1112653 0.06644255
vn 0.9855378 0.1472213 0.08391213
vn 0.982325 0.1743106 0.06821752
vn -0.9835993 0.1584699 -0.08613914
vn -0.9812744 0.1770475 -0.0758611
vn -0.9900578 0.1225725 -0.06900656
vn -0.9972152 0.05588868 -0.04938006
vn -0.9993883 0.02484541 -0.0246132
vn -0.9996617 0.02600363 -0.0007459521
vn -0.9993516 0.02745691 0.02329731
vn -0.9973056 0.054261 0.04937154
vn -0.99148 0.112009 0.0664956
vn -0.982217 0.1750098 0.0679819
vn -0.9854645 0.1478065 0.08374482
vn -0.0002759993 0.0005293845 0.9999999
vn -0.0002760179 0.0005293373 1
vn -0.0002758391 0.0005293677 1
vn 0.03273195 -0.5546134 0.8314644
vn 0.06450187 -0.5205122 0.8514145
vn 0.03273195 -0.5546134 0.8314644
vn -0.0002494007 -0.5884176 0.8085572
vn -0.03286014 -0.7391827 -0.6727029
vn 0.0001429766 -0.7650708 -0.6439463
vn -0.03286014 -0.7391827 -0.6727029
vn -0.06616008 -0.7110488 -0.7000232
vn 0.0002760068 -0.0003414396 -1
vn 0.0002760068 -0.0003413958 -1
vn 0.0002753027 -0.0003413656 -0.9999999
vn -1 -6.653405E-05 -0.0002760291
vn -1 -7.463345E-05 -0.0002827048
vn -1 -6.741713E-05 -0.0002753735
vn -1 -6.856808E-05 -0.0002750754
vn -1 -6.324946E-05 -0.0002784729
vn -1 -6.705483E-05 -0.0002754331
vn -1 -6.664037E-05 -0.0002760291
vn -1 -6.579218E-05 -0.0002766252
vn -1 -6.992627E-05 -0.0002747178
vn 0.0002760217 -0.0003413958 -1
vn 0.0002760068 -0.0003413539 -0.9999999
vn -0.0002760068 0.0005293372 1
vn -0.0002752952 0.0005293623 0.9999999
vn -0.0002752952 0.0005293623 0.9999999
vn -0.03324498 -0.5546108 0.8314455
vn -0.06715524 -0.5871006 0.8067237
vn -0.03324498 -0.5546108 0.8314455
vn -0.0002588183 -0.5215996 0.8531905
vn 0.03316688 -0.7391847 -0.6726857
vn 0.000160791 -0.7126173 -0.701553
vn 0.03316688 -0.7391847 -0.6726857
vn 0.06556711 -0.7634358 -0.6425471
vn 0.0002758428 -0.0003413707 -1
vn 1 6.635499E-05 0.0002759099
vn 1 6.669349E-05 0.0002747178
vn 1 5.829995E-05 0.0002706647
vn 1 6.858743E-05 0.0002750158
vn 1 6.711884E-05 0.0002753139
vn 1 6.219131E-05 0.0002793074
vn 1 6.663877E-05 0.0002760291
vn 1 6.567511E-05 0.0002767444
vn 1 6.99767E-05 0.0002745986
vn -0.0002760403 0.000529285 0.9999999
vn -0.0002591014 -0.5216035 0.853188
vn -0.0002589561 -0.5216075 0.8531857
vn -0.0002591014 -0.5216035 0.853188
vn -0.0002592467 -0.5215994 0.8531905
vn 0.0001428742 -0.7650725 -0.6439442
vn 0.000142768 -0.7650741 -0.6439422
vn 0.0001428742 -0.7650725 -0.6439442
vn 0.0001429152 -0.7650709 -0.6439463

vt 2.998502 0.0004994571
vt 2.940452 0.5296535
vt 0.00149855 0.0005002916
vt 0.05982614 0.5296543
vt 2.926786 0.9994999
vt 0.07412776 0.9995005
vt 1.000115 0.6523311
vt 1.000115 0.2759616
vt 0.4950982 0.6523312
vt 0.4950982 0.2759616
vt 0.07321393 0.9995005
vt 0.05954826 0.5332116
vt 2.925873 0.9994999
vt 2.940174 0.5332109
vt 0.00149855 0.0005001724
vt 2.998502 0.0004994571
vt 19.99001 0.9994889
vt 19.99001 0.7593663
vt 0.009989738 0.9995002
vt 0.009989738 0.7593764
vt 9.995005 0.7438838
vt 9.801506 0.01847377
vt 0.004994869 0.7438848
vt 0.1994196 0.01847479
vt 9.755954 0.7512838
vt 0.2470914 0.7512848
vt 0.2440459 0.754877
vt 0.1984942 0.02053538
vt 9.752907 0.7548764
vt 9.800579 0.0205346
vt 0.1984942 0.02053538
vt 0.004995763 0.7606962
vt 9.800579 0.0205346
vt 9.995004 0.7606953
vt 0.009990335 0.7591531
vt 0.009990335 0.999501
vt 19.99001 0.7591473
vt 19.99001 0.9994943
vt 0.4938953 0.8908294
vt 0.4391169 0.9488676
vt 0.4997584 0.9132748
vt 0.4259306 0.9365844
vt 0.3813322 0.999491
vt 0.3756966 0.9810377
vt 0.3696627 0.9991398
vt 0.3180805 0.9321777
vt 0.3084464 0.9458095
vt 0.2605601 0.8929607
vt 0.2508329 0.9137689
vt 0.4947544 0.8922247
vt 0.4989938 0.910659
vt 0.4397974 0.9464006
vt 0.4351832 0.9319561
vt 0.3806563 0.9977122
vt 0.3760421 0.9781088
vt 0.3697234 0.9969653
vt 0.3173701 0.9333066
vt 0.3127559 0.9498148
vt 0.2509851 0.9149985
vt 0.258014 0.8922247
vt 0.0005208552 0.498226
vt 0.03387824 0.9994957
vt 0.0004995167 0.9995005
vt -0.210544 0.73264
vt -0.2816988 0.73264
vt -0.2739867 0.8202577
vt -0.2028319 0.8202577
vt 0.369831 0.73264
vt 0.469179 0.73264
vt 0.4768912 0.8202577
vt 0.3775432 0.8202577
vt 0.9661219 0.4994957
vt 0.9994793 0.0006415844
vt 0.9995005 0.4995005
vt 0.7325804 0.3454965
vt 0.7490819 0.3690066
vt 0.6307465 0.423308
vt 0.3766077 0.4293924
vt 0.2470714 0.3665201
vt 0.2678896 0.3452703
vt 0.2680032 0.0006428957
vt 0.7327564 0.0008326173
vt 0.4992044 0.5026534
vt 0.03389952 0.4993632
vt 0.0004994869 0.0004995465
vt 0.9995005 0.4980841
vt 0.9994792 0.9993585
vt 0.9661005 0.9993632
vt -0.210544 0.73264
vt -0.2816988 0.73264
vt -0.2739867 0.8202577
vt -0.2028319 0.8202577
vt 0.369831 0.73264
vt 0.469179 0.73264
vt 0.4768912 0.8202577
vt 0.3775432 0.8202577
vt 0.0005208254 0.4993585
vt 0.2733957 0.3379244
vt 0.3726558 0.4137692
vt 0.2573113 0.3608404
vt 0.6203715 0.4196998
vt 0.7263418 0.337704
vt 0.7466339 0.3584166
vt 0.7262311 0.001786705
vt 0.2732243 0.001971684
vt 0.5008733 0.4911093
vt 0.9661005 0.9993632
vt 14.9925 0.4199445
vt 0.007492751 0.4217226
vt 0.007503927 0.002278358
vt 14.99251 0.0004995465
vt 14.99251 0.01557195
vt 14.99231 0.4239514
vt 0.00749141 0.4239522
vt 0.007684976 0.01557267

usemtl sn13_14_sn13h02.JPG
usemap sn13_14_sn13h02.JPG
f 3/3/3 1/1/1 2/2/2
f 2/2/2 4/4/4 3/3/3
f 4/4/4 2/2/2 5/5/5
f 5/5/5 6/6/6 4/4/4
f 13/13/13 11/11/11 12/12/12
f 12/12/12 14/14/14 13/13/13
f 14/14/14 12/12/12 15/15/15
f 15/15/15 16/16/16 14/14/14
f 41/41/41 39/39/39 40/40/40
f 39/39/39 42/42/42 40/40/40
f 40/40/40 42/42/42 43/43/43
f 42/42/42 44/44/44 43/43/43
f 43/43/43 44/44/44 45/45/45
f 44/44/44 46/46/46 45/45/45
f 49/49/49 47/47/47 48/48/48
f 48/48/48 47/47/47 46/46/46
f 45/45/45 46/46/46 47/47/47
f 52/52/52 50/50/50 51/51/51
f 52/52/52 53/53/53 50/50/50
f 54/54/54 53/53/53 52/52/52
f 54/54/54 55/55/55 53/53/53
f 56/56/56 55/55/55 54/54/54
f 56/56/56 57/57/57 55/55/55
f 60/60/60 58/58/58 59/59/59
f 57/57/57 58/58/58 60/60/60
f 58/58/58 57/57/57 56/56/56

usemtl sn13_18_sn13h01.jpg
usemap sn13_18_sn13h01.jpg
f 9/9/9 7/7/7 8/8/8
f 8/8/8 10/10/10 9/9/9
f 63/63/63 61/61/61 62/62/62
f 66/66/66 64/64/64 65/65/65
f 67/67/67 64/64/64 66/66/66
f 70/70/70 68/68/68 69/69/69
f 71/71/71 68/68/68 70/70/70
f 74/74/74 72/72/72 73/73/73
f 77/77/77 75/75/75 76/76/76
f 80/80/80 78/78/78 79/79/79
f 75/75/75 81/81/81 82/82/82
f 75/75/75 80/80/80 81/81/81
f 77/77/77 80/80/80 75/75/75
f 77/77/77 78/78/78 80/80/80
f 83/83/83 78/78/78 77/77/77
f 84/84/84 73/73/73 72/72/72
f 73/73/73 84/84/84 85/85/85
f 88/88/88 86/86/86 87/87/87
f 91/91/91 89/89/89 90/90/90
f 92/92/92 89/89/89 91/91/91
f 95/95/95 93/93/93 94/94/94
f 96/96/96 93/93/93 95/95/95
f 84/84/84 97/97/97 85/85/85
f 100/100/100 98/98/98 99/99/99
f 103/103/103 101/101/101 102/102/102
f 105/105/105 104/104/104 98/98/98
f 104/104/104 102/102/102 98/98/98
f 98/98/98 102/102/102 99/99/99
f 102/102/102 101/101/101 99/99/99
f 99/99/99 101/101/101 106/106/106
f 62/62/62 86/86/86 107/107/107
f 86/86/86 62/62/62 61/61/61

usemtl sn13_15_sn13h03.jpg
usemap sn13_15_sn13h03.jpg
f 19/19/19 17/17/17 18/18/18
f 18/18/18 20/20/20 19/19/19
f 23/23/23 21/21/21 22/22/22
f 22/22/22 24/24/24 23/23/23
f 24/24/24 22/22/22 25/25/25
f 25/25/25 26/26/26 24/24/24
f 29/29/29 27/27/27 28/28/28
f 28/28/28 30/30/30 29/29/29
f 33/33/33 31/31/31 32/32/32
f 32/32/32 34/34/34 33/33/33
f 37/37/37 35/35/35 36/36/36
f 36/36/36 38/38/38 37/37/37
f 110/110/110 108/108/108 109/109/109
f 108/108/108 110/110/110 111/111/111
f 114/114/114 112/112/112 113/113/113
f 112/112/112 114/114/114 115/115/115
