mtllib ./ian1599.mtl
g ian1599
v -52.81794 19.09488 116.3478
v -23.09405 31.55037 110.4763
v -63.78121 19.614 -112.8074
v -33.6316 31.56039 -109.7806
v 3.436745 47.54027 108.1587
v -6.9985 47.55021 -109.9598
v 3.436745 47.54027 108.1587
v 7.371024 47.46904 107.9704
v -6.9985 47.55021 -109.9598
v -3.063977 47.47898 -110.148
v 7.371024 47.46904 107.9704
v 33.58332 32.1408 107.7647
v -3.063977 47.47898 -110.148
v 23.04577 32.15082 -112.4922
v 63.68467 18.75742 110.7742
v 52.72165 18.76785 -118.381
v 63.68467 18.75742 110.7742
v 60.15605 17.37974 110.9432
v 52.72165 18.76785 -118.381
v 49.19302 17.39017 -118.2122
v 60.15605 17.37974 110.9432
v 31.92292 30.5663 107.8442
v 49.19302 17.39017 -118.2122
v 21.38537 30.57633 -112.4126
v 5.097154 45.67057 108.0793
v -5.337848 45.6805 -110.0391
v 5.097154 45.67057 108.0793
v -21.43364 30.17268 110.397
v -5.337848 45.6805 -110.0391
v -31.9712 30.18271 -109.8599
v -21.43364 30.17268 110.397
v -48.66534 17.82925 116.1493
v -31.9712 30.18271 -109.8599
v -59.62836 17.83968 -113.0059
v -48.66534 17.82925 116.1493
v -52.81794 19.09488 116.3478
v -59.62836 17.83968 -113.0059
v -63.78121 19.614 -112.8074
v -48.66534 17.82925 116.1493
v -23.09405 31.55037 110.4763
v -52.81794 19.09488 116.3478
v -21.43364 30.17268 110.397
v 3.436745 47.54027 108.1587
v 5.097154 45.67057 108.0793
v 7.371024 47.46904 107.9704
v 31.92292 30.5663 107.8442
v 33.58332 32.1408 107.7647
v 60.15605 17.37974 110.9432
v 63.68467 18.75742 110.7742
v -59.62836 17.83968 -113.0059
v -63.78121 19.614 -112.8074
v -33.6316 31.56039 -109.7806
v -31.9712 30.18271 -109.8599
v -6.9985 47.55021 -109.9598
v -5.337848 45.6805 -110.0391
v -3.063977 47.47898 -110.148
v 21.38537 30.57633 -112.4126
v 23.04577 32.15082 -112.4922
v 52.72165 18.76785 -118.381
v 49.19302 17.39017 -118.2122
v -51.85744 -51.61513 -103.6849
v -51.48869 15.27725 -96.71824
v -51.82204 15.27756 -103.691
v -51.48869 15.27725 -96.71824
v -54.52606 20.2515 -96.57305
v -55.13896 19.84044 -103.5327
v -51.82204 15.27756 -103.691
v 46.46848 19.07135 -101.4048
v 41.91366 15.21144 -101.1868
v 41.58007 15.23367 -108.1595
v 45.7646 19.35784 -108.36
v 41.91366 15.21144 -101.1868
v 41.5576 -51.67387 -108.1539
v 41.58007 15.23367 -108.1595
v -51.82204 15.27756 -103.691
v -55.13896 19.84044 -103.5327
v -31.35378 30.37928 -104.6712
v 19.72792 31.56015 -107.1152
v 45.7646 19.35784 -108.36
v 41.58007 15.23367 -108.1595
v 41.5576 -51.67387 -108.1539
v -51.85744 -51.61513 -103.6849
v -4.913992 45.77872 -105.9372
v 41.5576 -51.67387 -108.1539
v 41.91366 15.21144 -101.1868
v 46.86933 15.20671 2.397125
v 51.23043 15.22448 93.55316
v 51.54131 -51.66147 100.5315
v 47.23682 -51.67929 10.55876
v -41.87349 -51.62464 105.0005
v -41.83833 15.26805 104.9945
v -42.17192 15.26838 98.02172
v -41.83833 15.26805 104.9945
v -45.155 19.83093 105.1529
v -45.20954 20.24263 98.16681
v -42.17192 15.26838 98.02172
v 55.74831 19.34833 100.3255
v 51.56402 15.22416 100.5259
v 51.23043 15.22448 93.55316
v 55.785 19.06249 93.33514
v 51.56402 15.22416 100.5259
v -41.83833 15.26805 104.9945
v -21.36983 30.36977 104.0142
v -45.155 19.83093 105.1529
v 29.71163 31.55064 101.5703
v 51.56402 15.22416 100.5259
v 55.74831 19.34833 100.3255
v 51.54131 -51.66147 100.5315
v -41.87349 -51.62464 105.0005
v 5.06996 45.76921 102.7482
v -41.87349 -51.62464 105.0005
v -42.17192 15.26838 98.02172
v -45.20954 20.24263 98.16681
v -54.52606 20.2515 -96.57305
v -51.48869 15.27725 -96.71824
v -42.17192 15.26838 98.02172
v 51.57543 19.06649 5.3411
v 55.785 19.06249 93.33514
v 51.23043 15.22448 93.55316
v 46.86933 15.20671 2.397125
v 46.86933 15.20671 2.397125
v 47.23682 -51.67929 10.55876
v 41.91366 15.21144 -101.1868
v 46.46848 19.07135 -101.4048

vn 0.001984159 0.9235368 0.3835047
vn 0.0006390139 0.9064654 0.4222797
vn 0.0009854455 0.9261918 0.3770516
vn -8.833595E-05 0.8843847 0.4667588
vn -0.0001028925 0.8571642 0.5150433
vn -0.0001028739 0.8571642 0.5150433
vn 5.046237E-05 0.9998366 -0.01808082
vn 5.047134E-05 0.9998365 -0.01808026
vn 5.047134E-05 0.9998365 -0.01808026
vn 5.048211E-05 0.9998366 -0.0180797
vn 0.0001789313 0.8630692 -0.5050858
vn 0.0001701955 0.8817759 -0.4716687
vn 0.0001786444 0.863068 -0.5050876
vn 0.0001619384 0.8984617 -0.439052
vn 0.00015416 0.9128587 -0.4082759
vn 0.0001543742 0.9128591 -0.4082746
vn 5.809963E-05 -0.9316599 -0.3633313
vn 5.809963E-05 -0.9316601 -0.3633313
vn 5.809963E-05 -0.9316601 -0.3633313
vn 5.810335E-05 -0.9316601 -0.3633312
vn -0.0001587681 -0.9050044 0.4254022
vn -0.00016395 -0.8944829 0.4471023
vn -0.0001585316 -0.9050051 0.4254007
vn -0.0001695585 -0.8831084 0.4691689
vn -0.0001750886 -0.8712182 0.490896
vn -0.0001753774 -0.8712173 0.4908978
vn 9.986944E-05 -0.8641374 -0.5032561
vn 9.958073E-05 -0.8641384 -0.5032542
vn 9.958073E-05 -0.8641384 -0.5032542
vn 9.929202E-05 -0.8641394 -0.5032526
vn 7.135421E-05 -0.912179 -0.4097921
vn 7.160567E-05 -0.9121782 -0.4097937
vn 7.160567E-05 -0.9121782 -0.4097937
vn 7.184595E-05 -0.9121776 -0.4097953
vn -0.0001240019 -0.9566517 0.2912346
vn -0.001178714 -0.9391988 0.3433717
vn -0.001178714 -0.9391988 0.3433717
vn -0.00218932 -0.9197428 0.3925155
vn 0.9821075 0.1715807 -0.0776211
vn 0.9896942 0.1293296 -0.0614779
vn 0.9776114 0.2013807 -0.06100869
vn 0.9973357 0.05503986 -0.04787946
vn 0.9994509 0.02387858 -0.0229758
vn 0.9996881 0.0249757 -0.0001767278
vn 0.9993926 0.02635086 0.02280837
vn 0.9973735 0.05332202 0.04902261
vn 0.9915671 0.1112669 0.06644231
vn 0.9855378 0.1472228 0.08391166
vn 0.9823247 0.1743135 0.06821626
vn -0.9835993 0.1584703 -0.08613896
vn -0.981274 0.1770507 -0.07585943
vn -0.9900576 0.1225733 -0.06900722
vn -0.9972154 0.05588487 -0.04938126
vn -0.9993884 0.0248437 -0.02461427
vn -0.9996617 0.0260029 -0.0007469654
vn -0.9993516 0.02745542 0.0232982
vn -0.9973058 0.05425748 0.04937333
vn -0.99148 0.1120074 0.06649703
vn -0.9822168 0.1750112 0.06798053
vn -0.9854648 0.1478046 0.0837453
vn -0.0002765469 0.000529493 0.9999999
vn -0.0002760179 0.000529427 1
vn -0.000310313 0.0005330164 0.9999999
vn 0.03272501 -0.5546061 0.8314694
vn 0.06451611 -0.5204812 0.8514324
vn 0.03272501 -0.5546061 0.8314694
vn -0.000277292 -0.5884318 0.808547
vn -0.03402545 -0.7382414 -0.673678
vn -0.002253003 -0.7632663 -0.6460803
vn -0.03402545 -0.7382414 -0.673678
vn -0.06615993 -0.7110587 -0.7000132
vn 0.000274241 -0.0003394315 -1
vn 0.000274241 -0.0003394315 -1
vn 0.000274241 -0.0003394315 -1
vn -1 -6.649169E-05 -0.0002760887
vn -1 -7.422629E-05 -0.0002827048
vn -1 -6.729772E-05 -0.0002753139
vn -1 -6.866563E-05 -0.0002749562
vn -1 -6.25154E-05 -0.0002791286
vn -1 -6.705285E-05 -0.0002753735
vn -1 -6.664616E-05 -0.0002760887
vn -1 -6.573838E-05 -0.0002767444
vn -1 -6.991098E-05 -0.000274539
vn 0.0002765357 -0.0003413922 -0.9999999
vn 0.0002754256 -0.0003395554 -1
vn 0.0002765357 -0.0003413922 -0.9999999
vn 0.0002754852 -0.0003432064 -1
vn 0.0002754591 -0.0003431772 -1
vn 0.0002754964 -0.0003432069 -1
vn -0.0002752952 0.0005293678 0.9999998
vn -0.0002752952 0.0005293678 0.9999998
vn -0.0002752952 0.0005293678 0.9999998
vn -0.03323399 -0.5546069 0.8314485
vn -0.06713373 -0.5870869 0.8067355
vn -0.03323399 -0.5546069 0.8314485
vn -0.0002588481 -0.5216068 0.8531861
vn 0.03316385 -0.7391732 -0.6726984
vn 0.0001604035 -0.7126071 -0.7015634
vn 0.03316385 -0.7391732 -0.6726984
vn 0.06556182 -0.7634237 -0.6425622
vn 0.0002752952 -0.0003431938 -1
vn 1 6.635667E-05 0.0002759695
vn 1 6.661913E-05 0.000274837
vn 1 5.737281E-05 0.0002700686
vn 1 6.863274E-05 0.0002750754
vn 1 6.702974E-05 0.0002754331
vn 1 6.296148E-05 0.0002786517
vn 1 6.665619E-05 0.0002760887
vn 1 6.57971E-05 0.0002766848
vn 1 7.030474E-05 0.0002747774
vn -0.0002754219 0.0005293649 0.9999999
vn -0.0002754293 0.0005293537 0.9999998
vn -0.0002592653 -0.5215918 0.8531951
vn -0.0002597608 -0.5215769 0.8532044
vn -0.0002592653 -0.5215918 0.8531951
vn -0.0002587587 -0.5216067 0.8531861
vn 0.0002020542 -0.7638398 -0.6454059
vn 0.0001443513 -0.7650617 -0.6439571
vn 0.0002371427 -0.7641806 -0.6450023
vn 0.0001986157 -0.7632871 -0.6460594
vn 0.0002755187 -0.0003432375 -1
vn 0.0002775043 -0.000342995 -1
vn 0.0001431815 -0.7632685 -0.6460816
vn 0.0001431871 -0.7632682 -0.6460818

vt 2.998502 0.0004994571
vt 2.940452 0.5296535
vt 0.00149855 0.0005002916
vt 0.05982614 0.5296543
vt 2.926786 0.9994999
vt 0.07412776 0.9995005
vt 1.000115 0.6523311
vt 1.000115 0.2759616
vt 0.4950982 0.6523312
vt 0.4950982 0.2759616
vt 0.07321393 0.9995005
vt 0.05954826 0.5332116
vt 2.925873 0.9994999
vt 2.940174 0.5332109
vt 0.00149855 0.0005001724
vt 2.998502 0.0004994571
vt 19.99001 0.9994889
vt 19.99001 0.7593663
vt 0.009989738 0.9995002
vt 0.009989738 0.7593764
vt 9.995005 0.7438838
vt 9.801506 0.01847377
vt 0.004994869 0.7438848
vt 0.1994196 0.01847479
vt 9.755954 0.7512838
vt 0.2470914 0.7512848
vt 0.2440459 0.754877
vt 0.1984942 0.02053538
vt 9.752907 0.7548764
vt 9.800579 0.0205346
vt 0.1984942 0.02053538
vt 0.004995763 0.7606962
vt 9.800579 0.0205346
vt 9.995004 0.7606953
vt 0.009990335 0.7591531
vt 0.009990335 0.999501
vt 19.99001 0.7591473
vt 19.99001 0.9994943
vt 0.4938953 0.8908294
vt 0.4391169 0.9488676
vt 0.4997584 0.9132748
vt 0.4259306 0.9365844
vt 0.3813322 0.999491
vt 0.3756966 0.9810377
vt 0.3696627 0.9991398
vt 0.3180805 0.9321777
vt 0.3084464 0.9458095
vt 0.2605601 0.8929607
vt 0.2508329 0.9137689
vt 0.4947544 0.8922247
vt 0.4989938 0.910659
vt 0.4397974 0.9464006
vt 0.4351832 0.9319561
vt 0.3806563 0.9977122
vt 0.3760421 0.9781088
vt 0.3697234 0.9969653
vt 0.3173701 0.9333066
vt 0.3127559 0.9498148
vt 0.2509851 0.9149985
vt 0.258014 0.8922247
vt 0.0005208552 0.498226
vt 0.03387824 0.9994957
vt 0.0004995167 0.9995005
vt -0.210544 0.73264
vt -0.2816988 0.73264
vt -0.2739867 0.8202577
vt -0.2028319 0.8202577
vt 0.369831 0.73264
vt 0.469179 0.73264
vt 0.4768912 0.8202577
vt 0.3775432 0.8202577
vt 0.9661219 0.4994957
vt 0.9994793 0.0006415844
vt 0.9995005 0.4995005
vt 0.7325804 0.3454965
vt 0.7490819 0.3690066
vt 0.6307465 0.423308
vt 0.3766077 0.4293924
vt 0.2470714 0.3665201
vt 0.2678896 0.3452703
vt 0.2680032 0.0006428957
vt 0.7327564 0.0008326173
vt 0.4992044 0.5026534
vt 0.9994793 0.0006415844
vt 0.9661219 0.4994957
vt 0.4702647 0.4994253
vt 0.03389952 0.4993632
vt 0.0004994869 0.0004995465
vt 0.4312002 0.0005607848
vt 0.9995005 0.4980841
vt 0.9994792 0.9993585
vt 0.9661005 0.9993632
vt -0.210544 0.73264
vt -0.2816988 0.73264
vt -0.2739867 0.8202577
vt -0.2028319 0.8202577
vt 0.369831 0.73264
vt 0.469179 0.73264
vt 0.4768912 0.8202577
vt 0.3775432 0.8202577
vt 0.0005208254 0.4993585
vt 0.2733957 0.3379244
vt 0.3726558 0.4137692
vt 0.2573113 0.3608404
vt 0.6203715 0.4196998
vt 0.7263418 0.337704
vt 0.7466339 0.3584166
vt 0.7262311 0.001786705
vt 0.2732243 0.001971684
vt 0.5008733 0.4911093
vt 0.9995005 0.4980841
vt 0.9661005 0.9993632
vt 14.9925 0.4199445
vt 0.007492751 0.4217226
vt 0.007503927 0.002278358
vt 14.99251 0.0004995465
vt 14.9924 0.2394234
vt 14.99231 0.4239514
vt 0.00749141 0.4239522
vt 0.007582017 0.2327933
vt 0.4702647 0.4994253
vt 0.4312002 0.0005607848
vt 0.007684976 0.01557267
vt 14.99251 0.01557195

usemtl sn13_14_sn13h02.JPG
usemap sn13_14_sn13h02.JPG
f 3/3/3 1/1/1 2/2/2
f 2/2/2 4/4/4 3/3/3
f 4/4/4 2/2/2 5/5/5
f 5/5/5 6/6/6 4/4/4
f 13/13/13 11/11/11 12/12/12
f 12/12/12 14/14/14 13/13/13
f 14/14/14 12/12/12 15/15/15
f 15/15/15 16/16/16 14/14/14
f 41/41/41 39/39/39 40/40/40
f 39/39/39 42/42/42 40/40/40
f 40/40/40 42/42/42 43/43/43
f 42/42/42 44/44/44 43/43/43
f 43/43/43 44/44/44 45/45/45
f 44/44/44 46/46/46 45/45/45
f 49/49/49 47/47/47 48/48/48
f 48/48/48 47/47/47 46/46/46
f 45/45/45 46/46/46 47/47/47
f 52/52/52 50/50/50 51/51/51
f 52/52/52 53/53/53 50/50/50
f 54/54/54 53/53/53 52/52/52
f 54/54/54 55/55/55 53/53/53
f 56/56/56 55/55/55 54/54/54
f 56/56/56 57/57/57 55/55/55
f 60/60/60 58/58/58 59/59/59
f 57/57/57 58/58/58 60/60/60
f 58/58/58 57/57/57 56/56/56

usemtl sn13_18_sn13h01.jpg
usemap sn13_18_sn13h01.jpg
f 9/9/9 7/7/7 8/8/8
f 8/8/8 10/10/10 9/9/9
f 63/63/63 61/61/61 62/62/62
f 66/66/66 64/64/64 65/65/65
f 67/67/67 64/64/64 66/66/66
f 70/70/70 68/68/68 69/69/69
f 71/71/71 68/68/68 70/70/70
f 74/74/74 72/72/72 73/73/73
f 77/77/77 75/75/75 76/76/76
f 80/80/80 78/78/78 79/79/79
f 75/75/75 81/81/81 82/82/82
f 75/75/75 80/80/80 81/81/81
f 77/77/77 80/80/80 75/75/75
f 77/77/77 78/78/78 80/80/80
f 83/83/83 78/78/78 77/77/77
f 86/86/86 84/84/84 85/85/85
f 89/89/89 87/87/87 88/88/88
f 92/92/92 90/90/90 91/91/91
f 95/95/95 93/93/93 94/94/94
f 96/96/96 93/93/93 95/95/95
f 99/99/99 97/97/97 98/98/98
f 100/100/100 97/97/97 99/99/99
f 87/87/87 101/101/101 88/88/88
f 104/104/104 102/102/102 103/103/103
f 107/107/107 105/105/105 106/106/106
f 109/109/109 108/108/108 102/102/102
f 108/108/108 106/106/106 102/102/102
f 102/102/102 106/106/106 103/103/103
f 106/106/106 105/105/105 103/103/103
f 103/103/103 105/105/105 110/110/110
f 62/62/62 111/111/111 112/112/112
f 111/111/111 62/62/62 61/61/61
f 121/121/121 87/87/87 89/89/89
f 84/84/84 86/86/86 122/122/122

usemtl sn13_15_sn13h03.jpg
usemap sn13_15_sn13h03.jpg
f 19/19/19 17/17/17 18/18/18
f 18/18/18 20/20/20 19/19/19
f 23/23/23 21/21/21 22/22/22
f 22/22/22 24/24/24 23/23/23
f 24/24/24 22/22/22 25/25/25
f 25/25/25 26/26/26 24/24/24
f 29/29/29 27/27/27 28/28/28
f 28/28/28 30/30/30 29/29/29
f 33/33/33 31/31/31 32/32/32
f 32/32/32 34/34/34 33/33/33
f 37/37/37 35/35/35 36/36/36
f 36/36/36 38/38/38 37/37/37
f 115/115/115 113/113/113 114/114/114
f 113/113/113 115/115/115 116/116/116
f 119/119/119 117/117/117 118/118/118
f 117/117/117 119/119/119 120/120/120
f 124/124/124 120/120/120 123/123/123
f 120/120/120 124/124/124 117/117/117
