mtllib ./ian1609.mtl
g ian1609
v -63.6839 19.09488 110.7734
v -33.53535 31.55037 107.7663
v -52.72051 19.614 -118.3818
v -22.99768 31.56039 -112.4906
v -6.904359 47.54027 107.992
v 3.531008 47.55021 -110.1264
v -6.904359 47.54027 107.992
v -2.969958 47.46904 108.1803
v 3.531008 47.55021 -110.1264
v 7.465409 47.47898 -109.9382
v -2.969958 47.46904 108.1803
v 23.14214 32.1408 110.4779
v 7.465409 47.47898 -109.9382
v 33.67981 32.15082 -109.7791
v 52.81876 18.75742 116.3473
v 63.78215 18.76785 -112.8079
v 52.81876 18.75742 116.3473
v 49.29019 17.37974 116.1786
v 63.78215 18.76785 -112.8079
v 60.25358 17.39017 -112.9766
v 49.29019 17.37974 116.1786
v 21.48167 30.5663 110.3985
v 60.25358 17.39017 -112.9766
v 32.01934 30.57633 -109.8584
v 21.48167 30.5663 110.3985
v -5.24384 45.67057 108.0716
v 32.01934 30.57633 -109.8584
v 5.191527 45.6805 -110.0468
v -5.24384 45.67057 108.0716
v -31.87484 30.17268 107.8458
v 5.191527 45.6805 -110.0468
v -21.33716 30.18271 -112.4111
v -59.53119 17.82925 110.9722
v -48.5678 17.83968 -118.183
v -59.53119 17.82925 110.9722
v -63.6839 19.09488 110.7734
v -48.5678 17.83968 -118.183
v -52.72051 19.614 -118.3818
v -59.53119 17.82925 110.9722
v -33.53535 31.55037 107.7663
v -63.6839 19.09488 110.7734
v -31.87484 30.17268 107.8458
v -6.904359 47.54027 107.992
v -5.24384 45.67057 108.0716
v -2.969958 47.46904 108.1803
v 21.48167 30.5663 110.3985
v 23.14214 32.1408 110.4779
v 49.29019 17.37974 116.1786
v 52.81876 18.75742 116.3473
v -48.5678 17.83968 -118.183
v -52.72051 19.614 -118.3818
v -22.99768 31.56039 -112.4906
v -21.33716 30.18271 -112.4111
v 3.531008 47.55021 -110.1264
v 5.191527 45.6805 -110.0468
v 7.465409 47.47898 -109.9382
v 32.01934 30.57633 -109.8584
v 33.67981 32.15082 -109.7791
v 63.78215 18.76785 -112.8079
v 60.25358 17.39017 -112.9766
v -41.72208 -51.61513 -108.1627
v -42.0201 15.27725 -101.1926
v -41.6865 15.27756 -108.1654
v -42.0201 15.27725 -101.1926
v -45.0577 20.2515 -101.3381
v -45.00327 19.84044 -108.3244
v -41.6865 15.27756 -108.1654
v 55.93696 19.07135 -96.50628
v 51.38219 15.23336 -96.72407
v 51.71578 15.23367 -103.6968
v 55.90022 19.35784 -103.4969
v 51.38219 15.23336 -96.72407
v 51.69276 -51.65195 -103.6934
v 51.71578 15.23367 -103.6968
v -41.6865 15.27756 -108.1654
v -45.00327 19.84044 -108.3244
v -21.21791 30.37928 -107.1871
v 29.86362 31.56015 -104.7434
v 55.90022 19.35784 -103.4969
v 51.71578 15.23367 -103.6968
v 51.69276 -51.65195 -103.6934
v -41.72208 -51.61513 -108.1627
v 5.221861 45.77872 -105.9233
v 42.0653 15.22448 98.01589
v 41.70869 -51.66147 104.9921
v -51.70616 -51.62464 100.5228
v -51.67058 15.26805 100.5201
v -51.33699 15.26838 93.54733
v -51.67058 15.26805 100.5201
v -54.98734 19.83093 100.361
v -54.37458 20.24263 93.40176
v -51.33699 15.26838 93.54733
v 45.91615 19.34833 105.1886
v 41.73171 15.22416 104.9886
v 42.0653 15.22448 98.01589
v 46.62001 19.06249 98.23367
v 41.73171 15.22416 104.9886
v -51.67058 15.26805 100.5201
v -31.20199 30.36977 101.4984
v -54.98734 19.83093 100.361
v 19.87955 31.55064 103.9421
v 41.73171 15.22416 104.9886
v 45.91615 19.34833 105.1886
v 41.70869 -51.66147 104.9921
v -51.70616 -51.62464 100.5228
v -4.762212 45.76921 102.7622
v -54.37458 20.24263 93.40176
v -45.0577 20.2515 -101.3381
v -42.0201 15.27725 -101.1926
v -51.33699 15.26838 93.54733
v 55.93696 19.07135 -96.50628
v 46.62001 19.06249 98.23367
v 42.0653 15.22448 98.01589
v 51.38219 15.23336 -96.72407

vn -0.002195198 0.9235363 -0.3835049
vn -0.0008713938 0.9064652 -0.4222798
vn -0.001192914 0.9261912 -0.3770522
vn -0.0001685191 0.884385 -0.4667583
vn -0.0001805592 0.8571653 -0.5150415
vn -0.0001805648 0.8571652 -0.5150415
vn -4.051294E-05 0.9998366 0.01808028
vn -4.051288E-05 0.9998366 0.01808028
vn -4.051288E-05 0.9998366 0.01808028
vn -4.051282E-05 0.9998365 0.01808028
vn 9.957515E-05 0.8630681 0.5050875
vn 8.954853E-05 0.881776 0.4716684
vn 9.958073E-05 0.8630682 0.5050876
vn 7.983297E-05 0.8984617 0.439052
vn 7.07265E-05 0.9128583 0.4082766
vn 7.073022E-05 0.9128583 0.4082767
vn 0.0001422185 -0.9316579 0.3633369
vn 0.0001422185 -0.9316579 0.3633369
vn 0.0001422185 -0.9316579 0.3633369
vn 0.0001422185 -0.9316579 0.3633369
vn -7.578172E-05 -0.9050055 -0.4253999
vn -7.580593E-05 -0.9050055 -0.4254
vn -7.580593E-05 -0.9050055 -0.4254
vn -7.579848E-05 -0.9050055 -0.4254
vn -9.531528E-05 -0.8712178 -0.4908966
vn -9.532273E-05 -0.8712178 -0.4908968
vn -9.532273E-05 -0.8712178 -0.4908968
vn -9.530596E-05 -0.8712177 -0.4908969
vn 0.0001776349 -0.8641385 0.5032543
vn 0.0001700968 -0.881043 0.473036
vn 0.0001776461 -0.8641384 0.5032542
vn 0.0001621656 -0.8972444 0.4415344
vn 0.0001541153 -0.9121783 0.4097937
vn 0.0001541302 -0.9121782 0.4097939
vn -3.656745E-05 -0.956654 -0.2912268
vn 0.0009895694 -0.9391988 -0.3433723
vn 0.0009895694 -0.9391988 -0.3433723
vn 0.001973303 -0.9197386 -0.3925264
vn -0.9820639 0.1715855 0.07816017
vn -0.9896598 0.1293331 0.0620212
vn -0.977577 0.2013842 0.06154579
vn -0.997309 0.05504306 0.04842705
vn -0.999438 0.0238803 0.02352512
vn -0.9996879 0.02497798 0.0007257462
vn -0.9994047 0.02637355 -0.02224702
vn -0.9973994 0.0533547 -0.04845649
vn -0.9916014 0.1112958 -0.06587887
vn -0.9855816 0.1472433 -0.08335674
vn -0.9823622 0.174312 -0.06767577
vn 0.9836464 0.1584715 0.08559662
vn 0.9813159 0.1770488 0.07532001
vn 0.9900955 0.1225742 0.0684604
vn 0.9972423 0.05588885 0.04883051
vn 0.9994017 0.02484507 0.02406287
vn 0.9996619 0.02600294 0.0001961589
vn 0.9993386 0.02745663 -0.02384788
vn 0.9972785 0.05425894 -0.04992056
vn 0.9914448 0.1119915 -0.06704885
vn 0.9821851 0.1749711 -0.06854099
vn 0.9854211 0.1477818 -0.08429736
vn -0.0002749003 0.0005294011 -0.9999999
vn -0.0002748743 0.0005293544 -0.9999999
vn -0.0002753437 0.0005293547 -0.9999999
vn -0.03319022 -0.5546134 -0.8314461
vn -0.06497113 -0.5205123 -0.8513788
vn -0.03319022 -0.5546134 -0.8314461
vn -0.0001962259 -0.5884176 -0.8085573
vn 0.03323346 -0.7391849 0.6726821
vn 0.0002115667 -0.765075 0.6439412
vn 0.03323346 -0.7391849 0.6726821
vn 0.06655154 -0.7110485 0.6999864
vn 0.0002748594 -0.0003414088 1
vn 0.0002748668 -0.0003413595 1
vn 0.0002753325 -0.0003413595 1
vn 1 -6.646992E-05 -0.0002747774
vn 1 -7.396939E-05 -0.0002683401
vn 1 -6.731139E-05 -0.0002754927
vn 1 -6.873035E-05 -0.0002759099
vn 1 -6.330959E-05 -0.0002723932
vn 1 -6.700918E-05 -0.0002754331
vn 1 -6.661735E-05 -0.0002747774
vn 1 -6.574339E-05 -0.0002741814
vn 1 -7.016848E-05 -0.0002762079
vn 0.0002748705 -0.0003413595 1
vn 0.0002748929 -0.0003413134 0.9999999
vn -0.0002748743 0.0005293544 -0.9999999
vn -0.0002753437 0.0005293547 -0.9999999
vn -0.0002748668 0.0005293046 -0.9999999
vn 0.03278374 -0.5546148 -0.8314613
vn 0.06670492 -0.5871018 -0.8067603
vn 0.03278374 -0.5546148 -0.8314613
vn -0.0002109669 -0.5216072 -0.8531858
vn -0.03279322 -0.7391825 0.6727066
vn 0.0002258122 -0.7126173 0.701553
vn -0.03279322 -0.7391825 0.6727066
vn -0.06520751 -0.7634318 0.6425885
vn 0.0002753288 -0.0003413597 1
vn -1 6.646992E-05 0.0002747774
vn -1 6.73114E-05 0.0002754927
vn -1 7.396939E-05 0.0002683401
vn -1 6.873036E-05 0.0002759099
vn -1 6.700918E-05 0.0002754331
vn -1 6.330959E-05 0.0002723932
vn -1 6.661735E-05 0.0002747774
vn -1 6.57434E-05 0.0002741814
vn -1 7.016846E-05 0.0002762079
vn -0.0002107024 -0.5216075 -0.8531857
vn -0.0002107173 -0.5216076 -0.8531855
vn -0.0002107024 -0.5216075 -0.8531857
vn -0.0002106912 -0.5216073 -0.8531858
vn 0.0002116375 -0.7650724 0.6439443
vn 0.0002115481 -0.7650698 0.6439473
vn 0.0002116375 -0.7650724 0.6439443
vn 0.0002117809 -0.765075 0.6439412

vt 2.998502 0.0004994571
vt 2.940452 0.5296535
vt 0.00149855 0.0005002916
vt 0.05982614 0.5296543
vt 2.926786 0.9994999
vt 0.07412776 0.9995005
vt 1.000115 0.6523311
vt 1.000115 0.2759616
vt 0.4950982 0.6523312
vt 0.4950982 0.2759616
vt 0.07321393 0.9995005
vt 0.05954826 0.5332116
vt 2.925873 0.9994999
vt 2.940174 0.5332109
vt 0.00149855 0.0005001724
vt 2.998502 0.0004994571
vt 19.99001 0.9994889
vt 19.99001 0.7593663
vt 0.009989738 0.9995002
vt 0.009989738 0.7593764
vt 9.995005 0.7438838
vt 9.801506 0.01847377
vt 0.004994869 0.7438848
vt 0.1994196 0.01847479
vt 9.801506 0.01847377
vt 9.755954 0.7512838
vt 0.1994196 0.01847479
vt 0.2470914 0.7512848
vt 0.2440459 0.754877
vt 0.1984942 0.02053538
vt 9.752907 0.7548764
vt 9.800579 0.0205346
vt 0.004995763 0.7606962
vt 9.995004 0.7606953
vt 0.009990335 0.7591531
vt 0.009990335 0.999501
vt 19.99001 0.7591473
vt 19.99001 0.9994943
vt 0.4938953 0.8908294
vt 0.4391169 0.9488676
vt 0.4997584 0.9132748
vt 0.4259306 0.9365844
vt 0.3813322 0.999491
vt 0.3756966 0.9810377
vt 0.3696627 0.9991398
vt 0.3180805 0.9321777
vt 0.3084464 0.9458095
vt 0.2605601 0.8929607
vt 0.2508329 0.9137689
vt 0.4947544 0.8922247
vt 0.4989938 0.910659
vt 0.4397974 0.9464006
vt 0.4351832 0.9319561
vt 0.3806563 0.9977122
vt 0.3760421 0.9781088
vt 0.3697234 0.9969653
vt 0.3173701 0.9333066
vt 0.3127559 0.9498148
vt 0.2509851 0.9149985
vt 0.258014 0.8922247
vt 0.0005208552 0.498226
vt 0.03387824 0.9994957
vt 0.0004995167 0.9995005
vt -0.210544 0.73264
vt -0.2816988 0.73264
vt -0.2739867 0.8202577
vt -0.2028319 0.8202577
vt 0.369831 0.73264
vt 0.469179 0.73264
vt 0.4768912 0.8202577
vt 0.3775432 0.8202577
vt 0.9661219 0.4994957
vt 0.9994793 0.0006415844
vt 0.9995005 0.4995005
vt 0.7325804 0.3454965
vt 0.7490819 0.3690066
vt 0.6307465 0.423308
vt 0.3766077 0.4293924
vt 0.2470714 0.3665201
vt 0.2678896 0.3452703
vt 0.2680032 0.0006428957
vt 0.7327564 0.0008326173
vt 0.4992044 0.5026534
vt 0.03389952 0.4993632
vt 0.0004994869 0.0004995465
vt 0.9995005 0.4980841
vt 0.9994792 0.9993585
vt 0.9661005 0.9993632
vt -0.210544 0.73264
vt -0.2816988 0.73264
vt -0.2739867 0.8202577
vt -0.2028319 0.8202577
vt 0.369831 0.73264
vt 0.469179 0.73264
vt 0.4768912 0.8202577
vt 0.3775432 0.8202577
vt 0.0005208254 0.4993585
vt 0.2733957 0.3379244
vt 0.3726558 0.4137692
vt 0.2573113 0.3608404
vt 0.6203715 0.4196998
vt 0.7263418 0.337704
vt 0.7466339 0.3584166
vt 0.7262311 0.001786705
vt 0.2732243 0.001971684
vt 0.5008733 0.4911093
vt 14.9925 0.4199445
vt 0.007492751 0.4217226
vt 0.007503927 0.002278358
vt 14.99251 0.0004995465
vt 14.99251 0.01557195
vt 14.99231 0.4239514
vt 0.00749141 0.4239522
vt 0.007684976 0.01557267

usemtl sn13_14_sn13h02.JPG
usemap sn13_14_sn13h02.JPG
f 3/3/3 1/1/1 2/2/2
f 2/2/2 4/4/4 3/3/3
f 4/4/4 2/2/2 5/5/5
f 5/5/5 6/6/6 4/4/4
f 13/13/13 11/11/11 12/12/12
f 12/12/12 14/14/14 13/13/13
f 14/14/14 12/12/12 15/15/15
f 15/15/15 16/16/16 14/14/14
f 41/41/41 39/39/39 40/40/40
f 39/39/39 42/42/42 40/40/40
f 40/40/40 42/42/42 43/43/43
f 42/42/42 44/44/44 43/43/43
f 43/43/43 44/44/44 45/45/45
f 44/44/44 46/46/46 45/45/45
f 49/49/49 47/47/47 48/48/48
f 48/48/48 47/47/47 46/46/46
f 45/45/45 46/46/46 47/47/47
f 52/52/52 50/50/50 51/51/51
f 52/52/52 53/53/53 50/50/50
f 54/54/54 53/53/53 52/52/52
f 54/54/54 55/55/55 53/53/53
f 56/56/56 55/55/55 54/54/54
f 56/56/56 57/57/57 55/55/55
f 60/60/60 58/58/58 59/59/59
f 57/57/57 58/58/58 60/60/60
f 58/58/58 57/57/57 56/56/56

usemtl sn13_18_sn13h01.jpg
usemap sn13_18_sn13h01.jpg
f 9/9/9 7/7/7 8/8/8
f 8/8/8 10/10/10 9/9/9
f 63/63/63 61/61/61 62/62/62
f 66/66/66 64/64/64 65/65/65
f 67/67/67 64/64/64 66/66/66
f 70/70/70 68/68/68 69/69/69
f 71/71/71 68/68/68 70/70/70
f 74/74/74 72/72/72 73/73/73
f 77/77/77 75/75/75 76/76/76
f 80/80/80 78/78/78 79/79/79
f 75/75/75 81/81/81 82/82/82
f 75/75/75 80/80/80 81/81/81
f 77/77/77 80/80/80 75/75/75
f 77/77/77 78/78/78 80/80/80
f 83/83/83 78/78/78 77/77/77
f 84/84/84 73/73/73 72/72/72
f 73/73/73 84/84/84 85/85/85
f 88/88/88 86/86/86 87/87/87
f 91/91/91 89/89/89 90/90/90
f 92/92/92 89/89/89 91/91/91
f 95/95/95 93/93/93 94/94/94
f 96/96/96 93/93/93 95/95/95
f 84/84/84 97/97/97 85/85/85
f 100/100/100 98/98/98 99/99/99
f 103/103/103 101/101/101 102/102/102
f 105/105/105 104/104/104 98/98/98
f 104/104/104 102/102/102 98/98/98
f 98/98/98 102/102/102 99/99/99
f 102/102/102 101/101/101 99/99/99
f 99/99/99 101/101/101 106/106/106
f 62/62/62 86/86/86 88/88/88
f 86/86/86 62/62/62 61/61/61

usemtl sn13_15_sn13h03.jpg
usemap sn13_15_sn13h03.jpg
f 19/19/19 17/17/17 18/18/18
f 18/18/18 20/20/20 19/19/19
f 23/23/23 21/21/21 22/22/22
f 22/22/22 24/24/24 23/23/23
f 27/27/27 25/25/25 26/26/26
f 26/26/26 28/28/28 27/27/27
f 31/31/31 29/29/29 30/30/30
f 30/30/30 32/32/32 31/31/31
f 32/32/32 30/30/30 33/33/33
f 33/33/33 34/34/34 32/32/32
f 37/37/37 35/35/35 36/36/36
f 36/36/36 38/38/38 37/37/37
f 109/109/109 107/107/107 108/108/108
f 107/107/107 109/109/109 110/110/110
f 113/113/113 111/111/111 112/112/112
f 111/111/111 113/113/113 114/114/114
