mtllib ./ian1640.mtl
g ian1640
v -59.37915 50.83309 -13.39331
v 58.67285 50.79243 -13.39331
v 70.23193 38.84279 -29.6322
v -69.82861 39.1356 -29.47217
v -69.34277 39.4604 29.547
v -58.72107 50.83309 13.79541
v -59.37915 50.83309 -13.39331
v -69.82861 39.1356 -29.47217
v 70.25842 38.93421 29.88831
v 58.67285 50.79243 13.45203
v -58.72107 50.83309 13.79541
v -69.34277 39.4604 29.547
v 70.23193 38.84279 -29.6322
v 58.67285 50.79243 -13.39331
v 58.67285 50.79243 13.45203
v 70.23193 38.84279 -29.6322
v 58.67285 50.79243 13.45203
v 70.25842 38.93421 29.88831
v 54.77429 61.40318 1.012939
v -55.98438 61.44386 1.027832
v -56.58118 61.44386 -0.1541748
v 54.77429 61.40318 -0.1541748
v -48.36914 17.91315 4.964478
v -48.42236 30.16607 4.964478
v -48.36914 17.91315 -6.316895
v -48.42236 30.16607 -6.316895
v 46.74744 17.91316 -6.054443
v -48.36914 17.91315 -6.316895
v 46.69409 30.16607 -6.054443
v -48.42236 30.16607 -6.316895
v 46.34631 17.91316 5.489136
v 46.29309 30.16607 5.489136
v -48.36914 17.91315 4.964478
v -48.42236 30.16607 4.964478
v 46.74744 17.91316 -6.054443
v 46.69409 30.16607 -6.054443
v 46.34631 17.91316 5.489136
v 46.29309 30.16607 5.489136
v -69.34277 39.4604 29.547
v -69.82861 39.1356 -29.47217
v -48.42236 30.16607 -6.316895
v -48.42236 30.16607 4.964478
v -69.82861 39.1356 -29.47217
v 70.23193 38.84279 -29.6322
v 46.69409 30.16607 -6.054443
v -48.42236 30.16607 -6.316895
v 70.25842 38.93421 29.88831
v -69.34277 39.4604 29.547
v -48.42236 30.16607 4.964478
v 46.29309 30.16607 5.489136
v 70.23193 38.84279 -29.6322
v 70.25842 38.93421 29.88831
v 46.29309 30.16607 5.489136
v 46.69409 30.16607 -6.054443
v -38.03735 8.494827 -9.425659
v -42.02063 -77.64433 -9.442017
v -50.60168 19.01632 -9.425659
v -56.98535 -77.64433 -9.442017
v -50.60168 19.00655 8.537231
v -50.60168 19.01632 -9.425659
v -56.98535 -77.64433 8.540771
v -56.98535 -77.64433 -9.442017
v -38.03735 8.494827 8.557251
v -42.02063 -77.64433 8.540771
v -38.03735 8.494827 -9.425659
v -42.02063 -77.64433 -9.442017
v -50.60168 19.00655 8.537231
v -56.98535 -77.64433 8.540771
v -38.03735 8.494827 8.557251
v -42.02063 -77.64433 8.540771
v 49.5033 18.83905 8.628174
v -50.60168 19.00655 8.537231
v 37.00354 8.488136 8.648193
v -38.03735 8.494827 8.557251
v 37.00354 8.488136 -9.334595
v 37.00354 8.488136 8.648193
v -38.03735 8.494827 -9.425659
v -38.03735 8.494827 8.557251
v -50.60168 19.01632 -9.425659
v 49.5033 18.84882 -9.334595
v 49.5033 18.83905 8.628174
v -50.60168 19.00655 8.537231
v 37.00354 8.488136 -9.334595
v -38.03735 8.494827 -9.425659
v 49.5033 18.84882 -9.334595
v -50.60168 19.01632 -9.425659
v 56.94568 -77.12656 9.272827
v 49.5033 18.83905 8.628174
v 41.94226 -77.01301 9.272827
v 37.00354 8.488136 8.648193
v 41.94226 -77.01301 -8.710083
v 41.94226 -77.01301 9.272827
v 37.00354 8.488136 -9.334595
v 37.00354 8.488136 8.648193
v 41.94226 -77.01301 -8.710083
v 37.00354 8.488136 -9.334595
v 56.94568 -77.12656 -8.710083
v 49.5033 18.84882 -9.334595
v 56.94568 -77.12656 9.272827
v 56.94568 -77.12656 -8.710083
v 49.5033 18.83905 8.628174
v 49.5033 18.84882 -9.334595
v 58.67285 50.79243 -13.39331
v 54.77429 61.40318 -0.1541748
v 54.77429 61.40318 1.012939
v 58.67285 50.79243 13.45203
v -58.72107 50.83309 13.79541
v -55.98438 61.44386 1.027832
v -56.58118 61.44386 -0.1541748
v -56.58118 61.44386 -0.1541748
v -59.37915 50.83309 -13.39331
v -50.60168 19.00655 8.537231
v 49.5033 18.83905 8.628174
v 49.5033 18.84882 -9.334595
v -50.60168 19.01632 -9.425659

vn 0.0005048933 0.7957479 -0.6056277
vn 0.0002735693 0.7941881 -0.6076719
vn 0.000676555 0.8070412 -0.5904947
vn 0.0010172 0.8083307 -0.588728
vn -0.7384043 0.6743192 0.007257496
vn -0.7185841 0.6952226 0.01739275
vn -0.7384043 0.6743192 0.007257496
vn -0.7474713 0.6642894 0.002497258
vn 0.00179332 0.8108933 0.5851912
vn 0.001558915 0.7836353 0.6212192
vn 0.001889112 0.7996494 0.6004642
vn 0.001621085 0.8102435 0.5860911
vn 0.7187549 0.6952635 0
vn 0.7187549 0.6952635 0
vn 0.7187549 0.6952635 0
vn 0.716244 0.6978486 -0.00139065
vn 0.716244 0.6978486 -0.00139065
vn 0.716244 0.6978486 -0.00139065
vn 0.000366708 0.7608621 0.6489136
vn 0.001284069 0.7650165 0.6440094
vn 0.0002850523 0.7802795 -0.6254309
vn 0.0002766903 0.7803148 -0.625387
vn -0.9999905 -0.004343632 0
vn -0.9999905 -0.004343632 0
vn -0.9999905 -0.004343632 0
vn -0.9999905 -0.004343632 0
vn 0.002759248 1.201277E-05 -0.9999962
vn 0.002759249 1.199867E-05 -0.9999962
vn 0.002759249 1.199867E-05 -0.9999962
vn 0.002759251 1.198457E-05 -0.9999962
vn -0.005539224 -2.40606E-05 0.9999847
vn -0.005539224 -2.406059E-05 0.9999846
vn -0.005539224 -2.406059E-05 0.9999846
vn -0.005539225 -2.406058E-05 0.9999846
vn 0.9993874 0.004350971 0.0347273
vn 0.9993876 0.004345994 0.03472202
vn 0.9993876 0.004345994 0.03472202
vn 0.9993877 0.004341016 0.03471674
vn -0.3959801 -0.9182326 0.006979044
vn -0.3940721 -0.9190421 0.008301819
vn -0.3959801 -0.9182326 0.006979044
vn -0.4060062 -0.9138704 0
vn -0.00101091 -0.9355123 -0.3532926
vn -0.002357325 -0.9377022 -0.3474318
vn -0.00101091 -0.9355123 -0.3532926
vn 0.0009988907 -0.9321722 -0.3620138
vn -0.003386126 -0.9381663 0.3461685
vn -0.004386909 -0.9365968 0.3503818
vn -0.003386126 -0.9381663 0.3461685
vn -0.001882393 -0.940487 0.3398246
vn 0.3446778 -0.9387162 0.003024118
vn 0.3424337 -0.9395411 0.00129073
vn 0.3446778 -0.9387162 0.003024118
vn 0.3567556 -0.9341155 0.01239298
vn 0.0001530919 0.000182816 -0.9999999
vn 6.694873E-05 0.0001751686 -1
vn 6.694873E-05 0.0001751686 -1
vn 0 0.0001692252 -1
vn -0.9978259 0.06590512 3.582968E-05
vn -0.9978262 0.0659018 1.790402E-05
vn -0.9978262 0.0659018 1.790402E-05
vn -0.9978263 0.06589849 0
vn 0.9989325 -0.04619297 0
vn 0.9989326 -0.04619298 0
vn 0.9989326 -0.04619298 0
vn 0.9989324 -0.04619297 0
vn -0.001480886 0.0001344376 0.999999
vn -0.0007382566 -2.891834E-05 0.9999997
vn -0.0007382566 -2.891834E-05 0.9999997
vn 0 -0.0001913124 1
vn -0.0009034039 0.003025023 0.9999951
vn -0.001036568 0.001915962 0.9999977
vn -0.001036568 0.001915962 0.9999977
vn -0.001211863 0.000455993 0.9999992
vn -8.916444E-05 -1 0
vn -8.916444E-05 -0.9999999 0
vn -8.916444E-05 -0.9999999 0
vn -8.916444E-05 -1 0
vn -0.00167278 -0.9999985 -0.0005436568
vn -0.00167278 -0.9999985 -0.000543659
vn -0.00167278 -0.9999985 -0.0005436568
vn -0.00167278 -0.9999985 -0.0005436547
vn 0.001213398 -0.001463918 -0.9999982
vn 0.001039872 3.215448E-06 -0.9999995
vn 0.001039872 3.215448E-06 -0.9999995
vn 0.00091151 0.001088487 -0.999999
vn 5.087159E-05 0.006721338 0.9999775
vn -0.001829162 0.006869621 0.9999747
vn -0.001829162 0.006869621 0.9999747
vn -0.004244871 0.00706012 0.9999661
vn -0.9983359 -0.05766592 0
vn -0.9983359 -0.05766592 0
vn -0.9983359 -0.05766592 0
vn -0.9983359 -0.05766592 0
vn -5.530527E-05 -0.007307132 -0.9999734
vn 0.002500671 -0.006711779 -0.9999744
vn 0.002500671 -0.006711779 -0.9999744
vn 0.005067572 -0.00611383 -0.9999684
vn 0.9970063 0.07732044 0
vn 0.9970066 0.07731666 2.100518E-05
vn 0.9970066 0.07731666 2.100518E-05
vn 0.9970068 0.07731288 4.203186E-05
vn 0.9386489 0.3448744 0
vn 0.9386489 0.3448742 0
vn 0.9386489 0.3448744 0
vn 0.9386489 0.3448744 0
vn -0.9669789 0.2512418 0.04277103
vn -0.706412 0.6113656 0.3566712
vn -0.706412 0.6113656 0.3566712
vn -0.9735366 0.2273131 0.02356367
vn -0.9735366 0.2273131 0.02356367
vn 0.00167278 0.9999985 0.000543656
vn 0.00167278 0.9999985 0.0005436579
vn 0.00167278 0.9999985 0.000543656
vn 0.00167278 0.9999985 0.0005436542

vt 2.76709 0.5509652
vt 0.2479839 0.5509663
vt 0.00149855 0.0005010366
vt 2.998502 0.0004995167
vt -0.464467 0.0129832
vt 0.04534461 0.5113042
vt 0.9358147 0.5113042
vt 1.471332 0.0129832
vt 0.00149864 0.0004994869
vt 0.2494453 0.5654114
vt 2.769361 0.5534306
vt 2.998502 0.006618738
vt 1.471332 0.0129832
vt 0.9358147 0.5113042
vt 0.04534461 0.5113042
vt 1.471332 0.0129832
vt 0.04534461 0.5113042
vt -0.464467 0.0129832
vt 0.3331296 0.9995005
vt 2.710619 0.9989798
vt 2.707384 0.9994994
vt 0.331175 0.9995005
vt 2.381634 0.3215712
vt 2.381634 0.4919546
vt 2.880066 0.3215712
vt 2.880066 0.4919546
vt 0.0355739 0.3012985
vt 3.02577 0.3012985
vt 0.03862742 0.4935415
vt 3.028824 0.4935415
vt 0.05857562 0.3012985
vt 0.06162663 0.4935415
vt 3.02577 0.3012985
vt 3.028824 0.4935415
vt 2.880066 0.3215712
vt 2.880066 0.4919546
vt 2.381634 0.3215712
vt 2.381634 0.4919546
vt 0.7459205 0.9794685
vt 2.298349 0.9794685
vt 1.674359 0.07140502
vt 1.327835 0.07140502
vt 6.026956 0.9935727
vt -0.9242747 0.9891304
vt -0.4068708 0.03443104
vt 5.522316 0.02998868
vt -0.8880289 0.9891304
vt 6.026957 0.9935727
vt 5.522316 0.02998868
vt -0.3785538 0.03443104
vt 2.262246 0.9794685
vt 0.6737141 0.9794686
vt 1.311717 0.07140502
vt 1.6663 0.07140502
vt 1.095748 0.3411923
vt 1.134982 0.01020096
vt 1.202362 0.4297917
vt 1.311748 0.01020096
vt 0.9602318 0.4341822
vt 0.8274642 0.4342831
vt 0.9604233 0.0004995167
vt 0.8265865 0.0004995167
vt 0.8647858 0.325542
vt 0.8656635 0.0004995167
vt 0.9986226 0.325542
vt 0.9995003 0.0004995167
vt 1.202362 0.4297917
vt 1.311748 0.01020096
vt 1.095748 0.3411923
vt 1.134982 0.01020096
vt 0.9276401 0.4166632
vt 0.06379823 0.4260128
vt 0.8197752 0.1799162
vt 0.17222 0.1802898
vt 0.8197752 0.1828764
vt 0.8197752 0.4265579
vt 0.17222 0.1799163
vt 0.17222 0.4235977
vt 0.418378 1.354844
vt 0.9801114 1.352442
vt 0.9801114 0.8779396
vt 0.418378 0.8803413
vt 0.171663 0.1799162
vt 0.8192182 0.1802896
vt 0.06379832 0.4172084
vt 0.9276401 0.4265579
vt 0.3270259 0.01294242
vt 0.4614627 0.4224084
vt 0.5225446 0.01467127
vt 0.6170032 0.3138285
vt 0.8656633 0.007024348
vt 0.9995002 0.007024348
vt 0.8323241 0.3254728
vt 0.966161 0.3254728
vt 0.5225446 0.01467127
vt 0.6170032 0.3138285
vt 0.3270259 0.01294242
vt 0.4614627 0.4224084
vt 0.8265865 0.005850732
vt 0.9604234 0.005850732
vt 0.8609948 0.432451
vt 0.9937625 0.4325519
vt 0.983077 -0.0084759
vt 0.4811044 0.9634071
vt 0.4811044 0.9634071
vt 0.005952766 -0.01229805
vt 0.005952766 -0.01229805
vt 0.4811044 0.9634071
vt 0.4811044 0.9634071
vt 0.4811044 0.9634071
vt 0.983077 -0.0084759
vt 0.9511911 0.4244139
vt 0.4232049 0.4294522
vt 0.4232052 0.259161
vt 0.9511913 0.2541227

usemtl sn13_14_sn13h02.JPG
usemap sn13_14_sn13h02.JPG
f 3/3/3 1/1/1 2/2/2
f 4/4/4 1/1/1 3/3/3
f 7/7/7 5/5/5 6/6/6
f 8/8/8 5/5/5 7/7/7
f 11/11/11 9/9/9 10/10/10
f 12/12/12 9/9/9 11/11/11
f 15/15/15 13/13/13 14/14/14
f 18/18/18 16/16/16 17/17/17
f 20/20/20 10/10/10 19/19/19
f 11/11/11 10/10/10 20/20/20
f 22/22/22 1/1/1 21/21/21
f 2/2/2 1/1/1 22/22/22

usemtl sn13_07_sn13h08.JPG
usemap sn13_07_sn13h08.JPG
f 25/25/25 23/23/23 24/24/24
f 26/26/26 25/25/25 24/24/24
f 29/29/29 27/27/27 28/28/28
f 30/30/30 29/29/29 28/28/28
f 33/33/33 31/31/31 32/32/32
f 34/34/34 33/33/33 32/32/32
f 37/37/37 35/35/35 36/36/36
f 38/38/38 37/37/37 36/36/36
f 57/57/57 55/55/55 56/56/56
f 58/58/58 57/57/57 56/56/56
f 61/61/61 59/59/59 60/60/60
f 62/62/62 61/61/61 60/60/60
f 65/65/65 63/63/63 64/64/64
f 66/66/66 65/65/65 64/64/64
f 69/69/69 67/67/67 68/68/68
f 70/70/70 69/69/69 68/68/68
f 73/73/73 71/71/71 72/72/72
f 74/74/74 73/73/73 72/72/72
f 77/77/77 75/75/75 76/76/76
f 78/78/78 77/77/77 76/76/76
f 81/81/81 79/79/79 80/80/80
f 82/82/82 79/79/79 81/81/81
f 85/85/85 83/83/83 84/84/84
f 86/86/86 85/85/85 84/84/84
f 89/89/89 87/87/87 88/88/88
f 90/90/90 89/89/89 88/88/88
f 93/93/93 91/91/91 92/92/92
f 94/94/94 93/93/93 92/92/92
f 97/97/97 95/95/95 96/96/96
f 98/98/98 97/97/97 96/96/96
f 101/101/101 99/99/99 100/100/100
f 102/102/102 101/101/101 100/100/100
f 114/114/114 112/112/112 113/113/113
f 112/112/112 114/114/114 115/115/115

usemtl sn13_15_sn13h03.jpg
usemap sn13_15_sn13h03.jpg
f 41/41/41 39/39/39 40/40/40
f 39/39/39 41/41/41 42/42/42
f 45/45/45 43/43/43 44/44/44
f 43/43/43 45/45/45 46/46/46
f 49/49/49 47/47/47 48/48/48
f 47/47/47 49/49/49 50/50/50
f 53/53/53 51/51/51 52/52/52
f 51/51/51 53/53/53 54/54/54

usemtl sn13_16_deco4.JPG
usemap sn13_16_deco4.JPG
f 105/105/105 103/103/103 104/104/104
f 106/106/106 103/103/103 105/105/105
f 109/109/109 107/107/107 108/108/108
f 111/111/111 107/107/107 110/110/110
