mtllib ./ian1594.mtl
g ian1594
v -63.68417 19.09488 110.7739
v -33.53562 31.55037 107.7668
v -52.72078 19.614 -118.3813
v -22.99795 31.56039 -112.4902
v -6.904626 47.54027 107.9925
v 3.530741 47.55021 -110.1259
v -6.904626 47.54027 107.9925
v -2.970225 47.46904 108.1807
v 3.530741 47.55021 -110.1259
v 7.46502 47.47898 -109.9377
v -2.970225 47.46904 108.1807
v 23.14187 32.1408 110.4783
v 7.46502 47.47898 -109.9377
v 33.67955 32.15082 -109.7786
v 52.81855 18.75742 116.3477
v 63.78182 18.76785 -112.8075
v 52.81855 18.75742 116.3477
v 49.28992 17.37974 116.179
v 63.78182 18.76785 -112.8075
v 60.25331 17.39017 -112.9763
v 49.28992 17.37974 116.179
v 21.48147 30.5663 110.3989
v 60.25331 17.39017 -112.9763
v 32.01902 30.57633 -109.8579
v 21.48147 30.5663 110.3989
v -5.244107 45.67057 108.0721
v 32.01902 30.57633 -109.8579
v 5.191138 45.6805 -110.0464
v -5.244107 45.67057 108.0721
v -31.8751 30.17268 107.8463
v 5.191138 45.6805 -110.0464
v -21.33743 30.18271 -112.4106
v -59.53146 17.82925 110.9727
v -48.56819 17.83968 -118.1825
v -59.53146 17.82925 110.9727
v -63.68417 19.09488 110.7739
v -48.56819 17.83968 -118.1825
v -52.72078 19.614 -118.3813
v -59.53146 17.82925 110.9727
v -33.53562 31.55037 107.7668
v -63.68417 19.09488 110.7739
v -31.8751 30.17268 107.8463
v -6.904626 47.54027 107.9925
v -5.244107 45.67057 108.0721
v -2.970225 47.46904 108.1807
v 21.48147 30.5663 110.3989
v 23.14187 32.1408 110.4783
v 49.28992 17.37974 116.179
v 52.81855 18.75742 116.3477
v -48.56819 17.83968 -118.1825
v -52.72078 19.614 -118.3813
v -22.99795 31.56039 -112.4902
v -21.33743 30.18271 -112.4106
v 3.530741 47.55021 -110.1259
v 5.191138 45.6805 -110.0464
v 7.46502 47.47898 -109.9377
v 32.01902 30.57633 -109.8579
v 33.67955 32.15082 -109.7786
v 63.78182 18.76785 -112.8075
v 60.25331 17.39017 -112.9763
v -41.72235 -51.61513 -108.1622
v -42.02036 15.27725 -101.1922
v -41.68677 15.27756 -108.1649
v -42.02036 15.27725 -101.1922
v -45.3025 19.95687 -101.3493
v -45.00354 19.84044 -108.3239
v -41.68677 15.27756 -108.1649
v 55.54312 19.36589 -96.52464
v 51.38186 15.23336 -96.72359
v 51.71545 15.23367 -103.6963
v 55.89989 19.35784 -103.4964
v 51.38186 15.23336 -96.72359
v 51.69243 -51.65195 -103.6929
v 51.71545 15.23367 -103.6963
v -42.02036 15.27725 -101.1922
v -21.5519 30.37896 -100.2139
v -45.3025 19.95687 -101.3493
v 29.5297 31.55983 -97.77015
v 51.38186 15.23336 -96.72359
v 55.54312 19.36589 -96.52464
v -41.68677 15.27756 -108.1649
v -45.00354 19.84044 -108.3239
v -21.2183 30.37928 -107.1866
v 29.86329 31.56015 -104.7429
v 55.89989 19.35784 -103.4964
v 51.71545 15.23367 -103.6963
v 51.69243 -51.65195 -103.6929
v -41.72235 -51.61513 -108.1622
v 5.221594 45.77872 -105.9228
v 42.06509 15.22448 98.01637
v 41.70848 -51.66147 104.9925
v -51.70643 -51.62464 100.5234
v -51.67085 15.26805 100.5205
v -51.33725 15.26838 93.54781
v -51.67085 15.26805 100.5205
v -54.98761 19.83093 100.3616
v -54.61938 19.948 93.39053
v -51.33725 15.26838 93.54781
v 45.91594 19.34833 105.1891
v 41.7315 15.22416 104.9891
v 42.06509 15.22448 98.01637
v 46.22623 19.35702 98.21532
v 41.7315 15.22416 104.9891
v 41.70848 -51.66147 104.9925
v 42.06509 15.22448 98.01637
v -51.67085 15.26805 100.5205
v -31.20226 30.36977 101.4988
v -54.98761 19.83093 100.3616
v 19.87934 31.55064 103.9426
v 41.7315 15.22416 104.9891
v 45.91594 19.34833 105.1891
v 41.70848 -51.66147 104.9925
v -51.70643 -51.62464 100.5234
v -4.76248 45.76921 102.7627
v -54.61938 19.948 93.39053
v 42.06509 15.22448 98.01637
v -51.33725 15.26838 93.54781
v 46.22623 19.35702 98.21532
v -54.61938 19.948 93.39053
v -30.90568 30.37006 95.2997
v 46.22623 19.35702 98.21532
v 20.17592 31.55092 97.74342
v -4.4659 45.7695 96.56353
v 29.5297 31.55983 -97.77015
v 4.907481 45.77842 -99.35715
v -21.5519 30.37896 -100.2139
v -54.61938 19.948 93.39053
v -45.3025 19.95687 -101.3493
v -42.02036 15.27725 -101.1922
v -51.33725 15.26838 93.54781
v 55.54312 19.36589 -96.52464
v 46.22623 19.35702 98.21532
v 42.06509 15.22448 98.01637
v 51.38186 15.23336 -96.72359

vn -0.0021952 0.9235362 -0.3835049
vn -0.0008713957 0.9064652 -0.4222798
vn -0.001192914 0.9261913 -0.3770523
vn -0.0001685191 0.884385 -0.4667583
vn -0.0001805648 0.8571653 -0.5150415
vn -0.0001805704 0.8571652 -0.5150415
vn -4.051282E-05 0.9998365 0.01808028
vn -4.050822E-05 0.9998365 0.01808056
vn -4.050822E-05 0.9998365 0.01808056
vn -4.050165E-05 0.9998366 0.01808084
vn 9.985082E-05 0.8630681 0.5050875
vn 8.964725E-05 0.8817765 0.4716676
vn 9.973161E-05 0.8630687 0.5050867
vn 7.990375E-05 0.8984619 0.4390515
vn 7.08364E-05 0.9128583 0.4082767
vn 7.094443E-05 0.9128579 0.4082773
vn 0.0001424327 -0.93166 0.3633314
vn 0.000142321 -0.931658 0.3633368
vn 0.000142321 -0.931658 0.3633368
vn 0.0001422353 -0.9316558 0.3633422
vn -7.580779E-05 -0.9050051 -0.4254007
vn -7.592142E-05 -0.9050055 -0.4254
vn -7.592142E-05 -0.9050055 -0.4254
vn -7.601082E-05 -0.9050059 -0.4253992
vn -9.55984E-05 -0.8712183 -0.4908959
vn -9.557977E-05 -0.8712182 -0.4908959
vn -9.557977E-05 -0.8712182 -0.4908959
vn -9.556301E-05 -0.8712182 -0.490896
vn 0.0001779143 -0.8641385 0.5032543
vn 0.0001701917 -0.8810428 0.4730366
vn 0.0001777746 -0.8641379 0.5032551
vn 0.000162242 -0.8972443 0.4415344
vn 0.0001542345 -0.9121786 0.409793
vn 0.0001543313 -0.9121789 0.4097923
vn -3.672112E-05 -0.9566541 -0.2912268
vn 0.0009894837 -0.9391972 -0.3433769
vn 0.0009894837 -0.9391972 -0.3433769
vn 0.001973284 -0.9197345 -0.3925362
vn -0.9820642 0.171584 0.07816082
vn -0.9896599 0.129332 0.06202167
vn -0.9775774 0.2013819 0.06154692
vn -0.997309 0.05504313 0.0484271
vn -0.999438 0.02388048 0.0235253
vn -0.999688 0.02497641 0.0007271171
vn -0.999405 0.02635072 -0.0222581
vn -0.9974003 0.05332191 -0.04847342
vn -0.9916036 0.1112661 -0.06589633
vn -0.985584 0.1472215 -0.08336902
vn -0.9823623 0.1743116 -0.06767577
vn 0.9836468 0.1584687 0.08559787
vn 0.9813162 0.1770467 0.0753209
vn 0.9900957 0.1225711 0.06846178
vn 0.9972424 0.05588702 0.04883206
vn 0.9994017 0.02484359 0.02406394
vn 0.9996619 0.02600281 0.0001959205
vn 0.9993387 0.02745652 -0.02384812
vn 0.9972783 0.0542602 -0.04992139
vn 0.9914433 0.112007 -0.06704265
vn 0.9821796 0.1750079 -0.06852376
vn 0.9854184 0.1478045 -0.08428848
vn -0.0002749041 0.0005294005 -0.9999999
vn -0.0002748817 0.0005293425 -0.9999999
vn -0.0002753437 0.0005293547 -0.9999999
vn -0.007081393 -0.5814973 -0.8135176
vn -0.0138748 -0.5746 -0.8183168
vn -0.007081393 -0.5814973 -0.8135176
vn -0.0001962297 -0.5884176 -0.8085572
vn -0.001368951 -0.7112868 0.7029006
vn 0.0002257153 -0.7099534 0.7042488
vn -0.001368951 -0.7112868 0.7029006
vn -0.002960678 -0.7126137 0.7015507
vn 0.0002754629 -0.0003414029 1
vn 0.0002754554 -0.0003414163 1
vn 0.0002753325 -0.0003414167 1
vn -1 6.213776E-05 0.0002771616
vn -1 6.441597E-05 0.0002768636
vn -1 3.972857E-05 0.0002936721
vn -1 6.504329E-05 0.0002737045
vn -1 6.469598E-05 0.0002747178
vn -1 4.603891E-05 0.0002595186
vn 1 -6.649137E-05 -0.000274837
vn 1 -7.509997E-05 -0.0002676249
vn 1 -6.734933E-05 -0.0002755523
vn 1 -6.867228E-05 -0.0002759695
vn 1 -6.330959E-05 -0.0002723932
vn 1 -6.702562E-05 -0.0002754927
vn 1 -6.662361E-05 -0.000274837
vn 1 -6.575319E-05 -0.000274241
vn 1 -6.994647E-05 -0.0002762675
vn 0.0002754666 -0.0003414163 1
vn 0.0002754591 -0.0003414293 1
vn -0.0002748817 0.000529342 -0.9999999
vn -0.0002753437 0.0005293299 -0.9999999
vn -0.0002748668 0.00052928 -0.9999999
vn 0.00668611 -0.5814976 -0.8135208
vn 0.01366094 -0.5883612 -0.808483
vn 0.00668611 -0.5814976 -0.8135208
vn -0.0001989305 -0.574654 -0.8183965
vn 0.001826838 -0.7112815 0.7029049
vn 0.0002257787 -0.7126173 0.701553
vn 0.001826838 -0.7112815 0.7029049
vn 0.003430851 -0.709939 0.7042549
vn 0.0002752766 -0.0003414112 1
vn 0.0002752766 -0.0003414112 1
vn 0.0002752766 -0.0003414112 1
vn -1 6.715512E-05 0.0002755523
vn -1 6.661856E-05 0.0002760887
vn -1 5.781356E-05 0.0002806783
vn -1 6.841233E-05 0.0002757907
vn -1 6.706986E-05 0.0002755523
vn -1 6.205904E-05 0.0002718568
vn -1 6.753431E-05 0.0002754927
vn -1 6.746049E-05 0.0002754331
vn -1 7.033483E-05 0.0002760887
vn 1 -4.242814E-05 -0.0002748966
vn 1 -4.242814E-05 -0.0002748966
vn 1 -5.299623E-05 -0.0002754331
vn 1 -3.141292E-05 -0.0002744198
vn 0.9973271 0.07306603 0.0001542568
vn 0.9988745 0.04743286 -0.000459373
vn 0.9976696 0.06822953 -0.000539422
vn 0.9996079 0.02799186 -0.0009241104
vn 1 -7.007251E-05 -0.0002762675
vn -0.9996186 0.02762036 -0.0003600121
vn -0.9996186 0.02762036 -0.0003600121
vn -0.9996186 0.02762036 -0.0003600121
vn -0.0001987517 -0.5746539 -0.8183966
vn -0.0001987405 -0.5746539 -0.8183966
vn -0.0001987517 -0.5746539 -0.8183966
vn -0.0001987591 -0.574654 -0.8183964
vn 0.0002260543 -0.7099479 0.7042542
vn 0.0002258159 -0.7099426 0.7042596
vn 0.0002260543 -0.7099479 0.7042542
vn 0.0002263002 -0.7099532 0.7042488

vt 2.998502 0.0004994571
vt 2.940452 0.5296535
vt 0.00149855 0.0005002916
vt 0.05982614 0.5296543
vt 2.926786 0.9994999
vt 0.07412776 0.9995005
vt 1.000115 0.6523311
vt 1.000115 0.2759616
vt 0.4950982 0.6523312
vt 0.4950982 0.2759616
vt 0.07321393 0.9995005
vt 0.05954826 0.5332116
vt 2.925873 0.9994999
vt 2.940174 0.5332109
vt 0.00149855 0.0005001724
vt 2.998502 0.0004994571
vt 19.99001 0.9994889
vt 19.99001 0.7593663
vt 0.009989738 0.9995002
vt 0.009989738 0.7593764
vt 9.995005 0.7438838
vt 9.801506 0.01847377
vt 0.004994869 0.7438848
vt 0.1994196 0.01847479
vt 9.801506 0.01847377
vt 9.755954 0.7512838
vt 0.1994196 0.01847479
vt 0.2470914 0.7512848
vt 0.2440459 0.754877
vt 0.1984942 0.02053538
vt 9.752907 0.7548764
vt 9.800579 0.0205346
vt 0.004995763 0.7606962
vt 9.995004 0.7606953
vt 0.009990335 0.7591531
vt 0.009990335 0.999501
vt 19.99001 0.7591473
vt 19.99001 0.9994943
vt 0.4938953 0.8908294
vt 0.4391169 0.9488676
vt 0.4997584 0.9132748
vt 0.4259306 0.9365844
vt 0.3813322 0.999491
vt 0.3756966 0.9810377
vt 0.3696627 0.9991398
vt 0.3180805 0.9321777
vt 0.3084464 0.9458095
vt 0.2605601 0.8929607
vt 0.2508329 0.9137689
vt 0.4947544 0.8922247
vt 0.4989938 0.910659
vt 0.4397974 0.9464006
vt 0.4351832 0.9319561
vt 0.3806563 0.9977122
vt 0.3760421 0.9781088
vt 0.3697234 0.9969653
vt 0.3173701 0.9333066
vt 0.3127559 0.9498148
vt 0.2509851 0.9149985
vt 0.258014 0.8922247
vt 0.0005208552 0.498226
vt 0.03387824 0.9994957
vt 0.0004995167 0.9995005
vt -0.210544 0.73264
vt -0.2816988 0.73264
vt -0.2739867 0.8202577
vt -0.2028319 0.8202577
vt 0.369831 0.73264
vt 0.469179 0.73264
vt 0.4768912 0.8202577
vt 0.3775432 0.8202577
vt 0.9661219 0.4994957
vt 0.9994793 0.0006415844
vt 0.9995005 0.4995005
vt 0.9564221 1.011909
vt 0.7545872 1.162115
vt 1 1.048946
vt 0.2568808 1.174461
vt 0.04128423 0.9933909
vt 0 1.046889
vt 0.7325804 0.3454965
vt 0.7490819 0.3690066
vt 0.6307465 0.423308
vt 0.3766077 0.4293924
vt 0.2470714 0.3665201
vt 0.2678896 0.3452703
vt 0.2680032 0.0006428957
vt 0.7327564 0.0008326173
vt 0.4992044 0.5026534
vt 0.03389952 0.4993632
vt 0.0004994869 0.0004995465
vt 0.9995005 0.4980841
vt 0.9994792 0.9993585
vt 0.9661005 0.9993632
vt -0.210544 0.73264
vt -0.2816988 0.73264
vt -0.2739867 0.8202577
vt -0.2028319 0.8202577
vt 0.369831 0.73264
vt 0.469179 0.73264
vt 0.4768912 0.8202577
vt 0.3775432 0.8202577
vt 0.0005208254 0.4993585
vt 0.0004994869 0.0004995465
vt 0.03389952 0.4993632
vt 0.2733957 0.3379244
vt 0.3726558 0.4137692
vt 0.2573113 0.3608404
vt 0.6203715 0.4196998
vt 0.7263418 0.337704
vt 0.7466339 0.3584166
vt 0.7262311 0.001786705
vt 0.2732243 0.001971684
vt 0.5008733 0.4911093
vt 0.9941292 0.05455717
vt 0.0421085 0.01349441
vt 0.9590038 0.0183253
vt 0.007977905 0.05214174
vt -0.2739867 0.8202577
vt 0.5 0.5
vt 0.3775432 0.8202577
vt 0.5 0.5
vt 0.5 0.5
vt 0.2568808 1.174461
vt 0.5 0.5
vt 0.7545872 1.162115
vt 0.01064098 0.4979055
vt 0.9903039 0.4986241
vt 0.9893589 0.4272164
vt 0.009696037 0.4264956
vt 0.9995012 0.1985672
vt 0.0005009174 0.1985812
vt 0.0005001585 0.318341
vt 0.9995005 0.318327

usemtl sn13_14_sn13h02.JPG
usemap sn13_14_sn13h02.JPG
f 3/3/3 1/1/1 2/2/2
f 2/2/2 4/4/4 3/3/3
f 4/4/4 2/2/2 5/5/5
f 5/5/5 6/6/6 4/4/4
f 13/13/13 11/11/11 12/12/12
f 12/12/12 14/14/14 13/13/13
f 14/14/14 12/12/12 15/15/15
f 15/15/15 16/16/16 14/14/14
f 41/41/41 39/39/39 40/40/40
f 39/39/39 42/42/42 40/40/40
f 40/40/40 42/42/42 43/43/43
f 42/42/42 44/44/44 43/43/43
f 43/43/43 44/44/44 45/45/45
f 44/44/44 46/46/46 45/45/45
f 49/49/49 47/47/47 48/48/48
f 48/48/48 47/47/47 46/46/46
f 45/45/45 46/46/46 47/47/47
f 52/52/52 50/50/50 51/51/51
f 52/52/52 53/53/53 50/50/50
f 54/54/54 53/53/53 52/52/52
f 54/54/54 55/55/55 53/53/53
f 56/56/56 55/55/55 54/54/54
f 56/56/56 57/57/57 55/55/55
f 60/60/60 58/58/58 59/59/59
f 57/57/57 58/58/58 60/60/60
f 58/58/58 57/57/57 56/56/56

usemtl sn13_18_sn13h01.jpg
usemap sn13_18_sn13h01.jpg
f 9/9/9 7/7/7 8/8/8
f 8/8/8 10/10/10 9/9/9
f 66/66/66 64/64/64 65/65/65
f 67/67/67 64/64/64 66/66/66
f 70/70/70 68/68/68 69/69/69
f 71/71/71 68/68/68 70/70/70
f 77/77/77 75/75/75 76/76/76
f 80/80/80 78/78/78 79/79/79
f 75/75/75 79/79/79 76/76/76
f 79/79/79 78/78/78 76/76/76
f 97/97/97 95/95/95 96/96/96
f 98/98/98 95/95/95 97/97/97
f 101/101/101 99/99/99 100/100/100
f 102/102/102 99/99/99 101/101/101
f 117/117/117 115/115/115 116/116/116
f 116/116/116 115/115/115 118/118/118
f 121/121/121 119/119/119 120/120/120
f 121/121/121 120/120/120 122/122/122
f 120/120/120 123/123/123 122/122/122
f 126/126/126 124/124/124 125/125/125

usemtl sn13_15_sn13h03.jpg
usemap sn13_15_sn13h03.jpg
f 19/19/19 17/17/17 18/18/18
f 18/18/18 20/20/20 19/19/19
f 23/23/23 21/21/21 22/22/22
f 22/22/22 24/24/24 23/23/23
f 27/27/27 25/25/25 26/26/26
f 26/26/26 28/28/28 27/27/27
f 31/31/31 29/29/29 30/30/30
f 30/30/30 32/32/32 31/31/31
f 32/32/32 30/30/30 33/33/33
f 33/33/33 34/34/34 32/32/32
f 37/37/37 35/35/35 36/36/36
f 36/36/36 38/38/38 37/37/37

usemtl sn13_20_sn13h07.jpg
usemap sn13_20_sn13h07.jpg
f 63/63/63 61/61/61 62/62/62
f 74/74/74 72/72/72 73/73/73
f 83/83/83 81/81/81 82/82/82
f 86/86/86 84/84/84 85/85/85
f 81/81/81 87/87/87 88/88/88
f 81/81/81 86/86/86 87/87/87
f 83/83/83 86/86/86 81/81/81
f 83/83/83 84/84/84 86/86/86
f 89/89/89 84/84/84 83/83/83
f 90/90/90 73/73/73 72/72/72
f 73/73/73 90/90/90 91/91/91
f 94/94/94 92/92/92 93/93/93
f 105/105/105 103/103/103 104/104/104
f 108/108/108 106/106/106 107/107/107
f 111/111/111 109/109/109 110/110/110
f 113/113/113 112/112/112 106/106/106
f 112/112/112 110/110/110 106/106/106
f 106/106/106 110/110/110 107/107/107
f 110/110/110 109/109/109 107/107/107
f 107/107/107 109/109/109 114/114/114
f 62/62/62 92/92/92 94/94/94
f 92/92/92 62/62/62 61/61/61
f 129/129/129 127/127/127 128/128/128
f 127/127/127 129/129/129 130/130/130
f 133/133/133 131/131/131 132/132/132
f 131/131/131 133/133/133 134/134/134
