mtllib ./ian1620.mtl
g ian1620
v -60.40815 19.09488 112.5985
v -30.35983 31.55037 108.7078
v -56.17452 19.614 -116.7875
v -26.29053 31.56039 -111.771
v -3.732816 47.54027 108.1518
v 0.2969543 47.55021 -110.1863
v -3.732816 47.54027 108.1518
v 0.2055371 47.46904 108.2245
v 0.2969543 47.55021 -110.1863
v 4.235265 47.47898 -110.1136
v 0.2055371 47.46904 108.2245
v 26.37474 32.1408 109.7548
v 4.235265 47.47898 -110.1136
v 30.44402 32.15082 -110.7239
v 56.21181 18.75742 114.751
v 60.44548 18.76785 -114.6351
v 56.21181 18.75742 114.751
v 52.67971 17.37974 114.6859
v 60.44548 18.76785 -114.6351
v 56.91334 17.39017 -114.7002
v 52.67971 17.37974 114.6859
v 24.71259 30.5663 109.7242
v 56.91334 17.39017 -114.7002
v 28.78186 30.57633 -110.7544
v -2.070623 45.67057 108.1826
v 1.959105 45.6805 -110.1555
v -2.070623 45.67057 108.1826
v -28.69768 30.17268 108.7385
v 1.959105 45.6805 -110.1555
v -24.62842 30.18271 -111.7402
v -56.25126 17.82925 112.6754
v -52.01765 17.83968 -116.7107
v -56.25126 17.82925 112.6754
v -60.40815 19.09488 112.5985
v -52.01765 17.83968 -116.7107
v -56.17452 19.614 -116.7875
v -56.25126 17.82925 112.6754
v -30.35983 31.55037 108.7078
v -60.40815 19.09488 112.5985
v -28.69768 30.17268 108.7385
v -3.732816 47.54027 108.1518
v -2.070623 45.67057 108.1826
v 0.2055371 47.46904 108.2245
v 24.71259 30.5663 109.7242
v 26.37474 32.1408 109.7548
v 52.67971 17.37974 114.6859
v 56.21181 18.75742 114.751
v -52.01765 17.83968 -116.7107
v -56.17452 19.614 -116.7875
v -26.29053 31.56039 -111.771
v -24.62842 30.18271 -111.7402
v 0.2969543 47.55021 -110.1863
v 1.959105 45.6805 -110.1555
v 4.235265 47.47898 -110.1136
v 28.78186 30.57633 -110.7544
v 30.44402 32.15082 -110.7239
v 60.44548 18.76785 -114.6351
v 56.91334 17.39017 -114.7002
v -44.88053 -51.61513 -106.8952
v -44.97385 15.27725 -99.91921
v -44.84503 15.27756 -106.899
v -44.97385 15.27725 -99.91921
v -48.0145 20.2515 -99.97544
v -48.16514 19.84044 -106.9606
v -44.84503 15.27756 -106.899
v 53.08183 19.07135 -98.10959
v 48.52248 15.23336 -98.1936
v 48.6513 15.23367 -105.1734
v 52.83996 19.35784 -105.0964
v 48.52248 15.23336 -98.1936
v 48.62838 -51.65195 -105.1693
v 48.6513 15.23367 -105.1734
v -44.84503 15.27756 -106.899
v -48.16514 19.84044 -106.9606
v -24.3559 30.37928 -106.5218
v 26.7771 31.56015 -105.5782
v 52.83996 19.35784 -105.0964
v 48.6513 15.23367 -105.1734
v 48.62838 -51.65195 -105.1693
v -44.88053 -51.61513 -106.8952
v 2.110554 45.77872 -106.0344
v 44.92466 15.22448 96.74249
v 44.77288 -51.66147 103.7263
v -48.73596 -51.62464 102.0005
v -48.70053 15.26805 101.9967
v -48.57167 15.26838 95.01688
v -48.70053 15.26805 101.9967
v -52.02064 19.83093 101.9351
v -51.61234 20.24263 94.96062
v -48.57167 15.26838 95.01688
v 48.9845 19.34833 103.7993
v 44.79584 15.22416 103.7222
v 44.92466 15.22448 96.74249
v 49.48397 19.06249 96.82645
v 44.79584 15.22416 103.7222
v -48.70053 15.26805 101.9967
v -28.21138 30.36977 102.3738
v -52.02064 19.83093 101.9351
v 22.92165 31.55064 103.3175
v 44.79584 15.22416 103.7222
v 48.9845 19.34833 103.7993
v 44.77288 -51.66147 103.7263
v -48.73596 -51.62464 102.0005
v -1.744948 45.76921 102.8613
v -51.61234 20.24263 94.96062
v -48.0145 20.2515 -99.97544
v -44.97385 15.27725 -99.91921
v -48.57167 15.26838 95.01688
v 53.08183 19.07135 -98.10959
v 49.48397 19.06249 96.82645
v 44.92466 15.22448 96.74249
v 48.52248 15.23336 -98.1936

vn -0.2728471 0.9235408 -0.2694935
vn -0.2993415 0.9064707 -0.2978348
vn -0.2675738 0.9261958 -0.2656418
vn -0.3303099 0.8843914 -0.3297684
vn -0.3644756 0.8571725 -0.3638857
vn -0.3644758 0.8571724 -0.3638858
vn 0.01276153 0.9998365 0.01280707
vn 0.0127616 0.9998365 0.01280714
vn 0.0127616 0.9998365 0.01280714
vn 0.01276167 0.9998365 0.01280721
vn 0.3573758 0.8630759 0.3569067
vn 0.3337274 0.8817828 0.3332942
vn 0.3573756 0.863076 0.3569066
vn 0.3106471 0.8984675 0.310249
vn 0.2888698 0.9128633 0.2885046
vn 0.2888698 0.9128633 0.2885046
vn 0.2571304 -0.9316611 0.2566933
vn 0.257129 -0.931662 0.2566918
vn 0.257129 -0.931662 0.2566918
vn 0.2571276 -0.9316627 0.2566903
vn -0.3009865 -0.9050111 -0.3006029
vn -0.316344 -0.8944887 -0.3159372
vn -0.3009867 -0.905011 -0.3006031
vn -0.3319594 -0.8831146 -0.331529
vn -0.347334 -0.8712252 -0.3468802
vn -0.3473338 -0.8712253 -0.34688
vn 0.3561345 -0.8641459 0.3555562
vn 0.3347522 -0.8810497 0.3342043
vn 0.3561345 -0.8641458 0.3555563
vn 0.3124616 -0.8972501 0.3119453
vn 0.2900019 -0.9121833 0.2895176
vn 0.2900019 -0.9121834 0.2895175
vn -0.206043 -0.9566566 -0.2058019
vn -0.2422068 -0.9392021 -0.243383
vn -0.2422068 -0.9392021 -0.243383
vn -0.2762846 -0.9197425 -0.2788201
vn -0.6388089 0.171584 0.749988
vn -0.6555938 0.1293277 0.7439566
vn -0.647393 0.2013907 0.7350672
vn -0.6706171 0.05503457 0.7397593
vn -0.6897396 0.02387505 0.7236637
vn -0.7060471 0.02498025 0.7077241
vn -0.7221009 0.02636801 0.6912851
vn -0.7392267 0.05334686 0.6713404
vn -0.7474567 0.1112857 0.654923
vn -0.7555659 0.1472358 0.6383115
vn -0.7421961 0.174308 0.6471179
vn 0.7557767 0.158477 -0.6353633
vn 0.7468576 0.1770586 -0.6409788
vn 0.7482128 0.1225776 -0.652037
vn 0.7393756 0.05589167 -0.6709693
vn 0.7233785 0.02485058 -0.6900042
vn 0.7066783 0.02600877 -0.7070568
vn 0.6894465 0.02746204 -0.7238159
vn 0.6695461 0.05426913 -0.7407854
vn 0.6533071 0.1120146 -0.7487606
vn 0.645706 0.175003 -0.7432613
vn 0.6368462 0.1478093 -0.7566897
vn -0.7076259 0.0005295799 -0.7065871
vn -0.7076259 0.0005293814 -0.7065872
vn -0.7076261 0.0005295516 -0.7065869
vn -0.611644 -0.5546252 -0.5641654
vn -0.6482084 -0.5205233 -0.555771
vn -0.611644 -0.5546252 -0.5641654
vn -0.5721313 -0.5884299 -0.5713283
vn 0.4993548 -0.739197 0.4519209
vn 0.455685 -0.7650855 0.4549674
vn 0.4993548 -0.739197 0.4519209
vn 0.5422174 -0.7110625 0.4476498
vn 0.7076258 -0.0003414704 0.7065872
vn 0.7076257 -0.0003417605 0.7065873
vn 0.707626 -0.0003414284 0.7065869
vn 0.7065872 -6.675141E-05 -0.707626
vn 0.7065867 -6.62844E-05 -0.7076265
vn 0.7065872 -6.735862E-05 -0.707626
vn 0.706587 -6.769951E-05 -0.7076261
vn 0.7065855 -7.130942E-05 -0.7076275
vn 0.7065873 -6.695724E-05 -0.707626
vn 0.7065872 -6.667415E-05 -0.707626
vn 0.7065871 -6.680947E-05 -0.707626
vn 0.7065872 -6.622173E-05 -0.707626
vn 0.7076257 -0.0003417719 0.7065873
vn 0.7076257 -0.0003420428 0.7065873
vn -0.7076257 0.000529365 -0.7065872
vn -0.7076219 0.0005285882 -0.7065911
vn -0.7076257 0.0005291417 -0.7065873
vn -0.5650221 -0.5546275 -0.6108505
vn -0.5235734 -0.5871137 -0.6173884
vn -0.5650221 -0.5546275 -0.6108505
vn -0.6037102 -0.5216208 -0.6028646
vn 0.4527068 -0.7391952 0.4986452
vn 0.4964506 -0.7126308 0.4956754
vn 0.4527068 -0.7391952 0.4986452
vn 0.4084916 -0.7634436 0.5002884
vn 0.707626 -0.0003421021 0.7065869
vn -0.7065871 6.668203E-05 0.7076261
vn -0.7065871 6.565266E-05 0.7076259
vn -0.706587 6.592999E-05 0.7076262
vn -0.7065877 6.475801E-05 0.7076255
vn -0.706587 6.630651E-05 0.7076261
vn -0.7065901 5.752371E-05 0.7076229
vn -0.706587 6.678619E-05 0.707626
vn -0.7065872 6.645099E-05 0.7076259
vn -0.7065874 6.853179E-05 0.7076256
vn -0.6037142 -0.5216197 -0.6028616
vn -0.6037145 -0.5216185 -0.6028621
vn -0.6037142 -0.5216197 -0.6028616
vn -0.6037137 -0.5216208 -0.6028612
vn 0.4556867 -0.7650837 0.4549688
vn 0.4556881 -0.7650818 0.4549704
vn 0.4556867 -0.7650837 0.4549688
vn 0.4556852 -0.7650856 0.4549672

vt 2.998502 0.0004994571
vt 2.940452 0.5296535
vt 0.00149855 0.0005002916
vt 0.05982614 0.5296543
vt 2.926786 0.9994999
vt 0.07412776 0.9995005
vt 1.000115 0.6523311
vt 1.000115 0.2759616
vt 0.4950982 0.6523312
vt 0.4950982 0.2759616
vt 0.07321393 0.9995005
vt 0.05954826 0.5332116
vt 2.925873 0.9994999
vt 2.940174 0.5332109
vt 0.00149855 0.0005001724
vt 2.998502 0.0004994571
vt 19.99001 0.9994889
vt 19.99001 0.7593663
vt 0.009989738 0.9995002
vt 0.009989738 0.7593764
vt 9.995005 0.7438838
vt 9.801506 0.01847377
vt 0.004994869 0.7438848
vt 0.1994196 0.01847479
vt 9.755954 0.7512838
vt 0.2470914 0.7512848
vt 0.2440459 0.754877
vt 0.1984942 0.02053538
vt 9.752907 0.7548764
vt 9.800579 0.0205346
vt 0.004995763 0.7606962
vt 9.995004 0.7606953
vt 0.009990335 0.7591531
vt 0.009990335 0.999501
vt 19.99001 0.7591473
vt 19.99001 0.9994943
vt 0.4938953 0.8908294
vt 0.4391169 0.9488676
vt 0.4997584 0.9132748
vt 0.4259306 0.9365844
vt 0.3813322 0.999491
vt 0.3756966 0.9810377
vt 0.3696627 0.9991398
vt 0.3180805 0.9321777
vt 0.3084464 0.9458095
vt 0.2605601 0.8929607
vt 0.2508329 0.9137689
vt 0.4947544 0.8922247
vt 0.4989938 0.910659
vt 0.4397974 0.9464006
vt 0.4351832 0.9319561
vt 0.3806563 0.9977122
vt 0.3760421 0.9781088
vt 0.3697234 0.9969653
vt 0.3173701 0.9333066
vt 0.3127559 0.9498148
vt 0.2509851 0.9149985
vt 0.258014 0.8922247
vt 0.0005208552 0.498226
vt 0.03387824 0.9994957
vt 0.0004995167 0.9995005
vt -0.210544 0.73264
vt -0.2816988 0.73264
vt -0.2739867 0.8202577
vt -0.2028319 0.8202577
vt 0.369831 0.73264
vt 0.469179 0.73264
vt 0.4768912 0.8202577
vt 0.3775432 0.8202577
vt 0.9661219 0.4994957
vt 0.9994793 0.0006415844
vt 0.9995005 0.4995005
vt 0.7325804 0.3454965
vt 0.7490819 0.3690066
vt 0.6307465 0.423308
vt 0.3766077 0.4293924
vt 0.2470714 0.3665201
vt 0.2678896 0.3452703
vt 0.2680032 0.0006428957
vt 0.7327564 0.0008326173
vt 0.4992044 0.5026534
vt 0.03389952 0.4993632
vt 0.0004994869 0.0004995465
vt 0.9995005 0.4980841
vt 0.9994792 0.9993585
vt 0.9661005 0.9993632
vt -0.210544 0.73264
vt -0.2816988 0.73264
vt -0.2739867 0.8202577
vt -0.2028319 0.8202577
vt 0.369831 0.73264
vt 0.469179 0.73264
vt 0.4768912 0.8202577
vt 0.3775432 0.8202577
vt 0.0005208254 0.4993585
vt 0.2733957 0.3379244
vt 0.3726558 0.4137692
vt 0.2573113 0.3608404
vt 0.6203715 0.4196998
vt 0.7263418 0.337704
vt 0.7466339 0.3584166
vt 0.7262311 0.001786705
vt 0.2732243 0.001971684
vt 0.5008733 0.4911093
vt 14.9925 0.4199445
vt 0.007492751 0.4217226
vt 0.007503927 0.002278358
vt 14.99251 0.0004995465
vt 14.99251 0.01557195
vt 14.99231 0.4239514
vt 0.00749141 0.4239522
vt 0.007684976 0.01557267

usemtl sn13_14_sn13h02.JPG
usemap sn13_14_sn13h02.JPG
f 3/3/3 1/1/1 2/2/2
f 2/2/2 4/4/4 3/3/3
f 4/4/4 2/2/2 5/5/5
f 5/5/5 6/6/6 4/4/4
f 13/13/13 11/11/11 12/12/12
f 12/12/12 14/14/14 13/13/13
f 14/14/14 12/12/12 15/15/15
f 15/15/15 16/16/16 14/14/14
f 39/39/39 37/37/37 38/38/38
f 37/37/37 40/40/40 38/38/38
f 38/38/38 40/40/40 41/41/41
f 40/40/40 42/42/42 41/41/41
f 41/41/41 42/42/42 43/43/43
f 42/42/42 44/44/44 43/43/43
f 47/47/47 45/45/45 46/46/46
f 46/46/46 45/45/45 44/44/44
f 43/43/43 44/44/44 45/45/45
f 50/50/50 48/48/48 49/49/49
f 50/50/50 51/51/51 48/48/48
f 52/52/52 51/51/51 50/50/50
f 52/52/52 53/53/53 51/51/51
f 54/54/54 53/53/53 52/52/52
f 54/54/54 55/55/55 53/53/53
f 58/58/58 56/56/56 57/57/57
f 55/55/55 56/56/56 58/58/58
f 56/56/56 55/55/55 54/54/54

usemtl sn13_18_sn13h01.jpg
usemap sn13_18_sn13h01.jpg
f 9/9/9 7/7/7 8/8/8
f 8/8/8 10/10/10 9/9/9
f 61/61/61 59/59/59 60/60/60
f 64/64/64 62/62/62 63/63/63
f 65/65/65 62/62/62 64/64/64
f 68/68/68 66/66/66 67/67/67
f 69/69/69 66/66/66 68/68/68
f 72/72/72 70/70/70 71/71/71
f 75/75/75 73/73/73 74/74/74
f 78/78/78 76/76/76 77/77/77
f 73/73/73 79/79/79 80/80/80
f 73/73/73 78/78/78 79/79/79
f 75/75/75 78/78/78 73/73/73
f 75/75/75 76/76/76 78/78/78
f 81/81/81 76/76/76 75/75/75
f 82/82/82 71/71/71 70/70/70
f 71/71/71 82/82/82 83/83/83
f 86/86/86 84/84/84 85/85/85
f 89/89/89 87/87/87 88/88/88
f 90/90/90 87/87/87 89/89/89
f 93/93/93 91/91/91 92/92/92
f 94/94/94 91/91/91 93/93/93
f 82/82/82 95/95/95 83/83/83
f 98/98/98 96/96/96 97/97/97
f 101/101/101 99/99/99 100/100/100
f 103/103/103 102/102/102 96/96/96
f 102/102/102 100/100/100 96/96/96
f 96/96/96 100/100/100 97/97/97
f 100/100/100 99/99/99 97/97/97
f 97/97/97 99/99/99 104/104/104
f 60/60/60 84/84/84 86/86/86
f 84/84/84 60/60/60 59/59/59

usemtl sn13_15_sn13h03.jpg
usemap sn13_15_sn13h03.jpg
f 19/19/19 17/17/17 18/18/18
f 18/18/18 20/20/20 19/19/19
f 23/23/23 21/21/21 22/22/22
f 22/22/22 24/24/24 23/23/23
f 24/24/24 22/22/22 25/25/25
f 25/25/25 26/26/26 24/24/24
f 29/29/29 27/27/27 28/28/28
f 28/28/28 30/30/30 29/29/29
f 30/30/30 28/28/28 31/31/31
f 31/31/31 32/32/32 30/30/30
f 35/35/35 33/33/33 34/34/34
f 34/34/34 36/36/36 35/35/35
f 107/107/107 105/105/105 106/106/106
f 105/105/105 107/107/107 108/108/108
f 111/111/111 109/109/109 110/110/110
f 109/109/109 111/111/111 112/112/112
