mtllib ./ian1569.mtl
g ian1569
v 112.8593 -52.20325 -48.68414
v 65.04341 -52.20325 -48.68414
v 112.8593 3.303741 -48.68414
v 65.04341 3.303741 -48.68414
v -113.6052 -52.20325 -48.68414
v -113.8282 -52.20325 48.64606
v -113.8282 3.303741 -48.68414
v -113.8282 3.303741 48.64606
v -113.8282 -52.20325 48.64606
v -31.10643 -52.20325 48.64606
v -113.8282 3.303741 48.64606
v -31.10644 3.303741 48.64606
v 112.8593 -52.20325 48.64606
v 112.8593 -52.20325 -48.68414
v 112.8593 3.303741 48.64606
v 112.8593 3.303741 -48.68414
v 112.8593 19.73284 -48.68414
v 65.04341 19.73284 -48.68414
v 123.2399 15.93978 -58.84692
v -113.6052 19.73284 -48.68414
v -113.6052 19.73284 48.64606
v -123.4299 15.93978 58.8407
v -123.4299 15.93978 -58.84692
v -113.6052 19.73284 48.64606
v -31.10644 19.73284 48.64606
v -123.4299 15.93978 58.8407
v 112.8593 19.73284 48.64606
v 112.8593 19.73284 -48.68414
v 123.2399 15.93978 -58.84692
v 123.2399 15.93978 58.8407
v -123.4299 15.93978 -58.84692
v -123.4299 15.93978 58.8407
v -108.1086 30.79343 28.62384
v -108.1086 30.79343 -28.66193
v 123.2399 15.93978 58.8407
v 123.2399 15.93978 -58.84692
v 107.9186 30.79343 -28.66193
v 107.9186 30.79343 28.62384
v -108.1086 30.79343 -28.66193
v -108.1086 30.79343 28.62384
v -108.1086 49.77064 -0.00201416
v -108.1086 49.77064 -0.00201416
v -108.1086 49.77064 -0.03607178
v -108.1086 30.79343 -28.66193
v -108.1086 49.77064 -0.03607178
v -108.1086 49.77064 -0.00201416
v -108.1086 30.79343 28.62384
v 107.9186 30.79343 28.62384
v 107.9186 30.79343 -28.66193
v 107.9186 49.77064 -0.03607178
v 107.9186 49.77064 -0.03607178
v 107.9186 49.77064 -0.00201416
v 107.9186 30.79343 28.62384
v 107.9186 49.77064 -0.03607178
v -108.1086 49.77064 -0.03607178
v 107.9186 49.77064 -0.00201416
v 3.266426 -52.20325 -48.68414
v 3.266418 3.303741 -48.68414
v 23.63792 -52.20325 48.64606
v 112.8593 -52.20325 48.64606
v 23.63792 3.303741 48.64606
v 112.8593 3.303741 48.64606
v 3.266418 19.73284 -48.68414
v -123.4299 15.93978 -58.84692
v 23.63792 19.73284 48.64606
v 112.8593 19.73284 48.64606
v 123.2399 15.93978 58.8407
v 123.2399 15.93978 -58.84692
v -123.4299 15.93978 -58.84692
v 107.9186 30.79343 -28.66193
v -108.1086 30.79343 -28.66193
v 107.9186 49.77064 -0.03607178
v -108.1086 49.77064 -0.03607178
v -123.4299 15.93978 58.8407
v 123.2399 15.93978 58.8407
v -108.1086 30.79343 28.62384
v 107.9186 30.79343 28.62384
v -108.1086 49.77064 -0.03607178
v 107.9186 49.77064 -0.00201416
v -113.6052 -52.20325 -48.68414
v -113.8282 3.303741 -48.68414
v -113.6052 19.73284 -48.68414
v 65.04341 19.73284 -48.68414
v 112.8593 19.73284 -48.68414
v -113.6052 19.73284 48.64606
v -113.6052 19.73284 -48.68414
v -31.10644 19.73284 48.64606
v -113.8282 3.303741 48.64606
v -113.6052 19.73284 48.64606
v 112.8593 3.303741 -48.68414
v 112.8593 19.73284 -48.68414
v 112.8593 19.73284 48.64606
v 3.266418 19.73284 -48.68414
v 112.8593 19.73284 48.64606
v 23.63792 3.303741 48.64606
v 23.63792 19.73284 48.64606
v -113.6052 19.73284 -48.68414

vn 0 0 -1
vn 0 0 -1
vn 0 0 -1
vn 0 0 -0.9999999
vn -0.9999893 -0.004016774 -0.002290749
vn -0.9999973 -0.002008403 -0.001145384
vn -0.9999983 0.001549716 -0.0008837964
vn -0.9999952 0.003099422 0
vn 0 0 1
vn 0 0 0.9999999
vn 0 0 1
vn 0 0 1
vn 1 0 0
vn 1 0 0
vn 1 0 0
vn 1 0 0
vn 0 -0.936873 0.3496696
vn 0 -0.9368731 0.3496696
vn 0 -0.9368731 0.3496697
vn 0.3601639 -0.9328891 0
vn 0.3601638 -0.932889 0
vn 0.3601639 -0.9328891 0
vn 0.3601639 -0.9328891 0
vn 0 -0.9372306 -0.3487099
vn 0 -0.9372307 -0.3487099
vn 0 -0.9372307 -0.3487099
vn -0.3432033 -0.9392611 0
vn -0.3432032 -0.9392611 0
vn -0.3432033 -0.9392611 0
vn -0.3432032 -0.9392611 0
vn -0.6960638 0.71798 0
vn -0.6960638 0.71798 0
vn -0.6960638 0.71798 0
vn -0.6960638 0.71798 0
vn 0.6960638 0.71798 0
vn 0.6960638 0.71798 0
vn 0.6960638 0.71798 0
vn 0.6960638 0.71798 0
vn -1 0 0
vn -1 0 0
vn -1 0 0
vn -1 0 0
vn -1 0 0
vn -1 0 0
vn 1 0 0
vn 1 0 0
vn 1 0 0
vn 1 0 0
vn 1 0 0
vn 1 0 0
vn 1 0 0
vn 1 0 0
vn 1 0 0
vn 0 1 0
vn 0 1 0
vn 0 1 0
vn 0 0 -1
vn 0 0 -1
vn 0 0 1
vn 0 0 1
vn 0 0 1
vn 0 0 1
vn 0 -0.9368731 0.3496696
vn 0 -0.9368731 0.3496697
vn 0 -0.9372306 -0.3487099
vn 0 -0.9372306 -0.3487099
vn 0 -0.9372306 -0.3487099
vn 0 0.897249 -0.4415248
vn 0 0.897249 -0.4415248
vn 0 0.8782405 -0.4782194
vn 0 0.8559948 -0.5169845
vn 0 0.8334814 -0.5525475
vn 0 0.8334814 -0.5525475
vn 0 0.8974333 0.4411499
vn 0 0.8974334 0.4411499
vn 0 0.8784604 0.4778151
vn -2.927355E-05 0.856167 0.516699
vn -4.353775E-05 0.8336327 0.5523193
vn -8.711149E-05 0.8334814 0.5525475
vn 0 0 -1
vn 0 0 -1
vn 0 -0.9368731 0.3496696
vn 0 0 -1
vn 0 0 -1
vn -0.9999079 0.01356988 0
vn -0.9999079 0.01356988 0
vn 0 0 1
vn 0 0 1
vn 0 0 1
vn 0.9999999 0 0
vn 0.9999999 0 0
vn 0.9999999 0 0
vn 0 0 -0.9999999
vn 0 0 1
vn 0 0 1
vn 0 0 0.9999999
vn 0 0 -1

vt 0.00308615 0.4876821
vt 0.3133341 0.4876821
vt 0.00308615 0.8834526
vt 0.3133341 0.8834526
vt -0.02626359 0.4922985
vt 0.4755385 0.4922985
vt -0.02626359 0.8832199
vt 0.4755385 0.8832199
vt 0.0004995465 -0.01752882
vt 0.3650504 -0.01752882
vt 0.0004995465 0.3794561
vt 0.3650504 0.3794561
vt -0.02626359 0.4922985
vt 0.4755385 0.4922985
vt -0.02626359 0.8832199
vt 0.4755385 0.8832199
vt 0.382866 0.0004993081
vt 2.125734 0.0005004406
vt 0.004495651 0.7702665
vt 4.566165 0.0004979968
vt 0.4351869 0.00050053
vt 0.002497435 0.7627358
vt 4.997502 0.7627327
vt 7.677687 0.0004995763
vt 5.004758 0.0005015135
vt 7.996004 0.7787334
vt 3.65185 0.0004993677
vt 0.3470678 0.0005017817
vt 0.001998067 0.758341
vt 3.998002 0.7583381
vt 0.0009989142 0.2977743
vt 1.999001 0.2977731
vt 1.486005 0.7022266
vt 0.5134546 0.7022272
vt 1.999001 0.2161941
vt 0.0009990335 0.2161927
vt 0.5134545 0.7838064
vt 1.486005 0.7838072
vt 0.02043732 0.009787649
vt 0.9753745 0.009787649
vt 0.4777032 0.9840234
vt 0.7626312 1.003623
vt 0.7623343 1.003623
vt 0.4799828 0.8611111
vt 0.8223385 1.002756
vt 2.483972 1.002756
vt 0.8223385 0.57319
vt 0.02018483 0.009787649
vt 0.9760618 0.009787649
vt 0.4777149 0.9840233
vt 0.2554277 1.001208
vt 0.2551309 1.001208
vt -0.02972076 0.8586956
vt 0.3965513 0.4998698
vt 0.583053 0.4998698
vt 0.3965513 0.5001302
vt 0.7141672 0.4876821
vt 0.7141674 0.8834526
vt 0.6063062 -0.01752882
vt 0.9995005 -0.01752882
vt 0.6063062 0.3794561
vt 0.9995005 0.3794561
vt 4.377478 0.0005018711
vt 8.995504 0.7702731
vt 3.231062 0.000502795
vt 0.3403251 0.0005048811
vt 0.003995895 0.7787392
vt 0.001498461 0.0005006492
vt 2.998502 0.0004995167
vt 0.1876506 0.5132425
vt 2.812349 0.5132415
vt 0.1876507 0.9995005
vt 2.81235 0.9994996
vt 2.998502 -0.008113146
vt 0.00149855 -0.0081141
vt 2.812349 0.5045958
vt 0.1876505 0.5045949
vt 2.812349 0.9908869
vt 0.1876504 0.9903091
vt 1.472476 0.4876821
vt 1.473923 0.8834526
vt 8.637399 0.0005046129
vt 0.3133341 0.9995499
vt 0.00308615 0.9995499
vt 0.4755385 0.9989258
vt -0.02626359 0.9989258
vt 0.3650504 0.4969567
vt 0.0004995465 0.3794561
vt 0.001482129 0.4969567
vt 0.4755385 0.8832199
vt 0.4755385 0.9989258
vt -0.02626359 0.9989258
vt 0.7141674 0.9995499
vt 0.9995005 0.4969567
vt 0.6063062 0.3794561
vt 0.6063062 0.4969567
vt 1.472476 0.9995499

usemtl sn13_18_sn13h01.jpg
usemap sn13_18_sn13h01.jpg
f 3/3/3 1/1/1 2/2/2
f 2/2/2 4/4/4 3/3/3
f 7/7/7 5/5/5 6/6/6
f 6/6/6 8/8/8 7/7/7
f 11/11/11 9/9/9 10/10/10
f 10/10/10 12/12/12 11/11/11
f 15/15/15 13/13/13 14/14/14
f 14/14/14 16/16/16 15/15/15
f 44/44/44 42/42/42 43/43/43
f 47/47/47 45/45/45 46/46/46
f 53/53/53 51/51/51 52/52/52
f 56/56/56 54/54/54 55/55/55
f 4/4/4 2/2/2 57/57/57
f 57/57/57 58/58/58 4/4/4
f 61/61/61 59/59/59 60/60/60
f 60/60/60 62/62/62 61/61/61
f 12/12/12 10/10/10 59/59/59
f 59/59/59 61/61/61 12/12/12
f 58/58/58 57/57/57 80/80/80
f 80/80/80 81/81/81 58/58/58
f 3/3/3 4/4/4 83/83/83
f 83/83/83 84/84/84 3/3/3
f 7/7/7 8/8/8 85/85/85
f 85/85/85 86/86/86 7/7/7
f 88/88/88 12/12/12 87/87/87
f 87/87/87 89/89/89 88/88/88
f 15/15/15 90/90/90 91/91/91
f 91/91/91 92/92/92 15/15/15
f 4/4/4 58/58/58 93/93/93
f 93/93/93 83/83/83 4/4/4
f 95/95/95 62/62/62 94/94/94
f 94/94/94 96/96/96 95/95/95
f 12/12/12 95/95/95 96/96/96
f 96/96/96 87/87/87 12/12/12
f 58/58/58 81/81/81 97/97/97
f 97/97/97 93/93/93 58/58/58

usemtl sn13_15_sn13h03.jpg
usemap sn13_15_sn13h03.jpg
f 19/19/19 17/17/17 18/18/18
f 22/22/22 20/20/20 21/21/21
f 20/20/20 22/22/22 23/23/23
f 26/26/26 24/24/24 25/25/25
f 29/29/29 27/27/27 28/28/28
f 27/27/27 29/29/29 30/30/30
f 19/19/19 18/18/18 63/63/63
f 63/63/63 64/64/64 19/19/19
f 67/67/67 65/65/65 66/66/66
f 26/26/26 25/25/25 65/65/65
f 65/65/65 67/67/67 26/26/26
f 64/64/64 63/63/63 82/82/82

usemtl sn13_14_sn13h02.JPG
usemap sn13_14_sn13h02.JPG
f 33/33/33 31/31/31 32/32/32
f 31/31/31 33/33/33 34/34/34
f 37/37/37 35/35/35 36/36/36
f 35/35/35 37/37/37 38/38/38
f 70/70/70 68/68/68 69/69/69
f 69/69/69 71/71/71 70/70/70
f 72/72/72 70/70/70 71/71/71
f 71/71/71 73/73/73 72/72/72
f 76/76/76 74/74/74 75/75/75
f 75/75/75 77/77/77 76/76/76
f 78/78/78 76/76/76 77/77/77
f 77/77/77 79/79/79 78/78/78

usemtl sn13_16_deco4.JPG
usemap sn13_16_deco4.JPG
f 41/41/41 39/39/39 40/40/40
f 50/50/50 48/48/48 49/49/49
