mtllib ./ian1600.mtl
g ian1600
v -58.30273 19.09488 113.6609
v -28.34021 31.55037 109.2177
v -58.30261 19.614 -115.6962
v -28.34009 31.56039 -111.2333
v -1.73584 47.54027 108.1708
v -1.735718 47.55021 -110.1398
v -1.73584 47.54027 108.1708
v 2.202026 47.46904 108.1708
v -1.735718 47.55021 -110.1398
v 2.202148 47.47898 -110.1398
v 2.202026 47.46904 108.1708
v 28.38721 32.1408 109.2177
v 2.202148 47.47898 -110.1398
v 28.38733 32.15082 -111.2333
v 58.30249 18.75742 113.661
v 58.30261 18.76785 -115.696
v 58.30249 18.75742 113.661
v 54.77087 17.37974 113.6611
v 58.30261 18.76785 -115.696
v 54.771 17.39017 -115.6959
v 54.77087 17.37974 113.6611
v 26.72522 30.5663 109.2178
v 54.771 17.39017 -115.6959
v 26.72534 30.57633 -111.2332
v -0.07385254 45.67057 108.1709
v -0.07373047 45.6805 -110.1396
v -0.07385254 45.67057 108.1709
v -26.67822 30.17268 109.2178
v -0.07373047 45.6805 -110.1396
v -26.6781 30.18271 -111.2332
v -54.14636 17.82925 113.661
v -54.14624 17.83968 -115.696
v -54.14636 17.82925 113.661
v -58.30273 19.09488 113.6609
v -54.14624 17.83968 -115.696
v -58.30261 19.614 -115.6962
v -54.14636 17.82925 113.661
v -28.34021 31.55037 109.2177
v -58.30273 19.09488 113.6609
v -26.67822 30.17268 109.2178
v -1.73584 47.54027 108.1708
v -0.07385254 45.67057 108.1709
v 2.202026 47.46904 108.1708
v 26.72522 30.5663 109.2178
v 28.38721 32.1408 109.2177
v 54.77087 17.37974 113.6611
v 58.30249 18.75742 113.661
v -54.14624 17.83968 -115.696
v -58.30261 19.614 -115.6962
v -28.34009 31.56039 -111.2333
v -26.6781 30.18271 -111.2332
v -1.735718 47.55021 -110.1398
v -0.07373047 45.6805 -110.1396
v 2.202148 47.47898 -110.1398
v 26.72534 30.57633 -111.2332
v 28.38733 32.15082 -111.2333
v 58.30261 18.76785 -115.696
v 54.771 17.39017 -115.6959
v -46.83142 -51.61513 -106.0168
v -46.79602 15.27725 -99.04236
v -46.79602 15.27756 -106.0212
v -46.79602 15.27725 -99.04236
v -49.8363 20.2515 -99.04248
v -50.11572 19.84044 -106.0216
v -46.79602 15.27756 -106.0212
v 51.24731 19.07135 -99.04248
v 46.6886 15.23336 -99.04236
v 46.6886 15.23367 -106.0212
v 50.87671 19.35784 -106.0215
v 46.6886 15.23336 -99.04236
v 46.66565 -51.65195 -106.0167
v 46.6886 15.23367 -106.0212
v -46.79602 15.27756 -106.0212
v -50.11572 19.84044 -106.0216
v -26.30945 30.37928 -106.0222
v 24.81714 31.56015 -106.0223
v 50.87671 19.35784 -106.0215
v 46.6886 15.23367 -106.0212
v 46.66565 -51.65195 -106.0167
v -46.83142 -51.61513 -106.0168
v 0.1535645 45.77872 -106.0233
v 46.68835 15.22448 95.86914
v 46.66553 -51.66147 102.8525
v -46.83154 -51.62464 102.8524
v -46.79614 15.26805 102.848
v -46.79614 15.26838 95.86914
v -46.79614 15.26805 102.848
v -50.11584 19.83093 102.8477
v -49.83643 20.24263 95.8689
v -46.79614 15.26838 95.86914
v 50.87659 19.34833 102.8478
v 46.68835 15.22416 102.848
v 46.68835 15.22448 95.86914
v 51.24719 19.06249 95.86902
v 46.68835 15.22416 102.848
v -46.79614 15.26805 102.848
v -26.30957 30.36977 102.847
v -50.11584 19.83093 102.8477
v 24.81702 31.55064 102.8469
v 46.68835 15.22416 102.848
v 50.87659 19.34833 102.8478
v 46.66553 -51.66147 102.8525
v -46.83154 -51.62464 102.8524
v 0.1534424 45.76921 102.8459
v -46.82813 -45.203 83.47339
v -46.79614 15.26867 89.48718
v -46.83154 -51.62373 82.83484
v -49.83643 20.24263 95.8689
v -49.8363 20.2515 -99.04248
v -46.79602 15.27725 -99.04236
v -46.79614 15.26867 89.48718
v 51.24731 19.07135 -99.04248
v 51.24719 19.06249 95.86902
v 46.68835 15.22448 95.86914
v 46.6886 15.23336 -99.04236
v -46.82813 -45.203 83.47339
v -46.83154 -51.62373 82.83484
v -46.79614 15.26867 89.48718
v -46.79614 15.26838 95.86914

vn -0.3835914 0.9235006 0.002090048
vn -0.4223711 0.9064227 0.0007552534
vn -0.3771375 0.9261566 0.001089321
vn -0.4668542 0.8843344 3.99632E-05
vn -0.5151409 0.8571055 3.87016E-05
vn -0.515141 0.8571056 3.87116E-05
vn 0.01808502 0.9998364 4.550423E-05
vn 0.01808502 0.9998364 4.550423E-05
vn 0.01808502 0.9998364 4.550423E-05
vn 0.01808502 0.9998364 4.550423E-05
vn 0.5051863 0.8630103 3.95508E-05
vn 0.4717649 0.8817243 4.036598E-05
vn 0.5051864 0.8630103 3.953794E-05
vn 0.4391456 0.8984159 4.109471E-05
vn 0.4083667 0.912818 4.173081E-05
vn 0.4083667 0.912818 4.172524E-05
vn 0.3634249 -0.9316235 -4.216959E-05
vn 0.3634249 -0.9316235 -4.216959E-05
vn 0.3634249 -0.9316235 -4.216959E-05
vn 0.3634249 -0.9316235 -4.216959E-05
vn -0.4254906 -0.9049628 -4.137716E-05
vn -0.4471962 -0.8944359 -4.091816E-05
vn -0.4254907 -0.9049628 -4.13829E-05
vn -0.4692661 -0.8830568 -4.042543E-05
vn -0.4909955 -0.8711622 -3.990085E-05
vn -0.4909955 -0.8711621 -3.991378E-05
vn 0.5033528 -0.8640808 -3.903558E-05
vn 0.4731324 -0.8809913 -3.982839E-05
vn 0.5033529 -0.864081 -3.904048E-05
vn 0.4416278 -0.8971983 -4.057806E-05
vn 0.4098833 -0.912138 -4.127124E-05
vn 0.4098834 -0.912138 -4.125882E-05
vn -0.2912969 -0.9566327 -4.365528E-05
vn -0.3434517 -0.9391697 -0.001084394
vn -0.3434517 -0.9391697 -0.001084394
vn -0.3926132 -0.9197013 -0.002081861
vn 0.0778907 0.1715409 0.982093
vn 0.0617493 0.1292988 0.9896811
vn 0.06127756 0.2013327 0.9776043
vn 0.04815289 0.0550279 0.997323
vn 0.02325039 0.02387335 0.9994445
vn 0.0004506717 0.02497122 0.999688
vn -0.02252243 0.02636654 0.9993985
vn -0.04873128 0.05334124 0.9973866
vn -0.06615212 0.1112663 0.9915864
vn -0.0836287 0.1472052 0.9855643
vn -0.06794722 0.1742668 0.9823514
vn 0.08586834 0.1584304 -0.9836292
vn 0.0755906 0.1770044 -0.981303
vn 0.06873398 0.1225415 -0.9900804
vn 0.04910587 0.05587303 -0.9972296
vn 0.02433854 0.02483794 -0.9993951
vn 0.0004712278 0.02599636 -0.999662
vn -0.02357304 0.02744888 -0.9993452
vn -0.04964615 0.05424463 -0.9972927
vn -0.0667764 0.1119609 -0.9914664
vn -0.06827183 0.1749247 -0.9822119
vn -0.08402687 0.1477426 -0.9854499
vn -0.9999999 0.0005292765 -5.992845E-07
vn -0.9999999 0.0005292711 -5.5898E-07
vn -0.9999999 0.0005292115 2.349272E-08
vn -0.8315223 -0.5545124 0.03296386
vn -0.8514571 -0.5204127 0.06474109
vn -0.8315223 -0.5545124 0.03296386
vn -0.8086308 -0.5883164 -2.636933E-05
vn 0.6727905 -0.7390946 -0.03305011
vn 0.6440453 -0.7649873 -3.430501E-05
vn 0.6727905 -0.7390946 -0.03305011
vn 0.700098 -0.7109564 -0.06636156
vn 1 -0.0003432375 1.193639E-06
vn 0.9999999 -0.0003422143 8.759517E-07
vn 0.9999999 -0.0003431114 -1.537883E-08
vn 6.283834E-07 -6.649565E-05 -1
vn 7.481899E-06 -7.481541E-05 -1
vn -7.768074E-08 -6.738811E-05 -1
vn -4.129707E-07 -6.856661E-05 -1
vn 3.436707E-06 -6.268753E-05 -1
vn -4.510812E-08 -6.705063E-05 -1
vn 6.24092E-07 -6.661146E-05 -1
vn 1.279732E-06 -6.569591E-05 -1
vn -7.703823E-07 -7.001851E-05 -1
vn 1 -0.0003421833 8.759467E-07
vn 1 -0.0003412272 5.499794E-07
vn -0.9999999 0.0005293529 -7.013576E-07
vn -0.9999998 0.0005292115 2.451415E-08
vn -0.9999999 0.0005290843 -6.126261E-07
vn -0.8315194 -0.5545138 -0.03301532
vn -0.8068149 -0.5870006 -0.06693316
vn -0.8315194 -0.5545138 -0.03301532
vn -0.8532468 -0.5215073 -2.394495E-05
vn 0.6727836 -0.7391039 0.03298321
vn 0.7016363 -0.7125354 -3.273351E-05
vn 0.6727836 -0.7391039 0.03298321
vn 0.6426584 -0.7633569 0.06539454
vn 0.9999999 -0.0003412862 -1.567012E-08
vn -6.283813E-07 6.649564E-05 0.9999999
vn 7.768578E-08 6.738812E-05 0.9999999
vn -7.481899E-06 7.481541E-05 1
vn 4.129784E-07 6.856662E-05 1
vn 4.510881E-08 6.705063E-05 1
vn -3.436688E-06 6.268762E-05 1
vn -6.240895E-07 6.661146E-05 1
vn -1.279726E-06 6.569592E-05 1
vn 7.703931E-07 7.001849E-05 0.9999999
vn -0.9999998 0.0005292654 -5.171147E-07
vn -0.9999998 0.0005289447 -6.234027E-07
vn -0.9999999 0.0005295419 -5.255669E-07
vn -0.8532469 -0.5215073 -2.426484E-05
vn -0.8532465 -0.5215078 -2.425466E-05
vn -0.8532467 -0.5215073 -2.427439E-05
vn -0.8532471 -0.5215067 -2.427501E-05
vn 0.6440406 -0.7649913 -3.420482E-05
vn 0.6440359 -0.7649952 -3.43917E-05
vn 0.6440406 -0.7649913 -3.420482E-05
vn 0.6440452 -0.7649873 -3.401792E-05
vn -0.9999999 0.000529287 -7.347055E-07
vn -0.9999999 0.0005323315 2.424536E-08
vn -0.9999999 0.0005288803 2.409333E-08
vn -0.8532468 -0.5215073 -2.369082E-05

vt 2.998502 0.0004994571
vt 2.940452 0.5296535
vt 0.00149855 0.0005002916
vt 0.05982614 0.5296543
vt 2.926786 0.9994999
vt 0.07412776 0.9995005
vt 1.000115 0.6523311
vt 1.000115 0.2759616
vt 0.4950982 0.6523312
vt 0.4950982 0.2759616
vt 0.07321393 0.9995005
vt 0.05954826 0.5332116
vt 2.925873 0.9994999
vt 2.940174 0.5332109
vt 0.00149855 0.0005001724
vt 2.998502 0.0004994571
vt 19.99001 0.9994889
vt 19.99001 0.7593663
vt 0.009989738 0.9995002
vt 0.009989738 0.7593764
vt 9.995005 0.7438838
vt 9.801506 0.01847377
vt 0.004994869 0.7438848
vt 0.1994196 0.01847479
vt 9.755954 0.7512838
vt 0.2470914 0.7512848
vt 0.2440459 0.754877
vt 0.1984942 0.02053538
vt 9.752907 0.7548764
vt 9.800579 0.0205346
vt 0.004995763 0.7606962
vt 9.995004 0.7606953
vt 0.009990335 0.7591531
vt 0.009990335 0.999501
vt 19.99001 0.7591473
vt 19.99001 0.9994943
vt 0.4938953 0.8908294
vt 0.4391169 0.9488676
vt 0.4997584 0.9132748
vt 0.4259306 0.9365844
vt 0.3813322 0.999491
vt 0.3756966 0.9810377
vt 0.3696627 0.9991398
vt 0.3180805 0.9321777
vt 0.3084464 0.9458095
vt 0.2605601 0.8929607
vt 0.2508329 0.9137689
vt 0.4947544 0.8922247
vt 0.4989938 0.910659
vt 0.4397974 0.9464006
vt 0.4351832 0.9319561
vt 0.3806563 0.9977122
vt 0.3760421 0.9781088
vt 0.3697234 0.9969653
vt 0.3173701 0.9333066
vt 0.3127559 0.9498148
vt 0.2509851 0.9149985
vt 0.258014 0.8922247
vt 0.0005208552 0.498226
vt 0.03387824 0.9994957
vt 0.0004995167 0.9995005
vt -0.210544 0.73264
vt -0.2816988 0.73264
vt -0.2739867 0.8202577
vt -0.2028319 0.8202577
vt 0.369831 0.73264
vt 0.469179 0.73264
vt 0.4768912 0.8202577
vt 0.3775432 0.8202577
vt 0.9661219 0.4994957
vt 0.9994793 0.0006415844
vt 0.9995005 0.4995005
vt 0.7325804 0.3454965
vt 0.7490819 0.3690066
vt 0.6307465 0.423308
vt 0.3766077 0.4293924
vt 0.2470714 0.3665201
vt 0.2678896 0.3452703
vt 0.2680032 0.0006428957
vt 0.7327564 0.0008326173
vt 0.4992044 0.5026534
vt 0.03389952 0.4993632
vt 0.0004994869 0.0004995465
vt 0.9995005 0.4980841
vt 0.9994792 0.9993585
vt 0.9661005 0.9993632
vt -0.210544 0.73264
vt -0.2816988 0.73264
vt -0.2739867 0.8202577
vt -0.2028319 0.8202577
vt 0.369831 0.73264
vt 0.469179 0.73264
vt 0.4768912 0.8202577
vt 0.3775432 0.8202577
vt 0.0005208254 0.4993585
vt 0.2733957 0.3379244
vt 0.3726558 0.4137692
vt 0.2573113 0.3608404
vt 0.6203715 0.4196998
vt 0.7263418 0.337704
vt 0.7466339 0.3584166
vt 0.7262311 0.001786705
vt 0.2732243 0.001971684
vt 0.5008733 0.4911093
vt 0.9068144 0.5462126
vt 0.9355768 0.9993676
vt 0.9037605 0.4980977
vt 14.9925 0.4199445
vt 0.007492751 0.4217226
vt 0.007503927 0.002278358
vt 14.50185 0.00055779
vt 14.99251 0.01557195
vt 14.99231 0.4239514
vt 0.00749141 0.4239522
vt 0.007684976 0.01557267
vt 0.9068144 0.5462126
vt 0.9037605 0.4980977
vt 0.9355768 0.9993676
vt 14.99251 0.0004995465

usemtl sn13_14_sn13h02.JPG
usemap sn13_14_sn13h02.JPG
f 3/3/3 1/1/1 2/2/2
f 2/2/2 4/4/4 3/3/3
f 4/4/4 2/2/2 5/5/5
f 5/5/5 6/6/6 4/4/4
f 13/13/13 11/11/11 12/12/12
f 12/12/12 14/14/14 13/13/13
f 14/14/14 12/12/12 15/15/15
f 15/15/15 16/16/16 14/14/14
f 39/39/39 37/37/37 38/38/38
f 37/37/37 40/40/40 38/38/38
f 38/38/38 40/40/40 41/41/41
f 40/40/40 42/42/42 41/41/41
f 41/41/41 42/42/42 43/43/43
f 42/42/42 44/44/44 43/43/43
f 47/47/47 45/45/45 46/46/46
f 46/46/46 45/45/45 44/44/44
f 43/43/43 44/44/44 45/45/45
f 50/50/50 48/48/48 49/49/49
f 50/50/50 51/51/51 48/48/48
f 52/52/52 51/51/51 50/50/50
f 52/52/52 53/53/53 51/51/51
f 54/54/54 53/53/53 52/52/52
f 54/54/54 55/55/55 53/53/53
f 58/58/58 56/56/56 57/57/57
f 55/55/55 56/56/56 58/58/58
f 56/56/56 55/55/55 54/54/54

usemtl sn13_18_sn13h01.jpg
usemap sn13_18_sn13h01.jpg
f 9/9/9 7/7/7 8/8/8
f 8/8/8 10/10/10 9/9/9
f 64/64/64 62/62/62 63/63/63
f 65/65/65 62/62/62 64/64/64
f 68/68/68 66/66/66 67/67/67
f 69/69/69 66/66/66 68/68/68
f 89/89/89 87/87/87 88/88/88
f 90/90/90 87/87/87 89/89/89
f 93/93/93 91/91/91 92/92/92
f 94/94/94 91/91/91 93/93/93

usemtl sn13_15_sn13h03.jpg
usemap sn13_15_sn13h03.jpg
f 19/19/19 17/17/17 18/18/18
f 18/18/18 20/20/20 19/19/19
f 23/23/23 21/21/21 22/22/22
f 22/22/22 24/24/24 23/23/23
f 24/24/24 22/22/22 25/25/25
f 25/25/25 26/26/26 24/24/24
f 29/29/29 27/27/27 28/28/28
f 28/28/28 30/30/30 29/29/29
f 30/30/30 28/28/28 31/31/31
f 31/31/31 32/32/32 30/30/30
f 35/35/35 33/33/33 34/34/34
f 34/34/34 36/36/36 35/35/35
f 110/110/110 108/108/108 109/109/109
f 108/108/108 110/110/110 111/111/111
f 114/114/114 112/112/112 113/113/113
f 112/112/112 114/114/114 115/115/115
f 108/108/108 111/111/111 119/119/119

usemtl sn13_20_sn13h07.jpg
usemap sn13_20_sn13h07.jpg
f 61/61/61 59/59/59 60/60/60
f 72/72/72 70/70/70 71/71/71
f 75/75/75 73/73/73 74/74/74
f 78/78/78 76/76/76 77/77/77
f 73/73/73 79/79/79 80/80/80
f 73/73/73 78/78/78 79/79/79
f 75/75/75 78/78/78 73/73/73
f 75/75/75 76/76/76 78/78/78
f 81/81/81 76/76/76 75/75/75
f 82/82/82 71/71/71 70/70/70
f 71/71/71 82/82/82 83/83/83
f 86/86/86 84/84/84 85/85/85
f 82/82/82 95/95/95 83/83/83
f 98/98/98 96/96/96 97/97/97
f 101/101/101 99/99/99 100/100/100
f 103/103/103 102/102/102 96/96/96
f 102/102/102 100/100/100 96/96/96
f 96/96/96 100/100/100 97/97/97
f 100/100/100 99/99/99 97/97/97
f 97/97/97 99/99/99 104/104/104
f 60/60/60 105/105/105 106/106/106
f 107/107/107 60/60/60 59/59/59
f 105/105/105 60/60/60 107/107/107
f 84/84/84 116/116/116 117/117/117
f 116/116/116 84/84/84 86/86/86
f 118/118/118 116/116/116 86/86/86
