mtllib ./ian1397.mtl
g ian1397
v 287.9069 -9.918213E-05 118.0225
v 153.4645 -9.918213E-05 -16.42
v 287.9069 40.62269 118.0225
v 153.4645 40.35363 -16.42001
v -107.6348 -9.918213E-05 -277.5193
v -277.5154 -9.918213E-05 -107.6387
v -107.6348 39.83112 -277.5193
v -277.5154 50.46081 -107.6387
v -107.6348 50.46081 -277.5193
v -277.5154 -9.918213E-05 -107.6387
v -155.6848 -9.918213E-05 14.19191
v -277.5154 50.46081 -107.6387
v -155.6848 50.46081 14.19189
v 118.0263 -9.918213E-05 287.903
v 287.9069 -9.918213E-05 118.0225
v 118.0263 50.46081 287.903
v 287.9069 40.62269 118.0225
v 287.9069 56.69991 118.0225
v 153.4645 56.6999 -16.42001
v 322.5356 53.25167 129.1273
v -107.6348 56.69991 -277.5193
v -277.5154 56.69991 -107.6387
v -326.5523 53.25167 -98.59354
v -121.4167 54.93969 -297.7021
v -112.9977 53.25167 -306.4062
v -277.5154 56.69991 -107.6387
v -155.6848 56.6999 14.19189
v -326.5523 53.25167 -98.59354
v 118.0263 56.69991 287.903
v 287.9069 56.69991 118.0225
v 322.5356 53.25167 129.1273
v 108.981 53.25167 336.94
v -121.4167 54.93969 -297.7021
v -143.1859 75.53671 -243.1767
v -112.9977 53.25167 -306.4062
v 108.981 53.25167 336.94
v 322.5356 53.25167 129.1273
v 253.5642 75.53671 153.5736
v 153.5773 75.53671 253.5604
v -143.1859 75.53671 -243.1767
v -154.8776 75.53671 -231.4849
v -193.209 103.6761 -193.1536
v -193.209 103.6761 -193.1536
v -193.1496 103.6761 -193.2129
v -143.1859 75.53671 -243.1767
v -193.1496 103.6761 -193.2129
v -193.209 103.6761 -193.1536
v -199.2827 100.2555 -187.0799
v 153.5773 75.53671 253.5604
v 253.5642 75.53671 153.5736
v 203.6005 103.6761 203.5373
v 203.6005 103.6761 203.5373
v 203.5411 103.6761 203.5966
v 153.5773 75.53671 253.5604
v 203.6005 103.6761 203.5373
v -193.1496 103.6761 -193.2129
v 203.5411 103.6761 203.5966
v 14.19586 -9.918213E-05 -155.6886
v 14.19586 40.07493 -155.6886
v -16.41617 -9.918213E-05 153.4605
v 118.0263 -9.918213E-05 287.903
v -16.41617 50.46081 153.4605
v 118.0263 50.46081 287.903
v 14.19586 56.69991 -155.6887
v -112.9977 53.25167 -306.4062
v -16.41617 56.6999 153.4605
v 118.0263 56.69991 287.903
v 108.981 53.25167 336.94
v 322.5356 53.25167 129.1273
v -112.9977 53.25167 -306.4062
v 253.5642 75.53671 153.5736
v -143.1859 75.53671 -243.1767
v 203.6005 103.6761 203.5373
v -193.1496 103.6761 -193.2129
v -326.5523 53.25167 -98.59354
v 108.981 53.25167 336.94
v -243.1727 75.53671 -143.1898
v 153.5773 75.53671 253.5604
v -193.1496 103.6761 -193.2129
v 203.5411 103.6761 203.5966
v -107.6348 -9.918213E-05 -277.5193
v -107.6348 39.83112 -277.5193
v -107.6348 56.69991 -277.5193
v 153.4645 50.46081 -16.42001
v 153.4645 56.6999 -16.42001
v 287.9069 50.46081 118.0225
v 287.9069 56.69991 118.0225
v -277.5154 50.46081 -107.6387
v -277.5154 56.69991 -107.6387
v -107.6348 50.46081 -277.5193
v -107.6348 56.69991 -277.5193
v -155.6848 56.6999 14.19189
v -277.5154 56.69991 -107.6387
v 287.9069 50.46081 118.0225
v 287.9069 56.69991 118.0225
v 118.0263 56.69991 287.903
v 14.19586 50.46081 -155.6886
v 14.19586 56.69991 -155.6887
v 118.0263 56.69991 287.903
v -16.41617 56.6999 153.4605
v -107.6348 50.46081 -277.5193
v -107.6348 56.69991 -277.5193
v -121.4167 54.93969 -297.7021
v -326.5523 53.25167 -98.59354
v -243.1727 75.53671 -143.1898
v -154.8776 75.53671 -231.4849
v -154.8776 75.53671 -231.4849
v -121.4167 54.93969 -297.7021
v -199.2827 100.2555 -187.0799
v -154.8776 75.53671 -231.4849
v -243.1727 75.53671 -143.1898
v -199.2827 100.2555 -187.0799
v -243.1727 75.53671 -143.1898
v 14.19586 50.46081 -155.6886
v -107.6348 39.83112 -277.5193
v 14.19586 40.07493 -155.6886
v 153.4645 50.46081 -16.42001
v 153.4645 40.35363 -16.42001
v 287.9069 50.46081 118.0225
v 287.9069 40.62269 118.0225
v -120.4167 49.32919 -297.5349
v -112.8434 49.32919 -306.5828
v -121.4167 54.93969 -297.7021
v -112.9977 53.25167 -306.4062
v 108.9369 49.32919 336.3933
v 322.5405 49.32919 129.4436
v 322.5356 53.25167 129.1273
v 108.981 53.25167 336.94
v 322.5405 49.32919 129.4436
v -112.8434 49.32919 -306.5828
v 322.5356 53.25167 129.1273
v -112.9977 53.25167 -306.4062
v 108.9369 49.32919 336.3933
v -326.1991 49.32919 -98.62041
v 108.981 53.25167 336.94
v -326.5523 53.25167 -98.59354
v -120.4167 49.32919 -297.5349
v -326.1991 49.32919 -98.62041
v -121.4167 54.93969 -297.7021
v -326.5523 53.25167 -98.59354

vn 0.7071069 1.062418E-06 -0.7071067
vn 0.7071071 2.620576E-07 -0.7071066
vn 0.707107 4.663524E-07 -0.7071065
vn 0.7071069 -1.791883E-07 -0.7071066
vn -0.7071066 0 -0.7071069
vn -0.7071066 0 -0.707107
vn -0.7071066 0 -0.707107
vn -0.7071066 0 -0.707107
vn -0.7071066 0 -0.707107
vn -0.7071068 0 0.7071066
vn -0.7071069 1.457929E-07 0.7071068
vn -0.7071068 9.514631E-08 0.7071067
vn -0.7071069 1.24099E-07 0.7071066
vn 0.7071066 0 0.7071069
vn 0.7071067 4.73832E-07 0.7071069
vn 0.7071068 0 0.7071068
vn 0.7071068 8.552834E-07 0.7071068
vn -0.1435329 -0.9791817 0.1435329
vn -0.1435323 -0.9791818 0.1435322
vn -0.1435327 -0.9791818 0.1435326
vn 0.06780881 -0.995342 0.06852904
vn 0.08558989 -0.9926474 0.08558992
vn 0.07060274 -0.9952381 0.06720307
vn 0.05085221 -0.9973381 0.05225727
vn -0.0639918 -0.9894479 0.129991
vn 0.05916018 -0.9964939 -0.0591603
vn 0.05916003 -0.996494 -0.05916007
vn 0.05915996 -0.9964939 -0.05915996
vn -0.0790926 -0.9936283 -0.08029503
vn -0.07497355 -0.9943631 -0.07497358
vn -0.0790926 -0.9936283 -0.08029503
vn -0.08280857 -0.9929257 -0.08509661
vn -0.3990251 0.7937093 -0.4591345
vn -0.3990251 0.7937093 -0.4591345
vn -0.2773351 0.8569424 -0.4344363
vn 0.4216661 0.7985609 0.4295323
vn 0.4107282 0.8081792 0.4220767
vn 0.4216661 0.7985609 0.4295323
vn 0.4459335 0.7760712 0.4459337
vn -0.7071068 -3.935415E-07 -0.7071068
vn -0.7071067 -3.419678E-07 -0.7071069
vn -0.7071067 -3.419678E-07 -0.7071069
vn -0.7070159 0.0003228303 -0.7071976
vn -0.7070159 0.0003228303 -0.7071976
vn -0.7070159 0.0003228303 -0.7071976
vn 0.7070408 0.0002459527 0.7071727
vn 0.7070159 0.0003228261 0.7071977
vn 0.7070408 0.0002459527 0.7071727
vn 0.7071066 0 0.707107
vn 0.7071066 0 0.707107
vn 0.7071066 0 0.707107
vn 0.7072884 -0.000647258 0.7069248
vn 0.7072884 -0.000647258 0.7069248
vn 0.7072884 -0.000647258 0.7069248
vn 0 0.9999999 0
vn 0 0.9999999 0
vn 0 0.9999999 0
vn 0.7071069 -2.218712E-07 -0.7071067
vn 0.7071069 -1.839327E-07 -0.7071066
vn -0.7071069 7.21065E-08 0.7071066
vn -0.7071069 0 0.7071067
vn -0.7071069 0 0.7071066
vn -0.7071068 0 0.7071067
vn -0.1435326 -0.9791817 0.1435326
vn -0.1435328 -0.9791817 0.1435328
vn 0.05915997 -0.9964939 -0.05915993
vn 0.05916024 -0.9964939 -0.05916012
vn 0.05916 -0.996494 -0.05915995
vn 0.226036 0.9475313 -0.2260359
vn 0.2260361 0.9475312 -0.226036
vn 0.2382864 0.941509 -0.2382863
vn 0.2505119 0.9351404 -0.2505119
vn 0.2616162 0.9290394 -0.2616161
vn 0.2616162 0.9290394 -0.2616161
vn -0.169083 0.9709901 0.169083
vn -0.169083 0.9709901 0.169083
vn -0.1953133 0.961096 0.1953132
vn -0.2269054 0.9471214 0.226881
vn -0.2615016 0.9291148 0.2614624
vn -0.2616552 0.9290394 0.2615768
vn 0.7071069 -1.350281E-07 -0.7071066
vn 0.7071068 0 -0.7071067
vn -0.1435326 -0.9791818 0.1435326
vn 0.7071069 -5.831872E-07 -0.7071066
vn 0.7071069 -2.278539E-06 -0.7071066
vn 0.707107 -3.458704E-06 -0.7071065
vn 0.7071069 -6.917399E-06 -0.7071066
vn -0.7071066 0 -0.7071069
vn -0.7071066 0 -0.7071069
vn -0.7071066 0 -0.7071069
vn -0.7071066 0 -0.7071069
vn -0.7071069 0 0.7071066
vn -0.7071068 0 0.7071067
vn 0.7071068 -2.684442E-06 0.7071068
vn 0.7071068 -3.458699E-06 0.7071068
vn 0.7071066 0 0.7071069
vn 0.7071068 -1.17915E-06 -0.7071067
vn 0.7071068 -1.127793E-06 -0.7071068
vn -0.7071069 0 0.7071067
vn -0.7071069 0 0.7071066
vn 0.7071068 0 -0.7071067
vn 0.7071068 -8.646747E-07 -0.7071067
vn -0.449393 0.7678972 -0.4564863
vn -0.449393 0.7678972 -0.4564863
vn -0.4552819 0.7620977 -0.4603537
vn -0.4698837 0.7472741 -0.4698837
vn -0.4698834 0.7472744 -0.4698836
vn -0.4698834 0.7472744 -0.4698836
vn -0.7071066 -2.857888E-07 -0.7071069
vn -0.7071066 2.372921E-07 -0.707107
vn -0.7071066 2.372921E-07 -0.707107
vn -0.7071066 2.372921E-07 -0.707107
vn 0.7070442 0.0002353162 0.7071692
vn 0.7071068 0 -0.7071067
vn 0.7071068 0 -0.7071067
vn 0.7071068 0 -0.7071067
vn 0.7071069 0 -0.7071066
vn 0.707107 0 -0.7071065
vn 0.7071071 0 -0.7071065
vn 0.7071071 0 -0.7071065
vn 0.7576888 0.1539461 0.6341989
vn 0.744211 0.08946212 0.6619263
vn 0.744211 0.08946212 0.6619263
vn 0.718487 -0.003041979 0.6955337
vn 0.6964104 -0.02455325 0.7172236
vn 0.6946336 0.05866668 0.7169675
vn 0.6964104 -0.02455325 0.7172236
vn 0.6933942 -0.1071111 0.712553
vn 0.7065168 -0.05601658 -0.7054758
vn 0.7073664 0.001756625 -0.7068449
vn 0.7073664 0.001756625 -0.7068449
vn 0.7058526 0.05953496 -0.7058524
vn 0.7041227 0.09024242 -0.7043207
vn 0.7048299 0.07931034 -0.7049288
vn 0.7048299 0.07931034 -0.7049288
vn 0.7054527 0.06836111 -0.7054524
vn -0.6877843 -0.1437899 -0.7115315
vn -0.6913969 -0.108659 -0.7142574
vn -0.6913969 -0.108659 -0.7142574
vn -0.6950822 -0.0576882 -0.7166119

vt 0.002996743 0.0004995167
vt 2.040326 0.0004994869
vt 0.002996743 0.7162351
vt 2.040326 0.7114946
vt 0.00149855 0.0004994869
vt 2.998499 0.0004994869
vt 0.001498621 0.7022884
vt 2.998499 0.8895735
vt 0.00149864 0.8895735
vt 0.002996564 0.0004995167
vt 1.849208 0.0004994869
vt 0.002996564 0.8895736
vt 1.849208 0.8895735
vt 0.00149855 0.0004994869
vt 2.998499 0.0004994869
vt 0.00149864 0.8895735
vt 2.998499 0.716235
vt 19.0727 0.0005002916
vt 12.90518 0.0005015731
vt 19.99001 0.7711794
vt 8.722338 0.0004990101
vt 1.277662 0.0005035102
vt 0.004994869 0.770273
vt 9.304156 0.7702677
vt 9.995005 0.7702674
vt 19.0727 0.0004991293
vt 13.48374 0.0005011261
vt 19.99001 0.7746147
vt 8.722338 0.0004997551
vt 1.277661 0.0005029142
vt 0.004994869 0.7787392
vt 9.995005 0.778735
vt 0.3280855 0.07592314
vt 0.8427415 0.49975
vt 0.00149864 0.0002517998
vt 1.487256 0.5044852
vt -0.4872559 0.495515
vt -0.04596716 0.2569587
vt 0.8908794 0.2763707
vt 0.186263 -0.01707901
vt 0.2523302 -0.01707901
vt 0.4689114 0.1539355
vt 0.3809887 0.1606281
vt 0.3806918 0.1606281
vt 0.09834027 0.01811594
vt 0.8223385 1.002756
vt 2.483972 1.002756
vt 2.281981 0.9505371
vt 0.1838059 -0.01997758
vt 0.7538058 -0.01997758
vt 0.4689542 0.151037
vt 0.3810315 0.1582125
vt 0.3807347 0.1582125
vt 0.09588312 0.01570046
vt 0.3965513 0.4998698
vt 0.583053 0.4998698
vt 0.3965513 0.5001302
vt 4.150791 0.0004994869
vt 4.150791 0.7065841
vt 3.959672 0.0004994869
vt 5.997003 0.0004995167
vt 3.959672 0.8895735
vt 5.997003 0.8895736
vt 6.516255 0.0005026758
vt 0.009989738 0.7711833
vt 7.09482 0.0005034804
vt 0.9272951 0.000505805
vt 0.009989738 0.774622
vt 0.0029971 0.001002371
vt 5.997003 0.000998795
vt 0.269874 1.12295
vt 5.730127 1.122947
vt 0.2698744 1.999001
vt 5.730127 1.998998
vt 0.002996922 0.001001358
vt 5.997003 0.0009993315
vt 0.2698739 1.122365
vt 5.730127 1.122363
vt 0.269874 1.999001
vt 5.730127 1.997959
vt 5.997003 0.0004995167
vt 5.997003 0.7022884
vt 0.9272969 0.0005034506
vt 2.040326 0.8895736
vt 2.040326 0.9995005
vt 0.002996743 0.8895736
vt 0.002996743 0.9995005
vt 2.998499 0.8895735
vt 2.998499 0.9995005
vt 0.00149864 0.8895735
vt 0.00149855 0.9995005
vt 1.849208 0.9995004
vt 0.002996564 0.9995005
vt 2.998499 0.8895735
vt 2.998499 0.9995005
vt 0.00149855 0.9995005
vt 4.150791 0.8895735
vt 4.150791 0.9995005
vt 5.997003 0.9995005
vt 3.959672 0.9995004
vt 5.997003 0.8895735
vt 5.997003 0.9995005
vt -1.157376 0.4947863
vt 2.157376 0.5052145
vt 1.102713 0.8756466
vt 0.996452 0.4997499
vt -0.3449277 0.844407
vt -1.157376 0.4947863
vt 0.5032347 0.1331467
vt 0.2523302 -0.01707901
vt 0.751263 -0.01707901
vt 0.5032347 0.1331467
vt 0.8223385 0.57319
vt 4.150791 0.8895735
vt 5.997003 0.7022884
vt 4.150791 0.7065841
vt 2.040326 0.8895736
vt 2.040326 0.7114946
vt 0.002996743 0.8895736
vt 0.002996743 0.7162351
vt 4.160828 0.7667381
vt 4.850626 0.7667381
vt 4.13856 0.9831108
vt 4.836896 0.9831108
vt -12.62964 0.7667381
vt 4.823956 0.7667381
vt 4.836882 0.9831108
vt -12.6505 0.9831108
vt -22.11438 0.7667381
vt 14.05047 0.7667381
vt -22.10105 0.9831108
vt 14.04955 0.9831108
vt -21.83823 0.7667381
vt 14.2743 0.7667381
vt -21.86275 0.9831108
vt 14.28785 0.9831108
vt -11.9669 0.7667381
vt 4.828634 0.7667381
vt -11.94463 0.9831108
vt 4.844409 0.9831108

usemtl sn13_12_sn13h04.JPG
usemap sn13_12_sn13h04.JPG
f 3/3/3 1/1/1 2/2/2
f 2/2/2 4/4/4 3/3/3
f 7/7/7 5/5/5 6/6/6
f 6/6/6 8/8/8 9/9/9
f 12/12/12 10/10/10 11/11/11
f 11/11/11 13/13/13 12/12/12
f 16/16/16 14/14/14 15/15/15
f 15/15/15 17/17/17 16/16/16
f 4/4/4 2/2/2 58/58/58
f 58/58/58 59/59/59 4/4/4
f 62/62/62 60/60/60 61/61/61
f 61/61/61 63/63/63 62/62/62
f 13/13/13 11/11/11 60/60/60
f 60/60/60 62/62/62 13/13/13
f 59/59/59 58/58/58 81/81/81
f 81/81/81 82/82/82 59/59/59
f 86/86/86 84/84/84 85/85/85
f 85/85/85 87/87/87 86/86/86
f 90/90/90 88/88/88 89/89/89
f 89/89/89 91/91/91 90/90/90
f 12/12/12 13/13/13 92/92/92
f 92/92/92 93/93/93 12/12/12
f 16/16/16 94/94/94 95/95/95
f 95/95/95 96/96/96 16/16/16
f 84/84/84 97/97/97 98/98/98
f 98/98/98 85/85/85 84/84/84
f 62/62/62 63/63/63 99/99/99
f 99/99/99 100/100/100 62/62/62
f 13/13/13 62/62/62 100/100/100
f 100/100/100 92/92/92 13/13/13
f 97/97/97 101/101/101 102/102/102
f 102/102/102 98/98/98 97/97/97
f 115/115/115 101/101/101 114/114/114
f 9/9/9 7/7/7 6/6/6
f 114/114/114 116/116/116 115/115/115
f 116/116/116 114/114/114 117/117/117
f 117/117/117 118/118/118 116/116/116
f 118/118/118 117/117/117 119/119/119
f 119/119/119 120/120/120 118/118/118
f 17/17/17 94/94/94 16/16/16

usemtl sn13_15_sn13h03.jpg
usemap sn13_15_sn13h03.jpg
f 20/20/20 18/18/18 19/19/19
f 23/23/23 21/21/21 22/22/22
f 21/21/21 24/24/24 25/25/25
f 28/28/28 26/26/26 27/27/27
f 31/31/31 29/29/29 30/30/30
f 29/29/29 31/31/31 32/32/32
f 20/20/20 19/19/19 64/64/64
f 64/64/64 65/65/65 20/20/20
f 68/68/68 66/66/66 67/67/67
f 28/28/28 27/27/27 66/66/66
f 66/66/66 68/68/68 28/28/28
f 65/65/65 64/64/64 83/83/83
f 21/21/21 23/23/23 24/24/24

usemtl sn13_14_sn13h02.JPG
usemap sn13_14_sn13h02.JPG
f 35/35/35 33/33/33 34/34/34
f 38/38/38 36/36/36 37/37/37
f 36/36/36 38/38/38 39/39/39
f 48/48/48 46/46/46 47/47/47
f 57/57/57 55/55/55 56/56/56
f 71/71/71 69/69/69 70/70/70
f 70/70/70 72/72/72 71/71/71
f 73/73/73 71/71/71 72/72/72
f 72/72/72 74/74/74 73/73/73
f 77/77/77 75/75/75 76/76/76
f 76/76/76 78/78/78 77/77/77
f 79/79/79 77/77/77 78/78/78
f 78/78/78 80/80/80 79/79/79
f 105/105/105 103/103/103 104/104/104
f 33/33/33 106/106/106 34/34/34
f 108/108/108 105/105/105 107/107/107
f 113/113/113 46/46/46 48/48/48

usemtl sn13_16_deco4.JPG
usemap sn13_16_deco4.JPG
f 42/42/42 40/40/40 41/41/41
f 51/51/51 49/49/49 50/50/50
f 42/42/42 41/41/41 109/109/109
f 112/112/112 110/110/110 111/111/111

usemtl sn13_07_sn13h08.JPG
usemap sn13_07_sn13h08.JPG
f 45/45/45 43/43/43 44/44/44
f 54/54/54 52/52/52 53/53/53

usemtl sn13_15_sn13h03.jpg
usemap sn13_15_sn13h03.jpg
f 123/123/123 121/121/121 122/122/122
f 122/122/122 124/124/124 123/123/123
f 127/127/127 125/125/125 126/126/126
f 125/125/125 127/127/127 128/128/128
f 131/131/131 129/129/129 130/130/130
f 130/130/130 132/132/132 131/131/131
f 135/135/135 133/133/133 134/134/134
f 134/134/134 136/136/136 135/135/135
f 139/139/139 137/137/137 138/138/138
f 138/138/138 140/140/140 139/139/139
