mtllib ./ian1612.mtl
g ian1612
v -52.81888 19.09488 116.348
v -23.09508 31.55037 110.4765
v -63.78205 19.614 -112.8072
v -33.63255 31.56039 -109.7805
v 3.435806 47.54027 108.1588
v -6.999348 47.55021 -109.9596
v 3.435806 47.54027 108.1588
v 7.370176 47.46904 107.9706
v -6.999348 47.55021 -109.9596
v -3.064978 47.47898 -110.1478
v 7.370176 47.46904 107.9706
v 33.58241 32.1408 107.7649
v -3.064978 47.47898 -110.1478
v 23.04495 32.15082 -112.492
v 63.68379 18.75742 110.7744
v 52.72062 18.76785 -118.3808
v 63.68379 18.75742 110.7744
v 60.15523 17.37974 110.9433
v 52.72062 18.76785 -118.3808
v 49.19205 17.39017 -118.212
v 60.15523 17.37974 110.9433
v 31.92192 30.5663 107.8443
v 49.19205 17.39017 -118.212
v 21.38446 30.57633 -112.4125
v 5.096306 45.67057 108.0795
v -5.338848 45.6805 -110.0389
v 5.096306 45.67057 108.0795
v -21.43458 30.17268 110.3971
v -5.338848 45.6805 -110.0389
v -31.97204 30.18271 -109.8598
v -21.43458 30.17268 110.3971
v -48.66619 17.82925 116.1494
v -31.97204 30.18271 -109.8598
v -59.62934 17.83968 -113.0058
v -48.66619 17.82925 116.1494
v -52.81888 19.09488 116.348
v -59.62934 17.83968 -113.0058
v -63.78205 19.614 -112.8072
v -48.66619 17.82925 116.1494
v -23.09508 31.55037 110.4765
v -52.81888 19.09488 116.348
v -21.43458 30.17268 110.3971
v 3.435806 47.54027 108.1588
v 5.096306 45.67057 108.0795
v 7.370176 47.46904 107.9706
v 31.92192 30.5663 107.8443
v 33.58241 32.1408 107.7649
v 60.15523 17.37974 110.9433
v 63.68379 18.75742 110.7744
v -59.62934 17.83968 -113.0058
v -63.78205 19.614 -112.8072
v -33.63255 31.56039 -109.7805
v -31.97204 30.18271 -109.8598
v -6.999348 47.55021 -109.9596
v -5.338848 45.6805 -110.0389
v -3.064978 47.47898 -110.1478
v 21.38446 30.57633 -112.4125
v 23.04495 32.15082 -112.492
v 52.72062 18.76785 -118.3808
v 49.19205 17.39017 -118.212
v -51.85826 -51.61513 -103.6847
v -51.48951 15.27725 -96.71808
v -51.8231 15.27756 -103.6908
v -51.48951 15.27725 -96.71808
v -54.52709 20.2515 -96.57288
v -55.1399 19.84044 -103.5325
v -51.8231 15.27756 -103.6908
v 46.46751 19.07135 -101.4047
v 41.91278 15.23336 -101.1866
v 41.57919 15.23367 -108.1594
v 45.7636 19.35784 -108.3598
v 41.91278 15.23336 -101.1866
v 41.55656 -51.65195 -108.1538
v 41.57919 15.23367 -108.1594
v -51.8231 15.27756 -103.6908
v -55.1399 19.84044 -103.5325
v -31.35466 30.37928 -104.6711
v 19.72692 31.56015 -107.115
v 45.7636 19.35784 -108.3598
v 41.57919 15.23367 -108.1594
v 41.55656 -51.65195 -108.1538
v -51.85826 -51.61513 -103.6847
v -4.914931 45.77872 -105.9371
v 51.22943 15.22448 93.55333
v 51.54042 -51.66147 100.5317
v -41.8744 -51.62464 105.0007
v -41.83927 15.26805 104.9946
v -42.17283 15.26838 98.02189
v -41.83927 15.26805 104.9946
v -45.15603 19.83093 105.1531
v -45.21045 20.24263 98.16697
v -42.17283 15.26838 98.02189
v 55.74746 19.34833 100.3256
v 51.56302 15.22416 100.5261
v 51.22943 15.22448 93.55333
v 55.78416 19.06249 93.3353
v 51.56302 15.22416 100.5261
v -41.83927 15.26805 104.9946
v -21.3708 30.36977 104.0144
v -45.15603 19.83093 105.1531
v 29.71078 31.55064 101.5704
v 51.56302 15.22416 100.5261
v 55.74746 19.34833 100.3256
v 51.54042 -51.66147 100.5317
v -41.8744 -51.62464 105.0007
v 5.068929 45.76921 102.7484
v -45.21045 20.24263 98.16697
v -54.52709 20.2515 -96.57288
v -51.48951 15.27725 -96.71808
v -42.17283 15.26838 98.02189
v 46.46751 19.07135 -101.4047
v 55.78416 19.06249 93.3353
v 51.22943 15.22448 93.55333
v 41.91278 15.23336 -101.1866

vn 0.001983993 0.9235364 0.3835057
vn 0.0006388314 0.9064652 0.4222801
vn 0.0009852797 0.9261914 0.3770525
vn -8.85427E-05 0.8843849 0.4667584
vn -0.0001030751 0.857165 0.5150419
vn -0.000103062 0.857165 0.5150421
vn 5.046965E-05 0.9998365 -0.0180804
vn 5.046965E-05 0.9998365 -0.0180804
vn 5.046965E-05 0.9998365 -0.0180804
vn 5.046965E-05 0.9998366 -0.0180804
vn 0.0001785941 0.8630687 -0.5050866
vn 0.0001702122 0.8817763 -0.471668
vn 0.000178583 0.8630686 -0.5050866
vn 0.0001619663 0.8984617 -0.439052
vn 0.0001541171 0.9128581 -0.4082769
vn 0.0001541097 0.9128581 -0.4082769
vn 5.785376E-05 -0.931658 -0.3633365
vn 5.785003E-05 -0.931658 -0.3633366
vn 5.785003E-05 -0.931658 -0.3633366
vn 5.787797E-05 -0.931658 -0.3633367
vn -0.0001584832 -0.9050055 0.4254
vn -0.000164004 -0.8944828 0.4471023
vn -0.000158485 -0.9050055 0.4253999
vn -0.0001695715 -0.883108 0.4691696
vn -0.0001750272 -0.8712179 0.4908964
vn -0.0001750346 -0.871218 0.4908965
vn 9.952113E-05 -0.8641382 -0.5032547
vn 9.948947E-05 -0.8641382 -0.5032547
vn 9.948947E-05 -0.8641382 -0.5032547
vn 9.949133E-05 -0.8641382 -0.5032547
vn 7.152744E-05 -0.9121785 -0.4097933
vn 7.158704E-05 -0.9121783 -0.4097935
vn 7.158704E-05 -0.9121783 -0.4097935
vn 7.161498E-05 -0.9121783 -0.4097938
vn -0.0001238491 -0.9566534 0.291229
vn -0.001178683 -0.9391983 0.3433731
vn -0.001178683 -0.9391983 0.3433731
vn -0.002189463 -0.9197385 0.3925256
vn 0.9821073 0.1715823 -0.07762057
vn 0.9896942 0.1293301 -0.06147748
vn 0.9776112 0.2013814 -0.06100845
vn 0.9973356 0.05504036 -0.04787928
vn 0.999451 0.02387816 -0.0229761
vn 0.9996882 0.02497553 -0.0001770854
vn 0.9993926 0.02635173 0.02280784
vn 0.9973734 0.05332454 0.0490216
vn 0.991567 0.1112681 0.06644112
vn 0.9855375 0.1472242 0.0839107
vn 0.9823246 0.1743131 0.06821638
vn -0.9835993 0.1584701 -0.08613908
vn -0.981274 0.1770498 -0.07585984
vn -0.9900577 0.1225722 -0.0690071
vn -0.9972153 0.05588634 -0.04938126
vn -0.9993885 0.02484407 -0.0246141
vn -0.9996617 0.02600347 -0.0007461309
vn -0.9993516 0.0274553 0.02329826
vn -0.9973057 0.05425829 0.04937303
vn -0.9914802 0.1120065 0.06649709
vn -0.982217 0.1750095 0.06798178
vn -0.9854647 0.1478044 0.08374578
vn -0.0002758577 0.0005293638 1
vn -0.0002758689 0.000529334 0.9999999
vn -0.0002758391 0.0005293623 1
vn 0.03273372 -0.5546115 0.8314655
vn 0.06450545 -0.5205083 0.8514166
vn 0.03273372 -0.5546115 0.8314655
vn -0.0002494007 -0.5884176 0.8085572
vn -0.03286166 -0.7391838 -0.6727016
vn 0.0001429785 -0.7650729 -0.6439437
vn -0.03286166 -0.7391838 -0.6727016
vn -0.06616307 -0.7110487 -0.7000231
vn 0.0002760068 -0.0003418959 -1
vn 0.0002759323 -0.000341625 -1
vn 0.0002753027 -0.0003418211 -0.9999999
vn -1 -6.647447E-05 -0.0002760887
vn -1 -7.463345E-05 -0.0002827048
vn -1 -6.741472E-05 -0.0002753735
vn -1 -6.856378E-05 -0.0002750754
vn -1 -6.324946E-05 -0.0002784729
vn -1 -6.703914E-05 -0.0002754331
vn -1 -6.657338E-05 -0.0002760887
vn -1 -6.568E-05 -0.0002767444
vn -1 -6.991619E-05 -0.0002747178
vn 0.0002759323 -0.0003416183 -1
vn 0.0002758428 -0.0003413651 -1
vn -0.0002759323 0.0005293263 0.9999999
vn -0.0002796538 0.0005289063 0.9999999
vn -0.0002760105 0.0005292874 0.9999999
vn -0.03324294 -0.5546126 0.8314446
vn -0.06714766 -0.5870969 0.8067271
vn -0.03324294 -0.5546126 0.8314446
vn -0.0002625771 -0.5216072 0.8531859
vn 0.03316395 -0.7391848 -0.6726857
vn 0.000160411 -0.7126195 -0.7015507
vn 0.03316395 -0.7391848 -0.6726857
vn 0.06556194 -0.7634342 -0.6425495
vn 0.0002752952 -0.0003414223 -1
vn 1 6.630232E-05 0.0002759695
vn 1 6.655527E-05 0.0002747774
vn 1 5.694576E-05 0.0002697706
vn 1 6.850793E-05 0.0002750754
vn 1 6.702739E-05 0.0002754331
vn 1 6.303291E-05 0.0002785921
vn 1 6.659266E-05 0.0002760887
vn 1 6.569952E-05 0.0002766848
vn 1 6.991617E-05 0.0002747178
vn -0.0002591647 -0.5216055 0.8531868
vn -0.0002592355 -0.5216037 0.8531879
vn -0.0002591647 -0.5216055 0.8531868
vn -0.0002590977 -0.5216072 0.8531858
vn 0.0001429748 -0.7650726 -0.6439441
vn 0.0001429711 -0.7650723 -0.6439445
vn 0.0001429748 -0.7650726 -0.6439441
vn 0.0001429152 -0.765073 -0.6439438

vt 2.998502 0.0004994571
vt 2.940452 0.5296535
vt 0.00149855 0.0005002916
vt 0.05982614 0.5296543
vt 2.926786 0.9994999
vt 0.07412776 0.9995005
vt 1.000115 0.6523311
vt 1.000115 0.2759616
vt 0.4950982 0.6523312
vt 0.4950982 0.2759616
vt 0.07321393 0.9995005
vt 0.05954826 0.5332116
vt 2.925873 0.9994999
vt 2.940174 0.5332109
vt 0.00149855 0.0005001724
vt 2.998502 0.0004994571
vt 19.99001 0.9994889
vt 19.99001 0.7593663
vt 0.009989738 0.9995002
vt 0.009989738 0.7593764
vt 9.995005 0.7438838
vt 9.801506 0.01847377
vt 0.004994869 0.7438848
vt 0.1994196 0.01847479
vt 9.755954 0.7512838
vt 0.2470914 0.7512848
vt 0.2440459 0.754877
vt 0.1984942 0.02053538
vt 9.752907 0.7548764
vt 9.800579 0.0205346
vt 0.1984942 0.02053538
vt 0.004995763 0.7606962
vt 9.800579 0.0205346
vt 9.995004 0.7606953
vt 0.009990335 0.7591531
vt 0.009990335 0.999501
vt 19.99001 0.7591473
vt 19.99001 0.9994943
vt 0.4938953 0.8908294
vt 0.4391169 0.9488676
vt 0.4997584 0.9132748
vt 0.4259306 0.9365844
vt 0.3813322 0.999491
vt 0.3756966 0.9810377
vt 0.3696627 0.9991398
vt 0.3180805 0.9321777
vt 0.3084464 0.9458095
vt 0.2605601 0.8929607
vt 0.2508329 0.9137689
vt 0.4947544 0.8922247
vt 0.4989938 0.910659
vt 0.4397974 0.9464006
vt 0.4351832 0.9319561
vt 0.3806563 0.9977122
vt 0.3760421 0.9781088
vt 0.3697234 0.9969653
vt 0.3173701 0.9333066
vt 0.3127559 0.9498148
vt 0.2509851 0.9149985
vt 0.258014 0.8922247
vt 0.0005208552 0.498226
vt 0.03387824 0.9994957
vt 0.0004995167 0.9995005
vt -0.210544 0.73264
vt -0.2816988 0.73264
vt -0.2739867 0.8202577
vt -0.2028319 0.8202577
vt 0.369831 0.73264
vt 0.469179 0.73264
vt 0.4768912 0.8202577
vt 0.3775432 0.8202577
vt 0.9661219 0.4994957
vt 0.9994793 0.0006415844
vt 0.9995005 0.4995005
vt 0.7325804 0.3454965
vt 0.7490819 0.3690066
vt 0.6307465 0.423308
vt 0.3766077 0.4293924
vt 0.2470714 0.3665201
vt 0.2678896 0.3452703
vt 0.2680032 0.0006428957
vt 0.7327564 0.0008326173
vt 0.4992044 0.5026534
vt 0.03389952 0.4993632
vt 0.0004994869 0.0004995465
vt 0.9995005 0.4980841
vt 0.9994792 0.9993585
vt 0.9661005 0.9993632
vt -0.210544 0.73264
vt -0.2816988 0.73264
vt -0.2739867 0.8202577
vt -0.2028319 0.8202577
vt 0.369831 0.73264
vt 0.469179 0.73264
vt 0.4768912 0.8202577
vt 0.3775432 0.8202577
vt 0.0005208254 0.4993585
vt 0.2733957 0.3379244
vt 0.3726558 0.4137692
vt 0.2573113 0.3608404
vt 0.6203715 0.4196998
vt 0.7263418 0.337704
vt 0.7466339 0.3584166
vt 0.7262311 0.001786705
vt 0.2732243 0.001971684
vt 0.5008733 0.4911093
vt 14.9925 0.4199445
vt 0.007492751 0.4217226
vt 0.007503927 0.002278358
vt 14.99251 0.0004995465
vt 14.99251 0.01557195
vt 14.99231 0.4239514
vt 0.00749141 0.4239522
vt 0.007684976 0.01557267

usemtl sn13_14_sn13h02.JPG
usemap sn13_14_sn13h02.JPG
f 3/3/3 1/1/1 2/2/2
f 2/2/2 4/4/4 3/3/3
f 4/4/4 2/2/2 5/5/5
f 5/5/5 6/6/6 4/4/4
f 13/13/13 11/11/11 12/12/12
f 12/12/12 14/14/14 13/13/13
f 14/14/14 12/12/12 15/15/15
f 15/15/15 16/16/16 14/14/14
f 41/41/41 39/39/39 40/40/40
f 39/39/39 42/42/42 40/40/40
f 40/40/40 42/42/42 43/43/43
f 42/42/42 44/44/44 43/43/43
f 43/43/43 44/44/44 45/45/45
f 44/44/44 46/46/46 45/45/45
f 49/49/49 47/47/47 48/48/48
f 48/48/48 47/47/47 46/46/46
f 45/45/45 46/46/46 47/47/47
f 52/52/52 50/50/50 51/51/51
f 52/52/52 53/53/53 50/50/50
f 54/54/54 53/53/53 52/52/52
f 54/54/54 55/55/55 53/53/53
f 56/56/56 55/55/55 54/54/54
f 56/56/56 57/57/57 55/55/55
f 60/60/60 58/58/58 59/59/59
f 57/57/57 58/58/58 60/60/60
f 58/58/58 57/57/57 56/56/56

usemtl sn13_18_sn13h01.jpg
usemap sn13_18_sn13h01.jpg
f 9/9/9 7/7/7 8/8/8
f 8/8/8 10/10/10 9/9/9
f 66/66/66 64/64/64 65/65/65
f 67/67/67 64/64/64 66/66/66
f 70/70/70 68/68/68 69/69/69
f 71/71/71 68/68/68 70/70/70
f 91/91/91 89/89/89 90/90/90
f 92/92/92 89/89/89 91/91/91
f 95/95/95 93/93/93 94/94/94
f 96/96/96 93/93/93 95/95/95

usemtl sn13_15_sn13h03.jpg
usemap sn13_15_sn13h03.jpg
f 19/19/19 17/17/17 18/18/18
f 18/18/18 20/20/20 19/19/19
f 23/23/23 21/21/21 22/22/22
f 22/22/22 24/24/24 23/23/23
f 24/24/24 22/22/22 25/25/25
f 25/25/25 26/26/26 24/24/24
f 29/29/29 27/27/27 28/28/28
f 28/28/28 30/30/30 29/29/29
f 33/33/33 31/31/31 32/32/32
f 32/32/32 34/34/34 33/33/33
f 37/37/37 35/35/35 36/36/36
f 36/36/36 38/38/38 37/37/37
f 109/109/109 107/107/107 108/108/108
f 107/107/107 109/109/109 110/110/110
f 113/113/113 111/111/111 112/112/112
f 111/111/111 113/113/113 114/114/114

usemtl sn13_20_sn13h07.jpg
usemap sn13_20_sn13h07.jpg
f 63/63/63 61/61/61 62/62/62
f 74/74/74 72/72/72 73/73/73
f 77/77/77 75/75/75 76/76/76
f 80/80/80 78/78/78 79/79/79
f 75/75/75 81/81/81 82/82/82
f 75/75/75 80/80/80 81/81/81
f 77/77/77 80/80/80 75/75/75
f 77/77/77 78/78/78 80/80/80
f 83/83/83 78/78/78 77/77/77
f 84/84/84 73/73/73 72/72/72
f 73/73/73 84/84/84 85/85/85
f 88/88/88 86/86/86 87/87/87
f 84/84/84 97/97/97 85/85/85
f 100/100/100 98/98/98 99/99/99
f 103/103/103 101/101/101 102/102/102
f 105/105/105 104/104/104 98/98/98
f 104/104/104 102/102/102 98/98/98
f 98/98/98 102/102/102 99/99/99
f 102/102/102 101/101/101 99/99/99
f 99/99/99 101/101/101 106/106/106
f 62/62/62 86/86/86 88/88/88
f 86/86/86 62/62/62 61/61/61
