mtllib ./ian1528.mtl
g ian1528
v -58.30231 19.1001 114.4285
v -28.33978 31.55539 109.9871
v -58.30231 19.10009 -114.8737
v -28.33978 31.55538 -110.411
v -1.735413 47.54525 108.9416
v -1.735413 47.54525 -109.3168
v -1.735413 47.54525 108.9416
v 2.202393 47.47402 108.9416
v -1.735413 47.54525 -109.3168
v 2.202393 47.47402 -109.3168
v 2.202393 47.47402 108.9416
v 28.38763 32.14582 109.9871
v 2.202393 47.47402 -109.3168
v 28.38763 32.14582 -110.411
v 58.30298 18.76265 114.4285
v 58.30292 18.76264 -114.8737
v 58.30298 18.76265 114.4285
v 54.7713 17.38497 114.4285
v 58.30292 18.76264 -114.8737
v 54.77124 17.38496 -114.8737
v 54.7713 17.38497 114.4285
v 26.72571 30.57132 109.9871
v 54.77124 17.38496 -114.8737
v 26.72571 30.57132 -110.411
v -0.07342529 45.67555 108.9416
v -0.07348633 45.67554 -109.3168
v -0.07342529 45.67555 108.9416
v -26.6778 30.17771 109.9871
v -0.07348633 45.67554 -109.3168
v -26.6778 30.1777 -110.411
v -54.14594 17.83448 114.4285
v -54.146 17.83448 -114.8737
v -54.14594 17.83448 114.4285
v -58.30231 19.1001 114.4285
v -54.146 17.83448 -114.8737
v -58.30231 19.10009 -114.8737
v -54.14594 17.83448 114.4285
v -28.33978 31.55539 109.9871
v -58.30231 19.1001 114.4285
v -26.6778 30.17771 109.9871
v -1.735413 47.54525 108.9416
v -0.07342529 45.67555 108.9416
v 2.202393 47.47402 108.9416
v 26.72571 30.57132 109.9871
v 28.38763 32.14582 109.9871
v 54.7713 17.38497 114.4285
v 58.30298 18.76265 114.4285
v -54.146 17.83448 -114.8737
v -58.30231 19.10009 -114.8737
v -28.33978 31.55538 -110.411
v -26.6778 30.1777 -110.411
v -1.735413 47.54525 -109.3168
v -0.07348633 45.67554 -109.3168
v 2.202393 47.47402 -109.3168
v 26.72571 30.57132 -110.411
v 28.38763 32.14582 -110.411
v 58.30292 18.76264 -114.8737
v 54.77124 17.38496 -114.8737
v -46.83112 -51.6199 -105.2013
v -46.79572 15.27279 -98.22409
v -46.79572 15.27279 -105.2013
v -46.79572 15.27279 -98.22409
v -50.10803 19.82161 -98.22409
v -50.11542 19.83567 -105.2013
v -46.79572 15.27279 -105.2013
v 50.90271 19.39629 -98.22412
v 46.68884 15.2289 -98.22412
v 46.68884 15.2289 -105.2014
v 50.87695 19.35307 -105.2014
v 46.68884 15.2289 -98.22412
v 46.66602 -51.65672 -105.2014
v 46.68884 15.2289 -105.2014
v -46.79572 15.27279 -98.22409
v -26.3092 30.37451 -98.22409
v -50.10803 19.82161 -98.22409
v 24.81738 31.55538 -98.22412
v 46.68884 15.2289 -98.22412
v 50.90271 19.39629 -98.22412
v -46.79572 15.27279 -105.2013
v -50.11542 19.83567 -105.2013
v -26.3092 30.37451 -105.2013
v 24.81738 31.55538 -105.2014
v 50.87695 19.35307 -105.2014
v 46.68884 15.2289 -105.2014
v 46.66602 -51.65672 -105.2014
v -46.83112 -51.6199 -105.2013
v 0.1538696 45.77394 -105.2013
v 46.68884 15.2289 96.64072
v 46.66602 -51.65672 103.618
v -46.83112 -51.6199 103.618
v -46.79572 15.27279 103.618
v -46.79572 15.27279 96.64072
v -46.79572 15.27279 103.618
v -50.11542 19.83567 103.618
v -50.10803 19.82161 96.64072
v -46.79572 15.27279 96.64072
v 50.87695 19.35308 103.618
v 46.68884 15.2289 103.618
v 46.68884 15.2289 96.64072
v 50.87695 19.35308 96.64072
v 46.68884 15.2289 103.618
v -46.79572 15.27279 103.618
v -26.3092 30.37451 103.618
v -50.11542 19.83567 103.618
v 24.81738 31.55538 103.618
v 46.68884 15.2289 103.618
v 50.87695 19.35308 103.618
v 46.66602 -51.65672 103.618
v -46.83112 -51.6199 103.618
v 0.1538696 45.77394 103.618
v -50.10803 19.82161 96.64072
v 46.68884 15.2289 96.64072
v -46.79572 15.27279 96.64072
v 50.87695 19.35308 96.64072
v -50.10803 19.82161 96.64072
v -26.3092 30.37451 97.41483
v 50.87695 19.35308 96.64072
v -26.3092 30.37451 97.41483
v 24.81738 31.55538 97.41483
v 50.87695 19.35308 96.64072
v 0.1538696 45.77394 97.41483
v 24.81738 31.55538 97.41483
v -26.3092 30.37451 97.41483
v 0.1538696 45.77394 -98.63153
v -50.10803 19.82161 96.64072
v -50.10803 19.82161 -98.22409
v -46.79572 15.27279 -98.22409
v -46.79572 15.27279 96.64072
v 50.90271 19.39629 -98.22412
v 50.92841 19.4395 96.64072
v 46.68884 15.2289 96.64072
v 46.68884 15.2289 -98.22412

vn -0.3838513 0.9233949 -3.072341E-08
vn -0.4267609 0.9043645 -5.10572E-08
vn -0.3838511 0.923395 -4.69976E-08
vn -0.4710811 0.8820899 -4.166438E-08
vn -0.5151408 0.8571055 -2.981466E-08
vn -0.515141 0.8571054 0
vn 0.0180853 0.9998364 0
vn 0.0180853 0.9998364 0
vn 0.0180853 0.9998364 0
vn 0.0180853 0.9998364 0
vn 0.5051855 0.8630108 0
vn 0.4717641 0.8817248 0
vn 0.5051855 0.8630108 0
vn 0.439145 0.8984162 -4.88406E-08
vn 0.4083663 0.9128181 -7.091155E-08
vn 0.4083667 0.912818 -1.390696E-07
vn 0.3634195 -0.9316257 -6.573693E-08
vn 0.3634195 -0.9316257 -6.573693E-08
vn 0.3634195 -0.9316257 -6.573693E-08
vn 0.3634195 -0.9316257 -6.573693E-08
vn -0.4254914 -0.9049625 1.433665E-07
vn -0.4471968 -0.8944356 4.92075E-08
vn -0.4254918 -0.9049622 7.310263E-08
vn -0.469266 -0.8830569 5.545195E-08
vn -0.4909943 -0.8711628 8.346933E-08
vn -0.4909937 -0.8711631 1.677568E-07
vn 0.503353 -0.864081 -1.105562E-07
vn 0.4731328 -0.8809912 -1.642271E-08
vn 0.5033534 -0.8640806 -3.997987E-08
vn 0.4416277 -0.8971984 -1.678705E-08
vn 0.4098828 -0.9121382 -4.015607E-08
vn 0.4098823 -0.9121384 -1.091016E-07
vn -0.2912969 -0.9566327 7.753677E-08
vn -0.291298 -0.9566323 5.468318E-08
vn -0.291298 -0.9566323 5.468318E-08
vn -0.2912992 -0.956632 3.182928E-08
vn 0.07788091 0.1714286 0.9821135
vn 0.06174274 0.1291933 0.9896954
vn 0.06127096 0.2012167 0.9776285
vn 0.04814601 0.05494107 0.9973282
vn 0.02324754 0.02379585 0.9994465
vn 0.0004503451 0.02489754 0.9996899
vn -0.02251826 0.02628879 0.9994007
vn -0.04872215 0.05325569 0.9973916
vn -0.06614137 0.1111671 0.9915983
vn -0.08361468 0.147099 0.9855813
vn -0.06793686 0.174156 0.9823717
vn 0.07824074 0.1722199 -0.9819464
vn 0.06155167 0.2021368 -0.9774212
vn 0.06231012 0.1301305 -0.989537
vn 0.04908884 0.05593253 -0.9972271
vn 0.02432803 0.02490136 -0.9993939
vn 0.0004712954 0.02605507 -0.9996604
vn -0.02356443 0.02751052 -0.9993438
vn -0.04963192 0.0543011 -0.9972903
vn -0.0667569 0.1120092 -0.9914622
vn -0.06825074 0.1749609 -0.982207
vn -0.08400363 0.1477833 -0.9854459
vn -0.9999999 0.0005292116 0
vn -0.9999999 0.0005292115 0
vn -0.9999999 0.0005292115 0
vn -0.8085108 -0.5884814 -0.0001650676
vn -0.8083902 -0.5886469 -0.0003305963
vn -0.8085108 -0.5884814 -0.0001650676
vn -0.8086308 -0.5883164 0
vn 0.702414 -0.7117682 0.0009080267
vn 0.7031747 -0.7110171 0
vn 0.702414 -0.7117682 0.0009080267
vn 0.7016454 -0.7125239 0.001823572
vn 1 -0.0003412864 0
vn 0.9999999 -0.0003412863 0
vn 0.9999999 -0.0003412863 0
vn 2.96209E-07 -4.018278E-07 1
vn -0.0001512038 0.006565734 0.9999784
vn 0 0 1
vn -0.0002702598 0.0117246 0.9999312
vn 3.94183E-07 1.737049E-08 1
vn 0 0 1
vn -3.230711E-07 4.458228E-08 -1
vn 0 0 -1
vn -4.50397E-07 2.412062E-07 -0.9999999
vn -5.45404E-07 7.893499E-08 -1
vn 0 0 -1
vn -3.454747E-07 -4.786494E-09 -1
vn -3.264231E-07 1.42077E-10 -1
vn -3.264011E-07 1.727353E-10 -1
vn -6.215731E-07 1.068139E-06 -1
vn 0.9999999 -0.0003412863 0
vn 0.9999999 -0.0003412863 0
vn -0.9999999 0.0005292115 0
vn -0.9999999 0.0005292115 0
vn -0.9999998 0.0005292115 0
vn -0.8085108 -0.5884814 0.0001650676
vn -0.8086308 -0.5883164 0.0003296756
vn -0.8085108 -0.5884814 0.0001650676
vn -0.8083902 -0.5886469 0
vn 0.7016473 -0.7125245 0
vn 0.7016473 -0.7125245 0
vn 0.7016473 -0.7125245 0
vn 0.7016473 -0.7125245 0
vn 0.9999999 -0.0003412863 0
vn 0 0 1
vn 0 0 0.9999999
vn 0 0 1
vn 0 0 1
vn 0 0 1
vn 0 0 1
vn 0 0 1
vn 0 0 1
vn 0 0 1
vn 0 0 -0.9999999
vn 0 0 -0.9999999
vn 0 0 -0.9999999
vn 0 0 -1
vn 0.0003359292 0.07240495 -0.9973752
vn 0.0003359292 0.07240495 -0.9973752
vn 0.0003359292 0.07240495 -0.9973752
vn -0.001393838 0.06034718 -0.9981765
vn -0.001393838 0.06034718 -0.9981765
vn -0.001393838 0.06034718 -0.9981765
vn 0 0 -1
vn 0 0 -1
vn 0 0 -1
vn -0.0006354977 0.02754015 0.9996205
vn -0.8083903 -0.5886469 0
vn -0.8083903 -0.5886469 0
vn -0.8083903 -0.5886469 0
vn -0.8083903 -0.5886469 0
vn 0.7039304 -0.7102689 3.234221E-05
vn 0.7046791 -0.709526 6.442094E-05
vn 0.7039304 -0.7102689 3.234221E-05
vn 0.7031748 -0.7110171 0

vt 2.998502 0.0004994571
vt 2.940452 0.5296535
vt 0.00149855 0.0005002916
vt 0.05982614 0.5296543
vt 2.926786 0.9994999
vt 0.07412776 0.9995005
vt 1.000115 0.6523311
vt 1.000115 0.2759616
vt 0.4950982 0.6523312
vt 0.4950982 0.2759616
vt 0.07321393 0.9995005
vt 0.05954826 0.5332116
vt 2.925873 0.9994999
vt 2.940174 0.5332109
vt 0.00149855 0.0005001724
vt 2.998502 0.0004994571
vt 19.99001 0.9994889
vt 19.99001 0.7593663
vt 0.009989738 0.9995002
vt 0.009989738 0.7593764
vt 9.995005 0.7438838
vt 9.801506 0.01847377
vt 0.004994869 0.7438848
vt 0.1994196 0.01847479
vt 9.755954 0.7512838
vt 0.2470914 0.7512848
vt 0.2440459 0.754877
vt 0.1984942 0.02053538
vt 9.752907 0.7548764
vt 9.800579 0.0205346
vt 0.004995763 0.7606962
vt 9.995004 0.7606953
vt 0.009990335 0.7591531
vt 0.009990335 0.999501
vt 19.99001 0.7591473
vt 19.99001 0.9994943
vt 0.4938953 0.8908294
vt 0.4391169 0.9488676
vt 0.4997584 0.9132748
vt 0.4259306 0.9365844
vt 0.3813322 0.999491
vt 0.3756966 0.9810377
vt 0.3696627 0.9991398
vt 0.3180805 0.9321777
vt 0.3084464 0.9458095
vt 0.2605601 0.8929607
vt 0.2508329 0.9137689
vt 0.4947544 0.8922247
vt 0.4989938 0.910659
vt 0.4397974 0.9464006
vt 0.4351832 0.9319561
vt 0.3806563 0.9977122
vt 0.3760421 0.9781088
vt 0.3697234 0.9969653
vt 0.3173701 0.9333066
vt 0.3127559 0.9498148
vt 0.2509851 0.9149985
vt 0.258014 0.8922247
vt 0.001823483 0.5004995
vt 0.05106962 0.9985101
vt 0.001823483 0.9985101
vt 0.05106962 0.9985101
vt 0.05106962 1.062302
vt 0.001823436 1.062302
vt 0.001823483 0.9985101
vt 0.369831 0.73264
vt 0.469179 0.73264
vt 0.4768912 0.8202577
vt 0.3775432 0.8202577
vt 0.4807384 0.2507081
vt 0.4975095 0.0004995465
vt 0.4975095 0.2507081
vt 0.9564221 1.011909
vt 0.7545872 1.162115
vt 1 1.048946
vt 0.2568808 1.174461
vt 0.04128423 0.9933909
vt 0 1.046889
vt 0.7332405 0.3478425
vt 0.749653 0.371226
vt 0.6319551 0.4252349
vt 0.379185 0.4312865
vt 0.2503464 0.3687528
vt 0.2710525 0.3476175
vt 0.2711655 0.004846055
vt 0.7334155 0.005034706
vt 0.5011215 0.5041531
vt 0.01722322 0.2507081
vt 0.0004520949 0.0004995465
vt 1.475695 0.5004995
vt 1.475695 0.9985101
vt 1.426449 0.9985101
vt 1.475695 0.9985101
vt 1.475695 1.062302
vt 1.426449 1.062302
vt 1.426449 0.9985101
vt 0.369831 0.73264
vt 0.469179 0.73264
vt 0.4768912 0.8202577
vt 0.3775432 0.8202577
vt 0.0004520949 0.2507081
vt 0.266759 0.3478425
vt 0.3680444 0.4252349
vt 0.2503464 0.371226
vt 0.6208146 0.4312865
vt 0.728947 0.3476175
vt 0.7496531 0.3687528
vt 0.7288341 0.004846055
vt 0.266584 0.005034706
vt 0.498878 0.5041531
vt 0.9941292 0.05455717
vt 0.0421085 0.01349441
vt 0.9590038 0.0183253
vt 0.007977905 0.05214174
vt -0.2739867 0.8202577
vt 0.5 0.5
vt 0.3775432 0.8202577
vt 0.5 0.5
vt 0.5 0.5
vt 0.3775432 0.8202577
vt 0.5 0.5
vt 0.5 0.5
vt 0.5 0.5
vt 0.5 0.5
vt 0.0004997412 0.4970853
vt 0.9995006 0.497069
vt 0.9995007 0.3845577
vt 0.0004997849 0.3845729
vt 1.001009 0.3601114
vt 0.002008021 0.354063
vt 0.002007977 0.4907451
vt 1.001009 0.4907324

usemtl sn13_14_sn13h02.JPG
usemap sn13_14_sn13h02.JPG
f 3/3/3 1/1/1 2/2/2
f 2/2/2 4/4/4 3/3/3
f 4/4/4 2/2/2 5/5/5
f 5/5/5 6/6/6 4/4/4
f 13/13/13 11/11/11 12/12/12
f 12/12/12 14/14/14 13/13/13
f 14/14/14 12/12/12 15/15/15
f 15/15/15 16/16/16 14/14/14
f 39/39/39 37/37/37 38/38/38
f 37/37/37 40/40/40 38/38/38
f 38/38/38 40/40/40 41/41/41
f 40/40/40 42/42/42 41/41/41
f 41/41/41 42/42/42 43/43/43
f 42/42/42 44/44/44 43/43/43
f 47/47/47 45/45/45 46/46/46
f 46/46/46 45/45/45 44/44/44
f 43/43/43 44/44/44 45/45/45
f 50/50/50 48/48/48 49/49/49
f 50/50/50 51/51/51 48/48/48
f 52/52/52 51/51/51 50/50/50
f 52/52/52 53/53/53 51/51/51
f 54/54/54 53/53/53 52/52/52
f 54/54/54 55/55/55 53/53/53
f 58/58/58 56/56/56 57/57/57
f 55/55/55 56/56/56 58/58/58
f 56/56/56 55/55/55 54/54/54

usemtl sn13_18_sn13h01.jpg
usemap sn13_18_sn13h01.jpg
f 9/9/9 7/7/7 8/8/8
f 8/8/8 10/10/10 9/9/9
f 61/61/61 59/59/59 60/60/60
f 64/64/64 62/62/62 63/63/63
f 65/65/65 62/62/62 64/64/64
f 68/68/68 66/66/66 67/67/67
f 69/69/69 66/66/66 68/68/68
f 72/72/72 70/70/70 71/71/71
f 75/75/75 73/73/73 74/74/74
f 78/78/78 76/76/76 77/77/77
f 73/73/73 77/77/77 74/74/74
f 77/77/77 76/76/76 74/74/74
f 81/81/81 79/79/79 80/80/80
f 84/84/84 82/82/82 83/83/83
f 79/79/79 85/85/85 86/86/86
f 79/79/79 84/84/84 85/85/85
f 81/81/81 84/84/84 79/79/79
f 81/81/81 82/82/82 84/84/84
f 87/87/87 82/82/82 81/81/81
f 88/88/88 71/71/71 70/70/70
f 71/71/71 88/88/88 89/89/89
f 92/92/92 90/90/90 91/91/91
f 95/95/95 93/93/93 94/94/94
f 96/96/96 93/93/93 95/95/95
f 99/99/99 97/97/97 98/98/98
f 100/100/100 97/97/97 99/99/99
f 88/88/88 101/101/101 89/89/89
f 104/104/104 102/102/102 103/103/103
f 107/107/107 105/105/105 106/106/106
f 109/109/109 108/108/108 102/102/102
f 108/108/108 106/106/106 102/102/102
f 102/102/102 106/106/106 103/103/103
f 106/106/106 105/105/105 103/103/103
f 103/103/103 105/105/105 110/110/110
f 113/113/113 111/111/111 112/112/112
f 112/112/112 111/111/111 114/114/114
f 60/60/60 90/90/90 92/92/92
f 90/90/90 60/60/60 59/59/59
f 117/117/117 115/115/115 116/116/116
f 120/120/120 118/118/118 119/119/119
f 123/123/123 121/121/121 122/122/122
f 74/74/74 76/76/76 124/124/124
f 127/127/127 125/125/125 126/126/126
f 125/125/125 127/127/127 128/128/128
f 131/131/131 129/129/129 130/130/130
f 129/129/129 131/131/131 132/132/132

usemtl sn13_15_sn13h03.jpg
usemap sn13_15_sn13h03.jpg
f 19/19/19 17/17/17 18/18/18
f 18/18/18 20/20/20 19/19/19
f 23/23/23 21/21/21 22/22/22
f 22/22/22 24/24/24 23/23/23
f 24/24/24 22/22/22 25/25/25
f 25/25/25 26/26/26 24/24/24
f 29/29/29 27/27/27 28/28/28
f 28/28/28 30/30/30 29/29/29
f 30/30/30 28/28/28 31/31/31
f 31/31/31 32/32/32 30/30/30
f 35/35/35 33/33/33 34/34/34
f 34/34/34 36/36/36 35/35/35
