mtllib ./ian1590.mtl
g ian1590
v -23.09478 31.55037 110.4763
v -33.63234 31.56039 -109.7806
v -63.78194 19.614 -112.8073
v -52.81867 19.09488 116.3479
v 3.436013 47.54027 108.1587
v -6.999232 47.55021 -109.9597
v 7.370414 47.46904 107.9705
v -3.064831 47.47898 -110.148
v -6.999232 47.55021 -109.9597
v 3.436013 47.54027 108.1587
v 33.58271 32.1408 107.7648
v 23.04516 32.15082 -112.4922
v -3.064831 47.47898 -110.148
v 7.370414 47.46904 107.9705
v 52.06429 24.09454 108.2844
v 41.17135 23.99851 -116.2809
v 5.096544 45.67057 108.0794
v -5.338701 45.6805 -110.0391
v 21.38464 30.57633 -112.4126
v 31.92219 30.5663 107.8442
v -21.43437 30.17268 110.397
v -31.97193 30.18271 -109.8599
v -5.338701 45.6805 -110.0391
v 5.096544 45.67057 108.0794
v -48.66595 17.82925 116.1493
v -59.62922 17.83968 -113.0059
v -31.97193 30.18271 -109.8599
v -21.43437 30.17268 110.397
v -52.81867 19.09488 116.3479
v -63.78194 19.614 -112.8073
v -59.62922 17.83968 -113.0059
v -48.66595 17.82925 116.1493
v 33.58271 32.1408 107.7648
v 7.370414 47.46904 107.9705
v 3.436013 47.54027 108.1587
v -23.09478 31.55037 110.4763
v -52.81867 19.09488 116.3479
v -48.66595 17.82925 116.1493
v -21.43437 30.17268 110.397
v 5.096544 45.67057 108.0794
v 31.92219 30.5663 107.8442
v 52.11531 21.11987 109.6217
v 52.06429 24.09454 108.2844
v 23.04516 32.15082 -112.4922
v 41.17135 23.99851 -116.2809
v 41.25237 21.04618 -116.7441
v 21.38464 30.57633 -112.4126
v -5.338701 45.6805 -110.0391
v -31.97193 30.18271 -109.8599
v -59.62922 17.83968 -113.0059
v -63.78194 19.614 -112.8073
v -33.63234 31.56039 -109.7806
v -6.999232 47.55021 -109.9597
v -3.064831 47.47898 -110.148
v -51.85805 -51.61513 -103.6849
v -51.4893 15.27725 -96.71821
v -51.82289 15.27756 -103.6909
v -55.13968 19.84044 -103.5325
v -51.82289 15.27756 -103.6909
v -51.4893 15.27725 -96.71821
v -54.81645 19.89269 -96.55916
v 41.63223 -51.65671 -108.2216
v -51.85805 -51.61513 -103.6849
v -51.82289 15.27756 -103.6909
v -55.13968 19.84044 -103.5325
v -31.35452 30.37928 -104.6712
v -4.914724 45.77872 -105.9372
v 19.72707 31.56015 -107.1152
v 44.0548 20.15877 -108.2783
v 44.05481 17.67348 -108.2781
v 41.59442 15.26616 -108.2198
v -41.87409 -51.62464 105.0007
v -41.83906 15.26805 104.9945
v -42.17265 15.26838 98.02176
v -45.49968 19.88382 98.18081
v -42.17265 15.26838 98.02176
v -41.83906 15.26805 104.9945
v -45.15585 19.83093 105.1529
v 51.57837 15.26614 100.4657
v 51.55181 21.49312 100.5262
v 29.71102 31.55064 101.5703
v 5.069228 45.76921 102.7482
v -21.37057 30.36977 104.0143
v -45.15585 19.83093 105.1529
v -41.83906 15.26805 104.9945
v 51.61618 -51.65671 100.4639
v -41.87409 -51.62464 105.0007
v -41.87409 -51.62464 105.0007
v -42.17265 15.26838 98.02176
v 41.25237 21.04618 -116.7441
v 52.11531 21.11987 109.6217
v 116.3433 31.55037 -118.2342
v 126.8807 31.56039 102.0228
v 157.0302 19.614 105.0495
v 146.0671 19.09488 -124.1057
v 89.8124 47.54027 -115.9164
v 100.2475 47.55021 102.202
v 85.87799 47.46904 -115.7283
v 96.31324 47.47898 102.3903
v 100.2475 47.55021 102.202
v 89.8124 47.54027 -115.9164
v 59.66582 32.1408 -115.5225
v 70.20325 32.15082 104.7343
v 96.31324 47.47898 102.3903
v 85.87799 47.46904 -115.7283
v 41.17135 23.99851 -116.2809
v 52.06429 24.09454 108.2844
v 88.15186 45.67057 -115.8372
v 98.58699 45.6805 102.2814
v 71.86377 30.57633 104.6548
v 61.32622 30.5663 -115.602
v 114.6828 30.17268 -118.1547
v 125.2202 30.18271 102.1021
v 98.58699 45.6805 102.2814
v 88.15186 45.67057 -115.8372
v 141.9144 17.82925 -123.9071
v 152.8775 17.83968 105.2481
v 146.0671 19.09488 -124.1057
v 157.0302 19.614 105.0495
v 152.8775 17.83968 105.2481
v 141.9144 17.82925 -123.9071
v 59.66582 32.1408 -115.5225
v 85.87799 47.46904 -115.7283
v 89.8124 47.54027 -115.9164
v 116.3433 31.55037 -118.2342
v 146.0671 19.09488 -124.1057
v 141.9144 17.82925 -123.9071
v 114.6828 30.17268 -118.1547
v 88.15186 45.67057 -115.8372
v 61.32622 30.5663 -115.602
v 41.25237 21.04618 -116.7441
v 41.17135 23.99851 -116.2809
v 70.20325 32.15082 104.7343
v 52.06429 24.09454 108.2844
v 52.11531 21.11987 109.6217
v 71.86377 30.57633 104.6548
v 98.58699 45.6805 102.2814
v 125.2202 30.18271 102.1021
v 152.8775 17.83968 105.2481
v 157.0302 19.614 105.0495
v 126.8807 31.56039 102.0228
v 100.2475 47.55021 102.202
v 96.31324 47.47898 102.3903
v 145.1065 -51.61513 95.92705
v 144.7377 15.27725 88.96039
v 145.0713 15.27756 95.93325
v 148.3881 19.84044 95.77481
v 145.0713 15.27756 95.93325
v 144.7377 15.27725 88.96039
v 148.3783 19.4121 88.78646
v 51.61618 -51.65671 100.4639
v 145.1065 -51.61513 95.92705
v 145.0713 15.27756 95.93325
v 148.3881 19.84044 95.77481
v 124.6029 30.37928 96.91348
v 98.16313 45.77872 98.17939
v 73.52121 31.56015 99.35734
v 51.51798 21.24812 100.4094
v 51.57837 15.26614 100.4657
v 51.57837 15.26614 100.4657
v 135.1226 -51.62464 -112.7584
v 135.0875 15.26805 -112.7523
v 135.4211 15.26838 -105.7795
v 139.0617 19.40322 -105.9535
v 135.4211 15.26838 -105.7795
v 135.0875 15.26805 -112.7523
v 138.4043 19.83093 -112.9106
v 41.59442 15.26616 -108.2198
v 41.53402 21.23857 -108.2762
v 63.53738 31.55064 -109.3281
v 88.17918 45.76921 -110.5061
v 114.619 30.36977 -111.772
v 41.59442 15.26616 -108.2198
v 138.4043 19.83093 -112.9106
v 135.0875 15.26805 -112.7523
v 41.63223 -51.65671 -108.2216
v 135.1226 -51.62464 -112.7584
v 140.7677 -12.34607 5.672089
v 140.752 15.27345 5.650713
v 140.7899 -51.61924 5.702563
v 61.32622 30.5663 -115.602
v 71.86377 30.57633 104.6548
v 52.11531 21.11987 109.6217
v 41.25237 21.04618 -116.7441
v -45.49968 19.88382 98.18081
v -54.81645 19.89269 -96.55916
v -51.4893 15.27725 -96.71821
v -42.17265 15.26838 98.02176
v 144.4884 19.40839 7.47856
v 148.3783 19.4121 88.78646
v 144.7377 15.27725 88.96039
v 140.752 15.27345 5.650713
v 140.7677 -12.34607 5.672089
v 140.7899 -51.61924 5.702563
v 135.1226 -51.62464 -112.7584
v 135.4211 15.26838 -105.7795
v 140.752 15.27345 5.650713
v 135.4211 15.26838 -105.7795
v 139.0617 19.40322 -105.9535

vn 0.0006390139 0.9064654 0.4222797
vn -8.83285E-05 0.8843848 0.4667589
vn 0.0009854436 0.9261918 0.3770516
vn 0.001984157 0.9235368 0.3835047
vn -0.000102859 0.8571643 0.5150433
vn -0.000102872 0.8571642 0.5150433
vn 5.046127E-05 0.9998366 -0.01808026
vn 5.046144E-05 0.9998365 -0.01808026
vn 5.046127E-05 0.9998366 -0.01808026
vn 5.046121E-05 0.9998366 -0.01808026
vn 0.0001719575 0.8775638 -0.4794596
vn -3.843009E-05 0.8941565 -0.4477547
vn 0.0001783501 0.8630692 -0.5050858
vn 0.0001783706 0.8630692 -0.5050858
vn -0.0002006553 0.9149445 -0.4035797
vn -0.0005479623 0.9133872 -0.4070915
vn -0.0001748148 -0.8712182 0.4908959
vn -0.0001748223 -0.8712182 0.490896
vn -0.0001707692 -0.8801368 0.47472
vn -4.569627E-05 -0.8912687 0.4534755
vn 9.930134E-05 -0.8641384 -0.5032543
vn 9.929575E-05 -0.8641385 -0.5032543
vn 9.930134E-05 -0.8641384 -0.5032543
vn 9.930134E-05 -0.8641384 -0.5032543
vn 7.138401E-05 -0.9121782 -0.4097937
vn 7.139519E-05 -0.9121782 -0.4097939
vn 7.138401E-05 -0.9121782 -0.4097937
vn 7.137097E-05 -0.9121783 -0.4097936
vn -0.001178526 -0.9391989 0.3433718
vn -0.002189288 -0.9197386 0.3925253
vn -0.001178526 -0.9391989 0.3433718
vn -0.0001237076 -0.9566541 0.2912269
vn 0.8522102 0.4849584 -0.1963499
vn 0.9975243 0.07031634 -0.0009954572
vn 0.9591609 0.2620431 -0.1065084
vn 0.8333557 0.5227085 0.1797056
vn 0.9776106 0.2013845 -0.06100672
vn 0.9896149 0.1298238 -0.06171227
vn 0.6780194 -0.6233518 -0.3895158
vn 0.9823415 -0.1597864 0.09733343
vn 0.6338934 -0.6628863 0.3984486
vn 0.9894857 0.1444716 0.006806314
vn 0.9067506 0.4074393 -0.1086121
vn -0.8515847 0.4911116 -0.1833391
vn -0.9846016 0.1498339 0.09005445
vn -0.9952059 0.06860985 0.0697006
vn -0.511289 -0.739708 0.4375108
vn -0.9676932 -0.2159541 0.1301299
vn -0.6805704 -0.620542 -0.3895531
vn -0.9899861 0.1230117 -0.06925339
vn -0.9812741 0.1770497 -0.07585979
vn -0.852423 0.497823 0.1598359
vn -0.9366443 0.3230281 -0.1354644
vn -0.997299 0.07343377 -0.001601994
vn -0.0002754107 0.000529374 0.9999998
vn -0.0002757162 0.0005284533 0.9999999
vn -0.0002752952 0.0005293622 0.9999998
vn 0.001358233 -0.5868075 0.8097253
vn -0.0002489537 -0.5884172 0.8085574
vn 0.001358233 -0.5868075 0.8097253
vn 0.002951715 -0.5852079 0.810878
vn -1 -3.285116E-05 0.0003836751
vn -1 -6.532263E-05 0.0004068613
vn -1 5.023614E-05 0.0003746152
vn -1 -5.833992E-05 -0.0002705455
vn -0.9999992 0.001276173 3.045797E-05
vn -1 -7.025415E-05 -0.0002747178
vn -0.9999968 0.00246857 -0.0007017851
vn -1 -9.528781E-05 -0.0002609491
vn -0.9999402 0.009371901 -0.005658805
vn -1 0.0006435391 0.0002025962
vn -0.0002752952 0.0005275128 0.9999998
vn -0.0002752952 0.0005275128 0.9999998
vn -0.0002752952 0.0005275128 0.9999998
vn -0.001864422 -0.5868006 0.8097295
vn -0.000250116 -0.5851968 0.8108914
vn -0.001864422 -0.5868006 0.8097295
vn -0.003492631 -0.5884144 0.8085521
vn 0.9999999 -0.0006232985 -0.0002262592
vn 0.9999436 -0.009529958 0.004698038
vn 0.999997 -0.002412437 0.0005777478
vn 1 6.997166E-05 0.0002745986
vn 0.9999993 -0.00127653 -3.057718E-05
vn 1 5.710817E-05 0.0002699494
vn 1 -4.942933E-05 -0.0003751516
vn 0.9999999 3.380905E-05 -0.0003842711
vn 1 6.723817E-05 -0.0004081726
vn -0.0002757199 0.0005284377 0.9999999
vn -0.0002760589 0.0005274337 0.9999998
vn 4.262291E-05 -0.9040501 0.4274266
vn 0.0002391413 -0.9048934 0.4256384
vn -0.0006387699 0.9064652 -0.4222801
vn 8.859858E-05 0.8843849 -0.4667583
vn -0.0009852387 0.9261913 -0.3770528
vn -0.001983965 0.9235363 -0.383506
vn 0.0001031775 0.8571653 -0.5150416
vn 0.0001031663 0.8571652 -0.5150416
vn -5.046662E-05 0.9998366 0.01808053
vn -5.046284E-05 0.9998365 0.01808081
vn -5.046662E-05 0.9998366 0.01808053
vn -5.047233E-05 0.9998365 0.01808024
vn -0.000172358 0.8770651 0.4803715
vn -0.0001877565 0.894161 0.4477457
vn -0.0001785122 0.8630686 0.5050868
vn -0.0001783725 0.8630682 0.5050876
vn -0.0001940392 0.9149503 0.4035666
vn -0.0002345648 0.9151309 0.4031568
vn 0.0001749694 -0.8712178 -0.4908969
vn 0.0001751091 -0.8712172 -0.4908977
vn 0.0001749694 -0.8712178 -0.4908969
vn 0.0001748018 -0.8712183 -0.4908959
vn -9.046867E-05 -0.8810431 0.4730361
vn -8.104183E-05 -0.8972443 0.4415344
vn -9.958819E-05 -0.8641384 0.5032543
vn -9.958819E-05 -0.8641384 0.5032543
vn -7.160567E-05 -0.9121783 0.4097938
vn -7.160939E-05 -0.9121783 0.4097938
vn 0.001178721 -0.939199 -0.3433715
vn 0.00218951 -0.9197387 -0.392525
vn 0.001178721 -0.939199 -0.3433715
vn 0.0001238426 -0.9566541 -0.2912265
vn -0.9400541 0.3223202 0.1113923
vn -0.9975285 0.07025738 0.0009653568
vn -0.9796768 0.187764 0.07055706
vn -0.8333526 0.5227128 -0.179708
vn -0.9776109 0.201383 0.06100798
vn -0.9896179 0.1297931 0.0617283
vn -0.6779928 -0.6233748 0.3895251
vn -0.9928913 -0.1015032 -0.06216383
vn -0.7482295 -0.5649799 -0.3477791
vn -0.9973732 0.06030437 -0.04012901
vn -0.9878368 0.1541872 -0.02012485
vn 0.7590775 0.6031094 0.2450726
vn 0.9108588 0.4099856 0.04741758
vn 0.9874277 0.153968 -0.03578907
vn 0.4347916 -0.7769116 -0.4553731
vn 0.9487236 -0.270886 -0.1629251
vn 0.680558 -0.6205537 0.3895563
vn 0.9899862 0.1230106 0.06925231
vn 0.981274 0.1770499 0.07585984
vn 0.8524205 0.4978262 -0.1598397
vn 0.9074924 0.3858904 0.1659712
vn 0.9972992 0.07343041 0.001604319
vn 0.000275366 0.0005294835 -0.9999999
vn 0.0002755783 0.0005294406 -1
vn 0.0002744943 0.0005293926 -1
vn 0.03750413 -0.6246529 -0.7800015
vn 0.0002483092 -0.5884169 -0.8085577
vn 0.03750413 -0.6246529 -0.7800015
vn 0.07540348 -0.6593812 -0.7480181
vn 1 -3.338042E-05 -0.0003840327
vn 1 -6.714553E-05 -0.0004081726
vn 1 4.978905E-05 -0.0003749132
vn 1 -5.7047E-05 0.000270009
vn 0.9999992 0.00127966 -2.932549E-05
vn 1 -6.594633E-05 0.0002768636
vn 0.999997 0.002427493 0.0005872846
vn 0.9999397 0.009835063 0.004907489
vn 0.9999397 0.009835063 0.004907489
vn 0.9999999 0.0004826726 -0.0003040433
vn 0.000274498 0.0005293108 -1
vn 0.000274498 0.0005293108 -1
vn 0.000274498 0.0005293108 -1
vn -0.03701892 -0.6246517 -0.7800257
vn 0.0002362691 -0.6612499 -0.7501658
vn -0.03701892 -0.6246517 -0.7800257
vn -0.07318143 -0.5868268 -0.8063987
vn -0.9999392 -0.009869827 -0.004928887
vn -0.9999392 -0.009869827 -0.004928887
vn -0.999997 -0.002429933 -0.0005885959
vn -1 6.625922E-05 -0.0002770424
vn -0.9999993 -0.001276121 2.944469E-05
vn -0.9999999 -0.0004816638 0.0003051758
vn -1 7.741E-05 -0.0002789497
vn -1 -4.9689E-05 0.0003755093
vn -1 3.252483E-05 0.0003846288
vn -1 6.543467E-05 0.0004081726
vn 0.0002758168 0.0005293905 -0.9999999
vn 0.0002755113 0.0005303006 -0.9999999
vn 0.0002756454 0.0005292304 -0.9999999
vn 0.0002555121 -0.903312 -0.4289841
vn 0.0001589861 -0.9037315 -0.4280998
vn 0.0002555121 -0.903312 -0.4289841
vn 0.0003491864 -0.902904 -0.429842
vn -0.0002502352 -0.5852039 0.8108862
vn -0.0002499856 -0.585211 0.8108811
vn -0.0002502352 -0.5852039 0.8108862
vn -0.0002504811 -0.5851969 0.8108913
vn 0.0002370439 -0.6612505 -0.7501653
vn 0.0002367571 -0.6612508 -0.7501649
vn 0.000236772 -0.6612505 -0.7501652
vn 0.0002372712 -0.6612502 -0.7501655
vn 0.0002763122 0.0005292496 -0.9999999
vn 0.0002763458 0.0005287488 -0.9999999
vn 0.0002762638 0.0005289864 -0.9999999
vn 0.0002763048 0.0005294668 -0.9999999
vn 0.0002765097 0.0005303014 -0.9999999
vn 0.0002375171 -0.6612498 -0.7501658
vn 0.0002375096 -0.6612502 -0.7501655

vt 2.940452 0.5296535
vt 0.05982614 0.5296543
vt 0.00149855 0.0005002916
vt 2.998502 0.0004994571
vt 2.926786 0.9994999
vt 0.07412776 0.9995005
vt 1.000115 0.2759616
vt 0.4950982 0.2759616
vt 0.4950982 0.6523312
vt 1.000115 0.6523311
vt 0.05954826 0.5332116
vt 2.940174 0.5332109
vt 2.925873 0.9994999
vt 0.07321393 0.9995005
vt 0.0192275 0.1631955
vt 2.980688 0.1631954
vt 9.755954 0.7512838
vt 0.2470914 0.7512848
vt 0.1994196 0.01847479
vt 9.801506 0.01847377
vt 0.1984942 0.02053538
vt 9.800579 0.0205346
vt 9.752907 0.7548764
vt 0.2440459 0.754877
vt 0.004995763 0.7606962
vt 9.995004 0.7606953
vt 9.800579 0.0205346
vt 0.1984942 0.02053538
vt 0.009990335 0.999501
vt 19.99001 0.9994943
vt 19.99001 0.7591473
vt 0.009990335 0.7591531
vt 0.3084464 0.9458095
vt 0.3696627 0.9991398
vt 0.3813322 0.999491
vt 0.4391169 0.9488676
vt 0.4997584 0.9132748
vt 0.4938953 0.8908294
vt 0.4259306 0.9365844
vt 0.3756966 0.9810377
vt 0.3180805 0.9321777
vt 0.2720552 0.900798
vt 0.2684286 0.9235545
vt 0.3127559 0.9498148
vt 0.2698506 0.9256318
vt 0.269876 0.9004347
vt 0.3173701 0.9333066
vt 0.3760421 0.9781088
vt 0.4351832 0.9319561
vt 0.4947544 0.8922247
vt 0.4989938 0.910659
vt 0.4397974 0.9464006
vt 0.3806563 0.9977122
vt 0.3697234 0.9969653
vt 0.0005208552 0.498226
vt 0.03387824 0.9994957
vt 0.0004995167 0.9995005
vt -0.2739867 0.8202577
vt -0.2028319 0.8202577
vt -0.210544 0.73264
vt -0.2816988 0.73264
vt 0.2680032 0.0006428957
vt 0.7327564 0.0008326173
vt 0.7325804 0.3454965
vt 0.7490819 0.3690067
vt 0.6307465 0.423308
vt 0.4992044 0.5026535
vt 0.3766077 0.4293924
vt 0.2555739 0.3706469
vt 0.2555739 0.3578415
vt 0.2678897 0.3452704
vt 0.9995005 0.4980841
vt 0.9994792 0.9993585
vt 0.9661005 0.9993632
vt -0.2739867 0.8202577
vt -0.2028319 0.8202577
vt -0.210544 0.73264
vt -0.2816988 0.73264
vt 0.7263418 0.3377039
vt 0.7383466 0.3499576
vt 0.6203715 0.4196997
vt 0.5008732 0.4911091
vt 0.3726558 0.4137692
vt 0.2573113 0.3608404
vt 0.2733957 0.3379244
vt 0.7262311 0.001786705
vt 0.2732243 0.001971684
vt 0.9995005 0.4980841
vt 0.9661005 0.9993632
vt 0.04384976 0.5989149
vt 9.956335 0.5989148
vt 2.940452 0.5296535
vt 0.05982614 0.5296543
vt 0.00149855 0.0005002916
vt 2.998502 0.0004994571
vt 2.926786 0.9994999
vt 0.07412776 0.9995005
vt 1.000115 0.2759616
vt 0.4950982 0.2759616
vt 0.4950982 0.6523312
vt 1.000115 0.6523311
vt 0.05954826 0.5332116
vt 2.940174 0.5332109
vt 2.925873 0.9994999
vt 0.07321393 0.9995005
vt 0.02374181 0.2046224
vt 2.976152 0.204623
vt 9.755954 0.7512838
vt 0.2470914 0.7512848
vt 0.1994196 0.01847479
vt 9.801506 0.01847377
vt 0.1984942 0.02053538
vt 9.800579 0.0205346
vt 9.752907 0.7548764
vt 0.2440459 0.754877
vt 0.004995763 0.7606962
vt 9.995004 0.7606953
vt 0.009990335 0.999501
vt 19.99001 0.9994943
vt 19.99001 0.7591473
vt 0.009990335 0.7591531
vt 0.3084464 0.9458095
vt 0.3696627 0.9991398
vt 0.3813322 0.999491
vt 0.4391169 0.9488676
vt 0.4997584 0.9132748
vt 0.4938953 0.8908294
vt 0.4259306 0.9365844
vt 0.3756966 0.9810377
vt 0.3180805 0.9321777
vt 0.2768266 0.9040511
vt 0.272909 0.9260461
vt 0.3127559 0.9498148
vt 0.2746544 0.9283394
vt 0.2747998 0.9038426
vt 0.3173701 0.9333066
vt 0.3760421 0.9781088
vt 0.4351832 0.9319561
vt 0.4947544 0.8922247
vt 0.4989938 0.910659
vt 0.4397974 0.9464006
vt 0.3806563 0.9977122
vt 0.3697234 0.9969653
vt 0.0005208552 0.498226
vt 0.03387824 0.9994957
vt 0.0004995167 0.9995005
vt -0.2739867 0.8202577
vt -0.2028319 0.8202577
vt -0.210544 0.73264
vt -0.2816988 0.73264
vt 0.2680032 0.0006428957
vt 0.7327564 0.0008326173
vt 0.7325804 0.3454965
vt 0.7490819 0.3690067
vt 0.6307465 0.423308
vt 0.4992044 0.5026535
vt 0.3766077 0.4293924
vt 0.2671381 0.3762598
vt 0.2671381 0.3460376
vt 0.2678897 0.3452704
vt 0.9995005 -0.00433138
vt 0.9994792 0.4969431
vt 0.9661005 0.4969478
vt -0.2739867 0.8202577
vt -0.2028319 0.8202577
vt -0.210544 0.73264
vt -0.2816988 0.73264
vt 0.7270749 0.3384522
vt 0.7270749 0.3679098
vt 0.6203715 0.4196997
vt 0.5008732 0.4911091
vt 0.3726558 0.4137692
vt 0.7263418 0.3377039
vt 0.2573113 0.3608404
vt 0.2733957 0.3379244
vt 0.7262311 0.001786705
vt 0.2732243 0.001971684
vt 0.4325769 0.7924664
vt 0.4326826 0.9994391
vt 0.4324267 0.4981647
vt 9.801506 0.01847377
vt 0.1994196 0.01847479
vt 0.0599777 0.5387406
vt 9.940284 0.5387415
vt 14.9925 0.4187346
vt 0.007493198 0.420651
vt 0.007505268 0.002416462
vt 14.99251 0.0004996061
vt 6.264034 0.4230278
vt 0.007492751 0.4239208
vt 0.007504374 0.002638757
vt 6.418084 0.001723616
vt 0.4325769 0.2900509
vt 0.4324267 -0.004250795
vt 0.9995005 -0.00433138
vt 0.9661005 0.4969478
vt 0.4326826 0.4970236
vt 14.99251 0.0004995763
vt 14.9925 0.4217821

usemtl sn13_14_sn13h02.JPG
usemap sn13_14_sn13h02.JPG
f 3/3/3 1/1/1 2/2/2
f 1/1/1 3/3/3 4/4/4
f 2/2/2 5/5/5 6/6/6
f 5/5/5 2/2/2 1/1/1
f 13/13/13 11/11/11 12/12/12
f 11/11/11 13/13/13 14/14/14
f 12/12/12 15/15/15 16/16/16
f 15/15/15 12/12/12 11/11/11
f 35/35/35 33/33/33 34/34/34
f 38/38/38 36/36/36 37/37/37
f 40/40/40 38/38/38 39/39/39
f 40/40/40 36/36/36 38/38/38
f 40/40/40 35/35/35 36/36/36
f 42/42/42 40/40/40 41/41/41
f 42/42/42 35/35/35 40/40/40
f 42/42/42 33/33/33 35/35/35
f 43/43/43 33/33/33 42/42/42
f 46/46/46 44/44/44 45/45/45
f 48/48/48 46/46/46 47/47/47
f 50/50/50 48/48/48 49/49/49
f 52/52/52 50/50/50 51/51/51
f 52/52/52 48/48/48 50/50/50
f 53/53/53 48/48/48 52/52/52
f 53/53/53 46/46/46 48/48/48
f 53/53/53 44/44/44 46/46/46
f 54/54/54 44/44/44 53/53/53
f 94/94/94 92/92/92 93/93/93
f 92/92/92 94/94/94 95/95/95
f 93/93/93 96/96/96 97/97/97
f 96/96/96 93/93/93 92/92/92
f 104/104/104 102/102/102 103/103/103
f 102/102/102 104/104/104 105/105/105
f 103/103/103 106/106/106 107/107/107
f 106/106/106 103/103/103 102/102/102
f 124/124/124 122/122/122 123/123/123
f 127/127/127 125/125/125 126/126/126
f 129/129/129 127/127/127 128/128/128
f 129/129/129 125/125/125 127/127/127
f 129/129/129 124/124/124 125/125/125
f 131/131/131 129/129/129 130/130/130
f 131/131/131 124/124/124 129/129/129
f 131/131/131 122/122/122 124/124/124
f 132/132/132 122/122/122 131/131/131
f 135/135/135 133/133/133 134/134/134
f 137/137/137 135/135/135 136/136/136
f 139/139/139 137/137/137 138/138/138
f 141/141/141 139/139/139 140/140/140
f 141/141/141 137/137/137 139/139/139
f 142/142/142 137/137/137 141/141/141
f 142/142/142 135/135/135 137/137/137
f 142/142/142 133/133/133 135/135/135
f 143/143/143 133/133/133 142/142/142

usemtl sn13_18_sn13h01.jpg
usemap sn13_18_sn13h01.jpg
f 9/9/9 7/7/7 8/8/8
f 7/7/7 9/9/9 10/10/10
f 60/60/60 58/58/58 59/59/59
f 58/58/58 60/60/60 61/61/61
f 77/77/77 75/75/75 76/76/76
f 75/75/75 77/77/77 78/78/78
f 100/100/100 98/98/98 99/99/99
f 98/98/98 100/100/100 101/101/101
f 149/149/149 147/147/147 148/148/148
f 147/147/147 149/149/149 150/150/150
f 166/166/166 164/164/164 165/165/165
f 164/164/164 166/166/166 167/167/167

usemtl sn13_15_sn13h03.jpg
usemap sn13_15_sn13h03.jpg
f 19/19/19 17/17/17 18/18/18
f 17/17/17 19/19/19 20/20/20
f 23/23/23 21/21/21 22/22/22
f 21/21/21 23/23/23 24/24/24
f 27/27/27 25/25/25 26/26/26
f 25/25/25 27/27/27 28/28/28
f 31/31/31 29/29/29 30/30/30
f 29/29/29 31/31/31 32/32/32
f 90/90/90 20/20/20 19/19/19
f 20/20/20 90/90/90 91/91/91
f 110/110/110 108/108/108 109/109/109
f 108/108/108 110/110/110 111/111/111
f 114/114/114 112/112/112 113/113/113
f 112/112/112 114/114/114 115/115/115
f 113/113/113 116/116/116 117/117/117
f 116/116/116 113/113/113 112/112/112
f 120/120/120 118/118/118 119/119/119
f 118/118/118 120/120/120 121/121/121
f 183/183/183 181/181/181 182/182/182
f 181/181/181 183/183/183 184/184/184
f 187/187/187 185/185/185 186/186/186
f 185/185/185 187/187/187 188/188/188
f 191/191/191 189/189/189 190/190/190
f 189/189/189 191/191/191 192/192/192
f 199/199/199 192/192/192 198/198/198
f 192/192/192 199/199/199 189/189/189

usemtl sn13_20_sn13h07.jpg
usemap sn13_20_sn13h07.jpg
f 57/57/57 55/55/55 56/56/56
f 64/64/64 62/62/62 63/63/63
f 66/66/66 64/64/64 65/65/65
f 68/68/68 66/66/66 67/67/67
f 70/70/70 68/68/68 69/69/69
f 71/71/71 68/68/68 70/70/70
f 71/71/71 66/66/66 68/68/68
f 71/71/71 64/64/64 66/66/66
f 71/71/71 62/62/62 64/64/64
f 74/74/74 72/72/72 73/73/73
f 81/81/81 79/79/79 80/80/80
f 83/83/83 81/81/81 82/82/82
f 83/83/83 79/79/79 81/81/81
f 85/85/85 83/83/83 84/84/84
f 85/85/85 79/79/79 83/83/83
f 85/85/85 86/86/86 79/79/79
f 87/87/87 86/86/86 85/85/85
f 56/56/56 88/88/88 89/89/89
f 88/88/88 56/56/56 55/55/55
f 146/146/146 144/144/144 145/145/145
f 153/153/153 151/151/151 152/152/152
f 155/155/155 153/153/153 154/154/154
f 157/157/157 155/155/155 156/156/156
f 159/159/159 157/157/157 158/158/158
f 160/160/160 155/155/155 157/157/157
f 160/160/160 153/153/153 155/155/155
f 160/160/160 151/151/151 153/153/153
f 163/163/163 161/161/161 162/162/162
f 170/170/170 168/168/168 169/169/169
f 172/172/172 170/170/170 171/171/171
f 172/172/172 173/173/173 170/170/170
f 175/175/175 172/172/172 174/174/174
f 175/175/175 173/173/173 172/172/172
f 175/175/175 176/176/176 173/173/173
f 177/177/177 176/176/176 175/175/175
f 145/145/145 178/178/178 179/179/179
f 180/180/180 145/145/145 144/144/144
f 178/178/178 145/145/145 180/180/180
f 195/195/195 193/193/193 194/194/194
f 193/193/193 195/195/195 196/196/196
f 197/197/197 193/193/193 196/196/196
