mtllib ./ian1568.mtl
g ian1568
v -47.04941 19.09488 104.6519
v -17.69762 31.55037 97.50954
v -69.03218 19.614 -93.55843
v -38.82677 31.56039 -93.00411
v 8.642265 47.54027 93.67243
v -12.28175 47.55021 -94.99155
v 8.642265 47.54027 93.67243
v 12.55577 47.46904 93.2384
v -12.28175 47.55021 -94.99155
v -8.368245 47.47898 -95.42559
v 12.55577 47.46904 93.2384
v 38.67979 32.1408 91.25687
v -8.368245 47.47898 -95.42559
v 17.55063 32.15082 -99.25678
v 68.83643 18.75742 91.7995
v 46.85359 18.76785 -106.4109
v 68.83643 18.75742 91.7995
v 65.32655 17.37974 92.18886
v 46.85359 18.76785 -106.4109
v 43.34372 17.39017 -106.0215
v 65.32655 17.37974 92.18886
v 37.02813 30.5663 91.44014
v 43.34372 17.39017 -106.0215
v 15.89897 30.57633 -99.07348
v 10.29401 45.67057 93.48933
v -10.63008 45.6805 -95.17467
v 10.29401 45.67057 93.48933
v -16.04588 30.17268 97.32641
v -10.63008 45.6805 -95.17467
v -37.17504 30.18271 -93.18724
v -16.04588 30.17268 97.32641
v -42.91867 17.82925 104.1939
v -37.17504 30.18271 -93.18724
v -64.9015 17.83968 -94.01649
v -42.91867 17.82925 104.1939
v -47.04941 19.09488 104.6519
v -64.9015 17.83968 -94.01649
v -69.03218 19.614 -93.55843
v -42.91867 17.82925 104.1939
v -17.69762 31.55037 97.50954
v -47.04941 19.09488 104.6519
v -16.04588 30.17268 97.32641
v 8.642265 47.54027 93.67243
v 10.29401 45.67057 93.48933
v 12.55577 47.46904 93.2384
v 37.02813 30.5663 91.44014
v 38.67979 32.1408 91.25687
v 65.32655 17.37974 92.18886
v 68.83643 18.75742 91.7995
v -64.9015 17.83968 -94.01649
v -69.03218 19.614 -93.55843
v -38.82677 31.56039 -93.00411
v -37.17504 30.18271 -93.18724
v -12.28175 47.55021 -94.99155
v -10.63008 45.6805 -95.17467
v -8.368245 47.47898 -95.42559
v 15.89897 30.57633 -99.07348
v 17.55063 32.15082 -99.25678
v 46.85359 18.76785 -106.4109
v 43.34372 17.39017 -106.0215
v -56.70405 -51.61513 -86.45793
v -56.0004 15.27725 -80.4345
v -56.66929 15.27756 -86.46566
v -56.0004 15.27725 -80.4345
v -59.32177 19.85277 -80.06626
v -59.96854 19.84044 -86.1
v -56.66929 15.27756 -86.46566
v 41.07223 19.33876 -91.20058
v 36.90736 15.23336 -90.73855
v 36.23847 15.23367 -96.76971
v 40.40071 19.35784 -97.23158
v 36.90736 15.23336 -90.73855
v 36.21621 -51.65195 -96.76337
v 36.23847 15.23367 -96.76971
v -56.0004 15.27725 -80.4345
v -35.64039 30.37896 -82.69347
v -59.32177 19.85277 -80.06626
v 15.17074 31.55983 -88.3288
v 36.90736 15.23336 -90.73855
v 41.07223 19.33876 -91.20058
v -56.66929 15.27756 -86.46566
v -59.96854 19.84044 -86.1
v -36.30928 30.37928 -88.72463
v 14.50185 31.56015 -94.35997
v 40.40071 19.35784 -97.23158
v 36.23847 15.23367 -96.76971
v 36.21621 -51.65195 -96.76337
v -56.70405 -51.61513 -86.45793
v -10.00958 45.77872 -91.6423
v 55.58869 15.22448 77.70393
v 56.23532 -51.66147 83.74146
v -36.68493 -51.62464 94.04693
v -36.65018 15.26805 94.03915
v -37.31907 15.26838 88.00798
v -36.65018 15.26805 94.03915
v -39.94942 19.83093 94.40481
v -40.6405 19.84391 88.37623
v -37.31907 15.26838 88.00798
v 60.41983 19.34833 83.27325
v 56.25758 15.22416 83.73509
v 55.58869 15.22448 77.70393
v 59.75356 19.32989 77.2419
v 56.25758 15.22416 83.73509
v -36.65018 15.26805 94.03915
v -16.29016 30.36977 91.78023
v -39.94942 19.83093 94.40481
v 34.52097 31.55064 86.1449
v 56.25758 15.22416 83.73509
v 60.41983 19.34833 83.27325
v 56.23532 -51.66147 83.74146
v -36.68493 -51.62464 94.04693
v 10.00954 45.76921 88.86254
v -40.6405 19.84391 88.37623
v 55.58869 15.22448 77.70393
v -37.31907 15.26838 88.00798
v 59.75356 19.32989 77.2419
v -16.88484 30.37006 86.4182
v 59.75356 19.32989 77.2419
v 33.92628 31.55092 80.78286
v 9.414855 45.7695 83.5005
v 15.17074 31.55983 -88.3288
v -9.379745 45.77842 -85.96332
v -35.64039 30.37896 -82.69347
v -40.6405 19.84391 88.37623
v -59.32177 19.85277 -80.06626
v -56.0004 15.27725 -80.4345
v -37.31907 15.26838 88.00798
v 41.07223 19.33876 -91.20058
v 59.75356 19.32989 77.2419
v 55.58869 15.22448 77.70393
v 36.90736 15.23336 -90.73855

vn 0.002436776 0.9234896 0.3836159
vn 0.0009050146 0.9064103 0.4223975
vn 0.001285326 0.9261464 0.3771621
vn 8.62442E-05 0.8843196 0.4668821
vn 8.893386E-05 0.8570881 0.5151699
vn 8.894503E-05 0.857088 0.5151698
vn 5.077373E-05 0.9998364 -0.01808669
vn 5.077408E-05 0.9998364 -0.01808669
vn 5.077408E-05 0.9998364 -0.01808669
vn 5.077431E-05 0.9998364 -0.01808668
vn 1.918525E-06 0.8629939 -0.5052142
vn 5.725771E-06 0.8817098 -0.4717923
vn 1.899898E-06 0.8629939 -0.5052142
vn 9.354204E-06 0.8984029 -0.4391722
vn 1.270697E-05 0.9128065 -0.4083924
vn 1.264736E-05 0.9128063 -0.4083927
vn -7.993728E-05 -0.9316161 -0.363444
vn -7.995218E-05 -0.9316162 -0.3634438
vn -7.995218E-05 -0.9316162 -0.3634438
vn -7.993728E-05 -0.9316161 -0.3634436
vn -1.077726E-05 -0.9049498 0.4255181
vn -8.441508E-06 -0.8944221 0.4472241
vn -1.082569E-05 -0.9049497 0.4255185
vn -5.938113E-06 -0.883042 0.4692939
vn -3.434718E-06 -0.8711467 0.4910226
vn -3.382564E-06 -0.871147 0.4910224
vn -8.849055E-05 -0.8640642 -0.5033817
vn -8.840486E-05 -0.864064 -0.5033821
vn -8.840486E-05 -0.864064 -0.5033821
vn -8.831546E-05 -0.8640637 -0.5033826
vn -8.284301E-05 -0.9121263 -0.4099092
vn -8.288771E-05 -0.9121264 -0.409909
vn -8.288771E-05 -0.9121264 -0.409909
vn -8.290634E-05 -0.9121265 -0.4099088
vn -2.500042E-05 -0.9566265 0.2913173
vn -0.001217466 -0.9391603 0.3434771
vn -0.001217466 -0.9391603 0.3434771
vn -0.002360433 -0.9196878 0.3926432
vn 0.9863681 0.1497936 -0.06811702
vn 0.9921655 0.1126942 -0.05392301
vn 0.9829254 0.1760068 -0.05366242
vn 0.9979708 0.04786337 -0.04199302
vn 0.9995784 0.02074875 -0.02031273
vn 0.9997643 0.02170808 -0.0004782081
vn 0.999547 0.02292269 0.01950359
vn 0.9980261 0.04640298 0.04231894
vn 0.9936246 0.096939 0.05755901
vn 0.9890348 0.1284397 0.0728941
vn 0.9865761 0.152172 0.05925578
vn -0.9875533 0.1383206 -0.07487446
vn -0.9857712 0.1546189 -0.06594056
vn -0.9924769 0.1068242 -0.05981964
vn -0.9979065 0.04863235 -0.04263324
vn -0.9995443 0.02161611 -0.02107024
vn -0.9997441 0.02261917 -0.0003237724
vn -0.9995031 0.02387476 0.02058405
vn -0.9979475 0.04719645 0.04328412
vn -0.9935231 0.09754777 0.05827653
vn -0.9864588 0.1527542 0.05971104
vn -0.9889346 0.1289136 0.0734145
vn 8.560717E-05 0.0005291791 0.9999999
vn 8.560717E-05 0.0005291925 0.9999999
vn 8.607656E-05 0.0005291434 0.9999999
vn -0.00083033 -0.5890424 0.8081018
vn -0.001696326 -0.5897939 0.807552
vn -0.00083033 -0.5890424 0.8081018
vn 3.924966E-05 -0.5882866 0.8086525
vn -0.001351267 -0.7134057 -0.7007501
vn -9.690225E-05 -0.7143149 -0.6998245
vn -0.001351267 -0.7134057 -0.7007501
vn -0.002603136 -0.712496 -0.7016714
vn -8.560717E-05 -0.0003412888 -0.9999999
vn -8.561462E-05 -0.000341284 -1
vn -8.586049E-05 -0.000341266 -0.9999999
vn 1 5.850827E-05 -8.702278E-05
vn 1 5.886544E-05 -8.642673E-05
vn 1 3.822763E-05 -0.0001020432
vn 1 5.699515E-05 -8.350611E-05
vn 1 5.907711E-05 -8.46982E-05
vn 1 4.330744E-05 -7.325411E-05
vn -1 -5.781304E-05 8.565187E-05
vn -1 -5.589572E-05 8.904934E-05
vn -1 -5.889441E-05 8.571148E-05
vn -1 -5.790409E-05 8.547306E-05
vn -1 -5.89406E-05 8.493662E-05
vn -1 -5.823767E-05 8.559227E-05
vn -1 -5.753733E-05 8.565187E-05
vn -1 -5.755291E-05 8.565187E-05
vn -1 -5.566532E-05 8.559227E-05
vn -8.560717E-05 -0.0003412839 -1
vn -8.560717E-05 -0.0003412788 -1
vn 8.560717E-05 0.000529193 1
vn 8.525699E-05 0.0005291747 0.9999999
vn 8.559227E-05 0.0005292062 0.9999999
vn 0.0009107068 -0.5890457 0.8080992
vn 0.001787364 -0.5882862 0.8086509
vn -0.9983598 0.02553652 0.05124331
vn 3.769994E-05 -0.5898013 0.8075485
vn 0.001156762 -0.7134058 -0.7007502
vn -9.753555E-05 -0.7124983 -0.7016739
vn 0.001156762 -0.7134058 -0.7007502
vn 0.002413459 -0.7143126 -0.6998225
vn -8.540601E-05 -0.0003412593 -1
vn 1 5.800535E-05 -8.577108E-05
vn 1 5.665967E-05 -8.559227E-05
vn 0.9999999 5.471024E-05 -8.72612E-05
vn 1 5.639547E-05 -8.529425E-05
vn 1 5.752583E-05 -8.559227E-05
vn 1 5.412913E-05 -8.416176E-05
vn 1 5.816738E-05 -8.577108E-05
vn 1 5.835321E-05 -8.589029E-05
vn 1 5.74818E-05 -8.541346E-05
vn -1 -2.819907E-05 8.565187E-05
vn -1 -2.819907E-05 8.565187E-05
vn -1 -2.599863E-05 8.553267E-05
vn -1 -3.045611E-05 8.577108E-05
vn -0.9991558 0.04108226 0.0002660155
vn -0.9982582 0.05899671 0.0003444552
vn -0.9997042 0.0243143 0.0006484985
vn -1 -5.773408E-05 8.553267E-05
vn 0.9997116 0.02400992 0.0004678965
vn 0.9997116 0.02400992 0.0004678965
vn 0.9997116 0.02400992 0.0004678965
vn 3.813952E-05 -0.589798 0.8075507
vn 3.797561E-05 -0.5897948 0.8075532
vn 3.813952E-05 -0.589798 0.8075507
vn 3.825873E-05 -0.5898014 0.8075485
vn -9.728968E-05 -0.7143149 -0.6998245
vn -9.728968E-05 -0.7143149 -0.6998245
vn -9.728968E-05 -0.7143149 -0.6998245
vn -9.728968E-05 -0.7143149 -0.6998245

vt 2.998502 0.0004994571
vt 2.940452 0.5296535
vt 0.00149855 0.0005002916
vt 0.05982614 0.5296543
vt 2.926786 0.9994999
vt 0.07412776 0.9995005
vt 1.000115 0.6523311
vt 1.000115 0.2759616
vt 0.4950982 0.6523312
vt 0.4950982 0.2759616
vt 0.07321393 0.9995005
vt 0.05954826 0.5332116
vt 2.925873 0.9994999
vt 2.940174 0.5332109
vt 0.00149855 0.0005001724
vt 2.998502 0.0004994571
vt 19.99001 0.9994889
vt 19.99001 0.7593663
vt 0.009989738 0.9995002
vt 0.009989738 0.7593764
vt 9.995005 0.7438838
vt 9.801506 0.01847377
vt 0.004994869 0.7438848
vt 0.1994196 0.01847479
vt 9.755954 0.7512838
vt 0.2470914 0.7512848
vt 0.2440459 0.754877
vt 0.1984942 0.02053538
vt 9.752907 0.7548764
vt 9.800579 0.0205346
vt 0.1984942 0.02053538
vt 0.004995763 0.7606962
vt 9.800579 0.0205346
vt 9.995004 0.7606953
vt 0.009990335 0.7591531
vt 0.009990335 0.999501
vt 19.99001 0.7591473
vt 19.99001 0.9994943
vt 0.4938953 0.8908294
vt 0.4391169 0.9488676
vt 0.4997584 0.9132748
vt 0.4259306 0.9365844
vt 0.3813322 0.999491
vt 0.3756966 0.9810377
vt 0.3696627 0.9991398
vt 0.3180805 0.9321777
vt 0.3084464 0.9458095
vt 0.2605601 0.8929607
vt 0.2508329 0.9137689
vt 0.4947544 0.8922247
vt 0.4989938 0.910659
vt 0.4397974 0.9464006
vt 0.4351832 0.9319561
vt 0.3806563 0.9977122
vt 0.3760421 0.9781088
vt 0.3697234 0.9969653
vt 0.3173701 0.9333066
vt 0.3127559 0.9498148
vt 0.2509851 0.9149985
vt 0.258014 0.8922247
vt 0.0005208552 0.498226
vt 0.03387824 0.9994957
vt 0.0004995167 0.9995005
vt -0.210544 0.73264
vt -0.2816988 0.73264
vt -0.2739867 0.8202577
vt -0.2028319 0.8202577
vt 0.369831 0.73264
vt 0.469179 0.73264
vt 0.4768912 0.8202577
vt 0.3775432 0.8202577
vt 0.9661219 0.4994957
vt 0.9994793 0.0006415844
vt 0.9995005 0.4995005
vt 0.9564221 1.011909
vt 0.7545872 1.162115
vt 1 1.048946
vt 0.2568808 1.174461
vt 0.04128423 0.9933909
vt 0 1.046889
vt 0.7325804 0.3454965
vt 0.7490819 0.3690066
vt 0.6307465 0.423308
vt 0.3766077 0.4293924
vt 0.2470714 0.3665201
vt 0.2678896 0.3452703
vt 0.2680032 0.0006428957
vt 0.7327564 0.0008326173
vt 0.4992044 0.5026534
vt 0.03389952 0.4993632
vt 0.0004994869 0.0004995465
vt 0.9995005 0.4980841
vt 0.9994792 0.9993585
vt 0.9661005 0.9993632
vt -0.210544 0.73264
vt -0.2816988 0.73264
vt -0.2739867 0.8202577
vt -0.2028319 0.8202577
vt 0.369831 0.73264
vt 0.469179 0.73264
vt 0.4768912 0.8202577
vt 0.3775432 0.8202577
vt 0.0005208254 0.4993585
vt 0.2733957 0.3379244
vt 0.3726558 0.4137692
vt 0.2573113 0.3608404
vt 0.6203715 0.4196998
vt 0.7263418 0.337704
vt 0.7466339 0.3584166
vt 0.7262311 0.001786705
vt 0.2732243 0.001971684
vt 0.5008733 0.4911093
vt 0.9941292 0.05455717
vt 0.0421085 0.01349441
vt 0.9590038 0.0183253
vt 0.007977905 0.05214174
vt 0.5 0.5
vt 0.3775432 0.8202577
vt 0.5 0.5
vt 0.5 0.5
vt 0.2568808 1.174461
vt 0.5 0.5
vt 0.7545872 1.162115
vt 0.0005003969 0.2941868
vt 0.9995005 0.2941692
vt 0.9994997 0.0004997551
vt 0.0004996657 0.0005161623
vt 0.9995013 0.3893884
vt 0.0005010366 0.3894024
vt 0.0005002777 0.4995005
vt 0.9995006 0.4994864

usemtl sn13_14_sn13h02.JPG
usemap sn13_14_sn13h02.JPG
f 3/3/3 1/1/1 2/2/2
f 2/2/2 4/4/4 3/3/3
f 4/4/4 2/2/2 5/5/5
f 5/5/5 6/6/6 4/4/4
f 13/13/13 11/11/11 12/12/12
f 12/12/12 14/14/14 13/13/13
f 14/14/14 12/12/12 15/15/15
f 15/15/15 16/16/16 14/14/14
f 41/41/41 39/39/39 40/40/40
f 39/39/39 42/42/42 40/40/40
f 40/40/40 42/42/42 43/43/43
f 42/42/42 44/44/44 43/43/43
f 43/43/43 44/44/44 45/45/45
f 44/44/44 46/46/46 45/45/45
f 49/49/49 47/47/47 48/48/48
f 48/48/48 47/47/47 46/46/46
f 45/45/45 46/46/46 47/47/47
f 52/52/52 50/50/50 51/51/51
f 52/52/52 53/53/53 50/50/50
f 54/54/54 53/53/53 52/52/52
f 54/54/54 55/55/55 53/53/53
f 56/56/56 55/55/55 54/54/54
f 56/56/56 57/57/57 55/55/55
f 60/60/60 58/58/58 59/59/59
f 57/57/57 58/58/58 60/60/60
f 58/58/58 57/57/57 56/56/56

usemtl sn13_18_sn13h01.jpg
usemap sn13_18_sn13h01.jpg
f 9/9/9 7/7/7 8/8/8
f 8/8/8 10/10/10 9/9/9
f 63/63/63 61/61/61 62/62/62
f 66/66/66 64/64/64 65/65/65
f 67/67/67 64/64/64 66/66/66
f 70/70/70 68/68/68 69/69/69
f 71/71/71 68/68/68 70/70/70
f 74/74/74 72/72/72 73/73/73
f 77/77/77 75/75/75 76/76/76
f 80/80/80 78/78/78 79/79/79
f 75/75/75 79/79/79 76/76/76
f 79/79/79 78/78/78 76/76/76
f 83/83/83 81/81/81 82/82/82
f 86/86/86 84/84/84 85/85/85
f 81/81/81 87/87/87 88/88/88
f 81/81/81 86/86/86 87/87/87
f 83/83/83 86/86/86 81/81/81
f 83/83/83 84/84/84 86/86/86
f 89/89/89 84/84/84 83/83/83
f 90/90/90 73/73/73 72/72/72
f 73/73/73 90/90/90 91/91/91
f 94/94/94 92/92/92 93/93/93
f 97/97/97 95/95/95 96/96/96
f 98/98/98 95/95/95 97/97/97
f 101/101/101 99/99/99 100/100/100
f 102/102/102 99/99/99 101/101/101
f 90/90/90 103/103/103 91/91/91
f 106/106/106 104/104/104 105/105/105
f 109/109/109 107/107/107 108/108/108
f 111/111/111 110/110/110 104/104/104
f 110/110/110 108/108/108 104/104/104
f 104/104/104 108/108/108 105/105/105
f 108/108/108 107/107/107 105/105/105
f 105/105/105 107/107/107 112/112/112
f 115/115/115 113/113/113 114/114/114
f 114/114/114 113/113/113 116/116/116
f 62/62/62 92/92/92 94/94/94
f 92/92/92 62/62/62 61/61/61
f 118/118/118 97/97/97 117/117/117
f 118/118/118 117/117/117 119/119/119
f 117/117/117 120/120/120 119/119/119
f 123/123/123 121/121/121 122/122/122
f 130/130/130 128/128/128 129/129/129
f 128/128/128 130/130/130 131/131/131

usemtl sn13_15_sn13h03.jpg
usemap sn13_15_sn13h03.jpg
f 19/19/19 17/17/17 18/18/18
f 18/18/18 20/20/20 19/19/19
f 23/23/23 21/21/21 22/22/22
f 22/22/22 24/24/24 23/23/23
f 24/24/24 22/22/22 25/25/25
f 25/25/25 26/26/26 24/24/24
f 29/29/29 27/27/27 28/28/28
f 28/28/28 30/30/30 29/29/29
f 33/33/33 31/31/31 32/32/32
f 32/32/32 34/34/34 33/33/33
f 37/37/37 35/35/35 36/36/36
f 36/36/36 38/38/38 37/37/37

usemtl sn13_12_sn13h04.JPG
usemap sn13_12_sn13h04.JPG
f 126/126/126 124/124/124 125/125/125
f 124/124/124 126/126/126 127/127/127
