mtllib ./Line03.mtl
g Line03
v -6.994685 5.737987 13.54854
v -1.661844 4.402094 12.23258
v -0.7094342 10.0883 10.31611
v -6.042257 11.42417 11.63208
v 4.088568 2.660849 9.921432
v 5.040996 8.347028 8.004972
v 4.088568 2.660849 9.921432
v 3.717928 2.116141 8.122002
v 4.670405 7.802355 6.205534
v 5.040996 8.347028 8.004972
v 4.126901 1.533238 6.596067
v 5.079378 7.219452 4.6796
v 4.126901 1.533238 6.596067
v 6.095139 0.8738958 5.617135
v 7.047615 6.56011 3.700667
v 5.079378 7.219452 4.6796
v 8.935834 0.7693906 6.716744
v 9.888262 6.455569 4.800283
v 11.68767 0.9998323 8.765768
v 12.64014 6.686052 6.849315
v 14.63129 0.2709849 8.064607
v 15.5837 5.957186 6.148136
v 14.63129 0.2709849 8.064607
v 15.21003 -0.06461763 7.356463
v 16.1625 5.621602 5.44001
v 15.5837 5.957186 6.148136
v 15.67553 -0.3898537 6.622809
v 16.628 5.29636 4.706341
v 16.08442 -0.7098773 5.87639
v 17.03685 4.976301 3.959929
v 16.08442 -0.7098773 5.87639
v 19.0725 -0.9201649 6.735522
v 20.02497 4.766049 4.819054
v 17.03685 4.976301 3.959929
v 21.74978 -1.330386 6.847235
v 22.70226 4.355829 4.930767
v 23.80542 -2.140607 5.464171
v 24.75783 3.545595 3.5477
v 23.80542 -2.140607 5.464171
v 26.56801 -4.245605 0.591634
v 27.52049 1.440609 -1.324834
v 24.75783 3.545595 3.5477
v 28.2335 -6.069137 -3.990466
v 29.18591 -0.3829352 -5.906938
v 29.35035 -7.751925 -8.427361
v 30.30283 -2.06571 -10.34383
v 29.35035 -7.751925 -8.427361
v 15.32997 -6.255728 -10.94669
v 16.28244 -0.5695135 -12.86316
v 30.30283 -2.06571 -10.34383
v 7.012243 -4.788425 -10.72209
v 7.964671 0.8977531 -12.63856
v 0.8258787 -3.012559 -8.524581
v 1.778355 2.673655 -10.44105
v 0.8258787 -3.012559 -8.524581
v -1.097607 -0.6194808 -2.381243
v -0.1451789 5.066698 -4.297704
v 1.778355 2.673655 -10.44105
v -3.490738 0.8264048 0.7197148
v -2.538311 6.512584 -1.196746
v -3.490738 0.8264048 0.7197148
v -8.632332 2.171045 2.156512
v -7.679904 7.857224 0.2400505
v -2.538311 6.512584 -1.196746
v -15.14818 3.464987 2.761235
v -14.1957 9.151206 0.8447818
v -15.14818 3.464987 2.761235
v -14.65268 4.807251 6.988141
v -13.7002 10.49347 5.071673
v -14.1957 9.151206 0.8447818
v -13.61484 5.842318 10.57309
v -12.66241 11.5285 8.656629
v -13.61484 5.842318 10.57309
v -11.49238 6.26306 12.87411
v -10.53995 11.94924 10.95765
v -12.66241 11.5285 8.656629
v 28.2335 -6.069137 -3.990466
v 15.32997 -6.255728 -10.94669
v 29.35035 -7.751925 -8.427361
v -8.632332 2.171045 2.156512
v -14.65268 4.807251 6.988141
v -15.14818 3.464987 2.761235
v 26.56801 -4.245605 0.591634
v -1.661844 4.402094 12.23258
v 3.717928 2.116141 8.122002
v 4.088568 2.660849 9.921432
v 23.80542 -2.140607 5.464171
v 21.74978 -1.330386 6.847235
v 19.0725 -0.9201649 6.735522
v 16.08442 -0.7098773 5.87639
v 7.012243 -4.788425 -10.72209
v 0.8258787 -3.012559 -8.524581
v -1.097607 -0.6194808 -2.381243
v 15.67553 -0.3898537 6.622809
v 15.21003 -0.06461763 7.356463
v 14.63129 0.2709849 8.064607
v 11.68767 0.9998323 8.765768
v 8.935834 0.7693906 6.716744
v 6.095139 0.8738958 5.617135
v -3.490738 0.8264048 0.7197148
v 4.126901 1.533238 6.596067
v -6.994685 5.737987 13.54854
v -11.49238 6.26306 12.87411
v -13.61484 5.842318 10.57309
v 29.18591 -0.3829352 -5.906938
v 30.30283 -2.06571 -10.34383
v 16.28244 -0.5695135 -12.86316
v -7.679904 7.857224 0.2400505
v -14.1957 9.151206 0.8447818
v -13.7002 10.49347 5.071673
v 27.52049 1.440609 -1.324834
v -0.7094342 10.0883 10.31611
v 5.040996 8.347028 8.004972
v 4.670405 7.802355 6.205534
v 24.75783 3.545595 3.5477
v 22.70226 4.355829 4.930767
v 20.02497 4.766049 4.819054
v 17.03685 4.976301 3.959929
v 7.964671 0.8977531 -12.63856
v 1.778355 2.673655 -10.44105
v -0.1451789 5.066698 -4.297704
v 16.628 5.29636 4.706341
v 16.1625 5.621602 5.44001
v 15.5837 5.957186 6.148136
v 12.64014 6.686052 6.849315
v 9.888262 6.455569 4.800283
v 7.047615 6.56011 3.700667
v -2.538311 6.512584 -1.196746
v 5.079378 7.219452 4.6796
v -6.042257 11.42417 11.63208
v -10.53995 11.94924 10.95765
v -12.66241 11.5285 8.656629

vn 0.2082166 0.9557348 0.2078857
vn 0.3462174 0.872022 0.3459925
vn 0.3171246 0.8938803 0.3168752
vn 0.1155062 0.9866135 0.115116
vn 0.3722255 0.8503209 0.3720248
vn 0.3722255 0.8503215 0.3720235
vn 0.6730443 -0.3055787 0.6735228
vn 0.7066878 -0.02562268 0.7070614
vn 0.6959947 -0.174873 0.696427
vn 0.6730491 -0.3055684 0.6735227
vn 0.7005239 0.1345941 0.7008215
vn 0.7005239 0.1345941 0.7008215
vn 0.4180444 0.8066007 0.4178923
vn 0.0005493015 0.9999998 9.667873E-05
vn 0.2065448 0.956459 0.2062165
vn 0.4180444 0.8066006 0.4178925
vn -0.2908569 0.9113061 -0.2914158
vn -0.2273648 0.9467643 -0.2279084
vn 0.06251322 0.9961106 0.06209356
vn -0.1662455 0.9718801 -0.1667674
vn 0.2793245 0.9187555 0.2790447
vn 0.2793263 0.918753 0.2790511
vn 0.6093583 0.5072198 0.6094345
vn 0.6341251 0.4422804 0.6342503
vn 0.6219555 0.4756252 0.6220549
vn 0.6093503 0.5072481 0.6094191
vn 0.6566933 0.3705284 0.6568581
vn 0.651311 0.3890795 0.6514685
vn 0.6618752 0.3515931 0.6620449
vn 0.6618783 0.351572 0.662053
vn -0.09042973 0.9917433 -0.09092546
vn 0.0222636 0.999514 0.0218215
vn -0.03696118 0.9986154 -0.03743273
vn -0.09042939 0.9917434 -0.09092438
vn 0.3666024 0.8551927 0.3663986
vn 0.2266719 0.9473023 0.2263583
vn 0.4869523 0.7251501 0.4868622
vn 0.4869541 0.7251441 0.4868692
vn 0.6584126 0.364374 0.6585776
vn 0.6807072 0.2701367 0.6809287
vn 0.6698642 0.3198514 0.6700574
vn 0.6584148 0.3643789 0.6585726
vn 0.6986007 0.1533796 0.6988789
vn 0.6947907 0.184844 0.6950529
vn 0.7018146 0.1203511 0.7021196
vn 0.7018178 0.1203578 0.7021152
vn 0.01408456 -0.9997948 0.01454544
vn -0.0678878 -0.9954089 -0.06747037
vn -0.02033049 -0.9995954 -0.01988733
vn 0.01408452 -0.9997949 0.0145455
vn -0.2699951 -0.924315 -0.2697115
vn -0.1992503 -0.9595479 -0.1989148
vn -0.3475542 -0.8709552 -0.3473369
vn -0.3475564 -0.8709545 -0.3473366
vn -0.6962849 -0.1731888 -0.6965579
vn -0.662643 -0.3486843 -0.6628146
vn -0.6848711 -0.2481629 -0.6851032
vn -0.696282 -0.1731918 -0.69656
vn -0.6185706 -0.484388 -0.6186587
vn -0.6185706 -0.484388 -0.6186587
vn -0.3043942 -0.9026878 -0.3041362
vn -0.2193868 -0.9507256 -0.2190667
vn -0.2597067 -0.9301918 -0.2594138
vn -0.3043943 -0.9026878 -0.3041362
vn -0.1832337 -0.9659066 -0.1828927
vn -0.1832365 -0.965906 -0.1828924
vn -0.6888809 0.2241885 -0.6893349
vn -0.6689392 0.3230943 -0.6694252
vn -0.680282 0.2716455 -0.6807532
vn -0.688881 0.2241889 -0.6893345
vn -0.6542417 0.3785289 -0.6547393
vn -0.6542408 0.3785242 -0.6547429
vn -0.4601413 0.7589543 -0.4607148
vn -0.1181488 0.9858811 -0.118655
vn -0.2811511 0.9173847 -0.2817073
vn -0.4601413 0.7589543 -0.4607148
vn -0.707141 0.0004053116 0.7070721
vn -0.707142 0.0004056692 0.7070712
vn -0.7071411 0.0004053712 0.7070722
vn -0.7071412 0.0004059076 0.7070721
vn -0.7071384 0.0004059076 0.707075
vn -0.7071358 0.0004085302 0.7070775
vn -0.7071412 0.0004053116 0.7070723
vn -0.7071423 0.0004063845 0.7070709
vn -0.7071404 0.0004063845 0.707073
vn -0.7071345 0.0004141331 0.7070789
vn -0.7071411 0.0004053116 0.7070721
vn -0.7071383 0.0004034042 0.707075
vn -0.7071438 0.0004053712 0.7070696
vn -0.7071416 0.0004041195 0.7070717
vn -0.707141 0.0004053116 0.7070722
vn -0.7071397 0.0004044771 0.7070735
vn -0.7071406 0.000403583 0.7070727
vn -0.707136 0.0003827214 0.7070773
vn -0.707145 0.0004153848 0.7070682
vn -0.7071412 0.0004053116 0.7070723
vn -0.7071409 0.0004027486 0.7070724
vn -0.7071469 0.0004168749 0.7070664
vn -0.7071411 0.0004053712 0.7070722
vn -0.707142 0.0004056692 0.7070714
vn -0.7071412 0.0004053116 0.7070723
vn -0.707141 0.0004057884 0.7070723
vn -0.7071393 0.0004073977 0.707074
vn -0.7071312 0.0003995299 0.7070822
vn 0.7071421 -0.0004050136 -0.7070712
vn 0.707141 -0.0004008412 -0.7070723
vn 0.7071406 -0.0004041195 -0.7070726
vn 0.7071423 -0.0004068017 -0.7070711
vn 0.7071401 -0.0004099011 -0.7070731
vn 0.7071413 -0.0004050732 -0.707072
vn 0.707141 -0.0004053712 -0.7070722
vn 0.7071408 -0.0004057884 -0.7070724
vn 0.7071456 -0.000395298 -0.7070677
vn 0.7071386 -0.0004045963 -0.7070748
vn 0.7071418 -0.0004046559 -0.7070714
vn 0.707141 -0.0004053116 -0.7070722
vn 0.7071384 -0.0004027486 -0.7070749
vn 0.7071404 -0.0004036427 -0.7070728
vn 0.7071411 -0.0004053712 -0.7070722
vn 0.7071409 -0.0004033446 -0.7070723
vn 0.70714 -0.0004041195 -0.7070733
vn 0.7071404 -0.0004057884 -0.707073
vn 0.7071404 -0.0004059672 -0.7070729
vn 0.7071406 -0.0004065037 -0.7070727
vn 0.7071382 -0.0004016161 -0.707075
vn 0.7071469 -0.0004167557 -0.7070665
vn 0.7071421 -0.0004133582 -0.7070711
vn 0.7071396 -0.0004070401 -0.7070737
vn 0.7071385 -0.0004078746 -0.7070749
vn 0.7071421 -0.0004050732 -0.7070712
vn 0.7071373 -0.0003979802 -0.707076
vn 0.7071204 -0.0003815293 -0.707093

vt 0.2190621 0.03190072
vt 0.3388543 0.03190066
vt 0.3388543 0.2265536
vt 0.2190621 0.2265536
vt 0.4655584 0.0319006
vt 0.4655584 0.2265536
vt 0.194093 0.0319006
vt 0.2559151 0.0319006
vt 0.2559151 0.2265536
vt 0.194093 0.2265536
vt 0.3124577 0.0319006
vt 0.3124577 0.2265536
vt 0.4572467 0.0319006
vt 0.5000947 0.03190057
vt 0.5000947 0.2265536
vt 0.4572467 0.2265536
vt 0.5688867 0.03190054
vt 0.5688867 0.2265534
vt 0.6382494 0.03190054
vt 0.6382494 0.2265534
vt 0.7044414 0.03190057
vt 0.7044414 0.2265536
vt 0.3200741 0.03190057
vt 0.348528 0.0319006
vt 0.348528 0.2265536
vt 0.3200741 0.2265536
vt 0.3772437 0.0319006
vt 0.3772437 0.2265536
vt 0.4060902 0.03190063
vt 0.4060902 0.2265536
vt 0.7320219 0.03190063
vt 0.8035606 0.03190063
vt 0.8035606 0.2265536
vt 0.7320219 0.2265536
vt 0.8658373 0.03190063
vt 0.8658373 0.2265536
vt 0.90959 0.03190063
vt 0.90959 0.2265536
vt 0.464685 0.03190063
vt 0.6535252 0.0319006
vt 0.6535252 0.2265536
vt 0.464685 0.2265536
vt 0.825802 0.0319006
vt 0.825802 0.2265536
vt 0.9897972 0.0319006
vt 0.9897972 0.2265536
vt 0.0004995465 0.0319006
vt 0.3319829 0.0319006
vt 0.3319829 0.2265536
vt 0.0004995465 0.2265536
vt 0.5238827 0.03190057
vt 0.5238827 0.2265534
vt 0.6609909 0.03190054
vt 0.6609909 0.2265534
vt 0.1691129 0.03190054
vt 0.398327 0.0319006
vt 0.398327 0.2265536
vt 0.1691129 0.2265534
vt 0.5221225 0.03190066
vt 0.5221225 0.2265536
vt 0.7353282 0.03190066
vt 0.8503595 0.03190069
vt 0.8503595 0.2265536
vt 0.7353282 0.2265536
vt 0.9995005 0.03190072
vt 0.9995005 0.2265536
vt 0.6610106 0.03190072
vt 0.8083673 0.03190072
vt 0.8083673 0.2265536
vt 0.6610106 0.2265536
vt 0.9298289 0.03190072
vt 0.9298289 0.2265536
vt 0.05760115 0.03190072
vt 0.1130935 0.03190072
vt 0.1130935 0.2265536
vt 0.05760115 0.2265536
vt -0.002110912 0.352616
vt 0.1999308 0.2509662
vt 0.003140092 0.2543989
vt 0.7659273 0.7184813
vt 0.9830945 0.802154
vt 0.9560386 0.7331524
vt 0.001805775 0.4968042
vt 0.5671039 0.9743119
vt 0.4381428 0.8634111
vt 0.4528335 0.9158746
vt 0.005217656 0.6921135
vt 0.05215422 0.7027725
vt 0.09565262 0.6952133
vt 0.1295818 0.7068056
vt 0.3857423 0.2466849
vt 0.5449684 0.3067048
vt 0.6321827 0.4419452
vt 0.1464082 0.7325408
vt 0.1551617 0.7612851
vt 0.1728903 0.7866274
vt 0.2674093 0.8063551
vt 0.3368415 0.7931235
vt 0.3868617 0.7827629
vt 0.6413606 0.6380867
vt 0.4328926 0.8068119
vt 0.7152768 0.9761363
vt 0.9218345 0.9495168
vt 0.9773823 0.8797756
vt -0.002110912 0.352616
vt 0.003140092 0.2543989
vt 0.1999308 0.2509662
vt 0.7659273 0.7184813
vt 0.9560386 0.7331524
vt 0.9830945 0.802154
vt 0.001805775 0.4968042
vt 0.5671039 0.9743119
vt 0.4528335 0.9158746
vt 0.4381428 0.8634111
vt 0.005217656 0.6921135
vt 0.05215422 0.7027725
vt 0.09565262 0.6952133
vt 0.1295818 0.7068056
vt 0.3857423 0.2466849
vt 0.5449684 0.3067048
vt 0.6321827 0.4419452
vt 0.1464082 0.7325408
vt 0.1551617 0.7612851
vt 0.1728903 0.7866274
vt 0.2674093 0.8063551
vt 0.3368415 0.7931235
vt 0.3868617 0.7827629
vt 0.6413606 0.6380867
vt 0.4328926 0.8068119
vt 0.7152768 0.9761363
vt 0.9218345 0.9495168
vt 0.9773823 0.8797756

usemtl sn13_22_sn13h14.jpg
usemap sn13_22_sn13h14.jpg
f 3/3/3 1/1/1 2/2/2
f 4/4/4 1/1/1 3/3/3
f 6/6/6 2/2/2 5/5/5
f 3/3/3 2/2/2 6/6/6
f 9/9/9 7/7/7 8/8/8
f 10/10/10 7/7/7 9/9/9
f 12/12/12 8/8/8 11/11/11
f 9/9/9 8/8/8 12/12/12
f 15/15/15 13/13/13 14/14/14
f 16/16/16 13/13/13 15/15/15
f 18/18/18 14/14/14 17/17/17
f 15/15/15 14/14/14 18/18/18
f 20/20/20 17/17/17 19/19/19
f 18/18/18 17/17/17 20/20/20
f 22/22/22 19/19/19 21/21/21
f 20/20/20 19/19/19 22/22/22
f 25/25/25 23/23/23 24/24/24
f 26/26/26 23/23/23 25/25/25
f 28/28/28 24/24/24 27/27/27
f 25/25/25 24/24/24 28/28/28
f 30/30/30 27/27/27 29/29/29
f 28/28/28 27/27/27 30/30/30
f 33/33/33 31/31/31 32/32/32
f 34/34/34 31/31/31 33/33/33
f 36/36/36 32/32/32 35/35/35
f 33/33/33 32/32/32 36/36/36
f 38/38/38 35/35/35 37/37/37
f 36/36/36 35/35/35 38/38/38
f 41/41/41 39/39/39 40/40/40
f 42/42/42 39/39/39 41/41/41
f 44/44/44 40/40/40 43/43/43
f 41/41/41 40/40/40 44/44/44
f 46/46/46 43/43/43 45/45/45
f 44/44/44 43/43/43 46/46/46
f 49/49/49 47/47/47 48/48/48
f 50/50/50 47/47/47 49/49/49
f 52/52/52 48/48/48 51/51/51
f 49/49/49 48/48/48 52/52/52
f 54/54/54 51/51/51 53/53/53
f 52/52/52 51/51/51 54/54/54
f 57/57/57 55/55/55 56/56/56
f 58/58/58 55/55/55 57/57/57
f 60/60/60 56/56/56 59/59/59
f 57/57/57 56/56/56 60/60/60
f 63/63/63 61/61/61 62/62/62
f 64/64/64 61/61/61 63/63/63
f 66/66/66 62/62/62 65/65/65
f 63/63/63 62/62/62 66/66/66
f 69/69/69 67/67/67 68/68/68
f 70/70/70 67/67/67 69/69/69
f 72/72/72 68/68/68 71/71/71
f 69/69/69 68/68/68 72/72/72
f 75/75/75 73/73/73 74/74/74
f 76/76/76 73/73/73 75/75/75
f 4/4/4 74/74/74 1/1/1
f 75/75/75 74/74/74 4/4/4
f 79/79/79 77/77/77 78/78/78
f 82/82/82 80/80/80 81/81/81
f 77/77/77 83/83/83 78/78/78
f 86/86/86 84/84/84 85/85/85
f 83/83/83 87/87/87 78/78/78
f 87/87/87 88/88/88 78/78/78
f 88/88/88 89/89/89 78/78/78
f 89/89/89 90/90/90 78/78/78
f 78/78/78 90/90/90 91/91/91
f 91/91/91 90/90/90 92/92/92
f 92/92/92 90/90/90 93/93/93
f 90/90/90 94/94/94 93/93/93
f 94/94/94 95/95/95 93/93/93
f 95/95/95 96/96/96 93/93/93
f 96/96/96 97/97/97 93/93/93
f 97/97/97 98/98/98 93/93/93
f 98/98/98 99/99/99 93/93/93
f 93/93/93 99/99/99 100/100/100
f 99/99/99 101/101/101 100/100/100
f 101/101/101 85/85/85 100/100/100
f 85/85/85 84/84/84 100/100/100
f 100/100/100 84/84/84 80/80/80
f 84/84/84 102/102/102 80/80/80
f 80/80/80 102/102/102 81/81/81
f 102/102/102 103/103/103 81/81/81
f 81/81/81 103/103/103 104/104/104
f 107/107/107 105/105/105 106/106/106
f 110/110/110 108/108/108 109/109/109
f 107/107/107 111/111/111 105/105/105
f 114/114/114 112/112/112 113/113/113
f 107/107/107 115/115/115 111/111/111
f 107/107/107 116/116/116 115/115/115
f 107/107/107 117/117/117 116/116/116
f 107/107/107 118/118/118 117/117/117
f 119/119/119 118/118/118 107/107/107
f 120/120/120 118/118/118 119/119/119
f 121/121/121 118/118/118 120/120/120
f 121/121/121 122/122/122 118/118/118
f 121/121/121 123/123/123 122/122/122
f 121/121/121 124/124/124 123/123/123
f 121/121/121 125/125/125 124/124/124
f 121/121/121 126/126/126 125/125/125
f 121/121/121 127/127/127 126/126/126
f 128/128/128 127/127/127 121/121/121
f 128/128/128 129/129/129 127/127/127
f 128/128/128 114/114/114 129/129/129
f 128/128/128 112/112/112 114/114/114
f 108/108/108 112/112/112 128/128/128
f 108/108/108 130/130/130 112/112/112
f 110/110/110 130/130/130 108/108/108
f 110/110/110 131/131/131 130/130/130
f 132/132/132 131/131/131 110/110/110
