mtllib ./Object143.mtl
g Object143
v 17.9906 2.192764 -3.42868
v 35.19556 -7.813377 -21.14511
v 0.3449707 -11.50777 -15.13928
v 0.8968506 -4.012474 18.30521
v 38.24304 -3.394539 11.78677
v -33.17163 -6.814537 11.75296
v -15.22815 -15.79656 26.67941
v -15.36621 -14.81379 -3.583649
v -45.82397 -23.11978 -8.790924
v -47.66968 -19.59036 25.43234
v 21.90002 -6.004974 -0.922821
v 50.24182 -15.29951 13.17264
v 26.00244 -21.96075 -35.07242
v -16.62866 -11.36037 -15.25012
v 7.70813 -4.292801 32.91745
v -8.323242 26.17025 -17.79599
v 15.58655 21.32491 -9.738556
v 1.703613 12.61593 -44.99643
v -29.42859 15.12976 -29.6824
v -15.94519 21.46767 6.778717
v 14.12012 12.62715 1.89975
v 23.0459 -0.4537735 -0.7062683
v 17.10852 8.170746 -15.02338
v -4.971802 7.351234 -3.643463
v 0.8352051 -1.511337 10.73032
v -36.17383 -5.370285 19.7186
v -11.70508 -5.495346 23.32675
v -22.75452 -9.166496 -3.116852
v -50.24146 -18.75193 7.692413
v -38.2262 -14.48383 32.97604
v -1.394043 22.45657 14.16745
v 12.30957 13.42278 26.84079
v 15.09973 12.43537 -3.835114
v -17.87207 10.11756 0.2905579
v -17.57434 9.632202 28.39969
v -5.060303 31.211 -19.13306
v 7.041138 28.63551 -8.419891
v 3.149292 29.88039 -31.19714
v -18.7002 23.9257 -31.33328
v -18.11426 27.91096 -6.998322
v -26.00916 -15.2645 19.47025
v 3.865112 -16.77335 24.41428
v -14.04761 -14.77468 -13.7005
v -45.87915 -36.5271 10.15335
v -27.15125 -23.44608 44.99594
v -19.89221 30.53369 -2.269745
v 10.20117 30.64269 7.296356
v -9.911621 22.96192 -27.3222
v -45.19397 15.06451 -12.98007
v -24.16333 15.41634 23.24118
v -14.25317 36.1112 5.756744
v 5.474121 36.5276 2.793121
v -16.11682 26.47372 -13.18768
v -30.50171 21.33632 5.938446
v -8.312378 27.35438 21.48367
v -4.247192 15.05413 3.487274
v 32.43445 7.33094 4.890961
v -5.728027 -1.203545 -23.09515
v -36.02502 -3.391251 13.35989
v 2.108032 4.839676 41.70029
v 11.54663 -11.3916 -5.99826
v 23.14502 -24.7644 20.13052
v 39.72791 -19.22332 -27.26755
v -2.556641 -17.13708 -41.90628
v -19.13513 -22.13851 5.586029

vn -0.08833243 0.9812446 -0.1713371
vn 0.1002321 0.9048672 -0.4137256
vn -0.376058 0.8323541 -0.407145
vn -0.2577084 0.9635063 0.07240225
vn 0.2054004 0.9750113 0.08463922
vn -0.1844022 0.9818808 -0.0436588
vn 0.1740836 0.9220927 0.3456007
vn 0.1458258 0.9364277 -0.3191209
vn -0.4507342 0.8133124 -0.3679154
vn -0.4934774 0.8318704 0.253913
vn 0.1468506 0.9662651 -0.2115814
vn 0.3703353 0.9184365 -0.1390186
vn 0.2189782 0.8938232 -0.3913165
vn -0.03715289 0.9647081 -0.2606874
vn 0.06807221 0.9974396 -0.02191815
vn -0.0527475 0.9811842 -0.1857286
vn 0.2264409 0.9699827 -0.08864541
vn 0.06450635 0.9024555 -0.4259261
vn -0.3249812 0.9075593 -0.2659387
vn -0.1903414 0.9734372 0.1272402
vn 0.1953565 0.8709467 0.4508743
vn 0.7159091 0.3706201 0.591705
vn 0.2822244 0.9388229 -0.1973852
vn -0.3057455 0.9386275 0.1596811
vn 0.04750128 0.4966542 0.8666477
vn -0.3252527 0.9456272 -0.0001104645
vn -0.01547145 0.9901379 0.1392387
vn -0.2093048 0.9372599 -0.2788105
vn -0.6122572 0.7766778 -0.1480288
vn -0.4495664 0.7670681 0.4577078
vn -0.09785069 0.9951207 -0.01264746
vn 0.2681575 0.8975989 0.3498679
vn 0.1940631 0.9218819 -0.3353703
vn -0.384819 0.86772 -0.3146052
vn -0.3876113 0.8593222 0.3336506
vn -0.1417278 0.988925 -0.0440525
vn 0.07805511 0.9857796 0.1488152
vn -0.05217678 0.9881294 -0.1444923
vn -0.3151576 0.9274118 -0.2014519
vn -0.2120337 0.9765435 0.03747549
vn -0.3812437 0.9230526 0.05125492
vn 0.02483149 0.9881415 0.1515246
vn -0.339799 0.9341908 -0.1087386
vn -0.7167672 0.6949505 -0.05734694
vn -0.4198357 0.869581 0.2599366
vn -0.2907026 0.954895 0.06056211
vn -0.04638327 0.989809 0.1346358
vn -0.1386583 0.9313382 -0.3367242
vn -0.5160854 0.8563548 -0.01766906
vn -0.3852272 0.820749 0.4218661
vn -0.3835584 0.9213697 0.06293529
vn -0.02409644 0.9995103 -0.01996354
vn -0.3871556 0.8366221 -0.387523
vn -0.6661316 0.7341866 0.1312963
vn -0.2848698 0.7877182 0.5462134
vn -0.163027 0.9839867 -0.07205692
vn 0.2088849 0.9710566 -0.1158283
vn -0.1941582 0.8416412 -0.5039274
vn -0.5063635 0.862107 -0.01916814
vn -0.1155722 0.9546453 0.2744005
vn 0.01540428 0.9931617 0.1157256
vn 0.1714168 0.9057936 0.3874973
vn 0.271764 0.9623469 0.005727883
vn -0.1124022 0.987125 -0.1137981
vn -0.2479684 0.9437446 0.2187644

vt 0.5 0.5
vt 0.0004995465 0.0004997253
vt 0.9995002 0.0004994869
vt 0.9995004 0.9995003
vt 0.0004997849 0.9995005
vt 0.5 0.5
vt 0.0004995763 0.0004997253
vt 0.9995002 0.0004994869
vt 0.9995004 0.9995003
vt 0.0004997849 0.9995005
vt 0.5 0.5
vt 0.0004995465 0.0004997849
vt 0.9995002 0.0004995465
vt 0.9995004 0.9995002
vt 0.0004997849 0.9995005
vt 0.5 0.5
vt 0.0004995167 0.0004997551
vt 0.9995003 0.0004995167
vt 0.9995005 0.9995003
vt 0.0004997551 0.9995005
vt 0.5 0.5
vt 0.0004994869 0.0004997551
vt 0.9995003 0.0004995167
vt 0.9995005 0.9995003
vt 0.0004997253 0.9995005
vt 0.5 0.5
vt 0.0004995465 0.0004997253
vt 0.9995002 0.0004994869
vt 0.9995004 0.9995003
vt 0.0004997849 0.9995005
vt 0.5 0.5
vt 0.0004995763 0.0004997551
vt 0.9995002 0.0004994869
vt 0.9995004 0.9995003
vt 0.0004998147 0.9995005
vt 0.5 0.5
vt 0.0004995167 0.0004997551
vt 0.9995003 0.0004995167
vt 0.9995005 0.9995003
vt 0.0004997551 0.9995005
vt 0.5 0.5
vt 0.0004995167 0.0004997253
vt 0.9995003 0.0004994869
vt 0.9995005 0.9995003
vt 0.0004997551 0.9995005
vt 0.5 0.5
vt 0.0004994869 0.0004997253
vt 0.9995003 0.0004994869
vt 0.9995005 0.9995003
vt 0.0004997253 0.9995005
vt 0.5 0.5
vt 0.0004995465 0.0004997551
vt 0.9995002 0.0004995167
vt 0.9995004 0.9995003
vt 0.0004997849 0.9995005
vt 0.5 0.5
vt 0.0004994869 0.0004997551
vt 0.9995003 0.0004995167
vt 0.9995005 0.9995003
vt 0.0004997253 0.9995005
vt 0.5 0.5
vt 0.0004995465 0.0004997849
vt 0.9995002 0.0004995465
vt 0.9995004 0.9995002
vt 0.0004997849 0.9995005

usemtl sn13_44_Aree02.bmp
usemap sn13_44_Aree02.bmp
f 3/3/3 1/1/1 2/2/2
f 4/4/4 1/1/1 3/3/3
f 5/5/5 1/1/1 4/4/4
f 2/2/2 1/1/1 5/5/5
f 8/8/8 6/6/6 7/7/7
f 9/9/9 6/6/6 8/8/8
f 10/10/10 6/6/6 9/9/9
f 7/7/7 6/6/6 10/10/10
f 13/13/13 11/11/11 12/12/12
f 14/14/14 11/11/11 13/13/13
f 15/15/15 11/11/11 14/14/14
f 12/12/12 11/11/11 15/15/15
f 18/18/18 16/16/16 17/17/17
f 19/19/19 16/16/16 18/18/18
f 20/20/20 16/16/16 19/19/19
f 17/17/17 16/16/16 20/20/20
f 23/23/23 21/21/21 22/22/22
f 24/24/24 21/21/21 23/23/23
f 25/25/25 21/21/21 24/24/24
f 22/22/22 21/21/21 25/25/25
f 28/28/28 26/26/26 27/27/27
f 29/29/29 26/26/26 28/28/28
f 30/30/30 26/26/26 29/29/29
f 27/27/27 26/26/26 30/30/30
f 33/33/33 31/31/31 32/32/32
f 34/34/34 31/31/31 33/33/33
f 35/35/35 31/31/31 34/34/34
f 32/32/32 31/31/31 35/35/35
f 38/38/38 36/36/36 37/37/37
f 39/39/39 36/36/36 38/38/38
f 40/40/40 36/36/36 39/39/39
f 37/37/37 36/36/36 40/40/40
f 43/43/43 41/41/41 42/42/42
f 44/44/44 41/41/41 43/43/43
f 45/45/45 41/41/41 44/44/44
f 42/42/42 41/41/41 45/45/45
f 48/48/48 46/46/46 47/47/47
f 49/49/49 46/46/46 48/48/48
f 50/50/50 46/46/46 49/49/49
f 47/47/47 46/46/46 50/50/50
f 53/53/53 51/51/51 52/52/52
f 54/54/54 51/51/51 53/53/53
f 55/55/55 51/51/51 54/54/54
f 52/52/52 51/51/51 55/55/55
f 58/58/58 56/56/56 57/57/57
f 59/59/59 56/56/56 58/58/58
f 60/60/60 56/56/56 59/59/59
f 57/57/57 56/56/56 60/60/60
f 63/63/63 61/61/61 62/62/62
f 64/64/64 61/61/61 63/63/63
f 65/65/65 61/61/61 64/64/64
f 62/62/62 61/61/61 65/65/65
