mtllib ./Object47.mtl
g Object47
v -8.021367 51.63976 -112.7373
v -7.851435 45.53768 -109.1854
v 2.486819 45.37041 106.907
v 2.680942 51.65117 110.9646
v -2.378473 45.53768 -109.4472
v -2.548404 51.63976 -112.9992
v 8.153843 51.65117 110.7027
v 7.95972 45.37041 106.6451
v -2.548404 51.63976 -112.9992
v -8.021367 51.63976 -112.7373
v 2.680942 51.65117 110.9646
v 8.153843 51.65117 110.7027
v -2.378473 45.53768 -109.4472
v -8.021367 51.63976 -112.7373
v -2.548404 51.63976 -112.9992
v -7.851435 45.53768 -109.1854
v -2.378473 45.53768 -109.4472
v 7.95972 45.37041 106.6451
v 8.153843 51.65117 110.7027
v 2.680942 51.65117 110.9646
v 2.486819 45.37041 106.907

vn -0.01253906 -0.007146496 0.999896
vn -0.0002757162 -2.08149E-07 1
vn -0.0002757125 0 1
vn -0.0002757087 1.952671E-07 1
vn 0.0002759919 3.77817E-08 -1
vn 0.0002759844 3.237883E-07 -1
vn 0.0002759919 3.77817E-08 -1
vn 0.0002759956 -2.497384E-07 -1
vn -5.092901E-05 1 -1.402441E-08
vn -5.092901E-05 1 -1.400258E-08
vn -5.092901E-05 1 -1.402441E-08
vn -5.092901E-05 1 -1.404624E-08
vn -0.8639982 -0.503495 -0.0002375245
vn -0.8639982 -0.503495 -0.0002375245
vn -0.8639982 -0.503495 -0.0002375245
vn -0.8639982 -0.503495 -0.0002375245
vn -0.8639982 -0.503495 -0.0002375245
vn 0.8396796 -0.5430822 0.000230968
vn 0.8396794 -0.5430826 0.0002316236
vn 0.8396796 -0.5430822 0.000230968
vn 0.8396798 -0.5430819 0.000230372

vt 0.4982433 0.003605336
vt 0.4982434 0.0252023
vt 0.002528012 0.0252023
vt 0.002527945 0.003605336
vt 0.4982433 0.003605336
vt 0.4982434 0.0252023
vt 0.002528012 0.0252023
vt 0.002527945 0.003605336
vt 0.4982433 0.003605336
vt 0.4982434 0.0252023
vt 0.002528012 0.0252023
vt 0.002527945 0.003605336
vt 0.4982433 0.003605336
vt 0.002528012 0.0252023
vt 0.002527945 0.003605336
vt 0.002527945 0.003605336
vt 0.002528012 0.0252023
vt 2.006193 0.2230844
vt 2.006193 0.2230844
vt 2.006193 0.2230844
vt 2.006193 0.2230844

usemtl sn13_18_sn13h01.jpg
usemap sn13_18_sn13h01.jpg
f 3/3/3 1/1/1 2/2/2
f 1/1/1 3/3/3 4/4/4
f 7/7/7 5/5/5 6/6/6
f 5/5/5 7/7/7 8/8/8
f 11/11/11 9/9/9 10/10/10
f 9/9/9 11/11/11 12/12/12
f 15/15/15 13/13/13 14/14/14
f 17/17/17 16/16/16 1/1/1

usemtl sn13_14_sn13h02.JPG
usemap sn13_14_sn13h02.JPG
f 20/20/20 18/18/18 19/19/19
f 20/20/20 21/21/21 18/18/18
