mtllib ./Object154.mtl
g Object154
v -8.324005 1.873711 -12.577
v -26.19275 -6.678543 -23.81258
v -14.9787 -9.836143 4.256104
v 12.88365 -3.429909 -2.148376
v 0.7975464 -2.901764 -32.21233
v 13.45985 -5.824837 27.498
v 22.75009 -13.50179 9.844345
v -2.526016 -12.66181 15.3376
v -1.46698 -19.76094 41.72633
v 27.47247 -16.74435 37.18788
v -6.923767 -5.132904 -16.29074
v -0.1760406 -13.07695 -42.4899
v -36.20265 -18.77032 -13.65195
v -12.0551 -9.710167 18.46622
v 23.88939 -3.66951 -10.43945
v -15.65939 22.36729 11.9751
v -13.172 18.22598 -9.445862
v -40.1814 10.78241 8.425995
v -21.84625 12.93098 31.73187
v 6.240067 18.348 13.98026
v -3.181549 10.79199 -10.28812
v -6.94635 -0.3882828 -17.28719
v -17.86072 6.983101 -9.779205
v -4.423111 6.282661 6.658218
v 6.561798 -1.292191 -0.7508087
v 20.65279 -4.590424 28.59236
v 19.32117 -4.697319 7.494797
v -0.8228302 -7.835052 21.43146
v 13.09846 -16.02774 42.49034
v 32.10104 -12.37979 27.9523
v 9.831451 19.19321 0.5020752
v 17.99152 11.47202 -13.20645
v -8.150101 10.62808 -10.08792
v 1.158234 8.647049 16.74414
v 24.60521 8.232208 11.50015
v -17.35706 26.67563 9.484741
v -10.55101 24.47436 -2.536041
v -28.90178 25.53835 4.765182
v -25.13286 20.44888 23.05611
v -4.892426 23.85509 18.24185
v 18.63887 -13.04702 20.1386
v 17.46349 -14.33665 -5.715515
v -11.21825 -12.62838 16.033
v 14.38069 -31.22019 38.40599
v 40.18193 -20.03983 16.5575
v -0.623291 26.09674 18.88792
v 2.026581 26.1899 -7.970703
v -23.34128 19.62514 14.99583
v -5.081161 12.87521 41.94405
v 21.46344 13.17592 17.92537
v 5.084976 30.86384 12.74722
v -0.8982239 31.21973 -3.218536
v -10.4218 22.62668 17.67177
v 8.124298 18.23573 26.29913
v 17.17737 23.37937 4.98587
v 1.409576 12.86633 4.785278
v -3.935303 6.26532 -26.1308
v -20.5508 -1.029114 10.74709
v 15.3103 -2.898949 29.59793
v 32.2272 4.136032 -7.31839
v -9.327148 -9.736858 -6.733078
v 10.45609 -21.1666 -21.07271
v -32.11664 -16.43063 -26.51372
v -36.8409 -14.64752 11.43852
v 5.809814 -18.92225 16.85904

vn -0.1492278 0.9812445 0.1220252
vn -0.4255235 0.9048675 -0.01202319
vn -0.3200618 0.8323535 0.4524909
vn 0.1244003 0.9635063 0.2370238
vn 0.04008496 0.9750112 -0.2185094
vn -0.004365517 0.9818808 0.1894495
vn 0.3018546 0.9220926 -0.2421344
vn -0.3424658 0.9364277 -0.0762898
vn -0.266163 0.8133122 0.5173786
vn 0.3509638 0.8318706 0.4299018
vn -0.2374899 0.9662651 -0.09965137
vn -0.2129779 0.9184363 -0.3333396
vn -0.4282935 0.8938231 -0.1328338
vn -0.2472663 0.9647081 0.09054066
vn -0.03559212 0.9974395 -0.06202763
vn -0.1707031 0.9811844 0.09021009
vn -0.1337879 0.9699827 -0.2030624
vn -0.43003 0.9024556 0.02545819
vn -0.1925599 0.907559 0.3731719
vn 0.1640338 0.9734373 0.1597276
vn 0.4004047 0.8709468 -0.2848294
vn 0.4299293 0.3706208 -0.8232867
vn -0.2517498 0.9388228 -0.2350184
vn 0.2197598 0.9386276 0.2658645
vn 0.8378328 0.4966551 -0.2266494
vn 0.06751624 0.945627 0.3181686
vn 0.1394127 0.990138 -0.01381609
vn -0.2292006 0.9372599 0.2626991
vn -0.01749745 0.776678 0.6296547
vn 0.541176 0.7670678 0.3445803
vn 0.007973251 0.9951207 0.09834215
vn 0.2864699 0.8975985 -0.3350404
vn -0.3683901 0.9218818 -0.1200952
vn -0.2277208 0.8677208 0.4418187
vn 0.4069477 0.8593227 0.3097712
vn -0.01362324 0.988925 0.1477894
vn 0.1293346 0.9857796 -0.1072901
vn -0.1304864 0.9881294 0.0810782
vn -0.1315246 0.9274125 0.3501534
vn 0.0807399 0.9765438 0.199608
vn 0.1293996 0.9230525 0.3622566
vn 0.1430506 0.9881415 -0.05579266
vn -0.03571404 0.9341907 0.3549821
vn 0.09292993 0.6949502 0.7130275
vn 0.3415439 0.8695812 0.3566179
vn 0.1196793 0.9548946 0.271759
vn 0.1413375 0.9898089 0.01737763
vn -0.3005376 0.931338 0.2056374
vn 0.09001741 0.8563548 0.5084814
vn 0.4927404 0.8207489 0.2890988
vn 0.141307 0.9213693 0.3620921
vn -0.01451722 0.9995103 0.02772065
vn -0.2985605 0.8366219 0.4592662
vn 0.266924 0.7341875 0.6242757
vn 0.5935055 0.7877178 0.1650812
vn -0.03658694 0.9839869 0.1744461
vn -0.1567271 0.9710565 -0.1802386
vn -0.4525474 0.8416412 0.2946878
vn 0.08652988 0.8621073 0.499283
vn 0.2924331 0.9546452 0.05599577
vn 0.1099941 0.9931619 -0.03912834
vn 0.3433903 0.9057935 -0.2482361
vn -0.0508999 0.962347 -0.2670162
vn -0.08794169 0.987125 0.1336059
vn 0.2655393 0.9437447 0.1970662

vt 0.5 0.5
vt 0.0004995465 0.0004997253
vt 0.9995002 0.0004994869
vt 0.9995004 0.9995003
vt 0.0004997849 0.9995005
vt 0.5 0.5
vt 0.0004995763 0.0004997253
vt 0.9995002 0.0004994869
vt 0.9995004 0.9995003
vt 0.0004997849 0.9995005
vt 0.5 0.5
vt 0.0004995465 0.0004997849
vt 0.9995002 0.0004995465
vt 0.9995004 0.9995002
vt 0.0004997849 0.9995005
vt 0.5 0.5
vt 0.0004995167 0.0004997551
vt 0.9995003 0.0004995167
vt 0.9995005 0.9995003
vt 0.0004997551 0.9995005
vt 0.5 0.5
vt 0.0004994869 0.0004997551
vt 0.9995003 0.0004995167
vt 0.9995005 0.9995003
vt 0.0004997253 0.9995005
vt 0.5 0.5
vt 0.0004995465 0.0004997253
vt 0.9995002 0.0004994869
vt 0.9995004 0.9995003
vt 0.0004997849 0.9995005
vt 0.5 0.5
vt 0.0004995763 0.0004997551
vt 0.9995002 0.0004994869
vt 0.9995004 0.9995003
vt 0.0004998147 0.9995005
vt 0.5 0.5
vt 0.0004995167 0.0004997551
vt 0.9995003 0.0004995167
vt 0.9995005 0.9995003
vt 0.0004997551 0.9995005
vt 0.5 0.5
vt 0.0004995167 0.0004997253
vt 0.9995003 0.0004994869
vt 0.9995005 0.9995003
vt 0.0004997551 0.9995005
vt 0.5 0.5
vt 0.0004994869 0.0004997253
vt 0.9995003 0.0004994869
vt 0.9995005 0.9995003
vt 0.0004997253 0.9995005
vt 0.5 0.5
vt 0.0004995465 0.0004997551
vt 0.9995002 0.0004995167
vt 0.9995004 0.9995003
vt 0.0004997849 0.9995005
vt 0.5 0.5
vt 0.0004994869 0.0004997551
vt 0.9995003 0.0004995167
vt 0.9995005 0.9995003
vt 0.0004997253 0.9995005
vt 0.5 0.5
vt 0.0004995465 0.0004997849
vt 0.9995002 0.0004995465
vt 0.9995004 0.9995002
vt 0.0004997849 0.9995005

usemtl sn13_44_Aree02.bmp
usemap sn13_44_Aree02.bmp
f 3/3/3 1/1/1 2/2/2
f 4/4/4 1/1/1 3/3/3
f 5/5/5 1/1/1 4/4/4
f 2/2/2 1/1/1 5/5/5
f 8/8/8 6/6/6 7/7/7
f 9/9/9 6/6/6 8/8/8
f 10/10/10 6/6/6 9/9/9
f 7/7/7 6/6/6 10/10/10
f 13/13/13 11/11/11 12/12/12
f 14/14/14 11/11/11 13/13/13
f 15/15/15 11/11/11 14/14/14
f 12/12/12 11/11/11 15/15/15
f 18/18/18 16/16/16 17/17/17
f 19/19/19 16/16/16 18/18/18
f 20/20/20 16/16/16 19/19/19
f 17/17/17 16/16/16 20/20/20
f 23/23/23 21/21/21 22/22/22
f 24/24/24 21/21/21 23/23/23
f 25/25/25 21/21/21 24/24/24
f 22/22/22 21/21/21 25/25/25
f 28/28/28 26/26/26 27/27/27
f 29/29/29 26/26/26 28/28/28
f 30/30/30 26/26/26 29/29/29
f 27/27/27 26/26/26 30/30/30
f 33/33/33 31/31/31 32/32/32
f 34/34/34 31/31/31 33/33/33
f 35/35/35 31/31/31 34/34/34
f 32/32/32 31/31/31 35/35/35
f 38/38/38 36/36/36 37/37/37
f 39/39/39 36/36/36 38/38/38
f 40/40/40 36/36/36 39/39/39
f 37/37/37 36/36/36 40/40/40
f 43/43/43 41/41/41 42/42/42
f 44/44/44 41/41/41 43/43/43
f 45/45/45 41/41/41 44/44/44
f 42/42/42 41/41/41 45/45/45
f 48/48/48 46/46/46 47/47/47
f 49/49/49 46/46/46 48/48/48
f 50/50/50 46/46/46 49/49/49
f 47/47/47 46/46/46 50/50/50
f 53/53/53 51/51/51 52/52/52
f 54/54/54 51/51/51 53/53/53
f 55/55/55 51/51/51 54/54/54
f 52/52/52 51/51/51 55/55/55
f 58/58/58 56/56/56 57/57/57
f 59/59/59 56/56/56 58/58/58
f 60/60/60 56/56/56 59/59/59
f 57/57/57 56/56/56 60/60/60
f 63/63/63 61/61/61 62/62/62
f 64/64/64 61/61/61 63/63/63
f 65/65/65 61/61/61 64/64/64
f 62/62/62 61/61/61 65/65/65
