mtllib ./Object61.mtl
g Object61
v 4.997314 -45.46098 -127.9533
v 2.1604 -37.79614 -133.1365
v 5.305908 -37.79614 -133.8622
v 1.990723 -45.45978 -127.2611
v 5.305908 -37.79614 -133.8622
v 4.909363 -43.47618 -125.7923
v 4.997314 -45.46098 -127.9533
v 1.90271 -43.47498 -125.1002
v 5.305908 -37.79614 -133.8622
v 2.1604 -37.79614 -133.1365
v 4.909363 -43.47618 -125.7923
v 2.1604 -37.79614 -133.1365
v 1.990723 -45.45978 -127.2611
v 1.90271 -43.47498 -125.1002
v 4.507813 -49.15575 -117.8935
v 1.627075 -49.12418 -117.3046
v 4.496216 -46.02164 -117.334
v 4.507813 -49.15575 -117.8935
v 1.615479 -45.99006 -116.7451
v 4.496216 -46.02164 -117.334
v 1.627075 -49.12418 -117.3046
v 1.615479 -45.99006 -116.7451
v 1.247437 -41.33458 -82.68744
v -1.200195 -41.30888 -82.20923
v 1.382629 -39.61883 -83.97147
v 1.247437 -41.33458 -82.68744
v -1.065002 -39.59312 -83.49326
v 1.382629 -39.61883 -83.97147
v -1.200195 -41.30888 -82.20923
v -1.065002 -39.59312 -83.49326
v -0.6192017 -23.75407 -53.89777
v -1.200195 -41.30888 -82.20923
v 1.247437 -41.33458 -82.68744
v -2.598389 -23.71355 -53.50861
v -0.5552979 -23.21387 -54.81387
v 1.247437 -41.33458 -82.68744
v 1.382629 -39.61883 -83.97147
v -0.6192017 -23.75407 -53.89777
v -2.534424 -23.17336 -54.42471
v 1.382629 -39.61883 -83.97147
v -1.065002 -39.59312 -83.49326
v -0.5552979 -23.21387 -54.81387
v -2.598389 -23.71355 -53.50861
v -1.065002 -39.59312 -83.49326
v -1.200195 -41.30888 -82.20923
v -2.534424 -23.17336 -54.42471
v -0.6192017 -23.75407 -53.89777
v -2.534424 -23.17336 -54.42471
v -2.598389 -23.71355 -53.50861
v -0.5552979 -23.21387 -54.81387

vn -0.1511848 -0.7401742 -0.6551986
vn -0.1804539 -0.5959362 -0.7824938
vn -0.1805044 -0.5959434 -0.7824767
vn -0.1167073 -0.8557569 -0.504043
vn 0.998954 -0.005196969 0.04542994
vn 0.9989231 -0.005847344 0.04602603
vn 0.9989098 -0.005379094 0.04637022
vn 0.1142333 0.8614712 0.494791
vn 0.1326315 0.8074467 0.574838
vn 0.1326044 0.8074549 0.5748327
vn 0.09313807 0.9120169 0.3994376
vn -0.9993444 -0.005327296 -0.03580896
vn -0.9993154 -0.00430678 -0.03674511
vn -0.9993594 -0.002120016 -0.03572685
vn -0.00980042 -0.9999407 0.004755991
vn 0.01796034 -0.9894235 0.1439398
vn 0.9968819 -0.010557 0.07819881
vn 0.996154 -0.01013293 0.08703192
vn 0.005581476 0.999697 -0.02397134
vn -0.01575357 0.991025 -0.132745
vn -0.9977525 0.007119422 -0.06662711
vn -0.9970282 0.01151416 -0.07617196
vn 0.03353356 -0.9749777 0.2197587
vn 0.03269645 -0.9750068 0.219756
vn 0.9954281 -0.01119707 0.09485511
vn 0.9955397 -0.008100324 0.09399477
vn -0.02769319 0.9812101 -0.190945
vn -0.02698044 0.9812511 -0.1908356
vn -0.9964647 0.01299375 -0.08300193
vn -0.9963851 0.01608493 -0.08341446
vn 0.08989779 -0.8472639 0.5235095
vn 0.08989779 -0.8472639 0.5235095
vn 0.09334391 -0.8470261 0.5232913
vn 0.08563204 -0.8475442 0.5237709
vn 0.9971044 -0.01536447 0.07447664
vn 0.9971044 -0.01536447 0.07447664
vn 0.9967672 -0.02037998 0.07771545
vn 0.997732 -0.004088601 0.06718671
vn -0.08365761 0.8659557 -0.4930741
vn -0.08365761 0.8659557 -0.4930741
vn -0.08728848 0.8654753 -0.4932882
vn -0.0791594 0.8665345 -0.4927999
vn -0.9976045 0.02526587 -0.0643971
vn -0.9976045 0.02526587 -0.0643971
vn -0.9973776 0.02894555 -0.06633421
vn -0.9980675 0.01666055 -0.05986349
vn 0.1178165 0.8517773 0.5104848
vn 0.1178165 0.8517773 0.5104848
vn 0.1178164 0.8517771 0.5104851
vn 0.1178167 0.8517775 0.5104845

vt 1.624694 0.2388758
vt 1.870988 0.1881511
vt 1.870988 0.2388758
vt 1.624694 0.1881511
vt 1.870988 0.1609942
vt 1.624694 0.2394625
vt 1.624694 0.1609942
vt 1.624694 0.2412912
vt 1.870989 0.1905666
vt 1.870989 0.2412912
vt 1.624694 0.1905666
vt 1.870989 0.2394624
vt 1.624694 0.1609941
vt 1.624694 0.2394624
vt 1.406962 0.2388758
vt 1.406962 0.1881511
vt 1.406962 0.2394625
vt 1.406962 0.1609942
vt 1.406962 0.2412912
vt 1.406962 0.1905666
vt 1.406962 0.1609941
vt 1.406962 0.2394624
vt 0.9556488 0.2388758
vt 0.9556488 0.1881512
vt 0.9556488 0.2394625
vt 0.9556487 0.1609942
vt 0.9556489 0.2412913
vt 0.9556488 0.1905666
vt 0.955649 0.1609941
vt 0.9556489 0.2394624
vt -0.1290115 0.2388758
vt 0.1614196 0.1881512
vt 0.1614197 0.2388758
vt -0.1290115 0.1881512
vt -0.1290114 0.2394625
vt 0.1614197 0.1609942
vt 0.1614197 0.2394625
vt -0.1290115 0.1609942
vt -0.1290114 0.2412913
vt 0.1614197 0.1905666
vt 0.1614197 0.2412913
vt -0.1290114 0.1905666
vt -0.1290114 0.1609941
vt 0.1614197 0.2394624
vt 0.1614198 0.1609941
vt -0.1290114 0.2394624
vt 1.870988 0.1881511
vt 1.870988 0.1881511
vt 1.870988 0.1881511
vt 1.870988 0.1881511

usemtl sn13_09_sn13r01.jpg
usemap sn13_09_sn13r01.jpg
f 3/3/3 1/1/1 2/2/2
f 4/4/4 2/2/2 1/1/1
f 7/7/7 5/5/5 6/6/6
f 10/10/10 8/8/8 9/9/9
f 11/11/11 9/9/9 8/8/8
f 14/14/14 12/12/12 13/13/13
f 1/1/1 15/15/15 4/4/4
f 16/16/16 4/4/4 15/15/15
f 6/6/6 17/17/17 7/7/7
f 18/18/18 7/7/7 17/17/17
f 8/8/8 19/19/19 11/11/11
f 20/20/20 11/11/11 19/19/19
f 13/13/13 21/21/21 14/14/14
f 22/22/22 14/14/14 21/21/21
f 15/15/15 23/23/23 16/16/16
f 24/24/24 16/16/16 23/23/23
f 17/17/17 25/25/25 18/18/18
f 26/26/26 18/18/18 25/25/25
f 19/19/19 27/27/27 20/20/20
f 28/28/28 20/20/20 27/27/27
f 21/21/21 29/29/29 22/22/22
f 30/30/30 22/22/22 29/29/29
f 33/33/33 31/31/31 32/32/32
f 34/34/34 32/32/32 31/31/31
f 37/37/37 35/35/35 36/36/36
f 38/38/38 36/36/36 35/35/35
f 41/41/41 39/39/39 40/40/40
f 42/42/42 40/40/40 39/39/39
f 45/45/45 43/43/43 44/44/44
f 46/46/46 44/44/44 43/43/43
f 49/49/49 47/47/47 48/48/48
f 47/47/47 50/50/50 48/48/48
