mtllib ./Object162.mtl
g Object162
v -18.41058 1.873711 -3.15406
v -37.32697 -6.678543 6.21096
v -7.535095 -9.836143 11.31527
v 1.562195 -3.429909 -15.78761
v -30.38654 -2.901764 -21.1909
v 27.14099 -5.824837 -0.7887344
v 16.94287 -13.50179 -17.93397
v 8.419922 -12.66181 6.487694
v 31.47339 -19.76094 19.3728
v 42.72455 -16.74434 -7.6735
v -20.84552 -5.132904 -6.288399
v -39.65826 -13.07695 -25.73078
v -33.89374 -18.77032 20.05474
v 6.108582 -9.710167 16.24728
v 0.2434082 -3.66951 -29.50364
v -1.309265 22.36729 15.92883
v -18.27399 18.22598 2.615562
v -17.14801 10.78241 34.98287
v 12.30353 12.93098 31.52688
v 11.8429 18.348 -1.695839
v -13.77203 10.79199 -6.342781
v -21.70685 -0.3882828 -6.789772
v -21.008 6.983101 6.439171
v 0.02832031 6.282661 3.570244
v -0.5493164 -1.292191 -9.667122
v 31.83234 -4.590424 -6.349892
v 13.14795 -4.697319 -16.23795
v 14.50568 -7.835052 8.219505
v 39.73523 -16.02773 7.352898
v 37.26831 -12.37979 -16.44556
v 2.227356 19.19321 -11.80033
v -5.19751 11.47202 -25.92063
v -16.19745 10.62808 -2.001808
v 11.54425 8.647049 4.081261
v 19.32397 8.232208 -18.65055
v -4.319641 26.67563 16.07513
v -11.01288 24.47436 3.991173
v -14.37579 25.53835 23.45266
v 3.189026 20.44888 29.7961
v 9.65979 23.85509 10.02285
v 23.57208 -13.04702 -9.049843
v 0.9136963 -14.33665 -21.5564
v 4.471191 -12.62838 14.26238
v 36.92267 -31.22019 4.125542
v 31.7749 -20.03983 -29.28944
v 12.44122 26.09673 6.72039
v -9.075012 26.1899 -9.572609
v -2.747375 19.62514 24.05703
v 29.77057 12.87521 22.56814
v 23.16083 13.17592 -12.6146
v 10.18799 30.86384 -1.355232
v -6.55127 31.21973 -4.595802
v 6.284607 22.62668 14.43954
v 23.33093 18.23573 3.134178
v 9.888611 23.37937 -15.72099
v 1.478943 12.86633 -2.381538
v -27.67401 6.26532 -13.97788
v -4.912048 -1.029114 19.45779
v 29.89832 -2.898949 -1.269295
v 7.261047 4.136032 -34.98203
v -13.95197 -9.736858 0.7546921
v -15.84186 -21.1666 -23.60572
v -42.72516 -16.43063 9.850578
v -12.83405 -14.64752 33.70867
v 14.07263 -18.92225 0.1751633

vn 0.02607219 0.9812446 0.1909956
vn -0.2325862 0.9048677 0.3565362
vn 0.2185798 0.8323534 0.5093239
vn 0.2670953 0.9635062 0.01777528
vn -0.1653651 0.9750113 -0.1483485
vn 0.159251 0.9818808 0.1027092
vn -0.04873507 0.9220926 -0.3838881
vn -0.2439851 0.936428 0.2521388
vn 0.3020677 0.8133125 0.4972704
vn 0.5499294 0.8318708 -0.07462312
vn -0.2090548 0.9662651 0.1504256
vn -0.3954996 0.9184362 0.007423602
vn -0.3370422 0.8938232 0.2957748
vn -0.05199776 0.9647083 0.2581363
vn -0.071484 0.9974396 -0.002062166
vn -0.01227537 0.9811842 0.192683
vn -0.2430431 0.9699827 0.007973311
vn -0.2029836 0.9024553 0.3799631
vn 0.2175692 0.907559 0.359166
vn 0.2218972 0.9734373 -0.05640411
vn -0.03364621 0.8709466 -0.4902242
vn -0.4773296 0.3706222 -0.7967407
vn -0.3319251 0.9388229 0.09185428
vn 0.3415117 0.9386274 -0.04846161
vn 0.2445164 0.4966545 -0.8327941
vn 0.30656 0.945627 0.1086755
vn 0.06106286 0.990138 -0.1260878
vn 0.1042306 0.93726 0.3326856
vn 0.5277255 0.7766789 0.3439124
vn 0.5765661 0.7670683 -0.2813855
vn 0.0880165 0.9951207 0.04458517
vn -0.1359885 0.8975987 -0.4193132
vn -0.294881 0.9218817 0.2513548
vn 0.2577287 0.8677209 0.4250135
vn 0.4767536 0.8593221 -0.185126
vn 0.1188931 0.988925 0.08883539
vn -0.0239027 0.9857796 -0.1663348
vn 0.0009515908 0.9881294 0.1536211
vn 0.2298336 0.9274126 0.2950975
vn 0.2123801 0.9765438 0.03545285
vn 0.3764859 0.9230524 0.0789474
vn 0.0271727 0.9881416 -0.1511223
vn 0.2840117 0.9341906 0.2159289
vn 0.6565123 0.6949494 0.2933204
vn 0.4825234 0.869581 -0.1048816
vn 0.2942449 0.9548948 0.03994998
vn 0.08866569 0.989809 -0.1114301
vn 0.0183042 0.9313381 0.3636956
vn 0.4805858 0.8563548 0.1889279
vn 0.5039526 0.8207496 -0.2690759
vn 0.3825671 0.9213694 0.06870843
vn 0.01605052 0.9995102 0.02686195
vn 0.2355915 0.836622 0.4945304
vn 0.67175 0.7341875 0.09859271
vn 0.4508608 0.7877178 -0.4197918
vn 0.1296232 0.9839868 0.1223434
vn -0.2355685 0.9710565 0.03945734
vn 0.0148074 0.8416412 0.5398342
vn 0.4709206 0.8621073 0.187096
vn 0.2005401 0.9546452 -0.2200824
vn 0.02410938 0.9931617 -0.1142298
vn -0.03223518 0.9057935 -0.4224914
vn -0.2542642 0.9623469 -0.09611608
vn 0.06796843 0.987125 0.1447915
vn 0.3067707 0.9437444 -0.1234428

vt 0.5 0.5
vt 0.0004995465 0.0004997253
vt 0.9995002 0.0004994869
vt 0.9995004 0.9995003
vt 0.0004997849 0.9995005
vt 0.5 0.5
vt 0.0004995763 0.0004997253
vt 0.9995002 0.0004994869
vt 0.9995004 0.9995003
vt 0.0004997849 0.9995005
vt 0.5 0.5
vt 0.0004995465 0.0004997849
vt 0.9995002 0.0004995465
vt 0.9995004 0.9995002
vt 0.0004997849 0.9995005
vt 0.5 0.5
vt 0.0004995167 0.0004997551
vt 0.9995003 0.0004995167
vt 0.9995005 0.9995003
vt 0.0004997551 0.9995005
vt 0.5 0.5
vt 0.0004994869 0.0004997551
vt 0.9995003 0.0004995167
vt 0.9995005 0.9995003
vt 0.0004997253 0.9995005
vt 0.5 0.5
vt 0.0004995465 0.0004997253
vt 0.9995002 0.0004994869
vt 0.9995004 0.9995003
vt 0.0004997849 0.9995005
vt 0.5 0.5
vt 0.0004995763 0.0004997551
vt 0.9995002 0.0004994869
vt 0.9995004 0.9995003
vt 0.0004998147 0.9995005
vt 0.5 0.5
vt 0.0004995167 0.0004997551
vt 0.9995003 0.0004995167
vt 0.9995005 0.9995003
vt 0.0004997551 0.9995005
vt 0.5 0.5
vt 0.0004995167 0.0004997253
vt 0.9995003 0.0004994869
vt 0.9995005 0.9995003
vt 0.0004997551 0.9995005
vt 0.5 0.5
vt 0.0004994869 0.0004997253
vt 0.9995003 0.0004994869
vt 0.9995005 0.9995003
vt 0.0004997253 0.9995005
vt 0.5 0.5
vt 0.0004995465 0.0004997551
vt 0.9995002 0.0004995167
vt 0.9995004 0.9995003
vt 0.0004997849 0.9995005
vt 0.5 0.5
vt 0.0004994869 0.0004997551
vt 0.9995003 0.0004995167
vt 0.9995005 0.9995003
vt 0.0004997253 0.9995005
vt 0.5 0.5
vt 0.0004995465 0.0004997849
vt 0.9995002 0.0004995465
vt 0.9995004 0.9995002
vt 0.0004997849 0.9995005

usemtl sn13_44_Aree02.bmp
usemap sn13_44_Aree02.bmp
f 3/3/3 1/1/1 2/2/2
f 4/4/4 1/1/1 3/3/3
f 5/5/5 1/1/1 4/4/4
f 2/2/2 1/1/1 5/5/5
f 8/8/8 6/6/6 7/7/7
f 9/9/9 6/6/6 8/8/8
f 10/10/10 6/6/6 9/9/9
f 7/7/7 6/6/6 10/10/10
f 13/13/13 11/11/11 12/12/12
f 14/14/14 11/11/11 13/13/13
f 15/15/15 11/11/11 14/14/14
f 12/12/12 11/11/11 15/15/15
f 18/18/18 16/16/16 17/17/17
f 19/19/19 16/16/16 18/18/18
f 20/20/20 16/16/16 19/19/19
f 17/17/17 16/16/16 20/20/20
f 23/23/23 21/21/21 22/22/22
f 24/24/24 21/21/21 23/23/23
f 25/25/25 21/21/21 24/24/24
f 22/22/22 21/21/21 25/25/25
f 28/28/28 26/26/26 27/27/27
f 29/29/29 26/26/26 28/28/28
f 30/30/30 26/26/26 29/29/29
f 27/27/27 26/26/26 30/30/30
f 33/33/33 31/31/31 32/32/32
f 34/34/34 31/31/31 33/33/33
f 35/35/35 31/31/31 34/34/34
f 32/32/32 31/31/31 35/35/35
f 38/38/38 36/36/36 37/37/37
f 39/39/39 36/36/36 38/38/38
f 40/40/40 36/36/36 39/39/39
f 37/37/37 36/36/36 40/40/40
f 43/43/43 41/41/41 42/42/42
f 44/44/44 41/41/41 43/43/43
f 45/45/45 41/41/41 44/44/44
f 42/42/42 41/41/41 45/45/45
f 48/48/48 46/46/46 47/47/47
f 49/49/49 46/46/46 48/48/48
f 50/50/50 46/46/46 49/49/49
f 47/47/47 46/46/46 50/50/50
f 53/53/53 51/51/51 52/52/52
f 54/54/54 51/51/51 53/53/53
f 55/55/55 51/51/51 54/54/54
f 52/52/52 51/51/51 55/55/55
f 58/58/58 56/56/56 57/57/57
f 59/59/59 56/56/56 58/58/58
f 60/60/60 56/56/56 59/59/59
f 57/57/57 56/56/56 60/60/60
f 63/63/63 61/61/61 62/62/62
f 64/64/64 61/61/61 63/63/63
f 65/65/65 61/61/61 64/64/64
f 62/62/62 61/61/61 65/65/65
