mtllib ./Object43.mtl
g Object43
v -39.1178 2.76194 58.052
v -43.59711 2.76194 53.7605
v -66.91809 17.05624 91.75073
v -71.2561 16.98357 87.28784
v -40.15594 -2.873238 59.31055
v -39.1178 2.76194 58.052
v -68.3056 11.60069 93.43262
v -66.91809 17.05624 91.75073
v -44.63525 -2.873238 55.01892
v -40.15594 -2.873238 59.31055
v -72.64362 11.52802 88.96973
v -68.3056 11.60069 93.43262
v -43.59711 2.76194 53.7605
v -44.63525 -2.873238 55.01892
v -71.2561 16.98357 87.28784
v -72.64362 11.52802 88.96973
v -66.91809 17.05624 91.75073
v -87.39728 31.92011 112.712
v -91.76917 31.8349 108.2856
v -68.3056 11.60069 93.43262
v -66.91809 17.05624 91.75073
v -89.72449 27.27625 115.4004
v -87.39728 31.92011 112.712
v -72.64362 11.52802 88.96973
v -91.76917 31.8349 108.2856
v -94.09637 27.19102 110.9739
v -87.39728 31.92011 112.712
v -103.496 51.73109 133.1115
v -107.9979 51.70085 128.8463
v -89.72449 27.27625 115.4004
v -87.39728 31.92011 112.712
v -103.4844 42.55035 132.9987
v -103.496 51.73109 133.1115
v -94.09637 27.19102 110.9739
v -107.9979 51.70085 128.8463
v -107.9863 42.5201 128.7335
v -103.496 51.73109 133.1115
v -107.9979 51.70085 128.8463
v -119.5783 31.92271 152.1178
v -124.0978 31.9192 147.8744
v -103.4844 42.55035 132.9987
v -103.496 51.73109 133.1115
v -117.3732 27.19193 149.3651
v -119.5783 31.92271 152.1178
v -107.9979 51.70085 128.8463
v -107.9863 42.5201 128.7335
v -124.0978 31.9192 147.8744
v -121.8928 27.18843 145.1217
v -119.5783 31.92271 152.1178
v -124.0978 31.9192 147.8744
v -140.1265 16.98658 178.4545
v -144.5723 17.08022 174.1163
v -117.3732 27.19193 149.3651
v -119.5783 31.92271 152.1178
v -138.8308 11.50404 176.8248
v -140.1265 16.98658 178.4545
v -124.0978 31.9192 147.8744
v -121.8928 27.18843 145.1217
v -144.5723 17.08022 174.1163
v -143.2766 11.59768 172.4866
v -140.1265 16.98658 178.4545
v -144.5723 17.08022 174.1163
v -168.4668 2.664421 207.9916
v -172.7566 2.836853 203.484
v -138.8308 11.50404 176.8248
v -140.1265 16.98658 178.4545
v -167.4283 -2.948151 206.6416
v -168.4668 2.664421 207.9916
v -143.2766 11.59768 172.4866
v -138.8308 11.50404 176.8248
v -171.7182 -2.775719 202.1339
v -167.4283 -2.948151 206.6416
v -144.5723 17.08022 174.1163
v -143.2766 11.59768 172.4866
v -172.7566 2.836853 203.484
v -171.7182 -2.775719 202.1339
v -40.15594 -2.873238 59.31055
v -44.63525 -2.873238 55.01892
v -39.1178 2.76194 58.052
v -171.7182 -2.775719 202.1339
v -167.4283 -2.948151 206.6416
v -172.7566 2.836853 203.484
v -172.7566 2.836853 203.484
v -168.4668 2.664421 207.9916

vn 0.2156756 0.9501619 -0.225114
vn 0.2971285 0.9030695 -0.3101293
vn 0.2156761 0.9501619 -0.2251137
vn -0.2323895 0.7801061 -0.580887
vn 0.7713879 1.423078E-05 0.6363652
vn 0.7713869 6.217369E-06 0.6363665
vn 0.7713869 6.217369E-06 0.6363665
vn 0.7713859 -1.896748E-06 0.6363677
vn -0.215679 -0.9501618 0.2251111
vn -0.2156779 -0.9501618 0.2251123
vn -0.2156779 -0.9501618 0.2251123
vn -0.2156768 -0.9501618 0.2251135
vn -0.7713856 -1.508083E-06 -0.636368
vn -0.7713852 -1.555169E-07 -0.6363686
vn -0.4322308 0.5486138 -0.715681
vn -0.7713847 1.180176E-06 -0.636369
vn 0.3170258 0.8918376 -0.3226768
vn 0.3147594 0.8920692 -0.3242517
vn -0.3049784 0.6708084 -0.6760208
vn 0.725464 0.02750572 0.6877102
vn 0.7259963 0.0302614 0.6870326
vn 0.7259963 0.0302614 0.6870326
vn 0.726557 0.03320005 0.6863036
vn -0.7259952 -0.03025405 -0.687034
vn -0.2047678 0.5587053 -0.8036906
vn -0.7271284 -0.03256289 -0.6857287
vn 0.4251603 0.7936226 -0.4352032
vn 0.4194269 0.7947041 -0.4387783
vn 0.413706 0.7957427 -0.442313
vn 0.7768549 -0.02507494 0.6291801
vn 0.7798672 -0.01404139 0.6257874
vn 0.7798672 -0.01404139 0.6257874
vn 0.7818171 -0.00667231 0.6234722
vn -0.7798389 0.01403555 -0.6258229
vn -0.7798389 0.01403555 -0.6258229
vn -0.7848982 0.006620716 -0.6195895
vn -0.431464 0.7819567 0.4498697
vn -0.4288299 0.782422 0.4515759
vn -0.4288299 0.782422 0.4515759
vn -0.4261912 0.7828795 0.4532778
vn 0.7656438 -0.006935448 0.6432273
vn 0.7676456 -0.009674187 0.6408016
vn 0.7676456 -0.009674187 0.6408016
vn 0.7697486 -0.0125713 0.6382232
vn -0.7669166 0.006915192 -0.6417095
vn -0.7676493 0.009676046 -0.6407972
vn -0.7676493 0.009676046 -0.6407972
vn -0.7687218 0.01376509 -0.6394352
vn -0.2807736 0.9122437 0.2982909
vn -0.2779292 0.9125732 0.2999427
vn -0.2779292 0.9125732 0.2999427
vn -0.2750695 0.9128938 0.3015983
vn 0.7860686 0.006743286 0.6181024
vn 0.7868242 0.004887996 0.6171579
vn 0.7868242 0.004887996 0.6171579
vn 0.7875966 0.002981073 0.6161839
vn -0.7864285 -0.00717009 -0.6176398
vn -0.7868277 -0.004879095 -0.6171534
vn -0.7868277 -0.004879095 -0.6171534
vn -0.7871996 -0.00272238 -0.6166923
vn -0.2203705 0.9438312 0.2462103
vn -0.2204842 0.9438263 0.246128
vn -0.2204842 0.9438263 0.246128
vn -0.2205983 0.9438211 0.2460453
vn 0.728838 -0.03105783 0.6839813
vn 0.7286426 -0.03045738 0.6842166
vn 0.6794884 -0.05102436 0.7319098
vn 0.7284448 -0.02985104 0.6844539
vn 0.220357 -0.9438397 -0.2461897
vn 0.2204428 -0.9438477 -0.2460826
vn 0.2204428 -0.9438477 -0.2460826
vn 0.2205281 -0.9438554 -0.2459762
vn -0.7286531 0.03117378 -0.6841732
vn -0.7285748 0.03050944 -0.6842865
vn -0.7285748 0.03050944 -0.6842865
vn -0.7284968 0.02985087 -0.6843984
vn 0.6646658 -0.27738 -0.6937432
vn 0.6646722 -0.2773729 -0.69374
vn 0.6646596 -0.2773871 -0.6937465
vn -0.6994032 -0.2868685 0.6546309
vn -0.6994032 -0.2868685 0.6546309
vn -0.6994032 -0.2868685 0.6546309
vn -0.6994002 -0.2868626 0.6546366
vn -0.6994002 -0.2868626 0.6546366

vt 0.322665 0.002872705
vt 0.5642108 0.002872705
vt 0.322665 0.03427368
vt 0.5642109 0.03427368
vt 0.322665 0.002872705
vt 0.5642108 0.002872705
vt 0.322665 0.03427368
vt 0.5642109 0.03427368
vt 0.322665 0.002872705
vt 0.5642108 0.002872705
vt 0.322665 0.03427368
vt 0.5642109 0.03427368
vt 0.5642109 0.03427368
vt 0.322665 0.03427368
vt 0.5642108 0.002872705
vt 0.322665 0.002872705
vt 0.322665 0.002872705
vt 0.322665 0.03427368
vt 0.5642109 0.03427368
vt 0.322665 0.002872705
vt 0.5642108 0.002872705
vt 0.322665 0.03427368
vt 0.5642109 0.03427368
vt 0.322665 0.03427368
vt 0.5642108 0.002872705
vt 0.322665 0.002872705
vt 0.322665 0.002872705
vt 0.322665 0.03427368
vt 0.5642109 0.03427368
vt 0.322665 0.002872705
vt 0.5642108 0.002872705
vt 0.322665 0.03427368
vt 0.5642109 0.03427368
vt 0.322665 0.03427368
vt 0.5642108 0.002872705
vt 0.322665 0.002872705
vt 0.322665 0.002872705
vt 0.5642108 0.002872705
vt 0.322665 0.03427368
vt 0.5642109 0.03427368
vt 0.322665 0.002872705
vt 0.5642108 0.002872705
vt 0.322665 0.03427368
vt 0.5642109 0.03427368
vt 0.5642109 0.03427368
vt 0.322665 0.03427368
vt 0.5642108 0.002872705
vt 0.322665 0.002872705
vt 0.322665 0.002872705
vt 0.5642108 0.002872705
vt 0.322665 0.03427368
vt 0.5642109 0.03427368
vt 0.322665 0.002872705
vt 0.5642108 0.002872705
vt 0.322665 0.03427368
vt 0.5642109 0.03427368
vt 0.5642109 0.03427368
vt 0.322665 0.03427368
vt 0.5642108 0.002872705
vt 0.322665 0.002872705
vt 0.322665 0.002872705
vt 0.5642108 0.002872705
vt 0.322665 0.03427368
vt 0.5642109 0.03427368
vt 0.322665 0.002872705
vt 0.5642108 0.002872705
vt 0.322665 0.03427368
vt 0.5642109 0.03427368
vt 0.322665 0.002872705
vt 0.5642108 0.002872705
vt 0.322665 0.03427368
vt 0.5642109 0.03427368
vt 0.5642109 0.03427368
vt 0.322665 0.03427368
vt 0.5642108 0.002872705
vt 0.322665 0.002872705
vt 0.322665 0.03427368
vt 0.322665 0.002872705
vt 0.5642109 0.03427368
vt 0.322665 0.002872705
vt 0.5642108 0.002872705
vt 0.322665 0.03427368
vt 0.5642108 0.002872705
vt 0.322665 0.002872705

usemtl sn13_18_sn13h01.jpg
usemap sn13_18_sn13h01.jpg
f 3/3/3 1/1/1 2/2/2
f 2/2/2 4/4/4 3/3/3
f 7/7/7 5/5/5 6/6/6
f 6/6/6 8/8/8 7/7/7
f 11/11/11 9/9/9 10/10/10
f 10/10/10 12/12/12 11/11/11
f 15/15/15 13/13/13 14/14/14
f 14/14/14 16/16/16 15/15/15
f 18/18/18 17/17/17 15/15/15
f 15/15/15 19/19/19 18/18/18
f 22/22/22 20/20/20 21/21/21
f 21/21/21 23/23/23 22/22/22
f 25/25/25 4/4/4 24/24/24
f 24/24/24 26/26/26 25/25/25
f 28/28/28 27/27/27 25/25/25
f 25/25/25 29/29/29 28/28/28
f 32/32/32 30/30/30 31/31/31
f 31/31/31 33/33/33 32/32/32
f 35/35/35 19/19/19 34/34/34
f 34/34/34 36/36/36 35/35/35
f 39/39/39 37/37/37 38/38/38
f 38/38/38 40/40/40 39/39/39
f 43/43/43 41/41/41 42/42/42
f 42/42/42 44/44/44 43/43/43
f 47/47/47 45/45/45 46/46/46
f 46/46/46 48/48/48 47/47/47
f 51/51/51 49/49/49 50/50/50
f 50/50/50 52/52/52 51/51/51
f 55/55/55 53/53/53 54/54/54
f 54/54/54 56/56/56 55/55/55
f 59/59/59 57/57/57 58/58/58
f 58/58/58 60/60/60 59/59/59
f 63/63/63 61/61/61 62/62/62
f 62/62/62 64/64/64 63/63/63
f 67/67/67 65/65/65 66/66/66
f 66/66/66 68/68/68 67/67/67
f 71/71/71 69/69/69 70/70/70
f 70/70/70 72/72/72 71/71/71
f 75/75/75 73/73/73 74/74/74
f 74/74/74 76/76/76 75/75/75
f 78/78/78 2/2/2 77/77/77
f 2/2/2 79/79/79 77/77/77
f 82/82/82 80/80/80 81/81/81
f 84/84/84 83/83/83 67/67/67
