mtllib ./Object23.mtl
g Object23
v -61.49135 63.63057 -0.5037299
v -59.28251 60.11522 -5.234353
v -59.27961 60.11522 4.373402
v 57.47202 59.85634 -5.269557
v 59.02059 63.60176 -0.5401303
v 57.47492 59.85634 4.338136
v -59.28251 60.11522 -5.234353
v -61.49135 63.63057 -0.5037299
v 57.47202 59.85634 -5.269557
v 57.47202 59.85634 -5.269557
v -61.49135 63.63057 -0.5037299
v 59.02059 63.60176 -0.5401303
v -59.27961 60.11522 4.373402
v 57.47492 59.85634 4.338136
v -61.49135 63.63057 -0.5037299
v 59.02059 63.60176 -0.5401303
v 57.47202 59.85634 -5.269557
v -59.28251 60.11522 -5.234353
v -59.27961 60.11522 4.373402

vn 0.000255726 -0.5322785 0.8465691
vn 0.000255726 -0.5322785 0.8465691
vn 0.000255726 -0.5322785 0.8465691
vn -0.0002792048 -0.3817849 -0.9242511
vn -0.0002792048 -0.3817849 -0.9242511
vn -4.147648E-06 -0.9999058 -0.0137301
vn -0.5959698 0.8030053 -0.001600862
vn -0.5959698 0.8030053 -0.001600862
vn -0.5959698 0.8030053 -0.001600862
vn -0.6208345 0.7839415 5.960464E-08
vn -0.6208345 0.7839415 5.960464E-08
vn -0.6208345 0.7839415 5.960464E-08
vn 0.5841315 0.8116565 -0.001976073
vn 0.5970095 0.8022333 -0.001152992
vn 0.5970095 0.8022333 -0.001152992
vn 0.6090606 0.7931236 -0.0003734827
vn 6.697293E-07 -0.9999976 0.002217301
vn 6.697272E-07 -0.9999976 0.002217301
vn 6.697251E-07 -0.9999976 0.002217301

vt 0.04589372 0
vt 1 0
vt 1 0.09903383
vt 0.04589372 0
vt 1 0
vt 1 0.09903383
vt 1 0
vt 1 0.09903383
vt 0.04589372 0
vt 1 0.09903383
vt 0.04589372 0
vt 1 0
vt 0.812802 0.09057972
vt 0.03743962 0.09057973
vt 0.812802 0.008454107
vt 0.03743961 0.008454111
vt 1 0
vt 0.04589372 0
vt 0.04589372 0.09903383

usemtl sn13_07_sn13h08.JPG
usemap sn13_07_sn13h08.JPG
f 3/3/3 1/1/1 2/2/2
f 6/6/6 4/4/4 5/5/5
f 9/9/9 7/7/7 8/8/8
f 12/12/12 10/10/10 11/11/11
f 15/15/15 13/13/13 14/14/14
f 16/16/16 15/15/15 14/14/14
f 18/18/18 17/17/17 6/6/6
f 19/19/19 18/18/18 6/6/6
