mtllib ./Object119.mtl
g Object119
v -13.76947 51.63976 -100.346
v -13.42873 45.53768 -97.27375
v 7.710353 45.37041 93.32885
v 8.099598 51.65117 96.83852
v -7.984746 45.53768 -97.87752
v -8.325483 51.63976 -100.9498
v 13.54352 51.65117 96.23476
v 13.15428 45.37041 92.72508
v -8.325483 51.63976 -100.9498
v -13.76947 51.63976 -100.346
v 8.099598 51.65117 96.83852
v 13.54352 51.65117 96.23476
v -7.984746 45.53768 -97.87752
v -13.76947 51.63976 -100.346
v -8.325483 51.63976 -100.9498
v -13.42873 45.53768 -97.27375
v -7.984746 45.53768 -97.87752
v 13.15428 45.37041 92.72508
v 13.54352 51.65117 96.23476
v 8.099598 51.65117 96.83852
v 7.710353 45.37041 93.32885

vn -0.01374824 -0.007008048 0.9998811
vn 8.592755E-05 9.131636E-08 1
vn 8.590519E-05 -6.948137E-08 0.9999999
vn 8.589029E-05 -2.204282E-07 1
vn -8.559972E-05 2.210771E-08 -1
vn -8.559972E-05 6.932095E-08 -1
vn -8.559972E-05 2.210771E-08 -1
vn -8.559972E-05 -2.532456E-08 -1
vn -5.749151E-05 1 4.907633E-09
vn -5.749151E-05 1 4.874892E-09
vn -5.749151E-05 1 4.907633E-09
vn -5.749151E-05 1 4.944013E-09
vn -0.8920704 -0.4518964 7.557869E-05
vn -0.8920704 -0.4518964 7.557869E-05
vn -0.8920704 -0.4518964 7.557869E-05
vn -0.8920704 -0.4518964 7.557869E-05
vn -0.8920704 -0.4518964 7.557869E-05
vn 0.8716782 -0.4900787 -7.492304E-05
vn 0.8716782 -0.4900787 -7.492304E-05
vn 0.8716782 -0.4900787 -7.492304E-05
vn 0.8716782 -0.4900787 -7.492304E-05

vt 0.4982433 0.003605336
vt 0.4982434 0.0252023
vt 0.002528012 0.0252023
vt 0.002527945 0.003605336
vt 0.4982433 0.003605336
vt 0.4982434 0.0252023
vt 0.002528012 0.0252023
vt 0.002527945 0.003605336
vt 0.4982433 0.003605336
vt 0.4982434 0.0252023
vt 0.002528012 0.0252023
vt 0.002527945 0.003605336
vt 0.4982433 0.003605336
vt 0.002528012 0.0252023
vt 0.002527945 0.003605336
vt 0.002527945 0.003605336
vt 0.002528012 0.0252023
vt 2.006193 0.2230844
vt 2.006193 0.2230844
vt 2.006193 0.2230844
vt 2.006193 0.2230844

usemtl sn13_18_sn13h01.jpg
usemap sn13_18_sn13h01.jpg
f 3/3/3 1/1/1 2/2/2
f 1/1/1 3/3/3 4/4/4
f 7/7/7 5/5/5 6/6/6
f 5/5/5 7/7/7 8/8/8
f 11/11/11 9/9/9 10/10/10
f 9/9/9 11/11/11 12/12/12
f 15/15/15 13/13/13 14/14/14
f 17/17/17 16/16/16 1/1/1

usemtl sn13_14_sn13h02.JPG
usemap sn13_14_sn13h02.JPG
f 20/20/20 18/18/18 19/19/19
f 20/20/20 21/21/21 18/18/18
