mtllib ./Object155.mtl
g Object155
v -7.365295 1.873711 15.5741
v -5.584747 -6.678551 36.60645
v 10.08313 -9.836147 10.75838
v -11.79971 -3.429916 -7.639168
v -28.53625 -2.901764 20.10616
v 11.53018 -5.824844 -25.94097
v -8.159668 -13.50179 -22.73626
v 11.439 -12.66181 -5.855789
v 31.87662 -19.76094 -22.5827
v 10.83585 -16.74435 -42.96346
v -11.17392 -5.132904 16.69082
v -36.15836 -13.07695 27.06889
v 8.554016 -18.77032 38.48591
v 19.67233 -9.710175 -0.1283646
v -25.04468 -3.66951 -11.43905
v 16.65744 22.36729 6.656601
v -1.947052 18.22597 17.56153
v 28.58072 10.7824 28.37664
v 36.15924 12.93098 -0.2922745
v 5.079376 18.348 -12.03982
v -8.632111 10.79199 10.08968
v -11.95609 -0.3882904 17.30853
v 0.60849 6.983093 21.50672
v 5.649017 6.282661 0.8826904
v -6.878998 -1.292191 -3.431389
v 8.075348 -4.590431 -32.34411
v -7.972504 -4.697327 -18.58381
v 15.28076 -7.835052 -10.88338
v 23.72107 -16.02774 -34.67496
v 0.674469 -12.37979 -41.10191
v -7.8461 19.19321 -6.796661
v -23.70508 11.47202 -5.063576
v -5.482086 10.62807 13.93727
v 10.34506 8.647049 -9.64463
v -7.953735 8.232201 -25.21432
v 15.69022 26.67563 9.511147
v 1.994049 24.47435 11.30988
v 18.8688 25.53835 21.57146
v 31.2084 20.44888 7.553734
v 15.18259 23.85508 -5.713715
v 2.535889 -13.04703 -25.64812
v -17.40475 -14.33665 -9.150032
v 17.22546 -12.62838 0.6676407
v 19.68753 -31.22019 -33.24099
v -13.28903 -20.03983 -40.69802
v 13.1293 26.09673 -9.512001
v -9.91568 26.1899 4.535645
v 23.69296 19.62513 10.9737
v 34.22556 12.87521 -19.82731
v -0.9315491 13.17592 -26.57198
v 4.789795 30.86383 -10.37527
v -4.36026 31.21973 4.011559
v 18.05493 22.62667 -0.9546661
v 13.78372 18.23573 -20.95832
v -8.686066 23.37937 -15.36178
v 0.6430359 12.86633 -2.648338
v -20.83102 6.265312 20.22602
v 18.62042 -1.029114 11.30208
v 12.09363 -2.898956 -28.68259
v -27.56992 4.136024 -19.97622
v -2.094421 -9.736862 12.85831
v -25.45242 -21.1666 5.688522
v -4.17691 -16.43064 42.96308
v 28.97626 -14.64753 23.89582
v 7.637421 -18.92225 -13.4287

vn 0.1872612 0.9812445 0.045742
vn 0.2464842 0.9048674 0.3470742
vn 0.553993 0.8323537 -0.016703
vn 0.1144297 0.9635062 -0.2419955
vn -0.198633 0.9750112 0.09948899
vn 0.1539283 0.9818807 -0.1105272
vn -0.3750374 0.9220928 -0.09535158
vn 0.1451732 0.9364278 0.3194176
vn 0.5733778 0.8133122 -0.09879925
vn 0.1321197 0.8318708 -0.5390133
vn 0.0633399 0.966265 0.2496396
vn -0.1380437 0.9184361 0.3707007
vn 0.1516677 0.8938231 0.4219918
vn 0.2211177 0.9647081 0.1429868
vn -0.02811757 0.9974397 0.06575429
vn 0.1747765 0.9811843 0.08203992
vn -0.08165745 0.9699826 0.2290542
vn 0.2791303 0.9024554 0.3281164
vn 0.4139138 0.907559 -0.07079554
vn 0.02884595 0.9734372 -0.2271297
vn -0.4684443 0.8709469 -0.1483617
vn -0.9162437 0.3706205 0.1521115
vn -0.03618728 0.9388227 0.3424945
vn 0.0800743 0.9386275 -0.3355091
vn -0.6852309 0.4966555 -0.5327213
vn 0.2134685 0.945627 -0.2453994
vn -0.09493476 0.990138 -0.1030252
vn 0.347737 0.93726 0.02495091
vn 0.5133948 0.7766781 -0.3649614
vn -0.05049326 0.7670681 -0.6395755
vn 0.07374088 0.9951208 -0.0655515
vn -0.4399771 0.8975984 -0.0271525
vn 0.1257901 0.9218817 0.3664847
vn 0.489898 0.8677208 -0.08402739
vn 0.002486805 0.8593225 -0.5114281
vn 0.1262284 0.988925 -0.07806174
vn -0.1635222 0.9857793 -0.03872249
vn 0.1432804 0.9881293 0.05541756
vn 0.3587981 0.9274126 -0.105687
vn 0.1108233 0.9765437 -0.184609
vn 0.2114365 0.9230525 -0.3213543
vn -0.130648 0.9881416 -0.08066843
vn 0.3049946 0.9341907 -0.1851109
vn 0.5135224 0.6949506 -0.5033273
vn 0.07926159 0.8695813 -0.4873868
vn 0.1450116 0.9548948 -0.2591285
vn -0.07118055 0.989809 -0.1233351
vn 0.3450973 0.9313379 0.1162645
vn 0.3519174 0.856355 -0.3779025
vn -0.06565381 0.8207492 -0.5675035
vn 0.2041392 0.9213694 -0.3307651
vn 0.03087558 0.9995103 -0.005088576
vn 0.5464642 0.836622 -0.03795229
vn 0.3379301 0.7341875 -0.5888734
vn -0.2253407 0.7877178 -0.573343
vn 0.1613372 0.9839869 -0.07576473
vn -0.0496244 0.9710564 0.2336383
vn 0.5076981 0.8416411 0.184073
vn 0.34667 0.8621073 -0.3695821
vn -0.1312705 0.9546451 -0.2672466
vn -0.09744535 0.9931618 -0.0642971
vn -0.4049074 0.9057936 -0.1248515
vn -0.1826162 0.9623469 0.2013448
vn 0.159627 0.987125 -0.01017257
vn -0.002421614 0.9437447 -0.3306662

vt 0.5 0.5
vt 0.0004995465 0.0004997253
vt 0.9995002 0.0004994869
vt 0.9995004 0.9995003
vt 0.0004997849 0.9995005
vt 0.5 0.5
vt 0.0004995763 0.0004997253
vt 0.9995002 0.0004994869
vt 0.9995004 0.9995003
vt 0.0004997849 0.9995005
vt 0.5 0.5
vt 0.0004995465 0.0004997849
vt 0.9995002 0.0004995465
vt 0.9995004 0.9995002
vt 0.0004997849 0.9995005
vt 0.5 0.5
vt 0.0004995167 0.0004997551
vt 0.9995003 0.0004995167
vt 0.9995005 0.9995003
vt 0.0004997551 0.9995005
vt 0.5 0.5
vt 0.0004994869 0.0004997551
vt 0.9995003 0.0004995167
vt 0.9995005 0.9995003
vt 0.0004997253 0.9995005
vt 0.5 0.5
vt 0.0004995465 0.0004997253
vt 0.9995002 0.0004994869
vt 0.9995004 0.9995003
vt 0.0004997849 0.9995005
vt 0.5 0.5
vt 0.0004995763 0.0004997551
vt 0.9995002 0.0004994869
vt 0.9995004 0.9995003
vt 0.0004998147 0.9995005
vt 0.5 0.5
vt 0.0004995167 0.0004997551
vt 0.9995003 0.0004995167
vt 0.9995005 0.9995003
vt 0.0004997551 0.9995005
vt 0.5 0.5
vt 0.0004995167 0.0004997253
vt 0.9995003 0.0004994869
vt 0.9995005 0.9995003
vt 0.0004997551 0.9995005
vt 0.5 0.5
vt 0.0004994869 0.0004997253
vt 0.9995003 0.0004994869
vt 0.9995005 0.9995003
vt 0.0004997253 0.9995005
vt 0.5 0.5
vt 0.0004995465 0.0004997551
vt 0.9995002 0.0004995167
vt 0.9995004 0.9995003
vt 0.0004997849 0.9995005
vt 0.5 0.5
vt 0.0004994869 0.0004997551
vt 0.9995003 0.0004995167
vt 0.9995005 0.9995003
vt 0.0004997253 0.9995005
vt 0.5 0.5
vt 0.0004995465 0.0004997849
vt 0.9995002 0.0004995465
vt 0.9995004 0.9995002
vt 0.0004997849 0.9995005

usemtl sn13_44_Aree02.bmp
usemap sn13_44_Aree02.bmp
f 3/3/3 1/1/1 2/2/2
f 4/4/4 1/1/1 3/3/3
f 5/5/5 1/1/1 4/4/4
f 2/2/2 1/1/1 5/5/5
f 8/8/8 6/6/6 7/7/7
f 9/9/9 6/6/6 8/8/8
f 10/10/10 6/6/6 9/9/9
f 7/7/7 6/6/6 10/10/10
f 13/13/13 11/11/11 12/12/12
f 14/14/14 11/11/11 13/13/13
f 15/15/15 11/11/11 14/14/14
f 12/12/12 11/11/11 15/15/15
f 18/18/18 16/16/16 17/17/17
f 19/19/19 16/16/16 18/18/18
f 20/20/20 16/16/16 19/19/19
f 17/17/17 16/16/16 20/20/20
f 23/23/23 21/21/21 22/22/22
f 24/24/24 21/21/21 23/23/23
f 25/25/25 21/21/21 24/24/24
f 22/22/22 21/21/21 25/25/25
f 28/28/28 26/26/26 27/27/27
f 29/29/29 26/26/26 28/28/28
f 30/30/30 26/26/26 29/29/29
f 27/27/27 26/26/26 30/30/30
f 33/33/33 31/31/31 32/32/32
f 34/34/34 31/31/31 33/33/33
f 35/35/35 31/31/31 34/34/34
f 32/32/32 31/31/31 35/35/35
f 38/38/38 36/36/36 37/37/37
f 39/39/39 36/36/36 38/38/38
f 40/40/40 36/36/36 39/39/39
f 37/37/37 36/36/36 40/40/40
f 43/43/43 41/41/41 42/42/42
f 44/44/44 41/41/41 43/43/43
f 45/45/45 41/41/41 44/44/44
f 42/42/42 41/41/41 45/45/45
f 48/48/48 46/46/46 47/47/47
f 49/49/49 46/46/46 48/48/48
f 50/50/50 46/46/46 49/49/49
f 47/47/47 46/46/46 50/50/50
f 53/53/53 51/51/51 52/52/52
f 54/54/54 51/51/51 53/53/53
f 55/55/55 51/51/51 54/54/54
f 52/52/52 51/51/51 55/55/55
f 58/58/58 56/56/56 57/57/57
f 59/59/59 56/56/56 58/58/58
f 60/60/60 56/56/56 59/59/59
f 57/57/57 56/56/56 60/60/60
f 63/63/63 61/61/61 62/62/62
f 64/64/64 61/61/61 63/63/63
f 65/65/65 61/61/61 64/64/64
f 62/62/62 61/61/61 65/65/65
