mtllib ./Object65.mtl
g Object65
v -499.5962 -8.999817 0.0001220703
v -850.0679 -8.999817 0.0001220703
v -499.5962 9.000183 0.0001220703
v -850.0679 9.000183 0.0001220703
v -149.1245 -8.999878 0.0001220703
v -499.5962 -8.999817 0.0001220703
v -149.1245 9.000122 0.0001220703
v -499.5962 9.000183 0.0001220703
v 201.3472 -8.999878 0.0001220703
v -149.1245 -8.999878 0.0001220703
v 201.3472 9.000122 0.0001220703
v -149.1245 9.000122 0.0001220703
v 551.819 -8.999939 0.0001220703
v 201.3472 -8.999878 0.0001220703
v 551.819 9.000061 0.0001220703
v 201.3472 9.000122 0.0001220703
v 850.0679 -8.999939 0.0001220703
v 551.819 -8.999939 0.0001220703
v 850.0679 9.000061 0.0001220703
v 551.819 9.000061 0.0001220703

vn 0 0 -1
vn 0 0 -1
vn 0 0 -1
vn 0 0 -1
vn 0 0 -1
vn 0 0 -1
vn 0 0 -1
vn 0 0 -1
vn 0 0 -1
vn 0 0 -1
vn 0 0 -1
vn 0 0 -1
vn 0 0 -1
vn 0 0 -1
vn 0 0 -1
vn 0 0 -1
vn 0 0 -1
vn 0 0 -1
vn 0 0 -1
vn 0 0 -1

vt 4 0.5008147
vt 0 0.5008147
vt 4 0.577817
vt 0 0.577817
vt 4 0.5008147
vt 0 0.5008147
vt 4 0.577817
vt 0 0.577817
vt 4 0.5008147
vt 0 0.5008147
vt 4 0.577817
vt 0 0.577817
vt 4 0.5008147
vt 0 0.5008147
vt 4 0.577817
vt 0 0.577817
vt 4 0.5008147
vt 0 0.5008147
vt 4 0.577817
vt 0 0.577817

usemtl sn13_06_sn13r14.jpg
usemap sn13_06_sn13r14.jpg
f 3/3/3 1/1/1 2/2/2
f 2/2/2 4/4/4 3/3/3
f 7/7/7 5/5/5 6/6/6
f 6/6/6 8/8/8 7/7/7
f 11/11/11 9/9/9 10/10/10
f 10/10/10 12/12/12 11/11/11
f 15/15/15 13/13/13 14/14/14
f 14/14/14 16/16/16 15/15/15
f 19/19/19 17/17/17 18/18/18
f 18/18/18 20/20/20 19/19/19
