mtllib ./Object32.mtl
g Object32
v 90.76583 45.37041 -114.5837
v 90.57171 51.65117 -118.6413
v 101.2306 51.63976 104.1533
v 101.0606 45.53768 100.6014
v 85.09875 51.65117 -118.3795
v 85.29287 45.37041 -114.3219
v 95.58778 45.53768 100.8632
v 95.75771 51.63976 104.4151
v 90.57171 51.65117 -118.6413
v 85.09875 51.65117 -118.3795
v 95.75771 51.63976 104.4151
v 101.2306 51.63976 104.1533
v 95.58778 45.53768 100.8632
v 101.0606 45.53768 100.6014
v 101.2306 51.63976 104.1533
v 90.57171 51.65117 -118.6413
v 90.76583 45.37041 -114.5837
v 85.29287 45.37041 -114.3219
v 85.09875 51.65117 -118.3795

vn 0.0002759919 -4.889816E-07 -1
vn 0.000275977 2.151239E-07 -1
vn 0.0002759919 -4.889816E-07 -1
vn 0.0002760142 -1.239647E-06 -1
vn -0.0002754331 5.40971E-07 1
vn -0.0002754405 1.831618E-07 1
vn -0.0002754331 5.40971E-07 1
vn 0.02427857 -0.01430786 0.999603
vn 5.113641E-05 1 1.410081E-08
vn 5.113641E-05 1 1.412627E-08
vn 5.113641E-05 1 1.410081E-08
vn 5.113641E-05 1 1.40717E-08
vn 0.8639982 -0.503495 0.0002377629
vn 0.8639982 -0.503495 0.0002377629
vn 0.8639982 -0.503495 0.0002377629
vn -0.8396795 -0.5430822 -0.0002314448
vn -0.8396798 -0.5430819 -0.0002308488
vn -0.8396795 -0.5430822 -0.0002314448
vn -0.8396794 -0.5430826 -0.0002320409

vt 0.002528012 0.0252023
vt 0.002527945 0.003605336
vt 0.4982433 0.003605336
vt 0.4821678 0.0245892
vt 0.002528012 0.0252023
vt 0.01907318 0.002974328
vt 0.4982433 0.003605336
vt 0.4982434 0.0252023
vt 0.002528012 0.0252023
vt 0.002527904 0.003605332
vt 0.4982433 0.003605336
vt 0.4982434 0.0252023
vt 0.002528012 0.0252023
vt 0.002527945 0.003605336
vt 0.4982433 0.003605336
vt 2.006193 0.2230844
vt 2.006193 0.2230844
vt 2.006193 0.2230844
vt 2.006193 0.2230844

usemtl sn13_18_sn13h01.jpg
usemap sn13_18_sn13h01.jpg
f 3/3/3 1/1/1 2/2/2
f 1/1/1 3/3/3 4/4/4
f 7/7/7 5/5/5 6/6/6
f 5/5/5 7/7/7 8/8/8
f 11/11/11 9/9/9 10/10/10
f 9/9/9 11/11/11 12/12/12
f 15/15/15 13/13/13 14/14/14
f 13/13/13 15/15/15 8/8/8

usemtl sn13_14_sn13h02.JPG
usemap sn13_14_sn13h02.JPG
f 18/18/18 16/16/16 17/17/17
f 16/16/16 18/18/18 19/19/19
