mtllib ./Object133.mtl
g Object133
v -61.50995 63.63057 -0.5223389
v -59.29895 60.11522 -5.253693
v -59.29895 60.11522 4.356873
v 57.49084 59.85634 -5.253693
v 59.03857 63.60176 -0.5223236
v 57.49084 59.85634 4.356873
v -59.29895 60.11522 -5.253693
v -61.50995 63.63057 -0.5223389
v 57.49084 59.85634 -5.253693
v 57.49084 59.85634 -5.253693
v -61.50995 63.63057 -0.5223389
v 59.03857 63.60176 -0.5223236
v -59.29895 60.11522 4.356873
v 57.49084 59.85634 4.356873
v -61.50995 63.63057 -0.5223389
v 59.03857 63.60176 -0.5223236
v 57.49084 59.85634 -5.253693
v -59.29895 60.11522 -5.253693
v -59.29895 60.11522 4.356873

vn -0.8464901 -0.5324045 0
vn -0.8464901 -0.5324045 0
vn -0.8464901 -0.5324045 0
vn 0.9241998 -0.3819093 0
vn 0.9241998 -0.3819093 0
vn 0.013726 -0.9999058 0
vn 0.001780158 0.8030894 -0.5958558
vn 0.001780158 0.8030894 -0.5958558
vn 0.001780158 0.8030894 -0.5958558
vn 0.0001874453 0.7840357 -0.6207156
vn 0.0001874453 0.7840357 -0.6207156
vn 0.0001874453 0.7840357 -0.6207156
vn 0.001799326 0.8117367 0.5840207
vn 0.0009724871 0.8023156 0.5968993
vn 0.0009724871 0.8023156 0.5968993
vn 0.0001894831 0.7932078 0.608951
vn -0.002216632 -0.9999976 0
vn -0.002216632 -0.9999976 0
vn -0.002216632 -0.9999976 0

vt 0.04589372 0
vt 1 0
vt 1 0.09903383
vt 0.04589372 0
vt 1 0
vt 1 0.09903383
vt 1 0
vt 1 0.09903383
vt 0.04589372 0
vt 1 0.09903383
vt 0.04589372 0
vt 1 0
vt 0.812802 0.09057972
vt 0.03743962 0.09057973
vt 0.812802 0.008454107
vt 0.03743961 0.008454111
vt 1 0
vt 0.04589372 0
vt 0.04589372 0.09903383

usemtl sn13_07_sn13h08.JPG
usemap sn13_07_sn13h08.JPG
f 3/3/3 1/1/1 2/2/2
f 6/6/6 4/4/4 5/5/5
f 9/9/9 7/7/7 8/8/8
f 12/12/12 10/10/10 11/11/11
f 15/15/15 13/13/13 14/14/14
f 16/16/16 15/15/15 14/14/14
f 18/18/18 17/17/17 6/6/6
f 19/19/19 18/18/18 6/6/6
