mtllib ./Object152.mtl
g Object152
v -7.36541 1.873711 15.57428
v -5.584862 -6.678551 36.60663
v 10.08302 -9.836147 10.75856
v -11.79983 -3.429916 -7.638992
v -28.53636 -2.901764 20.10632
v 11.53005 -5.824844 -25.9408
v -8.159782 -13.50179 -22.73608
v 11.43887 -12.66181 -5.855606
v 31.8765 -19.76094 -22.58252
v 10.83573 -16.74435 -42.96329
v -11.17402 -5.132904 16.69099
v -36.15848 -13.07695 27.06906
v 8.553902 -18.77032 38.48608
v 19.67223 -9.710175 -0.1281891
v -25.0448 -3.66951 -11.43887
v 16.65731 22.36729 6.656769
v -1.947166 18.22597 17.56171
v 28.58059 10.7824 28.3768
v 36.15913 12.93098 -0.292099
v 5.079277 18.348 -12.03964
v -8.632225 10.79199 10.08986
v -11.95621 -0.3882904 17.3087
v 0.6083603 6.983093 21.5069
v 5.648903 6.282661 0.8828583
v -6.879097 -1.292191 -3.431213
v 8.075249 -4.590431 -32.34393
v -7.972633 -4.697327 -18.58363
v 15.28065 -7.835052 -10.88321
v 23.72095 -16.02774 -34.67479
v 0.6743393 -12.37979 -41.10173
v -7.846214 19.19321 -6.796494
v -23.70519 11.47202 -5.0634
v -5.482201 10.62807 13.93745
v 10.34493 8.647049 -9.644455
v -7.95385 8.232201 -25.21414
v 15.69012 26.67563 9.511322
v 1.993919 24.47435 11.31006
v 18.86869 25.53835 21.57164
v 31.20829 20.44888 7.553909
v 15.18246 23.85508 -5.713531
v 2.535774 -13.04703 -25.64795
v -17.40488 -14.33665 -9.149857
v 17.22535 -12.62838 0.6678162
v 19.6874 -31.22019 -33.24081
v -13.28916 -20.03983 -40.69785
v 13.12919 26.09673 -9.511826
v -9.915794 26.1899 4.535812
v 23.69286 19.62513 10.97388
v 34.22546 12.87521 -19.82713
v -0.9316635 13.17592 -26.57181
v 4.78968 30.86383 -10.37509
v -4.360359 31.21973 4.011734
v 18.05482 22.62667 -0.9544983
v 13.78362 18.23573 -20.95815
v -8.686195 23.37937 -15.3616
v 0.6429214 12.86633 -2.648163
v -20.83114 6.265312 20.2262
v 18.62031 -1.029114 11.30226
v 12.09351 -2.898956 -28.68242
v -27.57001 4.136024 -19.97604
v -2.094536 -9.736862 12.85849
v -25.45252 -21.1666 5.68869
v -4.17701 -16.43064 42.96326
v 28.97614 -14.64753 23.896
v 7.637306 -18.92225 -13.42853

vn 0.1872612 0.9812446 0.04574199
vn 0.2464842 0.9048674 0.3470742
vn 0.553993 0.8323537 -0.016703
vn 0.1144297 0.963506 -0.2419954
vn -0.1986331 0.9750112 0.099489
vn 0.1539283 0.9818807 -0.1105271
vn -0.3750376 0.9220927 -0.0953517
vn 0.1451732 0.9364278 0.3194175
vn 0.5733775 0.8133124 -0.09879901
vn 0.1321197 0.8318709 -0.5390133
vn 0.06333987 0.9662651 0.2496396
vn -0.1380436 0.9184362 0.3707007
vn 0.1516677 0.8938231 0.4219919
vn 0.2211177 0.9647081 0.1429868
vn -0.02811755 0.9974396 0.0657543
vn 0.1747766 0.9811842 0.08204003
vn -0.08165742 0.9699827 0.2290542
vn 0.2791303 0.9024554 0.3281165
vn 0.4139138 0.9075592 -0.07079517
vn 0.02884594 0.9734372 -0.2271297
vn -0.4684445 0.8709468 -0.1483623
vn -0.9162437 0.3706208 0.1521103
vn -0.03618726 0.9388227 0.3424945
vn 0.08007423 0.9386277 -0.3355091
vn -0.6852307 0.4966553 -0.5327218
vn 0.2134684 0.945627 -0.2453995
vn -0.09493461 0.9901379 -0.1030253
vn 0.347737 0.93726 0.02495116
vn 0.5133951 0.7766779 -0.3649617
vn -0.05049319 0.7670682 -0.6395754
vn 0.07374092 0.9951207 -0.0655515
vn -0.4399771 0.8975984 -0.0271525
vn 0.1257902 0.9218818 0.3664845
vn 0.4898983 0.8677206 -0.0840274
vn 0.002486807 0.8593224 -0.5114282
vn 0.1262283 0.988925 -0.07806184
vn -0.1635218 0.9857795 -0.03872247
vn 0.1432804 0.9881294 0.05541775
vn 0.3587984 0.9274126 -0.1056873
vn 0.1108233 0.9765437 -0.1846093
vn 0.2114364 0.9230525 -0.3213543
vn -0.1306479 0.9881415 -0.08066844
vn 0.3049946 0.9341907 -0.1851109
vn 0.5135225 0.6949503 -0.5033275
vn 0.07926155 0.8695813 -0.4873869
vn 0.1450116 0.9548947 -0.2591286
vn -0.07118051 0.989809 -0.1233351
vn 0.3450971 0.9313381 0.1162643
vn 0.3519172 0.856355 -0.3779025
vn -0.06565373 0.8207492 -0.5675035
vn 0.204139 0.9213694 -0.3307652
vn 0.03087558 0.9995103 -0.005088607
vn 0.5464643 0.8366221 -0.0379523
vn 0.3379298 0.7341878 -0.5888734
vn -0.2253405 0.7877178 -0.5733429
vn 0.1613372 0.9839868 -0.0757647
vn -0.04962443 0.9710564 0.2336383
vn 0.507698 0.8416411 0.184073
vn 0.3466701 0.8621073 -0.3695821
vn -0.1312706 0.9546451 -0.2672466
vn -0.09744537 0.9931618 -0.06429709
vn -0.4049076 0.9057935 -0.1248514
vn -0.1826163 0.9623469 0.2013449
vn 0.159627 0.987125 -0.01017261
vn -0.002421561 0.9437447 -0.3306663

vt 0.5 0.5
vt 0.0004995465 0.0004997253
vt 0.9995002 0.0004994869
vt 0.9995004 0.9995003
vt 0.0004997849 0.9995005
vt 0.5 0.5
vt 0.0004995763 0.0004997253
vt 0.9995002 0.0004994869
vt 0.9995004 0.9995003
vt 0.0004997849 0.9995005
vt 0.5 0.5
vt 0.0004995465 0.0004997849
vt 0.9995002 0.0004995465
vt 0.9995004 0.9995002
vt 0.0004997849 0.9995005
vt 0.5 0.5
vt 0.0004995167 0.0004997551
vt 0.9995003 0.0004995167
vt 0.9995005 0.9995003
vt 0.0004997551 0.9995005
vt 0.5 0.5
vt 0.0004994869 0.0004997551
vt 0.9995003 0.0004995167
vt 0.9995005 0.9995003
vt 0.0004997253 0.9995005
vt 0.5 0.5
vt 0.0004995465 0.0004997253
vt 0.9995002 0.0004994869
vt 0.9995004 0.9995003
vt 0.0004997849 0.9995005
vt 0.5 0.5
vt 0.0004995763 0.0004997551
vt 0.9995002 0.0004994869
vt 0.9995004 0.9995003
vt 0.0004998147 0.9995005
vt 0.5 0.5
vt 0.0004995167 0.0004997551
vt 0.9995003 0.0004995167
vt 0.9995005 0.9995003
vt 0.0004997551 0.9995005
vt 0.5 0.5
vt 0.0004995167 0.0004997253
vt 0.9995003 0.0004994869
vt 0.9995005 0.9995003
vt 0.0004997551 0.9995005
vt 0.5 0.5
vt 0.0004994869 0.0004997253
vt 0.9995003 0.0004994869
vt 0.9995005 0.9995003
vt 0.0004997253 0.9995005
vt 0.5 0.5
vt 0.0004995465 0.0004997551
vt 0.9995002 0.0004995167
vt 0.9995004 0.9995003
vt 0.0004997849 0.9995005
vt 0.5 0.5
vt 0.0004994869 0.0004997551
vt 0.9995003 0.0004995167
vt 0.9995005 0.9995003
vt 0.0004997253 0.9995005
vt 0.5 0.5
vt 0.0004995465 0.0004997849
vt 0.9995002 0.0004995465
vt 0.9995004 0.9995002
vt 0.0004997849 0.9995005

usemtl sn13_44_Aree02.bmp
usemap sn13_44_Aree02.bmp
f 3/3/3 1/1/1 2/2/2
f 4/4/4 1/1/1 3/3/3
f 5/5/5 1/1/1 4/4/4
f 2/2/2 1/1/1 5/5/5
f 8/8/8 6/6/6 7/7/7
f 9/9/9 6/6/6 8/8/8
f 10/10/10 6/6/6 9/9/9
f 7/7/7 6/6/6 10/10/10
f 13/13/13 11/11/11 12/12/12
f 14/14/14 11/11/11 13/13/13
f 15/15/15 11/11/11 14/14/14
f 12/12/12 11/11/11 15/15/15
f 18/18/18 16/16/16 17/17/17
f 19/19/19 16/16/16 18/18/18
f 20/20/20 16/16/16 19/19/19
f 17/17/17 16/16/16 20/20/20
f 23/23/23 21/21/21 22/22/22
f 24/24/24 21/21/21 23/23/23
f 25/25/25 21/21/21 24/24/24
f 22/22/22 21/21/21 25/25/25
f 28/28/28 26/26/26 27/27/27
f 29/29/29 26/26/26 28/28/28
f 30/30/30 26/26/26 29/29/29
f 27/27/27 26/26/26 30/30/30
f 33/33/33 31/31/31 32/32/32
f 34/34/34 31/31/31 33/33/33
f 35/35/35 31/31/31 34/34/34
f 32/32/32 31/31/31 35/35/35
f 38/38/38 36/36/36 37/37/37
f 39/39/39 36/36/36 38/38/38
f 40/40/40 36/36/36 39/39/39
f 37/37/37 36/36/36 40/40/40
f 43/43/43 41/41/41 42/42/42
f 44/44/44 41/41/41 43/43/43
f 45/45/45 41/41/41 44/44/44
f 42/42/42 41/41/41 45/45/45
f 48/48/48 46/46/46 47/47/47
f 49/49/49 46/46/46 48/48/48
f 50/50/50 46/46/46 49/49/49
f 47/47/47 46/46/46 50/50/50
f 53/53/53 51/51/51 52/52/52
f 54/54/54 51/51/51 53/53/53
f 55/55/55 51/51/51 54/54/54
f 52/52/52 51/51/51 55/55/55
f 58/58/58 56/56/56 57/57/57
f 59/59/59 56/56/56 58/58/58
f 60/60/60 56/56/56 59/59/59
f 57/57/57 56/56/56 60/60/60
f 63/63/63 61/61/61 62/62/62
f 64/64/64 61/61/61 63/63/63
f 65/65/65 61/61/61 64/64/64
f 62/62/62 61/61/61 65/65/65
