mtllib ./Object83.mtl
g Object83
v -0.6577892 51.63976 -112.7959
v -0.7234092 45.53768 -109.2405
v -5.27848 45.37041 107.4033
v -5.353443 51.65117 111.465
v 4.755029 45.53768 -109.1394
v 4.820649 51.63976 -112.6948
v 0.1249955 51.65117 111.5661
v 0.1999584 45.37041 107.5044
v 4.820649 51.63976 -112.6948
v -0.6577892 51.63976 -112.7959
v -5.353443 51.65117 111.465
v 0.1249955 51.65117 111.5661
v 4.755029 45.53768 -109.1394
v -0.6577892 51.63976 -112.7959
v 4.820649 51.63976 -112.6948
v -0.7234092 45.53768 -109.2405
v -0.6577892 51.63976 -112.7959
v 4.755029 45.53768 -109.1394
v 0.1999584 45.37041 107.5044
v 0.1249955 51.65117 111.5661
v -5.353443 51.65117 111.465
v -5.27848 45.37041 107.4033

vn -0.7058403 0.0001031951 -0.708371
vn -0.7058072 -0.001497596 -0.7084023
vn -0.7058403 0.0001031951 -0.708371
vn -0.7058697 0.001604998 -0.7083399
vn 0.7058403 -0.000103259 0.708371
vn 0.70587 0.00144597 0.70834
vn 0.7058403 -0.000103259 0.708371
vn 0.7058088 -0.001660603 0.7084004
vn 3.592934E-05 1 -3.59822E-05
vn 3.592932E-05 1 -3.598223E-05
vn 3.592934E-05 1 -3.59822E-05
vn 3.592937E-05 1 -3.598218E-05
vn 0.6104847 -0.5035061 -0.6113837
vn 0.6104847 -0.5035061 -0.6113837
vn 0.6104847 -0.5035061 -0.6113837
vn 0.6104847 -0.5035061 -0.6113837
vn 0.6104847 -0.5035061 -0.6113837
vn 0.6104847 -0.5035061 -0.6113837
vn -0.5932984 -0.5430998 0.5941713
vn -0.5932987 -0.5431002 0.5941708
vn -0.5932984 -0.5430998 0.5941713
vn -0.5932982 -0.5430994 0.5941719

vt 0.4982433 0.003605336
vt 0.4982434 0.0252023
vt 0.002528012 0.0252023
vt 0.002527945 0.003605336
vt 0.4982433 0.003605336
vt 0.4982434 0.0252023
vt 0.002528012 0.0252023
vt 0.002527945 0.003605336
vt 0.4982433 0.003605336
vt 0.4982434 0.0252023
vt 0.002528012 0.0252023
vt 0.002527945 0.003605336
vt 0.4982433 0.003605336
vt 0.002528012 0.0252023
vt 0.002527945 0.003605336
vt 0.002527945 0.003605336
vt 0.4982433 0.003605336
vt 0.002528012 0.0252023
vt 2.006193 0.2230844
vt 2.006193 0.2230844
vt 2.006193 0.2230844
vt 2.006193 0.2230844

usemtl sn13_18_sn13h01.jpg
usemap sn13_18_sn13h01.jpg
f 3/3/3 1/1/1 2/2/2
f 1/1/1 3/3/3 4/4/4
f 7/7/7 5/5/5 6/6/6
f 5/5/5 7/7/7 8/8/8
f 11/11/11 9/9/9 10/10/10
f 9/9/9 11/11/11 12/12/12
f 15/15/15 13/13/13 14/14/14
f 18/18/18 16/16/16 17/17/17

usemtl sn13_14_sn13h02.JPG
usemap sn13_14_sn13h02.JPG
f 21/21/21 19/19/19 20/20/20
f 21/21/21 22/22/22 19/19/19
