mtllib ./Object164.mtl
g Object164
v -7.366089 1.873711 15.57436
v -5.585449 -6.678551 36.6067
v 10.0824 -9.836147 10.75865
v -11.80054 -3.429916 -7.638901
v -28.53699 -2.901764 20.1064
v 11.52942 -5.824844 -25.94072
v -8.1604 -13.50179 -22.73601
v 11.43823 -12.66181 -5.855545
v 31.87585 -19.76094 -22.58244
v 10.83508 -16.74435 -42.96321
v -11.17468 -5.132904 16.69109
v -36.15918 -13.07695 27.06914
v 8.553223 -18.77032 38.48616
v 19.67163 -9.710175 -0.1280975
v -25.04541 -3.66951 -11.4388
v 16.65674 22.36729 6.656845
v -1.947754 18.22597 17.56178
v 28.57996 10.7824 28.37688
v 36.15845 12.93098 -0.292038
v 5.078613 18.348 -12.03957
v -8.632813 10.79199 10.08995
v -11.95679 -0.3882904 17.30879
v 0.607666 6.983093 21.50697
v 5.648193 6.282661 0.8829498
v -6.879761 -1.292191 -3.431137
v 8.074585 -4.590431 -32.34386
v -7.973267 -4.697327 -18.58357
v 15.28003 -7.835052 -10.88313
v 23.72034 -16.02774 -34.6747
v 0.6737061 -12.37979 -41.10164
v -7.846924 19.19321 -6.796402
v -23.70581 11.47202 -5.063309
v -5.48291 10.62807 13.93752
v 10.34424 8.647049 -9.644394
v -7.954468 8.232201 -25.21407
v 15.68945 26.67563 9.511398
v 1.993286 24.47435 11.31013
v 18.86804 25.53835 21.57173
v 31.20764 20.44888 7.554001
v 15.18188 23.85508 -5.713455
v 2.535156 -13.04703 -25.64787
v -17.40552 -14.33665 -9.149796
v 17.22473 -12.62838 0.6678925
v 19.68677 -31.22019 -33.24074
v -13.28979 -20.03983 -40.69777
v 13.12854 26.09673 -9.511765
v -9.916504 26.1899 4.535904
v 23.69214 19.62513 10.97395
v 34.22485 12.87521 -19.82707
v -0.932373 13.17592 -26.57173
v 4.789063 30.86383 -10.37502
v -4.361084 31.21973 4.011826
v 18.0542 22.62667 -0.954422
v 13.78296 18.23573 -20.95805
v -8.686768 23.37937 -15.36153
v 0.642334 12.86633 -2.648087
v -20.83179 6.265312 20.22627
v 18.61963 -1.029114 11.30232
v 12.0929 -2.898956 -28.68233
v -27.57068 4.136024 -19.97597
v -2.095215 -9.736862 12.85857
v -25.45313 -21.1666 5.688766
v -4.177734 -16.43064 42.96333
v 28.97546 -14.64753 23.89607
v 7.636719 -18.92225 -13.42845

vn 0.1872611 0.9812446 0.04574152
vn 0.2464838 0.9048678 0.3470733
vn 0.5539915 0.8323547 -0.01670425
vn 0.1144297 0.9635061 -0.2419958
vn -0.1986335 0.9750111 0.09948963
vn 0.1539284 0.9818807 -0.1105272
vn -0.3750379 0.9220926 -0.09535156
vn 0.1451733 0.9364278 0.3194177
vn 0.5733778 0.8133121 -0.09879927
vn 0.1321198 0.8318707 -0.5390133
vn 0.06333976 0.966265 0.2496398
vn -0.1380437 0.9184362 0.3707006
vn 0.1516675 0.8938229 0.4219923
vn 0.2211174 0.9647081 0.1429872
vn -0.02811756 0.9974397 0.06575421
vn 0.1747769 0.9811842 0.08203971
vn -0.08165735 0.9699826 0.2290542
vn 0.2791311 0.9024551 0.3281167
vn 0.4139151 0.9075583 -0.07079642
vn 0.02884587 0.9734371 -0.2271298
vn -0.468447 0.8709457 -0.1483616
vn -0.9162444 0.3706194 0.1521099
vn -0.03618737 0.9388227 0.3424946
vn 0.08007484 0.9386275 -0.3355091
vn -0.685233 0.4966559 -0.5327182
vn 0.2134684 0.9456269 -0.2453997
vn -0.09493467 0.9901379 -0.1030252
vn 0.3477366 0.9372602 0.0249506
vn 0.5133943 0.7766783 -0.3649618
vn -0.05049317 0.7670676 -0.6395763
vn 0.07374106 0.9951208 -0.06555136
vn -0.4399792 0.8975973 -0.02715334
vn 0.1257908 0.9218816 0.3664849
vn 0.4898981 0.8677208 -0.08402625
vn 0.002486416 0.8593226 -0.5114279
vn 0.1262285 0.988925 -0.07806146
vn -0.1635222 0.9857793 -0.03872285
vn 0.1432804 0.9881294 0.05541751
vn 0.3587983 0.9274126 -0.1056862
vn 0.1108235 0.9765438 -0.1846087
vn 0.2114365 0.9230525 -0.3213545
vn -0.1306478 0.9881416 -0.08066849
vn 0.3049946 0.9341907 -0.1851109
vn 0.5135226 0.6949501 -0.5033278
vn 0.07926163 0.8695812 -0.487387
vn 0.1450112 0.9548949 -0.2591283
vn -0.0711805 0.9898089 -0.1233351
vn 0.345097 0.931338 0.1162656
vn 0.3519168 0.8563553 -0.3779022
vn -0.06565399 0.8207492 -0.5675036
vn 0.2041391 0.9213696 -0.3307647
vn 0.03087553 0.9995103 -0.005088416
vn 0.5464639 0.8366224 -0.03795144
vn 0.3379306 0.7341868 -0.588874
vn -0.2253408 0.7877173 -0.5733435
vn 0.1613372 0.9839868 -0.07576464
vn -0.04962435 0.9710565 0.2336382
vn 0.5076991 0.8416402 0.1840742
vn 0.3466703 0.862107 -0.3695824
vn -0.1312703 0.9546452 -0.2672466
vn -0.09744541 0.9931617 -0.06429733
vn -0.4049083 0.9057931 -0.1248526
vn -0.1826165 0.9623469 0.2013446
vn 0.1596269 0.987125 -0.01017225
vn -0.002421561 0.9437446 -0.3306662

vt 0.5 0.5
vt 0.0004995465 0.0004997253
vt 0.9995002 0.0004994869
vt 0.9995004 0.9995003
vt 0.0004997849 0.9995005
vt 0.5 0.5
vt 0.0004995763 0.0004997253
vt 0.9995002 0.0004994869
vt 0.9995004 0.9995003
vt 0.0004997849 0.9995005
vt 0.5 0.5
vt 0.0004995465 0.0004997849
vt 0.9995002 0.0004995465
vt 0.9995004 0.9995002
vt 0.0004997849 0.9995005
vt 0.5 0.5
vt 0.0004995167 0.0004997551
vt 0.9995003 0.0004995167
vt 0.9995005 0.9995003
vt 0.0004997551 0.9995005
vt 0.5 0.5
vt 0.0004994869 0.0004997551
vt 0.9995003 0.0004995167
vt 0.9995005 0.9995003
vt 0.0004997253 0.9995005
vt 0.5 0.5
vt 0.0004995465 0.0004997253
vt 0.9995002 0.0004994869
vt 0.9995004 0.9995003
vt 0.0004997849 0.9995005
vt 0.5 0.5
vt 0.0004995763 0.0004997551
vt 0.9995002 0.0004994869
vt 0.9995004 0.9995003
vt 0.0004998147 0.9995005
vt 0.5 0.5
vt 0.0004995167 0.0004997551
vt 0.9995003 0.0004995167
vt 0.9995005 0.9995003
vt 0.0004997551 0.9995005
vt 0.5 0.5
vt 0.0004995167 0.0004997253
vt 0.9995003 0.0004994869
vt 0.9995005 0.9995003
vt 0.0004997551 0.9995005
vt 0.5 0.5
vt 0.0004994869 0.0004997253
vt 0.9995003 0.0004994869
vt 0.9995005 0.9995003
vt 0.0004997253 0.9995005
vt 0.5 0.5
vt 0.0004995465 0.0004997551
vt 0.9995002 0.0004995167
vt 0.9995004 0.9995003
vt 0.0004997849 0.9995005
vt 0.5 0.5
vt 0.0004994869 0.0004997551
vt 0.9995003 0.0004995167
vt 0.9995005 0.9995003
vt 0.0004997253 0.9995005
vt 0.5 0.5
vt 0.0004995465 0.0004997849
vt 0.9995002 0.0004995465
vt 0.9995004 0.9995002
vt 0.0004997849 0.9995005

usemtl sn13_44_Aree02.bmp
usemap sn13_44_Aree02.bmp
f 3/3/3 1/1/1 2/2/2
f 4/4/4 1/1/1 3/3/3
f 5/5/5 1/1/1 4/4/4
f 2/2/2 1/1/1 5/5/5
f 8/8/8 6/6/6 7/7/7
f 9/9/9 6/6/6 8/8/8
f 10/10/10 6/6/6 9/9/9
f 7/7/7 6/6/6 10/10/10
f 13/13/13 11/11/11 12/12/12
f 14/14/14 11/11/11 13/13/13
f 15/15/15 11/11/11 14/14/14
f 12/12/12 11/11/11 15/15/15
f 18/18/18 16/16/16 17/17/17
f 19/19/19 16/16/16 18/18/18
f 20/20/20 16/16/16 19/19/19
f 17/17/17 16/16/16 20/20/20
f 23/23/23 21/21/21 22/22/22
f 24/24/24 21/21/21 23/23/23
f 25/25/25 21/21/21 24/24/24
f 22/22/22 21/21/21 25/25/25
f 28/28/28 26/26/26 27/27/27
f 29/29/29 26/26/26 28/28/28
f 30/30/30 26/26/26 29/29/29
f 27/27/27 26/26/26 30/30/30
f 33/33/33 31/31/31 32/32/32
f 34/34/34 31/31/31 33/33/33
f 35/35/35 31/31/31 34/34/34
f 32/32/32 31/31/31 35/35/35
f 38/38/38 36/36/36 37/37/37
f 39/39/39 36/36/36 38/38/38
f 40/40/40 36/36/36 39/39/39
f 37/37/37 36/36/36 40/40/40
f 43/43/43 41/41/41 42/42/42
f 44/44/44 41/41/41 43/43/43
f 45/45/45 41/41/41 44/44/44
f 42/42/42 41/41/41 45/45/45
f 48/48/48 46/46/46 47/47/47
f 49/49/49 46/46/46 48/48/48
f 50/50/50 46/46/46 49/49/49
f 47/47/47 46/46/46 50/50/50
f 53/53/53 51/51/51 52/52/52
f 54/54/54 51/51/51 53/53/53
f 55/55/55 51/51/51 54/54/54
f 52/52/52 51/51/51 55/55/55
f 58/58/58 56/56/56 57/57/57
f 59/59/59 56/56/56 58/58/58
f 60/60/60 56/56/56 59/59/59
f 57/57/57 56/56/56 60/60/60
f 63/63/63 61/61/61 62/62/62
f 64/64/64 61/61/61 63/63/63
f 65/65/65 61/61/61 64/64/64
f 62/62/62 61/61/61 65/65/65
