mtllib ./Object88.mtl
g Object88
v 0.5774583 33.29999 -145.0564
v 0.577458 35.29123 -145.0575
v 0.6656551 33.24562 146.9393
v 0.6656417 35.31735 146.8948
v -1.173905 35.29123 -145.057
v -1.173905 33.29999 -145.0558
v -1.085721 35.31735 146.8954
v -1.085708 33.24562 146.9398
v 0.577458 35.29123 -145.0575
v -1.173905 35.29123 -145.057
v 0.6656417 35.31735 146.8948
v -1.085721 35.31735 146.8954
v 0.577458 35.29123 -145.0575
v -1.173905 33.29999 -145.0558
v -1.173905 35.29123 -145.057
v 0.5774583 33.29999 -145.0564
v -1.085721 35.31735 146.8954
v -1.085708 33.24562 146.9398
v 0.6656417 35.31735 146.8948
v 0.6656551 33.24562 146.9393

vn -0.0003019888 3.692153E-09 -0.9999999
vn -0.0003019888 4.691212E-10 -0.9999999
vn -0.0003019888 4.691212E-10 -0.9999999
vn -0.0003019889 -2.629155E-09 -0.9999998
vn 0.0003019889 -3.692124E-09 0.9999999
vn 0.0003019887 1.419957E-08 0.9999999
vn 0.0003019887 1.419957E-08 0.9999999
vn 0.0003019886 3.139372E-08 0.9999999
vn -8.945094E-05 1 2.727029E-08
vn -8.945094E-05 1 2.727029E-08
vn -8.945094E-05 1 2.727029E-08
vn -8.945094E-05 1 2.727029E-08
vn -0.9999996 -0.0005823843 0.0003048778
vn -0.9999996 -0.0005823843 0.0003048778
vn -0.9999996 -0.0005823842 0.0003048778
vn -0.9999997 -0.0005823844 0.0003048778
vn 0.9997701 0.02143535 -0.0003048182
vn 0.9997701 0.02143535 -0.0003048182
vn 0.9997701 0.02143535 -0.0003048182
vn 0.9997702 0.02143535 -0.0003048182

vt -0.9835309 0.1430788
vt -0.9835311 0.02934748
vt 4.458706 0.1430788
vt 4.458706 0.02934754
vt -0.9835309 0.1430788
vt -0.9835311 0.02934748
vt 4.458706 0.1430788
vt 4.458706 0.02934754
vt 4.458706 0.02934754
vt 4.458706 0.1430788
vt -0.9835311 0.02934748
vt -0.9835309 0.1430788
vt 4.465882 0.2230844
vt 4.465882 0.2230844
vt 4.465882 0.2230844
vt 4.465882 0.2230844
vt 4.465882 0.2230844
vt 4.465882 0.2230844
vt 4.465882 0.2230844
vt 4.465882 0.2230844

usemtl sn13_12_sn13h04.JPG
usemap sn13_12_sn13h04.JPG
f 3/3/3 1/1/1 2/2/2
f 2/2/2 4/4/4 3/3/3
f 7/7/7 5/5/5 6/6/6
f 6/6/6 8/8/8 7/7/7
f 11/11/11 9/9/9 10/10/10
f 10/10/10 12/12/12 11/11/11

usemtl sn13_09_sn13r01.jpg
usemap sn13_09_sn13r01.jpg
f 15/15/15 13/13/13 14/14/14
f 14/14/14 13/13/13 16/16/16
f 19/19/19 17/17/17 18/18/18
f 19/19/19 18/18/18 20/20/20
