mtllib ./Object174.mtl
g Object174
v -7.36554 1.873711 15.57446
v -5.585022 -6.678551 36.60693
v 10.08282 -9.836147 10.75879
v -11.79999 -3.429916 -7.638672
v -28.53656 -2.901764 20.10645
v 11.52985 -5.824844 -25.94067
v -8.159973 -13.50179 -22.73584
v 11.43866 -12.66181 -5.855469
v 31.8764 -19.76094 -22.58228
v 10.83563 -16.74435 -42.96313
v -11.17413 -5.132904 16.69116
v -36.15863 -13.07695 27.06934
v 8.553772 -18.77032 38.48633
v 19.67206 -9.710175 -0.1279297
v -25.04498 -3.66951 -11.43872
v 16.65717 22.36729 6.656982
v -1.947327 18.22597 17.56201
v 28.58038 10.7824 28.37695
v 36.159 12.93098 -0.2919922
v 5.079163 18.348 -12.03931
v -8.632385 10.79199 10.09009
v -11.95636 -0.3882904 17.30884
v 0.6082153 6.983093 21.50708
v 5.648743 6.282661 0.8830566
v -6.879211 -1.292191 -3.430908
v 8.075134 -4.590431 -32.34375
v -7.972839 -4.697327 -18.5835
v 15.28046 -7.835052 -10.88306
v 23.72076 -16.02774 -34.67456
v 0.6741333 -12.37979 -41.10156
v -7.846375 19.19321 -6.796387
v -23.70538 11.47202 -5.063232
v -5.482361 10.62807 13.93774
v 10.34479 8.647049 -9.644287
v -7.954041 8.232201 -25.21387
v 15.69 26.67563 9.511475
v 1.993713 24.47435 11.3103
v 18.86859 25.53835 21.57178
v 31.20807 20.44888 7.554199
v 15.18231 23.85508 -5.713379
v 2.535583 -13.04703 -25.64771
v -17.40509 -14.33665 -9.149658
v 17.22516 -12.62838 0.6679688
v 19.68719 -31.22019 -33.24048
v -13.28937 -20.03983 -40.69751
v 13.12909 26.09673 -9.511719
v -9.915955 26.1899 4.536133
v 23.69269 19.62513 10.97412
v 34.22528 12.87521 -19.8269
v -0.9318237 13.17592 -26.57153
v 4.78949 30.86383 -10.37476
v -4.360535 31.21973 4.011963
v 18.05463 22.62667 -0.9543457
v 13.78351 18.23573 -20.95801
v -8.68634 23.37937 -15.36133
v 0.6427612 12.86633 -2.647949
v -20.83124 6.265312 20.22632
v 18.62018 -1.029114 11.30249
v 12.09332 -2.898956 -28.68213
v -27.57013 4.136024 -19.97583
v -2.094666 -9.736862 12.85864
v -25.4527 -21.1666 5.688965
v -4.177185 -16.43064 42.96338
v 28.97601 -14.64753 23.89624
v 7.637146 -18.92225 -13.42822

vn 0.187261 0.9812446 0.04574205
vn 0.246483 0.9048682 0.347073
vn 0.5539944 0.8323528 -0.01670326
vn 0.1144299 0.9635057 -0.241997
vn -0.1986328 0.9750112 0.09948901
vn 0.1539279 0.9818808 -0.1105267
vn -0.3750385 0.9220923 -0.09535276
vn 0.1451729 0.936428 0.3194173
vn 0.5733758 0.8133137 -0.09879755
vn 0.1321194 0.8318707 -0.5390134
vn 0.06333976 0.9662651 0.2496392
vn -0.1380425 0.9184368 0.3706996
vn 0.1516674 0.8938236 0.4219911
vn 0.2211175 0.9647082 0.1429864
vn -0.02811753 0.9974396 0.06575432
vn 0.1747771 0.9811842 0.08204049
vn -0.08165617 0.9699827 0.2290543
vn 0.2791319 0.9024549 0.328117
vn 0.4139134 0.9075593 -0.07079434
vn 0.02884447 0.9734371 -0.2271302
vn -0.468445 0.8709464 -0.1483632
vn -0.9162444 0.3706188 0.1521108
vn -0.03618718 0.9388223 0.3424957
vn 0.08007278 0.9386274 -0.3355101
vn -0.6852308 0.4966522 -0.5327244
vn 0.2134687 0.9456267 -0.2453998
vn -0.09493403 0.990138 -0.1030255
vn 0.3477373 0.9372599 0.02495232
vn 0.5133971 0.7766761 -0.3649628
vn -0.0504913 0.7670683 -0.6395754
vn 0.07374083 0.9951208 -0.06555152
vn -0.4399765 0.8975987 -0.02715219
vn 0.1257897 0.9218829 0.3664817
vn 0.4898981 0.8677206 -0.08402771
vn 0.002486172 0.8593203 -0.5114316
vn 0.1262285 0.988925 -0.0780621
vn -0.163521 0.9857796 -0.03872233
vn 0.1432804 0.9881294 0.05541765
vn 0.3588012 0.9274113 -0.1056883
vn 0.1108236 0.9765436 -0.1846095
vn 0.2114364 0.9230521 -0.3213558
vn -0.1306479 0.9881415 -0.08066876
vn 0.3049947 0.9341906 -0.1851116
vn 0.5135227 0.6949486 -0.5033299
vn 0.07926132 0.86958 -0.4873891
vn 0.1450112 0.9548948 -0.2591285
vn -0.07118125 0.989809 -0.1233347
vn 0.3450976 0.9313378 0.1162646
vn 0.3519193 0.8563537 -0.3779038
vn -0.06565645 0.8207477 -0.5675055
vn 0.2041376 0.9213699 -0.3307648
vn 0.03087564 0.9995103 -0.005088639
vn 0.5464635 0.8366226 -0.03795159
vn 0.3379257 0.7341928 -0.5888695
vn -0.2253399 0.7877191 -0.5733416
vn 0.1613375 0.9839867 -0.07576506
vn -0.04962491 0.9710562 0.2336388
vn 0.5076977 0.8416415 0.1840724
vn 0.3466708 0.8621067 -0.3695828
vn -0.1312704 0.954645 -0.2672472
vn -0.09744525 0.9931617 -0.06429729
vn -0.4049073 0.9057937 -0.1248519
vn -0.182616 0.962347 0.2013448
vn 0.159627 0.987125 -0.0101726
vn -0.002421159 0.9437442 -0.3306678

vt 0.5 0.5
vt 0.0004995465 0.0004997253
vt 0.9995002 0.0004994869
vt 0.9995004 0.9995003
vt 0.0004997849 0.9995005
vt 0.5 0.5
vt 0.0004995763 0.0004997253
vt 0.9995002 0.0004994869
vt 0.9995004 0.9995003
vt 0.0004997849 0.9995005
vt 0.5 0.5
vt 0.0004995465 0.0004997849
vt 0.9995002 0.0004995465
vt 0.9995004 0.9995002
vt 0.0004997849 0.9995005
vt 0.5 0.5
vt 0.0004995167 0.0004997551
vt 0.9995003 0.0004995167
vt 0.9995005 0.9995003
vt 0.0004997551 0.9995005
vt 0.5 0.5
vt 0.0004994869 0.0004997551
vt 0.9995003 0.0004995167
vt 0.9995005 0.9995003
vt 0.0004997253 0.9995005
vt 0.5 0.5
vt 0.0004995465 0.0004997253
vt 0.9995002 0.0004994869
vt 0.9995004 0.9995003
vt 0.0004997849 0.9995005
vt 0.5 0.5
vt 0.0004995763 0.0004997551
vt 0.9995002 0.0004994869
vt 0.9995004 0.9995003
vt 0.0004998147 0.9995005
vt 0.5 0.5
vt 0.0004995167 0.0004997551
vt 0.9995003 0.0004995167
vt 0.9995005 0.9995003
vt 0.0004997551 0.9995005
vt 0.5 0.5
vt 0.0004995167 0.0004997253
vt 0.9995003 0.0004994869
vt 0.9995005 0.9995003
vt 0.0004997551 0.9995005
vt 0.5 0.5
vt 0.0004994869 0.0004997253
vt 0.9995003 0.0004994869
vt 0.9995005 0.9995003
vt 0.0004997253 0.9995005
vt 0.5 0.5
vt 0.0004995465 0.0004997551
vt 0.9995002 0.0004995167
vt 0.9995004 0.9995003
vt 0.0004997849 0.9995005
vt 0.5 0.5
vt 0.0004994869 0.0004997551
vt 0.9995003 0.0004995167
vt 0.9995005 0.9995003
vt 0.0004997253 0.9995005
vt 0.5 0.5
vt 0.0004995465 0.0004997849
vt 0.9995002 0.0004995465
vt 0.9995004 0.9995002
vt 0.0004997849 0.9995005

usemtl sn13_44_Aree02.bmp
usemap sn13_44_Aree02.bmp
f 3/3/3 1/1/1 2/2/2
f 4/4/4 1/1/1 3/3/3
f 5/5/5 1/1/1 4/4/4
f 2/2/2 1/1/1 5/5/5
f 8/8/8 6/6/6 7/7/7
f 9/9/9 6/6/6 8/8/8
f 10/10/10 6/6/6 9/9/9
f 7/7/7 6/6/6 10/10/10
f 13/13/13 11/11/11 12/12/12
f 14/14/14 11/11/11 13/13/13
f 15/15/15 11/11/11 14/14/14
f 12/12/12 11/11/11 15/15/15
f 18/18/18 16/16/16 17/17/17
f 19/19/19 16/16/16 18/18/18
f 20/20/20 16/16/16 19/19/19
f 17/17/17 16/16/16 20/20/20
f 23/23/23 21/21/21 22/22/22
f 24/24/24 21/21/21 23/23/23
f 25/25/25 21/21/21 24/24/24
f 22/22/22 21/21/21 25/25/25
f 28/28/28 26/26/26 27/27/27
f 29/29/29 26/26/26 28/28/28
f 30/30/30 26/26/26 29/29/29
f 27/27/27 26/26/26 30/30/30
f 33/33/33 31/31/31 32/32/32
f 34/34/34 31/31/31 33/33/33
f 35/35/35 31/31/31 34/34/34
f 32/32/32 31/31/31 35/35/35
f 38/38/38 36/36/36 37/37/37
f 39/39/39 36/36/36 38/38/38
f 40/40/40 36/36/36 39/39/39
f 37/37/37 36/36/36 40/40/40
f 43/43/43 41/41/41 42/42/42
f 44/44/44 41/41/41 43/43/43
f 45/45/45 41/41/41 44/44/44
f 42/42/42 41/41/41 45/45/45
f 48/48/48 46/46/46 47/47/47
f 49/49/49 46/46/46 48/48/48
f 50/50/50 46/46/46 49/49/49
f 47/47/47 46/46/46 50/50/50
f 53/53/53 51/51/51 52/52/52
f 54/54/54 51/51/51 53/53/53
f 55/55/55 51/51/51 54/54/54
f 52/52/52 51/51/51 55/55/55
f 58/58/58 56/56/56 57/57/57
f 59/59/59 56/56/56 58/58/58
f 60/60/60 56/56/56 59/59/59
f 57/57/57 56/56/56 60/60/60
f 63/63/63 61/61/61 62/62/62
f 64/64/64 61/61/61 63/63/63
f 65/65/65 61/61/61 64/64/64
f 62/62/62 61/61/61 65/65/65
