mtllib ./Object48.mtl
g Object48
v 2.76421 51.63976 -112.6948
v 2.594279 45.53768 -109.1429
v -7.743125 45.37041 106.9279
v -7.937254 51.65117 110.9856
v 8.06712 45.53768 -108.8811
v 8.237173 51.63976 -112.433
v -2.464414 51.65117 111.2474
v -2.270285 45.37041 107.1897
v 8.237173 51.63976 -112.433
v 2.76421 51.63976 -112.6948
v -7.937254 51.65117 110.9856
v -2.464414 51.65117 111.2474
v 2.76421 51.63976 -112.6948
v 8.237173 51.63976 -112.433
v 2.594279 45.53768 -109.1429
v 2.76421 51.63976 -112.6948
v 8.06712 45.53768 -108.8811
v -2.270285 45.37041 107.1897
v -2.464414 51.65117 111.2474
v -7.937254 51.65117 110.9856
v -7.743125 45.37041 106.9279

vn -0.0002748854 -3.218756E-08 -1
vn -0.0002748743 -3.61406E-07 -1
vn -0.0002748854 -3.218756E-08 -1
vn -0.0002748892 2.766549E-07 -1
vn 0.01253915 -0.007157064 0.9998959
vn 0.0002743453 -1.937054E-05 1
vn 0.0002746098 -9.873184E-06 1
vn 0.0002748743 -3.255342E-07 1
vn 5.093389E-05 1 -1.404624E-08
vn 5.093389E-05 1 -1.407534E-08
vn 5.093389E-05 1 -1.404624E-08
vn 5.093389E-05 1 -1.402077E-08
vn 0.8639984 -0.5034948 -0.0002387166
vn 0.8639984 -0.5034948 -0.0002387166
vn 0.8639982 -0.503495 -0.0002390146
vn 0.8639982 -0.503495 -0.0002390146
vn 0.8639982 -0.503495 -0.0002390146
vn -0.8396724 -0.5430934 0.0002311468
vn -0.8396724 -0.5430934 0.0002311468
vn -0.8396724 -0.5430934 0.0002311468
vn -0.8396724 -0.5430934 0.0002310872

vt 0.4982433 0.003605336
vt 0.4982434 0.0252023
vt 0.002528012 0.0252023
vt 0.002527945 0.003605336
vt 0.4982433 0.003605336
vt 0.4982434 0.0252023
vt 0.002528012 0.0252023
vt 0.002527945 0.003605336
vt 0.4982433 0.003605336
vt 0.4982434 0.0252023
vt 0.002528012 0.0252023
vt 0.002527945 0.003605336
vt 0.002528012 0.0252023
vt 0.002527945 0.003605336
vt 0.002527945 0.003605336
vt 0.4982433 0.003605336
vt 0.002528012 0.0252023
vt 2.006193 0.2230844
vt 2.006193 0.2230844
vt 2.006193 0.2230844
vt 2.006193 0.2230844

usemtl sn13_18_sn13h01.jpg
usemap sn13_18_sn13h01.jpg
f 3/3/3 1/1/1 2/2/2
f 1/1/1 3/3/3 4/4/4
f 7/7/7 5/5/5 6/6/6
f 5/5/5 7/7/7 8/8/8
f 11/11/11 9/9/9 10/10/10
f 9/9/9 11/11/11 12/12/12
f 14/14/14 5/5/5 13/13/13
f 17/17/17 15/15/15 16/16/16

usemtl sn13_14_sn13h02.JPG
usemap sn13_14_sn13h02.JPG
f 20/20/20 18/18/18 19/19/19
f 20/20/20 21/21/21 18/18/18
