mtllib ./Object30.mtl
g Object30
v 2.757648 51.63976 -112.5653
v 2.587716 45.53768 -109.0134
v -7.740154 45.37041 106.8607
v -7.934278 51.65117 110.9182
v 8.060678 45.53768 -108.7516
v 8.23061 51.63976 -112.3035
v -2.461315 51.65117 111.1801
v -2.267192 45.37041 107.1225
v 8.23061 51.63976 -112.3035
v 2.757648 51.63976 -112.5653
v -7.934278 51.65117 110.9182
v -2.461315 51.65117 111.1801
v 2.757648 51.63976 -112.5653
v 8.23061 51.63976 -112.3035
v 2.587716 45.53768 -109.0134
v 2.757648 51.63976 -112.5653
v 8.060678 45.53768 -108.7516
v -2.267192 45.37041 107.1225
v -2.461315 51.65117 111.1801
v -7.934278 51.65117 110.9182
v -7.740154 45.37041 106.8607

vn -0.0002754331 -1.540784E-08 -1
vn -0.0002754331 8.681652E-09 -1
vn -0.0002754331 -1.540784E-08 -1
vn -0.0002754442 -3.800568E-08 -1
vn 0.01255094 -0.007153569 0.9998958
vn 0.0002754368 3.352806E-08 1
vn 0.0002754331 2.661354E-08 1
vn 0.0002754331 1.96622E-08 1
vn 5.097876E-05 0.9999999 -1.404987E-08
vn 5.097875E-05 1 -1.401349E-08
vn 5.097876E-05 0.9999999 -1.404987E-08
vn 5.097875E-05 0.9999999 -1.408625E-08
vn 0.8639982 -0.503495 -0.0002375245
vn 0.8639982 -0.503495 -0.0002375245
vn 0.8639982 -0.503495 -0.0002375245
vn 0.8639982 -0.503495 -0.0002375245
vn 0.8639982 -0.503495 -0.0002375245
vn -0.8396795 -0.5430823 0.0002314448
vn -0.8396798 -0.5430819 0.0002320409
vn -0.8396795 -0.5430823 0.0002314448
vn -0.8396793 -0.5430826 0.0002308488

vt 0.4982433 0.003605336
vt 0.4982434 0.0252023
vt 0.002528012 0.0252023
vt 0.002527945 0.003605336
vt 0.4982433 0.003605336
vt 0.4982434 0.0252023
vt 0.002528012 0.0252023
vt 0.002527945 0.003605336
vt 0.4982433 0.003605336
vt 0.4982434 0.0252023
vt 0.002528012 0.0252023
vt 0.002527945 0.003605336
vt 0.002528012 0.0252023
vt 0.002527945 0.003605336
vt 0.002527945 0.003605336
vt 0.4982433 0.003605336
vt 0.002528012 0.0252023
vt 2.006193 0.2230844
vt 2.006193 0.2230844
vt 2.006193 0.2230844
vt 2.006193 0.2230844

usemtl sn13_18_sn13h01.jpg
usemap sn13_18_sn13h01.jpg
f 3/3/3 1/1/1 2/2/2
f 1/1/1 3/3/3 4/4/4
f 7/7/7 5/5/5 6/6/6
f 5/5/5 7/7/7 8/8/8
f 11/11/11 9/9/9 10/10/10
f 9/9/9 11/11/11 12/12/12
f 14/14/14 5/5/5 13/13/13
f 17/17/17 15/15/15 16/16/16

usemtl sn13_14_sn13h02.JPG
usemap sn13_14_sn13h02.JPG
f 20/20/20 18/18/18 19/19/19
f 20/20/20 21/21/21 18/18/18
