mtllib ./Object168.mtl
g Object168
v -8.324158 1.873711 -12.57788
v -26.19293 -6.678543 -23.81348
v -14.97888 -9.836143 4.255127
v 12.88342 -3.429909 -2.14917
v 0.7973633 -2.901764 -32.21313
v 13.45972 -5.824837 27.49707
v 22.74988 -13.50179 9.843506
v -2.526245 -12.66181 15.33667
v -1.467163 -19.76094 41.72534
v 27.47229 -16.74435 37.18701
v -6.92395 -5.132904 -16.29175
v -0.1762695 -13.07695 -42.49072
v -36.20282 -18.77032 -13.65283
v -12.0553 -9.710167 18.46533
v 23.88916 -3.66951 -10.44043
v -15.65955 22.36729 11.97412
v -13.17218 18.22598 -9.446777
v -40.18158 10.78241 8.425049
v -21.84644 12.93098 31.73096
v 6.239868 18.348 13.97925
v -3.181763 10.79199 -10.28906
v -6.946533 -0.3882828 -17.28809
v -17.8609 6.983101 -9.780029
v -4.42334 6.282661 6.657227
v 6.561646 -1.292191 -0.751709
v 20.65259 -4.590424 28.59155
v 19.32104 -4.697319 7.493896
v -0.822998 -7.835052 21.43066
v 13.09827 -16.02774 42.4895
v 32.10083 -12.37979 27.95142
v 9.831299 19.19321 0.5012207
v 17.99133 11.47202 -13.20728
v -8.150269 10.62808 -10.08887
v 1.158081 8.647049 16.74316
v 24.60498 8.232208 11.49927
v -17.35724 26.67563 9.483887
v -10.55121 24.47436 -2.536865
v -28.90198 25.53835 4.764404
v -25.13306 20.44888 23.05518
v -4.892578 23.85509 18.24097
v 18.63867 -13.04702 20.1377
v 17.46326 -14.33665 -5.716309
v -11.21844 -12.62838 16.03198
v 14.38049 -31.22019 38.40503
v 40.18176 -20.03983 16.55664
v -0.6235352 26.09674 18.88696
v 2.026367 26.1899 -7.97168
v -23.34149 19.62514 14.99487
v -5.081299 12.87521 41.94312
v 21.46326 13.17592 17.92456
v 5.084839 30.86384 12.74634
v -0.8984375 31.21973 -3.219482
v -10.422 22.62668 17.6709
v 8.124146 18.23573 26.29834
v 17.17712 23.37937 4.984863
v 1.409424 12.86633 4.784424
v -3.935547 6.26532 -26.13159
v -20.55096 -1.029114 10.74609
v 15.31018 -2.898949 29.59692
v 32.22705 4.136032 -7.319336
v -9.327332 -9.736858 -6.733887
v 10.45593 -21.1666 -21.07373
v -32.11682 -16.43063 -26.51465
v -36.84106 -14.64752 11.4375
v 5.809692 -18.92225 16.85815

vn -0.1492284 0.9812444 0.1220255
vn -0.425523 0.9048678 -0.01202298
vn -0.3200637 0.8323525 0.4524914
vn 0.1243994 0.9635062 0.2370245
vn 0.04008588 0.9750111 -0.2185098
vn -0.004366189 0.9818807 0.1894499
vn 0.3018557 0.9220918 -0.242136
vn -0.3424648 0.9364282 -0.0762889
vn -0.2661638 0.8133118 0.5173787
vn 0.3509625 0.8318707 0.4299027
vn -0.2374902 0.9662649 -0.09965141
vn -0.2129783 0.9184355 -0.3333414
vn -0.4282942 0.8938228 -0.1328338
vn -0.2472663 0.9647081 0.09054021
vn -0.03559211 0.9974397 -0.06202768
vn -0.1707031 0.9811843 0.0902101
vn -0.1337881 0.9699826 -0.2030628
vn -0.4300296 0.9024558 0.02545831
vn -0.1925595 0.9075595 0.3731709
vn 0.1640344 0.9734371 0.1597277
vn 0.4004036 0.8709472 -0.2848297
vn 0.4299265 0.3706204 -0.8232883
vn -0.251752 0.938822 -0.2350193
vn 0.21976 0.9386273 0.2658653
vn 0.8378314 0.4966575 -0.2266492
vn 0.06751727 0.9456269 0.3181683
vn 0.1394128 0.990138 -0.01381553
vn -0.2292005 0.9372602 0.2626983
vn -0.01749614 0.7766771 0.629656
vn 0.541178 0.7670662 0.3445807
vn 0.007972872 0.9951208 0.09834247
vn 0.2864712 0.8975979 -0.3350407
vn -0.3683894 0.921882 -0.120095
vn -0.227723 0.8677196 0.4418201
vn 0.4069486 0.8593217 0.3097728
vn -0.01362299 0.9889249 0.1477901
vn 0.1293343 0.9857795 -0.1072907
vn -0.1304859 0.9881294 0.0810788
vn -0.1315239 0.9274118 0.3501553
vn 0.08073968 0.9765437 0.1996086
vn 0.1293982 0.9230522 0.3622577
vn 0.1430507 0.9881414 -0.05579307
vn -0.03571565 0.9341903 0.3549832
vn 0.09292742 0.6949494 0.7130286
vn 0.3415428 0.8695812 0.356619
vn 0.1196783 0.9548949 0.2717585
vn 0.1413373 0.989809 0.01737777
vn -0.300538 0.9313378 0.2056376
vn 0.0900158 0.8563556 0.5084805
vn 0.492738 0.8207507 0.289098
vn 0.141308 0.9213701 0.36209
vn -0.01451716 0.9995103 0.02772058
vn -0.2985599 0.836623 0.4592647
vn 0.2669262 0.7341892 0.6242729
vn 0.5935089 0.7877162 0.1650774
vn -0.03658681 0.9839866 0.1744467
vn -0.1567269 0.9710565 -0.1802385
vn -0.4525478 0.8416404 0.2946898
vn 0.08653025 0.8621061 0.499285
vn 0.2924331 0.9546452 0.05599534
vn 0.109994 0.9931617 -0.0391284
vn 0.3433887 0.9057946 -0.2482348
vn -0.05089927 0.9623472 -0.2670154
vn -0.08794238 0.9871248 0.1336064
vn 0.2655392 0.9437446 0.1970661

vt 0.5 0.5
vt 0.0004995465 0.0004997253
vt 0.9995002 0.0004994869
vt 0.9995004 0.9995003
vt 0.0004997849 0.9995005
vt 0.5 0.5
vt 0.0004995763 0.0004997253
vt 0.9995002 0.0004994869
vt 0.9995004 0.9995003
vt 0.0004997849 0.9995005
vt 0.5 0.5
vt 0.0004995465 0.0004997849
vt 0.9995002 0.0004995465
vt 0.9995004 0.9995002
vt 0.0004997849 0.9995005
vt 0.5 0.5
vt 0.0004995167 0.0004997551
vt 0.9995003 0.0004995167
vt 0.9995005 0.9995003
vt 0.0004997551 0.9995005
vt 0.5 0.5
vt 0.0004994869 0.0004997551
vt 0.9995003 0.0004995167
vt 0.9995005 0.9995003
vt 0.0004997253 0.9995005
vt 0.5 0.5
vt 0.0004995465 0.0004997253
vt 0.9995002 0.0004994869
vt 0.9995004 0.9995003
vt 0.0004997849 0.9995005
vt 0.5 0.5
vt 0.0004995763 0.0004997551
vt 0.9995002 0.0004994869
vt 0.9995004 0.9995003
vt 0.0004998147 0.9995005
vt 0.5 0.5
vt 0.0004995167 0.0004997551
vt 0.9995003 0.0004995167
vt 0.9995005 0.9995003
vt 0.0004997551 0.9995005
vt 0.5 0.5
vt 0.0004995167 0.0004997253
vt 0.9995003 0.0004994869
vt 0.9995005 0.9995003
vt 0.0004997551 0.9995005
vt 0.5 0.5
vt 0.0004994869 0.0004997253
vt 0.9995003 0.0004994869
vt 0.9995005 0.9995003
vt 0.0004997253 0.9995005
vt 0.5 0.5
vt 0.0004995465 0.0004997551
vt 0.9995002 0.0004995167
vt 0.9995004 0.9995003
vt 0.0004997849 0.9995005
vt 0.5 0.5
vt 0.0004994869 0.0004997551
vt 0.9995003 0.0004995167
vt 0.9995005 0.9995003
vt 0.0004997253 0.9995005
vt 0.5 0.5
vt 0.0004995465 0.0004997849
vt 0.9995002 0.0004995465
vt 0.9995004 0.9995002
vt 0.0004997849 0.9995005

usemtl sn13_44_Aree02.bmp
usemap sn13_44_Aree02.bmp
f 3/3/3 1/1/1 2/2/2
f 4/4/4 1/1/1 3/3/3
f 5/5/5 1/1/1 4/4/4
f 2/2/2 1/1/1 5/5/5
f 8/8/8 6/6/6 7/7/7
f 9/9/9 6/6/6 8/8/8
f 10/10/10 6/6/6 9/9/9
f 7/7/7 6/6/6 10/10/10
f 13/13/13 11/11/11 12/12/12
f 14/14/14 11/11/11 13/13/13
f 15/15/15 11/11/11 14/14/14
f 12/12/12 11/11/11 15/15/15
f 18/18/18 16/16/16 17/17/17
f 19/19/19 16/16/16 18/18/18
f 20/20/20 16/16/16 19/19/19
f 17/17/17 16/16/16 20/20/20
f 23/23/23 21/21/21 22/22/22
f 24/24/24 21/21/21 23/23/23
f 25/25/25 21/21/21 24/24/24
f 22/22/22 21/21/21 25/25/25
f 28/28/28 26/26/26 27/27/27
f 29/29/29 26/26/26 28/28/28
f 30/30/30 26/26/26 29/29/29
f 27/27/27 26/26/26 30/30/30
f 33/33/33 31/31/31 32/32/32
f 34/34/34 31/31/31 33/33/33
f 35/35/35 31/31/31 34/34/34
f 32/32/32 31/31/31 35/35/35
f 38/38/38 36/36/36 37/37/37
f 39/39/39 36/36/36 38/38/38
f 40/40/40 36/36/36 39/39/39
f 37/37/37 36/36/36 40/40/40
f 43/43/43 41/41/41 42/42/42
f 44/44/44 41/41/41 43/43/43
f 45/45/45 41/41/41 44/44/44
f 42/42/42 41/41/41 45/45/45
f 48/48/48 46/46/46 47/47/47
f 49/49/49 46/46/46 48/48/48
f 50/50/50 46/46/46 49/49/49
f 47/47/47 46/46/46 50/50/50
f 53/53/53 51/51/51 52/52/52
f 54/54/54 51/51/51 53/53/53
f 55/55/55 51/51/51 54/54/54
f 52/52/52 51/51/51 55/55/55
f 58/58/58 56/56/56 57/57/57
f 59/59/59 56/56/56 58/58/58
f 60/60/60 56/56/56 59/59/59
f 57/57/57 56/56/56 60/60/60
f 63/63/63 61/61/61 62/62/62
f 64/64/64 61/61/61 63/63/63
f 65/65/65 61/61/61 64/64/64
f 62/62/62 61/61/61 65/65/65
