mtllib ./Object130.mtl
g Object130
v -13.63828 51.63976 -96.80065
v -13.28986 45.53768 -93.73376
v 7.837817 45.37041 92.23781
v 8.235832 51.65117 95.74125
v -7.846766 45.53768 -94.35213
v -8.195187 51.63976 -97.41902
v 13.67892 51.65117 95.12288
v 13.2809 45.37041 91.61943
v -8.195187 51.63976 -97.41902
v -13.63828 51.63976 -96.80065
v 8.235832 51.65117 95.74125
v 13.67892 51.65117 95.12288
v -7.846766 45.53768 -94.35213
v -13.63828 51.63976 -96.80065
v -8.195187 51.63976 -97.41902
v -13.28986 45.53768 -93.73376
v -7.846766 45.53768 -94.35213
v 13.2809 45.37041 91.61943
v 13.67892 51.65117 95.12288
v 8.235832 51.65117 95.74125
v 7.837817 45.37041 92.23781

vn -0.01424208 -0.007167923 0.9998729
vn -7.136911E-05 9.356324E-08 0.9999999
vn -7.137656E-05 5.175444E-08 1
vn -7.136911E-05 1.253755E-08 1
vn 7.139891E-05 -5.951761E-07 -0.9999999
vn 7.137656E-05 -1.290385E-08 -0.9999999
vn 7.139891E-05 -5.951761E-07 -0.9999999
vn 7.141382E-05 -1.180594E-06 -0.9999999
vn -5.886014E-05 1 -4.234607E-09
vn -5.886014E-05 1 -4.234607E-09
vn -5.886014E-05 1 -4.234607E-09
vn -5.886014E-05 1 -4.234607E-09
vn -0.8923361 -0.4513714 -6.41942E-05
vn -0.8923361 -0.4513714 -6.41942E-05
vn -0.8923361 -0.4513714 -6.41942E-05
vn -0.8923361 -0.4513714 -6.41942E-05
vn -0.8923361 -0.4513714 -6.41942E-05
vn 0.8719871 -0.4895288 6.204844E-05
vn 0.8719868 -0.4895293 6.270409E-05
vn 0.8719871 -0.4895288 6.204844E-05
vn 0.8719873 -0.4895284 6.139278E-05

vt 0.4982433 0.003605336
vt 0.4982434 0.0252023
vt 0.002528012 0.0252023
vt 0.002527945 0.003605336
vt 0.4982433 0.003605336
vt 0.4982434 0.0252023
vt 0.002528012 0.0252023
vt 0.002527945 0.003605336
vt 0.4982433 0.003605336
vt 0.4982434 0.0252023
vt 0.002528012 0.0252023
vt 0.002527945 0.003605336
vt 0.4982433 0.003605336
vt 0.002528012 0.0252023
vt 0.002527945 0.003605336
vt 0.002527945 0.003605336
vt 0.002528012 0.0252023
vt 2.006193 0.2230844
vt 2.006193 0.2230844
vt 2.006193 0.2230844
vt 2.006193 0.2230844

usemtl sn13_18_sn13h01.jpg
usemap sn13_18_sn13h01.jpg
f 3/3/3 1/1/1 2/2/2
f 1/1/1 3/3/3 4/4/4
f 7/7/7 5/5/5 6/6/6
f 5/5/5 7/7/7 8/8/8
f 11/11/11 9/9/9 10/10/10
f 9/9/9 11/11/11 12/12/12
f 15/15/15 13/13/13 14/14/14
f 17/17/17 16/16/16 1/1/1
f 20/20/20 18/18/18 19/19/19
f 20/20/20 21/21/21 18/18/18
