mtllib ./Object71.mtl
g Object71
v 9.202957E-05 8.999817 499.5963
v 9.202957E-05 8.999817 880.7581
v 9.202957E-05 -9.000183 499.5963
v 9.202957E-05 -9.000183 880.7581
v 9.202957E-05 8.999817 149.1246
v 9.202957E-05 8.999817 499.5963
v 9.202957E-05 -9.000183 149.1246
v 9.202957E-05 -9.000183 499.5963
v 9.202957E-05 8.999817 -201.3472
v 9.202957E-05 8.999817 149.1246
v 9.202957E-05 -9.000183 -201.3472
v 9.202957E-05 -9.000183 149.1246
v 9.202957E-05 8.999817 -564.9397
v 9.202957E-05 8.999817 -201.3472
v 9.202957E-05 -9.000183 -564.9397
v 9.202957E-05 -9.000183 -201.3472

vn 1 0 0
vn 1 0 0
vn 1 0 0
vn 1 0 0
vn 1 0 0
vn 1 0 0
vn 1 0 0
vn 1 0 0
vn 1 0 0
vn 1 0 0
vn 1 0 0
vn 1 0 0
vn 1 0 0
vn 1 0 0
vn 1 0 0
vn 1 0 0

vt 2 0.5023313
vt 0 0.5023313
vt 2 0.5770802
vt 0 0.5770802
vt 2 0.5023313
vt 0 0.5023313
vt 2 0.5770802
vt 0 0.5770802
vt 2 0.5023313
vt 0 0.5023313
vt 2 0.5770802
vt 0 0.5770802
vt 2 0.5023313
vt 0 0.5023313
vt 2 0.5770802
vt 0 0.5770802

usemtl sn13_06_sn13r14.jpg
usemap sn13_06_sn13r14.jpg
f 3/3/3 1/1/1 2/2/2
f 2/2/2 4/4/4 3/3/3
f 7/7/7 5/5/5 6/6/6
f 6/6/6 8/8/8 7/7/7
f 11/11/11 9/9/9 10/10/10
f 10/10/10 12/12/12 11/11/11
f 15/15/15 13/13/13 14/14/14
f 14/14/14 16/16/16 15/15/15
