mtllib ./Object19.mtl
g Object19
v -7.99051 51.63976 -112.0987
v -7.820579 45.53768 -108.5468
v 2.504765 45.37041 107.2744
v 2.698889 51.65117 111.332
v -2.347616 45.53768 -108.8086
v -2.517548 51.63976 -112.3606
v 8.171851 51.65117 111.0702
v 7.977727 45.37041 107.0126
v -2.517548 51.63976 -112.3606
v -7.99051 51.63976 -112.0987
v 2.698889 51.65117 111.332
v 8.171851 51.65117 111.0702
v -2.347616 45.53768 -108.8086
v -7.99051 51.63976 -112.0987
v -2.517548 51.63976 -112.3606
v -7.820579 45.53768 -108.5468
v -2.347616 45.53768 -108.8086
v 7.977727 45.37041 107.0126
v 8.171851 51.65117 111.0702
v 2.698889 51.65117 111.332
v 2.504765 45.37041 107.2744

vn -0.01255395 -0.00715529 0.9998958
vn -0.0002754331 3.473511E-08 1
vn -0.0002754331 2.661994E-08 1
vn -0.0002754368 1.900734E-08 1
vn 0.0002754331 -1.541155E-08 -1
vn 0.0002754368 5.58933E-09 -1
vn 0.0002754331 -1.541155E-08 -1
vn 0.0002754368 -3.652444E-08 -0.9999999
vn -5.099081E-05 1 -1.408989E-08
vn -5.099081E-05 1 -1.408989E-08
vn -5.099081E-05 1 -1.408989E-08
vn -5.099081E-05 1 -1.408989E-08
vn -0.8639983 -0.503495 -0.0002387166
vn -0.8639983 -0.503495 -0.0002387166
vn -0.8639983 -0.503495 -0.0002387166
vn -0.8639982 -0.503495 -0.0002387166
vn -0.8639982 -0.503495 -0.0002387166
vn 0.8396796 -0.5430822 0.0002314448
vn 0.8396792 -0.5430827 0.0002320409
vn 0.8396796 -0.5430822 0.0002314448
vn 0.8396798 -0.5430819 0.0002308488

vt 0.4982433 0.003605336
vt 0.4982434 0.0252023
vt 0.002528012 0.0252023
vt 0.002527945 0.003605336
vt 0.4982433 0.003605336
vt 0.4982434 0.0252023
vt 0.002528012 0.0252023
vt 0.002527945 0.003605336
vt 0.4982433 0.003605336
vt 0.4982434 0.0252023
vt 0.002528012 0.0252023
vt 0.002527945 0.003605336
vt 0.4982433 0.003605336
vt 0.002528012 0.0252023
vt 0.002527945 0.003605336
vt 0.002527945 0.003605336
vt 0.002528012 0.0252023
vt 2.006193 0.2230844
vt 2.006193 0.2230844
vt 2.006193 0.2230844
vt 2.006193 0.2230844

usemtl sn13_18_sn13h01.jpg
usemap sn13_18_sn13h01.jpg
f 3/3/3 1/1/1 2/2/2
f 1/1/1 3/3/3 4/4/4
f 7/7/7 5/5/5 6/6/6
f 5/5/5 7/7/7 8/8/8
f 11/11/11 9/9/9 10/10/10
f 9/9/9 11/11/11 12/12/12
f 15/15/15 13/13/13 14/14/14
f 17/17/17 16/16/16 1/1/1

usemtl sn13_14_sn13h02.JPG
usemap sn13_14_sn13h02.JPG
f 20/20/20 18/18/18 19/19/19
f 20/20/20 21/21/21 18/18/18
