mtllib ./Object150.mtl
g Object150
v -18.41028 1.873711 -3.154877
v -37.32666 -6.678543 6.210175
v -7.53479 -9.836143 11.31448
v 1.5625 -3.429909 -15.78842
v -30.38623 -2.901764 -21.19168
v 27.14124 -5.824837 -0.7895203
v 16.94324 -13.50179 -17.93472
v 8.420288 -12.66181 6.486908
v 31.47363 -19.76094 19.37198
v 42.72485 -16.74434 -7.674286
v -20.84521 -5.132904 -6.289154
v -39.65796 -13.07695 -25.7316
v -33.89343 -18.77032 20.05399
v 6.108887 -9.710167 16.24649
v 0.2436523 -3.66951 -29.50443
v -1.30896 22.36729 15.92801
v -18.27368 18.22598 2.614777
v -17.14771 10.78241 34.98209
v 12.30383 12.93098 31.52609
v 11.84314 18.348 -1.696625
v -13.77185 10.79199 -6.343597
v -21.70654 -0.3882828 -6.790558
v -21.00769 6.983101 6.438385
v 0.02856445 6.282661 3.569489
v -0.5490723 -1.292191 -9.667938
v 31.83264 -4.590424 -6.350677
v 13.14832 -4.697319 -16.23874
v 14.50598 -7.835052 8.218719
v 39.73547 -16.02773 7.352081
v 37.26868 -12.37979 -16.44638
v 2.227661 19.19321 -11.80112
v -5.197144 11.47202 -25.92142
v -16.19714 10.62808 -2.002594
v 11.54456 8.647049 4.080475
v 19.32434 8.232208 -18.65134
v -4.319336 26.67563 16.07431
v -11.01257 24.47436 3.990387
v -14.37549 25.53835 23.45187
v 3.189331 20.44888 29.79532
v 9.660034 23.85509 10.02206
v 23.57239 -13.04702 -9.050629
v 0.9139404 -14.33665 -21.55716
v 4.471436 -12.62838 14.26157
v 36.92297 -31.22019 4.124786
v 31.77527 -20.03983 -29.29025
v 12.44153 26.09673 6.719574
v -9.074585 26.1899 -9.573395
v -2.74707 19.62514 24.05624
v 29.77087 12.87521 22.56735
v 23.16113 13.17592 -12.61539
v 10.18835 30.86384 -1.355988
v -6.550903 31.21973 -4.596588
v 6.284912 22.62668 14.43875
v 23.3313 18.23573 3.133392
v 9.888916 23.37937 -15.72177
v 1.479248 12.86633 -2.382294
v -27.67371 6.26532 -13.97867
v -4.911743 -1.029114 19.457
v 29.89868 -2.898949 -1.27005
v 7.261353 4.136032 -34.98282
v -13.95166 -9.736858 0.7539368
v -15.84155 -21.1666 -23.60648
v -42.72498 -16.43063 9.849762
v -12.83374 -14.64752 33.70786
v 14.07288 -18.92225 0.1743469

vn 0.02607229 0.9812446 0.1909956
vn -0.2325858 0.9048678 0.356536
vn 0.2185797 0.8323538 0.5093232
vn 0.2670953 0.9635062 0.01777528
vn -0.1653653 0.9750113 -0.1483486
vn 0.1592515 0.9818806 0.1027097
vn -0.04873548 0.9220923 -0.3838888
vn -0.2439865 0.9364276 0.2521389
vn 0.3020683 0.8133121 0.4972708
vn 0.5499287 0.8318715 -0.07462101
vn -0.209055 0.9662651 0.1504257
vn -0.3954998 0.9184361 0.007423874
vn -0.3370424 0.8938232 0.2957747
vn -0.05199752 0.9647082 0.2581364
vn -0.07148409 0.9974396 -0.002062065
vn -0.01227538 0.9811843 0.192683
vn -0.2430433 0.9699827 0.007973573
vn -0.2029833 0.9024555 0.3799628
vn 0.2175691 0.9075593 0.3591656
vn 0.2218977 0.9734372 -0.05640461
vn -0.03364618 0.8709471 -0.4902234
vn -0.4773337 0.3706176 -0.7967403
vn -0.3319268 0.9388222 0.09185608
vn 0.3415114 0.9386272 -0.04846308
vn 0.2445172 0.4966561 -0.8327929
vn 0.3065605 0.9456268 0.1086766
vn 0.06106288 0.9901379 -0.1260874
vn 0.104231 0.9372598 0.332686
vn 0.5277262 0.7766777 0.3439141
vn 0.576566 0.7670695 -0.2813822
vn 0.08801645 0.9951207 0.04458538
vn -0.1359885 0.8975986 -0.4193137
vn -0.2948813 0.9218818 0.2513544
vn 0.2577283 0.8677208 0.4250136
vn 0.4767529 0.8593228 -0.1851246
vn 0.1188934 0.988925 0.08883525
vn -0.02390292 0.9857796 -0.166335
vn 0.000951931 0.9881294 0.1536209
vn 0.2298338 0.9274127 0.2950967
vn 0.2123807 0.9765436 0.03545246
vn 0.376485 0.9230527 0.07894786
vn 0.02717246 0.9881415 -0.1511223
vn 0.284011 0.9341908 0.2159294
vn 0.6565112 0.69495 0.2933215
vn 0.4825223 0.8695817 -0.1048807
vn 0.2942454 0.9548945 0.03995038
vn 0.08866593 0.989809 -0.11143
vn 0.01830455 0.9313381 0.3636953
vn 0.4805857 0.8563549 0.1889278
vn 0.5039536 0.8207491 -0.2690754
vn 0.3825671 0.9213694 0.06870843
vn 0.01605047 0.9995102 0.02686196
vn 0.2355908 0.8366213 0.4945317
vn 0.6717503 0.7341875 0.09859272
vn 0.4508608 0.7877174 -0.4197926
vn 0.129623 0.9839867 0.1223433
vn -0.2355685 0.9710565 0.03945732
vn 0.01480696 0.8416409 0.5398346
vn 0.4709198 0.8621077 0.1870958
vn 0.20054 0.9546453 -0.2200823
vn 0.02410933 0.9931617 -0.11423
vn -0.03223515 0.9057935 -0.4224914
vn -0.2542631 0.9623471 -0.09611628
vn 0.0679684 0.9871249 0.1447917
vn 0.3067711 0.9437443 -0.123443

vt 0.5 0.5
vt 0.0004995465 0.0004997253
vt 0.9995002 0.0004994869
vt 0.9995004 0.9995003
vt 0.0004997849 0.9995005
vt 0.5 0.5
vt 0.0004995763 0.0004997253
vt 0.9995002 0.0004994869
vt 0.9995004 0.9995003
vt 0.0004997849 0.9995005
vt 0.5 0.5
vt 0.0004995465 0.0004997849
vt 0.9995002 0.0004995465
vt 0.9995004 0.9995002
vt 0.0004997849 0.9995005
vt 0.5 0.5
vt 0.0004995167 0.0004997551
vt 0.9995003 0.0004995167
vt 0.9995005 0.9995003
vt 0.0004997551 0.9995005
vt 0.5 0.5
vt 0.0004994869 0.0004997551
vt 0.9995003 0.0004995167
vt 0.9995005 0.9995003
vt 0.0004997253 0.9995005
vt 0.5 0.5
vt 0.0004995465 0.0004997253
vt 0.9995002 0.0004994869
vt 0.9995004 0.9995003
vt 0.0004997849 0.9995005
vt 0.5 0.5
vt 0.0004995763 0.0004997551
vt 0.9995002 0.0004994869
vt 0.9995004 0.9995003
vt 0.0004998147 0.9995005
vt 0.5 0.5
vt 0.0004995167 0.0004997551
vt 0.9995003 0.0004995167
vt 0.9995005 0.9995003
vt 0.0004997551 0.9995005
vt 0.5 0.5
vt 0.0004995167 0.0004997253
vt 0.9995003 0.0004994869
vt 0.9995005 0.9995003
vt 0.0004997551 0.9995005
vt 0.5 0.5
vt 0.0004994869 0.0004997253
vt 0.9995003 0.0004994869
vt 0.9995005 0.9995003
vt 0.0004997253 0.9995005
vt 0.5 0.5
vt 0.0004995465 0.0004997551
vt 0.9995002 0.0004995167
vt 0.9995004 0.9995003
vt 0.0004997849 0.9995005
vt 0.5 0.5
vt 0.0004994869 0.0004997551
vt 0.9995003 0.0004995167
vt 0.9995005 0.9995003
vt 0.0004997253 0.9995005
vt 0.5 0.5
vt 0.0004995465 0.0004997849
vt 0.9995002 0.0004995465
vt 0.9995004 0.9995002
vt 0.0004997849 0.9995005

usemtl sn13_44_Aree02.bmp
usemap sn13_44_Aree02.bmp
f 3/3/3 1/1/1 2/2/2
f 4/4/4 1/1/1 3/3/3
f 5/5/5 1/1/1 4/4/4
f 2/2/2 1/1/1 5/5/5
f 8/8/8 6/6/6 7/7/7
f 9/9/9 6/6/6 8/8/8
f 10/10/10 6/6/6 9/9/9
f 7/7/7 6/6/6 10/10/10
f 13/13/13 11/11/11 12/12/12
f 14/14/14 11/11/11 13/13/13
f 15/15/15 11/11/11 14/14/14
f 12/12/12 11/11/11 15/15/15
f 18/18/18 16/16/16 17/17/17
f 19/19/19 16/16/16 18/18/18
f 20/20/20 16/16/16 19/19/19
f 17/17/17 16/16/16 20/20/20
f 23/23/23 21/21/21 22/22/22
f 24/24/24 21/21/21 23/23/23
f 25/25/25 21/21/21 24/24/24
f 22/22/22 21/21/21 25/25/25
f 28/28/28 26/26/26 27/27/27
f 29/29/29 26/26/26 28/28/28
f 30/30/30 26/26/26 29/29/29
f 27/27/27 26/26/26 30/30/30
f 33/33/33 31/31/31 32/32/32
f 34/34/34 31/31/31 33/33/33
f 35/35/35 31/31/31 34/34/34
f 32/32/32 31/31/31 35/35/35
f 38/38/38 36/36/36 37/37/37
f 39/39/39 36/36/36 38/38/38
f 40/40/40 36/36/36 39/39/39
f 37/37/37 36/36/36 40/40/40
f 43/43/43 41/41/41 42/42/42
f 44/44/44 41/41/41 43/43/43
f 45/45/45 41/41/41 44/44/44
f 42/42/42 41/41/41 45/45/45
f 48/48/48 46/46/46 47/47/47
f 49/49/49 46/46/46 48/48/48
f 50/50/50 46/46/46 49/49/49
f 47/47/47 46/46/46 50/50/50
f 53/53/53 51/51/51 52/52/52
f 54/54/54 51/51/51 53/53/53
f 55/55/55 51/51/51 54/54/54
f 52/52/52 51/51/51 55/55/55
f 58/58/58 56/56/56 57/57/57
f 59/59/59 56/56/56 58/58/58
f 60/60/60 56/56/56 59/59/59
f 57/57/57 56/56/56 60/60/60
f 63/63/63 61/61/61 62/62/62
f 64/64/64 61/61/61 63/63/63
f 65/65/65 61/61/61 64/64/64
f 62/62/62 61/61/61 65/65/65
