mtllib ./Object72.mtl
g Object72
v 118.8021 72.60287 121.331
v 118.3487 72.79816 120.3934
v 124.1649 51.52873 109.8583
v 123.6877 51.71193 108.8259
v 120.9388 73.0217 120.3037
v 118.8021 72.60287 121.331
v 126.4254 52.07881 108.8377
v 124.1649 51.52873 109.8583
v 120.4854 73.217 119.3661
v 120.9388 73.0217 120.3037
v 125.9481 52.26199 107.8052
v 126.4254 52.07881 108.8377
v 118.3487 72.79816 120.3934
v 120.4854 73.217 119.3661
v 123.6877 51.71193 108.8259
v 125.9481 52.26199 107.8052
v 129.6053 42.92256 103.8037
v 129.1309 42.98291 102.5518
v 131.7339 44.18858 103.1619
v 129.6053 42.92256 103.8037
v 131.2593 44.26695 101.91
v 131.7339 44.18858 103.1619
v 129.1309 42.98291 102.5518
v 131.2593 44.26695 101.91
v 146.907 32.295 95.41757
v 146.4808 32.26424 93.49619
v 148.3989 34.50618 95.24606
v 146.907 32.295 95.41757
v 147.9726 34.48607 93.32469
v 148.3989 34.50618 95.24606
v 146.4808 32.26424 93.49619
v 147.9726 34.48607 93.32469
v 163.1872 25.23553 90.28934
v 163.2853 25.18236 87.64648
v 163.6339 28.32588 90.55411
v 163.1872 25.23553 90.28934
v 163.732 28.25038 87.91125
v 163.6339 28.32588 90.55411
v 163.2853 25.18236 87.64648
v 163.732 28.25038 87.91125
v 185.1887 26.33972 91.33867
v 187.2386 26.53348 88.34311
v 185.3487 30.08386 92.45178
v 185.1887 26.33972 91.33867
v 187.3986 30.2776 89.45624
v 185.3487 30.08386 92.45178
v 187.2386 26.53348 88.34311
v 187.3986 30.2776 89.45624
v 190.8943 29.54536 92.05756
v 193.4305 30.03395 90.17035
v 190.043 32.74294 94.25644
v 190.8943 29.54536 92.05756
v 192.5792 33.23155 92.36928
v 190.043 32.74294 94.25644
v 193.4305 30.03395 90.17035
v 192.5792 33.23155 92.36928
v 196.622 33.89828 93.29419
v 196.622 33.89828 93.29419
v 196.622 33.89828 93.29419
v 196.622 33.89828 93.29419

vn -0.8556858 -0.3978843 0.3308924
vn -0.8569874 -0.3970588 0.3285071
vn -0.8389027 -0.446855 0.3107458
vn -0.8040939 -0.5218481 0.2847938
vn 0.4607768 -0.3302895 0.823768
vn 0.4573677 -0.3322355 0.8248845
vn 0.4565217 -0.326691 0.8275632
vn 0.450217 -0.321548 0.8330135
vn 0.8537215 0.403888 -0.3286855
vn 0.8550255 0.4028929 -0.32651
vn 0.8362738 0.453381 -0.3083697
vn 0.8000935 0.5307025 -0.279652
vn -0.4607846 0.3343356 -0.8221297
vn -0.4574624 0.3355055 -0.8235072
vn -0.4566938 0.3319335 -0.8253792
vn -0.4519377 0.3279641 -0.8295733
vn -0.6128615 -0.7668597 0.190596
vn -0.5244339 -0.8383043 0.1490472
vn 0.4088273 -0.2312319 0.8828318
vn 0.3736539 -0.1883178 0.9082506
vn 0.5978072 0.7824345 -0.1744209
vn 0.5083525 0.850397 -0.1356564
vn -0.4159841 0.2473236 -0.8750933
vn -0.3873131 0.202889 -0.8993468
vn -0.4395894 -0.8905959 0.1166192
vn -0.4133309 -0.9078965 0.06986711
vn 0.3241855 -0.1355423 0.9362329
vn 0.288599 -0.1294287 0.9486616
vn 0.4193269 0.9018058 -0.1044571
vn 0.3937477 0.9167089 -0.06788009
vn -0.3424895 0.1532437 -0.9269398
vn -0.3112677 0.1395233 -0.9400243
vn -0.2087168 -0.9773149 0.0359548
vn -0.06468195 -0.9979034 -0.002246024
vn 0.1215307 -0.09648278 0.9878873
vn 0.02865243 -0.1745673 0.9842283
vn 0.1649452 0.985485 -0.04015566
vn 0.02975977 0.999494 -0.01122953
vn -0.1564513 0.1054813 -0.9820371
vn -0.04467059 0.1792308 -0.9827924
vn 0.1111619 -0.9932783 0.03226754
vn 0.193746 -0.9773247 0.08543465
vn -0.07015084 -0.2014484 0.9769838
vn -0.01368925 -0.3324375 0.9430259
vn -0.1312287 0.9904781 -0.04161848
vn -0.197001 0.9768249 -0.08368833
vn 0.04389352 0.2059849 -0.9775702
vn 0.06714433 0.3364966 -0.9392878
vn 0.4439246 -0.8318151 0.3331886
vn 0.4391249 -0.8144494 0.3792643
vn 0.09616698 -0.464584 0.8802918
vn 0.2004723 -0.5183259 0.8313537
vn -0.3481469 0.9182916 -0.1885059
vn -0.3048067 0.9376865 -0.1668436
vn 0.1145998 0.4761938 -0.8718408
vn 0.1066297 0.5825175 -0.8057937
vn 0.4781611 -0.7561141 0.4468259
vn 0.2119079 -0.5148263 0.8306919
vn -0.1689091 0.985231 0.02809758
vn 0.08944983 0.5804176 -0.8093913

vt 2.001607 0.2259861
vt 2.001607 0.1853165
vt 1.544622 0.2259861
vt 1.544622 0.1853165
vt 2.001607 0.2367168
vt 2.001607 0.1546676
vt 1.544622 0.2367168
vt 1.544622 0.1546676
vt 2.001607 0.2302299
vt 2.001607 0.1859037
vt 1.544622 0.2302299
vt 1.544622 0.1859036
vt 2.001607 0.1552622
vt 2.001607 0.2373114
vt 1.544622 0.1552622
vt 1.544622 0.2373114
vt 1.297226 0.225986
vt 1.297226 0.1853165
vt 1.297226 0.2367168
vt 1.297226 0.1546676
vt 1.297226 0.2302299
vt 1.297226 0.1859036
vt 1.297226 0.1552622
vt 1.297226 0.2373114
vt 0.9611213 0.225986
vt 0.9611213 0.1853165
vt 0.9611213 0.2367168
vt 0.9611213 0.1546676
vt 0.9611213 0.2302299
vt 0.9611213 0.1859036
vt 0.9611211 0.1552622
vt 0.9611213 0.2373114
vt 0.6709935 0.225986
vt 0.6709935 0.1853165
vt 0.6709935 0.2367168
vt 0.6709935 0.1546676
vt 0.6709935 0.2302299
vt 0.6709935 0.1859036
vt 0.6709934 0.1552622
vt 0.6709935 0.2373114
vt 0.2749782 0.225986
vt 0.2749782 0.1853165
vt 0.2749782 0.2367168
vt 0.2749782 0.1546676
vt 0.2749782 0.2302299
vt 0.2749782 0.1859036
vt 0.2749781 0.1552622
vt 0.2749782 0.2373114
vt 0.1461262 0.225986
vt 0.1461262 0.1853165
vt 0.1461262 0.2367168
vt 0.1461262 0.1546676
vt 0.1461262 0.2302299
vt 0.1461262 0.1859036
vt 0.1461261 0.1552622
vt 0.1461262 0.2373114
vt 0.001607224 0.225986
vt 0.001607195 0.2367168
vt 0.00160718 0.2302299
vt 0.00160715 0.1552622

usemtl sn13_09_sn13r01.jpg
usemap sn13_09_sn13r01.jpg
f 3/3/3 1/1/1 2/2/2
f 2/2/2 4/4/4 3/3/3
f 7/7/7 5/5/5 6/6/6
f 6/6/6 8/8/8 7/7/7
f 11/11/11 9/9/9 10/10/10
f 10/10/10 12/12/12 11/11/11
f 15/15/15 13/13/13 14/14/14
f 14/14/14 16/16/16 15/15/15
f 17/17/17 3/3/3 4/4/4
f 4/4/4 18/18/18 17/17/17
f 19/19/19 7/7/7 8/8/8
f 8/8/8 20/20/20 19/19/19
f 21/21/21 11/11/11 12/12/12
f 12/12/12 22/22/22 21/21/21
f 23/23/23 15/15/15 16/16/16
f 16/16/16 24/24/24 23/23/23
f 25/25/25 17/17/17 18/18/18
f 18/18/18 26/26/26 25/25/25
f 27/27/27 19/19/19 20/20/20
f 20/20/20 28/28/28 27/27/27
f 29/29/29 21/21/21 22/22/22
f 22/22/22 30/30/30 29/29/29
f 31/31/31 23/23/23 24/24/24
f 24/24/24 32/32/32 31/31/31
f 33/33/33 25/25/25 26/26/26
f 26/26/26 34/34/34 33/33/33
f 35/35/35 27/27/27 28/28/28
f 28/28/28 36/36/36 35/35/35
f 37/37/37 29/29/29 30/30/30
f 30/30/30 38/38/38 37/37/37
f 39/39/39 31/31/31 32/32/32
f 32/32/32 40/40/40 39/39/39
f 41/41/41 33/33/33 34/34/34
f 34/34/34 42/42/42 41/41/41
f 43/43/43 35/35/35 36/36/36
f 36/36/36 44/44/44 43/43/43
f 45/45/45 37/37/37 38/38/38
f 38/38/38 46/46/46 45/45/45
f 47/47/47 39/39/39 40/40/40
f 40/40/40 48/48/48 47/47/47
f 49/49/49 41/41/41 42/42/42
f 42/42/42 50/50/50 49/49/49
f 51/51/51 43/43/43 44/44/44
f 44/44/44 52/52/52 51/51/51
f 53/53/53 45/45/45 46/46/46
f 46/46/46 54/54/54 53/53/53
f 55/55/55 47/47/47 48/48/48
f 48/48/48 56/56/56 55/55/55
f 57/57/57 49/49/49 50/50/50
f 58/58/58 51/51/51 52/52/52
f 59/59/59 53/53/53 54/54/54
f 60/60/60 55/55/55 56/56/56
