mtllib ./Object167.mtl
g Object167
v 12.55054 1.873611 11.12817
v 32.09888 -6.67865 19.09033
v 16.18109 -9.836243 -6.604736
v -10.14581 -3.430008 4.540771
v 6.977234 -2.901863 32.04932
v -15.86133 -5.824936 -24.55518
v -21.94489 -13.50188 -5.556396
v 1.993286 -12.66191 -15.35547
v -3.631958 -19.76104 -41.15942
v -31.34369 -16.74445 -31.66455
v 11.81647 -5.132996 15.02881
v 9.720703 -13.07705 42.00171
v 40.19232 -18.77042 7.345703
v 10.83435 -9.710266 -20.09131
v -19.54462 -3.669601 14.61694
v 15.51105 22.3672 -14.32446
v 16.78119 18.22588 7.202881
v 40.27679 10.78231 -15.08765
v 18.17322 12.93088 -34.85547
v -6.40387 18.3479 -12.49658
v 7.088745 10.79189 9.76709
v 12.01172 -0.388382 16.0061
v 21.45654 6.983002 6.717041
v 5.368774 6.282562 -7.137207
v -4.16272 -1.29229 2.06665
v -23.13501 -4.59053 -24.38379
v -18.1601 -4.697418 -3.838135
v -0.7421875 -7.835152 -21.06104
v -18.10883 -16.02784 -39.38257
v -34.29822 -12.37989 -21.76563
v -7.600281 19.19311 1.400635
v -13.25586 11.47192 16.31787
v 11.94708 10.62798 8.707275
v -1.879211 8.64695 -16.10083
v -24.05939 8.232109 -6.86499
v 17.61536 26.67553 -12.16675
v 13.00012 24.47426 0.8532715
v 29.80426 25.53825 -9.523682
v 22.91638 20.44878 -26.88232
v 3.819458 23.85499 -18.62646
v -19.68372 -13.04712 -16.4082
v -14.03668 -14.33675 8.848877
v 10.43274 -12.62848 -17.54956
v -18.66235 -31.22029 -35.13745
v -40.27765 -20.03993 -9.140625
v -0.4970093 26.09664 -18.52148
v 1.557312 26.1898 8.389404
v 22.5517 19.62504 -18.6333
v -0.1105347 12.87511 -42.00122
v -22.08105 13.17582 -13.73804
v -5.052246 30.86374 -11.48267
v 3.612488 31.21964 3.201416
v 9.363831 22.62658 -19.02515
v -10.39862 18.23563 -24.30103
v -15.61316 23.37927 -1.739502
v -0.05010986 12.86623 -4.280029
v 10.58209 6.265221 25.23828
v 20.54138 -1.029213 -13.9646
v -18.04834 -2.899048 -26.30176
v -28.29773 4.135933 12.99121
v 12.52368 -9.736954 5.198975
v -4.468994 -21.1667 22.7561
v 38.40179 -16.43073 20.72168
v 36.46393 -14.64762 -17.47437
v -6.480103 -18.92235 -15.40625

vn 0.1257713 0.9812446 -0.1460841
vn 0.4211468 0.9048675 -0.06205089
vn 0.2366259 0.8323531 -0.5011952
vn -0.1636705 0.9635062 -0.2118204
vn -0.001531652 0.9750115 0.2221488
vn -0.02859895 0.9818808 -0.187329
vn -0.2552219 0.922093 0.2908715
vn 0.350511 0.9364277 0.01566251
vn 0.1722763 0.813313 -0.5557365
vn -0.4202846 0.8318705 -0.3624257
vn 0.2511863 0.966265 0.0568975
vn 0.2676265 0.9184361 0.2912919
vn 0.4448535 0.8938231 0.05644304
vn 0.2277876 0.9647082 -0.1321022
vn 0.0458222 0.9974396 0.0549046
vn 0.1524452 0.9811842 -0.1184821
vn 0.1670167 0.9699826 0.176746
vn 0.4190757 0.9024558 -0.09974562
vn 0.1248346 0.9075593 -0.4009393
vn -0.1892772 0.9734374 -0.1288169
vn -0.3448625 0.8709458 0.3500334
vn -0.2804381 0.3706214 0.8854345
vn 0.2887341 0.9388229 0.1877342
vn -0.2625866 0.9386274 -0.2236674
vn -0.7857461 0.4966557 0.3686953
vn -0.12174 0.9456269 -0.301611
vn -0.1348955 0.990138 0.03781468
vn 0.180099 0.9372604 -0.2985086
vn -0.09210753 0.7766811 -0.6231233
vn -0.592787 0.7670698 -0.2453721
vn -0.02492894 0.9951208 -0.09546337
vn -0.2239391 0.897598 0.3796959
vn 0.383647 0.921882 0.05429962
vn 0.1475401 0.8677216 -0.4746484
vn -0.4545562 0.859323 -0.2343984
vn -0.01224714 0.9889252 -0.1479091
vn -0.1087392 0.9857796 0.1281189
vn 0.114424 0.9881295 -0.1025051
vn 0.06872238 0.9274136 -0.3676701
vn -0.1141742 0.9765441 -0.1825539
vn -0.1903384 0.9230521 -0.3342844
vn -0.1311891 0.9881415 0.07978592
vn -0.02646989 0.9341902 -0.3557923
vn -0.2153329 0.6949496 -0.6860589
vn -0.3982807 0.869581 -0.2918927
vn -0.1650517 0.9548946 -0.2468485
vn -0.1422078 0.9898089 0.007429239
vn 0.2602648 0.9313374 -0.2547013
vn -0.1769471 0.8563529 -0.4851283
vn -0.5354572 0.8207482 -0.1991433
vn -0.2020365 0.9213693 -0.3320543
vn 0.009482948 0.9995103 -0.02982064
vn 0.2142728 0.8366221 -0.5041335
vn -0.371271 0.7341894 -0.5684399
vn -0.6131555 0.7877173 -0.05951231
vn 0.00573876 0.9839867 -0.1781493
vn 0.1856441 0.9710565 0.1502847
vn 0.3945003 0.8416409 -0.3687955
vn -0.1719158 0.8621064 -0.4766734
vn -0.2977142 0.9546451 -0.004364358
vn -0.1015283 0.9931617 0.05763413
vn -0.2950671 0.9057938 0.3040937
vn 0.09649432 0.9623467 0.254121
vn 0.06340501 0.987125 -0.146847
vn -0.2957251 0.9437447 -0.1479612

vt 0.5 0.5
vt 0.0004995465 0.0004997253
vt 0.9995002 0.0004994869
vt 0.9995004 0.9995003
vt 0.0004997849 0.9995005
vt 0.5 0.5
vt 0.0004995763 0.0004997253
vt 0.9995002 0.0004994869
vt 0.9995004 0.9995003
vt 0.0004997849 0.9995005
vt 0.5 0.5
vt 0.0004995465 0.0004997849
vt 0.9995002 0.0004995465
vt 0.9995004 0.9995002
vt 0.0004997849 0.9995005
vt 0.5 0.5
vt 0.0004995167 0.0004997551
vt 0.9995003 0.0004995167
vt 0.9995005 0.9995003
vt 0.0004997551 0.9995005
vt 0.5 0.5
vt 0.0004994869 0.0004997551
vt 0.9995003 0.0004995167
vt 0.9995005 0.9995003
vt 0.0004997253 0.9995005
vt 0.5 0.5
vt 0.0004995465 0.0004997253
vt 0.9995002 0.0004994869
vt 0.9995004 0.9995003
vt 0.0004997849 0.9995005
vt 0.5 0.5
vt 0.0004995763 0.0004997551
vt 0.9995002 0.0004994869
vt 0.9995004 0.9995003
vt 0.0004998147 0.9995005
vt 0.5 0.5
vt 0.0004995167 0.0004997551
vt 0.9995003 0.0004995167
vt 0.9995005 0.9995003
vt 0.0004997551 0.9995005
vt 0.5 0.5
vt 0.0004995167 0.0004997253
vt 0.9995003 0.0004994869
vt 0.9995005 0.9995003
vt 0.0004997551 0.9995005
vt 0.5 0.5
vt 0.0004994869 0.0004997253
vt 0.9995003 0.0004994869
vt 0.9995005 0.9995003
vt 0.0004997253 0.9995005
vt 0.5 0.5
vt 0.0004995465 0.0004997551
vt 0.9995002 0.0004995167
vt 0.9995004 0.9995003
vt 0.0004997849 0.9995005
vt 0.5 0.5
vt 0.0004994869 0.0004997551
vt 0.9995003 0.0004995167
vt 0.9995005 0.9995003
vt 0.0004997253 0.9995005
vt 0.5 0.5
vt 0.0004995465 0.0004997849
vt 0.9995002 0.0004995465
vt 0.9995004 0.9995002
vt 0.0004997849 0.9995005

usemtl sn13_44_Aree02.bmp
usemap sn13_44_Aree02.bmp
f 3/3/3 1/1/1 2/2/2
f 4/4/4 1/1/1 3/3/3
f 5/5/5 1/1/1 4/4/4
f 2/2/2 1/1/1 5/5/5
f 8/8/8 6/6/6 7/7/7
f 9/9/9 6/6/6 8/8/8
f 10/10/10 6/6/6 9/9/9
f 7/7/7 6/6/6 10/10/10
f 13/13/13 11/11/11 12/12/12
f 14/14/14 11/11/11 13/13/13
f 15/15/15 11/11/11 14/14/14
f 12/12/12 11/11/11 15/15/15
f 18/18/18 16/16/16 17/17/17
f 19/19/19 16/16/16 18/18/18
f 20/20/20 16/16/16 19/19/19
f 17/17/17 16/16/16 20/20/20
f 23/23/23 21/21/21 22/22/22
f 24/24/24 21/21/21 23/23/23
f 25/25/25 21/21/21 24/24/24
f 22/22/22 21/21/21 25/25/25
f 28/28/28 26/26/26 27/27/27
f 29/29/29 26/26/26 28/28/28
f 30/30/30 26/26/26 29/29/29
f 27/27/27 26/26/26 30/30/30
f 33/33/33 31/31/31 32/32/32
f 34/34/34 31/31/31 33/33/33
f 35/35/35 31/31/31 34/34/34
f 32/32/32 31/31/31 35/35/35
f 38/38/38 36/36/36 37/37/37
f 39/39/39 36/36/36 38/38/38
f 40/40/40 36/36/36 39/39/39
f 37/37/37 36/36/36 40/40/40
f 43/43/43 41/41/41 42/42/42
f 44/44/44 41/41/41 43/43/43
f 45/45/45 41/41/41 44/44/44
f 42/42/42 41/41/41 45/45/45
f 48/48/48 46/46/46 47/47/47
f 49/49/49 46/46/46 48/48/48
f 50/50/50 46/46/46 49/49/49
f 47/47/47 46/46/46 50/50/50
f 53/53/53 51/51/51 52/52/52
f 54/54/54 51/51/51 53/53/53
f 55/55/55 51/51/51 54/54/54
f 52/52/52 51/51/51 55/55/55
f 58/58/58 56/56/56 57/57/57
f 59/59/59 56/56/56 58/58/58
f 60/60/60 56/56/56 59/59/59
f 57/57/57 56/56/56 60/60/60
f 63/63/63 61/61/61 62/62/62
f 64/64/64 61/61/61 63/63/63
f 65/65/65 61/61/61 64/64/64
f 62/62/62 61/61/61 65/65/65
