mtllib ./Object16.mtl
g Object16
v 12.81902 35.61369 -168.8011
v -10.5819 35.3219 184.6726
v -10.5819 33.70803 184.6726
v 12.81889 33.82517 -168.7998
v 11.07075 33.82517 -168.914
v -12.37171 33.70697 185.1946
v -12.37171 35.3207 185.1946
v 11.07084 35.61369 -168.9154
v 11.07084 35.61369 -168.9154
v -12.37171 35.3207 185.1946
v -10.5819 35.3219 184.6726
v 12.81902 35.61369 -168.8011
v 12.81902 35.61369 -168.8011
v 12.81889 33.82517 -168.7998
v 11.07075 33.82517 -168.914
v 11.07084 35.61369 -168.9154

vn 0.3428042 -1.053304E-05 -0.9394071
vn 0.3428042 0 -0.9394069
vn 0.3428042 -1.053304E-05 -0.9394071
vn 0.3428041 -2.003754E-05 -0.939407
vn -0.3428029 -8.088122E-07 0.9394075
vn -0.3428028 0 0.9394073
vn -0.3428029 -8.088122E-07 0.9394075
vn -0.3428029 -1.538574E-06 0.9394075
vn 0.0007084021 0.9999996 0.0004642886
vn 0.00064291 0.9999996 0.0006465541
vn 0.0007084021 0.9999996 0.0004642886
vn 0.0007739936 0.9999997 0.000281747
vn -0.9396914 -0.0007702005 -0.3420228
vn -0.939703 -0.0007367724 -0.3419907
vn -0.9396914 -0.0007702005 -0.3420228
vn -0.9396797 -0.0008036278 -0.3420548

vt -0.9835311 0.02934748
vt 4.425996 0.03448834
vt 4.425978 0.1430788
vt -0.9835309 0.1430788
vt -0.9835311 0.02934748
vt 4.436348 0.03449742
vt 4.436367 0.1430788
vt -0.9835309 0.1430788
vt 4.458706 0.1430788
vt -0.9611921 0.1430787
vt -0.9515992 0.02934748
vt 4.458706 0.02934754
vt 4.465882 0.2230844
vt 4.465882 0.2230844
vt 4.465882 0.2230844
vt 4.465882 0.2230844

usemtl sn13_12_sn13h04.JPG
usemap sn13_12_sn13h04.JPG
f 3/3/3 1/1/1 2/2/2
f 1/1/1 3/3/3 4/4/4
f 7/7/7 5/5/5 6/6/6
f 5/5/5 7/7/7 8/8/8
f 11/11/11 9/9/9 10/10/10
f 9/9/9 11/11/11 12/12/12

usemtl sn13_09_sn13r01.jpg
usemap sn13_09_sn13r01.jpg
f 15/15/15 13/13/13 14/14/14
f 13/13/13 15/15/15 16/16/16
