mtllib ./Object171.mtl
g Object171
v -7.365662 1.873711 15.57471
v -5.585144 -6.678551 36.60718
v 10.08282 -9.836147 10.75903
v -11.79999 -3.429916 -7.638428
v -28.53656 -2.901764 20.10669
v 11.52985 -5.824844 -25.94043
v -8.159973 -13.50179 -22.7356
v 11.43866 -12.66181 -5.855225
v 31.87628 -19.76094 -22.58203
v 10.83551 -16.74435 -42.96289
v -11.17426 -5.132904 16.69141
v -36.15875 -13.07695 27.06958
v 8.55365 -18.77032 38.48657
v 19.67206 -9.710175 -0.1276855
v -25.04498 -3.66951 -11.43848
v 16.65704 22.36729 6.657227
v -1.947449 18.22597 17.56226
v 28.58038 10.7824 28.3772
v 36.15887 12.93098 -0.291748
v 5.079041 18.348 -12.03906
v -8.632507 10.79199 10.09033
v -11.95648 -0.3882904 17.30908
v 0.6080933 6.983093 21.50732
v 5.648743 6.282661 0.8833008
v -6.879333 -1.292191 -3.430664
v 8.075012 -4.590431 -32.34351
v -7.972839 -4.697327 -18.58325
v 15.28046 -7.835052 -10.88281
v 23.72076 -16.02774 -34.67432
v 0.6741333 -12.37979 -41.10132
v -7.846375 19.19321 -6.796143
v -23.70538 11.47202 -5.062988
v -5.482361 10.62807 13.93799
v 10.34467 8.647049 -9.644043
v -7.954041 8.232201 -25.21362
v 15.68988 26.67563 9.511719
v 1.993713 24.47435 11.31055
v 18.86847 25.53835 21.57202
v 31.20807 20.44888 7.554443
v 15.18219 23.85508 -5.713135
v 2.535583 -13.04703 -25.64746
v -17.40509 -14.33665 -9.149414
v 17.22516 -12.62838 0.6682129
v 19.68719 -31.22019 -33.24023
v -13.28937 -20.03983 -40.69727
v 13.12897 26.09673 -9.511475
v -9.915955 26.1899 4.536377
v 23.69269 19.62513 10.97437
v 34.22528 12.87521 -19.82666
v -0.9318237 13.17592 -26.57129
v 4.78949 30.86383 -10.37451
v -4.360535 31.21973 4.012207
v 18.05463 22.62667 -0.9541016
v 13.78339 18.23573 -20.95776
v -8.686462 23.37937 -15.36108
v 0.6426392 12.86633 -2.647705
v -20.83136 6.265312 20.22656
v 18.62006 -1.029114 11.30273
v 12.09332 -2.898956 -28.68188
v -27.57025 4.136024 -19.97559
v -2.094788 -9.736862 12.85889
v -25.4527 -21.1666 5.689209
v -4.177185 -16.43064 42.96362
v 28.97589 -14.64753 23.89648
v 7.637024 -18.92225 -13.42798

vn 0.1872611 0.9812445 0.04574253
vn 0.246483 0.9048682 0.347073
vn 0.553992 0.8323544 -0.01670131
vn 0.1144301 0.9635058 -0.2419964
vn -0.198634 0.975011 0.0994886
vn 0.1539284 0.9818807 -0.1105272
vn -0.3750384 0.9220924 -0.09535153
vn 0.1451733 0.9364279 0.3194173
vn 0.5733781 0.8133118 -0.09879924
vn 0.1321197 0.8318704 -0.539014
vn 0.0633397 0.966265 0.2496394
vn -0.1380426 0.9184369 0.3706994
vn 0.1516672 0.8938235 0.4219912
vn 0.2211171 0.9647081 0.1429873
vn -0.02811753 0.9974396 0.0657542
vn 0.1747769 0.9811842 0.08204007
vn -0.08165607 0.9699827 0.2290545
vn 0.2791315 0.9024553 0.3281159
vn 0.413913 0.9075593 -0.07079537
vn 0.02884447 0.9734371 -0.2271302
vn -0.468443 0.8709473 -0.1483642
vn -0.9162444 0.3706188 0.1521108
vn -0.03618703 0.9388223 0.3424956
vn 0.08007221 0.9386275 -0.33551
vn -0.6852282 0.4966542 -0.5327259
vn 0.2134687 0.9456267 -0.2453998
vn -0.09493454 0.990138 -0.1030253
vn 0.3477365 0.9372602 0.02495064
vn 0.5133947 0.776678 -0.364962
vn -0.05049153 0.767068 -0.6395757
vn 0.07374108 0.9951208 -0.06555153
vn -0.4399765 0.8975987 -0.02715219
vn 0.1257901 0.9218828 0.3664816
vn 0.4899006 0.8677194 -0.08402781
vn 0.002486181 0.8593204 -0.5114318
vn 0.1262284 0.9889249 -0.07806209
vn -0.1635224 0.9857795 -0.03872214
vn 0.1432804 0.9881294 0.05541766
vn 0.3587987 0.9274122 -0.105688
vn 0.1108236 0.9765436 -0.1846095
vn 0.2114364 0.9230521 -0.3213558
vn -0.1306479 0.9881415 -0.08066876
vn 0.3049947 0.9341906 -0.1851116
vn 0.5135227 0.6949486 -0.5033299
vn 0.07926132 0.86958 -0.4873891
vn 0.1450112 0.9548948 -0.2591285
vn -0.07118151 0.989809 -0.1233346
vn 0.3450968 0.9313383 0.116263
vn 0.351918 0.8563544 -0.3779031
vn -0.06565662 0.8207475 -0.5675057
vn 0.2041373 0.9213697 -0.3307658
vn 0.03087553 0.9995103 -0.005088696
vn 0.5464643 0.8366219 -0.03795333
vn 0.3379253 0.7341911 -0.5888717
vn -0.2253389 0.7877203 -0.5733404
vn 0.1613374 0.9839867 -0.07576477
vn -0.04962491 0.9710562 0.2336388
vn 0.5076972 0.8416417 0.1840733
vn 0.3466702 0.8621073 -0.3695818
vn -0.1312703 0.954645 -0.2672474
vn -0.09744551 0.9931617 -0.06429714
vn -0.4049093 0.9057929 -0.1248514
vn -0.1826166 0.9623467 0.2013455
vn 0.1596271 0.987125 -0.01017291
vn -0.002421164 0.9437441 -0.3306678

vt 0.5 0.5
vt 0.0004995465 0.0004997253
vt 0.9995002 0.0004994869
vt 0.9995004 0.9995003
vt 0.0004997849 0.9995005
vt 0.5 0.5
vt 0.0004995763 0.0004997253
vt 0.9995002 0.0004994869
vt 0.9995004 0.9995003
vt 0.0004997849 0.9995005
vt 0.5 0.5
vt 0.0004995465 0.0004997849
vt 0.9995002 0.0004995465
vt 0.9995004 0.9995002
vt 0.0004997849 0.9995005
vt 0.5 0.5
vt 0.0004995167 0.0004997551
vt 0.9995003 0.0004995167
vt 0.9995005 0.9995003
vt 0.0004997551 0.9995005
vt 0.5 0.5
vt 0.0004994869 0.0004997551
vt 0.9995003 0.0004995167
vt 0.9995005 0.9995003
vt 0.0004997253 0.9995005
vt 0.5 0.5
vt 0.0004995465 0.0004997253
vt 0.9995002 0.0004994869
vt 0.9995004 0.9995003
vt 0.0004997849 0.9995005
vt 0.5 0.5
vt 0.0004995763 0.0004997551
vt 0.9995002 0.0004994869
vt 0.9995004 0.9995003
vt 0.0004998147 0.9995005
vt 0.5 0.5
vt 0.0004995167 0.0004997551
vt 0.9995003 0.0004995167
vt 0.9995005 0.9995003
vt 0.0004997551 0.9995005
vt 0.5 0.5
vt 0.0004995167 0.0004997253
vt 0.9995003 0.0004994869
vt 0.9995005 0.9995003
vt 0.0004997551 0.9995005
vt 0.5 0.5
vt 0.0004994869 0.0004997253
vt 0.9995003 0.0004994869
vt 0.9995005 0.9995003
vt 0.0004997253 0.9995005
vt 0.5 0.5
vt 0.0004995465 0.0004997551
vt 0.9995002 0.0004995167
vt 0.9995004 0.9995003
vt 0.0004997849 0.9995005
vt 0.5 0.5
vt 0.0004994869 0.0004997551
vt 0.9995003 0.0004995167
vt 0.9995005 0.9995003
vt 0.0004997253 0.9995005
vt 0.5 0.5
vt 0.0004995465 0.0004997849
vt 0.9995002 0.0004995465
vt 0.9995004 0.9995002
vt 0.0004997849 0.9995005

usemtl sn13_44_Aree02.bmp
usemap sn13_44_Aree02.bmp
f 3/3/3 1/1/1 2/2/2
f 4/4/4 1/1/1 3/3/3
f 5/5/5 1/1/1 4/4/4
f 2/2/2 1/1/1 5/5/5
f 8/8/8 6/6/6 7/7/7
f 9/9/9 6/6/6 8/8/8
f 10/10/10 6/6/6 9/9/9
f 7/7/7 6/6/6 10/10/10
f 13/13/13 11/11/11 12/12/12
f 14/14/14 11/11/11 13/13/13
f 15/15/15 11/11/11 14/14/14
f 12/12/12 11/11/11 15/15/15
f 18/18/18 16/16/16 17/17/17
f 19/19/19 16/16/16 18/18/18
f 20/20/20 16/16/16 19/19/19
f 17/17/17 16/16/16 20/20/20
f 23/23/23 21/21/21 22/22/22
f 24/24/24 21/21/21 23/23/23
f 25/25/25 21/21/21 24/24/24
f 22/22/22 21/21/21 25/25/25
f 28/28/28 26/26/26 27/27/27
f 29/29/29 26/26/26 28/28/28
f 30/30/30 26/26/26 29/29/29
f 27/27/27 26/26/26 30/30/30
f 33/33/33 31/31/31 32/32/32
f 34/34/34 31/31/31 33/33/33
f 35/35/35 31/31/31 34/34/34
f 32/32/32 31/31/31 35/35/35
f 38/38/38 36/36/36 37/37/37
f 39/39/39 36/36/36 38/38/38
f 40/40/40 36/36/36 39/39/39
f 37/37/37 36/36/36 40/40/40
f 43/43/43 41/41/41 42/42/42
f 44/44/44 41/41/41 43/43/43
f 45/45/45 41/41/41 44/44/44
f 42/42/42 41/41/41 45/45/45
f 48/48/48 46/46/46 47/47/47
f 49/49/49 46/46/46 48/48/48
f 50/50/50 46/46/46 49/49/49
f 47/47/47 46/46/46 50/50/50
f 53/53/53 51/51/51 52/52/52
f 54/54/54 51/51/51 53/53/53
f 55/55/55 51/51/51 54/54/54
f 52/52/52 51/51/51 55/55/55
f 58/58/58 56/56/56 57/57/57
f 59/59/59 56/56/56 58/58/58
f 60/60/60 56/56/56 59/59/59
f 57/57/57 56/56/56 60/60/60
f 63/63/63 61/61/61 62/62/62
f 64/64/64 61/61/61 63/63/63
f 65/65/65 61/61/61 64/64/64
f 62/62/62 61/61/61 65/65/65
