mtllib ./Object38.mtl
g Object38
v 90.75784 45.37041 -114.7457
v 90.56371 51.65117 -118.8033
v 101.2561 51.63976 104.6931
v 101.0862 45.53768 101.1412
v 85.09075 51.65117 -118.5415
v 85.28487 45.37041 -114.4839
v 95.61336 45.53768 101.4029
v 95.78329 51.63976 104.9548
v 90.56371 51.65117 -118.8033
v 85.09075 51.65117 -118.5415
v 95.78329 51.63976 104.9548
v 101.2561 51.63976 104.6931
v 95.61336 45.53768 101.4029
v 101.0862 45.53768 101.1412
v 101.2561 51.63976 104.6931
v 90.56371 51.65117 -118.8033
v 90.75784 45.37041 -114.7457
v 85.28487 45.37041 -114.4839
v 85.09075 51.65117 -118.5415

vn 0.0002759919 -4.874195E-07 -1
vn 0.0002759695 2.171629E-07 -1
vn 0.0002759919 -4.874195E-07 -1
vn 0.0002760105 -1.238509E-06 -1
vn -0.0002754293 -1.050474E-07 1
vn -0.0002754256 1.40436E-07 1
vn -0.0002754293 -1.050474E-07 1
vn 0.02420152 -0.01426422 0.9996054
vn 5.097584E-05 0.9999999 1.459193E-08
vn 5.097585E-05 1 1.401349E-08
vn 5.097584E-05 0.9999999 1.459193E-08
vn 5.097582E-05 1 1.516673E-08
vn 0.8639982 -0.503495 0.0002570748
vn 0.8639983 -0.503495 0.0002570152
vn 0.8639982 -0.503495 0.0002570748
vn -0.8396798 -0.5430819 -0.0002308488
vn -0.8396798 -0.5430819 -0.0002308488
vn -0.8396798 -0.5430819 -0.0002308488
vn -0.8396798 -0.5430819 -0.0002308488

vt 0.002528012 0.0252023
vt 0.002527945 0.003605336
vt 0.4982433 0.003605336
vt 0.4821678 0.0245892
vt 0.002528012 0.0252023
vt 0.01907318 0.002974328
vt 0.4982433 0.003605336
vt 0.4982434 0.0252023
vt 0.002528012 0.0252023
vt 0.002527904 0.003605332
vt 0.4982433 0.003605336
vt 0.4982434 0.0252023
vt 0.002528012 0.0252023
vt 0.002527945 0.003605336
vt 0.4982433 0.003605336
vt 2.006193 0.2230844
vt 2.006193 0.2230844
vt 2.006193 0.2230844
vt 2.006193 0.2230844

usemtl sn13_18_sn13h01.jpg
usemap sn13_18_sn13h01.jpg
f 3/3/3 1/1/1 2/2/2
f 1/1/1 3/3/3 4/4/4
f 7/7/7 5/5/5 6/6/6
f 5/5/5 7/7/7 8/8/8
f 11/11/11 9/9/9 10/10/10
f 9/9/9 11/11/11 12/12/12
f 15/15/15 13/13/13 14/14/14
f 13/13/13 15/15/15 8/8/8
f 18/18/18 16/16/16 17/17/17
f 16/16/16 18/18/18 19/19/19
