mtllib ./Object35.mtl
g Object35
v 2.489148 45.37041 106.9633
v 2.683278 51.65117 111.0211
v -8.013566 51.63976 -112.5653
v -7.843635 45.53768 -109.0134
v 8.15624 51.65117 110.7592
v 7.962111 45.37041 106.7015
v -2.370672 45.53768 -109.2752
v -2.540604 51.63976 -112.8272
v 2.683278 51.65117 111.0211
v 8.15624 51.65117 110.7592
v -2.540604 51.63976 -112.8272
v -8.013566 51.63976 -112.5653
v -2.370672 45.53768 -109.2752
v -7.843635 45.53768 -109.0134
v -2.540604 51.63976 -112.8272
v 2.683278 51.65117 111.0211
v 2.489148 45.37041 106.9633
v 7.962111 45.37041 106.7015
v 8.15624 51.65117 110.7592

vn -0.0002754368 7.00029E-09 1
vn -0.0002754368 -1.628066E-08 1
vn -0.02480756 -0.01429617 0.9995901
vn -0.0002754331 3.181759E-08 1
vn 0.0002754293 -5.600232E-08 -1
vn 0.0002754331 -7.861142E-08 -1
vn 0.0002754293 -5.600232E-08 -1
vn 0.0002754331 -3.351264E-08 -1
vn -5.095532E-05 1 -1.400986E-08
vn -5.095531E-05 1 -1.400986E-08
vn -5.095532E-05 1 -1.400986E-08
vn -5.095531E-05 1 -1.400986E-08
vn -0.8639982 -0.503495 -0.0002375245
vn -0.8639982 -0.503495 -0.0002375245
vn -0.8639982 -0.503495 -0.0002375245
vn 0.8396722 -0.5430937 0.0002314448
vn 0.839672 -0.5430942 0.0002319813
vn 0.8396722 -0.5430937 0.0002314448
vn 0.8396724 -0.5430934 0.0002308488

vt 0.002528012 0.0252023
vt 0.002527945 0.003605336
vt 0.4982433 0.003605336
vt 0.4821678 0.0245892
vt 0.002528012 0.0252023
vt 0.01907318 0.002974328
vt 0.4982433 0.003605336
vt 0.4982434 0.0252023
vt 0.002528012 0.0252023
vt 0.002527904 0.003605332
vt 0.4982433 0.003605336
vt 0.4982434 0.0252023
vt 0.002528012 0.0252023
vt 0.002527945 0.003605336
vt 0.4982433 0.02520231
vt 2.006193 0.2230844
vt 2.006193 0.2230844
vt 2.006193 0.2230844
vt 2.006193 0.2230844

usemtl sn13_18_sn13h01.jpg
usemap sn13_18_sn13h01.jpg
f 3/3/3 1/1/1 2/2/2
f 1/1/1 3/3/3 4/4/4
f 7/7/7 5/5/5 6/6/6
f 5/5/5 7/7/7 8/8/8
f 11/11/11 9/9/9 10/10/10
f 9/9/9 11/11/11 12/12/12
f 3/3/3 13/13/13 14/14/14
f 13/13/13 3/3/3 15/15/15

usemtl sn13_14_sn13h02.JPG
usemap sn13_14_sn13h02.JPG
f 18/18/18 16/16/16 17/17/17
f 16/16/16 18/18/18 19/19/19
