mtllib ./Object102.mtl
g Object102
v -2.624023 51.63976 -112.3093
v -2.624023 45.53768 -108.7542
v -2.624146 45.37041 107.3181
v -2.624146 51.65117 111.3793
v 2.853638 45.53768 -108.7542
v 2.853638 51.63976 -112.3093
v 2.853638 51.65117 111.3793
v 2.853638 45.37041 107.3181
v 2.853638 51.63976 -112.3093
v -2.624023 51.63976 -112.3093
v -2.624146 51.65117 111.3793
v 2.853638 51.65117 111.3793
v 2.853638 45.53768 -108.7542
v -2.624023 51.63976 -112.3093
v 2.853638 51.63976 -112.3093
v -2.624023 45.53768 -108.7542
v -2.624023 51.63976 -112.3093
v 2.853638 45.53768 -108.7542
v 2.853638 45.37041 107.3181
v 2.853638 51.65117 111.3793
v -2.624146 51.65117 111.3793
v -2.624146 45.37041 107.3181

vn -1 2.269283E-08 -5.551586E-07
vn -1 -3.292873E-07 -5.652061E-07
vn -1 2.269283E-08 -5.551586E-07
vn -1 3.528784E-07 -5.457334E-07
vn 1 0 0
vn 1 0 0
vn 1 0 0
vn 1 0 0
vn 0 1 -5.099029E-05
vn 0 0.9999999 -5.099029E-05
vn 0 1 -5.099029E-05
vn 0 1 -5.099029E-05
vn 0 -0.5033962 -0.8640558
vn 0 -0.5033962 -0.8640558
vn 0 -0.5033962 -0.8640558
vn 0 -0.5033962 -0.8640558
vn 0 -0.5033962 -0.8640558
vn 0 -0.5033962 -0.8640558
vn 0 -0.5429875 0.8397408
vn 0 -0.5429875 0.8397408
vn 0 -0.5429875 0.8397408
vn 0 -0.5429875 0.8397408

vt 0.4982433 0.003605336
vt 0.4982434 0.0252023
vt 0.002528012 0.0252023
vt 0.002527945 0.003605336
vt 0.4982433 0.003605336
vt 0.4982434 0.0252023
vt 0.002528012 0.0252023
vt 0.002527945 0.003605336
vt 0.4982433 0.003605336
vt 0.4982434 0.0252023
vt 0.002528012 0.0252023
vt 0.002527945 0.003605336
vt 0.4982433 0.003605336
vt 0.002528012 0.0252023
vt 0.002527945 0.003605336
vt 0.002527945 0.003605336
vt 0.4982433 0.003605336
vt 0.002528012 0.0252023
vt 2.006193 0.2230844
vt 2.006193 0.2230844
vt 2.006193 0.2230844
vt 2.006193 0.2230844

usemtl sn13_18_sn13h01.jpg
usemap sn13_18_sn13h01.jpg
f 3/3/3 1/1/1 2/2/2
f 1/1/1 3/3/3 4/4/4
f 7/7/7 5/5/5 6/6/6
f 5/5/5 7/7/7 8/8/8
f 11/11/11 9/9/9 10/10/10
f 9/9/9 11/11/11 12/12/12
f 15/15/15 13/13/13 14/14/14
f 18/18/18 16/16/16 17/17/17

usemtl sn13_14_sn13h02.JPG
usemap sn13_14_sn13h02.JPG
f 21/21/21 19/19/19 20/20/20
f 21/21/21 22/22/22 19/19/19
