mtllib ./Object58.mtl
g Object58
v -29.72137 72.60287 -30.68118
v -29.26807 72.79816 -29.74359
v -35.08423 51.52875 -19.20856
v -34.60706 51.71194 -18.17609
v -31.85809 73.02171 -29.65393
v -29.72137 72.60287 -30.68118
v -37.34467 52.07881 -18.18796
v -35.08423 51.52875 -19.20856
v -31.40479 73.217 -28.71634
v -31.85809 73.02171 -29.65393
v -36.86749 52.26201 -17.15546
v -37.34467 52.07881 -18.18796
v -29.26807 72.79816 -29.74359
v -31.40479 73.217 -28.71634
v -34.60706 51.71194 -18.17609
v -36.86749 52.26201 -17.15546
v -40.52472 42.92256 -13.15393
v -40.05023 42.98289 -11.90204
v -42.65326 44.18858 -12.51215
v -40.52472 42.92256 -13.15393
v -42.17877 44.26695 -11.26025
v -42.65326 44.18858 -12.51215
v -40.05023 42.98289 -11.90204
v -42.17877 44.26695 -11.26025
v -57.82635 32.29498 -4.767792
v -57.40015 32.26424 -2.846405
v -59.31818 34.50618 -4.596283
v -57.82635 32.29498 -4.767792
v -58.89191 34.48607 -2.674896
v -59.31818 34.50618 -4.596283
v -57.40015 32.26424 -2.846405
v -58.89191 34.48607 -2.674896
v -74.10657 25.23553 0.3604431
v -74.20471 25.18236 3.003296
v -74.55316 28.32588 0.09567261
v -74.10657 25.23553 0.3604431
v -74.65131 28.25038 2.738525
v -74.55316 28.32588 0.09567261
v -74.20471 25.18236 3.003296
v -74.65131 28.25038 2.738525
v -96.10797 26.33972 -0.6889038
v -98.15796 26.53348 2.306641
v -96.26801 30.08386 -1.802002
v -96.10797 26.33972 -0.6889038
v -98.31793 30.2776 1.193542
v -96.26801 30.08386 -1.802002
v -98.15796 26.53348 2.306641
v -98.31793 30.2776 1.193542
v -101.8138 29.54536 -1.407776
v -104.3499 30.03395 0.4794312
v -100.9624 32.74294 -3.606689
v -101.8138 29.54536 -1.407776
v -103.4985 33.23155 -1.719482
v -100.9624 32.74294 -3.606689
v -104.3499 30.03395 0.4794312
v -103.4985 33.23155 -1.719482
v -107.5414 33.8983 -2.644409
v -107.5414 33.8983 -2.644409
v -107.5414 33.8983 -2.644409
v -107.5414 33.8983 -2.644409

vn 0.8557086 -0.3978701 -0.3308506
vn 0.8569973 -0.3970527 -0.3284889
vn 0.83891 -0.4468513 -0.3107314
vn 0.804082 -0.5218568 -0.2848117
vn -0.4607787 -0.3302885 -0.8237674
vn -0.4573726 -0.3322326 -0.8248829
vn -0.4565272 -0.3266872 -0.8275617
vn -0.4502248 -0.3215415 -0.8330119
vn -0.8537415 0.4038757 0.3286487
vn -0.8550588 0.4028702 0.3264506
vn -0.8363094 0.4533574 0.3083078
vn -0.800137 0.5306757 0.2795781
vn 0.4607846 0.3343354 0.8221298
vn 0.4574596 0.3355062 0.8235086
vn 0.4566906 0.3319357 0.8253801
vn 0.4519282 0.3279714 0.8295756
vn 0.612841 -0.7668664 -0.1906357
vn 0.5244274 -0.8383052 -0.1490646
vn -0.4088332 -0.2312245 -0.8828311
vn -0.3736573 -0.1883136 -0.9082501
vn -0.5978377 0.7824231 0.1743677
vn -0.5083655 0.8503932 0.1356314
vn 0.4159684 0.2473428 0.8750954
vn 0.3873061 0.2028986 0.8993477
vn 0.4395895 -0.8905961 -0.116618
vn 0.4133343 -0.907896 -0.06985472
vn -0.3241872 -0.1355406 -0.9362325
vn -0.2886003 -0.1294269 -0.9486614
vn -0.4193324 0.9018045 0.1044457
vn -0.3937479 0.9167088 0.06787977
vn 0.3424891 0.1532445 0.9269397
vn 0.3112727 0.1395144 0.940024
vn 0.2087177 -0.977315 -0.03594995
vn 0.06468219 -0.9979034 0.002245578
vn -0.1215311 -0.09648163 -0.9878874
vn -0.02865216 -0.1745649 -0.9842288
vn -0.1649456 0.985485 0.04015559
vn -0.02975977 0.999494 0.01122953
vn 0.1564518 0.1054765 0.9820375
vn 0.04466972 0.1792267 0.9827932
vn -0.1111616 -0.9932783 -0.03226923
vn -0.1937456 -0.9773246 -0.08543515
vn 0.07015216 -0.2014465 -0.976984
vn 0.01368983 -0.3324365 -0.9430262
vn 0.1312287 0.9904782 0.04161849
vn 0.1970018 0.9768249 0.08368631
vn -0.04389424 0.205981 0.977571
vn -0.06714457 0.3364915 0.9392897
vn -0.4439246 -0.8318167 -0.3331845
vn -0.4391298 -0.8144506 -0.3792563
vn -0.09616746 -0.4645856 -0.8802909
vn -0.2004739 -0.5183284 -0.8313519
vn 0.3481465 0.9182933 0.1884983
vn 0.3048067 0.9376891 0.166829
vn -0.1145984 0.4761919 0.8718421
vn -0.1066283 0.5825161 0.8057948
vn -0.4781665 -0.756116 -0.4468171
vn -0.211911 -0.514828 -0.8306901
vn 0.168909 0.9852309 -0.02810254
vn -0.08944852 0.580416 0.8093926

vt 2.001607 0.2259861
vt 2.001607 0.1853165
vt 1.544622 0.2259861
vt 1.544622 0.1853165
vt 2.001607 0.2367168
vt 2.001607 0.1546676
vt 1.544622 0.2367168
vt 1.544622 0.1546676
vt 2.001607 0.2302299
vt 2.001607 0.1859037
vt 1.544622 0.2302299
vt 1.544622 0.1859036
vt 2.001607 0.1552622
vt 2.001607 0.2373114
vt 1.544622 0.1552622
vt 1.544622 0.2373114
vt 1.297226 0.225986
vt 1.297226 0.1853165
vt 1.297226 0.2367168
vt 1.297226 0.1546676
vt 1.297226 0.2302299
vt 1.297226 0.1859036
vt 1.297226 0.1552622
vt 1.297226 0.2373114
vt 0.9611213 0.225986
vt 0.9611213 0.1853165
vt 0.9611213 0.2367168
vt 0.9611213 0.1546676
vt 0.9611213 0.2302299
vt 0.9611213 0.1859036
vt 0.9611211 0.1552622
vt 0.9611213 0.2373114
vt 0.6709935 0.225986
vt 0.6709935 0.1853165
vt 0.6709935 0.2367168
vt 0.6709935 0.1546676
vt 0.6709935 0.2302299
vt 0.6709935 0.1859036
vt 0.6709934 0.1552622
vt 0.6709935 0.2373114
vt 0.2749782 0.225986
vt 0.2749782 0.1853165
vt 0.2749782 0.2367168
vt 0.2749782 0.1546676
vt 0.2749782 0.2302299
vt 0.2749782 0.1859036
vt 0.2749781 0.1552622
vt 0.2749782 0.2373114
vt 0.1461262 0.225986
vt 0.1461262 0.1853165
vt 0.1461262 0.2367168
vt 0.1461262 0.1546676
vt 0.1461262 0.2302299
vt 0.1461262 0.1859036
vt 0.1461261 0.1552622
vt 0.1461262 0.2373114
vt 0.001607224 0.225986
vt 0.001607195 0.2367168
vt 0.00160718 0.2302299
vt 0.00160715 0.1552622

usemtl sn13_09_sn13r01.jpg
usemap sn13_09_sn13r01.jpg
f 3/3/3 1/1/1 2/2/2
f 2/2/2 4/4/4 3/3/3
f 7/7/7 5/5/5 6/6/6
f 6/6/6 8/8/8 7/7/7
f 11/11/11 9/9/9 10/10/10
f 10/10/10 12/12/12 11/11/11
f 15/15/15 13/13/13 14/14/14
f 14/14/14 16/16/16 15/15/15
f 17/17/17 3/3/3 4/4/4
f 4/4/4 18/18/18 17/17/17
f 19/19/19 7/7/7 8/8/8
f 8/8/8 20/20/20 19/19/19
f 21/21/21 11/11/11 12/12/12
f 12/12/12 22/22/22 21/21/21
f 23/23/23 15/15/15 16/16/16
f 16/16/16 24/24/24 23/23/23
f 25/25/25 17/17/17 18/18/18
f 18/18/18 26/26/26 25/25/25
f 27/27/27 19/19/19 20/20/20
f 20/20/20 28/28/28 27/27/27
f 29/29/29 21/21/21 22/22/22
f 22/22/22 30/30/30 29/29/29
f 31/31/31 23/23/23 24/24/24
f 24/24/24 32/32/32 31/31/31
f 33/33/33 25/25/25 26/26/26
f 26/26/26 34/34/34 33/33/33
f 35/35/35 27/27/27 28/28/28
f 28/28/28 36/36/36 35/35/35
f 37/37/37 29/29/29 30/30/30
f 30/30/30 38/38/38 37/37/37
f 39/39/39 31/31/31 32/32/32
f 32/32/32 40/40/40 39/39/39
f 41/41/41 33/33/33 34/34/34
f 34/34/34 42/42/42 41/41/41
f 43/43/43 35/35/35 36/36/36
f 36/36/36 44/44/44 43/43/43
f 45/45/45 37/37/37 38/38/38
f 38/38/38 46/46/46 45/45/45
f 47/47/47 39/39/39 40/40/40
f 40/40/40 48/48/48 47/47/47
f 49/49/49 41/41/41 42/42/42
f 42/42/42 50/50/50 49/49/49
f 51/51/51 43/43/43 44/44/44
f 44/44/44 52/52/52 51/51/51
f 53/53/53 45/45/45 46/46/46
f 46/46/46 54/54/54 53/53/53
f 55/55/55 47/47/47 48/48/48
f 48/48/48 56/56/56 55/55/55
f 57/57/57 49/49/49 50/50/50
f 58/58/58 51/51/51 52/52/52
f 59/59/59 53/53/53 54/54/54
f 60/60/60 55/55/55 56/56/56
