mtllib ./Object110.mtl
g Object110
v 100.7926 84.42164 331.2045
v 92.23392 84.7686 328.8511
v 63.26205 61.17302 388.9034
v 73.0126 61.17349 389.5756
v 92.23392 84.7686 328.8511
v 92.47647 82.25474 328.1348
v 65.91977 58.44737 385.1553
v 63.26205 61.17302 388.9034
v 92.47647 82.25474 328.1348
v 101.0352 81.90778 330.4882
v 75.6702 58.44783 385.8276
v 65.91977 58.44737 385.1553
v 101.0352 81.90778 330.4882
v 100.7926 84.42164 331.2045
v 73.0126 61.17349 389.5756
v 75.6702 58.44783 385.8276
v 65.91977 58.44737 385.1553
v 75.6702 58.44783 385.8276
v 73.0126 61.17349 389.5756
v 63.26205 61.17302 388.9034
v 92.23392 84.7686 328.8511
v 118.9484 104.8067 278.9953
v 92.47647 82.25474 328.1348
v 118.9484 104.8067 278.9953
v 119.1909 102.2928 278.279
v 100.7926 84.42164 331.2045
v 127.5072 104.4597 281.3487
v 92.23392 84.7686 328.8511
v 118.9484 104.8067 278.9953
v 127.7497 101.9459 280.6324
v 100.7926 84.42164 331.2045

vn -0.04026401 0.9355891 0.3507873
vn -0.05591273 0.9381641 0.341646
vn -0.04026401 0.9355891 0.3507873
vn -0.0288892 0.9078099 0.4183858
vn -0.8831957 -0.09810475 -0.4586293
vn -0.9107658 0.0294829 -0.4118694
vn -0.8831957 -0.09810475 -0.4586293
vn -0.8585268 -0.1737153 -0.4824466
vn 0.04361773 -0.9279267 -0.3702023
vn 0.3005223 -0.9242917 -0.2353112
vn 0.04361773 -0.9279267 -0.3702023
vn 0.02588939 -0.9267169 -0.3748674
vn 0.8845518 0.101749 0.4552091
vn 0.9073637 -0.03188169 0.4191356
vn 0.8845518 0.101749 0.4552091
vn 0.8604461 0.1873954 0.4738308
vn -0.03921427 -0.8211563 0.5693545
vn -0.03921488 -0.8211558 0.5693552
vn -0.03921488 -0.8211558 0.5693552
vn -0.03921366 -0.8211568 0.5693538
vn -0.3163654 0.9266777 0.202932
vn -0.8879319 0.04477103 -0.4577907
vn -0.887932 0.04477099 -0.4577908
vn -0.887932 0.04477094 -0.4577908
vn -0.887932 0.04477094 -0.4577908
vn -0.05712407 0.9365622 0.3458151
vn 0.07491457 0.9107175 0.4061789
vn -0.05712407 0.9365622 0.3458151
vn -0.0571227 0.9365619 0.3458161
vn 0.8879335 -0.04478337 0.4577867
vn 0.8879335 -0.04478337 0.4577867

vt 0.81016 0.0106431
vt 0.81016 0.1120924
vt 0.1652326 0.1120924
vt 0.1652325 0.01064311
vt 0.81016 0.0106431
vt 0.81016 0.1120924
vt 0.1652326 0.1120924
vt 0.1652325 0.01064311
vt 0.81016 0.0106431
vt 0.81016 0.1120924
vt 0.1652326 0.1120924
vt 0.1652325 0.01064311
vt 0.81016 0.0106431
vt 0.81016 0.1120924
vt 0.1652326 0.1120924
vt 0.1652325 0.01064311
vt 0.1652326 0.1120924
vt 0.1652325 0.01064311
vt 0.81016 0.0106431
vt 0.81016 0.0106431
vt 0.1652326 0.1120924
vt 0.1652325 0.01064311
vt 0.81016 0.0106431
vt 0.81016 0.1120924
vt 0.1652326 0.1120924
vt 0.1652326 0.1120924
vt 0.1652325 0.01064311
vt 0.81016 0.0106431
vt 0.81016 0.0106431
vt 0.1652326 0.1120924
vt 0.81016 0.0106431

usemtl sn13_07_sn13h08.JPG
usemap sn13_07_sn13h08.JPG
f 3/3/3 1/1/1 2/2/2
f 1/1/1 3/3/3 4/4/4
f 7/7/7 5/5/5 6/6/6
f 5/5/5 7/7/7 8/8/8
f 11/11/11 9/9/9 10/10/10
f 9/9/9 11/11/11 12/12/12
f 15/15/15 13/13/13 14/14/14
f 13/13/13 15/15/15 16/16/16
f 19/19/19 17/17/17 18/18/18
f 20/20/20 17/17/17 4/4/4
f 23/23/23 21/21/21 22/22/22
f 25/25/25 23/23/23 24/24/24
f 28/28/28 26/26/26 27/27/27
f 29/29/29 21/21/21 27/27/27
f 31/31/31 30/30/30 27/27/27
f 30/30/30 31/31/31 10/10/10
