mtllib ./Object100.mtl
g Object100
v 86.59324 61.1968 -60.20395
v 82.65396 61.1968 -61.77473
v 67.59606 74.35053 -30.66548
v 71.73135 74.06842 -29.58624
v 82.65396 61.1968 -61.77473
v 82.21713 58.98441 -60.67923
v 67.04001 72.30972 -29.27101
v 67.59606 74.35053 -30.66548
v 82.21713 58.98441 -60.67923
v 86.1564 58.98441 -59.10844
v 71.1753 72.02762 -28.19179
v 67.04001 72.30972 -29.27101
v 86.1564 58.98441 -59.10844
v 86.59324 61.1968 -60.20395
v 71.73135 74.06842 -29.58624
v 71.1753 72.02762 -28.19179
v 67.49039 92.06985 0.01803589
v 71.67783 91.1542 0.01776886
v 67.09354 88.69345 0.01703644
v 67.49039 92.06985 0.01803589
v 71.28095 87.77779 0.01676178
v 67.09354 88.69345 0.01703644
v 71.67783 91.1542 0.01776886
v 71.28095 87.77779 0.01676178
v 71.67783 91.1542 0.01776886
v 67.49039 92.06985 0.01803589
v 67.59606 74.35012 30.6657
v 71.73132 74.0685 29.58647
v 67.04001 72.30965 29.27055
v 67.59606 74.35012 30.6657
v 71.1753 72.02803 28.19132
v 67.04001 72.30965 29.27055
v 71.73132 74.0685 29.58647
v 71.1753 72.02803 28.19132
v 82.65382 61.19661 61.8073
v 86.59317 61.19699 60.2367
v 82.21723 58.98423 60.71171
v 82.65382 61.19661 61.8073
v 86.15656 58.98461 59.14111
v 82.21723 58.98423 60.71171
v 86.59317 61.19699 60.2367
v 86.15656 58.98461 59.14111
v 82.21713 58.98441 -60.67923
v 86.59324 61.1968 -60.20395
v 86.1564 58.98441 -59.10844
v 82.65396 61.1968 -61.77473
v 82.21723 58.98423 60.71171
v 86.15656 58.98461 59.14111
v 86.59317 61.19699 60.2367
v 82.65382 61.19661 61.8073

vn 0.1397824 0.9348411 -0.3263941
vn 0.1320392 0.9343 -0.3311331
vn 0.1555085 0.9112048 -0.3814746
vn 0.1737601 0.8835265 -0.4349578
vn -0.905561 -0.03605531 -0.4226811
vn -0.9050832 -0.03128643 -0.424082
vn -0.9438515 0.03704397 -0.3282868
vn -0.9759778 0.09044179 -0.1982107
vn -0.1401338 -0.9343957 0.3275167
vn -0.1317623 -0.9345851 0.3304381
vn -0.1538581 -0.9142068 0.3749047
vn -0.1728693 -0.8882851 0.4255182
vn 0.9051366 0.03665287 0.4235378
vn 0.9043924 0.03211761 0.4254914
vn 0.9439574 -0.03732603 0.3279499
vn 0.9757982 -0.08937506 0.1995746
vn 0.1861265 0.8511168 -0.4908738
vn 0.1860813 0.8511213 -0.4908831
vn -0.9896175 0.1394083 -0.03496278
vn -0.9898108 0.1390268 0.03076189
vn -0.2086868 -0.960839 0.1823136
vn -0.2090615 -0.9623964 -0.1734546
vn 0.9897845 -0.1393203 0.03027041
vn 0.9895949 -0.1396504 -0.0346359
vn 0.1861282 0.8508634 0.4913123
vn 0.1860894 0.850872 0.4913119
vn 0.1736998 0.8834525 0.4351322
vn 0.1549973 0.9118688 0.3800934
vn -0.9758822 0.09008405 0.1988437
vn -0.9444976 0.03841062 0.3262652
vn -0.1727963 -0.8882592 -0.4256019
vn -0.1541193 -0.9136115 -0.3762461
vn 0.9758908 -0.08960508 -0.1990179
vn 0.9433618 -0.03583625 -0.3298246
vn 0.1396044 0.9349437 0.326176
vn 0.1311296 0.9351369 0.329126
vn -0.9057168 -0.03595897 0.4223554
vn -0.9049863 -0.03151698 0.4242716
vn -0.1399582 -0.9344973 -0.327302
vn -0.1322712 -0.9339651 -0.3319842
vn 0.9052958 0.03655607 -0.4232059
vn 0.9048186 0.03170757 -0.424615
vn 0.3268481 -0.4704171 -0.8196816
vn 0.3268481 -0.4704171 -0.8196816
vn 0.3268483 -0.4704176 -0.8196813
vn 0.3268479 -0.4704167 -0.8196819
vn 0.3268501 -0.4704171 0.8196809
vn 0.3268507 -0.4704185 0.8196799
vn 0.3268501 -0.4704171 0.8196809
vn 0.3268495 -0.4704157 0.8196819

vt 1.675216 0.05653276
vt 1.703533 0.1493988
vt 1.02186 0.1486637
vt 1.002417 0.05618982
vt -0.2200478 0.04849644
vt -0.2085197 0.07045905
vt 0.1920059 0.07041584
vt 0.1773318 0.0500472
vt -0.742651 0.2412217
vt -0.7137238 0.1760032
vt -0.02021164 0.1760902
vt -0.04006502 0.2407768
vt 1.41129 0.003666941
vt 1.426469 0.02843787
vt 0.9100477 0.02780794
vt 0.8907264 0.004659418
vt 0.4680789 0.1491217
vt 0.4681189 0.05610047
vt 0.5001742 0.06996836
vt 0.5001839 0.05113538
vt 0.5003243 0.1739509
vt 0.5003919 0.239455
vt 0.4998131 0.02779566
vt 0.4998286 0.003536258
vt 0.4681189 0.05610047
vt 0.4680789 0.1491217
vt -0.08505324 0.1500078
vt -0.06554084 0.05588058
vt 0.8079796 0.07040589
vt 0.8226578 0.05004005
vt 1.020236 0.1753355
vt 1.040213 0.2399914
vt 0.09006739 0.02779613
vt 0.1094027 0.00465161
vt -0.7664673 0.1486844
vt -0.738088 0.05583494
vt 1.208425 0.07043616
vt 1.219952 0.04847328
vt 1.713307 0.1742376
vt 1.742349 0.2394136
vt -0.4264716 0.0284114
vt -0.4112878 0.003641102
vt 0.5132772 0.02778553
vt 0.4867227 0.05434003
vt 0.4867227 0.02778553
vt 0.5132772 0.05434003
vt 0.4817654 0.02765694
vt 0.5182368 0.0276632
vt 0.5182346 0.06413043
vt 0.4817632 0.06412423

usemtl sn13_12_sn13h04.JPG
usemap sn13_12_sn13h04.JPG
f 3/3/3 1/1/1 2/2/2
f 1/1/1 3/3/3 4/4/4
f 7/7/7 5/5/5 6/6/6
f 5/5/5 7/7/7 8/8/8
f 11/11/11 9/9/9 10/10/10
f 9/9/9 11/11/11 12/12/12
f 15/15/15 13/13/13 14/14/14
f 13/13/13 15/15/15 16/16/16
f 17/17/17 4/4/4 3/3/3
f 4/4/4 17/17/17 18/18/18
f 19/19/19 8/8/8 7/7/7
f 8/8/8 19/19/19 20/20/20
f 21/21/21 12/12/12 11/11/11
f 12/12/12 21/21/21 22/22/22
f 23/23/23 16/16/16 15/15/15
f 16/16/16 23/23/23 24/24/24
f 27/27/27 25/25/25 26/26/26
f 25/25/25 27/27/27 28/28/28
f 29/29/29 20/20/20 19/19/19
f 20/20/20 29/29/29 30/30/30
f 31/31/31 22/22/22 21/21/21
f 22/22/22 31/31/31 32/32/32
f 33/33/33 24/24/24 23/23/23
f 24/24/24 33/33/33 34/34/34
f 35/35/35 28/28/28 27/27/27
f 28/28/28 35/35/35 36/36/36
f 37/37/37 30/30/30 29/29/29
f 30/30/30 37/37/37 38/38/38
f 39/39/39 32/32/32 31/31/31
f 32/32/32 39/39/39 40/40/40
f 41/41/41 34/34/34 33/33/33
f 34/34/34 41/41/41 42/42/42
f 45/45/45 43/43/43 44/44/44
f 44/44/44 43/43/43 46/46/46
f 49/49/49 47/47/47 48/48/48
f 50/50/50 47/47/47 49/49/49
