mtllib ./Object177.mtl
g Object177
v -14.41003 1.873703 -8.744019
v -35.35303 -6.678558 -11.37512
v -13.32727 -9.836147 9.324341
v 9.217896 -3.429916 -8.255249
v -14.44141 -2.901764 -30.39465
v 22.26929 -5.824844 18.37
v 23.22827 -13.50179 -1.555786
v 2.641968 -12.66181 14.10486
v 14.75415 -19.76095 37.57361
v 39.06409 -16.74435 21.2301
v -14.71045 -5.132904 -12.70154
v -19.66724 -13.07696 -39.29773
v -40.13098 -18.77032 2.063843
v -4.672119 -9.710175 20.96765
v 15.6886 -3.66951 -20.42053
v -10.68201 22.36729 16.60779
v -17.48059 18.22597 -3.8573
v -34.40637 10.78239 23.75476
v -7.939697 12.93097 37.1283
v 10.01306 18.34799 9.170044
v -8.782104 10.79198 -8.842896
v -15.1521 -0.3882904 -13.59509
v -21.87085 6.983093 -2.177856
v -2.745483 6.282654 7.040405
v 4.078979 -1.292191 -4.316772
v 29.25073 -4.590439 16.32214
v 19.12769 -4.697327 -2.235962
v 6.760864 -7.83506 18.90808
v 28.27771 -16.02774 32.11047
v 7.571899 19.1932 -4.56311
v 9.17395 11.47201 -20.43591
v -13.20056 10.62807 -6.561646
v 6.575439 8.647041 13.82263
v 25.60938 8.232201 -0.8392334
v -13.27307 26.67562 15.06824
v -12.18494 24.47435 1.297485
v -25.73071 25.53834 15.67004
v -14.58484 20.44887 30.65442
v 1.724609 23.85507 17.73718
v 23.85278 -13.04703 9.511353
v 11.86108 -14.33665 -13.42371
v -4.942017 -12.62839 18.40857
v 27.71375 -31.22019 27.86682
v 41.86401 -20.03984 -2.838501
v 5.866821 26.09673 16.51843
v -3.08252 26.18989 -8.943481
v -16.36755 19.62512 22.59216
v 11.57056 12.8752 39.29846
v 25.47742 13.17591 6.31189
v 8.445068 30.86382 8.540649
v -3.724976 31.21972 -3.400513
v -3.527588 22.62666 19.55725
v 16.92688 18.23572 19.53845
v 16.12439 23.37936 -3.603882
v 1.749146 12.86633 2.878052
v -16.16064 6.265312 -22.88269
v -15.63416 -1.029121 17.56213
v 24.83386 -2.898956 19.49133
v 24.56421 4.136024 -21.1156
v -12.84949 -9.736862 -3.02356
v -0.9799805 -21.1666 -24.38049
v -41.8634 -16.43064 -11.3197
v -30.10571 -14.64753 25.07336
v 10.83972 -18.92226 11.96106
v 36.97388 1.873711 13.26917
v 24.99792 -2.901764 -4.7677
v 18.05762 -6.678543 22.63416
v 34.53894 -5.132904 10.13489
v 15.7262 -13.07695 -9.307495
v 21.49072 -18.77032 36.47791

vn -0.08367576 0.9812446 0.1736588
vn -0.390735 0.904868 0.1689377
vn -0.09884187 0.8323537 0.54536
vn 0.2129163 0.9635062 0.1622424
vn -0.05601776 0.9750113 -0.2149765
vn -0.1022826 0.9441245 0.3133166
vn -0.2364262 0.9028122 -0.3592114
vn -0.342621 0.9364276 0.07559119
vn -0.02257305 0.8133126 0.581389
vn 0.3416444 0.6920284 0.6359056
vn -0.2573533 0.9662651 0.01005285
vn -0.3338983 0.9184365 -0.2120997
vn -0.4443031 0.8938236 0.06061634
vn -0.1858356 0.9647081 0.1865566
vn -0.05847127 0.9974396 -0.04117421
vn -0.1165853 0.9811843 0.1539003
vn -0.2070713 0.9699826 -0.1274959
vn -0.3789805 0.9024556 0.2048113
vn -0.01680994 0.9075598 0.4195861
vn 0.2161687 0.9734372 0.07543883
vn 0.2425155 0.8709465 -0.4273623
vn 0.04171075 0.3706188 -0.927848
vn -0.327487 0.9388226 -0.1066041
vn 0.3115296 0.9386275 0.1480798
vn 0.6635502 0.4966506 -0.559499
vn -0.09670524 0.9372595 0.3349516
vn -0.1348167 0.9885451 0.06784593
vn -0.09670524 0.9372595 0.3349516
vn -0.04976021 0.8102868 0.5839172
vn 0.04878747 0.9951207 0.08575837
vn 0.1180351 0.897599 -0.4247161
vn -0.3846275 0.9218825 0.04684461
vn -0.01966412 0.8677205 0.4966633
vn 0.4997369 0.8593214 0.1087648
vn 0.05011211 0.9889251 0.1397
vn 0.07187401 0.9857793 -0.1518987
vn -0.08399456 0.9881294 0.1286278
vn 0.0287809 0.9274136 0.3729284
vn 0.1575331 0.9765438 0.1467838
vn 0.1597656 0.9685519 0.190741
vn 0.1060693 0.9881415 -0.1110214
vn 0.1176538 0.9341908 0.3368163
vn 0.2155094 0.7162152 0.6637707
vn 0.2451324 0.9523074 -0.1817162
vn 0.2233165 0.9548946 0.1957188
vn 0.135439 0.989809 -0.04398242
vn -0.1854717 0.9313384 0.3133832
vn 0.2964766 0.8563558 0.422796
vn 0.5687523 0.8207493 0.05377167
vn 0.2810945 0.9213693 0.2684488
vn -0.001441914 0.9995102 0.03125907
vn -0.07649306 0.8366216 0.5424142
vn 0.5057447 0.7341882 0.452979
vn 0.6076658 0.7877172 -0.1012123
vn 0.04056443 0.9839869 0.1735639
vn -0.2182147 0.9710565 -0.09711593
vn -0.2856075 0.8416415 0.4583319
vn 0.289427 0.8621082 0.4159346
vn 0.288699 0.9546452 -0.07283819
vn 0.08315221 0.9931617 -0.0819477
vn 0.2063086 0.9057938 -0.3701003
vn -0.158977 0.962347 -0.2204871
vn -0.02323819 0.987125 0.1582535
vn 0.3239442 0.9437445 0.06638038
vn -0.4017835 0.9154094 0.02440703
vn -0.4017835 0.9154094 0.02440703
vn -0.4017835 0.9154094 0.02440703
vn -0.527173 0.8325987 0.1699055
vn -0.527173 0.8325987 0.1699055
vn -0.527173 0.8325987 0.1699055

vt 0.5 0.5
vt 0.0004995465 0.0004997253
vt 0.9995002 0.0004994869
vt 0.9995004 0.9995003
vt 0.0004997849 0.9995005
vt 0.5 0.5
vt 0.0004995763 0.0004997253
vt 0.9995002 0.0004994869
vt 0.9995004 0.9995003
vt 0.0004997849 0.9995005
vt 0.5 0.5
vt 0.0004995465 0.0004997849
vt 0.9995002 0.0004995465
vt 0.9995004 0.9995002
vt 0.0004997849 0.9995005
vt 0.5 0.5
vt 0.0004995167 0.0004997551
vt 0.9995003 0.0004995167
vt 0.9995005 0.9995003
vt 0.0004997551 0.9995005
vt 0.5 0.5
vt 0.0004994869 0.0004997551
vt 0.9995003 0.0004995167
vt 0.9995005 0.9995003
vt 0.0004997253 0.9995005
vt 0.5 0.5
vt 0.0004995465 0.0004997253
vt 0.9995002 0.0004994869
vt 0.9995004 0.9995003
vt 0.5 0.5
vt 0.0004995763 0.0004997551
vt 0.9995002 0.0004994869
vt 0.9995004 0.9995003
vt 0.0004998147 0.9995005
vt 0.5 0.5
vt 0.0004995167 0.0004997551
vt 0.9995003 0.0004995167
vt 0.9995005 0.9995003
vt 0.0004997551 0.9995005
vt 0.5 0.5
vt 0.0004995167 0.0004997253
vt 0.9995003 0.0004994869
vt 0.9995005 0.9995003
vt 0.0004997551 0.9995005
vt 0.5 0.5
vt 0.0004994869 0.0004997253
vt 0.9995003 0.0004994869
vt 0.9995005 0.9995003
vt 0.0004997253 0.9995005
vt 0.5 0.5
vt 0.0004995465 0.0004997551
vt 0.9995002 0.0004995167
vt 0.9995004 0.9995003
vt 0.0004997849 0.9995005
vt 0.5 0.5
vt 0.0004994869 0.0004997551
vt 0.9995003 0.0004995167
vt 0.9995005 0.9995003
vt 0.0004997253 0.9995005
vt 0.5 0.5
vt 0.0004995465 0.0004997849
vt 0.9995002 0.0004995465
vt 0.9995004 0.9995002
vt 0.0004997849 0.9995005
vt 0.5 0.5
vt 0.0004997849 0.9995005
vt 0.0004995465 0.0004997253
vt 0.5 0.5
vt 0.0004995465 0.0004997849
vt 0.9995002 0.0004995465

usemtl sn13_44_Aree02.bmp
usemap sn13_44_Aree02.bmp
f 3/3/3 1/1/1 2/2/2
f 4/4/4 1/1/1 3/3/3
f 5/5/5 1/1/1 4/4/4
f 2/2/2 1/1/1 5/5/5
f 8/8/8 6/6/6 7/7/7
f 9/9/9 6/6/6 8/8/8
f 10/10/10 6/6/6 9/9/9
f 13/13/13 11/11/11 12/12/12
f 14/14/14 11/11/11 13/13/13
f 15/15/15 11/11/11 14/14/14
f 12/12/12 11/11/11 15/15/15
f 18/18/18 16/16/16 17/17/17
f 19/19/19 16/16/16 18/18/18
f 20/20/20 16/16/16 19/19/19
f 17/17/17 16/16/16 20/20/20
f 23/23/23 21/21/21 22/22/22
f 24/24/24 21/21/21 23/23/23
f 25/25/25 21/21/21 24/24/24
f 22/22/22 21/21/21 25/25/25
f 28/28/28 26/26/26 27/27/27
f 29/29/29 26/26/26 28/28/28
f 32/32/32 30/30/30 31/31/31
f 33/33/33 30/30/30 32/32/32
f 34/34/34 30/30/30 33/33/33
f 31/31/31 30/30/30 34/34/34
f 37/37/37 35/35/35 36/36/36
f 38/38/38 35/35/35 37/37/37
f 39/39/39 35/35/35 38/38/38
f 36/36/36 35/35/35 39/39/39
f 42/42/42 40/40/40 41/41/41
f 43/43/43 40/40/40 42/42/42
f 41/41/41 40/40/40 44/44/44
f 47/47/47 45/45/45 46/46/46
f 48/48/48 45/45/45 47/47/47
f 49/49/49 45/45/45 48/48/48
f 46/46/46 45/45/45 49/49/49
f 52/52/52 50/50/50 51/51/51
f 53/53/53 50/50/50 52/52/52
f 54/54/54 50/50/50 53/53/53
f 51/51/51 50/50/50 54/54/54
f 57/57/57 55/55/55 56/56/56
f 58/58/58 55/55/55 57/57/57
f 59/59/59 55/55/55 58/58/58
f 56/56/56 55/55/55 59/59/59
f 62/62/62 60/60/60 61/61/61
f 63/63/63 60/60/60 62/62/62
f 64/64/64 60/60/60 63/63/63
f 61/61/61 60/60/60 64/64/64
f 67/67/67 65/65/65 66/66/66
f 70/70/70 68/68/68 69/69/69
