mtllib ./Object78.mtl
g Object78
v -4.613843 51.63976 -112.8351
v -4.548223 45.53768 -109.2796
v -0.7566555 45.37041 106.9992
v -0.6816714 51.65117 111.0609
v 0.9302486 45.53768 -109.3806
v 0.8645512 51.63976 -112.9362
v 4.79679 51.65117 110.9599
v 4.721827 45.37041 106.8982
v 0.8645512 51.63976 -112.9362
v -4.613843 51.63976 -112.8351
v -0.6816714 51.65117 111.0609
v 4.79679 51.65117 110.9599
v 0.9302486 45.53768 -109.3806
v -4.613843 51.63976 -112.8351
v 0.8645512 51.63976 -112.9362
v -4.548223 45.53768 -109.2796
v -4.613843 51.63976 -112.8351
v 0.9302486 45.53768 -109.3806
v 4.721827 45.37041 106.8982
v 4.79679 51.65117 110.9599
v -0.6816714 51.65117 111.0609
v -0.7566555 45.37041 106.9992

vn -0.708268 3.890214E-05 0.7059437
vn -0.7082795 -0.0005391484 0.7059319
vn -0.708268 3.890214E-05 0.7059437
vn -0.7082569 0.0005811751 0.7059545
vn 0.7082677 -3.105131E-05 -0.7059437
vn 0.7082567 0.0005327428 -0.7059548
vn 0.7082677 -3.105131E-05 -0.7059437
vn 0.7082788 -0.0005978323 -0.7059325
vn -3.599007E-05 1 -3.604316E-05
vn -3.599043E-05 1 -3.604282E-05
vn -3.599007E-05 1 -3.604316E-05
vn -3.59897E-05 1 -3.604351E-05
vn -0.6104859 -0.503516 -0.6113744
vn -0.6104859 -0.503516 -0.6113744
vn -0.6104859 -0.503516 -0.6113744
vn -0.6104794 -0.5035061 -0.6113888
vn -0.6104794 -0.5035061 -0.6113888
vn -0.6104794 -0.5035061 -0.6113888
vn 0.5932932 -0.5430983 0.5941778
vn 0.5932916 -0.5430995 0.5941786
vn 0.5932932 -0.5430983 0.5941778
vn 0.5932949 -0.5430973 0.5941771

vt 0.4982433 0.003605336
vt 0.4982434 0.0252023
vt 0.002528012 0.0252023
vt 0.002527945 0.003605336
vt 0.4982433 0.003605336
vt 0.4982434 0.0252023
vt 0.002528012 0.0252023
vt 0.002527945 0.003605336
vt 0.4982433 0.003605336
vt 0.4982434 0.0252023
vt 0.002528012 0.0252023
vt 0.002527945 0.003605336
vt 0.4982433 0.003605336
vt 0.002528012 0.0252023
vt 0.002527945 0.003605336
vt 0.002527945 0.003605336
vt 0.4982433 0.003605336
vt 0.002528012 0.0252023
vt 2.006193 0.2230844
vt 2.006193 0.2230844
vt 2.006193 0.2230844
vt 2.006193 0.2230844

usemtl sn13_18_sn13h01.jpg
usemap sn13_18_sn13h01.jpg
f 3/3/3 1/1/1 2/2/2
f 1/1/1 3/3/3 4/4/4
f 7/7/7 5/5/5 6/6/6
f 5/5/5 7/7/7 8/8/8
f 11/11/11 9/9/9 10/10/10
f 9/9/9 11/11/11 12/12/12
f 15/15/15 13/13/13 14/14/14
f 18/18/18 16/16/16 17/17/17

usemtl sn13_14_sn13h02.JPG
usemap sn13_14_sn13h02.JPG
f 21/21/21 19/19/19 20/20/20
f 21/21/21 22/22/22 19/19/19
