mtllib ./Object56.mtl
g Object56
v 79.09814 117.146 77.59534
v 15.46002 112.6298 12.83664
v 10.61963 112.5762 16.08447
v 75.01208 117.146 81.61075
v -5.725769 111.9662 -8.722198
v -117.9525 120.5046 -122.925
v -122.0386 120.5046 -118.9096
v -9.81189 111.9662 -4.706787
v 73.83313 106.3471 72.23761
v -5.725769 101.6976 -8.722198
v -5.725769 111.9662 -8.722198
v 15.46002 112.6298 12.83664
v 79.09814 117.146 77.59534
v -5.725769 101.6976 -8.722198
v -113.5717 106.3471 -118.4671
v -117.9525 120.5046 -122.925
v -5.725769 111.9662 -8.722198
v -113.5717 106.3471 -118.4671
v -117.6578 106.3471 -114.4516
v -122.0386 120.5046 -118.9096
v -117.9525 120.5046 -122.925
v -117.6578 106.3471 -114.4516
v -9.81189 101.6976 -4.706787
v -9.81189 111.9662 -4.706787
v -122.0386 120.5046 -118.9096
v -9.81189 101.6976 -4.706787
v 69.74701 106.3471 76.25302
v 75.01208 117.146 81.61075
v 10.61963 112.5762 16.08447
v 15.46002 112.6298 12.83664
v -5.725769 111.9662 -8.722198
v -9.81189 111.9662 -4.706787
v 10.61963 112.5762 16.08447
v -9.81189 111.9662 -4.706787
v 216.1982 111.9662 217.1091
v 128.3087 117.146 127.672
v 212.1122 111.9662 221.1245
v 124.2227 117.146 131.6874
v 325.3594 120.5046 328.1923
v 216.1982 111.9662 217.1091
v 321.2733 120.5046 332.2077
v 212.1122 111.9662 221.1245
v 216.1982 101.6976 217.1091
v 133.5737 106.3471 133.0298
v 216.1982 111.9662 217.1091
v 128.3087 117.146 127.672
v 320.9786 106.3471 323.7344
v 216.1982 101.6976 217.1091
v 325.3594 120.5046 328.1923
v 216.1982 111.9662 217.1091
v 316.8925 106.3471 327.7498
v 320.9786 106.3471 323.7344
v 321.2733 120.5046 332.2077
v 325.3594 120.5046 328.1923
v 212.1122 101.6976 221.1245
v 316.8925 106.3471 327.7498
v 212.1122 111.9662 221.1245
v 321.2733 120.5046 332.2077
v 129.4877 106.3471 137.0452
v 212.1122 101.6976 221.1245
v 124.2227 117.146 131.6874
v 212.1122 111.9662 221.1245

vn -0.03482126 0.9987652 -0.03543436
vn -0.03482105 0.9987652 -0.03543459
vn -0.03482126 0.9987652 -0.03543436
vn -0.03482148 0.9987652 -0.03543414
vn 0.03732403 0.9985811 0.03798117
vn 0.03732412 0.9985812 0.03798113
vn 0.03732403 0.9985811 0.03798117
vn 0.03732395 0.9985811 0.03798122
vn 0.7132508 0 -0.7009089
vn 0.7132508 0 -0.7009089
vn 0.7132508 -1.730597E-07 -0.700909
vn 0.7132508 0 -0.7009089
vn 0.7132509 2.579269E-07 -0.7009089
vn 0.7132505 1.287164E-06 -0.7009091
vn 0.7132506 2.271809E-06 -0.7009091
vn 0.7132505 1.287164E-06 -0.7009091
vn 0.7132505 0 -0.7009094
vn -0.6412067 -0.4038644 -0.6524932
vn -0.6412069 -0.4038644 -0.6524932
vn -0.6412067 -0.4038644 -0.6524932
vn -0.6412067 -0.4038644 -0.6524933
vn -0.7132505 2.059462E-06 0.7009091
vn -0.7132505 0 0.7009093
vn -0.7132505 2.059462E-06 0.7009091
vn -0.7132506 3.529501E-06 0.7009092
vn -0.7132508 2.279386E-06 0.7009089
vn -0.7132511 3.690277E-06 0.7009088
vn -0.7132509 2.611068E-06 0.7009089
vn -0.7132506 8.378651E-07 0.7009091
vn -0.01692557 0.9997665 -0.01343353
vn -0.0153836 0.9997591 -0.0156545
vn -0.01692557 0.9997665 -0.01343353
vn -0.01852435 0.9997664 -0.01113043
vn -0.7132504 0 0.7009093
vn 0.02892884 0.9991479 0.02943782
vn 0.02892884 0.9991479 0.02943782
vn 0.02892884 0.9991479 0.02943782
vn 0.02892884 0.9991479 0.02943782
vn -0.03836939 0.9985006 -0.03904447
vn -0.03836939 0.9985006 -0.03904447
vn -0.03836939 0.9985006 -0.03904447
vn -0.03836939 0.9985006 -0.03904447
vn 0.7132504 0 -0.7009093
vn 0.7132504 -3.262383E-07 -0.7009093
vn 0.7132504 -3.262383E-07 -0.7009093
vn 0.7132504 -6.264984E-07 -0.7009093
vn 0.7132506 5.994198E-07 -0.700909
vn 0.7132507 3.393937E-07 -0.700909
vn 0.7132507 3.393937E-07 -0.700909
vn 0.7132507 0 -0.700909
vn 0.6411988 -0.4038666 0.6524997
vn 0.6412043 -0.4038643 0.6524956
vn 0.6412043 -0.4038643 0.6524956
vn 0.64121 -0.4038621 0.6524916
vn -0.7132511 0 0.7009086
vn -0.7132509 3.335993E-06 0.7009087
vn -0.7132509 3.335993E-06 0.7009087
vn -0.7132509 5.716111E-06 0.7009088
vn -0.7132503 6.901798E-07 0.7009094
vn -0.7132504 3.383211E-07 0.7009094
vn -0.7132504 3.383211E-07 0.7009094
vn -0.7132505 0 0.7009093

vt -2.182315 0.595263
vt -0.5275663 0.595266
vt -0.5079527 0.4997823
vt -2.182315 0.4997792
vt 0.651486 0.595268
vt 3.18232 0.5952726
vt 3.18232 0.4997889
vt 0.6514863 0.4997844
vt -2.182315 0.5952726
vt 0.02331628 0.5952726
vt 0.02331628 0.4997791
vt -0.5275663 0.4997791
vt -2.182315 0.4997791
vt 0.651486 0.5952726
vt 3.18232 0.5952726
vt 3.18232 0.4997791
vt 0.651486 0.4997791
vt -2.182314 0.5952726
vt 3.182266 0.5952726
vt 3.182266 0.4997791
vt -2.182314 0.4997791
vt -2.182315 0.5952726
vt 0.3485196 0.5952726
vt 0.3485196 0.4997791
vt -2.182315 0.4997791
vt 0.9766893 0.5952726
vt 3.18232 0.5952726
vt 3.18232 0.4997791
vt 1.507958 0.4997791
vt -0.5275663 0.595266
vt 0.02331628 0.5952669
vt 0.02331644 0.4997832
vt -0.5079527 0.4997823
vt 0.9766893 0.4997791
vt 0.01737054 0.5964779
vt -2.18826 0.5964761
vt 0.0173707 0.4988453
vt -2.18826 0.4988436
vt 3.176375 0.5964804
vt 0.6455402 0.5964783
vt 3.176375 0.4988478
vt 0.6455406 0.4988458
vt 0.01737054 0.5964804
vt -2.18826 0.5964804
vt 0.01737054 0.4988436
vt -2.18826 0.4988436
vt 3.176375 0.5964804
vt 0.6455402 0.5964804
vt 3.176375 0.4988436
vt 0.6455402 0.4988436
vt 3.17632 0.5964804
vt -2.18826 0.5964804
vt 3.17632 0.4988436
vt -2.18826 0.4988436
vt 0.3425738 0.5964804
vt -2.18826 0.5964804
vt 0.3425738 0.4988436
vt -2.18826 0.4988436
vt 3.176375 0.5964804
vt 0.9707435 0.5964804
vt 3.176375 0.4988436
vt 0.9707435 0.4988436

usemtl sn13_11_sn13h10.jpg
usemap sn13_11_sn13h10.jpg
f 3/3/3 1/1/1 2/2/2
f 1/1/1 3/3/3 4/4/4
f 7/7/7 5/5/5 6/6/6
f 5/5/5 7/7/7 8/8/8
f 11/11/11 9/9/9 10/10/10
f 9/9/9 12/12/12 13/13/13
f 16/16/16 14/14/14 15/15/15
f 14/14/14 16/16/16 17/17/17
f 20/20/20 18/18/18 19/19/19
f 18/18/18 20/20/20 21/21/21
f 24/24/24 22/22/22 23/23/23
f 22/22/22 24/24/24 25/25/25
f 28/28/28 26/26/26 27/27/27
f 26/26/26 28/28/28 29/29/29
f 32/32/32 30/30/30 31/31/31
f 9/9/9 11/11/11 12/12/12
f 30/30/30 32/32/32 33/33/33
f 26/26/26 29/29/29 34/34/34
f 37/37/37 35/35/35 36/36/36
f 36/36/36 38/38/38 37/37/37
f 41/41/41 39/39/39 40/40/40
f 40/40/40 42/42/42 41/41/41
f 45/45/45 43/43/43 44/44/44
f 44/44/44 46/46/46 45/45/45
f 49/49/49 47/47/47 48/48/48
f 48/48/48 50/50/50 49/49/49
f 53/53/53 51/51/51 52/52/52
f 52/52/52 54/54/54 53/53/53
f 57/57/57 55/55/55 56/56/56
f 56/56/56 58/58/58 57/57/57
f 61/61/61 59/59/59 60/60/60
f 60/60/60 62/62/62 61/61/61
