mtllib ./Object180.mtl
g Object180
v -18.41052 1.873711 -3.154663
v -37.32678 -6.678543 6.210449
v -7.535034 -9.836143 11.3147
v 1.562256 -3.429909 -15.78821
v -30.38647 -2.901764 -21.19141
v 27.14099 -5.824837 -0.7893066
v 16.94299 -13.50179 -17.93457
v 8.420044 -12.66181 6.487061
v 31.47339 -19.76094 19.37219
v 42.72461 -16.74434 -7.674072
v -20.84546 -5.132904 -6.28894
v -39.6582 -13.07695 -25.73132
v -33.89368 -18.77032 20.0542
v 6.108643 -9.710167 16.2467
v 0.2434082 -3.66951 -29.50415
v -1.309204 22.36729 15.92822
v -18.27393 18.22598 2.61499
v -17.14795 10.78241 34.9823
v 12.30359 12.93098 31.52637
v 11.8429 18.348 -1.696411
v -13.77209 10.79199 -6.343384
v -21.70679 -0.3882828 -6.790283
v -21.00793 6.983101 6.438599
v 0.02832031 6.282661 3.569702
v -0.5493164 -1.292191 -9.667725
v 31.8324 -4.590424 -6.350464
v 13.14807 -4.697319 -16.23853
v 14.50574 -7.835052 8.218994
v 39.73523 -16.02773 7.352295
v 37.26843 -12.37979 -16.44617
v 2.227417 19.19321 -11.8009
v -5.197388 11.47202 -25.92114
v -16.19739 10.62808 -2.002319
v 11.54431 8.647049 4.080688
v 19.3241 8.232208 -18.65112
v -4.31958 26.67563 16.07458
v -11.01282 24.47436 3.990601
v -14.37573 25.53835 23.45203
v 3.189087 20.44888 29.79553
v 9.65979 23.85509 10.02222
v 23.57214 -13.04702 -9.050415
v 0.9136963 -14.33665 -21.55701
v 4.471191 -12.62838 14.26184
v 36.92273 -31.22019 4.125
v 31.77502 -20.03983 -29.29004
v 12.44128 26.09673 6.719849
v -9.074829 26.1899 -9.57312
v -2.747314 19.62514 24.05652
v 29.77063 12.87521 22.5675
v 23.16089 13.17592 -12.61511
v 10.18811 30.86384 -1.355835
v -6.551147 31.21973 -4.596436
v 6.284668 22.62668 14.43896
v 23.33105 18.23573 3.133667
v 9.888672 23.37937 -15.72156
v 1.479004 12.86633 -2.38208
v -27.67395 6.26532 -13.97839
v -4.911987 -1.029114 19.45728
v 29.89832 -2.898949 -1.269897
v 7.261108 4.136032 -34.98254
v -13.9519 -9.736858 0.7541504
v -15.8418 -21.1666 -23.60632
v -42.72522 -16.43063 9.849976
v -12.83398 -14.64752 33.70813
v 14.07263 -18.92225 0.1745605

vn 0.02607269 0.9812446 0.1909956
vn -0.2325858 0.9048676 0.3565366
vn 0.2185808 0.8323539 0.5093225
vn 0.2670953 0.9635061 0.0177753
vn -0.165366 0.9750112 -0.1483486
vn 0.1592513 0.9818807 0.1027096
vn -0.0487345 0.9220927 -0.3838881
vn -0.2439873 0.9364274 0.2521387
vn 0.3020676 0.8133122 0.497271
vn 0.5499287 0.8318715 -0.07462091
vn -0.2090549 0.966265 0.1504258
vn -0.3954998 0.918436 0.007423889
vn -0.337042 0.8938231 0.2957748
vn -0.05199768 0.964708 0.2581365
vn -0.0714841 0.9974396 -0.002062069
vn -0.01227559 0.9811843 0.1926828
vn -0.2430433 0.9699827 0.007973573
vn -0.2029838 0.9024556 0.3799625
vn 0.2175683 0.9075596 0.359165
vn 0.2218977 0.9734371 -0.05640456
vn -0.03364703 0.8709466 -0.4902242
vn -0.4773354 0.3706145 -0.7967408
vn -0.3319266 0.9388223 0.09185621
vn 0.3415114 0.9386272 -0.04846308
vn 0.2445157 0.4966549 -0.8327941
vn 0.3065606 0.9456267 0.1086764
vn 0.06106277 0.990138 -0.1260872
vn 0.1042316 0.9372599 0.3326854
vn 0.5277267 0.7766775 0.3439137
vn 0.576566 0.7670695 -0.2813822
vn 0.08801655 0.9951208 0.04458542
vn -0.1359896 0.897598 -0.4193146
vn -0.2948805 0.921882 0.2513545
vn 0.2577289 0.8677208 0.4250133
vn 0.4767527 0.8593227 -0.1851249
vn 0.1188934 0.988925 0.08883525
vn -0.02390257 0.9857796 -0.1663344
vn 0.0009506007 0.9881293 0.1536217
vn 0.2298342 0.9274123 0.2950976
vn 0.212381 0.9765436 0.03545232
vn 0.376485 0.9230528 0.07894775
vn 0.02717268 0.9881415 -0.151122
vn 0.2840111 0.9341909 0.2159288
vn 0.6565114 0.69495 0.2933212
vn 0.4825224 0.8695816 -0.1048807
vn 0.2942455 0.9548945 0.03995044
vn 0.08866593 0.989809 -0.11143
vn 0.01830521 0.931338 0.3636958
vn 0.4805862 0.8563544 0.1889283
vn 0.5039532 0.8207492 -0.2690758
vn 0.3825669 0.9213695 0.06870841
vn 0.01605047 0.9995102 0.02686196
vn 0.2355897 0.8366227 0.4945302
vn 0.6717498 0.7341879 0.09859268
vn 0.4508621 0.787716 -0.4197937
vn 0.1296235 0.9839867 0.1223434
vn -0.2355684 0.9710565 0.03945734
vn 0.01480835 0.8416414 0.5398338
vn 0.4709216 0.8621066 0.1870961
vn 0.20054 0.9546451 -0.2200826
vn 0.02410936 0.9931617 -0.1142297
vn -0.03223498 0.9057939 -0.4224906
vn -0.2542631 0.9623472 -0.09611609
vn 0.06796835 0.987125 0.1447915
vn 0.3067711 0.9437442 -0.1234427

vt 0.5 0.5
vt 0.0004995465 0.0004997253
vt 0.9995002 0.0004994869
vt 0.9995004 0.9995003
vt 0.0004997849 0.9995005
vt 0.5 0.5
vt 0.0004995763 0.0004997253
vt 0.9995002 0.0004994869
vt 0.9995004 0.9995003
vt 0.0004997849 0.9995005
vt 0.5 0.5
vt 0.0004995465 0.0004997849
vt 0.9995002 0.0004995465
vt 0.9995004 0.9995002
vt 0.0004997849 0.9995005
vt 0.5 0.5
vt 0.0004995167 0.0004997551
vt 0.9995003 0.0004995167
vt 0.9995005 0.9995003
vt 0.0004997551 0.9995005
vt 0.5 0.5
vt 0.0004994869 0.0004997551
vt 0.9995003 0.0004995167
vt 0.9995005 0.9995003
vt 0.0004997253 0.9995005
vt 0.5 0.5
vt 0.0004995465 0.0004997253
vt 0.9995002 0.0004994869
vt 0.9995004 0.9995003
vt 0.0004997849 0.9995005
vt 0.5 0.5
vt 0.0004995763 0.0004997551
vt 0.9995002 0.0004994869
vt 0.9995004 0.9995003
vt 0.0004998147 0.9995005
vt 0.5 0.5
vt 0.0004995167 0.0004997551
vt 0.9995003 0.0004995167
vt 0.9995005 0.9995003
vt 0.0004997551 0.9995005
vt 0.5 0.5
vt 0.0004995167 0.0004997253
vt 0.9995003 0.0004994869
vt 0.9995005 0.9995003
vt 0.0004997551 0.9995005
vt 0.5 0.5
vt 0.0004994869 0.0004997253
vt 0.9995003 0.0004994869
vt 0.9995005 0.9995003
vt 0.0004997253 0.9995005
vt 0.5 0.5
vt 0.0004995465 0.0004997551
vt 0.9995002 0.0004995167
vt 0.9995004 0.9995003
vt 0.0004997849 0.9995005
vt 0.5 0.5
vt 0.0004994869 0.0004997551
vt 0.9995003 0.0004995167
vt 0.9995005 0.9995003
vt 0.0004997253 0.9995005
vt 0.5 0.5
vt 0.0004995465 0.0004997849
vt 0.9995002 0.0004995465
vt 0.9995004 0.9995002
vt 0.0004997849 0.9995005

usemtl sn13_44_Aree02.bmp
usemap sn13_44_Aree02.bmp
f 3/3/3 1/1/1 2/2/2
f 4/4/4 1/1/1 3/3/3
f 5/5/5 1/1/1 4/4/4
f 2/2/2 1/1/1 5/5/5
f 8/8/8 6/6/6 7/7/7
f 9/9/9 6/6/6 8/8/8
f 10/10/10 6/6/6 9/9/9
f 7/7/7 6/6/6 10/10/10
f 13/13/13 11/11/11 12/12/12
f 14/14/14 11/11/11 13/13/13
f 15/15/15 11/11/11 14/14/14
f 12/12/12 11/11/11 15/15/15
f 18/18/18 16/16/16 17/17/17
f 19/19/19 16/16/16 18/18/18
f 20/20/20 16/16/16 19/19/19
f 17/17/17 16/16/16 20/20/20
f 23/23/23 21/21/21 22/22/22
f 24/24/24 21/21/21 23/23/23
f 25/25/25 21/21/21 24/24/24
f 22/22/22 21/21/21 25/25/25
f 28/28/28 26/26/26 27/27/27
f 29/29/29 26/26/26 28/28/28
f 30/30/30 26/26/26 29/29/29
f 27/27/27 26/26/26 30/30/30
f 33/33/33 31/31/31 32/32/32
f 34/34/34 31/31/31 33/33/33
f 35/35/35 31/31/31 34/34/34
f 32/32/32 31/31/31 35/35/35
f 38/38/38 36/36/36 37/37/37
f 39/39/39 36/36/36 38/38/38
f 40/40/40 36/36/36 39/39/39
f 37/37/37 36/36/36 40/40/40
f 43/43/43 41/41/41 42/42/42
f 44/44/44 41/41/41 43/43/43
f 45/45/45 41/41/41 44/44/44
f 42/42/42 41/41/41 45/45/45
f 48/48/48 46/46/46 47/47/47
f 49/49/49 46/46/46 48/48/48
f 50/50/50 46/46/46 49/49/49
f 47/47/47 46/46/46 50/50/50
f 53/53/53 51/51/51 52/52/52
f 54/54/54 51/51/51 53/53/53
f 55/55/55 51/51/51 54/54/54
f 52/52/52 51/51/51 55/55/55
f 58/58/58 56/56/56 57/57/57
f 59/59/59 56/56/56 58/58/58
f 60/60/60 56/56/56 59/59/59
f 57/57/57 56/56/56 60/60/60
f 63/63/63 61/61/61 62/62/62
f 64/64/64 61/61/61 63/63/63
f 65/65/65 61/61/61 64/64/64
f 62/62/62 61/61/61 65/65/65
