mtllib ./Object128.mtl
g Object128
v 0.8321019 -0.9263992 -145.9977
v 0.8321016 0.9868774 -145.9988
v 0.9202987 -0.9864578 145.998
v 0.9202853 0.9454498 145.9536
v -0.9192615 0.9868774 -145.9982
v -0.9192612 -0.9263992 -145.9971
v -0.8310778 0.9454498 145.9541
v -0.8310643 -0.9864578 145.9985
v 0.8321016 0.9868774 -145.9988
v -0.9192615 0.9868774 -145.9982
v 0.9202853 0.9454498 145.9536
v -0.8310778 0.9454498 145.9541
v 0.8321016 0.9868774 -145.9988
v -0.9192612 -0.9263992 -145.9971
v -0.9192615 0.9868774 -145.9982
v 0.8321019 -0.9263992 -145.9977
v -0.8310778 0.9454498 145.9541
v -0.8310643 -0.9864578 145.9985
v 0.9202853 0.9454498 145.9536
v 0.9202987 -0.9864578 145.998

vn -0.0003019885 1.347837E-08 -0.9999999
vn -0.0003019885 4.094806E-09 -0.9999999
vn -0.0003019885 4.094806E-09 -0.9999999
vn -0.0003019886 -5.199671E-09 -0.9999999
vn 0.0003019886 -1.34783E-08 0.9999998
vn 0.0003019887 -2.079334E-08 0.9999999
vn 0.0003019887 -2.079334E-08 0.9999999
vn 0.0003019888 -2.803679E-08 0.9999999
vn 0.0001418985 1 -4.202593E-08
vn 0.0001418985 1 -4.263711E-08
vn 0.0001418985 1 -4.263711E-08
vn 0.0001418985 1 -4.326284E-08
vn -0.9999997 -0.0005742153 0.0002961755
vn -0.9999997 -0.0005742153 0.0002961755
vn -0.9999997 -0.0005742153 0.0002961755
vn -0.9999998 -0.0005742153 0.0002961755
vn 0.9997357 0.02298588 -0.0003048182
vn 0.9997356 0.02298983 -0.000300467
vn 0.9997356 0.02298983 -0.000300467
vn 0.9997355 0.02299377 -0.0002961159

vt -0.9835309 0.1430788
vt -0.9835311 0.02934748
vt 4.458706 0.1430788
vt 4.458706 0.02934754
vt -0.9835309 0.1430788
vt -0.9835311 0.02934748
vt 4.458706 0.1430788
vt 4.458706 0.02934754
vt 4.458706 0.02934754
vt 4.458706 0.1430788
vt -0.9835311 0.02934748
vt -0.9835309 0.1430788
vt 4.465882 0.2230844
vt 4.465882 0.2230844
vt 4.465882 0.2230844
vt 4.465882 0.2230844
vt 4.465882 0.2230844
vt 4.465882 0.2230844
vt 4.465882 0.2230844
vt 4.465882 0.2230844

usemtl sn13_12_sn13h04.JPG
usemap sn13_12_sn13h04.JPG
f 3/3/3 1/1/1 2/2/2
f 2/2/2 4/4/4 3/3/3
f 7/7/7 5/5/5 6/6/6
f 6/6/6 8/8/8 7/7/7
f 11/11/11 9/9/9 10/10/10
f 10/10/10 12/12/12 11/11/11

usemtl sn13_09_sn13r01.jpg
usemap sn13_09_sn13r01.jpg
f 15/15/15 13/13/13 14/14/14
f 14/14/14 13/13/13 16/16/16
f 19/19/19 17/17/17 18/18/18
f 19/19/19 18/18/18 20/20/20
