mtllib ./Plane07.mtl
g Plane07
v -101.4982 -3.051758E-05 101.498
v -101.4982 -177.9904 101.498
v 0.0003509521 -1.525879E-05 -0.0004882813
v 0.0003356934 -177.9904 -0.0004882813
v 101.4989 0 -101.499
v 101.4989 -177.9904 -101.499
v -101.4982 177.9904 101.4981
v 0.0003662109 177.9904 -0.0004882813
v 101.4989 177.9904 -101.499

vn 0.7071068 -1.414443E-07 0.7071068
vn 0.7071066 -9.092843E-08 0.7071069
vn 0.7071066 -7.072212E-08 0.7071068
vn 0.7071066 -6.061896E-08 0.7071069
vn 0.7071066 -6.061896E-08 0.7071069
vn 0.7071066 -6.061895E-08 0.7071069
vn 0.7071068 -2.424759E-07 0.7071068
vn 0.7071067 -1.212379E-07 0.7071068
vn 0.7071066 -6.061895E-08 0.7071069

vt 0.1693524 0.3816425
vt 0.1693524 0
vt 0.4879227 0.3816425
vt 0.4879227 0
vt 0.8451404 0.3816425
vt 0.8451404 0
vt 0.1693524 0.8816425
vt 0.4879227 0.8816425
vt 0.8451404 0.8816425

usemtl sn13_24_sn13r15.jpg
usemap sn13_24_sn13r15.jpg
f 3/3/3 1/1/1 2/2/2
f 2/2/2 4/4/4 3/3/3
f 5/5/5 3/3/3 4/4/4
f 4/4/4 6/6/6 5/5/5
f 8/8/8 7/7/7 1/1/1
f 1/1/1 3/3/3 8/8/8
f 9/9/9 8/8/8 3/3/3
f 3/3/3 5/5/5 9/9/9
