mtllib ./Box053.mtl
g Box053
v -0.5211059 36.34772 -8.574778
v -22.06342 36.34772 -7.266587
v -21.02194 36.34772 9.883538
v 0.520413 36.34772 8.575292
v 22.06273 36.34772 7.267101
v 21.02125 36.34772 -9.883024
v -0.5211059 -0.0004882813 -8.574778
v -22.06342 -0.0004882813 -7.266587
v -22.06342 18.17361 -7.266587
v -22.06342 36.34772 -7.266587
v -0.5211059 36.34772 -8.574778
v -0.5211059 18.17361 -8.574778
v -22.06342 -0.0004882813 -7.266587
v -21.02194 -0.0004882813 9.883538
v -21.02194 18.17361 9.883538
v -21.02194 36.34772 9.883538
v -22.06342 36.34772 -7.266587
v -22.06342 18.17361 -7.266587
v 22.06273 -0.0004882813 7.267101
v 21.02125 -0.0004882813 -9.883024
v 21.02125 18.17361 -9.883024
v 21.02125 36.34772 -9.883024
v 22.06273 36.34772 7.267101
v 22.06273 18.17361 7.267101
v 21.02125 36.34772 -9.883024
v 21.02125 18.17361 -9.883024
v 21.02125 -0.0004882813 -9.883024
v -19.68131 45.34772 -5.157254
v -19.8177 45.34772 -7.402956
v -22.06342 45.34772 -7.266587
v -21.92708 45.34772 -5.020856
v -19.68131 36.34772 -5.157254
v -19.8177 36.34772 -7.402956
v -19.8177 45.34772 -7.402956
v -19.68131 45.34772 -5.157254
v -19.8177 36.34772 -7.402956
v -22.06342 45.34772 -7.266587
v -19.8177 45.34772 -7.402956
v -21.92708 36.34772 -5.020856
v -21.92708 45.34772 -5.020856
v -22.06342 45.34772 -7.266587
v -21.92708 36.34772 -5.020856
v -19.68131 36.34772 -5.157254
v -19.68131 45.34772 -5.157254
v -21.92708 45.34772 -5.020856
v -18.77622 45.34772 9.747169
v -18.91258 45.34772 7.501412
v -21.15833 45.34772 7.637837
v -21.02194 45.34772 9.883538
v -18.77622 36.34772 9.747169
v -18.91258 36.34772 7.501412
v -18.91258 45.34772 7.501412
v -18.77622 45.34772 9.747169
v -18.91258 36.34772 7.501412
v -21.15833 36.34772 7.637837
v -21.15833 45.34772 7.637837
v -18.91258 45.34772 7.501412
v -21.15833 36.34772 7.637837
v -21.02194 45.34772 9.883538
v -21.15833 45.34772 7.637837
v -21.02194 36.34772 9.883538
v -18.77622 36.34772 9.747169
v -18.77622 45.34772 9.747169
v -21.02194 45.34772 9.883538
v 22.06273 45.34772 7.267101
v 21.92638 45.34772 5.02137
v 19.68067 45.34772 5.15774
v 19.81701 45.34772 7.403471
v 21.92638 36.34772 5.02137
v 21.92638 45.34772 5.02137
v 22.06273 45.34772 7.267101
v 21.92638 36.34772 5.02137
v 19.68067 36.34772 5.15774
v 19.68067 45.34772 5.15774
v 21.92638 45.34772 5.02137
v 19.68067 36.34772 5.15774
v 19.81701 36.34772 7.403471
v 19.81701 45.34772 7.403471
v 19.68067 45.34772 5.15774
v 19.81701 36.34772 7.403471
v 22.06273 36.34772 7.267101
v 22.06273 45.34772 7.267101
v 19.81701 45.34772 7.403471
v 21.15764 45.34772 -7.637322
v 21.02125 45.34772 -9.883024
v 18.77553 45.34772 -9.746655
v 18.91189 45.34772 -7.500897
v 21.15764 36.34772 -7.637322
v 21.02125 45.34772 -9.883024
v 21.15764 45.34772 -7.637322
v 18.77553 36.34772 -9.746655
v 18.77553 45.34772 -9.746655
v 21.02125 45.34772 -9.883024
v 18.77553 36.34772 -9.746655
v 18.91189 36.34772 -7.500897
v 18.91189 45.34772 -7.500897
v 18.77553 45.34772 -9.746655
v 18.91189 36.34772 -7.500897
v 21.15764 36.34772 -7.637322
v 21.15764 45.34772 -7.637322
v 18.91189 45.34772 -7.500897
v -19.74953 45.34772 -6.28009
v -0.4528812 45.34772 -7.451941
v -0.4528812 36.34772 -7.451941
v 18.8437 45.34772 -8.62379
v 18.8437 36.34772 -8.62379
v -19.74953 36.34772 -6.28009
v 20.03479 45.34772 -7.569124
v 20.80352 45.34772 5.089541
v 20.80352 36.34772 5.089541
v 20.03479 36.34772 -7.569124
v -20.03548 45.43478 7.569639
v -20.80421 45.43478 -5.089027
v -20.80421 36.34773 -5.089027
v -20.03543 36.34772 7.56961
v -18.84441 45.34772 8.624277
v 0.4521883 45.34772 7.452456
v 0.4521883 36.34772 7.452456
v 19.74884 45.34772 6.280605
v 19.74884 36.34772 6.280605
v -18.84441 36.34772 8.624277

vn 0 1 0
vn 0 1 0
vn 0 1 0
vn 0 1 0
vn 0 1 0
vn 0 1 0
vn 0.4228449 0 -0.9062021
vn 0.4228457 0 -0.9062018
vn 0.4228457 0 -0.9062017
vn 0.4228457 0 -0.9062017
vn 0.4228441 0 -0.9062024
vn 0.4228445 0 -0.9062023
vn -0.906202 0 -0.4228451
vn -0.906202 0 -0.4228451
vn -0.9062019 0 -0.4228451
vn -0.9062021 0 -0.4228448
vn -0.9062012 0 -0.4228468
vn -0.9062019 0 -0.4228451
vn 0.906202 0 0.4228451
vn 0.906202 0 0.4228451
vn 0.9062019 0 0.4228451
vn 0.9062021 0 0.4228449
vn 0.9062012 0 0.4228468
vn 0.9062019 0 0.4228451
vn 0.4228438 0 -0.9062025
vn 0.4228435 0 -0.9062029
vn 0.4228435 0 -0.9062029
vn 0 1 0
vn 0 1 0
vn 0 1 0
vn 0 1 0
vn 0.9062057 0 0.4228374
vn 0.9062057 0 0.4228374
vn 0.9062057 0 0.4228374
vn 0.9062057 0 0.4228374
vn 0.422848 0 -0.9062006
vn 0.422848 0 -0.9062006
vn 0.422848 0 -0.9062006
vn -0.9061952 0 -0.4228595
vn -0.9061952 0 -0.4228595
vn -0.9061952 0 -0.4228595
vn -0.4228376 0 0.9062054
vn -0.4228376 0 0.9062054
vn -0.4228376 0 0.9062054
vn -0.4228376 0 0.9062054
vn 0 1 0
vn 0 1 0
vn 0 1 0
vn 0 1 0
vn 0.9061978 0 0.422854
vn 0.9061978 0 0.422854
vn 0.9061978 0 0.422854
vn 0.9061978 0 0.422854
vn 0.4228264 0 -0.9062108
vn 0.4228264 0 -0.9062108
vn 0.4228264 0 -0.9062108
vn 0.4228264 0 -0.9062108
vn -0.906206 0 -0.4228365
vn -0.906206 0 -0.4228365
vn -0.906206 0 -0.4228365
vn -0.422848 0 0.9062006
vn -0.422848 0 0.9062006
vn -0.422848 0 0.9062006
vn -0.422848 0 0.9062006
vn 0 0.9999999 0
vn 0 0.9999999 0
vn 0 0.9999999 0
vn 0 0.9999999 0
vn 0.9061952 0 0.4228595
vn 0.9061952 0 0.4228595
vn 0.9061952 0 0.4228595
vn 0.4228479 0 -0.9062007
vn 0.4228479 0 -0.9062007
vn 0.4228479 0 -0.9062007
vn 0.4228479 0 -0.9062007
vn -0.9061952 0 -0.4228595
vn -0.9061952 0 -0.4228595
vn -0.9061952 0 -0.4228595
vn -0.9061952 0 -0.4228595
vn -0.4228479 0 0.9062007
vn -0.4228479 0 0.9062007
vn -0.4228479 0 0.9062007
vn -0.4228479 0 0.9062007
vn 0 1 0
vn 0 1 0
vn 0 1 0
vn 0 1 0
vn 0.9062057 0 0.4228374
vn 0.9062057 0 0.4228374
vn 0.9062057 0 0.4228374
vn 0.4228477 0 -0.9062008
vn 0.4228477 0 -0.9062008
vn 0.4228477 0 -0.9062008
vn -0.9061978 0 -0.422854
vn -0.9061978 0 -0.422854
vn -0.9061978 0 -0.422854
vn -0.9061978 0 -0.422854
vn -0.4228265 0 0.9062105
vn -0.4228265 0 0.9062105
vn -0.4228265 0 0.9062105
vn -0.4228265 0 0.9062105
vn 0.4228442 0 -0.9062024
vn 0.4228441 0 -0.9062024
vn 0.4228442 0 -0.9062024
vn 0.4228441 0 -0.9062024
vn 0.4228441 0 -0.9062024
vn 0.4228442 0 -0.9062024
vn 0.9062021 0 0.4228449
vn 0.9062021 0 0.4228449
vn 0.9062021 0 0.4228449
vn 0.9062021 0 0.4228449
vn -0.9062029 -3.13493E-06 -0.422843
vn -0.906202 0 -0.422845
vn -0.9062029 -3.13493E-06 -0.422843
vn -0.9062039 -6.269862E-06 -0.422841
vn 0.4228454 0 -0.9062018
vn 0.4228446 0 -0.9062023
vn 0.422845 0 -0.9062019
vn 0.4228442 0 -0.9062024
vn 0.4228442 0 -0.9062024
vn 0.4228454 0 -0.9062018

vt 0.2426582 0.4491374
vt 0.2426586 0.8916774
vt 0.0005001584 0.8916775
vt 0.0004998823 0.4491376
vt 0.000499487 0.006597807
vt 0.2426579 0.00659766
vt 0.4861086 0.5000001
vt 0.4861086 0.0004998744
vt 0.6478066 0.0004997849
vt 0.8363246 0.0004996955
vt 0.8363246 0.4999999
vt 0.6478066 0.5
vt 0.2515438 0.0269656
vt 0.4537706 0.02696557
vt 0.4537706 0.2917618
vt 0.4537706 0.5795465
vt 0.2515439 0.5795465
vt 0.2515438 0.2917618
vt 0.4537706 0.02696556
vt 0.2515438 0.02696557
vt 0.2515438 0.2917618
vt 0.2515439 0.5795465
vt 0.4537706 0.5795465
vt 0.4537706 0.2917618
vt 0.8363246 0.9995002
vt 0.6478066 0.9995003
vt 0.4861087 0.9995003
vt 0.8478361 0.9998528
vt 0.8478359 0.9341239
vt 0.9761635 0.9341237
vt 0.9761637 0.9998526
vt 0.2869185 0.5795465
vt 0.2515439 0.5795465
vt 0.2515439 0.7850218
vt 0.2869186 0.7850218
vt 0.8363246 0.06191871
vt 0.9743914 0.0004996657
vt 0.9743914 0.06191868
vt 0.2869185 0.5795465
vt 0.2869186 0.7850218
vt 0.2515439 0.7850218
vt 0.8363246 0.0004996955
vt 0.8363246 0.06191871
vt 0.9743914 0.06191868
vt 0.9743914 0.0004996657
vt 0.8478361 0.9998528
vt 0.8478359 0.9341239
vt 0.9761635 0.9341237
vt 0.9761637 0.9998526
vt 0.4537706 0.5795465
vt 0.422843 0.5795465
vt 0.422843 0.7850218
vt 0.4537706 0.7850218
vt 0.8363246 0.06191871
vt 0.8363246 0.0004996955
vt 0.9743914 0.0004996657
vt 0.9743914 0.06191868
vt 0.422843 0.5795465
vt 0.4537706 0.7850218
vt 0.422843 0.7850218
vt 0.8363246 0.0004996955
vt 0.8363246 0.06191871
vt 0.9743914 0.06191868
vt 0.9743914 0.0004996657
vt 0.8478361 0.9998528
vt 0.8478359 0.9341239
vt 0.9761635 0.9341237
vt 0.9761637 0.9998526
vt 0.422843 0.5795465
vt 0.422843 0.7850218
vt 0.4537706 0.7850218
vt 0.8363246 0.9995002
vt 0.8363246 0.9358172
vt 0.9743915 0.9358172
vt 0.9743915 0.9995002
vt 0.422843 0.5795465
vt 0.4537706 0.5795465
vt 0.4537706 0.7850218
vt 0.422843 0.7850218
vt 0.8363246 0.9358172
vt 0.8363246 0.9995002
vt 0.9743915 0.9995002
vt 0.9743915 0.9358172
vt 0.8478361 0.9998528
vt 0.8478359 0.9341239
vt 0.9761635 0.9341237
vt 0.9761637 0.9998526
vt 0.2869185 0.5795465
vt 0.2515439 0.7850218
vt 0.2869186 0.7850218
vt 0.8363246 0.9358172
vt 0.9743915 0.9358172
vt 0.9743915 0.9995002
vt 0.2515439 0.5795465
vt 0.2869185 0.5795465
vt 0.2869186 0.7850218
vt 0.2515439 0.7850218
vt 0.8363246 0.9358172
vt 0.8363246 0.9995002
vt 0.9743915 0.9995002
vt 0.9743915 0.9358172
vt 0.9743914 0.06191856
vt 0.9743914 0.4999998
vt 0.8363246 0.4999999
vt 0.9743915 0.9358172
vt 0.8363246 0.9358172
vt 0.8363246 0.06191862
vt 0.2869186 0.7850218
vt 0.422843 0.7850218
vt 0.422843 0.5795465
vt 0.2869185 0.5795465
vt 0.422843 0.7850513
vt 0.2869186 0.7850513
vt 0.2869185 0.5795466
vt 0.422843 0.5795465
vt 0.9743914 0.06191856
vt 0.9743914 0.4999998
vt 0.8363246 0.4999999
vt 0.9743915 0.9358172
vt 0.8363246 0.9358172
vt 0.8363246 0.06191862

usemtl sn18_24_km3ca.JPG
usemap sn18_24_km3ca.JPG
f 3/3/3 1/1/1 2/2/2
f 6/6/6 4/4/4 5/5/5
f 9/9/9 7/7/7 8/8/8
f 12/12/12 10/10/10 11/11/11
f 15/15/15 13/13/13 14/14/14
f 18/18/18 16/16/16 17/17/17
f 21/21/21 19/19/19 20/20/20
f 24/24/24 22/22/22 23/23/23
f 26/26/26 11/11/11 25/25/25
f 4/4/4 6/6/6 1/1/1
f 12/12/12 27/27/27 7/7/7
f 21/21/21 22/22/22 24/24/24
f 19/19/19 21/21/21 24/24/24
f 12/12/12 11/11/11 26/26/26
f 27/27/27 12/12/12 26/26/26
f 9/9/9 10/10/10 12/12/12
f 7/7/7 9/9/9 12/12/12
f 15/15/15 16/16/16 18/18/18
f 13/13/13 15/15/15 18/18/18
f 1/1/1 3/3/3 4/4/4
f 30/30/30 28/28/28 29/29/29
f 28/28/28 30/30/30 31/31/31
f 34/34/34 32/32/32 33/33/33
f 32/32/32 34/34/34 35/35/35
f 37/37/37 36/36/36 10/10/10
f 36/36/36 37/37/37 38/38/38
f 40/40/40 17/17/17 39/39/39
f 17/17/17 40/40/40 41/41/41
f 44/44/44 42/42/42 43/43/43
f 42/42/42 44/44/44 45/45/45
f 48/48/48 46/46/46 47/47/47
f 46/46/46 48/48/48 49/49/49
f 52/52/52 50/50/50 51/51/51
f 50/50/50 52/52/52 53/53/53
f 56/56/56 54/54/54 55/55/55
f 54/54/54 56/56/56 57/57/57
f 59/59/59 58/58/58 16/16/16
f 58/58/58 59/59/59 60/60/60
f 63/63/63 61/61/61 62/62/62
f 61/61/61 63/63/63 64/64/64
f 67/67/67 65/65/65 66/66/66
f 65/65/65 67/67/67 68/68/68
f 70/70/70 23/23/23 69/69/69
f 23/23/23 70/70/70 71/71/71
f 74/74/74 72/72/72 73/73/73
f 72/72/72 74/74/74 75/75/75
f 78/78/78 76/76/76 77/77/77
f 76/76/76 78/78/78 79/79/79
f 82/82/82 80/80/80 81/81/81
f 80/80/80 82/82/82 83/83/83
f 86/86/86 84/84/84 85/85/85
f 84/84/84 86/86/86 87/87/87
f 89/89/89 88/88/88 22/22/22
f 88/88/88 89/89/89 90/90/90
f 92/92/92 25/25/25 91/91/91
f 25/25/25 92/92/92 93/93/93
f 96/96/96 94/94/94 95/95/95
f 94/94/94 96/96/96 97/97/97
f 100/100/100 98/98/98 99/99/99
f 98/98/98 100/100/100 101/101/101
f 104/104/104 102/102/102 103/103/103
f 106/106/106 103/103/103 105/105/105
f 104/104/104 103/103/103 106/106/106
f 107/107/107 102/102/102 104/104/104
f 110/110/110 108/108/108 109/109/109
f 111/111/111 108/108/108 110/110/110
f 114/114/114 112/112/112 113/113/113
f 115/115/115 112/112/112 114/114/114
f 118/118/118 116/116/116 117/117/117
f 120/120/120 117/117/117 119/119/119
f 118/118/118 117/117/117 120/120/120
f 121/121/121 116/116/116 118/118/118
