mtllib ./Box129.mtl
g Box129
v 0.7345652 36.34772 -8.561134
v -20.77441 36.34772 -10.40631
v -22.24335 36.34772 6.717223
v -0.7344002 36.34772 8.562376
v 20.77457 36.34772 10.40755
v 22.24352 36.34772 -6.715981
v 0.7345652 -0.0004882813 -8.561134
v -20.77441 -0.0004882813 -10.40631
v -20.77441 18.17361 -10.40631
v -20.77441 36.34772 -10.40631
v 0.7345652 36.34772 -8.561134
v 0.7345652 18.17361 -8.561134
v -20.77441 -0.0004882813 -10.40631
v -22.24335 -0.0004882813 6.717223
v -22.24335 18.17361 6.717223
v -22.24335 36.34772 6.717223
v -20.77441 36.34772 -10.40631
v -20.77441 18.17361 -10.40631
v 20.77457 -0.0004882813 10.40755
v 22.24352 -0.0004882813 -6.715981
v 22.24352 18.17361 -6.715981
v 22.24352 36.34772 -6.715981
v 20.77457 36.34772 10.40755
v 20.77457 18.17361 10.40755
v 22.24352 36.34772 -6.715981
v 22.24352 18.17361 -6.715981
v 22.24352 -0.0004882813 -6.715981
v -18.7245 45.34772 -7.971744
v -18.53217 45.34772 -10.21396
v -20.77441 45.34772 -10.40631
v -20.96674 45.34772 -8.164094
v -18.7245 36.34772 -7.971744
v -18.53217 36.34772 -10.21396
v -18.53217 45.34772 -10.21396
v -18.7245 45.34772 -7.971744
v -18.53217 36.34772 -10.21396
v -20.77441 45.34772 -10.40631
v -18.53217 45.34772 -10.21396
v -20.96674 36.34772 -8.164094
v -20.96674 45.34772 -8.164094
v -20.77441 45.34772 -10.40631
v -20.96674 36.34772 -8.164094
v -18.7245 36.34772 -7.971744
v -18.7245 45.34772 -7.971744
v -20.96674 45.34772 -8.164094
v -20.00111 45.34772 6.909573
v -19.80874 45.34772 4.667313
v -22.05098 45.34772 4.474962
v -22.24335 45.34772 6.717223
v -20.00111 36.34772 6.909573
v -19.80874 36.34772 4.667313
v -19.80874 45.34772 4.667313
v -20.00111 45.34772 6.909573
v -19.80874 36.34772 4.667313
v -22.05098 36.34772 4.474962
v -22.05098 45.34772 4.474962
v -19.80874 45.34772 4.667313
v -22.05098 36.34772 4.474962
v -22.24335 45.34772 6.717223
v -22.05098 45.34772 4.474962
v -22.24335 36.34772 6.717223
v -20.00111 36.34772 6.909573
v -20.00111 45.34772 6.909573
v -22.24335 45.34772 6.717223
v 20.77457 45.34772 10.40755
v 20.96691 45.34772 8.165336
v 18.72467 45.34772 7.972985
v 18.53234 45.34772 10.2152
v 20.96691 36.34772 8.165336
v 20.96691 45.34772 8.165336
v 20.77457 45.34772 10.40755
v 20.96691 36.34772 8.165336
v 18.72467 36.34772 7.972985
v 18.72467 45.34772 7.972985
v 20.96691 45.34772 8.165336
v 18.72467 36.34772 7.972985
v 18.53234 36.34772 10.2152
v 18.53234 45.34772 10.2152
v 18.72467 45.34772 7.972985
v 18.53234 36.34772 10.2152
v 20.77457 36.34772 10.40755
v 20.77457 45.34772 10.40755
v 18.53234 45.34772 10.2152
v 22.05115 45.34772 -4.473721
v 22.24352 45.34772 -6.715981
v 20.00128 45.34772 -6.908331
v 19.80891 45.34772 -4.666071
v 22.05115 36.34772 -4.473721
v 22.24352 45.34772 -6.715981
v 22.05115 45.34772 -4.473721
v 20.00128 36.34772 -6.908331
v 20.00128 45.34772 -6.908331
v 22.24352 45.34772 -6.715981
v 20.00128 36.34772 -6.908331
v 19.80891 36.34772 -4.666071
v 19.80891 45.34772 -4.666071
v 20.00128 45.34772 -6.908331
v 19.80891 36.34772 -4.666071
v 22.05115 36.34772 -4.473721
v 22.05115 45.34772 -4.473721
v 19.80891 45.34772 -4.666071
v -18.62834 45.34772 -9.092851
v 0.6383998 45.34772 -7.440028
v 0.6383998 36.34772 -7.440028
v 19.90512 45.34772 -5.787225
v 19.90512 36.34772 -5.787225
v -18.62834 36.34772 -9.092851
v 20.93004 45.34772 -4.569886
v 19.8458 45.34772 8.06917
v 19.84578 36.34772 8.069151
v 20.93004 36.34772 -4.569886
v -20.92988 45.43478 4.571128
v -19.84561 45.43478 -8.067909
v -19.84561 36.34773 -8.067909
v -20.92988 36.34772 4.571128
v -19.90495 45.34772 5.788466
v -0.6382348 45.34772 7.441269
v -0.6382348 36.34772 7.441269
v 18.6285 45.34772 9.094092
v 18.6285 36.34772 9.094092
v -19.90495 36.34772 5.788466

vn 0 1 0
vn 0 1 0
vn 0 1 0
vn 0 1 0
vn 0 1 0
vn 0 1 0
vn -0.5659188 0 -0.8244609
vn -0.5659187 0 -0.8244611
vn -0.5659186 0 -0.8244611
vn -0.5659187 0 -0.8244611
vn -0.565919 0 -0.8244607
vn -0.5659189 0 -0.8244609
vn -0.8244604 0 0.5659196
vn -0.8244604 0 0.5659196
vn -0.8244604 0 0.5659196
vn -0.8244605 0 0.5659194
vn -0.8244599 0 0.5659203
vn -0.8244604 0 0.5659196
vn 0.8244605 0 -0.5659196
vn 0.8244605 0 -0.5659196
vn 0.8244604 0 -0.5659196
vn 0.8244606 0 -0.5659194
vn 0.8244599 0 -0.5659202
vn 0.8244604 0 -0.5659196
vn -0.5659193 0 -0.8244605
vn -0.5659193 0 -0.8244605
vn -0.5659193 0 -0.8244605
vn 0 1 0
vn 0 1 0
vn 0 1 0
vn 0 1 0
vn 0.8244562 0 -0.5659258
vn 0.8244562 0 -0.5659258
vn 0.8244562 0 -0.5659258
vn 0.8244562 0 -0.5659258
vn -0.5659195 0 -0.8244604
vn -0.5659195 0 -0.8244604
vn -0.5659195 0 -0.8244604
vn -0.8244562 0 0.5659258
vn -0.8244562 0 0.5659258
vn -0.8244562 0 0.5659258
vn 0.5659195 0 0.8244604
vn 0.5659195 0 0.8244604
vn 0.5659195 0 0.8244604
vn 0.5659195 0 0.8244604
vn 0 1 0
vn 0 1 0
vn 0 1 0
vn 0 1 0
vn 0.8244647 0 -0.5659133
vn 0.8244647 0 -0.5659133
vn 0.8244647 0 -0.5659133
vn 0.8244647 0 -0.5659133
vn -0.5659195 0 -0.8244604
vn -0.5659195 0 -0.8244604
vn -0.5659195 0 -0.8244604
vn -0.5659195 0 -0.8244604
vn -0.8244647 0 0.5659133
vn -0.8244647 0 0.5659133
vn -0.8244647 0 0.5659133
vn 0.5659197 0 0.8244603
vn 0.5659197 0 0.8244603
vn 0.5659197 0 0.8244603
vn 0.5659197 0 0.8244603
vn 0 1 0
vn 0 1 0
vn 0 1 0
vn 0 1 0
vn 0.8244562 0 -0.5659258
vn 0.8244562 0 -0.5659258
vn 0.8244562 0 -0.5659258
vn -0.5659195 0 -0.8244604
vn -0.5659195 0 -0.8244604
vn -0.5659195 0 -0.8244604
vn -0.5659195 0 -0.8244604
vn -0.8244562 0 0.5659258
vn -0.8244562 0 0.5659258
vn -0.8244562 0 0.5659258
vn -0.8244562 0 0.5659258
vn 0.5659195 0 0.8244604
vn 0.5659195 0 0.8244604
vn 0.5659195 0 0.8244604
vn 0.5659195 0 0.8244604
vn 0 1 0
vn 0 1 0
vn 0 1 0
vn 0 1 0
vn 0.8244647 0 -0.5659133
vn 0.8244647 0 -0.5659133
vn 0.8244647 0 -0.5659133
vn -0.5659197 0 -0.8244603
vn -0.5659197 0 -0.8244603
vn -0.5659197 0 -0.8244603
vn -0.8244647 0 0.5659133
vn -0.8244647 0 0.5659133
vn -0.8244647 0 0.5659133
vn -0.8244647 0 0.5659133
vn 0.5659195 0 0.8244604
vn 0.5659195 0 0.8244604
vn 0.5659195 0 0.8244604
vn 0.5659195 0 0.8244604
vn -0.5659185 0 -0.8244611
vn -0.565919 0 -0.824461
vn -0.5659187 0 -0.824461
vn -0.5659192 0 -0.8244606
vn -0.5659192 0 -0.8244606
vn -0.5659185 0 -0.8244611
vn 0.824461 -1.357389E-06 -0.5659187
vn 0.8244604 -2.714777E-06 -0.5659196
vn 0.824461 -1.357389E-06 -0.5659187
vn 0.8244615 0 -0.565918
vn -0.8244616 0 0.5659179
vn -0.8244616 0 0.5659179
vn -0.8244616 0 0.5659179
vn -0.8244616 0 0.5659178
vn -0.5659192 0 -0.8244606
vn -0.5659187 0 -0.824461
vn -0.565919 0 -0.824461
vn -0.5659185 0 -0.8244611
vn -0.5659185 0 -0.8244611
vn -0.5659192 0 -0.8244606

vt 0.2426582 0.4491374
vt 0.2426586 0.8916774
vt 0.0005001584 0.8916775
vt 0.0004998823 0.4491376
vt 0.000499487 0.006597807
vt 0.2426579 0.00659766
vt 0.4822772 0.5000001
vt 0.4822772 0.0004998744
vt 0.6478066 0.0004997849
vt 0.8363246 0.0004996955
vt 0.8363246 0.4999999
vt 0.6478066 0.5
vt 0.2515438 0.03079701
vt 0.4537706 0.03079699
vt 0.4537706 0.2917618
vt 0.4537706 0.5795465
vt 0.2515439 0.5795465
vt 0.2515438 0.2917618
vt 0.4537706 0.03079697
vt 0.2515438 0.03079699
vt 0.2515438 0.2917618
vt 0.2515439 0.5795465
vt 0.4537706 0.5795465
vt 0.4537706 0.2917618
vt 0.8363246 0.9995002
vt 0.6478066 0.9995003
vt 0.4822773 0.9995003
vt 0.8478361 0.9998528
vt 0.8478359 0.9341239
vt 0.9799948 0.9341237
vt 0.9799951 0.9998526
vt 0.2869185 0.5795465
vt 0.2515439 0.5795465
vt 0.2515439 0.7965161
vt 0.2869186 0.7965161
vt 0.8363246 0.06191871
vt 0.9782227 0.0004996657
vt 0.9782227 0.06191868
vt 0.2869185 0.5795465
vt 0.2869186 0.7965161
vt 0.2515439 0.7965161
vt 0.8363246 0.0004996955
vt 0.8363246 0.06191871
vt 0.9782227 0.06191868
vt 0.9782227 0.0004996657
vt 0.8478361 0.9998528
vt 0.8478359 0.9341239
vt 0.9799948 0.9341237
vt 0.9799951 0.9998526
vt 0.4537706 0.5795465
vt 0.422843 0.5795465
vt 0.422843 0.796516
vt 0.4537706 0.796516
vt 0.8363246 0.06191871
vt 0.8363246 0.0004996955
vt 0.9782227 0.0004996657
vt 0.9782227 0.06191868
vt 0.422843 0.5795465
vt 0.4537706 0.796516
vt 0.422843 0.7965161
vt 0.8363246 0.0004996955
vt 0.8363246 0.06191871
vt 0.9782227 0.06191868
vt 0.9782227 0.0004996657
vt 0.8478361 0.9998528
vt 0.8478359 0.9341239
vt 0.9799948 0.9341237
vt 0.9799951 0.9998526
vt 0.422843 0.5795465
vt 0.422843 0.796516
vt 0.4537706 0.796516
vt 0.8363246 0.9995002
vt 0.8363246 0.9358172
vt 0.9782228 0.9358172
vt 0.9782228 0.9995002
vt 0.422843 0.5795465
vt 0.4537706 0.5795465
vt 0.4537706 0.796516
vt 0.422843 0.796516
vt 0.8363246 0.9358172
vt 0.8363246 0.9995002
vt 0.9782228 0.9995002
vt 0.9782228 0.9358172
vt 0.8478361 0.9998528
vt 0.8478359 0.9341239
vt 0.9799948 0.9341237
vt 0.9799951 0.9998526
vt 0.2869185 0.5795465
vt 0.2515439 0.7965161
vt 0.2869186 0.7965161
vt 0.8363246 0.9358172
vt 0.9782228 0.9358172
vt 0.9782228 0.9995002
vt 0.2515439 0.5795465
vt 0.2869185 0.5795465
vt 0.2869186 0.7965161
vt 0.2515439 0.7965161
vt 0.8363246 0.9358172
vt 0.8363246 0.9995002
vt 0.9782228 0.9995002
vt 0.9782228 0.9358172
vt 0.9782227 0.06191856
vt 0.9782227 0.4999998
vt 0.8363246 0.4999999
vt 0.9782228 0.9358172
vt 0.8363246 0.9358172
vt 0.8363246 0.06191862
vt 0.2869186 0.7965161
vt 0.422843 0.7965161
vt 0.422843 0.5795465
vt 0.2869185 0.5795465
vt 0.422843 0.7965455
vt 0.2869186 0.7965456
vt 0.2869185 0.5795466
vt 0.422843 0.5795465
vt 0.9782227 0.06191856
vt 0.9782227 0.4999998
vt 0.8363246 0.4999999
vt 0.9782228 0.9358172
vt 0.8363246 0.9358172
vt 0.8363246 0.06191862

usemtl sn18_24_km3ca.JPG
usemap sn18_24_km3ca.JPG
f 3/3/3 1/1/1 2/2/2
f 6/6/6 4/4/4 5/5/5
f 9/9/9 7/7/7 8/8/8
f 12/12/12 10/10/10 11/11/11
f 15/15/15 13/13/13 14/14/14
f 18/18/18 16/16/16 17/17/17
f 21/21/21 19/19/19 20/20/20
f 24/24/24 22/22/22 23/23/23
f 26/26/26 11/11/11 25/25/25
f 4/4/4 6/6/6 1/1/1
f 12/12/12 27/27/27 7/7/7
f 21/21/21 22/22/22 24/24/24
f 19/19/19 21/21/21 24/24/24
f 12/12/12 11/11/11 26/26/26
f 27/27/27 12/12/12 26/26/26
f 9/9/9 10/10/10 12/12/12
f 7/7/7 9/9/9 12/12/12
f 15/15/15 16/16/16 18/18/18
f 13/13/13 15/15/15 18/18/18
f 1/1/1 3/3/3 4/4/4
f 30/30/30 28/28/28 29/29/29
f 28/28/28 30/30/30 31/31/31
f 34/34/34 32/32/32 33/33/33
f 32/32/32 34/34/34 35/35/35
f 37/37/37 36/36/36 10/10/10
f 36/36/36 37/37/37 38/38/38
f 40/40/40 17/17/17 39/39/39
f 17/17/17 40/40/40 41/41/41
f 44/44/44 42/42/42 43/43/43
f 42/42/42 44/44/44 45/45/45
f 48/48/48 46/46/46 47/47/47
f 46/46/46 48/48/48 49/49/49
f 52/52/52 50/50/50 51/51/51
f 50/50/50 52/52/52 53/53/53
f 56/56/56 54/54/54 55/55/55
f 54/54/54 56/56/56 57/57/57
f 59/59/59 58/58/58 16/16/16
f 58/58/58 59/59/59 60/60/60
f 63/63/63 61/61/61 62/62/62
f 61/61/61 63/63/63 64/64/64
f 67/67/67 65/65/65 66/66/66
f 65/65/65 67/67/67 68/68/68
f 70/70/70 23/23/23 69/69/69
f 23/23/23 70/70/70 71/71/71
f 74/74/74 72/72/72 73/73/73
f 72/72/72 74/74/74 75/75/75
f 78/78/78 76/76/76 77/77/77
f 76/76/76 78/78/78 79/79/79
f 82/82/82 80/80/80 81/81/81
f 80/80/80 82/82/82 83/83/83
f 86/86/86 84/84/84 85/85/85
f 84/84/84 86/86/86 87/87/87
f 89/89/89 88/88/88 22/22/22
f 88/88/88 89/89/89 90/90/90
f 92/92/92 25/25/25 91/91/91
f 25/25/25 92/92/92 93/93/93
f 96/96/96 94/94/94 95/95/95
f 94/94/94 96/96/96 97/97/97
f 100/100/100 98/98/98 99/99/99
f 98/98/98 100/100/100 101/101/101
f 104/104/104 102/102/102 103/103/103
f 106/106/106 103/103/103 105/105/105
f 104/104/104 103/103/103 106/106/106
f 107/107/107 102/102/102 104/104/104
f 110/110/110 108/108/108 109/109/109
f 111/111/111 108/108/108 110/110/110
f 114/114/114 112/112/112 113/113/113
f 115/115/115 112/112/112 114/114/114
f 118/118/118 116/116/116 117/117/117
f 120/120/120 117/117/117 119/119/119
f 118/118/118 117/117/117 120/120/120
f 121/121/121 116/116/116 118/118/118
