mtllib ./Box117.mtl
g Box117
v 1.399454 12.08403 -6.977292
v -17.36893 12.08403 -10.74136
v -20.16757 12.08403 3.213189
v -1.399183 12.08403 6.977259
v 17.3692 12.08403 10.74133
v 20.16784 12.08403 -3.213223
v 1.399454 -0.0004882813 -6.977292
v -17.36893 -0.0004882813 -10.74136
v -17.36893 6.041771 -10.74136
v -17.36893 12.08403 -10.74136
v 1.399454 12.08403 -6.977292
v 1.399454 6.041771 -6.977292
v -17.36893 -0.0004882813 -10.74136
v -20.16757 -0.0004882813 3.213189
v -20.16757 6.041771 3.213189
v -20.16757 12.08403 3.213189
v -17.36893 12.08403 -10.74136
v -17.36893 6.041771 -10.74136
v 17.3692 -0.0004882813 10.74133
v 20.16784 -0.0004882813 -3.213223
v 20.16784 6.041771 -3.213223
v 20.16784 12.08403 -3.213223
v 17.3692 12.08403 10.74133
v 17.3692 6.041771 10.74133
v 20.16784 12.08403 -3.213223
v 20.16784 6.041771 -3.213223
v 20.16784 -0.0004882813 -3.213223
v -20.16757 -0.0004882813 3.213189
v -1.399183 -0.0004882813 6.977259
v -20.16757 6.041771 3.213189
v -1.399183 12.08403 6.977259
v -20.16757 12.08403 3.213189
v -1.399183 6.041771 6.977259
v 17.3692 12.08403 10.74133
v 17.3692 6.041771 10.74133
v 17.3692 -0.0004882813 10.74133

vn 0 1 0
vn 0 1 0
vn 0 1 0
vn 0 1 0
vn 0 1 0
vn 0 1 0
vn -0.7066903 0 -0.707523
vn -0.7066903 0 -0.707523
vn -0.7066903 0 -0.707523
vn -0.7066903 0 -0.707523
vn -0.7066903 0 -0.707523
vn -0.7066903 0 -0.707523
vn -0.707523 0 0.7066903
vn -0.707523 0 0.7066903
vn -0.707523 0 0.7066903
vn -0.707523 0 0.7066903
vn -0.707523 0 0.7066903
vn -0.707523 0 0.7066903
vn 0.707523 0 -0.7066904
vn 0.707523 0 -0.7066904
vn 0.7075229 0 -0.7066904
vn 0.707523 0 -0.7066904
vn 0.707523 0 -0.7066904
vn 0.7075229 0 -0.7066904
vn -0.7066903 0 -0.707523
vn -0.7066904 0 -0.707523
vn -0.7066903 0 -0.707523
vn 0.7066903 0 0.707523
vn 0.7066903 0 0.707523
vn 0.7066903 0 0.707523
vn 0.7066903 0 0.707523
vn 0.7066903 0 0.707523
vn 0.7066903 0 0.707523
vn 0.7066904 0 0.7075231
vn 0.7066903 0 0.707523
vn 0.7066904 0 0.7075231

vt 0.4999999 0.3308835
vt 0.9995003 0.3308834
vt 0.9995005 0.6591389
vt 0.5000001 0.659139
vt 0.0004996955 0.659139
vt 0.0004995465 0.3308835
vt 0.4999999 0.6697007
vt 0.9995003 0.6697007
vt 0.9995003 0.834536
vt 0.9995003 0.9993711
vt 0.4999999 0.9993711
vt 0.4999999 0.834536
vt -0.0003670532 0.002278353
vt 0.4897338 0.002278353
vt 0.4897338 0.1638656
vt 0.4897338 0.3254529
vt -0.0003670532 0.3254529
vt -0.0003670532 0.1638656
vt -0.0003670532 0.002278353
vt 0.4897338 0.002278353
vt 0.4897338 0.1638656
vt 0.4897338 0.3254529
vt -0.0003670532 0.3254529
vt -0.0003670532 0.1638656
vt 0.0004995465 0.9993711
vt 0.0004995465 0.834536
vt 0.0004995465 0.6697007
vt 0.0004995465 0.6697007
vt 0.4999999 0.6697007
vt 0.0004995465 0.834536
vt 0.5 0.9993711
vt 0.0004995465 0.9993711
vt 0.4999999 0.834536
vt 0.9995003 0.9993711
vt 0.9995003 0.834536
vt 0.9995003 0.6697007

usemtl sn18_26_OSH3BOX2.JPG
usemap sn18_26_OSH3BOX2.JPG
f 3/3/3 1/1/1 2/2/2
f 6/6/6 4/4/4 5/5/5
f 9/9/9 7/7/7 8/8/8
f 12/12/12 10/10/10 11/11/11
f 15/15/15 13/13/13 14/14/14
f 18/18/18 16/16/16 17/17/17
f 21/21/21 19/19/19 20/20/20
f 24/24/24 22/22/22 23/23/23
f 26/26/26 11/11/11 25/25/25
f 4/4/4 6/6/6 1/1/1
f 12/12/12 27/27/27 7/7/7
f 21/21/21 22/22/22 24/24/24
f 19/19/19 21/21/21 24/24/24
f 12/12/12 11/11/11 26/26/26
f 27/27/27 12/12/12 26/26/26
f 9/9/9 10/10/10 12/12/12
f 7/7/7 9/9/9 12/12/12
f 15/15/15 16/16/16 18/18/18
f 13/13/13 15/15/15 18/18/18
f 1/1/1 3/3/3 4/4/4
f 30/30/30 28/28/28 29/29/29
f 33/33/33 31/31/31 32/32/32
f 35/35/35 34/34/34 31/31/31
f 33/33/33 29/29/29 36/36/36
f 33/33/33 35/35/35 31/31/31
f 36/36/36 35/35/35 33/33/33
f 30/30/30 33/33/33 32/32/32
f 29/29/29 33/33/33 30/30/30
