mtllib ./Box14.mtl
g Box14
v -43.44131 0.00025177 -4.018901
v -102.5768 37.33599 -3.866487
v -43.44131 37.33599 -4.018901
v 55.60329 97.73551 -4.274179
v 116.4872 37.33599 -4.431098
v 55.60329 37.33599 -4.274179
v 55.60278 0.00025177 0.7257922
v 116.4866 37.33599 0.5688866
v 55.60278 37.33599 0.7257922
v 55.60278 97.73551 0.7257922
v -43.44183 37.33599 0.98107
v 116.4872 0.00025177 -4.431098
v 55.60329 0.00025177 -4.274179
v -102.5768 0.00025177 -3.866487
v -102.5768 97.73551 -3.866487
v -102.5768 135.0002 -3.866487
v -43.44131 135.0002 -4.018901
v -43.44131 97.73551 -4.018901
v 55.60329 135.0002 -4.274179
v 116.4872 135.0002 -4.431098
v 116.4872 97.73551 -4.431098
v -43.44183 0.00025177 0.98107
v 116.4866 0.00025177 0.5688866
v 116.4866 97.73551 0.5688866
v 116.4866 135.0002 0.5688866
v 55.60278 135.0002 0.7257922
v -43.44183 135.0002 0.98107
v -43.44183 97.73551 0.98107
v -102.5773 135.0002 1.133484
v -102.5773 97.73551 1.133484
v -102.5773 37.33599 1.133484
v -102.5773 0.00025177 1.133484

vn -0.3527379 0 -0.9357221
vn -0.3527379 0 -0.9357222
vn -0.3527379 0 -0.9357222
vn -0.3527379 0 -0.9357222
vn -0.3527379 0 -0.9357222
vn -0.3527379 0 -0.9357222
vn 0.3527378 0 0.9357222
vn 0.3527377 0 0.9357222
vn 0.3527378 0 0.9357222
vn 0.3527378 0 0.9357222
vn 0.3527379 0 0.9357222
vn -0.3527379 0 -0.9357222
vn -0.3527379 0 -0.9357221
vn -0.3527379 0 -0.9357222
vn -0.3527379 0 -0.9357222
vn -0.3527379 0 -0.9357222
vn -0.3527379 0 -0.9357222
vn -0.3527379 0 -0.9357222
vn -0.3527379 0 -0.9357222
vn -0.3527379 0 -0.9357222
vn -0.3527379 0 -0.9357222
vn 0.3527379 0 0.9357221
vn 0.3527377 0 0.9357222
vn 0.3527377 0 0.9357222
vn 0.3527377 0 0.9357222
vn 0.3527378 0 0.9357222
vn 0.3527379 0 0.9357222
vn 0.3527379 0 0.9357222
vn 0.3527379 0 0.9357222
vn 0.3527379 0 0.9357222
vn 0.3527379 0 0.9357222
vn 0.3527379 0 0.9357222

vt 1.459648 0.0004995167
vt 1.999001 0.2767842
vt 1.459648 0.2767842
vt 0.5562985 0.7237411
vt 0.0009990335 0.2767842
vt 0.5562985 0.2767842
vt 1.443702 0.0004995167
vt 1.999001 0.2767842
vt 1.443702 0.2767842
vt 1.443702 0.7237411
vt 0.5403518 0.2767842
vt 0.0009990335 0.0004995167
vt 0.5562985 0.0004995167
vt 1.999001 0.0004995167
vt 1.999001 0.7237411
vt 1.999001 0.9995005
vt 1.459648 0.9995005
vt 1.459648 0.7237411
vt 0.5562985 0.9995005
vt 0.0009990335 0.9995005
vt 0.0009990335 0.7237411
vt 0.5403518 0.0004995167
vt 1.999001 0.0004995167
vt 1.999001 0.7237411
vt 1.999001 0.9995005
vt 1.443702 0.9995005
vt 0.5403517 0.9995005
vt 0.5403517 0.7237411
vt 0.0009990931 0.9995005
vt 0.0009990931 0.7237411
vt 0.0009990931 0.2767842
vt 0.0009990931 0.0004995167

usemtl sn18_17_SN18G21.JPG
usemap sn18_17_SN18G21.JPG
f 3/3/3 1/1/1 2/2/2
f 6/6/6 4/4/4 5/5/5
f 9/9/9 7/7/7 8/8/8
f 9/9/9 10/10/10 11/11/11
f 6/6/6 12/12/12 13/13/13
f 2/2/2 1/1/1 14/14/14
f 15/15/15 3/3/3 2/2/2
f 18/18/18 16/16/16 17/17/17
f 21/21/21 19/19/19 20/20/20
f 12/12/12 6/6/6 5/5/5
f 9/9/9 22/22/22 7/7/7
f 8/8/8 7/7/7 23/23/23
f 24/24/24 9/9/9 8/8/8
f 10/10/10 25/25/25 26/26/26
f 28/28/28 26/26/26 27/27/27
f 22/22/22 9/9/9 11/11/11
f 4/4/4 17/17/17 19/19/19
f 18/18/18 6/6/6 3/3/3
f 6/6/6 13/13/13 3/3/3
f 3/3/3 13/13/13 1/1/1
f 30/30/30 27/27/27 29/29/29
f 11/11/11 28/28/28 31/31/31
f 32/32/32 11/11/11 31/31/31
f 11/11/11 32/32/32 22/22/22
f 28/28/28 27/27/27 30/30/30
f 31/31/31 28/28/28 30/30/30
f 10/10/10 26/26/26 28/28/28
f 11/11/11 10/10/10 28/28/28
f 24/24/24 25/25/25 10/10/10
f 9/9/9 24/24/24 10/10/10
f 18/18/18 3/3/3 15/15/15
f 16/16/16 18/18/18 15/15/15
f 4/4/4 6/6/6 18/18/18
f 17/17/17 4/4/4 18/18/18
f 4/4/4 21/21/21 5/5/5
f 4/4/4 19/19/19 21/21/21
