mtllib ./Box156.mtl
g Box156
v -19.69454 0.6627197 -2.41536
v -56.02199 31.63837 -2.45138
v -19.69454 31.63837 -2.41536
v 26.56525 68.96457 -2.369483
v 58.33581 31.63837 -2.337994
v 26.56525 31.63837 -2.369483
v 26.56932 0.6627197 2.681164
v 58.33987 31.63837 2.712653
v 26.56932 31.63837 2.681164
v 26.56932 68.96457 2.681164
v -19.69048 31.63837 2.635286
v 58.33581 0.6627197 -2.337994
v 26.56525 0.6627197 -2.369483
v -56.02199 0.6627197 -2.45138
v -56.02199 68.96457 -2.45138
v -56.02199 101.2698 -2.45138
v -19.69454 101.2698 -2.41536
v -19.69454 68.96457 -2.41536
v 26.56525 101.2698 -2.369483
v 58.33581 101.2698 -2.337994
v 58.33581 68.96457 -2.337994
v -19.69048 0.6627197 2.635286
v 58.33987 0.6627197 2.712653
v 58.33987 68.96457 2.712653
v 58.33987 101.2698 2.712653
v 26.56932 101.2698 2.681164
v -19.69048 101.2698 2.635286
v -19.69048 68.96457 2.635286
v -56.01797 101.2698 2.599301
v -56.01797 68.96457 2.599301
v -56.01797 31.63837 2.599301
v -56.01797 0.6627197 2.599301

vn 0.5747083 0 -0.8183584
vn 0.5747082 0 -0.8183584
vn 0.5747084 0 -0.8183584
vn 0.5747082 0 -0.8183585
vn 0.5747079 0 -0.8183586
vn 0.5747083 0 -0.8183584
vn -0.5747081 0 0.8183585
vn -0.5747079 0 0.8183586
vn -0.5747082 0 0.8183584
vn -0.5747082 0 0.8183584
vn -0.574708 0 0.8183585
vn 0.5747079 0 -0.8183587
vn 0.5747083 0 -0.8183584
vn 0.5747082 0 -0.8183584
vn 0.5747082 0 -0.8183584
vn 0.5747082 0 -0.8183584
vn 0.5747083 0 -0.8183584
vn 0.5747084 0 -0.8183584
vn 0.5747081 0 -0.8183585
vn 0.5747079 0 -0.8183587
vn 0.574708 0 -0.8183587
vn -0.5747082 0 0.8183585
vn -0.5747079 0 0.8183586
vn -0.5747079 0 0.8183587
vn -0.5747079 0 0.8183587
vn -0.5747083 0 0.8183584
vn -0.5747078 0 0.8183587
vn -0.574708 0 0.8183586
vn -0.5747074 0 0.8183589
vn -0.5747075 0 0.818359
vn -0.5747075 0 0.818359
vn -0.5747074 0 0.8183589

vt 0.682153 0.0004996061
vt 0.9995004 0.3080794
vt 0.6821529 0.3080794
vt 0.2780391 0.6787186
vt 0.0004995167 0.3080794
vt 0.2780391 0.3080794
vt 0.7219609 0.0004996061
vt 0.9995004 0.3080794
vt 0.7219609 0.3080794
vt 0.7219609 0.6787186
vt 0.317847 0.3080794
vt 0.0004995465 0.0004996061
vt 0.2780391 0.0004996061
vt 0.9995004 0.0004996061
vt 0.9995004 0.6787186
vt 0.9995004 0.9995005
vt 0.6821529 0.9995005
vt 0.6821529 0.6787186
vt 0.2780391 0.9995005
vt 0.0004995465 0.9995005
vt 0.0004995167 0.6787186
vt 0.317847 0.0004996061
vt 0.9995004 0.0004996061
vt 0.9995004 0.6787186
vt 0.9995004 0.9995005
vt 0.7219609 0.9995005
vt 0.317847 0.9995005
vt 0.317847 0.6787186
vt 0.0004995465 0.9995005
vt 0.0004995465 0.6787186
vt 0.0004995465 0.3080794
vt 0.0004995465 0.0004996061

usemtl sn18_10_SN18G20.JPG
usemap sn18_10_SN18G20.JPG
f 3/3/3 1/1/1 2/2/2
f 6/6/6 4/4/4 5/5/5
f 9/9/9 7/7/7 8/8/8
f 9/9/9 10/10/10 11/11/11
f 6/6/6 12/12/12 13/13/13
f 2/2/2 1/1/1 14/14/14
f 15/15/15 3/3/3 2/2/2
f 18/18/18 16/16/16 17/17/17
f 21/21/21 19/19/19 20/20/20
f 12/12/12 6/6/6 5/5/5
f 9/9/9 22/22/22 7/7/7
f 8/8/8 7/7/7 23/23/23
f 24/24/24 9/9/9 8/8/8
f 10/10/10 25/25/25 26/26/26
f 28/28/28 26/26/26 27/27/27
f 22/22/22 9/9/9 11/11/11
f 30/30/30 27/27/27 29/29/29
f 11/11/11 28/28/28 31/31/31
f 32/32/32 11/11/11 31/31/31
f 11/11/11 32/32/32 22/22/22
f 4/4/4 17/17/17 19/19/19
f 18/18/18 6/6/6 3/3/3
f 6/6/6 13/13/13 3/3/3
f 3/3/3 13/13/13 1/1/1
f 4/4/4 19/19/19 21/21/21
f 5/5/5 4/4/4 21/21/21
f 18/18/18 17/17/17 4/4/4
f 6/6/6 18/18/18 4/4/4
f 15/15/15 16/16/16 18/18/18
f 3/3/3 15/15/15 18/18/18
f 28/28/28 27/27/27 30/30/30
f 31/31/31 28/28/28 30/30/30
f 10/10/10 26/26/26 28/28/28
f 11/11/11 10/10/10 28/28/28
f 24/24/24 25/25/25 10/10/10
f 9/9/9 24/24/24 10/10/10
