mtllib ./Box115.mtl
g Box115
v 1.887291 2.300903 -0.4719141
v 1.048765 2.300903 -3.8296
v -2.725866 2.300903 -2.886936
v -1.887386 2.300903 0.4707096
v -1.04886 2.300903 3.828395
v 2.725771 2.300903 2.885732
v 1.887291 -2.301392 -0.4719141
v 1.048765 -2.301392 -3.8296
v 1.048765 -0.0002441406 -3.8296
v 1.048765 2.300903 -3.8296
v 1.887291 2.300903 -0.4719141
v 1.887291 -0.0002441406 -0.4719141
v 1.048765 -2.301392 -3.8296
v -2.725866 -2.301392 -2.886936
v -2.725866 -0.0002441406 -2.886936
v -2.725866 2.300903 -2.886936
v 1.048765 2.300903 -3.8296
v 1.048765 -0.0002441406 -3.8296
v -1.04886 -2.301392 3.828395
v 2.725771 -2.301392 2.885732
v 2.725771 -0.0002441406 2.885732
v 2.725771 2.300903 2.885732
v -1.04886 -0.0002441406 3.828395
v 2.725771 2.300903 2.885732
v 2.725771 -0.0002441406 2.885732
v 2.725771 -2.301392 2.885732

vn 0 1 0
vn 0 1 0
vn 0 0.9999999 0
vn 0 1 0
vn 0.450864 0.8327223 0.3213959
vn 0 0.9999999 0
vn 0.580466 0 -0.8142844
vn 0.5804633 0 -0.8142865
vn 0.5804633 0 -0.8142865
vn 0.5804633 0 -0.8142865
vn 0.5804689 0 -0.8142825
vn 0.5804675 0 -0.8142834
vn -0.8142881 0 -0.5804609
vn -0.8142881 0 -0.5804609
vn -0.8142881 0 -0.5804609
vn -0.8142881 0 -0.5804609
vn -0.8142881 0 -0.5804609
vn -0.8142881 0 -0.5804609
vn 0.8142881 0 0.5804609
vn 0.8142881 0 0.5804609
vn 0.8142881 0 0.5804609
vn 0.8142881 0 0.5804609
vn 0.8142881 0 0.5804609
vn 0.5804716 0 -0.8142804
vn 0.5804716 0 -0.8142805
vn 0.5804716 0 -0.8142804

vt 0.4999999 0.0004996657
vt 0.9995003 0.0004995167
vt 0.9995004 0.9995002
vt 0.5000001 0.9995003
vt 0.0004997551 0.9995004
vt 0.0004995763 0.0004998147
vt 0.4999999 0.0004995465
vt 0.9995003 0.0004995465
vt 0.9995003 0.5000001
vt 0.9995003 0.9995005
vt 0.4999999 0.9995005
vt 0.4999999 0.5000001
vt 0.0004995167 0.0004995465
vt 0.4753456 0.0004995763
vt 0.4753456 0.5000001
vt 0.4753456 0.9995005
vt 0.0004995167 0.9995005
vt 0.0004995167 0.5000001
vt 0.0004995763 0.0004995763
vt 0.4753456 0.0004995465
vt 0.4753456 0.5000001
vt 0.4753456 0.9995005
vt 0.0004995763 0.5000001
vt 0.0004995763 0.9995005
vt 0.0004995763 0.5000001
vt 0.0004995763 0.0004995465

usemtl sn18_45_LAW5BOX.JPG
usemap sn18_45_LAW5BOX.JPG
f 3/3/3 1/1/1 2/2/2
f 6/6/6 4/4/4 5/5/5
f 9/9/9 7/7/7 8/8/8
f 12/12/12 10/10/10 11/11/11
f 15/15/15 13/13/13 14/14/14
f 18/18/18 16/16/16 17/17/17
f 21/21/21 19/19/19 20/20/20
f 23/23/23 22/22/22 5/5/5
f 25/25/25 11/11/11 24/24/24
f 4/4/4 6/6/6 1/1/1
f 12/12/12 26/26/26 7/7/7
f 21/21/21 22/22/22 23/23/23
f 19/19/19 21/21/21 23/23/23
f 12/12/12 11/11/11 25/25/25
f 26/26/26 12/12/12 25/25/25
f 9/9/9 10/10/10 12/12/12
f 7/7/7 9/9/9 12/12/12
f 15/15/15 16/16/16 18/18/18
f 13/13/13 15/15/15 18/18/18
f 1/1/1 3/3/3 4/4/4
