mtllib ./Box121.mtl
g Box121
v 0.5052553 11.18361 -2.278993
v -9.277267 11.18361 -4.447496
v -11.24772 11.18361 4.441544
v -1.465194 11.18361 6.610048
v 8.317328 11.18361 8.778552
v 10.28778 11.18361 -0.1104887
v 0.5052553 3.051758E-05 -2.278993
v -9.277267 3.051758E-05 -4.447496
v -9.277267 5.591812 -4.447496
v -9.277267 11.18361 -4.447496
v 0.5052553 11.18361 -2.278993
v 0.5052553 5.591812 -2.278993
v -9.277267 3.051758E-05 -4.447496
v -11.24772 3.051758E-05 4.441544
v -11.24772 5.591812 4.441544
v -9.277267 11.18361 -4.447496
v -9.277267 5.591812 -4.447496
v 8.317328 3.051758E-05 8.778552
v 10.28778 3.051758E-05 -0.1104887
v 10.28778 5.591812 -0.1104887
v 10.28778 11.18361 -0.1104887
v 8.317328 5.591812 8.778552
v 10.28778 11.18361 -0.1104887
v 10.28778 5.591812 -0.1104887
v 10.28778 3.051758E-05 -0.1104887

vn 0 1 0
vn 0 1 0
vn -0.1943163 0.8732257 -0.4468983
vn 0 1 0
vn 0.1943163 0.8732257 0.4468983
vn 0 1 0
vn 0.9170603 0 -0.3987485
vn 0.9170603 0 -0.3987485
vn 0.9170603 0 -0.3987485
vn 0.9170604 0 -0.3987486
vn 0.9170604 0 -0.3987485
vn 0.9170604 0 -0.3987486
vn -0.398748 0 -0.9170604
vn -0.398748 0 -0.9170604
vn -0.398748 0 -0.9170606
vn -0.398748 0 -0.9170604
vn -0.398748 0 -0.9170606
vn 0.398748 0 0.9170606
vn 0.398748 0 0.9170606
vn 0.398748 0 0.9170606
vn 0.398748 0 0.9170606
vn 0.398748 0 0.9170605
vn 0.9170604 0 -0.3987485
vn 0.9170604 0 -0.3987485
vn 0.9170604 0 -0.3987485

vt 0.4999999 0.0004996657
vt 0.9995003 0.0004995167
vt 0.9995004 0.9995002
vt 0.5000001 0.9995003
vt 0.0004997551 0.9995004
vt 0.0004995763 0.0004998147
vt 0.4999999 0.0004995465
vt 0.9995003 0.0004995465
vt 0.9995003 0.5000001
vt 0.9995003 0.9995005
vt 0.4999999 0.9995005
vt 0.4999999 0.5000001
vt 0.0004995167 0.0004995465
vt 0.9995002 0.0004995763
vt 0.9995002 0.5000001
vt 0.0004995167 0.9995005
vt 0.0004995167 0.5000001
vt 0.0004995763 0.0004995763
vt 0.9995002 0.0004995465
vt 0.9995002 0.5000001
vt 0.9995002 0.9995005
vt 0.0004995763 0.5000001
vt 0.0004995763 0.9995005
vt 0.0004995763 0.5000001
vt 0.0004995763 0.0004995465

usemtl sn18_25_OSH3BOX.JPG
usemap sn18_25_OSH3BOX.JPG
f 3/3/3 1/1/1 2/2/2
f 6/6/6 4/4/4 5/5/5
f 9/9/9 7/7/7 8/8/8
f 12/12/12 10/10/10 11/11/11
f 15/15/15 13/13/13 14/14/14
f 17/17/17 3/3/3 16/16/16
f 20/20/20 18/18/18 19/19/19
f 22/22/22 21/21/21 5/5/5
f 24/24/24 11/11/11 23/23/23
f 4/4/4 6/6/6 1/1/1
f 12/12/12 25/25/25 7/7/7
f 20/20/20 21/21/21 22/22/22
f 18/18/18 20/20/20 22/22/22
f 12/12/12 11/11/11 24/24/24
f 25/25/25 12/12/12 24/24/24
f 9/9/9 10/10/10 12/12/12
f 7/7/7 9/9/9 12/12/12
f 15/15/15 3/3/3 17/17/17
f 13/13/13 15/15/15 17/17/17
f 1/1/1 3/3/3 4/4/4
