mtllib ./Box155.mtl
g Box155
v -19.67963 0.6627197 -2.43588
v -55.98519 31.63837 -2.513773
v -19.67963 31.63837 -2.43588
v 26.55232 68.96457 -2.336669
v 58.30374 31.63837 -2.268539
v 26.55232 31.63837 -2.336669
v 26.55054 0.6627197 2.710947
v 58.30196 31.63837 2.779077
v 26.55054 31.63837 2.710947
v 26.55054 68.96457 2.710947
v -19.68141 31.63837 2.611736
v 58.30374 0.6627197 -2.268539
v 26.55232 0.6627197 -2.336669
v -55.98519 0.6627197 -2.513788
v -55.98519 68.96457 -2.513773
v -55.98519 101.2698 -2.513788
v -19.67963 101.2698 -2.43588
v -19.67963 68.96457 -2.43588
v 26.55232 101.2698 -2.336669
v 58.30374 101.2698 -2.268539
v 58.30374 68.96457 -2.268539
v -19.68141 0.6627197 2.611736
v 58.30196 0.6627197 2.779077
v 58.30196 68.96457 2.779077
v 58.30196 101.2698 2.779077
v 26.55054 101.2698 2.710947
v -19.68141 101.2698 2.611736
v -19.68141 68.96457 2.611736
v -55.98698 101.2698 2.533842
v -55.98698 68.96457 2.533842
v -55.98698 31.63837 2.533842
v -55.98698 0.6627197 2.533842

vn 0.9729253 1.458523E-07 -0.23112
vn 0.9729252 1.489647E-07 -0.2311202
vn 0.9729252 0 -0.2311201
vn 0.9729252 0 -0.23112
vn 0.9729252 0 -0.2311201
vn 0.9729253 0 -0.23112
vn -0.9729252 0 0.23112
vn -0.9729252 0 0.2311201
vn -0.9729252 0 0.23112
vn -0.9729252 0 0.23112
vn -0.9729252 0 0.2311201
vn 0.9729252 0 -0.2311201
vn 0.9729253 0 -0.23112
vn 0.9729253 4.774346E-07 -0.2311199
vn 0.9729252 -1.382801E-07 -0.2311203
vn 0.9729252 -2.289121E-07 -0.2311202
vn 0.9729252 0 -0.2311199
vn 0.9729253 -6.210735E-08 -0.23112
vn 0.9729253 0 -0.23112
vn 0.9729252 0 -0.2311201
vn 0.9729252 0 -0.2311201
vn -0.9729253 0 0.23112
vn -0.9729252 0 0.2311201
vn -0.9729252 0 0.2311201
vn -0.9729252 0 0.2311201
vn -0.9729252 0 0.23112
vn -0.9729252 0 0.2311202
vn -0.9729252 0 0.2311201
vn -0.9729251 0 0.2311203
vn -0.9729252 0 0.2311203
vn -0.9729252 0 0.2311203
vn -0.9729252 0 0.2311203

vt 0.682153 0.0004996061
vt 0.9995004 0.3080794
vt 0.6821529 0.3080794
vt 0.2780391 0.6787186
vt 0.0004995167 0.3080794
vt 0.2780391 0.3080794
vt 0.7219609 0.0004996061
vt 0.9995004 0.3080794
vt 0.7219609 0.3080794
vt 0.7219609 0.6787186
vt 0.317847 0.3080794
vt 0.0004995465 0.0004996061
vt 0.2780391 0.0004996061
vt 0.9995004 0.0004996061
vt 0.9995004 0.6787186
vt 0.9995004 0.9995005
vt 0.6821529 0.9995005
vt 0.6821529 0.6787186
vt 0.2780391 0.9995005
vt 0.0004995465 0.9995005
vt 0.0004995167 0.6787186
vt 0.317847 0.0004996061
vt 0.9995004 0.0004996061
vt 0.9995004 0.6787186
vt 0.9995004 0.9995005
vt 0.7219609 0.9995005
vt 0.317847 0.9995005
vt 0.317847 0.6787186
vt 0.0004995465 0.9995005
vt 0.0004995465 0.6787186
vt 0.0004995465 0.3080794
vt 0.0004995465 0.0004996061

usemtl sn18_10_SN18G20.JPG
usemap sn18_10_SN18G20.JPG
f 3/3/3 1/1/1 2/2/2
f 6/6/6 4/4/4 5/5/5
f 9/9/9 7/7/7 8/8/8
f 9/9/9 10/10/10 11/11/11
f 6/6/6 12/12/12 13/13/13
f 2/2/2 1/1/1 14/14/14
f 15/15/15 3/3/3 2/2/2
f 18/18/18 16/16/16 17/17/17
f 21/21/21 19/19/19 20/20/20
f 12/12/12 6/6/6 5/5/5
f 9/9/9 22/22/22 7/7/7
f 8/8/8 7/7/7 23/23/23
f 24/24/24 9/9/9 8/8/8
f 10/10/10 25/25/25 26/26/26
f 28/28/28 26/26/26 27/27/27
f 22/22/22 9/9/9 11/11/11
f 30/30/30 27/27/27 29/29/29
f 11/11/11 28/28/28 31/31/31
f 32/32/32 11/11/11 31/31/31
f 11/11/11 32/32/32 22/22/22
f 4/4/4 17/17/17 19/19/19
f 18/18/18 6/6/6 3/3/3
f 6/6/6 13/13/13 3/3/3
f 3/3/3 13/13/13 1/1/1
f 4/4/4 19/19/19 21/21/21
f 5/5/5 4/4/4 21/21/21
f 18/18/18 17/17/17 4/4/4
f 6/6/6 18/18/18 4/4/4
f 15/15/15 16/16/16 18/18/18
f 3/3/3 15/15/15 18/18/18
f 28/28/28 27/27/27 30/30/30
f 31/31/31 28/28/28 30/30/30
f 10/10/10 26/26/26 28/28/28
f 11/11/11 10/10/10 28/28/28
f 24/24/24 25/25/25 10/10/10
f 9/9/9 24/24/24 10/10/10
