mtllib ./Box17.mtl
g Box17
v -50.0089 40.88501 -2.664121
v -80.60226 1.770248 -2.717195
v -80.60226 40.88501 -2.717195
v -111.1956 69.27025 -2.770242
v -80.60226 108.385 -2.717195
v 0.001457284 79.99977 -2.632204
v -1.396043 108.385 -2.663589
v -1.817211 136.7702 -2.677819
v 78.78651 108.385 -2.592827
v 107.5612 69.27025 -2.585368
v 78.78651 40.88501 -2.592827
v 78.78651 1.770248 -2.592827
v 50.01189 40.88501 -2.600288
v 50.00866 40.88501 2.40077
v 78.78334 1.770248 2.408203
v 78.78334 40.88501 2.408203
v 107.558 69.27025 2.415662
v 78.78334 108.385 2.408203
v -1.820378 136.7702 2.323211
v -1.144467 108.385 2.337651
v -0.001709946 79.99977 2.368826
v -80.60548 108.385 2.283863
v -111.1988 69.27025 2.230816
v -80.60548 40.88501 2.283863
v -80.60548 1.770248 2.283863
v -50.01208 40.88501 2.336882
v 50.01025 79.99977 -0.09974479
v -0.001709946 79.99977 2.368826
v -0.000126331 79.99977 -0.131689
v -50.01049 79.99977 -0.1636061
v 0.001457284 79.99977 -2.632204
v -50.01049 79.99977 -0.1636061
v -50.01208 40.88501 2.336882
v -50.01049 40.88501 -0.1636061
v -50.01049 1.770248 -0.1636061
v -50.0089 40.88501 -2.664121
v 50.01025 1.770248 -0.09974479
v 50.00866 40.88501 2.40077
v 50.01025 40.88501 -0.09974479
v 50.01025 79.99977 -0.09974479
v 50.01189 40.88501 -2.600288
v -50.0089 79.99977 -2.664121
v -50.0089 1.770248 -2.664121
v -111.1956 1.770248 -2.770242
v -111.1956 136.7702 -2.770242
v 50.01189 79.99977 -2.600288
v 107.5612 136.7702 -2.585368
v 107.5612 1.770248 -2.585368
v 50.01189 1.770248 -2.600288
v 50.00866 79.99977 2.40077
v 50.00866 1.770248 2.40077
v 107.558 1.770248 2.415662
v 107.558 136.7702 2.415662
v -111.1988 136.7702 2.230816
v -50.01208 79.99977 2.336882
v -111.1988 1.770248 2.230816
v -50.01208 1.770248 2.336882
v 50.01189 79.99977 -2.600288
v 50.00866 79.99977 2.40077
v -50.01208 79.99977 2.336882
v -50.0089 79.99977 -2.664121
v -50.0089 79.99977 -2.664121
v -50.01208 79.99977 2.336882
v -50.01208 1.770248 2.336882
v -50.0089 1.770248 -2.664121
v 50.01189 1.770248 -2.600288
v 50.00866 1.770248 2.40077
v 50.00866 79.99977 2.40077
v 50.01189 79.99977 -2.600288

vn -0.8863457 0 -0.4630242
vn -0.8863457 0 -0.463024
vn -0.8863459 0 -0.4630237
vn -0.8863461 0 -0.4630235
vn -0.8865869 -0.0005491131 -0.4625617
vn -0.8868445 -0.001103465 -0.4620668
vn -0.8867869 -0.0007783303 -0.4621777
vn -0.8867525 -0.0005271286 -0.4622443
vn -0.8868683 -0.000325834 -0.4620221
vn -0.8870279 0 -0.4617159
vn -0.8870279 0 -0.4617159
vn -0.8870279 0 -0.4617159
vn -0.8870279 0 -0.4617159
vn 0.8870282 0 0.4617149
vn 0.8870282 0 0.4617153
vn 0.887028 0 0.4617154
vn 0.8870279 0 0.4617159
vn 0.8868685 0.0003256933 0.4620218
vn 0.8867526 0.0005269646 0.4622443
vn 0.8867869 0.0007785638 0.4621776
vn 0.8868443 0.001101647 0.4620671
vn 0.8865873 0.0005492067 0.462561
vn 0.886346 0 0.4630234
vn 0.8863462 0 0.463023
vn 0.8863463 0 0.4630228
vn 0.8863465 0 0.4630225
vn 0 -1 0
vn 0 -1 0
vn 0 -1 0
vn 0 -0.9999999 0
vn 0 -1 0
vn 0.462051 0 -0.8868533
vn 0.4620529 0 -0.8868524
vn 0.4620501 0 -0.8868538
vn 0.4620492 0 -0.8868542
vn 0.4620474 0 -0.8868551
vn -0.4620542 0 0.8868516
vn -0.4620474 0 0.8868551
vn -0.4620576 0 0.8868499
vn -0.462061 0 0.8868482
vn -0.4620678 0 0.8868446
vn -0.8864995 -0.0003584085 -0.4627295
vn -0.8863456 0 -0.4630241
vn -0.886346 0 -0.4630234
vn -0.8866662 -0.0005498909 -0.4624095
vn -0.8868942 -0.0004380842 -0.4619724
vn -0.8868613 -0.0003654312 -0.4620355
vn -0.8870278 0 -0.4617158
vn -0.8870279 0 -0.4617159
vn 0.8868945 0.0004379128 0.4619719
vn 0.8870282 0 0.4617149
vn 0.8870278 0 0.4617158
vn 0.8868613 0.0003654274 0.4620355
vn 0.8866665 0.0005503577 0.462409
vn 0.8864999 0.0003576395 0.4627285
vn 0.886346 0 0.4630234
vn 0.8863464 0 0.4630226
vn 0 -1 0
vn 0 -1 0
vn 0 -0.9999999 0
vn 0 -0.9999999 0
vn 0.4620475 0 -0.8868552
vn 0.4620529 0 -0.8868524
vn 0.4620529 0 -0.8868524
vn 0.4620475 0 -0.8868552
vn -0.4620678 0 0.8868446
vn -0.4620475 0 0.8868552
vn -0.4620475 0 0.8868552
vn -0.4620678 0 0.8868446

vt 1.440156 0.289949
vt 1.719579 0.0004995167
vt 1.719579 0.289949
vt 1.999002 0.5
vt 1.719579 0.7894495
vt 0.9833888 0.5793985
vt 0.9961531 0.7894496
vt 1 0.9995005
vt 0.2638102 0.7894495
vt 0.0009986162 0.5
vt 0.2638102 0.289949
vt 0.2638102 0.0004995167
vt 0.5266218 0.289949
vt 1.473378 0.289949
vt 1.73619 0.0004995167
vt 1.73619 0.289949
vt 1.999002 0.5
vt 1.73619 0.7894495
vt 1 0.9995005
vt 1.006174 0.7894495
vt 1.016611 0.5793985
vt 0.2804213 0.7894495
vt 0.0009983778 0.5
vt 0.2804213 0.289949
vt 0.2804213 0.0004995167
vt 0.5598441 0.289949
vt 1.473378 0.5001532
vt 1.016611 0.5115723
vt 1.016611 0.5001531
vt 0.5598441 0.5001531
vt 1.016611 0.4887339
vt 0.9996939 0.5793985
vt 0.9768555 0.289949
vt 0.9996939 0.289949
vt 0.9996939 0.0004995167
vt 1.022532 0.289949
vt 1.000306 0.0004995167
vt 1.023145 0.289949
vt 1.000306 0.289949
vt 1.000306 0.5793985
vt 0.977468 0.289949
vt 1.440156 0.5793985
vt 1.440156 0.0004995167
vt 1.999002 0.0004995167
vt 1.999002 0.9995005
vt 0.5266218 0.5793985
vt 0.0009986162 0.9995005
vt 0.0009986162 0.0004995167
vt 0.5266218 0.0004995167
vt 1.473378 0.5793985
vt 1.473378 0.0004995167
vt 1.999002 0.0004995167
vt 1.999002 0.9995005
vt 0.0009983778 0.9995005
vt 0.5598441 0.5793985
vt 0.0009983778 0.0004995167
vt 0.5598441 0.0004995167
vt 1.473378 0.488734
vt 1.473378 0.5115724
vt 0.5598441 0.5115722
vt 0.5598441 0.4887339
vt 1.022532 0.5793985
vt 0.9768555 0.5793985
vt 0.9768555 0.0004995167
vt 1.022532 0.0004995167
vt 0.977468 0.0004995167
vt 1.023145 0.0004995167
vt 1.023145 0.5793985
vt 0.977468 0.5793985

usemtl sn18_17_SN18G21.JPG
usemap sn18_17_SN18G21.JPG
f 3/3/3 1/1/1 2/2/2
f 5/5/5 3/3/3 4/4/4
f 7/7/7 6/6/6 5/5/5
f 9/9/9 7/7/7 8/8/8
f 11/11/11 9/9/9 10/10/10
f 13/13/13 11/11/11 12/12/12
f 16/16/16 14/14/14 15/15/15
f 18/18/18 16/16/16 17/17/17
f 20/20/20 18/18/18 19/19/19
f 22/22/22 21/21/21 20/20/20
f 24/24/24 22/22/22 23/23/23
f 26/26/26 24/24/24 25/25/25
f 29/29/29 27/27/27 28/28/28
f 29/29/29 30/30/30 31/31/31
f 34/34/34 32/32/32 33/33/33
f 34/34/34 35/35/35 36/36/36
f 39/39/39 37/37/37 38/38/38
f 39/39/39 40/40/40 41/41/41
f 3/3/3 42/42/42 1/1/1
f 2/2/2 1/1/1 43/43/43
f 44/44/44 3/3/3 2/2/2
f 5/5/5 42/42/42 3/3/3
f 4/4/4 3/3/3 44/44/44
f 45/45/45 5/5/5 4/4/4
f 7/7/7 46/46/46 6/6/6
f 5/5/5 6/6/6 42/42/42
f 45/45/45 7/7/7 5/5/5
f 9/9/9 46/46/46 7/7/7
f 8/8/8 7/7/7 45/45/45
f 47/47/47 9/9/9 8/8/8
f 11/11/11 46/46/46 9/9/9
f 10/10/10 9/9/9 47/47/47
f 48/48/48 11/11/11 10/10/10
f 13/13/13 46/46/46 11/11/11
f 12/12/12 11/11/11 48/48/48
f 49/49/49 13/13/13 12/12/12
f 16/16/16 50/50/50 14/14/14
f 15/15/15 14/14/14 51/51/51
f 52/52/52 16/16/16 15/15/15
f 18/18/18 50/50/50 16/16/16
f 17/17/17 16/16/16 52/52/52
f 53/53/53 18/18/18 17/17/17
f 20/20/20 50/50/50 18/18/18
f 19/19/19 18/18/18 53/53/53
f 54/54/54 20/20/20 19/19/19
f 22/22/22 55/55/55 21/21/21
f 20/20/20 21/21/21 50/50/50
f 54/54/54 22/22/22 20/20/20
f 24/24/24 55/55/55 22/22/22
f 23/23/23 22/22/22 54/54/54
f 56/56/56 24/24/24 23/23/23
f 26/26/26 55/55/55 24/24/24
f 25/25/25 24/24/24 56/56/56
f 57/57/57 26/26/26 25/25/25
f 29/29/29 58/58/58 27/27/27
f 28/28/28 27/27/27 59/59/59
f 60/60/60 29/29/29 28/28/28
f 29/29/29 60/60/60 30/30/30
f 31/31/31 30/30/30 61/61/61
f 58/58/58 29/29/29 31/31/31
f 34/34/34 62/62/62 32/32/32
f 33/33/33 32/32/32 63/63/63
f 64/64/64 34/34/34 33/33/33
f 34/34/34 64/64/64 35/35/35
f 36/36/36 35/35/35 65/65/65
f 62/62/62 34/34/34 36/36/36
f 39/39/39 66/66/66 37/37/37
f 38/38/38 37/37/37 67/67/67
f 68/68/68 39/39/39 38/38/38
f 39/39/39 68/68/68 40/40/40
f 41/41/41 40/40/40 69/69/69
f 66/66/66 39/39/39 41/41/41
