mtllib ./Box20.mtl
g Box20
v -50.01229 40.88501 -2.600049
v -80.76073 1.770248 -2.559673
v -80.76073 40.88501 -2.559673
v -111.5092 69.27025 -2.519297
v -80.76073 108.385 -2.559673
v -0.001856958 79.99977 -2.631965
v -0.9221975 108.385 -2.607241
v -1.832421 136.7702 -2.564256
v 78.92645 108.385 -2.636548
v 107.8444 69.27025 -2.609186
v 78.92645 40.88501 -2.636548
v 78.92645 1.770248 -2.636548
v 50.0085 40.88501 -2.663882
v 50.01168 40.88501 2.337121
v 78.92962 1.770248 2.364483
v 78.92962 40.88501 2.364483
v 107.8475 69.27025 2.391844
v 78.92962 108.385 2.364483
v -1.8292 136.7702 2.436802
v -0.45388 108.385 2.39382
v 0.001310271 79.99977 2.369066
v -80.75751 108.385 2.441386
v -111.506 69.27025 2.481761
v -80.75751 40.88501 2.441386
v -80.75751 1.770248 2.441386
v -50.00906 40.88501 2.40101
v 50.0085 79.99977 -2.663882
v 50.01168 79.99977 2.337121
v 0.001310271 79.99977 2.369066
v -50.00906 79.99977 2.40101
v -50.01229 79.99977 -2.600049
v -0.001856958 79.99977 -2.631965
v -50.01229 79.99977 -2.600049
v -50.00906 79.99977 2.40101
v -50.00906 40.88501 2.40101
v -50.00906 1.770248 2.40101
v -50.01229 1.770248 -2.600049
v -50.01229 40.88501 -2.600049
v 50.0085 1.770248 -2.663882
v 50.01168 1.770248 2.337121
v 50.01168 40.88501 2.337121
v 50.01168 79.99977 2.337121
v 50.0085 79.99977 -2.663882
v 50.0085 40.88501 -2.663882
v -50.01229 79.99977 -2.600049
v -50.01229 1.770248 -2.600049
v -111.5092 1.770248 -2.519297
v -111.5092 136.7702 -2.519297
v 50.0085 79.99977 -2.663882
v 107.8444 136.7702 -2.609186
v 107.8444 1.770248 -2.609186
v 50.0085 1.770248 -2.663882
v 50.01168 79.99977 2.337121
v 50.01168 1.770248 2.337121
v 107.8475 1.770248 2.391844
v 107.8475 136.7702 2.391844
v -111.506 136.7702 2.481761
v -50.00906 79.99977 2.40101
v -111.506 1.770248 2.481761
v -50.00906 1.770248 2.40101

vn 0.8865408 0 -0.4626504
vn 0.8865408 0 -0.4626504
vn 0.8865408 0 -0.4626503
vn 0.8865408 0 -0.4626504
vn 0.8867005 0.0003882904 -0.4623439
vn 0.8868611 0.0008177699 -0.462035
vn 0.8869247 0.001177158 -0.4619126
vn 0.8869627 0.001457608 -0.4618388
vn 0.8872361 0.0007951257 -0.4613149
vn 0.8875839 0 -0.4606463
vn 0.8875836 0 -0.4606467
vn 0.8875836 0 -0.4606469
vn 0.8875834 0 -0.4606471
vn -0.8875839 0 0.4606463
vn -0.8875839 0 0.4606463
vn -0.8875839 0 0.4606463
vn -0.8875839 0 0.4606463
vn -0.8872363 -0.000793513 0.4613146
vn -0.8869622 -0.001453478 0.4618395
vn -0.8869245 -0.001177642 0.4619126
vn -0.8868618 -0.0008257425 0.4620339
vn -0.8867015 -0.0003918821 0.4623421
vn -0.8865408 0 0.4626504
vn -0.8865408 0 0.4626503
vn -0.8865408 0 0.4626503
vn -0.8865408 0 0.4626503
vn 0 -1 0
vn 0 -0.9999999 0
vn 0 -1 0
vn 0 -0.9999999 0
vn 0 -1 0
vn 0 -1 0
vn 0.4620576 0 0.8868498
vn 0.4620576 0 0.8868499
vn 0.4620576 0 0.8868499
vn 0.4620576 0 0.8868498
vn 0.4620576 0 0.8868499
vn 0.4620576 0 0.8868499
vn -0.4620502 0 -0.8868538
vn -0.4620502 0 -0.8868538
vn -0.4620502 0 -0.8868538
vn -0.4620502 0 -0.8868538
vn -0.4620502 0 -0.8868538
vn -0.4620502 0 -0.8868538
vn 0.8866351 0.0002209194 -0.4624696
vn 0.8865408 0 -0.4626503
vn 0.8865408 0 -0.4626503
vn 0.8868157 0.0008631085 -0.4621224
vn 0.8872275 0.0006259475 -0.4613315
vn 0.8871993 0.0008489714 -0.4613856
vn 0.8875838 0 -0.4606462
vn 0.8875834 0 -0.4606471
vn -0.8872278 -0.0006281634 0.4613311
vn -0.8875839 0 0.4606463
vn -0.8875838 0 0.4606462
vn -0.8871992 -0.000849132 0.4613857
vn -0.8868162 -0.0008612694 0.4621212
vn -0.8866351 -0.0002207349 0.4624698
vn -0.8865408 0 0.4626503
vn -0.8865408 0 0.4626504

vt 1.438851 0.289949
vt 1.718927 0.0004995167
vt 1.718927 0.289949
vt 1.999002 0.5
vt 1.718927 0.7894495
vt 0.9833261 0.5793985
vt 0.9917092 0.7894495
vt 1 0.9995005
vt 0.2643995 0.7894495
vt 0.0009977818 0.5
vt 0.2643995 0.289949
vt 0.2643995 0.0004995167
vt 0.5278013 0.289949
vt 1.472199 0.289949
vt 1.7356 0.0004995167
vt 1.7356 0.289949
vt 1.999002 0.5
vt 1.7356 0.7894495
vt 1 0.9995005
vt 1.012528 0.7894495
vt 1.016674 0.5793985
vt 0.2810735 0.7894495
vt 0.0009980202 0.5
vt 0.2810735 0.289949
vt 0.2810735 0.0004995167
vt 0.561149 0.289949
vt 1.472199 0.4884033
vt 1.472199 0.5111795
vt 1.016674 0.5111794
vt 0.561149 0.5111794
vt 0.561149 0.4884032
vt 1.016674 0.4884032
vt 1.023194 0.5793985
vt 0.9776412 0.5793985
vt 0.9776412 0.289949
vt 0.9776412 0.0004995167
vt 1.023194 0.0004995167
vt 1.023194 0.289949
vt 0.9768066 0.0004995167
vt 1.022359 0.0004995167
vt 1.022359 0.289949
vt 1.022359 0.5793985
vt 0.9768066 0.5793985
vt 0.9768066 0.289949
vt 1.438851 0.5793985
vt 1.438851 0.0004995167
vt 1.999002 0.0004995167
vt 1.999002 0.9995005
vt 0.5278013 0.5793985
vt 0.0009977818 0.9995005
vt 0.0009977818 0.0004995167
vt 0.5278013 0.0004995167
vt 1.472199 0.5793985
vt 1.472199 0.0004995167
vt 1.999002 0.0004995167
vt 1.999002 0.9995005
vt 0.0009980202 0.9995005
vt 0.561149 0.5793985
vt 0.0009980202 0.0004995167
vt 0.561149 0.0004995167

usemtl sn18_17_SN18G21.JPG
usemap sn18_17_SN18G21.JPG
f 3/3/3 1/1/1 2/2/2
f 5/5/5 3/3/3 4/4/4
f 7/7/7 6/6/6 5/5/5
f 9/9/9 7/7/7 8/8/8
f 11/11/11 9/9/9 10/10/10
f 13/13/13 11/11/11 12/12/12
f 16/16/16 14/14/14 15/15/15
f 18/18/18 16/16/16 17/17/17
f 20/20/20 18/18/18 19/19/19
f 22/22/22 21/21/21 20/20/20
f 24/24/24 22/22/22 23/23/23
f 26/26/26 24/24/24 25/25/25
f 29/29/29 27/27/27 28/28/28
f 32/32/32 30/30/30 31/31/31
f 35/35/35 33/33/33 34/34/34
f 38/38/38 36/36/36 37/37/37
f 41/41/41 39/39/39 40/40/40
f 44/44/44 42/42/42 43/43/43
f 3/3/3 45/45/45 1/1/1
f 2/2/2 1/1/1 46/46/46
f 47/47/47 3/3/3 2/2/2
f 5/5/5 45/45/45 3/3/3
f 4/4/4 3/3/3 47/47/47
f 48/48/48 5/5/5 4/4/4
f 7/7/7 49/49/49 6/6/6
f 5/5/5 6/6/6 45/45/45
f 48/48/48 7/7/7 5/5/5
f 9/9/9 49/49/49 7/7/7
f 8/8/8 7/7/7 48/48/48
f 50/50/50 9/9/9 8/8/8
f 11/11/11 49/49/49 9/9/9
f 10/10/10 9/9/9 50/50/50
f 51/51/51 11/11/11 10/10/10
f 13/13/13 49/49/49 11/11/11
f 12/12/12 11/11/11 51/51/51
f 52/52/52 13/13/13 12/12/12
f 16/16/16 53/53/53 14/14/14
f 15/15/15 14/14/14 54/54/54
f 55/55/55 16/16/16 15/15/15
f 18/18/18 53/53/53 16/16/16
f 17/17/17 16/16/16 55/55/55
f 56/56/56 18/18/18 17/17/17
f 20/20/20 53/53/53 18/18/18
f 19/19/19 18/18/18 56/56/56
f 57/57/57 20/20/20 19/19/19
f 22/22/22 58/58/58 21/21/21
f 20/20/20 21/21/21 53/53/53
f 57/57/57 22/22/22 20/20/20
f 24/24/24 58/58/58 22/22/22
f 23/23/23 22/22/22 57/57/57
f 59/59/59 24/24/24 23/23/23
f 26/26/26 58/58/58 24/24/24
f 25/25/25 24/24/24 59/59/59
f 60/60/60 26/26/26 25/25/25
f 30/30/30 27/27/27 29/29/29
f 27/27/27 30/30/30 32/32/32
f 36/36/36 33/33/33 35/35/35
f 33/33/33 36/36/36 38/38/38
f 42/42/42 39/39/39 41/41/41
f 39/39/39 42/42/42 44/44/44
