mtllib ./Box41.mtl
g Box41
v 3.761086 2.521179 0.5338117
v 3.755031 2.521179 -15.65674
v 0.0004762359 2.521179 0.5352247
v -0.005582509 2.521179 -15.65534
v -3.760134 2.521179 0.5366377
v -3.766192 2.521179 -15.65393
v 3.76674 2.521179 15.6531
v 0.006126759 2.521179 15.6545
v -3.754483 2.521179 15.65591
v -0.005582509 1.826294 -15.65534
v 3.755031 1.826294 -15.65674
v 0.0004762359 1.826294 0.5352247
v 3.761086 1.826294 0.5338117
v -3.766192 1.826294 -15.65393
v -3.760134 1.826294 0.5366377
v 0.006126759 1.826294 15.6545
v 3.76674 1.826294 15.6531
v -3.754483 1.826294 15.65591
v -0.005582509 2.521179 -15.65534
v 3.755031 2.521179 -15.65674
v -0.005582509 1.826294 -15.65534
v 3.755031 1.826294 -15.65674
v -3.766192 2.521179 -15.65393
v -3.766192 1.826294 -15.65393
v -3.760134 2.521179 0.5366377
v -3.766192 2.521179 -15.65393
v -3.760134 1.826294 0.5366377
v -3.766192 1.826294 -15.65393
v -3.754483 2.521179 15.65591
v -3.754483 1.826294 15.65591
v 0.006126759 2.521179 15.6545
v -3.754483 2.521179 15.65591
v 0.006126759 1.826294 15.6545
v -3.754483 1.826294 15.65591
v 3.76674 2.521179 15.6531
v 3.76674 1.826294 15.6531
v 3.761086 2.521179 0.5338117
v 3.76674 2.521179 15.6531
v 3.761086 1.826294 0.5338117
v 3.76674 1.826294 15.6531
v 3.755031 2.521179 -15.65674
v 3.755031 1.826294 -15.65674
v 3.735303 -2.520569 15.38739
v 3.735303 2.098999 15.38739
v -3.50473 2.098999 15.39011
v -3.50473 -2.520569 15.39011
v 3.735001 -2.520569 14.6347
v -3.505031 -2.520569 14.63742
v -3.505031 2.098999 14.63742
v 3.735001 2.098999 14.6347
v 3.735303 -2.520569 15.38739
v -3.50473 -2.520569 15.39011
v -3.505031 -2.520569 14.63742
v 3.735001 -2.520569 14.6347
v -3.50473 -2.520569 15.39011
v -3.50473 2.098999 15.39011
v -3.505031 2.098999 14.63742
v -3.505031 -2.520569 14.63742
v -3.50473 2.098999 15.39011
v 3.735303 2.098999 15.38739
v 3.735001 2.098999 14.6347
v -3.505031 2.098999 14.63742
v 3.735303 2.098999 15.38739
v 3.735303 -2.520569 15.38739
v 3.735001 -2.520569 14.6347
v 3.735001 2.098999 14.6347
v 3.723988 -2.520569 -14.79528
v 3.723988 2.098999 -14.79528
v -3.516045 2.098999 -14.79256
v -3.516045 -2.520569 -14.79256
v 3.723673 -2.520569 -15.56843
v -3.516301 -2.520569 -15.56572
v -3.516301 2.098999 -15.56572
v 3.723673 2.098999 -15.56843
v 3.723988 -2.520569 -14.79528
v -3.516045 -2.520569 -14.79256
v -3.516301 -2.520569 -15.56572
v 3.723673 -2.520569 -15.56843
v -3.516045 -2.520569 -14.79256
v -3.516045 2.098999 -14.79256
v -3.516301 2.098999 -15.56572
v -3.516301 -2.520569 -15.56572
v -3.516045 2.098999 -14.79256
v 3.723988 2.098999 -14.79528
v 3.723673 2.098999 -15.56843
v -3.516301 2.098999 -15.56572
v 3.723988 2.098999 -14.79528
v 3.723988 -2.520569 -14.79528
v 3.723673 -2.520569 -15.56843
v 3.723673 2.098999 -15.56843

vn 0 1 0
vn 0 1 0
vn 0 1 0
vn 0 1 0
vn 0 1 0
vn 0 1 0
vn 0 1 0
vn 0 0.9999999 0
vn 0 1 0
vn 0 -1 0
vn 0 -1 0
vn 0 -1 0
vn 0 -1 0
vn 0 -1 0
vn 0 -1 0
vn 0 -0.9999999 0
vn 0 -1 0
vn 0 -1 0
vn 0.241703 0 -0.9703503
vn 0.2417054 0 -0.9703496
vn 0.2417042 0 -0.9703498
vn 0.2417054 0 -0.9703496
vn 0.2417017 0 -0.9703506
vn 0.2417017 0 -0.9703506
vn -0.9703502 0 -0.2417034
vn -0.9703503 0 -0.2417031
vn -0.9703503 0 -0.2417032
vn -0.9703503 0 -0.2417031
vn -0.9703501 0 -0.2417035
vn -0.9703501 0 -0.2417035
vn -0.2417042 0 0.97035
vn -0.2417017 0 0.9703506
vn -0.241703 0 0.9703503
vn -0.2417017 0 0.9703506
vn -0.2417054 0 0.9703496
vn -0.2417054 0 0.9703496
vn 0.9703503 0 0.2417033
vn 0.9703502 0 0.2417033
vn 0.9703503 0 0.2417033
vn 0.9703502 0 0.2417033
vn 0.9703502 0 0.2417033
vn 0.9703502 0 0.2417033
vn -0.2417015 0 0.9703506
vn -0.2417015 0 0.9703506
vn -0.2417015 0 0.9703506
vn -0.2417015 0 0.9703506
vn 0.2417015 0 -0.9703506
vn 0.2417015 0 -0.9703506
vn 0.2417015 0 -0.9703506
vn 0.2417015 0 -0.9703506
vn 0 -1 0
vn 0 -1 0
vn 0 -1 0
vn 0 -1 0
vn -0.9703566 0 -0.2416774
vn -0.9703566 0 -0.2416774
vn -0.9703566 0 -0.2416774
vn -0.9703566 0 -0.2416774
vn 0 1 0
vn 0 1 0
vn 0 1 0
vn 0 1 0
vn 0.9703567 0 0.241677
vn 0.9703567 0 0.241677
vn 0.9703567 0 0.241677
vn 0.9703567 0 0.241677
vn -0.2417015 0 0.9703506
vn -0.2417015 0 0.9703506
vn -0.2417015 0 0.9703506
vn -0.2417015 0 0.9703506
vn 0.2417036 0 -0.9703502
vn 0.2417036 0 -0.9703502
vn 0.2417036 0 -0.9703502
vn 0.2417036 0 -0.9703502
vn 0 -1 0
vn 0 -1 0
vn 0 -1 0
vn 0 -1 0
vn -0.9703398 0 -0.2417451
vn -0.9703398 0 -0.2417451
vn -0.9703398 0 -0.2417451
vn -0.9703398 0 -0.2417451
vn 0 1 0
vn 0 1 0
vn 0 1 0
vn 0 1 0
vn 0.9703583 0 0.2416709
vn 0.9703583 0 0.2416709
vn 0.9703583 0 0.2416709
vn 0.9703583 0 0.2416709

vt 0.0004999936 0.5
vt 0.0004994869 0.0004996061
vt 0.178744 0.4975846
vt 0.1787435 -0.001915883
vt 0.383558 0.4975845
vt 0.3835575 -0.001915912
vt 0.0005005002 0.9995005
vt 0.1787444 0.9970849
vt 0.3835585 0.9970849
vt 0.1787435 -0.001915883
vt 0.0004994869 0.0004996061
vt 0.178744 0.4975846
vt 0.0004999936 0.5
vt 0.3835575 -0.001915912
vt 0.383558 0.4975845
vt 0.1787444 0.9970849
vt 0.0005005002 0.9995005
vt 0.3835585 0.9970849
vt 0.0005179232 0.504359
vt -0.003840994 0.004878041
vt 0.3907852 0.5028875
vt 0.3864263 0.003406575
vt 0.004876841 1.00384
vt 0.3951441 1.002369
vt 0.0005185752 0.4956411
vt 0.004877481 -0.003840301
vt 0.3883703 0.4971125
vt 0.3927292 -0.002368866
vt -0.00384033 0.9951225
vt 0.3840114 0.996594
vt 0.0005179232 0.504359
vt -0.003840994 0.004878041
vt 0.3907852 0.5028875
vt 0.3864263 0.003406575
vt 0.004876841 1.00384
vt 0.3951441 1.002369
vt 0.0005185752 0.4956411
vt 0.004877481 -0.003840301
vt 0.3883703 0.4971125
vt 0.3927292 -0.002368866
vt -0.00384033 0.9951225
vt 0.3840114 0.996594
vt 0.9656841 0.6985676
vt 0.965684 0.9995005
vt 0.5439777 0.9970845
vt 0.5439779 0.6961516
vt 0.5439777 0.6961522
vt 0.965684 0.698567
vt 0.9656841 0.9995
vt 0.5439779 0.997085
vt 0.5439777 0.6961517
vt 0.965684 0.6985672
vt 0.965684 0.9995004
vt 0.5439777 0.9970849
vt 0.5439777 0.6961517
vt 0.9656836 0.6985672
vt 0.9656836 0.9995004
vt 0.5439777 0.9970849
vt 0.5439777 0.6961517
vt 0.965684 0.6985672
vt 0.965684 0.9995004
vt 0.5439777 0.9970849
vt 0.5439777 0.6961517
vt 0.9656836 0.6985672
vt 0.9656836 0.9995004
vt 0.5439777 0.9970849
vt 0.9632686 0.6985677
vt 0.960853 0.997085
vt 0.5439777 0.9970844
vt 0.5463933 0.6985672
vt 0.5463932 0.6985677
vt 0.9632685 0.6985672
vt 0.9608532 0.9970844
vt 0.5439779 0.997085
vt 0.5463932 0.6985672
vt 0.9632685 0.6985672
vt 0.960853 0.997085
vt 0.5439777 0.997085
vt 0.5463933 0.6985672
vt 0.963268 0.6985672
vt 0.9608526 0.997085
vt 0.5439778 0.997085
vt 0.5463932 0.6985672
vt 0.9632685 0.6985672
vt 0.960853 0.997085
vt 0.5439777 0.997085
vt 0.5463932 0.6985672
vt 0.963268 0.6985672
vt 0.9608526 0.997085
vt 0.5439777 0.997085

usemtl sn18_32_QKZ2.JPG
usemap sn18_32_QKZ2.JPG
f 3/3/3 1/1/1 2/2/2
f 2/2/2 4/4/4 3/3/3
f 5/5/5 3/3/3 4/4/4
f 4/4/4 6/6/6 5/5/5
f 8/8/8 7/7/7 1/1/1
f 1/1/1 3/3/3 8/8/8
f 9/9/9 8/8/8 3/3/3
f 3/3/3 5/5/5 9/9/9
f 12/12/12 10/10/10 11/11/11
f 11/11/11 13/13/13 12/12/12
f 15/15/15 14/14/14 10/10/10
f 10/10/10 12/12/12 15/15/15
f 16/16/16 12/12/12 13/13/13
f 13/13/13 17/17/17 16/16/16
f 18/18/18 15/15/15 12/12/12
f 12/12/12 16/16/16 18/18/18
f 21/21/21 19/19/19 20/20/20
f 20/20/20 22/22/22 21/21/21
f 24/24/24 23/23/23 19/19/19
f 19/19/19 21/21/21 24/24/24
f 27/27/27 25/25/25 26/26/26
f 26/26/26 28/28/28 27/27/27
f 30/30/30 29/29/29 25/25/25
f 25/25/25 27/27/27 30/30/30
f 33/33/33 31/31/31 32/32/32
f 32/32/32 34/34/34 33/33/33
f 36/36/36 35/35/35 31/31/31
f 31/31/31 33/33/33 36/36/36
f 39/39/39 37/37/37 38/38/38
f 38/38/38 40/40/40 39/39/39
f 42/42/42 41/41/41 37/37/37
f 37/37/37 39/39/39 42/42/42
f 45/45/45 43/43/43 44/44/44
f 43/43/43 45/45/45 46/46/46
f 49/49/49 47/47/47 48/48/48
f 47/47/47 49/49/49 50/50/50
f 53/53/53 51/51/51 52/52/52
f 51/51/51 53/53/53 54/54/54
f 57/57/57 55/55/55 56/56/56
f 55/55/55 57/57/57 58/58/58
f 61/61/61 59/59/59 60/60/60
f 59/59/59 61/61/61 62/62/62
f 65/65/65 63/63/63 64/64/64
f 63/63/63 65/65/65 66/66/66
f 69/69/69 67/67/67 68/68/68
f 67/67/67 69/69/69 70/70/70
f 73/73/73 71/71/71 72/72/72
f 71/71/71 73/73/73 74/74/74
f 77/77/77 75/75/75 76/76/76
f 75/75/75 77/77/77 78/78/78
f 81/81/81 79/79/79 80/80/80
f 79/79/79 81/81/81 82/82/82
f 85/85/85 83/83/83 84/84/84
f 83/83/83 85/85/85 86/86/86
f 89/89/89 87/87/87 88/88/88
f 87/87/87 89/89/89 90/90/90
