mtllib ./Box75.mtl
g Box75
v 49.99335 49.99953 -7.528674
v -50.00276 49.99953 -7.470618
v -49.99403 49.99953 7.528809
v 50.00206 49.99953 7.470741
v 49.99335 -0.0004730225 -7.528674
v -50.00276 -0.0004730225 -7.470618
v -50.00276 49.99953 -7.470618
v 49.99335 49.99953 -7.528674
v -50.00276 -0.0004730225 -7.470618
v -49.99403 -0.0004730225 7.528809
v -49.99403 49.99953 7.528809
v -50.00276 49.99953 -7.470618
v -49.99403 -0.0004730225 7.528809
v 50.00206 -0.0004730225 7.470741
v 50.00206 49.99953 7.470741
v -49.99403 49.99953 7.528809
v 50.00206 -0.0004730225 7.470741
v 49.99335 -0.0004730225 -7.528674
v 49.99335 49.99953 -7.528674
v 50.00206 49.99953 7.470741

vn 0 1 0
vn 0 1 0
vn 0 1 0
vn 0 1 0
vn -0.3585642 0 -0.9335051
vn -0.3585642 0 -0.9335051
vn -0.3585642 0 -0.9335051
vn -0.3585642 0 -0.9335051
vn -0.9335045 0 0.3585659
vn -0.9335045 0 0.3585659
vn -0.9335045 0 0.3585659
vn -0.9335045 0 0.3585659
vn 0.3585643 0 0.9335051
vn 0.3585643 0 0.9335051
vn 0.3585643 0 0.9335051
vn 0.3585643 0 0.9335051
vn 0.9335052 0 -0.358564
vn 0.9335052 0 -0.358564
vn 0.9335052 0 -0.358564
vn 0.9335052 0 -0.358564

vt 0.0009989142 0.8072812
vt 1.999001 0.807281
vt 1.999001 0.9988738
vt 0.0009989738 0.9988741
vt 0.0009989142 0.0004995167
vt 1.999001 0.0004995167
vt 1.999001 0.9995005
vt 0.0009989142 0.9995005
vt 0.8501496 0.0004995167
vt 1.14985 0.0004995167
vt 1.14985 0.9995005
vt 0.8501496 0.9995005
vt 0.0009989738 0.0004995167
vt 1.999001 0.0004995167
vt 1.999001 0.9995005
vt 0.0009989738 0.9995005
vt 0.8501496 0.0004995167
vt 1.14985 0.0004995167
vt 1.14985 0.9995005
vt 0.8501496 0.9995005

usemtl sn18_21_SN18G11.JPG
usemap sn18_21_SN18G11.JPG
f 3/3/3 1/1/1 2/2/2
f 1/1/1 3/3/3 4/4/4
f 7/7/7 5/5/5 6/6/6
f 5/5/5 7/7/7 8/8/8
f 11/11/11 9/9/9 10/10/10
f 9/9/9 11/11/11 12/12/12
f 15/15/15 13/13/13 14/14/14
f 13/13/13 15/15/15 16/16/16
f 19/19/19 17/17/17 18/18/18
f 17/17/17 19/19/19 20/20/20
