mtllib ./Cylinder18.mtl
g Cylinder18
v -1.545349 0.0004272461 -4.755066
v 1.544861 0.0004272461 -4.755066
v 4.044861 0.0004272461 -2.938721
v 4.999756 0.0004272461 0.000213623
v 4.044861 0.0004272461 2.939148
v 1.544861 0.0004272461 4.755493
v -1.545349 0.0004272461 4.755493
v -4.045349 0.0004272461 2.939148
v -5.000244 0.0004272461 0.000213623
v -4.045349 0.0004272461 -2.938721
v -4.045349 51.88721 2.939148
v -5.000244 51.88721 0.000213623
v -1.545349 51.88721 4.755493
v -1.545349 0.0004272461 4.755493
v 1.544861 0.0004272461 4.755493
v 1.544861 51.88721 4.755493
v -1.545349 51.88721 4.755493
v 4.044861 0.0004272461 2.939148
v 4.044861 51.88721 2.939148
v 4.999756 0.0004272461 0.000213623
v 4.999756 51.88721 0.000213623
v 4.044861 0.0004272461 -2.938721
v 4.044861 51.88721 -2.938721
v 1.544861 0.0004272461 -4.755066
v 1.544861 51.88721 -4.755066
v -1.545349 0.0004272461 -4.755066
v -1.545349 51.88721 -4.755066
v -4.045349 0.0004272461 -2.938721
v -4.045349 51.88721 -2.938721
v -4.045349 74.61786 2.939148
v -5.000244 74.13254 0.000213623
v -1.545349 75.62222 4.755493
v 1.544861 76.76202 4.755493
v -1.545349 75.62222 4.755493
v 4.044861 77.60187 2.939148
v 4.999756 77.82098 0.000213623
v 4.044861 77.33566 -2.938721
v 1.544861 76.3313 -4.755066
v -1.545349 75.1915 -4.755066
v -4.045349 74.35165 -2.938721
v -5.000244 103.774 0.000213623
v -4.045349 103.774 2.939148
v -1.545349 103.774 4.755493
v 1.544861 103.774 4.755493
v 4.044861 103.774 2.939148
v 4.999756 103.774 0.000213623
v 4.044861 103.774 -2.938721
v 1.544861 103.774 -4.755066
v -1.545349 103.774 -4.755066
v -4.045349 103.774 -2.938721
v -4.045349 74.61786 2.939148
v -5.000244 74.13254 0.000213623
v -1.545349 75.62222 4.755493
v 1.544861 76.76202 4.755493
v 1.544861 103.774 4.755493
v -1.545349 103.774 4.755493
v -1.545349 75.62222 4.755493
v 4.044861 77.60187 2.939148
v 4.044861 103.774 2.939148
v 4.999756 77.82098 0.000213623
v 4.999756 103.774 0.000213623
v 4.044861 103.774 -2.938721
v 4.044861 77.33566 -2.938721
v 1.544861 103.774 -4.755066
v 1.544861 76.3313 -4.755066
v -1.545349 103.774 -4.755066
v -4.045349 74.35165 -2.938721

vn 0 -1 0
vn 0 -1 0
vn 0 -1 0
vn 0 -1 0
vn 0 -1 0
vn 0 -1 0
vn -0.5667516 -0.265106 0.7800714
vn -0.7409678 -0.01219715 0.6714299
vn -0.9566789 -0.2720843 0.1036122
vn 0 -1 0
vn -0.8673748 0 0.4976554
vn -0.9964715 0 -0.08393238
vn -0.5877829 0 0.8090187
vn 0 0 1
vn 0.4096234 0 0.9122547
vn 0.2058529 0 0.9785829
vn 0 0 1
vn 0.8676063 0 0.4972518
vn 0.7415432 0 0.6709052
vn 0.9941862 0 -0.1076743
vn 0.9978614 0 0.06536329
vn 0.7410228 0 -0.6714798
vn 0.8310883 0 -0.5561404
vn 0.2048106 0 -0.9788017
vn 0.3474886 0 -0.9376842
vn -0.4096234 0 -0.9122547
vn -0.268314 0 -0.9633315
vn -0.8676063 0 -0.4972518
vn -0.7828826 0 -0.6221694
vn -0.7389332 0 0.6737786
vn -0.9999995 0 0.0009644105
vn -0.5877829 0 0.8090187
vn 0.4117953 0 0.9112764
vn 0 0 1
vn 0.8679076 0 0.4967256
vn 1 0 0
vn 0.8682778 0 -0.4960781
vn 0.4122598 0 -0.9110664
vn -0.3187552 0 -0.947837
vn -0.7392513 0 -0.6734297
vn -0.9919983 0.1262491 -0.0007279888
vn -0.7425118 0.02196057 0.6694728
vn -0.3918822 0.745315 0.5393829
vn 0 1 0
vn 0 1 0
vn 0 1 0
vn 0 1 0
vn 0 1 0
vn 0 1 0
vn -0.7422276 0.02171778 -0.669796
vn -0.8681931 0 0.4962266
vn -1 0 0
vn -0.5877829 0 0.8090187
vn 0.201904 0 0.9794053
vn 0.4075764 0 0.9131711
vn 0 0 1
vn 0 0 0.9999999
vn 0.7394999 0 0.6731568
vn 0.8673081 0 0.4977716
vn 0.9999997 0 -0.0008275554
vn 1 0 0
vn 0.86695 0 -0.4983952
vn 0.739223 0 -0.6734608
vn 0.4072091 0 -0.913335
vn 0.2019489 0 -0.979396
vn -0.2076337 0 -0.9782067
vn -0.8678699 0 -0.4967918

vt 0.121885 0.00149864
vt 0.05000028 0.00149864
vt 0.1500001 0.00149864
vt 0.3836881 0.00149864
vt 0.6618033 0.00149864
vt 0.8781152 0.00149864
vt 0.9499999 0.00149864
vt 0.85 0.00149864
vt 0.7499999 0.00149864
vt 0.3381969 0.00149864
vt 0.85 1.5
vt 0.7499999 1.5
vt 0.9499999 1.5
vt -0.05000007 0.00149864
vt 0.04999998 0.001498696
vt 0.04999999 1.5
vt -0.05000007 1.5
vt 0.15 0.00149864
vt 0.15 1.5
vt 0.25 0.00149864
vt 0.25 1.5
vt 0.35 0.00149864
vt 0.35 1.5
vt 0.45 0.00149864
vt 0.45 1.5
vt 0.55 0.00149864
vt 0.55 1.5
vt 0.65 0.00149864
vt 0.65 1.5
vt 0.8499999 2.156466
vt 0.7499999 2.14245
vt 0.95 2.185472
vt 0.04999999 2.218389
vt -0.05000007 2.185472
vt 0.15 2.242644
vt 0.25 2.248972
vt 0.35 2.234956
vt 0.45 2.20595
vt 0.55 2.173033
vt 0.65 2.148778
vt 0.7499999 2.998501
vt 0.85 2.998501
vt 0.9499999 2.998501
vt 0.8781152 2.998501
vt 0.6618034 2.998501
vt 0.3836881 2.998501
vt 0.1500001 2.998501
vt 0.05000012 2.998501
vt 0.1218849 2.998501
vt 0.65 2.998501
vt 0.8499999 2.156466
vt 0.7499999 2.14245
vt 0.95 2.185472
vt 0.04999999 2.218389
vt 0.04999999 2.998501
vt -0.05000007 2.998501
vt -0.05000007 2.185472
vt 0.15 2.242644
vt 0.15 2.998501
vt 0.25 2.248972
vt 0.25 2.998501
vt 0.35 2.998501
vt 0.35 2.234956
vt 0.45 2.998501
vt 0.45 2.20595
vt 0.55 2.998501
vt 0.65 2.148778

usemtl sn18_13_SN18G18.JPG
usemap sn18_13_SN18G18.JPG
f 3/3/3 1/1/1 2/2/2
f 5/5/5 3/3/3 4/4/4
f 7/7/7 5/5/5 6/6/6
f 9/9/9 7/7/7 8/8/8
f 9/9/9 5/5/5 7/7/7
f 9/9/9 3/3/3 5/5/5
f 9/9/9 1/1/1 3/3/3
f 9/9/9 10/10/10 1/1/1
f 11/11/11 9/9/9 8/8/8
f 9/9/9 11/11/11 12/12/12
f 13/13/13 8/8/8 7/7/7
f 8/8/8 13/13/13 11/11/11
f 16/16/16 14/14/14 15/15/15
f 14/14/14 16/16/16 17/17/17
f 19/19/19 15/15/15 18/18/18
f 15/15/15 19/19/19 16/16/16
f 21/21/21 18/18/18 20/20/20
f 18/18/18 21/21/21 19/19/19
f 23/23/23 20/20/20 22/22/22
f 20/20/20 23/23/23 21/21/21
f 25/25/25 22/22/22 24/24/24
f 22/22/22 25/25/25 23/23/23
f 27/27/27 24/24/24 26/26/26
f 24/24/24 27/27/27 25/25/25
f 29/29/29 26/26/26 28/28/28
f 26/26/26 29/29/29 27/27/27
f 12/12/12 28/28/28 9/9/9
f 28/28/28 12/12/12 29/29/29
f 31/31/31 11/11/11 30/30/30
f 11/11/11 31/31/31 12/12/12
f 30/30/30 13/13/13 32/32/32
f 13/13/13 30/30/30 11/11/11
f 34/34/34 16/16/16 33/33/33
f 16/16/16 34/34/34 17/17/17
f 33/33/33 19/19/19 35/35/35
f 19/19/19 33/33/33 16/16/16
f 35/35/35 21/21/21 36/36/36
f 21/21/21 35/35/35 19/19/19
f 37/37/37 21/21/21 23/23/23
f 21/21/21 37/37/37 36/36/36
f 38/38/38 23/23/23 25/25/25
f 23/23/23 38/38/38 37/37/37
f 39/39/39 25/25/25 27/27/27
f 25/25/25 39/39/39 38/38/38
f 40/40/40 27/27/27 29/29/29
f 27/27/27 40/40/40 39/39/39
f 31/31/31 29/29/29 12/12/12
f 29/29/29 31/31/31 40/40/40
f 43/43/43 41/41/41 42/42/42
f 45/45/45 43/43/43 44/44/44
f 47/47/47 45/45/45 46/46/46
f 49/49/49 47/47/47 48/48/48
f 49/49/49 45/45/45 47/47/47
f 49/49/49 43/43/43 45/45/45
f 49/49/49 41/41/41 43/43/43
f 49/49/49 50/50/50 41/41/41
f 41/41/41 51/51/51 42/42/42
f 51/51/51 41/41/41 52/52/52
f 42/42/42 53/53/53 43/43/43
f 53/53/53 42/42/42 51/51/51
f 56/56/56 54/54/54 55/55/55
f 54/54/54 56/56/56 57/57/57
f 55/55/55 58/58/58 59/59/59
f 58/58/58 55/55/55 54/54/54
f 59/59/59 60/60/60 61/61/61
f 60/60/60 59/59/59 58/58/58
f 60/60/60 62/62/62 61/61/61
f 62/62/62 60/60/60 63/63/63
f 63/63/63 64/64/64 62/62/62
f 64/64/64 63/63/63 65/65/65
f 65/65/65 66/66/66 64/64/64
f 66/66/66 65/65/65 39/39/39
f 39/39/39 50/50/50 66/66/66
f 50/50/50 39/39/39 67/67/67
f 67/67/67 41/41/41 50/50/50
f 41/41/41 67/67/67 52/52/52
