mtllib ./Cylinder05.mtl
g Cylinder05
v -1.544922 0.0004272461 -4.755249
v 1.545288 0.0004272461 -4.755249
v 4.045288 0.0004272461 -2.938904
v 5.000183 0.0004272461 3.051758E-05
v 4.045288 0.0004272461 2.938965
v 1.545288 0.0004272461 4.75531
v -1.544922 0.0004272461 4.75531
v -4.044922 0.0004272461 2.938965
v -4.999817 0.0004272461 3.051758E-05
v -4.044922 0.0004272461 -2.938904
v -4.044922 51.88721 2.938965
v -4.999817 51.88721 3.051758E-05
v -1.544922 51.88721 4.75531
v -1.544922 0.0004272461 4.75531
v 1.545288 0.0004272461 4.75531
v 1.545288 51.88721 4.75531
v -1.544922 51.88721 4.75531
v 4.045288 0.0004272461 2.938965
v 4.045288 51.88721 2.938965
v 5.000183 0.0004272461 3.051758E-05
v 5.000183 51.88721 3.051758E-05
v 4.045288 0.0004272461 -2.938904
v 4.045288 51.88721 -2.938904
v 1.545288 0.0004272461 -4.755249
v 1.545288 51.88721 -4.755249
v -1.544922 0.0004272461 -4.755249
v -1.544922 51.88721 -4.755249
v -4.044922 0.0004272461 -2.938904
v -4.044922 51.88721 -2.938904
v -4.044922 72.40991 2.938965
v -4.999817 73.60968 3.051758E-05
v -1.544922 71.35892 4.75531
v 1.545288 70.85815 4.75531
v -1.544922 71.35892 4.75531
v 4.045288 71.09891 2.938965
v 5.000183 71.9892 3.051758E-05
v 4.045288 73.18896 -2.938904
v 1.545288 74.23996 -4.755249
v -1.544922 74.74072 -4.755249
v -4.044922 74.49997 -2.938904
v -4.999817 103.774 3.051758E-05
v -4.044922 103.774 2.938965
v -1.544922 103.774 4.75531
v 1.545288 103.774 4.75531
v 4.045288 103.774 2.938965
v 5.000183 103.774 3.051758E-05
v 4.045288 103.774 -2.938904
v 1.545288 103.774 -4.755249
v -1.544922 103.774 -4.755249
v -4.044922 103.774 -2.938904
v -4.999817 73.60968 3.051758E-05
v -4.044922 72.40991 2.938965
v -1.544922 71.35892 4.75531
v 1.545288 103.774 4.75531
v -1.544922 103.774 4.75531
v -1.544922 71.35892 4.75531
v 1.545288 70.85815 4.75531
v 4.045288 103.774 2.938965
v 5.000183 103.774 3.051758E-05
v 4.045288 103.774 -2.938904
v 1.545288 103.774 -4.755249
v -1.544922 74.74072 -4.755249
v -1.544922 103.774 -4.755249
v -4.044922 74.49997 -2.938904

vn 0 -1 0
vn 0 -1 0
vn 0 -1 0
vn 0 -1 0
vn 0 -1 0
vn 0 -1 0
vn -0.5667516 -0.265106 0.7800714
vn -0.7409678 -0.01219715 0.6714299
vn -0.9566789 -0.2720843 0.1036122
vn 0 -1 0
vn -0.8366636 0 0.5477171
vn -0.9989253 0 -0.04634934
vn -0.5877829 0 0.8090187
vn 0 0 1
vn 0.4096234 0 0.9122547
vn 0.2253422 0 0.9742797
vn 0 0 1
vn 0.8676063 0 0.4972518
vn 0.7411853 0 0.6713005
vn 0.9941862 0 -0.1076743
vn 0.9942812 0 0.1067931
vn 0.7410228 0 -0.6714798
vn 0.8670206 0 -0.4982722
vn 0.2048106 0 -0.9788017
vn 0.408697 0 -0.9126701
vn -0.4096234 0 -0.9122547
vn -0.2436851 0 -0.9698544
vn -0.8676063 0 -0.4972518
vn -0.7823812 0 -0.6227999
vn -0.8696331 0 0.4936985
vn -0.9938714 0 -0.1105417
vn -0.5877829 0 0.8090187
vn 0.3079645 0 0.9513978
vn 0 0 1
vn 0.7931305 0 0.6090519
vn 0.9997257 0 0.02341879
vn 0.8202716 0 -0.5719742
vn 0.324169 0 -0.9459991
vn -0.3090133 0 -0.9510577
vn -0.7405143 0 -0.6720406
vn -0.9809143 0.1642098 -0.1041258
vn -0.8660465 0.02044208 0.4995454
vn -0.5271063 0.4424962 0.725504
vn 0 1 0
vn 0 1 0
vn 0 1 0
vn 0 1 0
vn 0 1 0
vn 0 1 0
vn -0.7412438 0.02167617 -0.6708859
vn -0.9938808 0 0.1104582
vn -0.7394331 0 0.6732301
vn -0.5877829 0 0.8090187
vn 0.3096269 0 0.9508581
vn 0 0 1
vn 0 0 1
vn 0.3090133 0 0.9510577
vn 0.8666286 0 0.4989537
vn 0.9944764 0 -0.1049609
vn 0.7426868 0 -0.6696389
vn 0.2060017 0 -0.9785517
vn -0.3083257 0 -0.9512808
vn -0.3090133 0 -0.9510577
vn -0.8686724 0 -0.4953868

vt 0.121885 0.00149864
vt 0.05000028 0.00149864
vt 0.1500001 0.00149864
vt 0.3836881 0.00149864
vt 0.6618033 0.00149864
vt 0.8781152 0.00149864
vt 0.9499999 0.00149864
vt 0.85 0.00149864
vt 0.7499999 0.00149864
vt 0.3381969 0.00149864
vt 0.85 1.5
vt 0.7499999 1.5
vt 0.9499999 1.5
vt -0.05000007 0.00149864
vt 0.04999998 0.001498696
vt 0.04999999 1.5
vt -0.05000007 1.5
vt 0.15 0.00149864
vt 0.15 1.5
vt 0.25 0.00149864
vt 0.25 1.5
vt 0.35 0.00149864
vt 0.35 1.5
vt 0.45 0.00149864
vt 0.45 1.5
vt 0.55 0.00149864
vt 0.55 1.5
vt 0.65 0.00149864
vt 0.65 1.5
vt 0.85 2.0927
vt 0.7499999 2.127349
vt 0.9499999 2.062347
vt 0.04999998 2.047885
vt -0.05000007 2.062347
vt 0.15 2.054838
vt 0.25 2.080549
vt 0.35 2.115199
vt 0.45 2.145552
vt 0.55 2.160014
vt 0.65 2.153061
vt 0.7499999 2.998501
vt 0.85 2.998501
vt 0.9499999 2.998501
vt 0.8781152 2.998501
vt 0.6618034 2.998501
vt 0.3836881 2.998501
vt 0.1500001 2.998501
vt 0.05000012 2.998501
vt 0.1218849 2.998501
vt 0.65 2.998501
vt 0.7499999 2.127349
vt 0.85 2.0927
vt 0.9499999 2.062347
vt 0.04999999 2.998501
vt -0.05000007 2.998501
vt -0.05000007 2.062347
vt 0.04999998 2.047885
vt 0.15 2.998501
vt 0.25 2.998501
vt 0.35 2.998501
vt 0.45 2.998501
vt 0.55 2.160014
vt 0.55 2.998501
vt 0.65 2.153061

usemtl sn18_13_SN18G18.JPG
usemap sn18_13_SN18G18.JPG
f 3/3/3 1/1/1 2/2/2
f 5/5/5 3/3/3 4/4/4
f 7/7/7 5/5/5 6/6/6
f 9/9/9 7/7/7 8/8/8
f 9/9/9 5/5/5 7/7/7
f 9/9/9 3/3/3 5/5/5
f 9/9/9 1/1/1 3/3/3
f 9/9/9 10/10/10 1/1/1
f 11/11/11 9/9/9 8/8/8
f 9/9/9 11/11/11 12/12/12
f 13/13/13 8/8/8 7/7/7
f 8/8/8 13/13/13 11/11/11
f 16/16/16 14/14/14 15/15/15
f 14/14/14 16/16/16 17/17/17
f 19/19/19 15/15/15 18/18/18
f 15/15/15 19/19/19 16/16/16
f 21/21/21 18/18/18 20/20/20
f 18/18/18 21/21/21 19/19/19
f 23/23/23 20/20/20 22/22/22
f 20/20/20 23/23/23 21/21/21
f 25/25/25 22/22/22 24/24/24
f 22/22/22 25/25/25 23/23/23
f 27/27/27 24/24/24 26/26/26
f 24/24/24 27/27/27 25/25/25
f 29/29/29 26/26/26 28/28/28
f 26/26/26 29/29/29 27/27/27
f 12/12/12 28/28/28 9/9/9
f 28/28/28 12/12/12 29/29/29
f 30/30/30 12/12/12 11/11/11
f 12/12/12 30/30/30 31/31/31
f 32/32/32 11/11/11 13/13/13
f 11/11/11 32/32/32 30/30/30
f 33/33/33 17/17/17 16/16/16
f 17/17/17 33/33/33 34/34/34
f 33/33/33 19/19/19 35/35/35
f 19/19/19 33/33/33 16/16/16
f 35/35/35 21/21/21 36/36/36
f 21/21/21 35/35/35 19/19/19
f 36/36/36 23/23/23 37/37/37
f 23/23/23 36/36/36 21/21/21
f 37/37/37 25/25/25 38/38/38
f 25/25/25 37/37/37 23/23/23
f 38/38/38 27/27/27 39/39/39
f 27/27/27 38/38/38 25/25/25
f 40/40/40 27/27/27 29/29/29
f 27/27/27 40/40/40 39/39/39
f 31/31/31 29/29/29 12/12/12
f 29/29/29 31/31/31 40/40/40
f 43/43/43 41/41/41 42/42/42
f 45/45/45 43/43/43 44/44/44
f 47/47/47 45/45/45 46/46/46
f 49/49/49 47/47/47 48/48/48
f 49/49/49 45/45/45 47/47/47
f 49/49/49 43/43/43 45/45/45
f 49/49/49 41/41/41 43/43/43
f 49/49/49 50/50/50 41/41/41
f 51/51/51 42/42/42 41/41/41
f 42/42/42 51/51/51 52/52/52
f 52/52/52 43/43/43 42/42/42
f 43/43/43 52/52/52 53/53/53
f 56/56/56 54/54/54 55/55/55
f 54/54/54 56/56/56 57/57/57
f 54/54/54 35/35/35 58/58/58
f 35/35/35 54/54/54 57/57/57
f 58/58/58 36/36/36 59/59/59
f 36/36/36 58/58/58 35/35/35
f 59/59/59 37/37/37 60/60/60
f 37/37/37 59/59/59 36/36/36
f 60/60/60 38/38/38 61/61/61
f 38/38/38 60/60/60 37/37/37
f 61/61/61 62/62/62 63/63/63
f 62/62/62 61/61/61 38/38/38
f 62/62/62 50/50/50 63/63/63
f 50/50/50 62/62/62 64/64/64
f 64/64/64 41/41/41 50/50/50
f 41/41/41 64/64/64 51/51/51
