mtllib ./Cylinder17.mtl
g Cylinder17
v -1.54541 0.0004272461 -4.755157
v 1.5448 0.0004272461 -4.755157
v 4.0448 0.0004272461 -2.938812
v 4.999695 0.0004272461 0.0001220703
v 4.0448 0.0004272461 2.939041
v 1.5448 0.0004272461 4.755402
v -1.54541 0.0004272461 4.755402
v -4.04541 0.0004272461 2.939041
v -5.000305 0.0004272461 0.0001220703
v -4.04541 0.0004272461 -2.938797
v -4.04541 51.88721 2.939041
v -5.000305 51.88721 0.0001220703
v -1.54541 51.88721 4.755402
v -1.54541 0.0004272461 4.755402
v 1.5448 0.0004272461 4.755402
v 1.5448 51.88721 4.755402
v -1.54541 51.88721 4.755402
v 4.0448 0.0004272461 2.939041
v 4.0448 51.88721 2.939041
v 4.999695 0.0004272461 0.0001220703
v 4.999695 51.88721 0.0001220703
v 4.0448 0.0004272461 -2.938812
v 4.0448 51.88721 -2.938812
v 1.5448 0.0004272461 -4.755157
v 1.5448 51.88721 -4.755157
v -1.54541 0.0004272461 -4.755157
v -1.54541 51.88721 -4.755157
v -4.04541 0.0004272461 -2.938797
v -4.04541 51.88721 -2.938797
v -4.04541 70.26627 2.939041
v -5.000305 70.00275 0.0001220703
v -1.54541 71.35791 4.755402
v 1.5448 72.86075 4.755402
v -1.54541 71.35791 4.755402
v 4.0448 74.20071 2.939041
v 4.999695 74.86597 0.0001220703
v 4.0448 74.60245 -2.938812
v 1.5448 73.51077 -4.755157
v -1.54541 72.00793 -4.755157
v -4.04541 70.668 -2.938797
v -5.000305 103.774 0.0001220703
v -4.04541 103.774 2.939041
v -1.54541 103.774 4.755402
v 1.5448 103.774 4.755402
v 4.0448 103.774 2.939041
v 4.999695 103.774 0.0001220703
v 4.0448 103.774 -2.938812
v 1.5448 103.774 -4.755157
v -1.54541 103.774 -4.755157
v -4.04541 103.774 -2.938797
v -4.04541 70.26627 2.939041
v -5.000305 70.00275 0.0001220703
v -1.54541 71.35791 4.755402
v 1.5448 72.86075 4.755402
v 1.5448 103.774 4.755402
v -1.54541 103.774 4.755402
v -1.54541 71.35791 4.755402
v 4.0448 74.20071 2.939041
v 4.0448 103.774 2.939041
v 4.999695 74.86597 0.0001220703
v 4.999695 103.774 0.0001220703
v 4.0448 103.774 -2.938812
v 1.5448 103.774 -4.755157
v -1.54541 103.774 -4.755157

vn 0 -0.9999999 0
vn 0 -1 0
vn 0 -1 0
vn 0 -1 0
vn 0 -1 0
vn 0 -1 0
vn -0.5667548 -0.2651056 0.7800692
vn -0.7409684 -0.01219702 0.671429
vn -0.9566786 -0.2720853 0.1036127
vn 0 -0.9999999 0
vn -0.8674726 0 0.497485
vn -0.9961629 0 -0.08751843
vn -0.5877861 0 0.8090163
vn 0 0 1
vn 0.4096262 0 0.9122534
vn 0.206263 0 0.9784966
vn 0 0 0.9999999
vn 0.8676059 0 0.4972526
vn 0.7418938 0 0.6705174
vn 0.9941862 0 -0.1076745
vn 0.997708 0 0.06766694
vn 0.7410228 0 -0.6714798
vn 0.8341576 0 -0.5515262
vn 0.2048106 0 -0.9788017
vn 0.3534383 0 -0.9354578
vn -0.4096262 0 -0.9122534
vn -0.2610349 0 -0.9653293
vn -0.8676059 0 -0.4972526
vn -0.7774525 0 -0.6289418
vn -0.7382274 0 0.6745519
vn -0.9999985 0 -0.001778539
vn -0.5877861 0 0.8090163
vn 0.4136929 0 0.9104165
vn 0 0 1
vn 0.8686513 0 0.495424
vn 1 0 0
vn 0.8000671 0 -0.5999106
vn 0.2912899 0 -0.9566348
vn -0.33131 0 -0.9435219
vn -0.8252272 0 -0.564801
vn -0.9938069 0.1111172 0.0009669253
vn -0.742465 0.0190972 0.6696126
vn -0.4217321 0.6965663 0.5804631
vn 0 1 0
vn 0 1 0
vn 0 1 0
vn 0 0.9999999 0
vn 0 1 0
vn 0 1 0
vn -0.7428476 0.01938158 -0.66918
vn -0.8678841 0 0.4967668
vn -1 0 -1.921742E-08
vn -0.5877861 0 0.8090164
vn 0.2014705 0 0.9794946
vn 0.4067598 0 0.9135351
vn 0 0 0.9999999
vn 0 0 1
vn 0.7388816 0 0.6738353
vn 0.8668003 0 0.4986556
vn 0.9999993 0 0.001119829
vn 1 0 0
vn 0.8672845 0 -0.4978127
vn 0.4072442 0 -0.9133192
vn -0.2081699 0 -0.9780926

vt 0.121885 0.00149864
vt 0.05000028 0.00149864
vt 0.1500001 0.00149864
vt 0.3836881 0.00149864
vt 0.6618033 0.00149864
vt 0.8781152 0.00149864
vt 0.9499999 0.00149864
vt 0.85 0.00149864
vt 0.7499999 0.00149864
vt 0.3381969 0.00149864
vt 0.85 1.5
vt 0.7499999 1.5
vt 0.9499999 1.5
vt -0.05000007 0.00149864
vt 0.04999998 0.001498696
vt 0.04999999 1.5
vt -0.05000007 1.5
vt 0.15 0.00149864
vt 0.15 1.5
vt 0.25 0.00149864
vt 0.25 1.5
vt 0.35 0.00149864
vt 0.35 1.5
vt 0.45 0.00149864
vt 0.45 1.5
vt 0.55 0.00149864
vt 0.55 1.5
vt 0.65 0.00149864
vt 0.65 1.5
vt 0.85 2.030791
vt 0.7499999 2.02318
vt 0.9499999 2.062318
vt 0.04999999 2.10572
vt -0.05000007 2.062318
vt 0.15 2.144418
vt 0.25 2.163631
vt 0.35 2.15602
vt 0.45 2.124493
vt 0.55 2.081091
vt 0.65 2.042393
vt 0.7499999 2.998501
vt 0.85 2.998501
vt 0.9499999 2.998501
vt 0.8781152 2.998501
vt 0.6618034 2.998501
vt 0.3836881 2.998501
vt 0.1500001 2.998501
vt 0.05000012 2.998501
vt 0.1218849 2.998501
vt 0.65 2.998501
vt 0.85 2.030791
vt 0.7499999 2.02318
vt 0.9499999 2.062318
vt 0.04999999 2.10572
vt 0.04999999 2.998501
vt -0.05000007 2.998501
vt -0.05000007 2.062318
vt 0.15 2.144418
vt 0.15 2.998501
vt 0.25 2.163631
vt 0.25 2.998501
vt 0.35 2.998501
vt 0.45 2.998501
vt 0.55 2.998501

usemtl sn18_13_SN18G18.JPG
usemap sn18_13_SN18G18.JPG
f 3/3/3 1/1/1 2/2/2
f 5/5/5 3/3/3 4/4/4
f 7/7/7 5/5/5 6/6/6
f 9/9/9 7/7/7 8/8/8
f 9/9/9 5/5/5 7/7/7
f 9/9/9 3/3/3 5/5/5
f 9/9/9 1/1/1 3/3/3
f 9/9/9 10/10/10 1/1/1
f 11/11/11 9/9/9 8/8/8
f 9/9/9 11/11/11 12/12/12
f 13/13/13 8/8/8 7/7/7
f 8/8/8 13/13/13 11/11/11
f 16/16/16 14/14/14 15/15/15
f 14/14/14 16/16/16 17/17/17
f 19/19/19 15/15/15 18/18/18
f 15/15/15 19/19/19 16/16/16
f 21/21/21 18/18/18 20/20/20
f 18/18/18 21/21/21 19/19/19
f 23/23/23 20/20/20 22/22/22
f 20/20/20 23/23/23 21/21/21
f 25/25/25 22/22/22 24/24/24
f 22/22/22 25/25/25 23/23/23
f 27/27/27 24/24/24 26/26/26
f 24/24/24 27/27/27 25/25/25
f 29/29/29 26/26/26 28/28/28
f 26/26/26 29/29/29 27/27/27
f 12/12/12 28/28/28 9/9/9
f 28/28/28 12/12/12 29/29/29
f 31/31/31 11/11/11 30/30/30
f 11/11/11 31/31/31 12/12/12
f 30/30/30 13/13/13 32/32/32
f 13/13/13 30/30/30 11/11/11
f 34/34/34 16/16/16 33/33/33
f 16/16/16 34/34/34 17/17/17
f 33/33/33 19/19/19 35/35/35
f 19/19/19 33/33/33 16/16/16
f 35/35/35 21/21/21 36/36/36
f 21/21/21 35/35/35 19/19/19
f 37/37/37 21/21/21 23/23/23
f 21/21/21 37/37/37 36/36/36
f 38/38/38 23/23/23 25/25/25
f 23/23/23 38/38/38 37/37/37
f 39/39/39 25/25/25 27/27/27
f 25/25/25 39/39/39 38/38/38
f 40/40/40 27/27/27 29/29/29
f 27/27/27 40/40/40 39/39/39
f 31/31/31 29/29/29 12/12/12
f 29/29/29 31/31/31 40/40/40
f 43/43/43 41/41/41 42/42/42
f 45/45/45 43/43/43 44/44/44
f 47/47/47 45/45/45 46/46/46
f 49/49/49 47/47/47 48/48/48
f 49/49/49 45/45/45 47/47/47
f 49/49/49 43/43/43 45/45/45
f 49/49/49 41/41/41 43/43/43
f 49/49/49 50/50/50 41/41/41
f 41/41/41 51/51/51 42/42/42
f 51/51/51 41/41/41 52/52/52
f 42/42/42 53/53/53 43/43/43
f 53/53/53 42/42/42 51/51/51
f 56/56/56 54/54/54 55/55/55
f 54/54/54 56/56/56 57/57/57
f 55/55/55 58/58/58 59/59/59
f 58/58/58 55/55/55 54/54/54
f 59/59/59 60/60/60 61/61/61
f 60/60/60 59/59/59 58/58/58
f 60/60/60 62/62/62 61/61/61
f 62/62/62 60/60/60 37/37/37
f 37/37/37 63/63/63 62/62/62
f 63/63/63 37/37/37 38/38/38
f 38/38/38 64/64/64 63/63/63
f 64/64/64 38/38/38 39/39/39
f 39/39/39 50/50/50 64/64/64
f 50/50/50 39/39/39 40/40/40
f 40/40/40 41/41/41 50/50/50
f 41/41/41 40/40/40 52/52/52
