mtllib ./Cylinder14.mtl
g Cylinder14
v 0.0004272461 0.0004272461 0.0004577637
v -4.044678 0.0004272461 2.939377
v -4.999573 0.0004272461 0.0004577637
v -1.544678 0.0004272461 4.755737
v 1.545532 0.0004272461 4.755737
v -1.544678 0.0004272461 4.755737
v 4.045532 0.0004272461 2.939377
v 5.000427 0.0004272461 0.0004577637
v 4.045532 0.0004272461 -2.938477
v 1.545532 0.0004272461 -4.754822
v -1.544678 0.0004272461 -4.754822
v -4.044678 0.0004272461 -2.938461
v -4.044678 51.88721 2.939377
v -4.999573 51.88721 0.0004577637
v -1.544678 51.88721 4.755737
v 1.545532 51.88721 4.755737
v -1.544678 51.88721 4.755737
v 4.045532 51.88721 2.939377
v 5.000427 51.88721 0.0004577637
v 4.045532 51.88721 -2.938477
v 1.545532 51.88721 -4.754822
v -1.544678 51.88721 -4.754822
v -4.044678 51.88721 -2.938461
v -4.044678 103.774 2.939377
v -4.999573 103.774 0.0004577637
v -1.544678 103.774 4.755737
v 1.545532 103.774 4.755737
v -1.544678 103.774 4.755737
v 4.045532 103.774 2.939377
v 5.000427 103.774 0.0004577637
v 4.045532 103.774 -2.938477
v 1.545532 103.774 -4.754822
v -1.544678 103.774 -4.754822
v -4.044678 103.774 -2.938461
v 0.0004272461 103.774 0.0004577637

vn 0 -1 0
vn -0.7395169 -0.06373915 0.6701136
vn -0.9921646 -0.06373907 0.1074559
vn -0.5853331 -0.09126496 0.8056401
vn 0.4087933 -0.06373924 0.9103984
vn 0 -0.04577558 0.9989517
vn 0.8658416 -0.06373927 0.4962415
vn 0.9921646 -0.06373902 -0.1074556
vn 0.739516 -0.06373934 -0.6701144
vn 0.2043941 -0.06373893 -0.9768114
vn -0.4087933 -0.06373924 -0.9103984
vn -0.8658416 -0.06373927 -0.4962415
vn -0.8090184 0 0.5877833
vn -1 0 2.918518E-08
vn -0.5877861 0 0.8090163
vn 0.3090156 0 0.951057
vn 0 0 1
vn 0.8090185 0 0.5877832
vn 1 0 -3.33544E-08
vn 0.8090184 0 -0.5877833
vn 0.3090132 0 -0.9510577
vn -0.3090156 0 -0.951057
vn -0.8090185 0 -0.5877832
vn -0.8658416 0.06373923 0.4962414
vn -0.9921647 0.06373905 -0.107456
vn -0.58717 0.04577566 0.8081684
vn 0.2043957 0.06373892 0.976811
vn 0 0.09126469 0.9958267
vn 0.7395169 0.06373912 0.6701136
vn 0.9921646 0.06373909 0.1074558
vn 0.865842 0.06373925 -0.4962406
vn 0.4087904 0.06373924 -0.9103997
vn -0.2043957 0.06373892 -0.976811
vn -0.7395169 0.06373912 -0.6701136
vn 0 1 0

vt 0.5 0.00149864
vt 0.85 0.00149864
vt 0.7499999 0.00149864
vt 0.9499999 0.00149864
vt 0.04999999 0.00149864
vt -0.05000007 0.00149864
vt 0.15 0.00149864
vt 0.25 0.00149864
vt 0.35 0.00149864
vt 0.45 0.00149864
vt 0.55 0.00149864
vt 0.65 0.00149864
vt 0.85 1.5
vt 0.7499999 1.5
vt 0.9499999 1.5
vt 0.04999999 1.5
vt -0.05000007 1.5
vt 0.15 1.5
vt 0.25 1.5
vt 0.35 1.5
vt 0.45 1.5
vt 0.55 1.5
vt 0.65 1.5
vt 0.85 2.998501
vt 0.7499999 2.998501
vt 0.9499999 2.998501
vt 0.04999999 2.998501
vt -0.05000007 2.998501
vt 0.15 2.998501
vt 0.25 2.998501
vt 0.35 2.998501
vt 0.45 2.998501
vt 0.55 2.998501
vt 0.65 2.998501
vt 0.5 2.998501

usemtl sn18_13_SN18G18.JPG
usemap sn18_13_SN18G18.JPG
f 3/3/3 1/1/1 2/2/2
f 2/2/2 1/1/1 4/4/4
f 6/6/6 1/1/1 5/5/5
f 5/5/5 1/1/1 7/7/7
f 7/7/7 1/1/1 8/8/8
f 8/8/8 1/1/1 9/9/9
f 9/9/9 1/1/1 10/10/10
f 10/10/10 1/1/1 11/11/11
f 11/11/11 1/1/1 12/12/12
f 12/12/12 1/1/1 3/3/3
f 14/14/14 3/3/3 13/13/13
f 13/13/13 3/3/3 2/2/2
f 13/13/13 2/2/2 15/15/15
f 15/15/15 2/2/2 4/4/4
f 17/17/17 6/6/6 16/16/16
f 16/16/16 6/6/6 5/5/5
f 16/16/16 5/5/5 18/18/18
f 18/18/18 5/5/5 7/7/7
f 18/18/18 7/7/7 19/19/19
f 19/19/19 7/7/7 8/8/8
f 19/19/19 8/8/8 20/20/20
f 20/20/20 8/8/8 9/9/9
f 20/20/20 9/9/9 21/21/21
f 21/21/21 9/9/9 10/10/10
f 21/21/21 10/10/10 22/22/22
f 22/22/22 10/10/10 11/11/11
f 22/22/22 11/11/11 23/23/23
f 23/23/23 11/11/11 12/12/12
f 23/23/23 12/12/12 14/14/14
f 14/14/14 12/12/12 3/3/3
f 25/25/25 14/14/14 24/24/24
f 24/24/24 14/14/14 13/13/13
f 24/24/24 13/13/13 26/26/26
f 26/26/26 13/13/13 15/15/15
f 28/28/28 17/17/17 27/27/27
f 27/27/27 17/17/17 16/16/16
f 27/27/27 16/16/16 29/29/29
f 29/29/29 16/16/16 18/18/18
f 29/29/29 18/18/18 30/30/30
f 30/30/30 18/18/18 19/19/19
f 30/30/30 19/19/19 31/31/31
f 31/31/31 19/19/19 20/20/20
f 31/31/31 20/20/20 32/32/32
f 32/32/32 20/20/20 21/21/21
f 32/32/32 21/21/21 33/33/33
f 33/33/33 21/21/21 22/22/22
f 33/33/33 22/22/22 34/34/34
f 34/34/34 22/22/22 23/23/23
f 34/34/34 23/23/23 25/25/25
f 25/25/25 23/23/23 14/14/14
f 24/24/24 35/35/35 25/25/25
f 26/26/26 35/35/35 24/24/24
f 27/27/27 35/35/35 28/28/28
f 29/29/29 35/35/35 27/27/27
f 30/30/30 35/35/35 29/29/29
f 31/31/31 35/35/35 30/30/30
f 32/32/32 35/35/35 31/31/31
f 33/33/33 35/35/35 32/32/32
f 34/34/34 35/35/35 33/33/33
f 25/25/25 35/35/35 34/34/34
