mtllib ./Cylinder20.mtl
g Cylinder20
v -1.545319 0.0004272461 -4.75531
v 1.54483 0.0004272461 -4.75531
v 4.04483 0.0004272461 -2.938904
v 4.999756 0.0004272461 0
v 4.04483 0.0004272461 2.938904
v 1.54483 0.0004272461 4.75531
v -1.545319 0.0004272461 4.75531
v -4.045319 0.0004272461 2.938904
v -5.000244 0.0004272461 0
v -4.045319 0.0004272461 -2.938904
v -4.045319 51.88721 2.938904
v -5.000244 51.88721 0
v -1.545319 51.88721 4.75531
v -1.545319 0.0004272461 4.75531
v 1.54483 0.0004272461 4.75531
v 1.54483 51.88721 4.75531
v -1.545319 51.88721 4.75531
v 4.04483 0.0004272461 2.938904
v 4.04483 51.88721 2.938904
v 4.999756 0.0004272461 0
v 4.999756 51.88721 0
v 4.04483 0.0004272461 -2.938904
v 4.04483 51.88721 -2.938904
v 1.54483 0.0004272461 -4.75531
v 1.54483 51.88721 -4.75531
v -1.545319 0.0004272461 -4.75531
v -1.545319 51.88721 -4.75531
v -4.045319 0.0004272461 -2.938904
v -4.045319 51.88721 -2.938904
v -4.045319 80.13708 2.938904
v -5.000244 80.09561 0
v -1.545319 80.33383 4.75531
v 1.54483 80.61069 4.75531
v -1.545319 80.33383 4.75531
v 4.04483 80.86191 2.938904
v 4.999756 80.99152 0
v 4.04483 80.95004 -2.938904
v 1.54483 80.75327 -4.75531
v -1.545319 80.47644 -4.75531
v -4.045319 80.22522 -2.938904
v -5.000244 103.774 0
v -4.045319 103.774 2.938904
v -1.545319 103.774 4.75531
v 1.54483 103.774 4.75531
v 4.04483 103.774 2.938904
v 4.999756 103.774 0
v 4.04483 103.774 -2.938904
v 1.54483 103.774 -4.75531
v -1.545319 103.774 -4.75531
v -4.045319 103.774 -2.938904
v -5.000244 80.09561 0
v -4.045319 80.13708 2.938904
v -1.545319 80.33383 4.75531
v 1.54483 80.61069 4.75531
v 1.54483 103.774 4.75531
v -1.545319 103.774 4.75531
v -1.545319 80.33383 4.75531
v 4.04483 80.86191 2.938904
v 4.04483 103.774 2.938904
v 4.999756 80.99152 0
v 4.999756 103.774 0
v 4.04483 103.774 -2.938904
v 4.04483 80.95004 -2.938904
v 1.54483 103.774 -4.75531
v -1.545319 103.774 -4.75531
v -4.045319 80.22522 -2.938904

vn 0 -1 0
vn 0 -1 0
vn 0 -1 0
vn 0 -1 0
vn 0 -1 0
vn 0 -1 0
vn -0.5667645 -0.2651033 0.780063
vn -0.7409707 -0.01219662 0.6714266
vn -0.9566783 -0.2720853 0.1036165
vn 0 -1 0
vn -0.8675849 0 0.497289
vn -0.9941732 0 -0.1077936
vn -0.5877958 0 0.8090093
vn 0 0 0.9999999
vn 0.4096375 0 0.9122485
vn 0.2050601 0 0.9787493
vn 0 0 1
vn 0.8676032 0 0.4972569
vn 0.7411748 0 0.671312
vn 0.9941857 0 -0.1076788
vn 0.9941981 0 0.1075652
vn 0.7410258 0 -0.6714765
vn 0.8440112 0 -0.5363255
vn 0.2048199 0 -0.9787997
vn 0.3386122 0 -0.940926
vn -0.4096375 0 -0.9122485
vn -0.2787122 0 -0.9603747
vn -0.8676032 0 -0.4972569
vn -0.759959 0 -0.6499708
vn -0.7406928 0 0.6718439
vn -0.9941744 0 0.1077831
vn -0.5877958 0 0.8090093
vn 0.410205 0 0.9119934
vn 0 0 1
vn 0.8677618 0 0.4969804
vn 0.9941967 0 -0.1075777
vn 0.8090177 0 -0.5877842
vn 0.3204134 0 -0.9472778
vn -0.2984871 0 -0.9544137
vn -0.8083763 0 -0.5886661
vn -0.97294 0.2058261 -0.1049925
vn -0.8093339 0.02022818 0.5870005
vn -0.3511162 0.8019852 0.4832568
vn 0 1 0
vn 0 1 0
vn 0 1 0
vn 0 1 0
vn 0 1 0
vn 0 1 0
vn -0.741269 0.02696402 -0.6706663
vn -0.9941992 0 0.1075545
vn -0.8090177 0 0.5877842
vn -0.5877959 0 0.8090093
vn 0.2039883 0 0.9789733
vn 0.4089285 0 0.9125665
vn 0 0 1
vn 0 0 1
vn 0.7405021 0 0.6720541
vn 0.8674021 0 0.4976079
vn 1 0 0.0003136488
vn 1 0 0
vn 0.8675388 0 -0.4973695
vn 0.7406138 0 -0.671931
vn 0.4090792 0 -0.9124989
vn -0.2056533 0 -0.9786249
vn -0.8677981 0 -0.4969168

vt 0.121885 0.00149864
vt 0.05000028 0.00149864
vt 0.1500001 0.00149864
vt 0.3836881 0.00149864
vt 0.6618033 0.00149864
vt 0.8781152 0.00149864
vt 0.9499999 0.00149864
vt 0.85 0.00149864
vt 0.7499999 0.00149864
vt 0.3381969 0.00149864
vt 0.85 1.5
vt 0.7499999 1.5
vt 0.9499999 1.5
vt -0.05000007 0.00149864
vt 0.04999998 0.001498696
vt 0.04999999 1.5
vt -0.05000007 1.5
vt 0.15 0.00149864
vt 0.15 1.5
vt 0.25 0.00149864
vt 0.25 1.5
vt 0.35 0.00149864
vt 0.35 1.5
vt 0.45 0.00149864
vt 0.45 1.5
vt 0.55 0.00149864
vt 0.55 1.5
vt 0.65 0.00149864
vt 0.65 1.5
vt 0.85 2.315862
vt 0.75 2.314664
vt 0.9499999 2.321544
vt 0.04999999 2.32954
vt -0.05000007 2.321544
vt 0.15 2.336795
vt 0.25 2.340539
vt 0.35 2.33934
vt 0.45 2.333658
vt 0.55 2.325662
vt 0.65 2.318407
vt 0.7499999 2.998501
vt 0.85 2.998501
vt 0.9499999 2.998501
vt 0.8781152 2.998501
vt 0.6618034 2.998501
vt 0.3836881 2.998501
vt 0.1500001 2.998501
vt 0.05000012 2.998501
vt 0.1218849 2.998501
vt 0.65 2.998501
vt 0.75 2.314664
vt 0.85 2.315862
vt 0.9499999 2.321544
vt 0.04999999 2.32954
vt 0.04999999 2.998501
vt -0.05000007 2.998501
vt -0.05000007 2.321544
vt 0.15 2.336795
vt 0.15 2.998501
vt 0.25 2.340539
vt 0.25 2.998501
vt 0.35 2.998501
vt 0.35 2.33934
vt 0.45 2.998501
vt 0.55 2.998501
vt 0.65 2.318407

usemtl sn18_13_SN18G18.JPG
usemap sn18_13_SN18G18.JPG
f 3/3/3 1/1/1 2/2/2
f 5/5/5 3/3/3 4/4/4
f 7/7/7 5/5/5 6/6/6
f 9/9/9 7/7/7 8/8/8
f 9/9/9 5/5/5 7/7/7
f 9/9/9 3/3/3 5/5/5
f 9/9/9 1/1/1 3/3/3
f 9/9/9 10/10/10 1/1/1
f 11/11/11 9/9/9 8/8/8
f 9/9/9 11/11/11 12/12/12
f 13/13/13 8/8/8 7/7/7
f 8/8/8 13/13/13 11/11/11
f 16/16/16 14/14/14 15/15/15
f 14/14/14 16/16/16 17/17/17
f 19/19/19 15/15/15 18/18/18
f 15/15/15 19/19/19 16/16/16
f 21/21/21 18/18/18 20/20/20
f 18/18/18 21/21/21 19/19/19
f 23/23/23 20/20/20 22/22/22
f 20/20/20 23/23/23 21/21/21
f 25/25/25 22/22/22 24/24/24
f 22/22/22 25/25/25 23/23/23
f 27/27/27 24/24/24 26/26/26
f 24/24/24 27/27/27 25/25/25
f 29/29/29 26/26/26 28/28/28
f 26/26/26 29/29/29 27/27/27
f 12/12/12 28/28/28 9/9/9
f 28/28/28 12/12/12 29/29/29
f 31/31/31 11/11/11 30/30/30
f 11/11/11 31/31/31 12/12/12
f 30/30/30 13/13/13 32/32/32
f 13/13/13 30/30/30 11/11/11
f 34/34/34 16/16/16 33/33/33
f 16/16/16 34/34/34 17/17/17
f 33/33/33 19/19/19 35/35/35
f 19/19/19 33/33/33 16/16/16
f 35/35/35 21/21/21 36/36/36
f 21/21/21 35/35/35 19/19/19
f 36/36/36 23/23/23 37/37/37
f 23/23/23 36/36/36 21/21/21
f 38/38/38 23/23/23 25/25/25
f 23/23/23 38/38/38 37/37/37
f 39/39/39 25/25/25 27/27/27
f 25/25/25 39/39/39 38/38/38
f 40/40/40 27/27/27 29/29/29
f 27/27/27 40/40/40 39/39/39
f 40/40/40 12/12/12 31/31/31
f 12/12/12 40/40/40 29/29/29
f 43/43/43 41/41/41 42/42/42
f 45/45/45 43/43/43 44/44/44
f 47/47/47 45/45/45 46/46/46
f 49/49/49 47/47/47 48/48/48
f 49/49/49 45/45/45 47/47/47
f 49/49/49 43/43/43 45/45/45
f 49/49/49 41/41/41 43/43/43
f 49/49/49 50/50/50 41/41/41
f 51/51/51 42/42/42 41/41/41
f 42/42/42 51/51/51 52/52/52
f 42/42/42 53/53/53 43/43/43
f 53/53/53 42/42/42 52/52/52
f 56/56/56 54/54/54 55/55/55
f 54/54/54 56/56/56 57/57/57
f 55/55/55 58/58/58 59/59/59
f 58/58/58 55/55/55 54/54/54
f 59/59/59 60/60/60 61/61/61
f 60/60/60 59/59/59 58/58/58
f 60/60/60 62/62/62 61/61/61
f 62/62/62 60/60/60 63/63/63
f 63/63/63 64/64/64 62/62/62
f 64/64/64 63/63/63 38/38/38
f 38/38/38 65/65/65 64/64/64
f 65/65/65 38/38/38 39/39/39
f 39/39/39 50/50/50 65/65/65
f 50/50/50 39/39/39 66/66/66
f 66/66/66 41/41/41 50/50/50
f 41/41/41 66/66/66 51/51/51
