mtllib ./Cylinder24.mtl
g Cylinder24
v -1.544647 0.0004272461 -4.755798
v 1.545502 0.0004272461 -4.755798
v 4.045502 0.0004272461 -2.939392
v 5.000427 0.0004272461 -0.0004882813
v 4.045502 0.0004272461 2.938416
v 1.545502 0.0004272461 4.754822
v -1.544647 0.0004272461 4.754822
v -4.044647 0.0004272461 2.938416
v -4.999573 0.0004272461 -0.0004882813
v -4.044647 0.0004272461 -2.939392
v -4.044647 51.88721 2.938416
v -4.999573 51.88721 -0.0004882813
v -1.544647 51.88721 4.754822
v -1.544647 0.0004272461 4.754822
v 1.545502 0.0004272461 4.754822
v 1.545502 51.88721 4.754822
v -1.544647 51.88721 4.754822
v 4.045502 0.0004272461 2.938416
v 4.045502 51.88721 2.938416
v 5.000427 0.0004272461 -0.0004882813
v 5.000427 51.88721 -0.0004882813
v 4.045502 0.0004272461 -2.939392
v 4.045502 51.88721 -2.939392
v 1.545502 0.0004272461 -4.755798
v 1.545502 51.88721 -4.755798
v -1.544647 0.0004272461 -4.755798
v -1.544647 51.88721 -4.755798
v -4.044647 0.0004272461 -2.939392
v -4.044647 51.88721 -2.939392
v -4.044647 88.00922 2.938416
v -4.999573 88.02658 -0.0004882813
v -1.544647 88.00613 4.754822
v 1.545502 88.01846 4.754822
v -1.544647 88.00613 4.754822
v 4.045502 88.0415 2.938416
v 5.000427 88.0665 -0.0004882813
v 4.045502 88.08383 -2.939392
v 1.545502 88.08694 -4.755798
v -1.544647 88.07462 -4.755798
v -4.044647 88.05154 -2.939392
v -4.999573 103.774 -0.0004882813
v -4.044647 103.774 2.938416
v -1.544647 103.774 4.754822
v 1.545502 103.774 4.754822
v 4.045502 103.774 2.938416
v 5.000427 103.774 -0.0004882813
v 4.045502 103.774 -2.939392
v 1.545502 103.774 -4.755798
v -1.544647 103.774 -4.755798
v -4.044647 103.774 -2.939392
v -4.999573 88.02658 -0.0004882813
v -4.044647 88.00922 2.938416
v -1.544647 88.00613 4.754822
v 1.545502 103.774 4.754822
v -1.544647 103.774 4.754822
v -1.544647 88.00613 4.754822
v 1.545502 88.01846 4.754822
v 4.045502 103.774 2.938416
v 5.000427 103.774 -0.0004882813
v 4.045502 103.774 -2.939392
v 1.545502 103.774 -4.755798
v -1.544647 103.774 -4.755798

vn 0 -1 0
vn 0 -1 0
vn 0 -1 0
vn 0 -1 0
vn 0 -1 0
vn 0 -1 0
vn -0.5667645 -0.2651033 0.780063
vn -0.7409707 -0.01219662 0.6714266
vn -0.9566783 -0.2720853 0.1036165
vn 0 -1 0
vn -0.8676103 0 0.4972447
vn -0.9941837 0 -0.107699
vn -0.5877959 0 0.8090093
vn 0 0 0.9999999
vn 0.4096375 0 0.9122485
vn 0.2048297 0 0.9787976
vn 0 0 1
vn 0.8676032 0 0.4972569
vn 0.7410384 0 0.6714627
vn 0.9941857 0 -0.1076788
vn 0.9941879 0 0.1076587
vn 0.7410258 0 -0.6714765
vn 0.8675963 0 -0.4972692
vn 0.2048199 0 -0.9787997
vn 0.4096351 0 -0.9122494
vn -0.4096375 0 -0.9122485
vn -0.2048102 0 -0.9788017
vn -0.8676032 0 -0.4972569
vn -0.7410132 0 -0.6714904
vn -0.7410299 0 0.6714721
vn -0.9941894 0 0.1076448
vn -0.5877959 0 0.8090093
vn 0.4096788 0 0.9122298
vn 0 0 1
vn 0.8676033 0 0.497257
vn 0.9941857 0 -0.1076789
vn 0.7410257 0 -0.6714765
vn 0.2048199 0 -0.9787997
vn -0.4096374 0 -0.9122484
vn -0.8676033 0 -0.4972569
vn -0.9480363 0.3011746 -0.1025719
vn -0.8668654 0.04012875 0.4969246
vn -0.4160447 0.706408 0.5726207
vn 0 1 0
vn 0 1 0
vn 0 1 0
vn 0 1 0
vn 0 1 0
vn 0 1 0
vn -0.7404958 0.04024139 -0.6708551
vn -0.9941773 0 0.1077571
vn -0.7410164 0 0.671487
vn -0.5877959 0 0.8090094
vn 0.2047652 0 0.9788111
vn 0 0 0.9999999
vn 0 0 1
vn 0.4095421 0 0.9122912
vn 0.7409556 0 0.6715539
vn 0.9941736 0 0.1077917
vn 0.8676424 0 -0.4971885
vn 0.4096503 0 -0.9122426
vn -0.2048748 0 -0.9787882

vt 0.121885 0.00149864
vt 0.05000028 0.00149864
vt 0.1500001 0.00149864
vt 0.3836881 0.00149864
vt 0.6618033 0.00149864
vt 0.8781152 0.00149864
vt 0.9499999 0.00149864
vt 0.85 0.00149864
vt 0.7499999 0.00149864
vt 0.3381969 0.00149864
vt 0.85 1.5
vt 0.7499999 1.5
vt 0.9499999 1.5
vt -0.05000007 0.00149864
vt 0.04999998 0.001498696
vt 0.04999999 1.5
vt -0.05000007 1.5
vt 0.15 0.00149864
vt 0.15 1.5
vt 0.25 0.00149864
vt 0.25 1.5
vt 0.35 0.00149864
vt 0.35 1.5
vt 0.45 0.00149864
vt 0.45 1.5
vt 0.55 0.00149864
vt 0.55 1.5
vt 0.65 0.00149864
vt 0.65 1.5
vt 0.85 2.543211
vt 0.75 2.543712
vt 0.9499999 2.543122
vt 0.04999999 2.543478
vt -0.05000007 2.543122
vt 0.15 2.544144
vt 0.25 2.544865
vt 0.35 2.545366
vt 0.45 2.545455
vt 0.55 2.545099
vt 0.65 2.544433
vt 0.7499999 2.998501
vt 0.85 2.998501
vt 0.9499999 2.998501
vt 0.8781152 2.998501
vt 0.6618034 2.998501
vt 0.3836881 2.998501
vt 0.1500001 2.998501
vt 0.05000012 2.998501
vt 0.1218849 2.998501
vt 0.65 2.998501
vt 0.75 2.543712
vt 0.85 2.543211
vt 0.9499999 2.543122
vt 0.04999999 2.998501
vt -0.05000007 2.998501
vt -0.05000007 2.543122
vt 0.04999999 2.543478
vt 0.15 2.998501
vt 0.25 2.998501
vt 0.35 2.998501
vt 0.45 2.998501
vt 0.55 2.998501

usemtl sn18_13_SN18G18.JPG
usemap sn18_13_SN18G18.JPG
f 3/3/3 1/1/1 2/2/2
f 5/5/5 3/3/3 4/4/4
f 7/7/7 5/5/5 6/6/6
f 9/9/9 7/7/7 8/8/8
f 9/9/9 5/5/5 7/7/7
f 9/9/9 3/3/3 5/5/5
f 9/9/9 1/1/1 3/3/3
f 9/9/9 10/10/10 1/1/1
f 11/11/11 9/9/9 8/8/8
f 9/9/9 11/11/11 12/12/12
f 13/13/13 8/8/8 7/7/7
f 8/8/8 13/13/13 11/11/11
f 16/16/16 14/14/14 15/15/15
f 14/14/14 16/16/16 17/17/17
f 19/19/19 15/15/15 18/18/18
f 15/15/15 19/19/19 16/16/16
f 21/21/21 18/18/18 20/20/20
f 18/18/18 21/21/21 19/19/19
f 23/23/23 20/20/20 22/22/22
f 20/20/20 23/23/23 21/21/21
f 25/25/25 22/22/22 24/24/24
f 22/22/22 25/25/25 23/23/23
f 27/27/27 24/24/24 26/26/26
f 24/24/24 27/27/27 25/25/25
f 29/29/29 26/26/26 28/28/28
f 26/26/26 29/29/29 27/27/27
f 12/12/12 28/28/28 9/9/9
f 28/28/28 12/12/12 29/29/29
f 31/31/31 11/11/11 30/30/30
f 11/11/11 31/31/31 12/12/12
f 30/30/30 13/13/13 32/32/32
f 13/13/13 30/30/30 11/11/11
f 34/34/34 16/16/16 33/33/33
f 16/16/16 34/34/34 17/17/17
f 33/33/33 19/19/19 35/35/35
f 19/19/19 33/33/33 16/16/16
f 35/35/35 21/21/21 36/36/36
f 21/21/21 35/35/35 19/19/19
f 36/36/36 23/23/23 37/37/37
f 23/23/23 36/36/36 21/21/21
f 37/37/37 25/25/25 38/38/38
f 25/25/25 37/37/37 23/23/23
f 38/38/38 27/27/27 39/39/39
f 27/27/27 38/38/38 25/25/25
f 39/39/39 29/29/29 40/40/40
f 29/29/29 39/39/39 27/27/27
f 40/40/40 12/12/12 31/31/31
f 12/12/12 40/40/40 29/29/29
f 43/43/43 41/41/41 42/42/42
f 45/45/45 43/43/43 44/44/44
f 47/47/47 45/45/45 46/46/46
f 49/49/49 47/47/47 48/48/48
f 49/49/49 45/45/45 47/47/47
f 49/49/49 43/43/43 45/45/45
f 49/49/49 41/41/41 43/43/43
f 49/49/49 50/50/50 41/41/41
f 51/51/51 42/42/42 41/41/41
f 42/42/42 51/51/51 52/52/52
f 52/52/52 43/43/43 42/42/42
f 43/43/43 52/52/52 53/53/53
f 56/56/56 54/54/54 55/55/55
f 54/54/54 56/56/56 57/57/57
f 57/57/57 58/58/58 54/54/54
f 58/58/58 57/57/57 35/35/35
f 35/35/35 59/59/59 58/58/58
f 59/59/59 35/35/35 36/36/36
f 36/36/36 60/60/60 59/59/59
f 60/60/60 36/36/36 37/37/37
f 37/37/37 61/61/61 60/60/60
f 61/61/61 37/37/37 38/38/38
f 38/38/38 62/62/62 61/61/61
f 62/62/62 38/38/38 39/39/39
f 39/39/39 50/50/50 62/62/62
f 50/50/50 39/39/39 40/40/40
f 40/40/40 41/41/41 50/50/50
f 41/41/41 40/40/40 51/51/51
