mtllib ./Cylinder09.mtl
g Cylinder09
v -0.0001044869 0.0004272461 -0.0001831055
v -4.045189 0.0004272461 2.938721
v -5.000104 0.0004272461 -0.0001831055
v -1.545189 0.0004272461 4.755127
v 1.544981 0.0004272461 4.755127
v -1.545189 0.0004272461 4.755127
v 4.044981 0.0004272461 2.938721
v 4.999896 0.0004272461 -0.0001831055
v 4.04498 0.0004272461 -2.939087
v 1.54498 0.0004272461 -4.755493
v -1.54519 0.0004272461 -4.755493
v -4.04519 0.0004272461 -2.939087
v -4.045189 51.88721 2.938721
v -5.000104 51.88721 -0.0001831055
v -1.545189 51.88721 4.755127
v 1.544981 51.88721 4.755127
v -1.545189 51.88721 4.755127
v 4.044981 51.88721 2.938721
v 4.999896 51.88721 -0.0001831055
v 4.04498 51.88721 -2.939087
v 1.54498 51.88721 -4.755493
v -1.54519 51.88721 -4.755493
v -4.04519 51.88721 -2.939087
v -4.045189 103.774 2.938721
v -5.000104 103.774 -0.0001831055
v -1.545189 103.774 4.755127
v 1.544981 103.774 4.755127
v -1.545189 103.774 4.755127
v 4.044981 103.774 2.938721
v 4.999896 103.774 -0.0001831055
v 4.04498 103.774 -2.939087
v 1.54498 103.774 -4.755493
v -1.54519 103.774 -4.755493
v -4.04519 103.774 -2.939087
v -0.0001044869 103.774 -0.0001831055

vn 0 -1 0
vn -0.7395195 -0.06373872 0.6701105
vn -0.9921643 -0.06373905 0.1074588
vn -0.5853428 -0.09126486 0.805633
vn 0.4088036 -0.06373927 0.9103938
vn 0 -0.04577588 0.9989517
vn 0.8658401 -0.0637391 0.496244
vn 0.9921643 -0.06373905 -0.1074588
vn 0.7395195 -0.06373871 -0.6701106
vn 0.2044025 -0.06373949 -0.9768096
vn -0.4088036 -0.06373926 -0.9103938
vn -0.8658402 -0.06373911 -0.496244
vn -0.8090186 0 0.587783
vn -0.9999999 0 1.12572E-07
vn -0.5877959 0 0.8090093
vn 0.3090247 0 0.951054
vn 0 0 1
vn 0.8090186 0 0.5877829
vn 0.9999999 0 -1.084027E-07
vn 0.8090186 0 -0.5877832
vn 0.3090247 0 -0.9510541
vn -0.3090247 0 -0.951054
vn -0.8090187 0 -0.5877829
vn -0.8658402 0.06373907 0.4962441
vn -0.9921643 0.06373902 -0.1074586
vn -0.5871797 0.04577561 0.8081613
vn 0.2044025 0.06373945 0.9768095
vn 0 0.09126528 0.9958266
vn 0.7395197 0.06373868 0.6701105
vn 0.9921643 0.06373902 0.1074587
vn 0.8658401 0.06373906 -0.4962442
vn 0.4088035 0.06373922 -0.9103938
vn -0.2044025 0.06373944 -0.9768095
vn -0.7395197 0.06373869 -0.6701105
vn 0 1 0

vt 0.5 0.00149864
vt 0.85 0.00149864
vt 0.7499999 0.00149864
vt 0.9499999 0.00149864
vt 0.04999999 0.00149864
vt -0.05000007 0.00149864
vt 0.15 0.00149864
vt 0.25 0.00149864
vt 0.35 0.00149864
vt 0.45 0.00149864
vt 0.55 0.00149864
vt 0.65 0.00149864
vt 0.85 1.5
vt 0.7499999 1.5
vt 0.9499999 1.5
vt 0.04999999 1.5
vt -0.05000007 1.5
vt 0.15 1.5
vt 0.25 1.5
vt 0.35 1.5
vt 0.45 1.5
vt 0.55 1.5
vt 0.65 1.5
vt 0.85 2.998501
vt 0.7499999 2.998501
vt 0.9499999 2.998501
vt 0.04999999 2.998501
vt -0.05000007 2.998501
vt 0.15 2.998501
vt 0.25 2.998501
vt 0.35 2.998501
vt 0.45 2.998501
vt 0.55 2.998501
vt 0.65 2.998501
vt 0.5 2.998501

usemtl sn18_13_SN18G18.JPG
usemap sn18_13_SN18G18.JPG
f 3/3/3 1/1/1 2/2/2
f 2/2/2 1/1/1 4/4/4
f 6/6/6 1/1/1 5/5/5
f 5/5/5 1/1/1 7/7/7
f 7/7/7 1/1/1 8/8/8
f 8/8/8 1/1/1 9/9/9
f 9/9/9 1/1/1 10/10/10
f 10/10/10 1/1/1 11/11/11
f 11/11/11 1/1/1 12/12/12
f 12/12/12 1/1/1 3/3/3
f 14/14/14 3/3/3 13/13/13
f 13/13/13 3/3/3 2/2/2
f 13/13/13 2/2/2 15/15/15
f 15/15/15 2/2/2 4/4/4
f 17/17/17 6/6/6 16/16/16
f 16/16/16 6/6/6 5/5/5
f 16/16/16 5/5/5 18/18/18
f 18/18/18 5/5/5 7/7/7
f 18/18/18 7/7/7 19/19/19
f 19/19/19 7/7/7 8/8/8
f 19/19/19 8/8/8 20/20/20
f 20/20/20 8/8/8 9/9/9
f 20/20/20 9/9/9 21/21/21
f 21/21/21 9/9/9 10/10/10
f 21/21/21 10/10/10 22/22/22
f 22/22/22 10/10/10 11/11/11
f 22/22/22 11/11/11 23/23/23
f 23/23/23 11/11/11 12/12/12
f 23/23/23 12/12/12 14/14/14
f 14/14/14 12/12/12 3/3/3
f 25/25/25 14/14/14 24/24/24
f 24/24/24 14/14/14 13/13/13
f 24/24/24 13/13/13 26/26/26
f 26/26/26 13/13/13 15/15/15
f 28/28/28 17/17/17 27/27/27
f 27/27/27 17/17/17 16/16/16
f 27/27/27 16/16/16 29/29/29
f 29/29/29 16/16/16 18/18/18
f 29/29/29 18/18/18 30/30/30
f 30/30/30 18/18/18 19/19/19
f 30/30/30 19/19/19 31/31/31
f 31/31/31 19/19/19 20/20/20
f 31/31/31 20/20/20 32/32/32
f 32/32/32 20/20/20 21/21/21
f 32/32/32 21/21/21 33/33/33
f 33/33/33 21/21/21 22/22/22
f 33/33/33 22/22/22 34/34/34
f 34/34/34 22/22/22 23/23/23
f 34/34/34 23/23/23 25/25/25
f 25/25/25 23/23/23 14/14/14
f 24/24/24 35/35/35 25/25/25
f 26/26/26 35/35/35 24/24/24
f 27/27/27 35/35/35 28/28/28
f 29/29/29 35/35/35 27/27/27
f 30/30/30 35/35/35 29/29/29
f 31/31/31 35/35/35 30/30/30
f 32/32/32 35/35/35 31/31/31
f 33/33/33 35/35/35 32/32/32
f 34/34/34 35/35/35 33/33/33
f 25/25/25 35/35/35 34/34/34
