mtllib ./Cylinder25.mtl
g Cylinder25
v -1.544647 0.0004272461 -4.755157
v 1.545502 0.0004272461 -4.755157
v 4.045502 0.0004272461 -2.938812
v 5.000427 0.0004272461 0.0001220703
v 4.045502 0.0004272461 2.939056
v 1.545502 0.0004272461 4.755402
v -1.544647 0.0004272461 4.755402
v -4.044647 0.0004272461 2.939056
v -4.999573 0.0004272461 0.0001220703
v -4.044647 0.0004272461 -2.938812
v -4.044647 51.88721 2.939056
v -4.999573 51.88721 0.0001220703
v -1.544647 51.88721 4.755402
v -1.544647 0.0004272461 4.755402
v 1.545502 0.0004272461 4.755402
v 1.545502 51.88721 4.755402
v -1.544647 51.88721 4.755402
v 4.045502 0.0004272461 2.939056
v 4.045502 51.88721 2.939056
v 5.000427 0.0004272461 0.0001220703
v 5.000427 51.88721 0.0001220703
v 4.045502 0.0004272461 -2.938812
v 4.045502 51.88721 -2.938812
v 1.545502 0.0004272461 -4.755157
v 1.545502 51.88721 -4.755157
v -1.544647 0.0004272461 -4.755157
v -1.544647 51.88721 -4.755157
v -4.044647 0.0004272461 -2.938812
v -4.044647 51.88721 -2.938812
v -4.044647 87.31238 2.939056
v -4.999573 87.51859 0.0001220703
v -1.544647 87.33582 4.755402
v 1.545502 87.57993 4.755402
v -1.544647 87.33582 4.755402
v 4.045502 87.95151 2.939056
v 5.000427 88.30859 0.0001220703
v 4.045502 88.51483 -2.938812
v 1.545502 88.49139 -4.755157
v -1.544647 88.24725 -4.755157
v -4.044647 87.8757 -2.938812
v -4.999573 103.774 0.0001220703
v -4.044647 103.774 2.939056
v -1.544647 103.774 4.755402
v 1.545502 103.774 4.755402
v 4.045502 103.774 2.939056
v 5.000427 103.774 0.0001220703
v 4.045502 103.774 -2.938812
v 1.545502 103.774 -4.755157
v -1.544647 103.774 -4.755157
v -4.044647 103.774 -2.938812
v -4.999573 87.51859 0.0001220703
v -4.044647 87.31238 2.939056
v -1.544647 87.33582 4.755402
v 1.545502 87.57993 4.755402
v 1.545502 103.774 4.755402
v -1.544647 103.774 4.755402
v -1.544647 87.33582 4.755402
v 4.045502 87.95151 2.939056
v 4.045502 103.774 2.939056
v 5.000427 103.774 0.0001220703
v 4.045502 103.774 -2.938812
v 1.545502 103.774 -4.755157
v -1.544647 103.774 -4.755157
v -1.544647 88.24725 -4.755157

vn 0 -0.9999999 0
vn 0 -1 0
vn 0 -1 0
vn 0 -0.9999999 0
vn 0 -1 0
vn 0 -1 0
vn -0.566752 -0.2651038 0.7800719
vn -0.740966 -0.012197 0.6714317
vn -0.956679 -0.2720828 0.1036155
vn 0 -1 0
vn -0.8504122 0 0.5261168
vn -0.9997922 0 -0.02038373
vn -0.5877829 0 0.8090187
vn 0 0 0.9999999
vn 0.4096259 0 0.9122536
vn 0.2050082 0 0.9787602
vn 0 0 1
vn 0.8676032 0 0.4972569
vn 0.7412239 0 0.6712579
vn 0.9941858 0 -0.1076777
vn 0.9942169 0 0.1073904
vn 0.7410212 0 -0.6714817
vn 0.8675206 0 -0.4974014
vn 0.2048133 0 -0.9788011
vn 0.3618379 0 -0.9322411
vn -0.4096259 0 -0.9122536
vn -0.2903777 0 -0.9569121
vn -0.8676032 0 -0.4972569
vn -0.7970634 0 -0.6038957
vn -0.8092618 0 0.5874481
vn -0.9941088 0 -0.1083864
vn -0.5877829 0 0.8090187
vn 0.4103012 0 0.9119501
vn 0 0 1
vn 0.8679532 0 0.4966458
vn 0.9990651 0 -0.04323111
vn 0.7665374 0 -0.6421996
vn 0.2685584 0 -0.9632635
vn -0.2043453 0 -0.9788988
vn -0.7837806 0 -0.6210378
vn -0.9502719 0.2944498 -0.101403
vn -0.8665109 0.0385837 0.4976649
vn -0.4247487 0.6912365 0.5846201
vn 0 1 0
vn 0 1 0
vn 0 0.9999999 0
vn 0 1 0
vn 0 1 0
vn 0 1 0
vn -0.7415522 0.04009743 -0.6696958
vn -0.9940884 0 0.1085739
vn -0.7410894 0 0.6714063
vn -0.5877829 0 0.8090187
vn 0.2037656 0 0.9790196
vn 0.4081197 0 0.9129284
vn 0 0 0.9999999
vn 0 0 1
vn 0.7399036 0 0.6727129
vn 0.866795 0 0.4986645
vn 0.9942883 0 -0.1067272
vn 0.8090159 0 -0.5877867
vn 0.4095261 0 -0.9122984
vn -0.2059175 0 -0.9785693
vn -0.4111707 0 -0.9115584

vt 0.121885 0.00149864
vt 0.05000028 0.00149864
vt 0.1500001 0.00149864
vt 0.3836881 0.00149864
vt 0.6618033 0.00149864
vt 0.8781152 0.00149864
vt 0.9499999 0.00149864
vt 0.85 0.00149864
vt 0.7499999 0.00149864
vt 0.3381969 0.00149864
vt 0.85 1.5
vt 0.7499999 1.5
vt 0.9499999 1.5
vt -0.05000007 0.00149864
vt 0.04999998 0.001498696
vt 0.04999999 1.5
vt -0.05000007 1.5
vt 0.15 0.00149864
vt 0.15 1.5
vt 0.25 0.00149864
vt 0.25 1.5
vt 0.35 0.00149864
vt 0.35 1.5
vt 0.45 0.00149864
vt 0.45 1.5
vt 0.55 0.00149864
vt 0.55 1.5
vt 0.65 0.00149864
vt 0.65 1.5
vt 0.8499999 2.523086
vt 0.7499999 2.529042
vt 0.9499999 2.523763
vt 0.04999999 2.530813
vt -0.05000007 2.523763
vt 0.15 2.541544
vt 0.25 2.551857
vt 0.35 2.557813
vt 0.45 2.557136
vt 0.55 2.550086
vt 0.65 2.539355
vt 0.7499999 2.998501
vt 0.85 2.998501
vt 0.9499999 2.998501
vt 0.8781152 2.998501
vt 0.6618034 2.998501
vt 0.3836881 2.998501
vt 0.1500001 2.998501
vt 0.05000012 2.998501
vt 0.1218849 2.998501
vt 0.65 2.998501
vt 0.7499999 2.529042
vt 0.8499999 2.523086
vt 0.9499999 2.523763
vt 0.04999999 2.530813
vt 0.04999999 2.998501
vt -0.05000007 2.998501
vt -0.05000007 2.523763
vt 0.15 2.541544
vt 0.15 2.998501
vt 0.25 2.998501
vt 0.35 2.998501
vt 0.45 2.998501
vt 0.55 2.998501
vt 0.55 2.550086

usemtl sn18_13_SN18G18.JPG
usemap sn18_13_SN18G18.JPG
f 3/3/3 1/1/1 2/2/2
f 5/5/5 3/3/3 4/4/4
f 7/7/7 5/5/5 6/6/6
f 9/9/9 7/7/7 8/8/8
f 9/9/9 5/5/5 7/7/7
f 9/9/9 3/3/3 5/5/5
f 9/9/9 1/1/1 3/3/3
f 9/9/9 10/10/10 1/1/1
f 11/11/11 9/9/9 8/8/8
f 9/9/9 11/11/11 12/12/12
f 13/13/13 8/8/8 7/7/7
f 8/8/8 13/13/13 11/11/11
f 16/16/16 14/14/14 15/15/15
f 14/14/14 16/16/16 17/17/17
f 19/19/19 15/15/15 18/18/18
f 15/15/15 19/19/19 16/16/16
f 21/21/21 18/18/18 20/20/20
f 18/18/18 21/21/21 19/19/19
f 23/23/23 20/20/20 22/22/22
f 20/20/20 23/23/23 21/21/21
f 25/25/25 22/22/22 24/24/24
f 22/22/22 25/25/25 23/23/23
f 27/27/27 24/24/24 26/26/26
f 24/24/24 27/27/27 25/25/25
f 29/29/29 26/26/26 28/28/28
f 26/26/26 29/29/29 27/27/27
f 12/12/12 28/28/28 9/9/9
f 28/28/28 12/12/12 29/29/29
f 30/30/30 12/12/12 11/11/11
f 12/12/12 30/30/30 31/31/31
f 30/30/30 13/13/13 32/32/32
f 13/13/13 30/30/30 11/11/11
f 34/34/34 16/16/16 33/33/33
f 16/16/16 34/34/34 17/17/17
f 33/33/33 19/19/19 35/35/35
f 19/19/19 33/33/33 16/16/16
f 35/35/35 21/21/21 36/36/36
f 21/21/21 35/35/35 19/19/19
f 36/36/36 23/23/23 37/37/37
f 23/23/23 36/36/36 21/21/21
f 37/37/37 25/25/25 38/38/38
f 25/25/25 37/37/37 23/23/23
f 39/39/39 25/25/25 27/27/27
f 25/25/25 39/39/39 38/38/38
f 40/40/40 27/27/27 29/29/29
f 27/27/27 40/40/40 39/39/39
f 31/31/31 29/29/29 12/12/12
f 29/29/29 31/31/31 40/40/40
f 43/43/43 41/41/41 42/42/42
f 45/45/45 43/43/43 44/44/44
f 47/47/47 45/45/45 46/46/46
f 49/49/49 47/47/47 48/48/48
f 49/49/49 45/45/45 47/47/47
f 49/49/49 43/43/43 45/45/45
f 49/49/49 41/41/41 43/43/43
f 49/49/49 50/50/50 41/41/41
f 51/51/51 42/42/42 41/41/41
f 42/42/42 51/51/51 52/52/52
f 52/52/52 43/43/43 42/42/42
f 43/43/43 52/52/52 53/53/53
f 56/56/56 54/54/54 55/55/55
f 54/54/54 56/56/56 57/57/57
f 55/55/55 58/58/58 59/59/59
f 58/58/58 55/55/55 54/54/54
f 59/59/59 36/36/36 60/60/60
f 36/36/36 59/59/59 58/58/58
f 60/60/60 37/37/37 61/61/61
f 37/37/37 60/60/60 36/36/36
f 37/37/37 62/62/62 61/61/61
f 62/62/62 37/37/37 38/38/38
f 38/38/38 63/63/63 62/62/62
f 63/63/63 38/38/38 64/64/64
f 64/64/64 50/50/50 63/63/63
f 50/50/50 64/64/64 40/40/40
f 40/40/40 41/41/41 50/50/50
f 41/41/41 40/40/40 51/51/51
