mtllib ./Cylinder26.mtl
g Cylinder26
v -1.545349 0.0004272461 -4.755219
v 1.544861 0.0004272461 -4.755219
v 4.044861 0.0004272461 -2.938873
v 4.999756 0.0004272461 6.103516E-05
v 4.044861 0.0004272461 2.938995
v 1.544861 0.0004272461 4.755341
v -1.545349 0.0004272461 4.755341
v -4.045349 0.0004272461 2.938995
v -5.000244 0.0004272461 6.103516E-05
v -4.045349 0.0004272461 -2.938873
v -4.045349 51.88721 2.938995
v -5.000244 51.88721 6.103516E-05
v -1.545349 51.88721 4.755341
v -1.545349 0.0004272461 4.755341
v 1.544861 0.0004272461 4.755341
v 1.544861 51.88721 4.755341
v -1.545349 51.88721 4.755341
v 4.044861 0.0004272461 2.938995
v 4.044861 51.88721 2.938995
v 4.999756 0.0004272461 6.103516E-05
v 4.999756 51.88721 6.103516E-05
v 4.044861 0.0004272461 -2.938873
v 4.044861 51.88721 -2.938873
v 1.544861 0.0004272461 -4.755219
v 1.544861 51.88721 -4.755219
v -1.545349 0.0004272461 -4.755219
v -1.545349 51.88721 -4.755219
v -4.045349 0.0004272461 -2.938873
v -4.045349 51.88721 -2.938873
v -4.045349 88.93976 2.938995
v -5.000244 88.74313 6.103516E-05
v -1.545349 88.75342 4.755341
v 1.544861 88.25531 4.755341
v -1.545349 88.75342 4.755341
v 4.044861 87.63568 2.938995
v 4.999756 87.1312 6.103516E-05
v 4.044861 86.93457 -2.938873
v 1.544861 87.12091 -4.755219
v -1.545349 87.61902 -4.755219
v -4.045349 88.23865 -2.938873
v -5.000244 103.774 6.103516E-05
v -4.045349 103.774 2.938995
v -1.545349 103.774 4.755341
v 1.544861 103.774 4.755341
v 4.044861 103.774 2.938995
v 4.999756 103.774 6.103516E-05
v 4.044861 103.774 -2.938873
v 1.544861 103.774 -4.755219
v -1.545349 103.774 -4.755219
v -4.045349 103.774 -2.938873
v -4.045349 88.93976 2.938995
v -5.000244 88.74313 6.103516E-05
v -1.545349 88.75342 4.755341
v 1.544861 103.774 4.755341
v -1.545349 103.774 4.755341
v -1.545349 88.75342 4.755341
v 4.044861 103.774 2.938995
v 4.999756 103.774 6.103516E-05
v 4.044861 103.774 -2.938873
v 1.544861 103.774 -4.755219
v -1.545349 103.774 -4.755219

vn 0 -1 0
vn 0 -1 0
vn 0 -1 0
vn 0 -1 0
vn 0 -1 0
vn 0 -1 0
vn -0.5667516 -0.265106 0.7800714
vn -0.7409678 -0.01219715 0.6714299
vn -0.9566789 -0.2720843 0.1036122
vn 0 -1 0
vn -0.8675277 0 0.4973888
vn -0.99423 0 -0.1072702
vn -0.587783 0 0.8090188
vn 0 0 1
vn 0.4096234 0 0.9122547
vn 0.2900764 0 0.9570035
vn 0 0 1
vn 0.8676063 0 0.4972518
vn 0.7967359 0 0.6043274
vn 0.9941862 0 -0.1076743
vn 0.9997807 0 0.02094265
vn 0.7410228 0 -0.6714798
vn 0.8505454 0 -0.5259016
vn 0.2048106 0 -0.9788017
vn 0.409484 0 -0.9123173
vn -0.4096234 0 -0.9122547
vn -0.2052084 0 -0.9787183
vn -0.8676063 0 -0.4972518
vn -0.7413601 0 -0.6711075
vn -0.7412642 0 0.6712133
vn -0.9941452 0 0.1080522
vn -0.5877829 0 0.8090186
vn 0.2679108 0 0.9634438
vn 0 0 1
vn 0.7843352 0 0.6203372
vn 0.999229 0 0.03926177
vn 0.8090297 0 -0.5877678
vn 0.2714634 0 -0.9624488
vn -0.34755 0 -0.9376615
vn -0.8334684 0 -0.5525671
vn -0.943585 0.3152553 0.1012989
vn -0.8073474 0.06424023 0.5865692
vn -0.4045333 0.725487 0.5567957
vn 0 1 0
vn 0 1 0
vn 0 1 0
vn 0 1 0
vn 0 1 0
vn 0 1 0
vn -0.8657042 0.04116166 -0.4988605
vn -0.8090514 0 0.587738
vn -0.9939284 0 -0.1100284
vn -0.5877829 0 0.8090187
vn 0.207077 0 0.9783247
vn 0 0 1
vn 0 0 0.9999999
vn 0.7428844 0 0.6694197
vn 0.9944192 0 0.1055009
vn 0.808989 0 -0.5878236
vn 0.206921 0 -0.9783576
vn -0.4070916 0 -0.9133874

vt 0.121885 0.00149864
vt 0.05000028 0.00149864
vt 0.1500001 0.00149864
vt 0.3836881 0.00149864
vt 0.6618033 0.00149864
vt 0.8781152 0.00149864
vt 0.9499999 0.00149864
vt 0.85 0.00149864
vt 0.7499999 0.00149864
vt 0.3381969 0.00149864
vt 0.85 1.5
vt 0.7499999 1.5
vt 0.9499999 1.5
vt -0.05000007 0.00149864
vt 0.04999998 0.001498696
vt 0.04999999 1.5
vt -0.05000007 1.5
vt 0.15 0.00149864
vt 0.15 1.5
vt 0.25 0.00149864
vt 0.25 1.5
vt 0.35 0.00149864
vt 0.35 1.5
vt 0.45 0.00149864
vt 0.45 1.5
vt 0.55 0.00149864
vt 0.55 1.5
vt 0.65 0.00149864
vt 0.65 1.5
vt 0.85 2.570085
vt 0.75 2.564406
vt 0.9499999 2.564703
vt 0.04999999 2.550318
vt -0.05000007 2.564703
vt 0.15 2.532423
vt 0.25 2.517853
vt 0.35 2.512175
vt 0.45 2.517556
vt 0.55 2.531942
vt 0.65 2.549837
vt 0.7499999 2.998501
vt 0.85 2.998501
vt 0.9499999 2.998501
vt 0.8781152 2.998501
vt 0.6618034 2.998501
vt 0.3836881 2.998501
vt 0.1500001 2.998501
vt 0.05000012 2.998501
vt 0.1218849 2.998501
vt 0.65 2.998501
vt 0.85 2.570085
vt 0.75 2.564406
vt 0.9499999 2.564703
vt 0.04999999 2.998501
vt -0.05000007 2.998501
vt -0.05000007 2.564703
vt 0.15 2.998501
vt 0.25 2.998501
vt 0.35 2.998501
vt 0.45 2.998501
vt 0.55 2.998501

usemtl sn18_13_SN18G18.JPG
usemap sn18_13_SN18G18.JPG
f 3/3/3 1/1/1 2/2/2
f 5/5/5 3/3/3 4/4/4
f 7/7/7 5/5/5 6/6/6
f 9/9/9 7/7/7 8/8/8
f 9/9/9 5/5/5 7/7/7
f 9/9/9 3/3/3 5/5/5
f 9/9/9 1/1/1 3/3/3
f 9/9/9 10/10/10 1/1/1
f 11/11/11 9/9/9 8/8/8
f 9/9/9 11/11/11 12/12/12
f 13/13/13 8/8/8 7/7/7
f 8/8/8 13/13/13 11/11/11
f 16/16/16 14/14/14 15/15/15
f 14/14/14 16/16/16 17/17/17
f 19/19/19 15/15/15 18/18/18
f 15/15/15 19/19/19 16/16/16
f 21/21/21 18/18/18 20/20/20
f 18/18/18 21/21/21 19/19/19
f 23/23/23 20/20/20 22/22/22
f 20/20/20 23/23/23 21/21/21
f 25/25/25 22/22/22 24/24/24
f 22/22/22 25/25/25 23/23/23
f 27/27/27 24/24/24 26/26/26
f 24/24/24 27/27/27 25/25/25
f 29/29/29 26/26/26 28/28/28
f 26/26/26 29/29/29 27/27/27
f 12/12/12 28/28/28 9/9/9
f 28/28/28 12/12/12 29/29/29
f 31/31/31 11/11/11 30/30/30
f 11/11/11 31/31/31 12/12/12
f 30/30/30 13/13/13 32/32/32
f 13/13/13 30/30/30 11/11/11
f 33/33/33 17/17/17 16/16/16
f 17/17/17 33/33/33 34/34/34
f 35/35/35 16/16/16 19/19/19
f 16/16/16 35/35/35 33/33/33
f 36/36/36 19/19/19 21/21/21
f 19/19/19 36/36/36 35/35/35
f 37/37/37 21/21/21 23/23/23
f 21/21/21 37/37/37 36/36/36
f 37/37/37 25/25/25 38/38/38
f 25/25/25 37/37/37 23/23/23
f 38/38/38 27/27/27 39/39/39
f 27/27/27 38/38/38 25/25/25
f 39/39/39 29/29/29 40/40/40
f 29/29/29 39/39/39 27/27/27
f 40/40/40 12/12/12 31/31/31
f 12/12/12 40/40/40 29/29/29
f 43/43/43 41/41/41 42/42/42
f 45/45/45 43/43/43 44/44/44
f 47/47/47 45/45/45 46/46/46
f 49/49/49 47/47/47 48/48/48
f 49/49/49 45/45/45 47/47/47
f 49/49/49 43/43/43 45/45/45
f 49/49/49 41/41/41 43/43/43
f 49/49/49 50/50/50 41/41/41
f 41/41/41 51/51/51 42/42/42
f 51/51/51 41/41/41 52/52/52
f 51/51/51 43/43/43 42/42/42
f 43/43/43 51/51/51 53/53/53
f 56/56/56 54/54/54 55/55/55
f 54/54/54 56/56/56 33/33/33
f 33/33/33 57/57/57 54/54/54
f 57/57/57 33/33/33 35/35/35
f 35/35/35 58/58/58 57/57/57
f 58/58/58 35/35/35 36/36/36
f 36/36/36 59/59/59 58/58/58
f 59/59/59 36/36/36 37/37/37
f 59/59/59 38/38/38 60/60/60
f 38/38/38 59/59/59 37/37/37
f 60/60/60 39/39/39 61/61/61
f 39/39/39 60/60/60 38/38/38
f 61/61/61 40/40/40 50/50/50
f 40/40/40 61/61/61 39/39/39
f 50/50/50 52/52/52 41/41/41
f 52/52/52 50/50/50 40/40/40
