mtllib ./Line01.mtl
g Line01
v 4.552429 1.999664 68.64196
v -70.0396 1.999664 75.59705
v 72.57092 1.999664 75.59705
v 62.77585 1.999664 -83.50086
v 62.81873 1.999664 42.02218
v 72.57092 1.999664 -89.79154
v -40.91702 -0.0003358722 14.1953
v -70.28696 -0.0003358722 14.1953
v -70.28696 1.999664 14.1953
v -40.8342 1.999664 14.1953
v -70.28696 -0.0003358722 14.1953
v -70.0396 -0.0003358722 75.59705
v -70.0396 1.999664 75.59705
v -70.2673 1.999664 20.70744
v -70.28696 1.999664 14.1953
v -70.0396 -0.0003358722 75.59705
v 72.57092 -0.0003358722 75.59705
v 72.57092 1.999664 75.59705
v -70.0396 1.999664 75.59705
v 72.57092 -0.0003358722 40.60353
v 72.57092 -0.0003358722 -89.79154
v 72.57092 1.999664 -89.79154
v 72.57092 1.999664 40.54077
v 2.602402 -0.0003358126 -89.79154
v -2.035507 -0.0003358126 -89.79154
v -2.035507 1.999664 -89.79154
v -2.035507 1.999664 14.1953
v -48.51176 1.999664 20.2646
v 5.250992 1.999664 21.01134
v -47.72121 1.999664 67.49494
v -47.57463 1.999664 59.36147
v -64.5441 1.999664 59.39326
v -2.035507 1.999664 -89.79154
v 1.468887 1.999664 -86.51592
v 2.720886 1.999664 -89.79154
v 2.720886 1.999664 -89.79154
v -2.035507 -0.0003358722 -21.49983
v -2.035507 -0.0003358722 14.1953
v -2.035507 1.999664 14.1953
v -2.035507 1.999664 -21.46845
v 2.471954 1.999664 -21.29933
v 2.471954 1.999664 -21.29933
v 5.179123 1.999664 -83.49345
v 4.552429 1.999664 68.64196
v 72.57092 1.999664 75.59705
v 66.17249 1.999664 44.15325
v 66.17249 1.999664 44.15325
v 72.57092 1.999664 40.54077
v 4.042099 1.999664 40.5904
v 4.552429 1.999664 68.64196
v 30.72481 1.999664 40.82086
v -48.51985 1.999664 34.88196
v -65.22449 1.999664 34.19946
v -65.22449 1.999664 34.19946
v -70.2673 1.999664 20.70744
v -64.86261 1.999664 35.10549
v -48.51176 1.999664 20.2646
v -40.8342 1.999664 14.1953
v -70.28696 1.999664 14.1953
v 72.57092 1.999664 -89.79154
v 72.57092 -0.0003358722 -89.79154
v 2.720886 1.999664 -89.79154
v 5.222 1.999664 -21.19616
v 1.468887 1.999664 -86.51592
v 5.222 1.999664 -21.19616
v 5.179123 1.999664 -83.49345
v -2.035507 1.999664 -21.46845
v -2.035507 1.999664 -21.46845
v -2.035507 1.999664 -21.46845
v -2.035507 1.999664 -89.79154
v -2.035507 -0.0003358126 -89.79154
v -2.035507 -0.0003358722 -21.49983
v -48.51985 1.999664 34.88196
v -65.22449 1.999664 34.19946
v -64.86261 1.999664 35.10549
v -40.8342 1.999664 14.1953
v -2.035507 1.999664 14.1953
v -2.035507 -0.0003358722 14.1953
v 30.72481 1.999664 40.82086
v 62.81873 1.999664 42.02218
v 72.57092 1.999664 40.54077
v 72.57092 1.999664 75.59705
v 72.57092 -0.0003358722 75.59705

vn 0 1 0
vn 0 1 0
vn 0 0.9999999 0
vn 0 1 0
vn 0 1 0
vn 0 1 0
vn 0 0 -1
vn 0 0 -1
vn 0 0 -0.9999999
vn 0 0 -1
vn -0.9999905 -0.001645282 0.004028515
vn -0.9999918 0 0.004028521
vn -0.9999901 -0.001737415 0.004085105
vn -0.9999865 -0.003290551 0.004028499
vn -0.9999954 0 0.003017936
vn 0 0 1
vn 0 0 1
vn 0 0 1
vn 0 0 1
vn 1 0 0
vn 1 0 0
vn 1 0 0
vn 1 0 0
vn 0 0 -1
vn 0 0 -1
vn 0 0 -1
vn 0 1 0
vn 0 1 0
vn 0 1 0
vn 0 0.9999999 0
vn 0 1 0
vn 0 1 0
vn 0 1 0
vn 0 1 0
vn 0 1 0
vn 0 0 -1
vn -1 0 0
vn -1 0 0
vn -1 0 0
vn -1 0 0
vn 0 1 0
vn 0 1 0
vn 0 1 0
vn 0 1 0
vn 0 1 0
vn 0 1 0
vn 0 1 0
vn 0 1 0
vn 0 1 0
vn 0 1 0
vn 0 1 0
vn 0 1 0
vn 0 1 0
vn 0 1 0
vn 0 1 0
vn 0 1 0
vn 0 1 0
vn 0 1 0
vn 0 1 0
vn 0 0 -1
vn 0 0 -1
vn 0 1 0
vn 0 1 0
vn 0 1 0
vn 0 1 0
vn 0 1 0
vn 0 1 0
vn 0 1 0
vn -1 0 0
vn -1 0 0
vn -1 0 0
vn -1 0 0
vn 0 1 0
vn 0 1 0
vn 0 1 0
vn 0 1 0
vn 0 0 -1
vn 0 0 -1
vn 0 1 0
vn 0 1 0
vn 0 0.9999999 0
vn 1 0 0
vn 1 0 0

vt 0.4733561 1.091712
vt 1.056106 1.146049
vt -0.05803835 1.146049
vt 0.01848534 -0.0969032
vt 0.0181506 0.8837456
vt -0.05803871 -0.1460491
vt 1.132698 0.0004995167
vt 1.649461 0.0004995167
vt 1.649461 0.04780972
vt 1.131292 0.04780972
vt 0.7984799 0.0004995167
vt 1.840671 0.0004995167
vt 1.840671 0.04780972
vt 0.9090126 0.04780972
vt 0.7984799 0.04780972
vt -0.7711123 0.0004995167
vt 1.649461 0.0004995167
vt 1.649461 0.04780972
vt -0.7711123 0.04780972
vt -0.3725649 0.0004995167
vt 1.840671 0.0004995167
vt 1.840671 0.04780972
vt -0.3714997 0.04780972
vt 0.4122869 0.0004995447
vt 0.4910077 0.0004995465
vt 0.4910077 0.04780972
vt 0.5248242 0.6663479
vt 0.8879199 0.7137643
vt 0.4678985 0.7195983
vt 0.8817438 1.082751
vt 0.8805987 1.019209
vt 1.013173 1.019457
vt 0.524824 -0.1460493
vt 0.4974459 -0.1204585
vt 0.4876647 -0.1460493
vt 0.4102759 0.04780972
vt 0.1938259 0.000499527
vt 0.7984802 0.0004995167
vt 0.7984802 0.04780972
vt 0.1940136 0.04780972
vt 0.4896096 0.3890461
vt 0.4896096 0.3890461
vt 0.4684597 -0.09684545
vt 0.4733561 1.091712
vt -0.05803835 1.146049
vt -0.00805074 0.9003945
vt -0.00805074 0.9003945
vt -0.05803847 0.872172
vt 0.4773429 0.8725597
vt 0.4733561 1.091712
vt 0.2688842 0.8743601
vt 0.8879832 0.8279623
vt 1.018488 0.8226303
vt 1.018488 0.8226303
vt 1.057885 0.7172239
vt 1.015661 0.8297086
vt 0.8879199 0.7137643
vt 0.8279389 0.6663479
vt 1.058039 0.6663478
vt -0.7753107 0.04780972
vt -0.7753107 0.0004995167
vt 0.4876647 -0.1460493
vt 0.4681249 0.3898522
vt 0.4974459 -0.1204585
vt 0.4681249 0.3898522
vt 0.4684597 -0.09684545
vt 0.5248241 0.3877249
vt 0.5248241 0.3877249
vt 0.1940136 0.04780972
vt -0.966521 0.04780972
vt -0.966521 0.0004995465
vt 0.1938259 0.000499527
vt 0.8879832 0.8279623
vt 1.018488 0.8226303
vt 1.015661 0.8297086
vt 0.8279389 0.6663479
vt 0.491008 0.04780972
vt 0.491008 0.0004995167
vt 0.2688842 0.8743601
vt 0.0181506 0.8837456
vt -0.05803847 0.872172
vt -0.966521 0.04780972
vt -0.966521 0.0004995167

usemtl sn18_22_SN18G01.JPG
usemap sn18_22_SN18G01.JPG
f 3/3/3 1/1/1 2/2/2
f 6/6/6 4/4/4 5/5/5
f 29/29/29 27/27/27 28/28/28
f 32/32/32 30/30/30 31/31/31
f 35/35/35 33/33/33 34/34/34
f 29/29/29 41/41/41 27/27/27
f 34/34/34 33/33/33 42/42/42
f 6/6/6 43/43/43 4/4/4
f 46/46/46 44/44/44 45/45/45
f 6/6/6 47/47/47 48/48/48
f 51/51/51 49/49/49 50/50/50
f 1/1/1 30/30/30 2/2/2
f 53/53/53 52/52/52 28/28/28
f 2/2/2 54/54/54 55/55/55
f 2/2/2 30/30/30 32/32/32
f 2/2/2 32/32/32 56/56/56
f 54/54/54 57/57/57 55/55/55
f 57/57/57 58/58/58 59/59/59
f 55/55/55 57/57/57 59/59/59
f 6/6/6 62/62/62 43/43/43
f 63/63/63 41/41/41 29/29/29
f 62/62/62 64/64/64 43/43/43
f 66/66/66 34/34/34 65/65/65
f 65/65/65 34/34/34 42/42/42
f 41/41/41 67/67/67 27/27/27
f 42/42/42 33/33/33 68/68/68
f 75/75/75 73/73/73 74/74/74
f 2/2/2 56/56/56 54/54/54
f 28/28/28 27/27/27 76/76/76
f 80/80/80 79/79/79 44/44/44
f 6/6/6 5/5/5 47/47/47
f 80/80/80 44/44/44 46/46/46
f 81/81/81 46/46/46 45/45/45

usemtl sn18_19_SN18G02.JPG
usemap sn18_19_SN18G02.JPG
f 9/9/9 7/7/7 8/8/8
f 7/7/7 9/9/9 10/10/10
f 13/13/13 11/11/11 12/12/12
f 11/11/11 14/14/14 15/15/15
f 18/18/18 16/16/16 17/17/17
f 16/16/16 18/18/18 19/19/19
f 22/22/22 20/20/20 21/21/21
f 20/20/20 22/22/22 23/23/23
f 26/26/26 24/24/24 25/25/25
f 11/11/11 13/13/13 14/14/14
f 24/24/24 26/26/26 36/36/36
f 39/39/39 37/37/37 38/38/38
f 37/37/37 39/39/39 40/40/40
f 61/61/61 36/36/36 60/60/60
f 36/36/36 61/61/61 24/24/24
f 71/71/71 69/69/69 70/70/70
f 69/69/69 71/71/71 72/72/72
f 78/78/78 10/10/10 77/77/77
f 10/10/10 78/78/78 7/7/7
f 83/83/83 23/23/23 82/82/82
f 23/23/23 83/83/83 20/20/20
