mtllib ./Mesh02.mtl
g Mesh02
v -29.6539 10.2169 0.0002441406
v 29.65439 10.21689 0.0002479553
v 29.65439 -10.21638 -26.73678
v -29.6539 -10.21638 -26.73678
v 29.65439 10.21689 0.0002479553
v -29.6539 10.2169 0.0002441406
v -29.65388 -10.21638 26.73729
v 29.6544 -10.21638 26.7373
v 29.65439 -10.21638 -24.1884
v -29.6539 -10.21638 -24.18842
v -29.6539 -10.21638 -26.73678
v 29.65439 -10.21638 -26.73678
v -29.6539 -10.21638 -24.18842
v -29.6539 7.133389 0.0002441406
v -29.6539 10.2169 0.0002441406
v -29.6539 -10.21638 -26.73678
v -29.65388 -10.21638 24.18894
v -29.65388 -10.21638 26.73729
v -29.65388 -10.21638 24.18894
v 29.6544 -10.21638 24.18896
v 29.6544 -10.21638 26.7373
v -29.65388 -10.21638 26.73729
v -26.81792 -10.21638 -24.18841
v -26.8179 7.133389 0.0002555847
v -29.6539 7.133389 0.0002441406
v -26.81789 -10.21638 24.18896
v 29.65439 -10.21638 -24.1884
v 29.65439 7.133389 0.0002555847
v 26.81841 7.133389 0.00025177
v 26.81839 -10.21638 -24.1884
v 29.6544 -10.21638 24.18896
v 26.81841 -10.21638 24.18896
v 29.65439 7.133389 0.0002555847
v 29.65439 -10.21638 -24.1884
v 29.65439 10.21689 0.0002479553
v 29.65439 -10.21638 -26.73678
v 29.6544 -10.21638 24.18896
v 29.6544 -10.21638 26.7373

vn 4.50802E-08 0.7945397 -0.6072122
vn 9.016041E-08 0.7945398 -0.6072122
vn 4.50802E-08 0.7945397 -0.6072122
vn 0 0.7945397 -0.6072123
vn -3.303129E-08 0.79454 0.6072118
vn 1.20489E-08 0.7945399 0.6072119
vn -3.303129E-08 0.79454 0.6072118
vn -7.811148E-08 0.79454 0.6072118
vn 0 -1 0
vn -6.77629E-07 -0.975835 0.218509
vn 0 -1 0
vn 0 -1 0
vn -1 0 0
vn -0.9999999 -1.93223E-07 2.337996E-07
vn -1 0 2.250134E-07
vn -1 0 0
vn -1 -8.794807E-07 0
vn -1 -3.070081E-07 3.714796E-07
vn 1.35526E-06 -0.9758345 -0.2185105
vn 0 -1 0
vn 0 -1 0
vn 0 -1 0
vn -1.988223E-06 -0.8125854 0.5828421
vn 2.019145E-06 -0.9725879 -0.2325354
vn -5.769E-07 -0.9725881 0.2325348
vn 4.699419E-06 -0.8125859 -0.5828414
vn -3.614952E-07 -0.8125853 0.5828422
vn 0 -0.9725878 -0.2325361
vn 0 -0.9725877 0.2325363
vn 0 -0.8125854 0.5828423
vn 0 -0.8125859 -0.5828414
vn 3.614947E-07 -0.8125859 -0.5828414
vn 1 1.932218E-07 -2.338E-07
vn 0.9999999 0 0
vn 1 -5.567412E-13 -2.250131E-07
vn 1 0 0
vn 1 8.794809E-07 0
vn 1 3.070066E-07 -3.714807E-07

vt 2.368631 0.9995
vt 1.191828 0.9995003
vt 1.191827 0.0004997253
vt 2.368631 0.0004995167
vt 0.8081726 0.9995
vt -0.3686311 0.9995005
vt -0.3686312 0.000500381
vt 0.8081724 0.0005000234
vt 1.14002 -0.3155128
vt 1.999001 -0.315513
vt 1.999001 -0.3631212
vt 1.14002 -0.3631211
vt 0 0.8925048
vt 0.9995004 0.891883
vt 0.9995004 0.9995005
vt 0 0.9997986
vt 0 0.893
vt 0 1
vt 1.999001 1.365667
vt 1.14002 1.365667
vt 1.14002 1.413276
vt 1.999001 1.413275
vt 1.955863 -0.3155127
vt 1.955864 0.5
vt 1.999001 0.4999998
vt 1.955863 1.365668
vt 1.955863 -0.3155127
vt 1.955864 0.5
vt 1.999001 0.4999998
vt 1.999001 -0.315513
vt 1.955863 1.365668
vt 1.999001 1.365667
vt 0.9995004 0.891883
vt 0 0.8925048
vt 0.9995004 0.9995005
vt 0 0.9997986
vt 0 0.893
vt 0 1

usemtl sn18_00_SN18G08.JPG
usemap sn18_00_SN18G08.JPG
f 3/3/3 1/1/1 2/2/2
f 1/1/1 3/3/3 4/4/4
f 7/7/7 5/5/5 6/6/6
f 5/5/5 7/7/7 8/8/8
f 15/15/15 13/13/13 14/14/14
f 13/13/13 15/15/15 16/16/16
f 18/18/18 14/14/14 17/17/17
f 14/14/14 18/18/18 15/15/15
f 35/35/35 33/33/33 34/34/34
f 34/34/34 36/36/36 35/35/35
f 38/38/38 37/37/37 33/33/33
f 33/33/33 35/35/35 38/38/38

usemtl sn18_01_SN18G07.JPG
usemap sn18_01_SN18G07.JPG
f 11/11/11 9/9/9 10/10/10
f 9/9/9 11/11/11 12/12/12
f 21/21/21 19/19/19 20/20/20
f 19/19/19 21/21/21 22/22/22
f 25/25/25 23/23/23 24/24/24
f 23/23/23 25/25/25 10/10/10
f 19/19/19 24/24/24 26/26/26
f 24/24/24 19/19/19 25/25/25
f 29/29/29 27/27/27 28/28/28
f 27/27/27 29/29/29 30/30/30
f 32/32/32 28/28/28 31/31/31
f 28/28/28 32/32/32 29/29/29
