mtllib ./Object108.mtl
g Object108
v 21.77549 8.223511 27.3927
v -6.030976 0.0004730225 -49.62667
v 3.862464 0.04896545 29.56923
v -14.25714 -8.55751 31.7371
v 13.54926 0.09744263 108.7565
v -23.944 -8.55751 -47.45015
v -6.030976 0.0004730225 -49.62667
v 11.8821 -8.174088 -51.80322
v 13.54926 0.09744263 108.7565
v 31.66875 -8.077118 106.5886
v 31.66875 8.271988 106.5886
v 31.66875 8.271988 106.5886
v 11.8821 8.175018 -51.80322
v -23.944 -8.55751 -47.45015
v -4.570217 -8.55751 110.9244
v 11.8821 8.175018 -51.80322
v -4.570217 -8.55751 110.9244

vn -0.400503 0.9108909 -0.0993739
vn -0.4056801 0.9084566 -0.1006493
vn -0.4068996 0.9078262 -0.1014119
vn -0.4144732 0.9041497 -0.1035633
vn -0.4087449 0.9068943 -0.1023246
vn 0.2427852 1.18761E-06 -0.9700801
vn 0.242785 6.006873E-07 -0.9700801
vn 0.242785 6.006873E-07 -0.9700801
vn -0.2445666 9.450632E-07 0.9696324
vn -0.2445666 9.450632E-07 0.9696324
vn -0.2445669 0 0.9696323
vn -0.3985058 0.9117611 -0.09942251
vn -0.4005023 0.9108912 -0.09937367
vn -0.4148911 0.9039997 -0.1031986
vn -0.4157884 0.9035297 -0.1037022
vn 0.2427847 0 -0.9700801
vn -0.2445661 1.863149E-06 0.9696326

vt 0.5 1.05337
vt 1 1.255486
vt 0.5 1.255863
vt 0.5 1.460644
vt 0 1.258527
vt 0.7572188 0.8790837
vt 0.5541834 1.003708
vt 0.3522467 0.8757046
vt 0.552902 1.391571
vt 0.3474903 1.507075
vt 0.348763 1.273072
vt 0 1.053747
vt 1 1.052993
vt 1 1.457979
vt 0 1.463308
vt 0.351148 1.128332
vt 0.7570411 1.510069

usemtl sn18_04_SN18G13.JPG
usemap sn18_04_SN18G13.JPG
f 3/3/3 1/1/1 2/2/2
f 3/3/3 4/4/4 5/5/5
f 8/8/8 6/6/6 7/7/7
f 11/11/11 9/9/9 10/10/10
f 3/3/3 12/12/12 1/1/1
f 2/2/2 1/1/1 13/13/13
f 14/14/14 3/3/3 2/2/2
f 3/3/3 14/14/14 4/4/4
f 5/5/5 4/4/4 15/15/15
f 12/12/12 3/3/3 5/5/5
f 8/8/8 7/7/7 16/16/16
f 9/9/9 17/17/17 10/10/10
