mtllib ./Object95.mtl
g Object95
v 0.5153356 -1.222918 -14.95082
v 0.5104142 22.15477 -14.95083
v -0.4707785 22.12782 -14.95248
v -0.4707785 -1.249876 -14.95248
v 0.4802282 22.15477 10.43082
v 0.4769473 -1.222914 10.43081
v -0.5134138 -1.249872 10.42915
v -0.5134138 22.12782 10.42915
v 0.5236553 -1.222914 -15.62951
v 0.5187339 22.15477 -15.62952
v 0.5104142 22.15477 -14.95083
v 0.5153356 -1.222918 -14.95082
v 0.5187339 22.15477 -15.62952
v -0.4624699 22.12782 -15.63117
v -0.4707785 22.12782 -14.95248
v 0.5104142 22.15477 -14.95083
v -0.4624699 22.12782 -15.63117
v -0.4624699 -1.249876 -15.63117
v -0.4624699 -1.249876 -15.63117
v 0.5236553 -1.222914 -15.62951
v 0.5153356 -1.222918 -14.95082
v -0.4707785 -1.249876 -14.95248
v 0.4772272 22.15477 11.18694
v 0.4739352 -1.222914 11.18692
v 0.4739352 -1.222914 11.18692
v -0.5164148 -1.249876 11.18527
v -0.5134138 -1.249872 10.42915
v 0.4769473 -1.222914 10.43081
v -0.5164148 -1.249876 11.18527
v -0.5164148 22.12782 11.18527
v -0.5134138 22.12782 10.42915
v -0.5134138 -1.249872 10.42915
v -0.5164148 22.12782 11.18527
v 0.4772272 22.15477 11.18694
v 0.4802282 22.15477 10.43082
v -0.5134138 22.12782 10.42915
v -0.4624699 -1.249876 -15.63117
v -0.4624699 22.12782 -15.63117
v 0.4739352 -1.222914 11.18692
v 0.4772272 22.15477 11.18694
v 0.5164673 21.47603 -15.62953
v 0.4665262 21.47603 11.18691
v -0.5146154 21.47603 11.15829
v -0.4695895 21.47603 -15.65813
v 0.5236553 22.15477 -15.62951
v 0.4737032 22.15477 11.18692
v 0.4665262 21.47603 11.18691
v 0.5164673 21.47603 -15.62953
v 0.4737032 22.15477 11.18692
v -0.5074437 22.15477 11.1583
v -0.5146154 21.47603 11.15829
v 0.4665262 21.47603 11.18691
v -0.5074437 22.15477 11.1583
v -0.4624178 22.15477 -15.65811
v -0.4624178 22.15477 -15.65811
v 0.5236553 22.15477 -15.62951
v 0.5164673 21.47603 -15.62953
v -0.4695895 21.47603 -15.65813
v -0.4624178 22.15477 -15.65811
v -0.5074437 22.15477 11.1583
v 0.5164673 -1.222918 -15.62953
v 0.4665262 -1.222918 11.18691
v -0.5146154 -1.222918 11.15829
v -0.4695895 -1.222918 -15.65813
v 0.5236553 -0.5441761 -15.62951
v 0.4737032 -0.5441761 11.18692
v 0.4665262 -1.222918 11.18691
v 0.5164673 -1.222918 -15.62953
v 0.4737032 -0.5441761 11.18692
v -0.5074437 -0.5441761 11.1583
v -0.5146154 -1.222918 11.15829
v 0.4665262 -1.222918 11.18691
v -0.5074437 -0.5441761 11.1583
v -0.4624178 -0.5441761 -15.65811
v -0.4624178 -0.5441761 -15.65811
v 0.5236553 -0.5441761 -15.62951
v 0.5164673 -1.222918 -15.62953
v -0.4695895 -1.222918 -15.65813
v -0.4624178 -0.5441761 -15.65811
v -0.5074437 -0.5441761 11.1583

vn -0.7254748 6.974239E-09 0.6882488
vn -0.7254747 1.398342E-08 0.688249
vn -0.9107341 6.614461E-09 0.4129934
vn -0.9819275 0 -0.1892577
vn 0.9231261 -5.001409E-05 -0.3844973
vn 0.972857 -0.0001177254 0.2314075
vn 0.7254766 4.460432E-09 -0.6882468
vn 0.7254767 0 -0.6882467
vn 0.9819276 0.0001711672 0.1892567
vn 0.9107353 6.887375E-05 -0.4129907
vn 0.6805348 0.0002105072 0.7327158
vn 0.6805348 0.0002105072 0.7327158
vn -0.01868921 0.9996228 -0.02012189
vn -0.01868927 0.9996228 -0.02012163
vn -0.01868921 0.9996228 -0.02012189
vn -0.01868915 0.9996228 -0.02012217
vn -0.6805468 0 -0.7327046
vn -0.6805468 0 -0.7327046
vn 0.01860199 -0.9996264 0.02002387
vn 0.01860507 -0.9996264 0.02002339
vn 0.01860199 -0.9996264 0.02002387
vn 0.0185989 -0.9996265 0.02002434
vn 0.6865795 -0.0001405821 0.7270548
vn 0.686574 -0.0001408195 0.7270598
vn 0.01868563 -0.9996297 0.01978352
vn 0.01868903 -0.9996296 0.01978315
vn 0.01868563 -0.9996297 0.01978352
vn 0.01868223 -0.9996297 0.01978388
vn -0.9728572 0 -0.2314058
vn -0.9231251 -2.139655E-07 0.3844998
vn -0.6865848 0 -0.7270498
vn -0.6865848 0 -0.7270498
vn -0.01861824 0.9996322 -0.01971554
vn -0.01861824 0.9996322 -0.01971554
vn -0.01861824 0.9996322 -0.01971554
vn -0.01861824 0.9996322 -0.01971554
vn 0.725482 -5.8537E-09 -0.688241
vn 0.725482 0 -0.6882412
vn -0.7254729 -2.288029E-07 0.6882506
vn -0.7254767 -4.568488E-07 0.6882467
vn 0 -0.9999999 0
vn 0 -1 0
vn -0.2252031 -0.9449508 -0.2373845
vn -0.5596349 -0.5820825 -0.5899059
vn 0.5595267 0.5820822 0.5900087
vn 0.2251581 0.9449515 0.2374244
vn 0.6880763 -0.0105815 0.7255613
vn 0.6880763 -0.01058966 0.7255611
vn -0.7441173 0.0002927985 0.668049
vn -0.7441153 0.0002884405 0.6680511
vn -0.7441173 0.0002927985 0.668049
vn -0.7441193 0.0002971566 0.6680468
vn -0.6882094 0.01056561 -0.7254352
vn -0.6882094 0.01056563 -0.7254352
vn 0.7440043 -0.0002835203 -0.6681747
vn 0.7440057 -0.0002803801 -0.6681732
vn 0.7440043 -0.0002835203 -0.6681747
vn 0.7440029 -0.0002866607 -0.6681765
vn 0 1 0
vn 0 1 0
vn 0 -0.9999999 0
vn 0 -1 0
vn -0.2252031 -0.9449508 -0.2373845
vn -0.5596349 -0.5820825 -0.5899059
vn 0.5595267 0.5820822 0.5900087
vn 0.2251581 0.9449515 0.2374244
vn 0.6880763 -0.0105815 0.7255613
vn 0.6880763 -0.01058966 0.7255611
vn -0.7441173 0.0002927985 0.668049
vn -0.7441153 0.0002884405 0.6680511
vn -0.7441173 0.0002927985 0.668049
vn -0.7441193 0.0002971566 0.6680468
vn -0.6882094 0.01056561 -0.7254352
vn -0.6882094 0.01056563 -0.7254352
vn 0.7440043 -0.0002835203 -0.6681747
vn 0.7440057 -0.0002803801 -0.6681732
vn 0.7440043 -0.0002835203 -0.6681747
vn 0.7440029 -0.0002866607 -0.6681765
vn 0 1 0
vn 0 1 0

vt 1 0.8883559
vt 7.54979E-08 0.8883559
vt 0 1
vt 1 1
vt 0 1
vt 1 1
vt 1 0.8883559
vt 7.54979E-08 0.8883559
vt 1 0.9999999
vt 7.54979E-08 1
vt 0 0.8911927
vt 1 0.8911926
vt 1 0.9999999
vt 7.54979E-08 1
vt 0 0.8911927
vt 1 0.8911926
vt 0 0.8911927
vt 1 0.8911926
vt 0 0.8911927
vt 1 0.8911926
vt 1 0.9999999
vt 7.54979E-08 1
vt 0 0.8855193
vt 1 0.8855193
vt 1 0.9999999
vt 7.54979E-08 1
vt 0 0.8855193
vt 1 0.8855193
vt 1 0.9999999
vt 7.54979E-08 1
vt 0 0.8855193
vt 1 0.8855193
vt 0 0.8855193
vt 1 0.8855193
vt 1 0.9999999
vt 7.54979E-08 1
vt 1 0.8883559
vt 7.54979E-08 0.8883559
vt 1 0.8883559
vt 7.54979E-08 0.8883559
vt 1 0.8883559
vt 7.54979E-08 0.8883559
vt 0 1
vt 1 1
vt 1 0.9999999
vt 7.54979E-08 1
vt 0 0.8911927
vt 1 0.8911926
vt 1 0.9999999
vt 7.54979E-08 1
vt 0 0.8911927
vt 1 0.8911926
vt 0 0.8911927
vt 1 0.8911926
vt 0 0.8911927
vt 1 0.8911926
vt 1 0.9999999
vt 7.54979E-08 1
vt 1 0.8883559
vt 7.54979E-08 0.8883559
vt 1 0.8883559
vt 7.54979E-08 0.8883559
vt 0 1
vt 1 1
vt 1 0.9999999
vt 7.54979E-08 1
vt 0 0.8911927
vt 1 0.8911926
vt 1 0.9999999
vt 7.54979E-08 1
vt 0 0.8911927
vt 1 0.8911926
vt 0 0.8911927
vt 1 0.8911926
vt 0 0.8911927
vt 1 0.8911926
vt 1 0.9999999
vt 7.54979E-08 1
vt 1 0.8883559
vt 7.54979E-08 0.8883559

usemtl sn18_14_SN18G04.JPG
usemap sn18_14_SN18G04.JPG
f 3/3/3 1/1/1 2/2/2
f 1/1/1 3/3/3 4/4/4
f 7/7/7 5/5/5 6/6/6
f 5/5/5 7/7/7 8/8/8
f 11/11/11 9/9/9 10/10/10
f 9/9/9 11/11/11 12/12/12
f 15/15/15 13/13/13 14/14/14
f 13/13/13 15/15/15 16/16/16
f 4/4/4 17/17/17 18/18/18
f 17/17/17 4/4/4 3/3/3
f 21/21/21 19/19/19 20/20/20
f 19/19/19 21/21/21 22/22/22
f 6/6/6 23/23/23 24/24/24
f 23/23/23 6/6/6 5/5/5
f 27/27/27 25/25/25 26/26/26
f 25/25/25 27/27/27 28/28/28
f 31/31/31 29/29/29 30/30/30
f 29/29/29 31/31/31 32/32/32
f 35/35/35 33/33/33 34/34/34
f 33/33/33 35/35/35 36/36/36
f 37/37/37 10/10/10 9/9/9
f 10/10/10 37/37/37 38/38/38
f 30/30/30 39/39/39 40/40/40
f 39/39/39 30/30/30 29/29/29
f 43/43/43 41/41/41 42/42/42
f 41/41/41 43/43/43 44/44/44
f 47/47/47 45/45/45 46/46/46
f 45/45/45 47/47/47 48/48/48
f 51/51/51 49/49/49 50/50/50
f 49/49/49 51/51/51 52/52/52
f 44/44/44 53/53/53 54/54/54
f 53/53/53 44/44/44 43/43/43
f 57/57/57 55/55/55 56/56/56
f 55/55/55 57/57/57 58/58/58
f 59/59/59 46/46/46 45/45/45
f 46/46/46 59/59/59 60/60/60
f 63/63/63 61/61/61 62/62/62
f 61/61/61 63/63/63 64/64/64
f 67/67/67 65/65/65 66/66/66
f 65/65/65 67/67/67 68/68/68
f 71/71/71 69/69/69 70/70/70
f 69/69/69 71/71/71 72/72/72
f 64/64/64 73/73/73 74/74/74
f 73/73/73 64/64/64 63/63/63
f 77/77/77 75/75/75 76/76/76
f 75/75/75 77/77/77 78/78/78
f 79/79/79 66/66/66 65/65/65
f 66/66/66 79/79/79 80/80/80
