mtllib ./Object65.mtl
g Object65
v -22.90012 -34.64929 4.255487
v -22.91241 65.98468 4.056666
v -22.23295 65.95773 15.03587
v -22.23293 -34.67627 15.03594
v 25.00779 65.98468 1.565192
v 25.02011 -34.64929 1.763909
v 25.68834 -34.67627 12.56168
v 25.68835 65.95773 12.5616
v -27.88866 -34.64929 4.583526
v -27.90093 65.98468 4.384686
v -22.91241 65.98468 4.056666
v -22.90012 -34.64929 4.255487
v -27.90093 65.98468 4.384686
v -27.22145 65.95773 15.36396
v -22.23295 65.95773 15.03587
v -22.91241 65.98468 4.056666
v -27.22145 65.95773 15.36396
v -27.22145 -34.67627 15.36396
v -22.23293 -34.67627 15.03594
v -22.23295 65.95773 15.03587
v -27.22145 -34.67627 15.36396
v -27.88866 -34.64929 4.583526
v -22.90012 -34.64929 4.255487
v -22.23293 -34.67627 15.03594
v 30.00094 65.98468 1.31188
v 30.01324 -34.64929 1.510549
v 25.02011 -34.64929 1.763909
v 25.00779 65.98468 1.565192
v 30.01324 -34.64929 1.510549
v 30.68145 -34.67627 12.30841
v 25.68834 -34.67627 12.56168
v 25.02011 -34.64929 1.763909
v 30.68145 -34.67627 12.30841
v 30.68151 65.95773 12.30828
v 25.68835 65.95773 12.5616
v 25.68834 -34.67627 12.56168
v 30.68151 65.95773 12.30828
v 30.00094 65.98468 1.31188
v 25.00779 65.98468 1.565192
v 25.68835 65.95773 12.5616
v -27.90093 65.98468 4.384686
v -27.88866 -34.64929 4.583526
v -27.22145 -34.67627 15.36396
v -27.22145 65.95773 15.36396
v 30.01324 -34.64929 1.510549
v 30.00094 65.98468 1.31188
v 30.68151 65.95773 12.30828
v 30.68145 -34.67627 12.30841

vn 0.823881 -1.19586E-08 0.5667627
vn 0.8238806 -1.134895E-07 0.5667636
vn 0.823881 -1.19586E-08 0.5667627
vn 0.8238816 9.144362E-08 0.566762
vn -0.823881 -6.161885E-08 -0.5667629
vn -0.8238798 -2.93617E-07 -0.5667645
vn -0.823881 -6.161885E-08 -0.5667629
vn -0.8238822 1.661874E-07 -0.5667611
vn 0.5635825 -0.001979521 -0.8260574
vn 0.5635839 -0.001979608 -0.8260564
vn 0.5635825 -0.001979521 -0.8260574
vn 0.563581 -0.001979434 -0.8260584
vn -0.001380592 0.999997 0.002023592
vn -0.001380574 0.999997 0.002023595
vn -0.001380592 0.999997 0.002023592
vn -0.00138061 0.999997 0.002023589
vn -0.5635794 3.353213E-07 0.8260618
vn -0.563585 0 0.826058
vn -0.5635794 3.353213E-07 0.8260618
vn -0.5635739 6.706431E-07 0.8260657
vn 0.001407654 -0.9999969 -0.002063234
vn 0.001407651 -0.999997 -0.002063238
vn 0.001407654 -0.9999969 -0.002063234
vn 0.001407656 -0.9999969 -0.00206323
vn 0.575884 -0.001978062 -0.8175291
vn 0.57588 -0.001977815 -0.8175319
vn 0.575884 -0.001978062 -0.8175291
vn 0.5758882 -0.001978309 -0.8175262
vn 0.001436151 -0.9999969 -0.002038754
vn 0.001436162 -0.9999969 -0.002038734
vn 0.001436151 -0.9999969 -0.002038754
vn 0.001436139 -0.9999969 -0.002038774
vn -0.5758922 1.02333E-06 0.8175257
vn -0.5758892 1.200614E-06 0.8175278
vn -0.5758922 1.02333E-06 0.8175257
vn -0.575895 8.460432E-07 0.8175237
vn -0.001408622 0.9999971 0.001999669
vn -0.001408622 0.9999971 0.001999669
vn -0.001408622 0.9999971 0.001999669
vn -0.001408622 0.9999971 0.001999669
vn -0.8238819 1.785395E-07 -0.5667616
vn -0.8238828 3.60373E-07 -0.5667601
vn -0.8238819 1.785395E-07 -0.5667616
vn -0.823881 0 -0.5667629
vn 0.8238807 -3.507654E-07 0.5667635
vn 0.8238822 -4.463398E-08 0.5667611
vn 0.8238807 -3.507654E-07 0.5667635
vn 0.8238789 -6.625242E-07 0.5667658

vt 1 0.8883559
vt 7.54979E-08 0.8883559
vt 0 1
vt 1 1
vt 0 1
vt 1 1
vt 1 0.8883559
vt 7.54979E-08 0.8883559
vt 1 0.9999999
vt 7.54979E-08 1
vt 0 0.8911927
vt 1 0.8911926
vt 1 0.9999999
vt 7.54979E-08 1
vt 0 0.8911927
vt 1 0.8911926
vt 0 0.8911927
vt 1 0.8911926
vt 1 0.9999999
vt 7.54979E-08 1
vt 0 0.8911927
vt 1 0.8911926
vt 1 0.9999999
vt 7.54979E-08 1
vt 0 0.8855193
vt 1 0.8855193
vt 1 0.9999999
vt 7.54979E-08 1
vt 1 0.9999999
vt 7.54979E-08 1
vt 0 0.8855193
vt 1 0.8855193
vt 1 0.9999999
vt 7.54979E-08 1
vt 0 0.8855193
vt 1 0.8855193
vt 0 0.8855193
vt 1 0.8855193
vt 1 0.9999999
vt 7.54979E-08 1
vt 0 1
vt 1 1
vt 1 0.8883559
vt 7.54979E-08 0.8883559
vt 1 0.8883559
vt 7.54979E-08 0.8883559
vt 0 1
vt 1 1

usemtl sn18_14_SN18G04.JPG
usemap sn18_14_SN18G04.JPG
f 3/3/3 1/1/1 2/2/2
f 1/1/1 3/3/3 4/4/4
f 7/7/7 5/5/5 6/6/6
f 5/5/5 7/7/7 8/8/8
f 11/11/11 9/9/9 10/10/10
f 9/9/9 11/11/11 12/12/12
f 15/15/15 13/13/13 14/14/14
f 13/13/13 15/15/15 16/16/16
f 19/19/19 17/17/17 18/18/18
f 17/17/17 19/19/19 20/20/20
f 23/23/23 21/21/21 22/22/22
f 21/21/21 23/23/23 24/24/24
f 27/27/27 25/25/25 26/26/26
f 25/25/25 27/27/27 28/28/28
f 31/31/31 29/29/29 30/30/30
f 29/29/29 31/31/31 32/32/32
f 35/35/35 33/33/33 34/34/34
f 33/33/33 35/35/35 36/36/36
f 39/39/39 37/37/37 38/38/38
f 37/37/37 39/39/39 40/40/40
f 43/43/43 41/41/41 42/42/42
f 41/41/41 43/43/43 44/44/44
f 47/47/47 45/45/45 46/46/46
f 45/45/45 47/47/47 48/48/48
