mtllib ./Object73.mtl
g Object73
v -9.872374 1113.127 1735.003
v -9.872442 1211.56 12.01362
v 1002.876 1113.127 1405.941
v 1628.788 1113.127 544.4464
v 1628.788 1113.127 -520.4194
v 1002.875 1113.127 -1381.914
v -9.872675 1113.126 -1710.976
v -1022.62 1113.127 -1381.914
v -1648.533 1113.127 -520.4191
v -1648.532 1113.127 544.4469
v -1022.62 1113.127 1405.941
v -1781.397 1014.694 587.6171
v -1104.734 1014.694 1518.963
v -9.872305 1014.694 1874.705
v -1781.397 1014.694 -563.5893
v -1104.735 1014.694 -1494.935
v -9.872629 1014.694 -1850.678
v 1084.99 1014.694 -1494.935
v 1761.653 1014.694 -563.5897
v 1761.653 1014.694 587.6166
v 1084.99 1014.694 1518.962

vn -6.02326E-08 -0.9944613 -0.1051036
vn -7.935829E-08 -1 3.089265E-08
vn -0.06805504 -0.9917402 -0.1087191
vn -0.1189611 -0.9917402 -0.04795396
vn -0.1244282 -0.9917402 0.03112804
vn -0.08236788 -0.9917402 0.09832021
vn -0.008846048 -0.9917402 0.1279573
vn 0.06805471 -0.9917403 0.108719
vn 0.1189609 -0.9917402 0.04795388
vn 0.124428 -0.9917403 -0.03112804
vn 0.08753724 -0.9888481 -0.1204847
vn 0.5285754 -0.8160363 -0.233865
vn 0.3385521 -0.8174642 -0.4659771
vn -1.708114E-07 -0.8174638 -0.5759801
vn 0.5650887 -0.8160363 0.1214882
vn 0.3857577 -0.8160361 0.430437
vn 0.05907987 -0.8160362 0.5749735
vn -0.2901645 -0.816036 0.4998899
vn -0.5285757 -0.816036 0.2338652
vn -0.5650895 -0.8160358 -0.1214884
vn -0.3857583 -0.8160354 -0.4304377

vt 1 1.924076
vt 1 1
vt 0.4288899 1.747593
vt 0.07592434 1.285555
vt 0.07592422 0.7144451
vt 0.4288899 0.252407
vt 1 0.07592398
vt 1.57111 0.2524068
vt 1.924076 0.7144448
vt 1.924076 1.285555
vt 1.57111 1.747593
vt 1.999001 1.308708
vt 1.617417 1.808209
vt 1 1.999001
vt 1.999001 0.6912917
vt 1.617416 0.1917912
vt 1 0.0009989738
vt 0.3825837 0.1917914
vt 0.0009990931 0.6912919
vt 0.0009993315 1.308708
vt 0.3825838 1.808209

usemtl sn18_41_a18fog2.bmp
usemap sn18_41_a18fog2.bmp
f 3/3/3 1/1/1 2/2/2
f 4/4/4 3/3/3 2/2/2
f 5/5/5 4/4/4 2/2/2
f 6/6/6 5/5/5 2/2/2
f 7/7/7 6/6/6 2/2/2
f 8/8/8 7/7/7 2/2/2
f 9/9/9 8/8/8 2/2/2
f 10/10/10 9/9/9 2/2/2
f 11/11/11 10/10/10 2/2/2
f 1/1/1 11/11/11 2/2/2
f 13/13/13 12/12/12 11/11/11
f 14/14/14 13/13/13 11/11/11
f 11/11/11 12/12/12 10/10/10
f 12/12/12 15/15/15 10/10/10
f 10/10/10 15/15/15 9/9/9
f 15/15/15 16/16/16 9/9/9
f 9/9/9 16/16/16 8/8/8
f 16/16/16 17/17/17 8/8/8
f 8/8/8 17/17/17 7/7/7
f 17/17/17 18/18/18 7/7/7
f 7/7/7 18/18/18 6/6/6
f 18/18/18 19/19/19 6/6/6
f 6/6/6 19/19/19 5/5/5
f 19/19/19 20/20/20 5/5/5
f 5/5/5 20/20/20 4/4/4
f 20/20/20 21/21/21 4/4/4
f 4/4/4 21/21/21 3/3/3
f 21/21/21 14/14/14 3/3/3
f 3/3/3 14/14/14 1/1/1
f 14/14/14 11/11/11 1/1/1
