mtllib ./Object109.mtl
g Object109
v 21.77659 8.150391 27.39342
v -4.223295 -0.1019135 -49.83411
v 3.862753 -0.02415466 29.57059
v -14.25759 -8.63063 31.73909
v 11.7423 0.05357361 108.9666
v -22.13713 -8.659897 -47.65695
v -4.223295 -0.1019135 -49.83411
v 13.69054 -8.276474 -52.01127
v 11.7423 0.05357361 108.9666
v 29.86264 -8.120987 106.7981
v 29.86264 8.228119 106.7981
v 29.86264 8.228119 106.7981
v 13.69054 8.072632 -52.01127
v -22.13713 -8.659897 -47.65695
v -6.377918 -8.601379 111.1351
v 13.69054 8.072632 -52.01127
v -6.377918 -8.601379 111.1351

vn -0.4009414 0.9108624 0.09785569
vn -0.4061182 0.9084275 0.09913329
vn -0.4075536 0.9077964 0.09902386
vn -0.4152585 0.9041196 0.1006384
vn -0.4096133 0.9068636 0.09907251
vn -0.2580402 2.27404E-07 -0.9661342
vn -0.2580403 1.150199E-07 -0.9661342
vn -0.2580403 1.150199E-07 -0.9661342
vn 0.2562653 1.549828E-06 0.9666066
vn 0.2562653 1.549828E-06 0.9666066
vn 0.2562647 0 0.9666067
vn -0.3991977 0.9117318 0.09688312
vn -0.4009413 0.9108623 0.09785557
vn -0.4154571 0.9039706 0.1011566
vn -0.4164841 0.9035013 0.1011262
vn -0.2580403 0 -0.9661342
vn 0.256266 3.05542E-06 0.9666063

vt 0.5 1.05337
vt 1 1.255486
vt 0.5 1.255863
vt 0.5 1.460644
vt 0 1.258527
vt 0.7572188 0.8790837
vt 0.5541834 1.003708
vt 0.3522467 0.8757046
vt 0.552902 1.391571
vt 0.3474903 1.507075
vt 0.348763 1.273072
vt 0 1.053747
vt 1 1.052993
vt 1 1.457979
vt 0 1.463308
vt 0.351148 1.128332
vt 0.7570411 1.510069

usemtl sn18_04_SN18G13.JPG
usemap sn18_04_SN18G13.JPG
f 3/3/3 1/1/1 2/2/2
f 3/3/3 4/4/4 5/5/5
f 8/8/8 6/6/6 7/7/7
f 11/11/11 9/9/9 10/10/10
f 3/3/3 12/12/12 1/1/1
f 2/2/2 1/1/1 13/13/13
f 14/14/14 3/3/3 2/2/2
f 3/3/3 14/14/14 4/4/4
f 5/5/5 4/4/4 15/15/15
f 12/12/12 3/3/3 5/5/5
f 8/8/8 7/7/7 16/16/16
f 9/9/9 17/17/17 10/10/10
