mtllib ./Object37.mtl
g Object37
v 72.49214 44.56369 -85.78839
v 26.57612 44.57752 -85.55862
v 26.40758 45.99558 -77.20471
v 72.25464 45.98299 -77.43484
v 72.25464 45.98299 -77.43484
v 26.40758 45.99558 -77.20471
v 26.40758 39.31761 -77.20471
v 72.25464 39.30501 -77.43484
v 72.25464 39.30501 -77.43484
v 26.40758 39.31761 -77.20471
v 26.31735 41.23266 -66.28873
v 72.07122 41.22169 -66.51932
v 72.07122 41.22169 -66.51932
v 26.31735 41.23266 -66.28873
v 26.31735 34.11058 -66.28873
v 72.07122 34.09961 -66.51932
v 72.07122 34.09961 -66.51932
v 26.31735 34.11058 -66.28873
v 26.22777 36.01156 -55.45291
v 71.88874 36.00221 -55.68396
v 71.88874 36.00221 -55.68396
v 26.22777 36.01156 -55.45291
v 26.22777 29.9728 -55.45291
v 71.88874 29.96344 -55.68396
v 71.88874 29.96344 -55.68396
v 26.22777 29.9728 -55.45291
v 26.14021 31.83108 -44.8605
v 71.70996 31.82331 -45.09201
v 71.70996 31.82331 -45.09201
v 26.14021 31.83108 -44.8605
v 26.1403 25.47831 -44.86984
v 71.71012 25.47054 -45.10138
v 71.71012 25.47054 -45.10138
v 26.1403 25.47831 -44.86984
v 26.05129 27.36659 -34.10388
v 71.52804 27.36043 -34.33588
v 71.52804 27.36043 -34.33588
v 26.05129 27.36659 -34.10388
v 26.05129 21.73239 -34.10388
v 71.52804 21.72624 -34.33588
v 71.52804 21.72624 -34.33588
v 26.05129 21.73239 -34.10388
v 25.97305 23.39284 -24.63785
v 71.3676 23.38811 -24.87024
v 71.3676 23.38811 -24.87024
v 25.97305 23.39284 -24.63785
v 25.97305 17.02801 -24.63785
v 71.3676 17.02327 -24.87024
v 71.3676 17.02327 -24.87024
v 25.97305 17.02801 -24.63785
v 25.89314 18.72402 -14.97037
v 71.20343 18.72075 -15.20319
v 71.20343 18.72075 -15.20319
v 25.89314 18.72402 -14.97037
v 25.89314 12.58842 -14.97034
v 71.20342 12.58514 -15.20319
v 71.20342 12.58514 -15.20319
v 25.89314 12.58842 -14.97034
v 25.81046 14.36597 -4.968964
v 71.03326 14.36421 -5.20224
v 71.03326 14.36421 -5.20224
v 25.81046 14.36597 -4.968964
v 25.81046 8.046738 -4.968964
v 71.03326 8.044971 -5.20224
v 26.57883 50.09296 -85.88654
v 26.57612 44.57752 -85.55862
v 72.49214 44.56369 -85.78839
v 72.49764 50.07907 -86.11627
v -19.18098 44.57641 -85.56693
v -19.18388 45.99324 -77.21265
v -19.18388 45.99324 -77.21265
v -19.18387 39.31527 -77.21265
v -19.18387 39.31527 -77.21265
v -19.06075 41.22871 -66.29617
v -19.06075 41.22871 -66.29617
v -19.06074 34.10663 -66.29617
v -19.06074 34.10663 -66.29617
v -18.93894 36.00603 -55.45984
v -18.93894 36.00603 -55.45984
v -18.93894 29.96727 -55.45984
v -18.93894 29.96727 -55.45984
v -18.82025 31.824 -44.867
v -18.82025 31.824 -44.867
v -18.82036 25.47123 -44.87634
v -18.82036 25.47123 -44.87634
v -18.70012 27.35795 -34.10989
v -18.70012 27.35795 -34.10989
v -18.70012 21.72374 -34.10989
v -18.70012 21.72374 -34.10989
v -18.59475 23.38281 -24.6434
v -18.59475 23.38281 -24.6434
v -18.59472 17.01798 -24.64343
v -18.59472 17.01798 -24.64343
v -18.48742 18.7126 -14.97549
v -18.48742 18.7126 -14.97549
v -18.48742 12.57699 -14.97549
v -18.48742 12.57699 -14.97549
v -18.37671 14.35309 -4.973663
v -18.37671 14.35309 -4.973663
v -18.37672 8.033863 -4.973663
v -19.18468 50.0919 -85.89484
v -19.18098 44.57641 -85.56693

vn -0.0005552902 0.9858817 -0.1674418
vn -0.00026745 0.9858959 -0.1673593
vn -0.0002819897 0.9858956 -0.1673609
vn -0.0005700982 0.9858686 -0.1675191
vn 0.005019519 0 0.9999875
vn 0.002430024 0 0.9999971
vn 0.002430025 -7.435321E-11 0.9999971
vn 0.005019519 0 0.9999874
vn -0.0006161593 0.9849429 -0.1728787
vn -0.0003094554 0.9849571 -0.1727989
vn -0.0003285006 0.9849567 -0.1728009
vn -0.0006355788 0.9849293 -0.1729564
vn 0.005039746 0 0.9999873
vn 0.002448579 0 0.999997
vn 0.002448579 -8.752878E-11 0.999997
vn 0.005039746 0 0.9999873
vn -0.0006541648 0.9849428 -0.1728791
vn -0.0003472515 0.984957 -0.1727988
vn -0.0003662842 0.9849567 -0.1728011
vn -0.0006735804 0.984929 -0.1729571
vn 0.005060024 0 0.9999872
vn 0.002467534 0 0.999997
vn 0.002467535 0 0.999997
vn 0.005060024 0 0.9999872
vn -0.0006917157 0.9849427 -0.1728798
vn -0.0003848768 0.984957 -0.1727994
vn -0.0004036148 0.9849567 -0.1728017
vn -0.0007108057 0.9849289 -0.1729582
vn 0.005080273 -0.001472254 0.999986
vn 0.002485404 -0.001469931 0.9999959
vn 0.002485569 -0.001471124 0.9999959
vn 0.005080603 -0.001474624 0.9999861
vn -0.0007292874 0.9849496 -0.1728404
vn -0.0004219474 0.9849639 -0.1727599
vn -0.0004410227 0.9849634 -0.1727625
vn -0.0007487381 0.9849358 -0.1729187
vn 0.005101325 0 0.999987
vn 0.002504562 0 0.9999969
vn 0.002504559 0 0.9999969
vn 0.005101324 0 0.999987
vn -0.0007654669 0.9849464 -0.172858
vn -0.0004600703 0.9849609 -0.1727771
vn -0.0004770359 0.9849604 -0.1727796
vn -0.0007827357 0.9849327 -0.1729368
vn 0.0051193 0 0.9999869
vn 0.00252146 0 0.9999968
vn 0.002521291 -1.187808E-06 0.9999968
vn 0.0051193 0 0.9999869
vn -0.0007996932 0.9849423 -0.1728817
vn -0.0004936226 0.9849567 -0.1728002
vn -0.0005110686 0.9849563 -0.1728031
vn -0.0008174989 0.9849283 -0.1729611
vn 0.005138586 2.483584E-06 0.9999868
vn 0.002538619 4.973958E-06 0.9999968
vn 0.002538619 2.485246E-06 0.9999968
vn 0.005138923 -6.86073E-09 0.9999868
vn -0.0008465998 0.9845549 -0.1750745
vn -0.000533729 0.9845696 -0.1749925
vn -0.0005519325 0.9845691 -0.1749956
vn -0.0008651434 0.9845406 -0.1751543
vn 0.005158311 0 0.9999866
vn 0.002556493 0 0.9999968
vn 0.002556493 1.586533E-11 0.9999968
vn 0.00515831 0 0.9999866
vn 0.003284821 0.05934411 0.9982322
vn 0.001553304 0.05934746 0.9982362
vn 0.005012612 0.0593416 0.9982252
vn 0.005012163 0.05933787 0.9982254
vn -7.487286E-06 0.9859095 -0.1672797
vn -2.155085E-05 0.9859222 -0.1672052
vn -0.0001740363 -1.491237E-10 1
vn -0.0001740364 -2.982475E-10 1
vn -3.886788E-05 0.9849706 -0.1727225
vn -5.729024E-05 0.9849835 -0.1726481
vn -0.0001640944 -1.757829E-10 1
vn -0.0001640944 -3.515658E-10 1
vn -7.566045E-05 0.9849705 -0.1727223
vn -9.406189E-05 0.9849837 -0.1726478
vn -0.000153376 0 1
vn -0.000153376 0 1
vn -0.0001120086 0.9849705 -0.1727226
vn -0.0001301483 0.9849837 -0.1726477
vn -0.000144345 -0.001469968 0.9999989
vn -0.0001443447 -0.001469966 0.9999989
vn -0.0001484932 0.9849774 -0.1726833
vn -0.0001669434 0.9849904 -0.1726088
vn -0.0001343413 0 1
vn -0.0001343413 0 1
vn -0.0001836164 0.9849746 -0.1726999
vn -0.0002000481 0.9849877 -0.1726248
vn -0.0001249655 -2.397658E-06 1
vn -0.0001253074 -4.795316E-06 1
vn -0.0002167682 0.9849705 -0.172723
vn -0.000233619 0.9849836 -0.1726478
vn -0.000115867 2.486925E-06 1
vn -0.0001162101 0 1
vn -0.0002507504 0.9845836 -0.1749149
vn -0.0002683663 0.984597 -0.1748393
vn -0.0001063591 3.210262E-11 1
vn -0.0001063591 6.420525E-11 1
vn -0.0001824826 0.05934826 0.9982373
vn -0.000182525 0.05934791 0.9982373

vt 0.07231283 0.0243997
vt 0.5 0.0243317
vt 0.5009947 0.09088562
vt 0.07231283 0.09095375
vt 0.07231283 0.09095375
vt 0.5009947 0.09088562
vt 0.5009947 0.1159405
vt 0.07231283 0.1160086
vt 0.07231283 0.1160086
vt 0.5009947 0.1159405
vt 0.5009947 0.2026733
vt 0.07231283 0.2027415
vt 0.07231283 0.2027415
vt 0.5009947 0.2026733
vt 0.5009947 0.2293944
vt 0.07231283 0.2294626
vt 0.07231283 0.2294626
vt 0.5009947 0.2293944
vt 0.5009947 0.3154902
vt 0.07231283 0.3155584
vt 0.07231283 0.3155584
vt 0.5009947 0.3154902
vt 0.5009947 0.3381469
vt 0.07231283 0.3382151
vt 0.07231283 0.3382151
vt 0.5009947 0.3381469
vt 0.5009947 0.4223085
vt 0.07231283 0.4223769
vt 0.07231283 0.4223769
vt 0.5009947 0.4223085
vt 0.5009948 0.4460629
vt 0.07231283 0.4461313
vt 0.07231283 0.4461313
vt 0.5009948 0.4460629
vt 0.5009949 0.5316052
vt 0.07231283 0.5316737
vt 0.07231283 0.5316737
vt 0.5009949 0.5316052
vt 0.5009949 0.552744
vt 0.07231283 0.5528124
vt 0.07231283 0.5528124
vt 0.5009949 0.552744
vt 0.5009949 0.6279572
vt 0.07231283 0.6280256
vt 0.07231283 0.6280256
vt 0.5009949 0.6279572
vt 0.5009949 0.6518372
vt 0.07231283 0.6519057
vt 0.07231283 0.6519057
vt 0.5009949 0.6518372
vt 0.5009949 0.72865
vt 0.07231283 0.7287185
vt 0.07231283 0.7287185
vt 0.5009949 0.72865
vt 0.5009949 0.75167
vt 0.07231283 0.7517386
vt 0.07231283 0.7517386
vt 0.5009949 0.75167
vt 0.5009949 0.8310497
vt 0.07231283 0.8311183
vt 0.07231283 0.8311183
vt 0.5009949 0.8310497
vt 0.5009949 0.8547587
vt 0.07231283 0.8548273
vt 0.5 0.0008171797
vt 0.5 0.0243317
vt 0.07231283 0.0243997
vt 0.07231283 0.0008851737
vt 0.9136815 0.0242638
vt 0.9136815 0.09081776
vt 0.9136815 0.09081776
vt 0.9136815 0.1158726
vt 0.9136815 0.1158726
vt 0.9136815 0.2026055
vt 0.9136815 0.2026055
vt 0.9136815 0.2293266
vt 0.9136815 0.2293266
vt 0.9136815 0.3154226
vt 0.9136815 0.3154226
vt 0.9136815 0.3380792
vt 0.9136815 0.3380792
vt 0.9136815 0.4222409
vt 0.9136815 0.4222409
vt 0.9136815 0.4459953
vt 0.9136815 0.4459953
vt 0.9136815 0.5315378
vt 0.9136815 0.5315378
vt 0.9136815 0.5526766
vt 0.9136815 0.5526766
vt 0.9136815 0.62789
vt 0.9136815 0.62789
vt 0.9136815 0.6517698
vt 0.9136815 0.6517698
vt 0.9136815 0.7285827
vt 0.9136815 0.7285827
vt 0.9136815 0.7516027
vt 0.9136815 0.7516027
vt 0.9136815 0.8309826
vt 0.9136815 0.8309826
vt 0.9136815 0.8546915
vt 0.9136815 0.0007493645
vt 0.9136815 0.0242638

usemtl sn18_05_SN18G09.JPG
usemap sn18_05_SN18G09.JPG
f 3/3/3 1/1/1 2/2/2
f 1/1/1 3/3/3 4/4/4
f 7/7/7 5/5/5 6/6/6
f 5/5/5 7/7/7 8/8/8
f 11/11/11 9/9/9 10/10/10
f 9/9/9 11/11/11 12/12/12
f 15/15/15 13/13/13 14/14/14
f 13/13/13 15/15/15 16/16/16
f 19/19/19 17/17/17 18/18/18
f 17/17/17 19/19/19 20/20/20
f 23/23/23 21/21/21 22/22/22
f 21/21/21 23/23/23 24/24/24
f 27/27/27 25/25/25 26/26/26
f 25/25/25 27/27/27 28/28/28
f 31/31/31 29/29/29 30/30/30
f 29/29/29 31/31/31 32/32/32
f 35/35/35 33/33/33 34/34/34
f 33/33/33 35/35/35 36/36/36
f 39/39/39 37/37/37 38/38/38
f 37/37/37 39/39/39 40/40/40
f 43/43/43 41/41/41 42/42/42
f 41/41/41 43/43/43 44/44/44
f 47/47/47 45/45/45 46/46/46
f 45/45/45 47/47/47 48/48/48
f 51/51/51 49/49/49 50/50/50
f 49/49/49 51/51/51 52/52/52
f 55/55/55 53/53/53 54/54/54
f 53/53/53 55/55/55 56/56/56
f 59/59/59 57/57/57 58/58/58
f 57/57/57 59/59/59 60/60/60
f 63/63/63 61/61/61 62/62/62
f 61/61/61 63/63/63 64/64/64
f 67/67/67 65/65/65 66/66/66
f 65/65/65 67/67/67 68/68/68
f 3/3/3 69/69/69 70/70/70
f 69/69/69 3/3/3 2/2/2
f 7/7/7 71/71/71 72/72/72
f 71/71/71 7/7/7 6/6/6
f 11/11/11 73/73/73 74/74/74
f 73/73/73 11/11/11 10/10/10
f 15/15/15 75/75/75 76/76/76
f 75/75/75 15/15/15 14/14/14
f 19/19/19 77/77/77 78/78/78
f 77/77/77 19/19/19 18/18/18
f 23/23/23 79/79/79 80/80/80
f 79/79/79 23/23/23 22/22/22
f 27/27/27 81/81/81 82/82/82
f 81/81/81 27/27/27 26/26/26
f 31/31/31 83/83/83 84/84/84
f 83/83/83 31/31/31 30/30/30
f 35/35/35 85/85/85 86/86/86
f 85/85/85 35/35/35 34/34/34
f 39/39/39 87/87/87 88/88/88
f 87/87/87 39/39/39 38/38/38
f 43/43/43 89/89/89 90/90/90
f 89/89/89 43/43/43 42/42/42
f 47/47/47 91/91/91 92/92/92
f 91/91/91 47/47/47 46/46/46
f 51/51/51 93/93/93 94/94/94
f 93/93/93 51/51/51 50/50/50
f 55/55/55 95/95/95 96/96/96
f 95/95/95 55/55/55 54/54/54
f 59/59/59 97/97/97 98/98/98
f 97/97/97 59/59/59 58/58/58
f 63/63/63 99/99/99 100/100/100
f 99/99/99 63/63/63 62/62/62
f 66/66/66 101/101/101 102/102/102
f 101/101/101 66/66/66 65/65/65
