mtllib ./Object78.mtl
g Object78
v -12.58252 -22.12738 11.30431
v -12.57912 22.15457 11.30788
v -11.90252 22.12762 12.01848
v -11.90252 -22.15434 12.01848
v 11.86538 22.15457 -11.98437
v 11.86764 -22.12738 -11.982
v 12.55056 -22.15433 -11.26476
v 12.55056 22.12762 -11.26476
v -13.079 -22.12738 11.76712
v -13.0756 22.15457 11.77069
v -12.57912 22.15457 11.30788
v -12.58252 -22.12738 11.30431
v -13.0756 22.15457 11.77069
v -12.39899 22.12762 12.48129
v -11.90252 22.12762 12.01848
v -12.57912 22.15457 11.30788
v -12.39899 22.12762 12.48129
v -12.39899 -22.15434 12.48129
v -12.39899 -22.15434 12.48129
v -13.079 -22.12738 11.76712
v -12.58252 -22.12738 11.30431
v -11.90252 -22.15434 12.01848
v 12.41416 22.15457 -12.50452
v 12.41643 -22.12738 -12.50213
v 11.86764 -22.12738 -11.982
v 11.86538 22.15457 -11.98437
v 12.41643 -22.12738 -12.50213
v 13.09935 -22.15434 -11.7849
v 12.55056 -22.15433 -11.26476
v 11.86764 -22.12738 -11.982
v 13.09935 -22.15434 -11.7849
v 13.09935 22.12762 -11.7849
v 12.55056 22.12762 -11.26476
v 12.55056 -22.15433 -11.26476
v 13.09935 22.12762 -11.7849
v 12.41416 22.15457 -12.50452
v 11.86538 22.15457 -11.98437
v 12.55056 22.12762 -11.26476
v -13.0756 22.15457 11.77069
v -13.079 -22.12738 11.76712
v -12.39899 -22.15434 12.48129
v -12.39899 22.12762 12.48129
v 12.41643 -22.12738 -12.50213
v 12.41416 22.15457 -12.50452
v -13.07404 21.47583 11.77233
v 12.42154 21.47583 -12.49676
v 13.0786 21.47583 -11.76757
v -12.41356 21.47583 12.50507
v -13.079 22.15457 11.76712
v 12.41659 22.15457 -12.50197
v 12.42154 21.47583 -12.49676
v -13.07404 21.47583 11.77233
v 12.41659 22.15457 -12.50197
v 13.07366 22.15457 -11.77276
v 13.0786 21.47583 -11.76757
v 12.42154 21.47583 -12.49676
v 13.07366 22.15457 -11.77276
v -12.41851 22.15457 12.49987
v -12.41356 21.47583 12.50507
v 13.0786 21.47583 -11.76757
v -12.41851 22.15457 12.49987
v -13.079 22.15457 11.76712
v -13.07404 21.47583 11.77233
v -12.41356 21.47583 12.50507
v 12.41659 22.15457 -12.50197
v -13.079 22.15457 11.76712
v -12.41851 22.15457 12.49987
v 13.07366 22.15457 -11.77276

vn -0.0001471937 7.312376E-09 -1
vn -0.0001475215 1.466146E-08 -0.9999999
vn 0.3270542 6.935163E-09 -0.9450056
vn 0.8130236 0 -0.5822308
vn 0.0001468956 -1.314486E-09 1
vn 0.0001468658 -2.633329E-09 1
vn 0.0001468956 -1.314486E-09 1
vn 0.0001470149 0 1
vn -0.9999456 0.0001112874 -0.01044075
vn -0.9999456 0.0001112874 -0.01044075
vn -0.9999456 0.0001112874 -0.01044075
vn -0.9999456 0.0001112874 -0.01044075
vn 0.02746099 0.9996229 0.0002864152
vn 0.02746077 0.9996229 0.000286099
vn 0.02746099 0.9996229 0.0002864152
vn 0.0274612 0.9996228 0.0002867323
vn 0.9999457 0 0.01041785
vn 0.9999457 0 0.01041785
vn -0.02732675 -0.9996265 -0.0002836096
vn -0.02732749 -0.9996265 -0.0002825288
vn -0.02732675 -0.9996265 -0.0002836096
vn -0.027326 -0.9996265 -0.0002846932
vn -0.9999977 -7.424584E-05 -0.002142981
vn -0.9999977 -7.441328E-05 -0.00215286
vn -0.9999977 -7.424584E-05 -0.002142981
vn -0.9999977 -7.407838E-05 -0.002133206
vn -0.02720997 -0.9996297 -5.732896E-05
vn -0.02721092 -0.9996297 -5.608238E-05
vn -0.02720997 -0.9996297 -5.732896E-05
vn -0.02720902 -0.9996298 -5.857507E-05
vn 0.8373687 0 -0.5466384
vn 0.356256 5.037156E-09 -0.9343886
vn 0.9999977 0 0.00215365
vn 0.9999977 0 0.00215365
vn 0.02711713 0.9996323 5.812338E-05
vn 0.02711692 0.9996323 5.784584E-05
vn 0.02711713 0.9996323 5.812338E-05
vn 0.02711734 0.9996322 5.840277E-05
vn 0.0001468062 -7.293553E-09 1
vn 0.0001465082 -1.455063E-08 0.9999999
vn 0.0001468062 -7.293553E-09 1
vn 0.0001471639 0 1
vn -0.0001477897 5.386434E-09 -1
vn -0.0001480579 1.075502E-08 -1
vn 0 -1 0
vn 0 -1 0
vn 0 -1 0
vn 0 -1 0
vn -0.9999439 -0.01059114 7.092953E-06
vn -0.9999439 -0.01059114 7.092953E-06
vn -0.9999439 -0.01059114 7.092953E-06
vn -0.9999439 -0.01059114 7.092953E-06
vn 0.02733552 0.0002899813 -0.9996263
vn 0.02733541 0.000289912 -0.9996263
vn 0.02733552 0.0002899813 -0.9996263
vn 0.02733552 0.0002900507 -0.9996263
vn 0.9999443 0.01056561 -0.0001470745
vn 0.9999443 0.01056561 -0.0001470745
vn 0.9999443 0.01056561 -0.0001470745
vn 0.9999443 0.01056561 -0.0001470745
vn -0.02716741 -0.0002881994 0.9996308
vn -0.02716735 -0.0002882862 0.9996308
vn -0.02716741 -0.0002881994 0.9996308
vn -0.02716753 -0.0002881127 0.9996309
vn 0 1 0
vn 0 1 0
vn 0 1 0
vn 0 1 0

vt 1 0.8883559
vt 7.54979E-08 0.8883559
vt 0 1
vt 1 1
vt 0 1
vt 1 1
vt 1 0.8883559
vt 7.54979E-08 0.8883559
vt 1 0.9999999
vt 7.54979E-08 1
vt 0 0.8911927
vt 1 0.8911926
vt 1 0.9999999
vt 7.54979E-08 1
vt 0 0.8911927
vt 1 0.8911926
vt 0 0.8911927
vt 1 0.8911926
vt 0 0.8911927
vt 1 0.8911926
vt 1 0.9999999
vt 7.54979E-08 1
vt 0 0.8855193
vt 1 0.8855193
vt 1 0.9999999
vt 7.54979E-08 1
vt 1 0.9999999
vt 7.54979E-08 1
vt 0 0.8855193
vt 1 0.8855193
vt 1 0.9999999
vt 7.54979E-08 1
vt 0 0.8855193
vt 1 0.8855193
vt 0 0.8855193
vt 1 0.8855193
vt 1 0.9999999
vt 7.54979E-08 1
vt 0 1
vt 1 1
vt 1 0.8883559
vt 7.54979E-08 0.8883559
vt 1 0.8883559
vt 7.54979E-08 0.8883559
vt 1 0.8883559
vt 7.54979E-08 0.8883559
vt 0 1
vt 1 1
vt 1 0.9999999
vt 7.54979E-08 1
vt 0 0.8911927
vt 1 0.8911926
vt 1 0.9999999
vt 7.54979E-08 1
vt 0 0.8911927
vt 1 0.8911926
vt 0 0.8911927
vt 1 0.8911926
vt 1 0.9999999
vt 7.54979E-08 1
vt 0 0.8911927
vt 1 0.8911926
vt 1 0.9999999
vt 7.54979E-08 1
vt 0 1
vt 1 1
vt 1 0.8883559
vt 7.54979E-08 0.8883559

usemtl sn18_14_SN18G04.JPG
usemap sn18_14_SN18G04.JPG
f 3/3/3 1/1/1 2/2/2
f 1/1/1 3/3/3 4/4/4
f 7/7/7 5/5/5 6/6/6
f 5/5/5 7/7/7 8/8/8
f 11/11/11 9/9/9 10/10/10
f 9/9/9 11/11/11 12/12/12
f 15/15/15 13/13/13 14/14/14
f 13/13/13 15/15/15 16/16/16
f 4/4/4 17/17/17 18/18/18
f 17/17/17 4/4/4 3/3/3
f 21/21/21 19/19/19 20/20/20
f 19/19/19 21/21/21 22/22/22
f 25/25/25 23/23/23 24/24/24
f 23/23/23 25/25/25 26/26/26
f 29/29/29 27/27/27 28/28/28
f 27/27/27 29/29/29 30/30/30
f 33/33/33 31/31/31 32/32/32
f 31/31/31 33/33/33 34/34/34
f 37/37/37 35/35/35 36/36/36
f 35/35/35 37/37/37 38/38/38
f 41/41/41 39/39/39 40/40/40
f 39/39/39 41/41/41 42/42/42
f 32/32/32 43/43/43 44/44/44
f 43/43/43 32/32/32 31/31/31
f 47/47/47 45/45/45 46/46/46
f 45/45/45 47/47/47 48/48/48
f 51/51/51 49/49/49 50/50/50
f 49/49/49 51/51/51 52/52/52
f 55/55/55 53/53/53 54/54/54
f 53/53/53 55/55/55 56/56/56
f 59/59/59 57/57/57 58/58/58
f 57/57/57 59/59/59 60/60/60
f 63/63/63 61/61/61 62/62/62
f 61/61/61 63/63/63 64/64/64
f 67/67/67 65/65/65 66/66/66
f 65/65/65 67/67/67 68/68/68
