mtllib ./Object68.mtl
g Object68
v -24.24122 -34.64923 2.837843
v -24.23883 65.98474 2.63868
v -24.37048 65.95779 13.63992
v -24.37042 -34.67621 13.63987
v 24.03764 65.98474 3.191497
v 24.03526 -34.64923 3.390537
v 23.90585 -34.67621 14.20984
v 23.90585 65.95779 14.20984
v -29.24111 -34.64923 2.79738
v -29.23873 65.98474 2.598154
v -24.23883 65.98474 2.63868
v -24.24122 -34.64923 2.837843
v -29.23873 65.98474 2.598154
v -29.37032 65.95779 13.59934
v -24.37048 65.95779 13.63992
v -24.23883 65.98474 2.63868
v -29.37032 65.95779 13.59934
v -29.37032 -34.67621 13.59934
v -24.37042 -34.67621 13.63987
v -24.37048 65.95779 13.63992
v -29.37032 -34.67621 13.59934
v -29.24111 -34.64923 2.79738
v -24.24122 -34.64923 2.837843
v -24.37042 -34.67621 13.63987
v 29.03664 65.98474 3.306794
v 29.03426 -34.64923 3.505834
v 24.03526 -34.64923 3.390537
v 24.03764 65.98474 3.191497
v 29.03426 -34.64923 3.505834
v 28.90479 -34.67621 14.32519
v 23.90585 -34.67621 14.20984
v 24.03526 -34.64923 3.390537
v 28.90479 -34.67621 14.32519
v 28.90486 65.95779 14.32514
v 23.90585 65.95779 14.20984
v 23.90585 -34.67621 14.20984
v 28.90486 65.95779 14.32514
v 29.03664 65.98474 3.306794
v 24.03764 65.98474 3.191497
v 23.90585 65.95779 14.20984
v -29.23873 65.98474 2.598154
v -29.24111 -34.64923 2.79738
v -29.37032 -34.67621 13.59934
v -29.37032 65.95779 13.59934
v 29.03426 -34.64923 3.505834
v 29.03664 65.98474 3.306794
v 28.90486 65.95779 14.32514
v 28.90479 -34.67621 14.32519

vn 0.9925546 2.838617E-07 -0.1218005
vn 0.992555 -2.666684E-08 -0.1217977
vn 0.9925546 2.838617E-07 -0.1218005
vn 0.9925542 6.001156E-07 -0.1218035
vn -0.9925541 1.756144E-08 0.1218041
vn -0.9925541 3.544606E-08 0.1218042
vn -0.9925541 1.756144E-08 0.1218041
vn -0.9925541 0 0.1218039
vn -0.1256353 -0.001979521 -0.9920745
vn -0.1256292 -0.001979829 -0.9920753
vn -0.1256353 -0.001979521 -0.9920745
vn -0.1256415 -0.001979213 -0.9920738
vn 0.0003076906 0.999997 0.00242989
vn 0.000307678 0.999997 0.002429898
vn 0.0003076906 0.999997 0.00242989
vn 0.0003077032 0.999997 0.002429883
vn 0.1256241 -2.677973E-07 0.9920779
vn 0.1256294 0 0.9920772
vn 0.1256241 -2.677973E-07 0.9920779
vn 0.1256187 -5.355978E-07 0.9920785
vn -0.0003137483 -0.9999968 -0.002477504
vn -0.0003137645 -0.9999968 -0.002477509
vn -0.0003137483 -0.9999968 -0.002477504
vn -0.000313732 -0.9999968 -0.002477499
vn -0.1107794 -0.001977882 -0.9938431
vn -0.1107794 -0.001977882 -0.993843
vn -0.1107794 -0.001977882 -0.9938431
vn -0.1107794 -0.001977881 -0.993843
vn -0.0002762072 -0.9999969 -0.002478079
vn -0.0002761933 -0.9999968 -0.002478075
vn -0.0002762072 -0.9999969 -0.002478079
vn -0.0002762211 -0.9999969 -0.002478084
vn 0.1107744 2.684071E-07 0.9938456
vn 0.1107797 5.368105E-07 0.993845
vn 0.1107744 2.684071E-07 0.9938456
vn 0.110769 0 0.9938462
vn 0.0002709248 0.999997 0.002430566
vn 0.0002709246 0.999997 0.002430567
vn 0.0002709248 0.999997 0.002430566
vn 0.0002709251 0.999997 0.002430566
vn -0.9925542 5.658502E-09 0.1218032
vn -0.9925542 1.14214E-08 0.1218032
vn -0.9925542 5.658502E-09 0.1218032
vn -0.9925542 0 0.1218031
vn 0.9925545 -3.620609E-07 -0.1218011
vn 0.9925542 -5.375648E-08 -0.1218039
vn 0.9925545 -3.620609E-07 -0.1218011
vn 0.992555 -6.760341E-07 -0.1217982

vt 1 0.8883559
vt 7.54979E-08 0.8883559
vt 0 1
vt 1 1
vt 0 1
vt 1 1
vt 1 0.8883559
vt 7.54979E-08 0.8883559
vt 1 0.9999999
vt 7.54979E-08 1
vt 0 0.8911927
vt 1 0.8911926
vt 1 0.9999999
vt 7.54979E-08 1
vt 0 0.8911927
vt 1 0.8911926
vt 0 0.8911927
vt 1 0.8911926
vt 1 0.9999999
vt 7.54979E-08 1
vt 0 0.8911927
vt 1 0.8911926
vt 1 0.9999999
vt 7.54979E-08 1
vt 0 0.8855193
vt 1 0.8855193
vt 1 0.9999999
vt 7.54979E-08 1
vt 1 0.9999999
vt 7.54979E-08 1
vt 0 0.8855193
vt 1 0.8855193
vt 1 0.9999999
vt 7.54979E-08 1
vt 0 0.8855193
vt 1 0.8855193
vt 0 0.8855193
vt 1 0.8855193
vt 1 0.9999999
vt 7.54979E-08 1
vt 0 1
vt 1 1
vt 1 0.8883559
vt 7.54979E-08 0.8883559
vt 1 0.8883559
vt 7.54979E-08 0.8883559
vt 0 1
vt 1 1

usemtl sn18_14_SN18G04.JPG
usemap sn18_14_SN18G04.JPG
f 3/3/3 1/1/1 2/2/2
f 1/1/1 3/3/3 4/4/4
f 7/7/7 5/5/5 6/6/6
f 5/5/5 7/7/7 8/8/8
f 11/11/11 9/9/9 10/10/10
f 9/9/9 11/11/11 12/12/12
f 15/15/15 13/13/13 14/14/14
f 13/13/13 15/15/15 16/16/16
f 19/19/19 17/17/17 18/18/18
f 17/17/17 19/19/19 20/20/20
f 23/23/23 21/21/21 22/22/22
f 21/21/21 23/23/23 24/24/24
f 27/27/27 25/25/25 26/26/26
f 25/25/25 27/27/27 28/28/28
f 31/31/31 29/29/29 30/30/30
f 29/29/29 31/31/31 32/32/32
f 35/35/35 33/33/33 34/34/34
f 33/33/33 35/35/35 36/36/36
f 39/39/39 37/37/37 38/38/38
f 37/37/37 39/39/39 40/40/40
f 43/43/43 41/41/41 42/42/42
f 41/41/41 43/43/43 44/44/44
f 47/47/47 45/45/45 46/46/46
f 45/45/45 47/47/47 48/48/48
