mtllib ./Object81.mtl
g Object81
v -49.26126 -70.22624 355.3348
v -0.0002177954 -70.22623 458.9142
v -0.0002177954 -70.22624 361.3162
v -109.8255 -70.22623 445.579
v -213.2682 -70.22623 406.3483
v -86.46885 -70.22624 350.817
v -167.9122 -70.22624 319.9296
v -304.3166 -70.22623 343.5022
v -369.036 -70.22623 416.5553
v -458.0007 -70.22623 316.1349
v -377.6792 -70.22623 260.693
v -520.3481 -70.22623 197.342
v -429.0924 -70.22623 162.7332
v -552.4547 -70.22623 67.08013
v -337.8368 -70.22624 128.1245
v -358.682 -70.22624 43.55187
v -455.5683 -70.22623 55.316
v -455.5683 -70.22623 -55.31598
v -358.682 -70.22624 -43.55183
v -429.0924 -70.22623 -162.7332
v -337.8368 -70.22624 -128.1245
v -377.6792 -70.22623 -260.693
v -297.3576 -70.22624 -205.251
v -304.3166 -70.22623 -343.5022
v -239.5971 -70.22624 -270.4491
v -213.2682 -70.22623 -406.3484
v -167.9122 -70.22624 -319.9297
v -109.8255 -70.22623 -445.5789
v -86.46885 -70.22624 -350.817
v -0.0001567602 -70.22623 -458.9142
v -49.61203 -70.22624 -355.2922
v 22.07876 -70.22624 -430.8072
v 57.68325 -70.22623 -482.5309
v -0.0001567602 -70.22623 -458.9142
v -0.0002177954 -70.22624 -361.3163
v 50.53146 -70.22624 -355.1805
v 50.22201 -70.22624 -435.7928
v 213.2679 -70.22623 -406.3483
v 109.8252 -70.22623 -445.579
v 86.46841 -70.22624 -350.817
v 167.9118 -70.22624 -319.9296
v 304.3162 -70.22623 -343.5022
v 239.5968 -70.22624 -270.4491
v 377.6788 -70.22623 -260.6929
v 297.3572 -70.22624 -205.2509
v 429.0921 -70.22623 -162.7332
v 337.8363 -70.22624 -128.1244
v 455.5679 -70.22623 -55.31591
v 358.6816 -70.22624 -43.5518
v 455.5679 -70.22623 55.31607
v 358.6816 -70.22624 43.55193
v 429.0919 -70.22623 162.7333
v 520.3475 -70.22623 197.342
v 458.0002 -70.22623 316.135
v 377.6786 -70.22623 260.693
v 369.0356 -70.22623 416.5553
v 304.3161 -70.22623 343.5022
v 258.6237 -70.22623 492.767
v 213.2677 -70.22623 406.3483
v 133.1817 -70.22623 540.3409
v 109.825 -70.22623 445.5789
v -0.0002177954 -70.22623 556.5122
v 50.70803 -70.22624 355.1591
v 167.9118 -70.22624 319.9296
v 86.46835 -70.22624 350.817
v 239.5967 -70.22624 270.4491
v 297.3571 -70.22624 205.2511
v 337.8363 -70.22624 128.1246
v -133.1822 -70.22623 540.3409
v -258.6242 -70.22623 492.767
v -239.5972 -70.22624 270.4491
v -297.3576 -70.22624 205.251
v -520.3481 -70.22623 -197.3419
v -552.4547 -70.22623 -67.08012
v -552.4558 -70.22623 -52.74251
v -458.0007 -70.22623 -316.135
v -369.036 -70.22623 -416.5554
v -258.6242 -70.22623 -492.7671
v -133.1822 -70.22623 -540.3409
v -0.0001567602 -70.22623 -556.5121
v -0.0001567602 -70.22623 -556.5121
v 134.3116 -70.22623 -480.0644
v 118.479 -70.22623 -480.6889
v 109.8252 -70.22623 -445.579
v 57.68325 -70.22623 -482.5309
v 109.8252 -70.22623 -445.579
v 118.479 -70.22623 -480.6889
v 369.0356 -70.22623 -416.5553
v 258.6239 -70.22623 -492.7669
v 109.8252 -70.22623 -445.579
v 213.2679 -70.22623 -406.3483
v 134.3116 -70.22623 -480.0644
v 458.0004 -70.22623 -316.1349
v 520.3477 -70.22623 -197.3419
v 552.4542 -70.22623 -67.08002
v 552.4564 -70.22623 -52.74247
v 552.4542 -70.22623 67.08022
v -552.4558 -70.22623 47.25749
v 80.17831 -70.22624 -400.3798
v 86.46841 -70.22624 -350.817
v 109.8252 -70.22623 -445.579
v -0.0001567602 -70.22624 -436.1009
v 552.4564 -70.22623 47.25753
v 50.22201 -70.22624 -435.7928
v 80.17831 -70.22624 -400.3798
v 109.8252 -70.22623 -445.579
v 53.08316 -70.22624 -452.4687
v -0.0002177954 -70.22624 -361.3163
v 22.07876 -70.22624 -430.8072
v -0.0001567602 -70.22624 -436.1009
v 258.6239 -70.22623 -492.7669
v 133.1819 -70.22623 -540.3409
v 118.479 -70.22623 -480.6889
v 118.479 -70.22623 -480.6889
v 133.1819 -70.22623 -540.3409
v -0.0001567602 -70.22623 -458.9142
v 53.08316 -70.22624 -452.4687
v 22.07876 -70.22624 -430.8072
v 57.68325 -70.22623 -482.5309

vn 9.491727E-09 1 -7.817167E-08
vn 1.859452E-09 1 -7.817163E-08
vn -1.374056E-10 1 -7.817166E-08
vn 2.015844E-08 1 -7.554256E-08
vn 3.692398E-08 0.9999999 -6.890487E-08
vn 2.498662E-08 1 -7.435253E-08
vn 3.959251E-08 1 -6.750432E-08
vn 5.234104E-08 0.9999999 -5.806613E-08
vn 4.976322E-08 1 -6.034987E-08
vn 6.275989E-08 1 -4.668709E-08
vn 6.471625E-08 1 -4.385281E-08
vn 7.210914E-08 1 -3.031102E-08
vn 7.333036E-08 0.9999999 -2.709088E-08
vn 7.662896E-08 0.9999999 -1.743366E-08
vn 7.439907E-08 1 -2.427297E-08
vn 7.804608E-08 1 -5.762804E-09
vn 7.765905E-08 1 -8.947924E-09
vn 7.754634E-08 1 9.877262E-09
vn 7.715735E-08 1 1.308225E-08
vn 7.285316E-08 0.9999999 2.834918E-08
vn 7.17845E-08 1 3.116708E-08
vn 6.395177E-08 1 4.496033E-08
vn 6.223976E-08 1 4.744059E-08
vn 5.133372E-08 0.9999999 5.895852E-08
vn 4.907793E-08 1 6.095699E-08
vn 3.573237E-08 1 6.953027E-08
vn 3.306384E-08 1 7.093083E-08
vn 1.805438E-08 0.9999999 7.606117E-08
vn 1.632759E-08 1 7.648677E-08
vn 3.264275E-08 1 8.925581E-08
vn 7.710057E-08 1 7.817169E-08
vn -1.598825E-08 1 2.839998E-07
vn -2.942495E-08 1 5.153884E-08
vn -7.702656E-08 1 1.349147E-07
vn 0 1 0
vn 0 1 0
vn 0 1 0
vn -3.872405E-08 1 6.796012E-08
vn -2.792369E-08 1 7.362852E-08
vn -2.792366E-08 0.9999999 7.362857E-08
vn -3.959251E-08 1 6.750435E-08
vn -5.234105E-08 0.9999999 5.806614E-08
vn -5.459687E-08 1 5.606763E-08
vn -6.471625E-08 1 4.385279E-08
vn -6.642821E-08 1 4.137252E-08
vn -7.33304E-08 1 2.709087E-08
vn -7.439905E-08 0.9999999 2.427297E-08
vn -7.768222E-08 1 8.754483E-09
vn -7.804613E-08 1 5.762824E-09
vn -7.752064E-08 1 -1.009053E-08
vn -7.715736E-08 1 -1.30823E-08
vn -7.285319E-08 1 -2.834924E-08
vn -7.407444E-08 1 -2.512911E-08
vn -6.590816E-08 1 -4.212606E-08
vn -6.395179E-08 1 -4.496035E-08
vn -5.391153E-08 1 -5.667479E-08
vn -5.133372E-08 1 -5.895855E-08
vn -3.878179E-08 1 -6.792981E-08
vn -3.573238E-08 1 -6.953029E-08
vn -2.139825E-08 1 -7.523698E-08
vn -1.761364E-08 1 -7.616979E-08
vn -2.77105E-09 1 -7.81716E-08
vn -9.491747E-09 1 -7.817168E-08
vn -3.306387E-08 1 -7.093084E-08
vn -2.253108E-08 1 -7.495779E-08
vn -4.90779E-08 1 -6.095703E-08
vn -6.223982E-08 1 -4.744061E-08
vn -7.178449E-08 1 -3.116714E-08
vn 1.601719E-08 1 -7.656325E-08
vn 3.387455E-08 1 -7.050533E-08
vn 5.459686E-08 1 -5.606766E-08
vn 6.642825E-08 1 -4.137256E-08
vn 7.407438E-08 1 2.512906E-08
vn 7.667845E-08 1 1.702612E-08
vn 7.87449E-08 0.9999999 3.845486E-13
vn 6.590814E-08 0.9999999 4.212603E-08
vn 5.391152E-08 1 5.667478E-08
vn 3.87818E-08 1 6.79298E-08
vn 2.139821E-08 1 7.523699E-08
vn 9.491787E-09 1 7.817167E-08
vn -3.879272E-08 0.9999999 3.024682E-08
vn -8.488384E-09 1 2.152084E-07
vn -8.488384E-09 1 2.152084E-07
vn -8.488384E-09 1 2.152084E-07
vn -8.964581E-08 1 3.329652E-07
vn -8.964581E-08 1 3.329652E-07
vn -6.535157E-09 1 2.156898E-07
vn -4.976324E-08 1 6.034988E-08
vn -4.473272E-08 1 6.480654E-08
vn -6.610304E-08 1 1.742989E-07
vn -1.377332E-08 0.9999999 1.182493E-07
vn -8.740554E-09 1 7.504109E-08
vn -6.275987E-08 1 4.668707E-08
vn -7.21092E-08 1 3.0311E-08
vn -7.658419E-08 0.9999999 1.780301E-08
vn -7.874409E-08 1 1.513253E-12
vn -7.75849E-08 1 -9.555073E-09
vn 7.874496E-08 0.9999999 -7.219987E-13
vn -6.396844E-08 1 8.118343E-09
vn -1.078111E-07 1 1.368249E-08
vn -2.156222E-07 1 2.736498E-08
vn 1.273274E-07 1 7.817174E-08
vn -7.874252E-08 1 -1.443952E-12
vn -1.039006E-07 1 5.40461E-08
vn -1.123929E-07 1 9.507463E-08
vn -1.179311E-07 1 6.134432E-08
vn -1.925113E-07 1 4.781161E-07
vn 0 1 0
vn -1.009572E-08 0.9999999 4.210713E-08
vn -1.874265E-08 1 7.817165E-08
vn 5.483277E-09 1 5.36616E-08
vn 0 1 0
vn 0 0.9999999 0
vn 0 1 0
vn 0 1 0
vn -8.018304E-08 0.9999999 3.344267E-07
vn 9.021971E-08 1 2.002571E-07
vn 2.567284E-07 1 3.674578E-07
vn 3.970727E-07 1 5.683338E-07

vt 0.8848528 3.276053
vt 0.5000008 4.085267
vt 0.5000007 3.322783
vt 1.358011 3.981086
vt 2.166157 3.674596
vt 1.175537 3.240758
vt 1.811813 2.99945
vt 2.877473 3.183611
vt 3.383093 3.754338
vt 4.078129 2.969803
vt 3.450617 2.536663
vt 4.565218 2.041733
vt 3.852283 1.771353
vt 4.816051 1.024063
vt 3.139348 1.500972
vt 3.302201 0.8402484
vt 4.059126 0.9321555
vt 4.059126 0.0678432
vt 3.302201 0.1597508
vt 3.852283 -0.7713536
vt 3.139348 -0.5009729
vt 3.450616 -1.536664
vt 2.823104 -1.103524
vt 2.877471 -2.183611
vt 2.37185 -1.612884
vt 2.166156 -2.674597
vt 1.811812 -1.99945
vt 1.358009 -2.981086
vt 1.175535 -2.240758
vt 0.4999987 -3.085267
vt 0.8875917 -2.275721
vt 0.6879861 1.204259
vt 0.5060359 0.685849
vt 0.9109325 0.9995003
vt 0.8895618 0.9964757
vt 0.4298837 0.9952564
vt 0.5177793 0.1787123
vt -1.166157 -2.674595
vt -0.3580116 -2.981086
vt -0.1755368 -2.240757
vt -0.8118135 -1.999449
vt -1.877473 -2.18361
vt -1.371852 -1.612883
vt -2.450618 -1.536662
vt -1.823105 -1.103522
vt -2.852284 -0.7713519
vt -2.139348 -0.5009714
vt -3.059126 0.06784537
vt -2.302202 0.1597523
vt -3.059126 0.9321578
vt -2.302202 0.8402502
vt -2.852282 1.771355
vt -3.565217 2.041735
vt -3.078127 2.969806
vt -2.450615 2.536665
vt -2.383091 3.754339
vt -1.877471 3.183612
vt -1.520499 4.349743
vt -1.166155 3.674597
vt -0.540483 4.721414
vt -0.358009 3.981086
vt 0.500001 4.847752
vt 0.1038424 3.274681
vt -0.8118118 2.99945
vt -0.175535 3.240759
vt -1.37185 2.612884
vt -1.823104 2.103525
vt -2.139347 1.500974
vt 1.540485 4.721413
vt 2.520501 4.349742
vt 2.371852 2.612883
vt 2.823105 2.103523
vt 4.565217 -1.041734
vt 4.816051 -0.02406436
vt 4.816051 0.08922989
vt 4.078128 -1.969805
vt 3.383091 -2.754339
vt 2.520499 -3.349743
vt 1.540483 -3.721414
vt 0.4999985 -3.847751
vt 0.9995005 0.00235334
vt 0.8248903 0.5747745
vt 0.9355037 0.6260237
vt 0.9000591 1
vt 0.5060359 0.685849
vt 0.0871309 0.9979717
vt 0.0550335 0.6284023
vt -2.383093 -2.754337
vt -1.520502 -3.349741
vt 0.9000591 1
vt 0.08227417 1
vt 0.8248903 0.5747745
vt -3.07813 -1.969802
vt -3.565218 -1.041732
vt -3.816051 -0.02406162
vt -3.816051 0.09153834
vt -3.816051 1.024065
vt 4.816051 0.8669999
vt 0.2133994 0.5002414
vt 0.1029714 0.994389
vt -0.003084877 0.005226702
vt 0.4999988 -2.907038
vt -3.816051 0.8664672
vt 0.5177793 0.1787123
vt 0.2133994 0.5002414
vt -0.003084877 0.005226702
vt 0.5127537 0.9987617
vt 0.4999993 -2.322783
vt 0.7730308 0.2126363
vt 0.9711027 0.238961
vt 0.004019776 0
vt 0.9957246 0
vt 0.9355037 0.6260237
vt 0.0550335 0.6284023
vt 0.0004995465 0.0004993081
vt 0.9959772 0.007878038
vt 0.5130874 0.006596694
vt 0.7730308 0.2126363
vt 0.5063696 -0.306316

usemtl sn18_16_SN18G06.JPG
usemap sn18_16_SN18G06.JPG
f 3/3/3 1/1/1 2/2/2
f 4/4/4 2/2/2 1/1/1
f 6/6/6 5/5/5 4/4/4
f 5/5/5 6/6/6 7/7/7
f 7/7/7 8/8/8 5/5/5
f 9/9/9 5/5/5 8/8/8
f 8/8/8 10/10/10 9/9/9
f 10/10/10 8/8/8 11/11/11
f 11/11/11 12/12/12 10/10/10
f 12/12/12 11/11/11 13/13/13
f 13/13/13 14/14/14 12/12/12
f 17/17/17 15/15/15 16/16/16
f 16/16/16 18/18/18 17/17/17
f 18/18/18 16/16/16 19/19/19
f 19/19/19 20/20/20 18/18/18
f 20/20/20 19/19/19 21/21/21
f 21/21/21 22/22/22 20/20/20
f 22/22/22 21/21/21 23/23/23
f 23/23/23 24/24/24 22/22/22
f 24/24/24 23/23/23 25/25/25
f 25/25/25 26/26/26 24/24/24
f 26/26/26 25/25/25 27/27/27
f 27/27/27 28/28/28 26/26/26
f 28/28/28 27/27/27 29/29/29
f 29/29/29 30/30/30 28/28/28
f 30/30/30 29/29/29 31/31/31
f 34/34/34 32/32/32 33/33/33
f 37/37/37 35/35/35 36/36/36
f 40/40/40 38/38/38 39/39/39
f 38/38/38 40/40/40 41/41/41
f 41/41/41 42/42/42 38/38/38
f 42/42/42 41/41/41 43/43/43
f 43/43/43 44/44/44 42/42/42
f 44/44/44 43/43/43 45/45/45
f 45/45/45 46/46/46 44/44/44
f 46/46/46 45/45/45 47/47/47
f 47/47/47 48/48/48 46/46/46
f 48/48/48 47/47/47 49/49/49
f 49/49/49 50/50/50 48/48/48
f 50/50/50 49/49/49 51/51/51
f 51/51/51 52/52/52 50/50/50
f 53/53/53 50/50/50 52/52/52
f 52/52/52 54/54/54 53/53/53
f 54/54/54 52/52/52 55/55/55
f 55/55/55 56/56/56 54/54/54
f 56/56/56 55/55/55 57/57/57
f 57/57/57 58/58/58 56/56/56
f 58/58/58 57/57/57 59/59/59
f 59/59/59 60/60/60 58/58/58
f 60/60/60 59/59/59 61/61/61
f 61/61/61 62/62/62 60/60/60
f 2/2/2 61/61/61 63/63/63
f 61/61/61 64/64/64 65/65/65
f 65/65/65 63/63/63 61/61/61
f 59/59/59 66/66/66 64/64/64
f 64/64/64 61/61/61 59/59/59
f 57/57/57 67/67/67 66/66/66
f 66/66/66 59/59/59 57/57/57
f 55/55/55 68/68/68 67/67/67
f 67/67/67 57/57/57 55/55/55
f 52/52/52 51/51/51 68/68/68
f 68/68/68 55/55/55 52/52/52
f 2/2/2 69/69/69 62/62/62
f 62/62/62 61/61/61 2/2/2
f 4/4/4 70/70/70 69/69/69
f 69/69/69 2/2/2 4/4/4
f 8/8/8 7/7/7 71/71/71
f 71/71/71 11/11/11 8/8/8
f 11/11/11 71/71/71 72/72/72
f 72/72/72 13/13/13 11/11/11
f 13/13/13 72/72/72 15/15/15
f 15/15/15 17/17/17 13/13/13
f 18/18/18 73/73/73 74/74/74
f 74/74/74 75/75/75 18/18/18
f 20/20/20 76/76/76 73/73/73
f 73/73/73 18/18/18 20/20/20
f 22/22/22 77/77/77 76/76/76
f 76/76/76 20/20/20 22/22/22
f 24/24/24 78/78/78 77/77/77
f 77/77/77 22/22/22 24/24/24
f 26/26/26 79/79/79 78/78/78
f 78/78/78 24/24/24 26/26/26
f 28/28/28 80/80/80 79/79/79
f 79/79/79 26/26/26 28/28/28
f 34/34/34 33/33/33 81/81/81
f 80/80/80 28/28/28 30/30/30
f 84/84/84 82/82/82 83/83/83
f 87/87/87 85/85/85 86/86/86
f 38/38/38 88/88/88 89/89/89
f 92/92/92 90/90/90 91/91/91
f 42/42/42 93/93/93 88/88/88
f 88/88/88 38/38/38 42/42/42
f 44/44/44 94/94/94 93/93/93
f 93/93/93 42/42/42 44/44/44
f 46/46/46 95/95/95 94/94/94
f 94/94/94 44/44/44 46/46/46
f 48/48/48 96/96/96 95/95/95
f 95/95/95 46/46/46 48/48/48
f 50/50/50 53/53/53 97/97/97
f 97/97/97 48/48/48 50/50/50
f 5/5/5 9/9/9 70/70/70
f 70/70/70 4/4/4 5/5/5
f 17/17/17 98/98/98 14/14/14
f 14/14/14 13/13/13 17/17/17
f 2/2/2 63/63/63 3/3/3
f 4/4/4 1/1/1 6/6/6
f 101/101/101 99/99/99 100/100/100
f 30/30/30 31/31/31 102/102/102
f 48/48/48 103/103/103 96/96/96
f 48/48/48 97/97/97 103/103/103
f 17/17/17 75/75/75 98/98/98
f 17/17/17 18/18/18 75/75/75
f 106/106/106 104/104/104 105/105/105
f 107/107/107 86/86/86 85/85/85
f 102/102/102 31/31/31 108/108/108
f 35/35/35 109/109/109 110/110/110
f 99/99/99 37/37/37 36/36/36
f 99/99/99 36/36/36 100/100/100
f 111/111/111 92/92/92 91/91/91
f 92/92/92 111/111/111 112/112/112
f 113/113/113 92/92/92 112/112/112
f 115/115/115 33/33/33 114/114/114
f 115/115/115 81/81/81 33/33/33
f 109/109/109 116/116/116 110/110/110
f 35/35/35 37/37/37 109/109/109
f 118/118/118 104/104/104 117/117/117
f 119/119/119 118/118/118 117/117/117
f 104/104/104 106/106/106 117/117/117
