mtllib ./Object01.mtl
g Object01
v 19.08957 8.174606 5.630602
v -6.102125 6.103516E-05 -49.63114
v 1.231297 6.103516E-05 7.825386
v -24.01688 -8.1745 -47.42903
v -6.102125 6.103516E-05 -49.63114
v 11.81258 -8.1745 -51.83325
v 1.231297 6.103516E-05 7.825386
v 19.08134 -8.1745 5.625533
v 19.08957 8.174606 5.630602
v 11.81258 8.174606 -51.83325
v -24.01688 -8.1745 -47.42903
v -16.88996 -8.1745 10.01913
v 11.81258 8.174606 -51.83325
v -16.88996 -8.1745 10.01913

vn -0.3104767 0.9106858 -0.2724988
vn -0.3103859 0.9107675 -0.2723292
vn -0.3091881 0.9113504 -0.2717411
vn 0.6627563 3.361029E-07 -0.7488352
vn 0.6627562 1.680516E-07 -0.7488353
vn 0.6627562 1.680516E-07 -0.7488353
vn -0.6629898 -0.001379428 0.7486271
vn -0.6629898 -0.001379428 0.7486271
vn -0.6626465 -0.000369236 0.7489321
vn -0.3099363 0.910931 -0.2722942
vn -0.3082787 0.9118009 -0.2712626
vn -0.3063681 0.9126593 -0.2705399
vn 0.6627562 0 -0.7488353
vn -0.6633297 -0.002382341 0.7483234

vt 0.4822047 1.05337
vt 0.7979761 1.255486
vt 0.4822822 1.255863
vt 0.7572188 0.8790837
vt 0.5541834 1.003708
vt 0.3522467 0.8757046
vt 0.552902 1.391571
vt 0.3474903 1.507075
vt 0.348763 1.273072
vt 0.7978986 1.052993
vt 0.7980536 1.457979
vt 0.4825721 1.460644
vt 0.351148 1.128332
vt 0.7570411 1.510069

usemtl sn18_04_SN18G13.JPG
usemap sn18_04_SN18G13.JPG
f 3/3/3 1/1/1 2/2/2
f 6/6/6 4/4/4 5/5/5
f 9/9/9 7/7/7 8/8/8
f 2/2/2 1/1/1 10/10/10
f 11/11/11 3/3/3 2/2/2
f 3/3/3 11/11/11 12/12/12
f 6/6/6 5/5/5 13/13/13
f 7/7/7 14/14/14 8/8/8
