mtllib ./Object28.mtl
g Object28
v -22.82631 -17.89267 0.01155849
v -24.14328 -17.89154 10.75956
v -24.14328 -34.67624 10.75956
v -22.83035 -34.64929 0.04445785
v 24.85967 -15.4057 6.252105
v 23.53996 -15.40457 17.02223
v 23.53986 65.95776 17.02214
v 24.87912 65.98471 6.092373
v -27.78817 -18.02362 -0.5768414
v -22.82631 -17.89267 0.01155849
v -22.83035 -34.64929 0.04445785
v -27.79215 -34.64929 -0.5441561
v -24.14341 65.95776 10.75941
v -22.80619 65.98471 -0.1531097
v -27.76795 65.98471 -0.7416773
v -29.1051 65.95776 10.17102
v -29.1051 -18.02249 10.17102
v -24.14328 -17.89154 10.75956
v -24.14341 65.95776 10.75941
v -29.1051 65.95776 10.17102
v -22.83035 -34.64929 0.04445785
v -24.14328 -34.67624 10.75956
v -29.1051 -34.67624 10.17102
v -27.79215 -34.64929 -0.5441561
v 29.81239 -15.27475 6.914584
v 24.85967 -15.4057 6.252105
v 24.87912 65.98471 6.092373
v 29.83193 65.98471 6.755273
v 23.53996 -34.67624 17.02223
v 24.85501 -34.64929 6.289794
v 29.80773 -34.64929 6.952601
v 28.49262 -34.67624 17.68506
v 28.49262 -34.67624 17.68506
v 28.49262 -15.27362 17.68506
v 23.53996 -15.40457 17.02223
v 23.53996 -34.67624 17.02223
v 24.87912 65.98471 6.092373
v 23.53986 65.95776 17.02214
v 28.4927 65.95776 17.68503
v 29.83193 65.98471 6.755273
v -27.78817 -18.02362 -0.5768414
v -29.1051 -18.02249 10.17102
v -29.1051 65.95776 10.17102
v -27.76795 65.98471 -0.7416773
v 29.81239 -15.27475 6.914584
v 28.49262 -15.27362 17.68506
v 28.49262 -34.67624 17.68506
v 29.80773 -34.64929 6.952601
v -22.80619 65.98471 -0.1531097
v -24.14341 65.95776 10.75941
v 24.85501 -34.64929 6.289794
v 23.53996 -34.67624 17.02223
v -27.76795 65.98471 -0.7416773
v -22.80619 65.98471 -0.1531097
v -22.82631 -17.89267 0.01155849
v -27.78817 -18.02362 -0.5768414
v -29.1051 -34.67624 10.17102
v -24.14328 -34.67624 10.75956
v 29.80773 -34.64929 6.952601
v 24.85501 -34.64929 6.289794
v 24.85967 -15.4057 6.252105
v 29.81239 -15.27475 6.914584
v 28.4927 65.95776 17.68503
v 23.53986 65.95776 17.02214
v -27.79215 -34.64929 -0.5441561
v -29.1051 -34.67624 10.17102
v 29.83193 65.98471 6.755273
v 28.4927 65.95776 17.68503

vn 0.4608684 4.697462E-07 -0.8874685
vn 0.4608714 1.084098E-06 -0.887467
vn 0.4608682 -1.420089E-07 -0.8874686
vn 0.4608679 -2.846931E-07 -0.8874686
vn -0.4608698 -1.053044E-06 0.8874677
vn -0.4608696 -6.206116E-07 0.8874678
vn -0.4608698 -1.392668E-06 0.8874677
vn -0.4608695 -1.435469E-06 0.8874679
vn -0.8892313 -0.00197928 -0.4574535
vn -0.8892295 -0.001978067 -0.4574571
vn -0.8892313 -0.00197928 -0.4574535
vn -0.8892332 -0.001980503 -0.4574499
vn 0.002179565 0.999997 0.001121171
vn 0.002179563 0.999997 0.001121214
vn 0.002179565 0.999997 0.001121171
vn 0.002179567 0.9999971 0.001121127
vn 0.8892463 6.673816E-07 0.4574286
vn 0.8892412 1.334748E-06 0.4574386
vn 0.8892474 8.003528E-07 0.4574267
vn 0.8892535 0 0.4574146
vn -0.002219713 -0.9999968 -0.001141871
vn -0.002219728 -0.9999969 -0.00114186
vn -0.002219713 -0.9999968 -0.001141871
vn -0.002219698 -0.9999968 -0.001141883
vn -0.8822901 -0.001976008 -0.4707018
vn -0.882297 -0.001976907 -0.4706889
vn -0.8822901 -0.001976008 -0.4707018
vn -0.8822832 -0.001975109 -0.4707147
vn -0.002198939 -0.9999969 -0.001173139
vn -0.002198945 -0.9999968 -0.001173134
vn -0.002198939 -0.9999969 -0.001173139
vn -0.002198933 -0.9999969 -0.001173144
vn 0.8822897 0 0.4707068
vn 0.8822897 4.324115E-07 0.4707068
vn 0.8822883 6.10914E-07 0.4707093
vn 0.8822897 0 0.4707068
vn 0.00215923 0.999997 0.001151986
vn 0.00215923 0.9999971 0.001151982
vn 0.00215923 0.999997 0.001151986
vn 0.00215923 0.999997 0.00115199
vn -0.4608671 9.475181E-10 0.8874691
vn -0.4608666 -1.570462E-07 0.8874694
vn -0.4608672 1.097811E-07 0.8874691
vn -0.4608679 2.178684E-07 0.8874688
vn 0.4608717 -2.329647E-07 -0.8874667
vn 0.4608697 -5.966563E-07 -0.8874677
vn 0.4608717 -2.951644E-08 -0.8874668
vn 0.4608716 -5.91805E-08 -0.8874668
vn 0.4608716 1.191761E-06 -0.8874667
vn 0.4608749 1.662474E-06 -0.8874652
vn -0.4608686 9.21248E-07 0.8874683
vn -0.4608672 0 0.8874692
vn -0.8892332 -0.001977301 -0.4574499
vn -0.8892369 -0.001977781 -0.4574426
vn -0.8892332 -0.001977301 -0.4574499
vn -0.8892294 -0.00197682 -0.4574571
vn 0.8892412 0 0.4574386
vn 0.8892412 0 0.4574386
vn -0.8822938 -0.001975051 -0.4706948
vn -0.8822907 -0.001973303 -0.4707007
vn -0.8822938 -0.001975051 -0.4706948
vn -0.882297 -0.001976788 -0.470689
vn 0.882288 7.562223E-07 0.4707099
vn 0.8822863 9.763855E-07 0.470713
vn -0.4608672 -5.539545E-07 0.8874691
vn -0.460868 0 0.8874687
vn 0.4608695 -6.673787E-07 -0.8874679
vn 0.4608674 -1.000075E-06 -0.8874691

vt 0.8334897 0.8883559
vt 0.8332146 0.998317
vt 1.000005 0.9979801
vt 1 0.8883559
vt 0.8087727 0.9983701
vt 0.8084977 0.8883559
vt 7.54979E-08 0.8883559
vt 0 1
vt 0.8347911 0.9999998
vt 0.8334895 0.8911926
vt 1 0.8911926
vt 1 0.9999999
vt 0 0.8911927
vt 1 0.8911926
vt 1 0.9999999
vt -1.189113E-05 0.9999987
vt 0.8345118 0.8911926
vt 0.8332105 0.9999995
vt 1.476146E-07 0.9999973
vt 0 0.8911927
vt 1 0.9999999
vt 4.23193E-06 1
vt 0 0.8911927
vt 1 0.8911926
vt 0.8074753 0.8855215
vt 0.8087769 0.9999999
vt 7.54979E-08 1
vt 0 0.8855193
vt 0 0.8855193
vt 1 0.8855193
vt 1 0.9999999
vt 8.940697E-08 0.9999986
vt 1 0.9999999
vt 0.8071962 0.9999999
vt 0.8084975 0.8855227
vt 1 0.8855235
vt 1 0.9999999
vt 2.980232E-07 1
vt 0 0.8855193
vt 1 0.8855193
vt 0.8347868 0.9983131
vt 0.8345119 0.8883559
vt 7.54979E-08 0.8883559
vt 0 1
vt 0.8074754 0.8883559
vt 0.8072001 0.9983732
vt 1.000005 0.9979846
vt 1 0.8883559
vt 7.54979E-08 0.8883559
vt 0 1
vt 0.9999951 0.9979847
vt 1 0.8883559
vt 9.26666E-08 0.9999987
vt 0 0.8911927
vt 0.8334895 0.8911926
vt 0.8347911 0.9999998
vt 1 0.8911926
vt 1 0.9999999
vt 1 0.8855221
vt 1 0.9999999
vt 0.8087769 0.9999999
vt 0.8074753 0.8855215
vt 7.54979E-08 1
vt 0 0.8855193
vt 0.999995 0.9979793
vt 1 0.8883559
vt 7.54979E-08 0.8883559
vt 0 1

usemtl sn18_14_SN18G04.JPG
usemap sn18_14_SN18G04.JPG
f 3/3/3 1/1/1 2/2/2
f 1/1/1 3/3/3 4/4/4
f 7/7/7 5/5/5 6/6/6
f 5/5/5 7/7/7 8/8/8
f 11/11/11 9/9/9 10/10/10
f 9/9/9 11/11/11 12/12/12
f 15/15/15 13/13/13 14/14/14
f 13/13/13 15/15/15 16/16/16
f 19/19/19 17/17/17 18/18/18
f 17/17/17 19/19/19 20/20/20
f 23/23/23 21/21/21 22/22/22
f 21/21/21 23/23/23 24/24/24
f 27/27/27 25/25/25 26/26/26
f 25/25/25 27/27/27 28/28/28
f 31/31/31 29/29/29 30/30/30
f 29/29/29 31/31/31 32/32/32
f 35/35/35 33/33/33 34/34/34
f 33/33/33 35/35/35 36/36/36
f 39/39/39 37/37/37 38/38/38
f 37/37/37 39/39/39 40/40/40
f 43/43/43 41/41/41 42/42/42
f 41/41/41 43/43/43 44/44/44
f 47/47/47 45/45/45 46/46/46
f 45/45/45 47/47/47 48/48/48
f 2/2/2 49/49/49 50/50/50
f 49/49/49 2/2/2 1/1/1
f 6/6/6 51/51/51 52/52/52
f 51/51/51 6/6/6 5/5/5
f 55/55/55 53/53/53 54/54/54
f 53/53/53 55/55/55 56/56/56
f 58/58/58 17/17/17 57/57/57
f 17/17/17 58/58/58 18/18/18
f 61/61/61 59/59/59 60/60/60
f 59/59/59 61/61/61 62/62/62
f 35/35/35 63/63/63 64/64/64
f 63/63/63 35/35/35 34/34/34
f 42/42/42 65/65/65 66/66/66
f 65/65/65 42/42/42 41/41/41
f 46/46/46 67/67/67 68/68/68
f 67/67/67 46/46/46 45/45/45
