mtllib ./Plane62.mtl
g Plane62
v 36.17596 -0.0002746582 0.002403967
v 36.17866 -0.0002746582 -49.05259
v 0.0002574834 -0.0002746582 0.0004085206
v 0.002954023 -0.0002746582 -49.05458
v -36.17545 -0.0002746582 -0.001586926
v -36.17275 -0.0002746582 -49.05658
v 36.17327 -0.0002746582 49.0574
v -0.002438125 -0.0002746582 49.05539
v -36.17815 -0.0002746582 49.05341

vn 0 0.9999999 0
vn 0 1 0
vn 0 0.9999999 0
vn 0 0.9999999 0
vn 0 0.9999999 0
vn 0 1 0
vn 0 1 0
vn 0 0.9999999 0
vn 0 0.9999999 0

vt 0 0.5
vt 0 0
vt 0.5 0.5
vt 0.5 0
vt 1 0.5
vt 1 0
vt 0 1
vt 0.5 1
vt 1 1

usemtl sn18_34_QKZHSV13.JPG
usemap sn18_34_QKZHSV13.JPG
f 3/3/3 1/1/1 2/2/2
f 2/2/2 4/4/4 3/3/3
f 5/5/5 3/3/3 4/4/4
f 4/4/4 6/6/6 5/5/5
f 8/8/8 7/7/7 1/1/1
f 1/1/1 3/3/3 8/8/8
f 9/9/9 8/8/8 3/3/3
f 3/3/3 5/5/5 9/9/9
