mtllib ./sobdio05.mtl
g sobdio05
v -62.0612 6.573784 -11.83245
v -56.58001 6.573784 -40.58177
v -56.57859 -37.05099 -40.58148
v -62.0612 11.51649 -11.83245
v -67.5424 -37.05638 16.91686
v -14.85717 6.573784 26.96154
v -67.5424 6.573784 16.91686
v -14.85717 -37.05638 26.96154
v -14.85717 11.51649 26.96154
v -67.5424 11.51649 16.91686
v 56.58049 -37.05638 40.58144
v 62.06169 -37.05638 11.83213
v 62.06166 6.573784 11.83213
v 56.58049 6.573784 40.58144
v 62.06169 11.51649 11.83213
v 56.5805 11.51649 40.58146
v 67.54287 -37.05638 -16.91715
v 67.54287 6.573784 -16.91715
v 67.54287 11.51649 -16.91717
v -3.894785 6.573784 -30.53706
v -3.89478 11.51649 -30.53708
v 15.23994 6.573784 -26.88895
v -62.06118 -37.05638 -11.83246
v -67.5424 -37.05638 16.91686
v -67.5424 6.573784 16.91686
v -67.5424 11.51649 16.91686
v 56.58049 -37.05638 40.58144
v 56.58049 6.573784 40.58144
v 56.5805 11.51649 40.58146
v 48.40817 6.573784 -20.56527
v 67.54287 11.51649 -16.91717
v 67.54287 6.573784 -16.91715
v -3.894789 -37.05638 -30.53707
v 15.23995 -37.05638 -26.88897
v 48.40818 -37.05638 -20.56529
v 67.54287 -37.05638 -16.91715
v -30.2374 6.573784 -35.55942
v -3.894785 6.573784 -30.53706
v -3.894789 -37.05638 -30.53707
v -56.58001 11.51649 -40.58176
v -62.0612 37.05683 -11.83245
v 62.06169 37.05683 11.83213
v -56.57859 -37.05099 -40.58148
v -56.58001 6.573784 -40.58177
v -30.2374 -37.05638 -35.55942
v -56.58001 11.51649 -40.58176
v -30.2374 11.51649 -35.55943
v -30.2374 6.573784 -35.55942
v -30.2374 -37.05638 -35.55942
v -30.2374 11.51649 -35.55943
v -3.89478 11.51649 -30.53708

vn -0.7430413 -1.021732E-05 -0.6692455
vn -0.7430511 -2.703747E-05 -0.6692346
vn -0.7430347 -1.68535E-05 -0.6692528
vn -0.7430511 7.910359E-08 -0.6692348
vn -0.6692346 0 0.7430511
vn -0.6692346 -1.115907E-07 0.7430512
vn -0.6692346 0 0.7430511
vn -0.6692345 0 0.7430512
vn -0.6692347 0 0.7430512
vn -0.6692346 0 0.7430511
vn 0.7430512 2.688656E-07 0.6692345
vn 0.7430509 3.584876E-07 0.6692348
vn 0.7430511 2.264621E-08 0.6692347
vn 0.7430515 -6.316569E-07 0.6692342
vn 0.7430513 -8.688489E-07 0.6692345
vn 0.7430513 -3.420669E-07 0.6692346
vn 0.7430512 0 0.6692346
vn 0.7430509 2.893205E-07 0.6692349
vn 0.7430512 -5.715166E-07 0.6692346
vn 0.669234 7.298704E-08 -0.7430516
vn 0.6692345 -3.130777E-06 -0.7430512
vn 0.6692344 -1.119212E-06 -0.7430513
vn -0.74304 -2.811881E-07 -0.669247
vn -0.7430506 0 -0.6692352
vn -0.7430509 -1.979076E-07 -0.669235
vn -0.7430509 0 -0.6692347
vn -0.6692345 0 0.7430512
vn -0.6692345 -1.470664E-07 0.7430512
vn -0.6692346 -1.371715E-06 0.7430512
vn 0.6692349 -2.858882E-07 -0.7430508
vn 0.6692346 -3.185912E-06 -0.7430511
vn 0.6692346 -3.547924E-07 -0.7430512
vn 0.6692337 1.543734E-07 -0.7430519
vn 0.669234 3.240523E-07 -0.7430516
vn 0.6692354 4.887451E-07 -0.7430504
vn 0.6692351 2.443726E-07 -0.7430508
vn 0.6692349 -1.776802E-09 -0.7430508
vn 0.669235 -4.070893E-07 -0.7430508
vn 0.6692349 7.172721E-08 -0.7430508
vn -0.7430511 1.710335E-07 -0.6692348
vn -0.7430511 0 -0.6692348
vn 0.7430512 0 0.6692345
vn 0.6692345 -4.19681E-07 -0.7430512
vn 0.6692348 -1.250337E-07 -0.7430511
vn 0.6692348 -2.098218E-07 -0.7430511
vn 0.6692349 -4.851133E-09 -0.743051
vn 0.6692346 -1.381418E-06 -0.7430511
vn 0.6692349 -8.96102E-10 -0.7430508
vn 0.6692349 0 -0.7430509
vn 0.6692348 -2.836965E-06 -0.7430509
vn 0.6692346 -4.374486E-06 -0.7430511

vt 0.4999999 0.5886075
vt 0.0004992783 0.5886076
vt 0.0004995763 0.0005722046
vt 0.4999999 0.6552323
vt -0.1574863 0.0004995465
vt 0.4006672 0.5886075
vt -0.1574863 0.5886075
vt 0.4006672 0.0004995465
vt 0.4006672 0.6552323
vt -0.1574863 0.6552323
vt 0.0004993379 0.0004995465
vt 0.4999999 0.0004995465
vt 0.5 0.5886075
vt 0.0004993081 0.5886075
vt 0.5 0.6552323
vt 0.0004992783 0.6552323
vt 0.9995 0.0004995465
vt 0.9995002 0.5886075
vt 0.9995004 0.6552323
vt 0.5993326 0.5886075
vt 0.5993326 0.6552322
vt 0.396617 0.5886075
vt 0.4999997 0.0004996061
vt 0.9995004 0.0004995465
vt 0.9995004 0.5886075
vt 0.9995005 0.6552323
vt 1.157486 0.0004995465
vt 1.157486 0.5886075
vt 1.157486 0.6552323
vt 0.04522896 0.5886075
vt -0.1574862 0.6552323
vt -0.1574862 0.5886075
vt 0.5993326 0.0004995465
vt 0.3966169 0.0004995465
vt 0.0452289 0.0004995465
vt -0.1574863 0.0004995465
vt 0.8784093 0.5886076
vt 0.5993326 0.5886075
vt 0.5993326 0.0004995465
vt 0.0004993677 0.6552323
vt 0.4999999 0.9995004
vt 0.4999999 0.9995005
vt 1.157471 0.0005722046
vt 1.157486 0.5886076
vt 0.8784093 0.0004995465
vt 1.157486 0.6552323
vt 0.8784093 0.6552323
vt 0.8784093 0.5886076
vt 0.8784093 0.0004995465
vt 0.8784093 0.6552323
vt 0.5993326 0.6552322

usemtl sn18_19_SN18G02.JPG
usemap sn18_19_SN18G02.JPG
f 3/3/3 1/1/1 2/2/2
f 1/1/1 4/4/4 2/2/2
f 7/7/7 5/5/5 6/6/6
f 6/6/6 5/5/5 8/8/8
f 7/7/7 9/9/9 10/10/10
f 6/6/6 9/9/9 7/7/7
f 13/13/13 11/11/11 12/12/12
f 11/11/11 13/13/13 14/14/14
f 14/14/14 15/15/15 16/16/16
f 13/13/13 15/15/15 14/14/14
f 18/18/18 12/12/12 17/17/17
f 12/12/12 18/18/18 13/13/13
f 18/18/18 19/19/19 13/13/13
f 13/13/13 19/19/19 15/15/15
f 22/22/22 20/20/20 21/21/21
f 25/25/25 23/23/23 24/24/24
f 23/23/23 25/25/25 1/1/1
f 25/25/25 26/26/26 1/1/1
f 1/1/1 26/26/26 4/4/4
f 28/28/28 8/8/8 27/27/27
f 6/6/6 8/8/8 28/28/28
f 28/28/28 29/29/29 6/6/6
f 6/6/6 29/29/29 9/9/9
f 32/32/32 30/30/30 31/31/31
f 34/34/34 33/33/33 20/20/20
f 34/34/34 20/20/20 22/22/22
f 36/36/36 35/35/35 30/30/30
f 36/36/36 30/30/30 32/32/32
f 31/31/31 30/30/30 22/22/22
f 41/41/41 40/40/40 4/4/4
f 42/42/42 16/16/16 15/15/15
f 42/42/42 15/15/15 19/19/19
f 41/41/41 4/4/4 26/26/26
f 45/45/45 43/43/43 44/44/44
f 48/48/48 46/46/46 47/47/47
f 45/45/45 44/44/44 48/48/48
f 2/2/2 4/4/4 40/40/40
f 44/44/44 46/46/46 48/48/48
f 22/22/22 21/21/21 31/31/31
f 3/3/3 23/23/23 1/1/1

usemtl sn18_20_SN18G03.JPG
usemap sn18_20_SN18G03.JPG
f 39/39/39 37/37/37 38/38/38
f 49/49/49 37/37/37 39/39/39
f 37/37/37 50/50/50 38/38/38
f 38/38/38 50/50/50 51/51/51
