mtllib ./sobdio03.mtl
g sobdio03
v -57.81149 -28.13605 25.81461
v -55.92293 -37.05634 29.40611
v -55.92293 -28.13605 29.40611
v -55.92293 6.57383 29.40611
v -65.12324 6.57383 11.90967
v -65.5112 8.037483 11.17187
v -69.54504 9.045181 3.500627
v -69.54504 6.57383 3.500627
v -55.92293 11.51653 29.40611
v -65.5112 8.037483 11.17187
v -42.30083 -37.05634 55.31159
v 5.172888 6.57383 30.34807
v -42.30083 6.57383 55.31159
v 5.172888 -37.05634 30.34807
v 5.172888 11.51653 30.34807
v -42.30083 11.51653 55.31159
v 69.54408 -37.05634 -3.500797
v 55.92197 -37.05634 -29.40628
v 55.92196 6.57383 -29.40628
v 69.54408 6.57383 -3.500793
v 55.92198 11.51653 -29.40629
v 69.54409 11.51653 -3.500801
v 42.29988 -37.05634 -55.31174
v 42.29987 6.57383 -55.31174
v 42.29987 11.51653 -55.31178
v 55.92196 6.57383 -29.40628
v 42.29987 6.57383 -55.31174
v 55.92198 11.51653 -29.40629
v -22.07131 6.57383 -21.46288
v -22.07132 9.045185 -21.46289
v -4.829353 6.57383 -30.52937
v -45.80818 9.045181 -8.981133
v -22.07131 6.57383 -21.46288
v -45.80818 6.57383 -8.981133
v -45.80818 11.51653 -8.981133
v -22.07132 11.51653 -21.46289
v -22.07132 9.045185 -21.46289
v -42.30083 -37.05634 55.31159
v -42.30083 6.57383 55.31159
v -42.30083 11.51653 55.31159
v 69.54408 -37.05634 -3.500793
v 69.54408 6.57383 -3.500793
v 69.54408 11.51653 -3.500793
v 25.05794 6.57383 -46.24527
v 42.29987 9.045181 -55.31175
v 42.29987 6.57383 -55.31174
v -13.45034 -37.05634 -25.99614
v -22.07131 6.57383 -21.46288
v -4.829359 -37.05634 -30.5294
v 25.05793 -37.05634 -46.24529
v 25.05794 6.57383 -46.24527
v 42.29987 -37.05634 -55.31174
v -22.07131 -37.05634 -21.46288
v -45.80818 -37.05634 -8.981133
v -45.80818 -3.961411 -8.981133
v -22.07131 6.57383 -21.46288
v -22.07131 -28.67685 -21.46288
v 18.73527 9.045181 -42.92057
v -22.07132 11.51653 -21.46289
v 42.29987 11.51653 -55.31175
v 18.73527 9.045181 -42.92057
v -66.43336 11.51653 9.418167
v -55.92293 32.23191 29.40611
v 55.92197 37.05688 -29.40628
v 42.29987 11.51653 -55.31178
v -48.04855 -1.645489 -7.803056
v -50.30415 -37.05634 -6.616974
v -50.30412 -2.099201 -6.616956
v -48.04855 -1.645489 -7.803056
v -45.80818 6.57383 -8.981133
v -45.80818 -3.961411 -8.981133
v -69.54504 9.045181 3.500627
v -69.54504 6.57383 3.500627
v -69.54504 11.51653 3.500627
v -45.80818 11.51653 -8.981133
v -45.80818 9.045181 -8.981133
v -50.30415 -37.05634 -6.616974
v -69.54504 -37.05634 3.500627
v -50.30412 -2.099201 -6.616956
v -45.80818 -37.05634 -8.981133
v -50.30412 6.57383 -6.616956
v -22.07131 -28.67685 -21.46288
v -22.07131 -37.05634 -21.46288
v -22.07131 -28.67685 -21.46288
v -13.45034 -37.05634 -25.99614
v -45.80818 -3.961411 -8.981133
v -22.07131 -28.67685 -21.46288
v -45.80818 -3.961411 -8.981133
v -45.80818 9.045181 -8.981133
v -69.54504 9.045181 3.500627
v -22.07132 9.045185 -21.46289
v -45.80818 9.045181 -8.981133
v -22.07132 9.045185 -21.46289
v 42.29987 9.045181 -55.31175
v -69.54504 11.51653 3.500627
v -55.92293 32.23191 29.40611
v -55.92293 37.05688 29.40611
v -42.30083 11.51653 55.31159
v -66.43336 11.51653 9.418167
v -65.12324 6.57383 11.90967
v -69.54504 -37.05634 3.500627
v -55.92293 -28.13605 29.40611
v -57.81149 -28.13605 25.81461
v -57.81149 -37.05634 25.81461
v -57.81149 -37.05634 25.81461

vn -2.235174E-05 0 0.9999999
vn -2.220273E-05 0 1
vn -2.226233E-05 0 1
vn -2.226233E-05 5.617388E-09 1
vn -2.232194E-05 1.667086E-08 1
vn -2.232194E-05 1.352041E-07 1
vn -2.223253E-05 5.049755E-08 0.9999999
vn -2.232194E-05 1.166004E-08 1
vn -2.229214E-05 0 1
vn -2.235174E-05 5.694867E-08 1
vn 0.9999999 0 2.223253E-05
vn 1 0 2.220273E-05
vn 1 0 2.220273E-05
vn 1 0 2.223253E-05
vn 1 0 2.223253E-05
vn 0.9999999 0 2.223253E-05
vn 2.205372E-05 2.628771E-07 -0.9999999
vn 2.229214E-05 2.788092E-07 -1
vn 2.217293E-05 1.051687E-07 -1
vn 2.199411E-05 -5.708509E-07 -0.9999999
vn 2.223253E-05 -3.612052E-07 -0.9999999
vn 2.223253E-05 -2.736392E-07 -0.9999999
vn 2.226233E-05 1.911835E-07 -1
vn 2.229214E-05 2.509283E-07 -1
vn 2.232194E-05 -3.831389E-06 -0.9999999
vn 2.232194E-05 -3.831389E-06 -0.9999999
vn 2.244115E-05 -3.232801E-06 -0.9999999
vn 2.223253E-05 -4.429978E-06 -1
vn -1 -6.218489E-06 -2.226233E-05
vn -1 -5.989294E-06 -2.220273E-05
vn -1 -7.399087E-07 -2.226233E-05
vn -1 -3.109247E-06 -2.247095E-05
vn -1 -3.109247E-06 -2.247095E-05
vn -1 0 -2.279878E-05
vn -0.9999999 0 -2.220273E-05
vn -0.9999999 0 -2.226233E-05
vn -0.9999999 0 -2.220273E-05
vn -2.223253E-05 0 1
vn -2.226233E-05 0 0.9999999
vn -2.223253E-05 0 1
vn 1 0 2.223253E-05
vn 1 0 2.220273E-05
vn 0.9999999 0 2.220273E-05
vn -1 -5.275884E-06 -2.220273E-05
vn -0.9999999 -5.189387E-06 -2.226233E-05
vn -1 -2.718488E-07 -2.220273E-05
vn -1 -1.986004E-08 -2.05636E-05
vn -1 3.677386E-07 -2.145767E-05
vn -0.9999999 4.667758E-07 -2.166629E-05
vn -0.9999999 6.637787E-07 -2.369285E-05
vn -0.9999999 3.318893E-07 -2.288818E-05
vn -0.9999999 3.318893E-07 -2.288818E-05
vn -0.9999999 0 -2.282858E-05
vn -1 0 -2.279878E-05
vn -0.9999999 0 -2.282858E-05
vn -1 0 -2.279878E-05
vn -0.9999999 0 -2.279878E-05
vn -0.9999999 0 -2.226233E-05
vn -1 0 -2.226233E-05
vn -1 0 -2.226233E-05
vn -0.9999999 -5.580256E-06 -2.226233E-05
vn -2.235174E-05 0 1
vn -2.229214E-05 0 0.9999999
vn 2.223253E-05 3.302519E-07 -1
vn 2.223253E-05 3.339085E-07 -1
vn -1 2.183223E-07 -1.916289E-05
vn -1 2.863214E-07 -1.820922E-05
vn -1 8.644431E-07 -1.019239E-05
vn -1 8.428322E-07 -1.657009E-05
vn -0.9999999 3.796202E-07 -2.095103E-05
vn -0.9999999 0 -2.220273E-05
vn -0.9999999 0 -2.223253E-05
vn -1 3.342105E-07 -2.30372E-05
vn -0.9999999 0 -2.223253E-05
vn -0.9999999 0 -2.223253E-05
vn -0.9999999 0 -2.223253E-05
vn -0.9999999 3.840603E-07 -2.300739E-05
vn -0.9999999 0 -2.223253E-05
vn -1 6.760213E-07 -2.357364E-05
vn -0.9999999 0 -2.217293E-05
vn -1 3.022792E-07 -2.118945E-05
vn -0.9999999 0 -2.065301E-05
vn -0.9999999 0 -2.065301E-05
vn -0.9999999 0 -2.065301E-05
vn -0.9999999 0 -2.065301E-05
vn -1 0 -2.276897E-05
vn -0.9999999 0 -2.285838E-05
vn -0.9999999 0 -2.220273E-05
vn -0.9999999 0 -2.223253E-05
vn -0.9999999 0 -2.223253E-05
vn -1 -6.218489E-06 -2.223253E-05
vn -1 0 -2.223253E-05
vn -1 0 -2.226233E-05
vn -1 0 -2.223253E-05
vn -2.232194E-05 -5.150785E-08 0.9999999
vn -2.226233E-05 -3.624937E-08 1
vn -2.226233E-05 0 0.9999999
vn -2.223253E-05 0 0.9999999
vn -2.226233E-05 -6.507822E-08 0.9999999
vn -2.229214E-05 -1.504715E-09 1
vn -2.229214E-05 0 0.9999999
vn -2.238154E-05 -5.416873E-08 1
vn -2.229214E-05 -5.524783E-09 1
vn -2.235174E-05 0 0.9999999
vn -2.232194E-05 0 0.9999999

vt 0.4307498 0.1207396
vt 0.5 0.0004995465
vt 0.5 0.1207396
vt 0.5 0.5886075
vt 0.1626398 0.5886075
vt 0.1484138 0.6083368
vt 0.0004994869 0.6219199
vt 0.0004994869 0.5886075
vt 0.5 0.6552323
vt 0.1484138 0.6083368
vt 1.999001 0.0004996061
vt 1.150929 0.5886075
vt 1.999001 0.5886074
vt 1.150928 0.0004997849
vt 1.150929 0.6552322
vt 1.999001 0.655232
vt 0.9995003 0.0004995763
vt 0.4999998 0.0004996657
vt 0.4999998 0.5886076
vt 0.9995004 0.5886075
vt 0.4999998 0.6552323
vt 0.9995004 0.6552321
vt 0.0004996955 0.0004997849
vt 0.0004997551 0.5886077
vt 0.0004994869 0.6552324
vt 0.4999998 0.5886076
vt 0.0004997551 0.5886077
vt 0.4999998 0.6552323
vt 1.17022 0.5886075
vt 1.170221 0.6219198
vt 0.8622094 0.5886075
vt 1.594257 0.6219198
vt 1.17022 0.5886075
vt 1.594257 0.5886074
vt 1.594257 0.655232
vt 1.170221 0.6552321
vt 1.170221 0.6219198
vt 0.9995004 0.0004995465
vt 0.9995004 0.5886075
vt 0.9995005 0.6552323
vt 0.0009990931 0.0005000234
vt 0.0009992719 0.5886078
vt 0.0009992719 0.6552324
vt 0.3283016 0.5886077
vt 0.02029107 0.62192
vt 0.02029107 0.5886077
vt 1.016215 0.0004997253
vt 1.17022 0.5886075
vt 0.8622091 0.0004997551
vt 0.3283013 0.0004998744
vt 0.3283016 0.5886077
vt 0.02029089 0.000499934
vt 1.17022 0.0004996955
vt 1.594257 0.0004996061
vt 1.594257 0.4244461
vt 1.17022 0.5886075
vt 1.17022 0.1134501
vt 0.4412499 0.62192
vt 1.170221 0.6552321
vt 0.02029107 0.6552323
vt 0.4412499 0.62192
vt 0.1145995 0.6552323
vt 0.5 0.9344629
vt 0.4999999 0.9682003
vt 0.0004994869 0.6552324
vt 1.667025 0.477816
vt 1.674573 0.0004995892
vt 1.682059 0.4717003
vt 1.667025 0.477816
vt 1.594257 0.5886074
vt 1.594257 0.4244461
vt 2.018293 0.6219196
vt 2.018293 0.5886073
vt 2.018293 0.655232
vt 1.594257 0.655232
vt 1.594257 0.6219198
vt 1.674573 0.0004995892
vt 2.018293 0.0004995167
vt 1.682059 0.4717003
vt 1.594257 0.0004996061
vt 1.683916 0.5886074
vt 1.17022 0.1134501
vt 1.17022 0.0004996955
vt 1.17022 0.1134501
vt 1.016215 0.0004997253
vt 1.594257 0.4244461
vt 1.17022 0.1134501
vt 1.594257 0.4244461
vt 1.594257 0.6219198
vt 2.018293 0.6219196
vt 1.170221 0.6219198
vt 1.594257 0.6219198
vt 1.170221 0.6219198
vt 0.02029107 0.62192
vt 0.0004994869 0.6552323
vt 0.5 0.9344629
vt 0.5 0.9995005
vt 0.9995005 0.6552323
vt 0.1145995 0.6552323
vt 0.1626398 0.5886075
vt 0.0004995465 0.0004995465
vt 0.5 0.1207396
vt 0.4307498 0.1207396
vt 0.4307498 0.0004995465
vt 0.4307498 0.0004995465

usemtl sn18_19_SN18G02.JPG
usemap sn18_19_SN18G02.JPG
f 3/3/3 1/1/1 2/2/2
f 3/3/3 4/4/4 5/5/5
f 8/8/8 6/6/6 7/7/7
f 4/4/4 9/9/9 10/10/10
f 13/13/13 11/11/11 12/12/12
f 12/12/12 11/11/11 14/14/14
f 13/13/13 15/15/15 16/16/16
f 12/12/12 15/15/15 13/13/13
f 19/19/19 17/17/17 18/18/18
f 17/17/17 19/19/19 20/20/20
f 20/20/20 21/21/21 22/22/22
f 19/19/19 21/21/21 20/20/20
f 24/24/24 18/18/18 23/23/23
f 18/18/18 24/24/24 19/19/19
f 27/27/27 25/25/25 26/26/26
f 26/26/26 25/25/25 28/28/28
f 31/31/31 29/29/29 30/30/30
f 39/39/39 2/2/2 38/38/38
f 3/3/3 39/39/39 4/4/4
f 39/39/39 40/40/40 4/4/4
f 4/4/4 40/40/40 9/9/9
f 42/42/42 14/14/14 41/41/41
f 12/12/12 14/14/14 42/42/42
f 42/42/42 43/43/43 12/12/12
f 12/12/12 43/43/43 15/15/15
f 46/46/46 44/44/44 45/45/45
f 49/49/49 47/47/47 48/48/48
f 49/49/49 48/48/48 31/31/31
f 52/52/52 50/50/50 51/51/51
f 52/52/52 51/51/51 46/46/46
f 60/60/60 58/58/58 59/59/59
f 61/61/61 44/44/44 31/31/31
f 63/63/63 62/62/62 9/9/9
f 64/64/64 22/22/22 21/21/21
f 64/64/64 21/21/21 65/65/65
f 63/63/63 9/9/9 40/40/40
f 68/68/68 66/66/66 67/67/67
f 71/71/71 69/69/69 70/70/70
f 73/73/73 72/72/72 70/70/70
f 76/76/76 74/74/74 75/75/75
f 73/73/73 77/77/77 78/78/78
f 77/77/77 73/73/73 79/79/79
f 66/66/66 80/80/80 67/67/67
f 79/79/79 73/73/73 81/81/81
f 81/81/81 69/69/69 79/79/79
f 69/69/69 81/81/81 70/70/70
f 47/47/47 82/82/82 48/48/48
f 85/85/85 83/83/83 84/84/84
f 80/80/80 66/66/66 88/88/88
f 72/72/72 89/89/89 70/70/70
f 10/10/10 9/9/9 62/62/62
f 90/90/90 74/74/74 76/76/76
f 31/31/31 30/30/30 61/61/61
f 58/58/58 93/93/93 59/59/59
f 45/45/45 44/44/44 61/61/61
f 94/94/94 58/58/58 60/60/60
f 97/97/97 95/95/95 96/96/96
f 97/97/97 96/96/96 98/98/98
f 96/96/96 95/95/95 99/99/99
f 7/7/7 99/99/99 95/95/95
f 7/7/7 6/6/6 99/99/99
f 4/4/4 10/10/10 5/5/5
f 100/100/100 6/6/6 8/8/8
f 101/101/101 100/100/100 8/8/8
f 103/103/103 102/102/102 100/100/100
f 2/2/2 39/39/39 3/3/3
f 101/101/101 103/103/103 100/100/100
f 1/1/1 104/104/104 2/2/2
f 103/103/103 101/101/101 105/105/105

usemtl sn18_20_SN18G03.JPG
usemap sn18_20_SN18G03.JPG
f 34/34/34 32/32/32 33/33/33
f 37/37/37 35/35/35 36/36/36
f 55/55/55 53/53/53 54/54/54
f 57/57/57 34/34/34 56/56/56
f 86/86/86 34/34/34 57/57/57
f 53/53/53 55/55/55 87/87/87
f 32/32/32 91/91/91 33/33/33
f 92/92/92 35/35/35 37/37/37
