mtllib ./BOX06.mtl
g BOX06
v -254.319 239.6698 -254.5688
v -254.319 239.6698 254.5679
v -254.319 43.67907 -254.5687
v -254.319 43.67907 254.5682
v 254.3195 239.6698 254.5683
v 254.3195 239.6698 -254.5686
v 254.3195 43.67907 254.5682
v 254.3195 43.67907 -254.5687
v 254.3195 239.6698 -254.5686
v -254.319 239.6698 -254.5688
v 254.3195 43.67907 -254.5687
v -254.319 43.67907 -254.5687
v -254.319 239.6698 254.5679
v 254.3195 239.6698 254.5683
v -254.319 43.67907 254.5682
v 254.3195 43.67907 254.5682

vn 0.189183 -0.9819419 0
vn 0.610416 -0.7920811 0
vn 1 0 0
vn 1 0 0
vn -0.189183 -0.9819419 0
vn -0.6104159 -0.792081 0
vn -1 0 0
vn -1 0 0
vn -3.299921E-07 -3.114186E-07 1
vn -1.649961E-07 1.16782E-07 1
vn -1.649961E-07 1.16782E-07 1
vn 0 5.449826E-07 1
vn 7.199828E-07 -1.245674E-06 -1
vn 3.599914E-07 -3.114186E-07 -1
vn 3.599914E-07 -3.114186E-07 -1
vn 0 6.228372E-07 -1

vt 0.007977068 0.6229218
vt 0.007977068 -1.587566
vt 0.007977068 0.6229218
vt 0.007977068 -1.587566
vt 0.007976532 0.6229201
vt 0.007976532 2.833409
vt 0.007976532 0.6229201
vt 0.007976532 2.833409
vt 0.9951619 1.233994
vt 0.9951619 -0.8530598
vt 0.9951619 1.233994
vt 0.9951619 -0.8530598
vt 0.0712412 -0.8298645
vt 0.0712412 1.262148
vt 0.0712412 -0.8298645
vt 0.0712412 1.262148

usemtl sn22_-01_
usemap sn22_-01_
f 3/3/3 1/1/1 2/2/2
f 2/2/2 4/4/4 3/3/3
f 7/7/7 5/5/5 6/6/6
f 6/6/6 8/8/8 7/7/7
f 11/11/11 9/9/9 10/10/10
f 10/10/10 12/12/12 11/11/11
f 15/15/15 13/13/13 14/14/14
f 14/14/14 16/16/16 15/15/15
f 1/1/1 6/6/6 5/5/5
f 2/2/2 1/1/1 5/5/5
