mtllib ./Line04.mtl
g Line04
v 1469.795 -528.0505 72.12191
v 1521.469 -528.0505 228.049
v 1537.761 224.528 53.03893
v 1733.378 224.528 253.34
v 1316.77 -528.0505 76.72465
v 1265.706 224.528 35.13724
v 887.7367 -528.0505 90.58916
v 884.8326 224.5279 -64.29803
v 490.3245 -528.0504 -13.08629
v 471.2939 224.5279 -84.26253
v -107.3525 -528.0504 68.96798
v -107.3525 224.5279 -108.6571
v -747.8785 -528.0504 78.4409
v -747.8785 224.5279 -2.751266
v -1219.737 -528.0504 78.55136
v -1312.804 224.528 8.843979
v -1646.897 -528.0505 179.9321
v -1739.249 224.528 131.3964
v -2101.673 -528.0505 223.6437
v -2101.673 224.528 223.6437
v 1749.525 977.1062 67.14486
v 1859.234 977.1062 293.5426
v 1297.165 977.1062 -71.78838
v 884.8326 977.1062 -155.8724
v 490.3245 977.1062 -220.0149
v -107.3525 977.1062 -78.25047
v -747.8785 977.1062 -213.5629
v -1312.804 977.1062 -136.8358
v -1739.249 977.1062 119.6267
v -2131.917 977.1062 223.6437

vn -0.3338116 0.06445564 0.9404336
vn -0.8123316 0.1487224 0.5639139
vn -0.4496251 0.1207861 0.885013
vn -0.7705189 0.1653139 0.6156071
vn -0.08323777 0.1145443 0.9899248
vn -0.1648359 0.09414565 0.9818175
vn -0.08697497 0.165075 0.9824386
vn -0.1177154 0.145429 0.9823408
vn -0.02892001 0.1446376 0.9890621
vn -0.01688701 0.1100871 0.9937784
vn 0.102652 0.1878761 0.9768138
vn 0.02959467 0.1284787 0.9912705
vn 0.01255833 0.1030407 0.9945979
vn 0.08674318 0.1966707 0.9766249
vn 0.1657903 0.1023878 0.9808314
vn 0.1779063 0.1213097 0.9765415
vn 0.1870302 0.05885227 0.9805897
vn 0.2555818 0.05870562 0.9650034
vn 0.09567599 0 0.9954125
vn 0.1898382 0.03194453 0.9812956
vn -0.5938177 0.1210566 0.7954406
vn -0.8927141 0.1261824 0.432596
vn -0.2060047 0.112969 0.9720083
vn -0.2024529 0.1278894 0.9709052
vn 0.04045701 0.1595128 0.9863665
vn -0.00987063 0.03023894 0.999494
vn 0.02526831 0.1664907 0.9857193
vn 0.2112608 0.2145482 0.9535921
vn 0.3606496 0.07119857 0.9299799
vn 0.251542 0.0126219 0.967764

vt -0.8629025 0
vt -1.055049 0
vt -0.8629025 0.5
vt -1.055049 0.5
vt -0.5441332 0
vt -0.5441332 0.5
vt -0.3267321 0
vt -0.3267321 0.5
vt -0.1032177 0
vt -0.1032177 0.5
vt 0.3870275 0
vt 0.3870275 0.5
vt 0.9126726 0
vt 0.9126726 0.5
vt 1.342504 0
vt 1.342504 0.5
vt 1.659612 0
vt 1.659612 0.5
vt 1.857767 0
vt 1.857767 0.5
vt -0.8629025 1
vt -1.055049 1
vt -0.5441332 1
vt -0.3267321 1
vt -0.1032177 1
vt 0.3870275 1
vt 0.9126726 1
vt 1.342504 1
vt 1.659612 1
vt 1.857767 1

usemtl sn22_11_sn23fog.JPG
usemap sn22_11_sn23fog.JPG
f 3/3/3 1/1/1 2/2/2
f 4/4/4 3/3/3 2/2/2
f 6/6/6 5/5/5 1/1/1
f 3/3/3 6/6/6 1/1/1
f 8/8/8 7/7/7 5/5/5
f 6/6/6 8/8/8 5/5/5
f 10/10/10 9/9/9 7/7/7
f 8/8/8 10/10/10 7/7/7
f 12/12/12 11/11/11 9/9/9
f 10/10/10 12/12/12 9/9/9
f 14/14/14 13/13/13 11/11/11
f 12/12/12 14/14/14 11/11/11
f 16/16/16 15/15/15 13/13/13
f 14/14/14 16/16/16 13/13/13
f 18/18/18 17/17/17 15/15/15
f 16/16/16 18/18/18 15/15/15
f 20/20/20 19/19/19 17/17/17
f 18/18/18 20/20/20 17/17/17
f 21/21/21 3/3/3 4/4/4
f 22/22/22 21/21/21 4/4/4
f 23/23/23 6/6/6 3/3/3
f 21/21/21 23/23/23 3/3/3
f 24/24/24 8/8/8 6/6/6
f 23/23/23 24/24/24 6/6/6
f 25/25/25 10/10/10 8/8/8
f 24/24/24 25/25/25 8/8/8
f 26/26/26 12/12/12 10/10/10
f 25/25/25 26/26/26 10/10/10
f 27/27/27 14/14/14 12/12/12
f 26/26/26 27/27/27 12/12/12
f 28/28/28 16/16/16 14/14/14
f 27/27/27 28/28/28 14/14/14
f 29/29/29 18/18/18 16/16/16
f 28/28/28 29/29/29 16/16/16
f 30/30/30 20/20/20 18/18/18
f 29/29/29 30/30/30 18/18/18
