mtllib ./np1651.mtl
g np1651
v 9.197174 -37.95286 18.39343
v 25.92212 -77.30428 23.42603
v 27.23055 -45.4954 13.36682
v 6.43972 -77.39357 23.82581
v -8.816856 -78.94592 30.08362
v -10.68819 -43.72403 23.21399
v -28.92292 -78.94759 26.47253

vn 0.2232492 0.1768527 0.9585839
vn 0.178948 0.1992719 0.9634668
vn 0.3609612 0.2676624 0.8933442
vn 0.1812688 0.1217383 0.9758695
vn 0.1171521 0.1663249 0.9790871
vn 0.002034748 0.1915354 0.9814836
vn -0.1739133 0.179605 0.968244

vt 0.6612592 0.2985921
vt 0.7117442 0.1743334
vt 0.71218 0.2985676
vt 0.660893 0.1742755
vt 0.5618605 0.1742832
vt 0.5615654 0.2985921
vt 0.5120717 0.1743419

usemtl sn22_15_sn23m4.JPG
usemap sn22_15_sn23m4.JPG
f 3/3/3 1/1/1 2/2/2
f 4/4/4 2/2/2 1/1/1
f 1/1/1 5/5/5 4/4/4
f 5/5/5 1/1/1 6/6/6
f 6/6/6 7/7/7 5/5/5
