mtllib ./Object03.mtl
g Object03
v 10.96362 2.901397 1.728244
v -10.96387 2.901397 1.728244
v -10.96387 -1.014022 -9.550274
v 10.96362 -1.014022 -9.550274
v 8.882629 1.502021 -13.04883
v 8.882629 2.321069 -10.68951
v 10.96362 2.321069 -10.68951
v 13.16498 1.502941 -13.04617
v -0.0001220703 2.321069 -10.68951
v -0.0005493164 6.236489 0.5890065
v 8.882629 6.236489 0.5890065
v -10.96387 2.901397 1.728244
v -10.96387 6.236489 0.5890065
v -10.96387 2.321077 -10.68951
v -10.96387 -1.014022 -9.550274
v 10.96362 2.901397 1.728244
v 10.96362 6.236489 0.5890065
v 10.96362 10.97288 14.23237
v 10.96362 7.637789 15.37162
v -13.16522 1.109239 -14.18025
v -13.16522 -2.225853 -13.04101
v -13.16522 -1.83215 -11.90693
v -13.16522 1.502941 -13.04617
v 13.16498 -2.225853 -13.04101
v 13.16498 1.109238 -14.18025
v 13.16498 1.502941 -13.04617
v 13.16498 -1.832151 -11.90694
v -13.16522 -1.83215 -11.90693
v 13.16498 -1.832151 -11.90694
v -8.947205 1.502032 -13.04879
v -8.947205 2.321069 -10.68951
v -0.0001220703 1.500098 -13.05436
v -13.16522 -2.225853 -13.04101
v -13.16522 1.109239 -14.18025
v -0.0001220703 1.109239 -14.18025
v 13.16498 1.109238 -14.18025
v 13.16498 -2.225853 -13.04101
v -13.16522 -2.225853 -13.04101
v -0.0001220703 1.109239 -14.18025
v 10.96362 2.321069 -10.68951
v 10.96362 -1.014022 -9.550274
v 13.16498 -2.225853 -13.04101
v -13.16522 -2.225853 -13.04101
v -0.0001220703 1.109239 -14.18025
v 13.16498 1.109238 -14.18025
v -13.16522 1.109239 -14.18025
v -13.16522 1.502941 -13.04617
v -0.001098633 10.97288 14.23237
v -0.0001220703 11.79385 16.59722
v 8.882629 11.79193 16.59169
v 8.882629 10.97288 14.23237
v 13.16498 12.18471 17.72311
v 13.16498 8.849627 18.86235
v 13.16498 8.455924 17.72827
v 13.16498 11.79101 16.58904
v -13.16522 8.849627 18.86234
v -13.16522 12.18471 17.72311
v -13.16522 11.79101 16.58903
v -13.16522 8.455924 17.72827
v -13.16522 8.455924 17.72827
v 10.96362 7.637789 15.37162
v 13.16498 8.455924 17.72827
v -10.96387 10.97288 14.23237
v -13.16522 11.79101 16.58903
v -8.947205 11.79193 16.59165
v -8.947205 10.97288 14.23237
v 10.96362 7.637789 15.37162
v 10.96362 10.97288 14.23237
v -10.96387 10.97288 14.23237
v -10.96387 7.637789 15.37162
v 13.16498 8.849627 18.86235
v -13.16522 8.849627 18.86234
v -0.0001220703 12.18471 17.72311
v -13.16522 12.18471 17.72311
v 13.16498 12.18471 17.72311
v 13.16498 11.79101 16.58904
v -8.947205 6.236489 0.5890065
v -10.96387 7.637789 15.37162
v 10.96362 7.637789 15.37162
v -10.96387 7.637789 15.37162
v -0.001098633 10.97288 14.23237
v -10.96387 7.637789 15.37162
v -10.96387 10.97288 14.23237
v 10.96362 6.236489 0.5890065
v 10.96362 10.97288 14.23237
v 10.96362 10.97288 14.23237
v -10.96387 2.321077 -10.68951
v -10.96387 6.236489 0.5890065
v -10.96387 10.97288 14.23237
v -13.16522 -4.680573 -11.48292
v -10.96393 -5.162612 -9.035302
v 10.96362 -5.16262 -9.035302
v 13.16492 -4.68058 -11.48292
v 10.96362 -7.469588 2.678509
v -10.96393 -7.469588 2.678509
v -10.96393 -10.26027 16.84845
v 10.96362 -10.26027 16.84845
v -8.882874 -8.141256 -12.14948
v -8.882874 -8.623837 -9.699096
v -10.96393 -8.623837 -9.699096
v -13.16522 -8.141797 -12.14672
v -0.0001220703 -8.623844 -9.699096
v 0.0003051758 -10.93081 2.014715
v -8.882874 -10.93081 2.014715
v 10.96362 -7.469588 2.678509
v 10.96362 -10.93081 2.014715
v 10.96362 -8.623845 -9.699103
v 10.96362 -5.16262 -9.035302
v -10.96393 -7.469588 2.678509
v -10.96393 -10.93081 2.014715
v -10.96393 -13.72149 16.18465
v -10.96393 -10.26027 16.84845
v 13.16492 -7.909835 -13.32456
v 13.16492 -4.44861 -12.66077
v 13.16492 -4.68058 -11.48292
v 13.16492 -8.141805 -12.14672
v -13.16522 -4.448603 -12.66077
v -13.16522 -7.909827 -13.32456
v -13.16522 -8.141797 -12.14672
v -13.16522 -4.680573 -11.48292
v 8.94696 -8.141262 -12.14944
v 8.94696 -8.623844 -9.699096
v -0.0001220703 -8.140129 -12.15522
v 13.16492 -4.44861 -12.66077
v 13.16492 -7.909835 -13.32456
v -0.0001220703 -7.909827 -13.32456
v -13.16522 -4.448603 -12.66077
v -13.16522 -4.448603 -12.66077
v -0.0001220703 -7.909827 -13.32456
v -13.16522 -7.909827 -13.32456
v -10.96393 -8.623837 -9.699096
v -10.96393 -5.162612 -9.035302
v 13.16492 -4.44861 -12.66077
v -13.16522 -4.448603 -12.66077
v -0.0001220703 -7.909827 -13.32456
v -13.16522 -7.909827 -13.32456
v 13.16492 -7.909835 -13.32456
v 13.16492 -8.141805 -12.14672
v -13.16522 -10.74232 19.29606
v 13.16492 -10.74232 19.29606
v 10.96362 -10.26027 16.84845
v -10.96393 -10.26027 16.84845
v 0.000793457 -13.72149 16.18465
v -0.0001220703 -14.20522 18.64077
v -8.882874 -14.20408 18.63503
v -8.882874 -13.72149 16.18465
v -13.16522 -14.43551 19.81011
v -13.16522 -10.97429 20.47391
v -13.16522 -10.74232 19.29606
v -13.16522 -14.20354 18.63226
v 13.16492 -10.97429 20.47391
v 13.16492 -14.43551 19.81011
v 13.16492 -14.20354 18.63226
v 13.16492 -10.74232 19.29606
v 10.96362 -13.7215 16.18464
v 13.16492 -14.20354 18.63226
v 8.94696 -14.20408 18.63498
v 8.94696 -13.7215 16.18464
v -10.96393 -10.26027 16.84845
v -10.96393 -13.72149 16.18465
v 10.96362 -13.7215 16.18464
v 10.96362 -10.26027 16.84845
v 13.16492 -10.97429 20.47391
v -13.16522 -10.97429 20.47391
v -0.0001220703 -14.43551 19.81011
v 13.16492 -14.43551 19.81011
v -13.16522 -14.43551 19.81011
v -13.16522 -14.20354 18.63226
v 8.94696 -10.93081 2.014715
v 0.000793457 -13.72149 16.18465
v -8.882874 -13.72149 16.18465
v 10.96362 -10.26027 16.84845
v 10.96362 -13.7215 16.18464
v 8.94696 -13.7215 16.18464
v -10.96393 -10.93081 2.014715
v -10.96393 -13.72149 16.18465
v -10.96393 -13.72149 16.18465
v 10.96362 -8.623845 -9.699103
v 10.96362 -10.93081 2.014715
v 10.96362 -13.7215 16.18464

vn 0 0.2617276 0.9651418
vn 0 0.2617275 0.9651418
vn 0 0.2617277 0.9651418
vn 6.696015E-09 0.2617273 0.9651419
vn -5.765254E-08 -0.2617266 -0.9651421
vn -3.751476E-08 -0.2617275 -0.9651419
vn 2.341405E-07 -0.2617269 -0.9651421
vn 4.099869E-07 -0.2617282 -0.9651417
vn 5.241221E-09 -0.2617275 -0.9651418
vn 0 -0.2617276 -0.9651417
vn 0 -0.2617277 -0.9651418
vn -1 0 0
vn -1 0 0
vn -0.9965342 0.08039185 -0.02137177
vn -0.9678022 0.2432627 -0.06467023
vn 1 0 0
vn 1 0 0
vn 1 0 0
vn 1 0 0
vn -1 0 0
vn -1 0 0
vn -0.9120349 0.3963462 -0.1053668
vn -0.814882 0.5601701 -0.1489185
vn 1 0 0
vn 1 0 0
vn 0.9120349 0.3963461 -0.1053668
vn 0.8148822 0.5601699 -0.1489186
vn 2.059306E-08 0.2617269 0.9651419
vn 3.886142E-08 0.2617269 0.965142
vn 2.357145E-07 -0.261727 -0.965142
vn 6.971009E-07 -0.2617275 -0.9651418
vn -1.373932E-07 -0.2617265 -0.9651421
vn 0 -0.9664321 0.2569219
vn 0 -0.9664321 0.2569219
vn 0 -0.9664321 0.2569219
vn -9.078153E-08 -0.9664321 0.2569222
vn 0 -0.9664319 0.2569228
vn -9.078153E-08 -0.9664321 0.2569222
vn -2.723447E-07 -0.9664323 0.2569209
vn 0.9678022 0.2432627 -0.06467031
vn 0.9965343 0.08039174 -0.02137178
vn 1.93285E-08 0.2617278 0.9651417
vn 0 0.2617272 0.9651418
vn -4.631037E-08 -0.2617283 -0.9651415
vn -7.791976E-08 -0.2617271 -0.9651418
vn -8.228098E-09 -0.2617276 -0.9651418
vn -2.475374E-07 -0.2617285 -0.9651415
vn -1.516485E-07 -0.2617269 -0.965142
vn 1.028829E-07 -0.2617268 -0.9651419
vn 4.435544E-08 -0.2617266 -0.9651421
vn 0 -0.2617276 -0.9651417
vn 1 0 0
vn 1 0 0
vn 0.9120347 -0.3963463 0.1053672
vn 0.8148819 -0.56017 0.1489196
vn -1 0 0
vn -1 0 0
vn -0.9120347 -0.3963463 0.105368
vn -0.8148816 -0.5601703 0.1489202
vn 0 0.2617295 0.9651412
vn 0 0.2617298 0.9651412
vn -1.502816E-08 0.2617288 0.9651414
vn -8.577902E-07 -0.2617283 -0.9651417
vn -6.310211E-07 -0.2617248 -0.9651426
vn 1.100915E-07 -0.261727 -0.965142
vn 7.336691E-08 -0.2617276 -0.9651417
vn 0.7498024 -0.6394511 0.1699962
vn 0.7498027 -0.6394506 0.1699966
vn -0.7498019 -0.6394515 0.169997
vn -0.749802 -0.6394514 0.1699969
vn -6.128524E-08 0.261727 0.9651419
vn -3.064272E-08 0.2617277 0.9651418
vn 3.915979E-08 -0.2617255 -0.9651424
vn 0 -0.2617263 -0.965142
vn 3.501194E-08 -0.261726 -0.9651421
vn 1.160248E-06 -0.2617274 -0.9651418
vn 1.666663E-07 -0.2617276 -0.9651417
vn 0 0.2617298 0.9651412
vn 0 0.2617274 0.9651418
vn 0 0.2617274 0.9651418
vn 0 -0.2617276 -0.9651418
vn -1 0 0
vn -1 0 0
vn 0 -0.2617278 -0.9651417
vn 7.809365E-07 -0.2617273 -0.9651419
vn 0 -0.2617276 -0.9651418
vn 1.690663E-06 -0.2617277 -0.9651418
vn 0 -0.2617275 -0.9651418
vn 0 -0.2617276 -0.9651418
vn 2.976433E-07 0.2607339 -0.9654108
vn 3.200966E-07 0.2607355 -0.9654104
vn 1.863822E-07 0.2607353 -0.9654104
vn 2.848417E-07 0.2607343 -0.9654105
vn 0 0.260735 -0.9654104
vn 9.971178E-08 0.2607353 -0.9654103
vn 0 0.260735 -0.9654105
vn 0 0.260735 -0.9654105
vn -3.952506E-07 -0.2607349 0.9654105
vn -3.650717E-07 -0.2607352 0.9654104
vn -2.136484E-07 -0.2607346 0.9654105
vn -4.084041E-07 -0.2607359 0.9654102
vn -2.52406E-07 -0.2607352 0.9654104
vn -1.268159E-07 -0.2607352 0.9654103
vn 0 -0.2607354 0.9654104
vn 1 0 0
vn 1 0 0
vn 0.9965344 0.08041144 0.02128871
vn 0.9678038 0.2433227 0.0644189
vn -1 0 0
vn -1 0 0
vn -1 0 0
vn -1 0 0
vn 1 0 0
vn 1 0 0
vn 0.9120393 0.3964447 0.1049572
vn 0.8148898 0.5603122 0.1483408
vn -1 0 0
vn -1 0 0
vn -0.9120393 0.3964447 0.1049572
vn -0.8148901 0.5603118 0.1483401
vn -1.633861E-07 -0.260734 0.9654107
vn -2.18789E-07 -0.2607354 0.9654104
vn -2.110262E-07 -0.2607345 0.9654105
vn -1.884152E-08 -0.9666957 -0.2559283
vn -1.644352E-07 -0.9666955 -0.2559289
vn -1.884152E-08 -0.9666957 -0.2559283
vn 5.395525E-08 -0.9666957 -0.2559281
vn 0 -0.9666959 -0.2559279
vn 0 -0.9666959 -0.2559279
vn 0 -0.9666959 -0.2559279
vn -0.9678038 0.2433227 0.06441861
vn -0.9965345 0.08041145 0.02128854
vn 2.84742E-07 0.2607349 -0.9654105
vn 2.84742E-07 0.2607349 -0.9654105
vn -3.66333E-07 -0.260739 0.9654093
vn 0 -0.2607355 0.9654104
vn -3.957711E-07 -0.2607352 0.9654104
vn -1.405012E-06 -0.2607352 0.9654104
vn 4.848948E-08 0.2607363 -0.9654101
vn 9.150524E-08 0.2607363 -0.9654101
vn 4.993936E-08 0.2607368 -0.96541
vn 0 0.2607363 -0.96541
vn -2.711836E-07 -0.260737 0.9654099
vn -2.229477E-07 -0.2607369 0.9654098
vn -3.91475E-07 -0.2607371 0.9654099
vn 0 -0.2607358 0.9654102
vn -1 0 0
vn -1 0 0
vn -0.9120394 -0.3964441 -0.1049579
vn -0.81489 -0.5603118 -0.1483407
vn 1 0 0
vn 1 0 0
vn 0.9120393 -0.3964447 -0.1049568
vn 0.81489 -0.5603119 -0.1483404
vn 4.595343E-08 -0.2607364 0.9654099
vn 3.421228E-08 -0.2607358 0.9654104
vn 6.616624E-08 -0.260736 0.9654101
vn -8.861215E-08 -0.260737 0.9654099
vn -0.7498114 -0.6396156 -0.1693361
vn -0.7498108 -0.6396166 -0.1693353
vn 0.7498117 -0.6396154 -0.1693358
vn 0.7498112 -0.6396158 -0.1693365
vn 4.572846E-08 0.2607354 -0.9654104
vn 0 0.2607363 -0.96541
vn -1.260401E-08 -0.2607351 0.9654103
vn 0 -0.2607356 0.9654102
vn -3.623782E-07 -0.2607373 0.9654099
vn -7.5646E-07 -0.2607368 0.9654099
vn -1.145829E-07 -0.2607352 0.9654102
vn -8.878056E-08 -0.260735 0.9654104
vn 0 -0.260735 0.9654104
vn 0.9999999 0 0
vn 1 0 0
vn -1.831529E-07 -0.2607352 0.9654104
vn 0 -0.2607356 0.9654103
vn -5.098964E-07 -0.2607353 0.9654103
vn 0 -0.260735 0.9654104
vn -7.754944E-07 -0.2607353 0.9654104
vn 0 -0.2607352 0.9654104
vn 0 -0.2607352 0.9654104

vt 0.5299966 0.05568135
vt 0.5299968 0.1870635
vt 0.7456331 0.1870634
vt 0.7456329 0.0556813
vt 0.0684393 0.3461061
vt 0.0684393 0.3963575
vt 0.02341115 0.3963575
vt -0.02422011 0.3461628
vt 0.260639 0.3963575
vt 0.2606483 0.6365799
vt 0.06843936 0.63658
vt -0.04271818 0.6330452
vt 0.04606068 0.6330451
vt 0.04606068 0.4325372
vt -0.04271817 0.4325372
vt -0.04271812 0.6330452
vt 0.04606068 0.6330452
vt 0.04606065 0.8335531
vt -0.04271806 0.8335531
vt 0.04606056 0.3704793
vt -0.04271815 0.3704794
vt -0.04271815 0.3906409
vt 0.04606056 0.3906409
vt -0.04271809 0.3704796
vt 0.04606068 0.3704795
vt 0.04606068 0.390641
vt -0.04271809 0.390641
vt 0.7908469 0.1870634
vt 0.7906904 0.02930201
vt 0.4542315 0.3461068
vt 0.4542316 0.3963574
vt 0.260639 0.3459883
vt 0.346291 0.3028128
vt 0.1126462 0.3028128
vt 0.1126462 0.06916791
vt 0.346291 0.3028128
vt 0.1126462 0.3028128
vt 0.1126462 0.06916791
vt 0.346291 0.06916791
vt 0.04606068 0.4325373
vt -0.04271811 0.4325373
vt 0.812373 0.029302
vt 0.8123731 0.1870634
vt 0.260639 0.3220079
vt -0.02422011 0.3220079
vt 0.545498 0.3220078
vt 0.545498 0.3461626
vt 0.2606598 0.9273564
vt 0.2606391 0.9775407
vt 0.06843936 0.977423
vt 0.06843936 0.9273564
vt 0.04606077 0.9376529
vt -0.04271796 0.9376529
vt -0.04271796 0.9174914
vt 0.04606065 0.9174914
vt -0.04271802 0.9376528
vt 0.04606065 0.9376528
vt 0.04606065 0.9174913
vt -0.04271808 0.9174913
vt 0.2239324 0.1870635
vt 0.2691463 0.0556814
vt 0.2240888 0.02930211
vt 0.4978668 0.9273564
vt 0.5454981 0.9773662
vt 0.4542316 0.9774221
vt 0.4542316 0.9273564
vt -0.04271808 0.8755951
vt 0.04606065 0.8755951
vt 0.04606065 0.875595
vt -0.04271808 0.875595
vt 0.2024062 0.02930211
vt 0.2024064 0.1870635
vt 0.2606391 1.001521
vt 0.5454981 1.001521
vt -0.02421996 1.001521
vt -0.02421996 0.9773664
vt 0.4542316 0.6365799
vt 0.2691464 0.1870635
vt 0.3143604 0.05568138
vt 0.3143604 0.1870635
vt 0.2606577 0.9273601
vt -0.04271812 0.8335531
vt 0.04606065 0.8335531
vt 0.02341121 0.63658
vt 0.02341133 0.9273564
vt 0.02341127 0.9273601
vt 0.4978667 0.3963574
vt 0.4978667 0.6365799
vt 0.4978668 0.9273601
vt 0.7908469 0.1870634
vt 0.7456331 0.1870634
vt 0.7456331 0.3184455
vt 0.7906905 0.3448248
vt 0.5299968 0.3184456
vt 0.5299968 0.1870635
vt 0.3143604 0.1870635
vt 0.3143606 0.3184456
vt 0.0684393 0.3461061
vt 0.0684393 0.3963575
vt 0.02341115 0.3963575
vt -0.02422011 0.3461628
vt 0.260639 0.3963575
vt 0.2606483 0.6365799
vt 0.06843936 0.63658
vt -0.04271818 0.6330452
vt 0.04606068 0.6330451
vt 0.04606068 0.4325372
vt -0.04271817 0.4325372
vt -0.04271812 0.6330452
vt 0.04606068 0.6330452
vt 0.04606065 0.8335531
vt -0.04271806 0.8335531
vt 0.04606056 0.3704793
vt -0.04271815 0.3704794
vt -0.04271815 0.3906409
vt 0.04606056 0.3906409
vt -0.04271809 0.3704796
vt 0.04606068 0.3704795
vt 0.04606068 0.390641
vt -0.04271809 0.390641
vt 0.4542315 0.3461068
vt 0.4542316 0.3963574
vt 0.260639 0.3459883
vt 0.346291 0.3028128
vt 0.1126462 0.3028128
vt 0.1126462 0.06916791
vt 0.346291 0.06916791
vt 0.1126462 0.06916791
vt 0.346291 0.06916791
vt 0.346291 0.3028128
vt 0.04606068 0.4325373
vt -0.04271811 0.4325373
vt 0.8123732 0.3448248
vt 0.8123731 0.1870634
vt 0.260639 0.3220079
vt -0.02422011 0.3220079
vt 0.545498 0.3220078
vt 0.545498 0.3461626
vt 0.2239324 0.1870635
vt 0.2240891 0.3448249
vt 0.2691465 0.3184456
vt 0.2691464 0.1870635
vt 0.2606598 0.9273564
vt 0.2606391 0.9775407
vt 0.06843936 0.977423
vt 0.06843936 0.9273564
vt 0.04606077 0.9376529
vt -0.04271796 0.9376529
vt -0.04271796 0.9174914
vt 0.04606065 0.9174914
vt -0.04271802 0.9376528
vt 0.04606065 0.9376528
vt 0.04606065 0.9174913
vt -0.04271808 0.9174913
vt 0.4978668 0.9273564
vt 0.5454981 0.9773662
vt 0.4542316 0.9774221
vt 0.4542316 0.9273564
vt -0.04271808 0.8755951
vt 0.04606065 0.8755951
vt 0.04606065 0.875595
vt -0.04271808 0.875595
vt 0.2024065 0.3448249
vt 0.2024064 0.1870635
vt 0.2606391 1.001521
vt 0.5454981 1.001521
vt -0.02421996 1.001521
vt -0.02421996 0.9773664
vt 0.4542316 0.6365799
vt 0.2606577 0.9273601
vt 0.06843936 0.9273601
vt -0.04271812 0.8335531
vt 0.04606065 0.8335531
vt 0.4542316 0.9273601
vt 0.02341121 0.63658
vt 0.02341133 0.9273564
vt 0.02341127 0.9273601
vt 0.4978667 0.3963574
vt 0.4978667 0.6365799
vt 0.4978668 0.9273601

usemtl sn22_26_sn2318.JPG
usemap sn22_26_sn2318.JPG
f 3/3/3 1/1/1 2/2/2
f 1/1/1 3/3/3 4/4/4
f 7/7/7 5/5/5 6/6/6
f 5/5/5 7/7/7 8/8/8
f 10/10/10 6/6/6 9/9/9
f 6/6/6 10/10/10 11/11/11
f 14/14/14 12/12/12 13/13/13
f 12/12/12 14/14/14 15/15/15
f 18/18/18 16/16/16 17/17/17
f 16/16/16 18/18/18 19/19/19
f 22/22/22 20/20/20 21/21/21
f 20/20/20 22/22/22 23/23/23
f 26/26/26 24/24/24 25/25/25
f 24/24/24 26/26/26 27/27/27
f 28/28/28 4/4/4 3/3/3
f 4/4/4 28/28/28 29/29/29
f 9/9/9 30/30/30 31/31/31
f 30/30/30 9/9/9 32/32/32
f 35/35/35 33/33/33 34/34/34
f 38/38/38 36/36/36 37/37/37
f 36/36/36 38/38/38 39/39/39
f 15/15/15 23/23/23 22/22/22
f 23/23/23 15/15/15 14/14/14
f 40/40/40 27/27/27 26/26/26
f 27/27/27 40/40/40 41/41/41
f 28/28/28 42/42/42 29/29/29
f 42/42/42 28/28/28 43/43/43
f 5/5/5 44/44/44 32/32/32
f 8/8/8 44/44/44 5/5/5
f 45/45/45 44/44/44 8/8/8
f 46/46/46 32/32/32 44/44/44
f 30/30/30 46/46/46 47/47/47
f 30/30/30 32/32/32 46/46/46
f 50/50/50 48/48/48 49/49/49
f 48/48/48 50/50/50 51/51/51
f 54/54/54 52/52/52 53/53/53
f 52/52/52 54/54/54 55/55/55
f 58/58/58 56/56/56 57/57/57
f 56/56/56 58/58/58 59/59/59
f 62/62/62 60/60/60 61/61/61
f 65/65/65 63/63/63 64/64/64
f 63/63/63 65/65/65 66/66/66
f 67/67/67 55/55/55 54/54/54
f 55/55/55 67/67/67 68/68/68
f 69/69/69 59/59/59 58/58/58
f 59/59/59 69/69/69 70/70/70
f 72/72/72 62/62/62 71/71/71
f 62/62/62 72/72/72 60/60/60
f 65/65/65 73/73/73 49/49/49
f 64/64/64 73/73/73 65/65/65
f 74/74/74 73/73/73 64/64/64
f 50/50/50 75/75/75 76/76/76
f 49/49/49 75/75/75 50/50/50
f 73/73/73 75/75/75 49/49/49
f 77/77/77 9/9/9 31/31/31
f 9/9/9 77/77/77 10/10/10
f 61/61/61 60/60/60 78/78/78
f 2/2/2 79/79/79 80/80/80
f 79/79/79 2/2/2 1/1/1
f 51/51/51 10/10/10 81/81/81
f 10/10/10 51/51/51 11/11/11
f 13/13/13 82/82/82 83/83/83
f 82/82/82 13/13/13 12/12/12
f 17/17/17 41/41/41 40/40/40
f 41/41/41 17/17/17 16/16/16
f 81/81/81 77/77/77 66/66/66
f 77/77/77 81/81/81 10/10/10
f 32/32/32 6/6/6 5/5/5
f 6/6/6 32/32/32 9/9/9
f 84/84/84 6/6/6 11/11/11
f 6/6/6 84/84/84 7/7/7
f 50/50/50 85/85/85 51/51/51
f 85/85/85 50/50/50 76/76/76
f 86/86/86 11/11/11 51/51/51
f 11/11/11 86/86/86 84/84/84
f 87/87/87 30/30/30 47/47/47
f 30/30/30 87/87/87 31/31/31
f 66/66/66 49/49/49 48/48/48
f 49/49/49 66/66/66 65/65/65
f 77/77/77 87/87/87 88/88/88
f 87/87/87 77/77/77 31/31/31
f 66/66/66 88/88/88 89/89/89
f 88/88/88 66/66/66 77/77/77
f 92/92/92 90/90/90 91/91/91
f 90/90/90 92/92/92 93/93/93
f 96/96/96 94/94/94 95/95/95
f 94/94/94 96/96/96 97/97/97
f 100/100/100 98/98/98 99/99/99
f 98/98/98 100/100/100 101/101/101
f 103/103/103 99/99/99 102/102/102
f 99/99/99 103/103/103 104/104/104
f 107/107/107 105/105/105 106/106/106
f 105/105/105 107/107/107 108/108/108
f 111/111/111 109/109/109 110/110/110
f 109/109/109 111/111/111 112/112/112
f 115/115/115 113/113/113 114/114/114
f 113/113/113 115/115/115 116/116/116
f 119/119/119 117/117/117 118/118/118
f 117/117/117 119/119/119 120/120/120
f 102/102/102 121/121/121 122/122/122
f 121/121/121 102/102/102 123/123/123
f 126/126/126 124/124/124 125/125/125
f 124/124/124 126/126/126 127/127/127
f 130/130/130 128/128/128 129/129/129
f 108/108/108 116/116/116 115/115/115
f 116/116/116 108/108/108 107/107/107
f 131/131/131 120/120/120 119/119/119
f 120/120/120 131/131/131 132/132/132
f 134/134/134 93/93/93 133/133/133
f 93/93/93 134/134/134 90/90/90
f 98/98/98 135/135/135 123/123/123
f 101/101/101 135/135/135 98/98/98
f 136/136/136 135/135/135 101/101/101
f 137/137/137 123/123/123 135/135/135
f 121/121/121 137/137/137 138/138/138
f 121/121/121 123/123/123 137/137/137
f 141/141/141 139/139/139 140/140/140
f 139/139/139 141/141/141 142/142/142
f 145/145/145 143/143/143 144/144/144
f 143/143/143 145/145/145 146/146/146
f 149/149/149 147/147/147 148/148/148
f 147/147/147 149/149/149 150/150/150
f 153/153/153 151/151/151 152/152/152
f 151/151/151 153/153/153 154/154/154
f 157/157/157 155/155/155 156/156/156
f 155/155/155 157/157/157 158/158/158
f 159/159/159 150/150/150 149/149/149
f 150/150/150 159/159/159 160/160/160
f 161/161/161 154/154/154 153/153/153
f 154/154/154 161/161/161 162/162/162
f 139/139/139 163/163/163 140/140/140
f 163/163/163 139/139/139 164/164/164
f 157/157/157 165/165/165 144/144/144
f 156/156/156 165/165/165 157/157/157
f 166/166/166 165/165/165 156/156/156
f 145/145/145 167/167/167 168/168/168
f 144/144/144 167/167/167 145/145/145
f 165/165/165 167/167/167 144/144/144
f 169/169/169 102/102/102 122/122/122
f 102/102/102 169/169/169 103/103/103
f 95/95/95 92/92/92 91/91/91
f 92/92/92 95/95/95 94/94/94
f 171/171/171 103/103/103 170/170/170
f 103/103/103 171/171/171 104/104/104
f 106/106/106 172/172/172 173/173/173
f 172/172/172 106/106/106 105/105/105
f 110/110/110 132/132/132 131/131/131
f 132/132/132 110/110/110 109/109/109
f 170/170/170 169/169/169 174/174/174
f 169/169/169 170/170/170 103/103/103
f 123/123/123 99/99/99 98/98/98
f 99/99/99 123/123/123 102/102/102
f 175/175/175 99/99/99 104/104/104
f 99/99/99 175/175/175 100/100/100
f 145/145/145 176/176/176 146/146/146
f 176/176/176 145/145/145 168/168/168
f 177/177/177 104/104/104 171/171/171
f 104/104/104 177/177/177 175/175/175
f 178/178/178 121/121/121 138/138/138
f 121/121/121 178/178/178 122/122/122
f 158/158/158 144/144/144 143/143/143
f 144/144/144 158/158/158 157/157/157
f 169/169/169 178/178/178 179/179/179
f 178/178/178 169/169/169 122/122/122
f 174/174/174 179/179/179 180/180/180
f 179/179/179 174/174/174 169/169/169
