mtllib ./Object16.mtl
g Object16
v 10.96362 2.901496 1.728237
v -10.96387 2.901496 1.728237
v -10.96387 -1.013931 -9.55028
v 10.96362 -1.013931 -9.55028
v 8.882629 1.502105 -13.04884
v 8.882629 2.321145 -10.68952
v 10.96362 2.321145 -10.68952
v 13.16498 1.503025 -13.04618
v -0.0001220703 2.321145 -10.68952
v -0.0005493164 6.236573 0.5890006
v 8.882629 6.236573 0.5890006
v -10.96387 2.901496 1.728237
v -10.96387 6.236573 0.5890006
v -10.96387 2.321145 -10.68952
v -10.96387 -1.013931 -9.55028
v 10.96362 2.901496 1.728237
v 10.96362 6.236573 0.5890006
v 10.96362 10.97296 14.23237
v 10.96362 7.63788 15.37161
v -13.16522 1.109292 -14.18025
v -13.16522 -2.225785 -13.04101
v -13.16522 -1.832051 -11.90694
v -13.16522 1.503025 -13.04618
v 13.16498 -2.225785 -13.04101
v 13.16498 1.109292 -14.18025
v 13.16498 1.503025 -13.04618
v 13.16498 -1.832052 -11.90694
v -13.16522 -1.832051 -11.90694
v 13.16498 -1.832052 -11.90694
v -8.947205 1.502108 -13.0488
v -8.947205 2.321145 -10.68952
v -0.0001220703 1.500189 -13.05437
v -13.16522 -2.225785 -13.04101
v -13.16522 1.109292 -14.18025
v -0.0001220703 1.109292 -14.18025
v 13.16498 1.109292 -14.18025
v 13.16498 -2.225785 -13.04101
v -13.16522 -2.225785 -13.04101
v -0.0001220703 1.109292 -14.18025
v 10.96362 2.321145 -10.68952
v 10.96362 -1.013931 -9.55028
v 13.16498 -2.225785 -13.04101
v -13.16522 -2.225785 -13.04101
v -0.0001220703 1.109292 -14.18025
v 13.16498 1.109292 -14.18025
v -13.16522 1.109292 -14.18025
v -13.16522 1.503025 -13.04618
v -0.001098633 10.97296 14.23237
v -0.0001220703 11.79391 16.59722
v 8.882629 11.792 16.59169
v 8.882629 10.97296 14.23237
v 13.16498 12.18481 17.7231
v 13.16498 8.849672 18.86235
v 13.16498 8.456 17.72827
v 13.16498 11.79108 16.58903
v -13.16522 8.849672 18.86234
v -13.16522 12.18481 17.7231
v -13.16522 11.79108 16.58902
v -13.16522 8.456 17.72827
v -13.16522 8.456 17.72827
v 10.96362 7.63788 15.37161
v 13.16498 8.456 17.72827
v -10.96387 10.97296 14.23237
v -13.16522 11.79108 16.58902
v -8.947205 11.79199 16.59165
v -8.947205 10.97296 14.23237
v 10.96362 7.63788 15.37161
v 10.96362 10.97296 14.23237
v -10.96387 10.97296 14.23237
v -10.96387 7.63788 15.37161
v 13.16498 8.849672 18.86235
v -13.16522 8.849672 18.86234
v -0.0001220703 12.18481 17.7231
v -13.16522 12.18481 17.7231
v 13.16498 12.18481 17.7231
v 13.16498 11.79108 16.58903
v -8.947205 6.236573 0.5890006
v -10.96387 7.63788 15.37161
v 10.96362 7.63788 15.37161
v -10.96387 7.63788 15.37161
v -0.001098633 10.97296 14.23237
v -10.96387 7.63788 15.37161
v -10.96387 10.97296 14.23237
v 10.96362 6.236573 0.5890006
v 10.96362 10.97296 14.23237
v 10.96362 10.97296 14.23237
v -10.96387 2.321145 -10.68952
v -10.96387 6.236573 0.5890006
v -10.96387 10.97296 14.23237
v -13.16522 -4.680527 -11.48292
v -10.96393 -5.162559 -9.035306
v 10.96362 -5.162559 -9.035306
v 13.16492 -4.680527 -11.48292
v 10.96362 -7.469534 2.678505
v -10.96393 -7.469534 2.678505
v -10.96393 -10.26021 16.84844
v 10.96362 -10.26021 16.84844
v -8.882874 -8.141196 -12.14948
v -8.882874 -8.623769 -9.6991
v -10.96393 -8.623769 -9.6991
v -13.16522 -8.141736 -12.14672
v -0.0001220703 -8.623769 -9.6991
v 0.0003051758 -10.93074 2.01471
v -8.882874 -10.93074 2.01471
v 10.96362 -7.469534 2.678505
v 10.96362 -10.93074 2.01471
v 10.96362 -8.623769 -9.699108
v 10.96362 -5.162559 -9.035306
v -10.96393 -7.469534 2.678505
v -10.96393 -10.93074 2.01471
v -10.96393 -13.72142 16.18465
v -10.96393 -10.26021 16.84844
v 13.16492 -7.909736 -13.32457
v 13.16492 -4.448526 -12.66077
v 13.16492 -4.680527 -11.48292
v 13.16492 -8.141736 -12.14672
v -13.16522 -4.448526 -12.66077
v -13.16522 -7.909736 -13.32457
v -13.16522 -8.141736 -12.14672
v -13.16522 -4.680527 -11.48292
v 8.94696 -8.141193 -12.14945
v 8.94696 -8.623769 -9.6991
v -0.0001220703 -8.140068 -12.15522
v 13.16492 -4.448526 -12.66077
v 13.16492 -7.909736 -13.32457
v -0.0001220703 -7.909736 -13.32457
v -13.16522 -4.448526 -12.66077
v -13.16522 -4.448526 -12.66077
v -0.0001220703 -7.909736 -13.32457
v -13.16522 -7.909736 -13.32457
v -10.96393 -8.623769 -9.6991
v -10.96393 -5.162559 -9.035306
v 13.16492 -4.448526 -12.66077
v -13.16522 -4.448526 -12.66077
v -0.0001220703 -7.909736 -13.32457
v -13.16522 -7.909736 -13.32457
v 13.16492 -7.909736 -13.32457
v 13.16492 -8.141736 -12.14672
v -13.16522 -10.74224 19.29606
v 13.16492 -10.74224 19.29605
v 10.96362 -10.26021 16.84844
v -10.96393 -10.26021 16.84844
v 0.000793457 -13.72142 16.18465
v -0.0001220703 -14.20512 18.64076
v -8.882874 -14.20399 18.63502
v -8.882874 -13.72142 16.18465
v -13.16522 -14.43545 19.81011
v -13.16522 -10.97424 20.4739
v -13.16522 -10.74224 19.29606
v -13.16522 -14.20345 18.63226
v 13.16492 -10.97424 20.4739
v 13.16492 -14.43545 19.8101
v 13.16492 -14.20345 18.63226
v 13.16492 -10.74224 19.29605
v 10.96362 -13.72142 16.18464
v 13.16492 -14.20345 18.63226
v 8.94696 -14.20399 18.63498
v 8.94696 -13.72142 16.18464
v -10.96393 -10.26021 16.84844
v -10.96393 -13.72142 16.18465
v 10.96362 -13.72142 16.18464
v 10.96362 -10.26021 16.84844
v 13.16492 -10.97424 20.4739
v -13.16522 -10.97424 20.4739
v -0.0001220703 -14.43545 19.8101
v 13.16492 -14.43545 19.8101
v -13.16522 -14.43545 19.81011
v -13.16522 -14.20345 18.63226
v 8.94696 -10.93074 2.01471
v 10.96362 -10.26021 16.84844
v 10.96362 -13.72142 16.18464
v -10.96393 -10.93074 2.01471
v -10.96393 -13.72142 16.18465
v 10.96362 -8.623769 -9.699108
v 10.96362 -10.93074 2.01471

vn 0 0.2617279 0.9651418
vn 0 0.2617273 0.9651419
vn 0 0.2617279 0.9651417
vn 5.960837E-09 0.2617269 0.965142
vn 4.429259E-07 -0.2617326 -0.9651403
vn 2.258542E-08 -0.2617273 -0.9651419
vn 2.1658E-07 -0.261726 -0.9651421
vn 3.779129E-07 -0.2617429 -0.9651376
vn -8.971737E-08 -0.2617274 -0.9651418
vn 0 -0.2617276 -0.9651417
vn 0 -0.2617276 -0.9651418
vn -1 0 0
vn -1 0 0
vn -0.9965343 0.08039172 -0.02137189
vn -0.9678021 0.2432628 -0.06467065
vn 1 0 0
vn 1 0 0
vn 1 0 0
vn 1 0 0
vn -1 0 0
vn -1 0 0
vn -0.9120352 0.396345 -0.1053671
vn -0.8148822 0.5601696 -0.1489194
vn 1 0 0
vn 1 0 0
vn 0.9120352 0.396345 -0.1053671
vn 0.8148824 0.5601693 -0.1489193
vn 1.841345E-08 0.2617331 0.9651403
vn 3.474826E-08 0.2617325 0.9651403
vn -3.620282E-07 -0.261728 -0.9651415
vn 0 -0.261728 -0.9651417
vn -3.931979E-07 -0.2617323 -0.9651405
vn 0 -0.9664319 0.256923
vn 0 -0.9664319 0.256923
vn 0 -0.9664319 0.256923
vn -9.249477E-08 -0.9664319 0.2569234
vn 0 -0.9664316 0.256924
vn -9.249477E-08 -0.9664319 0.2569234
vn -2.774844E-07 -0.9664321 0.2569219
vn 0.9678022 0.2432627 -0.06467064
vn 0.9965342 0.08039171 -0.02137189
vn 1.744267E-08 0.2617514 0.9651353
vn 0 0.261751 0.9651355
vn 1.42537E-07 -0.2617554 -0.9651341
vn -7.792667E-08 -0.2617508 -0.9651355
vn -2.876195E-07 -0.2617505 -0.9651356
vn 1.533648E-06 -0.2617334 -0.96514
vn -1.516488E-07 -0.2617215 -0.9651435
vn 3.484827E-07 -0.2617345 -0.9651399
vn -3.394015E-07 -0.2617283 -0.9651417
vn 0 -0.2617267 -0.965142
vn 1 0 0
vn 1 0 0
vn 0.9120354 -0.3963449 0.1053671
vn 0.814882 -0.5601696 0.1489199
vn -1 0 0
vn -1 0 0
vn -0.9120353 -0.3963447 0.105368
vn -0.814881 -0.5601709 0.148921
vn 0 0.2617201 0.9651437
vn 0 0.2617242 0.9651426
vn -2.335154E-08 0.261714 0.9651455
vn -8.577912E-07 -0.2617257 -0.9651423
vn -6.272164E-07 -0.2617397 -0.9651385
vn 5.927139E-07 -0.2617332 -0.9651403
vn 1.462314E-07 -0.2617264 -0.965142
vn 0.7498019 -0.6394515 0.1699969
vn 0.7498024 -0.6394508 0.1699973
vn -0.7498014 -0.6394519 0.1699977
vn -0.7498015 -0.6394519 0.1699976
vn -9.522838E-08 0.2617021 0.9651488
vn -4.761433E-08 0.2617032 0.9651484
vn 2.210614E-07 -0.2617527 -0.9651349
vn 0 -0.2617502 -0.9651356
vn -2.72523E-07 -0.2617546 -0.9651344
vn -6.717555E-07 -0.2617323 -0.9651405
vn 0 -0.2617278 -0.9651418
vn 0 0.2617242 0.9651426
vn 0 0.2617269 0.9651419
vn 0 0.2617269 0.9651419
vn 0 -0.2617271 -0.965142
vn -0.9999999 0 0
vn -0.9999999 0 0
vn 0 -0.2617279 -0.9651417
vn -4.480088E-07 -0.2617228 -0.965143
vn 0 -0.261727 -0.965142
vn 2.541519E-07 -0.2617277 -0.9651418
vn 0 -0.2617275 -0.9651419
vn 0 -0.2617271 -0.965142
vn 0 0.2607366 -0.9654099
vn 0 0.260735 -0.9654104
vn 0 0.260735 -0.9654104
vn 0 0.2607445 -0.9654079
vn 0 0.2607349 -0.9654105
vn 0 0.2607353 -0.9654103
vn 0 0.2607344 -0.9654106
vn 0 0.2607344 -0.9654106
vn -3.874891E-07 -0.2607399 0.9654091
vn -1.033564E-08 -0.2607348 0.9654104
vn -2.604755E-07 -0.2607335 0.9654109
vn -4.998919E-07 -0.2607508 0.9654061
vn 7.4302E-08 -0.2607349 0.9654104
vn 0 -0.2607351 0.9654105
vn 0 -0.260735 0.9654105
vn 1 0 0
vn 1 0 0
vn 0.9965343 0.08041138 0.02128879
vn 0.9678038 0.2433226 0.06441915
vn -1 0 0
vn -1 0 0
vn -1 0 0
vn -1 0 0
vn 1 0 0
vn 1 0 0
vn 0.9120396 0.3964437 0.1049574
vn 0.81489 0.5603117 0.1483414
vn -1 0 0
vn -1 0 0
vn -0.9120396 0.3964437 0.1049574
vn -0.8148903 0.5603113 0.1483406
vn 2.250394E-07 -0.2607356 0.9654104
vn -1.317193E-07 -0.2607355 0.9654103
vn 3.538968E-07 -0.2607397 0.9654091
vn -9.420792E-08 -0.9666955 -0.2559293
vn -2.826242E-07 -0.9666952 -0.25593
vn -9.420792E-08 -0.9666955 -0.2559293
vn 0 -0.9666955 -0.2559289
vn 0 -0.9666957 -0.255929
vn 0 -0.9666957 -0.255929
vn 0 -0.9666957 -0.255929
vn -0.9678039 0.2433226 0.06441888
vn -0.9965344 0.08041143 0.02128862
vn 0 0.2607587 -0.9654041
vn 0 0.2607587 -0.9654041
vn -1.667435E-07 -0.2607627 0.965403
vn 0 -0.2607589 0.965404
vn 1.91168E-07 -0.2607579 0.9654043
vn -1.400605E-06 -0.2607409 0.9654088
vn 2.976951E-08 0.2607408 -0.9654088
vn 5.61785E-08 0.2607402 -0.965409
vn 3.054883E-08 0.2607313 -0.9654115
vn 0 0.260731 -0.9654114
vn -7.675206E-08 -0.2607337 0.9654107
vn -4.886111E-07 -0.2607424 0.9654085
vn 3.18766E-07 -0.2607361 0.9654102
vn 0 -0.260734 0.9654106
vn -1 0 0
vn -1 0 0
vn -0.9120397 -0.3964436 -0.104958
vn -0.81489 -0.5603118 -0.1483411
vn 1 0 0
vn 1 0 0
vn 0.9120396 -0.3964439 -0.1049571
vn 0.8148898 -0.5603119 -0.1483411
vn 4.134613E-07 -0.2607339 0.9654106
vn 8.705096E-07 -0.2607471 0.9654071
vn -4.51487E-07 -0.2607402 0.965409
vn -3.165821E-07 -0.2607339 0.9654106
vn -0.749811 -0.6396161 -0.1693366
vn -0.7498103 -0.639617 -0.169336
vn 0.7498109 -0.6396161 -0.1693366
vn 0.7498106 -0.6396163 -0.1693372
vn 2.828546E-08 0.2607588 -0.965404
vn 0 0.2607594 -0.9654037
vn -2.065133E-07 -0.2607602 0.9654037
vn 0 -0.2607591 0.9654038
vn 2.015866E-07 -0.2607621 0.9654031
vn 9.942477E-07 -0.2607397 0.9654092
vn -9.374963E-08 -0.2607352 0.9654102
vn 1 0 0
vn 1 0 0
vn 0 -0.2607354 0.9654103
vn 1.388661E-07 -0.2607336 0.9654107
vn -5.595388E-07 -0.2607351 0.9654105
vn 0 -0.2607349 0.9654104

vt 0.5299966 0.05568135
vt 0.5299968 0.1870635
vt 0.7456331 0.1870634
vt 0.7456329 0.0556813
vt 0.0684393 0.3461061
vt 0.0684393 0.3963575
vt 0.02341115 0.3963575
vt -0.02422011 0.3461628
vt 0.260639 0.3963575
vt 0.2606483 0.6365799
vt 0.06843936 0.63658
vt -0.04271818 0.6330452
vt 0.04606068 0.6330451
vt 0.04606068 0.4325372
vt -0.04271817 0.4325372
vt -0.04271812 0.6330452
vt 0.04606068 0.6330452
vt 0.04606065 0.8335531
vt -0.04271806 0.8335531
vt 0.04606056 0.3704793
vt -0.04271815 0.3704794
vt -0.04271815 0.3906409
vt 0.04606056 0.3906409
vt -0.04271809 0.3704796
vt 0.04606068 0.3704795
vt 0.04606068 0.390641
vt -0.04271809 0.390641
vt 0.7908469 0.1870634
vt 0.7906904 0.02930201
vt 0.4542315 0.3461068
vt 0.4542316 0.3963574
vt 0.260639 0.3459883
vt 0.346291 0.3028128
vt 0.1126462 0.3028128
vt 0.1126462 0.06916791
vt 0.346291 0.3028128
vt 0.1126462 0.3028128
vt 0.1126462 0.06916791
vt 0.346291 0.06916791
vt 0.04606068 0.4325373
vt -0.04271811 0.4325373
vt 0.812373 0.029302
vt 0.8123731 0.1870634
vt 0.260639 0.3220079
vt -0.02422011 0.3220079
vt 0.545498 0.3220078
vt 0.545498 0.3461626
vt 0.2606598 0.9273564
vt 0.2606391 0.9775407
vt 0.06843936 0.977423
vt 0.06843936 0.9273564
vt 0.04606077 0.9376529
vt -0.04271796 0.9376529
vt -0.04271796 0.9174914
vt 0.04606065 0.9174914
vt -0.04271802 0.9376528
vt 0.04606065 0.9376528
vt 0.04606065 0.9174913
vt -0.04271808 0.9174913
vt 0.2239324 0.1870635
vt 0.2691463 0.0556814
vt 0.2240888 0.02930211
vt 0.4978668 0.9273564
vt 0.5454981 0.9773662
vt 0.4542316 0.9774221
vt 0.4542316 0.9273564
vt -0.04271808 0.8755951
vt 0.04606065 0.8755951
vt 0.04606065 0.875595
vt -0.04271808 0.875595
vt 0.2024062 0.02930211
vt 0.2024064 0.1870635
vt 0.2606391 1.001521
vt 0.5454981 1.001521
vt -0.02421996 1.001521
vt -0.02421996 0.9773664
vt 0.4542316 0.6365799
vt 0.2691464 0.1870635
vt 0.3143604 0.05568138
vt 0.3143604 0.1870635
vt 0.2606577 0.9273601
vt -0.04271812 0.8335531
vt 0.04606065 0.8335531
vt 0.02341121 0.63658
vt 0.02341133 0.9273564
vt 0.02341127 0.9273601
vt 0.4978667 0.3963574
vt 0.4978667 0.6365799
vt 0.4978668 0.9273601
vt 0.7908469 0.1870634
vt 0.7456331 0.1870634
vt 0.7456331 0.3184455
vt 0.7906905 0.3448248
vt 0.5299968 0.3184456
vt 0.5299968 0.1870635
vt 0.3143604 0.1870635
vt 0.3143606 0.3184456
vt 0.0684393 0.3461061
vt 0.0684393 0.3963575
vt 0.02341115 0.3963575
vt -0.02422011 0.3461628
vt 0.260639 0.3963575
vt 0.2606483 0.6365799
vt 0.06843936 0.63658
vt -0.04271818 0.6330452
vt 0.04606068 0.6330451
vt 0.04606068 0.4325372
vt -0.04271817 0.4325372
vt -0.04271812 0.6330452
vt 0.04606068 0.6330452
vt 0.04606065 0.8335531
vt -0.04271806 0.8335531
vt 0.04606056 0.3704793
vt -0.04271815 0.3704794
vt -0.04271815 0.3906409
vt 0.04606056 0.3906409
vt -0.04271809 0.3704796
vt 0.04606068 0.3704795
vt 0.04606068 0.390641
vt -0.04271809 0.390641
vt 0.4542315 0.3461068
vt 0.4542316 0.3963574
vt 0.260639 0.3459883
vt 0.346291 0.3028128
vt 0.1126462 0.3028128
vt 0.1126462 0.06916791
vt 0.346291 0.06916791
vt 0.1126462 0.06916791
vt 0.346291 0.06916791
vt 0.346291 0.3028128
vt 0.04606068 0.4325373
vt -0.04271811 0.4325373
vt 0.8123732 0.3448248
vt 0.8123731 0.1870634
vt 0.260639 0.3220079
vt -0.02422011 0.3220079
vt 0.545498 0.3220078
vt 0.545498 0.3461626
vt 0.2239324 0.1870635
vt 0.2240891 0.3448249
vt 0.2691465 0.3184456
vt 0.2691464 0.1870635
vt 0.2606598 0.9273564
vt 0.2606391 0.9775407
vt 0.06843936 0.977423
vt 0.06843936 0.9273564
vt 0.04606077 0.9376529
vt -0.04271796 0.9376529
vt -0.04271796 0.9174914
vt 0.04606065 0.9174914
vt -0.04271802 0.9376528
vt 0.04606065 0.9376528
vt 0.04606065 0.9174913
vt -0.04271808 0.9174913
vt 0.4978668 0.9273564
vt 0.5454981 0.9773662
vt 0.4542316 0.9774221
vt 0.4542316 0.9273564
vt -0.04271808 0.8755951
vt 0.04606065 0.8755951
vt 0.04606065 0.875595
vt -0.04271808 0.875595
vt 0.2024065 0.3448249
vt 0.2024064 0.1870635
vt 0.2606391 1.001521
vt 0.5454981 1.001521
vt -0.02421996 1.001521
vt -0.02421996 0.9773664
vt 0.4542316 0.6365799
vt -0.04271812 0.8335531
vt 0.04606065 0.8335531
vt 0.02341121 0.63658
vt 0.02341133 0.9273564
vt 0.4978667 0.3963574
vt 0.4978667 0.6365799

usemtl sn22_26_sn2318.JPG
usemap sn22_26_sn2318.JPG
f 3/3/3 1/1/1 2/2/2
f 1/1/1 3/3/3 4/4/4
f 7/7/7 5/5/5 6/6/6
f 5/5/5 7/7/7 8/8/8
f 10/10/10 6/6/6 9/9/9
f 6/6/6 10/10/10 11/11/11
f 14/14/14 12/12/12 13/13/13
f 12/12/12 14/14/14 15/15/15
f 18/18/18 16/16/16 17/17/17
f 16/16/16 18/18/18 19/19/19
f 22/22/22 20/20/20 21/21/21
f 20/20/20 22/22/22 23/23/23
f 26/26/26 24/24/24 25/25/25
f 24/24/24 26/26/26 27/27/27
f 28/28/28 4/4/4 3/3/3
f 4/4/4 28/28/28 29/29/29
f 9/9/9 30/30/30 31/31/31
f 30/30/30 9/9/9 32/32/32
f 35/35/35 33/33/33 34/34/34
f 38/38/38 36/36/36 37/37/37
f 36/36/36 38/38/38 39/39/39
f 15/15/15 23/23/23 22/22/22
f 23/23/23 15/15/15 14/14/14
f 40/40/40 27/27/27 26/26/26
f 27/27/27 40/40/40 41/41/41
f 28/28/28 42/42/42 29/29/29
f 42/42/42 28/28/28 43/43/43
f 5/5/5 44/44/44 32/32/32
f 8/8/8 44/44/44 5/5/5
f 45/45/45 44/44/44 8/8/8
f 46/46/46 32/32/32 44/44/44
f 30/30/30 46/46/46 47/47/47
f 30/30/30 32/32/32 46/46/46
f 50/50/50 48/48/48 49/49/49
f 48/48/48 50/50/50 51/51/51
f 54/54/54 52/52/52 53/53/53
f 52/52/52 54/54/54 55/55/55
f 58/58/58 56/56/56 57/57/57
f 56/56/56 58/58/58 59/59/59
f 62/62/62 60/60/60 61/61/61
f 65/65/65 63/63/63 64/64/64
f 63/63/63 65/65/65 66/66/66
f 67/67/67 55/55/55 54/54/54
f 55/55/55 67/67/67 68/68/68
f 69/69/69 59/59/59 58/58/58
f 59/59/59 69/69/69 70/70/70
f 72/72/72 62/62/62 71/71/71
f 62/62/62 72/72/72 60/60/60
f 65/65/65 73/73/73 49/49/49
f 64/64/64 73/73/73 65/65/65
f 74/74/74 73/73/73 64/64/64
f 50/50/50 75/75/75 76/76/76
f 49/49/49 75/75/75 50/50/50
f 73/73/73 75/75/75 49/49/49
f 77/77/77 9/9/9 31/31/31
f 9/9/9 77/77/77 10/10/10
f 61/61/61 60/60/60 78/78/78
f 2/2/2 79/79/79 80/80/80
f 79/79/79 2/2/2 1/1/1
f 51/51/51 10/10/10 81/81/81
f 10/10/10 51/51/51 11/11/11
f 13/13/13 82/82/82 83/83/83
f 82/82/82 13/13/13 12/12/12
f 17/17/17 41/41/41 40/40/40
f 41/41/41 17/17/17 16/16/16
f 81/81/81 77/77/77 66/66/66
f 77/77/77 81/81/81 10/10/10
f 32/32/32 6/6/6 5/5/5
f 6/6/6 32/32/32 9/9/9
f 84/84/84 6/6/6 11/11/11
f 6/6/6 84/84/84 7/7/7
f 50/50/50 85/85/85 51/51/51
f 85/85/85 50/50/50 76/76/76
f 86/86/86 11/11/11 51/51/51
f 11/11/11 86/86/86 84/84/84
f 87/87/87 30/30/30 47/47/47
f 30/30/30 87/87/87 31/31/31
f 66/66/66 49/49/49 48/48/48
f 49/49/49 66/66/66 65/65/65
f 77/77/77 87/87/87 88/88/88
f 87/87/87 77/77/77 31/31/31
f 66/66/66 88/88/88 89/89/89
f 88/88/88 66/66/66 77/77/77
f 92/92/92 90/90/90 91/91/91
f 90/90/90 92/92/92 93/93/93
f 96/96/96 94/94/94 95/95/95
f 94/94/94 96/96/96 97/97/97
f 100/100/100 98/98/98 99/99/99
f 98/98/98 100/100/100 101/101/101
f 103/103/103 99/99/99 102/102/102
f 99/99/99 103/103/103 104/104/104
f 107/107/107 105/105/105 106/106/106
f 105/105/105 107/107/107 108/108/108
f 111/111/111 109/109/109 110/110/110
f 109/109/109 111/111/111 112/112/112
f 115/115/115 113/113/113 114/114/114
f 113/113/113 115/115/115 116/116/116
f 119/119/119 117/117/117 118/118/118
f 117/117/117 119/119/119 120/120/120
f 102/102/102 121/121/121 122/122/122
f 121/121/121 102/102/102 123/123/123
f 126/126/126 124/124/124 125/125/125
f 124/124/124 126/126/126 127/127/127
f 130/130/130 128/128/128 129/129/129
f 108/108/108 116/116/116 115/115/115
f 116/116/116 108/108/108 107/107/107
f 131/131/131 120/120/120 119/119/119
f 120/120/120 131/131/131 132/132/132
f 134/134/134 93/93/93 133/133/133
f 93/93/93 134/134/134 90/90/90
f 98/98/98 135/135/135 123/123/123
f 101/101/101 135/135/135 98/98/98
f 136/136/136 135/135/135 101/101/101
f 137/137/137 123/123/123 135/135/135
f 121/121/121 137/137/137 138/138/138
f 121/121/121 123/123/123 137/137/137
f 141/141/141 139/139/139 140/140/140
f 139/139/139 141/141/141 142/142/142
f 145/145/145 143/143/143 144/144/144
f 143/143/143 145/145/145 146/146/146
f 149/149/149 147/147/147 148/148/148
f 147/147/147 149/149/149 150/150/150
f 153/153/153 151/151/151 152/152/152
f 151/151/151 153/153/153 154/154/154
f 157/157/157 155/155/155 156/156/156
f 155/155/155 157/157/157 158/158/158
f 159/159/159 150/150/150 149/149/149
f 150/150/150 159/159/159 160/160/160
f 161/161/161 154/154/154 153/153/153
f 154/154/154 161/161/161 162/162/162
f 139/139/139 163/163/163 140/140/140
f 163/163/163 139/139/139 164/164/164
f 157/157/157 165/165/165 144/144/144
f 156/156/156 165/165/165 157/157/157
f 166/166/166 165/165/165 156/156/156
f 145/145/145 167/167/167 168/168/168
f 144/144/144 167/167/167 145/145/145
f 165/165/165 167/167/167 144/144/144
f 169/169/169 102/102/102 122/122/122
f 102/102/102 169/169/169 103/103/103
f 95/95/95 92/92/92 91/91/91
f 92/92/92 95/95/95 94/94/94
f 146/146/146 103/103/103 143/143/143
f 103/103/103 146/146/146 104/104/104
f 106/106/106 170/170/170 171/171/171
f 170/170/170 106/106/106 105/105/105
f 110/110/110 132/132/132 131/131/131
f 132/132/132 110/110/110 109/109/109
f 143/143/143 169/169/169 158/158/158
f 169/169/169 143/143/143 103/103/103
f 123/123/123 99/99/99 98/98/98
f 99/99/99 123/123/123 102/102/102
f 172/172/172 99/99/99 104/104/104
f 99/99/99 172/172/172 100/100/100
f 145/145/145 173/173/173 146/146/146
f 173/173/173 145/145/145 168/168/168
f 173/173/173 104/104/104 146/146/146
f 104/104/104 173/173/173 172/172/172
f 174/174/174 121/121/121 138/138/138
f 121/121/121 174/174/174 122/122/122
f 158/158/158 144/144/144 143/143/143
f 144/144/144 158/158/158 157/157/157
f 169/169/169 174/174/174 175/175/175
f 174/174/174 169/169/169 122/122/122
f 158/158/158 175/175/175 155/155/155
f 175/175/175 158/158/158 169/169/169
