mtllib ./Object26.mtl
g Object26
v 10.96368 2.901983 1.728203
v -10.96384 2.901983 1.728203
v -10.96384 -1.013384 -9.550319
v 10.96368 -1.013384 -9.550319
v 8.88266 1.502653 -13.04888
v 8.88266 2.321693 -10.68955
v 10.96368 2.321693 -10.68955
v 13.16504 1.503573 -13.04622
v 8.88266 2.321693 -10.68955
v -6.103516E-05 2.321693 -10.68955
v -0.0004882813 6.23706 0.5889666
v 8.88266 6.23706 0.5889666
v -10.96384 2.901983 1.728203
v -10.96381 6.23706 0.5889666
v -10.96381 2.321693 -10.68955
v -10.96384 -1.013384 -9.550319
v 10.96368 2.901983 1.728203
v 10.96368 6.23706 0.5889666
v 10.96368 10.97344 14.23233
v 10.96368 7.638367 15.37158
v -13.16516 1.1099 -14.18029
v -13.16516 -2.225176 -13.04106
v -13.16516 -1.831504 -11.90698
v -13.16516 1.503573 -13.04621
v 13.16504 -2.225176 -13.04106
v 13.16504 1.1099 -14.1803
v 13.16504 1.503573 -13.04622
v 13.16504 -1.831504 -11.90698
v -13.16516 -1.831504 -11.90698
v 13.16504 -1.831504 -11.90698
v -8.947174 1.502656 -13.04884
v -8.947174 2.321693 -10.68955
v -6.103516E-05 2.321693 -10.68955
v -6.103516E-05 1.500676 -13.0544
v -13.16516 -2.225176 -13.04106
v -13.16516 1.1099 -14.18029
v -6.103516E-05 1.1099 -14.18029
v 13.16504 1.1099 -14.1803
v 13.16504 -2.225176 -13.04106
v -13.16516 -2.225176 -13.04106
v -6.103516E-05 1.1099 -14.18029
v 10.96368 2.321693 -10.68955
v 10.96368 -1.013384 -9.550319
v 13.16504 -2.225176 -13.04106
v -13.16516 -2.225176 -13.04106
v -6.103516E-05 1.1099 -14.18029
v 13.16504 1.1099 -14.1803
v -13.16516 1.1099 -14.18029
v -13.16516 1.503573 -13.04621
v -0.00100708 10.97344 14.23233
v -6.103516E-05 11.79446 16.59718
v 8.88266 11.7926 16.59164
v 8.88266 10.97344 14.23233
v 13.16504 12.18536 17.72306
v 13.16504 8.850282 18.86231
v 13.16504 8.456487 17.72823
v 13.16504 11.79169 16.58899
v -13.16516 8.850281 18.8623
v -13.16516 12.18536 17.72306
v -13.16516 11.79168 16.58898
v -13.16516 8.456487 17.72823
v -13.16516 8.456487 17.72823
v 10.96368 7.638367 15.37158
v 13.16504 8.456487 17.72823
v -10.96381 10.97344 14.23233
v -13.16516 11.79168 16.58898
v -8.947174 11.79248 16.59161
v -8.947174 10.97344 14.23233
v 10.96368 7.638367 15.37158
v 10.96368 10.97344 14.23233
v -10.96381 10.97344 14.23233
v -10.96384 7.638367 15.37158
v 13.16504 8.850282 18.86231
v -13.16516 8.850281 18.8623
v -6.103516E-05 12.18536 17.72306
v -13.16516 12.18536 17.72306
v 13.16504 12.18536 17.72306
v 13.16504 11.79169 16.58899
v -8.947174 2.321693 -10.68955
v -8.947174 6.23706 0.5889666
v -10.96384 7.638367 15.37158
v 10.96368 7.638367 15.37158
v -10.96384 7.638367 15.37158
v -0.00100708 10.97344 14.23233
v 8.88266 10.97344 14.23233
v -10.96384 7.638367 15.37158
v -10.96381 10.97344 14.23233
v -8.947174 10.97344 14.23233
v 8.88266 6.23706 0.5889666
v 10.96368 6.23706 0.5889666
v 10.96368 10.97344 14.23233
v 10.96368 10.97344 14.23233
v -10.96381 2.321693 -10.68955
v -10.96381 6.23706 0.5889666
v -8.947174 6.23706 0.5889666
v -10.96381 10.97344 14.23233
v -13.16519 -4.679918 -11.48296
v -10.96384 -5.161951 -9.035349
v 10.96368 -5.161951 -9.035349
v 13.16501 -4.679918 -11.48296
v 10.96368 -7.468987 2.678467
v -10.96384 -7.468987 2.678467
v -10.96384 -10.25966 16.8484
v 10.96368 -10.25966 16.8484
v -8.882813 -8.140587 -12.14953
v -8.882813 -8.623281 -9.699135
v -10.96384 -8.623281 -9.699135
v -13.16516 -8.141128 -12.14676
v -8.882813 -8.623281 -9.699135
v -9.155273E-05 -8.623281 -9.699135
v 0.0003356934 -10.9302 2.014672
v -8.882813 -10.9302 2.014672
v 10.96368 -7.468987 2.678467
v 10.96368 -10.9302 2.014672
v 10.96368 -8.623282 -9.699142
v 10.96368 -5.161951 -9.035349
v -10.96384 -7.468987 2.678467
v -10.96384 -10.9302 2.014672
v -10.96384 -13.72087 16.18461
v -10.96384 -10.25966 16.8484
v 13.16501 -7.909189 -13.32461
v 13.16501 -4.447979 -12.66081
v 13.16501 -4.679918 -11.48296
v 13.16501 -8.141128 -12.14676
v -13.16519 -4.447979 -12.66081
v -13.16516 -7.909188 -13.3246
v -13.16516 -8.141128 -12.14676
v -13.16519 -4.679918 -11.48296
v 8.947021 -8.140706 -12.14948
v 8.947021 -8.623281 -9.699135
v -9.155273E-05 -8.623281 -9.699135
v -9.155273E-05 -8.139521 -12.15526
v 13.16501 -4.447979 -12.66081
v 13.16501 -7.909189 -13.32461
v -9.155273E-05 -7.909188 -13.3246
v -13.16519 -4.447979 -12.66081
v -13.16519 -4.447979 -12.66081
v -9.155273E-05 -7.909188 -13.3246
v -13.16516 -7.909188 -13.3246
v -10.96384 -8.623281 -9.699135
v -10.96384 -5.161951 -9.035349
v 13.16501 -4.447979 -12.66081
v -13.16519 -4.447979 -12.66081
v -9.155273E-05 -7.909188 -13.3246
v -13.16516 -7.909188 -13.3246
v 13.16501 -7.909189 -13.32461
v 13.16501 -8.141128 -12.14676
v -13.16519 -10.74169 19.29602
v 13.16501 -10.74169 19.29601
v 10.96368 -10.25966 16.8484
v -10.96384 -10.25966 16.8484
v 0.0008850098 -13.72087 16.18461
v -9.155273E-05 -14.20463 18.64072
v -8.882813 -14.20344 18.63498
v -8.882813 -13.72087 16.18461
v -13.16516 -14.43484 19.81007
v -13.16519 -10.97363 20.47386
v -13.16519 -10.74169 19.29602
v -13.16516 -14.2029 18.63222
v 13.16501 -10.97363 20.47386
v 13.16501 -14.43484 19.81006
v 13.16501 -14.2029 18.63222
v 13.16501 -10.74169 19.29601
v 10.96368 -13.72087 16.1846
v 13.16501 -14.2029 18.63222
v 8.947021 -14.20345 18.63494
v 8.947021 -13.72087 16.1846
v -10.96384 -10.25966 16.8484
v -10.96384 -13.72087 16.18461
v 10.96368 -13.72087 16.1846
v 10.96368 -10.25966 16.8484
v 13.16501 -10.97363 20.47386
v -13.16519 -10.97363 20.47386
v -9.155273E-05 -14.43484 19.81006
v 13.16501 -14.43484 19.81006
v -13.16516 -14.43484 19.81007
v -13.16516 -14.2029 18.63222
v 8.947021 -8.623281 -9.699135
v 8.947021 -10.9302 2.014672
v 0.0008850098 -13.72087 16.18461
v -8.882813 -13.72087 16.18461
v 10.96368 -10.25966 16.8484
v 10.96368 -13.72087 16.1846
v 8.947021 -13.72087 16.1846
v -8.882813 -10.9302 2.014672
v -10.96384 -10.9302 2.014672
v -10.96384 -13.72087 16.18461
v 10.96368 -8.623282 -9.699142
v 10.96368 -10.9302 2.014672
v 8.947021 -10.9302 2.014672

vn 0 0.2617249 0.9651425
vn 0 0.261726 0.9651422
vn 0 0.2617237 0.9651429
vn 6.695938E-09 0.2617236 0.9651428
vn -3.631014E-06 -0.2617093 -0.9651468
vn -1.414078E-06 -0.2617277 -0.9651418
vn 2.107239E-07 -0.2617231 -0.965143
vn 3.609448E-07 -0.2617116 -0.9651461
vn 0 -0.2617237 -0.9651428
vn 0 -0.2617237 -0.9651429
vn 0 -0.2617255 -0.9651424
vn 0 -0.2617255 -0.9651423
vn -1 -2.266362E-06 -8.357487E-06
vn -1 -2.266372E-06 -8.357482E-06
vn -0.9965342 0.08038955 -0.02138022
vn -0.9678025 0.2432595 -0.06467718
vn 1 0 0
vn 1 0 0
vn 1 0 0
vn 1 0 0
vn -1 0 0
vn -1 0 0
vn -0.9120364 0.3963427 -0.1053665
vn -0.8148834 0.5601673 -0.1489216
vn 1 0 0
vn 1 0 0
vn 0.9120343 0.3963472 -0.1053677
vn 0.8148817 0.5601703 -0.1489195
vn 2.059295E-08 0.2617168 0.9651446
vn 3.886123E-08 0.2617173 0.9651446
vn 2.515244E-06 -0.2617282 -0.9651417
vn 0 -0.261725 -0.9651425
vn 1.687272E-06 -0.2617378 -0.965139
vn -3.897133E-07 -0.2617154 -0.965145
vn 0 -0.9664319 0.2569228
vn 0 -0.9664319 0.2569228
vn 0 -0.9664319 0.2569228
vn -9.249479E-08 -0.9664319 0.2569231
vn 0 -0.9664317 0.2569237
vn -9.249479E-08 -0.9664319 0.2569231
vn -2.774845E-07 -0.9664322 0.2569217
vn 0.967802 0.2432629 -0.06467067
vn 0.9965342 0.0803918 -0.0213719
vn 1.932862E-08 0.2617038 0.9651482
vn 0 0.2617034 0.9651484
vn -1.368914E-06 -0.2616813 -0.9651543
vn -7.791301E-08 -0.2617038 -0.9651483
vn 1.976017E-06 -0.2616868 -0.9651527
vn 1.543238E-06 -0.2617181 -0.9651444
vn -2.362135E-06 -0.2617515 -0.9651353
vn -3.80579E-06 -0.2617369 -0.9651392
vn -3.204774E-06 -0.2617443 -0.9651372
vn 0 -0.2617464 -0.9651366
vn 1 0 0
vn 1 0 0
vn 0.9120339 -0.396349 0.1053643
vn 0.8148836 -0.5601683 0.1489168
vn -1 0 0
vn -1 0 0
vn -0.9120348 -0.3963467 0.1053646
vn -0.8148865 -0.5601649 0.1489136
vn 0 0.2617398 0.9651385
vn 0 0.2617241 0.9651427
vn -1.502803E-08 0.2617607 0.9651328
vn 1.789883E-05 -0.2617403 -0.9651383
vn 1.315155E-05 -0.2617628 -0.9651322
vn 4.659947E-06 -0.2617607 -0.9651328
vn -1.020771E-06 -0.2617303 -0.9651411
vn 0.7498039 -0.63945 0.1699933
vn 0.7498065 -0.6394463 0.1699961
vn -0.7498057 -0.6394486 0.1699903
vn -0.749806 -0.6394486 0.16999
vn -6.128399E-08 0.261798 0.9651226
vn -3.064209E-08 0.2617987 0.9651226
vn 1.726168E-06 -0.2617633 -0.9651321
vn 0 -0.2617028 -0.9651486
vn -2.497204E-06 -0.2617231 -0.965143
vn -6.831024E-07 -0.2617474 -0.9651363
vn 0 -0.2617236 -0.9651428
vn 0 -0.2617255 -0.9651424
vn 0 0.2617242 0.9651427
vn 0 0.2617269 0.965142
vn 0 0.2617269 0.965142
vn 0 -0.261727 -0.965142
vn 0 -0.261727 -0.9651419
vn -1 -2.26638E-06 -8.357478E-06
vn -1 -2.26638E-06 -8.357478E-06
vn 0 -0.2617271 -0.965142
vn 0 -0.2617261 -0.9651422
vn 0 -0.2617249 -0.9651425
vn -4.686927E-07 -0.2617681 -0.9651309
vn 0 -0.2617271 -0.9651418
vn 2.541593E-07 -0.2617241 -0.9651427
vn 0 -0.2617261 -0.9651422
vn 0 -0.2617249 -0.9651425
vn 0 -0.2617271 -0.9651419
vn 0 0.2607268 -0.9654127
vn 0 0.260739 -0.9654093
vn 0 0.2607388 -0.9654093
vn 0 0.2607212 -0.9654142
vn 0 0.2607363 -0.9654101
vn 0 0.2607383 -0.9654094
vn 0 0.2607345 -0.9654105
vn 0 0.2607345 -0.9654105
vn -4.473015E-06 -0.2607676 0.9654015
vn -1.549718E-06 -0.2607476 0.965407
vn -2.2243E-07 -0.2607483 0.9654069
vn -4.168934E-07 -0.2607346 0.9654105
vn 0 -0.2607311 0.9654115
vn 0 -0.2607312 0.9654115
vn 0 -0.260733 0.965411
vn 0 -0.2607329 0.9654109
vn 1 0 0
vn 1 0 0
vn 0.9965342 0.0804138 0.02128866
vn 0.9678038 0.2433227 0.06441803
vn -1 0 0
vn -1 0 0
vn -0.9999999 0 0
vn -0.9999999 0 0
vn 1 0 0
vn 1 0 0
vn 0.9120365 0.3964504 0.1049592
vn 0.8148859 0.5603179 0.1483403
vn -1 -2.257586E-06 8.35986E-06
vn -1 -2.257589E-06 8.359861E-06
vn -0.9120376 0.3964463 0.1049663
vn -0.8148843 0.560319 0.1483444
vn 3.081E-06 -0.2607518 0.9654059
vn -6.72958E-07 -0.2607322 0.9654112
vn -1.735325E-06 -0.260745 0.9654077
vn -3.85416E-06 -0.2607664 0.9654019
vn -9.249477E-08 -0.9666953 -0.2559293
vn -2.774843E-07 -0.9666954 -0.25593
vn -9.249477E-08 -0.9666953 -0.2559293
vn 0 -0.9666955 -0.255929
vn 0 -0.9666954 -0.255929
vn 0 -0.9666954 -0.255929
vn 0 -0.9666954 -0.255929
vn -0.9678034 0.2433245 0.06441951
vn -0.9965342 0.08041506 0.02128882
vn 0 0.2607111 -0.9654169
vn 0 0.2607111 -0.9654169
vn -1.67313E-06 -0.2607418 0.9654086
vn 0 -0.2607117 0.9654167
vn 2.445604E-06 -0.2607739 0.9653999
vn 2.642285E-05 -0.2607404 0.965409
vn 4.848895E-08 0.2607244 -0.9654133
vn 9.150412E-08 0.2607247 -0.9654132
vn 4.993844E-08 0.2607312 -0.9654114
vn 0 0.2607307 -0.9654115
vn -2.219421E-06 -0.2607447 0.9654077
vn -4.897512E-07 -0.2607253 0.965413
vn -2.561114E-06 -0.260736 0.9654102
vn 0 -0.2607324 0.9654112
vn -1 -2.257586E-06 8.359857E-06
vn -1 -2.257596E-06 8.359858E-06
vn -0.9120344 -0.396457 -0.1049533
vn -0.8148836 -0.5603215 -0.1483394
vn 1 0 0
vn 1 0 0
vn 0.9120365 -0.3964505 -0.1049589
vn 0.8148855 -0.5603179 -0.1483428
vn 4.16128E-07 -0.260734 0.9654107
vn 8.790657E-07 -0.2607157 0.9654157
vn 3.63748E-06 -0.2607166 0.9654152
vn 9.898642E-07 -0.260738 0.9654096
vn -0.7498043 -0.6396242 -0.1693356
vn -0.749806 -0.6396214 -0.1693376
vn 0.7498065 -0.6396208 -0.1693381
vn 0.749806 -0.6396212 -0.1693389
vn 4.572865E-08 0.2607116 -0.9654166
vn 0 0.2607126 -0.9654164
vn 1.305598E-06 -0.2606859 0.9654236
vn 0 -0.2607118 0.9654167
vn -2.064722E-06 -0.2606986 0.9654202
vn 9.828898E-07 -0.2607242 0.9654133
vn 0 -0.2607311 0.9654115
vn -7.273157E-08 -0.2607331 0.9654109
vn -8.878047E-08 -0.2607346 0.9654105
vn 0 -0.2607345 0.9654105
vn 1 0 0
vn 1 0 0
vn -2.657273E-07 -0.2607347 0.9654105
vn 0 -0.2607335 0.9654109
vn 0 -0.2607324 0.965411
vn 1.388541E-07 -0.2607337 0.9654108
vn 3.824094E-06 -0.2607351 0.9654104
vn 0 -0.2607335 0.9654108
vn -3.702248E-07 -0.2607324 0.9654111

vt 0.5299966 0.05568135
vt 0.5299968 0.1870635
vt 0.7456331 0.1870634
vt 0.7456329 0.0556813
vt 0.5467002 0.3461061
vt 0.5467002 0.3963575
vt 0.501672 0.3963575
vt 0.4540408 0.3461628
vt 0.5515311 0.3963575
vt 0.7437307 0.3963575
vt 0.7437401 0.6365799
vt 0.5515311 0.63658
vt -0.04271818 0.6330452
vt 0.04606068 0.6330451
vt 0.04606068 0.4325372
vt -0.04271817 0.4325372
vt -0.04271812 0.6330452
vt 0.04606068 0.6330452
vt 0.04606065 0.8335531
vt -0.04271806 0.8335531
vt 0.04606056 0.3704793
vt -0.04271815 0.3704794
vt -0.04271815 0.3906409
vt 0.04606056 0.3906409
vt -0.04271809 0.3704796
vt 0.04606068 0.3704795
vt 0.04606068 0.390641
vt -0.04271809 0.390641
vt 0.7908469 0.1870634
vt 0.7906904 0.02930201
vt 0.9324924 0.3461068
vt 0.9324924 0.3963574
vt 0.7388998 0.3963575
vt 0.7388998 0.3459883
vt 0.346291 0.3028128
vt 0.1126462 0.3028128
vt 0.1126462 0.06916791
vt 0.346291 0.3028128
vt 0.1126462 0.3028128
vt 0.1126462 0.06916791
vt 0.346291 0.06916791
vt 0.04606068 0.4325373
vt -0.04271811 0.4325373
vt 0.812373 0.029302
vt 0.8123731 0.1870634
vt 0.7388998 0.3220079
vt 0.4540408 0.3220079
vt 1.023759 0.3220078
vt 1.023759 0.3461626
vt 0.7389206 0.9273564
vt 0.7388999 0.9775407
vt 0.5467002 0.977423
vt 0.5467002 0.9273564
vt 0.04606077 0.9376529
vt -0.04271796 0.9376529
vt -0.04271796 0.9174914
vt 0.04606065 0.9174914
vt -0.04271802 0.9376528
vt 0.04606065 0.9376528
vt 0.04606065 0.9174913
vt -0.04271808 0.9174913
vt 0.2239324 0.1870635
vt 0.2691463 0.0556814
vt 0.2240888 0.02930211
vt 0.9761277 0.9273564
vt 1.023759 0.9773662
vt 0.9324924 0.9774221
vt 0.9324925 0.9273564
vt -0.04271808 0.8755951
vt 0.04606065 0.8755951
vt 0.04606065 0.875595
vt -0.04271808 0.875595
vt 0.2024062 0.02930211
vt 0.2024064 0.1870635
vt 0.7389 1.001521
vt 1.023759 1.001521
vt 0.4540409 1.001521
vt 0.4540409 0.9773664
vt 0.9373233 0.3963574
vt 0.9373233 0.6365799
vt 0.2691464 0.1870635
vt 0.3143604 0.05568138
vt 0.3143604 0.1870635
vt 0.7437495 0.9273601
vt 0.5515311 0.9273601
vt -0.04271812 0.8335531
vt 0.04606065 0.8335531
vt 0.9373233 0.9273601
vt 0.5467002 0.63658
vt 0.5016721 0.63658
vt 0.5016722 0.9273564
vt 0.5016721 0.9273601
vt 0.9761276 0.3963574
vt 0.9761276 0.6365799
vt 0.9324924 0.6365799
vt 0.9761277 0.9273601
vt 0.7908469 0.1870634
vt 0.7456331 0.1870634
vt 0.7456331 0.3184455
vt 0.7906905 0.3448248
vt 0.5299968 0.3184456
vt 0.5299968 0.1870635
vt 0.3143604 0.1870635
vt 0.3143606 0.3184456
vt 0.5467002 0.3461061
vt 0.5467002 0.3963575
vt 0.501672 0.3963575
vt 0.4540408 0.3461628
vt 0.5515311 0.3963575
vt 0.7437307 0.3963575
vt 0.7437401 0.6365799
vt 0.5515311 0.63658
vt -0.04271818 0.6330452
vt 0.04606068 0.6330451
vt 0.04606068 0.4325372
vt -0.04271817 0.4325372
vt -0.04271812 0.6330452
vt 0.04606068 0.6330452
vt 0.04606065 0.8335531
vt -0.04271806 0.8335531
vt 0.04606056 0.3704793
vt -0.04271815 0.3704794
vt -0.04271815 0.3906409
vt 0.04606056 0.3906409
vt -0.04271809 0.3704796
vt 0.04606068 0.3704795
vt 0.04606068 0.390641
vt -0.04271809 0.390641
vt 0.9324924 0.3461068
vt 0.9324924 0.3963574
vt 0.7388998 0.3963575
vt 0.7388998 0.3459883
vt 0.346291 0.3028128
vt 0.1126462 0.3028128
vt 0.1126462 0.06916791
vt 0.346291 0.06916791
vt 0.1126462 0.06916791
vt 0.346291 0.06916791
vt 0.346291 0.3028128
vt 0.04606068 0.4325373
vt -0.04271811 0.4325373
vt 0.8123732 0.3448248
vt 0.8123731 0.1870634
vt 0.7388998 0.3220079
vt 0.4540408 0.3220079
vt 1.023759 0.3220078
vt 1.023759 0.3461626
vt 0.2239324 0.1870635
vt 0.2240891 0.3448249
vt 0.2691465 0.3184456
vt 0.2691464 0.1870635
vt 0.7389206 0.9273564
vt 0.7388999 0.9775407
vt 0.5467002 0.977423
vt 0.5467002 0.9273564
vt 0.04606077 0.9376529
vt -0.04271796 0.9376529
vt -0.04271796 0.9174914
vt 0.04606065 0.9174914
vt -0.04271802 0.9376528
vt 0.04606065 0.9376528
vt 0.04606065 0.9174913
vt -0.04271808 0.9174913
vt 0.9761277 0.9273564
vt 1.023759 0.9773662
vt 0.9324924 0.9774221
vt 0.9324925 0.9273564
vt -0.04271808 0.8755951
vt 0.04606065 0.8755951
vt 0.04606065 0.875595
vt -0.04271808 0.875595
vt 0.2024065 0.3448249
vt 0.2024064 0.1870635
vt 0.7389 1.001521
vt 1.023759 1.001521
vt 0.4540409 1.001521
vt 0.4540409 0.9773664
vt 0.9373233 0.3963574
vt 0.9373233 0.6365799
vt 0.7437495 0.9273601
vt 0.5515311 0.9273601
vt -0.04271812 0.8335531
vt 0.04606065 0.8335531
vt 0.9373233 0.9273601
vt 0.5467002 0.63658
vt 0.5016721 0.63658
vt 0.5016722 0.9273564
vt 0.9761276 0.3963574
vt 0.9761276 0.6365799
vt 0.9324924 0.6365799

usemtl sn22_32_sn2315.JPG
usemap sn22_32_sn2315.JPG
f 3/3/3 1/1/1 2/2/2
f 1/1/1 3/3/3 4/4/4
f 7/7/7 5/5/5 6/6/6
f 5/5/5 7/7/7 8/8/8
f 11/11/11 9/9/9 10/10/10
f 9/9/9 11/11/11 12/12/12
f 15/15/15 13/13/13 14/14/14
f 13/13/13 15/15/15 16/16/16
f 19/19/19 17/17/17 18/18/18
f 17/17/17 19/19/19 20/20/20
f 23/23/23 21/21/21 22/22/22
f 21/21/21 23/23/23 24/24/24
f 27/27/27 25/25/25 26/26/26
f 25/25/25 27/27/27 28/28/28
f 29/29/29 4/4/4 3/3/3
f 4/4/4 29/29/29 30/30/30
f 33/33/33 31/31/31 32/32/32
f 31/31/31 33/33/33 34/34/34
f 37/37/37 35/35/35 36/36/36
f 40/40/40 38/38/38 39/39/39
f 38/38/38 40/40/40 41/41/41
f 16/16/16 24/24/24 23/23/23
f 24/24/24 16/16/16 15/15/15
f 42/42/42 28/28/28 27/27/27
f 28/28/28 42/42/42 43/43/43
f 29/29/29 44/44/44 30/30/30
f 44/44/44 29/29/29 45/45/45
f 5/5/5 46/46/46 34/34/34
f 8/8/8 46/46/46 5/5/5
f 47/47/47 46/46/46 8/8/8
f 48/48/48 34/34/34 46/46/46
f 31/31/31 48/48/48 49/49/49
f 31/31/31 34/34/34 48/48/48
f 52/52/52 50/50/50 51/51/51
f 50/50/50 52/52/52 53/53/53
f 56/56/56 54/54/54 55/55/55
f 54/54/54 56/56/56 57/57/57
f 60/60/60 58/58/58 59/59/59
f 58/58/58 60/60/60 61/61/61
f 64/64/64 62/62/62 63/63/63
f 67/67/67 65/65/65 66/66/66
f 65/65/65 67/67/67 68/68/68
f 69/69/69 57/57/57 56/56/56
f 57/57/57 69/69/69 70/70/70
f 71/71/71 61/61/61 60/60/60
f 61/61/61 71/71/71 72/72/72
f 74/74/74 64/64/64 73/73/73
f 64/64/64 74/74/74 62/62/62
f 67/67/67 75/75/75 51/51/51
f 66/66/66 75/75/75 67/67/67
f 76/76/76 75/75/75 66/66/66
f 52/52/52 77/77/77 78/78/78
f 51/51/51 77/77/77 52/52/52
f 75/75/75 77/77/77 51/51/51
f 80/80/80 10/10/10 79/79/79
f 10/10/10 80/80/80 11/11/11
f 63/63/63 62/62/62 81/81/81
f 2/2/2 82/82/82 83/83/83
f 82/82/82 2/2/2 1/1/1
f 85/85/85 11/11/11 84/84/84
f 11/11/11 85/85/85 12/12/12
f 14/14/14 86/86/86 87/87/87
f 86/86/86 14/14/14 13/13/13
f 18/18/18 43/43/43 42/42/42
f 43/43/43 18/18/18 17/17/17
f 84/84/84 80/80/80 88/88/88
f 80/80/80 84/84/84 11/11/11
f 34/34/34 6/6/6 5/5/5
f 6/6/6 34/34/34 33/33/33
f 90/90/90 6/6/6 89/89/89
f 6/6/6 90/90/90 7/7/7
f 52/52/52 91/91/91 53/53/53
f 91/91/91 52/52/52 78/78/78
f 92/92/92 89/89/89 53/53/53
f 89/89/89 92/92/92 90/90/90
f 93/93/93 31/31/31 49/49/49
f 31/31/31 93/93/93 32/32/32
f 68/68/68 51/51/51 50/50/50
f 51/51/51 68/68/68 67/67/67
f 95/95/95 93/93/93 94/94/94
f 93/93/93 95/95/95 32/32/32
f 68/68/68 94/94/94 96/96/96
f 94/94/94 68/68/68 95/95/95
f 99/99/99 97/97/97 98/98/98
f 97/97/97 99/99/99 100/100/100
f 103/103/103 101/101/101 102/102/102
f 101/101/101 103/103/103 104/104/104
f 107/107/107 105/105/105 106/106/106
f 105/105/105 107/107/107 108/108/108
f 111/111/111 109/109/109 110/110/110
f 109/109/109 111/111/111 112/112/112
f 115/115/115 113/113/113 114/114/114
f 113/113/113 115/115/115 116/116/116
f 119/119/119 117/117/117 118/118/118
f 117/117/117 119/119/119 120/120/120
f 123/123/123 121/121/121 122/122/122
f 121/121/121 123/123/123 124/124/124
f 127/127/127 125/125/125 126/126/126
f 125/125/125 127/127/127 128/128/128
f 131/131/131 129/129/129 130/130/130
f 129/129/129 131/131/131 132/132/132
f 135/135/135 133/133/133 134/134/134
f 133/133/133 135/135/135 136/136/136
f 139/139/139 137/137/137 138/138/138
f 116/116/116 124/124/124 123/123/123
f 124/124/124 116/116/116 115/115/115
f 140/140/140 128/128/128 127/127/127
f 128/128/128 140/140/140 141/141/141
f 143/143/143 100/100/100 142/142/142
f 100/100/100 143/143/143 97/97/97
f 105/105/105 144/144/144 132/132/132
f 108/108/108 144/144/144 105/105/105
f 145/145/145 144/144/144 108/108/108
f 146/146/146 132/132/132 144/144/144
f 129/129/129 146/146/146 147/147/147
f 129/129/129 132/132/132 146/146/146
f 150/150/150 148/148/148 149/149/149
f 148/148/148 150/150/150 151/151/151
f 154/154/154 152/152/152 153/153/153
f 152/152/152 154/154/154 155/155/155
f 158/158/158 156/156/156 157/157/157
f 156/156/156 158/158/158 159/159/159
f 162/162/162 160/160/160 161/161/161
f 160/160/160 162/162/162 163/163/163
f 166/166/166 164/164/164 165/165/165
f 164/164/164 166/166/166 167/167/167
f 168/168/168 159/159/159 158/158/158
f 159/159/159 168/168/168 169/169/169
f 170/170/170 163/163/163 162/162/162
f 163/163/163 170/170/170 171/171/171
f 148/148/148 172/172/172 149/149/149
f 172/172/172 148/148/148 173/173/173
f 166/166/166 174/174/174 153/153/153
f 165/165/165 174/174/174 166/166/166
f 175/175/175 174/174/174 165/165/165
f 154/154/154 176/176/176 177/177/177
f 153/153/153 176/176/176 154/154/154
f 174/174/174 176/176/176 153/153/153
f 179/179/179 110/110/110 178/178/178
f 110/110/110 179/179/179 111/111/111
f 102/102/102 99/99/99 98/98/98
f 99/99/99 102/102/102 101/101/101
f 181/181/181 111/111/111 180/180/180
f 111/111/111 181/181/181 112/112/112
f 114/114/114 182/182/182 183/183/183
f 182/182/182 114/114/114 113/113/113
f 118/118/118 141/141/141 140/140/140
f 141/141/141 118/118/118 117/117/117
f 180/180/180 179/179/179 184/184/184
f 179/179/179 180/180/180 111/111/111
f 132/132/132 106/106/106 105/105/105
f 106/106/106 132/132/132 131/131/131
f 186/186/186 106/106/106 185/185/185
f 106/106/106 186/186/186 107/107/107
f 154/154/154 187/187/187 155/155/155
f 187/187/187 154/154/154 177/177/177
f 187/187/187 185/185/185 155/155/155
f 185/185/185 187/187/187 186/186/186
f 188/188/188 129/129/129 147/147/147
f 129/129/129 188/188/188 130/130/130
f 167/167/167 153/153/153 152/152/152
f 153/153/153 167/167/167 166/166/166
f 190/190/190 188/188/188 189/189/189
f 188/188/188 190/190/190 130/130/130
f 167/167/167 189/189/189 164/164/164
f 189/189/189 167/167/167 190/190/190
