mtllib ./P05.mtl
g P05
v -20.00135 0.09634596 -0.01023747
v -10.90196 5.133657 10.89058
v -15.4094 5.133657 -0.007804308
v -14.15072 0.09634596 14.13585
v -14.15072 0.09634596 14.13585
v -0.008400391 5.133657 15.40965
v -10.90196 5.133657 10.89058
v -0.01088474 0.09634596 20.00164
v -0.01088474 0.09634596 20.00164
v 10.88997 5.133657 10.90224
v -0.008400391 5.133657 15.40965
v 14.13522 0.09634596 14.15099
v 14.13522 0.09634596 14.15099
v 15.40903 5.133657 0.008709619
v 10.88997 5.133657 10.90224
v 20.00098 0.09634596 0.01114278
v 20.00098 0.09634596 0.01114278
v 10.90159 5.133657 -10.88967
v 15.40903 5.133657 0.008709619
v 14.15032 0.09634596 -14.13496
v 14.15032 0.09634596 -14.13496
v 0.008034059 5.133657 -15.40874
v 10.90159 5.133657 -10.88967
v 0.0105184 0.09634596 -20.00074
v 0.0105184 0.09634596 -20.00074
v -10.89034 5.133657 -10.90134
v 0.008034059 5.133657 -15.40874
v -14.13558 0.09634596 -14.15008
v -14.13558 0.09634596 -14.15008
v -15.4094 5.133657 -0.007804308
v -10.89034 5.133657 -10.90134
v -20.00135 0.09634596 -0.01023747
v 15.40903 5.133657 0.008709619
v -0.008400391 5.133657 15.40965
v 10.88997 5.133657 10.90224
v 10.90159 5.133657 -10.88967
v -10.90196 5.133657 10.89058
v 0.008034059 5.133657 -15.40874
v -10.89034 5.133657 -10.90134
v -15.4094 5.133657 -0.007804308

vn -0.5457097 0.6441784 0.5359433
vn -0.5457097 0.6441784 0.5359433
vn -0.5457098 0.6441776 0.5359441
vn -0.5457096 0.6441789 0.5359426
vn -0.006905973 0.6441801 0.7648426
vn -0.006905973 0.6441801 0.7648426
vn -0.006905019 0.6441785 0.7648438
vn -0.006906718 0.6441813 0.7648417
vn 0.5359433 0.6441784 0.5457097
vn 0.5359433 0.6441784 0.5457097
vn 0.5359417 0.6441798 0.5457095
vn 0.5359445 0.6441773 0.5457099
vn 0.7648462 0.644176 0.006905183
vn 0.7648462 0.644176 0.006905183
vn 0.7648463 0.6441758 0.00690504
vn 0.7648461 0.6441762 0.006905239
vn 0.5457099 0.6441774 -0.5359443
vn 0.5457099 0.6441774 -0.5359443
vn 0.5457098 0.6441776 -0.5359441
vn 0.54571 0.6441772 -0.5359444
vn 0.006906003 0.6441801 -0.7648426
vn 0.006906003 0.6441801 -0.7648426
vn 0.006904989 0.6441786 -0.7648439
vn 0.006906748 0.6441814 -0.7648416
vn -0.5359433 0.6441785 -0.5457096
vn -0.5359433 0.6441785 -0.5457096
vn -0.5359417 0.6441798 -0.5457094
vn -0.5359443 0.6441773 -0.5457098
vn -0.7648461 0.6441761 -0.006905155
vn -0.7648461 0.6441761 -0.006905155
vn -0.7648463 0.6441759 -0.00690504
vn -0.764846 0.6441762 -0.006905299
vn 0 1 0
vn 0 1 0
vn 0 1 0
vn 0 1 0
vn 0 1 0
vn 0 1 0
vn 0 1 0
vn 0 0.9999999 0

vt 0 0.2173913
vt 0.9771492 0.6425121
vt 0.04570157 0.6425121
vt 1 0.2173913
vt 0 0.2173913
vt 0.9771492 0.6425121
vt 0.04570157 0.6425121
vt 1 0.2173913
vt 0 0.2173913
vt 0.9771492 0.6425121
vt 0.04570157 0.6425121
vt 1 0.2173913
vt 0 0.2173913
vt 0.9771492 0.6425121
vt 0.04570157 0.6425121
vt 1 0.2173913
vt 0 0.2173913
vt 0.9771492 0.6425121
vt 0.04570157 0.6425121
vt 1 0.2173913
vt 0 0.2173913
vt 0.9771492 0.6425121
vt 0.04570157 0.6425121
vt 1 0.2173913
vt 0 0.2173913
vt 0.9771492 0.6425121
vt 0.04570157 0.6425121
vt 1 0.2173913
vt 0 0.2173913
vt 0.9771492 0.6425121
vt 0.04570157 0.6425121
vt 1 0.2173913
vt 0.1148203 0.3800636
vt 0.3583111 0.9269525
vt 0.1233013 0.7039366
vt 0.3378362 0.1450539
vt 0.682184 0.9184715
vt 0.6617092 0.1365729
vt 0.8967189 0.3595888
vt 0.9051998 0.6834618

usemtl sn22_24_sn16g42.jpg
usemap sn22_24_sn16g42.jpg
f 3/3/3 1/1/1 2/2/2
f 2/2/2 1/1/1 4/4/4
f 7/7/7 5/5/5 6/6/6
f 6/6/6 5/5/5 8/8/8
f 11/11/11 9/9/9 10/10/10
f 10/10/10 9/9/9 12/12/12
f 15/15/15 13/13/13 14/14/14
f 14/14/14 13/13/13 16/16/16
f 19/19/19 17/17/17 18/18/18
f 18/18/18 17/17/17 20/20/20
f 23/23/23 21/21/21 22/22/22
f 22/22/22 21/21/21 24/24/24
f 27/27/27 25/25/25 26/26/26
f 26/26/26 25/25/25 28/28/28
f 31/31/31 29/29/29 30/30/30
f 30/30/30 29/29/29 32/32/32

usemtl sn22_25_sngsc31.jpg
usemap sn22_25_sngsc31.jpg
f 35/35/35 33/33/33 34/34/34
f 33/33/33 36/36/36 34/34/34
f 36/36/36 37/37/37 34/34/34
f 38/38/38 37/37/37 36/36/36
f 39/39/39 37/37/37 38/38/38
f 40/40/40 37/37/37 39/39/39
