mtllib ./P12.mtl
g P12
v -20.0015 0.09634596 -0.01108817
v -10.90208 5.133657 10.88974
v -15.40949 5.133657 -0.008632113
v -14.15084 0.09634596 14.13501
v -14.15084 0.09634596 14.13501
v -0.008550006 5.133657 15.4088
v -10.90208 5.133657 10.88974
v -0.01100606 0.09634596 20.0008
v -0.01100606 0.09634596 20.0008
v 10.88982 5.133657 10.90139
v -0.008550006 5.133657 15.4088
v 14.1351 0.09634596 14.15015
v 14.1351 0.09634596 14.15015
v 15.40894 5.133657 0.007881814
v 10.88982 5.133657 10.90139
v 20.00089 0.09634596 0.01031497
v 20.00089 0.09634596 0.01031497
v 10.90147 5.133657 -10.89051
v 15.40894 5.133657 0.007881814
v 14.15023 0.09634596 -14.13579
v 14.15023 0.09634596 -14.13579
v 0.007941025 5.133657 -15.40957
v 10.90147 5.133657 -10.89051
v 0.01039708 0.09634596 -20.00158
v 0.01039708 0.09634596 -20.00158
v -10.89043 5.133657 -10.90216
v 0.007941025 5.133657 -15.40957
v -14.1357 0.09634596 -14.15092
v -14.1357 0.09634596 -14.15092
v -15.40949 5.133657 -0.008632113
v -10.89043 5.133657 -10.90216
v -20.0015 0.09634596 -0.01108817
v 15.40894 5.133657 0.007881814
v -0.008550006 5.133657 15.4088
v 10.88982 5.133657 10.90139
v 10.90147 5.133657 -10.89051
v -10.90208 5.133657 10.88974
v 0.007941025 5.133657 -15.40957
v -10.89043 5.133657 -10.90216
v -15.40949 5.133657 -0.008632113

vn -0.5457085 0.6441803 0.5359421
vn -0.5457085 0.6441803 0.5359421
vn -0.5457083 0.6441817 0.5359406
vn -0.5457087 0.6441792 0.5359433
vn -0.006906003 0.6441801 0.7648427
vn -0.006906003 0.6441801 0.7648427
vn -0.006905049 0.6441786 0.7648441
vn -0.006906718 0.6441813 0.7648417
vn 0.5359421 0.6441802 0.5457087
vn 0.5359421 0.6441802 0.5457087
vn 0.5359406 0.6441816 0.5457084
vn 0.5359433 0.6441792 0.5457088
vn 0.7648449 0.6441773 0.006907783
vn 0.7648449 0.6441773 0.006907783
vn 0.7648433 0.6441794 0.006908996
vn 0.7648463 0.6441758 0.00690677
vn 0.5457089 0.6441782 -0.5359442
vn 0.5457089 0.6441782 -0.5359442
vn 0.545709 0.6441771 -0.5359453
vn 0.5457088 0.6441792 -0.5359433
vn 0.006906062 0.6441801 -0.7648426
vn 0.006906062 0.6441801 -0.7648426
vn 0.006905049 0.6441786 -0.7648441
vn 0.006906778 0.6441813 -0.7648417
vn -0.5359421 0.6441803 -0.5457085
vn -0.5359421 0.6441803 -0.5457085
vn -0.5359406 0.6441817 -0.5457083
vn -0.5359433 0.6441792 -0.5457087
vn -0.7648426 0.6441801 -0.006906027
vn -0.7648426 0.6441801 -0.006906027
vn -0.7648441 0.6441786 -0.006905042
vn -0.7648416 0.6441814 -0.006906779
vn 0 1 0
vn 0 1 0
vn 0 1 0
vn 0 1 0
vn 0 0.9999999 0
vn 0 1 0
vn 0 1 0
vn 0 1 0

vt 0 0.2173913
vt 0.9771492 0.6425121
vt 0.04570157 0.6425121
vt 1 0.2173913
vt 0 0.2173913
vt 0.9771492 0.6425121
vt 0.04570157 0.6425121
vt 1 0.2173913
vt 0 0.2173913
vt 0.9771492 0.6425121
vt 0.04570157 0.6425121
vt 1 0.2173913
vt 0 0.2173913
vt 0.9771492 0.6425121
vt 0.04570157 0.6425121
vt 1 0.2173913
vt 0 0.2173913
vt 0.9771492 0.6425121
vt 0.04570157 0.6425121
vt 1 0.2173913
vt 0 0.2173913
vt 0.9771492 0.6425121
vt 0.04570157 0.6425121
vt 1 0.2173913
vt 0 0.2173913
vt 0.9771492 0.6425121
vt 0.04570157 0.6425121
vt 1 0.2173913
vt 0 0.2173913
vt 0.9771492 0.6425121
vt 0.04570157 0.6425121
vt 1 0.2173913
vt 0.1148203 0.3800636
vt 0.3583111 0.9269525
vt 0.1233013 0.7039366
vt 0.3378362 0.1450539
vt 0.682184 0.9184715
vt 0.6617092 0.1365729
vt 0.8967189 0.3595888
vt 0.9051998 0.6834618

usemtl sn22_24_sn16g42.jpg
usemap sn22_24_sn16g42.jpg
f 3/3/3 1/1/1 2/2/2
f 2/2/2 1/1/1 4/4/4
f 7/7/7 5/5/5 6/6/6
f 6/6/6 5/5/5 8/8/8
f 11/11/11 9/9/9 10/10/10
f 10/10/10 9/9/9 12/12/12
f 15/15/15 13/13/13 14/14/14
f 14/14/14 13/13/13 16/16/16
f 19/19/19 17/17/17 18/18/18
f 18/18/18 17/17/17 20/20/20
f 23/23/23 21/21/21 22/22/22
f 22/22/22 21/21/21 24/24/24
f 27/27/27 25/25/25 26/26/26
f 26/26/26 25/25/25 28/28/28
f 31/31/31 29/29/29 30/30/30
f 30/30/30 29/29/29 32/32/32

usemtl sn22_25_sngsc31.jpg
usemap sn22_25_sngsc31.jpg
f 35/35/35 33/33/33 34/34/34
f 33/33/33 36/36/36 34/34/34
f 36/36/36 37/37/37 34/34/34
f 38/38/38 37/37/37 36/36/36
f 39/39/39 37/37/37 38/38/38
f 40/40/40 37/37/37 39/39/39
