mtllib ./P15.mtl
g P15
v -20.00135 0.09634596 -0.01083256
v -10.90196 5.133657 10.88998
v -15.4094 5.133657 -0.008396543
v -14.1507 0.09634596 14.13527
v -14.1507 0.09634596 14.13527
v -0.008406511 5.133657 15.40905
v -10.90196 5.133657 10.88998
v -0.01085382 0.09634596 20.001
v -0.01085382 0.09634596 20.001
v 10.88999 5.133657 10.90159
v -0.008406511 5.133657 15.40905
v 14.13526 0.09634596 14.15028
v 14.13526 0.09634596 14.15028
v 15.40908 5.133657 0.00800422
v 10.88999 5.133657 10.90159
v 20.00103 0.09634596 0.01044024
v 20.00103 0.09634596 0.01044024
v 10.90164 5.133657 -10.89038
v 15.40908 5.133657 0.00800422
v 14.15038 0.09634596 -14.13566
v 14.15038 0.09634596 -14.13566
v 0.008080802 5.133657 -15.40945
v 10.90164 5.133657 -10.89038
v 0.01053518 0.09634596 -20.00139
v 0.01053518 0.09634596 -20.00139
v -10.8903 5.133657 -10.90198
v 0.008080802 5.133657 -15.40945
v -14.13558 0.09634596 -14.15067
v -14.13558 0.09634596 -14.15067
v -15.4094 5.133657 -0.008396543
v -10.8903 5.133657 -10.90198
v -20.00135 0.09634596 -0.01083256
v 15.40908 5.133657 0.00800422
v -0.008406511 5.133657 15.40905
v 10.88999 5.133657 10.90159
v 10.90164 5.133657 -10.89038
v -10.90196 5.133657 10.88998
v 0.008080802 5.133657 -15.40945
v -10.8903 5.133657 -10.90198
v -15.4094 5.133657 -0.008396543

vn -0.5457095 0.644178 0.5359436
vn -0.5457095 0.644178 0.5359436
vn -0.5457096 0.644178 0.5359439
vn -0.5457096 0.6441782 0.5359436
vn -0.006904334 0.6441774 0.764845
vn -0.006904334 0.6441774 0.764845
vn -0.006905049 0.6441786 0.7648441
vn -0.006903797 0.6441765 0.7648457
vn 0.535947 0.6441754 0.5457097
vn 0.535947 0.6441754 0.5457097
vn 0.5359458 0.6441763 0.5457095
vn 0.5359478 0.6441745 0.5457098
vn 0.7648456 0.6441767 0.006905589
vn 0.7648456 0.6441767 0.006905589
vn 0.7648456 0.6441766 0.006905561
vn 0.7648455 0.6441767 0.006905619
vn 0.5457096 0.6441781 -0.5359437
vn 0.5457096 0.6441781 -0.5359437
vn 0.5457096 0.644178 -0.5359439
vn 0.5457096 0.6441782 -0.5359437
vn 0.006904304 0.6441774 -0.764845
vn 0.006904304 0.6441774 -0.764845
vn 0.006905109 0.6441786 -0.7648439
vn 0.006903738 0.6441764 -0.7648458
vn -0.5359472 0.6441749 -0.5457098
vn -0.5359472 0.6441749 -0.5457098
vn -0.5359464 0.6441756 -0.5457097
vn -0.5359478 0.6441744 -0.54571
vn -0.7648456 0.6441767 -0.006905589
vn -0.7648456 0.6441767 -0.006905589
vn -0.7648457 0.6441765 -0.006905444
vn -0.7648455 0.6441767 -0.006905619
vn 0 1 0
vn 0 1 0
vn 0 0.9999999 0
vn 0 1 0
vn 0 1 0
vn 0 1 0
vn 0 1 0
vn 0 1 0

vt 0 0.2173913
vt 0.9771492 0.6425121
vt 0.04570157 0.6425121
vt 1 0.2173913
vt 0 0.2173913
vt 0.9771492 0.6425121
vt 0.04570157 0.6425121
vt 1 0.2173913
vt 0 0.2173913
vt 0.9771492 0.6425121
vt 0.04570157 0.6425121
vt 1 0.2173913
vt 0 0.2173913
vt 0.9771492 0.6425121
vt 0.04570157 0.6425121
vt 1 0.2173913
vt 0 0.2173913
vt 0.9771492 0.6425121
vt 0.04570157 0.6425121
vt 1 0.2173913
vt 0 0.2173913
vt 0.9771492 0.6425121
vt 0.04570157 0.6425121
vt 1 0.2173913
vt 0 0.2173913
vt 0.9771492 0.6425121
vt 0.04570157 0.6425121
vt 1 0.2173913
vt 0 0.2173913
vt 0.9771492 0.6425121
vt 0.04570157 0.6425121
vt 1 0.2173913
vt 0.1148203 0.3800636
vt 0.3583111 0.9269525
vt 0.1233013 0.7039366
vt 0.3378362 0.1450539
vt 0.682184 0.9184715
vt 0.6617092 0.1365729
vt 0.8967189 0.3595888
vt 0.9051998 0.6834618

usemtl sn22_24_sn16g42.jpg
usemap sn22_24_sn16g42.jpg
f 3/3/3 1/1/1 2/2/2
f 2/2/2 1/1/1 4/4/4
f 7/7/7 5/5/5 6/6/6
f 6/6/6 5/5/5 8/8/8
f 11/11/11 9/9/9 10/10/10
f 10/10/10 9/9/9 12/12/12
f 15/15/15 13/13/13 14/14/14
f 14/14/14 13/13/13 16/16/16
f 19/19/19 17/17/17 18/18/18
f 18/18/18 17/17/17 20/20/20
f 23/23/23 21/21/21 22/22/22
f 22/22/22 21/21/21 24/24/24
f 27/27/27 25/25/25 26/26/26
f 26/26/26 25/25/25 28/28/28
f 31/31/31 29/29/29 30/30/30
f 30/30/30 29/29/29 32/32/32

usemtl sn22_25_sngsc31.jpg
usemap sn22_25_sngsc31.jpg
f 35/35/35 33/33/33 34/34/34
f 33/33/33 36/36/36 34/34/34
f 36/36/36 37/37/37 34/34/34
f 38/38/38 37/37/37 36/36/36
f 39/39/39 37/37/37 38/38/38
f 40/40/40 37/37/37 39/39/39
