mtllib ./P16.mtl
g P16
v -20.00157 0.09634596 -0.01091842
v -10.90215 5.133657 10.88991
v -15.40956 5.133657 -0.008462368
v -14.15091 0.09634596 14.13518
v -14.15091 0.09634596 14.13518
v -0.008618693 5.133657 15.40897
v -10.90215 5.133657 10.88991
v -0.01105185 0.09634596 20.00092
v -0.01105185 0.09634596 20.00092
v 10.88977 5.133657 10.9015
v -0.008618693 5.133657 15.40897
v 14.13507 0.09634596 14.1502
v 14.13507 0.09634596 14.1502
v 15.40892 5.133657 0.007938395
v 10.88977 5.133657 10.9015
v 20.00086 0.09634596 0.01037155
v 20.00086 0.09634596 0.01037155
v 10.90145 5.133657 -10.89045
v 15.40892 5.133657 0.007938395
v 14.15021 0.09634596 -14.13573
v 14.15021 0.09634596 -14.13573
v 0.00791813 5.133657 -15.40952
v 10.90145 5.133657 -10.89045
v 0.01035129 0.09634596 -20.00146
v 0.01035129 0.09634596 -20.00146
v -10.89047 5.133657 -10.90205
v 0.00791813 5.133657 -15.40952
v -14.13577 0.09634596 -14.15075
v -14.13577 0.09634596 -14.15075
v -15.40956 5.133657 -0.008462368
v -10.89047 5.133657 -10.90205
v -20.00157 0.09634596 -0.01091842
v 15.40892 5.133657 0.007938395
v -0.008618693 5.133657 15.40897
v 10.88977 5.133657 10.9015
v 10.90145 5.133657 -10.89045
v -10.90215 5.133657 10.88991
v 0.00791813 5.133657 -15.40952
v -10.89047 5.133657 -10.90205
v -15.40956 5.133657 -0.008462368

vn -0.5457085 0.6441803 0.5359421
vn -0.5457085 0.6441803 0.5359421
vn -0.5457083 0.6441817 0.5359406
vn -0.5457087 0.6441792 0.5359433
vn -0.006904334 0.6441775 0.764845
vn -0.006904334 0.6441775 0.764845
vn -0.006905049 0.6441786 0.7648441
vn -0.006903768 0.6441766 0.7648457
vn 0.5359461 0.6441764 0.5457092
vn 0.5359461 0.6441764 0.5457092
vn 0.5359452 0.6441773 0.545709
vn 0.5359468 0.6441758 0.5457093
vn 0.764845 0.6441773 0.006907754
vn 0.764845 0.6441773 0.006907754
vn 0.7648433 0.6441793 0.006908968
vn 0.7648463 0.6441758 0.00690674
vn 0.5457089 0.6441783 -0.5359442
vn 0.5457089 0.6441783 -0.5359442
vn 0.5457091 0.6441772 -0.5359454
vn 0.5457088 0.6441791 -0.5359433
vn 0.006904334 0.6441774 -0.764845
vn 0.006904334 0.6441774 -0.764845
vn 0.006905109 0.6441786 -0.7648439
vn 0.006903738 0.6441764 -0.7648457
vn -0.5359461 0.6441763 -0.5457092
vn -0.5359461 0.6441763 -0.5457092
vn -0.5359453 0.6441771 -0.5457091
vn -0.5359468 0.6441758 -0.5457093
vn -0.7648426 0.6441801 -0.006906027
vn -0.7648426 0.6441801 -0.006906027
vn -0.7648441 0.6441785 -0.006904986
vn -0.7648416 0.6441814 -0.006906779
vn 0 1 0
vn 0 1 0
vn 0 0.9999999 0
vn 0 1 0
vn 0 0.9999999 0
vn 0 1 0
vn 0 1 0
vn 0 1 0

vt 0 0.2173913
vt 0.9771492 0.6425121
vt 0.04570157 0.6425121
vt 1 0.2173913
vt 0 0.2173913
vt 0.9771492 0.6425121
vt 0.04570157 0.6425121
vt 1 0.2173913
vt 0 0.2173913
vt 0.9771492 0.6425121
vt 0.04570157 0.6425121
vt 1 0.2173913
vt 0 0.2173913
vt 0.9771492 0.6425121
vt 0.04570157 0.6425121
vt 1 0.2173913
vt 0 0.2173913
vt 0.9771492 0.6425121
vt 0.04570157 0.6425121
vt 1 0.2173913
vt 0 0.2173913
vt 0.9771492 0.6425121
vt 0.04570157 0.6425121
vt 1 0.2173913
vt 0 0.2173913
vt 0.9771492 0.6425121
vt 0.04570157 0.6425121
vt 1 0.2173913
vt 0 0.2173913
vt 0.9771492 0.6425121
vt 0.04570157 0.6425121
vt 1 0.2173913
vt 0.1148203 0.3800636
vt 0.3583111 0.9269525
vt 0.1233013 0.7039366
vt 0.3378362 0.1450539
vt 0.682184 0.9184715
vt 0.6617092 0.1365729
vt 0.8967189 0.3595888
vt 0.9051998 0.6834618

usemtl sn22_24_sn16g42.jpg
usemap sn22_24_sn16g42.jpg
f 3/3/3 1/1/1 2/2/2
f 2/2/2 1/1/1 4/4/4
f 7/7/7 5/5/5 6/6/6
f 6/6/6 5/5/5 8/8/8
f 11/11/11 9/9/9 10/10/10
f 10/10/10 9/9/9 12/12/12
f 15/15/15 13/13/13 14/14/14
f 14/14/14 13/13/13 16/16/16
f 19/19/19 17/17/17 18/18/18
f 18/18/18 17/17/17 20/20/20
f 23/23/23 21/21/21 22/22/22
f 22/22/22 21/21/21 24/24/24
f 27/27/27 25/25/25 26/26/26
f 26/26/26 25/25/25 28/28/28
f 31/31/31 29/29/29 30/30/30
f 30/30/30 29/29/29 32/32/32

usemtl sn22_25_sngsc31.jpg
usemap sn22_25_sngsc31.jpg
f 35/35/35 33/33/33 34/34/34
f 33/33/33 36/36/36 34/34/34
f 36/36/36 37/37/37 34/34/34
f 38/38/38 37/37/37 36/36/36
f 39/39/39 37/37/37 38/38/38
f 40/40/40 37/37/37 39/39/39
