mtllib ./P17.mtl
g P17
v -20.00105 0.09615326 -0.01097303
v -10.90166 5.133463 10.88984
v -15.4091 5.133463 -0.008539873
v -14.15042 0.09615326 14.13512
v -14.15042 0.09615326 14.13512
v -0.008102746 5.133463 15.40891
v -10.90166 5.133463 10.88984
v -0.0105642 0.09615326 20.00085
v -0.0105642 0.09615326 20.00085
v 10.89029 5.133463 10.90145
v -0.008102746 5.133463 15.40891
v 14.13556 0.09615326 14.15014
v 14.13556 0.09615326 14.15014
v 15.40937 5.133463 0.00786089
v 10.89029 5.133463 10.90145
v 20.00132 0.09615326 0.01029405
v 20.00132 0.09615326 0.01029405
v 10.90194 5.133463 -10.89052
v 15.40937 5.133463 0.00786089
v 14.15067 0.09615326 -14.13581
v 14.15067 0.09615326 -14.13581
v 0.008377494 5.133463 -15.40959
v 10.90194 5.133463 -10.89052
v 0.01083894 0.09615326 -20.00153
v 0.01083894 0.09615326 -20.00153
v -10.89001 5.133463 -10.90213
v 0.008377494 5.133463 -15.40959
v -14.13529 0.09615326 -14.15082
v -14.13529 0.09615326 -14.15082
v -15.4091 5.133463 -0.008539873
v -10.89001 5.133463 -10.90213
v -20.00105 0.09615326 -0.01097303
v 15.40937 5.133463 0.00786089
v -0.008102746 5.133463 15.40891
v 10.89029 5.133463 10.90145
v 10.90194 5.133463 -10.89052
v -10.90166 5.133463 10.88984
v 0.008377494 5.133463 -15.40959
v -10.89001 5.133463 -10.90213
v -15.4091 5.133463 -0.008539873

vn -0.5457097 0.6441784 0.5359432
vn -0.5457097 0.6441784 0.5359432
vn -0.5457098 0.6441777 0.5359441
vn -0.5457097 0.6441791 0.5359426
vn -0.006904274 0.6441776 0.7648448
vn -0.006904274 0.6441776 0.7648448
vn -0.006904989 0.6441787 0.7648438
vn -0.006903708 0.6441766 0.7648456
vn 0.5359472 0.6441745 0.5457103
vn 0.5359472 0.6441745 0.5457103
vn 0.5359464 0.6441755 0.5457101
vn 0.535948 0.6441739 0.5457104
vn 0.764846 0.6441761 0.006905157
vn 0.764846 0.6441761 0.006905157
vn 0.7648462 0.6441759 0.006905042
vn 0.764846 0.6441763 0.006905299
vn 0.5457098 0.6441775 -0.5359442
vn 0.5457098 0.6441775 -0.5359442
vn 0.5457098 0.6441777 -0.5359441
vn 0.5457098 0.6441773 -0.5359443
vn 0.006904304 0.6441775 -0.7648448
vn 0.006904304 0.6441775 -0.7648448
vn 0.006905019 0.6441787 -0.7648439
vn 0.006903738 0.6441766 -0.7648456
vn -0.5359472 0.6441745 -0.5457103
vn -0.5359472 0.6441745 -0.5457103
vn -0.5359464 0.6441755 -0.5457101
vn -0.535948 0.6441739 -0.5457104
vn -0.764846 0.6441761 -0.006905157
vn -0.764846 0.6441761 -0.006905157
vn -0.7648462 0.6441759 -0.006905042
vn -0.764846 0.6441763 -0.006905299
vn 0 1 0
vn 0 1 0
vn 0 1 0
vn 0 1 0
vn 0 1 0
vn 0 1 0
vn 0 1 0
vn 0 1 0

vt 0 0.2173913
vt 0.9771492 0.6425121
vt 0.04570157 0.6425121
vt 1 0.2173913
vt 0 0.2173913
vt 0.9771492 0.6425121
vt 0.04570157 0.6425121
vt 1 0.2173913
vt 0 0.2173913
vt 0.9771492 0.6425121
vt 0.04570157 0.6425121
vt 1 0.2173913
vt 0 0.2173913
vt 0.9771492 0.6425121
vt 0.04570157 0.6425121
vt 1 0.2173913
vt 0 0.2173913
vt 0.9771492 0.6425121
vt 0.04570157 0.6425121
vt 1 0.2173913
vt 0 0.2173913
vt 0.9771492 0.6425121
vt 0.04570157 0.6425121
vt 1 0.2173913
vt 0 0.2173913
vt 0.9771492 0.6425121
vt 0.04570157 0.6425121
vt 1 0.2173913
vt 0 0.2173913
vt 0.9771492 0.6425121
vt 0.04570157 0.6425121
vt 1 0.2173913
vt 0.1148203 0.3800636
vt 0.3583111 0.9269525
vt 0.1233013 0.7039366
vt 0.3378362 0.1450539
vt 0.682184 0.9184715
vt 0.6617092 0.1365729
vt 0.8967189 0.3595888
vt 0.9051998 0.6834618

usemtl sn22_24_sn16g42.jpg
usemap sn22_24_sn16g42.jpg
f 3/3/3 1/1/1 2/2/2
f 2/2/2 1/1/1 4/4/4
f 7/7/7 5/5/5 6/6/6
f 6/6/6 5/5/5 8/8/8
f 11/11/11 9/9/9 10/10/10
f 10/10/10 9/9/9 12/12/12
f 15/15/15 13/13/13 14/14/14
f 14/14/14 13/13/13 16/16/16
f 19/19/19 17/17/17 18/18/18
f 18/18/18 17/17/17 20/20/20
f 23/23/23 21/21/21 22/22/22
f 22/22/22 21/21/21 24/24/24
f 27/27/27 25/25/25 26/26/26
f 26/26/26 25/25/25 28/28/28
f 31/31/31 29/29/29 30/30/30
f 30/30/30 29/29/29 32/32/32

usemtl sn22_25_sngsc31.jpg
usemap sn22_25_sngsc31.jpg
f 35/35/35 33/33/33 34/34/34
f 33/33/33 36/36/36 34/34/34
f 36/36/36 37/37/37 34/34/34
f 38/38/38 37/37/37 36/36/36
f 39/39/39 37/37/37 38/38/38
f 40/40/40 37/37/37 39/39/39
