mtllib ./P20.mtl
g P20
v -20.00147 0.09615326 -0.01114475
v -10.90206 5.133463 10.88968
v -15.40947 5.133463 -0.008688695
v -14.15082 0.09615326 14.13496
v -14.15082 0.09615326 14.13496
v -0.00852711 5.133463 15.40874
v -10.90206 5.133463 10.88968
v -0.01096027 0.09615326 20.00069
v -0.01096027 0.09615326 20.00069
v 10.88986 5.133463 10.90128
v -0.00852711 5.133463 15.40874
v 14.13516 0.09615326 14.14998
v 14.13516 0.09615326 14.14998
v 15.40901 5.133463 0.007712068
v 10.88986 5.133463 10.90128
v 20.00096 0.09615326 0.01014523
v 20.00096 0.09615326 0.01014523
v 10.90154 5.133463 -10.89068
v 15.40901 5.133463 0.007712068
v 14.1503 0.09615326 -14.13596
v 14.1503 0.09615326 -14.13596
v 0.008009712 5.133463 -15.40974
v 10.90154 5.133463 -10.89068
v 0.01044287 0.09615326 -20.00169
v 0.01044287 0.09615326 -20.00169
v -10.89038 5.133463 -10.90228
v 0.008009712 5.133463 -15.40974
v -14.13568 0.09615326 -14.15098
v -14.13568 0.09615326 -14.15098
v -15.40947 5.133463 -0.008688695
v -10.89038 5.133463 -10.90228
v -20.00147 0.09615326 -0.01114475
v 15.40901 5.133463 0.007712068
v -0.00852711 5.133463 15.40874
v 10.88986 5.133463 10.90128
v 10.90154 5.133463 -10.89068
v -10.90206 5.133463 10.88968
v 0.008009712 5.133463 -15.40974
v -10.89038 5.133463 -10.90228
v -15.40947 5.133463 -0.008688695

vn -0.5457085 0.6441805 0.535942
vn -0.5457085 0.6441805 0.535942
vn -0.5457082 0.6441818 0.5359406
vn -0.5457087 0.6441793 0.5359432
vn -0.006904334 0.6441775 0.7648448
vn -0.006904334 0.6441775 0.7648448
vn -0.006905019 0.6441787 0.7648438
vn -0.006903768 0.6441767 0.7648456
vn 0.5359461 0.6441764 0.5457091
vn 0.5359461 0.6441764 0.5457091
vn 0.5359452 0.6441773 0.545709
vn 0.5359468 0.6441758 0.5457092
vn 0.7648449 0.6441774 0.006907756
vn 0.7648449 0.6441774 0.006907756
vn 0.7648432 0.6441794 0.00690897
vn 0.7648461 0.6441759 0.006906802
vn 0.5457088 0.6441783 -0.535944
vn 0.5457088 0.6441783 -0.535944
vn 0.545709 0.6441773 -0.5359453
vn 0.5457088 0.6441793 -0.5359433
vn 0.006904304 0.6441775 -0.7648448
vn 0.006904304 0.6441775 -0.7648448
vn 0.006904989 0.6441787 -0.7648439
vn 0.006903768 0.6441767 -0.7648456
vn -0.5359461 0.6441764 -0.5457091
vn -0.5359461 0.6441764 -0.5457091
vn -0.5359452 0.6441773 -0.545709
vn -0.5359468 0.6441758 -0.5457092
vn -0.7648426 0.6441801 -0.006905999
vn -0.7648426 0.6441801 -0.006905999
vn -0.7648439 0.6441786 -0.006904988
vn -0.7648416 0.6441814 -0.006906779
vn 0 1 0
vn 0 1 0
vn 0 0.9999999 0
vn 0 1 0
vn 0 0.9999999 0
vn 0 1 0
vn 0 1 0
vn 0 1 0

vt 0 0.2173913
vt 0.9771492 0.6425121
vt 0.04570157 0.6425121
vt 1 0.2173913
vt 0 0.2173913
vt 0.9771492 0.6425121
vt 0.04570157 0.6425121
vt 1 0.2173913
vt 0 0.2173913
vt 0.9771492 0.6425121
vt 0.04570157 0.6425121
vt 1 0.2173913
vt 0 0.2173913
vt 0.9771492 0.6425121
vt 0.04570157 0.6425121
vt 1 0.2173913
vt 0 0.2173913
vt 0.9771492 0.6425121
vt 0.04570157 0.6425121
vt 1 0.2173913
vt 0 0.2173913
vt 0.9771492 0.6425121
vt 0.04570157 0.6425121
vt 1 0.2173913
vt 0 0.2173913
vt 0.9771492 0.6425121
vt 0.04570157 0.6425121
vt 1 0.2173913
vt 0 0.2173913
vt 0.9771492 0.6425121
vt 0.04570157 0.6425121
vt 1 0.2173913
vt 0.1148203 0.3800636
vt 0.3583111 0.9269525
vt 0.1233013 0.7039366
vt 0.3378362 0.1450539
vt 0.682184 0.9184715
vt 0.6617092 0.1365729
vt 0.8967189 0.3595888
vt 0.9051998 0.6834618

usemtl sn22_24_sn16g42.jpg
usemap sn22_24_sn16g42.jpg
f 3/3/3 1/1/1 2/2/2
f 2/2/2 1/1/1 4/4/4
f 7/7/7 5/5/5 6/6/6
f 6/6/6 5/5/5 8/8/8
f 11/11/11 9/9/9 10/10/10
f 10/10/10 9/9/9 12/12/12
f 15/15/15 13/13/13 14/14/14
f 14/14/14 13/13/13 16/16/16
f 19/19/19 17/17/17 18/18/18
f 18/18/18 17/17/17 20/20/20
f 23/23/23 21/21/21 22/22/22
f 22/22/22 21/21/21 24/24/24
f 27/27/27 25/25/25 26/26/26
f 26/26/26 25/25/25 28/28/28
f 31/31/31 29/29/29 30/30/30
f 30/30/30 29/29/29 32/32/32

usemtl sn22_25_sngsc31.jpg
usemap sn22_25_sngsc31.jpg
f 35/35/35 33/33/33 34/34/34
f 33/33/33 36/36/36 34/34/34
f 36/36/36 37/37/37 34/34/34
f 38/38/38 37/37/37 36/36/36
f 39/39/39 37/37/37 38/38/38
f 40/40/40 37/37/37 39/39/39
