mtllib ./P42.mtl
g P42
v -20.00128 -2.518654 -0.01080394
v -10.90187 2.518657 10.89002
v -15.40933 2.518657 -0.008370784
v -14.15057 -2.518654 14.13532
v -14.15057 -2.518654 14.13532
v -0.008279202 2.518657 15.40911
v -10.90187 2.518657 10.89002
v -0.01071236 -2.518654 20.00106
v -0.01071236 -2.518654 20.00106
v 10.89011 2.518657 10.90164
v -0.008279202 2.518657 15.40911
v 14.13541 -2.518654 14.15034
v 14.13541 -2.518654 14.15034
v 15.40917 2.518657 0.008109456
v 10.89011 2.518657 10.90164
v 20.00113 -2.518654 0.01054262
v 20.00113 -2.518654 0.01054262
v 10.90171 2.518657 -10.89028
v 15.40917 2.518657 0.008109456
v 14.15041 -2.518654 -14.13558
v 14.15041 -2.518654 -14.13558
v 0.008121561 2.518657 -15.40937
v 10.90171 2.518657 -10.89028
v 0.01057762 -2.518654 -20.00137
v 0.01057762 -2.518654 -20.00137
v -10.89025 2.518657 -10.90196
v 0.008121561 2.518657 -15.40937
v -14.13552 -2.518654 -14.15071
v -14.13552 -2.518654 -14.15071
v -15.40933 2.518657 -0.008370784
v -10.89025 2.518657 -10.90196
v -20.00128 -2.518654 -0.01080394
v 15.40917 2.518657 0.008109456
v -0.008279202 2.518657 15.40911
v 10.89011 2.518657 10.90164
v 10.90171 2.518657 -10.89028
v -10.90187 2.518657 10.89002
v 0.008121561 2.518657 -15.40937
v -10.89025 2.518657 -10.90196
v -15.40933 2.518657 -0.008370784

vn -0.5457092 0.6441763 0.5359461
vn -0.5457092 0.6441763 0.5359461
vn -0.545709 0.6441771 0.5359453
vn -0.5457093 0.6441758 0.5359468
vn -0.006904304 0.6441774 0.764845
vn -0.006904304 0.6441774 0.764845
vn -0.006904989 0.6441785 0.7648441
vn -0.006903768 0.6441766 0.7648457
vn 0.5359461 0.6441764 0.5457092
vn 0.5359461 0.6441764 0.5457092
vn 0.5359452 0.6441773 0.545709
vn 0.5359468 0.6441758 0.5457093
vn 0.764845 0.6441774 0.006904321
vn 0.764845 0.6441774 0.006904321
vn 0.7648441 0.6441786 0.006905014
vn 0.7648457 0.6441766 0.006903799
vn 0.5457091 0.6441764 -0.5359461
vn 0.5457091 0.6441764 -0.5359461
vn 0.545709 0.6441773 -0.5359452
vn 0.5457093 0.6441758 -0.5359468
vn 0.006906003 0.6441801 -0.7648426
vn 0.006906003 0.6441801 -0.7648426
vn 0.006905019 0.6441786 -0.7648441
vn 0.006906688 0.6441813 -0.7648417
vn -0.5359422 0.6441802 -0.5457086
vn -0.5359422 0.6441802 -0.5457086
vn -0.5359406 0.6441817 -0.5457084
vn -0.5359433 0.6441791 -0.5457088
vn -0.7648451 0.6441774 -0.006904317
vn -0.7648451 0.6441774 -0.006904317
vn -0.764844 0.6441785 -0.006905014
vn -0.7648457 0.6441764 -0.006903714
vn 0 0.9999999 0
vn 0 1 0
vn 0 0.9999999 0
vn 0 1 0
vn 0 1 0
vn 0 1 0
vn 0 1 0
vn 0 0.9999999 0

vt 0 0.2173913
vt 0.9771492 0.6425121
vt 0.04570157 0.6425121
vt 1 0.2173913
vt 0 0.2173913
vt 0.9771492 0.6425121
vt 0.04570157 0.6425121
vt 1 0.2173913
vt 0 0.2173913
vt 0.9771492 0.6425121
vt 0.04570157 0.6425121
vt 1 0.2173913
vt 0 0.2173913
vt 0.9771492 0.6425121
vt 0.04570157 0.6425121
vt 1 0.2173913
vt 0 0.2173913
vt 0.9771492 0.6425121
vt 0.04570157 0.6425121
vt 1 0.2173913
vt 0 0.2173913
vt 0.9771492 0.6425121
vt 0.04570157 0.6425121
vt 1 0.2173913
vt 0 0.2173913
vt 0.9771492 0.6425121
vt 0.04570157 0.6425121
vt 1 0.2173913
vt 0 0.2173913
vt 0.9771492 0.6425121
vt 0.04570157 0.6425121
vt 1 0.2173913
vt 0.1148203 0.3800636
vt 0.3583111 0.9269525
vt 0.1233013 0.7039366
vt 0.3378362 0.1450539
vt 0.682184 0.9184715
vt 0.6617092 0.1365729
vt 0.8967189 0.3595888
vt 0.9051998 0.6834618

usemtl sn22_24_sn16g42.jpg
usemap sn22_24_sn16g42.jpg
f 3/3/3 1/1/1 2/2/2
f 2/2/2 1/1/1 4/4/4
f 7/7/7 5/5/5 6/6/6
f 6/6/6 5/5/5 8/8/8
f 11/11/11 9/9/9 10/10/10
f 10/10/10 9/9/9 12/12/12
f 15/15/15 13/13/13 14/14/14
f 14/14/14 13/13/13 16/16/16
f 19/19/19 17/17/17 18/18/18
f 18/18/18 17/17/17 20/20/20
f 23/23/23 21/21/21 22/22/22
f 22/22/22 21/21/21 24/24/24
f 27/27/27 25/25/25 26/26/26
f 26/26/26 25/25/25 28/28/28
f 31/31/31 29/29/29 30/30/30
f 30/30/30 29/29/29 32/32/32

usemtl sn22_25_sngsc31.jpg
usemap sn22_25_sngsc31.jpg
f 35/35/35 33/33/33 34/34/34
f 33/33/33 36/36/36 34/34/34
f 36/36/36 37/37/37 34/34/34
f 38/38/38 37/37/37 36/36/36
f 39/39/39 37/37/37 38/38/38
f 40/40/40 37/37/37 39/39/39
