mtllib ./PP03.mtl
g PP03
v -20.00146 -2.518654 -0.01100869
v -10.90205 2.518657 10.88982
v -15.40951 2.518657 -0.008575532
v -14.15075 -2.518654 14.13512
v -14.15075 -2.518654 14.13512
v -0.008459738 2.518657 15.4089
v -10.90205 2.518657 10.88982
v -0.01091579 -2.518654 20.00091
v -0.01091579 -2.518654 20.00091
v 10.88991 2.518657 10.90149
v -0.008459738 2.518657 15.4089
v 14.13519 -2.518654 14.15025
v 14.13519 -2.518654 14.15025
v 15.40897 2.518657 0.007961291
v 10.88991 2.518657 10.90149
v 20.00092 -2.518654 0.01039445
v 20.00092 -2.518654 0.01039445
v 10.90151 2.518657 -10.89043
v 15.40897 2.518657 0.007961291
v 14.15021 -2.518654 -14.13573
v 14.15021 -2.518654 -14.13573
v 0.00791813 2.518657 -15.40952
v 10.90151 2.518657 -10.89043
v 0.01037418 -2.518654 -20.00152
v 0.01037418 -2.518654 -20.00152
v -10.89045 2.518657 -10.90211
v 0.00791813 2.518657 -15.40952
v -14.13573 -2.518654 -14.15086
v -14.13573 -2.518654 -14.15086
v -15.40951 2.518657 -0.008575532
v -10.89045 2.518657 -10.90211
v -20.00146 -2.518654 -0.01100869
v 15.40897 2.518657 0.007961291
v -0.008459738 2.518657 15.4089
v 10.88991 2.518657 10.90149
v 10.90151 2.518657 -10.89043
v -10.90205 2.518657 10.88982
v 0.00791813 2.518657 -15.40952
v -10.89045 2.518657 -10.90211
v -15.40951 2.518657 -0.008575532

vn -0.5457092 0.6441764 0.5359462
vn -0.5457092 0.6441764 0.5359462
vn -0.545709 0.6441773 0.5359453
vn -0.5457093 0.6441757 0.5359468
vn -0.006906062 0.6441801 0.7648426
vn -0.006906062 0.6441801 0.7648426
vn -0.006905079 0.6441785 0.764844
vn -0.006906778 0.6441813 0.7648417
vn 0.5359421 0.6441802 0.5457086
vn 0.5359421 0.6441802 0.5457086
vn 0.5359406 0.6441816 0.5457084
vn 0.5359433 0.6441792 0.5457088
vn 0.764845 0.6441774 0.006904263
vn 0.764845 0.6441774 0.006904263
vn 0.7648441 0.6441786 0.006905042
vn 0.7648458 0.6441765 0.006903712
vn 0.5457092 0.6441764 -0.5359462
vn 0.5457092 0.6441764 -0.5359462
vn 0.545709 0.6441773 -0.5359453
vn 0.5457093 0.6441757 -0.5359468
vn 0.006906062 0.6441801 -0.7648426
vn 0.006906062 0.6441801 -0.7648426
vn 0.006905079 0.6441785 -0.764844
vn 0.006906778 0.6441813 -0.7648417
vn -0.5359421 0.6441802 -0.5457086
vn -0.5359421 0.6441802 -0.5457086
vn -0.5359406 0.6441816 -0.5457084
vn -0.5359433 0.6441792 -0.5457088
vn -0.764845 0.6441774 -0.006904263
vn -0.764845 0.6441774 -0.006904263
vn -0.7648441 0.6441786 -0.006905042
vn -0.7648458 0.6441765 -0.006903712
vn 0 1 0
vn 0 1 0
vn 0 1 0
vn 0 1 0
vn 0 1 0
vn 0 1 0
vn 0 1 0
vn 0 1 0

vt 0 0.2173913
vt 0.9771492 0.6425121
vt 0.04570157 0.6425121
vt 1 0.2173913
vt 0 0.2173913
vt 0.9771492 0.6425121
vt 0.04570157 0.6425121
vt 1 0.2173913
vt 0 0.2173913
vt 0.9771492 0.6425121
vt 0.04570157 0.6425121
vt 1 0.2173913
vt 0 0.2173913
vt 0.9771492 0.6425121
vt 0.04570157 0.6425121
vt 1 0.2173913
vt 0 0.2173913
vt 0.9771492 0.6425121
vt 0.04570157 0.6425121
vt 1 0.2173913
vt 0 0.2173913
vt 0.9771492 0.6425121
vt 0.04570157 0.6425121
vt 1 0.2173913
vt 0 0.2173913
vt 0.9771492 0.6425121
vt 0.04570157 0.6425121
vt 1 0.2173913
vt 0 0.2173913
vt 0.9771492 0.6425121
vt 0.04570157 0.6425121
vt 1 0.2173913
vt 0.1148203 0.3800636
vt 0.3583111 0.9269525
vt 0.1233013 0.7039366
vt 0.3378362 0.1450539
vt 0.682184 0.9184715
vt 0.6617092 0.1365729
vt 0.8967189 0.3595888
vt 0.9051998 0.6834618

usemtl sn22_24_sn16g42.jpg
usemap sn22_24_sn16g42.jpg
f 3/3/3 1/1/1 2/2/2
f 2/2/2 1/1/1 4/4/4
f 7/7/7 5/5/5 6/6/6
f 6/6/6 5/5/5 8/8/8
f 11/11/11 9/9/9 10/10/10
f 10/10/10 9/9/9 12/12/12
f 15/15/15 13/13/13 14/14/14
f 14/14/14 13/13/13 16/16/16
f 19/19/19 17/17/17 18/18/18
f 18/18/18 17/17/17 20/20/20
f 23/23/23 21/21/21 22/22/22
f 22/22/22 21/21/21 24/24/24
f 27/27/27 25/25/25 26/26/26
f 26/26/26 25/25/25 28/28/28
f 31/31/31 29/29/29 30/30/30
f 30/30/30 29/29/29 32/32/32

usemtl sn22_25_sngsc31.jpg
usemap sn22_25_sngsc31.jpg
f 35/35/35 33/33/33 34/34/34
f 33/33/33 36/36/36 34/34/34
f 36/36/36 37/37/37 34/34/34
f 38/38/38 37/37/37 36/36/36
f 39/39/39 37/37/37 38/38/38
f 40/40/40 37/37/37 39/39/39
