mtllib ./sh.mtl
g sh
v 507.5624 0.000218451 -60.98149
v 56.39587 0.000218451 -60.98154
v -56.43286 0.000218451 548.8298
v 56.39587 0.000218451 1158.641
v 507.5624 0.000218451 1158.641
v 56.11816 0.000218451 1439.529
v -56.67346 0.000218451 1317.566
v -2112.45 0.000218451 1439.529
v -2112.45 0.000218451 1317.566
v -2112.45 0.000218451 -219.907
v -56.67346 0.000218451 -219.907
v -2112.45 0.000218451 -341.8693
v 56.11816 0.000218451 -341.8693
v -307.7742 0.000218451 486.592
v -2384.522 0.000218451 486.592
v -2384.522 0.000218451 608.5543
v -307.7742 0.000218451 608.5543
v -374.6968 -39.21463 960.7634
v -259.6848 -39.21463 857.0015
v -489.6926 -39.21463 857.0015
v -467.4493 -29.71085 1210.541
v -343.1696 -29.72029 1215.496
v -343.1696 -29.71085 1210.541
v -320.4647 -29.71085 711.3138
v -528.3766 -29.70142 815.1724
v -221.0009 -29.70142 815.1724
v -124.9518 -29.71085 711.3139
v -320.874 -29.71085 711.3138
v -528.3766 -29.70142 1106.683
v -624.4257 -29.71085 1210.541
v -221.0009 -29.70142 1106.683
v -124.9518 -29.71085 1210.541
v -259.6848 -39.21463 1064.854
v -489.6926 -39.21463 1064.854
v -624.4257 -29.71085 711.3139
v -442.5067 -29.71085 711.3138
v -320.4646 -29.72028 706.3591
v -442.8777 -29.72029 706.3591
v -343.6835 -29.72029 1215.496
v -466.835 -29.72029 1215.496
v -259.6848 -39.21463 238.4315
v -374.6968 -39.21463 134.6698
v -489.6926 -39.21463 238.4315
v -466.835 -29.72029 -120.0628
v -467.4493 -29.71085 -115.1082
v -466.835 -29.71085 -115.1082
v -528.3766 -29.70142 280.2608
v -442.5067 -29.71085 384.1193
v -221.0009 -29.70142 280.2608
v -124.9518 -29.71085 384.1193
v -320.874 -29.71085 384.1193
v -624.4257 -29.71085 -115.1082
v -528.3766 -29.70142 -11.24962
v -221.0009 -29.70142 -11.24962
v -124.9518 -29.71085 -115.1082
v -259.6848 -39.21463 30.57967
v -489.6926 -39.21463 30.57967
v -624.4257 -29.71085 384.1193
v -442.5067 -29.72029 389.074
v -442.8777 -29.72029 389.074
v -343.1696 -29.71085 -115.1082
v -343.6835 -29.72029 -120.0628
v -320.4646 -29.72028 389.074
v -1031.385 -29.72029 -120.0628
v -1032 -29.71085 -115.1081
v -1031.385 -29.71085 -115.1081
v -1094.191 -29.70142 280.2608
v -1014.538 -29.71085 384.1193
v -786.815 -29.70142 280.2608
v -690.7659 -29.71085 384.1193
v -893.4034 -29.71085 384.1193
v -1190.24 -29.71085 -115.1081
v -1094.191 -29.70142 -11.24962
v -1190.24 -29.71085 384.1193
v -1014.538 -29.72029 389.074
v -1014.91 -29.72029 389.074
v -908.4868 -29.71085 -115.1081
v -909.0007 -29.72029 -120.0628
v -786.815 -29.70142 -11.24962
v -892.994 -29.72028 389.074
v -690.7659 -29.71085 -115.1081
v -1032 -29.71085 1210.541
v -909.0007 -29.72029 1215.496
v -908.4868 -29.71085 1210.541
v -786.815 -29.70142 1106.683
v -1094.191 -29.70142 1106.683
v -1190.24 -29.71085 1210.541
v -1190.24 -29.71085 711.3139
v -1094.191 -29.70142 815.1724
v -1014.538 -29.71085 711.3138
v -892.994 -29.71085 711.3138
v -892.994 -29.72028 706.3591
v -1014.91 -29.72029 706.3591
v -786.8151 -29.70142 815.1723
v -893.4034 -29.71085 711.3138
v -1031.385 -29.72029 1215.496
v -1585.818 -29.72029 -120.0628
v -1586.432 -29.71085 -115.1081
v -1585.818 -29.71085 -115.1081
v -1656.773 -29.70142 280.2607
v -1571.934 -29.71085 384.1192
v -1349.397 -29.70142 280.2607
v -1253.348 -29.71085 384.1192
v -1449.094 -29.71085 384.1192
v -1752.822 -29.71085 -115.1081
v -1656.773 -29.70142 -11.24962
v -1752.822 -29.71085 384.1192
v -1571.934 -29.72029 389.0739
v -1572.305 -29.72029 389.0739
v -1465.908 -29.71085 -115.1081
v -1466.422 -29.72029 -120.0628
v -1349.397 -29.70142 -11.24962
v -1448.684 -29.72028 389.0739
v -1253.348 -29.71085 -115.1081
v -1588.404 -29.71085 1210.541
v -1468.393 -29.72029 1215.496
v -1467.879 -29.71085 1210.541
v -1658.744 -29.70142 1106.683
v -1754.793 -29.71085 1210.541
v -1754.793 -29.71085 711.3138
v -1658.744 -29.70142 815.1723
v -1573.906 -29.71085 711.3138
v -1451.065 -29.71085 711.3138
v -1450.656 -29.72028 706.3591
v -1574.277 -29.72029 706.3591
v -1587.789 -29.72029 1215.496
v -2098.406 -29.72029 -120.0628
v -2099.021 -29.71085 -115.1081
v -2098.406 -29.71085 -115.1081
v -2220.135 -29.70142 280.2607
v -2136.479 -29.71085 384.1192
v -1912.76 -29.70142 280.2607
v -1816.71 -29.71085 384.1192
v -2012.457 -29.71085 384.1192
v -2220.135 -29.70142 -11.24962
v -2316.184 -29.71085 -115.1081
v -2316.184 -29.71085 384.1192
v -2136.479 -29.72029 389.0739
v -2136.85 -29.72029 389.0739
v -1979.756 -29.71085 -115.1081
v -1980.27 -29.72029 -120.0628
v -1912.76 -29.70142 -11.24962
v -2012.047 -29.72028 389.0739
v -1816.71 -29.71085 -115.1081
v -2135.827 -29.71085 711.3138
v -2219.113 -29.70142 815.1723
v -1911.737 -29.70142 815.1723
v -1815.688 -29.71085 711.3138
v -2011.434 -29.71085 711.3138
v -2219.113 -29.70142 1106.683
v -2315.162 -29.71085 1210.541
v -2097.998 -29.71085 1210.541
v -2315.162 -29.71085 711.3138
v -2135.457 -29.71085 711.3138
v -2135.827 -29.72029 706.3591
v -1978.734 -29.71085 1210.541
v -2097.998 -29.72029 1215.496
v -1979.248 -29.72029 1215.496
v -1911.737 -29.70142 1106.683
v -2011.024 -29.72028 706.3591
v -1815.688 -29.71085 1210.541
v -2097.384 -29.72029 1215.496

vn 0 1 0
vn 0 1 0
vn 0 1 0
vn 0 1 0
vn 0 1 0
vn 0 1 0
vn 0 1 0
vn 0 1 0
vn 0 1 0
vn 0 1 0
vn 0 1 0
vn 0 1 0
vn 0 1 0
vn 0 1 0
vn 0 1 0
vn 0 1 0
vn 0 1 0
vn 0 0.9999999 0
vn -0.02519486 0.9975581 0.06513914
vn 0.0301902 0.9989857 0.03340829
vn 0 1 0.0001640429
vn 0 0.9999983 0.001904424
vn 0 1 0.0001071794
vn 7.604824E-13 1 -0.0001150375
vn 0.03557204 0.9986345 0.03825946
vn -0.04218712 0.9987729 0.02594061
vn 7.747972E-05 1 -1.919726E-05
vn 3.069717E-08 1 -9.069801E-05
vn 0.01617979 0.9994226 -0.02987454
vn -7.331152E-05 1 2.305197E-05
vn -0.01787539 0.9996622 -0.01886705
vn 6.670813E-05 1 2.915886E-05
vn -0.05283439 0.9969833 -0.05685718
vn 0.06172746 0.9976881 -0.02843186
vn -7.866776E-05 0.9999999 -1.80985E-05
vn -1.987666E-08 1 -0.0001578746
vn -2.344521E-08 0.9999982 -0.001904374
vn -4.674094E-08 0.9999982 -0.001904373
vn 0 -0.9999982 -0.001904423
vn 0 0.9999982 0.001904424
vn -0.02519483 0.9975582 -0.06513911
vn 0 1 0
vn 0.03019019 0.9989857 -0.0334083
vn 0 0.9999982 -0.001904394
vn 0 0.9999999 -9.118823E-05
vn 0 1 -0.0001154229
vn 0.0392984 0.9983328 -0.04227685
vn -4.384697E-10 1 0.0001247547
vn -0.03792094 0.9990088 -0.02330815
vn 7.747972E-05 1 1.919726E-05
vn 0 1 0.0001233741
vn -7.331154E-05 1 -2.305198E-05
vn 0.01749336 0.9993249 0.03230729
vn -0.01650567 0.9997122 0.01741438
vn 6.670815E-05 1 -2.915887E-05
vn -0.05283435 0.9969834 0.05685714
vn 0.06172745 0.997688 0.02843185
vn -7.866777E-05 0.9999999 1.809849E-05
vn -4.674363E-08 0.9999982 0.001904376
vn 0 0.9999982 0.001904376
vn 0 0.9999999 -0.0001512309
vn 0 0.9999982 -0.001904394
vn -2.348226E-08 0.9999982 0.0019038
vn 0 0.9999982 -0.001904371
vn 0 1 -9.118556E-05
vn 0 1 -0.0001153163
vn -3.518686E-05 1 5.831E-05
vn -4.432849E-10 1 0.0001249872
vn 0 1 9.085106E-05
vn 0 1 9.085106E-05
vn 0 1 0.0001226323
vn -7.316213E-05 1 -2.31902E-05
vn -5.999061E-05 1 -3.537131E-05
vn -7.92071E-05 1 1.759977E-05
vn -4.693443E-08 0.9999982 0.001904376
vn 0 0.9999982 0.001904376
vn 0 1 -0.0001510835
vn 0 0.9999982 -0.001904371
vn 0 1 -9.085105E-05
vn -2.357858E-08 0.9999982 0.0019038
vn 0 1 -9.085106E-05
vn 0 1 0.0001633398
vn 0 0.9999982 0.001904423
vn 0 0.9999999 0.0001153162
vn 0 0.9999999 9.085092E-05
vn -5.440686E-05 1 4.053513E-05
vn -7.31621E-05 1 2.319019E-05
vn -7.920709E-05 1 -1.759977E-05
vn -3.030127E-05 1 -6.281993E-05
vn -2.031187E-08 1 -0.0001590622
vn -2.475956E-11 1 -0.0001149675
vn -2.354122E-08 0.9999982 -0.001904375
vn -4.693173E-08 0.9999982 -0.001904373
vn 1.860562E-08 0.9999999 -9.081501E-05
vn 1.397684E-05 -1 0.0001597395
vn 0 0.9999982 0.001904423
vn 0 0.9999982 -0.001904373
vn 0 1 -9.116923E-05
vn 0 1 -0.0001148967
vn -3.494609E-05 1 5.853269E-05
vn -4.382646E-10 1 0.0001250744
vn 0 1 9.085109E-05
vn 0 1 9.085108E-05
vn 0 1 0.0001235869
vn -7.221284E-05 1 -2.406811E-05
vn -5.958511E-05 1 -3.574633E-05
vn -7.875681E-05 1 1.801621E-05
vn -4.628689E-08 0.9999982 0.001904377
vn 0 0.9999982 0.001904376
vn 0 1 -0.000151057
vn 0 0.9999982 -0.001904374
vn 0 1 -9.085106E-05
vn -2.325172E-08 0.9999982 0.0019038
vn 0 1 -9.085106E-05
vn 0 1 0.0001604219
vn 0 0.9999982 0.001904423
vn 0 0.9999999 0.0001734284
vn -7.055559E-05 1 2.560062E-05
vn -7.221274E-05 1 2.406808E-05
vn -7.87567E-05 0.9999999 -1.80162E-05
vn -4.619421E-05 1 -4.813028E-05
vn -8.827891E-10 1 -0.0001584177
vn 0 0.9999999 -0.0001733758
vn -2.321538E-08 0.9999982 -0.001903799
vn -4.628418E-08 0.9999982 -0.001904373
vn 0 0.9999982 0.001904423
vn 0 0.9999982 -0.001904371
vn 0 1 -9.109516E-05
vn 0 1 -0.000114718
vn -5.896396E-05 1 3.632079E-05
vn -4.381855E-10 0.9999999 0.0001253963
vn 0 1 9.085108E-05
vn 0 1 9.085108E-05
vn 0 1 0.0001237761
vn -3.332394E-05 1 -6.003285E-05
vn -7.574446E-05 1 -2.080204E-05
vn -7.071366E-05 1 2.545458E-05
vn -4.584855E-08 0.9999982 0.001904376
vn 0 0.9999982 0.001904376
vn 0 1 -0.0001607709
vn 0 0.9999982 -0.001904371
vn 0 1 -9.085107E-05
vn -2.303051E-08 0.9999982 0.0019038
vn 0 1 -9.085107E-05
vn -6.158298E-10 0.9999999 -0.0001394011
vn -3.501785E-05 1 -5.846629E-05
vn 8.231074E-12 1 -9.085105E-05
vn 2.638685E-11 1 -9.085105E-05
vn 1.584035E-11 1 -0.0001238352
vn -5.720515E-05 1 3.794727E-05
vn -6.681172E-05 1 2.906305E-05
vn 0 1 0.0001066566
vn -7.8859E-05 1 -1.79217E-05
vn -3.092358E-11 0.9999999 -9.067213E-05
vn -4.59852E-08 0.9999982 -0.001904377
vn 0 1 0.0001609726
vn 0 0.9999982 0.001904423
vn 0 0.9999983 0.001904423
vn 0 1 9.085092E-05
vn -2.296196E-08 0.9999982 -0.0019038
vn 0 1 9.085092E-05
vn 0 -0.9999982 -0.001904423

vt 0.0004994869 0.1580206
vt 0.1563441 0.1580205
vt 0.1953181 0.5000002
vt 0.1563442 0.8419799
vt 0.0004995763 0.84198
vt 0.1564401 0.9995005
vt 0.1954013 0.9311045
vt 0.9055197 0.9995002
vt 0.9055197 0.9311042
vt 0.9055196 0.0688954
vt 0.1954012 0.06889573
vt 0.9055196 0.0004994869
vt 0.15644 0.0004998147
vt 0.2821379 0.4650975
vt 0.9995004 0.4650972
vt 0.9995005 0.5334931
vt 0.2821379 0.5334934
vt 0.3052548 0.7310109
vt 0.2655267 0.6728216
vt 0.3449773 0.6728216
vt 0.3372939 0.8710852
vt 0.2943645 0.8738638
vt 0.2943645 0.8710852
vt 0.2865216 0.5911206
vt 0.3583397 0.649364
vt 0.2521642 0.649364
vt 0.2189863 0.5911206
vt 0.286663 0.5911206
vt 0.3583398 0.8128418
vt 0.3915176 0.8710852
vt 0.2521642 0.8128418
vt 0.2189864 0.8710853
vt 0.2655267 0.7893842
vt 0.3449773 0.7893841
vt 0.3915176 0.5911205
vt 0.328678 0.5911205
vt 0.2865216 0.588342
vt 0.3288062 0.588342
vt 0.294542 0.8738638
vt 0.3370817 0.8738638
vt 0.2655266 0.3259301
vt 0.3052547 0.2677409
vt 0.3449772 0.3259301
vt 0.3370816 0.1248879
vt 0.3372938 0.1276664
vt 0.3370816 0.1276664
vt 0.3583397 0.3493877
vt 0.328678 0.4076312
vt 0.2521642 0.3493878
vt 0.2189863 0.4076312
vt 0.2866629 0.4076312
vt 0.3915175 0.1276664
vt 0.3583397 0.1859099
vt 0.2521641 0.1859099
vt 0.2189863 0.1276665
vt 0.2655266 0.2093676
vt 0.3449772 0.2093675
vt 0.3915176 0.4076311
vt 0.328678 0.4104097
vt 0.3288062 0.4104097
vt 0.2943644 0.1276664
vt 0.2945419 0.1248879
vt 0.2865215 0.4104097
vt 0.532092 0.1248878
vt 0.5323042 0.1276664
vt 0.532092 0.1276664
vt 0.5537866 0.3493876
vt 0.5262726 0.4076311
vt 0.447611 0.3493877
vt 0.4144332 0.4076311
vt 0.4844294 0.4076311
vt 0.5869644 0.1276664
vt 0.5537866 0.1859098
vt 0.5869644 0.407631
vt 0.5262726 0.4104097
vt 0.5264008 0.4104097
vt 0.4896396 0.1276664
vt 0.4898171 0.1248878
vt 0.447611 0.1859098
vt 0.484288 0.4104097
vt 0.4144331 0.1276664
vt 0.5323043 0.8710852
vt 0.4898172 0.8738638
vt 0.4896397 0.8710852
vt 0.4476111 0.8128418
vt 0.5537866 0.8128417
vt 0.5869645 0.8710852
vt 0.5869645 0.5911205
vt 0.5537866 0.6493639
vt 0.5262727 0.5911205
vt 0.484288 0.5911205
vt 0.484288 0.5883419
vt 0.5264008 0.5883419
vt 0.4476111 0.6493639
vt 0.4844295 0.5911205
vt 0.5320921 0.8738637
vt 0.7295729 0.1248877
vt 0.7297851 0.1276663
vt 0.7295729 0.1276663
vt 0.7540825 0.3493876
vt 0.7247772 0.407631
vt 0.647907 0.3493876
vt 0.6147291 0.407631
vt 0.6823449 0.407631
vt 0.7872603 0.1276663
vt 0.7540824 0.1859097
vt 0.7872604 0.407631
vt 0.7247772 0.4104096
vt 0.7249054 0.4104096
vt 0.6881528 0.1276663
vt 0.6883304 0.1248877
vt 0.6479069 0.1859097
vt 0.6822034 0.4104096
vt 0.614729 0.1276664
vt 0.7297852 0.8710851
vt 0.6883305 0.8738637
vt 0.688153 0.8710851
vt 0.7540826 0.8128417
vt 0.7872604 0.871085
vt 0.7872604 0.5911204
vt 0.7540826 0.6493638
vt 0.7247772 0.5911204
vt 0.6823449 0.5911204
vt 0.6822035 0.5883418
vt 0.7249054 0.5883418
vt 0.729573 0.8738637
vt 0.9062983 0.1248876
vt 0.9065105 0.1276662
vt 0.9062983 0.1276662
vt 0.9483467 0.3493875
vt 0.9194497 0.4076309
vt 0.8421712 0.3493875
vt 0.8089933 0.407631
vt 0.8766091 0.4076309
vt 0.9483466 0.1859096
vt 0.9815245 0.1276662
vt 0.9815245 0.4076309
vt 0.9194497 0.4104095
vt 0.9195778 0.4104095
vt 0.8653135 0.1276662
vt 0.8654911 0.1248876
vt 0.8421712 0.1859097
vt 0.8764676 0.4104095
vt 0.8089933 0.1276663
vt 0.9195778 0.5911203
vt 0.9483467 0.6493637
vt 0.8421712 0.6493638
vt 0.8089933 0.5911204
vt 0.8766091 0.5911203
vt 0.9483467 0.8128415
vt 0.9815246 0.871085
vt 0.9065106 0.871085
vt 0.9815246 0.5911203
vt 0.9194497 0.5911203
vt 0.9195778 0.5883417
vt 0.8653136 0.871085
vt 0.9065106 0.8738636
vt 0.8654912 0.8738636
vt 0.8421713 0.8128415
vt 0.8764676 0.5883417
vt 0.8089934 0.871085
vt 0.9062983 0.8738636

usemtl sn22_23_sn23sh.JPG
usemap sn22_23_sn23sh.JPG
f 3/3/3 1/1/1 2/2/2
f 4/4/4 1/1/1 3/3/3
f 1/1/1 4/4/4 5/5/5
f 8/8/8 6/6/6 7/7/7
f 8/8/8 7/7/7 9/9/9
f 7/7/7 4/4/4 3/3/3
f 4/4/4 7/7/7 6/6/6
f 12/12/12 10/10/10 11/11/11
f 11/11/11 13/13/13 12/12/12
f 11/11/11 3/3/3 2/2/2
f 2/2/2 13/13/13 11/11/11
f 16/16/16 14/14/14 15/15/15
f 14/14/14 16/16/16 17/17/17
f 20/20/20 18/18/18 19/19/19
f 23/23/23 21/21/21 22/22/22
f 26/26/26 24/24/24 25/25/25
f 28/28/28 26/26/26 27/27/27
f 21/21/21 29/29/29 30/30/30
f 31/31/31 27/27/27 26/26/26
f 27/27/27 31/31/31 32/32/32
f 19/19/19 25/25/25 20/20/20
f 25/25/25 19/19/19 26/26/26
f 33/33/33 26/26/26 19/19/19
f 26/26/26 33/33/33 31/31/31
f 34/34/34 25/25/25 29/29/29
f 25/25/25 34/34/34 20/20/20
f 29/29/29 35/35/35 30/30/30
f 35/35/35 29/29/29 25/25/25
f 33/33/33 29/29/29 31/31/31
f 29/29/29 33/33/33 34/34/34
f 37/37/37 36/36/36 24/24/24
f 38/38/38 36/36/36 37/37/37
f 22/22/22 39/39/39 23/23/23
f 25/25/25 24/24/24 36/36/36
f 23/23/23 31/31/31 29/29/29
f 24/24/24 28/28/28 37/37/37
f 24/24/24 26/26/26 28/28/28
f 25/25/25 36/36/36 35/35/35
f 31/31/31 23/23/23 32/32/32
f 22/22/22 21/21/21 40/40/40
f 23/23/23 29/29/29 21/21/21
f 18/18/18 34/34/34 33/33/33
f 18/18/18 20/20/20 34/34/34
f 18/18/18 33/33/33 19/19/19
f 43/43/43 41/41/41 42/42/42
f 46/46/46 44/44/44 45/45/45
f 49/49/49 47/47/47 48/48/48
f 51/51/51 50/50/50 49/49/49
f 45/45/45 52/52/52 53/53/53
f 54/54/54 49/49/49 50/50/50
f 50/50/50 55/55/55 54/54/54
f 41/41/41 43/43/43 47/47/47
f 47/47/47 49/49/49 41/41/41
f 56/56/56 41/41/41 49/49/49
f 49/49/49 54/54/54 56/56/56
f 57/57/57 53/53/53 47/47/47
f 47/47/47 43/43/43 57/57/57
f 53/53/53 52/52/52 58/58/58
f 58/58/58 47/47/47 53/53/53
f 56/56/56 54/54/54 53/53/53
f 53/53/53 57/57/57 56/56/56
f 60/60/60 59/59/59 48/48/48
f 44/44/44 46/46/46 61/61/61
f 44/44/44 61/61/61 62/62/62
f 54/54/54 61/61/61 46/46/46
f 46/46/46 53/53/53 54/54/54
f 48/48/48 59/59/59 63/63/63
f 48/48/48 63/63/63 51/51/51
f 48/48/48 51/51/51 49/49/49
f 47/47/47 58/58/58 48/48/48
f 54/54/54 55/55/55 61/61/61
f 46/46/46 45/45/45 53/53/53
f 42/42/42 56/56/56 57/57/57
f 42/42/42 57/57/57 43/43/43
f 42/42/42 41/41/41 56/56/56
f 66/66/66 64/64/64 65/65/65
f 69/69/69 67/67/67 68/68/68
f 71/71/71 70/70/70 69/69/69
f 65/65/65 72/72/72 73/73/73
f 73/73/73 72/72/72 74/74/74
f 74/74/74 67/67/67 73/73/73
f 76/76/76 75/75/75 68/68/68
f 64/64/64 66/66/66 77/77/77
f 64/64/64 77/77/77 78/78/78
f 79/79/79 77/77/77 66/66/66
f 66/66/66 73/73/73 79/79/79
f 68/68/68 75/75/75 80/80/80
f 68/68/68 80/80/80 71/71/71
f 68/68/68 71/71/71 69/69/69
f 67/67/67 74/74/74 68/68/68
f 79/79/79 81/81/81 77/77/77
f 66/66/66 65/65/65 73/73/73
f 84/84/84 82/82/82 83/83/83
f 86/86/86 84/84/84 85/85/85
f 82/82/82 86/86/86 87/87/87
f 86/86/86 88/88/88 87/87/87
f 88/88/88 86/86/86 89/89/89
f 92/92/92 90/90/90 91/91/91
f 93/93/93 90/90/90 92/92/92
f 89/89/89 91/91/91 90/90/90
f 91/91/91 89/89/89 94/94/94
f 91/91/91 95/95/95 92/92/92
f 91/91/91 94/94/94 95/95/95
f 89/89/89 90/90/90 88/88/88
f 83/83/83 82/82/82 96/96/96
f 84/84/84 86/86/86 82/82/82
f 99/99/99 97/97/97 98/98/98
f 102/102/102 100/100/100 101/101/101
f 104/104/104 103/103/103 102/102/102
f 98/98/98 105/105/105 106/106/106
f 106/106/106 105/105/105 107/107/107
f 107/107/107 100/100/100 106/106/106
f 109/109/109 108/108/108 101/101/101
f 97/97/97 99/99/99 110/110/110
f 97/97/97 110/110/110 111/111/111
f 112/112/112 110/110/110 99/99/99
f 99/99/99 106/106/106 112/112/112
f 101/101/101 108/108/108 113/113/113
f 101/101/101 113/113/113 104/104/104
f 101/101/101 104/104/104 102/102/102
f 100/100/100 107/107/107 101/101/101
f 112/112/112 114/114/114 110/110/110
f 99/99/99 98/98/98 106/106/106
f 117/117/117 115/115/115 116/116/116
f 115/115/115 118/118/118 119/119/119
f 118/118/118 120/120/120 119/119/119
f 120/120/120 118/118/118 121/121/121
f 124/124/124 122/122/122 123/123/123
f 125/125/125 122/122/122 124/124/124
f 121/121/121 123/123/123 122/122/122
f 121/121/121 122/122/122 120/120/120
f 116/116/116 115/115/115 126/126/126
f 117/117/117 118/118/118 115/115/115
f 129/129/129 127/127/127 128/128/128
f 132/132/132 130/130/130 131/131/131
f 134/134/134 133/133/133 132/132/132
f 130/130/130 135/135/135 136/136/136
f 136/136/136 137/137/137 130/130/130
f 128/128/128 136/136/136 135/135/135
f 139/139/139 138/138/138 131/131/131
f 127/127/127 129/129/129 140/140/140
f 127/127/127 140/140/140 141/141/141
f 142/142/142 140/140/140 129/129/129
f 129/129/129 135/135/135 142/142/142
f 131/131/131 138/138/138 143/143/143
f 131/131/131 143/143/143 134/134/134
f 131/131/131 134/134/134 132/132/132
f 130/130/130 137/137/137 131/131/131
f 142/142/142 144/144/144 140/140/140
f 129/129/129 128/128/128 135/135/135
f 147/147/147 145/145/145 146/146/146
f 149/149/149 147/147/147 148/148/148
f 152/152/152 150/150/150 151/151/151
f 150/150/150 153/153/153 151/151/151
f 153/153/153 150/150/150 146/146/146
f 155/155/155 154/154/154 145/145/145
f 157/157/157 156/156/156 152/152/152
f 157/157/157 158/158/158 156/156/156
f 146/146/146 145/145/145 154/154/154
f 159/159/159 152/152/152 156/156/156
f 152/152/152 159/159/159 150/150/150
f 145/145/145 160/160/160 155/155/155
f 145/145/145 149/149/149 160/160/160
f 145/145/145 147/147/147 149/149/149
f 146/146/146 154/154/154 153/153/153
f 159/159/159 156/156/156 161/161/161
f 157/157/157 152/152/152 162/162/162
