mtllib ./Box179.mtl
g Box179
v 6.249634 -34.25592 -6.250259
v 6.249634 -22.75186 -6.250259
v 6.249634 -22.74844 6.249741
v 6.249634 -34.25592 6.249741
v -6.250366 -34.25592 -6.250259
v -6.250366 -22.75186 -6.250259
v 6.249634 -22.75186 -6.250259
v 6.249634 -34.25592 -6.250259
v -6.250366 -34.25592 6.249741
v -6.250366 -22.75186 6.249741
v -6.250366 -22.75186 -6.250259
v -6.250366 -34.25592 -6.250259
v 6.249634 -34.25592 6.249741
v 6.249634 -22.74844 6.249741
v -6.250366 -22.75186 6.249741
v -6.250366 -34.25592 6.249741
v 6.249634 0.7806091 -6.250259
v 6.249634 0.7840271 6.249741
v 6.249634 35.44647 -6.250259
v 6.249634 35.44647 6.249741
v -6.250366 0.7806091 -6.250259
v 6.249634 0.7806091 -6.250259
v -6.250366 35.44647 -6.250259
v 6.249634 35.44647 -6.250259
v 6.249634 0.7840271 6.249741
v -6.250366 0.7806091 6.249741
v 6.249634 35.44647 6.249741
v -6.250366 35.44647 6.249741
v -6.250366 0.7806091 6.249741
v -6.250366 0.7806091 -6.250259
v -6.250366 35.44647 6.249741
v -6.250366 35.44647 -6.250259
v 191.0239 -34.25592 -6.250259
v 191.0239 -22.75186 -6.250259
v 191.0239 -22.74844 6.249741
v 191.0239 -34.25592 6.249741
v 178.5239 -34.25592 -6.250259
v 178.5239 -22.75186 -6.250259
v 191.0239 -22.75186 -6.250259
v 191.0239 -34.25592 -6.250259
v 178.5239 -34.25592 6.249741
v 178.5239 -22.75186 6.249741
v 178.5239 -22.75186 -6.250259
v 178.5239 -34.25592 -6.250259
v 191.0239 -34.25592 6.249741
v 191.0239 -22.74844 6.249741
v 178.5239 -22.75186 6.249741
v 178.5239 -34.25592 6.249741
v 191.0239 0.7806091 -6.250259
v 191.0239 0.7840271 6.249741
v 191.0239 35.44647 -6.250259
v 191.0239 35.44647 6.249741
v 178.5239 0.7806091 -6.250259
v 191.0239 0.7806091 -6.250259
v 178.5239 35.44647 -6.250259
v 191.0239 35.44647 -6.250259
v 191.0239 0.7840271 6.249741
v 178.5239 0.7806091 6.249741
v 191.0239 35.44647 6.249741
v 178.5239 35.44647 6.249741
v 178.5239 0.7806091 6.249741
v 178.5239 0.7806091 -6.250259
v 178.5239 35.44647 6.249741
v 178.5239 35.44647 -6.250259
v 191.0239 -49.64789 174.3181
v 191.0239 -38.14383 174.3181
v 191.0239 -38.14041 186.8181
v 191.0239 -49.64789 186.8181
v 178.5239 -49.64789 174.3181
v 178.5239 -38.14383 174.3181
v 191.0239 -38.14383 174.3181
v 191.0239 -49.64789 174.3181
v 178.5239 -49.64789 186.8181
v 178.5239 -38.14383 186.8181
v 178.5239 -38.14383 174.3181
v 178.5239 -49.64789 174.3181
v 191.0239 -49.64789 186.8181
v 191.0239 -38.14041 186.8181
v 178.5239 -38.14383 186.8181
v 178.5239 -49.64789 186.8181
v 191.0239 1.350739 174.3181
v 191.0239 1.354187 186.8181
v 191.0239 35.44647 174.3181
v 191.0239 35.44647 186.8181
v 178.5239 1.350739 174.3181
v 191.0239 1.350739 174.3181
v 178.5239 35.44647 174.3181
v 191.0239 35.44647 174.3181
v 191.0239 1.354187 186.8181
v 178.5239 1.350739 186.8181
v 191.0239 35.44647 186.8181
v 178.5239 35.44647 186.8181
v 178.5239 1.350739 186.8181
v 178.5239 1.350739 174.3181
v 178.5239 35.44647 186.8181
v 178.5239 35.44647 174.3181
v 5.130081 -34.25592 174.3181
v 5.130081 -22.75186 174.3181
v 5.130081 -22.74844 186.8181
v 5.130081 -34.25592 186.8181
v -7.369919 -34.25592 174.3181
v -7.369919 -22.75186 174.3181
v 5.130081 -22.75186 174.3181
v 5.130081 -34.25592 174.3181
v -7.369919 -34.25592 186.8181
v -7.369919 -22.75186 186.8181
v -7.369919 -22.75186 174.3181
v -7.369919 -34.25592 174.3181
v 5.130081 -34.25592 186.8181
v 5.130081 -22.74844 186.8181
v -7.369919 -22.75186 186.8181
v -7.369919 -34.25592 186.8181
v 5.130081 0.7806091 174.3181
v 5.130081 0.7840271 186.8181
v 5.130081 35.44647 174.3181
v 5.130081 35.44647 186.8181
v -7.369919 0.7806091 174.3181
v 5.130081 0.7806091 174.3181
v -7.369919 35.44647 174.3181
v 5.130081 35.44647 174.3181
v 5.130081 0.7840271 186.8181
v -7.369919 0.7806091 186.8181
v 5.130081 35.44647 186.8181
v -7.369919 35.44647 186.8181
v -7.369919 0.7806091 186.8181
v -7.369919 0.7806091 174.3181
v -7.369919 35.44647 186.8181
v -7.369919 35.44647 174.3181

vn 1 0 0
vn 1 0 0
vn 1 0 0
vn 1 0 0
vn 0 0 -1
vn 0 0 -1
vn 0 0 -1
vn 0 0 -1
vn -1 0 0
vn -1 0 0
vn -1 0 0
vn -1 0 0
vn 0 0 1
vn 0 0 0.9999999
vn 0 0 1
vn 0 0 1
vn 0.9999999 0 0
vn 1 0 0
vn 1 0 0
vn 1 0 0
vn 0 0 -0.9999999
vn 0 0 -1
vn 0 0 -0.9999999
vn 0 0 -0.9999999
vn 0 0 1
vn 0 0 1
vn 0 0 1
vn 0 0 0.9999999
vn -0.9999999 0 0
vn -1 0 0
vn -0.9999999 0 0
vn -0.9999999 0 0
vn 1 0 0
vn 1 0 0
vn 1 0 0
vn 1 0 0
vn 0 0 -1
vn 0 0 -1
vn 0 0 -1
vn 0 0 -1
vn -1 0 0
vn -1 0 0
vn -1 0 0
vn -1 0 0
vn 0 0 1
vn 0 0 0.9999999
vn 0 0 1
vn 0 0 1
vn 0.9999999 0 0
vn 1 0 0
vn 1 0 0
vn 1 0 0
vn 0 0 -0.9999999
vn 0 0 -1
vn 0 0 -0.9999999
vn 0 0 -0.9999999
vn 0 0 1
vn 0 0 1
vn 0 0 1
vn 0 0 0.9999999
vn -0.9999999 0 0
vn -1 0 0
vn -0.9999999 0 0
vn -0.9999999 0 0
vn 1 0 0
vn 1 0 0
vn 1 0 0
vn 1 0 0
vn 0 0 -1
vn 0 0 -1
vn 0 0 -1
vn 0 0 -1
vn -1 0 0
vn -1 0 0
vn -1 0 0
vn -1 0 0
vn 0 0 1
vn 0 0 1
vn 0 0 1
vn 0 0 1
vn 1 0 0
vn 1 0 0
vn 1 0 0
vn 1 0 0
vn 0 0 -1
vn 0 0 -1
vn 0 0 -1
vn 0 0 -1
vn 0 0 1
vn 0 0 0.9999999
vn 0 0 1
vn 0 0 1
vn -1 0 0
vn -1 0 0
vn -1 0 0
vn -1 0 0
vn 1 0 0
vn 1 0 0
vn 1 0 0
vn 1 0 0
vn 0 0 -1
vn 0 0 -1
vn 0 0 -1
vn 0 0 -1
vn -1 0 0
vn -1 0 0
vn -1 0 0
vn -1 0 0
vn 0 0 1
vn 0 0 0.9999999
vn 0 0 1
vn 0 0 1
vn 0.9999999 0 0
vn 1 0 0
vn 1 0 0
vn 1 0 0
vn 0 0 -0.9999999
vn 0 0 -1
vn 0 0 -0.9999999
vn 0 0 -0.9999999
vn 0 0 1
vn 0 0 1
vn 0 0 1
vn 0 0 0.9999999
vn -0.9999999 0 0
vn -1 0 0
vn -0.9999999 0 0
vn -0.9999999 0 0

vt 0.4901315 0.0004995167
vt 0.4828851 0.2344327
vt 0.2357199 0.2344827
vt 0.2429663 0.0004995167
vt 0.2551436 0.0004995167
vt 0.2478471 0.2344327
vt 0.005605463 0.2344327
vt 0.005655563 0.0004995167
vt 0.4989501 0.0004995167
vt 0.4916536 0.2344327
vt 0.2473217 0.2344327
vt 0.2546182 0.0004995167
vt 0.2476645 0.0004995167
vt 0.2404181 0.2344827
vt 0.0004994969 0.2344327
vt 0.0004994869 0.0004995167
vt 0.4901315 0.5674497
vt 0.2429663 0.5674996
vt 0.4901315 0.9995005
vt 0.2429663 0.9995005
vt 0.2550434 0.5674497
vt 0.005555356 0.5674497
vt 0.2549933 0.9995005
vt 0.005505249 0.9995005
vt 0.2476645 0.5674996
vt 0.0004995068 0.5674497
vt 0.2476645 0.9995005
vt 0.0004995167 0.9995005
vt 0.4988499 0.5674497
vt 0.254518 0.5674497
vt 0.4987998 0.9995005
vt 0.2544678 0.9995005
vt 0.4901315 0.0004995167
vt 0.4828851 0.2344327
vt 0.2357199 0.2344827
vt 0.2429663 0.0004995167
vt 0.2551436 0.0004995167
vt 0.2478471 0.2344327
vt 0.005605463 0.2344327
vt 0.005655563 0.0004995167
vt 0.4989501 0.0004995167
vt 0.4916536 0.2344327
vt 0.2473217 0.2344327
vt 0.2546182 0.0004995167
vt 0.2476645 0.0004995167
vt 0.2404181 0.2344827
vt 0.0004994969 0.2344327
vt 0.0004994869 0.0004995167
vt 0.4901315 0.5674497
vt 0.2429663 0.5674996
vt 0.4901315 0.9995005
vt 0.2429663 0.9995005
vt 0.2550434 0.5674497
vt 0.005555356 0.5674497
vt 0.2549933 0.9995005
vt 0.005505249 0.9995005
vt 0.2476645 0.5674996
vt 0.0004995068 0.5674497
vt 0.2476645 0.9995005
vt 0.0004995167 0.9995005
vt 0.4988499 0.5674497
vt 0.254518 0.5674497
vt 0.4987998 0.9995005
vt 0.2544678 0.9995005
vt 0.4901315 0.0004995167
vt 0.4828851 0.2344327
vt 0.2357199 0.2344827
vt 0.2429663 0.0004995167
vt 0.2551436 0.0004995167
vt 0.2478471 0.2344327
vt 0.005605463 0.2344327
vt 0.005655563 0.0004995167
vt 0.4989501 0.0004995167
vt 0.4916536 0.2344327
vt 0.2473217 0.2344327
vt 0.2546182 0.0004995167
vt 0.2476645 0.0004995167
vt 0.2404181 0.2344827
vt 0.0004994969 0.2344327
vt 0.0004994869 0.0004995167
vt 0.4901315 0.5674497
vt 0.2429663 0.5674996
vt 0.4901315 0.9995005
vt 0.2429663 0.9995005
vt 0.2550434 0.5674497
vt 0.005555356 0.5674497
vt 0.2549933 0.9995005
vt 0.005505249 0.9995005
vt 0.2476645 0.5674996
vt 0.0004995068 0.5674497
vt 0.2476645 0.9995005
vt 0.0004995167 0.9995005
vt 0.4988499 0.5674497
vt 0.254518 0.5674497
vt 0.4987998 0.9995005
vt 0.2544678 0.9995005
vt 0.4901315 0.0004995167
vt 0.4828851 0.2344327
vt 0.2357199 0.2344827
vt 0.2429663 0.0004995167
vt 0.2551436 0.0004995167
vt 0.2478471 0.2344327
vt 0.005605463 0.2344327
vt 0.005655563 0.0004995167
vt 0.4989501 0.0004995167
vt 0.4916536 0.2344327
vt 0.2473217 0.2344327
vt 0.2546182 0.0004995167
vt 0.2476645 0.0004995167
vt 0.2404181 0.2344827
vt 0.0004994969 0.2344327
vt 0.0004994869 0.0004995167
vt 0.4901315 0.5674497
vt 0.2429663 0.5674996
vt 0.4901315 0.9995005
vt 0.2429663 0.9995005
vt 0.2550434 0.5674497
vt 0.005555356 0.5674497
vt 0.2549933 0.9995005
vt 0.005505249 0.9995005
vt 0.2476645 0.5674996
vt 0.0004995068 0.5674497
vt 0.2476645 0.9995005
vt 0.0004995167 0.9995005
vt 0.4988499 0.5674497
vt 0.254518 0.5674497
vt 0.4987998 0.9995005
vt 0.2544678 0.9995005

usemtl sn17_29_s17gsc20.JPG
usemap sn17_29_s17gsc20.JPG
f 3/3/3 1/1/1 2/2/2
f 1/1/1 3/3/3 4/4/4
f 7/7/7 5/5/5 6/6/6
f 5/5/5 7/7/7 8/8/8
f 11/11/11 9/9/9 10/10/10
f 9/9/9 11/11/11 12/12/12
f 15/15/15 13/13/13 14/14/14
f 13/13/13 15/15/15 16/16/16
f 3/3/3 17/17/17 18/18/18
f 17/17/17 3/3/3 2/2/2
f 18/18/18 19/19/19 20/20/20
f 19/19/19 18/18/18 17/17/17
f 7/7/7 21/21/21 22/22/22
f 21/21/21 7/7/7 6/6/6
f 22/22/22 23/23/23 24/24/24
f 23/23/23 22/22/22 21/21/21
f 15/15/15 25/25/25 26/26/26
f 25/25/25 15/15/15 14/14/14
f 26/26/26 27/27/27 28/28/28
f 27/27/27 26/26/26 25/25/25
f 11/11/11 29/29/29 30/30/30
f 29/29/29 11/11/11 10/10/10
f 30/30/30 31/31/31 32/32/32
f 31/31/31 30/30/30 29/29/29
f 35/35/35 33/33/33 34/34/34
f 33/33/33 35/35/35 36/36/36
f 39/39/39 37/37/37 38/38/38
f 37/37/37 39/39/39 40/40/40
f 43/43/43 41/41/41 42/42/42
f 41/41/41 43/43/43 44/44/44
f 47/47/47 45/45/45 46/46/46
f 45/45/45 47/47/47 48/48/48
f 35/35/35 49/49/49 50/50/50
f 49/49/49 35/35/35 34/34/34
f 50/50/50 51/51/51 52/52/52
f 51/51/51 50/50/50 49/49/49
f 39/39/39 53/53/53 54/54/54
f 53/53/53 39/39/39 38/38/38
f 54/54/54 55/55/55 56/56/56
f 55/55/55 54/54/54 53/53/53
f 47/47/47 57/57/57 58/58/58
f 57/57/57 47/47/47 46/46/46
f 58/58/58 59/59/59 60/60/60
f 59/59/59 58/58/58 57/57/57
f 43/43/43 61/61/61 62/62/62
f 61/61/61 43/43/43 42/42/42
f 62/62/62 63/63/63 64/64/64
f 63/63/63 62/62/62 61/61/61
f 67/67/67 65/65/65 66/66/66
f 65/65/65 67/67/67 68/68/68
f 71/71/71 69/69/69 70/70/70
f 69/69/69 71/71/71 72/72/72
f 75/75/75 73/73/73 74/74/74
f 73/73/73 75/75/75 76/76/76
f 79/79/79 77/77/77 78/78/78
f 77/77/77 79/79/79 80/80/80
f 67/67/67 81/81/81 82/82/82
f 81/81/81 67/67/67 66/66/66
f 82/82/82 83/83/83 84/84/84
f 83/83/83 82/82/82 81/81/81
f 71/71/71 85/85/85 86/86/86
f 85/85/85 71/71/71 70/70/70
f 86/86/86 87/87/87 88/88/88
f 87/87/87 86/86/86 85/85/85
f 79/79/79 89/89/89 90/90/90
f 89/89/89 79/79/79 78/78/78
f 90/90/90 91/91/91 92/92/92
f 91/91/91 90/90/90 89/89/89
f 75/75/75 93/93/93 94/94/94
f 93/93/93 75/75/75 74/74/74
f 94/94/94 95/95/95 96/96/96
f 95/95/95 94/94/94 93/93/93
f 99/99/99 97/97/97 98/98/98
f 97/97/97 99/99/99 100/100/100
f 103/103/103 101/101/101 102/102/102
f 101/101/101 103/103/103 104/104/104
f 107/107/107 105/105/105 106/106/106
f 105/105/105 107/107/107 108/108/108
f 111/111/111 109/109/109 110/110/110
f 109/109/109 111/111/111 112/112/112
f 99/99/99 113/113/113 114/114/114
f 113/113/113 99/99/99 98/98/98
f 114/114/114 115/115/115 116/116/116
f 115/115/115 114/114/114 113/113/113
f 103/103/103 117/117/117 118/118/118
f 117/117/117 103/103/103 102/102/102
f 118/118/118 119/119/119 120/120/120
f 119/119/119 118/118/118 117/117/117
f 111/111/111 121/121/121 122/122/122
f 121/121/121 111/111/111 110/110/110
f 122/122/122 123/123/123 124/124/124
f 123/123/123 122/122/122 121/121/121
f 107/107/107 125/125/125 126/126/126
f 125/125/125 107/107/107 106/106/106
f 126/126/126 127/127/127 128/128/128
f 127/127/127 126/126/126 125/125/125
