mtllib ./Box182.mtl
g Box182
v 83.04419 -31.32092 -139.5691
v 55.84619 -21.36627 -112.3603
v 55.85117 -21.36749 53.4657
v 83.04398 -31.32092 80.63779
v 83.04398 -31.32092 80.63779
v 55.85117 -21.36749 53.4657
v -109.9813 -21.36792 53.46722
v -137.1624 -31.32092 80.6376
v -109.9813 -21.36792 53.46722
v -109.9763 -21.3667 -112.3617
v -137.1627 -31.32092 -139.5687
v -137.1624 -31.32092 80.6376
v 28.64816 -11.41168 -85.15152
v -82.78999 -11.41241 -85.15466
v -55.60773 3.110168 -57.95172
v 1.454193 3.111328 -57.94684
v 1.454193 3.111328 -57.94684
v -55.60773 3.110168 -57.95172
v -55.62314 0.7796631 -0.8694763
v 1.469666 0.7808228 -0.8743591
v 28.64816 -11.41168 -85.15152
v 28.65839 -11.41406 26.29364
v 1.454193 3.111328 -57.94684
v 1.469666 0.7808228 -0.8743591
v 28.65839 -11.41406 26.29364
v -82.80017 -11.41486 26.29684
v 1.469666 0.7808228 -0.8743591
v -55.62314 0.7796631 -0.8694763
v -82.80017 -11.41486 26.29684
v -82.78999 -11.41241 -85.15466
v -55.62314 0.7796631 -0.8694763
v -55.60773 3.110168 -57.95172
v 55.84619 -21.36627 -112.3603
v -109.9763 -21.3667 -112.3617
v 83.04419 -31.32092 -139.5691
v -137.1627 -31.32092 -139.5687
v 74.74677 -41.32407 72.34058
v 74.74701 -41.32407 -131.2718
v 83.04419 -31.32092 -139.5691
v 83.04398 -31.32092 80.63779
v -128.8652 -41.32407 72.34042
v 74.74677 -41.32407 72.34058
v 83.04398 -31.32092 80.63779
v -137.1624 -31.32092 80.6376
v -128.8654 -41.32407 -131.2715
v -128.8652 -41.32407 72.34042
v -137.1624 -31.32092 80.6376
v -137.1627 -31.32092 -139.5687
v 74.74701 -41.32407 -131.2718
v -128.8654 -41.32407 -131.2715
v -137.1627 -31.32092 -139.5687
v 83.04419 -31.32092 -139.5691
v 25.69 -28.89178 23.28372
v 25.69012 -28.89178 -82.21494
v 74.74701 -41.32407 -131.2718
v 74.74677 -41.32407 72.34058
v -79.80841 -28.89178 23.28363
v -128.8652 -41.32407 72.34042
v -79.80856 -28.89178 -82.21477
v -128.8654 -41.32407 -131.2715
v -27.0592 -14.05768 -29.46558

vn 0.3437186 0.9390727 -1.272083E-06
vn 0.3437042 0.9390779 -3.398377E-06
vn 0.3437182 0.9390728 -3.517439E-06
vn 0.3437287 0.939069 3.302261E-07
vn 1.584512E-07 0.9389831 0.3439631
vn 7.448783E-07 0.9389844 0.3439596
vn 8.170554E-07 0.938983 0.3439636
vn -2.825749E-07 0.9389821 0.3439659
vn -0.3438406 0.939028 -1.816235E-06
vn -0.3438321 0.9390312 -5.222164E-06
vn -0.3438359 0.9390297 -1.16224E-06
vn -0.3438462 0.9390259 4.765238E-07
vn 9.095469E-06 0.9060788 -0.423109
vn 3.419058E-06 0.9239414 -0.3825343
vn 1.252654E-05 0.8821631 -0.4709441
vn 2.236842E-05 0.8821757 -0.4709204
vn -2.029881E-05 0.9991674 0.04079665
vn -2.379674E-05 0.9991676 0.04079316
vn -2.029881E-05 0.9991674 0.04079665
vn -1.680218E-05 0.9991673 0.04080014
vn 0.3826626 0.9238881 -1.198085E-05
vn 0.4038323 0.9148016 0.007577314
vn 0.4409246 0.897459 0.0123568
vn 0.3773681 0.9252964 0.03768137
vn 2.772534E-06 0.9316604 0.3633304
vn 6.783778E-06 0.9232905 0.3841023
vn 9.077025E-06 0.9123046 0.4095122
vn 1.649427E-05 0.9122961 0.4095314
vn -0.3632067 0.9317086 -9.587242E-06
vn -0.4039441 0.9147523 0.007575767
vn -0.4410669 0.8973891 0.01235524
vn -0.4981418 0.8663793 0.0352373
vn 1.20385E-06 0.9391197 -0.3435903
vn 2.792678E-08 0.9391186 -0.3435932
vn -1.430225E-07 0.9391193 -0.3435915
vn -5.71408E-07 0.9391183 -0.3435942
vn 0.7696859 -0.6384227 8.313313E-07
vn 0.7696869 -0.6384217 9.228899E-07
vn 0.7696859 -0.6384227 8.313313E-07
vn 0.769685 -0.6384238 7.466728E-07
vn -6.096445E-07 -0.6384228 0.7696859
vn -5.768065E-07 -0.6384232 0.7696856
vn -6.096445E-07 -0.6384228 0.7696859
vn -6.400078E-07 -0.6384224 0.7696862
vn -0.7696859 -0.6384228 1.053022E-06
vn -0.7696861 -0.6384226 1.038252E-06
vn -0.7696859 -0.6384228 1.053022E-06
vn -0.7696857 -0.638423 1.066679E-06
vn -1.246996E-06 -0.6384231 -0.7696856
vn -1.211291E-06 -0.6384227 -0.769686
vn -1.246996E-06 -0.6384231 -0.7696856
vn -1.280011E-06 -0.6384236 -0.7696853
vn -0.1686818 -0.9815784 -0.0897246
vn -0.08972425 -0.9815784 0.1686817
vn -0.150291 -0.9836728 0.09899709
vn -0.09899724 -0.9836727 -0.1502911
vn 0.08972465 -0.9815783 -0.1686818
vn 0.1502912 -0.9836727 -0.09899744
vn 0.1686817 -0.9815783 0.08972444
vn 0.09899732 -0.9836727 0.1502912
vn 2.176528E-09 -1 -5.48387E-09

vt 1.024562 0.5889944
vt 0.8949318 0.6759301
vt 0.1048931 0.675913
vt -0.02456182 0.5889956
vt 0.9757149 0.5861477
vt 0.858225 0.6762592
vt 0.1417248 0.6762542
vt 0.02428532 0.5861485
vt 0.8867958 0.6720486
vt 0.1133759 0.6720662
vt -0.01351666 0.5826316
vt 1.013517 0.5826323
vt 0.2802395 0.7594062
vt 0.719853 0.7593956
vt 0.6126215 0.8463069
vt 0.3875172 0.8463234
vt 0.2076424 0.2998202
vt 0.6398205 0.2997954
vt 0.6399373 0.5890926
vt 0.2075255 0.5890678
vt 0.7653021 0.7628658
vt 0.234348 0.7628304
vt 0.6356918 0.8497885
vt 0.3637836 0.8497347
vt 0.7407351 0.7663707
vt 0.2591642 0.7663597
vt 0.6232628 0.8564686
vt 0.3765861 0.8564519
vt 0.7600741 0.7614648
vt 0.2402685 0.7615008
vt 0.6333715 0.8508676
vt 0.367142 0.850922
vt 0.1729456 0.6724761
vt 0.8271007 0.6724713
vt 0.06565177 0.5855458
vt 0.9343483 0.5855469
vt 0.0004994869 0.0004995167
vt 3.815445 0.0004995167
vt 3.812781 0.1806549
vt -0.002164066 0.1806549
vt 0.0005005002 0.0004995167
vt 3.815444 0.0004995167
vt 3.81278 0.1806549
vt -0.002163112 0.1806549
vt 0.000500977 0.0004995167
vt 3.815444 0.0004995167
vt 3.81278 0.1806549
vt -0.002162635 0.1806549
vt 0.0004994869 0.0004995167
vt 3.815445 0.0004995167
vt 3.812781 0.1806549
vt -0.002164066 0.1806549
vt 0.2411924 0.7588086
vt 0.2411916 0.2411915
vt 0.0004995763 0.0004995167
vt 0.0005010962 0.9995005
vt 0.7588081 0.758808
vt 0.9994994 0.9994994
vt 0.7588086 0.2411923
vt 0.9995004 0.0005009174
vt 0.5000002 0.5000001

usemtl sn17_05_s17gsc10.JPG
usemap sn17_05_s17gsc10.JPG
f 3/3/3 1/1/1 2/2/2
f 1/1/1 3/3/3 4/4/4
f 7/7/7 5/5/5 6/6/6
f 5/5/5 7/7/7 8/8/8
f 11/11/11 9/9/9 10/10/10
f 9/9/9 11/11/11 12/12/12
f 15/15/15 13/13/13 14/14/14
f 13/13/13 15/15/15 16/16/16
f 3/3/3 21/21/21 22/22/22
f 21/21/21 3/3/3 2/2/2
f 22/22/22 23/23/23 24/24/24
f 23/23/23 22/22/22 21/21/21
f 7/7/7 25/25/25 26/26/26
f 25/25/25 7/7/7 6/6/6
f 26/26/26 27/27/27 28/28/28
f 27/27/27 26/26/26 25/25/25
f 10/10/10 29/29/29 30/30/30
f 29/29/29 10/10/10 9/9/9
f 30/30/30 31/31/31 32/32/32
f 31/31/31 30/30/30 29/29/29
f 14/14/14 33/33/33 34/34/34
f 33/33/33 14/14/14 13/13/13
f 34/34/34 35/35/35 36/36/36
f 35/35/35 34/34/34 33/33/33

usemtl sn17_28_s17gsc19.JPG
usemap sn17_28_s17gsc19.JPG
f 19/19/19 17/17/17 18/18/18
f 20/20/20 17/17/17 19/19/19
f 39/39/39 37/37/37 38/38/38
f 37/37/37 39/39/39 40/40/40
f 43/43/43 41/41/41 42/42/42
f 41/41/41 43/43/43 44/44/44
f 47/47/47 45/45/45 46/46/46
f 45/45/45 47/47/47 48/48/48
f 51/51/51 49/49/49 50/50/50
f 49/49/49 51/51/51 52/52/52

usemtl sn17_30_s17gsc55.JPG
usemap sn17_30_s17gsc55.JPG
f 55/55/55 53/53/53 54/54/54
f 53/53/53 55/55/55 56/56/56
f 56/56/56 57/57/57 53/53/53
f 57/57/57 56/56/56 58/58/58
f 58/58/58 59/59/59 57/57/57
f 59/59/59 58/58/58 60/60/60
f 60/60/60 54/54/54 59/59/59
f 54/54/54 60/60/60 55/55/55
f 61/61/61 54/54/54 53/53/53
f 61/61/61 53/53/53 57/57/57
f 61/61/61 57/57/57 59/59/59
f 61/61/61 59/59/59 54/54/54
