mtllib ./Box166.mtl
g Box166
v -8.944031 -4.632051 -23.95325
v -23.45154 -4.632053 -10.18616
v -23.45154 50.0001 -10.18616
v -8.944031 50.0001 -23.95325
v -23.45154 165.9962 -10.18616
v -8.944031 165.9962 -23.95325
v -8.944031 165.9962 -23.95325
v -23.45154 165.9962 -10.18616
v -34.7876 184.6917 -22.13184
v -20.28009 184.6917 -35.89893
v -20.28009 184.6917 -35.89893
v -34.7876 184.6917 -22.13184
v -34.7876 203.418 -22.13184
v -20.28009 203.418 -35.89893
v -23.45154 -4.632053 -10.18616
v -21.02045 -4.632053 -7.62439
v -21.02045 50.0001 -7.62439
v -23.45154 50.0001 -10.18616
v -7.253357 -4.632054 6.883118
v -7.253357 50.0001 6.883118
v 6.513733 -4.632054 21.39063
v 6.513733 50.0001 21.39063
v 9.516541 -4.632054 24.55493
v 9.516541 50.0001 24.55493
v -21.02051 165.9962 -7.624329
v -23.45154 165.9962 -10.18616
v -7.253418 165.9962 6.883118
v 6.513672 165.9962 21.39063
v 9.516479 165.9962 24.55493
v -21.02051 181.0024 -7.624329
v -34.7876 184.6917 -22.13184
v -7.253418 181.0024 6.883118
v 6.513672 181.0024 21.39063
v 20.28076 181.0024 35.89813
v -21.02051 220.1095 -7.624329
v -34.7876 203.418 -22.13184
v -7.253418 239.8962 6.883118
v 6.513672 219.2783 21.39063
v 20.28076 199.7287 35.89813
v 9.516541 -4.632054 24.55493
v 24.02399 -4.632051 10.78784
v 24.02399 50.0001 10.78784
v 9.516541 50.0001 24.55493
v 24.02399 165.9962 10.78784
v 9.516479 165.9962 24.55493
v 9.516479 165.9962 24.55493
v 24.02399 165.9962 10.78784
v 34.78827 181.0024 22.13104
v 20.28076 181.0024 35.89813
v 20.28076 181.0024 35.89813
v 34.78827 181.0024 22.13104
v 34.78827 199.7287 22.13104
v 20.28076 199.7287 35.89813
v 24.02399 -4.632051 10.78784
v 21.02118 -4.632051 7.623535
v 21.02118 50.0001 7.623535
v 24.02399 50.0001 10.78784
v 7.254089 -4.632051 -6.883972
v 7.254089 50.0001 -6.883972
v -6.513 -4.632051 -21.39148
v -6.513 50.0001 -21.39148
v -8.944031 -4.632051 -23.95325
v -8.944031 50.0001 -23.95325
v 21.02118 165.9962 7.623535
v 24.02399 165.9962 10.78784
v 7.254089 165.9962 -6.883972
v -6.513 165.9962 -21.39142
v -8.944031 165.9962 -23.95325
v 21.02118 181.0024 7.623535
v 34.78827 181.0024 22.13104
v 7.254089 181.0024 -6.883972
v -6.513 181.0024 -21.39142
v -20.28009 184.6917 -35.89893
v 21.02118 219.2783 7.623535
v 34.78827 199.7287 22.13104
v 7.254089 239.8962 -6.883972
v -6.513 220.1095 -21.39142
v -20.28009 203.418 -35.89893

vn -0.688354 0 -0.7253749
vn -0.6883541 0 -0.7253749
vn -0.688354 0 -0.7253749
vn -0.688354 0 -0.7253749
vn -0.6883541 0 -0.7253749
vn -0.6883541 0 -0.7253749
vn -0.5165335 -0.6609961 -0.5443135
vn -0.5165335 -0.6609961 -0.5443135
vn -0.5165335 -0.6609961 -0.5443135
vn -0.5165335 -0.6609961 -0.5443135
vn -0.688354 0 -0.7253749
vn -0.688354 0 -0.7253749
vn -0.688354 0 -0.7253749
vn -0.688354 0 -0.7253749
vn -0.7253652 0 0.6883642
vn -0.7253741 0 0.6883548
vn -0.7253731 -4.463748E-07 0.6883559
vn -0.7253721 -3.010057E-07 0.6883571
vn -0.7253749 0 0.688354
vn -0.7253749 -2.593383E-07 0.6883541
vn -0.7253751 0 0.688354
vn -0.725375 -2.210389E-07 0.688354
vn -0.7253752 0 0.6883537
vn -0.7253752 -1.970132E-07 0.6883537
vn -0.7253736 -5.349897E-07 0.6883554
vn -0.7253793 -9.489868E-07 0.6883494
vn -0.7253744 -4.445548E-07 0.6883546
vn -0.7253749 -3.313165E-07 0.688354
vn -0.7253752 -3.239448E-07 0.6883537
vn -0.725374 -2.160045E-07 0.6883549
vn -0.7253749 -5.009019E-07 0.688354
vn -0.7253742 0 0.6883547
vn -0.7253749 0 0.6883541
vn -0.7253749 5.154224E-08 0.688354
vn -0.7253743 0 0.6883546
vn -0.7253749 0 0.688354
vn -0.725374 0 0.688355
vn -0.7253749 0 0.688354
vn -0.7253749 0 0.6883541
vn 0.6883556 0 0.7253735
vn 0.6883556 0 0.7253735
vn 0.6883556 0 0.7253734
vn 0.688355 1.463996E-07 0.725374
vn 0.6883548 1.808754E-07 0.7253741
vn 0.6883541 3.617503E-07 0.7253749
vn 0.4766073 -0.7215264 0.50224
vn 0.4766073 -0.7215264 0.50224
vn 0.4766073 -0.7215264 0.50224
vn 0.4766073 -0.7215264 0.50224
vn 0.688354 0 0.7253749
vn 0.688354 0 0.7253749
vn 0.688354 0 0.7253749
vn 0.688354 0 0.7253749
vn 0.7253752 0 -0.6883537
vn 0.7253749 0 -0.688354
vn 0.7253749 0 -0.688354
vn 0.7253752 0 -0.6883537
vn 0.7253749 0 -0.688354
vn 0.7253745 8.19748E-08 -0.6883544
vn 0.7253746 0 -0.6883544
vn 0.7253753 1.789822E-07 -0.6883537
vn 0.7253739 0 -0.6883551
vn 0.7253739 0 -0.6883551
vn 0.725375 0 -0.688354
vn 0.7253751 -4.376684E-08 -0.6883538
vn 0.7253743 0 -0.6883546
vn 0.7253748 3.015803E-07 -0.6883541
vn 0.7253782 9.990795E-07 -0.6883504
vn 0.7253749 -1.130408E-08 -0.688354
vn 0.7253749 -2.648788E-08 -0.688354
vn 0.7253741 0 -0.6883549
vn 0.7253742 0 -0.6883548
vn 0.7253755 9.940059E-07 -0.6883534
vn 0.7253749 0 -0.688354
vn 0.7253749 0 -0.688354
vn 0.7253743 0 -0.6883546
vn 0.7253739 0 -0.6883551
vn 0.7253749 0 -0.688354

vt 0.00241795 1.000956
vt 0.3254634 1.000956
vt 0.3254634 0.6923966
vt 0.00241795 0.6923966
vt 0.3254634 0.006808639
vt 0.00241795 0.006808639
vt 0.2916415 0.6934064
vt 0.0341063 0.6934065
vt 0.03410633 0.7946081
vt 0.2916415 0.794608
vt 0.07466811 0.8868278
vt 0.2305183 0.8868278
vt 0.2305183 0.8088458
vt 0.07466811 0.8088458
vt 0.3374452 0.9998553
vt 0.3919601 0.9998553
vt 0.3919601 0.6919129
vt 0.3374452 0.6919129
vt 0.6591465 0.9998553
vt 0.6591465 0.6919129
vt 0.926333 0.9998553
vt 0.926333 0.6919129
vt 0.9922027 0.9998553
vt 0.9922027 0.6919129
vt 0.3919601 0.006298721
vt 0.3374452 0.006298721
vt 0.6591465 0.006298721
vt 0.926333 0.006298721
vt 0.9922027 0.006298721
vt 0.3919601 -0.05619156
vt 0.1123077 -0.05619156
vt 0.6591465 -0.05619156
vt 0.926333 -0.05619156
vt 1.205985 -0.05619156
vt 0.3919601 -0.2155839
vt 0.1123077 -0.1341736
vt 0.6591465 -0.3014435
vt 0.926333 -0.2155839
vt 1.205985 -0.1341736
vt 0.008327827 0.9982068
vt 0.3289976 0.9982068
vt 0.3289976 0.6951962
vt 0.008327827 0.6951962
vt 0.3289976 0.004873633
vt 0.008327827 0.004873633
vt 0.03416762 0.8181624
vt 0.2966979 0.8181624
vt 0.2966979 0.6962366
vt 0.03416759 0.6962366
vt 0.03616676 0.9955235
vt 0.2969828 0.9955235
vt 0.2969828 0.8804186
vt 0.03616676 0.8804186
vt 0.3323573 0.9928727
vt 0.3868316 0.9928727
vt 0.3868316 0.6899551
vt 0.3323573 0.6899551
vt 0.6618357 0.9928727
vt 0.6618357 0.6899551
vt 0.9463102 0.9928727
vt 0.9463102 0.6899551
vt 0.9998826 0.9928727
vt 0.9998826 0.6899551
vt 0.3868316 0.08578762
vt 0.3323573 0.08578762
vt 0.6618357 0.08578762
vt 0.9463102 0.08578762
vt 0.9998826 0.08578762
vt 0.3868316 0.02329727
vt 0.1370813 0.02329727
vt 0.6618357 0.02329727
vt 0.9463102 0.02329727
vt 1.205531 0.02329727
vt 0.3868316 -0.1360951
vt 0.1370813 -0.05468474
vt 0.6618357 -0.2219547
vt 0.9463102 -0.1360951
vt 1.205531 -0.05468474

usemtl sn17_06_s17gsc09.JPG
usemap sn17_06_s17gsc09.JPG
f 3/3/3 1/1/1 2/2/2
f 1/1/1 3/3/3 4/4/4
f 5/5/5 4/4/4 3/3/3
f 4/4/4 5/5/5 6/6/6
f 9/9/9 7/7/7 8/8/8
f 7/7/7 9/9/9 10/10/10
f 13/13/13 11/11/11 12/12/12
f 11/11/11 13/13/13 14/14/14
f 17/17/17 15/15/15 16/16/16
f 15/15/15 17/17/17 18/18/18
f 20/20/20 16/16/16 19/19/19
f 16/16/16 20/20/20 17/17/17
f 22/22/22 19/19/19 21/21/21
f 19/19/19 22/22/22 20/20/20
f 24/24/24 21/21/21 23/23/23
f 21/21/21 24/24/24 22/22/22
f 25/25/25 18/18/18 17/17/17
f 18/18/18 25/25/25 26/26/26
f 27/27/27 17/17/17 20/20/20
f 17/17/17 27/27/27 25/25/25
f 28/28/28 20/20/20 22/22/22
f 20/20/20 28/28/28 27/27/27
f 29/29/29 22/22/22 24/24/24
f 22/22/22 29/29/29 28/28/28
f 30/30/30 26/26/26 25/25/25
f 26/26/26 30/30/30 31/31/31
f 32/32/32 25/25/25 27/27/27
f 25/25/25 32/32/32 30/30/30
f 33/33/33 27/27/27 28/28/28
f 27/27/27 33/33/33 32/32/32
f 34/34/34 28/28/28 29/29/29
f 28/28/28 34/34/34 33/33/33
f 35/35/35 31/31/31 30/30/30
f 31/31/31 35/35/35 36/36/36
f 37/37/37 30/30/30 32/32/32
f 30/30/30 37/37/37 35/35/35
f 38/38/38 32/32/32 33/33/33
f 32/32/32 38/38/38 37/37/37
f 39/39/39 33/33/33 34/34/34
f 33/33/33 39/39/39 38/38/38
f 42/42/42 40/40/40 41/41/41
f 40/40/40 42/42/42 43/43/43
f 44/44/44 43/43/43 42/42/42
f 43/43/43 44/44/44 45/45/45
f 48/48/48 46/46/46 47/47/47
f 46/46/46 48/48/48 49/49/49
f 52/52/52 50/50/50 51/51/51
f 50/50/50 52/52/52 53/53/53
f 56/56/56 54/54/54 55/55/55
f 54/54/54 56/56/56 57/57/57
f 59/59/59 55/55/55 58/58/58
f 55/55/55 59/59/59 56/56/56
f 61/61/61 58/58/58 60/60/60
f 58/58/58 61/61/61 59/59/59
f 63/63/63 60/60/60 62/62/62
f 60/60/60 63/63/63 61/61/61
f 64/64/64 57/57/57 56/56/56
f 57/57/57 64/64/64 65/65/65
f 66/66/66 56/56/56 59/59/59
f 56/56/56 66/66/66 64/64/64
f 67/67/67 59/59/59 61/61/61
f 59/59/59 67/67/67 66/66/66
f 68/68/68 61/61/61 63/63/63
f 61/61/61 68/68/68 67/67/67
f 69/69/69 65/65/65 64/64/64
f 65/65/65 69/69/69 70/70/70
f 71/71/71 64/64/64 66/66/66
f 64/64/64 71/71/71 69/69/69
f 72/72/72 66/66/66 67/67/67
f 66/66/66 72/72/72 71/71/71
f 73/73/73 67/67/67 68/68/68
f 67/67/67 73/73/73 72/72/72
f 74/74/74 70/70/70 69/69/69
f 70/70/70 74/74/74 75/75/75
f 76/76/76 69/69/69 71/71/71
f 69/69/69 76/76/76 74/74/74
f 77/77/77 71/71/71 72/72/72
f 71/71/71 77/77/77 76/76/76
f 78/78/78 72/72/72 73/73/73
f 72/72/72 78/78/78 77/77/77
