mtllib ./Box180.mtl
g Box180
v 50.06427 7.090393 -9.694733
v 50.67889 -18.74692 -9.317627
v 30.03046 7.090393 -9.864929
v 30.53265 -18.74695 -9.864594
v 50.03766 19.57626 9.243561
v 50.06427 19.57626 -9.694733
v 30.11517 19.57626 9.261902
v 30.03046 19.57626 -9.864929
v 31.66589 -18.74692 9.262238
v 30.11517 7.090393 9.261902
v -1.491333 -18.74692 9.959793
v -3.042053 7.090393 9.959457
v -3.042053 7.090393 -9.86496
v -1.491333 -18.74692 -9.864624
v 30.11517 7.090393 9.261902
v 30.03046 7.090393 -9.864929
v -3.042053 7.090393 9.959457
v -3.042053 7.090393 -9.86496
v -31.9559 -18.74692 9.959793
v -33.50665 7.090393 9.959457
v -33.50665 7.090393 -9.864944
v -31.9559 -18.74692 -9.864609
v -3.042053 19.57626 9.959457
v -3.042053 19.57626 -9.86496
v -33.50665 19.57626 9.959457
v -33.50665 19.57626 -9.864944
v 50.06427 19.57626 -9.694733
v 30.03046 19.57626 -9.864929
v 30.03046 7.090393 -9.864929
v 30.11517 7.090393 9.261902
v 30.03046 19.57626 -9.864929
v 30.11517 19.57626 9.261902
v -3.042053 7.090393 9.959457
v -3.042053 7.090393 -9.86496
v -3.042053 19.57626 9.959457
v -3.042053 19.57626 -9.86496
v -33.50665 19.57626 9.959457
v -3.042053 19.57626 9.959457
v -3.042053 19.57626 -9.86496
v -33.50665 19.57626 -9.864944
v -33.50665 7.090393 -9.864944
v -33.50665 7.090393 9.959457
v -33.50665 19.57626 -9.864944
v -33.50665 19.57626 9.959457
v -58.27426 7.090393 -9.864944
v -56.72354 -18.74692 -9.864609
v -56.72354 -18.74692 9.959824
v -58.27429 7.090393 9.959488
v -33.50665 7.090393 9.959457
v -33.50665 7.090393 -9.864944
v -58.27429 7.090393 9.959488
v -58.27426 7.090393 -9.864944
v -88.13138 -18.74692 9.959808
v -89.6821 7.090393 9.959473
v -89.6821 7.090393 -9.864944
v -88.13138 -18.74692 -9.864609
v -58.27429 19.57626 9.959488
v -58.27426 19.57626 -9.864944
v -89.6821 19.57626 9.959473
v -89.68204 19.57626 -9.864944
v -119.0923 -18.74692 10.66159
v -120.643 7.090424 10.66125
v -120.643 7.090424 -9.163177
v -119.0923 -18.74692 -9.162842
v -89.6821 7.090393 9.959473
v -89.6821 7.090393 -9.864944
v -120.643 7.090424 10.66125
v -120.643 7.090424 -9.163177
v -134.8804 -18.74692 10.12927
v -156.4634 7.090424 -8.969757
v -155.0024 -18.74692 -9.143799
v -136.4704 19.57626 10.30331
v -120.643 19.57626 -9.163177
v -156.6004 19.57626 9.537537
v -156.4634 19.57626 -8.969757
v -58.27429 7.090393 9.959488
v -58.27426 7.090393 -9.864944
v -58.27429 19.57626 9.959488
v -58.27426 19.57626 -9.864944
v -89.6821 19.57626 9.959473
v -58.27429 19.57626 9.959488
v -58.27426 19.57626 -9.864944
v -89.68204 19.57626 -9.864944
v -89.6821 7.090393 -9.864944
v -89.6821 7.090393 9.959473
v -89.68204 19.57626 -9.864944
v -89.6821 19.57626 9.959473
v -120.643 7.090424 10.66125
v -120.643 7.090424 -9.163177
v -120.643 19.57626 10.66125
v -120.643 19.57626 -9.163177
v -120.643 19.57626 -9.163177
v -156.4634 19.57626 -8.969757
v 30.11517 7.090393 9.261902
v 31.66589 -18.74692 9.262238
v 30.19995 7.090424 34.33061
v 31.78601 -18.78839 34.36632
v 50.02435 19.57626 34.33063
v 30.19995 19.57626 34.33061
v 50.02435 7.090393 34.33061
v 50.03766 7.090393 9.243561
v 50.02435 19.57626 34.33063
v 50.03766 19.57626 9.243561
v 30.11517 19.57626 9.261902
v 30.19995 19.57626 34.33061
v 30.19995 7.090424 34.33061
v 50.02435 7.090393 34.33061
v 30.19995 19.57626 34.33061
v 50.02435 19.57626 34.33063
v 50.67889 -18.74692 -9.317627
v 50.06427 7.090393 -9.694733
v 51.61707 -18.78839 9.104889
v 50.06427 19.57626 -9.694733
v -134.8804 -18.74692 10.12927
v -136.4482 7.090424 10.30331
v -135.2726 -18.74692 34.33098
v -136.8233 7.090424 34.33063
v -156.6004 7.090424 9.537537
v -155.1394 -18.74692 9.363495
v -156.6477 7.090424 34.33066
v -155.097 -18.74692 34.33099
v -136.4704 19.57626 10.30331
v -156.6004 19.57626 9.537537
v -136.8233 19.57626 34.33064
v -156.6477 19.57626 34.33066
v -135.2726 -18.74692 61.68417
v -136.8233 7.090424 61.68384
v -156.6477 7.090424 61.68384
v -155.097 -18.74692 61.68417
v -136.8233 7.090424 34.33063
v -156.6477 7.090424 34.33066
v -136.8233 7.090424 61.68384
v -156.6477 7.090424 61.68384
v -135.2726 -18.74692 92.14877
v -136.8233 7.090424 92.14844
v -156.6477 7.090424 92.14844
v -155.097 -18.74692 92.14877
v -136.8233 19.57626 61.68384
v -156.6477 19.57626 61.68384
v -136.8233 19.57626 92.14844
v -156.6477 19.57626 92.14844
v -136.8233 19.57626 34.33064
v -136.4704 19.57626 10.30331
v -156.6004 19.57626 9.537537
v -156.6477 19.57626 34.33066
v -156.6477 7.090424 34.33066
v -136.8233 7.090424 34.33063
v -156.6477 19.57626 34.33066
v -136.8233 19.57626 34.33064
v -136.8233 7.090424 61.68384
v -156.6477 7.090424 61.68384
v -136.8233 19.57626 61.68384
v -156.6477 19.57626 61.68384
v -136.8233 19.57626 92.14844
v -136.8233 19.57626 61.68384
v -156.6477 19.57626 61.68384
v -156.6477 19.57626 92.14844
v -156.6477 7.090424 92.14844
v -136.8233 7.090424 92.14844
v -156.6477 19.57626 92.14844
v -136.8233 19.57626 92.14844
v -156.6477 7.090424 113.229
v -155.097 -18.74692 113.2293
v -135.2726 -18.74692 113.2293
v -136.8233 7.090424 113.229
v -136.8233 7.090424 92.14844
v -156.6477 7.090424 92.14844
v -136.8233 7.090424 113.229
v -156.6477 7.090424 113.229
v -135.2726 -18.74692 144.6371
v -136.8233 7.090424 144.6368
v -156.6477 7.090424 144.6368
v -155.097 -18.74692 144.6371
v -136.8233 19.57626 113.2289
v -156.6477 19.57626 113.229
v -136.8233 19.57626 144.6368
v -156.6477 19.57629 144.6367
v -135.2726 -18.74692 169.5394
v -136.8233 7.090424 169.5391
v -156.6477 7.090424 169.5391
v -155.097 -18.74692 169.5394
v -136.8233 7.090424 144.6368
v -156.6477 7.090424 144.6368
v -136.8233 7.090424 169.5391
v -156.6477 7.090424 169.5391
v -135.2726 -18.79315 191.5765
v -136.8233 7.090424 191.5262
v -156.6477 7.090424 191.5262
v -155.097 -18.79315 191.5765
v -136.8233 19.57626 169.5391
v -156.6477 19.57629 169.5391
v -136.8233 19.57629 191.5262
v -156.6477 19.57629 191.5262
v -136.8233 7.090424 113.229
v -156.6477 7.090424 113.229
v -136.8233 19.57626 113.2289
v -156.6477 19.57626 113.229
v -136.8233 19.57626 144.6368
v -136.8233 19.57626 113.2289
v -156.6477 19.57626 113.229
v -156.6477 19.57629 144.6367
v -156.6477 7.090424 144.6368
v -136.8233 7.090424 144.6368
v -156.6477 19.57629 144.6367
v -136.8233 19.57626 144.6368
v -136.8233 7.090424 169.5391
v -156.6477 7.090424 169.5391
v -136.8233 19.57626 169.5391
v -156.6477 19.57629 169.5391
v -136.8233 19.57629 191.5262
v -136.8233 19.57626 169.5391
v -156.6477 19.57629 169.5391
v -156.6477 19.57629 191.5262
v -156.6477 7.090424 191.5262
v -136.8233 7.090424 191.5262
v -156.6477 19.57629 191.5262
v -136.8233 19.57629 191.5262
v -155.097 -18.79315 191.5765
v -135.2726 -18.79315 191.5765
v -120.643 19.57626 10.66125
v -136.4704 19.57626 10.30331
v -120.643 19.57626 10.66125
v -136.4482 7.090424 10.30331
v -156.4634 7.090424 -8.969757
v -155.0024 -18.74692 -9.143799
v -156.6004 7.090424 9.537537
v -155.1394 -18.74692 9.363495
v -156.4634 19.57626 -8.969757
v -156.6004 19.57626 9.537537
v 51.64569 -18.82986 34.40167
v 31.78601 -18.78839 34.36632
v 51.64569 -18.82986 34.40167

vn 0.008494757 -0.009703089 -0.9999169
vn 0.01784547 -0.006917164 -0.9998168
vn 0.009519434 -0.003005965 -0.9999502
vn 0.006417164 0.0001117519 -0.9999794
vn 0 1 0
vn 0 1 0
vn 0 1 0
vn 0 0.9999999 0
vn 0.02103314 0.00127537 0.999778
vn 0.02103314 0.00127537 0.999778
vn 0.01441392 0.0008780954 0.9998958
vn 0.005646742 0.0003488053 0.9999839
vn 3.482147E-07 -1.124448E-05 -1
vn -4.265612E-12 -1.299258E-05 -1
vn 0 0.9999999 0
vn 0 1 0
vn 0 1 0
vn 0 0.9999999 0
vn 3.56111E-07 1.301395E-05 1
vn 6.443617E-07 1.10119E-05 1
vn -3.93129E-07 -9.686003E-06 -1
vn -1.907353E-07 -1.300403E-05 -1
vn 0 1 0
vn 0 1 0
vn 0 1 0
vn 0 1 0
vn 0.008495157 0 -0.9999639
vn 0.008495157 0 -0.9999639
vn -0.9999903 0 0.004429169
vn -0.9999903 0 0.004429169
vn -0.9999903 0 0.004429169
vn -0.9999903 0 0.004429169
vn 1 0 0
vn 1 0 0
vn 1 0 0
vn 1 0 0
vn 0 0 1
vn 0 0 1
vn -5.008695E-07 0 -1
vn -5.008695E-07 0 -1
vn -1 0 0
vn -1 0 0
vn -1 0 0
vn -1 0 0
vn 0 -1.094101E-05 -1
vn 0 -1.299258E-05 -1
vn 5.655374E-07 1.302652E-05 1
vn -1.250445E-07 9.648495E-06 1
vn 0 1 0
vn 0 1 0
vn 0 1 0
vn 0 1 0
vn 0.007483025 0.0004621132 0.9999719
vn 0.01293391 0.0007874535 0.999916
vn -0.005653295 -0.0003491183 -0.999984
vn -0.01503676 -0.0009154766 -0.9998865
vn 0 1 0
vn 0 1 0
vn 0 1 0
vn 0 1 0
vn 0.01121081 0.0006858492 0.9999369
vn -0.006865463 -0.001512194 0.9999753
vn -0.01469106 -0.000844019 -0.9998918
vn -0.008902323 0.001813323 -0.9999588
vn 9.85682E-07 1 0
vn 9.85682E-07 1 0
vn 9.85682E-07 1 0
vn 9.856819E-07 1 0
vn -0.02816716 -0.005059989 0.9995904
vn -0.003755489 0.002150801 -0.9999906
vn -0.0005302828 0.006705917 -0.9999774
vn 0 1 0
vn 0 1 0
vn 0 1 0
vn 0 1 0
vn 1 0 1.539392E-06
vn 1 0 1.539392E-06
vn 1 0 1.539392E-06
vn 1 0 1.539392E-06
vn -4.858279E-07 0 1
vn -4.858279E-07 0 1
vn 0 0 -1
vn 0 0 -1
vn -1 4.888338E-06 0
vn -1 2.444169E-06 -1.539394E-06
vn -1 2.444169E-06 -1.539394E-06
vn -1 0 -3.078787E-06
vn 1 0 0
vn 1 0 0
vn 1 0 0
vn 1 0 0
vn -0.005399644 0 -0.9999855
vn -0.005399644 0 -0.9999855
vn -0.9991766 -0.04043094 0.003379083
vn -0.9981577 -0.06053926 0.004026258
vn -0.999157 -0.04087623 0.003818301
vn -0.9981166 -0.06116608 0.004674706
vn 0 0.9999999 0
vn 0 1 0
vn 0.9987607 0.04976879 -0.0001013915
vn 0.9993973 0.03470418 0.0008473021
vn 0.9999998 -3.240843E-10 0.0005303795
vn 0.9999994 0 0.001056614
vn -0.9999943 0 0.003381799
vn -0.9999943 0 0.003381799
vn -0.0007162879 0.001616732 0.9999985
vn -1.866885E-07 0.001395994 0.999999
vn -3.848491E-07 -6.11043E-07 1
vn -7.696973E-07 -1.222085E-06 1
vn 0.998444 0.02300986 -0.05079422
vn 0.9994708 0.0283914 -0.01587847
vn 0.9985167 0.05342596 -0.01048911
vn 0.999999 0 0.001405158
vn 0.9980403 0.0604498 0.01617168
vn 0.9990388 0.04094811 0.01564723
vn 0.9981419 0.06008288 0.01013264
vn 0.998616 0.05223263 0.006150089
vn -0.9992726 -0.03808672 -0.00190649
vn -0.9983059 -0.05818322 -9.795975E-05
vn -0.9989918 -0.04488954 -0.000500713
vn -0.9982036 -0.05991074 0.0005299276
vn 0 1 0
vn 0 1 0
vn 0 1 0
vn 0 1 0
vn 0.9982038 0.05991076 0
vn 0.9989887 0.04496228 2.546244E-07
vn -0.9986932 -0.05110632 -3.15326E-07
vn -0.9982038 -0.05991076 6.90121E-07
vn 0 1 0
vn 0 1 0
vn 0 1 0
vn 0 1 0
vn 0.9982038 0.05991113 1.857265E-07
vn 0.9987572 0.04984124 2.587871E-07
vn -0.9990262 -0.04411981 1.622955E-06
vn -0.9982038 -0.05991076 8.388978E-07
vn 0 1 0
vn 0 1 0
vn 0 1 0
vn 0 1 0
vn 0.9998848 0.000889568 0.01514824
vn 0.9998907 0.001779165 0.01468606
vn -0.9999982 0 -0.001907874
vn -0.9999982 0 -0.001907874
vn 1.539395E-06 0 1
vn 1.154546E-06 -6.110438E-07 1
vn 1.154546E-06 -6.110438E-07 1
vn 7.696974E-07 -1.222088E-06 1
vn 0 0 -1
vn 0 0 -1
vn 0 0 -1
vn 0 0 -1
vn 1 0 5.008695E-07
vn 1 0 5.008695E-07
vn -1 0 2.003478E-06
vn -1 0 2.003478E-06
vn 0 0 0.9999999
vn 0 0 0.9999999
vn 0 0 0.9999999
vn 0 0 0.9999999
vn -0.9987645 -0.04969252 -2.547094E-07
vn -0.9982038 -0.05991098 -1.815504E-07
vn 0.9982038 0.05991135 0
vn 0.9990302 0.04402993 0
vn 0 0.9999999 0
vn 0 0.9999999 0
vn 0 0.9999999 0
vn 0 0.9999999 0
vn 0.9982038 0.05991135 0
vn 0.9987239 0.05050391 0
vn -0.9990075 -0.04454441 -2.538808E-07
vn -0.9982038 -0.05991134 0
vn 0 1 0
vn 7.69698E-07 1 -4.85828E-07
vn 7.69698E-07 1 -4.85828E-07
vn 1.539398E-06 1 -9.71657E-07
vn 0.9982037 0.05991135 3.855627E-05
vn 0.9989502 0.04580734 3.072637E-05
vn -0.9986362 -0.05221015 0
vn -0.9982058 -0.05987729 -4.016414E-05
vn 0 1 0
vn 0 1 0
vn 0 1 0
vn 0 1 0
vn 0.9982069 0.05985805 6.286276E-05
vn 0.9991843 0.04038293 0
vn -0.9991827 -0.04042219 -4.245131E-05
vn -0.9982101 -0.05980496 -0.0001254715
vn 1.539397E-06 0.9999999 -1.387979E-06
vn 7.696979E-07 1 -6.939891E-07
vn 7.696979E-07 1 -6.939891E-07
vn 0 1 0
vn 0 -2.444175E-06 -0.9999999
vn -7.696979E-07 -1.222087E-06 -0.9999999
vn -7.696979E-07 -1.222087E-06 -0.9999999
vn -1.539396E-06 0 -0.9999999
vn 1 0 0
vn 1 0 0
vn -1 -1.187448E-12 -4.858284E-07
vn -1 -2.374896E-12 -4.858288E-07
vn 0 4.888338E-06 1
vn -1.539393E-06 2.444172E-06 1
vn -1.539393E-06 2.444172E-06 1
vn -3.078789E-06 0 1
vn 0 2.444175E-06 -1
vn 7.696983E-07 1.222086E-06 -1
vn 7.696983E-07 1.222086E-06 -1
vn 1.539395E-06 0 -1
vn 1 0 0
vn 1 0 0
vn -1 0 0
vn -1 0 0
vn -9.192664E-07 0.001566852 0.9999987
vn -1.161446E-06 0.0009900948 0.9999995
vn -7.696973E-07 1.222085E-06 1
vn 0 2.444169E-06 1
vn 0 0.0019454 0.9999981
vn -7.696959E-07 0.001944764 0.9999981
vn -0.02260948 0 0.9997443
vn -0.02262536 -2.012932E-05 0.999744
vn 0 1 0
vn -0.02264091 -0.005479524 0.9997286
vn -0.999248 -0.03806085 -0.007394917
vn -0.9983807 -0.05640467 -0.007388498
vn -0.999248 -0.03806085 -0.007394916
vn -0.9983807 -0.05640467 -0.007388498
vn -0.9999726 0 -0.007400279
vn -0.9999726 0 -0.007400279
vn 0.998049 0.06242614 -0.001027032
vn -0.001777563 0.001270775 0.9999976
vn -0.0008888015 0.002006113 0.9999976

vt 2.146165 0.7890751
vt 2.146165 0.5740117
vt 1.735263 0.7890751
vt 1.735262 0.5740117
vt 0.473911 0.4041975
vt 0.3086279 0.4039423
vt 0.4740711 0.5952455
vt 0.3071426 0.5960579
vt -0.7352625 0.5740117
vt -0.7352625 0.7890751
vt -0.299054 0.5740117
vt -0.299054 0.7890751
vt 1.299054 0.7890751
vt 1.299054 0.5740117
vt 0.4746013 1.735263
vt 0.8263566 1.735263
vt 0.4746018 1.299054
vt 0.8263571 1.299054
vt 0.1867727 0.5740117
vt 0.1867727 0.7890751
vt 0.8132272 0.7890751
vt 0.8132272 0.5740117
vt 0.4746018 0.9884921
vt 0.826357 0.9884921
vt 0.4746017 0.5026655
vt 0.8263564 0.5026655
vt 2.146165 0.9904686
vt 1.735263 0.9904687
vt 0.8263566 0.6143664
vt 0.4746013 0.6143664
vt 0.8263565 0.81576
vt 0.4746013 0.8157599
vt 0.5253982 0.6143664
vt 0.1736429 0.6143664
vt 0.5253983 0.8157599
vt 0.173643 0.81576
vt 0.1867727 0.9904686
vt -0.299054 0.9904686
vt 1.299054 0.9904687
vt 0.8132273 0.9904686
vt 0.8263564 0.6143664
vt 0.4746017 0.6143664
vt 0.8263564 0.8157599
vt 0.4746017 0.8157599
vt 0.4182515 0.7890751
vt 0.4182514 0.5740117
vt 0.5817485 0.5740117
vt 0.5817485 0.7890751
vt 0.4746017 0.8132273
vt 0.8263564 0.8132272
vt 0.4746011 0.4182515
vt 0.8263564 0.4182515
vt 1.082617 0.5740117
vt 1.082617 0.7890751
vt -0.08261728 0.7890751
vt -0.08261728 0.5740117
vt 0.4746011 0.9894634
vt 0.8263563 0.9894633
vt 0.474601 0.4885947
vt 0.8263562 0.4885956
vt 1.576358 0.5740117
vt 1.576358 0.7890751
vt -0.5763582 0.7890751
vt -0.5763582 0.5740117
vt 0.474601 -0.08261722
vt 0.8263563 -0.08261728
vt 0.4746009 -0.5763581
vt 0.8263562 -0.5763582
vt 1.802418 0.5740117
vt -1.146166 0.7890751
vt -1.146166 0.5740117
vt 0.4746009 0.7600188
vt 0.8263562 0.9875423
vt 0.4746008 0.4177347
vt 0.8263555 0.4177346
vt 0.5253989 0.6143664
vt 0.1736436 0.6143664
vt 0.5253989 0.8157599
vt 0.1736437 0.8157599
vt 1.082617 0.9904686
vt 0.5817485 0.9904686
vt 0.4182515 0.9904686
vt -0.08261627 0.9904687
vt 0.8263563 0.6143664
vt 0.474601 0.6143664
vt 0.8263562 0.81576
vt 0.474601 0.8157599
vt 0.5253991 0.6143664
vt 0.1736438 0.6143664
vt 0.5253991 0.8157599
vt 0.1736439 0.81576
vt -0.5763582 0.9904687
vt -1.146166 0.9904687
vt 2.146165 0.7890751
vt 2.146165 0.5740117
vt 1.735263 0.7890751
vt 1.735262 0.5740117
vt 0.6928572 0.4043251
vt 0.6928572 0.5944325
vt 0.9963007 0.6818404
vt 0.4288611 0.6818401
vt 0.9963006 0.9995004
vt 0.428861 0.9995002
vt 2.146165 0.9904686
vt 1.735263 0.9904687
vt 0.6923925 0.6818404
vt 0.3103306 0.6818405
vt 0.6923926 0.9995005
vt 0.3103306 0.9995006
vt 0.00902158 0.3426183
vt 0.0004994273 0.6818398
vt 0.425717 0.3415636
vt 0.0004993677 0.9994998
vt -1.146165 0.5740117
vt -1.146165 0.7890751
vt -0.7352625 0.5740117
vt -0.7352625 0.7890751
vt 2.146165 0.7890751
vt 2.146165 0.5740117
vt 1.735263 0.7890751
vt 1.735262 0.5740117
vt 0.473911 0.4041975
vt 0.4740711 0.5952455
vt 0.6928572 0.4043251
vt 0.6928572 0.5944325
vt -0.299054 0.5740117
vt -0.299054 0.7890751
vt 1.299054 0.7890751
vt 1.299054 0.5740117
vt 0.4746013 1.735263
vt 0.8263566 1.735263
vt 0.4746018 1.299054
vt 0.8263571 1.299054
vt 0.1867727 0.5740117
vt 0.1867727 0.7890751
vt 0.8132272 0.7890751
vt 0.8132272 0.5740117
vt 0.4746018 0.9884921
vt 0.826357 0.9884921
vt 0.4746017 0.5026655
vt 0.8263564 0.5026655
vt -0.7352625 0.9904686
vt -1.146165 0.9904686
vt 2.146165 0.9904686
vt 1.735263 0.9904687
vt 0.8263566 0.6143664
vt 0.4746013 0.6143664
vt 0.8263565 0.81576
vt 0.4746013 0.8157599
vt 0.5253982 0.6143664
vt 0.1736429 0.6143664
vt 0.5253983 0.8157599
vt 0.173643 0.81576
vt 0.1867727 0.9904686
vt -0.299054 0.9904686
vt 1.299054 0.9904687
vt 0.8132273 0.9904686
vt 0.8263564 0.6143664
vt 0.4746017 0.6143664
vt 0.8263564 0.8157599
vt 0.4746017 0.8157599
vt 0.4182515 0.7890751
vt 0.4182514 0.5740117
vt 0.5817485 0.5740117
vt 0.5817485 0.7890751
vt 0.4746017 0.8132273
vt 0.8263564 0.8132272
vt 0.4746011 0.4182515
vt 0.8263564 0.4182515
vt 1.082617 0.5740117
vt 1.082617 0.7890751
vt -0.08261728 0.7890751
vt -0.08261728 0.5740117
vt 0.4746011 0.9894634
vt 0.8263563 0.9894633
vt 0.474601 0.4885947
vt 0.8263562 0.4885956
vt 1.576358 0.5740117
vt 1.576358 0.7890751
vt -0.5763582 0.7890751
vt -0.5763582 0.5740117
vt 0.474601 -0.08261722
vt 0.8263563 -0.08261728
vt 0.4746009 -0.5763581
vt 0.8263562 -0.5763582
vt 2.146166 0.5740117
vt 2.146166 0.7890751
vt -1.146166 0.7890751
vt -1.146166 0.5740117
vt 0.4746009 0.9875424
vt 0.8263562 0.9875423
vt 0.4746008 0.4177347
vt 0.8263555 0.4177346
vt 0.5253989 0.6143664
vt 0.1736436 0.6143664
vt 0.5253989 0.8157599
vt 0.1736437 0.8157599
vt 1.082617 0.9904686
vt 0.5817485 0.9904686
vt 0.4182515 0.9904686
vt -0.08261627 0.9904687
vt 0.8263563 0.6143664
vt 0.474601 0.6143664
vt 0.8263562 0.81576
vt 0.474601 0.8157599
vt 0.5253991 0.6143664
vt 0.1736438 0.6143664
vt 0.5253991 0.8157599
vt 0.1736439 0.81576
vt 2.146166 0.9904686
vt 1.576358 0.9904686
vt -0.5763582 0.9904687
vt -1.146166 0.9904687
vt 0.3212484 0.6877813
vt 0.3212484 0.3122171
vt 0.0004995763 0.6877813
vt 0.0004995763 0.3122171
vt 0.6649567 0.6877813
vt 0.6649567 0.3122171
vt 1.576358 0.9904686
vt 1.803882 0.9904686
vt 0.4746009 0.9875424
vt 1.803173 0.7890751
vt 2.146165 0.7890751
vt 2.146165 0.5740117
vt 1.735263 0.7890751
vt 1.735262 0.5740117
vt 2.146165 0.9904686
vt 1.735263 0.9904687
vt 0.9979005 0.3405088
vt 0.6917114 0.3415637
vt 0.3089695 0.3405088

usemtl sn17_01_s17gsc06.JPG
usemap sn17_01_s17gsc06.JPG
f 3/3/3 1/1/1 2/2/2
f 2/2/2 4/4/4 3/3/3
f 7/7/7 5/5/5 6/6/6
f 6/6/6 8/8/8 7/7/7
f 11/11/11 9/9/9 10/10/10
f 10/10/10 12/12/12 11/11/11
f 13/13/13 3/3/3 4/4/4
f 4/4/4 14/14/14 13/13/13
f 17/17/17 15/15/15 16/16/16
f 16/16/16 18/18/18 17/17/17
f 19/19/19 11/11/11 12/12/12
f 12/12/12 20/20/20 19/19/19
f 21/21/21 13/13/13 14/14/14
f 14/14/14 22/22/22 21/21/21
f 25/25/25 23/23/23 24/24/24
f 24/24/24 26/26/26 25/25/25
f 27/27/27 1/1/1 3/3/3
f 3/3/3 28/28/28 27/27/27
f 31/31/31 29/29/29 30/30/30
f 30/30/30 32/32/32 31/31/31
f 35/35/35 33/33/33 34/34/34
f 34/34/34 36/36/36 35/35/35
f 37/37/37 20/20/20 12/12/12
f 12/12/12 38/38/38 37/37/37
f 39/39/39 13/13/13 21/21/21
f 21/21/21 40/40/40 39/39/39
f 43/43/43 41/41/41 42/42/42
f 42/42/42 44/44/44 43/43/43
f 45/45/45 21/21/21 22/22/22
f 22/22/22 46/46/46 45/45/45
f 47/47/47 19/19/19 20/20/20
f 20/20/20 48/48/48 47/47/47
f 51/51/51 49/49/49 50/50/50
f 50/50/50 52/52/52 51/51/51
f 53/53/53 47/47/47 48/48/48
f 48/48/48 54/54/54 53/53/53
f 55/55/55 45/45/45 46/46/46
f 46/46/46 56/56/56 55/55/55
f 59/59/59 57/57/57 58/58/58
f 58/58/58 60/60/60 59/59/59
f 61/61/61 53/53/53 54/54/54
f 54/54/54 62/62/62 61/61/61
f 63/63/63 55/55/55 56/56/56
f 56/56/56 64/64/64 63/63/63
f 67/67/67 65/65/65 66/66/66
f 66/66/66 68/68/68 67/67/67
f 69/69/69 61/61/61 62/62/62
f 70/70/70 63/63/63 64/64/64
f 64/64/64 71/71/71 70/70/70
f 74/74/74 72/72/72 73/73/73
f 73/73/73 75/75/75 74/74/74
f 78/78/78 76/76/76 77/77/77
f 77/77/77 79/79/79 78/78/78
f 80/80/80 54/54/54 48/48/48
f 48/48/48 81/81/81 80/80/80
f 82/82/82 45/45/45 55/55/55
f 55/55/55 83/83/83 82/82/82
f 86/86/86 84/84/84 85/85/85
f 85/85/85 87/87/87 86/86/86
f 90/90/90 88/88/88 89/89/89
f 89/89/89 91/91/91 90/90/90
f 92/92/92 63/63/63 70/70/70
f 70/70/70 93/93/93 92/92/92
f 96/96/96 94/94/94 95/95/95
f 95/95/95 97/97/97 96/96/96
f 98/98/98 5/5/5 7/7/7
f 7/7/7 99/99/99 98/98/98
f 102/102/102 100/100/100 101/101/101
f 101/101/101 103/103/103 102/102/102
f 104/104/104 94/94/94 96/96/96
f 96/96/96 105/105/105 104/104/104
f 108/108/108 106/106/106 107/107/107
f 107/107/107 109/109/109 108/108/108
f 112/112/112 110/110/110 111/111/111
f 111/111/111 101/101/101 112/112/112
f 103/103/103 101/101/101 111/111/111
f 111/111/111 113/113/113 103/103/103
f 116/116/116 114/114/114 115/115/115
f 115/115/115 117/117/117 116/116/116
f 120/120/120 118/118/118 119/119/119
f 119/119/119 121/121/121 120/120/120
f 124/124/124 122/122/122 123/123/123
f 123/123/123 125/125/125 124/124/124
f 126/126/126 116/116/116 117/117/117
f 117/117/117 127/127/127 126/126/126
f 128/128/128 120/120/120 121/121/121
f 121/121/121 129/129/129 128/128/128
f 132/132/132 130/130/130 131/131/131
f 131/131/131 133/133/133 132/132/132
f 134/134/134 126/126/126 127/127/127
f 127/127/127 135/135/135 134/134/134
f 136/136/136 128/128/128 129/129/129
f 129/129/129 137/137/137 136/136/136
f 140/140/140 138/138/138 139/139/139
f 139/139/139 141/141/141 140/140/140
f 142/142/142 117/117/117 115/115/115
f 115/115/115 143/143/143 142/142/142
f 144/144/144 118/118/118 120/120/120
f 120/120/120 145/145/145 144/144/144
f 148/148/148 146/146/146 147/147/147
f 147/147/147 149/149/149 148/148/148
f 152/152/152 150/150/150 151/151/151
f 151/151/151 153/153/153 152/152/152
f 154/154/154 135/135/135 127/127/127
f 127/127/127 155/155/155 154/154/154
f 156/156/156 128/128/128 136/136/136
f 136/136/136 157/157/157 156/156/156
f 160/160/160 158/158/158 159/159/159
f 159/159/159 161/161/161 160/160/160
f 162/162/162 136/136/136 137/137/137
f 137/137/137 163/163/163 162/162/162
f 164/164/164 134/134/134 135/135/135
f 135/135/135 165/165/165 164/164/164
f 168/168/168 166/166/166 167/167/167
f 167/167/167 169/169/169 168/168/168
f 170/170/170 164/164/164 165/165/165
f 165/165/165 171/171/171 170/170/170
f 172/172/172 162/162/162 163/163/163
f 163/163/163 173/173/173 172/172/172
f 176/176/176 174/174/174 175/175/175
f 175/175/175 177/177/177 176/176/176
f 178/178/178 170/170/170 171/171/171
f 171/171/171 179/179/179 178/178/178
f 180/180/180 172/172/172 173/173/173
f 173/173/173 181/181/181 180/180/180
f 184/184/184 182/182/182 183/183/183
f 183/183/183 185/185/185 184/184/184
f 186/186/186 178/178/178 179/179/179
f 179/179/179 187/187/187 186/186/186
f 188/188/188 180/180/180 181/181/181
f 181/181/181 189/189/189 188/188/188
f 192/192/192 190/190/190 191/191/191
f 191/191/191 193/193/193 192/192/192
f 196/196/196 194/194/194 195/195/195
f 195/195/195 197/197/197 196/196/196
f 198/198/198 171/171/171 165/165/165
f 165/165/165 199/199/199 198/198/198
f 200/200/200 162/162/162 172/172/172
f 172/172/172 201/201/201 200/200/200
f 204/204/204 202/202/202 203/203/203
f 203/203/203 205/205/205 204/204/204
f 208/208/208 206/206/206 207/207/207
f 207/207/207 209/209/209 208/208/208
f 210/210/210 187/187/187 179/179/179
f 179/179/179 211/211/211 210/210/210
f 212/212/212 180/180/180 188/188/188
f 188/188/188 213/213/213 212/212/212
f 216/216/216 214/214/214 215/215/215
f 215/215/215 217/217/217 216/216/216
f 214/214/214 218/218/218 219/219/219
f 219/219/219 215/215/215 214/214/214
f 62/62/62 220/220/220 221/221/221
f 72/72/72 222/222/222 73/73/73
f 221/221/221 223/223/223 62/62/62
f 62/62/62 223/223/223 69/69/69
f 226/226/226 224/224/224 225/225/225
f 225/225/225 227/227/227 226/226/226
f 228/228/228 224/224/224 226/226/226
f 226/226/226 229/229/229 228/228/228
f 100/100/100 230/230/230 112/112/112
f 112/112/112 101/101/101 100/100/100
f 106/106/106 231/231/231 232/232/232
f 232/232/232 107/107/107 106/106/106
