mtllib ./Box172.mtl
g Box172
v 83.04465 -31.32065 -139.5691
v 55.84665 -21.36603 -112.3603
v 55.85162 -21.36722 53.4657
v 83.04443 -31.32065 80.63779
v 83.04443 -31.32065 80.63779
v 55.85162 -21.36722 53.4657
v -109.9808 -21.36761 53.46722
v -137.1619 -31.32065 80.6376
v -109.9808 -21.36761 53.46722
v -109.9759 -21.36642 -112.3617
v -137.1622 -31.32065 -139.5687
v -137.1619 -31.32065 80.6376
v 28.64862 -11.41138 -85.15152
v -82.78955 -11.41217 -85.15466
v -55.60727 3.110474 -57.95172
v 1.454651 3.111633 -57.94684
v 1.454651 3.111633 -57.94684
v -55.60727 3.110474 -57.95172
v -55.62268 3.106842 -0.8694763
v 1.470123 3.108002 -0.8743591
v 28.64862 -11.41138 -85.15152
v 28.65884 -11.41382 26.29364
v 1.454651 3.111633 -57.94684
v 1.470123 3.108002 -0.8743591
v 28.65884 -11.41382 26.29364
v -82.79968 -11.41458 26.29684
v 1.470123 3.108002 -0.8743591
v -55.62268 3.106842 -0.8694763
v -82.79968 -11.41458 26.29684
v -82.78955 -11.41217 -85.15466
v -55.62268 3.106842 -0.8694763
v -55.60727 3.110474 -57.95172
v 55.84665 -21.36603 -112.3603
v -109.9759 -21.36642 -112.3617
v 83.04465 -31.32065 -139.5691
v -137.1622 -31.32065 -139.5687
v 74.74722 -41.32379 72.34058
v 74.74744 -41.32379 -131.2718
v 83.04465 -31.32065 -139.5691
v 83.04443 -31.32065 80.63779
v -128.8647 -41.32379 72.34042
v 74.74722 -41.32379 72.34058
v 83.04443 -31.32065 80.63779
v -137.1619 -31.32065 80.6376
v -128.865 -41.32379 -131.2715
v -128.8647 -41.32379 72.34042
v -137.1619 -31.32065 80.6376
v -137.1622 -31.32065 -139.5687
v 74.74744 -41.32379 -131.2718
v -128.865 -41.32379 -131.2715
v -137.1622 -31.32065 -139.5687
v 83.04465 -31.32065 -139.5691
v 25.69046 -28.89151 23.28372
v 25.69055 -28.89151 -82.21494
v 74.74744 -41.32379 -131.2718
v 74.74722 -41.32379 72.34058
v -79.80795 -28.89151 23.28363
v -128.8647 -41.32379 72.34042
v -79.80811 -28.89151 -82.21477
v -128.865 -41.32379 -131.2715
v -27.05875 -14.05737 -29.46559

vn 0.3437182 0.9390729 -1.345787E-06
vn 0.3437045 0.9390778 -3.570596E-06
vn 0.3437182 0.9390728 -3.51714E-06
vn 0.3437287 0.939069 3.302261E-07
vn 2.29481E-07 0.938983 0.3439635
vn 9.171228E-07 0.9389847 0.3439589
vn 9.447842E-07 0.938983 0.3439634
vn -2.873642E-07 0.9389818 0.3439668
vn -0.3438407 0.939028 -1.882052E-06
vn -0.3438312 0.9390315 -5.380608E-06
vn -0.3438368 0.9390295 -1.182121E-06
vn -0.3438478 0.9390254 5.718311E-07
vn 8.700406E-06 0.9060782 -0.4231103
vn 3.20147E-06 0.923941 -0.382535
vn 1.220704E-05 0.8821627 -0.4709449
vn 2.236842E-05 0.8821757 -0.4709204
vn -2.031747E-05 1 6.36258E-05
vn -2.032842E-05 1 6.361485E-05
vn -2.031747E-05 1 6.36258E-05
vn -2.030654E-05 1 6.363673E-05
vn 0.382663 0.923888 -1.176328E-05
vn 0.4232763 0.9060006 -2.896853E-05
vn 0.4711025 0.8820785 -4.004622E-05
vn 0.4711785 0.8820379 -7.161186E-05
vn 3.618716E-06 0.9237744 0.382937
vn 9.094062E-06 0.9058692 0.4235575
vn 1.255867E-05 0.8819149 0.4714086
vn 2.240567E-05 0.8819022 0.4714324
vn -0.3828081 0.9238279 -1.169633E-05
vn -0.4233909 0.9059471 -2.880808E-05
vn -0.4712506 0.8819993 -3.980088E-05
vn -0.4711751 0.8820397 -7.109477E-05
vn 1.203854E-06 0.9391198 -0.3435901
vn 1.317899E-07 0.9391187 -0.3435927
vn -6.878171E-08 0.9391194 -0.3435911
vn -5.714079E-07 0.9391183 -0.3435942
vn 0.7696853 -0.6384234 7.759087E-07
vn 0.7696856 -0.638423 8.075273E-07
vn 0.7696853 -0.6384234 7.759087E-07
vn 0.769685 -0.6384238 7.466728E-07
vn -6.096445E-07 -0.6384228 0.7696859
vn -5.768064E-07 -0.6384232 0.7696856
vn -6.096445E-07 -0.6384228 0.7696859
vn -6.400078E-07 -0.6384224 0.7696862
vn -0.7696865 -0.6384221 1.108445E-06
vn -0.7696884 -0.6384197 9.228939E-07
vn -0.7696865 -0.6384221 1.108445E-06
vn -0.7696847 -0.6384243 1.280013E-06
vn -1.246996E-06 -0.6384231 -0.7696856
vn -1.211292E-06 -0.6384227 -0.769686
vn -1.246996E-06 -0.6384231 -0.7696856
vn -1.280011E-06 -0.6384235 -0.7696852
vn -0.1686819 -0.9815784 -0.08972465
vn -0.08972435 -0.9815783 0.1686817
vn -0.150291 -0.9836728 0.09899709
vn -0.09899724 -0.9836727 -0.1502911
vn 0.08972473 -0.9815783 -0.1686819
vn 0.1502912 -0.9836727 -0.09899741
vn 0.1686818 -0.9815783 0.08972453
vn 0.09899734 -0.9836728 0.1502912
vn -3.307112E-09 -0.9999999 0

vt 1.024562 0.5889944
vt 0.8949318 0.6759301
vt 0.1048931 0.675913
vt -0.02456182 0.5889956
vt 0.9757149 0.5861477
vt 0.858225 0.6762592
vt 0.1417248 0.6762542
vt 0.02428532 0.5861485
vt 0.8867958 0.6720486
vt 0.1133759 0.6720662
vt -0.01351666 0.5826316
vt 1.013517 0.5826323
vt 0.2802395 0.7594062
vt 0.719853 0.7593956
vt 0.6126215 0.8463069
vt 0.3875172 0.8463234
vt 0.2076424 0.2998202
vt 0.6398205 0.2997954
vt 0.6399373 0.5890926
vt 0.2075255 0.5890678
vt 0.7653021 0.7628658
vt 0.234348 0.7628304
vt 0.6356918 0.8497885
vt 0.3637836 0.8497347
vt 0.7407351 0.7663707
vt 0.2591642 0.7663597
vt 0.6232628 0.8564686
vt 0.3765861 0.8564519
vt 0.7600741 0.7614648
vt 0.2402685 0.7615008
vt 0.6333715 0.8508676
vt 0.367142 0.850922
vt 0.1729456 0.6724761
vt 0.8271007 0.6724713
vt 0.06565177 0.5855458
vt 0.9343483 0.5855469
vt 0.0004994869 0.0004995167
vt 3.815445 0.0004995167
vt 3.812781 0.1806549
vt -0.002164066 0.1806549
vt 0.0005005002 0.0004995167
vt 3.815444 0.0004995167
vt 3.81278 0.1806549
vt -0.002163112 0.1806549
vt 0.000500977 0.0004995167
vt 3.815444 0.0004995167
vt 3.81278 0.1806549
vt -0.002162635 0.1806549
vt 0.0004994869 0.0004995167
vt 3.815445 0.0004995167
vt 3.812781 0.1806549
vt -0.002164066 0.1806549
vt 0.2411924 0.7588086
vt 0.2411916 0.2411915
vt 0.0004995763 0.0004995167
vt 0.0005010962 0.9995005
vt 0.7588081 0.758808
vt 0.9994994 0.9994994
vt 0.7588086 0.2411923
vt 0.9995004 0.0005009174
vt 0.5000002 0.5000001

usemtl sn17_05_s17gsc10.JPG
usemap sn17_05_s17gsc10.JPG
f 3/3/3 1/1/1 2/2/2
f 1/1/1 3/3/3 4/4/4
f 7/7/7 5/5/5 6/6/6
f 5/5/5 7/7/7 8/8/8
f 11/11/11 9/9/9 10/10/10
f 9/9/9 11/11/11 12/12/12
f 15/15/15 13/13/13 14/14/14
f 13/13/13 15/15/15 16/16/16
f 3/3/3 21/21/21 22/22/22
f 21/21/21 3/3/3 2/2/2
f 22/22/22 23/23/23 24/24/24
f 23/23/23 22/22/22 21/21/21
f 7/7/7 25/25/25 26/26/26
f 25/25/25 7/7/7 6/6/6
f 26/26/26 27/27/27 28/28/28
f 27/27/27 26/26/26 25/25/25
f 10/10/10 29/29/29 30/30/30
f 29/29/29 10/10/10 9/9/9
f 30/30/30 31/31/31 32/32/32
f 31/31/31 30/30/30 29/29/29
f 14/14/14 33/33/33 34/34/34
f 33/33/33 14/14/14 13/13/13
f 34/34/34 35/35/35 36/36/36
f 35/35/35 34/34/34 33/33/33

usemtl sn17_28_s17gsc19.JPG
usemap sn17_28_s17gsc19.JPG
f 19/19/19 17/17/17 18/18/18
f 20/20/20 17/17/17 19/19/19
f 39/39/39 37/37/37 38/38/38
f 37/37/37 39/39/39 40/40/40
f 43/43/43 41/41/41 42/42/42
f 41/41/41 43/43/43 44/44/44
f 47/47/47 45/45/45 46/46/46
f 45/45/45 47/47/47 48/48/48
f 51/51/51 49/49/49 50/50/50
f 49/49/49 51/51/51 52/52/52

usemtl sn17_30_s17gsc55.JPG
usemap sn17_30_s17gsc55.JPG
f 55/55/55 53/53/53 54/54/54
f 53/53/53 55/55/55 56/56/56
f 56/56/56 57/57/57 53/53/53
f 57/57/57 56/56/56 58/58/58
f 58/58/58 59/59/59 57/57/57
f 59/59/59 58/58/58 60/60/60
f 60/60/60 54/54/54 59/59/59
f 54/54/54 60/60/60 55/55/55
f 61/61/61 54/54/54 53/53/53
f 61/61/61 53/53/53 57/57/57
f 61/61/61 57/57/57 59/59/59
f 61/61/61 59/59/59 54/54/54
