mtllib ./Box195.mtl
g Box195
v -25.0741 -4.116608 -185.8936
v -24.56177 -4.054504 1.362793
v -10.68451 6.776733 1.362793
v -11.02289 6.714966 -199.7441
v 0.005432129 15.72778 1.362793
v -10.68451 6.776733 1.362793
v -10.35657 6.836609 196.309
v -0.2416382 15.78772 207.9111
v 25.22156 -4.054688 1.362793
v 10.60095 6.784485 1.362793
v 10.73932 6.851685 217.9845
v 25.55377 -3.994965 231.4509
v 0.2598877 15.66608 -211.3479
v 0.005432129 15.72778 1.362793
v 10.45776 6.714966 -222.729
v -10.70984 -17.51456 1.362793
v -24.56177 -4.054504 1.362793
v -25.0741 -4.116608 -185.8936
v -11.30896 -17.61813 -199.3201
v 15.58856 -17.03571 217.9172
v 17.703 -17.28723 1.362793
v 25.22156 -4.054688 1.362793
v 25.55377 -3.994965 231.4509
v -510.2981 7.380615 195.9811
v -10.35657 6.836609 196.309
v -24.07043 -3.994965 180.9628
v -496.6402 -3.466064 182.0325
v -510.2981 7.380615 195.9811
v -521.2461 16.31659 206.8108
v -0.2416382 15.78772 207.9111
v 10.73932 6.851685 217.9845
v -533.1644 7.380615 217.6577
v -546.3934 -3.466064 230.1804
v 25.55377 -3.994965 231.4509
v -533.1644 7.380615 217.6577
v -0.2416382 15.78772 207.9111
v -521.2461 16.31659 206.8108
v 24.87695 -4.116608 -237.2538
v -537.749 -3.709351 -236.1851
v -529.9719 7.122253 -222.2363
v 10.45776 6.714966 -222.729
v -526.7014 16.0733 -211.0801
v 0.2598877 15.66608 -211.3479
v 10.45776 6.714966 -222.729
v -537.749 -3.709351 -185.9751
v -25.0741 -4.116608 -185.8936
v -11.02289 6.714966 -199.7441
v -529.9719 7.152405 -199.9735
v 0.2598877 15.66608 -211.3479
v -526.7014 16.0733 -211.0801
v -11.02289 6.714966 -199.7441
v -529.9719 7.152405 -199.9735
v -526.7014 16.0733 -211.0801
v -529.9719 7.122253 -222.2363
v -537.749 -3.709351 -236.1851
v -537.749 -3.709351 -185.9751
v -546.4782 -3.466064 1.362671
v -532.9619 7.374634 1.362671
v -532.6543 7.36554 -327.0397
v -546.603 -3.466064 -334.8169
v -521.2461 16.31659 206.8108
v -521.3436 16.31659 1.362671
v -532.9619 7.374634 1.362671
v -533.1644 7.380615 217.6577
v -496.6402 -3.466064 182.0325
v -496.5538 -3.466064 1.362671
v -510.3152 7.375 1.362671
v -510.2981 7.380615 195.9811
v -521.498 16.31659 -323.7692
v -521.3436 16.31659 1.362671
v -510.3152 7.375 1.362671
v -510.344 7.36554 -327.0397
v -496.6402 -3.466064 182.0325
v -24.07043 -3.994965 180.9628
v -10.12555 -17.41357 197.0681
v -512.8315 -16.76837 195.8385
v 25.55377 -3.994965 231.4509
v -546.3934 -3.466064 230.1804
v -531.0746 -16.76859 228.5221
v 15.58856 -17.03571 217.9172
v -537.749 -3.709351 -236.1851
v 24.87695 -4.116608 -237.2538
v 19.93433 -17.55267 -227.1658
v -537.7491 -17.01544 -229.493
v -25.0741 -4.116608 -185.8936
v -537.749 -3.709351 -185.9751
v -513.6293 -17.01553 -201.5427
v -11.30896 -17.61813 -199.3201
v -531.1694 -16.76697 1.362671
v -546.4782 -3.466064 1.362671
v -546.603 -3.466064 -334.8169
v -531.3096 -16.76459 -334.8168
v -512.3189 -16.767 1.362671
v -496.5538 -3.466064 1.362671
v -496.6402 -3.466064 182.0325
v -512.8315 -16.76837 195.8385
v -24.07043 -3.994965 180.9628
v -24.07043 -3.994965 180.9628
v 0.005432129 15.72778 1.362793
v 0.2598877 15.66608 -211.3479
v 24.87695 -4.116608 -237.2538
v -0.2416382 15.78772 207.9111
v -10.12555 -17.41357 197.0681
v -24.07043 -3.994965 180.9628
v 19.93433 -17.55267 -227.1658
v 24.87695 -4.116608 -237.2538
v -546.3934 -3.466064 230.1804
v -521.498 16.31659 -323.7692
v -532.6543 7.36554 -327.0397
v -496.3931 -3.466064 -334.8169
v -510.344 7.36554 -327.0397
v -521.2461 16.31659 206.8108
v -531.0746 -16.76859 228.5221
v -546.3934 -3.466064 230.1804
v -511.433 -16.76459 -334.8169
v -496.3931 -3.466064 -334.8169

vn -0.6125563 0.7904262 0.001089691
vn -0.6152775 0.7883093 0.001421913
vn -0.6197298 0.7848145 0.001118134
vn -0.62354 0.7817913 0.0002322849
vn -0.6522177 0.7580317 -9.483231E-05
vn -0.6300318 0.7765689 0.0008213373
vn -0.6401865 0.7682195 0.0002478875
vn -0.6620606 0.7494497 -0.001009422
vn 0.5956272 0.8032606 -0.0008558942
vn 0.6255525 0.7801819 -0.0002919704
vn 0.6039509 0.7970212 -0.0007966833
vn 0.5913799 0.8063923 -0.001063179
vn 0.6522732 0.7579839 -6.156183E-05
vn 0.645011 0.764173 0.0005498586
vn 0.6145301 0.7888929 -0.0008042729
vn -0.6969233 -0.717142 0.002303527
vn -0.6968877 -0.717177 0.00214438
vn -0.697988 -0.7161056 0.002305574
vn -0.6990137 -0.7151039 0.002455922
vn 0.8316274 -0.5553217 0.003705405
vn 0.869419 -0.4939923 0.009062733
vn 0.8711491 -0.4910036 0.00384089
vn 0.7950625 -0.6065268 -0.0009905231
vn 0.0004330812 0.8038401 -0.5948452
vn 0.001527671 0.7957104 -0.6056753
vn 0.0004330812 0.8038401 -0.5948452
vn -0.0005069861 0.7891729 -0.614171
vn 0.001256893 0.771945 -0.6356882
vn 0.001693767 0.7818907 -0.6234133
vn 0.002095293 0.7908677 -0.6119835
vn -4.470182E-05 0.7623349 0.6471826
vn 0.0003414153 0.7556997 0.6549183
vn -0.0001895166 0.7676964 0.6408136
vn -0.0006745897 0.7784281 0.6277335
vn -0.0001152152 0.7603297 0.6495374
vn -0.0001152152 0.7603297 0.6495374
vn -0.0005583304 0.772119 0.6354779
vn -0.0002694836 0.7958179 -0.605536
vn -0.000592806 0.7899897 -0.61312
vn -0.0001887388 0.7914103 -0.6112853
vn 5.921739E-05 0.801668 -0.5977696
vn 0.0001544048 0.7830518 -0.6219563
vn 0.0002934136 0.7861502 -0.6180354
vn 0.0001544048 0.7830518 -0.6219563
vn 0.000460535 0.7887239 0.6147475
vn 0.0005275109 0.7874663 0.6163575
vn 0.000460535 0.7887239 0.6147475
vn 0.0005579739 0.7872761 0.6166004
vn 0.0006572191 0.7856395 0.6186842
vn 0.0009207477 0.779514 0.626384
vn 0.0003972025 0.7916073 0.61103
vn -0.8734384 0.4869341 -0.0006594731
vn -0.9390799 0.3436984 -0.0004654836
vn -0.8399327 0.5426903 -0.0002840343
vn -0.8123037 0.5832346 0
vn -0.8126881 0.582699 -0.0002424244
vn -0.6235946 0.781748 -0.0001794732
vn -0.6256661 0.7800906 -0.0006075533
vn -0.6194249 0.7850559 -0.0001810649
vn -0.6134054 0.7897682 0.0002277467
vn -0.6049192 0.7962869 -0.0001619577
vn -0.6099189 0.7924637 0.0002896291
vn -0.612694 0.7903202 -0.0001581905
vn -0.6212006 0.7836516 -0.0002975875
vn 0.6203981 0.784287 0.0001027852
vn 0.6166514 0.7872364 0.0001504435
vn 0.6196655 0.784866 1.884651E-05
vn 0.627584 0.7785489 -0.0001487982
vn 0.6278103 0.7783664 -0.0001872537
vn 0.6304533 0.7762271 -0.0002399036
vn 0.6282626 0.7780014 -0.0001621897
vn 0.6258651 0.7799313 -7.731277E-05
vn -0.0007885188 -0.7457305 -0.6662472
vn -0.002307233 -0.7692598 -0.638932
vn -0.0007885188 -0.7457305 -0.6662472
vn 0.0007711705 -0.7205733 -0.6933783
vn 0.006878805 -0.4985127 0.8668551
vn -0.002320395 -0.1263354 0.9919849
vn 0.006878805 -0.4985127 0.8668551
vn 0.01300859 -0.7248075 0.6888286
vn 0.0005033786 -0.5315722 -0.8470128
vn -0.001953961 -0.5999566 -0.8000302
vn 0.0005033786 -0.5315722 -0.8470128
vn 0.003295313 -0.4493032 -0.8933733
vn -0.002269527 -0.7357239 0.6772779
vn -0.0007075258 -0.7607016 0.6491015
vn -0.002269527 -0.7357239 0.6772779
vn -0.003976824 -0.7071643 0.707038
vn -0.6559814 -0.7547768 0.00025899
vn -0.6558052 -0.7549301 0.0002504488
vn -0.6560205 -0.754743 0.0002559033
vn -0.6561749 -0.7546088 0.000268303
vn 0.642316 -0.7664387 0.001336732
vn 0.6516958 -0.75848 0.00086344
vn 0.6400599 -0.7683243 0.001019074
vn 0.6356545 -0.7719719 0.001669922
vn -0.6203676 0.7843109 0.0008027015
vn -0.6152775 0.7883092 0.00142188
vn -0.6316731 0.7752348 -0.0001032081
vn -0.6221225 0.7829193 -0.0009713371
vn 0.5999174 0.8000612 -0.001074
vn 0.6380721 0.7699766 -6.742271E-05
vn -0.6948419 -0.7191583 0.002445572
vn -0.6958214 -0.7182112 0.002301407
vn 0.9065431 -0.4220947 0.003957163
vn 0.9382041 -0.3460801 -0.001265126
vn -0.6339097 0.773407 0.000235035
vn -0.6177816 0.7863498 -0.0001557014
vn -0.6256965 0.7800664 -0.0006075807
vn 0.6133705 0.7897953 0.0002932125
vn 0.6160609 0.7876986 0.0001110824
vn 0.6321487 0.774847 -0.0003001055
vn -0.6557602 -0.7549691 0.0002555622
vn -0.6556552 -0.7550604 0.0002430976
vn 0.653552 -0.7568811 0.00101464
vn 0.6624072 -0.7491439 0.0003166536

vt -0.7168189 0.6531622
vt 0.5215315 0.6580359
vt 0.5218594 0.7856941
vt -0.8077714 0.7819468
vt 0.5203943 0.8838156
vt 0.5218594 0.7856941
vt 1.810758 0.7893267
vt 1.887501 0.8827149
vt 0.5178211 0.5971459
vt 0.5189534 0.6974727
vt 1.425157 0.6976212
vt 1.479413 0.5962305
vt -0.3699965 0.7781894
vt 0.5217057 0.7781893
vt -0.4185007 0.6973191
vt 0.5184046 0.3067593
vt 0.589089 0.5568485
vt -0.6650904 0.5518154
vt -0.9656706 0.3040473
vt 0.05241311 0.2991324
vt 1.594471 0.3043404
vt 1.637764 0.5838206
vt 0.0004995167 0.5862419
vt 2.936406 0.7559467
vt 0.05971152 0.7483963
vt 0.1386369 0.5937641
vt 2.857828 0.6034219
vt 2.935549 0.7572504
vt 2.998501 0.883733
vt 0.001498729 0.8761827
vt 2.920845 0.7488415
vt 0.0707908 0.7547884
vt 0.00149855 0.6059989
vt 2.998502 0.598677
vt 0.06707016 0.7563721
vt 2.863284 0.8725546
vt 0.129659 0.8811447
vt 0.00149855 0.6231674
vt 2.998502 0.6282049
vt 2.957074 0.7621921
vt 0.07830732 0.757921
vt 2.939653 0.8729177
vt 0.1326295 0.8681841
vt 0.078307 0.7571546
vt 0.00149864 0.5984881
vt 2.857377 0.5930703
vt 2.93565 0.7416064
vt 0.04482159 0.7476114
vt 2.998501 0.8644983
vt 0.06304014 0.8700893
vt 2.935649 0.7409362
vt 1.234365 0.7209812
vt 1.216333 0.4999994
vt 1.234425 0.2780297
vt 1.256864 0.0004993081
vt 1.256864 0.9994993
vt 1.784748 0.5942208
vt 1.781754 0.7415135
vt 0.03973076 0.7429752
vt 0.00149855 0.5942208
vt 2.872963 0.8614763
vt 1.78428 0.8604501
vt 1.782948 0.7405508
vt 2.9291 0.7405508
vt 0.1447391 0.6115872
vt 1.145062 0.6111292
vt 1.1451 0.7554612
vt 0.06754619 0.7556099
vt 2.945283 0.8738986
vt 1.146227 0.8738985
vt 1.144424 0.7552936
vt 2.961567 0.7547598
vt 3.956137 0.5849005
vt -0.2020717 0.5904369
vt -0.1885428 0.2878696
vt 4.231851 0.2886322
vt 3.966578 0.5814589
vt 0.02368922 0.5849004
vt 0.0236892 0.2886315
vt 3.792897 0.2872531
vt 3.964791 0.5833174
vt 0.02380294 0.5806674
vt 0.02380294 0.2876943
vt 3.931106 0.2983832
vt 3.955855 0.5806674
vt 0.02510672 0.5833173
vt 0.1898154 0.2882813
vt 4.041248 0.2866766
vt 2.016625 0.28645
vt 2.024565 0.5884746
vt 0.008435966 0.5884746
vt 0.0004996061 0.2865793
vt 1.297916 0.2865793
vt 1.305992 0.5927765
vt 0.1813464 0.5950884
vt 0.08724824 0.2865793
vt 1.709249 0.6627102
vt 1.709249 0.6627102
vt 0.5203943 0.8838156
vt -0.8875011 0.884949
vt -0.4794127 0.5980952
vt 1.387574 0.7781892
vt 1.96567 0.309404
vt 1.791989 0.5616758
vt 3.221795 0.3098363
vt 3.335715 0.5813096
vt 2.998502 0.5942208
vt 0.06138563 0.8588261
vt 0.04273582 0.7405508
vt 3.006405 0.6102769
vt 2.963382 0.7552102
vt 0.009419497 0.8738986
vt 3.378937 0.2863626
vt 3.396825 0.5884746
vt 3.390731 0.2865795
vt 3.398667 0.5884746

usemtl sn17_27_s17gsc26.JPG
usemap sn17_27_s17gsc26.JPG
f 3/3/3 1/1/1 2/2/2
f 1/1/1 3/3/3 4/4/4
f 7/7/7 5/5/5 6/6/6
f 5/5/5 7/7/7 8/8/8
f 11/11/11 9/9/9 10/10/10
f 9/9/9 11/11/11 12/12/12
f 10/10/10 13/13/13 14/14/14
f 13/13/13 10/10/10 15/15/15
f 18/18/18 16/16/16 17/17/17
f 16/16/16 18/18/18 19/19/19
f 22/22/22 20/20/20 21/21/21
f 20/20/20 22/22/22 23/23/23
f 26/26/26 24/24/24 25/25/25
f 24/24/24 26/26/26 27/27/27
f 29/29/29 25/25/25 28/28/28
f 25/25/25 29/29/29 30/30/30
f 33/33/33 31/31/31 32/32/32
f 31/31/31 33/33/33 34/34/34
f 36/36/36 35/35/35 31/31/31
f 35/35/35 36/36/36 37/37/37
f 40/40/40 38/38/38 39/39/39
f 38/38/38 40/40/40 41/41/41
f 44/44/44 42/42/42 43/43/43
f 42/42/42 44/44/44 40/40/40
f 47/47/47 45/45/45 46/46/46
f 45/45/45 47/47/47 48/48/48
f 48/48/48 49/49/49 50/50/50
f 49/49/49 48/48/48 51/51/51
f 54/54/54 52/52/52 53/53/53
f 56/56/56 54/54/54 55/55/55
f 56/56/56 52/52/52 54/54/54
f 59/59/59 57/57/57 58/58/58
f 57/57/57 59/59/59 60/60/60
f 63/63/63 61/61/61 62/62/62
f 61/61/61 63/63/63 64/64/64
f 67/67/67 65/65/65 66/66/66
f 65/65/65 67/67/67 68/68/68
f 71/71/71 69/69/69 70/70/70
f 69/69/69 71/71/71 72/72/72
f 75/75/75 73/73/73 74/74/74
f 73/73/73 75/75/75 76/76/76
f 79/79/79 77/77/77 78/78/78
f 77/77/77 79/79/79 80/80/80
f 83/83/83 81/81/81 82/82/82
f 81/81/81 83/83/83 84/84/84
f 87/87/87 85/85/85 86/86/86
f 85/85/85 87/87/87 88/88/88
f 91/91/91 89/89/89 90/90/90
f 89/89/89 91/91/91 92/92/92
f 95/95/95 93/93/93 94/94/94
f 93/93/93 95/95/95 96/96/96
f 6/6/6 97/97/97 7/7/7
f 98/98/98 3/3/3 2/2/2
f 4/4/4 99/99/99 100/100/100
f 99/99/99 4/4/4 3/3/3
f 15/15/15 9/9/9 101/101/101
f 9/9/9 15/15/15 10/10/10
f 10/10/10 102/102/102 11/11/11
f 102/102/102 10/10/10 14/14/14
f 104/104/104 16/16/16 103/103/103
f 16/16/16 104/104/104 17/17/17
f 22/22/22 105/105/105 106/106/106
f 105/105/105 22/22/22 21/21/21
f 64/64/64 57/57/57 107/107/107
f 57/57/57 64/64/64 58/58/58
f 63/63/63 108/108/108 109/109/109
f 108/108/108 63/63/63 62/62/62
f 111/111/111 66/66/66 110/110/110
f 66/66/66 111/111/111 67/67/67
f 68/68/68 70/70/70 112/112/112
f 70/70/70 68/68/68 71/71/71
f 90/90/90 113/113/113 114/114/114
f 113/113/113 90/90/90 89/89/89
f 94/94/94 115/115/115 116/116/116
f 115/115/115 94/94/94 93/93/93
