mtllib ./Box186.mtl
g Box186
v 260.4754 -4.52359 -25.10449
v 260.4754 6.307983 -11.15582
v 309.6958 6.307983 -11.15582
v 317.473 -4.52359 -25.10449
v -208.9317 15.25906 0.0004272461
v 260.4754 15.25906 0.0004272461
v 260.4754 6.307983 -11.15582
v -212.2022 6.307983 -11.15582
v 260.4754 -4.52359 25.10535
v 260.4754 6.310822 11.15002
v -212.2022 6.338104 11.10699
v -219.9793 -4.52359 25.10535
v 306.4253 15.25906 0.0004272461
v 260.4754 15.25906 0.0004272461
v 309.6958 6.307983 11.15454
v 317.473 -4.52359 25.10535
v 317.473 -4.52359 -25.10449
v 309.6958 6.307983 -11.15582
v 306.4253 15.25906 0.0004272461
v 309.6958 6.307983 11.15454
v -212.2022 6.338104 11.10699
v -208.9317 15.25906 0.0004272461
v -212.2022 6.307983 -11.15582
v -219.9793 -4.52359 25.10535
v -219.9793 -4.52359 -25.10449
v 290.8392 -17.52582 -1.309021
v 260.4754 -17.52582 -1.284851
v 260.4754 -4.52359 -25.10449
v 317.473 -4.52359 -25.10449
v -219.9793 -4.52359 25.10535
v -219.9793 -4.52359 -25.10449
v -206.889 -17.52582 -0.9133911
v -206.889 -19.82669 15.03333
v 260.4754 -4.52359 -25.10449
v -219.9793 -4.52359 -25.10449
v 306.4253 15.25906 0.0004272461
v 260.4754 15.25906 0.0004272461
v 317.473 -4.52359 25.10535
v -208.9317 15.25906 0.0004272461
v -206.889 -17.52582 -0.9133911
v -219.9793 -4.52359 -25.10449

vn 0 0.7898293 -0.6133268
vn 0 0.783841 -0.6209615
vn 0 0.7871609 -0.6167477
vn 0 0.7898293 -0.6133268
vn 0 0.7799786 -0.6258063
vn 0 0.7799786 -0.6258062
vn 0 0.7837701 -0.6210511
vn 0 0.7870268 -0.6169188
vn -5.058281E-06 0.7899681 0.613148
vn -7.675791E-06 0.7836871 0.6211557
vn -7.048122E-06 0.7870517 0.616887
vn 0 0.7900605 0.613029
vn -6.445769E-06 0.7799063 0.6258965
vn 0 0.7798933 0.6259126
vn -7.014831E-06 0.7871848 0.6167172
vn 0.8122997 0.5832403 0
vn 0.8122997 0.5832403 0
vn 0.8397722 0.542939 0
vn 0.9392686 0.3431828 0
vn 0.8730814 0.4875743 0
vn -0.8734381 0.4869348 -0.0006588066
vn -0.9390805 0.3436968 -0.0004650104
vn -0.8399323 0.5426912 -0.0002837478
vn -0.8126869 0.5827007 -0.0002421802
vn -0.8123029 0.5832357 0
vn -0.0001326258 -0.8776118 -0.479372
vn -0.0003808444 -0.8777452 -0.4791274
vn -0.0001821065 -0.8791806 -0.4764887
vn 0 -0.8775406 -0.4795023
vn -0.7279602 -0.685205 -0.02383089
vn -0.7047151 -0.7094904 0
vn -0.7279602 -0.685205 -0.02383089
vn -0.7849467 -0.6132133 -0.08847751
vn 0 0.7898293 -0.6133268
vn 0 0.7898293 -0.6133268
vn 0 0.7799786 -0.6258062
vn 0 0.7799786 -0.6258063
vn 0 0.7898747 0.6132683
vn -6.013483E-06 0.7797695 0.6260666
vn -0.0001866371 -0.8793237 -0.4762245
vn 0 -0.8808318 -0.4734293

vt -0.6685193 0.6002021
vt -0.669301 0.7236028
vt -0.9411277 0.7236028
vt -0.9830861 0.6002022
vt 1.923484 0.8234833
vt -0.6696439 0.8234838
vt -0.669301 0.7236028
vt 1.941128 0.7236024
vt -0.6575148 0.5919424
vt -0.6582891 0.70131
vt 1.927556 0.701649
vt 1.969119 0.5919418
vt -0.9100776 0.78858
vt -0.6586288 0.7885799
vt -0.9275558 0.7012747
vt 0.2440246 0.6038002
vt 0.7559751 0.6037999
vt 0.6137511 0.6903578
vt 0.4999998 0.7267572
vt 0.3862704 0.6903579
vt 0.611308 1.727229
vt 0.5320602 1.782254
vt 0.4524582 1.727229
vt 0.7111892 1.596381
vt 0.3529311 1.596382
vt 0.03948148 0.2931615
vt 0.1859948 0.2929349
vt 0.2756587 0.5834268
vt 0.0004994869 0.5834268
vt 0.9963904 0.583427
vt 0.0004996061 0.5834268
vt 0.03948154 0.2931615
vt 0.317036 0.2676522
vt -0.6685193 0.6002021
vt 1.983086 0.6002017
vt -0.9234833 0.8234838
vt -0.6696439 0.8234838
vt -0.9691192 0.5919424
vt 1.910078 0.7885795
vt 2.441147 0.2894456
vt 2.595082 0.5834268

usemtl sn17_27_s17gsc26.JPG
usemap sn17_27_s17gsc26.JPG
f 3/3/3 1/1/1 2/2/2
f 1/1/1 3/3/3 4/4/4
f 7/7/7 5/5/5 6/6/6
f 5/5/5 7/7/7 8/8/8
f 11/11/11 9/9/9 10/10/10
f 9/9/9 11/11/11 12/12/12
f 10/10/10 13/13/13 14/14/14
f 13/13/13 10/10/10 15/15/15
f 18/18/18 16/16/16 17/17/17
f 20/20/20 18/18/18 19/19/19
f 20/20/20 16/16/16 18/18/18
f 23/23/23 21/21/21 22/22/22
f 23/23/23 24/24/24 21/21/21
f 23/23/23 25/25/25 24/24/24
f 8/8/8 34/34/34 35/35/35
f 34/34/34 8/8/8 7/7/7
f 2/2/2 36/36/36 3/3/3
f 36/36/36 2/2/2 37/37/37
f 15/15/15 9/9/9 38/38/38
f 9/9/9 15/15/15 10/10/10
f 10/10/10 39/39/39 11/11/11
f 39/39/39 10/10/10 14/14/14

usemtl sn17_05_s17gsc10.JPG
usemap sn17_05_s17gsc10.JPG
f 28/28/28 26/26/26 27/27/27
f 26/26/26 28/28/28 29/29/29
f 32/32/32 30/30/30 31/31/31
f 30/30/30 32/32/32 33/33/33
f 28/28/28 40/40/40 41/41/41
f 40/40/40 28/28/28 27/27/27
