mtllib ./Box168.mtl
g Box168
v -9.912659 7.089981 -156.3735
v -9.912659 -19.9418 -156.3735
v -9.912659 7.089981 -126.3634
v -9.912659 -19.9418 -126.3634
v 9.911743 -19.9418 -156.3735
v 9.911743 7.089981 -156.3735
v 9.911743 -19.9418 -126.3634
v 9.911743 7.089981 -126.3634
v 9.911743 7.089981 -156.3735
v -9.912659 7.089981 -156.3735
v 9.911743 7.089981 -126.3634
v -9.912659 7.089981 -126.3634
v 9.911743 -19.9418 -94.95557
v 9.911743 7.089966 -94.95557
v -9.912659 7.089966 -94.95557
v -9.912659 -19.9418 -94.95557
v 9.911743 19.57584 -126.3634
v -9.912659 19.57584 -126.3634
v 9.911743 19.57584 -94.95557
v -9.912659 19.57584 -94.9556
v 9.911743 -19.94182 -63.99469
v 9.911743 7.089966 -63.99469
v -9.912659 7.089966 -63.99469
v -9.912659 -19.94182 -63.99469
v 9.911743 7.089966 -94.95557
v -9.912659 7.089966 -94.95557
v 9.911743 7.089966 -63.99469
v -9.912659 7.089966 -63.99469
v 9.911743 -19.94182 -33.54333
v 9.911743 7.089966 -33.54333
v -9.912659 7.089966 -33.54333
v -9.912659 -19.94182 -33.54333
v 9.911743 19.57582 -63.99469
v -9.912659 19.57584 -63.99469
v 9.911743 19.57582 -33.54333
v -9.912659 19.57582 -33.54333
v 9.911743 -19.94182 -2.180969
v 9.911743 7.089966 -2.180969
v -9.912659 7.089966 -2.180969
v -9.912659 -19.94182 -2.180969
v 9.911743 7.089966 -33.54333
v -9.912659 7.089966 -33.54333
v 9.911743 7.089966 -2.180969
v -9.912659 7.089966 -2.180969
v 9.911743 -19.94182 28.28363
v 9.911743 7.089951 28.28363
v -9.912659 7.089951 28.28363
v -9.912659 -19.94182 28.28363
v 9.911743 19.57582 -2.180969
v -9.912659 19.57582 -2.180969
v 9.911743 19.57582 28.28363
v -9.912659 19.57582 28.28363
v 9.911743 7.089981 -126.3634
v -9.912659 7.089981 -126.3634
v 9.911743 19.57584 -126.3634
v -9.912659 19.57584 -126.3634
v 9.911743 19.57584 -94.95557
v 9.911743 19.57584 -126.3634
v -9.912659 19.57584 -126.3634
v -9.912659 19.57584 -94.9556
v -9.912659 7.089966 -94.95557
v 9.911743 7.089966 -94.95557
v -9.912659 19.57584 -94.9556
v 9.911743 19.57584 -94.95557
v 9.911743 7.089966 -63.99469
v -9.912659 7.089966 -63.99469
v 9.911743 19.57582 -63.99469
v -9.912659 19.57584 -63.99469
v 9.911743 19.57582 -33.54333
v 9.911743 19.57582 -63.99469
v -9.912659 19.57584 -63.99469
v -9.912659 19.57582 -33.54333
v -9.912659 7.089966 -33.54333
v 9.911743 7.089966 -33.54333
v -9.912659 19.57582 -33.54333
v 9.911743 19.57582 -33.54333
v 9.911743 7.089966 -2.180969
v -9.912659 7.089966 -2.180969
v 9.911743 19.57582 -2.180969
v -9.912659 19.57582 -2.180969
v 9.911743 19.57582 28.28363
v 9.911743 19.57582 -2.180969
v -9.912659 19.57582 -2.180969
v -9.912659 19.57582 28.28363
v -9.912659 7.089951 28.28363
v 9.911743 7.089951 28.28363
v -9.912659 19.57582 28.28363
v 9.911743 19.57582 28.28363
v -9.912659 7.089951 28.28363
v -9.912659 -19.94182 28.28363
v -9.912659 7.089951 58.27368
v -9.912659 -19.94183 58.27368
v 9.911743 -19.94182 28.28363
v 9.911743 7.089951 28.28363
v 9.911804 -19.94183 58.27368
v 9.911804 7.089951 58.27368
v 9.911743 7.089951 28.28363
v -9.912659 7.089951 28.28363
v 9.911804 7.089951 58.27368
v -9.912659 7.089951 58.27368
v 9.911804 -19.94183 89.68152
v 9.911804 7.089951 89.68152
v -9.912659 7.089951 89.68152
v -9.912659 -19.94183 89.68152
v 9.911804 19.57581 58.27368
v -9.912659 19.57581 58.27368
v 9.911804 19.57581 89.68152
v -9.912659 19.57581 89.6814
v 9.911804 -19.94183 120.6423
v 9.911804 7.089951 120.6423
v -9.912659 7.089951 120.6423
v -9.912659 -19.94183 120.6423
v 9.911804 7.089951 89.68152
v -9.912659 7.089951 89.68152
v 9.911804 7.089951 120.6423
v -9.912659 7.089951 120.6423
v 9.911804 -19.94183 156.3731
v 9.911804 7.089935 156.3731
v -9.912598 7.089935 156.3731
v -9.912598 -19.94183 156.3731
v 9.911804 19.57581 120.6423
v -9.912659 19.57581 120.6423
v 9.911804 19.57581 156.3731
v -9.912598 19.57581 156.3731
v 9.911804 7.089951 58.27368
v -9.912659 7.089951 58.27368
v 9.911804 19.57581 58.27368
v -9.912659 19.57581 58.27368
v 9.911804 19.57581 89.68152
v 9.911804 19.57581 58.27368
v -9.912659 19.57581 58.27368
v -9.912659 19.57581 89.6814
v -9.912659 7.089951 89.68152
v 9.911804 7.089951 89.68152
v -9.912659 19.57581 89.6814
v 9.911804 19.57581 89.68152
v 9.911804 7.089951 120.6423
v -9.912659 7.089951 120.6423
v 9.911804 19.57581 120.6423
v -9.912659 19.57581 120.6423
v 9.911804 19.57581 156.3731
v 9.911804 19.57581 120.6423
v -9.912659 19.57581 120.6423
v -9.912598 19.57581 156.3731
v -9.912598 7.089935 156.3731
v 9.911804 7.089935 156.3731
v -9.912598 19.57581 156.3731
v 9.911804 19.57581 156.3731

vn -1 0 0
vn -1 0 0
vn -1 0 0
vn -1 0 0
vn 1 0 0
vn 1 0 0
vn 1 0 0
vn 0.9999999 0 0
vn 0 1 0
vn 0 1 0
vn 0 1 0
vn 0 1 0
vn 0.9999999 0 0
vn 1 0 0
vn -1 0 0
vn -1 0 0
vn 0 1 0
vn 0 1 0
vn 0 1 0
vn 0 1 0
vn 1 0 0
vn 1 0 0
vn -1 0 0
vn -1 0 0
vn 0 1 0
vn 0 1 0
vn 0 1 0
vn 0 1 0
vn 1 0 0
vn 1 0 0
vn -1 0 0
vn -1 0 0
vn 7.696974E-07 1 0
vn 3.848487E-07 1 2.505437E-07
vn 3.848487E-07 1 2.505437E-07
vn 0 1 5.010874E-07
vn 1 0 0
vn 1 0 0
vn -1 0 0
vn -1 0 0
vn 0 1 0
vn 0 1 0
vn 0 1 0
vn 0 1 0
vn 1 0 0
vn 1 0 0
vn -1 0 0
vn -1 0 0
vn 0 1 0
vn 0 1 0
vn 0 1 0
vn 0 1 0
vn 0 0 -1
vn 7.696974E-07 -1.222086E-06 -1
vn 7.696974E-07 -1.222086E-06 -1
vn 1.539395E-06 -2.444172E-06 -1
vn 1 0 0
vn 1 0 0
vn -1 0 0
vn -1 0 0
vn 0 2.444169E-06 1
vn -7.696973E-07 1.222085E-06 1
vn -7.696973E-07 1.222085E-06 1
vn -1.539395E-06 0 1
vn 0 0 -1
vn 0 0 -0.9999999
vn 0 0 -0.9999999
vn 0 0 -1
vn 1 0 0
vn 1 0 0
vn -0.9999999 0 0
vn -1 0 0
vn 0 0 1
vn 0 0 1
vn 0 0 1
vn 0 0 1
vn 0 0 -1
vn 0 0 -1
vn 0 0 -1
vn 0 0 -1
vn 1 0 0
vn 1 0 0
vn -1 0 0
vn -1 0 0
vn 0 0 1
vn 0 0 1
vn 0 0 1
vn 0 0 1
vn -1 0 0
vn -1 0 0
vn -1 0 0
vn -1 0 0
vn 1 0 -2.03518E-06
vn 1 0 -2.03518E-06
vn 1 0 -1.335738E-06
vn 1 0 -5.010274E-07
vn 0 1 0
vn 0 1 0
vn 0 1 0
vn 0 1 0
vn 1 0 0
vn 1 0 0
vn -1 0 0
vn -1 0 0
vn 0 1 0
vn 0 1 0
vn 0 1 0
vn 0 1 0
vn 1 0 0
vn 1 0 0
vn -0.9999999 0 7.816215E-07
vn -1 0 1.191832E-06
vn 0 1 0
vn 0 1 0
vn 0 1 0
vn 0 1 0
vn 0.9999999 0 0
vn 1 0 0
vn -1 0 1.708196E-06
vn -1 0 1.708196E-06
vn 0 0.9999999 0
vn 0 1 0
vn 0 1 0
vn 0 1 0
vn 0 0 -1
vn 0 0 -1
vn 0 0 -1
vn 0 0 -1
vn 1 0 0
vn 1 0 0
vn -1 0 0
vn -1 0 0
vn 0 9.776688E-06 1
vn -3.07878E-06 4.888344E-06 1
vn -3.07878E-06 4.888344E-06 1
vn -6.157559E-06 0 1
vn 0 0 -1
vn 0 0 -1
vn 0 0 -1
vn 0 0 -1
vn 1 0 0
vn 1 0 0
vn -1 0 1.708196E-06
vn -1 0 1.708196E-06
vn 0 0 1
vn 0 0 1
vn 0 0 1
vn 0 0 1

vt 0.192631 0.5666668
vt 0.1926309 0.4333333
vt -0.1073692 0.5666668
vt -0.1073692 0.4333333
vt 0.807369 0.4333333
vt 0.807369 0.5666668
vt 1.107369 0.4333333
vt 1.107369 0.5666668
vt 2.239054 0.192631
vt 2.437299 0.192631
vt 2.239054 -0.1073691
vt 2.437299 -0.1073692
vt 1.421447 0.4333333
vt 1.421447 0.5666668
vt -0.4214472 0.5666668
vt -0.4214472 0.4333332
vt 2.239054 -0.1073691
vt 2.437299 -0.1073692
vt 2.239054 -0.4214472
vt 2.437299 -0.4214472
vt 1.731056 0.4333333
vt 1.731056 0.5666668
vt -0.7310563 0.5666668
vt -0.7310563 0.4333332
vt 2.239054 -0.4214472
vt 2.437299 -0.4214472
vt 2.239054 -0.7310562
vt 2.437298 -0.7310563
vt 2.03557 0.4333333
vt 2.03557 0.5666668
vt -1.03557 0.5666668
vt -1.03557 0.4333332
vt 2.239054 -0.7310562
vt 2.437298 -0.7310563
vt 2.239054 -1.03557
vt 2.437298 -1.03557
vt 2.349194 0.4333333
vt 2.349194 0.5666668
vt -1.349194 0.5666668
vt -1.349194 0.4333332
vt 2.239054 -1.03557
vt 2.437298 -1.03557
vt 2.239054 -1.349194
vt 2.437298 -1.349194
vt 2.65394 0.4333333
vt 2.65394 0.5666668
vt -1.65394 0.5666668
vt -1.65394 0.4333332
vt 2.239054 -1.349194
vt 2.437298 -1.349194
vt 2.239054 -1.65394
vt 2.437298 -1.65394
vt -1.239054 0.5666668
vt -1.437299 0.5666668
vt -1.239054 0.6915255
vt -1.437299 0.6915255
vt 1.421447 0.6915255
vt 1.107369 0.6915255
vt -0.1073692 0.6915255
vt -0.4214472 0.6915255
vt 2.437299 0.5666668
vt 2.239054 0.5666668
vt 2.437299 0.6915255
vt 2.239054 0.6915255
vt -1.239054 0.5666668
vt -1.437298 0.5666668
vt -1.239054 0.6915255
vt -1.437298 0.6915255
vt 2.03557 0.6915255
vt 1.731056 0.6915255
vt -0.7310563 0.6915255
vt -1.03557 0.6915255
vt 2.437298 0.5666668
vt 2.239054 0.5666668
vt 2.437298 0.6915255
vt 2.239054 0.6915255
vt -1.239054 0.5666668
vt -1.437298 0.5666668
vt -1.239054 0.6915255
vt -1.437298 0.6915255
vt 2.65394 0.6915255
vt 2.349194 0.6915255
vt -1.349194 0.6915255
vt -1.65394 0.6915255
vt 2.437299 0.5666668
vt 2.239054 0.5666668
vt 2.437299 0.6915255
vt 2.239054 0.6915255
vt 0.192631 0.5666668
vt 0.1926309 0.4333333
vt -0.1073692 0.5666668
vt -0.1073692 0.4333333
vt 0.807369 0.4333333
vt 0.807369 0.5666668
vt 1.107369 0.4333333
vt 1.107369 0.5666668
vt 2.239054 0.192631
vt 2.437299 0.192631
vt 2.239054 -0.1073691
vt 2.437299 -0.1073692
vt 1.421447 0.4333333
vt 1.421447 0.5666668
vt -0.4214472 0.5666668
vt -0.4214472 0.4333332
vt 2.239054 -0.1073691
vt 2.437299 -0.1073692
vt 2.239054 -0.4214472
vt 2.437299 -0.4214472
vt 1.731056 0.4333333
vt 1.731056 0.5666668
vt -0.7310563 0.5666668
vt -0.7310563 0.4333332
vt 2.239054 -0.4214472
vt 2.437299 -0.4214472
vt 2.239054 -0.7310562
vt 2.437298 -0.7310563
vt 2.03557 0.4333333
vt 2.03557 0.5666668
vt -1.03557 0.5666668
vt -1.03557 0.4333332
vt 2.239054 -0.7310562
vt 2.437298 -0.7310563
vt 2.239054 -1.03557
vt 2.437298 -1.03557
vt -1.239054 0.5666668
vt -1.437299 0.5666668
vt -1.239054 0.6915255
vt -1.437299 0.6915255
vt 1.421447 0.6915255
vt 1.107369 0.6915255
vt -0.1073692 0.6915255
vt -0.4214472 0.6915255
vt 2.437299 0.5666668
vt 2.239054 0.5666668
vt 2.437299 0.6915255
vt 2.239054 0.6915255
vt -1.239054 0.5666668
vt -1.437298 0.5666668
vt -1.239054 0.6915255
vt -1.437298 0.6915255
vt 2.03557 0.6915255
vt 1.731056 0.6915255
vt -0.7310563 0.6915255
vt -1.03557 0.6915255
vt 2.437298 0.5666668
vt 2.239054 0.5666668
vt 2.437298 0.6915255
vt 2.239054 0.6915255

usemtl sn17_01_s17gsc06.JPG
usemap sn17_01_s17gsc06.JPG
f 3/3/3 1/1/1 2/2/2
f 2/2/2 4/4/4 3/3/3
f 7/7/7 5/5/5 6/6/6
f 6/6/6 8/8/8 7/7/7
f 11/11/11 9/9/9 10/10/10
f 10/10/10 12/12/12 11/11/11
f 13/13/13 7/7/7 8/8/8
f 8/8/8 14/14/14 13/13/13
f 15/15/15 3/3/3 4/4/4
f 4/4/4 16/16/16 15/15/15
f 19/19/19 17/17/17 18/18/18
f 18/18/18 20/20/20 19/19/19
f 21/21/21 13/13/13 14/14/14
f 14/14/14 22/22/22 21/21/21
f 23/23/23 15/15/15 16/16/16
f 16/16/16 24/24/24 23/23/23
f 27/27/27 25/25/25 26/26/26
f 26/26/26 28/28/28 27/27/27
f 29/29/29 21/21/21 22/22/22
f 22/22/22 30/30/30 29/29/29
f 31/31/31 23/23/23 24/24/24
f 24/24/24 32/32/32 31/31/31
f 35/35/35 33/33/33 34/34/34
f 34/34/34 36/36/36 35/35/35
f 37/37/37 29/29/29 30/30/30
f 30/30/30 38/38/38 37/37/37
f 39/39/39 31/31/31 32/32/32
f 32/32/32 40/40/40 39/39/39
f 43/43/43 41/41/41 42/42/42
f 42/42/42 44/44/44 43/43/43
f 45/45/45 37/37/37 38/38/38
f 38/38/38 46/46/46 45/45/45
f 47/47/47 39/39/39 40/40/40
f 40/40/40 48/48/48 47/47/47
f 51/51/51 49/49/49 50/50/50
f 50/50/50 52/52/52 51/51/51
f 55/55/55 53/53/53 54/54/54
f 54/54/54 56/56/56 55/55/55
f 57/57/57 14/14/14 8/8/8
f 8/8/8 58/58/58 57/57/57
f 59/59/59 3/3/3 15/15/15
f 15/15/15 60/60/60 59/59/59
f 63/63/63 61/61/61 62/62/62
f 62/62/62 64/64/64 63/63/63
f 67/67/67 65/65/65 66/66/66
f 66/66/66 68/68/68 67/67/67
f 69/69/69 30/30/30 22/22/22
f 22/22/22 70/70/70 69/69/69
f 71/71/71 23/23/23 31/31/31
f 31/31/31 72/72/72 71/71/71
f 75/75/75 73/73/73 74/74/74
f 74/74/74 76/76/76 75/75/75
f 79/79/79 77/77/77 78/78/78
f 78/78/78 80/80/80 79/79/79
f 81/81/81 46/46/46 38/38/38
f 38/38/38 82/82/82 81/81/81
f 83/83/83 39/39/39 47/47/47
f 47/47/47 84/84/84 83/83/83
f 87/87/87 85/85/85 86/86/86
f 86/86/86 88/88/88 87/87/87
f 91/91/91 89/89/89 90/90/90
f 90/90/90 92/92/92 91/91/91
f 95/95/95 93/93/93 94/94/94
f 94/94/94 96/96/96 95/95/95
f 99/99/99 97/97/97 98/98/98
f 98/98/98 100/100/100 99/99/99
f 101/101/101 95/95/95 96/96/96
f 96/96/96 102/102/102 101/101/101
f 103/103/103 91/91/91 92/92/92
f 92/92/92 104/104/104 103/103/103
f 107/107/107 105/105/105 106/106/106
f 106/106/106 108/108/108 107/107/107
f 109/109/109 101/101/101 102/102/102
f 102/102/102 110/110/110 109/109/109
f 111/111/111 103/103/103 104/104/104
f 104/104/104 112/112/112 111/111/111
f 115/115/115 113/113/113 114/114/114
f 114/114/114 116/116/116 115/115/115
f 117/117/117 109/109/109 110/110/110
f 110/110/110 118/118/118 117/117/117
f 119/119/119 111/111/111 112/112/112
f 112/112/112 120/120/120 119/119/119
f 123/123/123 121/121/121 122/122/122
f 122/122/122 124/124/124 123/123/123
f 127/127/127 125/125/125 126/126/126
f 126/126/126 128/128/128 127/127/127
f 129/129/129 102/102/102 96/96/96
f 96/96/96 130/130/130 129/129/129
f 131/131/131 91/91/91 103/103/103
f 103/103/103 132/132/132 131/131/131
f 135/135/135 133/133/133 134/134/134
f 134/134/134 136/136/136 135/135/135
f 139/139/139 137/137/137 138/138/138
f 138/138/138 140/140/140 139/139/139
f 141/141/141 118/118/118 110/110/110
f 110/110/110 142/142/142 141/141/141
f 143/143/143 111/111/111 119/119/119
f 119/119/119 144/144/144 143/143/143
f 147/147/147 145/145/145 146/146/146
f 146/146/146 148/148/148 147/147/147
