mtllib ./Box159.mtl
g Box159
v 13.42468 11.50401 14.83246
v -14.1095 11.50401 -14.18256
v 35.04437 11.50403 -64.5863
v 62.57855 11.50403 -35.57135
v -40.56476 11.50401 66.11438
v -68.09894 11.50401 37.09943
v 27.56195 28.6917 28.96973
v 78.30768 28.6917 -19.84222
v 22.4989 28.6917 -77.13177
v -28.24683 28.6917 -28.31982
v -28.01935 28.69168 78.65979
v -83.82813 28.69168 21.37024
v -28.24683 28.6917 -28.31982
v 22.4989 28.6917 -77.13177
v 35.04437 11.50403 -64.5863
v -14.1095 11.50401 -14.18256
v -83.82813 28.69168 21.37024
v -68.09894 11.50401 37.09943
v 27.56195 28.6917 28.96973
v -28.01935 28.69168 78.65979
v -40.56476 11.50401 66.11438
v 13.42468 11.50401 14.83246
v 78.30768 28.6917 -19.84222
v 27.56195 28.6917 28.96973
v 62.57855 11.50403 -35.57135

vn 1.028828E-07 -1 -9.763209E-08
vn 5.047677E-08 -1 -4.79006E-08
vn 1.57331E-07 -1 -1.493015E-07
vn 1.573309E-07 -1 -1.493015E-07
vn 0 -1 0
vn 0 -1 0
vn -5.076464E-08 1 4.945252E-08
vn 0 1 0
vn 0 1 0
vn -9.96427E-08 1 9.706722E-08
vn -1.467374E-07 0.9999999 1.429447E-07
vn -1.467374E-07 0.9999999 1.429447E-07
vn -0.460635 -0.7459748 -0.4809751
vn -0.4824028 -0.718172 -0.5015141
vn -0.4745505 -0.7392485 -0.4778216
vn -0.4402331 -0.7701399 -0.4616052
vn -0.4279732 -0.7753411 -0.4644192
vn -0.4211683 -0.791208 -0.4434041
vn 0.4565677 -0.7389699 0.4954488
vn 0.4641193 -0.717692 0.5191449
vn 0.4565677 -0.7389699 0.4954488
vn 0.4462915 -0.7697858 0.4563483
vn 0.4448113 -0.775596 0.447877
vn 0.4519729 -0.7582443 0.4698787
vn 0.4377559 -0.7912814 0.4269

vt 0.4858164 0.2960218
vt 0.4858163 0.04948666
vt 0.05876778 0.04167634
vt 0.03591385 0.2901955
vt 0.9570034 0.2968338
vt 0.9499205 0.04478737
vt 0.5 1
vt 0 1
vt 0 0
vt 0.5 0
vt 1 1
vt 1 0
vt 0.4874687 0.5251522
vt 0.01852054 0.5337769
vt 0.03783427 0.2598799
vt 0.4838727 0.2521817
vt 0.9790769 0.5263088
vt 0.9506198 0.2504687
vt 0.5061702 0.5409452
vt 0.04988503 0.5113853
vt 0.03702931 0.2433496
vt 0.492264 0.2543548
vt 0.9856009 0.5409452
vt 0.5262541 0.5351524
vt 0.9493846 0.2411485

usemtl sn17_05_s17gsc10.JPG
usemap sn17_05_s17gsc10.JPG
f 3/3/3 1/1/1 2/2/2
f 1/1/1 3/3/3 4/4/4
f 2/2/2 5/5/5 6/6/6
f 5/5/5 2/2/2 1/1/1
f 9/9/9 7/7/7 8/8/8
f 7/7/7 9/9/9 10/10/10
f 10/10/10 11/11/11 7/7/7
f 11/11/11 10/10/10 12/12/12
f 15/15/15 13/13/13 14/14/14
f 13/13/13 15/15/15 16/16/16
f 16/16/16 17/17/17 13/13/13
f 17/17/17 16/16/16 18/18/18
f 21/21/21 19/19/19 20/20/20
f 19/19/19 21/21/21 22/22/22
f 22/22/22 23/23/23 24/24/24
f 23/23/23 22/22/22 25/25/25
