mtllib ./Box248.mtl
g Box248
v -25.1051 -4.524109 -219.9794
v -25.10504 -4.524109 355.0864
v -11.15637 6.307434 -212.2023
v -6.103516E-05 15.25854 344.0387
v -0.0001220703 15.25854 -208.9318
v -11.15631 6.307434 347.3091
v 11.10645 6.337585 -212.2023
v -11.15637 6.307434 -212.2023
v -0.0001220703 15.25854 -208.9318
v -11.15631 6.307434 347.3091
v 11.15399 6.307434 347.3091
v -6.103516E-05 15.25854 344.0387
v -25.10504 -4.524109 355.0864
v 25.10486 -4.524109 355.0864
v 25.1048 -4.524109 -219.9795
v -25.1051 -4.524109 -219.9794
v 1.720642 -11.00397 -206.8891
v 1.325073 -11.00397 328.4526
v -25.1051 -4.524109 -219.9794
v -25.10504 -4.524109 355.0864
v 15.03278 -13.30487 -206.8891
v 1.720642 -11.00397 -206.8891
v 25.1048 -4.524109 -219.9795
v -25.1051 -4.524109 -219.9794

vn -0.6133241 0.7898313 6.509573E-08
vn -0.6133241 0.7898313 6.598816E-08
vn -0.6169029 0.7870393 6.664033E-08
vn -0.6258075 0.7799775 6.907467E-08
vn -0.6258075 0.7799776 6.866855E-08
vn -0.6210438 0.7837758 6.799512E-08
vn -0.0006594703 0.4869352 -0.8734379
vn -0.0002841747 0.542693 -0.8399311
vn -0.0004654789 0.3436949 -0.9390813
vn 0 0.5429406 0.8397711
vn 0 0.4875744 0.8730815
vn 0 0.3431789 0.93927
vn 0 0.5832429 0.8122979
vn 0 0.5832429 0.8122979
vn -0.0002425952 0.5827031 -0.8126851
vn -2.468583E-07 0.5832385 -0.812301
vn -0.2347208 -0.9720628 -0.0001734373
vn -0.2364681 -0.9716392 -8.42258E-05
vn -0.2364681 -0.9716392 -8.42258E-05
vn -0.2381175 -0.9712363 2.527283E-08
vn -0.133513 -0.7724546 -0.620877
vn -0.03159218 -0.8721756 -0.4881718
vn -0.03159218 -0.8721756 -0.4881718
vn -1.348202E-07 -0.8962085 -0.4436333

vt 1.983086 0.6002017
vt -0.9830861 0.6002022
vt 1.941128 0.7236024
vt -0.9234833 0.8234838
vt 1.923484 0.8234833
vt -0.9411277 0.7236028
vt 0.611308 1.727229
vt 0.4524582 1.727229
vt 0.5320602 1.782254
vt 0.6137511 0.6903578
vt 0.3862704 0.6903579
vt 0.4999998 0.7267572
vt 0.7559751 0.6037999
vt 0.2440246 0.6038002
vt 0.7111892 1.596381
vt 0.3529311 1.596382
vt 2.546355 0.2931615
vt 0.03948148 0.2931615
vt 2.595082 0.5834268
vt 0.0004994869 0.5834268
vt 0.9476629 0.2931617
vt 0.03948154 0.2931615
vt 0.9963904 0.583427
vt 0.0004996061 0.5834268

usemtl sn17_27_s17gsc26.JPG
usemap sn17_27_s17gsc26.JPG
f 3/3/3 1/1/1 2/2/2
f 6/6/6 4/4/4 5/5/5
f 9/9/9 7/7/7 8/8/8
f 12/12/12 10/10/10 11/11/11
f 3/3/3 6/6/6 5/5/5
f 10/10/10 13/13/13 14/14/14
f 2/2/2 6/6/6 3/3/3
f 8/8/8 15/15/15 16/16/16
f 7/7/7 15/15/15 8/8/8
f 11/11/11 10/10/10 14/14/14

usemtl sn17_05_s17gsc10.JPG
usemap sn17_05_s17gsc10.JPG
f 19/19/19 17/17/17 18/18/18
f 18/18/18 20/20/20 19/19/19
f 23/23/23 21/21/21 22/22/22
f 22/22/22 24/24/24 23/23/23
