mtllib ./Box232.mtl
g Box232
v -112.3607 -21.36603 55.84662
v -139.5695 -31.32065 83.04462
v 53.4653 -21.36722 55.85156
v 80.63739 -31.32065 83.04434
v 53.4653 -21.36722 55.85156
v 80.63739 -31.32065 83.04434
v 53.4668 -21.36761 -109.9809
v 80.63715 -31.32065 -137.162
v -112.3621 -21.36642 -109.9759
v 53.4668 -21.36761 -109.9809
v -139.5692 -31.32065 -137.1622
v 80.63715 -31.32065 -137.162
v -85.15511 -11.41217 -82.78955
v -85.15195 -11.41138 28.64856
v -57.95216 3.110474 -55.6073
v -57.94727 3.111633 1.45462
v -57.95216 3.110474 -55.6073
v -57.94727 3.111633 1.45462
v -0.8699036 3.106842 -55.62274
v -0.8747864 3.108002 1.470062
v 26.29321 -11.41382 28.65875
v -85.15195 -11.41138 28.64856
v -0.8747864 3.108002 1.470062
v -57.94727 3.111633 1.45462
v 26.29639 -11.41458 -82.79974
v 26.29321 -11.41382 28.65875
v -0.8699036 3.106842 -55.62274
v -0.8747864 3.108002 1.470062
v -85.15511 -11.41217 -82.78955
v 26.29639 -11.41458 -82.79974
v -57.95216 3.110474 -55.6073
v -0.8699036 3.106842 -55.62274
v -112.3621 -21.36642 -109.9759
v -112.3607 -21.36603 55.84662
v -139.5692 -31.32065 -137.1622
v -139.5695 -31.32065 83.04462
v -131.2723 -41.32379 74.74744
v 72.34018 -41.32379 74.74713
v -139.5695 -31.32065 83.04462
v 80.63739 -31.32065 83.04434
v 72.34018 -41.32379 74.74713
v 72.33997 -41.32379 -128.8648
v 80.63739 -31.32065 83.04434
v 80.63715 -31.32065 -137.162
v 72.33997 -41.32379 -128.8648
v -131.272 -41.32379 -128.865
v 80.63715 -31.32065 -137.162
v -139.5692 -31.32065 -137.1622
v -131.272 -41.32379 -128.865
v -131.2723 -41.32379 74.74744
v -139.5692 -31.32065 -137.1622
v -139.5695 -31.32065 83.04462
v -82.21536 -28.89151 25.69052
v 23.28329 -28.89151 25.6904
v -131.2723 -41.32379 74.74744
v 72.34018 -41.32379 74.74713
v 23.2832 -28.89151 -79.80804
v 72.33997 -41.32379 -128.8648
v -82.21521 -28.89151 -79.80817
v -131.272 -41.32379 -128.865
v -29.46602 -14.05737 -27.05881

vn -3.50696E-06 0.9390779 0.3437044
vn -1.262108E-06 0.9390727 0.3437183
vn -3.436806E-06 0.9390729 0.3437182
vn 4.28724E-07 0.9390689 0.343729
vn 0.3439589 0.9389847 8.552053E-07
vn 0.3439638 0.938983 1.498639E-07
vn 0.3439634 0.9389831 8.66798E-07
vn 0.3439671 0.9389817 -3.813529E-07
vn -5.522697E-06 0.9390315 -0.3438314
vn -2.072195E-06 0.939028 -0.3438407
vn -1.399574E-06 0.9390295 -0.3438368
vn 2.859152E-07 0.9390255 -0.3438473
vn -0.3825349 0.923941 3.260644E-06
vn -0.4231103 0.9060782 8.771209E-06
vn -0.4709449 0.8821626 1.229234E-05
vn -0.4709203 0.8821757 2.249434E-05
vn 6.361483E-05 1 -2.032844E-05
vn 6.362577E-05 0.9999999 -2.031748E-05
vn 6.362577E-05 0.9999999 -2.031748E-05
vn 6.363673E-05 1 -2.030654E-05
vn -2.88269E-05 0.9060007 0.4232764
vn -1.167144E-05 0.9238881 0.3826628
vn -7.135998E-05 0.8820377 0.4711787
vn -3.987566E-05 0.8820783 0.4711029
vn 0.4235575 0.9058692 9.005122E-06
vn 0.3829367 0.9237745 3.526823E-06
vn 0.4714328 0.881902 2.240571E-05
vn 0.4714089 0.8819148 1.247333E-05
vn -2.903867E-05 0.905947 -0.423391
vn -1.188006E-05 0.9238279 -0.3828082
vn -7.134672E-05 0.8820395 -0.4711753
vn -4.005691E-05 0.8819993 -0.4712508
vn -0.3435927 0.9391188 1.982926E-07
vn -0.3435901 0.9391197 1.263017E-06
vn -0.3435943 0.9391183 -4.999822E-07
vn -0.3435911 0.9391193 -8.748692E-10
vn 1.153612E-06 -0.6384215 0.769687
vn 1.05302E-06 -0.6384227 0.7696859
vn 1.05302E-06 -0.6384227 0.7696859
vn 9.600077E-07 -0.6384239 0.7696849
vn 0.7696856 -0.638423 -8.075292E-07
vn 0.7696859 -0.6384228 -8.313334E-07
vn 0.7696859 -0.6384228 -8.313334E-07
vn 0.7696861 -0.6384225 -8.533436E-07
vn 6.921685E-07 -0.6384224 -0.7696862
vn 6.650673E-07 -0.6384221 -0.7696865
vn 6.650673E-07 -0.6384221 -0.7696865
vn 6.400082E-07 -0.6384218 -0.7696867
vn -0.7696854 -0.6384234 -1.15361E-06
vn -0.7696856 -0.6384231 -1.136152E-06
vn -0.7696856 -0.6384231 -1.136152E-06
vn -0.7696858 -0.6384229 -1.120011E-06
vn 0.1686817 -0.9815784 -0.08972437
vn -0.08972471 -0.9815782 -0.1686818
vn 0.09899702 -0.9836728 -0.150291
vn -0.1502912 -0.9836727 -0.09899724
vn -0.1686819 -0.9815783 0.08972476
vn -0.09899742 -0.9836727 0.1502913
vn 0.08972462 -0.9815782 0.1686818
vn 0.1502913 -0.9836728 0.09899736
vn -5.483869E-09 -1 -2.507931E-09

vt 0.8949318 0.6759301
vt 1.024562 0.5889944
vt 0.1048931 0.675913
vt -0.02456182 0.5889956
vt 0.858225 0.6762592
vt 0.9757149 0.5861477
vt 0.1417248 0.6762542
vt 0.02428532 0.5861485
vt 0.1133759 0.6720662
vt 0.8867958 0.6720486
vt -0.01351666 0.5826316
vt 1.013517 0.5826323
vt 0.719853 0.7593956
vt 0.2802395 0.7594062
vt 0.6126215 0.8463069
vt 0.3875172 0.8463234
vt 0.6398205 0.2997954
vt 0.2076424 0.2998202
vt 0.6399373 0.5890926
vt 0.2075255 0.5890678
vt 0.234348 0.7628304
vt 0.7653021 0.7628658
vt 0.3637836 0.8497347
vt 0.6356918 0.8497885
vt 0.2591642 0.7663597
vt 0.7407351 0.7663707
vt 0.3765861 0.8564519
vt 0.6232628 0.8564686
vt 0.2402685 0.7615008
vt 0.7600741 0.7614648
vt 0.367142 0.850922
vt 0.6333715 0.8508676
vt 0.8271007 0.6724713
vt 0.1729456 0.6724761
vt 0.9343483 0.5855469
vt 0.06565177 0.5855458
vt 3.815445 0.0004995167
vt 0.0004994869 0.0004995167
vt 3.812781 0.1806549
vt -0.002164066 0.1806549
vt 3.815444 0.0004995167
vt 0.0005005002 0.0004995167
vt 3.81278 0.1806549
vt -0.002163112 0.1806549
vt 3.815444 0.0004995167
vt 0.000500977 0.0004995167
vt 3.81278 0.1806549
vt -0.002162635 0.1806549
vt 3.815445 0.0004995167
vt 0.0004994869 0.0004995167
vt 3.812781 0.1806549
vt -0.002164066 0.1806549
vt 0.2411916 0.2411915
vt 0.2411924 0.7588086
vt 0.0004995763 0.0004995167
vt 0.0005010962 0.9995005
vt 0.7588081 0.758808
vt 0.9994994 0.9994994
vt 0.7588086 0.2411923
vt 0.9995004 0.0005009174
vt 0.5000002 0.5000001

usemtl sn17_05_s17gsc10.JPG
usemap sn17_05_s17gsc10.JPG
f 3/3/3 1/1/1 2/2/2
f 2/2/2 4/4/4 3/3/3
f 7/7/7 5/5/5 6/6/6
f 6/6/6 8/8/8 7/7/7
f 11/11/11 9/9/9 10/10/10
f 10/10/10 12/12/12 11/11/11
f 15/15/15 13/13/13 14/14/14
f 14/14/14 16/16/16 15/15/15
f 3/3/3 21/21/21 22/22/22
f 22/22/22 1/1/1 3/3/3
f 21/21/21 23/23/23 24/24/24
f 24/24/24 22/22/22 21/21/21
f 7/7/7 25/25/25 26/26/26
f 26/26/26 5/5/5 7/7/7
f 25/25/25 27/27/27 28/28/28
f 28/28/28 26/26/26 25/25/25
f 9/9/9 29/29/29 30/30/30
f 30/30/30 10/10/10 9/9/9
f 29/29/29 31/31/31 32/32/32
f 32/32/32 30/30/30 29/29/29
f 13/13/13 33/33/33 34/34/34
f 34/34/34 14/14/14 13/13/13
f 33/33/33 35/35/35 36/36/36
f 36/36/36 34/34/34 33/33/33

usemtl sn17_28_s17gsc19.JPG
usemap sn17_28_s17gsc19.JPG
f 19/19/19 17/17/17 18/18/18
f 20/20/20 19/19/19 18/18/18
f 39/39/39 37/37/37 38/38/38
f 38/38/38 40/40/40 39/39/39
f 43/43/43 41/41/41 42/42/42
f 42/42/42 44/44/44 43/43/43
f 47/47/47 45/45/45 46/46/46
f 46/46/46 48/48/48 47/47/47
f 51/51/51 49/49/49 50/50/50
f 50/50/50 52/52/52 51/51/51

usemtl sn17_30_s17gsc55.JPG
usemap sn17_30_s17gsc55.JPG
f 55/55/55 53/53/53 54/54/54
f 54/54/54 56/56/56 55/55/55
f 56/56/56 54/54/54 57/57/57
f 57/57/57 58/58/58 56/56/56
f 58/58/58 57/57/57 59/59/59
f 59/59/59 60/60/60 58/58/58
f 60/60/60 59/59/59 53/53/53
f 53/53/53 55/55/55 60/60/60
f 61/61/61 54/54/54 53/53/53
f 61/61/61 57/57/57 54/54/54
f 61/61/61 59/59/59 57/57/57
f 61/61/61 53/53/53 59/59/59
