mtllib ./Box217.mtl
g Box217
v -131.8145 -5.749878 -149.8863
v -131.8145 -5.749878 176.4834
v -58.57629 26.49286 -122.2486
v 0 64.0874 176.1122
v -6.103516E-05 64.0874 -118.9782
v -58.57623 26.49286 176.0279
v 58.31543 26.61945 -122.2486
v -58.57629 26.49286 -122.2486
v -6.103516E-05 64.0874 -118.9782
v 131.8144 -5.749878 176.4833
v 131.8144 -5.749878 -149.8863
v 58.56494 26.49286 176.0278
v -6.103516E-05 64.0874 -118.9782
v 0 64.0874 176.1122
v 58.31543 26.61945 -122.2486
v -58.57623 26.49286 176.0279
v 58.56494 26.49286 176.0278
v 0 64.0874 176.1122
v -131.8145 -5.749878 176.4834
v 131.8144 -5.749878 176.4833
v 131.8144 -5.749878 -149.8863
v -131.8145 -5.749878 -149.8863
v -58.57629 26.49286 -122.2486
v 58.31543 26.61945 -122.2486
v -111.453 -30.28967 -132.7413
v -111.4529 -30.28967 176.3025
v -131.8145 -5.749878 -149.8863
v -131.8145 -5.749878 176.4834
v 111.4528 -30.28967 176.3025
v 111.4528 -30.28967 -132.7414
v 131.8144 -5.749878 176.4833
v 131.8144 -5.749878 -149.8863
v -111.4529 -30.28967 176.3025
v 111.4528 -30.28967 176.3025
v -131.8145 -5.749878 176.4834
v 131.8144 -5.749878 176.4833
v 111.4528 -30.28967 -132.7414
v -111.453 -30.28967 -132.7413
v 131.8144 -5.749878 -149.8863
v -131.8145 -5.749878 -149.8863

vn -0.4029262 0.9152324 0
vn -0.4029261 0.9152325 3.937054E-08
vn -0.4443082 0.8958741 6.040328E-08
vn -0.5401312 0.8415808 1.117183E-07
vn -0.5401312 0.8415809 1.111184E-07
vn -0.4912631 0.8710113 1.009024E-07
vn -9.42714E-05 0.08681107 -0.9962248
vn -9.42714E-05 0.08681107 -0.9962248
vn -9.42714E-05 0.08681107 -0.9962248
vn 0.4028745 0.9152553 0
vn 0.4029658 0.9152151 2.450915E-05
vn 0.4442983 0.895879 -1.046163E-05
vn 0.5405476 0.8413135 -1.118044E-07
vn 0.5403749 0.8414243 -4.777742E-05
vn 0.49128 0.8710017 -1.140982E-05
vn 1.818499E-07 0.009804137 0.999952
vn 1.30258E-07 0.005314081 0.9999859
vn 1.302595E-07 -0.002243078 0.9999974
vn 2.314961E-07 0.01412497 0.9999003
vn 2.003475E-07 0.01412479 0.9999002
vn -0.0002163798 0.6500694 -0.7598748
vn -8.78898E-08 0.650806 -0.7592441
vn -0.0002163798 0.6500694 -0.7598748
vn -0.0007023939 0.648412 -0.7612894
vn -0.7695817 -0.6385483 1.519899E-07
vn -0.7695812 -0.6385489 7.392274E-08
vn -0.7695812 -0.6385489 7.392274E-08
vn -0.7695807 -0.6385494 0
vn 0.7695807 -0.6385495 0
vn 0.7695807 -0.6385494 0
vn 0.7695807 -0.6385494 0
vn 0.7695808 -0.6385495 0
vn 2.053564E-07 -0.007367933 0.9999728
vn 2.195293E-07 -0.007367793 0.9999728
vn 2.195293E-07 -0.007367793 0.9999728
vn 2.315129E-07 -0.007367674 0.9999729
vn -1.1223E-07 -0.5727245 -0.819748
vn -1.028363E-07 -0.5727245 -0.8197479
vn -1.028363E-07 -0.5727245 -0.8197479
vn -9.489369E-08 -0.5727246 -0.8197479

vt 1.182938 0.5828995
vt -0.1829374 0.5828999
vt 1.067272 0.7368244
vt -0.1813841 0.8599344
vt 1.053585 0.859934
vt -0.1810312 0.7368249
vt 0.996379 0.007830387
vt 0.02030847 0.01286309
vt 0.4957659 0.3558645
vt -0.1902992 0.5770984
vt 1.190299 0.5770981
vt -0.1883724 0.7233589
vt 1.059553 0.8525282
vt -0.1887292 0.8525286
vt 1.073387 0.723874
vt 0.7219698 0.2933688
vt 0.2780727 0.2933688
vt 0.4999999 0.5042624
vt 0.9995005 0.1124973
vt 0.0004994869 0.1124973
vt 1.333674 0.6909844
vt -0.3336738 0.6909845
vt 0.1295293 0.859928
vt 0.8688229 0.8602005
vt 1.945458 0.2539243
vt 0.02844869 0.2539243
vt 1.975625 0.5892841
vt -0.001594346 0.5892841
vt 0.9574309 0.2539243
vt 0.02851056 0.2539243
vt 0.987474 0.5892841
vt -0.001656216 0.5892841
vt 0.956143 0.2539243
vt 0.03278703 0.2539243
vt 0.97462 0.5892841
vt 0.005071476 0.5892841
vt 0.956143 0.2539243
vt 0.03278697 0.2539243
vt 0.97462 0.5892841
vt 0.005071655 0.5892841

usemtl sn17_27_s17gsc26.JPG
usemap sn17_27_s17gsc26.JPG
f 3/3/3 1/1/1 2/2/2
f 6/6/6 4/4/4 5/5/5
f 12/12/12 10/10/10 11/11/11
f 15/15/15 13/13/13 14/14/14
f 18/18/18 16/16/16 17/17/17
f 3/3/3 6/6/6 5/5/5
f 16/16/16 19/19/19 20/20/20
f 2/2/2 6/6/6 3/3/3
f 23/23/23 21/21/21 22/22/22
f 12/12/12 15/15/15 14/14/14
f 24/24/24 21/21/21 23/23/23
f 11/11/11 15/15/15 12/12/12
f 17/17/17 16/16/16 20/20/20

usemtl sn17_26_s17gsc22.JPG
usemap sn17_26_s17gsc22.JPG
f 9/9/9 7/7/7 8/8/8

usemtl sn17_05_s17gsc10.JPG
usemap sn17_05_s17gsc10.JPG
f 27/27/27 25/25/25 26/26/26
f 26/26/26 28/28/28 27/27/27
f 31/31/31 29/29/29 30/30/30
f 30/30/30 32/32/32 31/31/31
f 35/35/35 33/33/33 34/34/34
f 34/34/34 36/36/36 35/35/35
f 39/39/39 37/37/37 38/38/38
f 38/38/38 40/40/40 39/39/39
