mtllib ./Box250.mtl
g Box250
v -25.10504 -4.523712 -219.9799
v -25.10498 -4.523712 40.90967
v -11.15631 6.307861 -212.2028
v -6.103516E-05 15.25894 28.35596
v -6.103516E-05 15.25894 -208.9323
v -11.15625 6.307861 33.91284
v 11.10651 6.337982 -212.2028
v -11.15631 6.307861 -212.2028
v -6.103516E-05 15.25894 -208.9323
v 25.10486 -4.523712 -219.9799
v -25.10504 -4.523712 -219.9799
v 1.14032 -11.71729 -206.8896
v 0.9414063 -11.71729 43.40961
v -25.10504 -4.523712 -219.9799
v -25.10498 -4.523712 40.90967
v 15.03284 -14.01819 -206.8896
v 1.14032 -11.71729 -206.8896
v 25.10486 -4.523712 -219.9799
v -25.10504 -4.523712 -219.9799

vn -0.6133252 0.7898305 1.434876E-07
vn -0.6133251 0.7898305 1.476687E-07
vn -0.6168632 0.7870704 1.497968E-07
vn -0.6258082 0.7799768 0
vn -0.6258072 0.7799777 7.901519E-08
vn -0.6210079 0.7838042 1.072285E-07
vn -0.0006588063 0.4869359 -0.8734375
vn -0.0002840292 0.5426919 -0.8399318
vn -0.0004650104 0.3436968 -0.9390805
vn -0.0002425216 0.5827014 -0.8126863
vn -4.937176E-07 0.5832362 -0.8123026
vn -0.2642424 -0.9644563 -0.0002099943
vn -0.2652464 -0.9641807 -0.0001031809
vn -0.2652464 -0.9641807 -0.0001031809
vn -0.2662166 -0.9639132 6.228142E-08
vn -0.1250343 -0.754939 -0.643765
vn -0.03055744 -0.8513135 -0.5237668
vn -0.03055744 -0.8513135 -0.5237668
vn -2.927196E-07 -0.8763884 -0.4816051

vt 1.983086 0.6002017
vt 0.5432497 0.600202
vt 1.941128 0.7236024
vt 0.6126412 0.8234836
vt 1.923484 0.8234833
vt 0.5819196 0.7236026
vt 0.611308 1.727229
vt 0.4524582 1.727229
vt 0.5320602 1.782254
vt 0.7111892 1.596381
vt 0.3529311 1.596382
vt 2.546355 0.2931615
vt 1.28569 0.2931615
vt 2.595082 0.5834268
vt 1.335622 0.5834268
vt 0.9476629 0.2931617
vt 0.03948154 0.2931615
vt 0.9963904 0.583427
vt 0.0004996061 0.5834268

usemtl sn17_27_s17gsc26.JPG
usemap sn17_27_s17gsc26.JPG
f 3/3/3 1/1/1 2/2/2
f 6/6/6 4/4/4 5/5/5
f 9/9/9 7/7/7 8/8/8
f 3/3/3 6/6/6 5/5/5
f 2/2/2 6/6/6 3/3/3
f 8/8/8 10/10/10 11/11/11
f 7/7/7 10/10/10 8/8/8

usemtl sn17_05_s17gsc10.JPG
usemap sn17_05_s17gsc10.JPG
f 14/14/14 12/12/12 13/13/13
f 13/13/13 15/15/15 14/14/14
f 18/18/18 16/16/16 17/17/17
f 17/17/17 19/19/19 18/18/18
