mtllib ./Box219.mtl
g Box219
v -144.6122 -5.749329 -216.0732
v -144.6122 -5.749329 331.1801
v -64.26343 26.49341 -188.4356
v -0.0001831055 64.08795 300.2719
v -0.0002441406 64.08795 -185.1651
v -64.26337 26.49341 303.5424
v 63.97699 26.62 -188.4356
v -64.26343 26.49341 -188.4356
v -0.0002441406 64.08795 -185.1651
v 144.6118 -5.749329 331.18
v 144.6117 -5.749329 -216.0733
v 64.25067 26.49341 303.5423
v -0.0002441406 64.08795 -185.1651
v -0.0001831055 64.08795 300.2719
v 63.97699 26.62 -188.4356
v -64.26337 26.49341 303.5424
v 64.25067 26.49341 303.5423
v -0.0001831055 64.08795 300.2719
v -144.6122 -5.749329 331.1801
v 144.6118 -5.749329 331.18
v -64.26337 26.49341 303.5424
v 144.6117 -5.749329 -216.0733
v -144.6122 -5.749329 -216.0732
v -64.26343 26.49341 -188.4356
v 63.97699 26.62 -188.4356
v 64.25067 26.49341 303.5423
v -129.6667 -28.51874 -198.4312
v -129.6666 -28.51874 325.9142
v -144.6122 -5.749329 -216.0732
v -144.6122 -5.749329 331.1801
v 125.7493 -28.51868 319.7261
v 125.7493 -28.51874 -200.5855
v 144.6118 -5.749329 331.18
v 144.6117 -5.749329 -216.0733
v -129.6666 -28.51874 325.9142
v 125.7493 -28.51868 319.7261
v -144.6122 -5.749329 331.1801
v 144.6118 -5.749329 331.18
v 125.7493 -28.51874 -200.5855
v -129.6667 -28.51874 -198.4312
v 144.6117 -5.749329 -216.0733
v -144.6122 -5.749329 -216.0732

vn -0.3724181 0.9280651 4.153579E-08
vn -0.3724181 0.928065 4.374503E-08
vn -0.4116853 0.9113261 4.932361E-08
vn -0.5049497 0.8631487 6.348855E-08
vn -0.5049498 0.8631487 6.306367E-08
vn -0.4571785 0.8893749 5.698303E-08
vn -8.569293E-05 0.08681227 -0.9962247
vn -8.569293E-05 0.08681227 -0.9962247
vn -8.569293E-05 0.08681227 -0.9962247
vn 0.3723691 0.9280846 -4.153033E-08
vn 0.3724527 0.9280512 1.493697E-05
vn 0.4116756 0.9113304 -6.397677E-06
vn 0.5053586 0.8629093 -6.353996E-08
vn 0.50519 0.8630081 -2.97177E-05
vn 0.4571968 0.8893656 -7.034493E-06
vn 2.365715E-07 0.08666568 0.9962375
vn 2.365715E-07 0.08666568 0.9962375
vn 2.365715E-07 0.08666568 0.9962375
vn 1.602239E-07 0.6508061 0.7592441
vn 1.663983E-07 0.650806 0.759244
vn 1.663983E-07 0.650806 0.759244
vn -0.0001972317 0.650069 -0.7598752
vn -1.60224E-07 0.6508052 -0.7592447
vn -0.0001972317 0.650069 -0.7598752
vn -0.0006400564 0.6484123 -0.7612891
vn 1.802938E-07 0.6508061 0.759244
vn -0.8359962 -0.5487351 1.946242E-07
vn -0.8359956 -0.548736 1.428477E-07
vn -0.8359956 -0.548736 1.428477E-07
vn -0.8359952 -0.5487369 9.323855E-08
vn 0.7700815 -0.6379455 -1.55002E-08
vn 0.7700819 -0.6379451 -5.158193E-08
vn 0.7700819 -0.6379451 -5.158193E-08
vn 0.7700823 -0.6379446 -8.588727E-08
vn 0.02367781 -0.2104817 0.977311
vn 0.01066178 -0.3454477 0.9383774
vn 0.01066178 -0.3454477 0.9383774
vn 1.885218E-07 -0.4493858 0.8933378
vn -0.00699651 -0.5584413 -0.8295146
vn -0.003199151 -0.5881128 -0.8087726
vn -0.003199151 -0.5881128 -0.8087726
vn -1.66817E-07 -0.6124793 -0.7904866

vt 1.999001 0.5961288
vt 0.0009990931 0.5961294
vt 1.884214 0.7404652
vt 0.1293695 0.8559064
vt 1.870631 0.8559058
vt 0.1157863 0.7404658
vt 1.007295 0.005430917
vt 0 0
vt 0.4713683 0.3409789
vt 0.0009990931 0.5823691
vt 1.999001 0.5823685
vt 0.1157863 0.7341062
vt 1.870631 0.8554235
vt 0.1293695 0.855424
vt 1.884214 0.7346223
vt 0.9907391 0.00954777
vt -0.009460717 0.0095478
vt 0.4736817 0.3348759
vt 1.532434 0.594918
vt -0.03243327 0.5949181
vt 1.097701 0.8130734
vt 1.580502 0.5935007
vt -0.08050168 0.5935009
vt 0.3809389 0.8338125
vt 1.117419 0.8338124
vt 0.4023662 0.8130735
vt 2.998501 0.3110466
vt 0.00149855 0.3110466
vt 2.998501 0.5805815
vt 0.00149855 0.5805815
vt 2.998501 0.3110467
vt 0.001498729 0.3110467
vt 2.998501 0.5805815
vt 0.00149855 0.5805815
vt 2.998498 0.3110466
vt 0.001498461 0.3110467
vt 2.998498 0.5805815
vt 0.001498461 0.5805815
vt 2.998498 0.3110467
vt 0.001498461 0.3110466
vt 2.998498 0.5805815
vt 0.001498461 0.5805815

usemtl sn17_27_s17gsc26.JPG
usemap sn17_27_s17gsc26.JPG
f 3/3/3 1/1/1 2/2/2
f 6/6/6 4/4/4 5/5/5
f 3/3/3 6/6/6 5/5/5
f 21/21/21 19/19/19 20/20/20
f 2/2/2 6/6/6 3/3/3
f 24/24/24 22/22/22 23/23/23
f 25/25/25 22/22/22 24/24/24
f 26/26/26 21/21/21 20/20/20
f 29/29/29 27/27/27 28/28/28
f 28/28/28 30/30/30 29/29/29
f 37/37/37 35/35/35 36/36/36
f 36/36/36 38/38/38 37/37/37
f 41/41/41 39/39/39 40/40/40
f 40/40/40 42/42/42 41/41/41

usemtl sn17_26_s17gsc22.JPG
usemap sn17_26_s17gsc22.JPG
f 9/9/9 7/7/7 8/8/8
f 18/18/18 16/16/16 17/17/17

usemtl sn17_-01_
usemap sn17_-01_
f 12/12/12 10/10/10 11/11/11
f 15/15/15 13/13/13 14/14/14
f 12/12/12 15/15/15 14/14/14
f 11/11/11 15/15/15 12/12/12
f 33/33/33 31/31/31 32/32/32
f 32/32/32 34/34/34 33/33/33
