mtllib ./Box241.mtl
g Box241
v -170.9025 15.25854 -2.169891
v -196.3691 15.23315 -2.147446
v -170.9025 14.60217 -1.351837
v -170.9371 -4.734009 22.5582
v -170.9025 5.885193 9.530151
v -185.1204 6.17157 9.178909
v 44.26654 15.25854 -2.169922
v 44.26654 11.25104 2.824844
v 44.26654 6.074219 9.286636
v 44.26654 1.299011 15.43607
v -170.9025 -10.81909 -2.527603
v -170.9371 -4.734009 22.5582
v -220.2578 -4.524109 22.94235
v -195.9539 -10.81909 -2.551849
v 44.26654 -4.641541 22.72421
v -170.9371 -4.734009 22.5582
v 44.26654 -7.35791 11.54535
v -220.2578 -4.524109 22.94235
v -206.6121 6.307434 9.003952
v -196.3691 15.23315 -2.147446
v -220.5358 -4.524109 -512.3324
v -220.2578 -4.524109 22.94235
v -206.5871 6.307434 -504.5552
v -196.3691 15.23315 -2.147446
v -195.4309 15.25854 -501.2847
v -206.6121 6.307434 9.003952
v -184.3243 6.337585 -504.5552
v -206.5871 6.307434 -504.5552
v -195.4309 15.25854 -501.2847
v -170.9371 -4.734009 22.5582
v -170.326 -4.524109 -512.3324
v -185.1204 6.17157 9.178909
v -195.4309 15.25854 -501.2847
v -196.3691 15.23315 -2.147446
v -184.3243 6.337585 -504.5552
v -170.326 -4.524109 -512.3324
v -220.5358 -4.524109 -512.3324
v -194.2931 -10.81909 -499.242
v -195.9539 -10.81909 -2.551849
v -220.5358 -4.524109 -512.3324
v -220.2578 -4.524109 22.94235
v -180.398 -13.12 -499.242
v -194.2931 -10.81909 -499.242
v -170.326 -4.524109 -512.3324
v -220.5358 -4.524109 -512.3324
v 44.26654 -4.641541 22.72421
v 44.26654 10.88855 3.276642
v 44.26648 -10.81909 -2.353027
v 44.26654 -7.35791 11.54535

vn -3.375681E-06 0.7799768 0.6258085
vn -2.437953E-05 0.7806297 0.6249939
vn 5.032543E-06 0.7804453 0.6252239
vn 0.0007913949 0.7769396 0.6295746
vn -0.0004111693 0.77909 0.6269119
vn -6.710089E-05 0.7777135 0.628619
vn 8.87588E-08 0.7799771 0.6258079
vn 1.156709E-07 0.7799777 0.6258072
vn 1.610769E-05 0.7829631 0.6220682
vn -0.0004486563 0.7818413 0.6234772
vn -0.0005534301 -0.9717368 0.2360661
vn -0.0002362058 -0.9713688 0.2375762
vn -0.001594865 -0.9715035 0.2370198
vn -0.0002318117 -0.9708938 0.2395104
vn 0.0002353765 -0.9717237 0.2361207
vn 0.0002353765 -0.9717237 0.2361207
vn 0.0002353765 -0.9717237 0.2361207
vn 0.008161693 0.7856978 0.6185567
vn 0.004497421 0.7821927 0.6230204
vn -0.0001505044 0.780779 0.6248072
vn -0.6134357 0.7897446 0.0003186809
vn -0.6174806 0.786586 0.0001489973
vn -0.6198625 0.7847105 9.779364E-05
vn -0.6577061 0.7532738 -0.001197977
vn -0.6412467 0.7673346 -0.000590683
vn -0.6337254 0.773558 -0.0003733018
vn -0.0006594867 0.4869361 -0.8734373
vn -0.0002840406 0.5426942 -0.8399302
vn -0.0004654814 0.3436963 -0.9390807
vn 0.6089502 0.7932078 0.001007065
vn 0.6111431 0.7915194 0.001103903
vn 0.6155619 0.7880878 0.001137782
vn 0.6264395 0.7794691 0.001217174
vn 0.6265149 0.7794085 0.001220053
vn 0.6215039 0.7834101 0.001214607
vn -0.0002424322 0.5827042 -0.8126844
vn 0 0.5832399 -0.8123
vn -0.2328908 -0.9725025 -0.0007787381
vn -0.241767 -0.9703344 -0.0003239488
vn -0.241767 -0.9703344 -0.0003239488
vn -0.2506098 -0.9680882 0.0001301922
vn -0.1292192 -0.7803504 -0.611846
vn -0.03147928 -0.8770372 -0.4793899
vn -0.03147928 -0.8770372 -0.4793899
vn 0 -0.9012114 -0.4333797
vn -0.0008204058 0.7751266 0.6318052
vn 1.784345E-05 0.7803816 0.6253037
vn 6.798915E-05 -0.9713024 0.2378481
vn 0.0005351455 -0.9703624 0.2416542

vt 1.713398 0.8234833
vt 1.864535 0.8212166
vt 1.713398 0.8234833
vt 1.713747 0.6002018
vt 1.719104 0.7236024
vt 1.798088 0.7236024
vt 0.5247483 0.8234836
vt 0.5249375 0.7787657
vt 0.5280885 0.7236026
vt 0.5285689 0.6692345
vt 2.392641 0.2931615
vt 2.347541 0.5553111
vt 2.595082 0.5834268
vt 2.546355 0.2931615
vt 1.319324 0.5834268
vt 2.358159 0.5834268
vt 1.267782 0.4469272
vt 1.983086 0.6002017
vt 1.915368 0.7236024
vt 1.862871 0.8234833
vt 1.980718 0.6002017
vt -1.032682 0.6002022
vt 1.935862 0.7236024
vt -0.8977827 0.8234838
vt 1.923484 0.8234833
vt -0.955137 0.7236028
vt 0.611308 1.727229
vt 0.4524582 1.727229
vt 0.5320602 1.782254
vt -0.9691192 0.5919424
vt 1.969119 0.5919418
vt -0.9275558 0.7012747
vt 1.910078 0.7885795
vt -0.9100776 0.78858
vt 1.927556 0.701649
vt 0.7111892 1.596381
vt 0.3529311 1.596382
vt 2.546355 0.2931615
vt 0.03948148 0.2931615
vt 2.595082 0.5834268
vt 0.0004994869 0.5834268
vt 0.9476629 0.2931617
vt 0.03948154 0.2931615
vt 0.9963904 0.583427
vt 0.0004996061 0.5834268
vt 0.525465 0.600202
vt 0.5249373 0.7787657
vt 1.286143 0.2931615
vt 1.262158 0.4320332

usemtl sn17_27_s17gsc26.JPG
usemap sn17_27_s17gsc26.JPG
f 3/3/3 1/1/1 2/2/2
f 6/6/6 4/4/4 5/5/5
f 8/8/8 7/7/7 1/1/1
f 5/5/5 3/3/3 2/2/2
f 6/6/6 5/5/5 2/2/2
f 10/10/10 9/9/9 5/5/5
f 13/13/13 11/11/11 12/12/12
f 13/13/13 14/14/14 11/11/11
f 17/17/17 15/15/15 16/16/16
f 19/19/19 18/18/18 4/4/4
f 19/19/19 4/4/4 6/6/6
f 19/19/19 6/6/6 20/20/20
f 23/23/23 21/21/21 22/22/22
f 26/26/26 24/24/24 25/25/25
f 29/29/29 27/27/27 28/28/28
f 32/32/32 30/30/30 31/31/31
f 35/35/35 33/33/33 34/34/34
f 23/23/23 26/26/26 25/25/25
f 22/22/22 26/26/26 23/23/23
f 28/28/28 36/36/36 37/37/37
f 32/32/32 35/35/35 34/34/34
f 27/27/27 36/36/36 28/28/28
f 31/31/31 35/35/35 32/32/32
f 40/40/40 38/38/38 39/39/39
f 39/39/39 41/41/41 40/40/40
f 5/5/5 46/46/46 10/10/10
f 5/5/5 4/4/4 46/46/46
f 9/9/9 47/47/47 3/3/3
f 5/5/5 9/9/9 3/3/3
f 12/12/12 48/48/48 49/49/49
f 12/12/12 11/11/11 48/48/48
f 8/8/8 1/1/1 47/47/47
f 47/47/47 1/1/1 3/3/3

usemtl sn17_05_s17gsc10.JPG
usemap sn17_05_s17gsc10.JPG
f 44/44/44 42/42/42 43/43/43
f 43/43/43 45/45/45 44/44/44
