mtllib ./Box302.mtl
g Box302
v -146.1056 -0.0002746582 83.33334
v -146.1056 -0.0002746582 250
v 60.43018 -0.0002746582 83.33331
v 60.43018 -0.0002746582 250
v -146.1056 -0.0002746582 -83.33328
v 60.43018 -0.0002746582 -83.33328
v -146.1055 -0.0002746582 -249.9999
v 60.4303 -0.0002746582 -249.9999
v 151.0559 -0.0002746582 83.33331
v 151.0559 -0.0002746582 250
v 151.0559 -0.0002746582 -83.33331
v 151.056 -0.0002746582 -249.9999
v 250 -0.0002746582 83.33331
v 249.9999 -0.0002746582 250
v 151.0559 -0.0002746582 -83.33331
v 250 -0.0002746582 -83.33334
v 250 -0.0002746582 -250
v -146.1056 99.99969 250
v -146.1056 -0.0002746582 250
v -146.1056 99.99969 83.33334
v -146.1056 -0.0002746582 83.33334
v -146.1056 99.99969 -83.33328
v -146.1056 -0.0002746582 -83.33328
v -146.1055 99.99969 -249.9999
v -146.1055 -0.0002746582 -249.9999
v -146.1056 167.9612 250
v -146.1056 167.9612 83.33334
v -146.1056 167.9612 -83.33328
v -146.1055 167.9612 -249.9999
v -146.1055 99.99969 -249.9999
v -146.1055 -0.0002746582 -249.9999
v 60.4303 99.99969 -249.9999
v 60.4303 -0.0002746582 -249.9999
v 151.056 99.99969 -249.9999
v 151.056 -0.0002746582 -249.9999
v 250 99.99969 -249.9999
v 250 -0.0002746582 -250
v -146.1055 167.9612 -249.9999
v 60.4303 167.9612 -249.9999
v 151.056 167.9612 -249.9999
v 250 167.9612 -249.9999
v 250 99.99969 -249.9999
v 250 -0.0002746582 -250
v 250 99.99969 -83.33331
v 250 -0.0002746582 -83.33334
v 250 99.99969 -83.33331
v 249.9999 99.99969 83.33331
v 250 -0.0002746582 83.33331
v 249.9999 99.99969 250
v 249.9999 -0.0002746582 250
v 250 167.9612 -249.9999
v 250 167.9612 -83.33331
v 249.9999 167.9612 83.33331
v 249.9999 167.9612 250
v 249.9999 99.99969 250
v 249.9999 -0.0002746582 250
v 151.0559 99.99969 250
v 151.0559 -0.0002746582 250
v 60.43018 99.99969 250
v 60.43018 -0.0002746582 250
v -146.1056 99.99969 250
v -146.1056 -0.0002746582 250
v 249.9999 167.9612 250
v 151.0559 167.9612 250
v 60.43018 167.9612 250
v -146.1056 167.9612 250
v -146.1056 199.9996 83.33334
v -146.1056 199.9996 250
v -146.1056 199.9996 -83.33328
v -146.1055 199.9996 -249.9999
v 60.4303 199.9996 -249.9999
v -146.1055 199.9996 -249.9999
v 151.056 199.9996 -249.9999
v 250 199.9996 -249.9999
v 250 199.9996 -83.33331
v 250 199.9996 -249.9999
v 249.9999 199.9996 83.33331
v 249.9999 199.9996 250
v 249.9999 167.9612 83.33331
v 151.0559 199.9996 250
v 249.9999 199.9996 250
v 60.43018 199.9996 250
v -146.1056 199.9996 250

vn 0 0.9999999 0
vn 0 1 0
vn 0 1 0
vn 0 0.9999999 0
vn 0 1 0
vn 0 1 0
vn 0 1 0
vn 0 1 0
vn 0 1 0
vn 0 1 0
vn 0 1 0
vn 0 1 0
vn 0 1 0
vn 0 1 0
vn 0 1 0
vn 0 1 0
vn 0 1 0
vn 1 0 0
vn 1 0 0
vn 1 0 0
vn 0.9999999 0 0
vn 1 0 3.429263E-07
vn 1 -3.725293E-14 4.882814E-07
vn 1 -4.170702E-14 7.324222E-07
vn 1 -1.117588E-13 7.324221E-07
vn 1 0 0
vn 1 0 0
vn 1 0 2.441407E-07
vn 1 0 7.324222E-07
vn 1.477593E-07 -6.467699E-08 1
vn 1.477593E-07 -1.525879E-07 1
vn 1.20859E-07 -9.315413E-08 1
vn 1.477593E-07 -1.525879E-07 1
vn 1.220213E-07 -5.117463E-08 1
vn 1.542165E-07 -1.525879E-07 1
vn 1.542165E-07 -1.138879E-07 1
vn 1.542165E-07 -1.525879E-07 1
vn 1.477593E-07 0 0.9999999
vn 1.211743E-07 0 1
vn 5.445766E-08 0 0.9999999
vn 1.542165E-07 0 1
vn -1 0 0
vn -1 0 0
vn -1 0 0
vn -1 -4.069012E-07 -2.441407E-07
vn -1 9.47417E-14 -7.32422E-07
vn -1 -4.84517E-07 -2.441406E-07
vn -1 -8.138024E-07 -2.441407E-07
vn -1 -4.555518E-07 -2.73331E-07
vn -1 0 -7.324219E-07
vn -1 0 0
vn -1 0 -2.441407E-07
vn -1 0 -5.46662E-07
vn -1 0 0
vn 0 0 -0.9999999
vn 0 0 -1
vn 0 0 -0.9999999
vn 0 0 -1
vn 0 0 -1
vn 0 0 -1
vn 0 0 -0.9999999
vn 0 0 -1
vn 0 0 -1
vn 0 0 -1
vn 0 0 -1
vn 0 0 -1
vn 0.9999999 0 0
vn 0.9999999 0 0
vn 1 0 4.882814E-07
vn 1 0 7.324221E-07
vn 7.86967E-08 0 1
vn 1.477593E-07 0 1
vn 1.057752E-07 0 1
vn 1.542165E-07 0 1
vn -0.9999999 0 -4.882813E-07
vn -0.9999999 0 0
vn -1 0 -2.441406E-07
vn -1 0 0
vn -1 0 0
vn 0 0 -1
vn 0 0 -1
vn 0 0 -1
vn 0 0 -1

vt -0.055556 -0.8203518
vt -1.166667 -0.8203516
vt -0.05555558 0.5565535
vt -1.166667 0.5565538
vt 1.055555 -0.8203522
vt 1.055556 0.5565532
vt 2.166666 -0.8203524
vt 2.166667 0.556553
vt -0.0555554 1.160725
vt -1.166667 1.160726
vt 1.055556 1.160725
vt 2.166667 1.160725
vt -0.05555528 1.820352
vt -1.166666 1.820352
vt 1.055556 1.160725
vt 1.055556 1.820352
vt 2.166667 1.820352
vt 2.585716 0.5
vt 2.585716 0.0004995167
vt 1.528572 0.5
vt 1.528572 0.0004995167
vt 0.4714285 0.5
vt 0.4714285 0.0004995167
vt -0.5857151 0.5
vt -0.5857152 0.0004995167
vt 2.585716 0.8394682
vt 1.528572 0.8394683
vt 0.4714285 0.8394683
vt -0.5857151 0.8394683
vt 1.999001 0.4999999
vt 1.999001 0.0004995167
vt 0.957211 0.5
vt 0.957211 0.0004995167
vt 0.5000844 0.5
vt 0.5000844 0.0004995167
vt 0.0009996891 0.5
vt 0.0009995699 0.0004995167
vt 1.999001 0.8394682
vt 0.957211 0.8394683
vt 0.5000844 0.8394683
vt 0.0009996891 0.8394683
vt 2.585716 0.4999999
vt 2.585716 0.0004995167
vt 1.528572 0.5
vt 1.528572 0.0004995167
vt 1.528572 0.4999999
vt 0.4714284 0.5
vt 0.4714285 0.0004995167
vt -0.5857152 0.5
vt -0.5857152 0.0004995167
vt 2.585716 0.8394682
vt 1.528572 0.8394683
vt 0.4714284 0.8394683
vt -0.5857152 0.8394683
vt 1.999001 0.5000001
vt 1.999001 0.0004995167
vt 1.499916 0.5
vt 1.499916 0.0004995167
vt 1.042789 0.5
vt 1.04279 0.0004995167
vt 0.0009996295 0.5
vt 0.0009996295 0.0004995167
vt 1.999001 0.8394682
vt 1.499916 0.8394683
vt 1.042789 0.8394683
vt 0.0009996295 0.8394683
vt 1.528572 0.9995005
vt 2.585716 0.9995004
vt 0.4714285 0.9995005
vt -0.5857151 0.9995005
vt 0.957211 0.9995005
vt 1.999001 0.9995004
vt 0.5000844 0.9995005
vt 0.0009996891 0.9995005
vt 1.528572 0.9995005
vt 2.585716 0.9995004
vt 0.4714284 0.9995005
vt -0.5857152 0.9995005
vt 0.4714283 0.8394684
vt 1.499916 0.9995005
vt 1.999001 0.9995004
vt 1.042789 0.9995005
vt 0.0009996295 0.9995005

usemtl sn17_10_s17gsc29.JPG
usemap sn17_10_s17gsc29.JPG
f 3/3/3 1/1/1 2/2/2
f 2/2/2 4/4/4 3/3/3
f 6/6/6 5/5/5 1/1/1
f 1/1/1 3/3/3 6/6/6
f 8/8/8 7/7/7 5/5/5
f 5/5/5 6/6/6 8/8/8
f 9/9/9 3/3/3 4/4/4
f 4/4/4 10/10/10 9/9/9
f 11/11/11 6/6/6 3/3/3
f 3/3/3 9/9/9 11/11/11
f 12/12/12 8/8/8 6/6/6
f 6/6/6 11/11/11 12/12/12
f 13/13/13 9/9/9 10/10/10
f 10/10/10 14/14/14 13/13/13
f 16/16/16 15/15/15 9/9/9
f 9/9/9 13/13/13 16/16/16
f 17/17/17 12/12/12 15/15/15
f 15/15/15 16/16/16 17/17/17

usemtl sn17_51_s17gsc16.JPG
usemap sn17_51_s17gsc16.JPG
f 20/20/20 18/18/18 19/19/19
f 19/19/19 21/21/21 20/20/20
f 22/22/22 20/20/20 21/21/21
f 21/21/21 23/23/23 22/22/22
f 24/24/24 22/22/22 23/23/23
f 23/23/23 25/25/25 24/24/24
f 27/27/27 26/26/26 18/18/18
f 18/18/18 20/20/20 27/27/27
f 28/28/28 27/27/27 20/20/20
f 20/20/20 22/22/22 28/28/28
f 29/29/29 28/28/28 22/22/22
f 22/22/22 24/24/24 29/29/29
f 32/32/32 30/30/30 31/31/31
f 31/31/31 33/33/33 32/32/32
f 36/36/36 34/34/34 35/35/35
f 35/35/35 37/37/37 36/36/36
f 39/39/39 38/38/38 30/30/30
f 30/30/30 32/32/32 39/39/39
f 40/40/40 39/39/39 32/32/32
f 32/32/32 34/34/34 40/40/40
f 41/41/41 40/40/40 34/34/34
f 34/34/34 36/36/36 41/41/41
f 44/44/44 42/42/42 43/43/43
f 43/43/43 45/45/45 44/44/44
f 47/47/47 46/46/46 45/45/45
f 45/45/45 48/48/48 47/47/47
f 49/49/49 47/47/47 48/48/48
f 48/48/48 50/50/50 49/49/49
f 52/52/52 51/51/51 42/42/42
f 42/42/42 44/44/44 52/52/52
f 53/53/53 52/52/52 46/46/46
f 46/46/46 47/47/47 53/53/53
f 54/54/54 53/53/53 47/47/47
f 47/47/47 49/49/49 54/54/54
f 57/57/57 55/55/55 56/56/56
f 56/56/56 58/58/58 57/57/57
f 59/59/59 57/57/57 58/58/58
f 58/58/58 60/60/60 59/59/59
f 61/61/61 59/59/59 60/60/60
f 60/60/60 62/62/62 61/61/61
f 64/64/64 63/63/63 55/55/55
f 55/55/55 57/57/57 64/64/64
f 65/65/65 64/64/64 57/57/57
f 57/57/57 59/59/59 65/65/65
f 66/66/66 65/65/65 59/59/59
f 59/59/59 61/61/61 66/66/66
f 27/27/27 67/67/67 68/68/68
f 68/68/68 26/26/26 27/27/27
f 28/28/28 69/69/69 67/67/67
f 67/67/67 27/27/27 28/28/28
f 29/29/29 70/70/70 69/69/69
f 69/69/69 28/28/28 29/29/29
f 39/39/39 71/71/71 72/72/72
f 72/72/72 38/38/38 39/39/39
f 40/40/40 73/73/73 71/71/71
f 71/71/71 39/39/39 40/40/40
f 41/41/41 74/74/74 73/73/73
f 73/73/73 40/40/40 41/41/41
f 52/52/52 75/75/75 76/76/76
f 76/76/76 51/51/51 52/52/52
f 53/53/53 77/77/77 75/75/75
f 75/75/75 52/52/52 53/53/53
f 54/54/54 78/78/78 77/77/77
f 77/77/77 79/79/79 54/54/54
f 64/64/64 80/80/80 81/81/81
f 81/81/81 63/63/63 64/64/64
f 65/65/65 82/82/82 80/80/80
f 80/80/80 64/64/64 65/65/65
f 66/66/66 83/83/83 82/82/82
f 82/82/82 65/65/65 66/66/66
