mtllib ./Box64.mtl
g Box64
v -8.943909 -4.036233 -23.95325
v -23.45142 -4.036235 -10.18616
v -23.45142 50.00012 -10.18616
v -8.943909 50.00012 -23.95325
v -23.45142 165.9962 -10.18616
v -8.943909 165.9962 -23.95325
v -8.943909 165.9962 -23.95325
v -23.45142 165.9962 -10.18616
v -34.78748 184.6918 -22.13184
v -20.27997 184.6918 -35.89893
v -20.27997 184.6918 -35.89893
v -34.78748 184.6918 -22.13184
v -34.78748 203.4181 -22.13184
v -20.27997 203.4181 -35.89893
v -23.45142 -4.036235 -10.18616
v -21.02032 -4.036235 -7.62439
v -21.02032 50.00012 -7.62439
v -23.45142 50.00012 -10.18616
v -7.253235 -4.036235 6.883118
v -7.253235 50.00012 6.883118
v 6.513855 -4.036235 21.39063
v 6.513855 50.00012 21.39063
v 9.516663 -4.036235 24.55493
v 9.516663 50.00012 24.55493
v -21.02039 165.9962 -7.624329
v -23.45142 165.9962 -10.18616
v -7.253296 165.9962 6.883118
v 6.513794 165.9962 21.39063
v 9.516602 165.9962 24.55493
v -21.02039 181.0024 -7.624329
v -34.78748 184.6918 -22.13184
v -7.253296 181.0024 6.883118
v 6.513794 181.0024 21.39063
v 20.28088 181.0024 35.89813
v -21.02039 220.1095 -7.624329
v -34.78748 203.4181 -22.13184
v -7.253296 239.8963 6.883118
v 6.513794 219.2783 21.39063
v 20.28088 199.7287 35.89813
v 9.516663 -4.036235 24.55493
v 24.02411 -4.036233 10.78784
v 24.02411 50.00012 10.78784
v 9.516663 50.00012 24.55493
v 24.02411 165.9962 10.78784
v 9.516602 165.9962 24.55493
v 9.516602 165.9962 24.55493
v 24.02411 165.9962 10.78784
v 34.78839 181.0024 22.13104
v 20.28088 181.0024 35.89813
v 20.28088 181.0024 35.89813
v 34.78839 181.0024 22.13104
v 34.78839 199.7287 22.13104
v 20.28088 199.7287 35.89813
v 24.02411 -4.036233 10.78784
v 21.0213 -4.036233 7.623535
v 21.0213 50.00012 7.623535
v 24.02411 50.00012 10.78784
v 7.254211 -4.036233 -6.883972
v 7.254211 50.00012 -6.883972
v -6.512878 -4.036233 -21.39148
v -6.512878 50.00012 -21.39148
v 7.254211 50.00012 -6.883972
v -8.943909 -4.036233 -23.95325
v -8.943909 50.00012 -23.95325
v 21.0213 50.00012 7.623535
v 21.0213 119.1165 7.623535
v 21.0213 165.9962 7.623535
v 24.02411 165.9962 10.78784
v 7.254211 119.4661 -6.883972
v 7.254211 165.9962 -6.883972
v -1.01532 119.6761 -15.59827
v -8.943909 165.9962 -23.95325
v -6.512878 165.9962 -21.39142
v 21.0213 181.0024 7.623535
v 34.78839 181.0024 22.13104
v 7.254211 181.0024 -6.883972
v -6.512878 181.0024 -21.39142
v -20.27997 184.6918 -35.89893
v 21.0213 219.2783 7.623535
v 34.78839 199.7287 22.13104
v 7.254211 239.8963 -6.883972
v -6.512878 220.1095 -21.39142
v -20.27997 203.4181 -35.89893

vn -0.688354 0 -0.7253749
vn -0.688354 0 -0.7253749
vn -0.688354 0 -0.7253748
vn -0.6883541 0 -0.7253749
vn -0.688354 0 -0.7253749
vn -0.688354 0 -0.7253749
vn -0.5165339 -0.6609955 -0.544314
vn -0.5165339 -0.6609955 -0.544314
vn -0.5165339 -0.6609955 -0.544314
vn -0.5165339 -0.6609955 -0.544314
vn -0.688354 0 -0.7253749
vn -0.688354 0 -0.7253749
vn -0.688354 0 -0.7253749
vn -0.688354 0 -0.7253749
vn -0.7253652 0 0.6883642
vn -0.7253741 0 0.6883548
vn -0.7253731 -4.474801E-07 0.6883558
vn -0.725372 -3.016326E-07 0.688357
vn -0.7253749 0 0.6883541
vn -0.7253749 -2.602471E-07 0.6883541
vn -0.725375 0 0.688354
vn -0.725375 -2.220587E-07 0.688354
vn -0.7253752 0 0.6883537
vn -0.7253752 -1.980609E-07 0.6883537
vn -0.7253737 -5.349896E-07 0.6883553
vn -0.7253793 -9.489859E-07 0.6883494
vn -0.7253743 -4.445548E-07 0.6883546
vn -0.7253749 -3.313165E-07 0.688354
vn -0.7253752 -3.239448E-07 0.6883537
vn -0.725374 -2.160045E-07 0.6883549
vn -0.725375 -5.009019E-07 0.6883539
vn -0.7253742 0 0.6883547
vn -0.7253749 0 0.6883541
vn -0.7253749 5.154219E-08 0.6883541
vn -0.7253742 0 0.6883546
vn -0.7253749 0 0.6883541
vn -0.725374 0 0.688355
vn -0.7253749 0 0.688354
vn -0.7253749 0 0.6883541
vn 0.6883555 0 0.7253734
vn 0.6883556 0 0.7253735
vn 0.6883555 0 0.7253733
vn 0.688355 1.467046E-07 0.725374
vn 0.6883548 1.808754E-07 0.7253742
vn 0.688354 3.617504E-07 0.7253749
vn 0.4766078 -0.7215258 0.5022405
vn 0.4766078 -0.7215258 0.5022405
vn 0.4766078 -0.7215258 0.5022405
vn 0.4766078 -0.7215258 0.5022405
vn 0.688354 0 0.7253749
vn 0.688354 0 0.7253749
vn 0.688354 0 0.7253749
vn 0.688354 0 0.7253749
vn 0.7253752 0 -0.6883537
vn 0.725375 0 -0.688354
vn 0.7253749 0 -0.688354
vn 0.7253751 0 -0.6883537
vn 0.7253749 0 -0.688354
vn 0.7253749 0 -0.688354
vn 0.7253746 0 -0.6883543
vn 0.7253748 5.340124E-08 -0.6883541
vn 0.725375 -5.764511E-08 -0.6883539
vn 0.7253738 0 -0.6883551
vn 0.7253739 0 -0.6883551
vn 0.725375 0 -0.688354
vn 0.7253749 0 -0.688354
vn 0.7253751 0 -0.688354
vn 0.7253751 -4.37668E-08 -0.6883538
vn 0.7253751 0 -0.6883538
vn 0.7253743 1.632067E-07 -0.6883545
vn 0.7253741 1.808754E-07 -0.6883547
vn 0.7253782 9.990795E-07 -0.6883504
vn 0.7253745 6.536944E-07 -0.6883545
vn 0.7253749 -1.130407E-08 -0.688354
vn 0.7253749 -2.648787E-08 -0.688354
vn 0.7253741 0 -0.6883548
vn 0.7253742 0 -0.6883547
vn 0.7253755 9.940048E-07 -0.6883534
vn 0.7253749 0 -0.688354
vn 0.7253749 0 -0.688354
vn 0.7253743 0 -0.6883546
vn 0.7253738 0 -0.6883551
vn 0.7253749 0 -0.6883541

vt 0.00241795 1.000956
vt 0.3254634 1.000956
vt 0.3254634 0.6923966
vt 0.00241795 0.6923966
vt 0.3254634 0.006808639
vt 0.00241795 0.006808639
vt 0.2916415 0.6934064
vt 0.0341063 0.6934065
vt 0.03410633 0.7946081
vt 0.2916415 0.794608
vt 0.07466811 0.8868278
vt 0.2305183 0.8868278
vt 0.2305183 0.8088458
vt 0.07466811 0.8088458
vt 0.3374452 0.9998553
vt 0.3919601 0.9998553
vt 0.3919601 0.6919129
vt 0.3374452 0.6919129
vt 0.6591465 0.9998553
vt 0.6591465 0.6919129
vt 0.926333 0.9998553
vt 0.926333 0.6919129
vt 0.9922027 0.9998553
vt 0.9922027 0.6919129
vt 0.3919601 0.006298721
vt 0.3374452 0.006298721
vt 0.6591465 0.006298721
vt 0.926333 0.006298721
vt 0.9922027 0.006298721
vt 0.3919601 -0.05619156
vt 0.1123077 -0.05619156
vt 0.6591465 -0.05619156
vt 0.926333 -0.05619156
vt 1.205985 -0.05619156
vt 0.3919601 -0.2155839
vt 0.1123077 -0.1341736
vt 0.6591465 -0.3014435
vt 0.926333 -0.2155839
vt 1.205985 -0.1341736
vt 0.008327827 0.9982068
vt 0.3289976 0.9982068
vt 0.3289976 0.6951962
vt 0.008327827 0.6951962
vt 0.3289976 0.004873633
vt 0.008327827 0.004873633
vt 0.03416762 0.8181624
vt 0.2966979 0.8181624
vt 0.2966979 0.6962366
vt 0.03416759 0.6962366
vt 0.03616676 0.9955235
vt 0.2969828 0.9955235
vt 0.2969828 0.8804186
vt 0.03616676 0.8804186
vt 0.3323573 0.9928727
vt 0.3868316 0.9928727
vt 0.3868316 0.6899551
vt 0.3323573 0.6899551
vt 0.6618357 0.9928727
vt 0.6618357 0.6899551
vt 0.9463102 0.9928727
vt 0.9463102 0.6899551
vt 0.6618357 0.6899551
vt 0.9998826 0.9928727
vt 0.9998826 0.6899551
vt 0.3868316 0.6899551
vt 0.3868316 0.3299617
vt 0.3868316 0.08578762
vt 0.3323573 0.08578762
vt 0.6618357 0.3281406
vt 0.6618357 0.08578762
vt 0.8327125 0.3270467
vt 0.9998826 0.08578762
vt 0.9463102 0.08578762
vt 0.3868316 0.02329727
vt 0.1370813 0.02329727
vt 0.6618357 0.02329727
vt 0.9463102 0.02329727
vt 1.205531 0.02329727
vt 0.3868316 -0.1360951
vt 0.1370813 -0.05468474
vt 0.6618357 -0.2219547
vt 0.9463102 -0.1360951
vt 1.205531 -0.05468474

usemtl sn17_06_s17gsc09.JPG
usemap sn17_06_s17gsc09.JPG
f 3/3/3 1/1/1 2/2/2
f 1/1/1 3/3/3 4/4/4
f 5/5/5 4/4/4 3/3/3
f 4/4/4 5/5/5 6/6/6
f 9/9/9 7/7/7 8/8/8
f 7/7/7 9/9/9 10/10/10
f 13/13/13 11/11/11 12/12/12
f 11/11/11 13/13/13 14/14/14
f 17/17/17 15/15/15 16/16/16
f 15/15/15 17/17/17 18/18/18
f 20/20/20 16/16/16 19/19/19
f 16/16/16 20/20/20 17/17/17
f 22/22/22 19/19/19 21/21/21
f 19/19/19 22/22/22 20/20/20
f 24/24/24 21/21/21 23/23/23
f 21/21/21 24/24/24 22/22/22
f 25/25/25 18/18/18 17/17/17
f 18/18/18 25/25/25 26/26/26
f 27/27/27 17/17/17 20/20/20
f 17/17/17 27/27/27 25/25/25
f 28/28/28 20/20/20 22/22/22
f 20/20/20 28/28/28 27/27/27
f 29/29/29 22/22/22 24/24/24
f 22/22/22 29/29/29 28/28/28
f 30/30/30 26/26/26 25/25/25
f 26/26/26 30/30/30 31/31/31
f 32/32/32 25/25/25 27/27/27
f 25/25/25 32/32/32 30/30/30
f 33/33/33 27/27/27 28/28/28
f 27/27/27 33/33/33 32/32/32
f 34/34/34 28/28/28 29/29/29
f 28/28/28 34/34/34 33/33/33
f 35/35/35 31/31/31 30/30/30
f 31/31/31 35/35/35 36/36/36
f 37/37/37 30/30/30 32/32/32
f 30/30/30 37/37/37 35/35/35
f 38/38/38 32/32/32 33/33/33
f 32/32/32 38/38/38 37/37/37
f 39/39/39 33/33/33 34/34/34
f 33/33/33 39/39/39 38/38/38
f 42/42/42 40/40/40 41/41/41
f 40/40/40 42/42/42 43/43/43
f 44/44/44 43/43/43 42/42/42
f 43/43/43 44/44/44 45/45/45
f 48/48/48 46/46/46 47/47/47
f 46/46/46 48/48/48 49/49/49
f 52/52/52 50/50/50 51/51/51
f 50/50/50 52/52/52 53/53/53
f 56/56/56 54/54/54 55/55/55
f 54/54/54 56/56/56 57/57/57
f 59/59/59 55/55/55 58/58/58
f 55/55/55 59/59/59 56/56/56
f 61/61/61 58/58/58 60/60/60
f 58/58/58 61/61/61 62/62/62
f 64/64/64 60/60/60 63/63/63
f 60/60/60 64/64/64 61/61/61
f 66/66/66 57/57/57 65/65/65
f 57/57/57 67/67/67 68/68/68
f 69/69/69 56/56/56 59/59/59
f 66/66/66 70/70/70 67/67/67
f 71/71/71 62/62/62 61/61/61
f 62/62/62 71/71/71 69/69/69
f 72/72/72 61/61/61 64/64/64
f 61/61/61 72/72/72 73/73/73
f 74/74/74 68/68/68 67/67/67
f 68/68/68 74/74/74 75/75/75
f 76/76/76 67/67/67 70/70/70
f 67/67/67 76/76/76 74/74/74
f 77/77/77 70/70/70 73/73/73
f 70/70/70 77/77/77 76/76/76
f 78/78/78 73/73/73 72/72/72
f 73/73/73 78/78/78 77/77/77
f 79/79/79 75/75/75 74/74/74
f 75/75/75 79/79/79 80/80/80
f 81/81/81 74/74/74 76/76/76
f 74/74/74 81/81/81 79/79/79
f 82/82/82 76/76/76 77/77/77
f 76/76/76 82/82/82 81/81/81
f 83/83/83 77/77/77 78/78/78
f 77/77/77 83/83/83 82/82/82
f 71/71/71 73/73/73 70/70/70
f 73/73/73 71/71/71 61/61/61
f 69/69/69 71/71/71 70/70/70
f 66/66/66 65/65/65 69/69/69
f 70/70/70 66/66/66 69/69/69
f 67/67/67 57/57/57 66/66/66
