mtllib ./Box71.mtl
g Box71
v 250.0003 -0.0002746582 -146.1057
v 83.33365 -0.0002746582 -146.1057
v 83.33365 -0.0002746582 60.43005
v 250.0003 -0.0002746582 60.43005
v -83.33301 -0.0002746582 -146.1057
v -83.33301 -0.0002746582 60.43005
v -249.9997 -0.0002746582 -146.1057
v -249.9997 -0.0002746582 60.43005
v 83.33365 -0.0002746582 151.0559
v 250.0003 -0.0002746582 151.0559
v -83.33301 -0.0002746582 151.0559
v -249.9997 -0.0002746582 151.0559
v 83.33365 -0.0002746582 249.9999
v 250.0003 -0.0002746582 249.9999
v -83.33301 -0.0002746582 151.0559
v -83.33301 -0.0002746582 249.9999
v -249.9997 -0.0002746582 249.9999
v 250.0003 -0.0002746582 -146.1057
v 250.0003 99.99973 -146.1057
v 83.33365 99.99973 -146.1057
v 83.33365 -0.0002746582 -146.1057
v -83.33301 99.99973 -146.1057
v -83.33301 -0.0002746582 -146.1057
v -249.9997 99.99973 -146.1057
v -249.9997 -0.0002746582 -146.1057
v 250.0003 167.9613 -146.1057
v 83.33365 167.9613 -146.1057
v -83.33301 167.9613 -146.1057
v -249.9997 167.9613 -146.1057
v -249.9997 -0.0002746582 -146.1057
v -249.9997 99.99973 -146.1057
v -249.9997 99.99973 60.43005
v -249.9997 -0.0002746582 60.43005
v -249.9997 -0.0002746582 151.0559
v -249.9997 99.99973 151.0559
v -249.9997 99.99973 249.9999
v -249.9997 -0.0002746582 249.9999
v -249.9997 167.9613 -146.1057
v -249.9997 167.9613 60.43005
v -249.9997 167.9613 151.0559
v -249.9997 167.9613 249.9999
v -249.9997 -0.0002746582 249.9999
v -249.9997 99.99973 249.9999
v -83.33298 99.99973 249.9999
v -83.33301 -0.0002746582 249.9999
v -83.33298 99.99973 249.9999
v 83.33368 99.99973 249.9999
v 83.33365 -0.0002746582 249.9999
v 250.0003 99.99973 249.9999
v 250.0003 -0.0002746582 249.9999
v -249.9997 167.9613 249.9999
v -83.33298 167.9613 249.9999
v 83.33368 167.9613 249.9999
v 83.33368 167.9613 249.9999
v 250.0003 167.9613 249.9999
v 250.0003 -0.0002746582 249.9999
v 250.0003 99.99973 249.9999
v 250.0003 99.99973 151.0559
v 250.0003 -0.0002746582 151.0559
v 250.0003 99.99973 60.43005
v 250.0003 -0.0002746582 60.43005
v 250.0003 99.99973 -146.1057
v 250.0003 -0.0002746582 -146.1057
v 250.0003 167.9613 249.9999
v 250.0003 167.9613 151.0559
v 250.0003 167.9613 60.43005
v 250.0003 167.9613 -146.1057
v 250.0003 199.9997 -146.1057
v 83.33365 199.9997 -146.1057
v -83.33301 199.9997 -146.1057
v -249.9997 199.9997 -146.1057
v -249.9997 199.9997 -146.1057
v -249.9997 199.9997 60.43005
v -249.9997 199.9997 151.0559
v -249.9997 199.9997 249.9999
v -249.9997 199.9997 249.9999
v -83.33298 199.9997 249.9999
v 83.33368 199.9997 249.9999
v 250.0003 199.9997 249.9999
v 250.0003 167.9613 249.9999
v 250.0003 199.9997 249.9999
v 250.0003 199.9997 151.0559
v 250.0003 199.9997 60.43005
v 250.0003 199.9997 -146.1057

vn 0 1 0
vn 0 1 0
vn 0 1 0
vn 0 1 0
vn 0 1 0
vn 0 1 0
vn 0 1 0
vn 0 1 0
vn 0 1 0
vn 0 1 0
vn 0 1 0
vn 0 1 0
vn 0 1 0
vn 0 1 0
vn 0 0.9999999 0
vn 0 0.9999999 0
vn 0 1 0
vn 0 0 1
vn 0 0 1
vn 0 0 0.9999999
vn 0 0 1
vn 0 0 0.9999999
vn 0 0 1
vn 0 0 1
vn 0 0 1
vn 0 0 1
vn 0 0 0.9999999
vn 0 0 1
vn 0 0 1
vn 1 -1.525879E-07 0
vn 1 -6.467695E-08 0
vn 1 -9.315406E-08 0
vn 1 -1.525879E-07 0
vn 1 -1.525879E-07 0
vn 1 -5.117458E-08 0
vn 1 -1.138879E-07 0
vn 1 -1.525879E-07 0
vn 1 0 0
vn 1 0 0
vn 1 0 0
vn 1 0 0
vn 0 0 -1
vn 0 0 -1
vn 0 0 -1
vn 0 0 -1
vn 0 0 -1
vn 0 0 -1
vn 0 0 -1
vn 0 0 -1
vn 0 0 -1
vn 0 0 -1
vn 0 0 -0.9999999
vn 0 0 -1
vn 0 0 -0.9999999
vn 0 0 -0.9999999
vn -1 0 0
vn -1 0 0
vn -0.9999999 0 0
vn -1 0 0
vn -1 0 0
vn -1 0 0
vn -1 0 0
vn -1 0 0
vn -1 0 0
vn -1 0 0
vn -1 0 0
vn -1 0 0
vn 0 0 1
vn 0 0 1
vn 0 0 1
vn 0 0 1
vn 1 0 0
vn 1 0 0
vn 1 0 0
vn 1 0 0
vn 0 0 -1
vn 0 0 -1
vn 0 0 -1
vn 0 0 -1
vn 0 0 -1
vn -1 0 0
vn -1 0 0
vn -1 0 0
vn -1 0 0

vt -1.166667 -0.8203516
vt -0.055556 -0.8203518
vt -0.05555558 0.5565535
vt -1.166667 0.5565538
vt 1.055555 -0.8203522
vt 1.055556 0.5565532
vt 2.166666 -0.8203524
vt 2.166667 0.556553
vt -0.0555554 1.160725
vt -1.166667 1.160726
vt 1.055556 1.160725
vt 2.166667 1.160725
vt -0.05555528 1.820352
vt -1.166666 1.820352
vt 1.055556 1.160725
vt 1.055556 1.820352
vt 2.166667 1.820352
vt 2.585716 0.0004995167
vt 2.585716 0.5
vt 1.528572 0.5
vt 1.528572 0.0004995167
vt 0.4714285 0.5
vt 0.4714285 0.0004995167
vt -0.5857151 0.5
vt -0.5857152 0.0004995167
vt 2.585716 0.8394682
vt 1.528572 0.8394683
vt 0.4714285 0.8394683
vt -0.5857151 0.8394683
vt 1.999001 0.0004995167
vt 1.999001 0.4999999
vt 0.957211 0.5
vt 0.957211 0.0004995167
vt 0.5000844 0.0004995167
vt 0.5000844 0.5
vt 0.0009996891 0.5
vt 0.0009995699 0.0004995167
vt 1.999001 0.8394682
vt 0.957211 0.8394683
vt 0.5000844 0.8394683
vt 0.0009996891 0.8394683
vt 2.585716 0.0004995167
vt 2.585716 0.4999999
vt 1.528572 0.5
vt 1.528572 0.0004995167
vt 1.528572 0.4999999
vt 0.4714284 0.5
vt 0.4714285 0.0004995167
vt -0.5857152 0.5
vt -0.5857152 0.0004995167
vt 2.585716 0.8394682
vt 1.528572 0.8394683
vt 0.4714284 0.8394683
vt 0.4714283 0.8394684
vt -0.5857152 0.8394683
vt 1.999001 0.0004995167
vt 1.999001 0.5000001
vt 1.499916 0.5
vt 1.499916 0.0004995167
vt 1.042789 0.5
vt 1.04279 0.0004995167
vt 0.0009996295 0.5
vt 0.0009996295 0.0004995167
vt 1.999001 0.8394682
vt 1.499916 0.8394683
vt 1.042789 0.8394683
vt 0.0009996295 0.8394683
vt 2.585716 0.9995004
vt 1.528572 0.9995005
vt 0.4714285 0.9995005
vt -0.5857151 0.9995005
vt 1.999001 0.9995004
vt 0.957211 0.9995005
vt 0.5000844 0.9995005
vt 0.0009996891 0.9995005
vt 2.585716 0.9995004
vt 1.528572 0.9995005
vt 0.4714284 0.9995005
vt -0.5857152 0.9995005
vt -0.5857152 0.8394683
vt 1.999001 0.9995004
vt 1.499916 0.9995005
vt 1.042789 0.9995005
vt 0.0009996295 0.9995005

usemtl sn17_10_s17gsc29.JPG
usemap sn17_10_s17gsc29.JPG
f 3/3/3 1/1/1 2/2/2
f 1/1/1 3/3/3 4/4/4
f 6/6/6 2/2/2 5/5/5
f 2/2/2 6/6/6 3/3/3
f 8/8/8 5/5/5 7/7/7
f 5/5/5 8/8/8 6/6/6
f 9/9/9 4/4/4 3/3/3
f 4/4/4 9/9/9 10/10/10
f 11/11/11 3/3/3 6/6/6
f 3/3/3 11/11/11 9/9/9
f 12/12/12 6/6/6 8/8/8
f 6/6/6 12/12/12 11/11/11
f 13/13/13 10/10/10 9/9/9
f 10/10/10 13/13/13 14/14/14
f 16/16/16 9/9/9 15/15/15
f 9/9/9 16/16/16 13/13/13
f 17/17/17 15/15/15 12/12/12
f 15/15/15 17/17/17 16/16/16

usemtl sn17_51_s17gsc16.JPG
usemap sn17_51_s17gsc16.JPG
f 20/20/20 18/18/18 19/19/19
f 18/18/18 20/20/20 21/21/21
f 22/22/22 21/21/21 20/20/20
f 21/21/21 22/22/22 23/23/23
f 24/24/24 23/23/23 22/22/22
f 23/23/23 24/24/24 25/25/25
f 27/27/27 19/19/19 26/26/26
f 19/19/19 27/27/27 20/20/20
f 28/28/28 20/20/20 27/27/27
f 20/20/20 28/28/28 22/22/22
f 29/29/29 22/22/22 28/28/28
f 22/22/22 29/29/29 24/24/24
f 32/32/32 30/30/30 31/31/31
f 30/30/30 32/32/32 33/33/33
f 36/36/36 34/34/34 35/35/35
f 34/34/34 36/36/36 37/37/37
f 39/39/39 31/31/31 38/38/38
f 31/31/31 39/39/39 32/32/32
f 40/40/40 32/32/32 39/39/39
f 32/32/32 40/40/40 35/35/35
f 41/41/41 35/35/35 40/40/40
f 35/35/35 41/41/41 36/36/36
f 44/44/44 42/42/42 43/43/43
f 42/42/42 44/44/44 45/45/45
f 47/47/47 45/45/45 46/46/46
f 45/45/45 47/47/47 48/48/48
f 49/49/49 48/48/48 47/47/47
f 48/48/48 49/49/49 50/50/50
f 52/52/52 43/43/43 51/51/51
f 43/43/43 52/52/52 44/44/44
f 53/53/53 46/46/46 52/52/52
f 46/46/46 53/53/53 47/47/47
f 55/55/55 47/47/47 54/54/54
f 47/47/47 55/55/55 49/49/49
f 58/58/58 56/56/56 57/57/57
f 56/56/56 58/58/58 59/59/59
f 60/60/60 59/59/59 58/58/58
f 59/59/59 60/60/60 61/61/61
f 62/62/62 61/61/61 60/60/60
f 61/61/61 62/62/62 63/63/63
f 65/65/65 57/57/57 64/64/64
f 57/57/57 65/65/65 58/58/58
f 66/66/66 58/58/58 65/65/65
f 58/58/58 66/66/66 60/60/60
f 67/67/67 60/60/60 66/66/66
f 60/60/60 67/67/67 62/62/62
f 27/27/27 68/68/68 69/69/69
f 68/68/68 27/27/27 26/26/26
f 28/28/28 69/69/69 70/70/70
f 69/69/69 28/28/28 27/27/27
f 29/29/29 70/70/70 71/71/71
f 70/70/70 29/29/29 28/28/28
f 39/39/39 72/72/72 73/73/73
f 72/72/72 39/39/39 38/38/38
f 40/40/40 73/73/73 74/74/74
f 73/73/73 40/40/40 39/39/39
f 41/41/41 74/74/74 75/75/75
f 74/74/74 41/41/41 40/40/40
f 52/52/52 76/76/76 77/77/77
f 76/76/76 52/52/52 51/51/51
f 53/53/53 77/77/77 78/78/78
f 77/77/77 53/53/53 52/52/52
f 80/80/80 78/78/78 79/79/79
f 78/78/78 80/80/80 53/53/53
f 65/65/65 81/81/81 82/82/82
f 81/81/81 65/65/65 64/64/64
f 66/66/66 82/82/82 83/83/83
f 82/82/82 66/66/66 65/65/65
f 67/67/67 83/83/83 84/84/84
f 83/83/83 67/67/67 66/66/66
