mtllib ./huo07.mtl
g huo07
v 0.003429834 -11.07393 10.14319
v -0.002697901 -11.07393 -10.14408
v -0.002697901 11.07404 -10.14408
v 0.003429834 11.07404 10.14319
v 10.14403 -11.07393 -0.003506359
v -10.1433 -11.07393 0.002621395
v -10.1433 11.07404 0.002621395
v 10.14403 11.07404 -0.003506359

vn -0.0003019887 0 -0.9999999
vn -0.0003019887 0 -0.9999999
vn -0.0003019887 0 -0.9999999
vn -0.0003019887 0 -0.9999999
vn -0.9999999 0 0.0003020167
vn -0.9999999 0 0.0003020167
vn -0.9999999 0 0.0003020167
vn -0.9999999 0 0.0003020167

vt 0.0004994869 0.0004994869
vt 0.9995005 0.0004994869
vt 0.9995005 0.9995005
vt 0.0004994869 0.9995005
vt 0.0004994869 0.0004994869
vt 0.9995005 0.0004994869
vt 0.9995005 0.9995005
vt 0.0004994869 0.9995005

usemtl sn17_52_sngs00.bmp
usemap sn17_52_sngs00.bmp
f 3/3/3 1/1/1 2/2/2
f 1/1/1 3/3/3 4/4/4
f 7/7/7 5/5/5 6/6/6
f 5/5/5 7/7/7 8/8/8
