mtllib ./huo01.mtl
g huo01
v -0.0002441406 -11.07437 10.14697
v -0.0002441406 -11.07437 -10.14648
v -0.0002441406 11.07361 -10.14648
v -0.0002441406 11.07361 10.14697
v 10.14645 -11.07437 0.0002441406
v -10.14694 -11.07437 0.0002441406
v -10.14694 11.07361 0.0002441406
v 10.14645 11.07361 0.0002441406

vn 0.9999999 0 0
vn 0.9999999 0 0
vn 0.9999999 0 0
vn 0.9999999 0 0
vn 0 0 -1
vn 0 0 -1
vn 0 0 -1
vn 0 0 -1

vt 0.0004994869 0.0004994869
vt 0.9995005 0.0004994869
vt 0.9995005 0.9995005
vt 0.0004994869 0.9995005
vt 0.0004994869 0.0004994869
vt 0.9995005 0.0004994869
vt 0.9995005 0.9995005
vt 0.0004994869 0.9995005

usemtl sn17_52_sngs00.bmp
usemap sn17_52_sngs00.bmp
f 3/3/3 1/1/1 2/2/2
f 1/1/1 3/3/3 4/4/4
f 7/7/7 5/5/5 6/6/6
f 5/5/5 7/7/7 8/8/8
