mtllib ./huo06.mtl
g huo06
v -0.0003967285 -11.07356 10.14661
v -0.0003967285 -11.07356 -10.14685
v -0.0003967285 11.0744 -10.14685
v -0.0003967285 11.0744 10.14661
v 10.1463 -11.07356 -0.0001220703
v -10.14709 -11.07356 -0.0001220703
v -10.14709 11.0744 -0.0001220703
v 10.1463 11.0744 -0.0001220703

vn 1 0 0
vn 1 0 0
vn 1 0 0
vn 1 0 0
vn 0 0 -0.9999999
vn 0 0 -0.9999999
vn 0 0 -0.9999999
vn 0 0 -0.9999999

vt 0.0004994869 0.0004994869
vt 0.9995005 0.0004994869
vt 0.9995005 0.9995005
vt 0.0004994869 0.9995005
vt 0.0004994869 0.0004994869
vt 0.9995005 0.0004994869
vt 0.9995005 0.9995005
vt 0.0004994869 0.9995005

usemtl sn17_52_sngs00.bmp
usemap sn17_52_sngs00.bmp
f 3/3/3 1/1/1 2/2/2
f 1/1/1 3/3/3 4/4/4
f 7/7/7 5/5/5 6/6/6
f 5/5/5 7/7/7 8/8/8
