mtllib ./huo02.mtl
g huo02
v 0 -11.07367 10.14716
v 0 -11.07367 -10.1463
v 0 11.07431 -10.1463
v 0 11.07431 10.14716
v 10.1467 -11.07367 0.0004272461
v -10.1467 -11.07367 0.0004272461
v -10.1467 11.07431 0.0004272461
v 10.1467 11.07431 0.0004272461

vn 0.9999999 0 0
vn 0.9999999 0 0
vn 0.9999999 0 0
vn 0.9999999 0 0
vn 0 0 -1
vn 0 0 -1
vn 0 0 -1
vn 0 0 -1

vt 0.0004994869 0.0004994869
vt 0.9995005 0.0004994869
vt 0.9995005 0.9995005
vt 0.0004994869 0.9995005
vt 0.0004994869 0.0004994869
vt 0.9995005 0.0004994869
vt 0.9995005 0.9995005
vt 0.0004994869 0.9995005

usemtl sn17_52_sngs00.bmp
usemap sn17_52_sngs00.bmp
f 3/3/3 1/1/1 2/2/2
f 1/1/1 3/3/3 4/4/4
f 7/7/7 5/5/5 6/6/6
f 5/5/5 7/7/7 8/8/8
