mtllib ./huo08.mtl
g huo08
v 0.002697786 -11.07375 10.14369
v -0.00342995 -11.07375 -10.14357
v -0.00342995 11.07422 -10.14357
v 0.002697786 11.07422 10.14369
v 10.1433 -11.07375 -0.00300275
v -10.14403 -11.07375 0.003125004
v -10.14403 11.07422 0.003125004
v 10.1433 11.07422 -0.00300275

vn -0.0003019887 0 -0.9999999
vn -0.0003019887 0 -0.9999999
vn -0.0003019887 0 -0.9999999
vn -0.0003019887 0 -0.9999999
vn -0.9999999 0 0.0003020167
vn -0.9999999 0 0.0003020167
vn -0.9999999 0 0.0003020167
vn -0.9999999 0 0.0003020167

vt 0.0004994869 0.0004994869
vt 0.9995005 0.0004994869
vt 0.9995005 0.9995005
vt 0.0004994869 0.9995005
vt 0.0004994869 0.0004994869
vt 0.9995005 0.0004994869
vt 0.9995005 0.9995005
vt 0.0004994869 0.9995005

usemtl sn17_52_sngs00.bmp
usemap sn17_52_sngs00.bmp
f 3/3/3 1/1/1 2/2/2
f 1/1/1 3/3/3 4/4/4
f 7/7/7 5/5/5 6/6/6
f 5/5/5 7/7/7 8/8/8
