mtllib ./huo14.mtl
g huo14
v 0.002941899 -11.07416 10.14385
v -0.003185855 -11.07416 -10.14348
v -0.003185855 11.07381 -10.14348
v 0.002941899 11.07381 10.14385
v 10.14354 -11.07416 -0.00288079
v -10.14379 -11.07416 0.003246964
v -10.14379 11.07381 0.003246964
v 10.14354 11.07381 -0.00288079

vn -0.0003019887 0 -0.9999999
vn -0.0003019887 0 -0.9999999
vn -0.0003019887 0 -0.9999999
vn -0.0003019887 0 -0.9999999
vn -0.9999999 0 0.0003020167
vn -0.9999999 0 0.0003020167
vn -0.9999999 0 0.0003020167
vn -0.9999999 0 0.0003020167

vt 0.0004994869 0.0004994869
vt 0.9995005 0.0004994869
vt 0.9995005 0.9995005
vt 0.0004994869 0.9995005
vt 0.0004994869 0.0004994869
vt 0.9995005 0.0004994869
vt 0.9995005 0.9995005
vt 0.0004994869 0.9995005

usemtl sn17_52_sngs00.bmp
usemap sn17_52_sngs00.bmp
f 3/3/3 1/1/1 2/2/2
f 1/1/1 3/3/3 4/4/4
f 7/7/7 5/5/5 6/6/6
f 5/5/5 7/7/7 8/8/8
