mtllib ./huo25.mtl
g huo25
v -0.005722516 -13.4101 19.24871
v 0.005477115 -13.4101 -17.83022
v 0.005477115 17.88092 -17.83022
v -0.005722516 17.88092 19.24871
v 16.0082 -13.4101 0.005247112
v -14.53156 -13.4101 -0.003977371
v -14.53156 17.88092 -0.003977371
v 16.0082 17.88092 0.005247112

vn -0.0003019887 0 0.9999999
vn -0.0003019887 0 0.9999999
vn -0.0003019887 0 0.9999999
vn -0.0003019887 0 0.9999999
vn 0.9999999 0 0.0003020167
vn 0.9999999 0 0.0003020167
vn 0.9999999 0 0.0003020167
vn 0.9999999 0 0.0003020167

vt 0.0004994869 0.0004994869
vt 0.9995005 0.0004994869
vt 0.9995005 0.9995005
vt 0.0004994869 0.9995005
vt 0.0004994869 0.0004994869
vt 0.9995005 0.0004994869
vt 0.9995005 0.9995005
vt 0.0004994869 0.9995005

usemtl sn17_52_sngs00.bmp
usemap sn17_52_sngs00.bmp
f 3/3/3 1/1/1 2/2/2
f 1/1/1 3/3/3 4/4/4
f 7/7/7 5/5/5 6/6/6
f 5/5/5 7/7/7 8/8/8
