mtllib ./huo28.mtl
g huo28
v -0.005508918 -13.40982 19.24858
v 0.00569071 -13.40982 -17.83035
v 0.00569071 17.8812 -17.83035
v -0.005508918 17.8812 19.24858
v 16.00835 -13.40982 0.005125124
v -14.53138 -13.40982 -0.004099349
v -14.53138 17.8812 -0.004099349
v 16.00835 17.8812 0.005125124

vn -0.0003019887 0 0.9999998
vn -0.0003019887 0 0.9999998
vn -0.0003019887 0 0.9999998
vn -0.0003019887 0 0.9999998
vn 0.9999999 0 0.0003020167
vn 0.9999999 0 0.0003020167
vn 0.9999999 0 0.0003020167
vn 0.9999999 0 0.0003020167

vt 0.0004994869 0.0004994869
vt 0.9995005 0.0004994869
vt 0.9995005 0.9995005
vt 0.0004994869 0.9995005
vt 0.0004994869 0.0004994869
vt 0.9995005 0.0004994869
vt 0.9995005 0.9995005
vt 0.0004994869 0.9995005

usemtl sn17_52_sngs00.bmp
usemap sn17_52_sngs00.bmp
f 3/3/3 1/1/1 2/2/2
f 1/1/1 3/3/3 4/4/4
f 7/7/7 5/5/5 6/6/6
f 5/5/5 7/7/7 8/8/8
