mtllib ./huo21.mtl
g huo21
v -0.005814015 -13.40955 19.24863
v 0.005385615 -13.40955 -17.83031
v 0.005385615 17.88147 -17.83031
v -0.005814015 17.88147 19.24863
v 16.0081 -13.40955 0.005163186
v -14.53162 -13.40955 -0.004061287
v -14.53162 17.88147 -0.004061287
v 16.0081 17.88147 0.005163186

vn -0.0003019887 0 0.9999999
vn -0.0003019887 0 0.9999999
vn -0.0003019887 0 0.9999999
vn -0.0003019887 0 0.9999999
vn 0.9999999 0 0.0003020167
vn 0.9999999 0 0.0003020167
vn 0.9999999 0 0.0003020167
vn 0.9999999 0 0.0003020167

vt 0.0004994869 0.0004994869
vt 0.9995005 0.0004994869
vt 0.9995005 0.9995005
vt 0.0004994869 0.9995005
vt 0.0004994869 0.0004994869
vt 0.9995005 0.0004994869
vt 0.9995005 0.9995005
vt 0.0004994869 0.9995005

usemtl sn17_52_sngs00.bmp
usemap sn17_52_sngs00.bmp
f 3/3/3 1/1/1 2/2/2
f 1/1/1 3/3/3 4/4/4
f 7/7/7 5/5/5 6/6/6
f 5/5/5 7/7/7 8/8/8
