mtllib ./huo39.mtl
g huo39
v 0.0002441406 -11.07387 10.14627
v 0.0003662109 -11.07387 -10.14713
v 0.0003662109 11.07408 -10.14713
v 0.0002441406 11.07408 10.14627
v 10.14697 -11.07387 -0.0004272461
v -10.14636 -11.07387 -0.0004272461
v -10.14636 11.07408 -0.0004272461
v 10.14697 11.07408 -0.0004272461

vn 1 0 6.015273E-06
vn 1 0 6.015273E-06
vn 1 0 6.015273E-06
vn 1 0 6.015273E-06
vn 0 0 -1
vn 0 0 -1
vn 0 0 -1
vn 0 0 -1

vt 0.0004994869 0.0004994869
vt 0.9995005 0.0004994869
vt 0.9995005 0.9995005
vt 0.0004994869 0.9995005
vt 0.0004994869 0.0004994869
vt 0.9995005 0.0004994869
vt 0.9995005 0.9995005
vt 0.0004994869 0.9995005

usemtl sn17_52_sngs00.bmp
usemap sn17_52_sngs00.bmp
f 3/3/3 1/1/1 2/2/2
f 1/1/1 3/3/3 4/4/4
f 7/7/7 5/5/5 6/6/6
f 5/5/5 7/7/7 8/8/8
