mtllib ./huo51.mtl
g huo51
v 0 -13.40942 -19.25443
v 0 -13.40942 17.83572
v 0 17.88159 17.83572
v 0 17.88159 -19.25443
v 16.01282 -13.40942 -0.0003051758
v -14.53613 -13.40942 -0.0003051758
v -14.53613 17.88159 -0.0003051758
v 16.01282 17.88159 -0.0003051758

vn -1 0 0
vn -1 0 0
vn -1 0 0
vn -1 0 0
vn 0 0 -1
vn 0 0 -1
vn 0 0 -1
vn 0 0 -1

vt 0.0004994869 0.0004994869
vt 0.9995005 0.0004994869
vt 0.9995005 0.9995005
vt 0.0004994869 0.9995005
vt 0.0004994869 0.0004994869
vt 0.9995005 0.0004994869
vt 0.9995005 0.9995005
vt 0.0004994869 0.9995005

usemtl sn17_52_sngs00.bmp
usemap sn17_52_sngs00.bmp
f 3/3/3 1/1/1 2/2/2
f 1/1/1 3/3/3 4/4/4
f 7/7/7 5/5/5 6/6/6
f 5/5/5 7/7/7 8/8/8
