mtllib ./huo57.mtl
g huo57
v -0.005508821 -13.40982 19.24826
v 0.005690804 -13.40982 -17.83066
v 0.005690804 17.8812 -17.83066
v -0.005508821 17.8812 19.24826
v 16.00835 -13.40982 0.004804787
v -14.53138 -13.40982 -0.004419687
v -14.53138 17.8812 -0.004419687
v 16.00835 17.8812 0.004804787

vn -0.0003019887 0 0.9999999
vn -0.0003019887 0 0.9999999
vn -0.0003019887 0 0.9999999
vn -0.0003019887 0 0.9999999
vn 0.9999999 0 0.0003020167
vn 0.9999999 0 0.0003020167
vn 0.9999999 0 0.0003020167
vn 0.9999999 0 0.0003020167

vt 0.0004994869 0.0004994869
vt 0.9995005 0.0004994869
vt 0.9995005 0.9995005
vt 0.0004994869 0.9995005
vt 0.0004994869 0.0004994869
vt 0.9995005 0.0004994869
vt 0.9995005 0.9995005
vt 0.0004994869 0.9995005

usemtl sn17_52_sngs00.bmp
usemap sn17_52_sngs00.bmp
f 3/3/3 1/1/1 2/2/2
f 1/1/1 3/3/3 4/4/4
f 7/7/7 5/5/5 6/6/6
f 5/5/5 7/7/7 8/8/8
