mtllib ./Object72.mtl
g Object72
v 1.720062 -42.47302 -53.73752
v -1.025787 50.57993 -55.05521
v 1.708038 -31.20612 -0.9378357
v -1.025787 50.57993 53.84259
v 1.026794 -41.36261 53.84259

vn 0.9995492 0.02940952 -0.006048063
vn 0.9995636 0.02940506 0.002842488
vn 0.9992818 0.03740808 0.006053456
vn 0.9997509 0.02231905 0
vn 0.9995497 0.02940293 0.005984716

vt 0.0004994571 0.0004998446
vt 0.0004994571 0.9995008
vt 0.490768 0.1012676
vt 0.9995004 0.9995008
vt 0.9995004 0.0084714

usemtl sn17_01_s17gsc06.JPG
usemap sn17_01_s17gsc06.JPG
f 3/3/3 1/1/1 2/2/2
f 2/2/2 4/4/4 5/5/5
f 5/5/5 3/3/3 2/2/2
