mtllib ./Object07.mtl
g Object07
v -202.6965 -51.75143 -28.44104
v -202.6918 143.4434 226.5428
v -202.6965 -1.832764 -28.44104
v -202.6965 143.4434 -28.44116
v -202.6965 41.64896 -28.44116
v -202.6965 12.84207 -28.44104
v -202.6965 41.64896 -28.44116
v -202.6965 143.4434 -28.44116
v -30.12012 143.4434 -28.44257
v -30.12012 41.64896 -28.44257
v -30.06696 12.84207 -28.44244
v 30.00659 41.64902 -28.44342
v 30.00366 12.84207 -28.44342
v -202.6956 -78.70004 226.6187
v -202.6965 -55.08746 -28.44104
v -202.7194 -78.90054 -27.98621
v -30.12012 -55.08743 -28.44244
v 30.00659 -55.08743 -28.4433
v 30.00653 -78.90054 -27.98859
v -30.12012 -78.90054 -27.98761
v -202.6965 -55.08746 -28.44104
v -202.6965 -51.75143 -28.44104
v -30.12012 -51.75143 -28.44244
v -202.6956 -78.70004 226.6187
v -30.0401 -1.741211 -28.44244
v -30.00006 -51.65225 -28.44244
v 30.00323 -51.70184 -28.44342
v 150.9496 143.4435 -28.44513
v 210.9362 143.4435 -28.44604
v 210.9362 41.64902 -28.44604
v 150.9496 41.64902 -28.44513
v -202.6965 12.84207 -28.44104
v -202.7194 -78.90054 -27.98621
v 150.9935 -51.70184 -28.44513
v 210.97 -51.6853 -28.44592
v 210.9362 -55.08743 -28.44604
v 150.9496 -55.08743 -28.44513
v -202.6965 -1.832764 -28.44104
v 211.0037 -1.649689 -28.44592
v 151.0082 -1.741211 -28.44519
v 150.9885 12.84207 -28.44513
v 210.9811 12.84207 -28.44604
v 312.9472 -78.90051 -27.99268
v 283.7942 -78.90051 -27.99225
v 283.7942 -55.08743 -28.44708
v 312.9701 -55.08743 -28.44751
v 30.00659 143.4434 -28.44342
v 150.9885 12.84207 -28.44513
v 150.9496 -78.90054 -27.9903
v 151.0082 -1.741211 -28.44519
v 30.00214 -1.741211 -28.44342
v 283.7942 143.4435 -28.44708
v 283.7942 41.64902 -28.44708
v 283.7942 -51.73254 -28.44702
v 312.9701 12.84207 -28.44751
v 283.7942 12.84207 -28.44708
v 312.9701 41.64902 -28.44751
v 210.9362 -78.90051 -27.99121
v 312.9701 -51.75143 -28.44751
v 283.7942 -1.780365 -28.44702
v 312.9701 -1.832733 -28.44751
v -30.06696 12.84207 -28.44244
v 30.00366 12.84207 -28.44342
v 30.00214 -1.741211 -28.44342
v -30.0401 -1.741211 -28.44244
v 210.9811 12.84207 -28.44604
v 312.9701 143.4435 -28.44751
v 283.7942 143.4435 -28.44708
v 211.0037 -1.649689 -28.44592

vn -1 1.352131E-05 7.900775E-06
vn -1 8.923277E-06 1.168377E-05
vn -1 -9.449117E-07 1.920912E-05
vn -1 0 1.867075E-05
vn -1 1.745115E-11 1.867074E-05
vn -1 5.24161E-11 1.867073E-05
vn -8.134141E-06 -9.364464E-07 -1
vn -8.134417E-06 0 -1
vn -9.036008E-06 0 -1
vn -1.046014E-05 -7.812849E-07 -1
vn -9.676884E-06 -3.116864E-06 -1
vn -1.42349E-05 -1.807821E-07 -1
vn -1.464865E-05 8.417944E-07 -1
vn -0.9999996 0.0008444242 8.176345E-05
vn -0.9999996 0.0008444242 8.176345E-05
vn -0.9999995 0.000962931 9.273442E-05
vn -9.965003E-06 -0.01674699 -0.9998598
vn -1.477552E-05 -0.01543669 -0.9998809
vn -1.482883E-05 -0.01909411 -0.9998177
vn -1.022637E-05 -0.01909667 -0.9998177
vn -8.130255E-06 -0.01675082 -0.9998597
vn -8.132653E-06 6.099899E-09 -1
vn -8.307043E-06 2.437365E-08 -1
vn -1 1.703669E-05 5.389492E-06
vn -8.130064E-06 3.341754E-09 -1
vn -8.102992E-06 9.80836E-06 -1
vn -1.439556E-05 -2.274352E-06 -1
vn -1.45057E-05 0 -1
vn -1.453906E-05 0 -1
vn -1.484808E-05 -3.738076E-09 -1
vn -1.455716E-05 -5.644966E-09 -1
vn -8.131593E-06 -2.105982E-06 -1
vn -8.130686E-06 -0.01909668 -0.9998177
vn -1.418904E-05 -2.017045E-06 -0.9999999
vn -1.501541E-05 2.602638E-06 -0.9999999
vn -1.4793E-05 -0.01671031 -0.9998603
vn -1.479051E-05 -0.01759574 -0.9998451
vn -8.130648E-06 -7.682743E-12 -1
vn -1.373265E-05 -2.11922E-06 -1
vn -1.22143E-05 4.16877E-06 -1
vn -1.373265E-05 -2.11922E-06 -1
vn -1.526066E-05 -8.44724E-06 -1
vn -1.464688E-05 -0.01909669 -0.9998177
vn -1.43568E-05 -0.01909669 -0.9998176
vn -1.442892E-05 -0.01672786 -0.9998602
vn -1.464175E-05 -0.01675084 -0.9998598
vn -1.417089E-05 0 -1
vn -1.431474E-05 6.933442E-07 -1
vn -1.468902E-05 -0.01909667 -0.9998177
vn -1.437634E-05 -5.229232E-10 -1
vn -1.462753E-05 9.825735E-11 -1
vn -1.424137E-05 0 -1
vn -1.435715E-05 -1.748286E-09 -1
vn -1.555721E-05 1.144974E-06 -1
vn -1.499705E-05 -7.022763E-07 -1
vn -1.450615E-05 -2.759815E-06 -1
vn -1.464383E-05 -3.421819E-12 -1
vn -1.453333E-05 -0.01909669 -0.9998176
vn -1.666992E-05 5.727633E-07 -1
vn -1.552904E-05 -5.107372E-07 -1
vn -1.673579E-05 -7.906921E-12 -1
vn -1.626075E-05 -1.412158E-08 -1
vn -1.625691E-05 1.700994E-09 -0.9999999
vn -1.626075E-05 -1.412158E-08 -1
vn -1.626459E-05 -2.995164E-08 -0.9999999
vn -1.464942E-05 -1.037587E-06 -1
vn -1.464383E-05 0 -1
vn -1.464383E-05 0 -1
vn -1.494008E-05 -2.311386E-06 -1

vt 0.000499934 0.08470643
vt 0.9992036 0.9617254
vt 0.000499934 0.3089933
vt 0.0004994869 0.9617254
vt 0.0004994869 0.5043585
vt 0.000499934 0.3749279
vt 1.621215 0.4658118
vt 1.621215 0.9599596
vt 1.094121 0.9599596
vt 1.094121 0.4658118
vt 1.093856 0.3259725
vt 0.7934881 0.4658119
vt 0.7935029 0.3259725
vt 0.9995005 -0.03637481
vt 0.000499934 0.06971762
vt 0.002281368 -0.03727567
vt 1.094121 -0.003782451
vt 0.7934881 -0.003782451
vt 0.7934881 -0.11938
vt 1.094121 -0.11938
vt 1.621215 -0.003782511
vt 1.621215 0.01241168
vt 1.094122 0.0124117
vt 0.9995005 -0.03637481
vt 1.093721 0.2551798
vt 1.093521 0.01289329
vt 0.7935213 0.01264782
vt 0.188773 0.9599596
vt -0.11116 0.9599599
vt -0.11116 0.465812
vt 0.1887731 0.4658118
vt 1.621215 0.3259725
vt 1.62133 -0.1193801
vt 0.1885535 0.01265249
vt -0.1113288 0.01273277
vt -0.11116 -0.003782362
vt 0.188773 -0.003782399
vt 1.621215 0.2547355
vt 0.2816513 0.4551623
vt 0.6843228 0.4551614
vt 0.6843882 0.5134135
vt 0.281651 0.5131422
vt -0.6212151 -0.1193799
vt -0.4754501 -0.1193799
vt -0.4754501 -0.003782339
vt -0.6213297 -0.003782332
vt 0.7934881 0.9599596
vt 0.1885786 0.3259725
vt 0.188773 -0.11938
vt 0.1884801 0.2551798
vt 0.7935102 0.2551798
vt -0.4754501 0.9599599
vt -0.4754501 0.465812
vt -0.4754501 0.01250353
vt -0.6213295 0.3259726
vt -0.4754501 0.3259726
vt -0.6213293 0.4658121
vt -0.11116 -0.1193799
vt -0.6213296 0.01241174
vt -0.4754501 0.2549898
vt -0.6213294 0.2547355
vt 0.6924564 0.5072602
vt 0.2812859 0.5072619
vt 0.2812913 0.4529788
vt 0.6923985 0.4529771
vt -0.1113846 0.3259725
vt -0.6213293 0.9599599
vt -0.4754501 0.9599599
vt -0.1114976 0.2556241

usemtl sn17_23_s17gsc64.JPG
usemap sn17_23_s17gsc64.JPG
f 3/3/3 1/1/1 2/2/2
f 5/5/5 2/2/2 4/4/4
f 2/2/2 5/5/5 6/6/6
f 9/9/9 7/7/7 8/8/8
f 7/7/7 9/9/9 10/10/10
f 12/12/12 11/11/11 10/10/10
f 11/11/11 12/12/12 13/13/13
f 16/16/16 14/14/14 15/15/15
f 19/19/19 17/17/17 18/18/18
f 17/17/17 19/19/19 20/20/20
f 14/14/14 1/1/1 15/15/15
f 22/22/22 17/17/17 21/21/21
f 17/17/17 22/22/22 23/23/23
f 1/1/1 24/24/24 2/2/2
f 26/26/26 23/23/23 25/25/25
f 23/23/23 26/26/26 27/27/27
f 30/30/30 28/28/28 29/29/29
f 28/28/28 30/30/30 31/31/31
f 11/11/11 7/7/7 10/10/10
f 7/7/7 11/11/11 32/32/32
f 33/33/33 17/17/17 20/20/20
f 17/17/17 33/33/33 21/21/21
f 36/36/36 34/34/34 35/35/35
f 34/34/34 36/36/36 37/37/37
f 22/22/22 25/25/25 23/23/23
f 25/25/25 22/22/22 38/38/38
f 45/45/45 43/43/43 44/44/44
f 43/43/43 45/45/45 46/46/46
f 47/47/47 10/10/10 9/9/9
f 10/10/10 47/47/47 12/12/12
f 27/27/27 17/17/17 23/23/23
f 17/17/17 27/27/27 18/18/18
f 12/12/12 28/28/28 31/31/31
f 28/28/28 12/12/12 47/47/47
f 18/18/18 34/34/34 37/37/37
f 34/34/34 18/18/18 27/27/27
f 48/48/48 12/12/12 31/31/31
f 12/12/12 48/48/48 13/13/13
f 19/19/19 37/37/37 49/49/49
f 37/37/37 19/19/19 18/18/18
f 27/27/27 50/50/50 34/34/34
f 50/50/50 27/27/27 51/51/51
f 53/53/53 29/29/29 52/52/52
f 29/29/29 53/53/53 30/30/30
f 45/45/45 35/35/35 54/54/54
f 35/35/35 45/45/45 36/36/36
f 53/53/53 55/55/55 56/56/56
f 55/55/55 53/53/53 57/57/57
f 36/36/36 49/49/49 37/37/37
f 49/49/49 36/36/36 58/58/58
f 60/60/60 59/59/59 54/54/54
f 59/59/59 60/60/60 61/61/61
f 6/6/6 3/3/3 2/2/2
f 25/25/25 32/32/32 11/11/11
f 32/32/32 25/25/25 38/38/38
f 31/31/31 66/66/66 48/48/48
f 66/66/66 31/31/31 30/30/30
f 50/50/50 13/13/13 48/48/48
f 13/13/13 50/50/50 51/51/51
f 55/55/55 60/60/60 56/56/56
f 60/60/60 55/55/55 61/61/61
f 45/45/45 58/58/58 36/36/36
f 58/58/58 45/45/45 44/44/44
f 53/53/53 67/67/67 57/57/57
f 67/67/67 53/53/53 68/68/68
f 45/45/45 59/59/59 46/46/46
f 59/59/59 45/45/45 54/54/54
f 53/53/53 66/66/66 30/30/30
f 66/66/66 53/53/53 56/56/56
f 60/60/60 35/35/35 69/69/69
f 35/35/35 60/60/60 54/54/54
f 56/56/56 69/69/69 66/66/66
f 69/69/69 56/56/56 60/60/60

usemtl sn17_18_s17gsc71.JPG
usemap sn17_18_s17gsc71.JPG
f 41/41/41 39/39/39 40/40/40
f 39/39/39 41/41/41 42/42/42
f 64/64/64 62/62/62 63/63/63
f 62/62/62 64/64/64 65/65/65
