mtllib ./Object03.mtl
g Object03
v 262.0299 149.5712 -0.5852661
v 262.0299 48.48749 -0.1694336
v 114.8935 48.48749 -0.1664429
v 114.8935 149.5712 -0.5822754
v 114.8935 -149.4311 0.5774536
v 34.073 -149.3521 0.5783691
v 34.07297 -50.25851 -0.3067627
v 114.8935 -50.58606 -0.30896
v -216.3098 -50.96915 -0.3023682
v -216.3098 -149.5235 0.5854492
v -257.7413 -149.5707 0.586792
v -257.7426 -51.16495 -0.3017578
v -257.7431 48.48749 -0.1585693
v -216.3098 48.48749 -0.1594238
v -216.3098 -50.96915 -0.3023682
v -257.7431 48.48749 -0.1585693
v 34.07297 -50.25851 -0.3067627
v 34.07297 -50.25906 -29.85443
v 34.07297 -79.1709 -29.59619
v 34.073 -149.3527 -28.9693
v 34.073 -149.3521 0.5783691
v 34.07297 -50.25851 -0.3067627
v 34.073 -149.3527 -28.9693
v -65.92688 -149.3521 0.5805664
v -65.92688 -149.3527 -28.96716
v -65.92694 -79.1709 -29.59406
v -65.92697 -50.25906 -29.85229
v -65.92697 -50.25851 -0.3046265
v -65.92688 -149.3521 0.5805664
v -65.92697 -50.25906 -29.85229
v -65.92697 -50.25906 -29.85229
v -17.38864 -37.79514 -29.85333
v -65.92697 -50.25851 -0.3046265
v 34.07297 -50.25851 -0.3067627
v -20.5433 -37.79459 -0.305603
v 34.07297 -50.25906 -29.85443
v -65.92697 -50.25906 -29.85229
v -87.52444 -29.40643 -29.85229
v -19.92484 -17.1723 -29.85321
v -17.38864 -37.79514 -29.85333
v 59.35849 -29.40643 -29.85443
v 34.07297 -50.25906 -29.85443
v 59.35849 -29.40643 -29.85443
v 59.358 -29.40594 2.262146
v 59.35806 -150.0348 3.147278
v 59.35855 -150.0353 -28.9693
v 59.35849 -79.1709 -29.48932
v -87.52438 -150.0353 -28.96716
v -87.52484 -150.0348 3.149475
v -87.52493 -29.40588 2.264282
v -87.52444 -29.40643 -29.85229
v -87.52441 -79.1709 -29.48712
v 59.358 -29.40594 2.262146
v 59.35849 -29.40643 -29.85443
v -19.92484 -17.1723 -29.85321
v -18.72058 -16.94202 2.263367
v 34.07297 -79.1709 -29.59619
v 34.07297 -50.25906 -29.85443
v 59.35849 -79.1709 -29.48932
v 59.35855 -150.0353 -28.9693
v 34.073 -149.3527 -28.9693
v 59.35849 -79.1709 -29.48932
v -65.92694 -79.1709 -29.59406
v -65.92688 -149.3527 -28.96716
v -87.52438 -150.0353 -28.96716
v -87.52441 -79.1709 -29.48712
v 34.07297 -50.25906 -29.85443
v -17.38864 -37.79514 -29.85333
v -87.52493 -29.40588 2.264282
v -87.52444 -29.40643 -29.85229
v -257.7431 149.5712 -0.5743408
v -216.3098 149.5712 -0.5751953
v -216.3098 48.48749 -0.1594238
v 262.0303 -51.16495 -0.3127441
v 262.0317 -149.5707 0.5758057
v -65.92697 -50.25851 -0.3046265
v -65.92688 -149.3521 0.5805664
v -216.3098 -149.5235 0.5854492
v -20.5433 -37.79459 -0.305603

vn -2.032611E-05 -0.004113708 -0.9999915
vn -2.0238E-05 -0.0004336231 -0.9999999
vn -2.08454E-05 -0.00173502 -0.9999985
vn -2.11103E-05 -0.004113462 -0.9999916
vn -4.090396E-05 -0.008980901 -0.9999596
vn -2.005593E-05 -0.008931925 -0.9999601
vn -4.09221E-05 -0.008429904 -0.9999645
vn -1.189732E-05 -0.000988762 -0.9999995
vn -5.316554E-06 -0.00550598 -0.9999848
vn -2.213662E-05 -0.009008038 -0.9999594
vn 2.882241E-06 -0.009018551 -0.9999594
vn 3.0532E-06 -0.003763318 -0.999993
vn -2.062331E-05 0.001437251 -0.9999989
vn -2.124593E-05 -0.00138879 -0.9999991
vn -8.319365E-08 -0.003129745 -0.9999952
vn -2.106917E-05 -0.001357932 -0.9999991
vn -1 -3.052755E-07 3.013457E-07
vn -1 0 0
vn -1 -3.052755E-07 3.013457E-07
vn -1 -4.310357E-07 4.254869E-07
vn -1 -3.079671E-07 5.725372E-12
vn -1 -3.079671E-07 5.725372E-12
vn -1 -3.079671E-07 5.725372E-12
vn 1 9.25052E-07 1.287875E-07
vn 1 8.696724E-07 -1.616792E-11
vn 1 9.25052E-07 1.287875E-07
vn 1 1.059482E-06 4.414505E-07
vn 1 9.239014E-07 -1.717612E-11
vn 1 9.239014E-07 -1.717612E-11
vn 1 9.239014E-07 -1.717612E-11
vn 0.2487162 -0.9685764 1.800666E-05
vn -2.478563E-07 -0.9999117 -0.01328738
vn 0.2565048 -0.9664457 0.01371085
vn -0.222489 -0.9749352 1.812488E-05
vn -0.08201382 -0.9966312 1.852868E-05
vn -0.222489 -0.9749352 1.812488E-05
vn -0.001629288 -0.00167937 -0.9999973
vn -0.003179726 -0.003997477 -0.9999869
vn -1.524E-05 -2.296108E-06 -1
vn -1.727002E-05 9.355586E-06 -1
vn 0.002139201 -0.003157043 -0.9999927
vn -1.650215E-05 2.00102E-05 -1
vn 0.9999999 4.656824E-07 1.464835E-05
vn 1 6.175319E-07 1.520339E-05
vn 0.9999999 6.146553E-07 1.481138E-05
vn 1 9.728604E-07 1.520339E-05
vn 1 6.117787E-07 1.441937E-05
vn -1 -7.454013E-07 -1.47095E-05
vn -0.9999999 -8.635535E-07 -1.425315E-05
vn -1 -7.411526E-07 -1.481138E-05
vn -0.9999999 -7.248033E-07 -1.520339E-05
vn -1 -6.187512E-07 -1.536961E-05
vn 0.1550492 0.9878856 -0.00645494
vn 0.152504 0.9883028 -1.270698E-05
vn 1.584939E-07 0.9999934 -0.003593176
vn 3.105127E-07 0.9999744 -0.007170139
vn 0.003212546 -0.008056512 -0.9999624
vn 0.007365585 -0.008931376 -0.9999331
vn 0.004226479 -0.007336545 -0.9999642
vn 0.002003474 -0.008131174 -0.999965
vn -0.0002411542 -0.00893205 -0.99996
vn 0.004226479 -0.007337963 -0.9999642
vn -0.003762674 -0.0080565 -0.9999605
vn 0.0002823353 -0.00893205 -0.9999601
vn -0.00234701 -0.008130738 -0.9999641
vn -0.004951014 -0.007337357 -0.9999608
vn -0.2353192 -0.9715939 -0.02510579
vn 0.2647236 -0.9639094 0.02828113
vn -0.1781681 0.984 -0.0001972373
vn -0.1780863 0.9840149 -1.953049E-05
vn -2.062315E-05 -0.004113105 -0.9999916
vn -2.129283E-05 -0.004113104 -0.9999915
vn -2.062316E-05 -0.004113104 -0.9999916
vn -3.359352E-05 -0.005495499 -0.9999849
vn -1.97692E-05 -0.009029079 -0.9999592
vn -4.224877E-05 -0.004676932 -0.9999891
vn -2.228729E-05 -0.00893254 -0.9999601
vn 2.563917E-06 -0.008970186 -0.9999598
vn -2.136091E-05 0.00154642 -0.9999988

vt -0.6352204 0.9659983
vt -0.6352208 0.5011728
vt -0.006051838 0.5011728
vt -0.006052017 0.9659983
vt -0.006051838 -0.4089392
vt 0.3499225 -0.408576
vt 0.3499227 0.04709768
vt -0.006051898 0.04559153
vt 1.452735 0.04382983
vt 1.452735 -0.4093642
vt 1.63522 -0.4095814
vt 1.635226 0.0429295
vt 1.635228 0.5011728
vt 1.452735 0.5011729
vt 1.452735 0.04382983
vt 1.635228 0.5011728
vt 0.0273836 0.9143936
vt 0.2282839 0.9143887
vt 0.2257102 0.6520519
vt 0.219463 -0.01262565
vt 0.0185627 -0.01262066
vt 0.0273836 0.9143936
vt 0.219463 -0.01262565
vt 0.949325 -0.01262066
vt 0.7194393 -0.01262565
vt 0.7131918 0.6520519
vt 0.7106181 0.9143887
vt 0.9405039 0.9143936
vt 0.949325 -0.01262066
vt 0.7106181 0.9143887
vt 0.01261052 0.8376637
vt 0.4857542 0.8376535
vt 0.0126105 0.9781775
vt 0.9873937 0.9781564
vt 0.4550032 0.978168
vt 0.9873937 0.8376426
vt 0.8015261 0.7765027
vt 0.9801768 0.9052976
vt 0.4907386 0.9701999
vt 0.4852948 0.8320582
vt 0.0149926 0.8980513
vt 0.1756899 0.7814386
vt 0.2270727 0.9476638
vt -0.01473546 0.9476677
vt -0.02342075 0.01807043
vt 0.2183882 0.01806685
vt 0.2234899 0.5324093
vt 0.7816334 0.01806652
vt 1.023442 0.01807043
vt 1.014756 0.9476677
vt 0.7729478 0.9476638
vt 0.776531 0.5324092
vt 0.02170437 0.8439327
vt 0.01192288 0.9749534
vt 0.5151254 0.9769645
vt 0.5171471 0.8462076
vt 0.1735069 0.5943234
vt 0.1727036 0.7814386
vt 0.01740793 0.5873708
vt 0.01740776 0.0004994869
vt 0.1509642 0.006153166
vt 0.01791667 0.5873624
vt 0.795225 0.5873775
vt 0.7952244 0.006153166
vt 0.9825917 0.0004994869
vt 0.9801766 0.5873708
vt 0.9873937 0.8376426
vt 0.4857542 0.8376535
vt 0.9730946 0.8479668
vt 0.9633133 0.9789875
vt 1.635228 0.9659983
vt 1.452735 0.9659983
vt 1.452735 0.5011729
vt -0.6352224 0.0429295
vt -0.6352284 -0.4095814
vt 0.790373 0.04709768
vt 0.7903726 -0.408576
vt 1.452735 -0.4093642
vt 0.5904803 0.104412

usemtl sn17_23_s17gsc64.JPG
usemap sn17_23_s17gsc64.JPG
f 3/3/3 1/1/1 2/2/2
f 1/1/1 3/3/3 4/4/4
f 7/7/7 5/5/5 6/6/6
f 5/5/5 7/7/7 8/8/8
f 11/11/11 9/9/9 10/10/10
f 9/9/9 11/11/11 12/12/12
f 15/15/15 13/13/13 14/14/14
f 16/16/16 9/9/9 12/12/12
f 14/14/14 71/71/71 72/72/72
f 71/71/71 73/73/73 16/16/16
f 74/74/74 5/5/5 8/8/8
f 5/5/5 74/74/74 75/75/75
f 2/2/2 8/8/8 3/3/3
f 8/8/8 2/2/2 74/74/74
f 78/78/78 76/76/76 77/77/77
f 76/76/76 78/78/78 15/15/15
f 8/8/8 14/14/14 3/3/3
f 79/79/79 8/8/8 7/7/7
f 79/79/79 14/14/14 8/8/8
f 76/76/76 14/14/14 79/79/79
f 15/15/15 14/14/14 76/76/76
f 14/14/14 4/4/4 3/3/3
f 4/4/4 14/14/14 72/72/72

usemtl sn17_25_s17gsc82.jpg
usemap sn17_25_s17gsc82.jpg
f 19/19/19 17/17/17 18/18/18
f 17/17/17 19/19/19 20/20/20
f 23/23/23 21/21/21 22/22/22
f 26/26/26 24/24/24 25/25/25
f 24/24/24 26/26/26 27/27/27
f 30/30/30 28/28/28 29/29/29
f 33/33/33 31/31/31 32/32/32
f 36/36/36 34/34/34 35/35/35
f 39/39/39 37/37/37 38/38/38
f 37/37/37 39/39/39 40/40/40
f 40/40/40 41/41/41 42/42/42
f 41/41/41 40/40/40 39/39/39
f 45/45/45 43/43/43 44/44/44
f 47/47/47 45/45/45 46/46/46
f 47/47/47 43/43/43 45/45/45
f 50/50/50 48/48/48 49/49/49
f 52/52/52 50/50/50 51/51/51
f 52/52/52 48/48/48 50/50/50
f 55/55/55 53/53/53 54/54/54
f 53/53/53 55/55/55 56/56/56
f 41/41/41 57/57/57 58/58/58
f 57/57/57 41/41/41 59/59/59
f 57/57/57 60/60/60 61/61/61
f 60/60/60 57/57/57 62/62/62
f 65/65/65 63/63/63 64/64/64
f 63/63/63 65/65/65 66/66/66
f 63/63/63 38/38/38 37/37/37
f 38/38/38 63/63/63 66/66/66
f 67/67/67 35/35/35 32/32/32
f 68/68/68 35/35/35 33/33/33
f 55/55/55 69/69/69 56/56/56
f 69/69/69 55/55/55 70/70/70
