mtllib ./Object16.mtl
g Object16
v 226.6344 -64.61435 -203.2768
v -28.44043 -55.08743 -200.184
v -28.44049 -1.860809 -200.1841
v 226.5434 143.4434 -203.8826
v 226.6344 -64.61435 -203.2768
v -28.44055 41.64896 -200.1841
v -28.44055 143.4434 -200.1841
v -28.44623 143.4435 264.8931
v -28.44623 41.64902 264.8931
v -28.44684 41.64902 312.9699
v -28.44684 143.4435 312.9699
v -27.9856 -78.90054 -200.207
v -28.44543 -51.57239 211.1072
v -27.99072 -78.90051 211.1772
v -27.99139 -78.90051 264.8931
v -28.44623 -55.08743 264.8931
v -28.44263 41.64896 -30.28815
v -28.44263 143.4434 -30.28815
v -28.44055 143.4434 -200.1841
v -28.44055 41.64896 -200.1841
v -28.44684 -55.0874 312.97
v -28.44684 -1.860809 312.9699
v -28.44623 -1.860809 264.8931
v -27.992 -78.90051 312.9471
v -28.44464 10.92459 150.946
v -28.44324 10.92459 29.94446
v -28.44281 -1.709473 29.97211
v -28.44281 -1.709473 29.97211
v -28.44458 -1.785126 150.9753
v -27.9856 -78.90054 -200.207
v -27.98773 -78.90054 -30.28815
v -28.4422 -51.49408 -30.14417
v -28.44043 -55.08743 -200.184
v -28.44556 143.4435 211.1772
v -28.44556 41.64902 211.1772
v -28.44049 10.92459 -200.1841
v -28.44684 10.92459 312.9699
v -28.44623 10.92459 264.8931
v -28.4455 10.92459 211.1772
v -28.44482 41.64902 150.8754
v -28.44464 10.92459 150.946
v -28.44531 -1.709686 211.1073
v -28.44336 41.64896 29.94446
v -28.4425 10.92459 -30.28815
v 226.6344 -64.61435 -203.2768
v -28.44464 10.92459 150.946
v -28.44458 -1.785126 150.9753
v -28.44531 -1.709686 211.1073
v -28.44531 -1.709686 211.1073
v -28.4455 10.92459 211.1772
v -28.44482 143.4435 150.8754
v -28.44336 143.4434 29.94446
v -28.44049 10.92459 -200.1841
v -28.44049 -1.860809 -200.1841
v -28.44183 -1.709595 -30.14417
v -27.98846 -78.90051 29.9444
v -27.98999 -78.90051 150.8754
v -28.44464 -51.57239 150.9564
v -28.44305 -51.49408 29.95825
v -28.44049 -1.860809 -200.1841
v -28.44183 -1.709595 -30.14417
v -28.44324 10.92459 29.94446
v -28.4425 10.92459 -30.28815
v -28.44183 -1.709595 -30.14417
v -28.44183 -1.709595 -30.14417
v -28.44281 -1.709473 29.97211
v -28.44458 -1.785126 150.9753
v -28.44281 -1.709473 29.97211
v -28.44305 -51.49408 29.95825
v -28.44531 -1.709686 211.1073

vn -0.01211565 0.0002255355 -0.9999265
vn -0.01211565 0.0002255355 -0.9999265
vn -0.01212406 -9.35141E-07 -0.9999264
vn -0.01372152 -0.001959081 -0.999904
vn -0.01318261 -0.002541986 -0.9999099
vn -0.01357737 -0.001782315 -0.9999063
vn -0.0145035 0 -0.9998949
vn -1 0 -1.259165E-05
vn -1 -1.244536E-12 -1.260188E-05
vn -1 -1.653473E-12 -1.269533E-05
vn -1 0 -1.269533E-05
vn -0.01209671 0.0007326022 -0.9999265
vn -0.9999706 -0.007671236 -0.0001756513
vn -0.9998617 -0.01663591 -1.2614E-05
vn -0.9998348 -0.01816915 -0.0004238982
vn -0.9999712 -0.007583057 -0.0001914394
vn -1 -5.878088E-07 -1.220539E-05
vn -1 0 -1.219185E-05
vn -1 0 -1.221451E-05
vn -1 -1.121673E-06 -1.214689E-05
vn -0.9999939 -0.003491548 -1.269305E-05
vn -1 -5.869094E-12 -1.269533E-05
vn -1 -2.427729E-07 -1.428571E-05
vn -0.9998176 -0.01909667 -1.26903E-05
vn -1 -9.161121E-06 -1.222627E-05
vn -1 -1.040709E-05 -1.174716E-05
vn -1 -3.384239E-05 -1.160157E-05
vn -1 -4.835899E-06 -1.46309E-05
vn -1 -4.835899E-06 -1.46309E-05
vn -0.9998425 -0.01775079 0.0001761368
vn -0.9998626 -0.01658016 -1.246019E-05
vn -0.9999749 -0.00708676 4.502976E-05
vn -0.9999826 -0.005904612 0.0001143695
vn -1 0 -1.231221E-05
vn -0.9999999 -2.453298E-07 -1.238918E-05
vn -0.01212384 -1.700722E-08 -0.9999266
vn -1 -4.45222E-12 -1.269533E-05
vn -1 -5.392917E-07 -1.300328E-05
vn -1 -4.141727E-06 -1.372305E-05
vn -1 -1.430998E-06 -1.227158E-05
vn -1 -5.992214E-06 -1.418688E-05
vn -1 2.44814E-06 -1.701485E-05
vn -1 -1.077163E-06 -1.208903E-05
vn -1 -9.833859E-06 -1.203962E-05
vn -0.01212383 0 -0.9999265
vn -0.9999999 -9.611909E-06 -1.317836E-05
vn -0.9999999 -4.830247E-06 -1.217418E-05
vn -0.9999999 -4.830247E-06 -1.217418E-05
vn -1 -1.441421E-05 -1.418688E-05
vn -1 -1.441421E-05 -1.418688E-05
vn -1 0 -1.2124E-05
vn -1 0 -1.212863E-05
vn -1 -1.307331E-05 -1.095323E-05
vn -1 0 -7.896813E-06
vn -1 -2.646805E-05 -9.863423E-06
vn -0.9998622 -0.0166005 -1.655865E-05
vn -0.9998616 -0.0166344 -1.245905E-05
vn -0.9999466 -0.01033686 -1.515223E-05
vn -0.9999719 -0.00749186 -1.651937E-05
vn -1 2.962547E-06 -9.185747E-06
vn -1 7.355925E-06 -7.903355E-06
vn -1 -4.357524E-05 -1.420021E-05
vn -1 -5.327905E-05 -1.215989E-05
vn -1 -5.327905E-05 -1.215989E-05
vn -0.9999999 -3.385255E-05 -1.624449E-05
vn -0.9999999 -3.385255E-05 -1.624449E-05
vn -1 3.069445E-06 -1.38696E-05
vn -1 4.908009E-06 -1.462481E-05
vn -1 4.908009E-06 -1.462481E-05
vn -0.9999999 -1.439829E-05 -1.706219E-05

vt 0.0004994869 0.06468803
vt 0.9995 0.1074928
vt 0.9995003 0.3466424
vt 0.0008557141 0.9995005
vt 0.0004994869 0.06468803
vt 0.9995005 0.5421336
vt 0.9995005 0.9995005
vt 1.393451 0.9386113
vt 1.393451 0.5421339
vt 1.633835 0.5421339
vt 1.633836 0.9386114
vt 0.9977187 0.0004995167
vt 1.124872 0.1074929
vt 1.124872 0.0004996899
vt 1.393451 0.0004997086
vt 1.393451 0.107493
vt -0.08245498 0.5421337
vt -0.08245486 0.9386113
vt -0.9319348 0.9386113
vt -0.9319348 0.5421336
vt 1.633836 0.107493
vt 1.633836 0.3466424
vt 1.393451 0.3466424
vt 1.633721 0.0004997253
vt 0.8237172 0.4045841
vt 0.2187095 0.4045832
vt 0.2187091 0.348013
vt 0.218986 0.348013
vt 0.8238629 0.347675
vt -0.9320492 0.0004995465
vt -0.08245501 0.0004996058
vt -0.08245513 0.1074929
vt -0.9319346 0.1074928
vt 1.124872 0.9386113
vt 1.124872 0.5421338
vt 0.9995004 0.4040877
vt 1.633836 0.4040877
vt 1.393451 0.4040877
vt 1.124975 0.4044303
vt 0.8233625 0.5421359
vt 0.8239353 0.4048097
vt 1.124872 0.3466425
vt 0.21871 0.5421547
vt -0.08245328 0.4045827
vt 0.0004994869 0.06468803
vt 0.2860619 0.5134126
vt 0.2862988 0.4499338
vt 0.6911326 0.4499339
vt 0.691832 0.4499304
vt 0.6919355 0.5130332
vt 0.8233632 0.9386113
vt 0.2187081 0.9386113
vt -0.9319326 0.4045815
vt -0.9319327 0.3473337
vt -0.08245362 0.3480114
vt 0.2187079 0.0004996267
vt 0.8233631 0.0004996689
vt 0.8233628 0.1074929
vt 0.2187078 0.1074929
vt -0.9319328 0.3466514
vt -0.08245362 0.3466526
vt 0.6915286 0.5131086
vt 0.2855321 0.5131082
vt 0.2855318 0.4498656
vt 0.2869716 0.4498667
vt 0.6915283 0.4498672
vt 0.8233627 0.3466435
vt 0.2189848 0.3466423
vt 0.2189851 0.1229262
vt 1.124872 0.3479988

usemtl sn17_23_s17gsc64.JPG
usemap sn17_23_s17gsc64.JPG
f 3/3/3 1/1/1 2/2/2
f 6/6/6 4/4/4 5/5/5
f 4/4/4 6/6/6 7/7/7
f 10/10/10 8/8/8 9/9/9
f 8/8/8 10/10/10 11/11/11
f 1/1/1 12/12/12 2/2/2
f 15/15/15 13/13/13 14/14/14
f 13/13/13 15/15/15 16/16/16
f 19/19/19 17/17/17 18/18/18
f 17/17/17 19/19/19 20/20/20
f 23/23/23 21/21/21 22/22/22
f 21/21/21 23/23/23 16/16/16
f 16/16/16 24/24/24 21/21/21
f 24/24/24 16/16/16 15/15/15
f 27/27/27 25/25/25 26/26/26
f 29/29/29 25/25/25 28/28/28
f 32/32/32 30/30/30 31/31/31
f 30/30/30 32/32/32 33/33/33
f 35/35/35 8/8/8 34/34/34
f 8/8/8 35/35/35 9/9/9
f 5/5/5 36/36/36 6/6/6
f 9/9/9 37/37/37 10/10/10
f 37/37/37 9/9/9 38/38/38
f 40/40/40 39/39/39 35/35/35
f 39/39/39 40/40/40 41/41/41
f 13/13/13 23/23/23 42/42/42
f 23/23/23 13/13/13 16/16/16
f 44/44/44 43/43/43 17/17/17
f 43/43/43 44/44/44 26/26/26
f 36/36/36 45/45/45 3/3/3
f 23/23/23 37/37/37 38/38/38
f 37/37/37 23/23/23 22/22/22
f 51/51/51 43/43/43 40/40/40
f 43/43/43 51/51/51 52/52/52
f 55/55/55 53/53/53 54/54/54
f 53/53/53 55/55/55 44/44/44
f 58/58/58 56/56/56 57/57/57
f 56/56/56 58/58/58 59/59/59
f 32/32/32 60/60/60 33/33/33
f 60/60/60 32/32/32 61/61/61
f 44/44/44 20/20/20 53/53/53
f 20/20/20 44/44/44 17/17/17
f 69/69/69 67/67/67 68/68/68
f 58/58/58 67/67/67 59/59/59
f 25/25/25 43/43/43 26/26/26
f 43/43/43 25/25/25 40/40/40
f 18/18/18 43/43/43 52/52/52
f 43/43/43 18/18/18 17/17/17
f 32/32/32 56/56/56 59/59/59
f 56/56/56 32/32/32 31/31/31
f 14/14/14 58/58/58 57/57/57
f 58/58/58 14/14/14 13/13/13
f 35/35/35 51/51/51 40/40/40
f 51/51/51 35/35/35 34/34/34
f 35/35/35 38/38/38 9/9/9
f 38/38/38 35/35/35 39/39/39
f 39/39/39 23/23/23 38/38/38
f 23/23/23 39/39/39 70/70/70

usemtl sn17_18_s17gsc71.JPG
usemap sn17_18_s17gsc71.JPG
f 48/48/48 46/46/46 47/47/47
f 50/50/50 46/46/46 49/49/49
f 64/64/64 62/62/62 63/63/63
f 66/66/66 62/62/62 65/65/65
