mtllib ./Shape41.mtl
g Shape41
v -53.96207 200.8908 -184.0327
v -53.96204 200.8908 -257.7416
v -252.6876 200.8908 -184.0325
v -252.6876 200.8908 -257.7416
v -53.96204 200.8908 -257.7416
v -54.00778 -501.7367 -258.7675
v -252.6876 200.8908 -257.7416
v -252.6876 -0.0003388822 -257.7416
v -252.6876 200.8908 194.1931
v -252.6876 -0.0003391057 194.1931
v -252.6876 200.8908 257.742
v -252.6876 -0.0003393292 257.742
v -251.6731 -98.49509 -257.597
v -251.6731 -98.49509 194.3376
v -251.6732 -98.49509 257.8865
v -252.3199 -200.218 -259.0693
v -54.00778 -501.7367 -258.7675
v -252.32 -200.218 192.8654
v -252.32 -200.218 256.4142
v -251.6731 -98.49509 194.3376
v -251.6732 -98.49509 257.8865
v -252.9581 -302.7862 -259.6061
v -54.00778 -501.7367 -258.7675
v -252.9581 -302.7862 192.3283
v -252.9581 -302.7862 255.8771
v -252.5508 -399.9117 -259.3137
v -54.00778 -501.7367 -258.7675
v -252.5507 -399.9117 192.6208
v -252.5506 -399.9117 256.1696
v -254.2104 -500.7957 -259.2769
v -54.00778 -501.7367 -258.7675
v -254.2103 -500.7957 192.6575
v -254.2103 -500.7957 256.2063
v 61.8566 200.8908 -184.0327
v 61.85666 200.8908 -257.7417
v 252.6884 200.8908 -184.0328
v 252.6886 200.8908 -257.7418
v 175.8871 200.8908 -184.0328
v 175.8872 200.8908 -257.7418
v 61.85666 200.8908 -257.7417
v 61.81088 -501.7367 -258.7675
v 252.6886 200.8908 -257.7418
v 252.6427 -501.7367 -258.7676
v 175.8872 200.8908 -257.7418
v 175.8415 -501.7367 -258.7676
v -252.6876 200.8908 257.742
v -252.6876 -0.0003393292 257.742
v -53.96216 200.8908 257.7419
v -53.96213 -0.0003391057 257.7419
v -251.6732 -98.49509 257.8865
v -52.94772 -98.49509 257.8864
v -252.32 -200.218 256.4142
v -53.59454 -200.218 256.4141
v -251.6732 -98.49509 257.8865
v -52.94772 -98.49509 257.8864
v -252.9581 -302.7862 255.8771
v -54.23267 -302.7862 255.877
v -252.5506 -399.9117 256.1696
v -53.82523 -399.9117 256.1695
v -254.2103 -500.7957 256.2063
v -55.48489 -500.7957 256.2062
v 61.85641 200.8908 257.7417
v 61.85648 -0.0003391057 257.7418
v 62.87088 -98.49509 257.8863
v 62.22403 -200.218 256.4139
v 62.87088 -98.49509 257.8863
v 61.58591 -302.7862 255.877
v 61.99332 -399.9117 256.1695
v 60.33362 -500.7957 256.2062
v 175.8871 200.8908 -113.3624
v 252.6884 200.8908 -113.3625
v 175.8869 200.8908 257.7415
v 252.688 200.8908 257.7415
v 175.8869 200.8908 194.1927
v 252.6881 200.8908 194.1927
v -252.6876 200.8908 -113.3557
v -53.96207 200.8908 -113.3622
v -252.6876 200.8908 257.742
v -53.96216 200.8908 257.7419
v -252.6876 200.8908 194.1931
v -53.96213 200.8908 194.193
v -252.6876 200.8908 115.1915
v -252.6876 -0.0003391057 115.1915
v -252.6876 200.8908 -257.7416
v -252.6876 -0.0003388822 -257.7416
v -252.6876 200.8908 -184.0325
v -252.6876 -0.0003391057 -184.0325
v -251.6731 -98.49509 115.336
v -251.6731 -98.49509 -257.597
v -251.6731 -98.49509 -183.888
v -252.32 -200.218 113.8637
v -251.6731 -98.49509 115.336
v -252.3199 -200.218 -259.0693
v -252.3199 -200.218 -185.3602
v -251.6731 -98.49509 -257.597
v -251.6731 -98.49509 -183.888
v -252.9581 -302.7862 113.3267
v -252.9581 -302.7862 -259.6061
v -252.9581 -302.7862 -185.8972
v -252.5507 -399.9117 113.6192
v -252.5508 -399.9117 -259.3137
v -252.5508 -399.9117 -185.6047
v -254.2103 -500.7957 113.6559
v -254.2104 -500.7957 -259.2769
v -254.2104 -500.7957 -185.5679
v 61.8566 200.8908 -113.3624
v 61.85641 200.8908 257.7417
v 61.85648 200.8908 194.1929
v 175.887 200.8908 50.06207
v 252.6883 200.8908 50.06195
v 175.8871 200.8908 -0.0001220703
v 252.6883 200.8908 -0.0001831055
v -252.6876 200.8908 50.06879
v -53.9621 200.8908 50.06226
v -252.6876 200.8908 0.0001831055
v -53.9621 200.8908 0.0001220703
v -252.6876 200.8908 -48.23315
v -252.6876 -0.0003391057 -48.23315
v -252.6876 200.8908 0.0001831055
v -252.6876 -0.0003391057 0.0001831055
v -251.6731 -98.49509 -48.08862
v -251.6731 -98.49509 0.1447144
v -252.3199 -200.218 -49.56085
v -252.3199 -200.218 -1.327515
v -251.6731 -98.49509 -48.08862
v -251.6731 -98.49509 0.1447144
v -252.9581 -302.7862 -50.09784
v -252.9581 -302.7862 -1.864502
v -252.5507 -399.9117 -49.80536
v -252.5507 -399.9117 -1.572021
v -254.2104 -500.7957 -49.76862
v -254.2104 -500.7957 -1.535278
v 61.85654 200.8908 50.06213
v 61.85654 200.8908 0
v 175.887 200.8908 115.1847
v 252.6882 200.8908 115.1846
v 175.8871 200.8908 -48.23987
v 252.6883 200.8908 -48.23993
v -252.6876 200.8908 -48.23315
v -53.96207 200.8908 -48.23969
v -252.6876 200.8908 -113.3557
v -252.6876 -0.0003391057 -113.3557
v -252.6876 200.8908 50.06879
v -252.6876 -0.0003391057 50.06879
v -252.6876 200.8908 115.1915
v -53.96213 200.8908 115.1849
v -251.6731 -98.49509 -113.2112
v -251.6731 -98.49509 50.21332
v -252.3199 -200.218 -114.6834
v -251.6731 -98.49509 -113.2112
v -252.3199 -200.218 48.74109
v -251.6731 -98.49509 50.21332
v -252.9581 -302.7862 -115.2204
v -252.9581 -302.7862 48.20404
v -252.5508 -399.9117 -114.9279
v -252.5507 -399.9117 48.49652
v -254.2104 -500.7957 -114.8912
v -254.2103 -500.7957 48.53326
v 61.85651 200.8908 115.1848
v 61.85657 200.8908 -48.23981
v 667.4008 200.768 -257.7418
v 666.1727 -501.847 -258.7676
v 1031.957 531.4636 155.7891
v 698.0602 531.4636 179.2706
v 698.0602 610.2075 179.2706
v 1031.957 610.2075 155.7891
v 1031.964 544.6312 -98.77875
v 1031.957 531.4636 155.7891
v 1031.957 610.2075 155.7891
v 1031.964 610.2075 -98.77875
v 1032.364 526.5327 -98.77875
v 1032.357 526.5327 155.7891

vn -5.995427E-14 1 -1.056854E-07
vn 2.972855E-08 1 -1.268631E-07
vn 1.959935E-08 1 -5.284148E-08
vn 7.678323E-08 1 1.589517E-14
vn -1.417706E-07 0.001460036 -0.9999989
vn -0.001356096 0.0010462 -0.9999985
vn -0.001147857 0.001135483 -0.9999987
vn -0.006438089 -0.0005047685 -0.9999792
vn -1 0 0
vn -0.9999937 -0.003554769 -4.754473E-08
vn -1 0 0
vn -0.9999869 -0.005099085 -5.944732E-08
vn 0.00763405 0.006644647 -0.9999488
vn -0.999947 -0.01029878 -2.221076E-07
vn -0.999947 -0.01029868 -2.400984E-07
vn 0.0163152 0.009730072 -0.9998196
vn 0.02329267 0.01431942 -0.9996262
vn -0.9999802 0.006281034 -2.401773E-07
vn -0.9999802 0.006312491 -5.606905E-07
vn -0.9999798 0.006358616 -4.442076E-07
vn -0.9999799 0.00635882 -2.401063E-07
vn 0.005432671 0.001217496 -0.9999845
vn 0.009390499 0.005175497 -0.9999425
vn -1 1.94299E-05 0
vn -0.9999993 0.001155069 4.857548E-08
vn 0.001891892 -0.001674626 -0.9999967
vn 0.001208932 -0.003006281 -0.9999948
vn -0.9999776 0.006696452 2.86437E-07
vn -0.9999525 0.009741584 7.983206E-07
vn 0.002542502 -0.0004060369 -0.9999967
vn 0.002542502 -0.0004060369 -0.9999967
vn -0.9998648 0.01644881 4.465925E-07
vn -0.9998647 0.01644902 4.801578E-07
vn -5.627425E-14 1 -1.056854E-07
vn -1.096584E-13 0.9999999 -2.07014E-07
vn 0 1 0
vn -9.933944E-08 1 -1.035072E-07
vn -2.910691E-08 1 -7.535748E-08
vn -5.005148E-08 1 -2.070141E-07
vn -5.324688E-07 0.001459972 -0.999999
vn -3.531429E-07 0.001460001 -0.9999989
vn 3.648808E-07 0.001460059 -0.9999989
vn 2.845522E-07 0.001460063 -0.9999989
vn -4.561933E-07 0.001459997 -0.9999989
vn -6.006161E-07 0.001459972 -0.9999989
vn 7.678328E-07 0 1
vn 6.759319E-07 0.0002889036 0.9999999
vn 8.324011E-07 9.309484E-08 1
vn 8.449655E-07 0.0005414541 0.9999999
vn 6.142646E-07 0.001467095 0.9999989
vn 8.509348E-07 0.001467098 0.9999989
vn 4.602608E-07 -0.008298142 0.9999657
vn 6.789613E-07 -0.01024099 0.9999475
vn 6.142018E-07 -0.01447232 0.9998953
vn 8.508466E-07 -0.01447232 0.9998952
vn 1.535664E-07 -0.00122502 0.9999993
vn 2.699881E-07 -0.00122474 0.9999993
vn 1.926867E-07 0.00166243 0.9999986
vn 2.127337E-07 0.001662354 0.9999986
vn 3.071331E-07 0.0003639043 0.9999999
vn 2.37829E-07 0.0003637201 0.9999999
vn 1.185726E-06 2.278668E-07 1
vn 1.053978E-06 0.0007265107 0.9999998
vn 1.053977E-06 0.0014671 0.9999989
vn 1.053911E-06 -0.01137642 0.9999353
vn 1.053868E-06 -0.01447232 0.9998953
vn 4.665014E-07 -0.001224334 0.9999992
vn 2.634944E-07 0.001662353 0.9999986
vn 2.634947E-07 0.0003636025 0.9999999
vn 0 1 0
vn 0 1 0
vn -5.005116E-08 1 2.401113E-07
vn -9.933941E-08 1 1.200555E-07
vn -2.359631E-08 1 7.085793E-08
vn 0 1 0
vn 0 1 0
vn 0 1 0
vn 7.678328E-08 1 0
vn 2.972875E-08 1 1.471459E-07
vn 2.367547E-08 1 7.403607E-08
vn 8.915432E-14 1 9.67127E-08
vn -1 0 1.458448E-07
vn -0.9999947 -0.003244085 9.278305E-08
vn -1 0 -2.070136E-07
vn -0.999998 -0.002027833 -2.070194E-07
vn -1 0 -1.399279E-07
vn -0.9999942 -0.003420394 -1.170939E-07
vn -0.999947 -0.01029903 -6.83828E-08
vn -0.9999469 -0.01029922 -3.105197E-07
vn -0.999947 -0.01029914 -1.418933E-07
vn -0.9999802 0.006289788 4.586665E-10
vn -0.9999798 0.006358712 -6.795021E-08
vn -0.9999804 0.006267161 -6.204592E-07
vn -0.9999802 0.006303601 -4.214819E-07
vn -0.9999797 0.006358075 -6.210288E-07
vn -0.9999797 0.006358218 -1.423491E-07
vn -0.999999 0.001322286 1.73642E-07
vn -0.9999993 0.001156556 -2.070138E-07
vn -0.9999983 0.001879037 -6.671097E-08
vn -0.9999821 0.005992484 2.478522E-07
vn -0.9999958 0.002863089 4.874244E-07
vn -0.9999796 0.006396454 3.894422E-07
vn -0.9998648 0.01644872 7.062696E-08
vn -0.9998647 0.01644864 7.244508E-07
vn -0.9998647 0.01644872 2.104886E-07
vn 0 1 0
vn 2.967781E-13 1 2.401112E-07
vn 1.231315E-13 1 1.067289E-07
vn -1.424432E-13 1 -1.422968E-07
vn -6.019059E-08 1 -9.233931E-08
vn -5.337056E-08 0.9999999 6.190999E-08
vn -1.332761E-07 0.9999999 1.041259E-07
vn 0 1 0
vn 1.421894E-08 0.9999999 -8.933902E-08
vn 5.087108E-08 1 -1.028469E-07
vn 3.239415E-08 1 -3.816659E-08
vn -1 0 1.709875E-07
vn -0.9999934 -0.00361821 1.213232E-07
vn -1 0 0
vn -0.9999943 -0.003360229 0
vn -0.999947 -0.01029914 9.442448E-08
vn -0.999947 -0.01029914 0
vn -0.9999802 0.006289789 5.377375E-10
vn -0.9999802 0.006289791 -2.082568E-07
vn -0.9999798 0.006358308 -9.382718E-08
vn -0.9999797 0.006358516 -6.539254E-10
vn -0.9999996 0.0008969886 1.289563E-07
vn -0.9999993 0.00118802 -3.306386E-10
vn -0.9999766 0.006836073 4.059916E-07
vn -0.9999804 0.006259887 1.73487E-09
vn -0.9998648 0.01644872 2.863566E-07
vn -0.9998646 0.01644862 2.056572E-07
vn -1.172974E-13 0.9999999 -1.328609E-07
vn 2.748051E-14 1 8.051101E-10
vn 0 1 0
vn 0 1 0
vn -2.24661E-08 1 8.88739E-08
vn 0 1 0
vn 2.292149E-08 1 9.442572E-08
vn 1.907812E-12 1 1.211901E-07
vn -1 0 7.390096E-08
vn -0.9999941 -0.003450754 1.257585E-07
vn -1 0 9.233207E-08
vn -0.9999949 -0.003193282 1.453996E-07
vn 0 1 0
vn 0 1 0
vn -0.999947 -0.01029914 1.518797E-07
vn -0.999947 -0.01029914 1.692379E-07
vn -0.9999802 0.006289788 7.343468E-08
vn -0.9999797 0.006358215 1.518847E-07
vn -0.9999802 0.00628979 -9.291106E-08
vn -0.9999798 0.006358625 0
vn -0.9999994 0.001084968 1.134257E-07
vn -0.999999 0.00138202 4.290055E-08
vn -0.9999791 0.006464846 2.601404E-07
vn -0.9999827 0.005874078 3.970739E-07
vn -0.9998648 0.01644872 4.531034E-07
vn -0.9998647 0.01644853 5.048886E-07
vn 0 0.9999999 0
vn 1.190966E-13 1 1.34201E-07
vn 4.110444E-07 0.001460072 -0.9999989
vn 3.895196E-07 0.001460084 -0.9999989
vn -0.07015228 0 -0.9975364
vn -0.07015228 0 -0.9975364
vn -0.07015228 0 -0.9975364
vn -0.07015228 0 -0.9975364
vn -0.999997 -0.002462914 -0.0001547275
vn -0.9999691 -0.007860844 -0.0002306341
vn -1 0 -2.733262E-05
vn -1 0 -2.733263E-05
vn -0.9993967 -0.03471934 -0.0009252505
vn -0.9967254 -0.08086026 -2.724312E-05

vt 1.420164 0.2301873
vt 1.788709 0.2301874
vt 1.420163 -0.7634405
vt 1.788709 -0.7634405
vt 2.36003 1.729136
vt 2.36013 0.001197074
vt 2.795266 1.729136
vt 2.795266 1.235094
vt 0.2478037 0.8891586
vt 0.2478037 0.3291601
vt 0.0015589 0.8891586
vt 0.0015589 0.3291601
vt 2.793044 0.9928702
vt 0.2472438 0.0004995465
vt 0.0009989738 0.0004995465
vt 2.794461 0.7427077
vt 2.36013 0.001197074
vt 0.2520409 0.7469
vt 0.006683528 0.7469
vt 0.2463565 0.9995005
vt 0.0009990335 0.9995005
vt 2.795859 0.4904668
vt 2.36013 0.001197074
vt 0.2541144 0.4922008
vt 0.008757293 0.4922008
vt 2.794966 0.2516106
vt 2.36013 0.001197074
vt 0.2529852 0.2510167
vt 0.007628024 0.2510167
vt 2.798601 0.003511256
vt 2.36013 0.001197074
vt 0.2528434 0.0004994869
vt 0.007486284 0.0004994869
vt 1.420164 0.8092808
vt 1.788709 0.809281
vt 1.420165 1.76344
vt 1.78871 1.76344
vt 1.420165 1.379433
vt 1.78871 1.379434
vt 2.106372 1.729136
vt 2.106472 0.001197074
vt 1.688424 1.729136
vt 1.688524 0.001197074
vt 1.856629 1.729136
vt 1.856729 0.001197074
vt 1.999001 0.8891586
vt 1.999001 0.3291601
vt 1.214915 0.8891586
vt 1.214914 0.3291601
vt 1.994998 0.0004995465
vt 1.210912 0.0004995465
vt 1.991564 0.7469
vt 1.209829 0.7469
vt 1.98902 0.9995005
vt 1.207284 0.9995005
vt 1.994074 0.4922008
vt 1.212339 0.4922008
vt 1.992471 0.2510167
vt 1.210736 0.2510167
vt 1.999 0.0004994869
vt 1.217265 0.0004994869
vt 0.7579437 0.8891586
vt 0.7579435 0.3291601
vt 0.7539412 0.0004995465
vt 0.7542281 0.7469
vt 0.7516837 0.9995005
vt 0.7567384 0.4922008
vt 0.7551358 0.2510167
vt 0.7616646 0.0004994869
vt 1.066813 1.379433
vt 1.066813 1.76344
vt -0.7887074 1.379432
vt -0.7887068 1.763438
vt -0.4709632 1.379433
vt -0.4709628 1.763439
vt 1.066779 -0.7634404
vt 1.066812 0.2301874
vt -0.7887096 -0.7634399
vt -0.7887088 0.2301873
vt -0.4709651 -0.76344
vt -0.4709645 0.2301874
vt 0.5539263 0.8891586
vt 0.5539263 0.3291601
vt 1.999 0.8891586
vt 1.999 0.3291601
vt 1.713386 0.8891586
vt 1.713386 0.3291601
vt 0.5533663 0.0004995465
vt 1.99844 0.0004995465
vt 1.712826 0.0004995465
vt 0.5570604 0.7469001
vt 0.551376 0.9995005
vt 1.996927 0.7469
vt 1.712342 0.7469
vt 1.991243 0.9995005
vt 1.706658 0.9995005
vt 0.5591338 0.4922008
vt 1.999 0.4922008
vt 1.714415 0.4922008
vt 0.5580046 0.2510167
vt 1.997871 0.2510167
vt 1.713286 0.2510167
vt 0.5578628 0.0004995465
vt 1.997729 0.0004994869
vt 1.713144 0.0004994869
vt 1.066812 0.8092807
vt -0.7887081 0.8092802
vt -0.4709638 0.8092805
vt 0.2496904 1.379433
vt 0.2496907 1.763439
vt 0.5000011 1.379433
vt 0.5000014 1.763439
vt 0.2496565 -0.7634403
vt 0.2496893 0.2301873
vt 0.4999996 -0.7634403
vt 0.5000001 0.2301874
vt 1.187178 0.8891586
vt 1.187178 0.3291601
vt 1.00028 0.8891586
vt 1.00028 0.3291601
vt 1.186618 0.0004995465
vt 0.9997196 0.0004995465
vt 1.188031 0.7469001
vt 1.001805 0.7469
vt 1.182346 0.9995005
vt 0.996121 0.9995005
vt 1.190104 0.4922008
vt 1.003879 0.4922008
vt 1.188975 0.2510167
vt 1.002749 0.2510167
vt 1.188833 0.0004995465
vt 1.002607 0.0004994869
vt 0.2496898 0.8092805
vt 0.5000006 0.8092806
vt -0.07592285 1.379433
vt -0.07592249 1.763439
vt 0.7412001 1.379433
vt 0.7412004 1.76344
vt 0.7411665 -0.7634404
vt 0.7411991 0.2301874
vt 1.439521 0.8891586
vt 1.439521 0.3291601
vt 0.8062693 0.8891586
vt 0.8062693 0.3291601
vt -0.07595688 -0.7634401
vt -0.07592404 0.2301873
vt 1.438961 0.0004995465
vt 0.8057093 0.0004995465
vt 1.439464 0.7469001
vt 1.43378 0.9995005
vt 0.8084941 0.7469001
vt 0.8028098 0.9995005
vt 1.441537 0.4922008
vt 0.8105675 0.4922008
vt 1.440408 0.2510167
vt 0.8094382 0.2510167
vt 1.440266 0.0004995465
vt 0.8092964 0.0004995465
vt -0.07592338 0.8092805
vt 0.7411996 0.8092806
vt 0.780148 1.728834
vt 0.7828377 0.0009257758
vt 0.0005203187 0.6293766
vt 0.9995004 0.6293766
vt 0.9995004 0.9995005
vt 0.0005203187 0.9995005
vt 0.0004995465 0.2165787
vt 0.9995004 0.2165787
vt 0.9995004 0.9995
vt 0.0004995465 0.9995
vt 0.0004995763 0.0004991293
vt 0.9995005 0.0004991293

usemtl sn17_00_s17gsc03.JPG
usemap sn17_00_s17gsc03.JPG
f 3/3/3 1/1/1 2/2/2
f 2/2/2 4/4/4 3/3/3
f 1/1/1 34/34/34 35/35/35
f 35/35/35 2/2/2 1/1/1
f 38/38/38 36/36/36 37/37/37
f 37/37/37 39/39/39 38/38/38
f 34/34/34 38/38/38 39/39/39
f 39/39/39 35/35/35 34/34/34
f 38/38/38 70/70/70 71/71/71
f 71/71/71 36/36/36 38/38/38
f 74/74/74 72/72/72 73/73/73
f 73/73/73 75/75/75 74/74/74
f 3/3/3 76/76/76 77/77/77
f 77/77/77 1/1/1 3/3/3
f 80/80/80 78/78/78 79/79/79
f 79/79/79 81/81/81 80/80/80
f 1/1/1 77/77/77 106/106/106
f 106/106/106 34/34/34 1/1/1
f 81/81/81 79/79/79 107/107/107
f 107/107/107 108/108/108 81/81/81
f 34/34/34 106/106/106 70/70/70
f 70/70/70 38/38/38 34/34/34
f 108/108/108 107/107/107 72/72/72
f 72/72/72 74/74/74 108/108/108
f 111/111/111 109/109/109 110/110/110
f 110/110/110 112/112/112 111/111/111
f 115/115/115 113/113/113 114/114/114
f 114/114/114 116/116/116 115/115/115
f 116/116/116 114/114/114 133/133/133
f 133/133/133 134/134/134 116/116/116
f 134/134/134 133/133/133 109/109/109
f 109/109/109 111/111/111 134/134/134
f 109/109/109 135/135/135 136/136/136
f 136/136/136 110/110/110 109/109/109
f 135/135/135 74/74/74 75/75/75
f 75/75/75 136/136/136 135/135/135
f 70/70/70 137/137/137 138/138/138
f 138/138/138 71/71/71 70/70/70
f 137/137/137 111/111/111 112/112/112
f 112/112/112 138/138/138 137/137/137
f 76/76/76 139/139/139 140/140/140
f 140/140/140 77/77/77 76/76/76
f 139/139/139 115/115/115 116/116/116
f 116/116/116 140/140/140 139/139/139
f 113/113/113 145/145/145 146/146/146
f 146/146/146 114/114/114 113/113/113
f 145/145/145 80/80/80 81/81/81
f 81/81/81 146/146/146 145/145/145
f 114/114/114 146/146/146 159/159/159
f 159/159/159 133/133/133 114/114/114
f 146/146/146 81/81/81 108/108/108
f 108/108/108 159/159/159 146/146/146
f 77/77/77 140/140/140 160/160/160
f 160/160/160 106/106/106 77/77/77
f 140/140/140 116/116/116 134/134/134
f 134/134/134 160/160/160 140/140/140
f 133/133/133 159/159/159 135/135/135
f 135/135/135 109/109/109 133/133/133
f 159/159/159 108/108/108 74/74/74
f 74/74/74 135/135/135 159/159/159
f 106/106/106 160/160/160 137/137/137
f 137/137/137 70/70/70 106/106/106
f 160/160/160 134/134/134 111/111/111
f 111/111/111 137/137/137 160/160/160

usemtl sn17_01_s17gsc06.JPG
usemap sn17_01_s17gsc06.JPG
f 7/7/7 5/5/5 6/6/6
f 6/6/6 8/8/8 7/7/7
f 11/11/11 9/9/9 10/10/10
f 10/10/10 12/12/12 11/11/11
f 13/13/13 8/8/8 6/6/6
f 12/12/12 10/10/10 14/14/14
f 14/14/14 15/15/15 12/12/12
f 17/17/17 16/16/16 13/13/13
f 20/20/20 18/18/18 19/19/19
f 19/19/19 21/21/21 20/20/20
f 23/23/23 22/22/22 16/16/16
f 18/18/18 24/24/24 25/25/25
f 25/25/25 19/19/19 18/18/18
f 27/27/27 26/26/26 22/22/22
f 25/25/25 24/24/24 28/28/28
f 28/28/28 29/29/29 25/25/25
f 31/31/31 30/30/30 26/26/26
f 29/29/29 28/28/28 32/32/32
f 32/32/32 33/33/33 29/29/29
f 5/5/5 40/40/40 41/41/41
f 41/41/41 6/6/6 5/5/5
f 44/44/44 42/42/42 43/43/43
f 43/43/43 45/45/45 44/44/44
f 48/48/48 46/46/46 47/47/47
f 47/47/47 49/49/49 48/48/48
f 49/49/49 47/47/47 50/50/50
f 50/50/50 51/51/51 49/49/49
f 54/54/54 52/52/52 53/53/53
f 53/53/53 55/55/55 54/54/54
f 52/52/52 56/56/56 57/57/57
f 57/57/57 53/53/53 52/52/52
f 57/57/57 56/56/56 58/58/58
f 58/58/58 59/59/59 57/57/57
f 58/58/58 60/60/60 61/61/61
f 61/61/61 59/59/59 58/58/58
f 40/40/40 44/44/44 45/45/45
f 45/45/45 41/41/41 40/40/40
f 62/62/62 48/48/48 49/49/49
f 49/49/49 63/63/63 62/62/62
f 63/63/63 49/49/49 51/51/51
f 51/51/51 64/64/64 63/63/63
f 55/55/55 53/53/53 65/65/65
f 65/65/65 66/66/66 55/55/55
f 53/53/53 57/57/57 67/67/67
f 67/67/67 65/65/65 53/53/53
f 67/67/67 57/57/57 59/59/59
f 59/59/59 68/68/68 67/67/67
f 59/59/59 61/61/61 69/69/69
f 69/69/69 68/68/68 59/59/59
f 9/9/9 82/82/82 83/83/83
f 83/83/83 10/10/10 9/9/9
f 86/86/86 84/84/84 85/85/85
f 85/85/85 87/87/87 86/86/86
f 10/10/10 83/83/83 88/88/88
f 88/88/88 14/14/14 10/10/10
f 87/87/87 85/85/85 89/89/89
f 89/89/89 90/90/90 87/87/87
f 92/92/92 91/91/91 18/18/18
f 18/18/18 20/20/20 92/92/92
f 95/95/95 93/93/93 94/94/94
f 94/94/94 96/96/96 95/95/95
f 18/18/18 91/91/91 97/97/97
f 97/97/97 24/24/24 18/18/18
f 93/93/93 98/98/98 99/99/99
f 99/99/99 94/94/94 93/93/93
f 24/24/24 97/97/97 100/100/100
f 100/100/100 28/28/28 24/24/24
f 99/99/99 98/98/98 101/101/101
f 101/101/101 102/102/102 99/99/99
f 28/28/28 100/100/100 103/103/103
f 103/103/103 32/32/32 28/28/28
f 102/102/102 101/101/101 104/104/104
f 104/104/104 105/105/105 102/102/102
f 119/119/119 117/117/117 118/118/118
f 118/118/118 120/120/120 119/119/119
f 120/120/120 118/118/118 121/121/121
f 121/121/121 122/122/122 120/120/120
f 125/125/125 123/123/123 124/124/124
f 124/124/124 126/126/126 125/125/125
f 124/124/124 123/123/123 127/127/127
f 127/127/127 128/128/128 124/124/124
f 128/128/128 127/127/127 129/129/129
f 129/129/129 130/130/130 128/128/128
f 130/130/130 129/129/129 131/131/131
f 131/131/131 132/132/132 130/130/130
f 117/117/117 141/141/141 142/142/142
f 142/142/142 118/118/118 117/117/117
f 141/141/141 86/86/86 87/87/87
f 87/87/87 142/142/142 141/141/141
f 82/82/82 143/143/143 144/144/144
f 144/144/144 83/83/83 82/82/82
f 143/143/143 119/119/119 120/120/120
f 120/120/120 144/144/144 143/143/143
f 118/118/118 142/142/142 147/147/147
f 147/147/147 121/121/121 118/118/118
f 142/142/142 87/87/87 90/90/90
f 90/90/90 147/147/147 142/142/142
f 83/83/83 144/144/144 148/148/148
f 148/148/148 88/88/88 83/83/83
f 144/144/144 120/120/120 122/122/122
f 122/122/122 148/148/148 144/144/144
f 150/150/150 149/149/149 123/123/123
f 123/123/123 125/125/125 150/150/150
f 96/96/96 94/94/94 149/149/149
f 149/149/149 150/150/150 96/96/96
f 152/152/152 151/151/151 91/91/91
f 91/91/91 92/92/92 152/152/152
f 126/126/126 124/124/124 151/151/151
f 151/151/151 152/152/152 126/126/126
f 123/123/123 149/149/149 153/153/153
f 153/153/153 127/127/127 123/123/123
f 149/149/149 94/94/94 99/99/99
f 99/99/99 153/153/153 149/149/149
f 91/91/91 151/151/151 154/154/154
f 154/154/154 97/97/97 91/91/91
f 151/151/151 124/124/124 128/128/128
f 128/128/128 154/154/154 151/151/151
f 127/127/127 153/153/153 155/155/155
f 155/155/155 129/129/129 127/127/127
f 153/153/153 99/99/99 102/102/102
f 102/102/102 155/155/155 153/153/153
f 97/97/97 154/154/154 156/156/156
f 156/156/156 100/100/100 97/97/97
f 154/154/154 128/128/128 130/130/130
f 130/130/130 156/156/156 154/154/154
f 129/129/129 155/155/155 157/157/157
f 157/157/157 131/131/131 129/129/129
f 155/155/155 102/102/102 105/105/105
f 105/105/105 157/157/157 155/155/155
f 100/100/100 156/156/156 158/158/158
f 158/158/158 103/103/103 100/100/100
f 156/156/156 130/130/130 132/132/132
f 132/132/132 158/158/158 156/156/156
f 162/162/162 43/43/43 161/161/161
f 42/42/42 161/161/161 43/43/43
f 165/165/165 163/163/163 164/164/164
f 163/163/163 165/165/165 166/166/166
f 169/169/169 167/167/167 168/168/168
f 167/167/167 169/169/169 170/170/170
f 168/168/168 171/171/171 172/172/172
f 171/171/171 168/168/168 167/167/167
