mtllib ./Shape42.mtl
g Shape42
v -31.7962 599.8872 -28.77722
v 27.85718 599.8872 -28.77722
v 27.85718 599.8872 -101.0746
v -31.7962 599.8872 -101.0745
v 27.85712 111.4585 101.0756
v 27.85712 -2.468597 101.0754
v 103.0962 -2.468597 101.0753
v 103.0961 111.4585 101.0755
v -103.0969 200.3787 31.0005
v -103.0969 111.4585 31.0005
v -103.0969 111.4585 101.0758
v -103.0969 200.3787 101.0757
v 27.85712 200.3787 101.0755
v 103.0961 200.3787 101.0754
v -103.0968 272.5593 31.0005
v -103.0968 272.5593 101.0757
v 103.0961 200.3787 101.0754
v 103.0962 280.9821 101.0754
v 27.85712 277.9087 101.0755
v 27.85712 200.3787 101.0755
v -103.0968 356.3182 -28.77725
v -103.0968 356.32 31.00051
v -103.0968 398.1974 31.00051
v -103.0968 398.1974 -28.77724
v -31.7962 398.1974 101.0756
v -31.7962 357.293 101.0756
v 27.85718 358.1051 101.0755
v 27.85712 398.1974 101.0755
v -103.0967 498.4332 -101.0745
v -103.0967 532.2529 -101.0745
v -31.7962 532.2511 -101.0746
v -31.7962 498.4331 -101.0746
v -103.0967 498.4332 -28.77723
v -103.0967 498.4332 31.00052
v -103.0968 532.2529 31.00052
v -103.0967 532.2529 -28.77723
v -31.7962 498.4332 101.0755
v 27.85718 498.4332 101.0754
v 27.85718 532.2529 101.0755
v -31.7962 532.2529 101.0756
v -103.0974 458.5902 31.06328
v -103.0968 458.5514 101.0756
v -103.0968 472.4334 101.0756
v -103.0968 472.4334 31.00052
v 103.0962 472.4334 101.0753
v 27.85718 472.4334 101.0755
v 29.06726 458.5902 101.0142
v 103.0962 458.5514 101.0753
v -103.0968 314.4386 31.00051
v -103.0968 314.4408 101.0757
v -103.0968 356.3222 101.0757
v -103.0968 272.5593 31.0005
v -103.0968 272.5593 101.0757
v 103.0962 320.0559 101.0754
v 103.0962 359.1295 101.0754
v 27.85718 358.1051 101.0755
v 27.85718 318.0069 101.0755
v 103.0962 280.9821 101.0754
v 27.85712 277.9087 101.0755
v -31.7962 532.2511 -101.0746
v -103.0967 532.2529 -101.0745
v -103.0967 575.4335 -101.0745
v -31.7962 575.4318 -101.0746
v -103.0967 599.8872 -101.0745
v -31.7962 599.8872 -101.0745
v -103.0968 575.4335 31.00053
v -103.0968 532.2529 101.0756
v -103.0968 575.4335 101.0757
v -103.0968 599.8872 31.00053
v -103.0968 599.8872 101.0757
v 27.85718 575.4335 101.0755
v 103.0962 532.2529 101.0753
v 103.0962 575.4335 101.0754
v 27.85718 599.8872 101.0755
v 27.85718 575.4335 101.0755
v 103.0962 575.4335 101.0754
v 103.0962 599.8872 101.0754
v -103.0968 398.1974 101.0757
v -103.0968 458.5514 101.0756
v -103.0974 458.5902 31.06328
v -103.0974 408.5348 31.06345
v -103.0968 398.1974 31.00051
v -31.29553 408.5348 101.0144
v -31.5459 458.5901 101.0147
v -31.7962 398.1974 101.0756
v 27.85712 398.1974 101.0755
v 29.06738 408.5348 101.0143
v -103.0967 472.4334 -28.77724
v -103.0967 498.4332 31.00052
v -103.0967 498.4332 -28.77723
v -31.7962 472.4334 101.0756
v 27.85718 498.4332 101.0754
v -31.7962 498.4332 101.0755
v 27.85718 599.8872 31.00053
v 27.85718 599.8872 101.0755
v 103.0963 599.8872 31.00053
v -103.0969 111.4585 -28.77729
v -103.0968 200.3787 -28.77726
v -103.0968 200.3787 -101.0744
v -103.0969 111.4585 -101.0744
v -103.0968 272.5593 -28.77726
v -103.0967 272.5593 -101.0745
v -103.0967 398.1974 -101.0745
v -103.0967 356.3159 -101.0745
v -103.0967 532.2529 -101.0745
v -103.0967 498.4332 -101.0745
v -103.0967 458.5514 -101.0745
v -103.0973 458.5902 -28.82549
v -103.0967 472.4334 -101.0745
v -103.0968 314.4367 -28.77726
v -103.0967 314.4345 -101.0745
v -103.0968 272.5593 -28.77726
v -103.0967 272.5593 -101.0745
v -103.0968 575.4335 -28.77723
v -103.0967 575.4335 -101.0745
v -103.0968 599.8872 -28.77722
v -103.0967 599.8872 -101.0745
v -103.0972 408.5348 -28.82535
v -103.0973 458.5902 -28.82549
v -103.0967 458.5514 -101.0745
v -103.0967 398.1974 -101.0745
v -103.0968 398.1974 -28.77724
v -103.0967 498.4332 -101.0745
v -103.0968 398.1974 101.0757
v -103.0968 498.4332 101.0756
v -103.0967 472.4334 -28.77724
v -103.0973 458.5902 -28.82549
v -103.0974 458.5902 31.06328
v -103.0968 472.4334 31.00052
v -103.0972 408.5348 -28.82535
v -103.0968 398.1974 -28.77724
v -103.0968 398.1974 31.00051
v -103.0974 408.5348 31.06345
v -103.0968 498.4332 101.0756
v -31.7962 599.8872 31.00053
v -103.0967 599.8872 -101.0745
v -103.0968 599.8872 -28.77722
v -31.79614 -2.468597 101.0755
v -31.79614 111.4585 101.0757
v -103.0969 111.4585 101.0758
v -103.0968 -2.468597 101.0756
v -31.7962 200.3787 101.0756
v -103.0969 200.3787 101.0757
v -31.7962 200.3787 101.0756
v -31.7962 275.4719 101.0756
v -103.0968 272.5593 101.0757
v -103.0969 200.3787 101.0757
v -103.0968 398.1974 101.0757
v -103.0968 356.3222 101.0757
v 103.0966 498.4332 -101.0747
v 27.85718 498.4331 -101.0746
v 27.85718 532.2496 -101.0746
v 103.0966 532.2478 -101.0747
v -103.0968 532.2529 101.0756
v -103.0968 498.4332 101.0756
v -103.0968 472.4334 101.0756
v -103.0968 458.5514 101.0756
v -31.79614 316.3824 101.0756
v -31.7962 357.293 101.0756
v -103.0968 356.3222 101.0757
v -103.0968 314.4408 101.0757
v -31.7962 275.4719 101.0756
v -103.0968 272.5593 101.0757
v 103.0966 532.2478 -101.0747
v 27.85718 532.2496 -101.0746
v 27.85718 575.4303 -101.0746
v 103.0966 575.4283 -101.0747
v 27.85718 599.8872 -101.0746
v 103.0965 599.8872 -101.0746
v -31.7962 575.4335 101.0756
v -103.0968 575.4335 101.0757
v -31.7962 575.4335 101.0756
v -31.7962 599.8872 101.0756
v -103.0968 599.8872 101.0757
v -103.0968 575.4335 101.0757
v -103.0968 398.1974 101.0757
v -103.0968 498.4332 101.0756
v -31.7962 599.8872 101.0756
v -103.0968 599.8872 31.00053
v -103.0968 599.8872 101.0757
v 103.0964 599.8872 -28.77722
v 103.0965 599.8872 -101.0746
v 103.0962 359.1295 101.0754
v 103.0962 398.1974 101.0754
v 103.0962 498.4332 101.0753
v -31.7962 472.4334 101.0756
v -31.5459 458.5901 101.0147
v 29.06726 458.5902 101.0142
v 27.85718 472.4334 101.0755
v 103.0962 398.1974 101.0754
v 103.0962 498.4332 101.0753

vn 0 1 0
vn 0 1 0
vn 0 1 0
vn 0 1 0
vn 1.543271E-06 -5.337181E-07 0.9999999
vn 1.490226E-06 -1.339346E-06 1
vn 1.521032E-06 -1.272378E-06 1
vn 1.560627E-06 -2.091906E-07 1
vn -0.9999999 6.876863E-07 -3.825033E-07
vn -1 6.864041E-07 -3.21863E-07
vn -0.9999999 5.148029E-07 -2.177485E-07
vn -1 6.540936E-07 -4.354974E-07
vn 1.524926E-06 4.533597E-07 1
vn 1.419629E-06 3.43201E-07 1
vn -1 8.455893E-07 -4.579281E-07
vn -1 8.455892E-07 -4.354976E-07
vn 1.507235E-06 6.75451E-07 0.9999999
vn 1.591501E-06 7.572263E-07 0.9999999
vn 1.508185E-06 6.516537E-07 1
vn 1.482325E-06 5.961798E-07 1
vn -1 5.486255E-14 -4.684684E-07
vn -1 0 -2.776184E-07
vn -1 1.677377E-07 -3.525251E-07
vn -0.9999999 7.287057E-07 -4.62125E-07
vn 1.520931E-06 7.211892E-13 1
vn 1.508779E-06 0 1
vn 1.568449E-06 1.661335E-12 1
vn 1.59731E-06 1.561955E-12 1
vn -8.560212E-07 4.511915E-07 -1
vn -8.560154E-07 4.511793E-07 -1
vn -8.298722E-07 4.511951E-07 -1
vn -8.005325E-07 4.512098E-07 -1
vn -1 -4.511799E-07 -4.621249E-07
vn -1 -9.023601E-07 -4.700331E-07
vn -1 -5.744833E-07 -4.761905E-07
vn -1 -4.69238E-07 -4.527271E-07
vn 1.514763E-06 -6.567058E-07 1
vn 1.470537E-06 -9.023602E-07 1
vn 1.547019E-06 -4.042949E-07 1
vn 1.471646E-06 -4.689394E-07 1
vn -1 2.202315E-05 3.927331E-06
vn -1 0 8.28188E-06
vn -1 8.039428E-06 9.392396E-07
vn -1 1.07522E-05 -4.62325E-07
vn -0.0001405135 -0.0007694256 0.9999998
vn 1.592534E-06 -0.001011654 0.9999995
vn -0.0006761543 -0.0007964095 0.9999995
vn -0.0007604485 0.0004620025 0.9999996
vn -0.9999999 -1.118156E-07 -3.916893E-07
vn -1 0 -4.354977E-07
vn -1 0 -4.354976E-07
vn -1 7.329567E-14 -4.827945E-07
vn -0.9999999 3.966755E-14 -4.354976E-07
vn 1.622434E-06 0 1
vn 1.622434E-06 0 0.9999999
vn 1.59731E-06 0 1
vn 1.583325E-06 -4.599633E-13 1
vn 1.622433E-06 -1.250765E-12 1
vn 1.568449E-06 -2.37298E-12 1
vn -8.156334E-07 3.53371E-07 -0.9999999
vn -8.560179E-07 3.533713E-07 -0.9999999
vn -8.560166E-07 4.130882E-07 -1
vn -8.156333E-07 4.97076E-07 -1
vn -8.560191E-07 6.239642E-07 -1
vn -8.156421E-07 6.239424E-07 -1
vn -1 -4.597766E-07 -4.666179E-07
vn -1 -5.078609E-07 -4.35498E-07
vn -1 -3.313955E-07 -4.354979E-07
vn -1 9.524697E-14 -4.579284E-07
vn -1 2.717445E-13 -4.354978E-07
vn 1.524925E-06 -1.265273E-07 1
vn 1.549567E-06 -2.539305E-07 1
vn 1.41963E-06 -3.533719E-07 1
vn 1.524925E-06 -1.02455E-06 1
vn 1.490225E-06 -1.247972E-06 1
vn 1.521032E-06 -9.35979E-07 0.9999999
vn 2.788734E-07 0.9851169 0.1718858
vn -1 -4.552816E-06 7.136417E-06
vn -1 5.056488E-07 8.28216E-06
vn -1 1.611438E-11 7.846E-06
vn -1 -9.607267E-06 5.991581E-06
vn -1 -5.313576E-05 -4.354977E-07
vn 0.00241757 0.005798837 0.9999803
vn 0.001198844 2.740128E-06 0.9999993
vn 0.0007280543 0.0008636967 0.9999994
vn -0.0005673806 0.001841274 0.9999981
vn -0.00134016 0.001648597 0.9999977
vn -1 4.931017E-06 -1.312671E-06
vn -0.9999999 5.86882E-07 -4.700331E-07
vn -1 6.780318E-14 -4.621248E-07
vn 1.485558E-06 -0.0005554704 0.9999998
vn 1.527096E-06 1.010091E-06 1
vn 1.631283E-06 1.173764E-06 1
vn 0 1 0
vn 0 1 0
vn 0 1 0
vn -1 6.86404E-07 -4.479709E-07
vn -0.9999999 7.602223E-07 -4.636473E-07
vn -1 7.323604E-07 -4.221132E-07
vn -1 6.864037E-07 -4.221135E-07
vn -1 8.455895E-07 -4.772032E-07
vn -1 8.455893E-07 -4.221129E-07
vn -1 3.643432E-07 -6.331747E-07
vn -1 -2.428885E-07 -7.035135E-07
vn -1 -5.507592E-07 -5.509315E-07
vn -1 -9.023597E-07 -8.442247E-07
vn -0.9999999 1.982019E-05 -4.227848E-06
vn -1 3.970919E-05 -8.046794E-06
vn -1 7.652009E-07 -4.221124E-07
vn -1 -2.428981E-07 -5.391411E-07
vn -1 1.281684E-14 -4.221127E-07
vn -1 2.720486E-14 -4.47971E-07
vn -1 0 -4.221127E-07
vn -0.9999999 -4.408141E-07 -4.662036E-07
vn -1 -5.50785E-07 -4.221124E-07
vn -1 9.925603E-14 -4.772031E-07
vn -1 1.975442E-13 -4.221125E-07
vn -1 -4.046147E-06 -6.565429E-06
vn -1 -1.829053E-06 -8.024513E-06
vn -1 -5.528189E-07 -7.141001E-06
vn -1 -5.615875E-06 -5.532381E-06
vn -1 -4.133184E-05 -4.221127E-07
vn -1 5.86882E-07 -6.331686E-07
vn -0.9999999 0 -4.354977E-07
vn -1 -4.5118E-07 -6.53247E-07
vn -1 4.188511E-05 -1.020087E-06
vn -0.9999999 3.968647E-05 -1.528713E-06
vn -1 4.188511E-05 -1.020087E-06
vn -1 4.408784E-05 -5.105173E-07
vn -1 -4.723304E-05 -1.530131E-06
vn -1 -4.133225E-05 -5.105173E-07
vn -1 -4.723304E-05 -1.530131E-06
vn -1 -5.31229E-05 -2.547853E-06
vn -0.9999999 0 -8.70996E-07
vn 0 1 0
vn 0 1 0
vn 0 1 0
vn 1.659755E-06 -1.339346E-06 0.9999999
vn 1.593479E-06 -4.719892E-07 1
vn 1.712048E-06 -7.707073E-07 1
vn 1.71205E-06 -1.339345E-06 1
vn 1.521017E-06 5.148037E-07 1
vn 1.605045E-06 6.006038E-07 1
vn 1.500119E-06 6.180443E-07 1
vn 1.504219E-06 6.034653E-07 1
vn 1.485347E-06 6.216492E-07 1
vn 1.498043E-06 6.341908E-07 1
vn 1.498045E-06 0 1
vn 1.498045E-06 0 1
vn -9.126092E-07 4.512358E-07 -1
vn -8.483847E-07 4.512232E-07 -1
vn -8.483772E-07 4.512259E-07 -1
vn -9.126035E-07 4.512485E-07 -1
vn 1.414659E-06 -5.50759E-07 1
vn 1.712052E-06 0 1
vn 0.000221497 -0.001131054 0.9999993
vn 0.0004708401 0.0004514632 0.9999998
vn 1.514631E-06 -3.472284E-13 1
vn 1.520931E-06 1.56234E-12 0.9999999
vn 1.498044E-06 1.104373E-12 1
vn 1.498044E-06 -7.333825E-13 1
vn 1.508779E-06 -1.45108E-12 1
vn 1.498045E-06 0 1
vn -8.619026E-07 4.417142E-07 -1
vn -8.483759E-07 3.533709E-07 -1
vn -8.138524E-07 4.514767E-07 -0.9999999
vn -8.112023E-07 5.798898E-07 -1
vn -7.918185E-07 6.238989E-07 -1
vn -8.112136E-07 6.238532E-07 -1
vn 1.60107E-06 0 1
vn 1.498045E-06 -3.533713E-07 1
vn 1.584313E-06 -1.027999E-06 1
vn 1.521017E-06 -1.247972E-06 1
vn 1.605048E-06 -9.359791E-07 1
vn 1.712051E-06 -6.239861E-07 1
vn 1.498045E-06 7.58463E-07 1
vn 1.498045E-06 5.86882E-07 1
vn 0 1 0
vn 0 1 0
vn 0 1 0
vn 0 1 0
vn 0 1 0
vn 1.622433E-06 1.250953E-12 1
vn 1.622432E-06 0 1
vn 1.521032E-06 -6.767701E-07 1
vn 4.825675E-06 -0.004407597 0.9999903
vn 8.064428E-06 -0.004393357 0.9999903
vn 4.825675E-06 -0.004407597 0.9999903
vn 1.534784E-06 -0.004422065 0.9999902
vn 1.622432E-06 5.056425E-07 1
vn 1.419629E-06 5.86882E-07 1

vt 0.6422157 0.3459491
vt 0.6422157 0.6349679
vt 0.9994999 0.6349678
vt 0.9994997 0.345949
vt 0.3607123 -0.4300829
vt 0.3607122 -0.9997185
vt -0.01548326 -0.9997185
vt -0.01548237 -0.4300828
vt 0.2866025 0.4675789
vt 0.2866025 0.0004994571
vt 0.0004995465 0.0004994571
vt 0.00049977 0.4675789
vt 0.3607123 0.01451806
vt -0.0154826 0.01451808
vt 0.2866025 0.9966261
vt 0.0005000234 0.9966261
vt 1.234559 0.0004994571
vt 1.23456 0.5077278
vt 0.6984838 0.4883869
vt 0.6984838 0.0004993677
vt 0.6885647 0.885759
vt 0.297732 0.8857785
vt 0.297732 1.101119
vt 0.6885647 1.101119
vt 0.6540509 0.9995004
vt 0.6540508 0.8444698
vt 0.365032 0.8509278
vt 0.3650322 0.9995005
vt 0.0005001128 0.0004994273
vt 0.0005000134 0.3335164
vt 0.345949 0.3334991
vt 0.345949 0.0004994273
vt 0.6422158 0.0004994273
vt 0.3468019 0.0004994273
vt 0.346802 0.6067052
vt 0.6422158 0.6067052
vt 0.04691067 0.0005000234
vt 0.8969671 0.0005000234
vt 0.8969671 0.4392762
vt 0.04691055 0.4392762
vt 0.3461819 0.6027928
vt 0.0004998371 0.6024073
vt 0.0004998838 0.7406284
vt 0.3468023 0.7406282
vt 1.887501 0.7403736
vt 0.8749135 0.7403736
vt 0.8911992 0.6024044
vt 1.887501 0.6020184
vt 0.2982617 0.639333
vt 0.01014115 0.6393559
vt 0.002375722 0.8858015
vt 0.297732 0.1133545
vt 0.002375692 0.1133545
vt 1.23456 0.68242
vt 1.23456 0.9995004
vt 0.6984839 0.9930539
vt 0.6984839 0.6695264
vt 1.23456 0.1659963
vt 0.6984838 0.1893718
vt 0.345949 0.6066877
vt 0.0005000234 0.6067052
vt 0.000499934 0.8623323
vt 0.345949 0.8623148
vt 0.0004999591 0.9995221
vt 0.3459491 0.9995146
vt 0.3468019 0.8623323
vt 0.0004997253 0.6067052
vt 0.0004996061 0.8623323
vt 0.3468019 0.9995004
vt 0.0004995465 0.9995004
vt 0.8969672 0.9995006
vt 1.969119 0.4392762
vt 1.969119 0.9995006
vt 0.3650321 0.9995004
vt 0.3650321 0.8623322
vt 0.0005011559 0.8623323
vt 0.0005012155 0.9995004
vt 0.0004994571 0.0004996061
vt 0.0004999865 0.6020232
vt 0.3461821 0.6020229
vt 0.3461801 0.1035281
vt 0.3464907 0.0005790144
vt 0.07882038 0.1035267
vt 0.07545075 0.6024034
vt 0.0720824 0.0004992783
vt 0.8749133 0.0004992783
vt 0.8912013 0.1035274
vt 0.6422164 0.7406281
vt 0.3468024 0.999504
vt 0.6422165 0.9995039
vt 0.07208243 0.7403736
vt 0.8749135 0.9995003
vt 0.07208243 0.9995003
vt 0.3468019 0.6349679
vt 0.0005005441 0.634968
vt 0.3468019 0.9994993
vt 0.694892 0.0004994571
vt 0.6948919 0.4675789
vt 0.9995002 0.4675789
vt 0.9994999 0.0004994571
vt 0.6948919 0.996626
vt 0.9995005 0.9966261
vt 1.027392 1.101119
vt 1.027392 0.8857352
vt 0.9994997 0.6067052
vt 0.9994996 0.0004994273
vt 0.9995005 0.6024069
vt 0.6426934 0.602793
vt 0.9995005 0.7406279
vt 0.69633 0.6393134
vt 1.035157 0.6392897
vt 0.6885647 0.1133545
vt 1.027392 0.1133545
vt 0.6422157 0.8623323
vt 0.9994994 0.8623323
vt 0.6422157 0.9995004
vt 0.9994994 0.9995004
vt 0.6426919 0.1035277
vt 0.6426933 0.6020207
vt 0.9995004 0.6020205
vt 0.9995002 0.0004990101
vt 0.6424543 0.0004992336
vt 0.9995006 0.9995037
vt 0.002375737 1.101119
vt 0.0004997849 0.0004994273
vt 0.6890836 0.517108
vt 0.6890836 0.4513761
vt 0.2819089 0.451376
vt 0.2819094 0.5171081
vt 0.6422164 0.1035277
vt 0.6422164 0.0004992232
vt 0.3468022 0.0004993995
vt 0.3468017 0.1035281
vt 0.0004999712 0.9995041
vt 0.3468019 0.3459491
vt 0.9994994 0.0004998446
vt 0.6422157 0.0004997699
vt 0.6589786 -0.9997185
vt 0.6589788 -0.4300829
vt 1.015483 -0.4300829
vt 1.015482 -0.9997185
vt 0.6589789 0.01451804
vt 1.015482 0.01451802
vt 0.2734559 0.0004993677
vt 0.2734559 0.4730524
vt -0.2345591 0.4547238
vt -0.2345595 0.0004994571
vt 0.9995005 0.9995004
vt 0.9995005 0.8367508
vt 0.9995005 0.0004994273
vt 0.6349677 0.0004994273
vt 0.6349677 0.3334847
vt 0.9995004 0.3334665
vt -0.9691188 0.4392762
vt -0.9691185 0.0004996359
vt -0.8875009 0.7403733
vt -0.8875009 0.6020184
vt 0.2734559 0.6593035
vt 0.2734559 0.987943
vt -0.2345591 0.9818341
vt -0.2345591 0.6470848
vt 0.2734559 0.1740373
vt -0.2345591 0.1557087
vt 0.9995003 0.6066546
vt 0.6349677 0.6066731
vt 0.6349678 0.8623002
vt 0.9995004 0.8622817
vt 0.6349679 0.9995083
vt 0.9995003 0.9995004
vt 0.04691052 0.9995006
vt -0.9691191 0.9995006
vt 0.6540509 0.8623322
vt 0.6540509 0.9995004
vt 0.9995005 0.9995004
vt 0.9995005 0.8623323
vt -0.8875014 0.0004992783
vt -0.8875006 0.9994999
vt 0.0005000354 0.3459492
vt 0.3468018 0.0004997082
vt 0.0004994273 0.0004996359
vt 0.6422157 0.9994998
vt 0.9995003 0.9995003
vt 0.0005011459 0.8590732
vt 0.0005011708 0.9995005
vt 1.969119 0.0004996359
vt 0.2778438 0.5189565
vt 0.2789755 0.454792
vt 0.6921475 0.454793
vt 0.6915175 0.5189565
vt 1.887501 0.0004992783
vt 1.887501 0.9994999

usemtl sn17_18_s17gsc71.JPG
usemap sn17_18_s17gsc71.JPG
f 3/3/3 1/1/1 2/2/2
f 1/1/1 3/3/3 4/4/4
f 7/7/7 5/5/5 6/6/6
f 5/5/5 7/7/7 8/8/8
f 11/11/11 9/9/9 10/10/10
f 9/9/9 11/11/11 12/12/12
f 8/8/8 13/13/13 5/5/5
f 13/13/13 8/8/8 14/14/14
f 12/12/12 15/15/15 9/9/9
f 15/15/15 12/12/12 16/16/16
f 19/19/19 17/17/17 18/18/18
f 17/17/17 19/19/19 20/20/20
f 23/23/23 21/21/21 22/22/22
f 21/21/21 23/23/23 24/24/24
f 27/27/27 25/25/25 26/26/26
f 25/25/25 27/27/27 28/28/28
f 35/35/35 33/33/33 34/34/34
f 33/33/33 35/35/35 36/36/36
f 50/50/50 22/22/22 49/49/49
f 22/22/22 50/50/50 51/51/51
f 53/53/53 49/49/49 52/52/52
f 49/49/49 53/53/53 50/50/50
f 56/56/56 54/54/54 55/55/55
f 54/54/54 56/56/56 57/57/57
f 57/57/57 58/58/58 54/54/54
f 58/58/58 57/57/57 59/59/59
f 67/67/67 66/66/66 35/35/35
f 66/66/66 67/67/67 68/68/68
f 68/68/68 69/69/69 66/66/66
f 69/69/69 68/68/68 70/70/70
f 76/76/76 74/74/74 75/75/75
f 74/74/74 76/76/76 77/77/77
f 77/77/77 94/94/94 95/95/95
f 94/94/94 77/77/77 96/96/96
f 99/99/99 97/97/97 98/98/98
f 97/97/97 99/99/99 100/100/100
f 102/102/102 98/98/98 101/101/101
f 98/98/98 102/102/102 99/99/99
f 103/103/103 21/21/21 24/24/24
f 21/21/21 103/103/103 104/104/104
f 105/105/105 33/33/33 36/36/36
f 33/33/33 105/105/105 106/106/106
f 104/104/104 110/110/110 21/21/21
f 110/110/110 104/104/104 111/111/111
f 111/111/111 112/112/112 110/110/110
f 112/112/112 111/111/111 113/113/113
f 115/115/115 36/36/36 114/114/114
f 36/36/36 115/115/115 105/105/105
f 117/117/117 114/114/114 116/116/116
f 114/114/114 117/117/117 115/115/115
f 10/10/10 98/98/98 97/97/97
f 98/98/98 10/10/10 9/9/9
f 9/9/9 101/101/101 98/98/98
f 101/101/101 9/9/9 15/15/15
f 23/23/23 51/51/51 124/124/124
f 51/51/51 23/23/23 22/22/22
f 35/35/35 125/125/125 67/67/67
f 125/125/125 35/35/35 34/34/34
f 128/128/128 126/126/126 127/127/127
f 126/126/126 128/128/128 129/129/129
f 49/49/49 21/21/21 110/110/110
f 21/21/21 49/49/49 22/22/22
f 52/52/52 110/110/110 112/112/112
f 110/110/110 52/52/52 49/49/49
f 35/35/35 114/114/114 36/36/36
f 114/114/114 35/35/35 66/66/66
f 66/66/66 116/116/116 114/114/114
f 116/116/116 66/66/66 69/69/69
f 2/2/2 135/135/135 94/94/94
f 135/135/135 2/2/2 1/1/1
f 136/136/136 1/1/1 4/4/4
f 1/1/1 136/136/136 137/137/137
f 140/140/140 138/138/138 139/139/139
f 138/138/138 140/140/140 141/141/141
f 143/143/143 139/139/139 142/142/142
f 139/139/139 143/143/143 140/140/140
f 146/146/146 144/144/144 145/145/145
f 144/144/144 146/146/146 147/147/147
f 148/148/148 26/26/26 25/25/25
f 26/26/26 148/148/148 149/149/149
f 160/160/160 158/158/158 159/159/159
f 158/158/158 160/160/160 161/161/161
f 161/161/161 162/162/162 158/158/158
f 162/162/162 161/161/161 163/163/163
f 174/174/174 172/172/172 173/173/173
f 172/172/172 174/174/174 175/175/175
f 179/179/179 178/178/178 135/135/135
f 178/178/178 179/179/179 180/180/180
f 137/137/137 135/135/135 1/1/1
f 135/135/135 137/137/137 179/179/179
f 3/3/3 181/181/181 182/182/182
f 181/181/181 3/3/3 2/2/2
f 6/6/6 139/139/139 138/138/138
f 139/139/139 6/6/6 5/5/5
f 5/5/5 142/142/142 139/139/139
f 142/142/142 5/5/5 13/13/13
f 20/20/20 145/145/145 144/144/144
f 145/145/145 20/20/20 19/19/19
f 28/28/28 183/183/183 184/184/184
f 183/183/183 28/28/28 27/27/27
f 188/188/188 186/186/186 187/187/187
f 186/186/186 188/188/188 189/189/189
f 57/57/57 159/159/159 158/158/158
f 159/159/159 57/57/57 56/56/56
f 59/59/59 158/158/158 162/162/162
f 158/158/158 59/59/59 57/57/57
f 75/75/75 173/173/173 172/172/172
f 173/173/173 75/75/75 74/74/74
f 95/95/95 135/135/135 178/178/178
f 135/135/135 95/95/95 94/94/94
f 2/2/2 96/96/96 181/181/181
f 96/96/96 2/2/2 94/94/94

usemtl sn17_19_s17gsc68.JPG
usemap sn17_19_s17gsc68.JPG
f 31/31/31 29/29/29 30/30/30
f 29/29/29 31/31/31 32/32/32
f 39/39/39 37/37/37 38/38/38
f 37/37/37 39/39/39 40/40/40
f 43/43/43 41/41/41 42/42/42
f 41/41/41 43/43/43 44/44/44
f 47/47/47 45/45/45 46/46/46
f 48/48/48 45/45/45 47/47/47
f 62/62/62 60/60/60 61/61/61
f 60/60/60 62/62/62 63/63/63
f 64/64/64 63/63/63 62/62/62
f 63/63/63 64/64/64 65/65/65
f 72/72/72 71/71/71 39/39/39
f 71/71/71 72/72/72 73/73/73
f 80/80/80 78/78/78 79/79/79
f 81/81/81 78/78/78 80/80/80
f 82/82/82 78/78/78 81/81/81
f 85/85/85 83/83/83 84/84/84
f 86/86/86 83/83/83 85/85/85
f 87/87/87 83/83/83 86/86/86
f 89/89/89 88/88/88 44/44/44
f 88/88/88 89/89/89 90/90/90
f 92/92/92 91/91/91 46/46/46
f 91/91/91 92/92/92 93/93/93
f 88/88/88 107/107/107 108/108/108
f 107/107/107 88/88/88 109/109/109
f 120/120/120 118/118/118 119/119/119
f 121/121/121 118/118/118 120/120/120
f 122/122/122 118/118/118 121/121/121
f 123/123/123 88/88/88 90/90/90
f 88/88/88 123/123/123 109/109/109
f 132/132/132 130/130/130 131/131/131
f 130/130/130 132/132/132 133/133/133
f 89/89/89 43/43/43 134/134/134
f 43/43/43 89/89/89 44/44/44
f 152/152/152 150/150/150 151/151/151
f 150/150/150 152/152/152 153/153/153
f 154/154/154 37/37/37 40/40/40
f 37/37/37 154/154/154 155/155/155
f 156/156/156 84/84/84 91/91/91
f 84/84/84 156/156/156 157/157/157
f 166/166/166 164/164/164 165/165/165
f 164/164/164 166/166/166 167/167/167
f 168/168/168 167/167/167 166/166/166
f 167/167/167 168/168/168 169/169/169
f 171/171/171 40/40/40 170/170/170
f 40/40/40 171/171/171 154/154/154
f 157/157/157 85/85/85 84/84/84
f 85/85/85 157/157/157 176/176/176
f 177/177/177 91/91/91 93/93/93
f 91/91/91 177/177/177 156/156/156
f 39/39/39 185/185/185 72/72/72
f 185/185/185 39/39/39 38/38/38
f 39/39/39 170/170/170 40/40/40
f 170/170/170 39/39/39 71/71/71
f 48/48/48 86/86/86 190/190/190
f 87/87/87 48/48/48 47/47/47
f 87/87/87 86/86/86 48/48/48
f 92/92/92 45/45/45 191/191/191
f 45/45/45 92/92/92 46/46/46
f 152/152/152 32/32/32 31/31/31
f 32/32/32 152/152/152 151/151/151
f 166/166/166 60/60/60 63/63/63
f 60/60/60 166/166/166 165/165/165
f 168/168/168 63/63/63 65/65/65
f 63/63/63 168/168/168 166/166/166
