mtllib ./Shape37.mtl
g Shape37
v 154.6423 0.0003814697 -126.3462
v -154.6476 0.0003814697 -126.3397
v -154.6476 100.1272 -126.3397
v 154.6423 100.1272 -126.3462
v -154.6477 201.6095 -126.3398
v 154.6423 201.6095 -126.3463
v -154.6429 301.0718 126.3479
v -154.6477 301.0718 -126.3398
v -154.6477 201.6095 -126.3398
v -154.6477 301.0718 -126.3398
v 154.6423 301.0718 -126.3463
v -154.6477 301.0718 -126.3398
v -154.6429 301.0718 126.3479
v -154.643 397.8083 126.3478
v -154.6477 397.8083 -126.3398
v -154.6429 301.0718 126.3479
v 154.6472 301.0718 126.3417
v 154.6472 397.8083 126.3416
v -154.643 397.8083 126.3478
v 154.6423 301.0718 -126.3463
v -154.6477 301.0718 -126.3398
v -154.6477 397.8083 -126.3398
v 154.6422 397.8083 -126.3463
v 154.6472 301.0718 126.3417
v 154.6423 301.0718 -126.3463
v 154.6422 397.8083 -126.3463
v 154.6472 397.8083 126.3416
v -154.643 499.6028 126.3478
v -154.6477 499.6028 -126.3398
v 154.6472 499.6028 126.3416
v -154.643 499.6028 126.3478
v -154.6477 499.6028 -126.3398
v 154.6422 499.6028 -126.3463
v 154.6422 499.6028 -126.3463
v 154.6472 499.6028 126.3416

vn -2.091799E-05 0 -0.9999999
vn -2.091799E-05 0 -0.9999999
vn -2.0918E-05 -4.045602E-07 -1
vn -2.0918E-05 -8.055042E-07 -1
vn -2.0918E-05 -8.072739E-07 -0.9999999
vn -2.0918E-05 -4.063524E-07 -1
vn -1 0 1.871964E-05
vn -1 0 1.871964E-05
vn -1 0 1.871964E-05
vn -2.0918E-05 0 -1
vn -2.0918E-05 0 -1
vn -0.9999999 -4.731945E-07 1.865926E-05
vn -1 -6.309177E-07 1.871964E-05
vn -0.9999999 -3.10059E-07 1.863844E-05
vn -1 -1.01615E-07 1.859888E-05
vn 2.012863E-05 1.261893E-06 1
vn 2.012863E-05 1.261888E-06 1
vn 2.012862E-05 8.268507E-07 0.9999999
vn 2.012862E-05 4.064638E-07 1
vn -2.0918E-05 -1.195295E-11 -1
vn -2.0918E-05 -7.968639E-12 -1
vn -2.0918E-05 -7.832133E-12 -1
vn -2.0918E-05 -5.133484E-12 -1
vn 0.9999999 5.520638E-07 -1.965561E-05
vn 1 6.30946E-07 -1.962542E-05
vn 0.9999999 3.61738E-07 -1.966602E-05
vn 1 1.524145E-07 -1.968581E-05
vn -1 0 1.859888E-05
vn -1 0 1.859888E-05
vn 2.012862E-05 0 0.9999999
vn 2.012862E-05 0 1
vn -2.0918E-05 0 -1
vn -2.0918E-05 0 -1
vn 1 0 -1.968581E-05
vn 1 0 -1.968581E-05

vt -0.7458618 0.0004995167
vt 0.9765262 0.0004995167
vt 0.9765262 0.3327354
vt -0.7458618 0.3327354
vt 0.9765265 0.6694693
vt -0.7458615 0.6694693
vt 1.368441 0.9995005
vt 0.3694652 0.9995005
vt 0.3694652 0.6694693
vt 0.9765265 0.9995005
vt -0.7458615 0.9995005
vt 0.0005250871 0.1529166
vt 0.9995005 0.1529166
vt 0.9995003 0.6396912
vt 0.0005248785 0.6396912
vt 0.09156317 0.1529166
vt 1.84417 0.1529166
vt 1.844169 0.6396914
vt 0.09156293 0.6396912
vt -0.844142 0.1529166
vt 0.9084632 0.1529166
vt 0.9084635 0.6396912
vt -0.8441416 0.6396914
vt 0.000523746 0.1529166
vt 0.9995002 0.1529166
vt 0.9995004 0.6396914
vt 0.0005239546 0.6396914
vt 0.9995003 1.151918
vt 0.0005248785 1.151918
vt 1.844169 1.151918
vt 0.09156293 1.151918
vt 0.9084635 1.151918
vt -0.8441416 1.151918
vt 0.9995004 1.151918
vt 0.0005239546 1.151918

usemtl sn17_19_s17gsc68.JPG
usemap sn17_19_s17gsc68.JPG
f 3/3/3 1/1/1 2/2/2
f 1/1/1 3/3/3 4/4/4
f 5/5/5 4/4/4 3/3/3
f 4/4/4 5/5/5 6/6/6
f 9/9/9 7/7/7 8/8/8
f 10/10/10 6/6/6 5/5/5
f 6/6/6 10/10/10 11/11/11

usemtl sn17_18_s17gsc71.JPG
usemap sn17_18_s17gsc71.JPG
f 14/14/14 12/12/12 13/13/13
f 12/12/12 14/14/14 15/15/15
f 18/18/18 16/16/16 17/17/17
f 16/16/16 18/18/18 19/19/19
f 22/22/22 20/20/20 21/21/21
f 20/20/20 22/22/22 23/23/23
f 26/26/26 24/24/24 25/25/25
f 24/24/24 26/26/26 27/27/27
f 28/28/28 15/15/15 14/14/14
f 15/15/15 28/28/28 29/29/29
f 30/30/30 19/19/19 18/18/18
f 19/19/19 30/30/30 31/31/31
f 32/32/32 23/23/23 22/22/22
f 23/23/23 32/32/32 33/33/33
f 34/34/34 27/27/27 26/26/26
f 27/27/27 34/34/34 35/35/35
