mtllib ./Shape27.mtl
g Shape27
v -257.7416 200.8909 -53.96255
v -184.0326 200.8909 -53.96262
v -184.0326 200.8909 -252.6882
v -257.7416 200.8909 -252.6882
v -258.7675 -500.2452 -54.00833
v -257.7416 200.8909 -53.96255
v -257.7416 200.8909 -252.6882
v -257.7416 -0.0003388822 -252.6882
v 194.1932 -0.0003391057 -252.6882
v 194.1932 200.8909 -252.6882
v 257.7421 200.8909 -252.6882
v 257.7421 -0.0003393292 -252.6882
v -257.597 -98.4951 -251.6737
v 194.3377 -98.4951 -251.6737
v 257.8866 -98.4951 -251.6738
v -259.0693 -200.2181 -252.3204
v -258.7675 -500.2452 -54.00833
v 256.4142 -200.2181 -252.3206
v 192.8654 -200.2181 -252.3206
v 194.3377 -98.4951 -251.6737
v 257.8866 -98.4951 -251.6738
v -259.6061 -302.7862 -252.9587
v -258.7675 -500.2452 -54.00833
v 255.8771 -302.7862 -252.9587
v 192.3283 -302.7862 -252.9587
v -259.3137 -399.9117 -252.5514
v -258.7675 -500.2452 -54.00833
v 192.6208 -399.9117 -252.5513
v 256.1696 -399.9117 -252.5512
v -259.2769 -500.7958 -254.211
v -258.7675 -500.2452 -54.00833
v 192.6575 -500.7958 -254.2109
v 256.2063 -500.7958 -254.2109
v -257.7417 200.8909 61.85614
v -184.0327 200.8909 61.85608
v -257.7417 200.8909 252.6881
v -184.0327 200.8909 254.8094
v -184.0327 200.8909 175.8866
v -257.7417 200.8909 175.8867
v -258.7675 -500.2452 61.81039
v -257.7417 200.8909 61.85614
v -258.7676 -500.2452 252.6422
v -257.7417 200.8909 252.6881
v -257.7417 200.8909 175.8867
v -258.7675 -500.2452 175.8409
v 257.7421 -0.0003393292 -252.6882
v 257.7421 200.8909 -252.6882
v 257.7419 200.8909 -53.96274
v 257.742 -0.0003391057 -53.96271
v 257.8866 -98.4951 -251.6738
v 257.8865 -98.4951 -52.94827
v 256.4142 -200.2181 -53.59512
v 256.4142 -200.2181 -252.3206
v 257.8866 -98.4951 -251.6738
v 257.8865 -98.4951 -52.94827
v 255.8771 -302.7862 -54.23325
v 255.8771 -302.7862 -252.9587
v 256.1696 -399.9117 -252.5512
v 256.1696 -399.9117 -53.82581
v 256.2063 -500.7958 -55.48547
v 256.2063 -500.7958 -254.2109
v 257.7418 200.8909 61.85587
v 257.7419 -0.0003391057 61.85593
v 257.8864 -98.4951 62.8703
v 256.4141 -200.2181 62.22348
v 257.8864 -98.4951 62.8703
v 255.8771 -302.7862 61.58536
v 256.1696 -399.9117 61.99277
v 256.2063 -500.7958 60.33304
v -113.3624 200.8909 254.8093
v -113.3624 200.8909 175.8866
v 257.7416 200.8909 254.8991
v 257.7417 200.8909 175.8863
v 194.1929 200.8909 175.8864
v 194.1928 200.8909 254.8993
v -113.3622 200.8909 -53.96262
v -113.3557 200.8909 -252.6882
v 257.7419 200.8909 -53.96274
v 257.7421 200.8909 -252.6882
v 194.1932 200.8909 -252.6882
v 194.1931 200.8909 -53.96268
v 115.1915 -0.0003391057 -252.6882
v 115.1915 200.8909 -252.6882
v -257.7416 -0.0003388822 -252.6882
v -257.7416 200.8909 -252.6882
v -184.0326 200.8909 -252.6882
v -184.0326 -0.0003391057 -252.6882
v 115.336 -98.4951 -251.6737
v -257.597 -98.4951 -251.6737
v -183.8881 -98.4951 -251.6737
v 113.8637 -200.218 -252.3206
v 115.336 -98.4951 -251.6737
v -185.3602 -200.2181 -252.3205
v -259.0693 -200.2181 -252.3204
v -257.597 -98.4951 -251.6737
v -183.8881 -98.4951 -251.6737
v 113.3267 -302.7862 -252.9587
v -185.8972 -302.7862 -252.9587
v -259.6061 -302.7862 -252.9587
v 113.6192 -399.9117 -252.5513
v -259.3137 -399.9117 -252.5514
v -185.6047 -399.9117 -252.5513
v 113.6559 -500.7957 -254.2109
v -259.2769 -500.7958 -254.211
v -185.568 -500.7958 -254.211
v -113.3623 200.8909 61.85605
v 257.7418 200.8909 61.85587
v 194.193 200.8909 61.85593
v 50.06213 200.8909 254.8092
v 50.06213 200.8909 175.8864
v 0 200.8909 175.8865
v -6.103516E-05 200.8909 254.8092
v 50.06232 200.8909 -53.96268
v 50.06885 200.8909 -252.6882
v 0.0002441406 200.8909 -252.6882
v 0.0001220703 200.8909 -53.96265
v -48.23315 -0.0003391057 -252.6882
v -48.23315 200.8909 -252.6882
v 0.0002441406 200.8909 -252.6882
v 0.0002441406 -0.0003391057 -252.6882
v -48.08862 -98.4951 -251.6737
v 0.1447754 -98.4951 -251.6737
v -1.327515 -200.2181 -252.3205
v -49.56085 -200.218 -252.3205
v -48.08862 -98.4951 -251.6737
v 0.1447754 -98.4951 -251.6737
v -50.09784 -302.7862 -252.9587
v -1.864502 -302.7862 -252.9587
v -49.80536 -399.9117 -252.5513
v -1.572021 -399.9117 -252.5513
v -49.76862 -500.7957 -254.2109
v -1.535278 -500.7958 -254.2109
v 50.06226 200.8909 61.85599
v 6.103516E-05 200.8909 61.85599
v 115.1848 200.8909 254.8993
v 115.1848 200.8909 175.8864
v -48.23987 200.8909 254.8093
v -48.23981 200.8909 175.8866
v -48.23969 200.8909 -53.96262
v -48.23315 200.8909 -252.6882
v -113.3557 -0.0003391057 -252.6882
v -113.3557 200.8909 -252.6882
v 50.06885 -0.0003391057 -252.6882
v 50.06885 200.8909 -252.6882
v 115.185 200.8909 -53.96268
v 115.1915 200.8909 -252.6882
v -113.2112 -98.4951 -251.6737
v 50.21338 -98.4951 -251.6737
v -114.6835 -200.218 -252.3205
v -113.2112 -98.4951 -251.6737
v 48.74109 -200.218 -252.3205
v 50.21338 -98.4951 -251.6737
v -115.2204 -302.7862 -252.9587
v 48.2041 -302.7862 -252.9587
v -114.9279 -399.9117 -252.5513
v 48.49658 -399.9117 -252.5513
v -114.8912 -500.7957 -254.211
v 48.53326 -500.7957 -254.2109
v 115.1849 200.8909 61.85596
v -48.23975 200.8909 61.85602
v -258.7675 -500.3556 666.1722
v -257.7416 200.768 667.4004
v -98.7785 610.2076 1031.964
v -75.29712 610.2076 698.0668
v -75.29712 200.7555 698.0668
v -76.58929 200.7555 1031.964
v 155.7894 610.2076 1031.957
v 179.2708 610.2076 698.0598
v -75.29712 610.2076 698.0668
v -98.7785 610.2076 1031.964
v 155.7894 531.4637 1031.957
v 179.2708 531.4637 698.0598
v 179.2708 610.2076 698.0598
v 155.7894 610.2076 1031.957
v -98.7785 544.6312 1031.964
v 155.7894 531.4637 1031.957
v 155.7894 610.2076 1031.957
v -98.7785 610.2076 1031.964
v -98.7785 526.5327 1032.364
v 155.7894 526.5327 1032.357

vn -1.268631E-07 1 2.972857E-08
vn -1.056854E-07 0.9999999 -2.997713E-14
vn -5.284148E-08 0.9999999 1.959937E-08
vn 1.589518E-14 1 7.678321E-08
vn -0.9999986 0.001047882 -0.001357528
vn -0.999999 0.001463055 -1.417948E-07
vn -0.9999987 0.001137293 -0.001149686
vn -0.9999792 -0.0005047543 -0.006433956
vn -4.754367E-08 -0.003554768 -0.9999937
vn 0 0 -1
vn 0 0 -1
vn -5.94415E-08 -0.005099085 -0.9999869
vn -0.9999492 0.006644558 0.007584035
vn -2.221082E-07 -0.01029878 -0.999947
vn -2.40111E-07 -0.01029868 -0.999947
vn -0.9998208 0.009730537 0.01624303
vn -0.9996286 0.01432013 0.02318636
vn -5.606902E-07 0.00631249 -0.9999801
vn -2.400706E-07 0.006281033 -0.9999803
vn -4.442074E-07 0.006358614 -0.9999798
vn -2.401062E-07 0.006358819 -0.9999798
vn -0.9999845 0.001217506 0.00542386
vn -0.999943 0.005175738 0.009352245
vn 4.85742E-08 0.001155069 -0.9999994
vn 0 1.943011E-05 -1
vn -0.9999968 -0.001674707 0.001904739
vn -0.9999948 -0.003006184 0.001231873
vn 2.864882E-07 0.006696452 -0.9999776
vn 7.972711E-07 0.009741583 -0.9999526
vn -0.9999967 -0.0004060917 0.002545832
vn -0.9999967 -0.0004060917 0.002545832
vn 4.461349E-07 0.01644881 -0.9998648
vn 4.7833E-07 0.01644902 -0.9998647
vn -2.070138E-07 1 -7.310554E-14
vn -1.056854E-07 1 -3.751616E-14
vn -1.02097E-07 1 -9.798603E-08
vn 0 1 0
vn -7.447814E-08 1 -2.876725E-08
vn -2.07014E-07 1 -5.005142E-08
vn -0.9999989 0.00146302 -3.535781E-07
vn -0.999999 0.00146302 -3.554167E-07
vn -0.9999989 0.001463153 3.921782E-07
vn -0.9999989 0.001463137 5.792311E-07
vn -0.9999989 0.001463103 -2.283359E-07
vn -0.9999989 0.001463045 -4.006186E-07
vn 0.9999999 0.0002889032 5.223609E-07
vn 1 0 6.142662E-07
vn 1 9.309481E-08 6.540295E-07
vn 0.9999999 0.0005414534 6.449004E-07
vn 0.9999989 0.001467094 4.606748E-07
vn 0.9999989 0.001467095 6.381674E-07
vn 0.9999475 -0.01024099 4.848575E-07
vn 0.9999655 -0.00829814 3.066995E-07
vn 0.9998953 -0.01447232 4.606513E-07
vn 0.9998953 -0.01447231 6.381349E-07
vn 0.9999993 -0.00122474 9.161651E-08
vn 0.9999993 -0.00122502 0
vn 0.9999986 0.001662431 3.912031E-08
vn 0.9999986 0.001662355 0
vn 0.9999999 0.000363723 5.945724E-08
vn 0.9999999 0.0003639068 1.535665E-07
vn 1 2.278667E-07 9.222309E-07
vn 0.9999998 0.0007265091 7.904629E-07
vn 0.9999989 0.001467097 7.904416E-07
vn 0.9999353 -0.01137642 7.904328E-07
vn 0.9998952 -0.01447232 7.904013E-07
vn 0.9999992 -0.001224334 2.030069E-07
vn 0.9999986 0.001662355 0
vn 0.9999999 0.0003636068 0
vn 0 1 0
vn 0 0.9999999 0
vn 1.200555E-07 1 -9.655884E-08
vn 2.401112E-07 1 -4.969072E-08
vn 7.089274E-08 1 -2.333746E-08
vn 0 1 0
vn 0 0.9999999 0
vn 0 1 0
vn 1.471459E-07 0.9999999 2.972872E-08
vn 0 1 7.678327E-08
vn 7.403606E-08 1 2.367546E-08
vn 9.671267E-08 1 7.543823E-14
vn 0 -0.003244084 -0.9999948
vn 0 0 -1
vn -2.070155E-07 -0.002027833 -0.9999979
vn -2.070138E-07 0 -1
vn -1.399279E-07 0 -0.9999999
vn -1.170941E-07 -0.003420393 -0.9999942
vn -1.367729E-07 -0.01029903 -0.999947
vn -3.105208E-07 -0.01029922 -0.999947
vn -1.419008E-07 -0.01029914 -0.999947
vn -1.452054E-07 0.006289789 -0.9999803
vn -1.363353E-07 0.006358711 -0.9999798
vn -4.214251E-07 0.006303601 -0.9999801
vn -6.204593E-07 0.00626716 -0.9999803
vn -6.210291E-07 0.006358074 -0.9999799
vn -1.423492E-07 0.006358218 -0.9999799
vn 6.895064E-08 0.001322286 -0.9999991
vn -6.670747E-08 0.001879037 -0.9999982
vn -2.07143E-07 0.001156556 -0.9999993
vn 1.409725E-07 0.005992484 -0.9999821
vn 4.869598E-07 0.002863088 -0.9999958
vn 3.890187E-07 0.006396451 -0.9999795
vn 2.711122E-09 0.01644872 -0.9998648
vn 7.232325E-07 0.01644864 -0.9998647
vn 2.095513E-07 0.01644872 -0.9998647
vn 0 1 0
vn 2.401111E-07 1 2.331826E-13
vn 1.067289E-07 1 9.47165E-14
vn -9.233938E-08 1 -5.857259E-08
vn -1.416047E-07 1 -8.446244E-14
vn 6.12243E-08 0.9999999 -5.277946E-08
vn 1.041257E-07 1 -1.296936E-07
vn -8.9339E-08 0.9999999 1.421896E-08
vn 0 1 0
vn -1.028468E-07 1 5.087107E-08
vn -3.816656E-08 1 3.239417E-08
vn 0 -0.003618209 -0.9999934
vn 0 0 -1
vn 0 0 -1
vn 0 -0.003360229 -0.9999943
vn 0 -0.01029914 -0.999947
vn 0 -0.01029914 -0.999947
vn -2.081873E-07 0.00628979 -0.9999802
vn -1.704471E-07 0.006289789 -0.9999802
vn -1.882547E-07 0.006358308 -0.9999798
vn -6.53925E-10 0.006358515 -0.9999799
vn -4.612457E-09 0.0008969883 -0.9999997
vn -2.590588E-10 0.00118802 -0.9999992
vn 2.708706E-07 0.006836072 -0.9999766
vn 2.09066E-09 0.006259885 -0.9999804
vn 1.927941E-07 0.01644872 -0.9998648
vn 2.058936E-07 0.01644862 -0.9998647
vn -1.328608E-07 1 -9.383785E-14
vn 8.051099E-10 1 -2.74805E-14
vn 0 1 0
vn 0 1 0
vn 0 1 0
vn 8.89313E-08 1 -2.223346E-08
vn 1.211901E-07 1 1.873437E-12
vn 9.442568E-08 1 2.29215E-08
vn 0 -0.003450755 -0.9999941
vn 0 0 -0.9999999
vn 0 -0.003193282 -0.9999949
vn 0 0 -1
vn 0 1 0
vn 0 1 0
vn 0 -0.01029914 -0.999947
vn 0 -0.01029914 -0.9999469
vn -4.148353E-10 0.006289788 -0.9999802
vn 0 0.006358216 -0.9999797
vn -1.851172E-07 0.006289789 -0.9999802
vn -1.692435E-07 0.006358627 -0.9999798
vn 0 0.001084968 -0.9999995
vn -9.05489E-08 0.00138202 -0.9999991
vn 1.483496E-07 0.006464846 -0.9999791
vn 2.647969E-07 0.005874079 -0.9999828
vn 3.010729E-07 0.01644872 -0.9998648
vn 3.346439E-07 0.01644853 -0.9998647
vn 0 0.9999999 0
vn 1.34201E-07 0.9999999 7.145795E-14
vn -0.9999989 0.001463134 6.330476E-07
vn -0.9999989 0.001463103 5.806174E-07
vn -0.9989464 -0.02706767 -0.03705854
vn -0.9975363 0 -0.070152
vn -0.9989464 -0.02706767 -0.03705854
vn -0.9985274 -0.05411264 -0.003864284
vn 0 1 0
vn 0 1 0
vn 0 1 0
vn 0 1 0
vn 0.9975364 0 0.0701521
vn 0.9975364 0 0.0701521
vn 0.9975364 0 0.0701521
vn 0.9975364 0 0.0701521
vn 0.0001547262 0.002462911 0.999997
vn 0.0002306319 0.007860834 0.999969
vn 2.733262E-05 0 1
vn 2.733262E-05 0 1
vn 0.0009252373 0.03471915 0.9993967
vn 2.724312E-05 0.08085827 0.9967256

vt 1.788709 0.2301874
vt 1.420164 0.2301873
vt 1.420163 -0.7634405
vt 1.788709 -0.7634405
vt 0.4178761 0.00224591
vt 0.4179713 1.749126
vt 0.004497145 1.749126
vt 0.004497145 1.248605
vt 0.2478037 0.3291601
vt 0.2478037 0.8891586
vt 0.0015589 0.8891586
vt 0.0015589 0.3291601
vt 0.006607899 1.003206
vt 0.2472438 0.0004995465
vt 0.0009989738 0.0004995465
vt 0.00526222 0.7497633
vt 0.4178761 0.00224591
vt 0.006683528 0.7469
vt 0.2520409 0.7469
vt 0.2463565 0.9995005
vt 0.0009990335 0.9995005
vt 0.003934298 0.4942149
vt 0.4178761 0.00224591
vt 0.008757293 0.4922008
vt 0.2541144 0.4922008
vt 0.00478166 0.2522267
vt 0.4178761 0.00224591
vt 0.2529852 0.2510167
vt 0.007628024 0.2510167
vt 0.001328635 0.0008742064
vt 0.4178761 0.00224591
vt 0.2528434 0.0004994869
vt 0.007486284 0.0004994869
vt 1.788709 0.809281
vt 1.420164 0.8092808
vt 1.78871 1.76344
vt 1.420165 1.76344
vt 1.420165 1.379433
vt 1.78871 1.379434
vt 0.6588519 0.00224591
vt 0.6589471 1.749126
vt 1.055902 0.00224591
vt 1.055997 1.749126
vt 0.8962024 1.749126
vt 0.8961071 0.00224591
vt 1.999001 0.3291601
vt 1.999001 0.8891586
vt 1.214915 0.8891586
vt 1.214914 0.3291601
vt 1.994998 0.0004995465
vt 1.210912 0.0004995465
vt 1.209829 0.7469
vt 1.991564 0.7469
vt 1.98902 0.9995005
vt 1.207284 0.9995005
vt 1.212339 0.4922008
vt 1.994074 0.4922008
vt 1.992471 0.2510167
vt 1.210736 0.2510167
vt 1.217265 0.0004994869
vt 1.999 0.0004994869
vt 0.7579437 0.8891586
vt 0.7579435 0.3291601
vt 0.7539412 0.0004995465
vt 0.7542281 0.7469
vt 0.7516837 0.9995005
vt 0.7567384 0.4922008
vt 0.7551358 0.2510167
vt 0.7616646 0.0004994869
vt 1.066813 1.76344
vt 1.066813 1.379433
vt -0.7887068 1.763438
vt -0.7887074 1.379432
vt -0.4709632 1.379433
vt -0.4709628 1.763439
vt 1.066812 0.2301874
vt 1.066779 -0.7634404
vt -0.7887088 0.2301873
vt -0.7887096 -0.7634399
vt -0.4709651 -0.76344
vt -0.4709645 0.2301874
vt 0.5539263 0.3291601
vt 0.5539263 0.8891586
vt 1.999 0.3291601
vt 1.999 0.8891586
vt 1.713386 0.8891586
vt 1.713386 0.3291601
vt 0.5533663 0.0004995465
vt 1.99844 0.0004995465
vt 1.712826 0.0004995465
vt 0.5570604 0.7469001
vt 0.551376 0.9995005
vt 1.712342 0.7469
vt 1.996927 0.7469
vt 1.991243 0.9995005
vt 1.706658 0.9995005
vt 0.5591338 0.4922008
vt 1.714415 0.4922008
vt 1.999 0.4922008
vt 0.5580046 0.2510167
vt 1.997871 0.2510167
vt 1.713286 0.2510167
vt 0.5578628 0.0004995465
vt 1.997729 0.0004994869
vt 1.713144 0.0004994869
vt 1.066812 0.8092807
vt -0.7887081 0.8092802
vt -0.4709638 0.8092805
vt 0.2496907 1.763439
vt 0.2496904 1.379433
vt 0.5000011 1.379433
vt 0.5000014 1.763439
vt 0.2496893 0.2301873
vt 0.2496565 -0.7634403
vt 0.4999996 -0.7634403
vt 0.5000001 0.2301874
vt 1.187178 0.3291601
vt 1.187178 0.8891586
vt 1.00028 0.8891586
vt 1.00028 0.3291601
vt 1.186618 0.0004995465
vt 0.9997196 0.0004995465
vt 1.001805 0.7469
vt 1.188031 0.7469001
vt 1.182346 0.9995005
vt 0.996121 0.9995005
vt 1.190104 0.4922008
vt 1.003879 0.4922008
vt 1.188975 0.2510167
vt 1.002749 0.2510167
vt 1.188833 0.0004995465
vt 1.002607 0.0004994869
vt 0.2496898 0.8092805
vt 0.5000006 0.8092806
vt -0.07592249 1.763439
vt -0.07592285 1.379433
vt 0.7412004 1.76344
vt 0.7412001 1.379433
vt 0.7411991 0.2301874
vt 0.7411665 -0.7634404
vt 1.439521 0.3291601
vt 1.439521 0.8891586
vt 0.8062693 0.3291601
vt 0.8062693 0.8891586
vt -0.07592404 0.2301873
vt -0.07595688 -0.7634401
vt 1.438961 0.0004995465
vt 0.8057093 0.0004995465
vt 1.439464 0.7469001
vt 1.43378 0.9995005
vt 0.8084941 0.7469001
vt 0.8028098 0.9995005
vt 1.441537 0.4922008
vt 0.8105675 0.4922008
vt 1.440408 0.2510167
vt 0.8094382 0.2510167
vt 1.440266 0.0004995465
vt 0.8092964 0.0004995465
vt -0.07592338 0.8092805
vt 0.7411996 0.8092806
vt 1.916305 0.001971006
vt 1.91886 1.74882
vt 0.9995004 0.99947
vt 0.08453393 0.99947
vt 0.08453393 0.0004994869
vt 0.9995004 0.0004994869
vt -0.2702881 1.612967
vt -0.4268314 -0.6130124
vt 1.270288 -0.6129661
vt 1.426831 1.613013
vt 0.0005203187 0.6293766
vt 0.9995004 0.6293766
vt 0.9995004 0.9995005
vt 0.0005203187 0.9995005
vt 0.0004995465 0.2165787
vt 0.9995004 0.2165787
vt 0.9995004 0.9995
vt 0.0004995465 0.9995
vt 0.0004995763 0.0004991293
vt 0.9995005 0.0004991293

usemtl sn17_00_s17gsc03.JPG
usemap sn17_00_s17gsc03.JPG
f 3/3/3 1/1/1 2/2/2
f 1/1/1 3/3/3 4/4/4
f 2/2/2 34/34/34 35/35/35
f 34/34/34 2/2/2 1/1/1
f 38/38/38 36/36/36 37/37/37
f 36/36/36 38/38/38 39/39/39
f 35/35/35 39/39/39 38/38/38
f 39/39/39 35/35/35 34/34/34
f 38/38/38 70/70/70 71/71/71
f 70/70/70 38/38/38 37/37/37
f 74/74/74 72/72/72 73/73/73
f 72/72/72 74/74/74 75/75/75
f 3/3/3 76/76/76 77/77/77
f 76/76/76 3/3/3 2/2/2
f 80/80/80 78/78/78 79/79/79
f 78/78/78 80/80/80 81/81/81
f 2/2/2 106/106/106 76/76/76
f 106/106/106 2/2/2 35/35/35
f 81/81/81 107/107/107 78/78/78
f 107/107/107 81/81/81 108/108/108
f 35/35/35 71/71/71 106/106/106
f 71/71/71 35/35/35 38/38/38
f 108/108/108 73/73/73 107/107/107
f 73/73/73 108/108/108 74/74/74
f 111/111/111 109/109/109 110/110/110
f 109/109/109 111/111/111 112/112/112
f 115/115/115 113/113/113 114/114/114
f 113/113/113 115/115/115 116/116/116
f 116/116/116 133/133/133 113/113/113
f 133/133/133 116/116/116 134/134/134
f 134/134/134 110/110/110 133/133/133
f 110/110/110 134/134/134 111/111/111
f 110/110/110 135/135/135 136/136/136
f 135/135/135 110/110/110 109/109/109
f 136/136/136 75/75/75 74/74/74
f 75/75/75 136/136/136 135/135/135
f 71/71/71 137/137/137 138/138/138
f 137/137/137 71/71/71 70/70/70
f 138/138/138 112/112/112 111/111/111
f 112/112/112 138/138/138 137/137/137
f 77/77/77 139/139/139 140/140/140
f 139/139/139 77/77/77 76/76/76
f 140/140/140 116/116/116 115/115/115
f 116/116/116 140/140/140 139/139/139
f 114/114/114 145/145/145 146/146/146
f 145/145/145 114/114/114 113/113/113
f 146/146/146 81/81/81 80/80/80
f 81/81/81 146/146/146 145/145/145
f 113/113/113 159/159/159 145/145/145
f 159/159/159 113/113/113 133/133/133
f 145/145/145 108/108/108 81/81/81
f 108/108/108 145/145/145 159/159/159
f 76/76/76 160/160/160 139/139/139
f 160/160/160 76/76/76 106/106/106
f 139/139/139 134/134/134 116/116/116
f 134/134/134 139/139/139 160/160/160
f 133/133/133 136/136/136 159/159/159
f 136/136/136 133/133/133 110/110/110
f 159/159/159 74/74/74 108/108/108
f 74/74/74 159/159/159 136/136/136
f 106/106/106 138/138/138 160/160/160
f 138/138/138 106/106/106 71/71/71
f 160/160/160 111/111/111 134/134/134
f 111/111/111 160/160/160 138/138/138
f 169/169/169 167/167/167 168/168/168
f 167/167/167 169/169/169 170/170/170

usemtl sn17_01_s17gsc06.JPG
usemap sn17_01_s17gsc06.JPG
f 7/7/7 5/5/5 6/6/6
f 5/5/5 7/7/7 8/8/8
f 11/11/11 9/9/9 10/10/10
f 9/9/9 11/11/11 12/12/12
f 13/13/13 5/5/5 8/8/8
f 12/12/12 14/14/14 9/9/9
f 14/14/14 12/12/12 15/15/15
f 17/17/17 13/13/13 16/16/16
f 20/20/20 18/18/18 19/19/19
f 18/18/18 20/20/20 21/21/21
f 23/23/23 16/16/16 22/22/22
f 19/19/19 24/24/24 25/25/25
f 24/24/24 19/19/19 18/18/18
f 27/27/27 22/22/22 26/26/26
f 24/24/24 28/28/28 25/25/25
f 28/28/28 24/24/24 29/29/29
f 31/31/31 26/26/26 30/30/30
f 29/29/29 32/32/32 28/28/28
f 32/32/32 29/29/29 33/33/33
f 6/6/6 40/40/40 41/41/41
f 40/40/40 6/6/6 5/5/5
f 44/44/44 42/42/42 43/43/43
f 42/42/42 44/44/44 45/45/45
f 48/48/48 46/46/46 47/47/47
f 46/46/46 48/48/48 49/49/49
f 49/49/49 50/50/50 46/46/46
f 50/50/50 49/49/49 51/51/51
f 54/54/54 52/52/52 53/53/53
f 52/52/52 54/54/54 55/55/55
f 53/53/53 56/56/56 57/57/57
f 56/56/56 53/53/53 52/52/52
f 56/56/56 58/58/58 57/57/57
f 58/58/58 56/56/56 59/59/59
f 58/58/58 60/60/60 61/61/61
f 60/60/60 58/58/58 59/59/59
f 41/41/41 45/45/45 44/44/44
f 45/45/45 41/41/41 40/40/40
f 62/62/62 49/49/49 48/48/48
f 49/49/49 62/62/62 63/63/63
f 63/63/63 51/51/51 49/49/49
f 51/51/51 63/63/63 64/64/64
f 55/55/55 65/65/65 52/52/52
f 65/65/65 55/55/55 66/66/66
f 52/52/52 67/67/67 56/56/56
f 67/67/67 52/52/52 65/65/65
f 67/67/67 59/59/59 56/56/56
f 59/59/59 67/67/67 68/68/68
f 59/59/59 69/69/69 60/60/60
f 69/69/69 59/59/59 68/68/68
f 10/10/10 82/82/82 83/83/83
f 82/82/82 10/10/10 9/9/9
f 86/86/86 84/84/84 85/85/85
f 84/84/84 86/86/86 87/87/87
f 9/9/9 88/88/88 82/82/82
f 88/88/88 9/9/9 14/14/14
f 87/87/87 89/89/89 84/84/84
f 89/89/89 87/87/87 90/90/90
f 92/92/92 19/19/19 91/91/91
f 19/19/19 92/92/92 20/20/20
f 95/95/95 93/93/93 94/94/94
f 93/93/93 95/95/95 96/96/96
f 19/19/19 97/97/97 91/91/91
f 97/97/97 19/19/19 25/25/25
f 94/94/94 98/98/98 99/99/99
f 98/98/98 94/94/94 93/93/93
f 25/25/25 100/100/100 97/97/97
f 100/100/100 25/25/25 28/28/28
f 98/98/98 101/101/101 99/99/99
f 101/101/101 98/98/98 102/102/102
f 28/28/28 103/103/103 100/100/100
f 103/103/103 28/28/28 32/32/32
f 102/102/102 104/104/104 101/101/101
f 104/104/104 102/102/102 105/105/105
f 119/119/119 117/117/117 118/118/118
f 117/117/117 119/119/119 120/120/120
f 120/120/120 121/121/121 117/117/117
f 121/121/121 120/120/120 122/122/122
f 125/125/125 123/123/123 124/124/124
f 123/123/123 125/125/125 126/126/126
f 123/123/123 127/127/127 124/124/124
f 127/127/127 123/123/123 128/128/128
f 128/128/128 129/129/129 127/127/127
f 129/129/129 128/128/128 130/130/130
f 130/130/130 131/131/131 129/129/129
f 131/131/131 130/130/130 132/132/132
f 118/118/118 141/141/141 142/142/142
f 141/141/141 118/118/118 117/117/117
f 142/142/142 87/87/87 86/86/86
f 87/87/87 142/142/142 141/141/141
f 83/83/83 143/143/143 144/144/144
f 143/143/143 83/83/83 82/82/82
f 144/144/144 120/120/120 119/119/119
f 120/120/120 144/144/144 143/143/143
f 117/117/117 147/147/147 141/141/141
f 147/147/147 117/117/117 121/121/121
f 141/141/141 90/90/90 87/87/87
f 90/90/90 141/141/141 147/147/147
f 82/82/82 148/148/148 143/143/143
f 148/148/148 82/82/82 88/88/88
f 143/143/143 122/122/122 120/120/120
f 122/122/122 143/143/143 148/148/148
f 150/150/150 124/124/124 149/149/149
f 124/124/124 150/150/150 125/125/125
f 96/96/96 149/149/149 93/93/93
f 149/149/149 96/96/96 150/150/150
f 152/152/152 91/91/91 151/151/151
f 91/91/91 152/152/152 92/92/92
f 126/126/126 151/151/151 123/123/123
f 151/151/151 126/126/126 152/152/152
f 124/124/124 153/153/153 149/149/149
f 153/153/153 124/124/124 127/127/127
f 149/149/149 98/98/98 93/93/93
f 98/98/98 149/149/149 153/153/153
f 91/91/91 154/154/154 151/151/151
f 154/154/154 91/91/91 97/97/97
f 151/151/151 128/128/128 123/123/123
f 128/128/128 151/151/151 154/154/154
f 127/127/127 155/155/155 153/153/153
f 155/155/155 127/127/127 129/129/129
f 153/153/153 102/102/102 98/98/98
f 102/102/102 153/153/153 155/155/155
f 97/97/97 156/156/156 154/154/154
f 156/156/156 97/97/97 100/100/100
f 154/154/154 130/130/130 128/128/128
f 130/130/130 154/154/154 156/156/156
f 129/129/129 157/157/157 155/155/155
f 157/157/157 129/129/129 131/131/131
f 155/155/155 105/105/105 102/102/102
f 105/105/105 155/155/155 157/157/157
f 100/100/100 158/158/158 156/156/156
f 158/158/158 100/100/100 103/103/103
f 156/156/156 132/132/132 130/130/130
f 132/132/132 156/156/156 158/158/158
f 161/161/161 43/43/43 42/42/42
f 43/43/43 161/161/161 162/162/162
f 165/165/165 163/163/163 164/164/164
f 163/163/163 165/165/165 166/166/166
f 173/173/173 171/171/171 172/172/172
f 171/171/171 173/173/173 174/174/174
f 177/177/177 175/175/175 176/176/176
f 175/175/175 177/177/177 178/178/178
f 176/176/176 179/179/179 180/180/180
f 179/179/179 176/176/176 175/175/175
