mtllib ./wy10.mtl
g wy10
v -203.4396 17.099 8.888916
v -203.4396 49.80884 8.888977
v -214.6942 10.63574 78.32135
v -240.5892 -19.08276 152.6812
v -240.5892 -51.79254 152.6812
v -212.9515 -19.42322 72.04645
v 273.9151 18.69861 8.888916
v 274.7381 46.75262 8.230225
v 272.9858 10.50922 72.90918
v 308.6849 -19.0827 153.1727
v 309.0403 -51.79254 152.6812
v 281.4026 -19.5498 72.32013
v -214.6942 10.50916 -62.46887
v -203.4396 49.80884 9.077637
v -203.4396 17.099 9.077637
v -212.9515 -19.5498 -56.19397
v -240.5892 -51.79254 -136.5428
v -240.5892 -19.0827 -136.5428
v 274.9047 18.69861 9.077637
v 281.4456 10.50916 -62.46887
v 275.7277 46.75262 8.418945
v 309.0403 -19.0827 -136.5428
v 281.4026 -19.5498 -56.19397
v 309.0403 -51.79254 -136.5428
v 278.1321 18.04474 8.069214
v -209.681 50.75452 8.069214
v 278.9551 46.09869 7.410522
v -209.681 18.04474 8.069214

vn 0.9868865 0.01130134 0.1610195
vn 0.9871163 -2.985619E-07 0.1600047
vn 0.9751987 0.002497024 0.2213172
vn 0.9459508 -0.006153094 0.3242521
vn 0.9459765 0 0.324235
vn 0.9604418 0.002333946 0.2784708
vn 0.9910902 0.1295449 0.03095699
vn 0.9995191 -0.02906875 0.01078968
vn 0.9757899 0.1876723 -0.1123081
vn 0.9383895 0.1366064 -0.3174331
vn 0.947377 0.01509628 -0.3197639
vn 0.9592665 0.1749072 -0.221845
vn 0.9760447 0.002902366 -0.2175507
vn 0.9878528 0 -0.1553927
vn 0.9876171 0.01177953 -0.1564406
vn 0.9609093 0.002743608 -0.2768499
vn 0.9456222 0 -0.325267
vn 0.9455924 -0.006267123 -0.3252932
vn 0.9957985 -0.003923358 0.09148654
vn 0.9832722 0.02275537 0.1807152
vn 0.9951997 -0.02698447 0.09407146
vn 0.9450849 0.03186861 0.3252675
vn 0.9658499 0.02772955 0.257614
vn 0.9456222 0 0.325267
vn -0.000726176 -0.01082973 -0.9999411
vn -0.000726176 -0.01082973 -0.9999411
vn -0.001570865 -0.02342689 -0.9997243
vn 0 0 -0.9999999

vt 0.5949821 0.06745598
vt 0.7829528 0.06745601
vt 0.7829527 0.5242761
vt 0.7829525 1.013848
vt 0.5949817 1.013848
vt 0.5949819 0.4854804
vt 0.5949821 0.06745598
vt 0.7829528 0.06745601
vt 0.7829527 0.5242761
vt 0.7829525 1.013848
vt 0.5949817 1.013848
vt 0.5949819 0.4854804
vt 0.7829527 0.5242761
vt 0.7829528 0.06745601
vt 0.5949821 0.06745598
vt 0.5949819 0.4854804
vt 0.5949817 1.013848
vt 0.7829525 1.013848
vt 0.5949821 0.06745598
vt 0.7829527 0.5242761
vt 0.7829528 0.06745601
vt 0.7829525 1.013848
vt 0.5949819 0.4854804
vt 0.5949817 1.013848
vt 0.5949821 0.01016129
vt 0.7829525 0.9850078
vt 0.7829528 0.01016132
vt 0.5949817 0.9850077

usemtl sn17_54_AQc08.bmp
usemap sn17_54_AQc08.bmp
f 3/3/3 1/1/1 2/2/2
f 6/6/6 4/4/4 5/5/5
f 3/3/3 4/4/4 6/6/6
f 1/1/1 3/3/3 6/6/6
f 9/9/9 7/7/7 8/8/8
f 12/12/12 10/10/10 11/11/11
f 9/9/9 10/10/10 12/12/12
f 7/7/7 9/9/9 12/12/12
f 15/15/15 13/13/13 14/14/14
f 18/18/18 16/16/16 17/17/17
f 18/18/18 13/13/13 16/16/16
f 13/13/13 15/15/15 16/16/16
f 21/21/21 19/19/19 20/20/20
f 24/24/24 22/22/22 23/23/23
f 23/23/23 22/22/22 20/20/20
f 23/23/23 20/20/20 19/19/19
f 27/27/27 25/25/25 26/26/26
f 28/28/28 26/26/26 25/25/25
