mtllib ./wy13.mtl
g wy13
v -173.1484 26.52966 1.307739
v -173.1484 59.2395 1.307739
v -183.252 20.06641 61.26208
v -218.1458 -9.6521 112.2803
v -218.1458 -42.36188 112.2803
v -181.5094 -9.992554 54.98706
v 177.7582 28.12927 1.307861
v 178.5811 56.18329 0.6491699
v 177.7129 19.93988 56.43213
v 190.7366 -9.652039 112.7717
v 191.0919 -42.36188 112.2803
v 177.6699 -10.11914 50.15723
v -185.2333 19.93982 -55.46552
v -173.1484 59.2395 1.49646
v -173.1484 26.52966 1.49646
v -183.4907 -10.11914 -49.19061
v -218.1458 -42.36188 -111.3042
v -218.1458 -9.652039 -111.3042
v 178.7477 28.12927 1.496582
v 177.7129 19.93982 -55.46558
v 179.5707 56.18329 0.8378906
v 191.0919 -9.652039 -111.3042
v 177.6699 -10.11914 -49.19061
v 191.0919 -42.36188 -111.3042
v 181.9752 27.4754 0.4880371
v -179.3898 60.18518 0.4880371
v 182.7982 55.52936 -0.1706543
v -179.3898 27.4754 0.4880371

vn 0.9858512 0.01064565 0.1672844
vn 0.9860958 -9.200062E-07 0.1661779
vn 0.9533842 -0.01535726 0.3013682
vn 0.8420066 -0.03046878 0.5386061
vn 0.8424799 -3.930086E-07 0.5387277
vn 0.901145 -0.01474804 0.4332667
vn 0.99989 -0.01476715 -0.00137237
vn 0.9995613 -0.02940444 -0.00354719
vn 0.9969957 0.006086193 -0.07721729
vn 0.9785171 0.02690296 -0.2044026
vn 0.9787992 0.01370377 -0.204363
vn 0.9894269 0.01849008 -0.1438495
vn 0.9494095 -0.01486026 -0.313689
vn 0.978227 -9.292963E-07 -0.2075379
vn 0.9780582 0.006335836 -0.2082352
vn 0.9114144 -0.01383976 -0.4112569
vn 0.873275 0 -0.4872276
vn 0.8729352 -0.02447204 -0.487222
vn 0.9997352 -0.01677777 -0.01575039
vn 0.9977528 0.004776716 0.0668302
vn 0.9994638 -0.02964672 -0.01389529
vn 0.9772036 0.02045531 0.2113167
vn 0.9897909 0.01269803 0.1419611
vn 0.9774399 0 0.2112139
vn -0.0009799668 -0.01082629 -0.999941
vn -0.0009799668 -0.01082629 -0.999941
vn -0.002119082 -0.0234108 -0.9997237
vn 0 0 -1

vt 0.5949821 0.06745598
vt 0.7829528 0.06745601
vt 0.7829527 0.5242761
vt 0.7829525 1.013848
vt 0.5949817 1.013848
vt 0.5949819 0.4854804
vt 0.5949821 0.06745598
vt 0.7829528 0.06745601
vt 0.7829527 0.5242761
vt 0.7829525 1.013848
vt 0.5949817 1.013848
vt 0.5949819 0.4854804
vt 0.7829527 0.5242761
vt 0.7829528 0.06745601
vt 0.5949821 0.06745598
vt 0.5949819 0.4854804
vt 0.5949817 1.013848
vt 0.7829525 1.013848
vt 0.5949821 0.06745598
vt 0.7829527 0.5242761
vt 0.7829528 0.06745601
vt 0.7829525 1.013848
vt 0.5949819 0.4854804
vt 0.5949817 1.013848
vt 0.5949821 0.01016129
vt 0.7829525 0.9850078
vt 0.7829528 0.01016132
vt 0.5949817 0.9850077

usemtl sn17_54_AQc08.bmp
usemap sn17_54_AQc08.bmp
f 3/3/3 1/1/1 2/2/2
f 6/6/6 4/4/4 5/5/5
f 3/3/3 4/4/4 6/6/6
f 1/1/1 3/3/3 6/6/6
f 9/9/9 7/7/7 8/8/8
f 12/12/12 10/10/10 11/11/11
f 9/9/9 10/10/10 12/12/12
f 7/7/7 9/9/9 12/12/12
f 15/15/15 13/13/13 14/14/14
f 18/18/18 16/16/16 17/17/17
f 18/18/18 13/13/13 16/16/16
f 13/13/13 15/15/15 16/16/16
f 21/21/21 19/19/19 20/20/20
f 24/24/24 22/22/22 23/23/23
f 23/23/23 22/22/22 20/20/20
f 23/23/23 20/20/20 19/19/19
f 27/27/27 25/25/25 26/26/26
f 28/28/28 26/26/26 25/25/25
