mtllib ./yz03.mtl
g yz03
v -8.38443 -0.08781433 -1.428696
v -1.70726 61.55916 -1.285309
v -1.707184 61.61118 -108.1849
v 0.1232147 -0.03581238 -108.3283
v -7.7173 -63.00575 -0.5399475
v 0.1238708 -62.95374 -107.4395
v -0.1236115 1.359512 107.4403
v -1.954041 63.0065 107.5838
v -0.1229706 -61.55842 108.3291

vn -0.9995639 0.0274588 0.01087312
vn -0.9977902 0.06183911 0.02429939
vn -0.9984364 0.0393416 -0.0397117
vn -0.9969134 -0.01394586 -0.07726073
vn -0.9996055 -0.007473666 -0.02707342
vn -0.9973201 -0.001043749 -0.07315476
vn -0.9984241 0.0262875 0.04958149
vn -0.9995579 -0.02967463 -0.001871256
vn -0.9973462 -0.004265929 0.07268099

vt 0.9868208 0.4993008
vt 0.9881432 0.9880264
vt 0.002321541 0.9884387
vt 0.0009991527 0.4997131
vt 0.9950168 0.0004994571
vt 0.009195149 0.0009118319
vt 1.990805 0.510775
vt 1.992127 0.9995005
vt 1.999001 0.01197362

usemtl sn17_17_AmQc02.bmp
usemap sn17_17_AmQc02.bmp
f 3/3/3 1/1/1 2/2/2
f 1/1/1 3/3/3 4/4/4
f 4/4/4 5/5/5 1/1/1
f 5/5/5 4/4/4 6/6/6
f 2/2/2 7/7/7 8/8/8
f 7/7/7 2/2/2 1/1/1
f 1/1/1 9/9/9 7/7/7
f 9/9/9 1/1/1 5/5/5
