mtllib ./yz04.mtl
g yz04
v -8.384659 -0.08795166 -1.429535
v -1.707489 61.55902 -1.286163
v -1.707413 61.61105 -108.1857
v 0.1229858 -0.03594971 -108.3291
v -10.6122 -63.00589 -0.540802
v 0.123642 -62.95389 -107.4404
v -2.268036 1.359375 107.4395
v -1.954269 63.00635 107.5829
v -0.1231995 -61.55856 108.3282

vn -0.9992707 0.03716892 0.00874098
vn -0.9971449 0.07344566 0.01754288
vn -0.9984363 0.03934159 -0.0397117
vn -0.996272 0.001317388 -0.08625701
vn -0.9993573 0.02327159 -0.0272655
vn -0.9949937 -0.001421874 -0.09992713
vn -0.9989914 0.02622369 0.03644859
vn -0.9999844 0.005095083 -0.002334462
vn -0.9971048 0.00172915 0.07602042

vt 0.9868208 0.4993008
vt 0.9881432 0.9880264
vt 0.002321541 0.9884387
vt 0.0009991527 0.4997131
vt 0.9950168 0.0004994571
vt 0.009195149 0.0009118319
vt 1.990805 0.510775
vt 1.992127 0.9995005
vt 1.999001 0.01197362

usemtl sn17_17_AmQc02.bmp
usemap sn17_17_AmQc02.bmp
f 3/3/3 1/1/1 2/2/2
f 1/1/1 3/3/3 4/4/4
f 4/4/4 5/5/5 1/1/1
f 5/5/5 4/4/4 6/6/6
f 2/2/2 7/7/7 8/8/8
f 7/7/7 2/2/2 1/1/1
f 1/1/1 9/9/9 7/7/7
f 9/9/9 1/1/1 5/5/5
