mtllib ./yz10.mtl
g yz10
v -39.28827 15.95651 -10.79652
v -3.654175 29.10834 -1.058002
v 7.422729 22.63531 -56.1479
v -21.08139 4.453125 -67.37328
v -38.61438 -42.86087 8.304432
v -54.96786 -42.8255 -60.81184
v -17.01685 3.33905 69.189
v 3.773438 30.09293 72.07181
v -30.49341 -41.87631 73.43805
v -32.54144 -1.091888 -40.04222
v 1.582062 13.51846 -28.42367
v -6.361145 13.55383 -86.50308
v -23.18204 -15.61407 -98.67975
v -33.35666 -58.45078 -22.64698
v -41.09961 -58.41537 -90.71078
v -21.64813 3.509888 40.8371
v 7.294525 14.50305 46.40698
v -34.55646 -57.46619 42.21965

vn -0.8791156 0.4762205 0.01922316
vn -0.5199057 0.8509526 0.07468376
vn -0.3617156 0.9008976 -0.2398863
vn -0.8880125 0.4466915 -0.1090891
vn -0.9796867 0.199777 0.01741324
vn -0.7861327 0.5893088 0.1863071
vn -0.7609926 0.6033003 0.2385766
vn -0.7913074 0.607141 0.07219684
vn -0.9623117 0.1666592 0.2148972
vn -0.9225019 0.3852451 -0.02401384
vn -0.38696 0.9218509 0.02128281
vn -0.6198055 0.7778252 -0.1040635
vn -0.9590077 0.269599 -0.087297
vn -0.9928774 0.1158799 -0.02768396
vn -0.9104248 0.4004459 0.1037783
vn -0.7613574 0.644441 0.07092791
vn -0.3575583 0.9337702 0.01500935
vn -0.9903314 0.1245451 0.06109283

vt 0.4474157 0.7642366
vt 0.4487381 0.9912312
vt 0.002321541 0.9916435
vt 0.0009991527 0.7646488
vt 0.4556117 0.4906296
vt 0.009195149 0.4985898
vt 0.9947605 0.7757107
vt 0.993567 1.002705
vt 0.9928929 0.4769443
vt 0.4474157 0.2479593
vt 0.4487381 0.4749539
vt 0.002321541 0.4753663
vt 0.0009991527 0.2483715
vt 0.4556117 0.009846359
vt 0.009195149 0.01780656
vt 0.9947605 0.2594334
vt 0.993567 0.4864281
vt 0.9928929 -0.003838956

usemtl sn17_13_kmQc01.JPG
usemap sn17_13_kmQc01.JPG
f 3/3/3 1/1/1 2/2/2
f 1/1/1 3/3/3 4/4/4
f 4/4/4 5/5/5 1/1/1
f 5/5/5 4/4/4 6/6/6
f 2/2/2 7/7/7 8/8/8
f 7/7/7 2/2/2 1/1/1
f 1/1/1 9/9/9 7/7/7
f 9/9/9 1/1/1 5/5/5
f 12/12/12 10/10/10 11/11/11
f 10/10/10 12/12/12 13/13/13
f 13/13/13 14/14/14 10/10/10
f 14/14/14 13/13/13 15/15/15
f 11/11/11 16/16/16 17/17/17
f 16/16/16 11/11/11 10/10/10
f 10/10/10 18/18/18 16/16/16
f 18/18/18 10/10/10 14/14/14
