mtllib ./yz13.mtl
g yz13
v -8.38446 -0.08854675 -1.429108
v -1.707275 61.55843 -1.285706
v -1.707214 61.61044 -108.1853
v 0.1231689 -0.0365448 -108.3286
v -7.717346 -63.00648 -0.5403442
v 0.1238403 -62.95447 -107.4399
v -0.1236572 1.35878 107.44
v -1.954102 63.00577 107.5833
v -0.1229858 -61.55915 108.3287

vn -0.9995638 0.02745892 0.01087319
vn -0.9977902 0.06183919 0.02429925
vn -0.9984364 0.03934185 -0.03971157
vn -0.9969134 -0.01394578 -0.07726069
vn -0.9996055 -0.007473576 -0.02707333
vn -0.9973201 -0.001043975 -0.0731549
vn -0.9984241 0.02628733 0.04958125
vn -0.9995579 -0.02967488 -0.001871674
vn -0.9973462 -0.004266058 0.07268105

vt 0.9868208 0.4993008
vt 0.9881432 0.9880264
vt 0.002321541 0.9884387
vt 0.0009991527 0.4997131
vt 0.9950168 0.0004994571
vt 0.009195149 0.0009118319
vt 1.990805 0.510775
vt 1.992127 0.9995005
vt 1.999001 0.01197362

usemtl sn17_17_AmQc02.bmp
usemap sn17_17_AmQc02.bmp
f 3/3/3 1/1/1 2/2/2
f 1/1/1 3/3/3 4/4/4
f 4/4/4 5/5/5 1/1/1
f 5/5/5 4/4/4 6/6/6
f 2/2/2 7/7/7 8/8/8
f 7/7/7 2/2/2 1/1/1
f 1/1/1 9/9/9 7/7/7
f 9/9/9 1/1/1 5/5/5
