mtllib ./Box32.mtl
g Box32
v 99.1106 49.99997 -175.0004
v 99.1106 49.99997 -89.89798
v 174.9996 49.99997 -90.71939
v 174.9996 49.99997 -175.0004
v -175.0004 49.99997 -0.0003662109
v -93.66516 49.99997 -0.0003662109
v -93.18991 49.99997 -87.81656
v -92.71808 49.99997 -175.0004
v -175.0004 49.99997 -175.0004
v -175.0004 49.99997 -86.93106
v 99.1106 49.99997 -0.0003662109
v 99.1106 49.99997 96.44476
v 174.9996 49.99997 96.17096
v 174.9996 49.99997 -0.0003662109
v -175.0004 49.99997 174.9996
v -94.61223 49.99997 174.9996
v -94.19087 49.99997 97.14217
v -175.0004 49.99997 97.43372
v 99.1106 -3.433228E-05 -175.0004
v 99.1106 49.99997 -175.0004
v 174.9996 49.99997 -175.0004
v 174.9996 -3.433228E-05 -175.0004
v -175.0004 49.99997 -175.0004
v -92.71808 49.99997 -175.0004
v -0.0004272461 -3.433228E-05 -175.0004
v -175.0004 -3.433228E-05 -175.0004
v -175.0004 49.99997 -86.93106
v -175.0004 49.99997 -175.0004
v -175.0004 -3.433228E-05 -175.0004
v -175.0004 -3.433228E-05 -0.0003662109
v -175.0004 49.99997 -0.0003662109
v -175.0004 49.99997 97.43372
v -175.0004 -3.433228E-05 174.9996
v -175.0004 49.99997 174.9996
v -94.61223 49.99997 174.9996
v -175.0004 49.99997 174.9996
v -175.0004 -3.433228E-05 174.9996
v -0.0004272461 -3.433228E-05 174.9996
v -0.0004272461 49.99997 174.9996
v 99.1106 -3.433228E-05 174.9996
v 99.1106 49.99997 174.9996
v 174.9996 49.99997 -0.0003662109
v 174.9996 49.99997 96.17096
v 174.9996 -3.433228E-05 174.9996
v 174.9996 -3.433228E-05 -0.0003662109
v 174.9996 49.99997 -175.0004
v 174.9996 49.99997 -90.71939
v 174.9996 -3.433228E-05 -175.0004
v -0.0004272461 49.99997 -175.0004
v -0.0004272461 49.99997 -88.82523
v -0.0004272461 49.99997 -0.0003662109
v -0.0004272461 49.99997 96.80234
v -0.0004272461 49.99997 -175.0004
v 174.9996 -3.433228E-05 174.9996
v 174.9996 49.99997 174.9996
v -0.0004272461 49.99997 174.9996
v 99.1106 49.99997 174.9996
v 174.9996 49.99997 174.9996
v 174.9996 49.99997 174.9996

vn 0 1 0
vn 0 0.9999999 0
vn 0 1 0
vn 0 1 0
vn 0 1 0
vn 0 1 0
vn 0 1 0
vn 0 1 0
vn 0 1 0
vn 0 1 0
vn 0 1 0
vn 0 1 0
vn 0 1 0
vn 0 1 0
vn 0 1 0
vn 0 1 0
vn 0 1 0
vn 0 1 0
vn 0 0 -1
vn 0 0 -0.9999999
vn 0 0 -1
vn 0 0 -1
vn 0 0 -1
vn 0 0 -1
vn 0 0 -0.9999999
vn 0 0 -1
vn -1 0 0
vn -1 0 0
vn -1 0 0
vn -0.9999999 0 0
vn -1 0 0
vn -1 0 0
vn -1 0 0
vn -1 0 0
vn 0 0 1
vn 0 0 0.9999999
vn 0 0 1
vn 0 0 0.9999999
vn 0 0 1
vn 0 0 0.9999999
vn 0 0 1
vn 1 0 0
vn 1 0 0
vn 1 0 0
vn 0.9999999 0 0
vn 0.9999999 0 0
vn 1 0 0
vn 1 0 0
vn 0 1 0
vn 0 1 0
vn 0 1 0
vn 0 1 0
vn 0 0 -1
vn 0 0 1
vn 0 0 1
vn 0 1 0
vn 0 1 0
vn 0 1 0
vn 1 0 0

vt 0.7828915 0.9995003
vt 0.7828915 0.7565936
vt 0.9995005 0.7589381
vt 0.9995005 0.9995003
vt 0.0004996359 0.5000001
vt 0.2326539 0.5000001
vt 0.2340105 0.7506527
vt 0.2353573 0.9995005
vt 0.0004997551 0.9995005
vt 0.0004996951 0.7481254
vt 0.7828914 0.4999999
vt 0.7828913 0.2247177
vt 0.9995003 0.2254992
vt 0.9995004 0.4999999
vt 0.0004995167 0.0004996955
vt 0.2299505 0.0004996408
vt 0.2311533 0.2227273
vt 0.0004995696 0.2218952
vt 0.2171085 0.4
vt 0.2171085 0.6
vt 0.0004995018 0.6
vt 0.0004995167 0.4
vt 0.9995003 0.6
vt 0.7646428 0.6
vt 0.4999999 0.4
vt 0.9995003 0.4
vt 0.2518747 0.6
vt 0.0004995018 0.6
vt 0.0004995167 0.4
vt 0.4999999 0.4
vt 0.4999999 0.6
vt 0.7781048 0.6
vt 0.9995003 0.4
vt 0.9995003 0.6
vt 0.2299506 0.6
vt 0.0004995018 0.6
vt 0.0004995167 0.4
vt 0.4999999 0.4
vt 0.4999999 0.6
vt 0.7828913 0.4
vt 0.7828913 0.6
vt 0.4999999 0.6
vt 0.2254992 0.6
vt 0.0004995167 0.4
vt 0.4999999 0.4
vt 0.9995003 0.6
vt 0.7589381 0.6
vt 0.9995003 0.4
vt 0.5000001 0.9995004
vt 0.5000001 0.7535318
vt 0.5 0.5
vt 0.4999999 0.2236972
vt 0.4999999 0.6
vt 0.9995003 0.4
vt 0.9995003 0.6
vt 0.4999998 0.0004995763
vt 0.7828913 0.0004995088
vt 0.9995002 0.0004994571
vt 0.0004995018 0.6

usemtl sn07_01_sn0783.jpg
usemap sn07_01_sn0783.jpg
f 3/3/3 1/1/1 2/2/2
f 1/1/1 3/3/3 4/4/4
f 7/7/7 5/5/5 6/6/6
f 10/10/10 8/8/8 9/9/9
f 13/13/13 11/11/11 12/12/12
f 11/11/11 13/13/13 14/14/14
f 17/17/17 15/15/15 16/16/16
f 18/18/18 6/6/6 5/5/5
f 2/2/2 49/49/49 50/50/50
f 49/49/49 2/2/2 1/1/1
f 12/12/12 51/51/51 52/52/52
f 51/51/51 12/12/12 11/11/11
f 52/52/52 16/16/16 56/56/56
f 17/17/17 51/51/51 6/6/6
f 50/50/50 6/6/6 51/51/51
f 7/7/7 49/49/49 8/8/8
f 7/7/7 8/8/8 10/10/10
f 5/5/5 7/7/7 10/10/10
f 50/50/50 49/49/49 7/7/7
f 6/6/6 50/50/50 7/7/7
f 11/11/11 50/50/50 51/51/51
f 50/50/50 11/11/11 2/2/2
f 14/14/14 2/2/2 11/11/11
f 2/2/2 14/14/14 3/3/3
f 17/17/17 6/6/6 18/18/18
f 15/15/15 17/17/17 18/18/18
f 52/52/52 51/51/51 17/17/17
f 16/16/16 52/52/52 17/17/17
f 57/57/57 52/52/52 56/56/56
f 52/52/52 57/57/57 12/12/12
f 58/58/58 12/12/12 57/57/57
f 12/12/12 58/58/58 13/13/13

usemtl sn07_02_sn07001.jpg
usemap sn07_02_sn07001.jpg
f 21/21/21 19/19/19 20/20/20
f 19/19/19 21/21/21 22/22/22
f 25/25/25 23/23/23 24/24/24
f 23/23/23 25/25/25 26/26/26
f 29/29/29 27/27/27 28/28/28
f 31/31/31 29/29/29 30/30/30
f 30/30/30 32/32/32 31/31/31
f 34/34/34 30/30/30 33/33/33
f 37/37/37 35/35/35 36/36/36
f 39/39/39 37/37/37 38/38/38
f 39/39/39 40/40/40 41/41/41
f 40/40/40 39/39/39 38/38/38
f 44/44/44 42/42/42 43/43/43
f 42/42/42 44/44/44 45/45/45
f 45/45/45 46/46/46 47/47/47
f 46/46/46 45/45/45 48/48/48
f 20/20/20 25/25/25 53/53/53
f 25/25/25 20/20/20 19/19/19
f 41/41/41 54/54/54 55/55/55
f 54/54/54 41/41/41 40/40/40
f 37/37/37 39/39/39 35/35/35
f 25/25/25 24/24/24 53/53/53
f 29/29/29 31/31/31 27/27/27
f 45/45/45 47/47/47 42/42/42
f 30/30/30 34/34/34 32/32/32
f 44/44/44 43/43/43 59/59/59
