mtllib ./Box31.mtl
g Box31
v 174.9995 49.99997 -174.9998
v 84.54462 49.99997 -174.9998
v 84.29578 49.99997 -79.20181
v 84.09006 49.99997 0.0001525879
v 174.9995 49.99997 0.0001525879
v 174.9995 49.99997 -79.673
v -0.0004882813 49.99997 -174.9998
v -89.09103 49.99997 -174.9998
v -90.34695 49.99997 -78.29459
v -91.36377 49.99997 0.0001525879
v -0.0004882813 49.99997 0.0001525879
v -0.0004882813 49.99997 -78.76392
v 83.88678 49.99997 78.27151
v 83.63553 49.99997 175.0002
v 174.9995 49.99997 175.0002
v 174.9995 49.99997 78.50818
v -92.37433 49.99997 77.81369
v -93.63647 49.99997 175.0002
v -0.0004882813 49.99997 175.0002
v -0.0004882813 49.99997 78.05362
v 174.9995 -3.433228E-05 -174.9998
v 84.54462 -3.433228E-05 -174.9998
v 84.54462 49.99997 -174.9998
v 174.9995 49.99997 -174.9998
v -0.0004882813 -3.433228E-05 -174.9998
v -89.09103 -3.433228E-05 -174.9998
v -89.09103 49.99997 -174.9998
v -0.0004882813 49.99997 -174.9998
v -175.0005 -3.433228E-05 -174.9998
v -175.0005 -3.433228E-05 0.0001525879
v -175.0005 27.75569 -77.85483
v -175.0005 49.99997 -174.9998
v -175.0005 -3.433228E-05 175.0002
v -175.0005 49.99997 175.0002
v -175.0005 49.99997 77.59909
v -175.0005 -3.433228E-05 175.0002
v -90.00012 -3.433228E-05 175.0002
v -0.0004882813 49.99997 175.0002
v -93.63647 49.99997 175.0002
v -0.0004882813 -3.433228E-05 175.0002
v 174.9995 -3.433228E-05 175.0002
v 174.9995 49.99997 175.0002
v 83.63553 49.99997 175.0002
v 174.9995 -3.433228E-05 175.0002
v 174.9995 -3.433228E-05 78.50818
v 174.9995 49.99997 78.50818
v 174.9995 49.99997 175.0002
v 174.9995 -3.433228E-05 0.0001525879
v 174.9995 -3.433228E-05 -174.9998
v 174.9995 49.99997 -174.9998
v 174.9995 49.99997 -79.673
v -175.0005 -3.433228E-05 -174.9998
v -175.0005 49.99997 -174.9998
v -175.0005 49.99997 -174.9998
v -175.0005 49.99997 -77.85483
v -175.0005 49.99997 0.0001525879
v -175.0005 49.99997 77.59909
v -175.0005 49.99997 175.0002
v -175.0005 49.99997 175.0002
v 174.9995 49.99997 0.0001525879
v -175.0005 49.99997 0.0001525879
v -175.0005 49.99997 -77.85483

vn 0 1 0
vn 0 1 0
vn 0 1 0
vn 0 1 0
vn 0 1 0
vn 0 1 0
vn 0 0.9999999 0
vn 0 1 0
vn 0 1 0
vn 0 1 0
vn 0 1 0
vn 0 1 0
vn 0 1 0
vn 0 1 0
vn 0 1 0
vn 0 1 0
vn 0 1 0
vn 0 1 0
vn 0 1 0
vn 0 1 0
vn 0 0 -1
vn 0 0 -1
vn 0 0 -0.9999999
vn 0 0 -1
vn 0 0 -1
vn 0 0 -1
vn 0 0 -1
vn 0 0 -1
vn -1 0 0
vn -0.9999999 0 0
vn -1 0 0
vn -1 0 0
vn -1 0 0
vn -1 0 0
vn -1 0 0
vn 0 0 1
vn 0 0 1
vn 0 0 1
vn 0 0 1
vn 0 0 0.9999999
vn 0 0 1
vn 0 0 1
vn 0 0 1
vn 0.9999999 0 0
vn 1 0 0
vn 1 0 0
vn 0.9999999 0 0
vn 1 0 0
vn 1 0 0
vn 0.9999999 0 0
vn 1 0 0
vn 0 0 -1
vn 0 0 -1
vn 0 1 0
vn 0 1 0
vn 0 1 0
vn 0 0.9999999 0
vn 0 1 0
vn 0 0 1
vn 1 0 0
vn -1 0 0
vn -1 0 0

vt 0.0004996061 0.0004997551
vt 0.2586839 0.0004996936
vt 0.2593942 0.2739348
vt 0.2599814 0.5000001
vt 0.0004997253 0.5000001
vt 0.0004996711 0.27259
vt 0.4999999 0.0004996359
vt 0.75429 0.0004995753
vt 0.7578748 0.2765242
vt 0.7607771 0.4999999
vt 0.5000001 0.5
vt 0.5 0.2751847
vt 0.2605618 0.7234091
vt 0.261279 0.9995005
vt 0.0004998446 0.9995005
vt 0.0004997788 0.7240846
vt 0.7636616 0.7221022
vt 0.7672642 0.9995003
vt 0.5000002 0.9995004
vt 0.5000001 0.7227871
vt 0.9995005 0.41771
vt 0.7413161 0.41771
vt 0.7413161 0.5822901
vt 0.9995005 0.5822901
vt 0.5 0.41771
vt 0.2457099 0.41771
vt 0.2457099 0.5822901
vt 0.5 0.5822901
vt 0.9995005 0.4
vt 0.5 0.4
vt 0.7222206 0.5110229
vt 0.9995005 0.6
vt 0.0004994869 0.4
vt 0.0004994869 0.6
vt 0.2785102 0.6
vt 0.9995005 0.4
vt 0.7568849 0.4
vt 0.5 0.6
vt 0.7672641 0.6
vt 0.5 0.4
vt 0.0004994869 0.4
vt 0.0004994869 0.6
vt 0.2612787 0.6
vt 0.9995005 0.4
vt 0.7240846 0.4
vt 0.7240846 0.6
vt 0.9995005 0.6
vt 0.5 0.4
vt 0.0004994869 0.4
vt 0.0004994869 0.6
vt 0.2725898 0.6
vt 0.0004994869 0.41771
vt 0.0004994869 0.5822901
vt 0.9995003 0.0004995167
vt 0.9995004 0.2777794
vt 0.9995005 0.4999999
vt 0.9995005 0.7214896
vt 0.9995006 0.9995003
vt 0.9995005 0.6
vt 0.5 0.6
vt 0.5 0.6
vt 0.7222206 0.6

usemtl sn07_01_sn0783.jpg
usemap sn07_01_sn0783.jpg
f 3/3/3 1/1/1 2/2/2
f 6/6/6 4/4/4 5/5/5
f 9/9/9 7/7/7 8/8/8
f 12/12/12 10/10/10 11/11/11
f 13/13/13 5/5/5 4/4/4
f 16/16/16 14/14/14 15/15/15
f 17/17/17 11/11/11 10/10/10
f 20/20/20 18/18/18 19/19/19
f 55/55/55 8/8/8 54/54/54
f 9/9/9 56/56/56 10/10/10
f 57/57/57 10/10/10 56/56/56
f 17/17/17 58/58/58 18/18/18
f 12/12/12 2/2/2 7/7/7
f 3/3/3 11/11/11 4/4/4
f 20/20/20 4/4/4 11/11/11
f 13/13/13 19/19/19 14/14/14
f 13/13/13 14/14/14 16/16/16
f 5/5/5 13/13/13 16/16/16
f 20/20/20 19/19/19 13/13/13
f 4/4/4 20/20/20 13/13/13
f 17/17/17 18/18/18 20/20/20
f 11/11/11 17/17/17 20/20/20
f 57/57/57 58/58/58 17/17/17
f 10/10/10 57/57/57 17/17/17
f 9/9/9 8/8/8 55/55/55
f 56/56/56 9/9/9 55/55/55
f 12/12/12 7/7/7 9/9/9
f 10/10/10 12/12/12 9/9/9
f 3/3/3 2/2/2 12/12/12
f 11/11/11 3/3/3 12/12/12
f 6/6/6 1/1/1 3/3/3
f 4/4/4 6/6/6 3/3/3

usemtl sn07_02_sn07001.jpg
usemap sn07_02_sn07001.jpg
f 23/23/23 21/21/21 22/22/22
f 21/21/21 23/23/23 24/24/24
f 27/27/27 25/25/25 26/26/26
f 25/25/25 27/27/27 28/28/28
f 31/31/31 29/29/29 30/30/30
f 29/29/29 31/31/31 32/32/32
f 34/34/34 30/30/30 33/33/33
f 30/30/30 34/34/34 35/35/35
f 38/38/38 36/36/36 37/37/37
f 36/36/36 38/38/38 39/39/39
f 42/42/42 40/40/40 41/41/41
f 40/40/40 42/42/42 43/43/43
f 46/46/46 44/44/44 45/45/45
f 44/44/44 46/46/46 47/47/47
f 50/50/50 48/48/48 49/49/49
f 48/48/48 50/50/50 51/51/51
f 38/38/38 37/37/37 40/40/40
f 53/53/53 26/26/26 52/52/52
f 26/26/26 53/53/53 27/27/27
f 36/36/36 39/39/39 59/59/59
f 28/28/28 22/22/22 25/25/25
f 22/22/22 28/28/28 23/23/23
f 40/40/40 43/43/43 38/38/38
f 60/60/60 45/45/45 48/48/48
f 45/45/45 60/60/60 46/46/46
f 30/30/30 35/35/35 61/61/61
f 31/31/31 62/62/62 32/32/32
f 61/61/61 31/31/31 30/30/30
f 31/31/31 61/61/61 62/62/62
f 48/48/48 51/51/51 60/60/60
