mtllib ./Cy08.mtl
g Cy08
v -2.628429 1.316357 -2.685941
v 2.700133 8.024199 -1.662283
v 2.529479 6.346439 -5.269655
v -2.457794 2.994128 0.9214104
v -2.457794 2.994128 0.9214104
v 5.329121 6.70788 1.023408
v 2.700133 8.024199 -1.662283
v 0.1712137 1.677799 3.607122
v 0.1712137 1.677799 3.607122
v 7.787392 3.713711 0.1017873
v 5.329121 6.70788 1.023408
v 2.629464 -1.316361 2.68548
v 7.616737 2.035951 -3.505585
v 2.45883 -2.994131 -0.9218715
v 2.45883 -2.994131 -0.9218715
v 4.987749 3.352271 -6.191275
v 7.616737 2.035951 -3.505585
v -0.1701789 -1.677801 -3.607582
v -0.1701789 -1.677801 -3.607582
v 4.987749 3.352271 -6.191275
v 5.158425 5.03008 -2.583944
v 2.529479 6.346439 -5.269655
v 2.700133 8.024199 -1.662283
v 5.329121 6.70788 1.023408
v 7.787392 3.713711 0.1017873
v 7.616737 2.035951 -3.505585
v 4.987749 3.352271 -6.191275

vn -0.008600533 0.1889978 -0.9819399
vn -0.007589191 0.5000145 -0.865984
vn -0.00859499 -0.1889656 -0.9819462
vn -0.007587552 0.5000116 -0.8659854
vn -1.446903E-05 1 2.872944E-05
vn -1.446903E-05 1 2.872944E-05
vn -1.446903E-05 1 2.869964E-05
vn -1.451373E-05 1 2.878904E-05
vn 0.007574558 0.4999833 0.866002
vn 0.008593678 0.1889656 0.9819462
vn 0.007576317 0.4999861 0.8660003
vn 0.008599162 -0.1889978 0.9819399
vn 0.007589221 -0.5000144 0.8659838
vn 0.00759092 -0.5000116 0.8659856
vn 1.451373E-05 -1 -2.926588E-05
vn 1.451373E-05 -1 -2.926588E-05
vn 1.446903E-05 -1 -2.926588E-05
vn 1.448393E-05 -1 -2.932549E-05
vn -0.007574618 -0.4999835 -0.866002
vn -0.00757283 -0.4999864 -0.8660003
vn 0.9999619 2.884865E-05 -0.008740984
vn 0.9999619 2.893806E-05 -0.008735962
vn 0.9999619 3.3319E-05 -0.008743554
vn 0.9999619 2.449751E-05 -0.008743517
vn 0.9999619 2.890825E-05 -0.008735791
vn 0.9999619 3.322959E-05 -0.008743525
vn 0.9999617 2.44379E-05 -0.008743621

vt 0.2842107 0.4127406
vt 0.4622295 0.2023745
vt 0.2857401 0.2023745
vt 0.4607002 0.4127406
vt 0.1959661 0.4127406
vt 0.3739849 0.2023745
vt 0.1974954 0.2023745
vt 0.3724555 0.4127406
vt 0.1077213 0.4127406
vt 0.2857401 0.2023745
vt 0.1092507 0.2023745
vt 0.2842108 0.4127406
vt 0.4622296 0.2023745
vt 0.4607002 0.4127406
vt 0.1959661 0.4127406
vt 0.3739849 0.2023745
vt 0.1974954 0.2023745
vt 0.3724555 0.4127406
vt 0.1077213 0.4127406
vt 0.1092507 0.2023745
vt 0.7657005 0.6956522
vt 0.8913224 0.6922652
vt 0.8296404 0.8077264
vt 0.7085345 0.8099843
vt 0.6412077 0.6945232
vt 0.7085344 0.58132
vt 0.8228666 0.58132

usemtl sn07_08_sn07g01.JPG
usemap sn07_08_sn07g01.JPG
f 3/3/3 1/1/1 2/2/2
f 2/2/2 1/1/1 4/4/4
f 7/7/7 5/5/5 6/6/6
f 6/6/6 5/5/5 8/8/8
f 11/11/11 9/9/9 10/10/10
f 10/10/10 9/9/9 12/12/12
f 10/10/10 12/12/12 13/13/13
f 13/13/13 12/12/12 14/14/14
f 17/17/17 15/15/15 16/16/16
f 16/16/16 15/15/15 18/18/18
f 20/20/20 19/19/19 3/3/3
f 3/3/3 19/19/19 1/1/1
f 23/23/23 21/21/21 22/22/22
f 24/24/24 21/21/21 23/23/23
f 25/25/25 21/21/21 24/24/24
f 26/26/26 21/21/21 25/25/25
f 27/27/27 21/21/21 26/26/26
f 22/22/22 21/21/21 27/27/27
