mtllib ./Cy16.mtl
g Cy16
v -2.590772 1.311055 -2.679487
v 2.727376 7.942741 -1.659527
v 2.562853 6.268173 -5.234676
v -2.42629 2.985584 0.8956831
v -2.42629 2.985584 0.8956831
v 5.318411 6.631876 1.0194
v 2.727376 7.942741 -1.659527
v 0.1647861 1.674758 3.574589
v 0.1647861 1.674758 3.574589
v 7.744922 3.646441 0.1231766
v 5.318411 6.631876 1.0194
v 2.591297 -1.310677 2.678366
v 7.580441 1.971912 -3.451993
v 2.426816 -2.985206 -0.8968033
v 2.426816 -2.985206 -0.8968033
v 4.989406 3.282778 -6.130919
v 7.580441 1.971912 -3.451993
v -0.1642606 -1.674379 -3.57571
v -0.1642606 -1.674379 -3.57571
v 4.989406 3.282778 -6.130919
v 5.153888 4.957307 -2.55575
v 2.562853 6.268173 -5.234676
v 2.727376 7.942741 -1.659527
v 5.318411 6.631876 1.0194
v 7.744922 3.646441 0.1231766
v 7.580441 1.971912 -3.451993
v 4.989406 3.282778 -6.130919

vn -0.007840306 0.1886326 -0.9820164
vn -0.006799251 0.4996295 -0.8662125
vn -0.007971317 -0.1893339 -0.9818804
vn -0.006799221 0.4996294 -0.8662126
vn 0.0003440231 0.9999996 -0.0006789267
vn 0.0003440231 0.9999996 -0.0006789267
vn 0.0003440082 0.9999998 -0.0006790161
vn 0.0003440082 0.9999997 -0.0006788969
vn 0.007145315 0.5003707 0.8657818
vn 0.007971346 0.1893329 0.9818806
vn 0.007145345 0.5003706 0.8657817
vn 0.007840335 -0.1886316 0.9820167
vn 0.00679934 -0.4996294 0.8662127
vn 0.00679931 -0.4996293 0.8662126
vn -0.0003440231 -0.9999996 0.0006789267
vn -0.0003440231 -0.9999996 0.0006789267
vn -0.0003439486 -0.9999998 0.0006789565
vn -0.0003439933 -0.9999996 0.0006788671
vn -0.007145286 -0.5003707 -0.8657818
vn -0.007145286 -0.5003708 -0.8657818
vn 0.9999645 -0.0006782711 -0.008381777
vn 0.9999647 -0.0006782413 -0.008381762
vn 0.9999647 -0.0006871819 -0.008381762
vn 0.9999647 -0.0006871819 -0.008381762
vn 0.9999647 -0.0006782711 -0.008381784
vn 0.9999647 -0.00066939 -0.008381777
vn 0.9999647 -0.0006693304 -0.008381821

vt 0.2842107 0.4127406
vt 0.4622295 0.2023745
vt 0.2857401 0.2023745
vt 0.4607002 0.4127406
vt 0.1959661 0.4127406
vt 0.3739849 0.2023745
vt 0.1974954 0.2023745
vt 0.3724555 0.4127406
vt 0.1077213 0.4127406
vt 0.2857401 0.2023745
vt 0.1092507 0.2023745
vt 0.2842108 0.4127406
vt 0.4622296 0.2023745
vt 0.4607002 0.4127406
vt 0.1959661 0.4127406
vt 0.3739849 0.2023745
vt 0.1974954 0.2023745
vt 0.3724555 0.4127406
vt 0.1077213 0.4127406
vt 0.1092507 0.2023745
vt 0.7657005 0.6956522
vt 0.8913224 0.6922652
vt 0.8296404 0.8077264
vt 0.7085345 0.8099843
vt 0.6412077 0.6945232
vt 0.7085344 0.58132
vt 0.8228666 0.58132

usemtl sn07_08_sn07g01.JPG
usemap sn07_08_sn07g01.JPG
f 3/3/3 1/1/1 2/2/2
f 2/2/2 1/1/1 4/4/4
f 7/7/7 5/5/5 6/6/6
f 6/6/6 5/5/5 8/8/8
f 11/11/11 9/9/9 10/10/10
f 10/10/10 9/9/9 12/12/12
f 10/10/10 12/12/12 13/13/13
f 13/13/13 12/12/12 14/14/14
f 17/17/17 15/15/15 16/16/16
f 16/16/16 15/15/15 18/18/18
f 20/20/20 19/19/19 3/3/3
f 3/3/3 19/19/19 1/1/1
f 23/23/23 21/21/21 22/22/22
f 24/24/24 21/21/21 23/23/23
f 25/25/25 21/21/21 24/24/24
f 26/26/26 21/21/21 25/25/25
f 27/27/27 21/21/21 26/26/26
f 22/22/22 21/21/21 27/27/27
