mtllib ./Cy17.mtl
g Cy17
v -2.590811 1.311076 -2.679528
v 2.727337 7.942762 -1.659568
v 2.562814 6.268193 -5.234718
v -2.42633 2.985605 0.8956415
v -2.42633 2.985605 0.8956415
v 5.318371 6.631896 1.019358
v 2.727337 7.942762 -1.659568
v 0.1647464 1.674778 3.574548
v 0.1647464 1.674778 3.574548
v 7.744883 3.646461 0.123135
v 5.318371 6.631896 1.019358
v 2.591258 -1.310656 2.678325
v 7.580401 1.971932 -3.452034
v 2.426776 -2.985185 -0.8968449
v 2.426776 -2.985185 -0.8968449
v 4.989367 3.282798 -6.130961
v 7.580401 1.971932 -3.452034
v -0.1643002 -1.674359 -3.575751
v -0.1643002 -1.674359 -3.575751
v 4.989367 3.282798 -6.130961
v 5.153848 4.957327 -2.555791
v 2.562814 6.268193 -5.234718
v 2.727337 7.942762 -1.659568
v 5.318371 6.631896 1.019358
v 7.744883 3.646461 0.123135
v 7.580401 1.971932 -3.452034
v 4.989367 3.282798 -6.130961

vn -0.007840306 0.1886326 -0.9820164
vn -0.006799251 0.4996295 -0.8662125
vn -0.007971317 -0.1893338 -0.9818804
vn -0.006799191 0.4996294 -0.8662127
vn 0.0003440231 0.9999996 -0.0006789267
vn 0.0003440231 0.9999996 -0.0006789267
vn 0.0003440082 0.9999998 -0.0006789267
vn 0.0003440082 0.9999997 -0.0006788969
vn 0.007145315 0.5003706 0.8657818
vn 0.007971346 0.1893328 0.9818806
vn 0.007145315 0.5003707 0.8657819
vn 0.007840276 -0.1886316 0.9820167
vn 0.006799281 -0.4996293 0.8662126
vn 0.006799281 -0.4996293 0.8662126
vn -0.0003440231 -0.9999996 0.0006789267
vn -0.0003440231 -0.9999996 0.0006789267
vn -0.0003440082 -0.9999998 0.0006789267
vn -0.000344038 -0.9999998 0.0006788969
vn -0.007145286 -0.5003707 -0.8657818
vn -0.007145256 -0.5003707 -0.8657817
vn 0.9999645 -0.0006782711 -0.008381777
vn 0.9999647 -0.0006783009 -0.008381806
vn 0.9999647 -0.0006871819 -0.008381762
vn 0.9999647 -0.0006871819 -0.008381762
vn 0.9999647 -0.0006782413 -0.008381762
vn 0.9999647 -0.0006693602 -0.008381806
vn 0.9999647 -0.0006693304 -0.008381821

vt 0.2842107 0.4127406
vt 0.4622295 0.2023745
vt 0.2857401 0.2023745
vt 0.4607002 0.4127406
vt 0.1959661 0.4127406
vt 0.3739849 0.2023745
vt 0.1974954 0.2023745
vt 0.3724555 0.4127406
vt 0.1077213 0.4127406
vt 0.2857401 0.2023745
vt 0.1092507 0.2023745
vt 0.2842108 0.4127406
vt 0.4622296 0.2023745
vt 0.4607002 0.4127406
vt 0.1959661 0.4127406
vt 0.3739849 0.2023745
vt 0.1974954 0.2023745
vt 0.3724555 0.4127406
vt 0.1077213 0.4127406
vt 0.1092507 0.2023745
vt 0.7657005 0.6956522
vt 0.8913224 0.6922652
vt 0.8296404 0.8077264
vt 0.7085345 0.8099843
vt 0.6412077 0.6945232
vt 0.7085344 0.58132
vt 0.8228666 0.58132

usemtl sn07_08_sn07g01.JPG
usemap sn07_08_sn07g01.JPG
f 3/3/3 1/1/1 2/2/2
f 2/2/2 1/1/1 4/4/4
f 7/7/7 5/5/5 6/6/6
f 6/6/6 5/5/5 8/8/8
f 11/11/11 9/9/9 10/10/10
f 10/10/10 9/9/9 12/12/12
f 10/10/10 12/12/12 13/13/13
f 13/13/13 12/12/12 14/14/14
f 17/17/17 15/15/15 16/16/16
f 16/16/16 15/15/15 18/18/18
f 20/20/20 19/19/19 3/3/3
f 3/3/3 19/19/19 1/1/1
f 23/23/23 21/21/21 22/22/22
f 24/24/24 21/21/21 23/23/23
f 25/25/25 21/21/21 24/24/24
f 26/26/26 21/21/21 25/25/25
f 27/27/27 21/21/21 26/26/26
f 22/22/22 21/21/21 27/27/27
