mtllib ./Cy23.mtl
g Cy23
v -4.133362 0.0001023035 -0.0004781214
v -2.06691 8.514621 -1.832879
v -4.133362 6.391448 -4.712644
v -2.06691 2.123275 2.879287
v -2.06691 2.123275 2.879287
v 2.065994 8.514621 -1.832879
v -2.06691 8.514621 -1.832879
v 2.065994 2.123275 2.879287
v 2.065994 2.123275 2.879287
v 4.132446 6.391448 -4.712644
v 2.065994 8.514621 -1.832879
v 4.132446 0.0001023035 -0.0004781214
v 2.065994 4.268275 -7.592409
v 2.065994 -2.12307 -2.880243
v 2.065994 -2.12307 -2.880243
v -2.06691 4.268275 -7.592409
v 2.065994 4.268275 -7.592409
v -2.06691 -2.12307 -2.880243
v -2.06691 -2.12307 -2.880243
v -2.06691 4.268275 -7.592409
v -0.0004577637 6.391448 -4.712644
v -4.133362 6.391448 -4.712644
v -2.06691 8.514621 -1.832879
v 2.065994 8.514621 -1.832879
v 4.132446 6.391448 -4.712644
v 2.065994 4.268275 -7.592409
v -2.06691 4.268275 -7.592409

vn -0.9819671 0.1890516 -0.0001424104
vn -0.865943 0.5001429 -0.0003767908
vn -0.9819671 -0.1890517 0.0001424104
vn -0.8659429 0.5001429 -0.000376761
vn 0 0.9999997 -0.0007532835
vn 0 0.9999997 -0.0007532835
vn 0 0.9999997 -0.0007532835
vn 0 0.9999997 -0.0007532835
vn 0.8659428 0.5001429 -0.0003767908
vn 0.9819671 0.1890517 -0.0001424104
vn 0.8659429 0.5001429 -0.0003767908
vn 0.9819671 -0.1890516 0.0001424253
vn 0.8659428 -0.5001429 0.0003767908
vn 0.8659428 -0.5001428 0.0003767908
vn 0 -0.9999998 0.0007533431
vn 0 -0.9999998 0.0007533431
vn 0 -0.9999998 0.0007533431
vn 0 -0.9999998 0.0007533431
vn -0.865943 -0.5001429 0.0003767908
vn -0.865943 -0.5001429 0.0003767908
vn 0 -0.0007534027 -0.9999997
vn 0 -0.0007534027 -0.9999997
vn 0 -0.0007534027 -0.9999997
vn 0 -0.0007534027 -0.9999997
vn 0 -0.0007534027 -0.9999997
vn 0 -0.0007534027 -0.9999997
vn 0 -0.0007534027 -0.9999997

vt 0.2842107 0.4127406
vt 0.4622295 0.2023745
vt 0.2857401 0.2023745
vt 0.4607002 0.4127406
vt 0.1959661 0.4127406
vt 0.3739849 0.2023745
vt 0.1974954 0.2023745
vt 0.3724555 0.4127406
vt 0.1077213 0.4127406
vt 0.2857401 0.2023745
vt 0.1092507 0.2023745
vt 0.2842108 0.4127406
vt 0.4622296 0.2023745
vt 0.4607002 0.4127406
vt 0.1959661 0.4127406
vt 0.3739849 0.2023745
vt 0.1974954 0.2023745
vt 0.3724555 0.4127406
vt 0.1077213 0.4127406
vt 0.1092507 0.2023745
vt 0.7657005 0.6956522
vt 0.8913224 0.6922652
vt 0.8296404 0.8077264
vt 0.7085345 0.8099843
vt 0.6412077 0.6945232
vt 0.7085344 0.58132
vt 0.8228666 0.58132

usemtl sn07_08_sn07g01.JPG
usemap sn07_08_sn07g01.JPG
f 3/3/3 1/1/1 2/2/2
f 2/2/2 1/1/1 4/4/4
f 7/7/7 5/5/5 6/6/6
f 6/6/6 5/5/5 8/8/8
f 11/11/11 9/9/9 10/10/10
f 10/10/10 9/9/9 12/12/12
f 10/10/10 12/12/12 13/13/13
f 13/13/13 12/12/12 14/14/14
f 17/17/17 15/15/15 16/16/16
f 16/16/16 15/15/15 18/18/18
f 20/20/20 19/19/19 3/3/3
f 3/3/3 19/19/19 1/1/1
f 23/23/23 21/21/21 22/22/22
f 24/24/24 21/21/21 23/23/23
f 25/25/25 21/21/21 24/24/24
f 26/26/26 21/21/21 25/25/25
f 27/27/27 21/21/21 26/26/26
f 22/22/22 21/21/21 27/27/27
