mtllib ./Item0103.mtl
g 0
v -0.07292981 3.883317 0.08276901
v -0.257956 1.946792 4.76076
v 4.056216 1.967882 2.421013
v 4.094474 2.140844 -2.347733
v -0.06365409 1.779058 -4.776731
v -4.165236 2.179979 -2.13573
v -4.203494 2.22132 2.633015
v -0.1195116 -0.6203098 7.041134
v 6.127285 -0.4134073 3.611556
v 6.139163 -0.3082404 -3.603221
v 0.008711333 -1.039841 -7.039751
v -6.357196 -0.3434062 -3.494418
v -6.369074 -0.39329 3.720358
v -0.2118917 -3.320651 6.612946
v 5.784421 -3.075995 3.45741
v 5.738102 -3.05798 -3.451395
v -0.1430216 -3.331085 -6.489288
v -5.899107 -3.129749 -3.266173
v -5.852788 -3.086805 3.642631
v -0.2118917 -3.320651 6.612946
v -0.09682346 -4.54712 4.187076
v 3.488584 -4.584423 2.189675
v 5.784421 -3.075995 3.45741
v 3.499531 -4.532268 -2.142355
v 5.738102 -3.05798 -3.451395
v -0.01265744 -4.628484 -4.476985
v -0.1430216 -3.331085 -6.489288
v -3.674534 -4.409338 -2.086031
v -5.899107 -3.129749 -3.266173
v -3.685482 -4.473706 2.245999
v -5.852788 -3.086805 3.642631
v -0.0968236 -4.54712 4.187076
v 0.1467593 -4.530369 -0.1665611

vn 0.01725906 0.9998289 -0.006645392
vn 0.1185345 0.8022509 0.585101
vn 0.5270045 0.8201399 0.2227931
vn 0.4150477 0.8191415 -0.3959071
vn -0.09173085 0.7873604 -0.6096304
vn -0.520727 0.8257694 -0.2166754
vn -0.4200448 0.8185574 0.3918239
vn 0.03884725 0.3083175 0.9504899
vn 0.8242569 0.3395823 0.4530831
vn 0.79827 0.3335986 -0.5014749
vn -0.04353834 0.3023355 -0.9522067
vn -0.8243608 0.3172951 -0.4687783
vn -0.792753 0.3353204 0.5090217
vn -0.1711879 -0.1457416 0.9743993
vn 0.7346176 -0.1494008 0.661828
vn 0.9342339 -0.1475969 -0.3246878
vn 0.2037888 -0.1929285 -0.9598171
vn -0.7569412 -0.1833197 -0.627243
vn -0.9360697 -0.1773364 0.3038508
vn 0.07597027 -0.8812377 0.4665283
vn 0.08983707 -0.9796371 0.1795565
vn 0.2092317 -0.9590251 0.1910315
vn 0.4684894 -0.8654565 0.1774903
vn 0.3004608 -0.9509254 -0.07391999
vn 0.423894 -0.8558682 -0.2963169
vn 0.06409988 -0.9615561 -0.2670224
vn -0.08877758 -0.8602808 -0.5020314
vn -0.2172104 -0.9603596 -0.1747256
vn -0.4420593 -0.8829565 -0.1580236
vn -0.2667789 -0.9615709 0.06488844
vn -0.3812074 -0.8830391 0.2737205
vn -0.1750031 -0.9441664 0.279148
vn -0.01629475 -0.9998659 0.001653337

vt 0.4975697 0.767711
vt 0.5043867 0.9220749
vt 0.3440993 0.8448538
vt 0.3574141 0.6904128
vt 0.4971676 0.6072985
vt 0.6495565 0.6944624
vt 0.650978 0.8518506
vt 0.5037543 0.948117
vt 0.3265049 0.8503602
vt 0.3391077 0.6757892
vt 0.4980451 0.5819687
vt 0.6730605 0.6787596
vt 0.6911092 0.8668879
vt 0.4970929 0.9737788
vt 0.3085245 0.8578433
vt 0.3189287 0.6612687
vt 0.4913839 0.568386
vt 0.7045078 0.6631505
vt 0.7114921 0.8768194
vt 0.7770907 0.2467741
vt 0.5994568 0.266678
vt 0.5306315 0.3938786
vt 0.6079205 0.4999518
vt 0.3911508 0.3894036
vt 0.3405348 0.4952356
vt 0.320417 0.2599762
vt 0.1706311 0.2523533
vt 0.4020089 0.1304571
vt 0.3033094 0.001551663
vt 0.5414896 0.1349321
vt 0.6582926 0.008927776
vt 0.5994568 0.266678
vt 0.4589873 0.2705776

usemtl Item0103_00_Item_03.jpg
usemap Item0103_00_Item_03.jpg
f 3/3/3 1/1/1 2/2/2
f 4/4/4 1/1/1 3/3/3
f 5/5/5 1/1/1 4/4/4
f 6/6/6 1/1/1 5/5/5
f 7/7/7 1/1/1 6/6/6
f 2/2/2 1/1/1 7/7/7
f 9/9/9 2/2/2 8/8/8
f 3/3/3 2/2/2 9/9/9
f 10/10/10 3/3/3 9/9/9
f 4/4/4 3/3/3 10/10/10
f 11/11/11 4/4/4 10/10/10
f 5/5/5 4/4/4 11/11/11
f 12/12/12 5/5/5 11/11/11
f 6/6/6 5/5/5 12/12/12
f 13/13/13 6/6/6 12/12/12
f 7/7/7 6/6/6 13/13/13
f 8/8/8 7/7/7 13/13/13
f 2/2/2 7/7/7 8/8/8
f 15/15/15 8/8/8 14/14/14
f 9/9/9 8/8/8 15/15/15
f 16/16/16 9/9/9 15/15/15
f 10/10/10 9/9/9 16/16/16
f 17/17/17 10/10/10 16/16/16
f 11/11/11 10/10/10 17/17/17
f 18/18/18 11/11/11 17/17/17
f 12/12/12 11/11/11 18/18/18
f 19/19/19 12/12/12 18/18/18
f 13/13/13 12/12/12 19/19/19
f 14/14/14 13/13/13 19/19/19
f 8/8/8 13/13/13 14/14/14
f 22/22/22 20/20/20 21/21/21
f 23/23/23 20/20/20 22/22/22
f 24/24/24 23/23/23 22/22/22
f 25/25/25 23/23/23 24/24/24
f 26/26/26 25/25/25 24/24/24
f 27/27/27 25/25/25 26/26/26
f 28/28/28 27/27/27 26/26/26
f 29/29/29 27/27/27 28/28/28
f 30/30/30 29/29/29 28/28/28
f 31/31/31 29/29/29 30/30/30
f 32/32/32 31/31/31 30/30/30
f 20/20/20 31/31/31 32/32/32
f 21/21/21 20/20/20 32/32/32
f 21/21/21 33/33/33 22/22/22
f 22/22/22 33/33/33 24/24/24
f 24/24/24 33/33/33 26/26/26
f 26/26/26 33/33/33 28/28/28
f 28/28/28 33/33/33 30/30/30
f 30/30/30 33/33/33 32/32/32
f 32/32/32 33/33/33 21/21/21
