mtllib ./Box172.mtl
g Box172
v 83.31199 -6.021095 -31.67782
v 83.31199 -6.049781 10.78556
v 18.33648 4.901799 9.484915
v 18.33648 4.930485 -32.97849
v -15.02219 16.72989 -3.962367
v -15.02219 16.75858 -46.42577
v -49.51302 21.83191 16.774
v -49.51302 21.8606 -25.6894
v 83.31199 -6.082283 58.89602
v 18.33648 4.873113 51.9483
v -15.02219 16.7012 38.50103
v -49.51302 21.80323 59.23741

vn -0.9761246 -0.0006662011 -0.2172098
vn -0.9761246 -0.0006662011 -0.2172098
vn -0.9611843 -0.0006582141 -0.2759063
vn -0.9526884 -0.0006534457 -0.303948
vn -0.9563391 -0.0006555319 -0.2922586
vn -0.9652984 -0.0006604791 -0.2611485
vn -0.980216 -0.0006682873 -0.1979292
vn -0.980216 -0.0006682873 -0.1979292
vn -0.9761246 -0.0006662011 -0.2172097
vn -0.9679704 -0.0006619096 -0.2510633
vn -0.9464295 -0.0006498694 -0.3229096
vn -0.980216 -0.0006682873 -0.1979291

vt 0.0004995465 0.0004998147
vt 0.0004996359 0.5000002
vt 0.3334999 0.5000001
vt 0.3334998 0.0004997253
vt 0.6665001 0.4999999
vt 0.6665 0.0004996061
vt 0.9995004 0.4999999
vt 0.9995003 0.0004995167
vt 0.0004997253 0.9995005
vt 0.3335 0.9995004
vt 0.6665002 0.9995003
vt 0.9995005 0.9995002

usemtl sn16_17_Asc02.JPG
usemap sn16_17_Asc02.JPG
f 3/3/3 1/1/1 2/2/2
f 1/1/1 3/3/3 4/4/4
f 5/5/5 4/4/4 3/3/3
f 4/4/4 5/5/5 6/6/6
f 7/7/7 6/6/6 5/5/5
f 6/6/6 7/7/7 8/8/8
f 10/10/10 2/2/2 9/9/9
f 2/2/2 10/10/10 3/3/3
f 11/11/11 3/3/3 10/10/10
f 3/3/3 11/11/11 5/5/5
f 12/12/12 5/5/5 11/11/11
f 5/5/5 12/12/12 7/7/7
