mtllib ./Box176.mtl
g Box176
v 20.86307 5.696203 -4.722739
v 20.86304 5.732497 37.67571
v -32.91309 14.96661 31.47803
v -32.91309 14.93036 -10.92048
v -60.29933 25.63365 15.48555
v -60.29933 25.59741 -26.91296
v -89.10349 29.54209 33.76315
v -89.10349 29.50585 -8.635366
v 20.86304 5.773558 85.71259
v -32.91309 15.00285 73.87649
v -60.29933 25.66989 57.884
v -89.10349 29.57833 76.1616

vn -0.7467888 0.0008429289 -0.6650606
vn -0.7467891 0.0008427501 -0.6650603
vn -0.6980667 0.0008302927 -0.716032
vn -0.6732489 0.0008226633 -0.7394155
vn -0.6886343 0.0008273721 -0.7251084
vn -0.7169603 0.0008352399 -0.6971135
vn -0.7701257 0.0008470416 -0.6378917
vn -0.7701257 0.0008470416 -0.6378917
vn -0.7467891 0.0008423924 -0.6650603
vn -0.7192206 0.0008358359 -0.6947811
vn -0.6593298 0.000818193 -0.7518535
vn -0.7701257 0.0008470416 -0.6378915

vt 0.0004995465 0.0004998147
vt 0.0004996359 0.5000002
vt 0.3334999 0.5000001
vt 0.3334998 0.0004997253
vt 0.6665001 0.4999999
vt 0.6665 0.0004996061
vt 0.9995004 0.4999999
vt 0.9995003 0.0004995167
vt 0.0004997253 0.9995005
vt 0.3335 0.9995004
vt 0.6665002 0.9995003
vt 0.9995005 0.9995002

usemtl sn16_17_Asc02.JPG
usemap sn16_17_Asc02.JPG
f 3/3/3 1/1/1 2/2/2
f 1/1/1 3/3/3 4/4/4
f 5/5/5 4/4/4 3/3/3
f 4/4/4 5/5/5 6/6/6
f 7/7/7 6/6/6 5/5/5
f 6/6/6 7/7/7 8/8/8
f 10/10/10 2/2/2 9/9/9
f 2/2/2 10/10/10 3/3/3
f 11/11/11 3/3/3 10/10/10
f 3/3/3 11/11/11 5/5/5
f 12/12/12 5/5/5 11/11/11
f 5/5/5 12/12/12 7/7/7
