mtllib ./Box184.mtl
g Box184
v 57.50336 -20.10343 201.5232
v 57.50336 -20.07025 243.9247
v -3.144011 -6.762854 235.9408
v -3.144011 -6.796034 193.5392
v -34.33081 6.210082 214.7464
v -34.33081 6.176901 172.3449
v -66.79971 12.42761 211.4448
v -66.79971 12.39443 169.0432
v 57.50336 -20.03266 291.9651
v -3.144054 -6.729671 278.3423
v -34.33083 6.243242 257.1479
v -66.79971 12.46079 253.8463

vn -0.8123732 0.0007641912 0.5831374
vn -0.8123732 0.0007641912 0.5831374
vn -0.8473976 0.0007520318 0.5309583
vn -0.8630462 0.0007452965 0.5051244
vn -0.8548159 0.0007488132 0.5189308
vn -0.8364303 0.0007563829 0.5480725
vn -0.7964433 0.0007684231 0.6047127
vn -0.7964433 0.0007684231 0.6047126
vn -0.8123731 0.0007642508 0.5831375
vn -0.8329452 0.0007575154 0.5533547
vn -0.8720639 0.0007403493 0.4893914
vn -0.7964435 0.0007681847 0.6047124

vt 0.0004995465 0.0004998147
vt 0.0004996359 0.5000002
vt 0.3334999 0.5000001
vt 0.3334998 0.0004997253
vt 0.6665001 0.4999999
vt 0.6665 0.0004996061
vt 0.9995004 0.4999999
vt 0.9995003 0.0004995167
vt 0.0004997253 0.9995005
vt 0.3335 0.9995004
vt 0.6665002 0.9995003
vt 0.9995005 0.9995002

usemtl sn16_17_Asc02.JPG
usemap sn16_17_Asc02.JPG
f 3/3/3 1/1/1 2/2/2
f 1/1/1 3/3/3 4/4/4
f 5/5/5 4/4/4 3/3/3
f 4/4/4 5/5/5 6/6/6
f 7/7/7 6/6/6 5/5/5
f 6/6/6 7/7/7 8/8/8
f 10/10/10 2/2/2 9/9/9
f 2/2/2 10/10/10 3/3/3
f 11/11/11 3/3/3 10/10/10
f 3/3/3 11/11/11 5/5/5
f 12/12/12 5/5/5 11/11/11
f 5/5/5 12/12/12 7/7/7
