mtllib ./Box213.mtl
g Box213
v 57.79192 1.657791 -46.44927
v -7.291054 1.174881 -56.06158
v -25.73947 1.657776 33.95006
v 38.7941 1.657776 43.54448
v -7.290731 -3.825119 -56.06171
v -25.73914 -3.342224 33.94993
v -25.73947 1.657776 33.95006
v -7.291054 1.174881 -56.06158
v 38.79438 -3.342224 43.54436
v 57.79222 -3.342209 -46.44937
v 57.79192 1.657791 -46.44927
v 38.7941 1.657776 43.54448
v 59.85038 401.5701 -36.29738
v -0.7084274 401.0872 -58.36457
v -21.11743 401.5702 40.77161
v 42.84276 401.5701 43.86348
v -0.7081039 396.0872 -58.3647
v -21.11712 396.5702 40.7715
v -21.11743 401.5702 40.77161
v -0.7084274 401.0872 -58.36457
v 42.84309 396.5701 43.86335
v 59.85069 396.5701 -36.29749
v 59.85038 401.5701 -36.29738
v 42.84276 401.5701 43.86348
v 488.8902 401.0872 35.2031
v 419.2516 401.5701 34.51632
v 405.5898 401.5701 115.3147
v 471.4137 401.5702 134.8981
v 419.2519 396.5701 34.5162
v 405.5901 396.5701 115.3145
v 405.5898 401.5701 115.3147
v 419.2516 401.5701 34.51632
v 471.4139 396.5702 134.898
v 488.8905 396.0872 35.20293
v 488.8902 401.0872 35.2031
v 471.4137 401.5702 134.8981
v 488.9423 1.174881 28.16507
v 419.4043 1.657791 30.00127
v 405.7425 1.657776 110.7996
v 471.4658 1.657776 127.8599
v 419.4047 -3.342209 30.00113
v 405.7429 -3.342224 110.7995
v 405.7425 1.657776 110.7996
v 419.4043 1.657791 30.00127
v 471.4661 -3.342224 127.8598
v 488.9426 -3.825119 28.1649
v 488.9423 1.174881 28.16507
v 471.4658 1.657776 127.8599

vn 0.001250629 0.9999892 -0.004484477
vn 0.002491869 0.999957 -0.008934797
vn 0.001250629 0.9999892 -0.004484477
vn -1.540406E-07 1 6.240482E-08
vn -0.3243724 -5.819026E-05 -0.9459295
vn -0.3243724 -5.845596E-05 -0.9459295
vn -0.3243724 -5.819026E-05 -0.9459295
vn -0.3243724 -5.792455E-05 -0.9459295
vn 0.3187941 5.375084E-05 0.9478241
vn 0.318794 5.680336E-05 0.9478241
vn 0.3187941 5.375084E-05 0.9478241
vn 0.3187942 5.069832E-05 0.947824
vn 0.001271884 0.9999892 -0.004462107
vn 0.002292348 0.999965 -0.008043768
vn 0.001271884 0.9999892 -0.004462107
vn 3.068949E-07 1 9.155387E-07
vn -0.323544 -5.740787E-05 -0.9462132
vn -0.3235439 -5.620181E-05 -0.9462132
vn -0.323544 -5.740787E-05 -0.9462132
vn -0.323544 -5.861392E-05 -0.9462131
vn 0.3178261 5.735181E-05 0.9481491
vn 0.3178261 5.630905E-05 0.9481489
vn 0.3178261 5.735181E-05 0.9481491
vn 0.3178261 5.839456E-05 0.9481491
vn 0.003693106 0.9999905 0.002309915
vn 0.00250619 0.9999754 0.006558537
vn 0.003693106 0.9999905 0.002309915
vn 0.004661923 0.9999885 -0.001158238
vn -0.3569531 -5.2287E-05 -0.9341224
vn -0.3569532 -5.422358E-05 -0.9341223
vn -0.3569531 -5.2287E-05 -0.9341224
vn -0.3569529 -5.035042E-05 -0.9341223
vn 0.3513078 5.499575E-05 0.9362601
vn 0.3513076 6.006112E-05 0.9362601
vn 0.3513078 5.499575E-05 0.9362601
vn 0.351308 4.993036E-05 0.93626
vn 0.003668435 0.9999907 0.002246109
vn 0.002525112 0.999975 0.006608581
vn 0.003668435 0.9999907 0.002246109
vn 0.004601932 0.9999885 -0.001315991
vn -0.3569525 -6.539595E-05 -0.9341227
vn -0.3569523 -6.316144E-05 -0.9341226
vn -0.3569525 -6.539595E-05 -0.9341227
vn -0.3569525 -6.763046E-05 -0.9341225
vn 0.3513082 5.535762E-05 0.9362599
vn 0.3513083 5.427216E-05 0.9362599
vn 0.3513082 5.535762E-05 0.9362599
vn 0.3513082 5.644308E-05 0.9362598

vt 1.004449 1.00175
vt 1.020001 0.01578623
vt -0.04338657 0.008043885
vt -0.01167589 0.9938346
vt 0.07632852 -0.5137923
vt 0.07632846 1
vt -4.371139E-08 1
vt 0 -0.5137923
vt 0.07632852 -0.5137923
vt 0.07632846 1
vt -4.371139E-08 1
vt 0 -0.5137923
vt 1.306698 0.9928071
vt 1.305218 0.01692402
vt -0.2765858 0.01638126
vt -0.2632408 1.0023
vt 0.5507835 -0.5137923
vt 0.5507835 1
vt 0.474455 1
vt 0.474455 -0.5137923
vt 0.5507835 -0.5137923
vt 0.5507835 1
vt 0.474455 1
vt 0.474455 -0.5137923
vt 1.306698 0.01111048
vt 1.305218 0.9869936
vt -0.1032248 0.9875363
vt -0.2632408 -0.0083763
vt 0.4844445 -0.5137923
vt 0.4844444 1
vt 0.4081159 1
vt 0.408116 -0.5137923
vt 0.4844445 -0.5137923
vt 0.4844444 1
vt 0.4081159 1
vt 0.408116 -0.5137923
vt 1.189611 0.001710474
vt 1.205164 0.9774709
vt -0.05480371 1.00562
vt -0.2535391 0.009625793
vt 0.3457005 -0.5137923
vt 0.3457004 1
vt 0.269372 1
vt 0.269372 -0.5137923
vt 0.3327053 -0.509372
vt 0.3327053 1.00442
vt 0.2563768 1.00442
vt 0.2563768 -0.509372

usemtl sn16_06_sn16g41.jpg
usemap sn16_06_sn16g41.jpg
f 3/3/3 1/1/1 2/2/2
f 1/1/1 3/3/3 4/4/4
f 7/7/7 5/5/5 6/6/6
f 5/5/5 7/7/7 8/8/8
f 11/11/11 9/9/9 10/10/10
f 9/9/9 11/11/11 12/12/12
f 15/15/15 13/13/13 14/14/14
f 13/13/13 15/15/15 16/16/16
f 19/19/19 17/17/17 18/18/18
f 17/17/17 19/19/19 20/20/20
f 23/23/23 21/21/21 22/22/22
f 21/21/21 23/23/23 24/24/24
f 27/27/27 25/25/25 26/26/26
f 25/25/25 27/27/27 28/28/28
f 31/31/31 29/29/29 30/30/30
f 29/29/29 31/31/31 32/32/32
f 35/35/35 33/33/33 34/34/34
f 33/33/33 35/35/35 36/36/36
f 39/39/39 37/37/37 38/38/38
f 37/37/37 39/39/39 40/40/40
f 43/43/43 41/41/41 42/42/42
f 41/41/41 43/43/43 44/44/44
f 47/47/47 45/45/45 46/46/46
f 45/45/45 47/47/47 48/48/48
