mtllib ./Cylinder04.mtl
g Cylinder04
v 9.245819 -0.5374756 6.717041
v 9.245819 -0.5374756 -6.718048
v 8.699707 41.24982 -6.292267
v 9.245819 -0.5374756 -6.718048
v -3.531708 -0.5374756 -10.86972
v -3.327911 40.28979 -10.24248
v 18.82761 -1.525879 -95.60126
v 25.39542 82.98334 -86.0152
v 18.43076 82.98334 -95.60126
v 25.51804 -1.525879 -86.39261
v 25.51804 -1.525879 -86.39261
v 36.66452 82.98334 -89.67673
v 25.39542 82.98334 -86.0152
v 36.34348 -1.525879 -89.91
v 36.34348 -1.525879 -89.91
v 36.66452 82.98334 -101.5258
v 36.66452 82.98334 -89.67673
v 36.34348 -1.525879 -101.2925
v 36.34348 -1.525879 -101.2925
v 25.39542 82.98334 -105.1873
v 36.66452 82.98334 -101.5258
v 25.51804 -1.525879 -104.8099
v 25.51804 -1.525879 -104.8099
v 18.43076 82.98334 -95.60126
v 25.39542 82.98334 -105.1873
v 18.82761 -1.525879 -95.60126
v 24.73328 100.0003 -83.97723
v 16.2879 100.0003 -95.60126
v 38.3981 100.0003 -88.41721
v 24.73328 100.0003 -83.97723
v 38.3981 100.0003 -102.7853
v 38.3981 100.0003 -88.41721
v 24.73325 100.0003 -107.2253
v 38.3981 100.0003 -102.7853
v 16.2879 100.0003 -95.60126
v 24.73325 100.0003 -107.2253
v 146.8562 0.0003051758 -158.152
v 138.5987 82.98334 -150.1033
v 146.755 82.98334 -158.6983
v 139.1494 0.0003051758 -150.0308
v 139.1494 0.0003051758 -150.0308
v 144.2525 80.37231 -139.6902
v 138.5987 82.98334 -150.1033
v 144.4917 0.0003051758 -140.1916
v 155.5002 0.0003051758 -142.2319
v 156.9615 0.0003051758 -153.3321
v 157.4497 80.37231 -153.5972
v 156.9615 0.0003051758 -153.3321
v 146.755 82.98334 -158.6983
v 157.4497 80.37231 -153.5972
v 146.8562 0.0003051758 -158.152
v 136.4742 99.45715 -150.383
v 146.3645 99.45715 -160.8053
v 136.4742 99.45715 -150.383
v 146.3645 99.45715 -160.8053
v 144.4917 0.0003051758 -140.1916
v 155.3468 75.19226 -141.9004
v 144.2525 80.37231 -139.6902
v 155.5002 0.0003051758 -142.2319
v 155.3468 75.19226 -141.9004
v 136.4742 99.45715 -150.383
v 144.2525 80.37231 -139.6902
v 157.4497 80.37231 -153.5972
v 146.3645 99.45715 -160.8053
v 155.3468 75.19226 -141.9004
v -3.531708 -0.5374756 -10.86972
v -11.42865 -0.5374756 -0.00050354
v -10.93314 30.13794 -0.00050354
v -11.42865 -0.5374756 -0.00050354
v -8.722931 26.64429 3.119263
v -10.93314 30.13794 -0.00050354
v -3.531708 -0.5374756 10.86871
v -3.421906 21.45941 10.53076
v -3.531708 -0.5374756 10.86871
v -0.6753845 19.87701 9.66011
v -3.421906 21.45941 10.53076
v 9.245819 -0.5374756 6.717041
v 8.977875 19.96387 6.462387
v 8.699707 41.24982 -6.292267
v 8.977875 19.96387 6.462387
v 8.699707 41.24982 -6.292267
v -3.327911 40.28979 -10.24248
v 8.977875 19.96387 6.462387
v 8.699707 41.24982 -6.292267
v -10.93314 30.13794 -0.00050354
v -8.722931 26.64429 3.119263
v -0.6753845 19.87701 9.66011
v -3.421906 21.45941 10.53076
v -3.327911 40.28979 -10.24248
v 313.1064 -0.5374756 -165.9607
v 300.4771 82.98334 -167.1913
v 312.1277 82.98334 -165.032
v 299.8962 -0.5374756 -168.4091
v 299.8962 -0.5374756 -168.4091
v 294.8232 82.98334 -156.7782
v 300.4771 82.98334 -167.1913
v 293.4856 -0.5374756 -156.6021
v 293.4856 -0.5374756 -156.6021
v 302.9795 82.98334 -148.1832
v 294.8232 82.98334 -156.7782
v 302.7337 -0.5374756 -146.8566
v 302.7337 -0.5374756 -146.8566
v 313.6743 82.98334 -153.2843
v 302.9795 82.98334 -148.1832
v 314.86 -0.5374756 -152.6406
v 314.86 -0.5374756 -152.6406
v 312.1277 82.98334 -165.032
v 313.6743 82.98334 -153.2843
v 313.1064 -0.5374756 -165.9607
v 299.5545 100.0003 -169.1254
v 313.682 100.0003 -166.507
v 292.6987 100.0003 -156.4985
v 299.5545 100.0003 -169.1254
v 302.589 100.0003 -146.0762
v 292.6987 100.0003 -156.4985
v 315.5575 100.0003 -152.2619
v 302.589 100.0003 -146.0762
v 313.682 100.0003 -166.507
v 315.5575 100.0003 -152.2619
v 356.9665 -1.525879 -75.78735
v 345.6037 82.98334 -78.21982
v 357.2543 82.98334 -76.06052
v 345.7746 -1.525879 -77.86163
v 345.7746 -1.525879 -77.86163
v 339.9499 82.98334 -67.8067
v 345.6037 82.98334 -78.21982
v 340.3433 -1.525879 -67.85849
v 340.3433 -1.525879 -67.85849
v 348.1062 82.98334 -59.21173
v 339.9499 82.98334 -67.8067
v 348.1785 -1.525879 -59.60193
v 348.1785 -1.525879 -59.60193
v 358.8009 82.98334 -64.31287
v 348.1062 82.98334 -59.21173
v 358.4522 -1.525879 -64.50223
v 358.4522 -1.525879 -64.50223
v 357.2543 82.98334 -76.06052
v 358.8009 82.98334 -64.31287
v 356.9665 -1.525879 -75.78735
v 344.6812 100.0003 -80.15393
v 358.8087 100.0003 -77.53555
v 337.8253 100.0003 -67.52701
v 344.6812 100.0003 -80.15393
v 347.7157 100.0003 -57.10477
v 337.8253 100.0003 -67.52701
v 360.6841 100.0003 -63.29041
v 347.7157 100.0003 -57.10477
v 358.8087 100.0003 -77.53555
v 360.6841 100.0003 -63.29041
v 353.221 0.0003051758 16.32904
v 341.1674 82.98334 14.55215
v 352.8181 82.98334 16.71146
v 340.9283 0.0003051758 14.05072
v 340.9283 0.0003051758 14.05072
v 335.5136 82.98334 24.96526
v 341.1674 82.98334 14.55215
v 334.9628 0.0003051758 25.03777
v 334.9628 0.0003051758 25.03777
v 343.67 82.98334 33.56023
v 335.5136 82.98334 24.96526
v 343.5687 0.0003051758 34.10648
v 343.5687 0.0003051758 34.10648
v 354.3647 82.98334 28.45909
v 343.67 82.98334 33.56023
v 354.8529 0.0003051758 28.72418
v 354.8529 0.0003051758 28.72418
v 352.8181 82.98334 16.71146
v 354.3647 82.98334 28.45909
v 353.221 0.0003051758 16.32904
v 340.245 100.0003 12.61804
v 354.3725 100.0003 15.23642
v 333.3891 100.0003 25.24495
v 340.245 100.0003 12.61804
v 343.2794 100.0003 35.66719
v 333.3891 100.0003 25.24495
v 356.2478 100.0003 29.48157
v 343.2794 100.0003 35.66719
v 354.3725 100.0003 15.23642
v 356.2478 100.0003 29.48157

vn 0.9999146 0.01306798 7.803876E-07
vn 0.9999146 0.01306774 0
vn 0.9999146 0.01306774 0
vn 0.3099829 0.0134016 -0.9506477
vn 0.3089907 0.01306778 -0.9509753
vn 0.3099829 0.0134016 -0.9506477
vn -0.8090125 -0.003798947 0.5877792
vn -0.8089505 -0.01293224 0.5877343
vn -0.8085496 -0.03400748 0.5874446
vn -0.809013 -0.003798814 0.5877784
vn 0.3090137 -0.003799055 0.95105
vn 0.30899 -0.0129324 0.9509774
vn 0.3088367 -0.03400747 0.9505069
vn 0.3090145 -0.00379917 0.9510497
vn 0.9999928 -0.003798907 0
vn 0.9999164 -0.01293229 0
vn 0.9994217 -0.03400724 0
vn 0.9999927 -0.003798906 0
vn 0.3090125 -0.003798882 -0.9510504
vn 0.3089889 -0.01293236 -0.9509777
vn 0.3088366 -0.03400734 -0.950507
vn 0.3090121 -0.003798943 -0.9510505
vn -0.8090116 -0.003798949 -0.5877804
vn -0.8089497 -0.01293245 -0.5877356
vn -0.8085489 -0.03400751 -0.5874455
vn -0.8090122 -0.00379908 -0.5877797
vn -0.8048512 -0.1013494 0.5847589
vn -0.8048503 -0.1013504 0.5847598
vn 0.307425 -0.1013499 0.9461597
vn 0.3074259 -0.1013506 0.9461593
vn 0.9948509 -0.1013491 0
vn 0.9948509 -0.1013491 0
vn 0.3074247 -0.1013496 -0.9461598
vn 0.3074253 -0.1013491 -0.9461596
vn -0.8048509 -0.1013501 -0.5847592
vn -0.8048507 -0.1013498 -0.5847595
vn -0.7253625 -0.005416263 -0.6883458
vn -0.7252951 -0.01465961 -0.6882818
vn -0.7249075 -0.03585673 -0.6879122
vn -0.7253618 -0.005416146 -0.6883464
vn -0.8791012 -0.005502217 0.4766035
vn -0.8800275 -0.01489506 0.4746893
vn -0.8809088 -0.02202138 0.4727735
vn -0.8788038 -0.005591481 0.4771506
vn 0.9880711 -0.002192505 0.1539829
vn 0.99143 -0.005591931 0.1305192
vn 0.9880711 -0.002192505 0.1539829
vn 0.4299416 -0.005502797 -0.90284
vn 0.4279814 -0.01489567 -0.9036649
vn 0.4259037 -0.02258385 -0.9044866
vn 0.4305049 -0.005416186 -0.902572
vn -0.7213916 -0.1046556 -0.6845739
vn -0.7213926 -0.1046568 -0.6845728
vn -0.8847727 -0.1064005 0.4537138
vn 0.4067852 -0.1064015 -0.9073062
vn 0.1877621 -0.004785316 0.9822029
vn 0.1877621 -0.004785316 0.9822029
vn 0.192884 -0.005547391 0.9812059
vn 0.1822351 -0.003963682 0.983247
vn 0.9841248 0.001224949 0.1774734
vn 0.5994677 0.5630491 0.568871
vn 0.5650935 0.62698 0.5362512
vn 0.5777915 0.6045849 0.5483011
vn 0.5994678 0.5630491 0.568871
vn 0.4509676 0.7832539 0.4279504
vn -0.808948 0.01306746 -0.5877351
vn -0.8089481 0.01306731 -0.5877347
vn -0.808948 0.01306746 -0.5877351
vn -0.8089482 0.01306727 0.5877346
vn -0.8089479 0.01306742 0.5877351
vn -0.8089483 0.01306731 0.5877345
vn -0.8089478 0.01306744 0.5877352
vn -0.8089473 0.01306778 0.587736
vn 0.3089906 0.0130679 0.9509754
vn 0.3110124 0.01414771 0.9503006
vn 0.3089898 0.01306803 0.9509756
vn 0.3112792 0.01429018 0.950211
vn 0.3142859 0.01589786 0.9491953
vn 0.9999145 0.01306851 2.491354E-06
vn 0.9999145 0.01306851 2.491354E-06
vn 0.3110104 0.01374747 -0.950307
vn -0.8089477 0.01306758 -0.5877352
vn 0.0339333 0.5882634 0.8079571
vn -0.08561766 0.601153 0.7945341
vn -0.06564714 0.6125135 0.7877294
vn 0.225573 0.7847218 0.5773461
vn 0.2670773 0.814858 0.5144668
vn 0.5350188 0.8225543 0.192767
vn -0.2523622 0.7743977 0.5801911
vn 0.1822213 0.0130679 -0.9831707
vn 0.1822361 0.003050517 -0.98325
vn 0.1821906 -0.02264172 -0.9830025
vn 0.1822206 0.01306779 -0.9831708
vn -0.8787426 0.01306785 -0.4771172
vn -0.8788134 0.003050475 -0.4771557
vn -0.8785917 -0.02264154 -0.4770367
vn -0.8787432 0.01306764 -0.4771159
vn -0.7253123 0.01306766 0.6882959
vn -0.725371 0.003050298 0.6883515
vn -0.725189 -0.02264146 0.6881776
vn -0.7253118 0.01306754 0.6882966
vn 0.430474 0.0130678 0.9025083
vn 0.4305088 0.003050492 0.9025812
vn 0.4304005 -0.02264138 0.9023541
vn 0.4304742 0.01306779 0.9025083
vn 0.9913599 0.01306813 -0.1305174
vn 0.99144 0.00305061 -0.130528
vn 0.9911904 -0.02264155 -0.1304948
vn 0.9913599 0.01306812 -0.1305175
vn 0.1812981 -0.1013512 -0.9781917
vn 0.1812971 -0.101352 -0.9781919
vn -0.8742921 -0.101351 -0.4747013
vn -0.8742924 -0.1013517 -0.4747004
vn -0.7216398 -0.10135 0.6848094
vn -0.7216399 -0.10135 0.6848095
vn 0.4282944 -0.1013498 0.8979377
vn 0.4282947 -0.1013501 0.8979375
vn 0.9863394 -0.1013511 -0.1298558
vn 0.9863396 -0.1013507 -0.1298553
vn 0.1822334 -0.003798955 -0.9832479
vn 0.1822195 -0.01293245 -0.9831728
vn 0.1821298 -0.03400768 -0.9826862
vn 0.1822329 -0.003799021 -0.9832481
vn -0.8788104 -0.003798909 -0.477156
vn -0.8787433 -0.01293238 -0.4771195
vn -0.8783087 -0.03400785 -0.476883
vn -0.8788103 -0.003798897 -0.477156
vn -0.7253689 -0.003798925 0.6883498
vn -0.7253136 -0.01293239 0.6882971
vn -0.7249554 -0.03400746 0.6879559
vn -0.7253683 -0.003799069 0.6883506
vn 0.4305079 -0.003799008 0.9025788
vn 0.4304751 -0.01293227 0.9025099
vn 0.4302621 -0.03400724 0.9020633
vn 0.4305083 -0.003799058 0.9025787
vn 0.9914375 -0.0037989 -0.1305263
vn 0.9913617 -0.01293248 -0.1305165
vn 0.9908713 -0.03400733 -0.1304518
vn 0.9914377 -0.003798781 -0.1305255
vn 0.181297 -0.1013504 -0.978192
vn 0.1812972 -0.1013502 -0.978192
vn -0.8742921 -0.101351 -0.4747013
vn -0.8742924 -0.1013517 -0.4747004
vn -0.7216398 -0.10135 0.6848094
vn -0.7216399 -0.10135 0.6848095
vn 0.4282953 -0.1013491 0.8979374
vn 0.4282964 -0.10135 0.8979367
vn 0.9863399 -0.1013492 -0.1298534
vn 0.9863403 -0.1013475 -0.1298512
vn 0.1822322 0.005416109 -0.9832406
vn 0.1822331 -0.004318362 -0.9832458
vn 0.1821627 -0.02805989 -0.982868
vn 0.1822328 0.005416195 -0.9832406
vn -0.8788033 0.005415831 -0.4771535
vn -0.8788081 -0.004318479 -0.4771559
vn -0.8784704 -0.02805972 -0.4769722
vn -0.8788031 0.005415922 -0.477154
vn -0.7253625 0.005416075 0.6883458
vn -0.7253664 -0.004318297 0.6883496
vn -0.7250868 -0.02805978 0.6880856
vn -0.7253633 0.005416245 0.688345
vn 0.4305051 0.00541622 0.9025719
vn 0.4305075 -0.004318137 0.9025767
vn 0.4303432 -0.02805978 0.9022291
vn 0.4305039 0.005416417 0.9025724
vn 0.9914303 0.005416237 -0.1305247
vn 0.9914356 -0.004318184 -0.1305251
vn 0.9910548 -0.02805948 -0.1304718
vn 0.9914299 0.005415766 -0.1305279
vn 0.1812966 -0.1013507 -0.978192
vn 0.1812972 -0.1013502 -0.978192
vn -0.874291 -0.1013495 -0.4747036
vn -0.8742907 -0.1013489 -0.4747042
vn -0.7216375 -0.10135 0.6848119
vn -0.7216378 -0.1013497 0.6848117
vn 0.4282957 -0.1013502 0.897937
vn 0.4282955 -0.1013501 0.8979371
vn 0.98634 -0.1013509 -0.1298511
vn 0.98634 -0.1013509 -0.1298511

vt 0.314194 0.0004995167
vt 0.6845645 0.0004995167
vt 0.6857788 0.3788057
vt 0.32684 0.0004995167
vt 0.6559896 0.0004995167
vt 0.6583474 0.3655929
vt 0.3174095 0.0004995167
vt 0.6722158 0.7586454
vt 0.3174095 0.7586454
vt 0.6770392 0.0004995167
vt 0.3185997 0.0004995167
vt 0.6713674 0.7660748
vt 0.3137763 0.7660748
vt 0.6737959 0.0004995167
vt 0.314194 0.0004995167
vt 0.6869931 0.7571002
vt 0.3117654 0.7571002
vt 0.6845645 0.0004995167
vt 0.32684 0.0004995167
vt 0.660813 0.7473751
vt 0.3292686 0.7473751
vt 0.6559896 0.0004995167
vt 0.3145403 0.0004995167
vt 0.6688405 0.7510465
vt 0.3193637 0.7510465
vt 0.6688405 0.0004995167
vt 0.9860976 0.9995005
vt 0.01534209 0.9995005
vt 1.000646 0.9995005
vt 0.001817018 0.9995005
vt 0.9835966 0.9995005
vt 0.009798914 0.9995005
vt 0.9827563 0.9995005
vt -0.01208773 0.9995005
vt 0.982657 0.9995005
vt 0.01947114 0.9995005
vt 0.3174095 0.0004995167
vt 0.6722158 0.7586454
vt 0.3174095 0.7586454
vt 0.6770392 0.0004995167
vt 0.3185997 0.0004995167
vt 0.6713674 0.7660748
vt 0.3137763 0.7660748
vt 0.6737959 0.0004995167
vt 0.32684 0.0004995167
vt 0.6559896 0.0004995167
vt 0.660813 0.7473751
vt 0.3145403 0.0004995167
vt 0.6688405 0.7510465
vt 0.3193637 0.7510465
vt 0.6688405 0.0004995167
vt 0.9860976 0.9995005
vt 0.01534209 0.9995005
vt 0.001817018 0.9995005
vt 0.982657 0.9995005
vt 0.314194 0.0004995167
vt 0.6528119 0.6877291
vt 0.3117654 0.7571002
vt 0.6845645 0.0004995167
vt 0.3290671 0.6853865
vt 0.5127677 0.6116951
vt 0.4253675 0.5516662
vt 0.507917 0.3883049
vt 0.5746325 0.4892677
vt 0.4264767 0.4325328
vt 0.3145403 0.0004995167
vt 0.6688405 0.0004995167
vt 0.6688405 0.2761595
vt 0.3174095 0.0004995167
vt 0.432881 0.2472375
vt 0.3174095 0.2789504
vt 0.6770392 0.0004995167
vt 0.6757689 0.2001722
vt 0.3185997 0.0004995167
vt 0.4048245 0.1876242
vt 0.3173293 0.2021289
vt 0.6737959 0.0004995167
vt 0.6732091 0.185481
vt 0.6833009 0.37852
vt 0.3173883 0.189123
vt 0.3280543 0.3739431
vt 0.3168981 0.3673876
vt 0.3086205 0.576344
vt 0.3139678 0.4222282
vt 0.6913795 0.4982522
vt 0.6488915 0.5359487
vt 0.4941898 0.6149824
vt 0.5469877 0.6255026
vt 0.5451806 0.3744974
vt 0.3174095 0.0004995167
vt 0.6722158 0.7586454
vt 0.3174095 0.7586454
vt 0.6770392 0.0004995167
vt 0.3185997 0.0004995167
vt 0.6713674 0.7660748
vt 0.3137763 0.7660748
vt 0.6737959 0.0004995167
vt 0.314194 0.0004995167
vt 0.6869931 0.7571002
vt 0.3117654 0.7571002
vt 0.6845645 0.0004995167
vt 0.32684 0.0004995167
vt 0.660813 0.7473751
vt 0.3292686 0.7473751
vt 0.6559896 0.0004995167
vt 0.3145403 0.0004995167
vt 0.6688405 0.7510465
vt 0.3193637 0.7510465
vt 0.6688405 0.0004995167
vt 0.9860976 0.9995005
vt 0.01534209 0.9995005
vt 1.000646 0.9995005
vt 0.001817018 0.9995005
vt 0.9835966 0.9995005
vt 0.009798914 0.9995005
vt 0.9827563 0.9995005
vt -0.01208773 0.9995005
vt 0.982657 0.9995005
vt 0.01947114 0.9995005
vt 0.3174095 0.0004995167
vt 0.6722158 0.7586454
vt 0.3174095 0.7586454
vt 0.6770392 0.0004995167
vt 0.3185997 0.0004995167
vt 0.6713674 0.7660748
vt 0.3137763 0.7660748
vt 0.6737959 0.0004995167
vt 0.314194 0.0004995167
vt 0.6869931 0.7571002
vt 0.3117654 0.7571002
vt 0.6845645 0.0004995167
vt 0.32684 0.0004995167
vt 0.660813 0.7473751
vt 0.3292686 0.7473751
vt 0.6559896 0.0004995167
vt 0.3145403 0.0004995167
vt 0.6688405 0.7510465
vt 0.3193637 0.7510465
vt 0.6688405 0.0004995167
vt 0.9860976 0.9995005
vt 0.01534209 0.9995005
vt 1.000646 0.9995005
vt 0.001817018 0.9995005
vt 0.9835966 0.9995005
vt 0.009798914 0.9995005
vt 0.9827563 0.9995005
vt -0.01208773 0.9995005
vt 0.982657 0.9995005
vt 0.01947114 0.9995005
vt 0.3174095 0.0004995167
vt 0.6722158 0.7586454
vt 0.3174095 0.7586454
vt 0.6770392 0.0004995167
vt 0.3185997 0.0004995167
vt 0.6713674 0.7660748
vt 0.3137763 0.7660748
vt 0.6737959 0.0004995167
vt 0.314194 0.0004995167
vt 0.6869931 0.7571002
vt 0.3117654 0.7571002
vt 0.6845645 0.0004995167
vt 0.32684 0.0004995167
vt 0.660813 0.7473751
vt 0.3292686 0.7473751
vt 0.6559896 0.0004995167
vt 0.3145403 0.0004995167
vt 0.6688405 0.7510465
vt 0.3193637 0.7510465
vt 0.6688405 0.0004995167
vt 0.9860976 0.9995005
vt 0.01534209 0.9995005
vt 1.000646 0.9995005
vt 0.001817018 0.9995005
vt 0.9835966 0.9995005
vt 0.009798914 0.9995005
vt 0.9827563 0.9995005
vt -0.01208773 0.9995005
vt 0.982657 0.9995005
vt 0.01947114 0.9995005

usemtl sn16_16_sn16g17.jpg
usemap sn16_16_sn16g17.jpg
f 3/3/3 1/1/1 2/2/2
f 6/6/6 4/4/4 5/5/5
f 9/9/9 7/7/7 8/8/8
f 8/8/8 7/7/7 10/10/10
f 13/13/13 11/11/11 12/12/12
f 12/12/12 11/11/11 14/14/14
f 17/17/17 15/15/15 16/16/16
f 16/16/16 15/15/15 18/18/18
f 21/21/21 19/19/19 20/20/20
f 20/20/20 19/19/19 22/22/22
f 25/25/25 23/23/23 24/24/24
f 24/24/24 23/23/23 26/26/26
f 28/28/28 9/9/9 27/27/27
f 27/27/27 9/9/9 8/8/8
f 30/30/30 13/13/13 29/29/29
f 29/29/29 13/13/13 12/12/12
f 32/32/32 17/17/17 31/31/31
f 31/31/31 17/17/17 16/16/16
f 34/34/34 21/21/21 33/33/33
f 33/33/33 21/21/21 20/20/20
f 36/36/36 25/25/25 35/35/35
f 35/35/35 25/25/25 24/24/24
f 39/39/39 37/37/37 38/38/38
f 38/38/38 37/37/37 40/40/40
f 43/43/43 41/41/41 42/42/42
f 42/42/42 41/41/41 44/44/44
f 47/47/47 45/45/45 46/46/46
f 50/50/50 48/48/48 49/49/49
f 49/49/49 48/48/48 51/51/51
f 53/53/53 39/39/39 52/52/52
f 52/52/52 39/39/39 38/38/38
f 54/54/54 43/43/43 42/42/42
f 55/55/55 50/50/50 49/49/49
f 58/58/58 56/56/56 57/57/57
f 57/57/57 56/56/56 59/59/59
f 60/60/60 45/45/45 47/47/47
f 68/68/68 66/66/66 67/67/67
f 71/71/71 69/69/69 70/70/70
f 70/70/70 69/69/69 72/72/72
f 73/73/73 70/70/70 72/72/72
f 76/76/76 74/74/74 75/75/75
f 75/75/75 74/74/74 77/77/77
f 78/78/78 75/75/75 77/77/77
f 80/80/80 1/1/1 79/79/79
f 81/81/81 4/4/4 6/6/6
f 82/82/82 66/66/66 68/68/68
f 92/92/92 90/90/90 91/91/91
f 91/91/91 90/90/90 93/93/93
f 96/96/96 94/94/94 95/95/95
f 95/95/95 94/94/94 97/97/97
f 100/100/100 98/98/98 99/99/99
f 99/99/99 98/98/98 101/101/101
f 104/104/104 102/102/102 103/103/103
f 103/103/103 102/102/102 105/105/105
f 108/108/108 106/106/106 107/107/107
f 107/107/107 106/106/106 109/109/109
f 111/111/111 92/92/92 110/110/110
f 110/110/110 92/92/92 91/91/91
f 113/113/113 96/96/96 112/112/112
f 112/112/112 96/96/96 95/95/95
f 115/115/115 100/100/100 114/114/114
f 114/114/114 100/100/100 99/99/99
f 117/117/117 104/104/104 116/116/116
f 116/116/116 104/104/104 103/103/103
f 119/119/119 108/108/108 118/118/118
f 118/118/118 108/108/108 107/107/107
f 122/122/122 120/120/120 121/121/121
f 121/121/121 120/120/120 123/123/123
f 126/126/126 124/124/124 125/125/125
f 125/125/125 124/124/124 127/127/127
f 130/130/130 128/128/128 129/129/129
f 129/129/129 128/128/128 131/131/131
f 134/134/134 132/132/132 133/133/133
f 133/133/133 132/132/132 135/135/135
f 138/138/138 136/136/136 137/137/137
f 137/137/137 136/136/136 139/139/139
f 141/141/141 122/122/122 140/140/140
f 140/140/140 122/122/122 121/121/121
f 143/143/143 126/126/126 142/142/142
f 142/142/142 126/126/126 125/125/125
f 145/145/145 130/130/130 144/144/144
f 144/144/144 130/130/130 129/129/129
f 147/147/147 134/134/134 146/146/146
f 146/146/146 134/134/134 133/133/133
f 149/149/149 138/138/138 148/148/148
f 148/148/148 138/138/138 137/137/137
f 152/152/152 150/150/150 151/151/151
f 151/151/151 150/150/150 153/153/153
f 156/156/156 154/154/154 155/155/155
f 155/155/155 154/154/154 157/157/157
f 160/160/160 158/158/158 159/159/159
f 159/159/159 158/158/158 161/161/161
f 164/164/164 162/162/162 163/163/163
f 163/163/163 162/162/162 165/165/165
f 168/168/168 166/166/166 167/167/167
f 167/167/167 166/166/166 169/169/169
f 171/171/171 152/152/152 170/170/170
f 170/170/170 152/152/152 151/151/151
f 173/173/173 156/156/156 172/172/172
f 172/172/172 156/156/156 155/155/155
f 175/175/175 160/160/160 174/174/174
f 174/174/174 160/160/160 159/159/159
f 177/177/177 164/164/164 176/176/176
f 176/176/176 164/164/164 163/163/163
f 179/179/179 168/168/168 178/178/178
f 178/178/178 168/168/168 167/167/167

usemtl sn16_15_sn16g18.jpg
usemap sn16_15_sn16g18.jpg
f 63/63/63 61/61/61 62/62/62
f 61/61/61 63/63/63 64/64/64
f 62/62/62 65/65/65 63/63/63
f 85/85/85 83/83/83 84/84/84
f 83/83/83 85/85/85 86/86/86
f 86/86/86 87/87/87 83/83/83
f 87/87/87 86/86/86 88/88/88
f 84/84/84 89/89/89 85/85/85
