mtllib ./doorx32.mtl
g doorx32
v -71.0011 -46.50122 -21.11543
v -56.05734 -46.50122 -8.352242
v -71.06476 1.838013 -21.16981
v -56.00787 -8.021484 -8.31002
v -71.06476 1.838013 -21.16981
v -56.00787 -8.021484 -8.31002
v -57.43994 22.08893 -9.533112
v -46.4039 5.672668 -0.1074524
v -57.43994 22.08893 -9.533112
v -46.4039 5.672668 -0.1074524
v -38.49472 31.40717 6.647629
v -31.08792 12.79248 12.97363
v -38.49472 31.40717 6.647629
v -31.08792 12.79248 12.97363
v -0.02420044 31.40717 39.50456
v -6.625916 12.79248 33.86617
v -0.02420044 31.40717 39.50456
v -6.625916 12.79248 33.86617
v 19.15076 21.46075 55.88154
v 8.119507 5.672668 46.45996
v 19.15076 21.46075 55.88154
v 8.119507 5.672668 46.45996
v 32.02673 1.631775 66.87862
v 17.09851 -7.442993 54.12875
v 32.02673 1.631775 66.87862
v 17.09851 -7.442993 54.12875
v 32.00226 -42.57935 66.85777
v 17.18732 -42.57935 54.20457
v -16.9697 -8.021484 -54.01788
v -17.01913 -46.50122 -54.0601
v -32.02658 1.838013 -66.87765
v -31.96292 -46.50122 -66.82328
v -7.365723 5.672668 -45.8153
v -16.9697 -8.021484 -54.01788
v -18.40173 22.08893 -55.24094
v -32.02658 1.838013 -66.87765
v 7.950256 12.79254 -32.73421
v -7.365723 5.672668 -45.8153
v 0.543457 31.40717 -39.0602
v -18.40173 22.08893 -55.24094
v 32.41229 12.79254 -11.84166
v 7.950256 12.79254 -32.73421
v 39.01398 31.40717 -6.203278
v 0.543457 31.40717 -39.0602
v 47.15771 5.672668 0.7521362
v 32.41229 12.79254 -11.84166
v 58.18896 21.46075 10.17371
v 39.01398 31.40717 -6.203278
v 56.13672 -7.442993 8.420921
v 47.15771 5.672668 0.7521362
v 71.06488 1.631775 21.17079
v 58.18896 21.46075 10.17371
v 56.22552 -42.57935 8.496742
v 56.13672 -7.442993 8.420921
v 71.04047 -42.57935 21.14994
v 71.06488 1.631775 21.17079
v -56.00787 -8.021484 -8.31002
v -56.05734 -46.50122 -8.352242
v -16.9697 -8.021484 -54.01788
v -17.01913 -46.50122 -54.0601
v -46.4039 5.672668 -0.1074524
v -56.00787 -8.021484 -8.31002
v -7.365723 5.672668 -45.8153
v -16.9697 -8.021484 -54.01788
v -31.08792 12.79248 12.97363
v -46.4039 5.672668 -0.1074524
v 7.950256 12.79254 -32.73421
v -7.365723 5.672668 -45.8153
v -6.625916 12.79248 33.86617
v -31.08792 12.79248 12.97363
v 32.41229 12.79254 -11.84166
v 7.950256 12.79254 -32.73421
v 8.119507 5.672668 46.45996
v -6.625916 12.79248 33.86617
v 47.15771 5.672668 0.7521362
v 32.41229 12.79254 -11.84166
v 17.09851 -7.442993 54.12875
v 8.119507 5.672668 46.45996
v 56.13672 -7.442993 8.420921
v 47.15771 5.672668 0.7521362
v 17.18732 -42.57935 54.20457
v 17.09851 -7.442993 54.12875
v 56.22552 -42.57935 8.496742
v 56.13672 -7.442993 8.420921
v 32.02673 1.631775 66.87862
v 32.00226 -42.57935 66.85777
v 71.06488 1.631775 21.17079
v 71.04047 -42.57935 21.14994
v 19.15076 21.46075 55.88154
v 32.02673 1.631775 66.87862
v 58.18896 21.46075 10.17371
v 71.06488 1.631775 21.17079
v -0.02420044 31.40717 39.50456
v 19.15076 21.46075 55.88154
v 39.01398 31.40717 -6.203278
v 58.18896 21.46075 10.17371
v -38.49472 31.40717 6.647629
v -0.02420044 31.40717 39.50456
v 0.543457 31.40717 -39.0602
v 39.01398 31.40717 -6.203278
v -57.43994 22.08893 -9.533112
v -38.49472 31.40717 6.647629
v -18.40173 22.08893 -55.24094
v 0.543457 31.40717 -39.0602
v -71.06476 1.838013 -21.16981
v -57.43994 22.08893 -9.533112
v -32.02658 1.838013 -66.87765
v -18.40173 22.08893 -55.24094
v -71.0011 -46.50122 -21.11543
v -71.06476 1.838013 -21.16981
v -31.96292 -46.50122 -66.82328
v -32.02658 1.838013 -66.87765
v -56.05734 -46.50122 -8.352242
v -71.0011 -46.50122 -21.11543
v -56.05731 -75.1593 -8.352242
v -71.0011 -75.1593 -21.11543
v 32.00226 -42.57935 66.85777
v 17.18732 -42.57935 54.20457
v 32.00226 -74.4812 66.85777
v 17.18732 -74.4812 54.20458
v -31.96292 -46.50122 -66.82328
v -31.96292 -75.1593 -66.82327
v -17.01913 -75.1593 -54.06008
v 71.04047 -42.57935 21.14994
v 56.22552 -74.96411 8.496742
v 71.04047 -74.4812 21.14994
v -17.01913 -46.50122 -54.0601
v -17.01913 -75.1593 -54.06008
v -56.05731 -75.1593 -8.352242
v 56.22552 -42.57935 8.496742
v 17.18732 -74.4812 54.20458
v 56.22552 -74.96411 8.496742
v 71.04047 -42.57935 21.14994
v 71.04047 -74.4812 21.14994
v 32.00226 -74.4812 66.85777
v -31.96292 -46.50122 -66.82328
v -71.0011 -75.1593 -21.11543
v -31.96292 -75.1593 -66.82327
v 33.45953 -78.11078 70.38312
v 14.4494 -78.11078 54.1469
v 33.45953 -100.001 70.38312
v 14.4494 -100.001 54.14691
v 75.03735 -78.11084 21.14343
v 33.45953 -78.11078 70.38312
v 75.03735 -100.001 21.14343
v 33.45953 -100.001 70.38312
v 56.10437 -78.11078 4.843605
v 75.03735 -78.11084 21.14343
v 56.10437 -99.51807 4.843605
v 75.03735 -100.001 21.14343
v 14.4494 -78.11078 54.1469
v 56.10437 -78.11078 4.843605
v 14.4494 -100.001 54.14691
v 56.10437 -99.51807 4.843605
v -56.00244 -78.11078 -4.875374
v -75.08975 -78.11078 -21.04797
v -56.00244 -99.51813 -4.875366
v -75.09808 -99.51813 -21.04109
v -14.76666 -78.11078 -53.82284
v -56.00244 -78.11078 -4.875374
v -14.76663 -99.51813 -53.82282
v -56.00244 -99.51813 -4.875366
v -33.77679 -78.11078 -70.05904
v -14.76666 -78.11078 -53.82284
v -33.77679 -99.51813 -70.05903
v -14.76663 -99.51813 -53.82282
v -75.08975 -78.11078 -21.04797
v -33.77679 -78.11078 -70.05904
v -75.09808 -99.51813 -21.04109
v -33.77679 -99.51813 -70.05903
v -56.05731 -75.1593 -8.352242
v -71.0011 -75.1593 -21.11543
v -56.00244 -78.11078 -4.875374
v -75.08975 -78.11078 -21.04797
v -31.96292 -75.1593 -66.82327
v -17.01913 -75.1593 -54.06008
v -33.77679 -78.11078 -70.05904
v -14.76666 -78.11078 -53.82284
v -17.01913 -75.1593 -54.06008
v -56.05731 -75.1593 -8.352242
v -14.76666 -78.11078 -53.82284
v -56.00244 -78.11078 -4.875374
v -71.0011 -75.1593 -21.11543
v -31.96292 -75.1593 -66.82327
v -75.08975 -78.11078 -21.04797
v -33.77679 -78.11078 -70.05904
v 32.00226 -74.4812 66.85777
v 17.18732 -74.4812 54.20458
v 33.45953 -78.11078 70.38312
v 14.4494 -78.11078 54.1469
v 56.22552 -74.96411 8.496742
v 71.04047 -74.4812 21.14994
v 56.10437 -78.11078 4.843605
v 75.03735 -78.11084 21.14343
v 17.18732 -74.4812 54.20458
v 56.22552 -74.96411 8.496742
v 14.4494 -78.11078 54.1469
v 56.10437 -78.11078 4.843605
v 71.04047 -74.4812 21.14994
v 32.00226 -74.4812 66.85777
v 75.03735 -78.11084 21.14343
v 33.45953 -78.11078 70.38312

vn -0.6494486 6.487635E-08 0.7604055
vn -0.6494482 2.946537E-07 0.7604058
vn -0.6494482 2.946537E-07 0.7604058
vn -0.6494476 5.808967E-07 0.7604063
vn -0.6494479 -2.37737E-07 0.7604061
vn -0.6494479 -2.40421E-07 0.7604061
vn -0.6494479 -2.40421E-07 0.7604061
vn -0.6494478 -2.44239E-07 0.7604061
vn -0.6494478 -2.242935E-07 0.7604061
vn -0.6494479 -2.16102E-07 0.7604061
vn -0.6494479 -2.16102E-07 0.7604061
vn -0.6494479 -2.060675E-07 0.7604061
vn -0.649448 -3.402523E-07 0.760406
vn -0.6494482 6.933184E-08 0.7604059
vn -0.6494482 6.933184E-08 0.7604059
vn -0.6494484 7.134699E-07 0.7604056
vn -0.6494483 6.726713E-07 0.7604057
vn -0.6494483 5.137919E-07 0.7604057
vn -0.6494483 5.137919E-07 0.7604057
vn -0.6494482 2.981378E-07 0.7604057
vn -0.6494474 -8.110531E-07 0.7604066
vn -0.6494474 -4.065067E-07 0.7604066
vn -0.6494474 -4.065067E-07 0.7604066
vn -0.6494473 2.0923E-07 0.7604066
vn -0.6494474 7.724539E-07 0.7604064
vn -0.6494482 2.477741E-07 0.7604058
vn -0.6494482 2.477741E-07 0.7604058
vn -0.6494491 -4.172394E-07 0.7604051
vn 0.6494474 -6.526495E-08 -0.7604066
vn 0.6494475 -1.604921E-07 -0.7604064
vn 0.6494475 2.436305E-10 -0.7604065
vn 0.6494476 5.282962E-08 -0.7604064
vn 0.6494483 1.878763E-07 -0.7604058
vn 0.6494477 1.551104E-07 -0.7604062
vn 0.6494477 1.551104E-07 -0.7604062
vn 0.6494475 1.320761E-07 -0.7604066
vn 0.649448 5.838587E-07 -0.7604061
vn 0.6494482 4.785122E-07 -0.7604058
vn 0.6494482 4.785122E-07 -0.7604058
vn 0.6494484 3.925142E-07 -0.7604057
vn 0.6494481 4.076981E-07 -0.7604059
vn 0.649448 5.348472E-07 -0.760406
vn 0.649448 5.348472E-07 -0.760406
vn 0.649448 6.156968E-07 -0.760406
vn 0.6494483 -6.708088E-07 -0.7604058
vn 0.6494482 -4.742697E-08 -0.7604059
vn 0.6494482 -4.742697E-08 -0.7604059
vn 0.649448 4.118405E-07 -0.7604059
vn 0.6494482 7.323061E-07 -0.7604058
vn 0.6494483 8.296068E-09 -0.7604059
vn 0.6494483 8.296068E-09 -0.7604059
vn 0.6494482 -4.673872E-07 -0.7604059
vn 0.6494493 3.03571E-07 -0.7604049
vn 0.6494488 2.527471E-07 -0.7604052
vn 0.6494488 2.527471E-07 -0.7604052
vn 0.6494485 -8.106163E-09 -0.7604055
vn 0.7604051 -0.001690158 0.649447
vn 0.7604057 -0.0009682878 0.6494478
vn 0.7604049 -0.001689856 0.6494471
vn 0.7604048 -0.001689555 0.6494473
vn 0.5589665 -0.6779701 0.4774024
vn 0.5589665 -0.6779701 0.4774023
vn 0.5589665 -0.6779701 0.4774023
vn 0.5589665 -0.6779702 0.4774023
vn 0.2534249 -0.9428297 0.216444
vn 0.2534255 -0.9428293 0.2164451
vn 0.2534255 -0.9428293 0.2164451
vn 0.2534261 -0.9428288 0.2164463
vn 6.594464E-07 -1 -7.721117E-07
vn 6.594462E-07 -1 -7.721119E-07
vn 6.594462E-07 -1 -7.721119E-07
vn 6.594461E-07 -0.9999999 -7.721121E-07
vn -0.2620843 -0.9387262 -0.2238413
vn -0.2620849 -0.9387257 -0.2238425
vn -0.2620849 -0.9387257 -0.2238425
vn -0.2620856 -0.9387252 -0.2238436
vn -0.5651179 -0.6690921 -0.4826567
vn -0.5651179 -0.6690921 -0.4826567
vn -0.5651179 -0.6690921 -0.4826567
vn -0.5651179 -0.6690922 -0.4826567
vn -0.7604046 -0.001741995 -0.6494474
vn -0.7604015 -0.003323405 -0.6494448
vn -0.7604015 -0.003323405 -0.6494448
vn -0.7604014 -0.003323334 -0.6494448
vn 0.760406 -0.0007273665 0.6494476
vn 0.7604057 -0.0004221619 0.6494482
vn 0.7604057 -0.0007267855 0.6494479
vn 0.7604055 -0.0007262046 0.6494483
vn 0.5782537 0.6493916 0.4938757
vn 0.5782542 0.6493911 0.4938757
vn 0.5782542 0.6493911 0.4938757
vn 0.5782547 0.6493906 0.4938758
vn 0.2790119 0.9302506 0.2382987
vn 0.2790117 0.9302506 0.2382986
vn 0.2790117 0.9302506 0.2382986
vn 0.2790116 0.9302506 0.2382986
vn 0 1 0
vn 0 1 0
vn 0 1 0
vn 0 1 0
vn -0.2663761 0.9366347 -0.2275069
vn -0.2663763 0.9366345 -0.2275069
vn -0.2663763 0.9366345 -0.2275069
vn -0.2663764 0.9366345 -0.227507
vn -0.5694919 0.6626475 -0.486392
vn -0.5694916 0.6626479 -0.486392
vn -0.5694916 0.6626479 -0.486392
vn -0.5694913 0.6626481 -0.4863919
vn -0.7604057 -0.001087384 -0.6494476
vn -0.7604049 -0.001731888 -0.649447
vn -0.7604049 -0.001731888 -0.649447
vn -0.7604049 -0.001731837 -0.649447
vn -0.6494486 -6.915885E-07 0.7604055
vn -0.649448 -2.445758E-07 0.760406
vn -0.649448 -2.445758E-07 0.760406
vn -0.6494476 2.024365E-07 0.7604064
vn -0.6494491 0 0.7604051
vn -0.649449 9.092624E-08 0.7604052
vn -0.649449 9.092624E-08 0.7604052
vn -0.6494489 1.818525E-07 0.7604054
vn 0.6494476 -4.048729E-07 -0.7604064
vn 0.6494476 -4.048729E-07 -0.7604064
vn 0.6494476 -4.048729E-07 -0.7604064
vn 0.6494493 0 -0.7604048
vn 0.6494493 0 -0.7604048
vn 0.6494493 0 -0.7604049
vn 0.7604058 3.45794E-07 0.6494482
vn 0.7604059 5.777696E-07 0.6494481
vn 0.760406 8.097455E-07 0.649448
vn -0.7604058 -7.707511E-08 -0.6494483
vn -0.7604058 -7.707511E-08 -0.6494483
vn -0.7604058 0 -0.6494483
vn 0.7604056 0 0.6494483
vn 0.7604056 0 0.6494483
vn 0.7604056 0 0.6494483
vn -0.760406 -2.593454E-07 -0.649448
vn -0.760406 -2.593454E-07 -0.649448
vn -0.760406 -3.457939E-07 -0.649448
vn -0.6494486 0 0.7604054
vn -0.6494486 6.625606E-08 0.7604055
vn -0.6494486 6.625606E-08 0.7604055
vn -0.6494485 1.325121E-07 0.7604055
vn 0.764048 0 0.6451595
vn 0.764048 0 0.6451594
vn 0.764048 0 0.6451594
vn 0.7640479 0 0.6451595
vn 0.652441 0 -0.7578396
vn 0.652441 0 -0.7578396
vn 0.652441 0 -0.7578396
vn 0.652441 0 -0.7578396
vn -0.763869 -1.124657E-07 -0.6453714
vn -0.7638689 -5.686003E-08 -0.6453713
vn -0.7638689 -5.686003E-08 -0.6453713
vn -0.763869 0 -0.6453714
vn -0.6464497 2.719112E-07 0.7629566
vn -0.6462877 0.0002484149 0.7630938
vn -0.6462877 0.0002484149 0.7630938
vn -0.6461256 0.0004965388 0.7632309
vn 0.7647814 1.549485E-06 0.6442899
vn 0.7647812 8.89552E-07 0.6442901
vn 0.7647812 8.89552E-07 0.6442901
vn 0.7647811 2.296195E-07 0.6442903
vn 0.6494485 -5.42004E-07 -0.7604056
vn 0.6494482 -7.908869E-08 -0.7604058
vn 0.6494482 -7.908869E-08 -0.7604058
vn 0.6494479 3.838262E-07 -0.7604061
vn -0.7646001 9.061043E-05 -0.6445051
vn -0.7645903 4.507173E-05 -0.6445166
vn -0.7645903 4.507173E-05 -0.6445166
vn -0.7645805 -4.594087E-07 -0.6445283
vn -0.4866569 0.6621856 0.5698028
vn -0.4814632 0.6689996 0.5662444
vn -0.4814632 0.6689996 0.5662444
vn -0.4774138 0.6742353 0.5634561
vn 0.595645 0.3985276 -0.6974115
vn 0.5956466 0.3985234 -0.6974124
vn 0.5956466 0.3985234 -0.6974124
vn 0.5956479 0.3985202 -0.6974132
vn 0.6426414 0.5345619 0.5488675
vn 0.6233129 0.5762394 0.5286105
vn 0.6233129 0.5762394 0.5286105
vn 0.6050224 0.6116804 0.5097009
vn -0.5274288 0.7203463 -0.4504667
vn -0.5104851 0.7428811 -0.4330502
vn -0.5104851 0.7428811 -0.4330502
vn -0.4951889 0.7619427 -0.4174101
vn -0.5859915 0.4311289 0.6861064
vn -0.5859911 0.4311295 0.6861061
vn -0.5859911 0.4311295 0.6861061
vn -0.5859909 0.43113 0.686106
vn 0.4763426 0.6583201 -0.5828485
vn 0.5079318 0.6158052 -0.6023199
vn 0.5079318 0.6158052 -0.6023199
vn 0.5295256 0.5842062 -0.6150657
vn -0.6546639 0.5028052 -0.5644484
vn -0.6299134 0.5603061 -0.5378348
vn -0.6299134 0.5603061 -0.5378348
vn -0.6027046 0.614373 -0.5092081
vn 0.5833425 0.641472 0.4982221
vn 0.5704259 0.663358 0.4843248
vn 0.5704259 0.663358 0.4843248
vn 0.5585436 0.6823436 0.4716315

vt 1 0
vt 0 0
vt 1 1
vt 0 1
vt 1 0
vt 0 0
vt 1 1
vt 0 1
vt 1 0
vt 0 0
vt 1 1
vt 0 1
vt 1 0
vt 0 0
vt 1 1
vt 0 1
vt 1 0
vt 0 0
vt 1 1
vt 0 1
vt 1 0
vt 0 0
vt 1 1
vt 0 1
vt 1 0
vt 0 0
vt 1 1
vt 0 1
vt 1 0
vt 0 0
vt 1 1
vt 0 1
vt 1 0
vt 0 0
vt 1 1
vt 0 1
vt 1 0
vt 0 0
vt 1 1
vt 0 1
vt 1 0
vt 0 0
vt 1 1
vt 0 1
vt 1 0
vt 0 0
vt 1 1
vt 0 1
vt 1 0
vt 0 0
vt 1 1
vt 0 1
vt 1 0
vt 0 0
vt 1 1
vt 0 1
vt 1 0
vt 0 0
vt 1 1
vt 0 1
vt 1 0
vt 0 0
vt 1 1
vt 0 1
vt 1 0
vt 0 0
vt 1 1
vt 0 1
vt 1 0
vt 0 0
vt 1 1
vt 0 1
vt 1 0
vt 0 0
vt 1 1
vt 0 1
vt 1 0
vt 0 0
vt 1 1
vt 0 1
vt 1 0
vt 0 0
vt 1 1
vt 0 1
vt 1 0
vt 0 0
vt 1 1
vt 0 1
vt 1 0
vt 0 0
vt 1 1
vt 0 1
vt 1 0
vt 0 0
vt 1 1
vt 0 1
vt 1 0
vt 0 0
vt 1 1
vt 0 1
vt 1 0
vt 0 0
vt 1 1
vt 0 1
vt 1 0
vt 0 0
vt 1 1
vt 0 1
vt 1 0
vt 0 0
vt 1 1
vt 0 1
vt 1 0
vt 0 0
vt 1 1
vt 0 1
vt 1 0
vt 0 0
vt 1 1
vt 0 1
vt 1 0
vt 1 1
vt 0 1
vt 0 0
vt 1 1
vt 0 1
vt 1 0
vt 1 1
vt 0 1
vt 0 0
vt 1 1
vt 0 1
vt 1 0
vt 1 1
vt 0 1
vt 0 0
vt 1 1
vt 0 1
vt 1 0
vt 0 0
vt 1 1
vt 0 1
vt 1 0
vt 0 0
vt 1 1
vt 0 1
vt 1 0
vt 0 0
vt 1 1
vt 0 1
vt 1 0
vt 0 0
vt 1 1
vt 0 1
vt 1 0
vt 0 0
vt 1 1
vt 0 1
vt 1 0
vt 0 0
vt 1 1
vt 0 1
vt 1 0
vt 0 0
vt 1 1
vt 0 1
vt 1 0
vt 0 0
vt 1 1
vt 0 1
vt 1 0.01504311
vt 0 0.01504311
vt 1 0.06196174
vt 0 0.06196174
vt 1 0.01504311
vt 0 0.01504311
vt 1 0.06196174
vt 0 0.06196174
vt 1 0.01504311
vt 0 0.01504311
vt 1 0.06196174
vt 0 0.06196174
vt 1 0.01504311
vt 0 0.01504311
vt 1 0.06196174
vt 0 0.06196174
vt 1 0.9212753
vt 0 0.9212753
vt 1 0.9887191
vt 0 0.9887191
vt 1 0.9212753
vt 0 0.9212753
vt 1 0.9887191
vt 0 0.9887191
vt 1 0.9212753
vt 0 0.9212753
vt 1 0.9887191
vt 0 0.9887191
vt 1 0.9212753
vt 0 0.9212753
vt 1 0.9887191
vt 0 0.9887191

usemtl sn16_38_sn1657.jpg
usemap sn16_38_sn1657.jpg
f 3/3/3 1/1/1 2/2/2
f 2/2/2 4/4/4 3/3/3
f 7/7/7 5/5/5 6/6/6
f 6/6/6 8/8/8 7/7/7
f 11/11/11 9/9/9 10/10/10
f 10/10/10 12/12/12 11/11/11
f 15/15/15 13/13/13 14/14/14
f 14/14/14 16/16/16 15/15/15
f 19/19/19 17/17/17 18/18/18
f 18/18/18 20/20/20 19/19/19
f 23/23/23 21/21/21 22/22/22
f 22/22/22 24/24/24 23/23/23
f 27/27/27 25/25/25 26/26/26
f 26/26/26 28/28/28 27/27/27
f 31/31/31 29/29/29 30/30/30
f 30/30/30 32/32/32 31/31/31
f 35/35/35 33/33/33 34/34/34
f 34/34/34 36/36/36 35/35/35
f 39/39/39 37/37/37 38/38/38
f 38/38/38 40/40/40 39/39/39
f 43/43/43 41/41/41 42/42/42
f 42/42/42 44/44/44 43/43/43
f 47/47/47 45/45/45 46/46/46
f 46/46/46 48/48/48 47/47/47
f 51/51/51 49/49/49 50/50/50
f 50/50/50 52/52/52 51/51/51
f 55/55/55 53/53/53 54/54/54
f 54/54/54 56/56/56 55/55/55
f 59/59/59 57/57/57 58/58/58
f 58/58/58 60/60/60 59/59/59
f 63/63/63 61/61/61 62/62/62
f 62/62/62 64/64/64 63/63/63
f 67/67/67 65/65/65 66/66/66
f 66/66/66 68/68/68 67/67/67
f 71/71/71 69/69/69 70/70/70
f 70/70/70 72/72/72 71/71/71
f 75/75/75 73/73/73 74/74/74
f 74/74/74 76/76/76 75/75/75
f 79/79/79 77/77/77 78/78/78
f 78/78/78 80/80/80 79/79/79
f 83/83/83 81/81/81 82/82/82
f 82/82/82 84/84/84 83/83/83
f 87/87/87 85/85/85 86/86/86
f 86/86/86 88/88/88 87/87/87
f 91/91/91 89/89/89 90/90/90
f 90/90/90 92/92/92 91/91/91
f 95/95/95 93/93/93 94/94/94
f 94/94/94 96/96/96 95/95/95
f 99/99/99 97/97/97 98/98/98
f 98/98/98 100/100/100 99/99/99
f 103/103/103 101/101/101 102/102/102
f 102/102/102 104/104/104 103/103/103
f 107/107/107 105/105/105 106/106/106
f 106/106/106 108/108/108 107/107/107
f 111/111/111 109/109/109 110/110/110
f 110/110/110 112/112/112 111/111/111
f 115/115/115 113/113/113 114/114/114
f 114/114/114 116/116/116 115/115/115
f 119/119/119 117/117/117 118/118/118
f 118/118/118 120/120/120 119/119/119
f 122/122/122 121/121/121 30/30/30
f 30/30/30 123/123/123 122/122/122
f 125/125/125 53/53/53 124/124/124
f 124/124/124 126/126/126 125/125/125
f 128/128/128 127/127/127 58/58/58
f 58/58/58 129/129/129 128/128/128
f 131/131/131 81/81/81 130/130/130
f 130/130/130 132/132/132 131/131/131
f 134/134/134 133/133/133 86/86/86
f 86/86/86 135/135/135 134/134/134
f 137/137/137 109/109/109 136/136/136
f 136/136/136 138/138/138 137/137/137

usemtl sn16_39_sn16g40.jpg
usemap sn16_39_sn16g40.jpg
f 141/141/141 139/139/139 140/140/140
f 140/140/140 142/142/142 141/141/141
f 145/145/145 143/143/143 144/144/144
f 144/144/144 146/146/146 145/145/145
f 149/149/149 147/147/147 148/148/148
f 148/148/148 150/150/150 149/149/149
f 153/153/153 151/151/151 152/152/152
f 152/152/152 154/154/154 153/153/153
f 157/157/157 155/155/155 156/156/156
f 156/156/156 158/158/158 157/157/157
f 161/161/161 159/159/159 160/160/160
f 160/160/160 162/162/162 161/161/161
f 165/165/165 163/163/163 164/164/164
f 164/164/164 166/166/166 165/165/165
f 169/169/169 167/167/167 168/168/168
f 168/168/168 170/170/170 169/169/169
f 173/173/173 171/171/171 172/172/172
f 172/172/172 174/174/174 173/173/173
f 177/177/177 175/175/175 176/176/176
f 176/176/176 178/178/178 177/177/177
f 181/181/181 179/179/179 180/180/180
f 180/180/180 182/182/182 181/181/181
f 185/185/185 183/183/183 184/184/184
f 184/184/184 186/186/186 185/185/185
f 189/189/189 187/187/187 188/188/188
f 188/188/188 190/190/190 189/189/189
f 193/193/193 191/191/191 192/192/192
f 192/192/192 194/194/194 193/193/193
f 197/197/197 195/195/195 196/196/196
f 196/196/196 198/198/198 197/197/197
f 201/201/201 199/199/199 200/200/200
f 200/200/200 202/202/202 201/201/201
