mtllib ./doorx29.mtl
g doorx29
v -58.28928 -46.50098 -6.63121
v -77.38535 -46.50098 4.828674
v -77.46539 1.838257 4.880539
v -58.22516 -8.02124 -6.666748
v -58.22516 -8.02124 -6.666748
v -77.46539 1.838257 4.880539
v -60.08032 22.08917 -5.630981
v -45.65997 5.672913 -13.27026
v -45.65997 5.672913 -13.27026
v -60.08032 22.08917 -5.630981
v -35.16483 31.40741 -18.25783
v -25.23062 12.79272 -22.55705
v -25.23062 12.79272 -22.55705
v -35.16483 31.40741 -18.25783
v 17.25122 31.40741 -36.64613
v 8.139618 12.79272 -34.18587
v 8.139618 12.79272 -34.18587
v 17.25122 31.40741 -36.64613
v 43.84058 21.461 -42.16066
v 28.52823 5.672913 -39.28424
v 28.52823 5.672913 -39.28424
v 43.84058 21.461 -42.16066
v 61.71619 1.632019 -44.50951
v 40.9903 -7.442749 -41.68611
v 40.9903 -7.442749 -41.68611
v 61.71619 1.632019 -44.50951
v 61.68231 -42.5791 -44.50607
v 41.11359 -42.5791 -41.7072
v -29.48611 -46.50098 46.17784
v -29.43338 -8.02124 46.14842
v -45.26529 1.838257 55.71602
v -45.19937 -46.50098 55.67302
v -29.43338 -8.02124 46.14842
v -19.10626 5.672913 40.6891
v -30.95895 22.08917 47.0056
v -45.26529 1.838257 55.71602
v -19.10626 5.672913 40.6891
v -2.338043 12.79279 33.03035
v -10.48837 31.40741 36.5728
v -30.95895 22.08917 47.0056
v -2.338043 12.79279 33.03035
v 24.98691 12.79272 23.48552
v 32.43274 31.40741 21.47627
v -10.48837 31.40741 36.5728
v 24.98691 12.79272 23.48552
v 41.63849 5.672913 19.32835
v 54.12079 21.461 16.99829
v 32.43274 31.40741 21.47627
v 41.63849 5.672913 19.32835
v 51.79889 -7.442749 17.3815
v 68.66553 1.632019 15.11459
v 54.12079 21.461 16.99829
v 51.79889 -7.442749 17.3815
v 51.89935 -42.5791 17.36446
v 68.638 -42.5791 15.11732
v 68.66553 1.632019 15.11459
v -58.28928 -46.50098 -6.63121
v -58.22516 -8.02124 -6.666748
v -29.43338 -8.02124 46.14842
v -29.48611 -46.50098 46.17784
v -58.22516 -8.02124 -6.666748
v -45.65997 5.672913 -13.27026
v -19.10626 5.672913 40.6891
v -29.43338 -8.02124 46.14842
v -45.65997 5.672913 -13.27026
v -25.23062 12.79272 -22.55705
v -2.338043 12.79279 33.03035
v -19.10626 5.672913 40.6891
v -25.23062 12.79272 -22.55705
v 8.139618 12.79272 -34.18587
v 24.98691 12.79272 23.48552
v -2.338043 12.79279 33.03035
v 8.139618 12.79272 -34.18587
v 28.52823 5.672913 -39.28424
v 41.63849 5.672913 19.32835
v 24.98691 12.79272 23.48552
v 28.52823 5.672913 -39.28424
v 40.9903 -7.442749 -41.68611
v 51.79889 -7.442749 17.3815
v 41.63849 5.672913 19.32835
v 40.9903 -7.442749 -41.68611
v 41.11359 -42.5791 -41.7072
v 51.89935 -42.5791 17.36446
v 51.79889 -7.442749 17.3815
v 61.68231 -42.5791 -44.50607
v 61.71619 1.632019 -44.50951
v 68.66553 1.632019 15.11459
v 68.638 -42.5791 15.11732
v 61.71619 1.632019 -44.50951
v 43.84058 21.461 -42.16066
v 54.12079 21.461 16.99829
v 68.66553 1.632019 15.11459
v 43.84058 21.461 -42.16066
v 17.25122 31.40741 -36.64613
v 32.43274 31.40741 21.47627
v 54.12079 21.461 16.99829
v 17.25122 31.40741 -36.64613
v -35.16483 31.40741 -18.25783
v -10.48837 31.40741 36.5728
v 32.43274 31.40741 21.47627
v -35.16483 31.40741 -18.25783
v -60.08032 22.08917 -5.630981
v -30.95895 22.08917 47.0056
v -10.48837 31.40741 36.5728
v -60.08032 22.08917 -5.630981
v -77.46539 1.838257 4.880539
v -45.26529 1.838257 55.71602
v -30.95895 22.08917 47.0056
v -77.46539 1.838257 4.880539
v -77.38535 -46.50098 4.828674
v -45.19937 -46.50098 55.67302
v -45.26529 1.838257 55.71602
v -77.38535 -46.50098 4.828674
v -58.28928 -46.50098 -6.63121
v -58.28928 -75.15906 -6.631226
v -77.38535 -75.15906 4.828644
v 41.11359 -42.5791 -41.7072
v 61.68231 -42.5791 -44.50607
v 61.68231 -74.67395 -44.50607
v 41.11359 -74.67395 -41.70721
v -45.19937 -46.50098 55.67302
v -45.19937 -75.15906 55.67299
v -29.48611 -75.15906 46.17784
v 68.638 -42.5791 15.11732
v 51.89935 -75.15686 17.36446
v 68.638 -74.67401 15.11732
v -29.48611 -46.50098 46.17784
v -29.48611 -75.15906 46.17784
v -58.28928 -75.15906 -6.631226
v 51.89935 -42.5791 17.36446
v 41.11359 -74.67395 -41.70721
v 51.89935 -75.15686 17.36446
v 68.638 -42.5791 15.11732
v 68.638 -74.67401 15.11732
v 61.68231 -74.67395 -44.50607
v -45.19937 -46.50098 55.67302
v -77.38535 -75.15906 4.828644
v -45.19937 -75.15906 55.67299
v 38.61411 -78.11053 -43.03481
v 65.14551 -78.11053 -46.58138
v 65.14551 -100.0007 -46.58138
v 38.61411 -100.0007 -43.03481
v 65.14551 -78.11053 -46.58138
v 71.60822 -78.11053 17.43697
v 71.60822 -100.0007 17.43697
v 65.14551 -100.0007 -46.58138
v 71.60822 -78.11053 17.43697
v 50.38141 -78.11053 20.35408
v 50.38141 -99.51782 20.35408
v 71.60822 -100.0007 17.43697
v 50.38141 -78.11053 20.35408
v 38.61411 -78.11053 -43.03481
v 38.61411 -100.0007 -43.03481
v 50.38141 -99.51782 20.35408
v -81.70056 -78.11053 4.407761
v -57.16763 -78.11053 -10.23199
v -57.16763 -99.51782 -10.23201
v -81.70782 -99.51782 4.39975
v -57.16763 -78.11053 -10.23199
v -27.3237 -78.11053 46.44313
v -27.3237 -99.51782 46.4431
v -57.16763 -99.51782 -10.23201
v -27.3237 -78.11053 46.44313
v -47.19595 -78.11053 58.5276
v -47.19592 -99.51782 58.5276
v -27.3237 -99.51782 46.4431
v -47.19595 -78.11053 58.5276
v -81.70056 -78.11053 4.407761
v -81.70782 -99.51782 4.39975
v -47.19592 -99.51782 58.5276
v -77.38535 -75.15906 4.828644
v -58.28928 -75.15906 -6.631226
v -57.16763 -78.11053 -10.23199
v -81.70056 -78.11053 4.407761
v -29.48611 -75.15906 46.17784
v -45.19937 -75.15906 55.67299
v -47.19595 -78.11053 58.5276
v -27.3237 -78.11053 46.44313
v -58.28928 -75.15906 -6.631226
v -29.48611 -75.15906 46.17784
v -27.3237 -78.11053 46.44313
v -57.16763 -78.11053 -10.23199
v -45.19937 -75.15906 55.67299
v -77.38535 -75.15906 4.828644
v -81.70056 -78.11053 4.407761
v -47.19595 -78.11053 58.5276
v 41.11359 -74.67395 -41.70721
v 61.68231 -74.67395 -44.50607
v 65.14551 -78.11053 -46.58138
v 38.61411 -78.11053 -43.03481
v 68.638 -74.67401 15.11732
v 51.89935 -75.15686 17.36446
v 50.38141 -78.11053 20.35408
v 71.60822 -78.11053 17.43697
v 51.89935 -75.15686 17.36446
v 41.11359 -74.67395 -41.70721
v 38.61411 -78.11053 -43.03481
v 50.38141 -78.11053 20.35408
v 61.68231 -74.67395 -44.50607
v 68.638 -74.67401 15.11732
v 71.60822 -78.11053 17.43697
v 65.14551 -78.11053 -46.58138

vn -0.5145718 6.683009E-05 -0.8574473
vn -0.5145698 6.787803E-05 -0.8574485
vn -0.5145718 6.683009E-05 -0.8574473
vn -0.5145742 6.552464E-05 -0.8574459
vn -0.4955907 -0.0006569303 -0.868556
vn -0.5154567 -0.002281443 -0.8569125
vn -0.4955907 -0.0006569303 -0.868556
vn -0.466637 0.001673609 -0.8844475
vn -0.4361344 0.003462735 -0.8998749
vn -0.4560259 0.01351516 -0.8898638
vn -0.4361344 0.003462735 -0.8998749
vn -0.4112275 -0.00894578 -0.9114888
vn -0.3300161 0.03929573 -0.943157
vn -0.3307534 0.04123655 -0.9428159
vn -0.3300161 0.03929573 -0.943157
vn -0.328854 0.03624403 -0.943685
vn -0.2189466 0.004080653 -0.9757283
vn -0.212078 -0.02530934 -0.976925
vn -0.2189466 0.004080653 -0.9757283
vn -0.227922 0.04384011 -0.9726919
vn -0.1556322 -0.0008708347 -0.9878147
vn -0.1585681 -0.02603158 -0.9870047
vn -0.1556322 -0.0008708347 -0.9878147
vn -0.1509677 0.03745656 -0.9878288
vn -0.1349203 6.841979E-05 -0.9908564
vn -0.1349902 2.648713E-05 -0.9908469
vn -0.1349203 6.841979E-05 -0.9908564
vn -0.1348317 0.000121569 -0.9908684
vn 0.5171863 -3.356768E-05 0.8558729
vn 0.5171892 -5.443966E-05 0.8558711
vn 0.5171872 -5.534086E-05 0.8558724
vn 0.5171855 -5.606428E-05 0.8558733
vn 0.4980488 0.000548296 0.8671489
vn 0.4687975 -0.001393665 0.8833046
vn 0.4980488 0.000548296 0.8671489
vn 0.5180794 0.001899612 0.8553304
vn 0.4380146 -0.002889364 0.8989632
vn 0.4128339 0.007432545 0.910776
vn 0.4380146 -0.002889364 0.8989632
vn 0.4581051 -0.01123855 0.888827
vn 0.3308356 -0.03257996 0.9431258
vn 0.3296201 -0.02999224 0.9436371
vn 0.3308356 -0.03257996 0.9431258
vn 0.3316073 -0.03422578 0.9427965
vn 0.2182981 -0.003361466 0.9758764
vn 0.2274584 -0.03621639 0.9731141
vn 0.2182981 -0.003361466 0.9758764
vn 0.2113611 0.02093208 0.9771838
vn 0.1541525 0.0007162367 0.9880468
vn 0.1494603 -0.03091481 0.9882842
vn 0.1541525 0.0007162367 0.9880468
vn 0.1571461 0.0214734 0.9873418
vn 0.1331445 -5.638679E-05 0.9910967
vn 0.1330544 -5.20624E-05 0.9911087
vn 0.1331445 -5.638679E-05 0.9910967
vn 0.1332156 -2.171461E-05 0.9910871
vn 0.8779371 -0.0009955638 -0.4787751
vn 0.8780092 -0.001905041 -0.47864
vn 0.8779581 -0.001737122 -0.4787344
vn 0.8779069 -0.001569203 -0.4788288
vn 0.6453538 -0.6867458 -0.3345125
vn 0.6230721 -0.7195603 -0.3066173
vn 0.6453538 -0.6867458 -0.3345125
vn 0.6680188 -0.6489488 -0.3641652
vn 0.2998481 -0.9443375 -0.1353424
vn 0.2797918 -0.9531209 -0.1152257
vn 0.2998481 -0.9443375 -0.1353424
vn 0.3233826 -0.9327908 -0.1591384
vn -7.284407E-07 -1 7.944928E-07
vn 0 -1 0
vn -7.284407E-07 -1 7.944928E-07
vn -1.617456E-06 -1 1.764121E-06
vn -0.3384132 -0.9369501 0.08718337
vn -0.3132121 -0.9470956 0.07005818
vn -0.3384132 -0.9369501 0.08718337
vn -0.3680527 -0.9235676 0.1075176
vn -0.7363422 -0.6598493 0.1496637
vn -0.7069115 -0.6953728 0.1293555
vn -0.7363422 -0.6598493 0.1496637
vn -0.7663568 -0.6191235 0.171416
vn -0.9836965 -0.00322975 0.1798072
vn -0.9837347 -0.001860392 0.179618
vn -0.9836965 -0.00322975 0.1798072
vn -0.9836628 -0.002899858 0.1799973
vn 0.9932674 -0.0004043071 -0.1158439
vn 0.9932759 -0.0007700369 -0.1157688
vn 0.9932697 -0.0006978121 -0.1158217
vn 0.9932636 -0.0006255872 -0.1158745
vn 0.7636269 0.6360859 -0.1107645
vn 0.7292442 0.6724167 -0.1267228
vn 0.7636269 0.6360859 -0.1107645
vn 0.7985993 0.5946222 -0.09307878
vn 0.3656835 0.9273472 -0.07938973
vn 0.3331524 0.9388489 -0.08701909
vn 0.3656835 0.9273472 -0.07938973
vn 0.4038293 0.9121389 -0.07017452
vn 0 1 0
vn 0 1 0
vn 0 1 0
vn 0 1 0
vn -0.3074077 0.9390522 0.1538875
vn -0.2770657 0.9485449 0.1532875
vn -0.3074077 0.9390522 0.1538875
vn -0.3430704 0.9265333 0.1543984
vn -0.6346497 0.6750967 0.3761175
vn -0.5964627 0.7081608 0.3778101
vn -0.6346497 0.6750967 0.3761175
vn -0.6745032 0.6370155 0.3731712
vn -0.8448597 -0.001800517 0.5349851
vn -0.8449345 -0.0012389 0.5348685
vn -0.8448597 -0.001800517 0.5349851
vn -0.8447856 -0.001627985 0.5351024
vn -0.5145696 7.05276E-07 -0.8574486
vn -0.5145698 4.781531E-07 -0.8574485
vn -0.5145696 7.05276E-07 -0.8574486
vn -0.5145693 9.32399E-07 -0.8574488
vn -0.1348313 2.376192E-07 -0.9908686
vn -0.1348317 0 -0.9908686
vn -0.1348313 2.376192E-07 -0.9908686
vn -0.134831 4.752384E-07 -0.9908686
vn 0.5171856 -9.28039E-07 0.8558733
vn 0.517185 -4.640197E-07 0.8558737
vn 0.5171844 0 0.8558741
vn 0.1330545 0 0.9911088
vn 0.1330545 0 0.9911088
vn 0.1330545 0 0.9911087
vn 0.8779081 0 -0.4788294
vn 0.877908 1.416229E-07 -0.4788294
vn 0.8779081 2.832458E-07 -0.4788293
vn -0.9837364 -4.714987E-08 0.1796183
vn -0.9837364 -4.714987E-08 0.1796183
vn -0.9837363 0 0.1796182
vn 0.9932639 0 -0.1158745
vn 0.9932638 0 -0.1158745
vn 0.9932639 0 -0.1158745
vn -0.8449351 -5.662831E-07 0.5348689
vn -0.8449351 -5.662831E-07 0.5348689
vn -0.8449351 -5.662831E-07 0.5348689
vn -0.1324959 0 -0.9911835
vn -0.1324959 0 -0.9911835
vn -0.1324959 0 -0.9911835
vn -0.1324959 0 -0.9911835
vn 0.9949431 0 -0.1004404
vn 0.9949431 0 -0.1004404
vn 0.9949431 0 -0.1004404
vn 0.9949431 0 -0.1004404
vn 0.1361463 0 0.9906887
vn 0.1361464 0 0.9906887
vn 0.1361463 0 0.9906887
vn 0.1361464 0 0.9906887
vn -0.9832024 0 0.1825184
vn -0.9832025 0 0.1825185
vn -0.9832024 0 0.1825184
vn -0.9832025 0 0.1825184
vn -0.5122761 0.0002479149 -0.8588208
vn -0.5124353 5.987904E-07 -0.8587259
vn -0.5122761 0.0002479149 -0.8588208
vn -0.5121169 0.0004952124 -0.8589156
vn 0.8848221 5.3415E-07 -0.4659289
vn 0.8848222 7.121999E-07 -0.4659289
vn 0.8848221 5.3415E-07 -0.4659289
vn 0.8848221 3.561E-07 -0.4659289
vn 0.5195812 -2.298502E-07 0.8544211
vn 0.5195804 7.355204E-07 0.8544216
vn 0.5195812 -2.298502E-07 0.8544211
vn 0.5195819 -1.195221E-06 0.8544205
vn -0.8431968 4.184173E-05 0.537605
vn -0.8432046 8.493423E-05 0.5375929
vn -0.8431968 4.184173E-05 0.537605
vn -0.8431891 -1.2436E-06 0.5376171
vn -0.3887673 0.6530855 -0.6498764
vn -0.3919685 0.6478816 -0.6531538
vn -0.3887673 0.6530855 -0.6498764
vn -0.386285 0.6570785 -0.6473266
vn 0.4699084 0.4227582 0.7748945
vn 0.4666304 0.43121 0.7722137
vn 0.4699084 0.4227582 0.7748945
vn 0.4724864 0.4160071 0.776978
vn 0.702753 0.6036801 -0.3764417
vn 0.7527452 0.5145999 -0.4105628
vn 0.702753 0.6036801 -0.3764417
vn 0.6561525 0.670882 -0.3455161
vn -0.5611406 0.7469994 0.3565292
vn -0.5519462 0.7571501 0.3493982
vn -0.5611406 0.7469994 0.3565292
vn -0.5699322 0.7369821 0.3633656
vn -0.1207445 0.426801 -0.8962487
vn -0.1223764 0.4197743 -0.8993406
vn -0.1207445 0.426801 -0.8962487
vn -0.119482 0.4321972 -0.8938286
vn 0.09445609 0.6488094 0.7550658
vn 0.07679614 0.6895009 0.720202
vn 0.09445609 0.6488094 0.7550658
vn 0.1070196 0.6181468 0.7787434
vn -0.818242 0.5541738 0.1528777
vn -0.8264831 0.5411086 0.1553293
vn -0.818242 0.5541738 0.1528777
vn -0.809245 0.5679389 0.1502256
vn 0.7291861 0.6797243 -0.07913563
vn 0.7830877 0.615165 -0.09135468
vn 0.7291861 0.6797243 -0.07913563
vn 0.681626 0.728458 -0.06881074

vt 0 0
vt 1 0
vt 1 1
vt 0 1
vt 0 0
vt 1 0
vt 1 1
vt 0 1
vt 0 0
vt 1 0
vt 1 1
vt 0 1
vt 0 0
vt 1 0
vt 1 1
vt 0 1
vt 0 0
vt 1 0
vt 1 1
vt 0 1
vt 0 0
vt 1 0
vt 1 1
vt 0 1
vt 0 0
vt 1 0
vt 1 1
vt 0 1
vt 0 0
vt 1 0
vt 1 1
vt 0 1
vt 0 0
vt 1 0
vt 1 1
vt 0 1
vt 0 0
vt 1 0
vt 1 1
vt 0 1
vt 0 0
vt 1 0
vt 1 1
vt 0 1
vt 0 0
vt 1 0
vt 1 1
vt 0 1
vt 0 0
vt 1 0
vt 1 1
vt 0 1
vt 0 0
vt 1 0
vt 1 1
vt 0 1
vt 0 0
vt 1 0
vt 1 1
vt 0 1
vt 0 0
vt 1 0
vt 1 1
vt 0 1
vt 0 0
vt 1 0
vt 1 1
vt 0 1
vt 0 0
vt 1 0
vt 1 1
vt 0 1
vt 0 0
vt 1 0
vt 1 1
vt 0 1
vt 0 0
vt 1 0
vt 1 1
vt 0 1
vt 0 0
vt 1 0
vt 1 1
vt 0 1
vt 0 0
vt 1 0
vt 1 1
vt 0 1
vt 0 0
vt 1 0
vt 1 1
vt 0 1
vt 0 0
vt 1 0
vt 1 1
vt 0 1
vt 0 0
vt 1 0
vt 1 1
vt 0 1
vt 0 0
vt 1 0
vt 1 1
vt 0 1
vt 0 0
vt 1 0
vt 1 1
vt 0 1
vt 0 0
vt 1 0
vt 1 1
vt 0 1
vt 0 0
vt 1 0
vt 1 1
vt 0 1
vt 0 0
vt 1 0
vt 1 1
vt 0 1
vt 1 0
vt 1 1
vt 0 1
vt 0 0
vt 1 1
vt 0 1
vt 1 0
vt 1 1
vt 0 1
vt 0 0
vt 1 1
vt 0 1
vt 1 0
vt 1 1
vt 0 1
vt 0 0
vt 1 1
vt 0 1
vt 0 0
vt 1 0
vt 1 1
vt 0 1
vt 0 0
vt 1 0
vt 1 1
vt 0 1
vt 0 0
vt 1 0
vt 1 1
vt 0 1
vt 0 0
vt 1 0
vt 1 1
vt 0 1
vt 0 0
vt 1 0
vt 1 1
vt 0 1
vt 0 0
vt 1 0
vt 1 1
vt 0 1
vt 0 0
vt 1 0
vt 1 1
vt 0 1
vt 0 0
vt 1 0
vt 1 1
vt 0 1
vt 0 0.01504311
vt 1 0.01504311
vt 1 0.06196174
vt 0 0.06196174
vt 0 0.01504311
vt 1 0.01504311
vt 1 0.06196174
vt 0 0.06196174
vt 0 0.01504311
vt 1 0.01504311
vt 1 0.06196174
vt 0 0.06196174
vt 0 0.01504311
vt 1 0.01504311
vt 1 0.06196174
vt 0 0.06196174
vt 0 0.9212753
vt 1 0.9212753
vt 1 0.9887191
vt 0 0.9887191
vt 0 0.9212753
vt 1 0.9212753
vt 1 0.9887191
vt 0 0.9887191
vt 0 0.9212753
vt 1 0.9212753
vt 1 0.9887191
vt 0 0.9887191
vt 0 0.9212753
vt 1 0.9212753
vt 1 0.9887191
vt 0 0.9887191

usemtl sn16_38_sn1657.jpg
usemap sn16_38_sn1657.jpg
f 3/3/3 1/1/1 2/2/2
f 1/1/1 3/3/3 4/4/4
f 7/7/7 5/5/5 6/6/6
f 5/5/5 7/7/7 8/8/8
f 11/11/11 9/9/9 10/10/10
f 9/9/9 11/11/11 12/12/12
f 15/15/15 13/13/13 14/14/14
f 13/13/13 15/15/15 16/16/16
f 19/19/19 17/17/17 18/18/18
f 17/17/17 19/19/19 20/20/20
f 23/23/23 21/21/21 22/22/22
f 21/21/21 23/23/23 24/24/24
f 27/27/27 25/25/25 26/26/26
f 25/25/25 27/27/27 28/28/28
f 31/31/31 29/29/29 30/30/30
f 29/29/29 31/31/31 32/32/32
f 35/35/35 33/33/33 34/34/34
f 33/33/33 35/35/35 36/36/36
f 39/39/39 37/37/37 38/38/38
f 37/37/37 39/39/39 40/40/40
f 43/43/43 41/41/41 42/42/42
f 41/41/41 43/43/43 44/44/44
f 47/47/47 45/45/45 46/46/46
f 45/45/45 47/47/47 48/48/48
f 51/51/51 49/49/49 50/50/50
f 49/49/49 51/51/51 52/52/52
f 55/55/55 53/53/53 54/54/54
f 53/53/53 55/55/55 56/56/56
f 59/59/59 57/57/57 58/58/58
f 57/57/57 59/59/59 60/60/60
f 63/63/63 61/61/61 62/62/62
f 61/61/61 63/63/63 64/64/64
f 67/67/67 65/65/65 66/66/66
f 65/65/65 67/67/67 68/68/68
f 71/71/71 69/69/69 70/70/70
f 69/69/69 71/71/71 72/72/72
f 75/75/75 73/73/73 74/74/74
f 73/73/73 75/75/75 76/76/76
f 79/79/79 77/77/77 78/78/78
f 77/77/77 79/79/79 80/80/80
f 83/83/83 81/81/81 82/82/82
f 81/81/81 83/83/83 84/84/84
f 87/87/87 85/85/85 86/86/86
f 85/85/85 87/87/87 88/88/88
f 91/91/91 89/89/89 90/90/90
f 89/89/89 91/91/91 92/92/92
f 95/95/95 93/93/93 94/94/94
f 93/93/93 95/95/95 96/96/96
f 99/99/99 97/97/97 98/98/98
f 97/97/97 99/99/99 100/100/100
f 103/103/103 101/101/101 102/102/102
f 101/101/101 103/103/103 104/104/104
f 107/107/107 105/105/105 106/106/106
f 105/105/105 107/107/107 108/108/108
f 111/111/111 109/109/109 110/110/110
f 109/109/109 111/111/111 112/112/112
f 115/115/115 113/113/113 114/114/114
f 113/113/113 115/115/115 116/116/116
f 119/119/119 117/117/117 118/118/118
f 117/117/117 119/119/119 120/120/120
f 122/122/122 29/29/29 121/121/121
f 29/29/29 122/122/122 123/123/123
f 125/125/125 124/124/124 54/54/54
f 124/124/124 125/125/125 126/126/126
f 128/128/128 57/57/57 127/127/127
f 57/57/57 128/128/128 129/129/129
f 131/131/131 130/130/130 82/82/82
f 130/130/130 131/131/131 132/132/132
f 134/134/134 85/85/85 133/133/133
f 85/85/85 134/134/134 135/135/135
f 137/137/137 136/136/136 110/110/110
f 136/136/136 137/137/137 138/138/138

usemtl sn16_39_sn16g40.jpg
usemap sn16_39_sn16g40.jpg
f 141/141/141 139/139/139 140/140/140
f 139/139/139 141/141/141 142/142/142
f 145/145/145 143/143/143 144/144/144
f 143/143/143 145/145/145 146/146/146
f 149/149/149 147/147/147 148/148/148
f 147/147/147 149/149/149 150/150/150
f 153/153/153 151/151/151 152/152/152
f 151/151/151 153/153/153 154/154/154
f 157/157/157 155/155/155 156/156/156
f 155/155/155 157/157/157 158/158/158
f 161/161/161 159/159/159 160/160/160
f 159/159/159 161/161/161 162/162/162
f 165/165/165 163/163/163 164/164/164
f 163/163/163 165/165/165 166/166/166
f 169/169/169 167/167/167 168/168/168
f 167/167/167 169/169/169 170/170/170
f 173/173/173 171/171/171 172/172/172
f 171/171/171 173/173/173 174/174/174
f 177/177/177 175/175/175 176/176/176
f 175/175/175 177/177/177 178/178/178
f 181/181/181 179/179/179 180/180/180
f 179/179/179 181/181/181 182/182/182
f 185/185/185 183/183/183 184/184/184
f 183/183/183 185/185/185 186/186/186
f 189/189/189 187/187/187 188/188/188
f 187/187/187 189/189/189 190/190/190
f 193/193/193 191/191/191 192/192/192
f 191/191/191 193/193/193 194/194/194
f 197/197/197 195/195/195 196/196/196
f 195/195/195 197/197/197 198/198/198
f 201/201/201 199/199/199 200/200/200
f 199/199/199 201/201/201 202/202/202
