mtllib ./doorx34.mtl
g doorx34
v -69.24258 -46.50099 -10.54023
v -55.5217 -46.50101 7.001915
v -69.29874 1.838226 -10.61733
v -55.47458 -8.021271 7.058075
v -69.29874 1.838226 -10.61733
v -55.47458 -8.021271 7.058075
v -56.83536 22.08914 5.426262
v -46.11047 5.672882 17.72594
v -56.83536 22.08914 5.426262
v -46.11047 5.672882 17.72594
v -38.09976 31.40741 26.14336
v -30.36612 12.79272 33.71712
v -38.09976 31.40741 26.14336
v -30.36612 12.79272 33.71712
v 4.245056 31.40741 62.09455
v -3.379669 12.79272 56.5324
v 4.245056 31.40741 62.09455
v -3.379669 12.79272 56.5324
v 27.09216 21.461 76.77159
v 13.82764 5.672882 68.59875
v 27.09216 21.461 76.77159
v 13.82764 5.672882 68.59875
v 42.93872 1.631989 85.37046
v 24.60126 -7.442749 75.30709
v 42.93872 1.631989 85.37046
v 24.60126 -7.442749 75.30709
v 42.90833 -42.57913 85.35513
v 24.70874 -42.57913 75.37099
v -10.94049 -8.021271 -53.63152
v -10.97919 -46.50101 -53.67788
v -22.29211 1.838226 -68.2373
v -22.246 -46.50101 -68.17352
v -3.255768 5.672882 -44.8339
v -10.94049 -8.021271 -53.63152
v -12.05756 22.08914 -54.97848
v -22.29211 1.838226 -68.2373
v 9.654083 12.79272 -31.67464
v -3.255768 5.672882 -44.8339
v 3.314606 31.40741 -37.90261
v -12.05756 22.08914 -54.97848
v 31.74359 12.79272 -12.97137
v 9.654083 12.79272 -31.67464
v 37.97479 31.40741 -8.427261
v 3.314606 31.40741 -37.90261
v 45.79938 5.672882 -3.122948
v 31.74359 12.79272 -12.97137
v 56.61761 21.461 3.525612
v 37.97479 31.40741 -8.427261
v 54.58722 -7.442749 2.335762
v 45.79938 5.672882 -3.122948
v 69.52124 1.631989 10.49657
v 56.61761 21.461 3.525612
v 54.67493 -42.57913 2.38768
v 54.58722 -7.442749 2.335762
v 69.49652 -42.57913 10.48416
v 69.52124 1.631989 10.49657
v -55.47458 -8.021271 7.058075
v -55.5217 -46.50101 7.001915
v -10.94049 -8.021271 -53.63152
v -10.97919 -46.50101 -53.67788
v -46.11047 5.672882 17.72594
v -55.47458 -8.021271 7.058075
v -3.255768 5.672882 -44.8339
v -10.94049 -8.021271 -53.63152
v -30.36612 12.79272 33.71712
v -46.11047 5.672882 17.72594
v 9.654083 12.79272 -31.67464
v -3.255768 5.672882 -44.8339
v -3.379669 12.79272 56.5324
v -30.36612 12.79272 33.71712
v 31.74359 12.79272 -12.97137
v 9.654083 12.79272 -31.67464
v 13.82764 5.672882 68.59875
v -3.379669 12.79272 56.5324
v 45.79938 5.672882 -3.122948
v 31.74359 12.79272 -12.97137
v 24.60126 -7.442749 75.30709
v 13.82764 5.672882 68.59875
v 54.58722 -7.442749 2.335762
v 45.79938 5.672882 -3.122948
v 24.70874 -42.57913 75.37099
v 24.60126 -7.442749 75.30709
v 54.67493 -42.57913 2.38768
v 54.58722 -7.442749 2.335762
v 42.93872 1.631989 85.37046
v 42.90833 -42.57913 85.35513
v 69.52124 1.631989 10.49657
v 69.49652 -42.57913 10.48416
v 27.09216 21.461 76.77159
v 42.93872 1.631989 85.37046
v 56.61761 21.461 3.525612
v 69.52124 1.631989 10.49657
v 4.245056 31.40741 62.09455
v 27.09216 21.461 76.77159
v 37.97479 31.40741 -8.427261
v 56.61761 21.461 3.525612
v -38.09976 31.40741 26.14336
v 4.245056 31.40741 62.09455
v 3.314606 31.40741 -37.90261
v 37.97479 31.40741 -8.427261
v -56.83536 22.08914 5.426262
v -38.09976 31.40741 26.14336
v -12.05756 22.08914 -54.97848
v 3.314606 31.40741 -37.90261
v -69.29874 1.838226 -10.61733
v -56.83536 22.08914 5.426262
v -22.29211 1.838226 -68.2373
v -12.05756 22.08914 -54.97848
v -69.24258 -46.50099 -10.54023
v -69.29874 1.838226 -10.61733
v -22.246 -46.50101 -68.17352
v -22.29211 1.838226 -68.2373
v -55.5217 -46.50101 7.001915
v -69.24258 -46.50099 -10.54023
v -55.5217 -75.15909 7.001915
v -69.24255 -75.15909 -10.54021
v 42.90833 -42.57913 85.35513
v 24.70874 -42.57913 75.37099
v 42.90833 -74.48097 85.35512
v 24.7088 -74.48097 75.37099
v -22.246 -46.50101 -68.17352
v -22.24603 -75.15909 -68.1735
v -10.97919 -75.15909 -53.67788
v 69.49652 -42.57913 10.48416
v 54.67493 -74.96387 2.38768
v 69.49652 -74.48099 10.48416
v -10.97919 -46.50101 -53.67788
v -10.97919 -75.15909 -53.67788
v -55.5217 -75.15909 7.001915
v 54.67493 -42.57913 2.38768
v 24.7088 -74.48097 75.37099
v 54.67493 -74.96387 2.38768
v 69.49652 -42.57913 10.48416
v 69.49652 -74.48099 10.48416
v 42.90833 -74.48097 85.35512
v -22.246 -46.50101 -68.17352
v -69.24255 -75.15909 -10.54021
v -22.24603 -75.15909 -68.1735
v 45.39777 -78.11058 88.53368
v 21.89954 -78.11058 75.71465
v 45.39777 -100.0008 88.53368
v 21.89954 -100.0008 75.71466
v 73.10071 -78.1106 9.383018
v 45.39777 -78.11058 88.53368
v 73.10071 -100.0008 9.383018
v 45.39777 -100.0008 88.53368
v 54.32916 -78.11057 -0.9473648
v 73.10071 -78.1106 9.383018
v 54.32916 -99.51788 -0.9473648
v 73.10071 -100.0008 9.383018
v 21.89954 -78.11058 75.71465
v 54.32916 -78.11057 -0.9473648
v 21.89954 -100.0008 75.71466
v 54.32916 -99.51788 -0.9473648
v -55.76495 -78.11058 10.7655
v -73.42203 -78.11058 -11.69371
v -55.76495 -99.51788 10.76551
v -73.43167 -99.51788 -11.68884
v -8.865326 -78.11058 -53.1506
v -55.76495 -78.11058 10.7655
v -8.865326 -99.51788 -53.15057
v -55.76495 -99.51788 10.76551
v -23.08698 -78.1106 -71.55401
v -8.865326 -78.11058 -53.1506
v -23.08698 -99.5179 -71.55401
v -8.865326 -99.51788 -53.15057
v -73.42203 -78.11058 -11.69371
v -23.08698 -78.1106 -71.55401
v -73.43167 -99.51788 -11.68884
v -23.08698 -99.5179 -71.55401
v -55.5217 -75.15909 7.001915
v -69.24255 -75.15909 -10.54021
v -55.76495 -78.11058 10.7655
v -73.42203 -78.11058 -11.69371
v -22.24603 -75.15909 -68.1735
v -10.97919 -75.15909 -53.67788
v -23.08698 -78.1106 -71.55401
v -8.865326 -78.11058 -53.1506
v -10.97919 -75.15909 -53.67788
v -55.5217 -75.15909 7.001915
v -8.865326 -78.11058 -53.1506
v -55.76495 -78.11058 10.7655
v -69.24255 -75.15909 -10.54021
v -22.24603 -75.15909 -68.1735
v -73.42203 -78.11058 -11.69371
v -23.08698 -78.1106 -71.55401
v 42.90833 -74.48097 85.35512
v 24.7088 -74.48097 75.37099
v 45.39777 -78.11058 88.53368
v 21.89954 -78.11058 75.71465
v 54.67493 -74.96387 2.38768
v 69.49652 -74.48099 10.48416
v 54.32916 -78.11057 -0.9473648
v 73.10071 -78.1106 9.383018
v 24.7088 -74.48097 75.37099
v 54.67493 -74.96387 2.38768
v 21.89954 -78.11058 75.71465
v 54.32916 -78.11057 -0.9473648
v 69.49652 -74.48099 10.48416
v 42.90833 -74.48097 85.35512
v 73.10071 -78.1106 9.383018
v 45.39777 -78.11058 88.53368

vn -0.7876738 6.770149E-05 0.6160924
vn -0.7876753 6.666015E-05 0.6160907
vn -0.7876753 6.666015E-05 0.6160907
vn -0.787677 6.536291E-05 0.6160885
vn -0.7883099 -0.002281698 0.6152743
vn -0.7739361 -0.0006571964 0.6332634
vn -0.7739361 -0.0006571964 0.6332634
vn -0.7526008 0.00167333 0.6584749
vn -0.7446352 0.01351554 0.6673349
vn -0.7296526 0.003463238 0.683809
vn -0.7296526 0.003463238 0.683809
vn -0.7105625 -0.008945139 0.7035773
vn -0.6466598 0.04123721 0.761663
vn -0.6460937 0.03929603 0.7622458
vn -0.6460937 0.03929603 0.7622458
vn -0.6451979 0.03624377 0.7631554
vn -0.54809 -0.02530948 0.8360362
vn -0.5540738 0.004080683 0.8324576
vn -0.5540738 0.004080683 0.8324576
vn -0.5613649 0.04384031 0.8264064
vn -0.5017467 -0.02603151 0.8646228
vn -0.499296 -0.0008714941 0.866431
vn -0.499296 -0.0008714941 0.866431
vn -0.4949466 0.03745499 0.8681158
vn -0.4811126 2.669069E-05 0.8766588
vn -0.4810499 6.919311E-05 0.8766933
vn -0.4810499 6.919311E-05 0.8766933
vn -0.4809704 0.0001230643 0.8767368
vn 0.7895549 -5.470356E-05 -0.6136799
vn 0.7895525 -3.385113E-05 -0.613683
vn 0.7895533 -5.573199E-05 -0.613682
vn 0.789552 -5.655755E-05 -0.6136838
vn 0.7542092 -0.001393307 -0.6566328
vn 0.7757277 0.0005486278 -0.6310676
vn 0.7757277 0.0005486278 -0.6310676
vn 0.7901925 0.001899924 -0.6128559
vn 0.7118062 0.007432301 -0.7023367
vn 0.7310813 -0.002889796 -0.6822842
vn 0.7310813 -0.002889796 -0.6822842
vn 0.7462052 -0.01123915 -0.6656212
vn 0.6458963 -0.02999261 -0.7628359
vn 0.6468476 -0.03258003 -0.761923
vn 0.6468476 -0.03258003 -0.761923
vn 0.6474499 -0.03422565 -0.7613391
vn 0.561083 -0.03621644 -0.8269669
vn 0.553521 -0.003361694 -0.8328284
vn 0.553521 -0.003361694 -0.8328284
vn 0.5475133 0.02093175 -0.836535
vn 0.4937023 -0.03091622 -0.8690813
vn 0.4979978 0.0007154444 -0.867178
vn 0.4979978 0.0007154444 -0.867178
vn 0.50054 0.02147292 -0.8654472
vn 0.4793985 -5.207656E-05 -0.8775973
vn 0.4794778 -5.637208E-05 -0.877554
vn 0.4794778 -5.637208E-05 -0.877554
vn 0.4795404 -2.189253E-05 -0.8775198
vn 0.8062239 -0.001850669 0.5916078
vn 0.8061542 -0.000966964 0.5917048
vn 0.8061745 -0.001687102 0.5916754
vn 0.8061252 -0.001523529 0.591743
vn 0.5820835 -0.7086512 0.3987385
vn 0.6006736 -0.6766086 0.4259017
vn 0.6006736 -0.6766086 0.4259017
vn 0.6196135 -0.6398059 0.454673
vn 0.2650622 -0.9504876 0.1622199
vn 0.2821305 -0.9418117 0.1827374
vn 0.2821305 -0.9418117 0.1827374
vn 0.3021797 -0.9305046 0.2069989
vn 0 -1 0
vn 0 -1 0
vn 0 -1 0
vn 0 -1 0
vn -0.2979819 -0.9452841 -0.1328329
vn -0.3195849 -0.9353141 -0.151832
vn -0.3195849 -0.9353141 -0.151832
vn -0.3450069 -0.9222654 -0.1743469
vn -0.6691863 -0.6903417 -0.2749874
vn -0.6941856 -0.6555518 -0.297251
vn -0.6941856 -0.6555518 -0.297251
vn -0.7196859 -0.6157338 -0.3208179
vn -0.9250587 -0.001846057 -0.3798195
vn -0.9250007 -0.003195479 -0.3799522
vn -0.9250007 -0.003195479 -0.3799522
vn -0.9249465 -0.002870475 -0.3800864
vn 0.9423705 -0.0007639366 0.3345703
vn 0.9423518 -0.0004021828 0.3346237
vn 0.9423571 -0.0006923592 0.3346078
vn 0.9423439 -0.0006207812 0.3346454
vn 0.6882495 0.6703309 0.2774333
vn 0.7241833 0.6326977 0.2743214
vn 0.7241833 0.6326977 0.2743214
vn 0.7608281 0.5900655 0.2701172
vn 0.3124163 0.9381196 0.1494249
vn 0.346118 0.9257491 0.1522856
vn 0.346118 0.9257491 0.1522856
vn 0.3855818 0.9094882 0.155428
vn 0 1 0
vn 0 1 0
vn 0 1 0
vn 0 1 0
vn -0.2587525 0.9467075 -0.1918122
vn -0.2893686 0.9360027 -0.2004112
vn -0.2893686 0.9360027 -0.2004112
vn -0.325242 0.9219468 -0.2103129
vn -0.5540547 0.6990846 -0.4520003
vn -0.5906917 0.6633763 -0.4593639
vn -0.5906917 0.6633763 -0.4593639
vn -0.6285612 0.6227369 -0.46595
vn -0.7749965 -0.001198448 -0.6319644
vn -0.774927 -0.001740752 -0.6320482
vn -0.774927 -0.001740752 -0.6320482
vn -0.7748584 -0.001573232 -0.6321329
vn -0.7876738 0 0.6160924
vn -0.787674 -2.553744E-07 0.6160922
vn -0.787674 -2.553744E-07 0.6160922
vn -0.7876743 -5.10749E-07 0.616092
vn -0.4809704 -2.096735E-07 0.8767368
vn -0.4809707 -4.601008E-07 0.8767366
vn -0.4809707 -4.601008E-07 0.8767366
vn -0.4809711 -7.105288E-07 0.8767365
vn 0.7895519 -1.167534E-06 -0.6136837
vn 0.7895514 -5.837669E-07 -0.6136844
vn 0.7895508 0 -0.6136851
vn 0.4793985 0 -0.8775973
vn 0.4793985 0 -0.8775973
vn 0.4793985 0 -0.8775973
vn 0.8061261 0 0.5917436
vn 0.8061261 0 0.5917436
vn 0.8061261 0 0.5917436
vn -0.9250605 -9.233499E-07 -0.3798198
vn -0.9250605 -9.233499E-07 -0.3798198
vn -0.9250606 0 -0.3798194
vn 0.9423441 0 0.3346455
vn 0.9423441 -4.001559E-08 0.3346455
vn 0.9423441 -8.00312E-08 0.3346455
vn -0.7749972 -3.364849E-07 -0.6319646
vn -0.7749972 -3.364849E-07 -0.6319646
vn -0.7749975 4.887987E-07 -0.6319644
vn -0.4789043 0 0.877867
vn -0.4789042 3.059632E-07 0.8778672
vn -0.4789042 3.059632E-07 0.8778672
vn -0.4789039 6.119265E-07 0.8778673
vn 0.9438576 0 0.3303527
vn 0.9438576 0 0.3303527
vn 0.9438576 0 0.3303527
vn 0.9438576 0 0.3303527
vn 0.4821349 0 -0.876097
vn 0.4821349 0 -0.876097
vn 0.4821349 0 -0.876097
vn 0.482135 0 -0.8760971
vn -0.9209859 -2.715721E-07 -0.3895962
vn -0.9209857 -1.373004E-07 -0.3895961
vn -0.9209857 -1.373004E-07 -0.3895961
vn -0.9209858 0 -0.3895961
vn -0.7861389 2.202681E-07 0.6180498
vn -0.7860243 0.0002474362 0.6181954
vn -0.7860243 0.0002474362 0.6181954
vn -0.7859098 0.0004946336 0.618341
vn 0.8062376 8.433548E-07 0.5915918
vn 0.8062375 5.270968E-07 0.5915919
vn 0.8062375 5.270968E-07 0.5915919
vn 0.8062375 2.108387E-07 0.591592
vn 0.7912677 0 -0.6114699
vn 0.791268 -4.358459E-07 -0.6114696
vn 0.791268 -4.358459E-07 -0.6114696
vn 0.7912682 -8.716913E-07 -0.6114692
vn -0.7653747 0.0001984486 -0.6435848
vn -0.7653574 9.921801E-05 -0.6436056
vn -0.7653574 9.921801E-05 -0.6436056
vn -0.7653398 0 -0.6436263
vn -0.600004 0.6478812 0.4693027
vn -0.5958391 0.6530873 0.4673893
vn -0.5958391 0.6530873 0.4673893
vn -0.5926065 0.657082 0.4658978
vn 0.7123737 0.4312093 -0.5536986
vn 0.7163954 0.4227562 -0.5550268
vn 0.7163954 0.4227562 -0.5550268
vn 0.7195492 0.416004 -0.5560482
vn 0.6656576 0.5640383 0.4886315
vn 0.6649325 0.5654382 0.4880004
vn 0.6649325 0.5654382 0.4880004
vn 0.6642438 0.566763 0.4874012
vn -0.4625331 0.802376 -0.3771682
vn -0.5065828 0.7531702 -0.4196528
vn -0.5065828 0.7531702 -0.4196528
vn -0.553457 0.6907234 -0.4653885
vn -0.4405803 0.4011271 0.8031102
vn -0.4380623 0.4079682 0.8010389
vn -0.4380623 0.4079682 0.8010389
vn -0.4361039 0.4132263 0.7994106
vn 0.3408233 0.6659054 -0.6636335
vn 0.3678461 0.6266485 -0.6870232
vn 0.3678461 0.6266485 -0.6870232
vn 0.3867185 0.5971972 -0.7027121
vn -0.7642031 0.5614226 -0.3174878
vn -0.7908474 0.514517 -0.3314101
vn -0.7908474 0.514517 -0.3314101
vn -0.8190783 0.4572279 -0.3464871
vn 0.7236131 0.6405862 0.2569696
vn 0.7056215 0.6635014 0.2487247
vn 0.7056215 0.6635014 0.2487247
vn 0.6888666 0.6836162 0.241105

vt 1 0
vt 0 0
vt 1 1
vt 0 1
vt 1 0
vt 0 0
vt 1 1
vt 0 1
vt 1 0
vt 0 0
vt 1 1
vt 0 1
vt 1 0
vt 0 0
vt 1 1
vt 0 1
vt 1 0
vt 0 0
vt 1 1
vt 0 1
vt 1 0
vt 0 0
vt 1 1
vt 0 1
vt 1 0
vt 0 0
vt 1 1
vt 0 1
vt 1 0
vt 0 0
vt 1 1
vt 0 1
vt 1 0
vt 0 0
vt 1 1
vt 0 1
vt 1 0
vt 0 0
vt 1 1
vt 0 1
vt 1 0
vt 0 0
vt 1 1
vt 0 1
vt 1 0
vt 0 0
vt 1 1
vt 0 1
vt 1 0
vt 0 0
vt 1 1
vt 0 1
vt 1 0
vt 0 0
vt 1 1
vt 0 1
vt 1 0
vt 0 0
vt 1 1
vt 0 1
vt 1 0
vt 0 0
vt 1 1
vt 0 1
vt 1 0
vt 0 0
vt 1 1
vt 0 1
vt 1 0
vt 0 0
vt 1 1
vt 0 1
vt 1 0
vt 0 0
vt 1 1
vt 0 1
vt 1 0
vt 0 0
vt 1 1
vt 0 1
vt 1 0
vt 0 0
vt 1 1
vt 0 1
vt 1 0
vt 0 0
vt 1 1
vt 0 1
vt 1 0
vt 0 0
vt 1 1
vt 0 1
vt 1 0
vt 0 0
vt 1 1
vt 0 1
vt 1 0
vt 0 0
vt 1 1
vt 0 1
vt 1 0
vt 0 0
vt 1 1
vt 0 1
vt 1 0
vt 0 0
vt 1 1
vt 0 1
vt 1 0
vt 0 0
vt 1 1
vt 0 1
vt 1 0
vt 0 0
vt 1 1
vt 0 1
vt 1 0
vt 0 0
vt 1 1
vt 0 1
vt 1 0
vt 1 1
vt 0 1
vt 0 0
vt 1 1
vt 0 1
vt 1 0
vt 1 1
vt 0 1
vt 0 0
vt 1 1
vt 0 1
vt 1 0
vt 1 1
vt 0 1
vt 0 0
vt 1 1
vt 0 1
vt 1 0
vt 0 0
vt 1 1
vt 0 1
vt 1 0
vt 0 0
vt 1 1
vt 0 1
vt 1 0
vt 0 0
vt 1 1
vt 0 1
vt 1 0
vt 0 0
vt 1 1
vt 0 1
vt 1 0
vt 0 0
vt 1 1
vt 0 1
vt 1 0
vt 0 0
vt 1 1
vt 0 1
vt 1 0
vt 0 0
vt 1 1
vt 0 1
vt 1 0
vt 0 0
vt 1 1
vt 0 1
vt 1 0.01504311
vt 0 0.01504311
vt 1 0.06196174
vt 0 0.06196174
vt 1 0.01504311
vt 0 0.01504311
vt 1 0.06196174
vt 0 0.06196174
vt 1 0.01504311
vt 0 0.01504311
vt 1 0.06196174
vt 0 0.06196174
vt 1 0.01504311
vt 0 0.01504311
vt 1 0.06196174
vt 0 0.06196174
vt 1 0.9212753
vt 0 0.9212753
vt 1 0.9887191
vt 0 0.9887191
vt 1 0.9212753
vt 0 0.9212753
vt 1 0.9887191
vt 0 0.9887191
vt 1 0.9212753
vt 0 0.9212753
vt 1 0.9887191
vt 0 0.9887191
vt 1 0.9212753
vt 0 0.9212753
vt 1 0.9887191
vt 0 0.9887191

usemtl sn16_38_sn1657.jpg
usemap sn16_38_sn1657.jpg
f 3/3/3 1/1/1 2/2/2
f 2/2/2 4/4/4 3/3/3
f 7/7/7 5/5/5 6/6/6
f 6/6/6 8/8/8 7/7/7
f 11/11/11 9/9/9 10/10/10
f 10/10/10 12/12/12 11/11/11
f 15/15/15 13/13/13 14/14/14
f 14/14/14 16/16/16 15/15/15
f 19/19/19 17/17/17 18/18/18
f 18/18/18 20/20/20 19/19/19
f 23/23/23 21/21/21 22/22/22
f 22/22/22 24/24/24 23/23/23
f 27/27/27 25/25/25 26/26/26
f 26/26/26 28/28/28 27/27/27
f 31/31/31 29/29/29 30/30/30
f 30/30/30 32/32/32 31/31/31
f 35/35/35 33/33/33 34/34/34
f 34/34/34 36/36/36 35/35/35
f 39/39/39 37/37/37 38/38/38
f 38/38/38 40/40/40 39/39/39
f 43/43/43 41/41/41 42/42/42
f 42/42/42 44/44/44 43/43/43
f 47/47/47 45/45/45 46/46/46
f 46/46/46 48/48/48 47/47/47
f 51/51/51 49/49/49 50/50/50
f 50/50/50 52/52/52 51/51/51
f 55/55/55 53/53/53 54/54/54
f 54/54/54 56/56/56 55/55/55
f 59/59/59 57/57/57 58/58/58
f 58/58/58 60/60/60 59/59/59
f 63/63/63 61/61/61 62/62/62
f 62/62/62 64/64/64 63/63/63
f 67/67/67 65/65/65 66/66/66
f 66/66/66 68/68/68 67/67/67
f 71/71/71 69/69/69 70/70/70
f 70/70/70 72/72/72 71/71/71
f 75/75/75 73/73/73 74/74/74
f 74/74/74 76/76/76 75/75/75
f 79/79/79 77/77/77 78/78/78
f 78/78/78 80/80/80 79/79/79
f 83/83/83 81/81/81 82/82/82
f 82/82/82 84/84/84 83/83/83
f 87/87/87 85/85/85 86/86/86
f 86/86/86 88/88/88 87/87/87
f 91/91/91 89/89/89 90/90/90
f 90/90/90 92/92/92 91/91/91
f 95/95/95 93/93/93 94/94/94
f 94/94/94 96/96/96 95/95/95
f 99/99/99 97/97/97 98/98/98
f 98/98/98 100/100/100 99/99/99
f 103/103/103 101/101/101 102/102/102
f 102/102/102 104/104/104 103/103/103
f 107/107/107 105/105/105 106/106/106
f 106/106/106 108/108/108 107/107/107
f 111/111/111 109/109/109 110/110/110
f 110/110/110 112/112/112 111/111/111
f 115/115/115 113/113/113 114/114/114
f 114/114/114 116/116/116 115/115/115
f 119/119/119 117/117/117 118/118/118
f 118/118/118 120/120/120 119/119/119
f 122/122/122 121/121/121 30/30/30
f 30/30/30 123/123/123 122/122/122
f 125/125/125 53/53/53 124/124/124
f 124/124/124 126/126/126 125/125/125
f 128/128/128 127/127/127 58/58/58
f 58/58/58 129/129/129 128/128/128
f 131/131/131 81/81/81 130/130/130
f 130/130/130 132/132/132 131/131/131
f 134/134/134 133/133/133 86/86/86
f 86/86/86 135/135/135 134/134/134
f 137/137/137 109/109/109 136/136/136
f 136/136/136 138/138/138 137/137/137

usemtl sn16_39_sn16g40.jpg
usemap sn16_39_sn16g40.jpg
f 141/141/141 139/139/139 140/140/140
f 140/140/140 142/142/142 141/141/141
f 145/145/145 143/143/143 144/144/144
f 144/144/144 146/146/146 145/145/145
f 149/149/149 147/147/147 148/148/148
f 148/148/148 150/150/150 149/149/149
f 153/153/153 151/151/151 152/152/152
f 152/152/152 154/154/154 153/153/153
f 157/157/157 155/155/155 156/156/156
f 156/156/156 158/158/158 157/157/157
f 161/161/161 159/159/159 160/160/160
f 160/160/160 162/162/162 161/161/161
f 165/165/165 163/163/163 164/164/164
f 164/164/164 166/166/166 165/165/165
f 169/169/169 167/167/167 168/168/168
f 168/168/168 170/170/170 169/169/169
f 173/173/173 171/171/171 172/172/172
f 172/172/172 174/174/174 173/173/173
f 177/177/177 175/175/175 176/176/176
f 176/176/176 178/178/178 177/177/177
f 181/181/181 179/179/179 180/180/180
f 180/180/180 182/182/182 181/181/181
f 185/185/185 183/183/183 184/184/184
f 184/184/184 186/186/186 185/185/185
f 189/189/189 187/187/187 188/188/188
f 188/188/188 190/190/190 189/189/189
f 193/193/193 191/191/191 192/192/192
f 192/192/192 194/194/194 193/193/193
f 197/197/197 195/195/195 196/196/196
f 196/196/196 198/198/198 197/197/197
f 201/201/201 199/199/199 200/200/200
f 200/200/200 202/202/202 201/201/201
