mtllib ./fire40.mtl
g fire40
v 15.15397 19.99994 -8.751431
v 15.15397 -20.00006 -8.751431
v -15.1549 19.99994 8.751994
v -15.1549 -20.00006 8.751994
v -8.752178 19.99994 -15.15415
v -8.752178 -20.00006 -15.15415
v 8.751218 19.47617 15.15471
v 8.751218 -20.00006 15.15471

vn -0.6018416 0 -0.7986155
vn -0.6018416 0 -0.7986155
vn -0.6018416 0 -0.7986155
vn -0.6018416 0 -0.7986155
vn -0.7986159 0 0.601841
vn -0.7986159 0 0.6018412
vn -0.7986159 0 0.6018412
vn -0.7986159 0 0.6018412

vt 0.0004997849 0.9995005
vt 0.0004995167 0.0004996955
vt 0.9995005 0.9995003
vt 0.9995002 0.0004994869
vt 0.0004997849 0.9995005
vt 0.0004995167 0.0004996955
vt 0.9995005 0.9995003
vt 0.9995002 0.0004994869

usemtl sn16_34_sn16f00.BMP
usemap sn16_34_sn16f00.BMP
f 3/3/3 1/1/1 2/2/2
f 2/2/2 4/4/4 3/3/3
f 7/7/7 5/5/5 6/6/6
f 6/6/6 8/8/8 7/7/7
