mtllib ./fire45.mtl
g fire45
v 15.16101 19.99957 -8.734311
v 15.16101 -20.00043 -8.734311
v -15.16092 19.99957 8.733415
v -15.16092 -20.00043 8.733415
v -8.733816 19.99957 -15.16141
v -8.733816 -20.00043 -15.16141
v 8.733909 19.4758 15.16051
v 8.733909 -20.00043 15.16051

vn -0.9914082 0 0.1308041
vn -0.9914082 0 0.1308041
vn -0.9914082 0 0.1308041
vn -0.9914082 0 0.1308041
vn 0.1308041 0 0.9914082
vn 0.1308041 0 0.9914082
vn 0.1308041 0 0.9914082
vn 0.1308041 0 0.9914082

vt 0.0004997849 0.9995005
vt 0.0004995167 0.0004996955
vt 0.9995005 0.9995003
vt 0.9995002 0.0004994869
vt 0.0004997849 0.9995005
vt 0.0004995167 0.0004996955
vt 0.9995005 0.9995003
vt 0.9995002 0.0004994869

usemtl sn16_34_sn16f00.BMP
usemap sn16_34_sn16f00.BMP
f 3/3/3 1/1/1 2/2/2
f 2/2/2 4/4/4 3/3/3
f 7/7/7 5/5/5 6/6/6
f 6/6/6 8/8/8 7/7/7
