mtllib ./fire47.mtl
g fire47
v 15.15307 19.99994 -8.762246
v 15.15307 -20.00006 -8.762246
v -15.15396 19.99994 8.762584
v -15.15396 -20.00006 8.762584
v -8.762903 19.99994 -15.15333
v -8.762903 -20.00006 -15.15333
v 8.762011 19.47617 15.15367
v 8.762011 -20.00006 15.15367

vn 0.5071552 0 -0.8618548
vn 0.5071552 0 -0.8618548
vn 0.5071552 0 -0.8618548
vn 0.5071552 0 -0.8618548
vn -0.861856 0 -0.507153
vn -0.8618561 0 -0.5071532
vn -0.8618561 0 -0.5071532
vn -0.861856 0 -0.5071531

vt 0.0004997849 0.9995005
vt 0.0004995167 0.0004996955
vt 0.9995005 0.9995003
vt 0.9995002 0.0004994869
vt 0.0004997849 0.9995005
vt 0.0004995167 0.0004996955
vt 0.9995005 0.9995003
vt 0.9995002 0.0004994869

usemtl sn16_34_sn16f00.BMP
usemap sn16_34_sn16f00.BMP
f 3/3/3 1/1/1 2/2/2
f 2/2/2 4/4/4 3/3/3
f 7/7/7 5/5/5 6/6/6
f 6/6/6 8/8/8 7/7/7
