mtllib ./fire29.mtl
g fire29
v 15.16439 20.00031 -8.736508
v 15.16439 -19.99969 -8.736508
v -15.16475 20.00031 8.735972
v -15.16475 -19.99969 8.735972
v -8.736418 20.00031 -15.16484
v -8.736418 -19.99969 -15.16484
v 8.736064 19.4765 15.1643
v 8.736064 -19.99969 15.1643

vn 0.3663872 0 -0.9304625
vn 0.3663872 0 -0.9304625
vn 0.3663872 0 -0.9304625
vn 0.3663872 0 -0.9304625
vn -0.9304625 0 -0.3663872
vn -0.9304625 0 -0.3663872
vn -0.9304625 0 -0.3663872
vn -0.9304625 0 -0.3663872

vt 0.0004997849 0.9995005
vt 0.0004995167 0.0004996955
vt 0.9995005 0.9995003
vt 0.9995002 0.0004994869
vt 0.0004997849 0.9995005
vt 0.0004995167 0.0004996955
vt 0.9995005 0.9995003
vt 0.9995002 0.0004994869

usemtl sn16_34_sn16f00.BMP
usemap sn16_34_sn16f00.BMP
f 3/3/3 1/1/1 2/2/2
f 2/2/2 4/4/4 3/3/3
f 7/7/7 5/5/5 6/6/6
f 6/6/6 8/8/8 7/7/7
