mtllib ./floor20.mtl
g floor20
v 209.6611 -0.0005493164 1.935272
v 97.619 -0.0005493164 -34.51336
v 103.5362 -0.0005493164 0.9558869
v 205.0411 -0.0005493164 -25.75812
v 197.6788 -0.0005493164 -69.88987
v 119.2558 -0.0005493164 -42.1631
v 79.92747 -0.0005493164 -65.81967
v 90.15071 -0.0005493164 -47.72896
v 135.4247 -0.0005493164 -111.5213
v 52.59544 -0.0005493164 -89.18718
v 161.8534 -0.0005493164 -133.2852
v 106.5061 -0.0005493164 -180.6044
v 87.05518 -0.0005493164 -147.6211
v 18.9196 -0.0005493164 -101.7973
v 38.31253 -0.0005493164 -206.1399
v 31.03821 -0.0005493164 -167.0009
v -17.03825 -0.0005493164 -102.1292
v -34.50214 -0.0005493164 -206.8119
v -28.64766 -0.0005493164 -171.7189
v -50.94109 -0.0005493164 -90.14268
v -103.1554 -0.0005493164 -182.5393
v -85.81443 -0.0005493164 -151.8533
v -90.92886 -0.0005493164 -147.8743
v -159.3666 -0.0005493164 -136.2497
v -133.8794 -0.0005493164 -114.4594
v -97.88741 -0.0005493164 -83.68814
v -96.96606 -0.0005493164 -36.30913
v -78.69971 -0.0005493164 -67.28363
v -180.9913 -0.0005493164 -99.58036
v -196.3559 -0.0005493164 -73.5263
v -103.5368 -0.0005493164 -0.9551631
v -209.6618 -0.0005493164 -1.934569
v -97.61965 -0.0005493164 34.51403
v -204.1008 -0.0005493164 31.39926
v -126.3367 -0.0005493164 44.66707
v -88.20558 -0.0005493164 51.17286
v -197.6794 -0.0005493164 69.89059
v -161.8541 -0.0005493164 133.2859
v -129.2168 -0.0005493164 106.4094
v -52.59608 -0.0005493164 89.18785
v -79.92809 -0.0005493164 65.8204
v -106.5067 -0.0005493164 180.605
v -93.40659 -0.0005493164 158.391
v -18.92025 -0.0005493164 101.798
v -38.31315 -0.0005493164 206.1406
v -33.25407 -0.0005493164 178.9204
v 17.0376 -0.0005493164 102.1298
v 34.50153 -0.0005493164 206.8126
v 30.87547 -0.0005493164 185.0772
v 50.94046 -0.0005493164 90.14334
v 103.1547 -0.0005493164 182.54
v 90.10366 -0.0005493164 159.4452
v 96.76809 -0.0005493164 82.73238
v 78.69907 -0.0005493164 67.28429
v 66.26061 -0.0005493164 77.52731
v 159.366 -0.0005493164 136.2504
v 96.76809 -0.0005493164 82.73238
v 96.96541 -0.0005493164 36.3098
v 182.3189 -0.0005493164 97.32871
v 196.3553 -0.0005493164 73.52699
v 103.5362 -0.0005493164 0.9558869
v 63.94032 -0.0005493164 -22.60613
v 67.8161 -0.0005493164 0.6262269
v 97.619 -0.0005493164 -34.51336
v 97.619 -0.0005493164 -34.51336
v 52.35236 -0.0005493164 -43.11178
v 63.94032 -0.0005493164 -22.60613
v 90.15071 -0.0005493164 -47.72896
v 79.92747 -0.0005493164 -65.81967
v 64.02597 -0.0005493164 -52.72488
v 79.92747 -0.0005493164 -65.81967
v 52.59544 -0.0005493164 -89.18718
v 34.46182 -0.0005493164 -58.39078
v 52.59544 -0.0005493164 -89.18718
v 12.02625 -0.0005493164 -64.70805
v 34.46182 -0.0005493164 -58.39078
v 18.9196 -0.0005493164 -101.7973
v 18.9196 -0.0005493164 -101.7973
v -10.79028 -0.0005493164 -66.96274
v 12.02625 -0.0005493164 -64.70805
v -17.03825 -0.0005493164 -102.1292
v -17.03825 -0.0005493164 -102.1292
v -50.94109 -0.0005493164 -90.14268
v -41.16352 -0.0005493164 -72.84061
v -41.16352 -0.0005493164 -72.84061
v -51.54844 -0.0005493164 -44.07067
v -33.36654 -0.0005493164 -59.04334
v -50.94109 -0.0005493164 -90.14268
v -66.14936 -0.0005493164 -77.61874
v -78.69971 -0.0005493164 -67.28363
v -63.51286 -0.0005493164 -23.78236
v -51.54844 -0.0005493164 -44.07067
v -96.96606 -0.0005493164 -36.30913
v -96.96606 -0.0005493164 -36.30913
v -67.81677 -0.0005493164 -0.6255397
v -63.51286 -0.0005493164 -23.78236
v -103.5368 -0.0005493164 -0.9551631
v -103.5368 -0.0005493164 -0.9551631
v -63.94098 -0.0005493164 22.60681
v -67.81677 -0.0005493164 -0.6255397
v -97.61965 -0.0005493164 34.51403
v -97.61965 -0.0005493164 34.51403
v -52.35302 -0.0005493164 43.11246
v -63.94098 -0.0005493164 22.60681
v -88.20558 -0.0005493164 51.17286
v -66.61443 -0.0005493164 54.85666
v -34.96658 -0.0005493164 59.29322
v -52.35302 -0.0005493164 43.11246
v -79.92809 -0.0005493164 65.8204
v -52.59608 -0.0005493164 89.18785
v -52.59608 -0.0005493164 89.18785
v -18.92025 -0.0005493164 101.798
v -12.16138 -0.0005493164 65.43229
v -18.92025 -0.0005493164 101.798
v 17.0376 -0.0005493164 102.1298
v 11.26523 -0.0005493164 67.52871
v 17.0376 -0.0005493164 102.1298
v 50.94046 -0.0005493164 90.14334
v 33.36588 -0.0005493164 59.04402
v 66.26061 -0.0005493164 77.52731
v 78.69907 -0.0005493164 67.28429
v 51.54779 -0.0005493164 44.07134
v 78.69907 -0.0005493164 67.28429
v 63.51221 -0.0005493164 23.78303
v 51.54779 -0.0005493164 44.07134
v 96.96541 -0.0005493164 36.3098
v 96.96541 -0.0005493164 36.3098
v 67.8161 -0.0005493164 0.6262269
v 63.51221 -0.0005493164 23.78303
v 103.5362 -0.0005493164 0.9558869
v -0.0003291626 -0.0005493164 0.000339701
v 67.8161 -0.0005493164 0.6262269
v 63.94032 -0.0005493164 -22.60613
v 52.35236 -0.0005493164 -43.11178
v -10.79028 -0.0005493164 -66.96274
v -33.36654 -0.0005493164 -59.04334
v -51.54844 -0.0005493164 -44.07067
v -63.51286 -0.0005493164 -23.78236
v -67.81677 -0.0005493164 -0.6255397
v -63.94098 -0.0005493164 22.60681
v -52.35302 -0.0005493164 43.11246
v -34.96658 -0.0005493164 59.29322
v -12.16138 -0.0005493164 65.43229
v 11.26523 -0.0005493164 67.52871
v 33.36588 -0.0005493164 59.04402
v 51.54779 -0.0005493164 44.07134
v 63.51221 -0.0005493164 23.78303
v -180.9913 -0.0005493164 -99.58036
v -97.88741 -0.0005493164 -83.68814
v -66.14936 -0.0005493164 -77.61874
v -66.14936 -0.0005493164 -77.61874
v -78.69971 -0.0005493164 -67.28363
v -10.79028 -0.0005493164 -66.96274
v -33.36654 -0.0005493164 -59.04334
v 12.02625 -0.0005493164 -64.70805
v 34.46182 -0.0005493164 -58.39078
v 64.02597 -0.0005493164 -52.72488
v 52.35236 -0.0005493164 -43.11178
v 119.2558 -0.0005493164 -42.1631
v 90.15071 -0.0005493164 -47.72896
v 205.0411 -0.0005493164 -25.75812
v -204.1008 -0.0005493164 31.39926
v -126.3367 -0.0005493164 44.66707
v -88.20558 -0.0005493164 51.17286
v -66.61443 -0.0005493164 54.85666
v -79.92809 -0.0005493164 65.8204
v -34.96658 -0.0005493164 59.29322
v 11.26523 -0.0005493164 67.52871
v -12.16138 -0.0005493164 65.43229
v 11.26523 -0.0005493164 67.52871
v 33.36588 -0.0005493164 59.04402
v 50.94046 -0.0005493164 90.14334
v 66.26061 -0.0005493164 77.52731
v 182.3189 -0.0005493164 97.32871

vn 0 1 0
vn 0 1 0
vn 0 1 0
vn 0 1 0
vn 0 1 0
vn 0 1 0
vn 0 1 0
vn 0 0.9999999 0
vn 0 1 0
vn 0 1 0
vn 0 1 0
vn 0 1 0
vn 0 1 0
vn 0 1 0
vn 0 1 0
vn 0 1 0
vn 0 1 0
vn 0 1 0
vn 0 1 0
vn 0 1 0
vn 0 1 0
vn 0 1 0
vn 0 1 0
vn 0 1 0
vn 0 1 0
vn 0 1 0
vn 0 1 0
vn 0 1 0
vn 0 1 0
vn 0 1 0
vn 0 0.9999999 0
vn 0 0.9999999 0
vn 0 1 0
vn 0 1 0
vn 0 0.9999999 0
vn 0 1 0
vn 0 1 0
vn 0 1 0
vn 0 1 0
vn 0 1 0
vn 0 1 0
vn 0 0.9999999 0
vn 0 1 0
vn 0 0.9999999 0
vn 0 1 0
vn 0 1 0
vn 0 0.9999999 0
vn 0 1 0
vn 0 1 0
vn 0 0.9999999 0
vn 0 1 0
vn 0 1 0
vn 0 1 0
vn 0 1 0
vn 0 1 0
vn 0 1 0
vn 0 1 0
vn 0 1 0
vn 0 0.9999999 0
vn 0 0.9999999 0
vn 0 1 0
vn 0 1 0
vn 0 1 0
vn 0 1 0
vn 0 0.9999999 0
vn 0 0.9999999 0
vn 0 1 0
vn 0 1 0
vn 0 0.9999999 0
vn 0 1 0
vn 0 1 0
vn 0 1 0
vn 0 1 0
vn 0 1 0
vn 0 1 0
vn 0 1 0
vn 0 1 0
vn 0 1 0
vn 0 1 0
vn 0 1 0
vn 0 1 0
vn 0 1 0
vn 0 1 0
vn 0 1 0
vn 0 1 0
vn 0 0.9999999 0
vn 0 1 0
vn 0 1 0
vn 0 1 0
vn 0 1 0
vn 0 1 0
vn 0 1 0
vn 0 1 0
vn 0 1 0
vn 0 1 0
vn 0 0.9999999 0
vn 0 1 0
vn 0 1 0
vn 0 1 0
vn 0 1 0
vn 0 1 0
vn 0 1 0
vn 0 1 0
vn 0 1 0
vn 0 1 0
vn 0 1 0
vn 0 1 0
vn 0 1 0
vn 0 0.9999999 0
vn 0 1 0
vn 0 1 0
vn 0 1 0
vn 0 1 0
vn 0 1 0
vn 0 1 0
vn 0 1 0
vn 0 1 0
vn 0 1 0
vn 0 1 0
vn 0 1 0
vn 0 1 0
vn 0 1 0
vn 0 1 0
vn 0 1 0
vn 0 1 0
vn 0 1 0
vn 0 1 0
vn 0 1 0
vn 0 1 0
vn 0 1 0
vn 0 0.9999999 0
vn 0 0.9999999 0
vn 0 1 0
vn 0 1 0
vn 0 1 0
vn 0 1 0
vn 0 1 0
vn 0 0.9999999 0
vn 0 0.9999999 0
vn 0 1 0
vn 0 1 0
vn 0 1 0
vn 0 1 0
vn 0 0.9999999 0
vn 0 1 0
vn 0 1 0
vn 0 1 0
vn 0 1 0
vn 0 0.9999999 0
vn 0 0.9999999 0
vn 0 1 0
vn 0 1 0
vn 0 1 0
vn 0 0.9999999 0
vn 0 1 0
vn 0 0.9999999 0
vn 0 0.9999999 0
vn 0 1 0
vn 0 0.9999999 0
vn 0 1 0
vn 0 1 0
vn 0 0.9999999 0
vn 0 1 0
vn 0 1 0
vn 0 1 0
vn 0 1 0
vn 0 1 0
vn 0 1 0
vn 0 1 0
vn 0 1 0
vn 0 1 0
vn 0 1 0
vn 0 1 0
vn 0 1 0

vt 0.2403707 4.997502
vt 0.1173351 3.588366
vt 0.3719387 3.733335
vt 1.772518 4.997502
vt 1.270124 4.807674
vt 1.758039 3.887497
vt 1.562129 3.342899
vt 1.753126 3.510896
vt 0.9109259 3.936351
vt 1.344726 2.949089
vt 0.600812 4.218962
vt 0.1605695 3.421495
vt 0.5878121 3.251051
vt 1.266665 2.499688
vt 0.002497286 2.51146
vt 0.4766882 2.507044
vt 1.337363 2.048903
vt 0.1456605 1.598619
vt 0.5451577 1.749569
vt 1.548292 1.651103
vt 0.572792 0.7930756
vt 0.8967667 1.078036
vt 0.9540495 1.02283
vt 1.232373 0.1919894
vt 1.435103 0.5592198
vt 0.009343803 1.159853
vt 0.3585713 1.270455
vt 0.10558 1.422546
vt 1.707363 0.002497137
vt 0.2133017 0.01017183
vt 0.6286569 1.266665
vt 0.7602251 0.002497435
vt 0.8832605 1.411634
vt 0.9995005 0.1387383
vt 0.9959182 1.091465
vt 0.9941617 1.558628
vt 3.729876 0.1687337
vt 4.399188 0.7574456
vt 4.016224 1.106447
vt 3.655274 2.027319
vt 3.437871 1.633508
vt 4.83943 1.554912
vt 4.551684 1.669706
vt 3.733335 2.476719
vt 4.997502 2.464948
vt 4.667714 2.468019
vt 3.662637 2.927505
vt 4.85434 3.377789
vt 4.606905 3.284296
vt 3.451707 3.325304
vt 4.427208 4.183332
vt 4.183379 3.968866
vt 0.9856407 3.824832
vt 0.8950154 3.577454
vt 0.9870461 3.45107
vt 3.767626 4.784418
vt 3.269712 3.882483
vt 0.642024 3.729545
vt 0.9816997 4.872957
vt 0.7872936 4.989829
vt 0 0
vt 1 1
vt 0 1
vt 1 0
vt 0.01008664 0.01427288
vt 0.97554 0.9873019
vt 0.003591359 0.9955739
vt 0.4029661 0.01703021
vt 0.9938598 0.0115157
vt 0.9921286 0.596209
vt 0.005794846 0.003814165
vt 0.9889492 0.00731506
vt 0.9840391 0.9935868
vt 0 0
vt 1 1
vt 0 1
vt 1 0
vt 0 0
vt 1 1
vt 0 1
vt 1 0
vt 0.008869516 0.01451448
vt 0.9865309 0.01609351
vt 0.9838845 0.6050122
vt 0.007206663 0.5364897
vt 0.9858091 0.9920298
vt 0.01467431 0.9950628
vt 0.01137891 0.02445775
vt 0.5080871 0.007366074
vt 0 0
vt 1 1
vt 0 1
vt 1 0
vt 0 0
vt 1 1
vt 0 1
vt 1 0
vt 0 0
vt 1 1
vt 0 1
vt 1 0
vt 0.004175447 0.0115735
vt 0.9750732 0.9858036
vt 0.0108014 0.988107
vt 0.5013632 0.0127207
vt 0.07546544 0.4828319
vt 0.8154994 0.9829038
vt 0.1557678 0.9995004
vt 0.0004994571 0.0004993379
vt 0.9995005 0.01826933
vt 0 0
vt 1 0
vt 1 1
vt 0.9995005 0.9909545
vt 0.0004994571 0.9995004
vt 0.1613531 0.05727202
vt 0 0
vt 1 0
vt 1 1
vt 0.4827239 0.01466519
vt 0.9969403 0.009030007
vt 0.9892666 0.9918197
vt 0 0
vt 1 1
vt 0 1
vt 1 0
vt 0 0
vt 1 1
vt 0 1
vt 1 0
vt 0.5 0.4979014
vt 0.0004995167 0.5022979
vt 0.02913213 0.3297287
vt 0.1145584 0.1774435
vt 0.5797204 0.0004995465
vt 0.7459751 0.05941382
vt 0.8798376 0.1707077
vt 0.967886 0.3214659
vt 0.9995005 0.4935049
vt 0.9708678 0.6660741
vt 0.8854415 0.8183592
vt 0.7573229 0.9384947
vt 0.5893297 0.9840143
vt 0.4167746 0.9995005
vt 0.2540248 0.9363887
vt 0.1201623 0.8250949
vt 0.03211394 0.6743367
vt 0.0004995465 0.1381022
vt 1.721389 1.077807
vt 1.726746 1.488476
vt 0.01272157 1.550067
vt 0.9895851 0.01524465
vt 0.01989979 0.9901375
vt 0.9884185 0.9926751
vt 0.411658 0.01716384
vt 0.2463867 0.06400874
vt 0.009900138 0.5880507
vt 0.02278607 0.9847926
vt 0.03245336 3.829597
vt 0.02935582 3.471754
vt 0.04158309 4.884315
vt 3.291693 0.003166497
vt 3.286012 1.005834
vt 3.283226 1.497486
vt 0.9820747 0.5084876
vt 0.9862108 0.01314592
vt 0 1
vt 0.376213 0.03820723
vt 0.8122298 0.0004994571
vt 0 1
vt 0.007191718 0.9988678
vt 0.005620379 0.008180914
vt 3.271941 3.489128
vt 3.263462 4.985549

usemtl sn16_42_sn1648.jpg
usemap sn16_42_sn1648.jpg
f 3/3/3 1/1/1 2/2/2
f 28/28/28 26/26/26 27/27/27
f 27/27/27 30/30/30 31/31/31
f 31/31/31 30/30/30 32/32/32
f 31/31/31 32/32/32 33/33/33
f 33/33/33 32/32/32 34/34/34
f 33/33/33 35/35/35 36/36/36
f 55/55/55 53/53/53 54/54/54
f 54/54/54 53/53/53 58/58/58
f 58/58/58 59/59/59 60/60/60
f 58/58/58 60/60/60 3/3/3
f 3/3/3 60/60/60 1/1/1
f 27/27/27 148/148/148 30/30/30
f 27/27/27 26/26/26 148/148/148
f 151/151/151 26/26/26 28/28/28
f 2/2/2 159/159/159 160/160/160
f 2/2/2 1/1/1 159/159/159
f 159/159/159 1/1/1 161/161/161
f 33/33/33 34/34/34 35/35/35
f 53/53/53 59/59/59 58/58/58

usemtl sn16_41_sn16g39.jpg
usemap sn16_41_sn16g39.jpg
f 6/6/6 4/4/4 5/5/5
f 8/8/8 5/5/5 7/7/7
f 7/7/7 5/5/5 9/9/9
f 7/7/7 9/9/9 10/10/10
f 13/13/13 11/11/11 12/12/12
f 10/10/10 13/13/13 14/14/14
f 16/16/16 12/12/12 15/15/15
f 14/14/14 16/16/16 17/17/17
f 19/19/19 15/15/15 18/18/18
f 17/17/17 19/19/19 20/20/20
f 22/22/22 18/18/18 21/21/21
f 22/22/22 21/21/21 23/23/23
f 25/25/25 21/21/21 24/24/24
f 25/25/25 24/24/24 29/29/29
f 39/39/39 37/37/37 38/38/38
f 41/41/41 39/39/39 40/40/40
f 43/43/43 38/38/38 42/42/42
f 40/40/40 43/43/43 44/44/44
f 46/46/46 42/42/42 45/45/45
f 44/44/44 46/46/46 47/47/47
f 49/49/49 45/45/45 48/48/48
f 47/47/47 49/49/49 50/50/50
f 52/52/52 48/48/48 51/51/51
f 57/57/57 51/51/51 56/56/56
f 150/150/150 23/23/23 149/149/149
f 6/6/6 5/5/5 8/8/8
f 163/163/163 162/162/162 37/37/37
f 163/163/163 37/37/37 41/41/41
f 164/164/164 163/163/163 41/41/41
f 52/52/52 51/51/51 173/173/173
f 173/173/173 51/51/51 57/57/57
f 57/57/57 56/56/56 174/174/174
f 23/23/23 21/21/21 25/25/25
f 149/149/149 25/25/25 29/29/29
f 149/149/149 23/23/23 25/25/25
f 20/20/20 23/23/23 150/150/150
f 20/20/20 22/22/22 23/23/23
f 19/19/19 18/18/18 22/22/22
f 20/20/20 19/19/19 22/22/22
f 17/17/17 15/15/15 19/19/19
f 9/9/9 13/13/13 10/10/10
f 9/9/9 5/5/5 11/11/11
f 9/9/9 11/11/11 13/13/13
f 13/13/13 16/16/16 14/14/14
f 13/13/13 12/12/12 16/16/16
f 16/16/16 15/15/15 17/17/17
f 49/49/49 48/48/48 52/52/52
f 50/50/50 52/52/52 173/173/173
f 50/50/50 49/49/49 52/52/52
f 46/46/46 45/45/45 49/49/49
f 47/47/47 46/46/46 49/49/49
f 43/43/43 42/42/42 46/46/46
f 44/44/44 43/43/43 46/46/46
f 39/39/39 38/38/38 43/43/43
f 40/40/40 39/39/39 43/43/43
f 41/41/41 37/37/37 39/39/39

usemtl sn16_38_sn1657.jpg
usemap sn16_38_sn1657.jpg
f 63/63/63 61/61/61 62/62/62
f 62/62/62 61/61/61 64/64/64
f 67/67/67 65/65/65 66/66/66
f 70/70/70 68/68/68 69/69/69
f 73/73/73 71/71/71 72/72/72
f 76/76/76 74/74/74 75/75/75
f 75/75/75 74/74/74 77/77/77
f 80/80/80 78/78/78 79/79/79
f 79/79/79 78/78/78 81/81/81
f 84/84/84 82/82/82 83/83/83
f 87/87/87 85/85/85 86/86/86
f 85/85/85 88/88/88 89/89/89
f 92/92/92 90/90/90 91/91/91
f 91/91/91 90/90/90 93/93/93
f 96/96/96 94/94/94 95/95/95
f 95/95/95 94/94/94 97/97/97
f 100/100/100 98/98/98 99/99/99
f 99/99/99 98/98/98 101/101/101
f 104/104/104 102/102/102 103/103/103
f 103/103/103 102/102/102 105/105/105
f 108/108/108 106/106/106 107/107/107
f 107/107/107 109/109/109 110/110/110
f 113/113/113 111/111/111 112/112/112
f 116/116/116 114/114/114 115/115/115
f 119/119/119 117/117/117 118/118/118
f 122/122/122 120/120/120 121/121/121
f 125/125/125 123/123/123 124/124/124
f 124/124/124 123/123/123 126/126/126
f 129/129/129 127/127/127 128/128/128
f 128/128/128 127/127/127 130/130/130
f 86/86/86 89/89/89 152/152/152
f 86/86/86 85/85/85 89/89/89
f 153/153/153 82/82/82 84/84/84
f 154/154/154 153/153/153 84/84/84
f 157/157/157 71/71/71 73/73/73
f 158/158/158 157/157/157 73/73/73
f 66/66/66 65/65/65 70/70/70
f 70/70/70 65/65/65 68/68/68
f 103/103/103 105/105/105 165/165/165
f 165/165/165 105/105/105 166/166/166
f 106/106/106 109/109/109 107/107/107
f 167/167/167 111/111/111 113/113/113
f 169/169/169 114/114/114 168/168/168
f 170/170/170 117/117/117 119/119/119
f 171/171/171 120/120/120 122/122/122
f 171/171/171 172/172/172 120/120/120

usemtl sn16_40_sn16g45.jpg
usemap sn16_40_sn16g45.jpg
f 133/133/133 131/131/131 132/132/132
f 134/134/134 131/131/131 133/133/133
f 136/136/136 131/131/131 135/135/135
f 137/137/137 131/131/131 136/136/136
f 138/138/138 131/131/131 137/137/137
f 139/139/139 131/131/131 138/138/138
f 140/140/140 131/131/131 139/139/139
f 141/141/141 131/131/131 140/140/140
f 142/142/142 131/131/131 141/141/141
f 144/144/144 131/131/131 143/143/143
f 145/145/145 131/131/131 144/144/144
f 146/146/146 131/131/131 145/145/145
f 147/147/147 131/131/131 146/146/146
f 132/132/132 131/131/131 147/147/147
f 135/135/135 131/131/131 155/155/155
f 155/155/155 131/131/131 156/156/156
f 156/156/156 131/131/131 134/134/134
f 143/143/143 131/131/131 142/142/142
