mtllib ./gsctk.mtl
g gsctk
v -3139.389 12.23399 2820.698
v -3121.746 -65.99219 574.376
v -4102.518 12.23399 693.2876
v -2410.251 -65.99219 2218.131
v -1363.327 12.23399 4199.855
v -2410.251 -65.99219 2218.131
v -3139.389 12.23399 2820.698
v -1043.972 -65.99225 3279.081
v 788.0123 12.23399 4451.863
v 610.9975 -65.99225 3472.943
v 2699.94 12.23399 3518.548
v 2108.895 -65.99225 2748.894
v 3926.388 12.23399 1633.794
v 2108.895 -65.99225 2748.894
v 2699.94 12.23399 3518.548
v 3054.685 -65.99219 1297.883
v 4100.492 12.23399 -688.0289
v 3077.991 -65.99219 -484.1071
v 3175.6 12.23399 -2824.791
v 2477.123 -65.99225 -2131.991
v 1399.538 12.23399 -4203.947
v 2477.123 -65.99225 -2131.991
v 3175.6 12.23399 -2824.791
v 1110.844 -65.99225 -3192.941
v -751.8009 12.23399 -4455.955
v -544.1252 -65.99225 -3386.804
v -2701.967 12.23399 -3513.288
v -2044.338 -65.99225 -2661.635
v -3928.414 12.23399 -1628.535
v -2044.338 -65.99225 -2661.635
v -2701.967 12.23399 -3513.288
v -2987.812 -65.99225 -1211.742
v -3139.389 1317.296 2820.698
v -4102.518 1317.296 693.2876
v -1363.327 1317.296 4199.855
v -3139.389 1317.296 2820.698
v 788.0123 1317.296 4451.863
v 2699.94 1317.296 3518.548
v 3926.388 1317.296 1633.794
v 2699.94 1317.296 3518.548
v 4100.492 1317.296 -688.0289
v 3175.6 1317.296 -2824.791
v 1320.048 1317.296 -4537.008
v 3175.6 1317.296 -2824.791
v -751.8008 1317.296 -4455.955
v -2701.967 1317.296 -3513.288
v -3928.414 1317.296 -1628.535
v -2701.967 1317.296 -3513.288
v -2910.533 2141.098 2592.316
v -3757.658 2141.098 635.2164
v -1283.805 2141.098 3855.512
v -2910.533 2141.098 2592.316
v 686.647 2141.098 4086.331
v 2472.84 2141.098 3222.925
v 3596.167 2141.098 1496.644
v 2472.84 2141.098 3222.925
v 3755.631 2141.098 -629.9571
v 2908.506 2141.098 -2587.057
v 1281.778 2141.098 -3850.252
v 2908.506 2141.098 -2587.057
v -688.6735 2141.098 -4081.071
v -2474.867 2141.098 -3217.666
v -3598.193 2141.098 -1491.384
v -2474.867 2141.098 -3217.666
v -3757.658 2141.098 635.2164
v -1.013219 2839.179 2.629673
v -2910.533 2141.098 2592.316
v -1283.805 2141.098 3855.512
v 686.647 2141.098 4086.331
v 2472.84 2141.098 3222.925
v 3596.167 2141.098 1496.644
v 3755.631 2141.098 -629.9571
v 2908.506 2141.098 -2587.057
v 1281.778 2141.098 -3850.252
v -688.6735 2141.098 -4081.071
v -2474.867 2141.098 -3217.666
v -3598.193 2141.098 -1491.384

vn 0.6502893 0.7505617 0.1173927
vn 0.07638352 0.9967293 0.02638366
vn 0.7833631 0.5515271 0.2866358
vn 0.08416907 0.9963135 0.01658289
vn 0.6618868 0.5475274 -0.5119765
vn 0.08047713 0.9964287 -0.0255581
vn 0.9014278 0.3247665 -0.2862775
vn 0.06207388 0.9967861 -0.05064037
vn 0.2840601 0.5549765 -0.7818638
vn 0.02498366 0.9968739 -0.07495561
vn 0.09615089 0.7621276 -0.6402471
vn 0.01248586 0.9966281 -0.08109566
vn -0.5624579 0.5266345 -0.6374146
vn -0.03244559 0.9963617 -0.07880815
vn -0.3606837 0.3222609 -0.8752459
vn -0.05584734 0.9967418 -0.05819659
vn -0.777307 0.556403 -0.2936147
vn -0.07363749 0.9969462 -0.02599896
vn -0.6360233 0.7611645 -0.1268974
vn -0.08442781 0.9961897 -0.02186205
vn -0.5795957 0.65012 0.491338
vn -0.07617788 0.9968008 0.02419276
vn -0.8906968 0.3857301 0.240565
vn -0.05749194 0.9972436 0.04690239
vn -0.2765348 0.5872208 0.7607235
vn -0.02275857 0.9974101 0.06822864
vn -0.09320119 0.7904885 0.6053441
vn -0.01127386 0.9972517 0.07322388
vn 0.5467059 0.5632758 0.6195425
vn 0.02925749 0.9970474 0.07099704
vn 0.35642 0.3534332 0.8648987
vn 0.0524682 0.9970092 0.05674195
vn 0.9804147 -0.08780269 0.1762889
vn 0.8889509 -0.1537521 0.4314239
vn 0.8416278 -0.1597998 -0.5158746
vn 0.9321556 -0.2084433 -0.296036
vn 0.4392891 -0.1718823 -0.8817492
vn 0.1475183 -0.1057782 -0.9833867
vn -0.5765054 -0.1626454 -0.8007422
vn -0.3710203 -0.2274904 -0.9003289
vn -0.8856229 -0.1593215 -0.4362211
vn -0.9763775 -0.09840178 -0.1923648
vn -0.8403484 -0.1688092 0.5150903
vn -0.9317207 -0.280342 0.230879
vn -0.3921313 -0.1212899 0.9118781
vn -0.1513186 -0.1056949 0.9828181
vn 0.5765054 -0.1626451 0.8007421
vn 0.3710206 -0.2274901 0.9003289
vn 0.915986 -0.3623691 0.1722154
vn 0.7978925 -0.3895131 0.4600512
vn 0.8208911 -0.382612 -0.4239644
vn 0.8881471 -0.3628185 -0.2820596
vn 0.4677086 -0.4108997 -0.7825664
vn 0.1370647 -0.4088907 -0.9022315
vn -0.4837788 -0.3981018 -0.7794057
vn -0.3504304 -0.392529 -0.8503644
vn -0.7978922 -0.3895137 -0.4600511
vn -0.907106 -0.3810761 -0.1787172
vn -0.7573366 -0.549363 0.3530463
vn -0.8765954 -0.3925289 0.2783912
vn -0.3981242 -0.509986 0.7625034
vn -0.1391272 -0.4050808 0.9036334
vn 0.483779 -0.3981014 0.7794058
vn 0.3504307 -0.3925284 0.8503645
vn 0.1633673 -0.9836218 0.07615303
vn 3.63428E-10 -1 -2.85627E-09
vn 0.1766176 -0.9842365 -0.009197038
vn 0.1426197 -0.9854696 -0.09224575
vn 0.07022969 -0.9860879 -0.1506603
vn -0.02105454 -0.9854696 -0.1685419
vn -0.1065197 -0.9842365 -0.1411804
vn -0.1633673 -0.9836218 -0.07615303
vn -0.1766176 -0.9842365 0.009197023
vn -0.1426197 -0.9854696 0.0922458
vn -0.07022972 -0.9860879 0.1506603
vn 0.02105452 -0.9854696 0.1685418
vn 0.1065197 -0.9842365 0.1411804

vt 0.003375495 0.4798201
vt 0.3541425 0.01121568
vt 0.3541425 0.4798277
vt 0.003375735 0.01121568
vt 0.71782 0.4798277
vt 0.9961988 0.0112159
vt 0.9961988 0.4798273
vt 0.7178202 0.01121568
vt 0.35414 0.4798302
vt 0.3541428 0.01121566
vt 0.003374162 0.4798412
vt 0.003374295 0.01121566
vt 0.7178196 0.4798302
vt 0.9961989 0.01121566
vt 0.9961989 0.4798416
vt 0.7178196 0.01121566
vt 0.3541276 0.4798302
vt 0.3541276 0.01121566
vt 0.00337371 0.4798342
vt 0.003373712 0.0112157
vt 0.71782 0.4798302
vt 0.996199 0.01121573
vt 0.996199 0.479831
vt 0.71782 0.01121566
vt 0.3541398 0.4798302
vt 0.3541398 0.01121566
vt 0.003374862 0.4798302
vt 0.003374862 0.01121566
vt 0.7178202 0.4798302
vt 0.9961988 0.01121566
vt 0.9961988 0.4798302
vt 0.7178202 0.01121566
vt 0.003375495 0.6941614
vt 0.3541425 0.6941878
vt 0.71782 0.6941878
vt 0.9961988 0.6941878
vt 0.35414 0.6941953
vt 0.003374162 0.6941825
vt 0.7178196 0.6941953
vt 0.9961989 0.6941844
vt 0.3541276 0.6941953
vt 0.00337371 0.6942013
vt 0.71782 0.6941953
vt 0.996199 0.6941972
vt 0.3541398 0.6941953
vt 0.003374862 0.6941953
vt 0.7178202 0.6941953
vt 0.9961988 0.6941953
vt 0.003375735 0.9935623
vt 0.3541425 0.9935652
vt 0.7178202 0.9935652
vt 0.9961988 0.993552
vt 0.3541428 0.9935652
vt 0.003374162 0.9935652
vt 0.7178196 0.9935652
vt 0.9961989 0.9935652
vt 0.3541276 0.9935652
vt 0.003373712 0.9935658
vt 0.71782 0.9935652
vt 0.996199 0.9935631
vt 0.3541398 0.9935652
vt 0.003374862 0.9935652
vt 0.7178202 0.9935652
vt 0.9961988 0.9935652
vt 0.6449784 0.9963349
vt 0.507228 0.4857716
vt 0.9945126 0.9985893
vt 0.9949812 0.7060115
vt 0.9960681 0.3702813
vt 0.9970919 0.003394143
vt 0.721467 0.003001456
vt 0.356999 0.005637705
vt 0.005186821 0.006133951
vt 0.003186303 0.2764538
vt 0.003792266 0.6243825
vt 0.003116564 0.9912735
vt 0.2854989 0.996772

usemtl sn16_27_sn16g29.jpg
usemap sn16_27_sn16g29.jpg
f 3/3/3 1/1/1 2/2/2
f 1/1/1 4/4/4 2/2/2
f 31/31/31 29/29/29 30/30/30
f 29/29/29 32/32/32 30/30/30
f 29/29/29 3/3/3 32/32/32
f 3/3/3 2/2/2 32/32/32
f 34/34/34 33/33/33 3/3/3
f 33/33/33 1/1/1 3/3/3
f 48/48/48 47/47/47 31/31/31
f 47/47/47 29/29/29 31/31/31
f 47/47/47 34/34/34 29/29/29
f 34/34/34 3/3/3 29/29/29
f 50/50/50 49/49/49 34/34/34
f 49/49/49 33/33/33 34/34/34
f 64/64/64 63/63/63 48/48/48
f 63/63/63 47/47/47 48/48/48
f 63/63/63 50/50/50 47/47/47
f 50/50/50 34/34/34 47/47/47

usemtl sn16_26_sn16g28.jpg
usemap sn16_26_sn16g28.jpg
f 7/7/7 5/5/5 6/6/6
f 5/5/5 8/8/8 6/6/6
f 5/5/5 9/9/9 8/8/8
f 9/9/9 10/10/10 8/8/8
f 9/9/9 11/11/11 10/10/10
f 11/11/11 12/12/12 10/10/10
f 36/36/36 35/35/35 7/7/7
f 35/35/35 5/5/5 7/7/7
f 35/35/35 37/37/37 5/5/5
f 37/37/37 9/9/9 5/5/5
f 37/37/37 38/38/38 9/9/9
f 38/38/38 11/11/11 9/9/9
f 52/52/52 51/51/51 36/36/36
f 51/51/51 35/35/35 36/36/36
f 51/51/51 53/53/53 35/35/35
f 53/53/53 37/37/37 35/35/35
f 53/53/53 54/54/54 37/37/37
f 54/54/54 38/38/38 37/37/37

usemtl sn16_25_sn16g27.jpg
usemap sn16_25_sn16g27.jpg
f 15/15/15 13/13/13 14/14/14
f 13/13/13 16/16/16 14/14/14
f 13/13/13 17/17/17 16/16/16
f 17/17/17 18/18/18 16/16/16
f 17/17/17 19/19/19 18/18/18
f 19/19/19 20/20/20 18/18/18
f 40/40/40 39/39/39 15/15/15
f 39/39/39 13/13/13 15/15/15
f 39/39/39 41/41/41 13/13/13
f 41/41/41 17/17/17 13/13/13
f 41/41/41 42/42/42 17/17/17
f 42/42/42 19/19/19 17/17/17
f 56/56/56 55/55/55 40/40/40
f 55/55/55 39/39/39 40/40/40
f 55/55/55 57/57/57 39/39/39
f 57/57/57 41/41/41 39/39/39
f 57/57/57 58/58/58 41/41/41
f 58/58/58 42/42/42 41/41/41

usemtl sn16_28_sn16g30.jpg
usemap sn16_28_sn16g30.jpg
f 23/23/23 21/21/21 22/22/22
f 21/21/21 24/24/24 22/22/22
f 21/21/21 25/25/25 24/24/24
f 25/25/25 26/26/26 24/24/24
f 25/25/25 27/27/27 26/26/26
f 27/27/27 28/28/28 26/26/26
f 44/44/44 43/43/43 23/23/23
f 43/43/43 21/21/21 23/23/23
f 43/43/43 45/45/45 21/21/21
f 45/45/45 25/25/25 21/21/21
f 45/45/45 46/46/46 25/25/25
f 46/46/46 27/27/27 25/25/25
f 60/60/60 59/59/59 44/44/44
f 59/59/59 43/43/43 44/44/44
f 59/59/59 61/61/61 43/43/43
f 61/61/61 45/45/45 43/43/43
f 61/61/61 62/62/62 45/45/45
f 62/62/62 46/46/46 45/45/45

usemtl sn16_29_sn16g31.jpg
usemap sn16_29_sn16g31.jpg
f 67/67/67 65/65/65 66/66/66
f 68/68/68 67/67/67 66/66/66
f 69/69/69 68/68/68 66/66/66
f 70/70/70 69/69/69 66/66/66
f 71/71/71 70/70/70 66/66/66
f 72/72/72 71/71/71 66/66/66
f 73/73/73 72/72/72 66/66/66
f 74/74/74 73/73/73 66/66/66
f 75/75/75 74/74/74 66/66/66
f 76/76/76 75/75/75 66/66/66
f 77/77/77 76/76/76 66/66/66
f 65/65/65 77/77/77 66/66/66
