mtllib ./jjj07.mtl
g jjj07
v 49.56516 -0.0004882813 6.678168
v 49.56516 1.999512 6.678168
v 49.26834 -0.0004882813 8.656323
v 49.86197 -0.0004882813 4.699984
v 49.56516 1.999512 6.678168
v 49.56516 -0.0004882813 6.678168
v 49.56516 -2.000488 6.678168
v 49.86197 -0.0004882813 4.699984
v 0.1109869 1.999512 -0.7422258
v -0.185822 -0.0004882813 1.235958
v 0.4078053 -0.0004882813 -2.720381
v 0.1109869 1.999512 -0.7422258
v 49.86197 -0.0004882813 4.699984
v 0.1109869 -2.000488 -0.7422258
v -49.19545 1.999512 -8.210494
v -49.49227 -0.0004882813 -6.232339
v -48.89864 -0.0004882813 -10.18868
v -49.19545 1.999512 -8.210494
v -49.19545 -2.000488 -8.210494
v -49.19545 -0.0004882813 -8.210494

vn 0.4463887 0 -0.894839
vn 0.645066 0.7068771 0.2901977
vn 0.8599222 0.3161731 0.4007097
vn 0.4463861 0 -0.8948405
vn -0.6263219 0.7070915 -0.3282415
vn 0.4463887 0 -0.894839
vn 0.2941296 -0.9483951 0.1184679
vn 0.4463861 0 -0.8948405
vn 0.6325504 0.7071629 0.3159124
vn 0.8945288 -0.0004640075 0.4470101
vn -0.8945287 0.0004641348 -0.4470102
vn -0.6324055 0.7071611 -0.3162062
vn -0.8489059 -0.3162704 -0.4234759
vn -0.0005182353 -0.9999999 -8.643838E-09
vn 0.6258566 0.7070808 0.3291508
vn 0.8366944 -0.3161617 0.4471962
vn -0.8593932 0.3161789 -0.4018386
vn -0.644675 0.7068996 -0.2910106
vn -0.2939689 -0.9484034 -0.1187997
vn -0.4463879 0 0.8948396

vt 0.5 0.0004995167
vt 0.9999999 0.0004995167
vt 0.7499999 0.0004995167
vt 0.25 0.0004995167
vt -5.960464E-08 0.0004995167
vt 0.5 0.0004995167
vt 0.5 0.0004995167
vt 0.25 0.0004995167
vt 0.9999999 0.5
vt 0.7499999 0.5
vt 0.25 0.5
vt -5.960464E-08 0.5
vt 0.25 0.0004995167
vt 0.5 0.5
vt 0.9999999 0.9995005
vt 0.7499999 0.9995005
vt 0.25 0.9995005
vt -5.960464E-08 0.9995005
vt 0.5 0.9995005
vt 0.5 0.9995005

usemtl sn16_36_sn16g35.jpg
usemap sn16_36_sn16g35.jpg
f 3/3/3 1/1/1 2/2/2
f 5/5/5 1/1/1 4/4/4
f 8/8/8 6/6/6 7/7/7
f 7/7/7 6/6/6 3/3/3
f 10/10/10 3/3/3 9/9/9
f 9/9/9 3/3/3 2/2/2
f 12/12/12 5/5/5 11/11/11
f 11/11/11 5/5/5 13/13/13
f 11/11/11 13/13/13 14/14/14
f 14/14/14 13/13/13 7/7/7
f 14/14/14 7/7/7 10/10/10
f 10/10/10 7/7/7 3/3/3
f 16/16/16 10/10/10 15/15/15
f 15/15/15 10/10/10 9/9/9
f 18/18/18 12/12/12 17/17/17
f 17/17/17 12/12/12 11/11/11
f 17/17/17 11/11/11 19/19/19
f 19/19/19 11/11/11 14/14/14
f 19/19/19 14/14/14 16/16/16
f 16/16/16 14/14/14 10/10/10
f 15/15/15 20/20/20 16/16/16
f 17/17/17 20/20/20 18/18/18
f 19/19/19 20/20/20 17/17/17
f 16/16/16 20/20/20 19/19/19
