mtllib ./Plane26.mtl
g Plane26
v -48.70658 0.7182007 -11.92338
v 0.0002509648 0.7182007 1.850635E-05
v 0.0002509648 14.14362 1.850635E-05
v -48.70658 14.14362 -11.92338
v 48.70708 0.7182007 11.92342
v 49.20304 14.14362 11.88407
v 0.0002509648 49.99994 1.850635E-05
v -48.70658 49.99994 -11.92338
v 48.70708 49.99994 11.92342
v 0.0002509648 -32.7699 1.850635E-05
v -48.70658 -32.7699 -11.92338
v -48.70658 -50.00006 -11.92338
v 0.0002509648 -50.00006 1.850635E-05
v 48.70708 -32.7699 11.92342
v 48.70708 -50.00006 11.92342
v -48.70658 -15.0932 -11.92338
v 0.0002509648 -15.0932 1.850635E-05
v 48.70708 -15.0932 11.92342

vn 0.9165577 0 0.3999027
vn 0.9167464 0.001777708 0.3994657
vn 0.9169705 -0.001052856 0.3989539
vn 0.9165576 0 0.3999026
vn 0.9165522 0.003466236 0.3999003
vn 0.9175264 0 0.3976749
vn 0.9165577 0 0.3999027
vn 0.9165576 0 0.3999026
vn 0.9171742 -0.002167206 0.3984809
vn 0.9165576 0 0.3999026
vn 0.9165576 0 0.3999026
vn 0.9165577 0 0.3999027
vn 0.9165577 0 0.3999026
vn 0.9165577 0 0.3999027
vn 0.9165577 0 0.3999027
vn 0.9165577 0 0.3999026
vn 0.9165576 0 0.3999026
vn 0.9165577 0 0.3999027

vt 0 0.510576
vt 0.5 0.510576
vt 0.5 0.6607573
vt 0 0.6607573
vt 1 0.510576
vt 1 0.6607573
vt 0.5 1
vt 0 1
vt 1 1
vt 0.5 0.2145446
vt 0 0.2145447
vt 0 0
vt 0.5 0
vt 1 0.2145446
vt 1 0
vt 0 0.3756804
vt 0.5 0.3756803
vt 1 0.3756803

usemtl sn16_37_Asc03.bmp
usemap sn16_37_Asc03.bmp
f 3/3/3 1/1/1 2/2/2
f 1/1/1 3/3/3 4/4/4
f 6/6/6 2/2/2 5/5/5
f 2/2/2 6/6/6 3/3/3
f 7/7/7 4/4/4 3/3/3
f 4/4/4 7/7/7 8/8/8
f 9/9/9 3/3/3 6/6/6
f 3/3/3 9/9/9 7/7/7
f 12/12/12 10/10/10 11/11/11
f 10/10/10 12/12/12 13/13/13
f 13/13/13 14/14/14 10/10/10
f 14/14/14 13/13/13 15/15/15
f 2/2/2 16/16/16 17/17/17
f 16/16/16 2/2/2 1/1/1
f 5/5/5 17/17/17 18/18/18
f 17/17/17 5/5/5 2/2/2
f 11/11/11 17/17/17 16/16/16
f 17/17/17 11/11/11 10/10/10
f 10/10/10 18/18/18 17/17/17
f 18/18/18 10/10/10 14/14/14
