mtllib ./Plane25.mtl
g Plane25
v -50.12873 0.7182007 0.9338579
v -6.064239E-05 0.7182007 -9.178901E-05
v -6.064239E-05 14.14362 -9.178901E-05
v -50.12873 14.14362 0.9338579
v 50.12861 0.7182007 -0.9340415
v 50.12861 14.14362 -0.9340415
v -6.064239E-05 49.99994 -9.178901E-05
v -50.12875 49.99994 0.9339141
v 50.12861 49.99994 -0.9340415
v -6.064239E-05 -32.7699 -9.178901E-05
v -50.12873 -32.7699 0.9338579
v -50.12873 -50.00006 0.9338579
v -6.064239E-05 -50.00006 -9.178901E-05
v 50.12864 -32.7699 -0.9340977
v 50.12864 -50.00006 -0.9340977
v -50.12873 -15.0932 0.9338579
v -6.064239E-05 -15.0932 -9.178901E-05
v 50.12864 -15.0932 -0.9340977

vn -0.9141852 0 0.4052968
vn -0.9141852 0 0.4052967
vn -0.9141851 0 0.4052968
vn -0.914185 -6.550564E-07 0.4052972
vn -0.914185 -1.236323E-06 0.4052971
vn -0.9141852 0 0.4052967
vn -0.914185 -5.184602E-07 0.4052971
vn -0.9141848 -1.55538E-06 0.4052978
vn -0.9141852 0 0.4052967
vn -0.914185 0 0.4052973
vn -0.9141852 0 0.4052967
vn -0.9141853 0 0.4052968
vn -0.9141849 0 0.4052975
vn -0.9141847 0 0.4052978
vn -0.9141847 0 0.4052978
vn -0.9141852 0 0.4052968
vn -0.914185 -5.543675E-07 0.4052971
vn -0.9141847 -1.088524E-06 0.4052978

vt 0 0.510576
vt 0.5 0.510576
vt 0.5 0.6607573
vt 0 0.6607573
vt 1 0.510576
vt 1 0.6607573
vt 0.5 1
vt 0 1
vt 1 1
vt 0.5 0.2145446
vt 0 0.2145447
vt 0 0
vt 0.5 0
vt 1 0.2145446
vt 1 0
vt 0 0.3756804
vt 0.5 0.3756803
vt 1 0.3756803

usemtl sn16_37_Asc03.bmp
usemap sn16_37_Asc03.bmp
f 3/3/3 1/1/1 2/2/2
f 1/1/1 3/3/3 4/4/4
f 6/6/6 2/2/2 5/5/5
f 2/2/2 6/6/6 3/3/3
f 7/7/7 4/4/4 3/3/3
f 4/4/4 7/7/7 8/8/8
f 9/9/9 3/3/3 6/6/6
f 3/3/3 9/9/9 7/7/7
f 12/12/12 10/10/10 11/11/11
f 10/10/10 12/12/12 13/13/13
f 13/13/13 14/14/14 10/10/10
f 14/14/14 13/13/13 15/15/15
f 2/2/2 16/16/16 17/17/17
f 16/16/16 2/2/2 1/1/1
f 5/5/5 17/17/17 18/18/18
f 17/17/17 5/5/5 2/2/2
f 11/11/11 17/17/17 16/16/16
f 17/17/17 11/11/11 10/10/10
f 10/10/10 18/18/18 17/17/17
f 18/18/18 10/10/10 14/14/14
