mtllib ./Plane29.mtl
g Plane29
v -48.70652 0.717804 -11.92392
v 0.000312843 0.717804 -0.000518697
v 0.000312843 14.14322 -0.000518697
v -48.70652 14.14319 -11.92392
v 48.70715 0.717804 11.92288
v 49.20311 14.14322 11.88353
v 0.000312843 49.99954 -0.000518697
v -48.70652 49.99954 -11.92392
v 48.70715 49.99954 11.92288
v 0.000312843 -32.77026 -0.000518697
v -48.70652 -32.77026 -11.92392
v -48.70652 -50.00046 -11.92392
v 0.000312843 -50.00046 -0.000518697
v 48.70715 -32.77026 11.92288
v 48.70715 -50.00046 11.92288
v -48.70652 -15.0936 -11.92392
v 0.000312843 -15.0936 -0.000518697
v 48.70715 -15.0936 11.92288

vn 0.9165577 0 0.3999027
vn 0.9167464 0.001777708 0.3994657
vn 0.9169704 -0.001052856 0.3989538
vn 0.9165576 0 0.3999026
vn 0.9165522 0.003466236 0.3999003
vn 0.9175264 0 0.3976749
vn 0.9165576 0 0.3999026
vn 0.9165576 0 0.3999026
vn 0.9171742 -0.002167206 0.3984809
vn 0.9165576 0 0.3999026
vn 0.9165576 0 0.3999026
vn 0.9165576 0 0.3999026
vn 0.9165576 0 0.3999026
vn 0.9165576 0 0.3999026
vn 0.9165576 0 0.3999026
vn 0.9165576 0 0.3999026
vn 0.9165576 0 0.3999026
vn 0.9165576 0 0.3999026

vt 0 0.510576
vt 0.5 0.510576
vt 0.5 0.6607573
vt 0 0.6607573
vt 1 0.510576
vt 1 0.6607573
vt 0.5 1
vt 0 1
vt 1 1
vt 0.5 0.2145446
vt 0 0.2145447
vt 0 0
vt 0.5 0
vt 1 0.2145446
vt 1 0
vt 0 0.3756804
vt 0.5 0.3756803
vt 1 0.3756803

usemtl sn16_37_Asc03.bmp
usemap sn16_37_Asc03.bmp
f 3/3/3 1/1/1 2/2/2
f 1/1/1 3/3/3 4/4/4
f 6/6/6 2/2/2 5/5/5
f 2/2/2 6/6/6 3/3/3
f 7/7/7 4/4/4 3/3/3
f 4/4/4 7/7/7 8/8/8
f 9/9/9 3/3/3 6/6/6
f 3/3/3 9/9/9 7/7/7
f 12/12/12 10/10/10 11/11/11
f 10/10/10 12/12/12 13/13/13
f 13/13/13 14/14/14 10/10/10
f 14/14/14 13/13/13 15/15/15
f 2/2/2 16/16/16 17/17/17
f 16/16/16 2/2/2 1/1/1
f 5/5/5 17/17/17 18/18/18
f 17/17/17 5/5/5 2/2/2
f 11/11/11 17/17/17 16/16/16
f 17/17/17 11/11/11 10/10/10
f 10/10/10 18/18/18 17/17/17
f 18/18/18 10/10/10 14/14/14
