mtllib ./Plane28.mtl
g Plane28
v -50.12909 0.717804 0.9343047
v -0.000414566 0.717804 0.0003550327
v -0.000414566 14.14322 0.0003550327
v -50.12909 14.14319 0.9343047
v 50.12826 0.717804 -0.9335946
v 50.12826 14.14322 -0.9335946
v -0.000414566 49.99954 0.0003550327
v -50.12911 49.99954 0.934361
v 50.12826 49.99954 -0.9335946
v -0.000414566 -32.77026 0.0003550327
v -50.12909 -32.77026 0.9343047
v -50.12909 -50.00046 0.9343047
v -0.000414566 -50.00046 0.0003550327
v 50.12828 -32.77026 -0.9336509
v 50.12828 -50.00046 -0.9336509
v -50.12909 -15.0936 0.9343047
v -0.000414566 -15.0936 0.0003550327
v 50.12828 -15.0936 -0.9336509

vn -0.9141852 0 0.4052968
vn -0.9141852 0 0.4052967
vn -0.9141852 0 0.4052967
vn -0.914185 -6.5595E-07 0.4052972
vn -0.9141851 -1.238012E-06 0.4052972
vn -0.9141852 0 0.4052967
vn -0.914185 -5.191673E-07 0.4052972
vn -0.9141847 -1.557501E-06 0.4052978
vn -0.9141853 0 0.4052968
vn -0.914185 0 0.4052973
vn -0.9141852 0 0.4052967
vn -0.9141851 0 0.4052968
vn -0.9141849 0 0.4052975
vn -0.9141847 0 0.4052978
vn -0.9141847 0 0.4052978
vn -0.9141852 0 0.4052967
vn -0.914185 -5.551254E-07 0.4052971
vn -0.9141848 -1.090013E-06 0.4052978

vt 0 0.510576
vt 0.5 0.510576
vt 0.5 0.6607573
vt 0 0.6607573
vt 1 0.510576
vt 1 0.6607573
vt 0.5 1
vt 0 1
vt 1 1
vt 0.5 0.2145446
vt 0 0.2145447
vt 0 0
vt 0.5 0
vt 1 0.2145446
vt 1 0
vt 0 0.3756804
vt 0.5 0.3756803
vt 1 0.3756803

usemtl sn16_37_Asc03.bmp
usemap sn16_37_Asc03.bmp
f 3/3/3 1/1/1 2/2/2
f 1/1/1 3/3/3 4/4/4
f 6/6/6 2/2/2 5/5/5
f 2/2/2 6/6/6 3/3/3
f 7/7/7 4/4/4 3/3/3
f 4/4/4 7/7/7 8/8/8
f 9/9/9 3/3/3 6/6/6
f 3/3/3 9/9/9 7/7/7
f 12/12/12 10/10/10 11/11/11
f 10/10/10 12/12/12 13/13/13
f 13/13/13 14/14/14 10/10/10
f 14/14/14 13/13/13 15/15/15
f 2/2/2 16/16/16 17/17/17
f 16/16/16 2/2/2 1/1/1
f 5/5/5 17/17/17 18/18/18
f 17/17/17 5/5/5 2/2/2
f 11/11/11 17/17/17 16/16/16
f 17/17/17 11/11/11 10/10/10
f 10/10/10 18/18/18 17/17/17
f 18/18/18 10/10/10 14/14/14
