mtllib ./shuai01.mtl
g shuai01
v 180.1113 14.45238 -205.1945
v 247.266 1.293442 -115.8711
v 326.1445 -1.15361 -163.287
v 289.9751 -1.15361 -319.3782
v 110.4174 12.08392 -269.6307
v 180.1113 14.45238 -205.1945
v 289.9751 -1.15361 -319.3782
v 173.6333 -1.153625 -428.7797
v -7.50626 -1.931854 -447.2464
v -4.108305 -1.153625 -413.1559
v 173.6333 -1.153625 -428.7797
v 192.6293 -1.931854 -473.0165
v -3.812923 1.293442 -282.8602
v -4.108305 -1.153625 -413.1559
v -154.455 -1.153625 -379.2066
v -112.3338 1.293442 -268.6848
v -203.297 11.27956 -212.7676
v -334.8754 -1.15361 -345.6302
v -452.9741 -1.931854 -190.884
v -404.8845 -1.15361 -175.2997
v -334.8754 -1.15361 -345.6302
v -380.3759 -1.931854 -383.743
v -326.1264 -1.931839 349.3345
v -292.9723 -1.153595 313.8539
v -387.1428 -1.15361 182.2091
v -461.8686 -1.931839 211.1967
v -148.0424 -1.931839 390.7686
v -134.0785 -1.153595 358.0996
v 20.42391 -1.931839 404.4213
v 19.97043 -1.153595 372.6722
v -134.0785 -1.153595 358.0996
v -148.0424 -1.931839 390.7686
v 149.5583 -1.931839 346.9074
v 142.4744 -1.153595 322.3665
v 19.97043 -1.153595 372.6722
v 20.42391 -1.931839 404.4213
v 189.3727 21.69208 184.8797
v 108.2475 30.83032 248.8162
v 142.4744 -1.153595 322.3665
v 256.9738 -1.15361 240.324
v 274.5834 1.293442 -5.11361
v 250.0462 16.74754 96.35326
v 343.2681 -1.15361 121.6216
v 359.9829 -1.15361 -7.157165
v 250.0462 16.74754 96.35326
v 189.3727 21.69208 184.8797
v 256.9738 -1.15361 240.324
v 343.2681 -1.15361 121.6216
v -459.4846 -1.931839 13.68844
v -391.4705 -1.15361 4.014988
v -404.8845 -1.15361 -175.2997
v -452.9741 -1.931854 -190.884
v 247.266 1.293442 -115.8711
v 274.5834 1.293442 -5.11361
v 359.9829 -1.15361 -7.157165
v 326.1445 -1.15361 -163.287
v -256.2408 11.83446 122.5764
v -300.8239 1.293457 6.629961
v -391.4705 -1.15361 4.014988
v -387.1428 -1.15361 182.2091
v 247.266 1.293442 -115.8711
v 180.1113 14.45238 -205.1945
v 158.7141 15.45259 -165.3071
v 218.035 2.293655 -94.62718
v 180.1113 14.45238 -205.1945
v 110.4174 12.08392 -269.6307
v 84.741 2.293655 -219.4641
v 158.7141 15.45259 -165.3071
v 84.741 2.293655 -219.4641
v 110.4174 12.08392 -269.6307
v -3.812923 1.293442 -282.8602
v -7.052568 2.293655 -236.3423
v -3.812923 1.293442 -282.8602
v -112.3338 1.293442 -268.6848
v -99.70175 2.293655 -216.2534
v -7.052568 2.293655 -236.3423
v -112.3338 1.293442 -268.6848
v -203.297 11.27956 -212.7676
v -170.9888 12.27977 -162.7393
v -99.70175 2.293655 -216.2534
v -265.1646 19.004 -113.275
v -219.4466 20.00421 -81.07704
v -256.2408 11.83446 122.5764
v -183.2377 24.39044 202.181
v -162.0571 25.39066 170.9673
v -217.3954 12.83467 98.4659
v -94.84887 1.293457 258.8265
v -89.69672 2.293671 228.1536
v 17.3949 1.293457 288.2255
v 6.701334 2.293671 243.7395
v 17.3949 1.293457 288.2255
v 108.2475 30.83032 248.8162
v 87.72688 31.83054 211.9859
v 6.701334 2.293671 243.7395
v 108.2475 30.83032 248.8162
v 189.3727 21.69208 184.8797
v 162.5068 22.69229 162.3444
v 87.72688 31.83054 211.9859
v 250.0462 16.74754 96.35326
v 274.5834 1.293442 -5.11361
v 237.9906 2.293655 -1.358913
v 214.8758 17.74776 87.84973
v 189.3727 21.69208 184.8797
v 250.0462 16.74754 96.35326
v 214.8758 17.74776 87.84973
v 162.5068 22.69229 162.3444
v -219.4466 20.00421 -81.07704
v -265.1646 19.004 -113.275
v -300.8239 1.293457 6.629961
v -238.6268 2.293671 7.387356
v 274.5834 1.293442 -5.11361
v 247.266 1.293442 -115.8711
v 218.035 2.293655 -94.62718
v 237.9906 2.293655 -1.358913
v -256.2408 11.83446 122.5764
v -217.3954 12.83467 98.4659
v 351.2299 -1.931854 -178.3665
v 321.5353 -1.931854 -354.2868
v 289.9751 -1.15361 -319.3782
v 326.1445 -1.15361 -163.287
v 321.5353 -1.931854 -354.2868
v 192.6293 -1.931854 -473.0165
v 173.6333 -1.153625 -428.7797
v 289.9751 -1.15361 -319.3782
v -4.108305 -1.153625 -413.1559
v -3.812923 1.293442 -282.8602
v -7.50626 -1.931854 -447.2464
v -171.5057 -1.931854 -410.2143
v -154.455 -1.153625 -379.2066
v -4.108305 -1.153625 -413.1559
v -171.5057 -1.931854 -410.2143
v -380.3759 -1.931854 -383.743
v -334.8754 -1.15361 -345.6302
v -154.455 -1.153625 -379.2066
v -404.8845 -1.15361 -175.2997
v -265.1646 19.004 -113.275
v -183.2377 24.39044 202.181
v -256.2408 11.83446 122.5764
v -387.1428 -1.15361 182.2091
v -292.9723 -1.153595 313.8539
v -134.0785 -1.153595 358.0996
v -94.84887 1.293457 258.8265
v 19.97043 -1.153595 372.6722
v 17.3949 1.293457 288.2255
v -94.84887 1.293457 258.8265
v -134.0785 -1.153595 358.0996
v 17.3949 1.293457 288.2255
v 19.97043 -1.153595 372.6722
v 149.5583 -1.931839 346.9074
v 276.0052 -1.931839 254.9587
v 256.9738 -1.15361 240.324
v 142.4744 -1.153595 322.3665
v 370.6304 -1.931839 128.0381
v 387.1424 -1.931854 -7.807075
v 359.9829 -1.15361 -7.157165
v 343.2681 -1.15361 121.6216
v 276.0052 -1.931839 254.9587
v 370.6304 -1.931839 128.0381
v 343.2681 -1.15361 121.6216
v 256.9738 -1.15361 240.324
v -265.1646 19.004 -113.275
v -404.8845 -1.15361 -175.2997
v 387.1424 -1.931854 -7.807075
v 351.2299 -1.931854 -178.3665
v 326.1445 -1.15361 -163.287
v 359.9829 -1.15361 -7.157165
v -461.8686 -1.931839 211.1967
v -387.1428 -1.15361 182.2091

vn 0.1034866 0.994583 0.009758976
vn 0.08178519 0.9930355 0.08480454
vn 0.1034866 0.994583 0.009758976
vn 0.1136963 0.9931662 -0.02634564
vn 0.007279051 0.9977529 -0.06660444
vn 0.04863627 0.9948281 -0.08917138
vn 0.05373711 0.9960222 -0.07107823
vn 0.02347132 0.9970112 -0.07360537
vn -0.002224836 0.9997912 -0.0203101
vn -0.001988713 0.999742 -0.02262415
vn -0.002224836 0.9997912 -0.0203101
vn -0.002397405 0.9998239 -0.01861874
vn -0.003657617 0.9997998 -0.0196747
vn -0.004237892 0.9998149 -0.0187678
vn 0.005906681 0.9988218 -0.04816852
vn 0.03723644 0.9986469 -0.03630238
vn -0.03419375 0.9971526 -0.06721243
vn -0.0420876 0.9977759 -0.0516902
vn -0.01357167 0.9998936 -0.00532895
vn -0.01427929 0.9998808 -0.005869058
vn -0.01357167 0.9998936 -0.00532895
vn -0.01300257 0.9999034 -0.004894582
vn -0.008166465 0.9999093 0.010706
vn -0.007974133 0.9998431 0.01581974
vn -0.009558703 0.9999211 0.008146009
vn -0.007539775 0.9999442 0.00740902
vn -0.004937894 0.9997993 0.01942069
vn -0.005926489 0.999756 0.02128305
vn -0.002075884 0.9997165 0.02372005
vn -0.002321237 0.9996962 0.02453806
vn -0.002075884 0.9997165 0.02372005
vn -0.001865422 0.9997333 0.02301835
vn 0.01120035 0.9995955 0.02614034
vn 0.01163695 0.9995307 0.02833821
vn 0.01120035 0.9995955 0.02614034
vn 0.01084444 0.9996448 0.02434875
vn 0.217151 0.9482553 0.2316406
vn 0.1035835 0.9288386 0.3557096
vn 0.09553994 0.9687261 0.229002
vn 0.1521099 0.9652964 0.212286
vn 0.1188795 0.9918758 -0.04527573
vn 0.2128911 0.9722887 -0.09660394
vn 0.1188795 0.9918758 -0.04527573
vn 0.02873139 0.9995802 0.003729178
vn 0.1908355 0.9752033 0.1120729
vn 0.2371594 0.9653789 0.1086224
vn 0.1908355 0.9752033 0.1120729
vn 0.1573521 0.980895 0.1143918
vn -0.01203457 0.9999276 0.000140153
vn -0.01136124 0.9999353 0.0005638116
vn -0.01341696 0.99991 0.0002412405
vn -0.01601592 0.9998716 -0.0005097772
vn 0.02785758 0.9995915 -0.006383412
vn 0.0284738 0.9995698 -0.007022812
vn 0.02785758 0.9995915 -0.006383412
vn 0.02743635 0.9996059 -0.005946349
vn -0.07541873 0.9968824 -0.02318398
vn -0.02787845 0.9991172 0.03142654
vn -0.09391518 0.9954764 0.0143695
vn -0.09766463 0.9952166 0.002371924
vn 0.1206642 0.9903942 0.06752354
vn 0.1324953 0.9901041 0.04624809
vn 0.1206642 0.9903942 0.06752354
vn 0.1042256 0.989831 0.09680773
vn -0.1306041 0.9910259 0.02846257
vn -0.1430101 0.9825941 0.1185626
vn -0.1306041 0.9910259 0.02846257
vn -0.1133816 0.9898534 -0.08564407
vn -0.06262531 0.9954532 0.07177179
vn -0.1088171 0.9846503 0.1364646
vn -0.06262531 0.9954532 0.07177179
vn 0.00390266 0.9997671 -0.02122492
vn -0.00338794 0.9997964 -0.01989098
vn -0.002415406 0.9998261 -0.01849135
vn -0.00338794 0.9997964 -0.01989098
vn -0.004732486 0.9997506 -0.02182594
vn 0.08439328 0.9948329 -0.05643912
vn 0.04981721 0.996799 -0.06252962
vn 0.07660311 0.9954222 -0.05715258
vn 0.1057975 0.9933941 -0.0444398
vn 0.02275922 0.9977344 -0.06331003
vn 0.03902003 0.9973569 -0.06129091
vn -0.1034772 0.9916922 -0.07641341
vn 0.02428988 0.9985288 0.04847924
vn 0.03211398 0.9994358 0.009843077
vn -0.08956062 0.9906205 -0.1031992
vn 0.08897895 0.9936774 0.06846882
vn 0.1136143 0.9921924 0.05143828
vn -0.006282719 0.9996926 0.02398713
vn -0.005829081 0.9996175 0.02703558
vn -0.2742501 0.953005 0.1287185
vn -0.2414977 0.9570289 0.1605447
vn -0.2742501 0.953005 0.1287185
vn -0.3077664 0.9466806 0.09526607
vn 0.08922518 0.9952984 -0.03768248
vn 0.07581115 0.9960526 -0.0461705
vn 0.08922518 0.9952984 -0.03768248
vn 0.1017904 0.9943622 -0.02970994
vn 0.03751294 0.9878591 -0.1507555
vn 0.01187099 0.9889529 -0.1477536
vn 0.03751294 0.9878591 -0.1507555
vn 0.06524708 0.985931 -0.1538921
vn 0.04640455 0.9985191 -0.02839346
vn 0.0359403 0.9988681 -0.03115805
vn 0.04640455 0.9985191 -0.02839346
vn 0.05832483 0.9979785 -0.02523838
vn -0.06432664 0.9864748 0.1507629
vn -0.1028485 0.9879868 0.1153437
vn -0.04642952 0.9968538 0.06424173
vn -0.03313466 0.9994385 0.004960054
vn 0.02792118 0.9995891 -0.006469356
vn 0.02900342 0.9995537 -0.007153438
vn 0.02792118 0.9995891 -0.006469356
vn 0.0267364 0.9996262 -0.005720483
vn -0.04017633 0.9952587 -0.08857802
vn -0.08455575 0.9918717 -0.0950837
vn 0.0233773 0.999716 -0.004637562
vn 0.02077481 0.999778 -0.003506709
vn 0.0233773 0.999716 -0.004637562
vn 0.02722003 0.9996096 -0.006307411
vn 0.01147337 0.999858 -0.01233428
vn 0.01160943 0.9998533 -0.01260448
vn 0.01147337 0.999858 -0.01233428
vn 0.01132927 0.9998632 -0.01204813
vn -0.03736975 0.9973657 -0.06216946
vn -0.09190514 0.9955961 -0.01848982
vn -0.005039989 0.9997381 -0.02231994
vn -0.005039991 0.9997382 -0.02231994
vn -0.005039989 0.9997381 -0.02231994
vn -0.005039987 0.9997382 -0.02231993
vn -0.003047316 0.9998001 -0.01975608
vn -0.00224743 0.9998402 -0.0177332
vn -0.003047316 0.9998001 -0.01975608
vn -0.004235926 0.9997319 -0.02276193
vn -0.07333989 0.9952297 -0.06433626
vn -0.08501255 0.98792 -0.1295639
vn -0.05586668 0.9940588 0.09341426
vn -0.1196641 0.9917164 -0.04668231
vn -0.1283005 0.9908183 0.04264027
vn -0.09319776 0.986577 0.1340892
vn 0.03011222 0.9878681 0.1523478
vn 0.1912903 0.9764608 0.09966151
vn -0.004257009 0.9996586 0.02578054
vn -0.007647416 0.9995444 0.02919749
vn -0.004257009 0.9996586 0.02578054
vn -0.002247132 0.9997153 0.0237547
vn -0.04152805 0.9741698 0.2219658
vn 0.01174664 0.9995217 0.02860534
vn 0.0193567 0.9994532 0.02680543
vn 0.01986335 0.9994295 0.02731587
vn 0.0193567 0.9994532 0.02680543
vn 0.01881874 0.9994779 0.02626346
vn 0.0281622 0.9995971 0.003536045
vn 0.02872614 0.9995812 0.00349154
vn 0.0281622 0.9995971 0.003536045
vn 0.02759081 0.9996129 0.003581137
vn 0.02513268 0.9995127 0.01851208
vn 0.02419804 0.9995443 0.01804077
vn 0.02513268 0.9995127 0.01851208
vn 0.02621531 0.9994746 0.019058
vn -0.1115431 0.9924781 0.05045129
vn -0.1475839 0.9889879 0.01104031
vn 0.02798125 0.9995906 -0.005974226
vn 0.02752725 0.9996042 -0.005796045
vn 0.02798125 0.9995906 -0.005974226
vn 0.02849463 0.9995748 -0.006175713
vn -0.01046287 0.9999452 -0.0001262927
vn -0.01088825 0.9999408 5.632942E-05

vt 0 1.028802
vt 1 1.028802
vt 1 0.02880237
vt 0 0.02880237
vt 0 1.028802
vt 1 1.028802
vt 1 0.02880237
vt 0 0.02880237
vt 1 0.0254418
vt 1 1.025442
vt 2.980232E-08 1.025442
vt 1.984191E-09 0.02544183
vt 2.980232E-08 1.028802
vt 1.984191E-09 0.02880237
vt 1 0.02880234
vt 1 1.028802
vt 0 1.028802
vt 0 0.02880237
vt 1 0.0254418
vt 1 1.025442
vt 2.980232E-08 1.025442
vt 1.984191E-09 0.02544183
vt 2.980232E-08 0.02544183
vt 1.984191E-09 1.025442
vt 1 1.025442
vt 1 0.02544188
vt 1 0.0254418
vt 1 1.025442
vt 1 0.0254418
vt 1 1.025442
vt 2.980232E-08 1.025442
vt 1.984191E-09 0.02544183
vt 1 0.0254418
vt 1 1.025442
vt 2.980232E-08 1.025442
vt 1.984191E-09 0.02544183
vt 0 1.028802
vt 1 1.028802
vt 1 0.02880237
vt 0 0.02880237
vt 0 1.028802
vt 1 1.028802
vt 1 0.02880237
vt 0 0.02880237
vt 0 1.028802
vt 1 1.028802
vt 1 0.02880237
vt 0 0.02880237
vt 1 0.0254418
vt 1 1.025442
vt 2.980232E-08 1.025442
vt 1.984191E-09 0.02544183
vt 0 1.028802
vt 1 1.028802
vt 1 0.02880237
vt 0 0.02880237
vt 0 1.028802
vt 1 1.028802
vt 1 0.02880237
vt 0 0.02880237
vt 1 0.01191217
vt 0 0.01191217
vt 0 1.002893
vt 1 1.002893
vt 1 0.01191217
vt 0 0.01191217
vt 0 1.002893
vt 1 1.002893
vt 1 1.002893
vt 1 0.01191217
vt 0 0.01191217
vt 0 1.002893
vt 1 0.01191217
vt 0 0.01191217
vt 0 1.002893
vt 1 1.002893
vt 1 0.01191217
vt 0 0.01191217
vt 0 1.002893
vt 1 1.002893
vt 0.9999999 0.01191217
vt 1 1.002893
vt 1 0.01191217
vt 0 0.01191217
vt 0 1.002893
vt 1 1.002893
vt 1 0.01191217
vt 1 1.002893
vt 0 0.01191217
vt 0 1.002893
vt 1 0.01191217
vt 0 0.01191217
vt 0 1.002893
vt 1 1.002893
vt 1 0.01191217
vt 0 0.01191217
vt 0 1.002893
vt 1 1.002893
vt 1 0.01191217
vt 0 0.01191217
vt 0 1.002893
vt 1 1.002893
vt 1 0.01191217
vt 0 0.01191217
vt 0 1.002893
vt 1 1.002893
vt 2.980232E-08 1.002893
vt 1.984191E-09 0.01191217
vt 1 0.01191217
vt 1 1.002893
vt 1 0.01191217
vt 0 0.01191217
vt 0 1.002893
vt 1 1.002893
vt 2.980232E-08 0.01191217
vt 1.984191E-09 1.002893
vt 0 0.02544183
vt 1 0.02544183
vt 1 1.025442
vt 0 1.025442
vt 0 0.02544183
vt 1 0.02544183
vt 1 1.025442
vt 0 1.025442
vt 1 0.02880234
vt 1 1.028802
vt 0 0.02544183
vt 1 0.02544183
vt 1 1.025442
vt 0 1.025442
vt 0 0.02544183
vt 1 0.02544183
vt 1 1.025442
vt 0 1.025442
vt 1 0.02880234
vt 1 1.028802
vt 0 1.028802
vt 1 1.028802
vt 1 0.02880237
vt 0 0.02880237
vt 1 0.02880234
vt 1 1.028802
vt 1 0.02880234
vt 1 1.028802
vt 2.980232E-08 1.028802
vt 1.984191E-09 0.02880237
vt 2.980232E-08 1.028802
vt 1.984191E-09 0.02880237
vt 0 0.02544183
vt 1 0.02544183
vt 1 1.025442
vt 0 1.025442
vt 0 0.02544183
vt 1 0.02544183
vt 1 1.025442
vt 0 1.025442
vt 0 0.02544183
vt 1 0.02544183
vt 1 1.025442
vt 0 1.025442
vt 2.980232E-08 1.028802
vt 1.984191E-09 0.02880237
vt 0 0.02544183
vt 1 0.02544183
vt 1 1.025442
vt 0 1.025442
vt 2.980232E-08 0.02544183
vt -5.762045E-08 1.025442

usemtl sn16_08_sn16g08.jpg
usemap sn16_08_sn16g08.jpg
f 3/3/3 1/1/1 2/2/2
f 1/1/1 3/3/3 4/4/4
f 7/7/7 5/5/5 6/6/6
f 5/5/5 7/7/7 8/8/8
f 11/11/11 9/9/9 10/10/10
f 9/9/9 11/11/11 12/12/12
f 15/15/15 13/13/13 14/14/14
f 13/13/13 15/15/15 16/16/16
f 15/15/15 17/17/17 16/16/16
f 17/17/17 15/15/15 18/18/18
f 21/21/21 19/19/19 20/20/20
f 19/19/19 21/21/21 22/22/22
f 25/25/25 23/23/23 24/24/24
f 23/23/23 25/25/25 26/26/26
f 24/24/24 27/27/27 28/28/28
f 27/27/27 24/24/24 23/23/23
f 31/31/31 29/29/29 30/30/30
f 29/29/29 31/31/31 32/32/32
f 35/35/35 33/33/33 34/34/34
f 33/33/33 35/35/35 36/36/36
f 39/39/39 37/37/37 38/38/38
f 37/37/37 39/39/39 40/40/40
f 43/43/43 41/41/41 42/42/42
f 41/41/41 43/43/43 44/44/44
f 47/47/47 45/45/45 46/46/46
f 45/45/45 47/47/47 48/48/48
f 51/51/51 49/49/49 50/50/50
f 49/49/49 51/51/51 52/52/52
f 55/55/55 53/53/53 54/54/54
f 53/53/53 55/55/55 56/56/56
f 59/59/59 57/57/57 58/58/58
f 57/57/57 59/59/59 60/60/60
f 63/63/63 61/61/61 62/62/62
f 61/61/61 63/63/63 64/64/64
f 67/67/67 65/65/65 66/66/66
f 65/65/65 67/67/67 68/68/68
f 71/71/71 69/69/69 70/70/70
f 69/69/69 71/71/71 72/72/72
f 75/75/75 73/73/73 74/74/74
f 73/73/73 75/75/75 76/76/76
f 79/79/79 77/77/77 78/78/78
f 77/77/77 79/79/79 80/80/80
f 82/82/82 78/78/78 81/81/81
f 78/78/78 82/82/82 79/79/79
f 85/85/85 83/83/83 84/84/84
f 83/83/83 85/85/85 86/86/86
f 87/87/87 85/85/85 84/84/84
f 85/85/85 87/87/87 88/88/88
f 90/90/90 87/87/87 89/89/89
f 87/87/87 90/90/90 88/88/88
f 93/93/93 91/91/91 92/92/92
f 91/91/91 93/93/93 94/94/94
f 97/97/97 95/95/95 96/96/96
f 95/95/95 97/97/97 98/98/98
f 101/101/101 99/99/99 100/100/100
f 99/99/99 101/101/101 102/102/102
f 105/105/105 103/103/103 104/104/104
f 103/103/103 105/105/105 106/106/106
f 109/109/109 107/107/107 108/108/108
f 107/107/107 109/109/109 110/110/110
f 113/113/113 111/111/111 112/112/112
f 111/111/111 113/113/113 114/114/114
f 115/115/115 110/110/110 109/109/109
f 110/110/110 115/115/115 116/116/116
f 119/119/119 117/117/117 118/118/118
f 117/117/117 119/119/119 120/120/120
f 123/123/123 121/121/121 122/122/122
f 121/121/121 123/123/123 124/124/124
f 5/5/5 125/125/125 126/126/126
f 125/125/125 5/5/5 8/8/8
f 129/129/129 127/127/127 128/128/128
f 127/127/127 129/129/129 130/130/130
f 133/133/133 131/131/131 132/132/132
f 131/131/131 133/133/133 134/134/134
f 17/17/17 135/135/135 136/136/136
f 135/135/135 17/17/17 18/18/18
f 139/139/139 137/137/137 138/138/138
f 137/137/137 139/139/139 140/140/140
f 137/137/137 141/141/141 142/142/142
f 141/141/141 137/137/137 140/140/140
f 145/145/145 143/143/143 144/144/144
f 143/143/143 145/145/145 146/146/146
f 147/147/147 39/39/39 38/38/38
f 39/39/39 147/147/147 148/148/148
f 151/151/151 149/149/149 150/150/150
f 149/149/149 151/151/151 152/152/152
f 155/155/155 153/153/153 154/154/154
f 153/153/153 155/155/155 156/156/156
f 159/159/159 157/157/157 158/158/158
f 157/157/157 159/159/159 160/160/160
f 161/161/161 59/59/59 58/58/58
f 59/59/59 161/161/161 162/162/162
f 165/165/165 163/163/163 164/164/164
f 163/163/163 165/165/165 166/166/166
f 168/168/168 49/49/49 167/167/167
f 49/49/49 168/168/168 50/50/50
