mtllib ./shuai05.mtl
g shuai05
v 189.9995 14.45238 -216.1536
v 252.6797 1.293442 -120.7534
v 331.5582 -1.15361 -168.1693
v 299.8632 -1.15361 -330.3373
v 110.3771 12.08392 -272.4114
v 189.9995 14.45238 -216.1536
v 299.8632 -1.15361 -330.3373
v 173.593 -1.153625 -431.5604
v -7.507141 -1.931854 -447.2467
v -4.109192 -1.153625 -413.1561
v 173.593 -1.153625 -431.5604
v 192.5891 -1.931854 -475.7972
v -3.813782 1.293442 -282.8605
v -4.109192 -1.153625 -413.1561
v -154.4559 -1.153625 -379.2068
v -112.3346 1.293442 -268.6851
v -203.2978 11.27956 -212.7679
v -334.8763 -1.15361 -345.6305
v -452.9749 -1.931854 -190.8843
v -404.8853 -1.15361 -175.2999
v -334.8763 -1.15361 -345.6305
v -380.3767 -1.931854 -383.7432
v -345.0535 -1.931839 356.9305
v -311.8994 -1.153595 321.4499
v -406.0699 -1.15361 189.8051
v -480.7957 -1.931839 218.7926
v -125.7117 -1.931839 415.0735
v -111.7478 -1.153595 382.4044
v 42.75464 -1.931839 428.726
v 42.30115 -1.153595 396.977
v -111.7478 -1.153595 382.4044
v -125.7117 -1.931839 415.0735
v 171.889 -1.931839 371.2122
v 164.8051 -1.153595 346.6714
v 42.30115 -1.153595 396.977
v 42.75464 -1.931839 428.726
v 213.1373 21.69208 200.5887
v 130.5782 30.83032 273.1211
v 164.8051 -1.153595 346.6714
v 280.7385 -1.15361 256.0329
v 289.1212 1.293442 -5.113892
v 265.8754 16.74754 106.4479
v 359.0974 -1.15361 131.7163
v 374.5206 -1.15361 -7.15744
v 265.8754 16.74754 106.4479
v 213.1373 21.69208 200.5887
v 280.7385 -1.15361 256.0329
v 359.0974 -1.15361 131.7163
v -459.4854 -1.931839 13.68817
v -391.4713 -1.15361 4.014709
v -404.8853 -1.15361 -175.2999
v -452.9749 -1.931854 -190.8843
v 252.6797 1.293442 -120.7534
v 289.1212 1.293442 -5.113892
v 374.5206 -1.15361 -7.15744
v 331.5582 -1.15361 -168.1693
v -275.1678 11.83446 130.1723
v -300.8247 1.293457 6.6297
v -391.4713 -1.15361 4.014709
v -406.0699 -1.15361 189.8051
v 252.6797 1.293442 -120.7534
v 189.9995 14.45238 -216.1536
v 168.6022 15.45259 -176.2663
v 223.4487 2.293655 -99.50943
v 189.9995 14.45238 -216.1536
v 110.3771 12.08392 -272.4114
v 84.70074 2.293655 -222.2448
v 168.6022 15.45259 -176.2663
v 84.70074 2.293655 -222.2448
v 110.3771 12.08392 -272.4114
v -3.813782 1.293442 -282.8605
v -7.053406 2.293655 -236.3426
v -3.813782 1.293442 -282.8605
v -112.3346 1.293442 -268.6851
v -99.70261 2.293655 -216.2536
v -7.053406 2.293655 -236.3426
v -112.3346 1.293442 -268.6851
v -203.2978 11.27956 -212.7679
v -170.9897 12.27977 -162.7396
v -99.70261 2.293655 -216.2536
v -265.1654 19.004 -113.2753
v -219.4474 20.00421 -81.0773
v -275.1678 11.83446 130.1723
v -202.1648 24.39044 209.7769
v -180.9842 25.39066 178.5633
v -236.3225 12.83467 106.0619
v -72.51816 1.293457 283.1314
v -67.36603 2.293671 252.4585
v 39.72559 1.293457 312.5303
v 29.03204 2.293671 268.0443
v 39.72559 1.293457 312.5303
v 130.5782 30.83032 273.1211
v 110.0576 31.83054 236.2907
v 29.03204 2.293671 268.0443
v 130.5782 30.83032 273.1211
v 213.1373 21.69208 200.5887
v 186.2715 22.69229 178.0533
v 110.0576 31.83054 236.2907
v 265.8754 16.74754 106.4479
v 289.1212 1.293442 -5.113892
v 252.5283 2.293655 -1.359192
v 230.705 17.74776 97.94443
v 213.1373 21.69208 200.5887
v 265.8754 16.74754 106.4479
v 230.705 17.74776 97.94443
v 186.2715 22.69229 178.0533
v -219.4474 20.00421 -81.0773
v -265.1654 19.004 -113.2753
v -300.8247 1.293457 6.6297
v -238.6277 2.293671 7.387085
v 289.1212 1.293442 -5.113892
v 252.6797 1.293442 -120.7534
v 223.4487 2.293655 -99.50943
v 252.5283 2.293655 -1.359192
v -275.1678 11.83446 130.1723
v -236.3225 12.83467 106.0619
v 356.6436 -1.931854 -183.2487
v 331.4234 -1.931854 -365.2459
v 299.8632 -1.15361 -330.3373
v 331.5582 -1.15361 -168.1693
v 331.4234 -1.931854 -365.2459
v 192.5891 -1.931854 -475.7972
v 173.593 -1.153625 -431.5604
v 299.8632 -1.15361 -330.3373
v -4.109192 -1.153625 -413.1561
v -3.813782 1.293442 -282.8605
v -7.507141 -1.931854 -447.2467
v -171.5066 -1.931854 -410.2145
v -154.4559 -1.153625 -379.2068
v -4.109192 -1.153625 -413.1561
v -171.5066 -1.931854 -410.2145
v -380.3767 -1.931854 -383.7432
v -334.8763 -1.15361 -345.6305
v -154.4559 -1.153625 -379.2068
v -404.8853 -1.15361 -175.2999
v -265.1654 19.004 -113.2753
v -202.1648 24.39044 209.7769
v -275.1678 11.83446 130.1723
v -406.0699 -1.15361 189.8051
v -311.8994 -1.153595 321.4499
v -111.7478 -1.153595 382.4044
v -72.51816 1.293457 283.1314
v 42.30115 -1.153595 396.977
v 39.72559 1.293457 312.5303
v -72.51816 1.293457 283.1314
v -111.7478 -1.153595 382.4044
v 39.72559 1.293457 312.5303
v 42.30115 -1.153595 396.977
v 171.889 -1.931839 371.2122
v 299.7699 -1.931839 270.6676
v 280.7385 -1.15361 256.0329
v 164.8051 -1.153595 346.6714
v 386.4597 -1.931839 138.1328
v 401.6801 -1.931854 -7.807343
v 374.5206 -1.15361 -7.15744
v 359.0974 -1.15361 131.7163
v 299.7699 -1.931839 270.6676
v 386.4597 -1.931839 138.1328
v 359.0974 -1.15361 131.7163
v 280.7385 -1.15361 256.0329
v -265.1654 19.004 -113.2753
v -404.8853 -1.15361 -175.2999
v 401.6801 -1.931854 -7.807343
v 356.6436 -1.931854 -183.2487
v 331.5582 -1.15361 -168.1693
v 374.5206 -1.15361 -7.15744
v -480.7957 -1.931839 218.7926
v -406.0699 -1.15361 189.8051

vn 0.1055045 0.9943447 0.01214242
vn 0.08112249 0.993184 0.08369436
vn 0.1055045 0.9943447 0.01214242
vn 0.1172206 0.9928415 -0.0229102
vn 0.003852374 0.9976013 -0.06911364
vn 0.03955707 0.9944147 -0.09785053
vn 0.04644263 0.9960485 -0.07569999
vn 0.02038733 0.9969879 -0.07482842
vn -0.00253184 0.9997894 -0.0203712
vn -0.002339522 0.9997422 -0.02258919
vn -0.00253184 0.9997894 -0.0203712
vn -0.002673501 0.9998208 -0.01873725
vn -0.003657615 0.9997998 -0.0196747
vn -0.004237892 0.9998149 -0.01876779
vn 0.005906677 0.9988219 -0.04816853
vn 0.03723643 0.9986469 -0.0363024
vn -0.03419376 0.9971526 -0.06721243
vn -0.0420876 0.9977759 -0.05169019
vn -0.01357167 0.9998937 -0.00532895
vn -0.01427929 0.9998809 -0.005869058
vn -0.01357167 0.9998937 -0.00532895
vn -0.01300257 0.9999034 -0.004894581
vn -0.008056698 0.9999067 0.01103757
vn -0.007865428 0.9998392 0.01611284
vn -0.009558705 0.9999211 0.008146008
vn -0.007539776 0.9999442 0.007409019
vn -0.005419229 0.9998031 0.01908799
vn -0.006417649 0.9997573 0.02107315
vn -0.002075883 0.9997165 0.02372006
vn -0.002321239 0.9996962 0.02453808
vn -0.002075883 0.9997165 0.02372006
vn -0.001865418 0.9997333 0.02301835
vn 0.01120037 0.9995955 0.02614036
vn 0.01163696 0.9995306 0.02833825
vn 0.01120037 0.9995955 0.02614036
vn 0.01084446 0.9996448 0.02434877
vn 0.227316 0.9478407 0.2234402
vn 0.1165653 0.9294875 0.3499507
vn 0.1045139 0.9687817 0.2248085
vn 0.1593158 0.9659677 0.2037768
vn 0.1185873 0.9920162 -0.04290552
vn 0.2114706 0.9731628 -0.09074405
vn 0.1185873 0.9920162 -0.04290552
vn 0.02871854 0.9995824 0.003189473
vn 0.1984253 0.9753042 0.09700073
vn 0.2515734 0.9636146 0.09032089
vn 0.1984253 0.9753042 0.09700073
vn 0.1610087 0.9817213 0.1014865
vn -0.01218775 0.9999256 -0.0004562839
vn -0.0114467 0.9999344 -3.713755E-05
vn -0.01341696 0.99991 0.0002412405
vn -0.01601592 0.9998716 -0.0005097772
vn 0.02741085 0.9995933 -0.007867403
vn 0.02842709 0.9995558 -0.008958212
vn 0.02741085 0.9995933 -0.007867403
vn 0.02672466 0.9996174 -0.007130887
vn -0.07745274 0.9965081 -0.0311887
vn -0.02779043 0.9992135 0.02828506
vn -0.09477266 0.9954479 0.01007648
vn -0.1023594 0.9947149 -0.008042921
vn 0.1216389 0.9902192 0.06833664
vn 0.1351749 0.9896731 0.04769634
vn 0.1216389 0.9902192 0.06833664
vn 0.1034842 0.9900088 0.09577941
vn -0.1166812 0.9925209 0.03588637
vn -0.1211529 0.9840792 0.1300394
vn -0.1166812 0.9925209 0.03588637
vn -0.1095318 0.9904619 -0.08359413
vn -0.06078168 0.995527 0.07232988
vn -0.1056911 0.9847647 0.1380869
vn -0.06078168 0.995527 0.07232988
vn 0.003267946 0.9997684 -0.02126914
vn -0.003387935 0.9997964 -0.01989097
vn -0.002415399 0.9998261 -0.01849133
vn -0.003387935 0.9997964 -0.01989097
vn -0.004732483 0.9997506 -0.02182592
vn 0.08439327 0.9948329 -0.05643908
vn 0.04981721 0.9967991 -0.06252962
vn 0.07660311 0.9954222 -0.05715255
vn 0.1057975 0.9933941 -0.04443975
vn 0.02275924 0.9977343 -0.06331003
vn 0.03902005 0.997357 -0.06129091
vn -0.1034772 0.9916922 -0.07641339
vn 0.01838202 0.9988411 0.04448038
vn 0.02475078 0.999611 0.01286121
vn -0.08956063 0.9906206 -0.1031992
vn 0.07167865 0.9955344 0.06142854
vn 0.08920757 0.9948832 0.04742637
vn -0.006282719 0.9996926 0.02398713
vn -0.005829081 0.9996175 0.02703558
vn -0.27425 0.9530049 0.1287184
vn -0.2414976 0.9570289 0.1605448
vn -0.27425 0.9530049 0.1287184
vn -0.3077665 0.9466806 0.09526593
vn 0.08582532 0.9956968 -0.03495524
vn 0.0728478 0.9964319 -0.04262076
vn 0.08582532 0.9956968 -0.03495524
vn 0.0981388 0.9947882 -0.02766388
vn 0.036675 0.9898569 -0.1372524
vn 0.01328352 0.9908263 -0.1344864
vn 0.036675 0.9898569 -0.1372524
vn 0.06199156 0.9881859 -0.1401628
vn 0.04733752 0.9984203 -0.03026453
vn 0.03618817 0.9988264 -0.03218836
vn 0.04733752 0.9984203 -0.03026453
vn 0.06060709 0.9977697 -0.02796842
vn -0.06432667 0.9864749 0.1507629
vn -0.1028486 0.9879869 0.1153437
vn -0.04567987 0.9970475 0.06172267
vn -0.03339243 0.9994388 0.002648743
vn 0.02721108 0.999595 -0.008339488
vn 0.02782934 0.9995742 -0.008769844
vn 0.02721108 0.999595 -0.008339488
vn 0.02651697 0.9996175 -0.00785635
vn -0.04035022 0.9951838 -0.08933681
vn -0.0898788 0.9905377 -0.1037152
vn 0.02397126 0.9997048 -0.003964166
vn 0.02137674 0.9997671 -0.002962276
vn 0.02397126 0.9997048 -0.003964166
vn 0.02775094 0.9996002 -0.005423785
vn 0.01040049 0.9998612 -0.01301968
vn 0.01043753 0.9998596 -0.01310783
vn 0.01040049 0.9998612 -0.01301968
vn 0.01036035 0.9998629 -0.01292411
vn -0.03856894 0.997304 -0.0624268
vn -0.09238303 0.995552 -0.01848789
vn -0.005039989 0.9997381 -0.02231994
vn -0.005039991 0.9997382 -0.02231994
vn -0.005039989 0.9997381 -0.02231994
vn -0.005039987 0.9997382 -0.02231993
vn -0.003047317 0.9998001 -0.01975608
vn -0.00224743 0.9998402 -0.0177332
vn -0.003047317 0.9998001 -0.01975608
vn -0.004235927 0.9997319 -0.02276193
vn -0.07333989 0.9952297 -0.06433626
vn -0.08501256 0.98792 -0.1295639
vn -0.05396908 0.994049 0.09462575
vn -0.1196641 0.9917163 -0.04668233
vn -0.1283005 0.9908183 0.04264025
vn -0.08986701 0.9864401 0.1373308
vn 0.01229906 0.9900665 0.1400603
vn 0.1326159 0.9881904 0.0767644
vn -0.004257011 0.9996585 0.02578055
vn -0.007647423 0.9995444 0.02919751
vn -0.004257011 0.9996585 0.02578055
vn -0.002247133 0.9997153 0.02375471
vn -0.04152802 0.9741698 0.2219659
vn 0.01174665 0.9995218 0.02860535
vn 0.02044838 0.9994507 0.0260776
vn 0.02066128 0.999441 0.02627873
vn 0.02044838 0.9994507 0.0260776
vn 0.02021729 0.9994611 0.02585928
vn 0.02821515 0.9995974 0.003035676
vn 0.02871431 0.9995832 0.002994583
vn 0.02821515 0.9995974 0.003035676
vn 0.02770894 0.9996113 0.003077347
vn 0.02596285 0.9995236 0.01668331
vn 0.02464857 0.9995661 0.01612239
vn 0.02596285 0.9995236 0.01668331
vn 0.02752761 0.9994704 0.0173511
vn -0.1115431 0.9924781 0.05045129
vn -0.1475839 0.9889879 0.01104031
vn 0.02760616 0.9995928 -0.007220361
vn 0.02686605 0.9996153 -0.006896622
vn 0.02760616 0.9995928 -0.007220361
vn 0.02846044 0.9995661 -0.007594043
vn -0.01085119 0.9999405 -0.001127434
vn -0.01118167 0.999937 -0.001027183

vt 0 1.028802
vt 1 1.028802
vt 1 0.02880237
vt 0 0.02880237
vt 0 1.028802
vt 1 1.028802
vt 1 0.02880237
vt 0 0.02880237
vt 1 0.0254418
vt 1 1.025442
vt 2.980232E-08 1.025442
vt 1.984191E-09 0.02544183
vt 2.980232E-08 1.028802
vt 1.984191E-09 0.02880237
vt 1 0.02880234
vt 1 1.028802
vt 0 1.028802
vt 0 0.02880237
vt 1 0.0254418
vt 1 1.025442
vt 2.980232E-08 1.025442
vt 1.984191E-09 0.02544183
vt 2.980232E-08 0.02544183
vt 1.984191E-09 1.025442
vt 1 1.025442
vt 1 0.02544188
vt 1 0.0254418
vt 1 1.025442
vt 1 0.0254418
vt 1 1.025442
vt 2.980232E-08 1.025442
vt 1.984191E-09 0.02544183
vt 1 0.0254418
vt 1 1.025442
vt 2.980232E-08 1.025442
vt 1.984191E-09 0.02544183
vt 0 1.028802
vt 1 1.028802
vt 1 0.02880237
vt 0 0.02880237
vt 0 1.028802
vt 1 1.028802
vt 1 0.02880237
vt 0 0.02880237
vt 0 1.028802
vt 1 1.028802
vt 1 0.02880237
vt 0 0.02880237
vt 1 0.0254418
vt 1 1.025442
vt 2.980232E-08 1.025442
vt 1.984191E-09 0.02544183
vt 0 1.028802
vt 1 1.028802
vt 1 0.02880237
vt 0 0.02880237
vt 0 1.028802
vt 1 1.028802
vt 1 0.02880237
vt 0 0.02880237
vt 1 0.01191217
vt 0 0.01191217
vt 0 1.002893
vt 1 1.002893
vt 1 0.01191217
vt 0 0.01191217
vt 0 1.002893
vt 1 1.002893
vt 1 1.002893
vt 1 0.01191217
vt 0 0.01191217
vt 0 1.002893
vt 1 0.01191217
vt 0 0.01191217
vt 0 1.002893
vt 1 1.002893
vt 1 0.01191217
vt 0 0.01191217
vt 0 1.002893
vt 1 1.002893
vt 0.9999999 0.01191217
vt 1 1.002893
vt 1 0.01191217
vt 0 0.01191217
vt 0 1.002893
vt 1 1.002893
vt 1 0.01191217
vt 1 1.002893
vt 0 0.01191217
vt 0 1.002893
vt 1 0.01191217
vt 0 0.01191217
vt 0 1.002893
vt 1 1.002893
vt 1 0.01191217
vt 0 0.01191217
vt 0 1.002893
vt 1 1.002893
vt 1 0.01191217
vt 0 0.01191217
vt 0 1.002893
vt 1 1.002893
vt 1 0.01191217
vt 0 0.01191217
vt 0 1.002893
vt 1 1.002893
vt 2.980232E-08 1.002893
vt 1.984191E-09 0.01191217
vt 1 0.01191217
vt 1 1.002893
vt 1 0.01191217
vt 0 0.01191217
vt 0 1.002893
vt 1 1.002893
vt 2.980232E-08 0.01191217
vt 1.984191E-09 1.002893
vt 0 0.02544183
vt 1 0.02544183
vt 1 1.025442
vt 0 1.025442
vt 0 0.02544183
vt 1 0.02544183
vt 1 1.025442
vt 0 1.025442
vt 1 0.02880234
vt 1 1.028802
vt 0 0.02544183
vt 1 0.02544183
vt 1 1.025442
vt 0 1.025442
vt 0 0.02544183
vt 1 0.02544183
vt 1 1.025442
vt 0 1.025442
vt 1 0.02880234
vt 1 1.028802
vt 0 1.028802
vt 1 1.028802
vt 1 0.02880237
vt 0 0.02880237
vt 1 0.02880234
vt 1 1.028802
vt 1 0.02880234
vt 1 1.028802
vt 2.980232E-08 1.028802
vt 1.984191E-09 0.02880237
vt 2.980232E-08 1.028802
vt 1.984191E-09 0.02880237
vt 0 0.02544183
vt 1 0.02544183
vt 1 1.025442
vt 0 1.025442
vt 0 0.02544183
vt 1 0.02544183
vt 1 1.025442
vt 0 1.025442
vt 0 0.02544183
vt 1 0.02544183
vt 1 1.025442
vt 0 1.025442
vt 2.980232E-08 1.028802
vt 1.984191E-09 0.02880237
vt 0 0.02544183
vt 1 0.02544183
vt 1 1.025442
vt 0 1.025442
vt 2.980232E-08 0.02544183
vt -5.762045E-08 1.025442

usemtl sn16_08_sn16g08.jpg
usemap sn16_08_sn16g08.jpg
f 3/3/3 1/1/1 2/2/2
f 1/1/1 3/3/3 4/4/4
f 7/7/7 5/5/5 6/6/6
f 5/5/5 7/7/7 8/8/8
f 11/11/11 9/9/9 10/10/10
f 9/9/9 11/11/11 12/12/12
f 15/15/15 13/13/13 14/14/14
f 13/13/13 15/15/15 16/16/16
f 15/15/15 17/17/17 16/16/16
f 17/17/17 15/15/15 18/18/18
f 21/21/21 19/19/19 20/20/20
f 19/19/19 21/21/21 22/22/22
f 25/25/25 23/23/23 24/24/24
f 23/23/23 25/25/25 26/26/26
f 24/24/24 27/27/27 28/28/28
f 27/27/27 24/24/24 23/23/23
f 31/31/31 29/29/29 30/30/30
f 29/29/29 31/31/31 32/32/32
f 35/35/35 33/33/33 34/34/34
f 33/33/33 35/35/35 36/36/36
f 39/39/39 37/37/37 38/38/38
f 37/37/37 39/39/39 40/40/40
f 43/43/43 41/41/41 42/42/42
f 41/41/41 43/43/43 44/44/44
f 47/47/47 45/45/45 46/46/46
f 45/45/45 47/47/47 48/48/48
f 51/51/51 49/49/49 50/50/50
f 49/49/49 51/51/51 52/52/52
f 55/55/55 53/53/53 54/54/54
f 53/53/53 55/55/55 56/56/56
f 59/59/59 57/57/57 58/58/58
f 57/57/57 59/59/59 60/60/60
f 63/63/63 61/61/61 62/62/62
f 61/61/61 63/63/63 64/64/64
f 67/67/67 65/65/65 66/66/66
f 65/65/65 67/67/67 68/68/68
f 71/71/71 69/69/69 70/70/70
f 69/69/69 71/71/71 72/72/72
f 75/75/75 73/73/73 74/74/74
f 73/73/73 75/75/75 76/76/76
f 79/79/79 77/77/77 78/78/78
f 77/77/77 79/79/79 80/80/80
f 82/82/82 78/78/78 81/81/81
f 78/78/78 82/82/82 79/79/79
f 85/85/85 83/83/83 84/84/84
f 83/83/83 85/85/85 86/86/86
f 87/87/87 85/85/85 84/84/84
f 85/85/85 87/87/87 88/88/88
f 90/90/90 87/87/87 89/89/89
f 87/87/87 90/90/90 88/88/88
f 93/93/93 91/91/91 92/92/92
f 91/91/91 93/93/93 94/94/94
f 97/97/97 95/95/95 96/96/96
f 95/95/95 97/97/97 98/98/98
f 101/101/101 99/99/99 100/100/100
f 99/99/99 101/101/101 102/102/102
f 105/105/105 103/103/103 104/104/104
f 103/103/103 105/105/105 106/106/106
f 109/109/109 107/107/107 108/108/108
f 107/107/107 109/109/109 110/110/110
f 113/113/113 111/111/111 112/112/112
f 111/111/111 113/113/113 114/114/114
f 115/115/115 110/110/110 109/109/109
f 110/110/110 115/115/115 116/116/116
f 119/119/119 117/117/117 118/118/118
f 117/117/117 119/119/119 120/120/120
f 123/123/123 121/121/121 122/122/122
f 121/121/121 123/123/123 124/124/124
f 5/5/5 125/125/125 126/126/126
f 125/125/125 5/5/5 8/8/8
f 129/129/129 127/127/127 128/128/128
f 127/127/127 129/129/129 130/130/130
f 133/133/133 131/131/131 132/132/132
f 131/131/131 133/133/133 134/134/134
f 17/17/17 135/135/135 136/136/136
f 135/135/135 17/17/17 18/18/18
f 139/139/139 137/137/137 138/138/138
f 137/137/137 139/139/139 140/140/140
f 137/137/137 141/141/141 142/142/142
f 141/141/141 137/137/137 140/140/140
f 145/145/145 143/143/143 144/144/144
f 143/143/143 145/145/145 146/146/146
f 147/147/147 39/39/39 38/38/38
f 39/39/39 147/147/147 148/148/148
f 151/151/151 149/149/149 150/150/150
f 149/149/149 151/151/151 152/152/152
f 155/155/155 153/153/153 154/154/154
f 153/153/153 155/155/155 156/156/156
f 159/159/159 157/157/157 158/158/158
f 157/157/157 159/159/159 160/160/160
f 161/161/161 59/59/59 58/58/58
f 59/59/59 161/161/161 162/162/162
f 165/165/165 163/163/163 164/164/164
f 163/163/163 165/165/165 166/166/166
f 168/168/168 49/49/49 167/167/167
f 49/49/49 168/168/168 50/50/50
