mtllib ./Tube15.mtl
g Tube15
v 104.4653 0.8662109 -146.4521
v 89.00171 21.15881 -120.2792
v 107.0291 28.2005 -144.6418
v 91.14783 0.8662109 -119.7413
v 104.4653 0.8662109 -146.4521
v 150.0447 18.74036 -99.31277
v 148.47 0.0004882813 -100.4037
v 107.0291 28.2005 -144.6418
v 107.0291 28.2005 -144.6418
v 124.772 18.74036 -82.58514
v 150.0447 18.74036 -99.31277
v 89.00171 21.15881 -120.2792
v 89.00171 21.15881 -120.2792
v 123.1973 0.0004882813 -83.67609
v 124.772 18.74036 -82.58514
v 91.14783 0.8662109 -119.7413
v 91.14783 0.8662109 -119.7413
v 148.47 0.0004882813 -100.4037
v 123.1973 0.0004882813 -83.67609
v 104.4653 0.8662109 -146.4521
v 174.9628 28.2005 -42.00518
v 174.9628 0.0004882813 -42.00518
v 145.493 28.2005 -34.93012
v 174.9628 28.2005 -42.00518
v 145.493 0.0004882813 -34.93012
v 145.493 28.2005 -34.93012
v 123.1973 0.0004882813 -83.67609
v 174.9628 0.0004882813 -42.00518
v 145.493 0.0004882813 -34.93012
v 148.47 0.0004882813 -100.4037
v 178.7777 28.2005 20.36883
v 178.7777 0.0004882813 20.36883
v 174.9628 28.2005 -42.00518
v 148.6654 28.2005 16.93796
v 178.7777 28.2005 20.36883
v 145.493 28.2005 -34.93012
v 148.6654 0.0004882813 16.93796
v 148.6654 28.2005 16.93796
v 145.493 0.0004882813 -34.93012
v 178.7777 0.0004882813 20.36883
v 148.6654 0.0004882813 16.93796
v 174.9628 0.0004882813 -42.00518
v 178.7777 0.0004882813 20.36883
v 161.0294 15.43188 80.286
v 161.0294 0.0004882813 80.286
v 178.7777 28.2005 20.36883
v 178.7777 28.2005 20.36883
v 133.9065 15.43188 66.76302
v 161.0294 15.43188 80.286
v 148.6654 28.2005 16.93796
v 148.6654 28.2005 16.93796
v 133.9065 0.0004882813 66.76302
v 133.9065 15.43188 66.76302
v 148.6654 0.0004882813 16.93796
v 148.6654 0.0004882813 16.93796
v 161.0294 0.0004882813 80.286
v 133.9065 0.0004882813 66.76302
v 178.7777 0.0004882813 20.36883
v 123.0585 16.11206 129.6637
v 123.0585 -1.908569 129.6637
v 102.9966 16.11206 108.5354
v 123.0585 16.11206 129.6637
v 102.9966 0.0004882813 108.5354
v 102.9966 16.11206 108.5354
v 133.9065 0.0004882813 66.76302
v 123.0585 -1.908569 129.6637
v 102.9966 0.0004882813 108.5354
v 161.0294 0.0004882813 80.286
v 123.0585 -1.908569 129.6637
v 123.0585 -1.908569 129.6637
v 102.9966 16.11206 108.5354
v 102.9966 0.0004882813 108.5354

vn -0.853408 0.02139691 -0.5208042
vn -0.853408 0.02139691 -0.5208042
vn -0.814091 0.1140674 -0.5694247
vn -0.8899047 -0.1058763 -0.4436889
vn 0.7227849 -0.02142522 -0.6907409
vn 0.7887352 -0.03119148 -0.6139413
vn 0.8698553 -0.02130953 -0.4928465
vn 0.7228949 -0.02206293 -0.6906056
vn -0.01395712 0.9878806 0.1545866
vn -0.04146645 0.9973767 0.05933161
vn -0.01265468 0.9985296 -0.05271053
vn -0.1296909 0.9740357 0.1855661
vn -0.736423 -0.02036201 0.6762149
vn -0.8040667 0.004307323 0.5945234
vn -0.8704095 0.02135253 0.491865
vn -0.7468171 -0.06142931 0.6621864
vn -0.01161882 -0.9998792 -0.01032201
vn -0.01161882 -0.9998792 -0.01032201
vn -0.01000231 -0.9998357 -0.01511185
vn -0.01292693 -0.9998956 -0.006445113
vn 0.959729 -0.01354066 -0.2806011
vn 0.9830828 0 -0.1831616
vn -0.06503335 0.9866106 -0.1495665
vn -0.03546872 0.9883903 -0.1477379
vn -0.9594532 0.01352423 0.2815432
vn -0.984392 0 0.1759901
vn 0 -1 0
vn 0 -1 0
vn 0 -1 0
vn 0 -1 0
vn 0.9981349 0 -0.06104829
vn 0.9981349 0 -0.06104829
vn 0 1 0
vn 0 1 0
vn 0 1 0
vn 0 1 0
vn -0.9981349 0 0.06104808
vn -0.9981349 0 0.06104808
vn 0 -1 0
vn 0 -1 0
vn 0 -1 0
vn 0 -1 0
vn 0.9588197 0 0.2840156
vn 0.9275422 0 0.3737182
vn 0.8577495 0 0.5140679
vn 0.9588196 0 0.2840156
vn -0.06184849 0.9760013 0.208797
vn -0.04127251 0.9890283 0.1418432
vn -0.02856013 0.9977782 0.06019016
vn -0.02740482 0.9702551 0.2405286
vn -0.9588193 0 -0.2840163
vn -0.9292118 0 -0.3695476
vn -0.8663665 0 -0.4994088
vn -0.9588194 0 -0.2840163
vn 0 -1 0
vn 0 -1 0
vn 0 -0.9999999 0
vn 0 -1 0
vn 0.6145169 0 0.7889036
vn 0.7927162 0 0.6095909
vn 0.007047934 0.9999291 -0.009597219
vn 0.008015111 0.9999389 -0.007610581
vn -0.8038574 0 -0.5948222
vn -0.8038573 0 -0.5948222
vn -0.0161171 -0.9993218 -0.03310937
vn -0.0533631 -0.9977942 -0.03948656
vn -0.0533631 -0.9977942 -0.03948656
vn 0.01392719 -0.9995128 -0.02793365
vn 0.01392719 -0.9995128 -0.02793365
vn -0.7251699 0 0.68857
vn -0.7251699 0 0.68857
vn -0.72517 0 0.68857

vt 0.5366517 0.6148534
vt 0.4478705 0.3870738
vt 0.5825325 0.3870544
vt 0.4055555 0.5829524
vt 0.8486235 0.7422184
vt 0.4320198 0.867151
vt 0.4320198 0.7422184
vt 0.8486235 0.9302185
vt 0.5960557 0.6373634
vt 0.4741863 0.5417584
vt 0.5721961 0.5263709
vt 0.494027 0.6340559
vt 0.1864617 0.9302185
vt 0.532895 0.7422184
vt 0.532895 0.867151
vt 0.1864617 0.7422184
vt 0.8613686 0.5623672
vt 0.6623906 0.4163257
vt 0.8613687 0.4514109
vt 0.6623905 0.5974524
vt 0.04054043 0.9302185
vt 0.04054043 0.7422184
vt 0.3959827 0.4586237
vt 0.4781524 0.4263972
vt 0.8584358 0.7422184
vt 0.8584358 0.9302185
vt 0.8421292 0.6060461
vt 0.6603124 0.3860997
vt 0.867469 0.4041376
vt 0.639764 0.5980583
vt -0.2785965 0.9302185
vt -0.2785965 0.7422184
vt 0.4097568 0.7251117
vt 0.1514966 0.6249186
vt 0.3979917 0.6301292
vt 0.1610613 0.7231472
vt 1.123819 0.7422184
vt 1.123819 0.9302185
vt 0.7355431 0.5452337
vt 0.9026685 0.4338968
vt 0.9284998 0.534176
vt 0.7471801 0.4343011
vt 1.271064 0.7422184
vt 0.9102742 0.8450943
vt 0.9102742 0.7422184
vt 1.271064 0.9302185
vt 0.6420175 0.392428
vt 0.9851278 0.5977532
vt 0.9898151 0.3977194
vt 0.6291117 0.616708
vt -0.14119 0.9302185
vt 0.1588301 0.7422184
vt 0.1588301 0.8450943
vt -0.14119 0.7422184
vt 0.6492094 0.509529
vt 0.8675779 0.4373198
vt 0.8864928 0.5199599
vt 0.6607785 0.428895
vt 0.4999996 0.849629
vt 0.4999996 0.7167644
vt 0.6303961 0.6189646
vt 0.6337864 0.3880988
vt 0.5000003 0.7422184
vt 0.5000003 0.849629
vt 0.6437998 0.5185086
vt 0.9066818 0.4445283
vt 0.8966875 0.5099881
vt 0.6479865 0.4235911
vt 0.9041939 0.4395525
vt 0.5000003 0.7422184
vt 0.5552151 0.8459481
vt 0.5559513 0.7385374

usemtl sn16_15_sn16g18.jpg
usemap sn16_15_sn16g18.jpg
f 3/3/3 1/1/1 2/2/2
f 2/2/2 1/1/1 4/4/4
f 7/7/7 5/5/5 6/6/6
f 6/6/6 5/5/5 8/8/8
f 11/11/11 9/9/9 10/10/10
f 10/10/10 9/9/9 12/12/12
f 15/15/15 13/13/13 14/14/14
f 14/14/14 13/13/13 16/16/16
f 19/19/19 17/17/17 18/18/18
f 18/18/18 17/17/17 20/20/20
f 22/22/22 7/7/7 21/21/21
f 21/21/21 7/7/7 6/6/6
f 24/24/24 11/11/11 23/23/23
f 23/23/23 11/11/11 10/10/10
f 26/26/26 15/15/15 25/25/25
f 25/25/25 15/15/15 14/14/14
f 29/29/29 27/27/27 28/28/28
f 28/28/28 27/27/27 30/30/30
f 32/32/32 22/22/22 31/31/31
f 31/31/31 22/22/22 21/21/21
f 35/35/35 33/33/33 34/34/34
f 34/34/34 33/33/33 36/36/36
f 38/38/38 26/26/26 37/37/37
f 37/37/37 26/26/26 25/25/25
f 41/41/41 39/39/39 40/40/40
f 40/40/40 39/39/39 42/42/42
f 45/45/45 43/43/43 44/44/44
f 44/44/44 43/43/43 46/46/46
f 49/49/49 47/47/47 48/48/48
f 48/48/48 47/47/47 50/50/50
f 53/53/53 51/51/51 52/52/52
f 52/52/52 51/51/51 54/54/54
f 57/57/57 55/55/55 56/56/56
f 56/56/56 55/55/55 58/58/58
f 60/60/60 45/45/45 59/59/59
f 59/59/59 45/45/45 44/44/44
f 62/62/62 49/49/49 61/61/61
f 61/61/61 49/49/49 48/48/48
f 64/64/64 53/53/53 63/63/63
f 63/63/63 53/53/53 52/52/52
f 67/67/67 65/65/65 66/66/66
f 69/69/69 65/65/65 68/68/68
f 71/71/71 70/70/70 59/59/59
f 70/70/70 71/71/71 72/72/72
