mtllib ./WZ2.mtl
g WZ2
v -184.3192 -796.8713 -168.8979
v -184.3192 -728.511 -168.8979
v -106.2954 -728.511 -226.1074
v -105.6544 -796.8713 -226.5774
v -234.923 -796.8713 -85.50549
v -234.923 -728.511 -85.50549
v -249.7619 -796.8713 10.90442
v -249.7619 -728.511 10.90442
v -226.5768 -796.8713 105.6542
v -226.5768 -728.511 105.6542
v -168.8974 -796.8713 184.3188
v -168.8974 -728.511 184.3188
v -85.50488 -796.8713 234.9227
v -85.50488 -728.511 234.9227
v 10.905 -796.8713 249.7616
v 10.905 -728.511 249.7616
v -85.50488 -728.511 234.9227
v -85.50488 -796.8713 234.9227
v 105.6547 -796.8713 226.5764
v 105.6547 -728.511 226.5764
v 184.3195 -796.8713 168.8971
v 184.3195 -728.511 168.8971
v 234.9232 -796.8713 85.50452
v 234.9232 -728.511 85.50452
v 249.7621 -796.8713 -10.9054
v 249.7621 -728.511 -10.9054
v 226.577 -796.8713 -105.655
v 226.577 -728.511 -105.655
v 168.8976 -796.8713 -184.3198
v 168.8976 -728.511 -184.3198
v 85.50508 -796.8713 -234.9236
v 85.50508 -728.511 -234.9236
v -10.9048 -796.8713 -249.7625
v -10.9048 -728.511 -249.7625
v -107.5963 -589.7692 -225.1536
v -184.3192 -523.9745 -168.8979
v -184.3192 -477.8153 -168.8979
v -105.6544 -477.8153 -226.5774
v -184.3192 -589.7692 -168.8979
v -234.923 -589.7692 -85.50549
v -234.923 -477.8153 -85.50549
v -184.3192 -477.8153 -168.8979
v -249.7619 -589.7692 10.90442
v -249.7619 -477.8153 10.90442
v -226.5768 -589.7692 105.6542
v -226.5768 -477.8153 105.6542
v -168.8974 -589.7692 184.3188
v -168.8974 -477.8153 184.3188
v -85.50488 -589.7692 234.9227
v -85.50488 -477.8153 234.9227
v -85.50488 -589.7692 234.9227
v 10.905 -589.7692 249.7616
v 10.905 -477.8153 249.7616
v -85.50488 -477.8153 234.9227
v 105.6547 -589.7692 226.5764
v 105.6547 -477.8153 226.5764
v 184.3195 -589.7692 168.8971
v 184.3195 -477.8153 168.8971
v 234.9232 -589.7692 85.50452
v 234.9232 -477.8153 85.50452
v 249.7621 -589.7692 -10.9054
v 249.7621 -477.8153 -10.9054
v 226.577 -589.7692 -105.655
v 226.577 -477.8153 -105.655
v 168.8976 -589.7692 -184.3198
v 168.8976 -477.8153 -184.3198
v 85.50508 -589.7692 -234.9236
v 85.50508 -477.8153 -234.9236
v -10.9048 -589.7692 -249.7625
v -10.9048 -477.8153 -249.7625
v -234.923 -318.2873 -85.50549
v -185.0817 -318.2873 -169.6461
v -249.7619 -318.2873 10.90442
v -226.5768 -318.2873 105.6542
v -168.8974 -424.7125 184.3188
v -168.8974 -318.2873 184.3188
v 105.6547 -477.8153 226.5764
v 105.6547 -318.2873 226.5764
v 10.905 -318.2873 249.7616
v 184.3195 -318.2873 168.8971
v 234.9232 -318.2873 85.50452
v 249.7621 -318.2873 -10.9054
v 226.577 -318.2873 -105.655
v 168.8976 -318.2873 -184.3198
v 85.50508 -318.2873 -234.9236
v -10.9048 -402.1218 -249.7625
v -10.9048 -318.2873 -249.7625
v -105.6544 -382.889 -226.5774
v -56.53561 -400.9876 -238.5967
v -234.923 -158.7593 -85.50549
v -184.3192 -158.7593 -168.8979
v -249.7619 -158.7593 10.90442
v -226.5768 -158.7593 105.6542
v -168.8974 -223.2383 184.3188
v -168.8974 -158.7593 184.3188
v -85.50488 -158.7593 234.9227
v -85.50488 -242.6014 234.9227
v -85.50488 -318.2873 234.9227
v 10.905 -158.7593 249.7616
v -85.50488 -158.7593 234.9227
v -85.50488 -242.6014 234.9227
v 105.6547 -318.2873 226.5764
v 105.6547 -158.7593 226.5764
v 184.3195 -158.7593 168.8971
v 234.9232 -158.7593 85.50452
v 249.7621 -158.7593 -10.9054
v 226.577 -158.7593 -105.655
v 168.8976 -158.7593 -184.3198
v 85.50508 -158.7593 -234.9236
v -10.9048 -158.7593 -249.7625
v -105.6544 -318.2873 -226.5774
v -106.0016 -158.7593 -226.3229
v -184.3192 -124.7037 -168.8979
v -234.923 0.7687378 -85.50549
v -184.3192 0.7687378 -168.8979
v -249.7619 0.7687378 10.90442
v -226.5768 0.7687378 105.6542
v -168.8974 -158.7593 184.3188
v -168.8974 0.7687378 184.3188
v -85.50488 -158.7593 234.9227
v -85.50488 0.7687378 234.9227
v 10.905 0.7687378 249.7616
v -85.50488 0.7687378 234.9227
v 105.6547 -158.7593 226.5764
v 105.6547 0.7687378 226.5764
v 184.3195 -158.7593 168.8971
v 184.3195 0.7687378 168.8971
v 234.9232 0.7687378 85.50452
v 249.7621 0.7687378 -10.9054
v 226.577 0.7687378 -105.655
v 168.8976 0.7687378 -184.3198
v 85.50508 0.7687378 -234.9236
v -10.9048 0.7687378 -249.7625
v 38.89532 0.7687378 167.5844
v 178.6063 0.7687378 -38.99463
v -29.03214 0.7687378 -176.9452
v -165.8385 0.7687378 30.13123
v -29.03214 0.7687378 -176.9452
v -105.6544 0.7687378 -226.5774
v -184.3192 0.7687378 -168.8979
v -165.8385 0.7687378 30.13123
v -234.923 0.7687378 -85.50549
v -249.7619 0.7687378 10.90442
v -226.5768 0.7687378 105.6542
v -168.8974 0.7687378 184.3188
v -85.50488 0.7687378 234.9227
v 38.89532 0.7687378 167.5844
v 10.905 0.7687378 249.7616
v 105.6547 0.7687378 226.5764
v 184.3195 0.7687378 168.8971
v 234.9232 0.7687378 85.50452
v -10.9048 0.7687378 -249.7625
v 85.50508 0.7687378 -234.9236
v 168.8976 0.7687378 -184.3198
v 178.6063 0.7687378 -38.99463
v 226.577 0.7687378 -105.655
v 249.7621 0.7687378 -10.9054
v -105.6544 0.7687378 -226.5774
v -85.50488 -318.2873 234.9227
v -85.13791 -444.9873 234.9791
v -168.8974 -424.7125 184.3188
v -85.13791 -444.9873 234.9791
v -85.13791 -444.9873 234.9791
v -85.50488 -477.8153 234.9227
v -184.3192 -728.511 -168.8979
v -184.3192 -589.7692 -168.8979
v -107.5963 -589.7692 -225.1536
v -106.2954 -728.511 -226.1074
v -234.923 -589.7692 -85.50549
v -234.923 -728.511 -85.50549
v -249.7619 -589.7692 10.90442
v -249.7619 -728.511 10.90442
v -226.5768 -589.7692 105.6542
v -226.5768 -728.511 105.6542
v -168.8974 -589.7692 184.3188
v -168.8974 -728.511 184.3188
v -85.50488 -589.7692 234.9227
v -85.50488 -728.511 234.9227
v 10.905 -589.7692 249.7616
v -85.50488 -589.7692 234.9227
v -85.50488 -728.511 234.9227
v 10.905 -728.511 249.7616
v 105.6547 -589.7692 226.5764
v 105.6547 -728.511 226.5764
v 184.3195 -589.7692 168.8971
v 184.3195 -728.511 168.8971
v 234.9232 -589.7692 85.50452
v 234.9232 -728.511 85.50452
v 249.7621 -589.7692 -10.9054
v 249.7621 -728.511 -10.9054
v 226.577 -589.7692 -105.655
v 226.577 -728.511 -105.655
v 168.8976 -589.7692 -184.3198
v 168.8976 -728.511 -184.3198
v 85.50508 -589.7692 -234.9236
v 85.50508 -728.511 -234.9236
v -10.9048 -589.7692 -249.7625
v -10.9048 -728.511 -249.7625

vn -0.6912258 -9.512691E-08 -0.7226389
vn -0.7808078 0 -0.6247713
vn -0.4816523 0.001508709 -0.8763612
vn -0.3623983 0.001504694 -0.932022
vn -0.9150062 0 -0.4034397
vn -0.9602615 0 -0.2791017
vn -0.9997452 0 -0.02257201
vn -0.9939736 0 0.1096198
vn -0.932282 0 0.3617322
vn -0.876362 0 0.481653
vn -0.7228871 0 0.6909662
vn -0.6253324 0 0.7803585
vn -0.5187733 0 0.8549119
vn -0.5187733 0 0.8549119
vn -0.02257201 0 0.9997452
vn 0.1096201 0 0.9939736
vn -0.1521237 0 0.9883615
vn -0.1521237 0 0.9883615
vn 0.3617324 0 0.932282
vn 0.4816525 0 0.8763623
vn 0.6909657 0 0.7228875
vn 0.7803585 0 0.6253324
vn 0.9150064 0 0.4034394
vn 0.9602616 0 0.2791015
vn 0.9997452 0 0.02257185
vn 0.9939736 0 -0.10962
vn 0.9322819 0 -0.3617324
vn 0.8763621 0 -0.4816528
vn 0.7228874 0 -0.6909658
vn 0.6253324 0 -0.7803584
vn 0.4034394 0 -0.9150065
vn 0.2791014 0 -0.9602616
vn 0.02257202 0 -0.9997452
vn -0.1109875 0.0015052 -0.9938207
vn -0.4816509 -0.002791114 -0.8763587
vn -0.7389545 0 -0.6737553
vn -0.5913099 1.594436E-07 -0.8064444
vn -0.3850453 -0.001776227 -0.922896
vn -0.7969013 0 -0.6041096
vn -0.9602615 0 -0.2791017
vn -0.943603 0 -0.3310794
vn -0.7615646 -0.003443213 -0.6480799
vn -0.9939736 0 0.1096198
vn -0.9984739 0 0.05522369
vn -0.876362 0 0.4816529
vn -0.9013364 0 0.4331197
vn -0.6253324 0 0.7803585
vn -0.6994601 0.0003048363 0.7146715
vn -0.5187733 0 0.8549119
vn -0.5187732 0.0005535327 0.8549117
vn -0.1521237 0 0.9883615
vn 0.1096201 0 0.9939736
vn 0.02088151 -5.631115E-11 0.999782
vn -0.1521237 0 0.9883615
vn 0.4816525 0 0.8763623
vn 0.47868 0 0.8779894
vn 0.7803586 0 0.6253324
vn 0.7450769 0 0.6669786
vn 0.9602616 0 0.2791015
vn 0.943603 0 0.3310791
vn 0.9939736 0 -0.10962
vn 0.9984739 0 -0.05522389
vn 0.8763621 0 -0.4816529
vn 0.9013364 0 -0.4331198
vn 0.6253324 0 -0.7803584
vn 0.6669786 0 -0.7450768
vn 0.2791014 0 -0.9602616
vn 0.3310791 0 -0.9436031
vn -0.1137431 -0.002771069 -0.9935063
vn -0.03490958 -4.445257E-09 -0.9993905
vn -0.9408436 -0.001106069 -0.3388393
vn -0.7518916 0 -0.6592867
vn -0.9990482 0 0.04361944
vn -0.9063076 0 0.4226185
vn -0.7036695 0 0.7105275
vn -0.6822982 -0.0002101291 0.731074
vn 0.2376866 0 0.9713419
vn 0.4583109 0 0.888792
vn 0.08329845 0 0.9965247
vn 0.7372774 0 0.6755901
vn 0.9396927 0 0.3420198
vn 0.9990482 0 -0.04361963
vn 0.9063076 0 -0.4226186
vn 0.6755901 0 -0.7372774
vn 0.3420197 0 -0.9396928
vn -0.04361931 3.999113E-09 -0.9990482
vn -0.04411333 0.0002082575 -0.9990265
vn -0.4785355 -0.002238581 -0.8780655
vn -0.2376856 -8.919943E-09 -0.9713421
vn -0.9402696 0.001106926 -0.3404289
vn -0.7357298 0.003027242 -0.6772686
vn -0.9990482 0 0.04361944
vn -0.9063076 0 0.4226185
vn -0.6253324 0 0.7803585
vn -0.7521504 0 0.6589916
vn -0.5187733 0 0.8549119
vn -0.5187733 0 0.8549119
vn -0.1521238 -4.805454E-08 0.9883615
vn 0.04361961 0 0.9990482
vn -0.1521237 0 0.9883615
vn -0.1521237 0 0.9883615
vn 0.2376866 0 0.9713419
vn 0.4583109 0 0.888792
vn 0.7635502 0 0.6457485
vn 0.9396927 0 0.3420198
vn 0.9990482 0 -0.04361963
vn 0.9063076 0 -0.4226186
vn 0.67559 0 -0.7372774
vn 0.3420197 0 -0.9396928
vn -0.04445063 -0.0001752304 -0.9990116
vn -0.4367509 0.001775339 -0.8995807
vn -0.4226183 0 -0.9063078
vn -0.7375745 0 -0.6752657
vn -0.9150063 0 -0.4034398
vn -0.6831315 8.689638E-08 -0.7302954
vn -0.9997452 0 -0.02257201
vn -0.9322821 0 0.3617322
vn -0.6253324 0 0.7803586
vn -0.7228872 0 0.6909662
vn -0.5187732 0 0.8549118
vn -0.5187732 0 0.8549118
vn -0.02257202 0 0.9997452
vn -0.1521237 0 0.9883615
vn 0.2376866 0 0.9713419
vn 0.3617323 0 0.932282
vn 0.5913092 0 0.8064449
vn 0.6909657 0 0.7228876
vn 0.9150063 0 0.4034394
vn 0.9997452 0 0.02257186
vn 0.932282 0 -0.3617325
vn 0.7228875 0 -0.6909659
vn 0.4034394 0 -0.9150063
vn 0.02257202 0 -0.9997452
vn 0 1 0
vn 0 1 0
vn 0 1 0
vn 0 1 0
vn 0 1 0
vn 0 1 0
vn 0 1 0
vn 0 1 0
vn 0 1 0
vn 0 1 0
vn 0 1 0
vn 0 1 0
vn 0 1 0
vn 0 1 0
vn 0 1 0
vn 0 1 0
vn 0 1 0
vn 0 1 0
vn 0 1 0
vn 0 1 0
vn 0 1 0
vn 0 1 0
vn 0 1 0
vn 0 1 0
vn -0.3620935 -0.0003495496 -0.9321417
vn -0.5187731 -0.0004777852 0.8549117
vn -0.5180044 0.001650203 0.8553764
vn -0.5175316 0 0.8556641
vn -0.5182053 -0.0006086095 0.855256
vn -0.1521239 -3.38358E-10 0.9883615
vn -0.1521237 7.607749E-07 0.9883615
vn -0.7383887 -7.678877E-09 -0.6743755
vn -0.7389544 0 -0.6737553
vn -0.4813371 0.001513004 -0.8765343
vn -0.3637401 0.001496756 -0.9314992
vn -0.9150062 0 -0.4034397
vn -0.9602615 0 -0.2791017
vn -0.9997452 0 -0.02257201
vn -0.9939736 0 0.1096198
vn -0.9322821 0 0.3617322
vn -0.876362 0 0.481653
vn -0.7228871 0 0.6909662
vn -0.6253324 0 0.7803586
vn -0.5187733 0 0.8549119
vn -0.5187733 0 0.8549119
vn -0.02257201 0 0.9997452
vn -0.1521236 0 0.9883614
vn -0.1521236 0 0.9883614
vn 0.1096201 0 0.9939735
vn 0.3617323 0 0.932282
vn 0.4816525 0 0.8763623
vn 0.6909657 0 0.7228876
vn 0.7803585 0 0.6253324
vn 0.9150063 0 0.4034394
vn 0.9602616 0 0.2791015
vn 0.9997452 0 0.02257185
vn 0.9939736 0 -0.10962
vn 0.932282 0 -0.3617325
vn 0.8763621 0 -0.4816529
vn 0.7228874 0 -0.6909658
vn 0.6253325 0 -0.7803584
vn 0.4034394 0 -0.9150064
vn 0.2791014 0 -0.9602616
vn -0.04823186 0.001126288 -0.9988355
vn -0.04591678 0 -0.9989452

vt 6.319444 0.0004996359
vt 6.319445 0.9949696
vt 5.699416 0.9949696
vt 5.694444 0.0004996359
vt 6.944444 0.0004996359
vt 6.944445 0.9949696
vt 7.569444 0.0004996359
vt 7.569445 0.9949696
vt 8.194445 0.0004996359
vt 8.194445 0.9949696
vt 8.819445 0.0004996359
vt 8.819445 0.9949696
vt 9.444445 0.0004996359
vt 9.444445 0.9949696
vt 0.06944448 0.0004996657
vt 0.06944451 0.9949696
vt -0.5555558 0.9949696
vt -0.5555558 0.0004996359
vt 0.6944445 0.0004996359
vt 0.6944445 0.9949696
vt 1.319445 0.0004996359
vt 1.319445 0.9949696
vt 1.944445 0.0004996359
vt 1.944445 0.9949696
vt 2.569444 0.0004996359
vt 2.569445 0.9949696
vt 3.194444 0.0004996359
vt 3.194444 0.9949696
vt 3.819444 0.0004996359
vt 3.819445 0.9949696
vt 4.444445 0.0004996359
vt 4.444445 0.9949696
vt 5.069444 0.0004996359
vt 5.069445 0.9949696
vt 5.709507 0.002997279
vt 6.319444 0.6708178
vt 6.319444 1.139338
vt 5.694444 1.139338
vt 6.319444 0.002997279
vt 6.944444 0.002997279
vt 6.944444 1.139338
vt 6.319444 1.139338
vt 7.569444 0.002997279
vt 7.569444 1.139338
vt 8.194445 0.002997279
vt 8.194445 1.139338
vt 8.819445 0.002997279
vt 8.819445 1.139338
vt 9.444445 0.002997279
vt 9.444445 1.139338
vt -0.5555558 0.002997279
vt 0.06944458 0.002997279
vt 0.06944458 1.139338
vt -0.5555558 1.139338
vt 0.6944445 0.002997279
vt 0.6944445 1.139338
vt 1.319445 0.002997279
vt 1.319445 1.139338
vt 1.944445 0.002997279
vt 1.944445 1.139338
vt 2.569444 0.002997279
vt 2.569444 1.139338
vt 3.194444 0.002997279
vt 3.194444 1.139338
vt 3.819444 0.002997279
vt 3.819444 1.139338
vt 4.444445 0.002997279
vt 4.444445 1.139338
vt 5.069444 0.002997279
vt 5.069444 1.139338
vt 6.944444 2.75856
vt 6.319444 2.75856
vt 7.569444 2.75856
vt 8.194445 2.75856
vt 8.819445 1.678336
vt 8.819445 2.75856
vt 0.6944445 1.139338
vt 0.6944445 2.75856
vt 0.06944458 2.75856
vt 1.319445 2.75856
vt 1.944445 2.75856
vt 2.569444 2.75856
vt 3.194444 2.75856
vt 3.819444 2.75856
vt 4.444445 2.75856
vt 5.069444 1.907632
vt 5.069444 2.75856
vt 5.694444 2.102847
vt 5.37029 1.919145
vt 6.944444 4.377781
vt 6.319444 4.377781
vt 7.569444 4.377781
vt 8.194445 4.377781
vt 8.819445 3.723315
vt 8.819445 4.377781
vt 9.444445 4.377781
vt 9.444445 3.526777
vt -0.5555558 2.75856
vt 0.06944458 4.377781
vt -0.5555559 4.377781
vt -0.5555559 3.526778
vt 0.6944445 2.75856
vt 0.6944445 4.377781
vt 1.319445 4.377781
vt 1.944445 4.377781
vt 2.569444 4.377781
vt 3.194444 4.377781
vt 3.819444 4.377781
vt 4.444445 4.377781
vt 5.069444 4.377781
vt 5.694444 2.75856
vt 5.697133 4.377781
vt 6.319444 4.723448
vt 6.944444 5.997003
vt 6.319444 5.997003
vt 7.569444 5.997003
vt 8.194445 5.997003
vt 8.819445 4.377781
vt 8.819445 5.997003
vt 9.444445 4.377781
vt 9.444445 5.997003
vt 0.06944458 5.997003
vt -0.5555558 5.997003
vt 0.6944445 4.377781
vt 0.6944445 5.997003
vt 1.319445 4.377781
vt 1.319445 5.997003
vt 1.944445 5.997003
vt 2.569444 5.997003
vt 3.194444 5.997003
vt 3.819444 5.997003
vt 4.444445 5.997003
vt 5.069444 5.997003
vt 0.006870508 0.9985353
vt 0.005637556 0.0009868741
vt 1.002762 0.00796169
vt 0.9932499 1.000663
vt 0.9985834 0.0121384
vt 1.36369 0.01893711
vt 1.495539 0.3861657
vt 0.9890716 1.004839
vt 1.476819 0.775897
vt 1.31038 1.128798
vt 1.021562 1.391142
vt 0.6543329 1.522991
vt 0.2646016 1.504271
vt 0.002692282 1.002712
vt -0.08829933 1.337832
vt -0.3506438 1.049013
vt -0.4824924 0.6817848
vt -0.4637723 0.2920535
vt 1.101346 -0.2698814
vt 0.7484452 -0.4363203
vt 0.3587139 -0.4550404
vt 0.001459301 0.00516355
vt -0.008514702 -0.3231918
vt -0.2973335 -0.06084734
vt 5.694444 5.997003
vt 9.444445 2.75856
vt 9.446763 1.472545
vt 8.819445 1.678336
vt 9.446763 1.472545
vt -0.5531767 1.472545
vt -0.5555558 1.139338
vt 6.319445 0.01021332
vt 6.319444 0.9995006
vt 5.709507 0.9995006
vt 5.699416 0.01021335
vt 6.944444 0.9995006
vt 6.944445 0.01021332
vt 7.569444 0.9995006
vt 7.569445 0.01021332
vt 8.194445 0.9995006
vt 8.194445 0.01021332
vt 8.819445 0.9995006
vt 8.819445 0.01021332
vt 9.444445 0.9995006
vt 9.444445 0.01021332
vt 0.06944458 0.9995006
vt -0.5555558 0.9995006
vt -0.5555558 0.01021332
vt 0.06944451 0.01021335
vt 0.6944445 0.9995006
vt 0.6944445 0.01021332
vt 1.319445 0.9995006
vt 1.319445 0.01021332
vt 1.944445 0.9995006
vt 1.944445 0.01021332
vt 2.569444 0.9995006
vt 2.569445 0.01021332
vt 3.194444 0.9995006
vt 3.194444 0.01021332
vt 3.819444 0.9995006
vt 3.819445 0.01021332
vt 4.444445 0.9995006
vt 4.444445 0.01021332
vt 5.069444 0.9995006
vt 5.069445 0.01021332

usemtl sn16_01_sn16g06.jpg
usemap sn16_01_sn16g06.jpg
f 3/3/3 1/1/1 2/2/2
f 1/1/1 3/3/3 4/4/4
f 2/2/2 5/5/5 6/6/6
f 5/5/5 2/2/2 1/1/1
f 6/6/6 7/7/7 8/8/8
f 7/7/7 6/6/6 5/5/5
f 8/8/8 9/9/9 10/10/10
f 9/9/9 8/8/8 7/7/7
f 10/10/10 11/11/11 12/12/12
f 11/11/11 10/10/10 9/9/9
f 12/12/12 13/13/13 14/14/14
f 13/13/13 12/12/12 11/11/11
f 17/17/17 15/15/15 16/16/16
f 15/15/15 17/17/17 18/18/18
f 16/16/16 19/19/19 20/20/20
f 19/19/19 16/16/16 15/15/15
f 20/20/20 21/21/21 22/22/22
f 21/21/21 20/20/20 19/19/19
f 22/22/22 23/23/23 24/24/24
f 23/23/23 22/22/22 21/21/21
f 24/24/24 25/25/25 26/26/26
f 25/25/25 24/24/24 23/23/23
f 26/26/26 27/27/27 28/28/28
f 27/27/27 26/26/26 25/25/25
f 28/28/28 29/29/29 30/30/30
f 29/29/29 28/28/28 27/27/27
f 30/30/30 31/31/31 32/32/32
f 31/31/31 30/30/30 29/29/29
f 32/32/32 33/33/33 34/34/34
f 33/33/33 32/32/32 31/31/31
f 34/34/34 4/4/4 3/3/3
f 4/4/4 34/34/34 33/33/33

usemtl sn16_00_sn1641.jpg
usemap sn16_00_sn1641.jpg
f 37/37/37 35/35/35 36/36/36
f 35/35/35 37/37/37 38/38/38
f 36/36/36 35/35/35 39/39/39
f 41/41/41 39/39/39 40/40/40
f 36/36/36 41/41/41 42/42/42
f 36/36/36 39/39/39 41/41/41
f 44/44/44 40/40/40 43/43/43
f 40/40/40 44/44/44 41/41/41
f 46/46/46 43/43/43 45/45/45
f 43/43/43 46/46/46 44/44/44
f 48/48/48 45/45/45 47/47/47
f 45/45/45 48/48/48 46/46/46
f 50/50/50 47/47/47 49/49/49
f 47/47/47 50/50/50 48/48/48
f 53/53/53 51/51/51 52/52/52
f 51/51/51 53/53/53 54/54/54
f 56/56/56 52/52/52 55/55/55
f 52/52/52 56/56/56 53/53/53
f 58/58/58 55/55/55 57/57/57
f 55/55/55 58/58/58 56/56/56
f 60/60/60 57/57/57 59/59/59
f 57/57/57 60/60/60 58/58/58
f 62/62/62 59/59/59 61/61/61
f 59/59/59 62/62/62 60/60/60
f 64/64/64 61/61/61 63/63/63
f 61/61/61 64/64/64 62/62/62
f 66/66/66 63/63/63 65/65/65
f 63/63/63 66/66/66 64/64/64
f 68/68/68 65/65/65 67/67/67
f 65/65/65 68/68/68 66/66/66
f 70/70/70 67/67/67 69/69/69
f 67/67/67 70/70/70 68/68/68
f 38/38/38 69/69/69 35/35/35
f 69/69/69 38/38/38 70/70/70
f 71/71/71 42/42/42 41/41/41
f 42/42/42 71/71/71 72/72/72
f 73/73/73 41/41/41 44/44/44
f 41/41/41 73/73/73 71/71/71
f 74/74/74 44/44/44 46/46/46
f 44/44/44 74/74/74 73/73/73
f 75/75/75 46/46/46 48/48/48
f 76/76/76 46/46/46 75/75/75
f 74/74/74 46/46/46 76/76/76
f 78/78/78 53/53/53 77/77/77
f 53/53/53 78/78/78 79/79/79
f 80/80/80 56/56/56 58/58/58
f 56/56/56 80/80/80 78/78/78
f 81/81/81 58/58/58 60/60/60
f 58/58/58 81/81/81 80/80/80
f 82/82/82 60/60/60 62/62/62
f 60/60/60 82/82/82 81/81/81
f 83/83/83 62/62/62 64/64/64
f 62/62/62 83/83/83 82/82/82
f 84/84/84 64/64/64 66/66/66
f 64/64/64 84/84/84 83/83/83
f 85/85/85 66/66/66 68/68/68
f 66/66/66 85/85/85 84/84/84
f 86/86/86 68/68/68 70/70/70
f 87/87/87 68/68/68 86/86/86
f 85/85/85 68/68/68 87/87/87
f 88/88/88 70/70/70 38/38/38
f 89/89/89 70/70/70 88/88/88
f 86/86/86 70/70/70 89/89/89
f 90/90/90 72/72/72 71/71/71
f 72/72/72 90/90/90 91/91/91
f 92/92/92 71/71/71 73/73/73
f 71/71/71 92/92/92 90/90/90
f 93/93/93 73/73/73 74/74/74
f 73/73/73 93/93/93 92/92/92
f 94/94/94 74/74/74 76/76/76
f 95/95/95 74/74/74 94/94/94
f 93/93/93 74/74/74 95/95/95
f 94/94/94 96/96/96 95/95/95
f 96/96/96 94/94/94 97/97/97
f 99/99/99 98/98/98 79/79/79
f 101/101/101 99/99/99 100/100/100
f 101/101/101 98/98/98 99/99/99
f 103/103/103 79/79/79 102/102/102
f 79/79/79 103/103/103 99/99/99
f 104/104/104 78/78/78 80/80/80
f 78/78/78 104/104/104 103/103/103
f 105/105/105 80/80/80 81/81/81
f 80/80/80 105/105/105 104/104/104
f 106/106/106 81/81/81 82/82/82
f 81/81/81 106/106/106 105/105/105
f 107/107/107 82/82/82 83/83/83
f 82/82/82 107/107/107 106/106/106
f 108/108/108 83/83/83 84/84/84
f 83/83/83 108/108/108 107/107/107
f 109/109/109 84/84/84 85/85/85
f 84/84/84 109/109/109 108/108/108
f 110/110/110 85/85/85 87/87/87
f 85/85/85 110/110/110 109/109/109
f 112/112/112 87/87/87 111/111/111
f 87/87/87 112/112/112 110/110/110
f 113/113/113 112/112/112 91/91/91
f 114/114/114 91/91/91 90/90/90
f 113/113/113 114/114/114 115/115/115
f 113/113/113 91/91/91 114/114/114
f 116/116/116 90/90/90 92/92/92
f 90/90/90 116/116/116 114/114/114
f 117/117/117 92/92/92 93/93/93
f 92/92/92 117/117/117 116/116/116
f 119/119/119 93/93/93 118/118/118
f 93/93/93 119/119/119 117/117/117
f 121/121/121 118/118/118 120/120/120
f 118/118/118 121/121/121 119/119/119
f 122/122/122 100/100/100 99/99/99
f 100/100/100 122/122/122 123/123/123
f 125/125/125 99/99/99 124/124/124
f 99/99/99 125/125/125 122/122/122
f 127/127/127 103/103/103 126/126/126
f 103/103/103 127/127/127 125/125/125
f 128/128/128 104/104/104 105/105/105
f 104/104/104 128/128/128 127/127/127
f 129/129/129 105/105/105 106/106/106
f 105/105/105 129/129/129 128/128/128
f 130/130/130 106/106/106 107/107/107
f 106/106/106 130/130/130 129/129/129
f 131/131/131 107/107/107 108/108/108
f 107/107/107 131/131/131 130/130/130
f 132/132/132 108/108/108 109/109/109
f 108/108/108 132/132/132 131/131/131
f 133/133/133 109/109/109 110/110/110
f 109/109/109 133/133/133 132/132/132
f 110/110/110 158/158/158 133/133/133
f 158/158/158 110/110/110 112/112/112
f 112/112/112 115/115/115 158/158/158
f 115/115/115 112/112/112 113/113/113
f 42/42/42 88/88/88 38/38/38
f 72/72/72 88/88/88 42/42/42
f 111/111/111 88/88/88 72/72/72
f 111/111/111 89/89/89 88/88/88
f 86/86/86 111/111/111 87/87/87
f 86/86/86 89/89/89 111/111/111
f 91/91/91 111/111/111 72/72/72
f 111/111/111 91/91/91 112/112/112
f 94/94/94 159/159/159 97/97/97
f 159/159/159 94/94/94 76/76/76
f 160/160/160 48/48/48 50/50/50
f 48/48/48 160/160/160 161/161/161
f 76/76/76 162/162/162 159/159/159
f 162/162/162 76/76/76 75/75/75
f 98/98/98 53/53/53 79/79/79
f 163/163/163 53/53/53 98/98/98
f 163/163/163 164/164/164 53/53/53

usemtl sn16_03_sn16g15.jpg
usemap sn16_03_sn16g15.jpg
f 136/136/136 134/134/134 135/135/135
f 134/134/134 136/136/136 137/137/137

usemtl sn16_02_sn1644.jpg
usemap sn16_02_sn1644.jpg
f 140/140/140 138/138/138 139/139/139
f 140/140/140 141/141/141 138/138/138
f 142/142/142 141/141/141 140/140/140
f 143/143/143 141/141/141 142/142/142
f 144/144/144 141/141/141 143/143/143
f 145/145/145 141/141/141 144/144/144
f 146/146/146 141/141/141 145/145/145
f 146/146/146 147/147/147 141/141/141
f 148/148/148 147/147/147 146/146/146
f 149/149/149 147/147/147 148/148/148
f 150/150/150 147/147/147 149/149/149
f 151/151/151 147/147/147 150/150/150
f 138/138/138 152/152/152 139/139/139
f 138/138/138 153/153/153 152/152/152
f 138/138/138 154/154/154 153/153/153
f 155/155/155 154/154/154 138/138/138
f 155/155/155 156/156/156 154/154/154
f 155/155/155 157/157/157 156/156/156
f 155/155/155 151/151/151 157/157/157
f 155/155/155 147/147/147 151/151/151

usemtl sn16_04_sn16g07.jpg
usemap sn16_04_sn16g07.jpg
f 167/167/167 165/165/165 166/166/166
f 165/165/165 167/167/167 168/168/168
f 165/165/165 169/169/169 166/166/166
f 169/169/169 165/165/165 170/170/170
f 170/170/170 171/171/171 169/169/169
f 171/171/171 170/170/170 172/172/172
f 172/172/172 173/173/173 171/171/171
f 173/173/173 172/172/172 174/174/174
f 174/174/174 175/175/175 173/173/173
f 175/175/175 174/174/174 176/176/176
f 176/176/176 177/177/177 175/175/175
f 177/177/177 176/176/176 178/178/178
f 181/181/181 179/179/179 180/180/180
f 179/179/179 181/181/181 182/182/182
f 182/182/182 183/183/183 179/179/179
f 183/183/183 182/182/182 184/184/184
f 184/184/184 185/185/185 183/183/183
f 185/185/185 184/184/184 186/186/186
f 186/186/186 187/187/187 185/185/185
f 187/187/187 186/186/186 188/188/188
f 188/188/188 189/189/189 187/187/187
f 189/189/189 188/188/188 190/190/190
f 190/190/190 191/191/191 189/189/189
f 191/191/191 190/190/190 192/192/192
f 192/192/192 193/193/193 191/191/191
f 193/193/193 192/192/192 194/194/194
f 194/194/194 195/195/195 193/193/193
f 195/195/195 194/194/194 196/196/196
f 196/196/196 197/197/197 195/195/195
f 197/197/197 196/196/196 198/198/198
f 197/197/197 168/168/168 167/167/167
f 168/168/168 197/197/197 198/198/198
