mtllib ./yiz08.mtl
g yiz08
v 288.4804 384.3061 82.4974
v 225.0541 384.3061 3.744228
v 216.3824 384.3061 61.83725
v 301.1107 384.3061 4.965224
v 218.3145 384.3061 -55.75851
v 292.1514 384.3061 -73.99016
v 257.2647 384.3061 154.3229
v 192.9705 384.3061 115.7064
v 10.93668 392.7081 -8.951241
v -247.815 392.7081 41.22961
v -213.2398 392.7081 132.4413
v -146.3914 392.7081 203.4786
v -57.44658 392.7081 243.5267
v 40.0535 392.7081 246.4886
v 131.2651 392.7081 211.9134
v 202.3025 392.7081 145.0649
v 242.3506 392.7081 56.12008
v 245.3123 392.7081 -41.37992
v 210.7372 392.7081 -132.5916
v 143.8886 392.7081 -203.6289
v 54.94386 392.7081 -243.677
v -42.55609 392.7081 -246.6389
v -133.7679 392.7081 -212.0637
v -204.8051 392.7081 -145.2152
v -244.8532 392.7081 -56.27034

vn 0 1 0
vn 0 1 0
vn 0 1 0
vn 0 1 0
vn 0 1 0
vn 0 1 0
vn 0 1 0
vn 0 1 0
vn 0 0.9999999 0
vn 0 1 0
vn 0 0.9999999 0
vn 0 1 0
vn 0 0.9999999 0
vn 0 1 0
vn 0 1 0
vn 0 0.9999999 0
vn 0 1 0
vn 0 1 0
vn 0 1 0
vn 0 1 0
vn 0 1 0
vn 0 1 0
vn 0 1 0
vn 0 0.9999999 0
vn 0 1 0

vt 0.03328201 0.704043
vt 0.1386113 0.5359111
vt 0.1617927 0.6520787
vt 0.002373546 0.549153
vt 0.1432832 0.4170364
vt 0.008602619 0.3906534
vt 0.09922165 0.8447679
vt 0.2112474 0.7576224
vt 0.5264683 0.4799231
vt 1.003532 0.5446742
vt 0.9522712 0.7338955
vt 0.839733 0.8869197
vt 0.6830507 0.9804504
vt 0.5060775 1.000248
vt 0.3357562 0.9432989
vt 0.1980164 0.8182729
vt 0.1138279 0.644204
vt 0.0960077 0.4475928
vt 0.1472686 0.2583715
vt 0.2598068 0.1053473
vt 0.4164891 0.01181668
vt 0.5934622 -0.007981002
vt 0.7637837 0.04896817
vt 0.9015235 0.1739942
vt 0.9857119 0.3480631

usemtl sn16_24_sn16g25.jpg
usemap sn16_24_sn16g25.jpg
f 3/3/3 1/1/1 2/2/2
f 1/1/1 4/4/4 2/2/2
f 4/4/4 5/5/5 2/2/2
f 6/6/6 5/5/5 4/4/4
f 3/3/3 7/7/7 1/1/1
f 8/8/8 7/7/7 3/3/3
f 11/11/11 9/9/9 10/10/10
f 12/12/12 9/9/9 11/11/11
f 13/13/13 9/9/9 12/12/12
f 14/14/14 9/9/9 13/13/13
f 15/15/15 9/9/9 14/14/14
f 16/16/16 9/9/9 15/15/15
f 17/17/17 9/9/9 16/16/16
f 18/18/18 9/9/9 17/17/17
f 19/19/19 9/9/9 18/18/18
f 20/20/20 9/9/9 19/19/19
f 21/21/21 9/9/9 20/20/20
f 22/22/22 9/9/9 21/21/21
f 23/23/23 9/9/9 22/22/22
f 24/24/24 9/9/9 23/23/23
f 25/25/25 9/9/9 24/24/24
f 10/10/10 9/9/9 25/25/25
