mtllib ./yiz05.mtl
g yiz05
v -2.498058 389.6565 -5.959811
v -246.8944 389.6565 37.44701
v -214.0408 389.6565 129.2342
v -148.5627 389.6565 201.4619
v -60.42838 389.6565 243.1343
v 36.94433 389.6565 247.907
v 128.7315 389.6565 215.0534
v 200.9593 389.6565 149.5753
v 242.6317 389.6565 61.44099
v 247.4044 389.6565 -35.9318
v 214.5508 389.6565 -127.719
v 149.0727 389.6565 -199.9467
v -242.1217 389.6565 -59.92576
v -200.4493 389.6565 -148.06
v -128.2215 389.6565 -213.5382
v -36.43446 389.6565 -246.3917
v 60.93838 389.6565 -241.6191

vn 0 0.9999999 0
vn 0 1 0
vn 0 1 0
vn 0 0.9999999 0
vn 0 0.9999999 0
vn 0 1 0
vn 0 0.9999999 0
vn 0 1 0
vn 0 1 0
vn 0 1 0
vn 0 1 0
vn 0 1 0
vn 0 0.9999999 0
vn 0 0.9999999 0
vn 0 1 0
vn 0 1 0
vn 0 1 0

vt 0.4888358 0.4906845
vt 0.7193757 0.05021289
vt 0.8748028 0.1684023
vt 0.9731696 0.3370746
vt 0.9995005 0.5305507
vt 0.949787 0.7193757
vt 0.8315976 0.8748029
vt 0.6629254 0.9731696
vt 0.4694493 0.9995005
vt 0.2806243 0.9497871
vt 0.1251972 0.8315976
vt 0.02683052 0.6629254
vt 0.5305508 0.0004994571
vt 0.3370746 0.0268304
vt 0.1684025 0.1251972
vt 0.05021304 0.2806242
vt 0.0004994571 0.4694492

usemtl sn16_22_sn16g24.jpg
usemap sn16_22_sn16g24.jpg
f 3/3/3 1/1/1 2/2/2
f 4/4/4 1/1/1 3/3/3
f 5/5/5 1/1/1 4/4/4
f 6/6/6 1/1/1 5/5/5
f 7/7/7 1/1/1 6/6/6
f 8/8/8 1/1/1 7/7/7
f 9/9/9 1/1/1 8/8/8
f 10/10/10 1/1/1 9/9/9
f 11/11/11 1/1/1 10/10/10
f 12/12/12 1/1/1 11/11/11
f 1/1/1 13/13/13 2/2/2
f 1/1/1 14/14/14 13/13/13
f 1/1/1 15/15/15 14/14/14
f 1/1/1 16/16/16 15/15/15
f 1/1/1 17/17/17 16/16/16
f 1/1/1 12/12/12 17/17/17
