mtllib ./zhu02.mtl
g zhu02
v 52.15021 -1.526123 82.30676
v 40.78746 82.98309 79.87439
v 52.43806 82.98309 82.03369
v 40.9583 -1.526123 80.23254
v 40.9583 -1.526123 80.23254
v 35.13361 82.98309 90.28748
v 40.78746 82.98309 79.87439
v 35.52704 -1.526123 90.2356
v 35.52704 -1.526123 90.2356
v 43.28993 82.98309 98.88245
v 35.13361 82.98309 90.28748
v 43.36224 -1.526123 98.49219
v 43.36224 -1.526123 98.49219
v 53.98466 82.98309 93.78125
v 43.28993 82.98309 98.88245
v 53.63593 -1.526123 93.59192
v 53.63593 -1.526123 93.59192
v 52.43806 82.98309 82.03369
v 53.98466 82.98309 93.78125
v 52.15021 -1.526123 82.30676
v 39.86494 100.0001 77.94019
v 53.99243 100.0001 80.55859
v 33.00908 100.0001 90.56714
v 39.86494 100.0001 77.94019
v 42.89943 100.0001 100.9894
v 33.00908 100.0001 90.56714
v 55.86784 100.0001 94.80371
v 42.89943 100.0001 100.9894
v 53.99243 100.0001 80.55859
v 55.86784 100.0001 94.80371
v 45.12674 100.0001 88.9718
v 53.99243 100.0001 80.55859
v 39.86494 100.0001 77.94019
v 33.00908 100.0001 90.56714
v 42.89943 100.0001 100.9894
v 55.86784 100.0001 94.80371
v -56.2946 -0.5377197 310.8049
v -56.29463 -0.5377197 297.3699
v -56.84071 41.24957 297.7957
v -56.29463 -0.5377197 297.3699
v -69.07216 -0.5377197 293.2181
v -68.86833 40.28955 293.8455
v -69.07216 -0.5377197 293.2181
v -76.96907 -0.5377197 304.0874
v -76.47356 30.1377 304.0874
v -76.96907 -0.5377197 304.0874
v -74.26335 26.64404 307.207
v -76.47356 30.1377 304.0874
v -69.07216 -0.5377197 314.9565
v -68.96233 21.45911 314.6187
v -69.07216 -0.5377197 314.9565
v -66.21581 19.87677 313.7479
v -68.96233 21.45911 314.6187
v -56.2946 -0.5377197 310.8049
v -56.56258 19.96362 310.5503
v -56.84071 41.24957 297.7957
v -56.56258 19.96362 310.5503
v -56.84071 41.24957 297.7957
v -68.86833 40.28955 293.8455
v -56.56258 19.96362 310.5503
v -56.84071 41.24957 297.7957
v -76.47356 30.1377 304.0874
v -74.26335 26.64404 307.207
v -66.21581 19.87677 313.7479
v -68.96233 21.45911 314.6187
v -68.86833 40.28955 293.8455
v -212.4495 6.103516E-05 238.2632
v -220.707 82.98309 246.3119
v -212.5507 82.98309 237.7169
v -220.1562 6.103516E-05 246.3844
v -220.1562 6.103516E-05 246.3844
v -215.0532 80.37207 256.725
v -220.707 82.98309 246.3119
v -214.814 6.103516E-05 256.2236
v -203.8056 6.103516E-05 254.1832
v -202.3442 6.103516E-05 243.0831
v -201.856 80.37207 242.818
v -202.3442 6.103516E-05 243.0831
v -212.5507 82.98309 237.7169
v -201.856 80.37207 242.818
v -212.4495 6.103516E-05 238.2632
v -222.8316 99.45691 246.0322
v -212.9412 99.45691 235.6099
v -222.8316 99.45691 246.0322
v -212.9412 99.45691 235.6099
v -214.814 6.103516E-05 256.2236
v -203.9589 75.19202 254.5149
v -215.0532 80.37207 256.725
v -203.8056 6.103516E-05 254.1832
v -203.9589 75.19202 254.5149
v -222.8316 99.45691 246.0322
v -215.0532 80.37207 256.725
v -201.856 80.37207 242.818
v -212.9412 99.45691 235.6099
v -203.9589 75.19202 254.5149
v -92.63606 -13.30829 -69.56506
v -49.86934 14.59991 -3.147461
v -41.05348 15.01416 -11.05371
v -100.966 -13.69965 -62.0946
v -100.966 -13.69965 -62.0946
v -51.4062 2.988098 0.01806641
v -49.86934 14.59991 -3.147461
v -100.8884 -23.84235 -57.35449
v -92.51064 -29.71948 -61.89539
v -87.41035 -23.20905 -69.44189
v -37.14186 3.658325 -12.77454
v -87.41035 -23.20905 -69.44189
v -41.05348 15.01416 -11.05371
v -37.14186 3.658325 -12.77454
v -92.63606 -13.30829 -69.56506
v -41.024 21.72382 8.97644
v -30.33391 22.22614 -0.6107178
v -41.024 21.72382 8.97644
v -30.33391 22.22614 -0.6107178
v -100.8884 -23.84235 -57.35449
v -46.11815 -4.572083 -8.329468
v -51.4062 2.988098 0.01806641
v -92.51064 -29.71948 -61.89539
v -46.11815 -4.572083 -8.329468
v -41.024 21.72382 8.97644
v -51.4062 2.988098 0.01806641
v -37.14186 3.658325 -12.77454
v -30.33391 22.22614 -0.6107178
v -46.11815 -4.572083 -8.329468
v 52.23308 6.103516E-05 200.6431
v 43.97551 82.98309 208.6917
v 52.13182 82.98309 200.0967
v 44.52632 6.103516E-05 208.7643
v 44.52632 6.103516E-05 208.7643
v 49.62938 80.37207 219.1047
v 43.97551 82.98309 208.6917
v 49.86858 6.103516E-05 218.6034
v 60.877 6.103516E-05 216.5631
v 62.33836 6.103516E-05 205.4629
v 62.82658 80.37207 205.1979
v 62.33836 6.103516E-05 205.4629
v 52.13182 82.98309 200.0967
v 62.82658 80.37207 205.1979
v 52.23308 6.103516E-05 200.6431
v 41.851 99.45691 208.412
v 51.74135 99.45691 197.9897
v 41.851 99.45691 208.412
v 51.74135 99.45691 197.9897
v 49.86858 6.103516E-05 218.6034
v 60.72365 75.19202 216.8947
v 49.62938 80.37207 219.1047
v 60.877 6.103516E-05 216.5631
v 60.72365 75.19202 216.8947
v 41.851 99.45691 208.412
v 49.62938 80.37207 219.1047
v 62.82658 80.37207 205.1979
v 51.74135 99.45691 197.9897
v 60.72365 75.19202 216.8947

vn 0.1822305 -0.003798262 -0.9832485
vn 0.1822169 -0.01293236 -0.9831734
vn 0.1821298 -0.03400831 -0.9826863
vn 0.1822275 -0.003798683 -0.9832491
vn -0.8788098 -0.003798563 -0.4771572
vn -0.8787426 -0.01293223 -0.4771206
vn -0.8783085 -0.0340082 -0.4768832
vn -0.8788091 -0.003798371 -0.4771584
vn -0.7253693 -0.00379948 0.6883495
vn -0.7253138 -0.01293278 0.6882969
vn -0.7249547 -0.0340077 0.6879566
vn -0.7253695 -0.003799427 0.6883492
vn 0.4305095 -0.00379917 0.902578
vn 0.4304769 -0.0129326 0.9025089
vn 0.4302666 -0.03400775 0.9020611
vn 0.4305061 -0.003798646 0.9025797
vn 0.9914376 -0.003798853 -0.1305254
vn 0.991362 -0.01293234 -0.1305155
vn 0.9908714 -0.0340078 -0.1304511
vn 0.9914377 -0.003798816 -0.1305251
vn 0.181298 -0.1013548 -0.9781914
vn 0.1812993 -0.1013537 -0.9781911
vn -0.8742917 -0.1013523 -0.4747017
vn -0.8742919 -0.1013528 -0.474701
vn -0.721639 -0.1013491 0.6848105
vn -0.721639 -0.1013493 0.6848106
vn 0.4282981 -0.101349 0.8979359
vn 0.4282974 -0.1013483 0.8979365
vn 0.9863396 -0.1013507 -0.1298545
vn 0.9863396 -0.1013507 -0.1298545
vn 0 1 0
vn 0 1 0
vn 0 1 0
vn 0 1 0
vn 0 1 0
vn 0 1 0
vn 0.9999146 0.01306798 7.801633E-07
vn 0.9999146 0.01306703 -2.271294E-06
vn 0.9999146 0.01306703 -2.271294E-06
vn 0.3099844 0.01340224 -0.9506471
vn 0.3089949 0.01306927 -0.950974
vn 0.3099844 0.01340224 -0.9506471
vn -0.8089489 0.01306843 -0.5877337
vn -0.8089504 0.01306735 -0.5877317
vn -0.8089489 0.01306843 -0.5877337
vn -0.8089445 0.0130693 0.5877397
vn -0.8089466 0.01306869 0.5877367
vn -0.8089361 0.01306711 0.5877514
vn -0.8089489 0.01306903 0.5877337
vn -0.808952 0.01306723 0.5877295
vn 0.3089908 0.01306811 0.9509752
vn 0.3110098 0.01414771 0.9503014
vn 0.3090118 0.01306478 0.9509685
vn 0.3112733 0.01429061 0.950213
vn 0.3142787 0.01589756 0.9491977
vn 0.9999145 0.01307006 7.470339E-06
vn 0.9999145 0.01307006 7.470339E-06
vn 0.3110094 0.01374723 -0.9503074
vn -0.8089477 0.01306928 -0.5877352
vn 0.03393016 0.5882601 0.8079597
vn -0.08561773 0.6011523 0.7945347
vn -0.0656492 0.6125104 0.7877316
vn 0.2255666 0.7847182 0.5773536
vn 0.2670738 0.8148584 0.5144681
vn 0.5350109 0.8225568 0.1927781
vn -0.2523618 0.7743968 0.5801923
vn -0.7253637 -0.00541627 -0.6883445
vn -0.7252964 -0.01465964 -0.6882806
vn -0.7249089 -0.03585695 -0.6879109
vn -0.7253633 -0.00541617 -0.688345
vn -0.8791009 -0.005502619 0.476604
vn -0.8800271 -0.01489538 0.4746898
vn -0.8809083 -0.02202177 0.4727744
vn -0.8788038 -0.005591781 0.4771504
vn 0.9880706 -0.002192789 0.1539862
vn 0.9914293 -0.005591857 0.130525
vn 0.9880706 -0.002192789 0.1539862
vn 0.4299384 -0.005502964 -0.9028415
vn 0.427978 -0.01489624 -0.9036664
vn 0.4258994 -0.02258488 -0.9044885
vn 0.4305028 -0.005416193 -0.902573
vn -0.7213932 -0.1046562 -0.6845722
vn -0.7213944 -0.1046578 -0.6845706
vn -0.8847721 -0.1064005 0.4537149
vn 0.4067801 -0.106406 -0.907308
vn 0.1877623 -0.004785664 0.9822028
vn 0.1877623 -0.004785664 0.9822028
vn 0.192876 -0.005546532 0.9812074
vn 0.182244 -0.003965329 0.9832454
vn 0.9841247 0.00122426 0.1774738
vn 0.5994679 0.5630494 0.5688705
vn 0.5650922 0.626981 0.5362513
vn 0.577791 0.6045861 0.5483002
vn 0.5994686 0.5630506 0.5688686
vn 0.450964 0.7832574 0.4279479
vn -0.2523796 0.9393546 -0.2322013
vn -0.2580876 0.9361608 -0.2387331
vn -0.2710982 0.9285333 -0.2536372
vn -0.252378 0.9393547 -0.2322024
vn -0.7879564 0.2563085 0.5598489
vn -0.7937168 0.2550509 0.5522342
vn -0.7980402 0.2545277 0.5462118
vn -0.7880073 0.2557126 0.5600497
vn 0.6264489 -0.7551983 -0.1929697
vn 0.6353091 -0.7427568 -0.2114112
vn 0.6264489 -0.7551983 -0.1929697
vn 0.6269338 0.322786 -0.709058
vn 0.6200559 0.3214758 -0.7156704
vn 0.6141524 0.3208139 -0.7210377
vn 0.6272792 0.3222635 -0.7089902
vn -0.3125473 0.9008495 -0.3013046
vn -0.312548 0.9008492 -0.3013045
vn -0.8460152 0.2415469 0.4753035
vn 0.549978 0.3071365 -0.7766538
vn -0.2346079 -0.7865241 0.5712608
vn -0.2346079 -0.7865241 0.5712608
vn -0.2311649 -0.7894826 0.5685772
vn -0.2383121 -0.7833105 0.5741358
vn 0.6171831 -0.7672648 -0.174326
vn 0.5549052 -0.5885975 0.5879057
vn 0.582742 -0.522512 0.6224089
vn 0.5732167 -0.5465136 0.610529
vn 0.5549067 -0.5885967 0.5879053
vn 0.6404553 -0.321915 0.6972716
vn -0.7253637 -0.005417283 -0.6883445
vn -0.7252964 -0.01466056 -0.6882806
vn -0.7249082 -0.03585681 -0.6879116
vn -0.7253633 -0.005417183 -0.688345
vn -0.8790997 -0.005502265 0.4766062
vn -0.880026 -0.0148951 0.4746917
vn -0.8809082 -0.02202119 0.4727745
vn -0.8788013 -0.005591809 0.4771549
vn 0.9880706 -0.002192789 0.1539862
vn 0.9914294 -0.005592061 0.1305235
vn 0.9880706 -0.002192789 0.1539862
vn 0.4299384 -0.005502963 -0.9028415
vn 0.4279789 -0.01489558 -0.903666
vn 0.4259083 -0.02258251 -0.9044844
vn 0.4304939 -0.005417556 -0.9025772
vn -0.7213912 -0.1046537 -0.6845747
vn -0.7213907 -0.1046532 -0.6845751
vn -0.8847721 -0.1064005 0.4537149
vn 0.4067904 -0.1063985 -0.9073042
vn 0.1877572 -0.004784911 0.9822038
vn 0.1877572 -0.004784911 0.9822038
vn 0.192876 -0.005546532 0.9812074
vn 0.1822335 -0.003963762 0.9832473
vn 0.9841244 0.001224539 0.1774757
vn 0.599465 0.5630494 0.5688735
vn 0.5650902 0.6269805 0.5362541
vn 0.5777885 0.6045856 0.5483034
vn 0.5994655 0.5630502 0.5688722
vn 0.4509638 0.7832555 0.4279515

vt 0.3174095 0.0004995167
vt 0.6722158 0.7586454
vt 0.3174095 0.7586454
vt 0.6770392 0.0004995167
vt 0.3185997 0.0004995167
vt 0.6713674 0.7660748
vt 0.3137763 0.7660748
vt 0.6737959 0.0004995167
vt 0.314194 0.0004995167
vt 0.6869931 0.7571002
vt 0.3117654 0.7571002
vt 0.6845645 0.0004995167
vt 0.32684 0.0004995167
vt 0.660813 0.7473751
vt 0.3292686 0.7473751
vt 0.6559896 0.0004995167
vt 0.3145403 0.0004995167
vt 0.6688405 0.7510465
vt 0.3193637 0.7510465
vt 0.6688405 0.0004995167
vt 0.9860976 0.9995005
vt 0.01534209 0.9995005
vt 1.000646 0.9995005
vt 0.001817018 0.9995005
vt 0.9835966 0.9995005
vt 0.009798914 0.9995005
vt 0.9827563 0.9995005
vt -0.01208773 0.9995005
vt 0.982657 0.9995005
vt 0.01947114 0.9995005
vt 0.4956216 0.4953651
vt 0.4392229 0.4162658
vt 0.5290943 0.3916485
vt 0.5727075 0.5103639
vt 0.5097906 0.6083515
vt 0.4272925 0.5501957
vt 0.314194 0.0004995167
vt 0.6845645 0.0004995167
vt 0.6857788 0.3788057
vt 0.32684 0.0004995167
vt 0.6559896 0.0004995167
vt 0.6583474 0.3655929
vt 0.3145403 0.0004995167
vt 0.6688405 0.0004995167
vt 0.6688405 0.2761595
vt 0.3174095 0.0004995167
vt 0.432881 0.2472375
vt 0.3174095 0.2789504
vt 0.6770392 0.0004995167
vt 0.6757689 0.2001722
vt 0.3185997 0.0004995167
vt 0.4048245 0.1876242
vt 0.3173293 0.2021289
vt 0.6737959 0.0004995167
vt 0.6732091 0.185481
vt 0.6833009 0.37852
vt 0.3173883 0.189123
vt 0.3280543 0.3739431
vt 0.3168981 0.3673876
vt 0.3086205 0.576344
vt 0.3139678 0.4222282
vt 0.6913795 0.4982522
vt 0.6488915 0.5359487
vt 0.4941898 0.6149824
vt 0.5469877 0.6255026
vt 0.5451806 0.3744974
vt 0.3174095 0.0004995167
vt 0.6722158 0.7586454
vt 0.3174095 0.7586454
vt 0.6770392 0.0004995167
vt 0.3185997 0.0004995167
vt 0.6713674 0.7660748
vt 0.3137763 0.7660748
vt 0.6737959 0.0004995167
vt 0.32684 0.0004995167
vt 0.6559896 0.0004995167
vt 0.660813 0.7473751
vt 0.3145403 0.0004995167
vt 0.6688405 0.7510465
vt 0.3193637 0.7510465
vt 0.6688405 0.0004995167
vt 0.9860976 0.9995005
vt 0.01534209 0.9995005
vt 0.001817018 0.9995005
vt 0.982657 0.9995005
vt 0.314194 0.0004995167
vt 0.6528119 0.6877291
vt 0.3117654 0.7571002
vt 0.6845645 0.0004995167
vt 0.3290671 0.6853865
vt 0.5127677 0.6116951
vt 0.4253675 0.5516662
vt 0.507917 0.3883049
vt 0.5746325 0.4892677
vt 0.4264767 0.4325328
vt 0.3174095 0.0004995167
vt 0.6722158 0.7586454
vt 0.3174095 0.7586454
vt 0.6770392 0.0004995167
vt 0.3185997 0.0004995167
vt 0.6713674 0.7660748
vt 0.3137763 0.7660748
vt 0.6737959 0.0004995167
vt 0.32684 0.0004995167
vt 0.6559896 0.0004995167
vt 0.660813 0.7473751
vt 0.3145403 0.0004995167
vt 0.6688405 0.7510465
vt 0.3193637 0.7510465
vt 0.6688405 0.0004995167
vt 0.9860976 0.9995005
vt 0.01534209 0.9995005
vt 0.001817018 0.9995005
vt 0.982657 0.9995005
vt 0.314194 0.0004995167
vt 0.6528119 0.6877291
vt 0.3117654 0.7571002
vt 0.6845645 0.0004995167
vt 0.3290671 0.6853865
vt 0.5127677 0.6116951
vt 0.4253675 0.5516662
vt 0.507917 0.3883049
vt 0.5746325 0.4892677
vt 0.4264767 0.4325328
vt 0.3174095 0.0004995167
vt 0.6722158 0.7586454
vt 0.3174095 0.7586454
vt 0.6770392 0.0004995167
vt 0.3185997 0.0004995167
vt 0.6713674 0.7660748
vt 0.3137763 0.7660748
vt 0.6737959 0.0004995167
vt 0.32684 0.0004995167
vt 0.6559896 0.0004995167
vt 0.660813 0.7473751
vt 0.3145403 0.0004995167
vt 0.6688405 0.7510465
vt 0.3193637 0.7510465
vt 0.6688405 0.0004995167
vt 0.9860976 0.9995005
vt 0.01534209 0.9995005
vt 0.001817018 0.9995005
vt 0.982657 0.9995005
vt 0.314194 0.0004995167
vt 0.6528119 0.6877291
vt 0.3117654 0.7571002
vt 0.6845645 0.0004995167
vt 0.3290671 0.6853865
vt 0.5127677 0.6116951
vt 0.4253675 0.5516662
vt 0.507917 0.3883049
vt 0.5746325 0.4892677
vt 0.4264767 0.4325328

usemtl sn16_16_sn16g17.jpg
usemap sn16_16_sn16g17.jpg
f 3/3/3 1/1/1 2/2/2
f 2/2/2 1/1/1 4/4/4
f 7/7/7 5/5/5 6/6/6
f 6/6/6 5/5/5 8/8/8
f 11/11/11 9/9/9 10/10/10
f 10/10/10 9/9/9 12/12/12
f 15/15/15 13/13/13 14/14/14
f 14/14/14 13/13/13 16/16/16
f 19/19/19 17/17/17 18/18/18
f 18/18/18 17/17/17 20/20/20
f 22/22/22 3/3/3 21/21/21
f 21/21/21 3/3/3 2/2/2
f 24/24/24 7/7/7 23/23/23
f 23/23/23 7/7/7 6/6/6
f 26/26/26 11/11/11 25/25/25
f 25/25/25 11/11/11 10/10/10
f 28/28/28 15/15/15 27/27/27
f 27/27/27 15/15/15 14/14/14
f 30/30/30 19/19/19 29/29/29
f 29/29/29 19/19/19 18/18/18
f 39/39/39 37/37/37 38/38/38
f 42/42/42 40/40/40 41/41/41
f 45/45/45 43/43/43 44/44/44
f 48/48/48 46/46/46 47/47/47
f 47/47/47 46/46/46 49/49/49
f 50/50/50 47/47/47 49/49/49
f 53/53/53 51/51/51 52/52/52
f 52/52/52 51/51/51 54/54/54
f 55/55/55 52/52/52 54/54/54
f 57/57/57 37/37/37 56/56/56
f 58/58/58 40/40/40 42/42/42
f 59/59/59 43/43/43 45/45/45
f 69/69/69 67/67/67 68/68/68
f 68/68/68 67/67/67 70/70/70
f 73/73/73 71/71/71 72/72/72
f 72/72/72 71/71/71 74/74/74
f 77/77/77 75/75/75 76/76/76
f 80/80/80 78/78/78 79/79/79
f 79/79/79 78/78/78 81/81/81
f 83/83/83 69/69/69 82/82/82
f 82/82/82 69/69/69 68/68/68
f 84/84/84 73/73/73 72/72/72
f 85/85/85 80/80/80 79/79/79
f 88/88/88 86/86/86 87/87/87
f 87/87/87 86/86/86 89/89/89
f 90/90/90 75/75/75 77/77/77
f 98/98/98 96/96/96 97/97/97
f 97/97/97 96/96/96 99/99/99
f 102/102/102 100/100/100 101/101/101
f 101/101/101 100/100/100 103/103/103
f 106/106/106 104/104/104 105/105/105
f 109/109/109 107/107/107 108/108/108
f 108/108/108 107/107/107 110/110/110
f 112/112/112 98/98/98 111/111/111
f 111/111/111 98/98/98 97/97/97
f 113/113/113 102/102/102 101/101/101
f 114/114/114 109/109/109 108/108/108
f 117/117/117 115/115/115 116/116/116
f 116/116/116 115/115/115 118/118/118
f 119/119/119 104/104/104 106/106/106
f 127/127/127 125/125/125 126/126/126
f 126/126/126 125/125/125 128/128/128
f 131/131/131 129/129/129 130/130/130
f 130/130/130 129/129/129 132/132/132
f 135/135/135 133/133/133 134/134/134
f 138/138/138 136/136/136 137/137/137
f 137/137/137 136/136/136 139/139/139
f 141/141/141 127/127/127 140/140/140
f 140/140/140 127/127/127 126/126/126
f 142/142/142 131/131/131 130/130/130
f 143/143/143 138/138/138 137/137/137
f 146/146/146 144/144/144 145/145/145
f 145/145/145 144/144/144 147/147/147
f 148/148/148 133/133/133 135/135/135

usemtl sn16_15_sn16g18.jpg
usemap sn16_15_sn16g18.jpg
f 33/33/33 31/31/31 32/32/32
f 34/34/34 31/31/31 33/33/33
f 35/35/35 31/31/31 34/34/34
f 36/36/36 31/31/31 35/35/35
f 32/32/32 31/31/31 36/36/36
f 62/62/62 60/60/60 61/61/61
f 60/60/60 62/62/62 63/63/63
f 63/63/63 64/64/64 60/60/60
f 64/64/64 63/63/63 65/65/65
f 61/61/61 66/66/66 62/62/62
f 93/93/93 91/91/91 92/92/92
f 91/91/91 93/93/93 94/94/94
f 92/92/92 95/95/95 93/93/93
f 122/122/122 120/120/120 121/121/121
f 120/120/120 122/122/122 123/123/123
f 121/121/121 124/124/124 122/122/122
f 151/151/151 149/149/149 150/150/150
f 149/149/149 151/151/151 152/152/152
f 150/150/150 153/153/153 151/151/151
