mtllib ./klion15.mtl
g klion15
v 6.383003 -47.54788 -39.58412
v -31.80218 -56.14788 -33.603
v -14.21176 -37.35963 -43.27994
v 12.72885 -79.19339 -29.49925
v 31.40847 -64.74266 -22.48252
v 15.97131 -86.02466 -25.72562
v 57.03417 -41.10101 16.64757
v 52.22987 -32.07763 -12.23598
v 92.98155 -26.62922 5.256995
v 66.9542 78.29214 -8.380619
v 36.07106 -5.20241 -27.30616
v -13.87779 42.48775 -10.03346
v -14.47562 74.75523 -9.203616
v 31.53384 46.75391 -24.07413
v 11.2086 -77.37267 7.556456
v -27.79592 24.19963 -23.57516
v -7.845543 18.45122 -39.33604
v -9.997243 -16.89071 -34.89061
v 17.23674 -11.16628 -37.67768
v 5.875059 -61.51632 -33.00015
v -9.244542 -89.41878 -14.13286
v 16.01439 -46.53848 -36.15183
v -27.88758 -20.05509 -26.22163
v 38.55122 -36.03967 -18.74711
v -38.02944 -40.46719 -38.35691
v 35.02138 -44.18301 29.9874
v 6.501195 -97.54788 -15.1099
v 19.78296 -47.10601 -40.75421
v 15.1736 -50.43939 -46.44079
v 7.815341 -45.51604 -34.69161
v -0.6536496 -56.35654 -32.48237
v 19.33701 -57.78521 -39.60501
v 14.51793 -53.07054 -21.06345
v 22.30283 -40.33944 -60.30219
v 6.501195 -97.54788 -15.1099
v 7.088989 -146.5328 -5.328295
v -9.244542 -89.41878 -14.13286
v 7.088989 -146.5328 -5.328295
v 6.501195 -97.54788 -15.1099
v 11.2086 -77.37267 7.556456
v -37.12296 -49.04952 7.259223
v -43.21588 -40.12117 -14.39542
v -25.5051 -82.83372 8.57708
v -21.09712 -89.55405 11.18994
v -8.199709 -63.12616 35.54058
v 21.38685 -45.53172 42.26851
v 17.31251 -31.22391 96.3086
v -20.76464 -41.10461 47.06122
v -7.67332 77.07798 79.04006
v -23.33469 -9.203602 38.99878
v -13.87779 42.48775 -10.03346
v -33.63275 38.32702 25.32095
v -14.47562 74.75523 -9.203616
v -41.87952 16.23483 -0.9121765
v -41.87952 16.23483 -0.9121765
v -36.35729 -19.42599 -7.145217
v -36.48721 -13.52198 29.09667
v -30.67534 -64.99637 3.399505
v -23.54595 -44.91742 21.82361
v -20.66323 -40.82574 43.03847
v -9.436885 -99.06539 0.7624586
v -38.32417 -49.99787 20.63008
v -33.88102 -49.48601 6.832816
v -43.66965 -53.40132 15.67661
v -30.65368 -59.21291 -2.60605
v -36.16401 -60.42895 19.18393
v -19.59295 -56.3183 12.90673
v -58.42633 -45.38515 23.61089
v -9.436885 -99.06539 0.7624586
v -9.244542 -89.41878 -14.13286
v 7.088989 -146.5328 -5.328295
v 7.088989 -146.5328 -5.328295
v 11.2086 -77.37267 7.556456
v -9.436885 -99.06539 0.7624586
v -20.76464 -41.10461 47.06122
v 22.01356 -25.49872 44.85925
v -23.33469 -9.203602 38.99878
v 21.38685 -45.53172 42.26851
v 29.2189 -0.04584467 52.94972
v -33.63275 38.32702 25.32095
v 45.47979 -0.135802 38.46481
v 64.66141 -0.388046 21.48154
v 31.53384 46.75391 -24.07413
v -13.87779 42.48775 -10.03346
v 29.2189 -0.04584467 52.94972
v -33.63275 38.32702 25.32095
v 31.53384 46.75391 -24.07413
v 58.27478 -23.01436 14.27454
v 36.07106 -5.20241 -27.30616
v 64.66141 -0.388046 21.48154
v 57.03417 -41.10101 16.64757
v 52.22987 -32.07763 -12.23598

vn 0.1386454 -0.03215058 -0.9898201
vn -0.646685 -0.3528045 -0.6762599
vn -0.03813753 0.2929113 -0.9553787
vn -0.03593222 -0.1318732 -0.9906152
vn 0.5977391 -0.7455666 -0.2946837
vn 0.512745 -0.8202903 -0.2534099
vn 0.3259774 -0.9212013 -0.212431
vn 0.4634432 -0.5146693 -0.721343
vn 0.4818428 -0.1449358 -0.8641881
vn 0.4276009 0.1908832 -0.8835842
vn 0.4703802 0.04183961 -0.8814715
vn -0.1755694 0.5269405 -0.8315703
vn 0.005566366 0.4657936 -0.8848759
vn 0.1494002 0.4552476 -0.877741
vn 0.3838231 -0.8514166 0.3574487
vn -0.5104373 0.650228 -0.5627232
vn 0.1009221 0.3540338 -0.9297714
vn -0.1599352 0.2587228 -0.9526192
vn 0.3137883 0.052638 -0.9480327
vn -0.03985015 -0.2654493 -0.963301
vn -0.6334248 -0.3348357 -0.6976088
vn 0.3972226 -0.02955057 -0.9172465
vn -0.573746 0.5602582 -0.597433
vn 0.5644354 -0.1016002 -0.8192009
vn -0.5951047 0.4731133 -0.6496261
vn 0.2899974 -0.9174764 0.2722839
vn 0.4775109 -0.8211706 -0.3125096
vn 0.7843556 0.5031586 0.3627913
vn -0.6119507 0.2893191 -0.736078
vn 0.03150843 0.9969988 -0.07071422
vn -0.5564495 -0.6707168 -0.4904109
vn 0.2437038 -0.9414456 -0.2329993
vn 0.5996312 -0.6010274 0.5284018
vn 0.7863696 -0.1917154 -0.5872545
vn -0.1507414 -0.004197001 -0.9885643
vn -0.1507414 -0.004197001 -0.9885643
vn -0.1507414 -0.004197001 -0.9885643
vn 0.9592976 -0.2264865 -0.1686773
vn 0.9592976 -0.2264865 -0.1686773
vn 0.9592976 -0.2264865 -0.1686773
vn -0.9643007 0.0041245 0.2647773
vn -0.9578581 0.2725793 -0.0905994
vn -0.9878093 -0.1030397 0.116686
vn -0.2595042 -0.8431484 0.4709123
vn -0.3142831 -0.712346 0.6275262
vn -0.1967602 -0.9263102 0.3213022
vn -0.8430747 -0.177167 0.5077763
vn -0.6305826 -0.5702945 0.526431
vn -0.8836045 0.2193215 0.413692
vn -0.8577744 0.08369559 0.5071668
vn -0.7130086 0.5888282 -0.3806574
vn -0.876743 0.4597644 0.1412033
vn -0.7932922 0.6075122 -0.04020393
vn -0.8570864 0.4220581 0.2954147
vn -0.951014 0.1579586 -0.265747
vn -0.9722367 0.2137105 -0.09530808
vn -0.9716976 0.03597851 0.2334721
vn -0.973774 -0.2132854 0.07920546
vn -0.9471019 -0.1323172 0.292387
vn -0.9416836 -0.1669547 0.2921613
vn -0.3494164 -0.8266987 0.4409959
vn 0.4171674 0.5717447 0.7064556
vn 0.03270079 0.9979593 -0.05484302
vn -0.7442528 0.2402904 -0.6231761
vn -0.5485867 -0.7094361 -0.4424399
vn -0.3038964 -0.9174466 0.256785
vn 0.5741745 -0.5702727 0.587463
vn -0.6561973 -0.2013607 0.727227
vn -0.9637646 -0.03717231 -0.2641515
vn -0.9637646 -0.03717231 -0.2641515
vn -0.9637646 -0.03717231 -0.2641515
vn -0.2251113 -0.2807308 0.933014
vn -0.2251113 -0.2807308 0.933014
vn -0.2251113 -0.2807308 0.933014
vn -0.01508072 -0.05150409 0.9985589
vn -0.195537 -0.03323291 0.9801331
vn -0.02155344 0.1110315 0.9935831
vn 0.0145734 -0.2969694 0.9547758
vn -0.5353309 -0.1586929 0.8296008
vn -0.2944186 -0.02244575 0.9554129
vn 0.4517812 0.6725363 0.5861644
vn 0.5708319 0.5616687 0.5988985
vn 0.3655099 0.6378409 0.6779097
vn 0.4034865 0.6964431 0.5934354
vn 0.5154526 0.6785987 0.5232706
vn 0.5372993 0.6973363 0.474375
vn 0.8733359 -0.07694713 -0.4810027
vn 0.9056824 -0.05343736 -0.4205754
vn 0.9336429 0.01856038 -0.3577237
vn 0.7957425 -0.1233756 -0.5929354
vn 0.9387149 -0.2886369 -0.1884226
vn 0.9723982 0.01633999 -0.2327551

vt 0.553386 0.4410505
vt 0.9936706 0.4327446
vt 0.8072551 0.4977097
vt 0.6105125 0.2744326
vt 0.4460732 0.1769127
vt 0.604451 0.207627
vt 0.3643799 0.1519251
vt 0.297035 0.3641247
vt 0.06744461 0.270743
vt 0.01579715 0.9788526
vt 0.3345125 0.5883834
vt 0.9956437 0.8983576
vt 0.9930883 0.9995006
vt 0.3502674 0.8738737
vt 0.741056 0.01433183
vt 0.9916968 0.8059135
vt 0.586596 0.7716088
vt 0.8355677 0.6016951
vt 0.4760121 0.5860767
vt 0.6043346 0.3419423
vt 0.9956409 0.1692911
vt 0.4489919 0.4488402
vt 0.9936704 0.5869072
vt 0.3575293 0.455665
vt 0.9936706 0.5040373
vt 0.5515945 0.01653925
vt 0.9698041 0.008910051
vt 0.2593952 0.1057518
vt 0.2589185 0.08146584
vt 0.3449808 0.1167344
vt 0.3384278 0.01826897
vt 0.2595544 0.03637046
vt 0.333783 0.09754868
vt 0.1774317 0.08482839
vt 0.009315265 0.314801
vt 0.1696058 0.006828046
vt 0.01319222 0.01300817
vt 0.05197983 0.006828046
vt -0.0003715819 0.298195
vt 0.1405255 0.1184979
vt 0.553386 0.4410505
vt 0.8072551 0.4977097
vt 0.6105125 0.2744326
vt 0.604451 0.207627
vt 0.4460732 0.1769127
vt 0.3643799 0.1519251
vt 0.06744461 0.270743
vt 0.297035 0.3641247
vt 0.01579715 0.9788526
vt 0.3345125 0.5883834
vt 0.9956437 0.8983576
vt 0.3502674 0.8738737
vt 0.9930883 0.9995006
vt 0.586596 0.7716088
vt 0.586596 0.7716088
vt 0.8355677 0.6016951
vt 0.4760121 0.5860767
vt 0.6043346 0.3419423
vt 0.4489919 0.4488402
vt 0.3575293 0.455665
vt 0.9698041 0.008910051
vt 0.2593952 0.1057518
vt 0.3449808 0.1167344
vt 0.2589185 0.08146584
vt 0.3384278 0.01826897
vt 0.2595544 0.03637046
vt 0.333783 0.09754868
vt 0.1774317 0.08482839
vt 0.006311482 0.2913099
vt 0.01950787 0.009850342
vt 0.1601324 0.025775
vt 0.02958774 0.004883351
vt 0.1657699 0.06703953
vt 0.01125996 0.2914647
vt 0.9910706 0.9982474
vt 0.2970067 0.0300602
vt 0.6119955 0.9955071
vt 0.9938555 0.03114932
vt 0.0004994869 0.02809556
vt 0.003140215 0.9995005
vt 0.6318916 0.03002974
vt 0.009678509 0.02720506
vt 0.009053562 0.9926042
vt 0.6311018 0.9948642
vt 0.9904401 0.03237817
vt 0.9907519 0.9947929
vt 0.9820175 1.493458
vt 0.7060073 0.3864987
vt 0.7062462 1.493535
vt 0.9819858 0.3865271
vt -0.01737954 0.3858355
vt -0.01734979 1.491803

usemtl sn09_07_km901.bmp
usemap sn09_07_km901.bmp
f 3/3/3 1/1/1 2/2/2
f 6/6/6 4/4/4 5/5/5
f 9/9/9 7/7/7 8/8/8
f 11/11/11 10/10/10 9/9/9
f 5/5/5 8/8/8 7/7/7
f 9/9/9 8/8/8 11/11/11
f 14/14/14 12/12/12 13/13/13
f 15/15/15 6/6/6 5/5/5
f 17/17/17 16/16/16 14/14/14
f 16/16/16 17/17/17 18/18/18
f 19/19/19 18/18/18 17/17/17
f 2/2/2 20/20/20 21/21/21
f 4/4/4 20/20/20 5/5/5
f 11/11/11 17/17/17 14/14/14
f 1/1/1 3/3/3 18/18/18
f 18/18/18 19/19/19 22/22/22
f 18/18/18 3/3/3 23/23/23
f 12/12/12 14/14/14 16/16/16
f 24/24/24 22/22/22 19/19/19
f 6/6/6 21/21/21 4/4/4
f 25/25/25 23/23/23 3/3/3
f 23/23/23 16/16/16 18/18/18
f 22/22/22 5/5/5 20/20/20
f 10/10/10 11/11/11 14/14/14
f 13/13/13 10/10/10 14/14/14
f 4/4/4 21/21/21 20/20/20
f 5/5/5 7/7/7 26/26/26
f 3/3/3 2/2/2 25/25/25
f 5/5/5 26/26/26 15/15/15
f 27/27/27 6/6/6 15/15/15
f 6/6/6 27/27/27 21/21/21
f 5/5/5 22/22/22 24/24/24
f 2/2/2 1/1/1 20/20/20
f 8/8/8 5/5/5 24/24/24
f 8/8/8 24/24/24 11/11/11
f 24/24/24 19/19/19 11/11/11
f 11/11/11 19/19/19 17/17/17
f 20/20/20 1/1/1 22/22/22
f 18/18/18 22/22/22 1/1/1
f 30/30/30 28/28/28 29/29/29
f 29/29/29 31/31/31 30/30/30
f 31/31/31 29/29/29 32/32/32
f 32/32/32 33/33/33 31/31/31
f 30/30/30 33/33/33 28/28/28
f 32/32/32 28/28/28 33/33/33
f 29/29/29 28/28/28 34/34/34
f 32/32/32 29/29/29 34/34/34
f 28/28/28 32/32/32 34/34/34
f 37/37/37 35/35/35 36/36/36
f 40/40/40 38/38/38 39/39/39
f 2/2/2 41/41/41 42/42/42
f 45/45/45 43/43/43 44/44/44
f 48/48/48 46/46/46 47/47/47
f 47/47/47 49/49/49 50/50/50
f 46/46/46 48/48/48 45/45/45
f 50/50/50 48/48/48 47/47/47
f 53/53/53 51/51/51 52/52/52
f 45/45/45 44/44/44 15/15/15
f 52/52/52 16/16/16 54/54/54
f 56/56/56 55/55/55 16/16/16
f 55/55/55 56/56/56 57/57/57
f 21/21/21 58/58/58 2/2/2
f 45/45/45 58/58/58 43/43/43
f 52/52/52 54/54/54 50/50/50
f 56/56/56 42/42/42 41/41/41
f 59/59/59 57/57/57 56/56/56
f 23/23/23 42/42/42 56/56/56
f 16/16/16 52/52/52 51/51/51
f 57/57/57 59/59/59 60/60/60
f 43/43/43 21/21/21 44/44/44
f 42/42/42 23/23/23 25/25/25
f 56/56/56 16/16/16 23/23/23
f 58/58/58 45/45/45 59/59/59
f 52/52/52 50/50/50 49/49/49
f 52/52/52 49/49/49 53/53/53
f 58/58/58 21/21/21 43/43/43
f 26/26/26 46/46/46 45/45/45
f 25/25/25 2/2/2 42/42/42
f 15/15/15 26/26/26 45/45/45
f 15/15/15 44/44/44 61/61/61
f 21/21/21 61/61/61 44/44/44
f 60/60/60 59/59/59 45/45/45
f 58/58/58 41/41/41 2/2/2
f 60/60/60 45/45/45 48/48/48
f 50/50/50 60/60/60 48/48/48
f 50/50/50 57/57/57 60/60/60
f 54/54/54 57/57/57 50/50/50
f 59/59/59 41/41/41 58/58/58
f 41/41/41 59/59/59 56/56/56
f 64/64/64 62/62/62 63/63/63
f 63/63/63 65/65/65 64/64/64
f 66/66/66 64/64/64 65/65/65
f 65/65/65 67/67/67 66/66/66
f 62/62/62 67/67/67 63/63/63
f 67/67/67 62/62/62 66/66/66
f 68/68/68 62/62/62 64/64/64
f 68/68/68 64/64/64 66/66/66
f 68/68/68 66/66/66 62/62/62
f 71/71/71 69/69/69 70/70/70
f 74/74/74 72/72/72 73/73/73

usemtl sn09_09_SN911.JPG
usemap sn09_09_SN911.JPG
f 77/77/77 75/75/75 76/76/76
f 78/78/78 76/76/76 75/75/75
f 80/80/80 76/76/76 79/79/79
f 76/76/76 80/80/80 77/77/77
f 83/83/83 81/81/81 82/82/82
f 81/81/81 83/83/83 84/84/84
f 86/86/86 85/85/85 81/81/81
f 81/81/81 84/84/84 86/86/86
f 89/89/89 87/87/87 88/88/88
f 90/90/90 88/88/88 87/87/87
f 92/92/92 88/88/88 91/91/91
f 88/88/88 92/92/92 89/89/89
