mtllib ./Object02.mtl
g Object02
v -148.4572 537.6562 0.04452902
v 0.0003068961 537.6562 -0.0003123268
v -128.5453 537.6562 74.26727
v -74.18961 537.6562 128.5901
v 0.04515491 537.6562 148.4572
v 74.2679 537.6562 128.5452
v 128.5907 537.6562 74.1896
v 148.4578 537.6562 -0.04516654
v 128.5459 537.6562 -74.26792
v 74.19021 537.6562 -128.5907
v -0.04455351 537.6562 -148.4578
v -74.2673 537.6562 -128.5459
v -128.5901 537.6562 -74.19022

vn 0 -1 0
vn 0 -1 0
vn 0 -1 0
vn 0 -1 0
vn 0 -1 0
vn 0 -1 0
vn 0 -1 0
vn 0 -1 0
vn 0 -1 0
vn 0 -1 0
vn 0 -1 0
vn 0 -1 0
vn 0 -1 0

vt 0.7332559 0.9481524
vt 0.5824279 0.9481524
vt 0.7130489 0.9742385
vt 0.657842 0.9933349
vt 0.5824279 1.000325
vt 0.5070139 0.9933349
vt 0.4518068 0.9742385
vt 0.4315997 0.9481524
vt 0.4518068 0.9220663
vt 0.5070139 0.9029699
vt 0.5824279 0.8959802
vt 0.6578418 0.9029699
vt 0.7130489 0.9220662

usemtl sn09_16_SN907.JPG
usemap sn09_16_SN907.JPG
f 3/3/3 1/1/1 2/2/2
f 4/4/4 3/3/3 2/2/2
f 5/5/5 4/4/4 2/2/2
f 6/6/6 5/5/5 2/2/2
f 7/7/7 6/6/6 2/2/2
f 8/8/8 7/7/7 2/2/2
f 9/9/9 8/8/8 2/2/2
f 10/10/10 9/9/9 2/2/2
f 11/11/11 10/10/10 2/2/2
f 12/12/12 11/11/11 2/2/2
f 13/13/13 12/12/12 2/2/2
f 1/1/1 13/13/13 2/2/2
