mtllib ./Torus233.mtl
g Torus233
v 8.349788 26.39426 0.7077265
v 27.31556 19.40522 -27.68126
v 4.845738 28.95091 -9.000904
v 28.22383 16.62317 -15.88915
v 3.698804 16.02981 -6.718348
v 28.22383 16.62317 -15.88915
v 8.349788 26.39426 0.7077265
v 16.18483 10.51498 -17.09851
v -0.7521716 23.63587 -15.87905
v 16.18483 10.51498 -17.09851
v 3.698804 16.02981 -6.718348
v 17.90416 15.39573 -31.38888
v 4.845738 28.95091 -9.000904
v 17.90416 15.39573 -31.38888
v -0.7521716 23.63587 -15.87905
v 27.31556 19.40522 -27.68126
v -14.40316 10.78086 23.81814
v 4.845738 28.95091 -9.000904
v -22.47021 10.752 18.67973
v 8.349788 26.39426 0.7077265
v -12.48652 5.515133 10.3803
v -14.40316 10.78086 23.81814
v -23.81667 7.62672 7.760083
v -12.48652 5.515133 10.3803
v -22.47021 10.752 18.67973
v -0.7521716 23.63587 -15.87905
v -23.81667 7.62672 7.760083
v 4.845738 28.95091 -9.000904
v -15.64027 -15.99886 27.5256
v -22.47021 10.752 18.67973
v -25.05166 -20.00835 23.81799
v -14.40316 10.78086 23.81814
v -13.92093 -11.11811 13.23524
v -15.64027 -15.99886 27.5256
v -25.95995 -17.2263 12.02587
v -13.92093 -11.11811 13.23524
v -25.05166 -20.00835 23.81799
v -23.81667 7.62672 7.760083
v -25.95995 -17.2263 12.02587
v -22.47021 10.752 18.67973
v 3.016052 -24.239 12.01578
v -25.05166 -20.00835 23.81799
v -2.58187 -29.93282 5.13786
v -1.434922 -16.63294 2.855062
v -7.303614 -25.46644 -3.483948
v -1.434922 -16.63294 2.855062
v -25.95995 -17.2263 12.02587
v 26.08055 -8.229849 -11.62337
v 24.73419 -10.5279 -22.54353
v 14.7504 -6.118261 -14.24358
v 15.36791 -9.584521 -27.37842
v 14.7504 -6.118261 -14.24358
v 27.31556 19.40522 -27.68126
v 17.90416 15.39573 -31.38888

vn 0.5370157 0.83224 0.137807
vn 0.5370157 0.83224 0.137807
vn 0.4900722 0.8656073 0.1027299
vn 0.5839148 0.7929156 0.1741507
vn 0.4634712 -0.704276 0.5377637
vn 0.7091302 -0.4334789 0.556085
vn 0.6085919 -0.6770002 0.4138679
vn -0.02473794 -0.1298238 0.9912285
vn -0.4510303 -0.7461504 -0.4897258
vn -0.821732 -0.497401 -0.2781165
vn -0.2586629 -0.7781771 -0.5723057
vn -0.6428541 -0.688642 -0.3354263
vn -0.09247252 0.8526067 -0.5143059
vn -0.09247252 0.8526067 -0.5143059
vn -0.07800762 0.8568638 -0.509607
vn -0.1043247 0.8489547 -0.5180659
vn -0.1930085 0.8930843 0.4063843
vn -0.1930085 0.8930843 0.4063843
vn -0.1734758 0.8921359 0.4171328
vn -0.2163616 0.8936357 0.3931957
vn 0.810662 -0.5299895 0.2488741
vn 0.9231973 -0.3422818 0.1747859
vn -0.04704492 -0.6216474 -0.7818833
vn 0.06137342 -0.4139256 -0.9082394
vn -0.5993437 0.7989898 -0.04901448
vn -0.5993437 0.7989898 -0.04901448
vn -0.619153 0.7823628 -0.06751193
vn -0.5817167 0.8127229 -0.03297129
vn -0.4326193 0.1414707 0.890408
vn -0.4326193 0.1414707 0.890408
vn -0.3825757 0.1572551 0.9104431
vn -0.4917605 0.1216312 0.8621935
vn 0.9787617 0.120193 0.1660695
vn 0.8964216 0.1439384 0.4191779
vn 0.1422584 -0.1396195 -0.9799331
vn -0.1704325 0.54216 -0.8228094
vn -0.97932 0.1435504 0.1425683
vn -0.97932 0.1435504 0.1425683
vn -0.9784965 0.1454142 0.146285
vn -0.9799659 0.1420578 0.1395937
vn 0.5614131 -0.04456 0.8263351
vn -0.1558043 -0.9398171 0.3040867
vn 0.1115597 -0.990145 -0.08466014
vn 0.5025895 0.7360634 0.4534472
vn -0.5121627 -0.2146751 -0.8316272
vn -0.6055064 0.7430853 -0.2849318
vn -0.715481 -0.4592107 -0.5265096
vn 0.6843372 -0.2917891 0.6682376
vn 0.592526 -0.6667401 -0.4520737
vn 0.06834742 0.6658424 0.7429551
vn -0.5588154 0.1437581 -0.8167368
vn -0.929913 0.3591845 -0.07904617
vn 0.6870509 -0.1755239 -0.7050904
vn -0.8784 0.06773303 -0.473102

vt 0.6752704 0.9735928
vt 0.2446346 0.8758909
vt 0.6929141 0.8767412
vt 0.2817905 0.9671583
vt 0.6380022 0.7722026
vt 0.277391 0.871264
vt 0.6825492 0.8650962
vt 0.350321 0.7736256
vt 0.6573988 0.84701
vt 0.350321 0.7736257
vt 0.6380023 0.7722026
vt 0.3305312 0.8495249
vt 0.6985783 0.8726183
vt 0.277391 0.979926
vt 0.7470008 0.9813232
vt 0.2922401 0.8619388
vt 0.983878 0.491543
vt 0.6985157 0.8690899
vt 0.8714362 0.5084542
vt 0.7456383 0.9752183
vt 0.7695636 0.5077362
vt 0.8561434 0.4981987
vt 0.8393738 0.4935485
vt 0.7695637 0.5077363
vt 0.872503 0.5064126
vt 0.7459486 0.9745319
vt 0.9853076 0.4923219
vt 0.6990488 0.8693933
vt 0.7713429 0.05892796
vt 0.8707275 0.5134657
vt 0.6642487 0.1576566
vt 0.981862 0.4900792
vt 0.635675 0.2332838
vt 0.707363 0.09283211
vt 0.662677 0.1822041
vt 0.635675 0.2332838
vt 0.6477923 0.1284139
vt 0.9877226 0.4935502
vt 0.7417284 0.01384576
vt 0.8743604 0.5027312
vt 0.3069801 0.1159119
vt 0.7511458 0.02410679
vt 0.2735136 0.01117892
vt 0.3646964 0.2347069
vt 0.30698 0.1159119
vt 0.3646964 0.2347068
vt 0.7073631 0.09283208
vt 0.1275425 0.5187011
vt 0.02503237 0.4852996
vt 0.220608 0.5025637
vt 0.129089 0.5166749
vt 0.2206079 0.5025636
vt 0.2534336 0.9782918
vt 0.277391 0.871264

usemtl sn09_02_SN919.JPG
usemap sn09_02_SN919.JPG
f 3/3/3 1/1/1 2/2/2
f 1/1/1 4/4/4 2/2/2
f 7/7/7 5/5/5 6/6/6
f 5/5/5 8/8/8 6/6/6
f 11/11/11 9/9/9 10/10/10
f 9/9/9 12/12/12 10/10/10
f 15/15/15 13/13/13 14/14/14
f 13/13/13 16/16/16 14/14/14
f 19/19/19 17/17/17 18/18/18
f 17/17/17 20/20/20 18/18/18
f 22/22/22 21/21/21 7/7/7
f 21/21/21 5/5/5 7/7/7
f 24/24/24 23/23/23 11/11/11
f 23/23/23 9/9/9 11/11/11
f 27/27/27 25/25/25 26/26/26
f 25/25/25 28/28/28 26/26/26
f 31/31/31 29/29/29 30/30/30
f 29/29/29 32/32/32 30/30/30
f 34/34/34 33/33/33 22/22/22
f 33/33/33 21/21/21 22/22/22
f 36/36/36 35/35/35 24/24/24
f 35/35/35 23/23/23 24/24/24
f 39/39/39 37/37/37 38/38/38
f 37/37/37 40/40/40 38/38/38
f 43/43/43 41/41/41 42/42/42
f 41/41/41 34/34/34 42/42/42
f 41/41/41 44/44/44 34/34/34
f 44/44/44 33/33/33 34/34/34
f 46/46/46 45/45/45 36/36/36
f 45/45/45 47/47/47 36/36/36
f 45/45/45 43/43/43 47/47/47
f 43/43/43 42/42/42 47/47/47
f 49/49/49 48/48/48 43/43/43
f 48/48/48 41/41/41 43/43/43
f 48/48/48 50/50/50 41/41/41
f 50/50/50 44/44/44 41/41/41
f 52/52/52 51/51/51 46/46/46
f 51/51/51 45/45/45 46/46/46
f 51/51/51 49/49/49 45/45/45
f 49/49/49 43/43/43 45/45/45
f 53/53/53 6/6/6 49/49/49
f 6/6/6 48/48/48 49/49/49
f 6/6/6 8/8/8 48/48/48
f 8/8/8 50/50/50 48/48/48
f 10/10/10 54/54/54 52/52/52
f 54/54/54 51/51/51 52/52/52
f 54/54/54 53/53/53 51/51/51
f 53/53/53 49/49/49 51/51/51
