mtllib ./Torus235.mtl
g Torus235
v 10.35083 25.64993 -1.349812
v 27.96416 14.52426 -29.56841
v 6.821941 28.16956 -11.16591
v 28.97275 13.23658 -17.6299
v 4.727716 15.18931 -7.919156
v 28.97275 13.23658 -17.6299
v 10.35083 25.64993 -1.349812
v 16.47582 8.014308 -18.14482
v 0.6250303 22.46578 -17.50056
v 16.47582 8.014308 -18.14482
v 4.727716 15.18931 -7.919156
v 18.17877 11.74505 -32.7795
v 6.821941 28.16956 -11.16591
v 18.17877 11.74505 -32.7795
v 0.6250303 22.46578 -17.50056
v 27.96416 14.52426 -29.56841
v -12.89802 13.49191 23.29242
v 6.821941 28.16956 -11.16591
v -21.14143 12.91215 18.40164
v 10.35083 25.64993 -1.349812
v -11.74769 7.175043 10.22524
v -12.89802 13.49191 23.29242
v -22.95034 9.975012 7.703734
v -11.74769 7.175043 10.22524
v -21.14143 12.91215 18.40164
v 0.6250303 22.46578 -17.50056
v -22.95034 9.975012 7.703734
v 6.821941 28.16956 -11.16591
v -16.06974 -12.78918 28.92041
v -21.14143 12.91215 18.40164
v -25.85473 -16.30157 25.70888
v -12.89802 13.49191 23.29242
v -14.36678 -9.058441 14.28572
v -16.06974 -12.78918 28.92041
v -28.77269 -14.28283 15.57044
v -14.36678 -9.058441 14.28572
v -25.85473 -16.30157 25.70888
v -22.95034 9.975012 7.703734
v -28.77269 -14.28283 15.57044
v -21.14143 12.91215 18.40164
v 1.484005 -23.50992 13.64147
v -25.85473 -16.30157 25.70888
v -4.712906 -29.21369 7.306813
v -2.618696 -16.23345 4.060063
v -9.309976 -25.00145 -1.508131
v -28.77269 -14.28283 15.57044
v 25.05936 -11.01915 -11.56283
v 23.25046 -13.95629 -22.26073
v 13.85672 -8.219174 -14.08432
v 13.85718 -12.62433 -26.9496
v 13.85672 -8.219174 -14.08432
v 27.96416 14.52426 -29.56841
v 18.17877 11.74505 -32.7795

vn 0.5726081 0.816615 0.07252336
vn 0.5726081 0.816615 0.07252336
vn 0.5599289 0.8261689 0.06264598
vn 0.5865214 0.8056164 0.08351619
vn 0.4565879 -0.6958453 0.5543706
vn 0.7074816 -0.4326552 0.5588195
vn 0.5989548 -0.6783116 0.425613
vn -0.0009765849 -0.08800793 0.9961192
vn -0.4871292 -0.7510339 -0.4457054
vn -0.8439978 -0.4821514 -0.2349424
vn -0.2982137 -0.7925175 -0.5319628
vn -0.6727182 -0.6811643 -0.2889037
vn -0.06166247 0.8320813 -0.5512154
vn -0.06166247 0.8320813 -0.5512154
vn -0.08859408 0.8247119 -0.5585709
vn -0.03883975 0.8377737 -0.5446343
vn -0.1810012 0.9122152 0.3675623
vn -0.1810012 0.9122152 0.3675623
vn -0.2065107 0.9123014 0.3536375
vn -0.1499404 0.9110811 0.383991
vn 0.800731 -0.5447041 0.249253
vn 0.9168338 -0.3638702 0.1643605
vn -0.09163222 -0.6623511 -0.7435688
vn -0.02525974 -0.4588109 -0.8881748
vn -0.5751107 0.8166697 -0.04794078
vn -0.5751107 0.8166697 -0.04794078
vn -0.5639063 0.8249322 -0.03868474
vn -0.584063 0.8098141 -0.05542367
vn -0.4094408 0.1944585 0.8913721
vn -0.4094408 0.1944585 0.8913721
vn -0.3531014 0.2117033 0.9113182
vn -0.4740634 0.1730794 0.8633118
vn 0.9862365 0.09585866 0.1347176
vn 0.9117675 0.1326144 0.3887076
vn 0.035292 -0.2172685 -0.9754736
vn -0.2430372 0.4934253 -0.8351433
vn -0.9371033 0.2332205 0.2597029
vn -0.9371033 0.2332205 0.2597029
vn -0.8766317 0.2964064 0.3790253
vn -0.9691254 0.1822555 0.1660683
vn 0.5826684 -0.02823094 0.8122195
vn -0.1453781 -0.9155735 0.3749537
vn 0.08666632 -0.9955326 -0.03746861
vn -0.08057607 0.9957567 0.04445606
vn -0.5507101 -0.2224061 -0.804521
vn -0.7455801 -0.4449177 -0.4961438
vn 0.6935145 -0.2855377 0.6614423
vn 0.5578808 -0.7069119 -0.4347925
vn 0.1093996 0.6933997 0.7121998
vn -0.583461 0.1272133 -0.8021159
vn -0.920351 0.3849095 -0.06927107
vn 0.6585826 -0.2305208 -0.7163303
vn -0.8882411 0.07576501 -0.4530865

vt 0.6752704 0.9735928
vt 0.2446346 0.8758909
vt 0.6929141 0.8767412
vt 0.2817905 0.9671583
vt 0.6380022 0.7722026
vt 0.277391 0.871264
vt 0.6784101 0.8535439
vt 0.350321 0.7736256
vt 0.6453215 0.837348
vt 0.350321 0.7736257
vt 0.6380023 0.7722026
vt 0.3099997 0.871264
vt 0.6985783 0.8726183
vt 0.277391 0.979926
vt 0.7470008 0.9813232
vt 0.2922401 0.8619388
vt 0.983878 0.491543
vt 0.6985157 0.8690899
vt 0.8714362 0.5084542
vt 0.7456383 0.9752183
vt 0.7695636 0.5077362
vt 0.8498586 0.5052058
vt 0.8321275 0.5007949
vt 0.7695637 0.5077363
vt 0.872503 0.5064126
vt 0.7459486 0.9745319
vt 0.9853076 0.4923219
vt 0.6990488 0.8693933
vt 0.7713429 0.05892796
vt 0.8707275 0.5134657
vt 0.6642487 0.1576566
vt 0.981862 0.4900792
vt 0.635675 0.2332838
vt 0.707363 0.09283211
vt 0.6687157 0.1749577
vt 0.635675 0.2332838
vt 0.6477923 0.1284139
vt 0.9877226 0.4935502
vt 0.7417284 0.01384576
vt 0.8743604 0.5027312
vt 0.3069801 0.1159119
vt 0.7511458 0.02410679
vt 0.2735136 0.01117892
vt 0.3646964 0.2347069
vt 0.30698 0.1159119
vt 0.7073631 0.09283208
vt 0.1275425 0.5187011
vt 0.02503237 0.4852996
vt 0.220608 0.5025637
vt 0.129089 0.5166749
vt 0.2206079 0.5025636
vt 0.2534336 0.9782918
vt 0.277391 0.871264

usemtl sn09_02_SN919.JPG
usemap sn09_02_SN919.JPG
f 3/3/3 1/1/1 2/2/2
f 1/1/1 4/4/4 2/2/2
f 7/7/7 5/5/5 6/6/6
f 5/5/5 8/8/8 6/6/6
f 11/11/11 9/9/9 10/10/10
f 9/9/9 12/12/12 10/10/10
f 15/15/15 13/13/13 14/14/14
f 13/13/13 16/16/16 14/14/14
f 19/19/19 17/17/17 18/18/18
f 17/17/17 20/20/20 18/18/18
f 22/22/22 21/21/21 7/7/7
f 21/21/21 5/5/5 7/7/7
f 24/24/24 23/23/23 11/11/11
f 23/23/23 9/9/9 11/11/11
f 27/27/27 25/25/25 26/26/26
f 25/25/25 28/28/28 26/26/26
f 31/31/31 29/29/29 30/30/30
f 29/29/29 32/32/32 30/30/30
f 34/34/34 33/33/33 22/22/22
f 33/33/33 21/21/21 22/22/22
f 36/36/36 35/35/35 24/24/24
f 35/35/35 23/23/23 24/24/24
f 39/39/39 37/37/37 38/38/38
f 37/37/37 40/40/40 38/38/38
f 43/43/43 41/41/41 42/42/42
f 41/41/41 34/34/34 42/42/42
f 41/41/41 44/44/44 34/34/34
f 44/44/44 33/33/33 34/34/34
f 44/44/44 45/45/45 36/36/36
f 45/45/45 46/46/46 36/36/36
f 45/45/45 43/43/43 46/46/46
f 43/43/43 42/42/42 46/46/46
f 48/48/48 47/47/47 43/43/43
f 47/47/47 41/41/41 43/43/43
f 47/47/47 49/49/49 41/41/41
f 49/49/49 44/44/44 41/41/41
f 51/51/51 50/50/50 44/44/44
f 50/50/50 45/45/45 44/44/44
f 50/50/50 48/48/48 45/45/45
f 48/48/48 43/43/43 45/45/45
f 52/52/52 6/6/6 48/48/48
f 6/6/6 47/47/47 48/48/48
f 6/6/6 8/8/8 47/47/47
f 8/8/8 49/49/49 47/47/47
f 10/10/10 53/53/53 51/51/51
f 53/53/53 50/50/50 51/51/51
f 53/53/53 52/52/52 50/50/50
f 52/52/52 48/48/48 50/50/50
