mtllib ./Torus238.mtl
g Torus238
v -19.64723 -16.69677 -10.10247
v -28.54064 -23.44156 22.91097
v -28.14179 -11.84959 -5.686177
v -19.25134 -26.59011 15.7407
v -13.9242 -5.913085 -0.7776182
v -14.11176 -11.36406 12.66986
v -28.32904 -2.967125 -0.01803594
v -14.11176 -11.36406 12.66986
v -13.9242 -5.913085 -0.7776182
v -28.66019 -12.59175 23.72575
v -28.14179 -11.84959 -5.686177
v -28.54064 -23.44156 22.91097
v 3.718251 2.62626 -29.49911
v 0.3990311 11.59161 -28.59666
v 0.07044997 5.392788 -13.12513
v -4.373468 17.26899 -19.75025
v 0.07044997 5.392788 -13.12513
v 0.3990311 11.59161 -28.59666
v 27.13485 11.8386 -19.53827
v 27.01529 22.6884 -18.72349
v 12.58636 10.69381 -8.482316
v 17.72599 25.83695 -11.55322
v 12.58636 10.69381 -8.482316
v 27.01529 22.6884 -18.72349
v 26.80369 2.213967 4.205512
v 26.61644 11.09644 9.873685
v 12.39886 5.159927 4.965094
v 17.39483 16.21232 12.19059
v 12.39886 5.159927 4.965094
v 26.61644 11.09644 9.873685
v 2.847743 -17.37662 23.93825
v -1.924381 -12.34478 32.78417
v -1.595797 -6.145946 17.3126
v -6.657529 -2.910977 32.01355
v -1.595797 -6.145946 17.3126
v -1.924381 -12.34478 32.78417

vn 0.235677 -0.9529908 -0.190433
vn -0.4329999 -0.8932115 0.1211789
vn -0.7142528 -0.3519226 -0.604974
vn 0.4207968 -0.9034841 -0.08152575
vn 0.8382763 -0.5413573 -0.06500023
vn 0.498513 -0.4625158 -0.7331876
vn -0.4583797 0.8869696 0.05632985
vn 0.1837734 0.9768426 0.1095712
vn 0.3517679 0.6952752 0.6267788
vn -0.5552978 0.8146721 0.1671943
vn -0.9591606 0.2234561 -0.1734304
vn -0.5867107 0.05676698 0.8078044
vn 0.06436123 -0.9054166 -0.4196169
vn -0.178653 -0.04207382 -0.9830122
vn 0.6226112 -0.7427922 0.2462013
vn -0.1899206 0.9642321 0.1848966
vn -0.06947863 0.5022624 0.8619195
vn -0.6308383 0.5050876 -0.5890071
vn 0.2385868 -0.8169648 -0.5250189
vn 0.8689992 -0.07898851 -0.4884681
vn 0.09681012 -0.9818594 0.1630334
vn -0.1092225 0.9022253 0.417205
vn -0.786875 0.4680538 0.4021858
vn 0.1568482 0.9064685 -0.392063
vn 0.4301753 -0.8138967 -0.3905396
vn 0.8854865 -0.2973315 0.3570822
vn -0.3335211 -0.8529209 -0.4016091
vn -0.1802582 0.8387147 0.5138723
vn -0.7905298 0.5742126 -0.212938
vn 0.6241965 0.6363277 0.4532834
vn 0.5546768 -0.8174034 -0.1555164
vn 0.4351437 -0.660232 0.6121631
vn -0.2095476 -0.6039639 -0.7689717
vn -0.4630708 0.7936054 0.3946592
vn -0.4143725 0.8416414 -0.3463166
vn 0.3696869 0.2728152 0.8882024

vt 0.6980039 0.8731537
vt 0.2433945 0.9376158
vt 0.7498299 0.9672751
vt 0.2958525 0.8524548
vt 0.6356262 0.7702881
vt 0.3460456 0.769505
vt 0.6918024 0.8863145
vt 0.3626105 0.7622945
vt 0.6291757 0.7610473
vt 0.3062268 0.8879081
vt 0.7445956 0.9826544
vt 0.2556891 0.9788222
vt 0.8713952 0.4955808
vt 0.9839635 0.496488
vt 0.7613097 0.495862
vt 0.9017462 0.5075983
vt 0.7602401 0.4926552
vt 0.983829 0.4888711
vt 0.6894398 0.1492941
vt 0.7438309 0.03588272
vt 0.6353809 0.2353827
vt 0.6907962 0.1073522
vt 0.6310009 0.2312406
vt 0.7423962 0.01643815
vt 0.3118785 0.1387074
vt 0.2663901 0.01877903
vt 0.3573981 0.2345997
vt 0.3118872 0.1156726
vt 0.3658295 0.2339756
vt 0.2580318 0.01588233
vt 0.1089403 0.5054999
vt 0.02645768 0.5052608
vt 0.2259157 0.4870534
vt 0.125707 0.4916356
vt 0.2329327 0.493441
vt 0.02000694 0.4815242

usemtl sn09_02_SN919.JPG
usemap sn09_02_SN919.JPG
f 3/3/3 1/1/1 2/2/2
f 1/1/1 4/4/4 2/2/2
f 1/1/1 5/5/5 4/4/4
f 5/5/5 6/6/6 4/4/4
f 9/9/9 7/7/7 8/8/8
f 7/7/7 10/10/10 8/8/8
f 7/7/7 11/11/11 10/10/10
f 11/11/11 12/12/12 10/10/10
f 14/14/14 13/13/13 3/3/3
f 13/13/13 1/1/1 3/3/3
f 13/13/13 15/15/15 1/1/1
f 15/15/15 5/5/5 1/1/1
f 17/17/17 16/16/16 9/9/9
f 16/16/16 7/7/7 9/9/9
f 16/16/16 18/18/18 7/7/7
f 18/18/18 11/11/11 7/7/7
f 20/20/20 19/19/19 14/14/14
f 19/19/19 13/13/13 14/14/14
f 19/19/19 21/21/21 13/13/13
f 21/21/21 15/15/15 13/13/13
f 23/23/23 22/22/22 17/17/17
f 22/22/22 16/16/16 17/17/17
f 22/22/22 24/24/24 16/16/16
f 24/24/24 18/18/18 16/16/16
f 26/26/26 25/25/25 20/20/20
f 25/25/25 19/19/19 20/20/20
f 25/25/25 27/27/27 19/19/19
f 27/27/27 21/21/21 19/19/19
f 29/29/29 28/28/28 23/23/23
f 28/28/28 22/22/22 23/23/23
f 28/28/28 30/30/30 22/22/22
f 30/30/30 24/24/24 22/22/22
f 32/32/32 31/31/31 26/26/26
f 31/31/31 25/25/25 26/26/26
f 31/31/31 33/33/33 25/25/25
f 33/33/33 27/27/27 25/25/25
f 35/35/35 34/34/34 29/29/29
f 34/34/34 28/28/28 29/29/29
f 34/34/34 36/36/36 28/28/28
f 36/36/36 30/30/30 28/28/28
f 2/2/2 4/4/4 32/32/32
f 4/4/4 31/31/31 32/32/32
f 4/4/4 6/6/6 31/31/31
f 6/6/6 33/33/33 31/31/31
f 8/8/8 10/10/10 35/35/35
f 10/10/10 34/34/34 35/35/35
f 10/10/10 12/12/12 34/34/34
f 12/12/12 36/36/36 34/34/34
