mtllib ./Torus217.mtl
g Torus217
v -24.12672 20.15592 8.891242
v -28.55 0.0001029968 28.02561
v -20.1878 24.9116 19.81719
v -30.89299 0.0001029968 15.53306
v -14.9163 12.46362 5.500409
v -19.10028 9.918213E-05 9.607434
v -5.285027 12.46362 14.33071
v -9.469004 9.918213E-05 18.43774
v -8.542996 19.57991 23.17897
v -15.30926 9.918213E-05 29.8208
v -7.791531 28.50474 -7.143548
v 0.0003288559 35.22806 0.0003196218
v -4.815304 17.62617 -4.414831
v 4.81597 17.62617 4.41547
v 7.792197 28.50474 7.144186
v 8.543654 20.15592 -23.17833
v 20.18847 25.19527 -19.81656
v 5.285688 12.46362 -14.33007
v 14.91697 12.46362 -5.49977
v 24.12739 20.15592 -8.890602
v 15.30991 9.918213E-05 -29.82015
v 28.55066 9.918213E-05 -28.02497
v 9.469657 9.918213E-05 -18.4371
v 19.10093 9.918213E-05 -9.606798
v 30.89364 9.918213E-05 -15.53242

vn -0.8741444 0.2244804 -0.4306738
vn -0.7506395 0.4214835 0.5088145
vn -0.4496922 0.7516049 0.4825631
vn -0.7790735 0.06826556 -0.6232048
vn -0.07214764 -0.6096271 -0.7893981
vn 0.3473484 -0.3926302 -0.8515812
vn 0.8146423 -0.5782684 0.04431505
vn 0.9477953 -0.2786846 0.1549807
vn 0.4780673 0.3786565 0.7925092
vn 0.1730862 0.2484222 0.9530622
vn -0.6878153 0.4250335 -0.5884357
vn -0.001022134 0.9999547 0.009455022
vn -0.4278697 -0.8071636 -0.4067118
vn 0.4278697 -0.8071635 0.4067119
vn 0.6842221 0.4256514 0.5921664
vn -0.481708 0.3764237 -0.7913675
vn 0.4594751 0.7500539 -0.4757119
vn -0.816538 -0.5746265 -0.05540917
vn 0.07214758 -0.6096272 0.7893982
vn 0.8741443 0.2224609 0.4317209
vn -0.172876 0.2446 -0.9540884
vn 0.7527105 0.4185876 -0.5081451
vn -0.9477637 -0.2735771 -0.164011
vn -0.3473484 -0.3926302 0.8515813
vn 0.7790735 0.06826527 0.6232049

vt 0.3090659 0.09712924
vt 0.74944 0.01806936
vt 0.2795873 0.006454375
vt 0.7061608 0.1030096
vt 0.3869305 0.197853
vt 0.6361336 0.2404457
vt 0.3869305 0.197853
vt 0.6361336 0.2404457
vt 0.3163431 0.1008371
vt 0.7061608 0.1030095
vt 0.2040775 0.3194834
vt 0.1191373 0.2762042
vt 0.2792278 0.3864455
vt 0.2792277 0.3864455
vt 0.2040774 0.3194833
vt 0.1533829 0.5757631
vt 0.06271806 0.605222
vt 0.2453455 0.5311628
vt 0.2453455 0.5311627
vt 0.1533828 0.5757632
vt 0.299546 0.9029355
vt 0.2562668 0.9878757
vt 0.3695731 0.7654994
vt 0.3695731 0.7654994
vt 0.2995459 0.9029356

usemtl sn09_02_SN919.JPG
usemap sn09_02_SN919.JPG
f 3/3/3 1/1/1 2/2/2
f 1/1/1 4/4/4 2/2/2
f 1/1/1 5/5/5 4/4/4
f 5/5/5 6/6/6 4/4/4
f 5/5/5 7/7/7 6/6/6
f 7/7/7 8/8/8 6/6/6
f 7/7/7 9/9/9 8/8/8
f 9/9/9 10/10/10 8/8/8
f 9/9/9 3/3/3 10/10/10
f 3/3/3 2/2/2 10/10/10
f 12/12/12 11/11/11 3/3/3
f 11/11/11 1/1/1 3/3/3
f 11/11/11 13/13/13 1/1/1
f 13/13/13 5/5/5 1/1/1
f 13/13/13 14/14/14 5/5/5
f 14/14/14 7/7/7 5/5/5
f 14/14/14 15/15/15 7/7/7
f 15/15/15 9/9/9 7/7/7
f 15/15/15 12/12/12 9/9/9
f 12/12/12 3/3/3 9/9/9
f 17/17/17 16/16/16 12/12/12
f 16/16/16 11/11/11 12/12/12
f 16/16/16 18/18/18 11/11/11
f 18/18/18 13/13/13 11/11/11
f 18/18/18 19/19/19 13/13/13
f 19/19/19 14/14/14 13/13/13
f 19/19/19 20/20/20 14/14/14
f 20/20/20 15/15/15 14/14/14
f 20/20/20 17/17/17 15/15/15
f 17/17/17 12/12/12 15/15/15
f 22/22/22 21/21/21 17/17/17
f 21/21/21 16/16/16 17/17/17
f 21/21/21 23/23/23 16/16/16
f 23/23/23 18/18/18 16/16/16
f 23/23/23 24/24/24 18/18/18
f 24/24/24 19/19/19 18/18/18
f 24/24/24 25/25/25 19/19/19
f 25/25/25 20/20/20 19/19/19
f 25/25/25 22/22/22 20/20/20
f 22/22/22 17/17/17 20/20/20
