mtllib ./Torus241.mtl
g Torus241
v 8.282027 3.319981 10.13027
v -5.875927 0.0003852844 13.68935
v 10.03496 0.0003852844 12.27419
v -4.849628 3.319981 11.29824
v 5.445724 2.05201 6.66134
v -3.189042 2.052006 7.429338
v 5.445724 -2.051235 6.66134
v -3.189038 -2.051239 7.429338
v 8.282031 -3.31921 10.13027
v -4.849628 -3.31921 11.29824
v 13.13121 3.319981 -1.167533
v 15.91045 0.0003890991 -1.414731
v 8.63432 2.05201 -0.7675665
v 8.63432 -2.051235 -0.7675665
v 13.13122 -3.319206 -1.167532
v 4.848743 3.319981 -11.29738
v 5.875042 0.0003852844 -13.68849
v 3.188154 2.05201 -7.428475
v 3.188154 -2.051235 -7.428475
v 4.848743 -3.319206 -11.29738
v -8.282915 3.319981 -10.12941
v -10.03585 0.0003852844 -12.27333
v -5.446608 2.052006 -6.660478
v -5.446608 -2.051239 -6.660478
v -8.282915 -3.31921 -10.12941
v -13.1321 7.182003 1.168403
v -15.91133 0.0003814697 1.415594
v -8.635204 2.052006 0.7684292
v -8.635204 -2.051239 0.7684292
v -13.1321 -3.31921 1.168395

vn 0.08849237 0.9320819 0.3512726
vn -0.378666 -1.446057E-08 0.9255334
vn 0.5763068 3.068506E-08 0.8172334
vn -0.3076715 0.8470203 0.4334684
vn -0.4647032 0.6851082 -0.5609614
vn 0.4147252 0.5798042 -0.7013059
vn -0.3750972 -0.6806632 -0.6292852
vn 0.3308783 -0.6615326 -0.6729742
vn 0.2912475 -0.9384561 0.1856742
vn -0.01853616 -0.929524 0.3682956
vn 0.3356542 0.9387951 0.07745935
vn 0.9861085 4.949972E-07 -0.166103
vn -0.7078731 0.6838338 0.176881
vn -0.7230691 -0.6878219 0.0638153
vn 0.3082049 -0.9331375 -0.1851054
vn 0.2442782 0.9302408 -0.2738248
vn 0.3786662 8.676347E-08 -0.9255334
vn -0.2359106 0.661071 0.712272
vn -0.3308781 -0.6615328 0.672974
vn 0.01853614 -0.9295241 -0.3682952
vn 0.1169024 0.9213178 -0.3708198
vn -0.6293235 -2.552397E-08 -0.7771434
vn 0.4647031 0.6851082 0.5609613
vn 0.3750974 -0.6806633 0.6292849
vn -0.2912472 -0.9384561 -0.1856745
vn -0.3356546 0.938795 -0.07745926
vn -0.983357 -6.737626E-08 0.1816839
vn 0.8314213 0.5090849 -0.2226462
vn 0.7230691 -0.6878217 -0.06381527
vn -0.3082049 -0.9331375 0.1851054

vt 0.692826 0.9016582
vt 0.2573886 0.9827486
vt 0.7302139 0.9743752
vt 0.3010118 0.8989493
vt 0.6255484 0.7693139
vt 0.3693346 0.7780452
vt 0.6255484 0.769314
vt 0.3693346 0.7780452
vt 0.692826 0.9016582
vt 0.3010118 0.8989493
vt 0.8853763 0.5130563
vt 0.97317 0.5019739
vt 0.7678633 0.5199735
vt 0.7678633 0.5199735
vt 0.8853763 0.5130563
vt 0.690634 0.1217452
vt 0.7297353 0.02693145
vt 0.6449206 0.2353064
vt 0.6449206 0.2353064
vt 0.690634 0.1217452
vt 0.3078635 0.1190363
vt 0.2591709 0.02429036
vt 0.3728802 0.2220087
vt 0.3728802 0.2220087
vt 0.3078634 0.1190362
vt 0.1040086 0.5039667
vt 0.02299759 0.5150492
vt 0.2260434 0.5043926
vt 0.2260434 0.5043926
vt 0.1040086 0.5039667

usemtl sn09_02_SN919.JPG
usemap sn09_02_SN919.JPG
f 3/3/3 1/1/1 2/2/2
f 1/1/1 4/4/4 2/2/2
f 1/1/1 5/5/5 4/4/4
f 5/5/5 6/6/6 4/4/4
f 5/5/5 7/7/7 6/6/6
f 7/7/7 8/8/8 6/6/6
f 7/7/7 9/9/9 8/8/8
f 9/9/9 10/10/10 8/8/8
f 9/9/9 3/3/3 10/10/10
f 3/3/3 2/2/2 10/10/10
f 12/12/12 11/11/11 3/3/3
f 11/11/11 1/1/1 3/3/3
f 11/11/11 13/13/13 1/1/1
f 13/13/13 5/5/5 1/1/1
f 13/13/13 14/14/14 5/5/5
f 14/14/14 7/7/7 5/5/5
f 14/14/14 15/15/15 7/7/7
f 15/15/15 9/9/9 7/7/7
f 15/15/15 12/12/12 9/9/9
f 12/12/12 3/3/3 9/9/9
f 17/17/17 16/16/16 12/12/12
f 16/16/16 11/11/11 12/12/12
f 16/16/16 18/18/18 11/11/11
f 18/18/18 13/13/13 11/11/11
f 18/18/18 19/19/19 13/13/13
f 19/19/19 14/14/14 13/13/13
f 19/19/19 20/20/20 14/14/14
f 20/20/20 15/15/15 14/14/14
f 20/20/20 17/17/17 15/15/15
f 17/17/17 12/12/12 15/15/15
f 22/22/22 21/21/21 17/17/17
f 21/21/21 16/16/16 17/17/17
f 21/21/21 23/23/23 16/16/16
f 23/23/23 18/18/18 16/16/16
f 23/23/23 24/24/24 18/18/18
f 24/24/24 19/19/19 18/18/18
f 24/24/24 25/25/25 19/19/19
f 25/25/25 20/20/20 19/19/19
f 25/25/25 22/22/22 20/20/20
f 22/22/22 17/17/17 20/20/20
f 27/27/27 26/26/26 22/22/22
f 26/26/26 21/21/21 22/22/22
f 26/26/26 28/28/28 21/21/21
f 28/28/28 23/23/23 21/21/21
f 28/28/28 29/29/29 23/23/23
f 29/29/29 24/24/24 23/23/23
f 29/29/29 30/30/30 24/24/24
f 30/30/30 25/25/25 24/24/24
f 30/30/30 27/27/27 25/25/25
f 27/27/27 22/22/22 25/25/25
f 2/2/2 4/4/4 27/27/27
f 4/4/4 26/26/26 27/27/27
f 4/4/4 6/6/6 26/26/26
f 6/6/6 28/28/28 26/26/26
f 6/6/6 8/8/8 28/28/28
f 8/8/8 29/29/29 28/28/28
f 8/8/8 10/10/10 29/29/29
f 10/10/10 30/30/30 29/29/29
f 10/10/10 2/2/2 30/30/30
f 2/2/2 27/27/27 30/30/30
