mtllib ./a03.mtl
g a03
v 7.658264 8.119643E-05 2.960648
v 23.03656 7.356703E-05 2.960648
v 7.709106 43.07559 3.036011
v 23.23334 43.07559 3.036015
v 7.709106 147.0092 3.035999
v 23.23334 147.0092 3.035999
v 7.658264 7.356703E-05 -9.041943
v 7.658264 8.119643E-05 2.960648
v 7.709106 43.07558 -8.980507
v 7.709106 43.07559 3.036011
v 7.709106 147.0092 -8.980518
v 7.709106 147.0092 3.035999
v 23.03656 6.593764E-05 -9.041943
v 7.658264 7.356703E-05 -9.041943
v 23.23334 43.07559 -8.980503
v 7.709106 43.07558 -8.980507
v 23.23334 147.0092 -8.980518
v 7.709106 147.0092 -8.980518
v 23.03656 7.356703E-05 2.960648
v 23.03656 6.593764E-05 -9.041943
v 23.23334 43.07559 3.036015
v 23.23334 43.07559 -8.980503
v 23.23334 147.0092 3.035999
v 23.23334 147.0092 -8.980518
v 17.4303 106.9397 -63.78912
v 17.4303 106.9397 -8.68045
v 14.47321 106.9397 -63.78912
v 14.47314 106.9397 -8.68045
v 14.47314 106.9397 -8.68045
v 17.4303 106.9397 -8.68045
v 14.47314 127.0031 -8.680458
v 17.4303 127.0031 -8.680458
v 14.47321 106.9397 -63.78912
v 14.47314 106.9397 -8.68045
v 14.47321 127.0031 -63.78912
v 14.47314 127.0031 -8.680458
v 17.4303 106.9397 -8.68045
v 17.4303 106.9397 -63.78912
v 17.4303 127.0031 -8.680458
v 17.4303 127.0031 -63.78913
v 7.658264 8.119643E-05 -61.58923
v 23.03656 7.356703E-05 -61.58922
v 7.709106 43.07559 -61.51384
v 23.23334 43.07559 -61.51384
v 7.709106 140.0825 -61.51385
v 23.23334 140.0825 -61.51385
v 7.658264 7.356703E-05 -73.59182
v 7.658264 8.119643E-05 -61.58923
v 7.709106 43.07559 -73.53038
v 7.709106 43.07559 -61.51384
v 7.709106 140.0825 -73.53039
v 7.709106 140.0825 -61.51385
v 23.03656 6.593764E-05 -73.59182
v 7.658264 7.356703E-05 -73.59182
v 23.23334 43.07559 -73.53038
v 7.709106 43.07559 -73.53038
v 23.23334 140.0825 -73.53038
v 7.709106 140.0825 -73.53039
v 23.03656 7.356703E-05 -61.58922
v 23.03656 6.593764E-05 -73.59182
v 23.23334 43.07559 -61.51384
v 23.23334 43.07559 -73.53038
v 23.23334 140.0825 -61.51385
v 23.23334 140.0825 -73.53038

vn -8.679803E-10 -0.001749557 0.9999986
vn -1.238747E-07 -0.0017496 0.9999986
vn -1.906419E-07 -0.0007908602 0.9999997
vn -1.439526E-07 -0.0003002287 0.9999999
vn -1.228627E-07 1.284612E-07 0.9999999
vn 0 1.468128E-07 0.9999999
vn -0.9999993 0.001180305 -7.502559E-10
vn -0.9999993 0.001180305 -7.498208E-10
vn -0.9999999 0.000534774 -3.397297E-10
vn -1 0.0002026051 -1.286358E-10
vn -1 0 0
vn -1 0 0
vn 7.076176E-10 0.001426319 -0.999999
vn 1.236188E-07 0.001426275 -0.999999
vn 1.905263E-07 0.000644678 -0.9999998
vn 1.438925E-07 0.0002447131 -0.9999999
vn 1.228627E-07 -1.284612E-07 -1
vn 0 -1.101096E-07 -1
vn 0.9999894 -0.004568146 2.903722E-09
vn 0.9999895 -0.004568147 2.176529E-09
vn 0.9999979 -0.002069758 9.86152E-10
vn 0.9999996 -0.0007841521 2.489326E-10
vn 1 0 0
vn 1 0 0
vn 0 -1 0
vn 0 -1 0
vn 0 -1 0
vn 0 -1 0
vn 0 3.802646E-07 0.9999999
vn 0 3.802646E-07 0.9999999
vn 0 3.802646E-07 0.9999999
vn 0 3.802646E-07 0.9999999
vn -1 -4.21159E-13 -1.107542E-06
vn -1 -4.21159E-13 -1.107542E-06
vn -1 -4.21159E-13 -1.107542E-06
vn -1 -4.21159E-13 -1.107542E-06
vn 1 0 0
vn 1 0 0
vn 1 0 0
vn 1 0 0
vn -4.969819E-07 -0.001750087 0.9999985
vn -2.471014E-07 -0.001749999 0.9999985
vn -1.15938E-07 -0.0008210015 0.9999997
vn 7.810828E-11 -0.0003178038 0.9999999
vn -1.93258E-14 1.572959E-07 0.9999999
vn 0 1.572959E-07 0.9999999
vn -0.9999993 0.001180305 -7.502555E-10
vn -0.9999993 0.001180305 -3.7491E-10
vn -0.9999999 0.0005550036 -1.762903E-10
vn -1 0.0002144437 0
vn -1 0 0
vn -1 0 0
vn 7.076176E-10 0.001426319 -0.999999
vn 3.52138E-10 0.00142632 -0.999999
vn 1.652202E-10 0.0006692172 -0.9999998
vn 2.010808E-07 0.0002591087 -1
vn 2.457253E-07 -3.932398E-08 -1
vn 4.914507E-07 -7.864796E-08 -1
vn 0.9999895 -0.004568146 2.90372E-09
vn 0.9999896 -0.004568147 2.176526E-09
vn 0.9999977 -0.002148053 1.023455E-09
vn 0.9999996 -0.0008299716 2.634777E-10
vn 1 0 0
vn 1 0 0

vt 0.9995003 0.0004996359
vt 0.8168627 0.0004996061
vt 0.9945228 0.330051
vt 0.797601 0.330051
vt 0.9945228 0.9995005
vt 0.7976012 0.9995005
vt 0.9995002 0.0004995465
vt 0.8051232 0.0004996359
vt 0.9933679 0.3300509
vt 0.797601 0.330051
vt 0.9933679 0.9995004
vt 0.797601 0.9995005
vt 0.9802383 0.0004995167
vt 0.7976009 0.0004995465
vt 0.9995002 0.330051
vt 0.8025783 0.3300509
vt 0.9995 0.9995004
vt 0.8025783 0.9995004
vt 0.991978 0.0004996061
vt 0.797601 0.0004995167
vt 0.9995002 0.330051
vt 0.8037333 0.330051
vt 0.9995002 0.9995005
vt 0.8037333 0.9995004
vt 0.7850242 0.589372
vt 0.3115942 0.589372
vt 0.7850242 0.8091787
vt 0.3115942 0.8091787
vt 0.7801933 0.5917875
vt 0.3019324 0.5917875
vt 0.7801933 0.8067633
vt 0.3019324 0.8067633
vt 0.7801933 0.5917875
vt 0.3019324 0.5917875
vt 0.7801933 0.8067633
vt 0.3019324 0.8067633
vt 0.7801933 0.5917875
vt 0.3019324 0.5917875
vt 0.7801933 0.8067633
vt 0.3019324 0.8067633
vt 0.9995003 0.0004996359
vt 0.8168627 0.0004996061
vt 0.9945228 0.330051
vt 0.797601 0.330051
vt 0.9945228 0.9995005
vt 0.7976012 0.9995005
vt 0.9995002 0.0004995465
vt 0.8051232 0.0004996359
vt 0.9933679 0.3300509
vt 0.797601 0.330051
vt 0.9933679 0.9995004
vt 0.797601 0.9995005
vt 0.9802383 0.0004995167
vt 0.7976009 0.0004995465
vt 0.9995002 0.330051
vt 0.8025783 0.3300509
vt 0.9995 0.9995004
vt 0.8025783 0.9995004
vt 0.991978 0.0004996061
vt 0.797601 0.0004995167
vt 0.9995002 0.330051
vt 0.8037333 0.330051
vt 0.9995002 0.9995005
vt 0.8037333 0.9995004

usemtl sn04_08_sn0415.JPG
usemap sn04_08_sn0415.JPG
f 3/3/3 1/1/1 2/2/2
f 2/2/2 4/4/4 3/3/3
f 5/5/5 3/3/3 4/4/4
f 4/4/4 6/6/6 5/5/5
f 9/9/9 7/7/7 8/8/8
f 8/8/8 10/10/10 9/9/9
f 11/11/11 9/9/9 10/10/10
f 10/10/10 12/12/12 11/11/11
f 15/15/15 13/13/13 14/14/14
f 14/14/14 16/16/16 15/15/15
f 17/17/17 15/15/15 16/16/16
f 16/16/16 18/18/18 17/17/17
f 21/21/21 19/19/19 20/20/20
f 20/20/20 22/22/22 21/21/21
f 23/23/23 21/21/21 22/22/22
f 22/22/22 24/24/24 23/23/23
f 27/27/27 25/25/25 26/26/26
f 26/26/26 28/28/28 27/27/27
f 31/31/31 29/29/29 30/30/30
f 30/30/30 32/32/32 31/31/31
f 35/35/35 33/33/33 34/34/34
f 34/34/34 36/36/36 35/35/35
f 39/39/39 37/37/37 38/38/38
f 38/38/38 40/40/40 39/39/39
f 43/43/43 41/41/41 42/42/42
f 42/42/42 44/44/44 43/43/43
f 45/45/45 43/43/43 44/44/44
f 44/44/44 46/46/46 45/45/45
f 49/49/49 47/47/47 48/48/48
f 48/48/48 50/50/50 49/49/49
f 51/51/51 49/49/49 50/50/50
f 50/50/50 52/52/52 51/51/51
f 55/55/55 53/53/53 54/54/54
f 54/54/54 56/56/56 55/55/55
f 57/57/57 55/55/55 56/56/56
f 56/56/56 58/58/58 57/57/57
f 61/61/61 59/59/59 60/60/60
f 60/60/60 62/62/62 61/61/61
f 63/63/63 61/61/61 62/62/62
f 62/62/62 64/64/64 63/63/63
