mtllib ./Box03.mtl
g Box03
v 3.301208 -4.489273 0.0003013611
v 3.301208 4.489822 0.0003013611
v -3.301086 4.489822 0.0003013611
v -3.301086 -4.489273 0.0003013611
v 3.301208 -4.489258 -98.80001
v -3.301086 -4.489258 -98.80001
v -3.301086 4.489838 -98.8
v 3.301208 4.489838 -98.8
v 3.301208 -4.489273 0.0003013611
v -3.301086 -4.489273 0.0003013611
v -3.301086 -4.489258 -98.80001
v 3.301208 -4.489258 -98.80001
v -3.301086 4.489822 0.0003013611
v -3.301086 -4.489258 -98.80001
v -3.301086 4.489822 0.0003013611
v 3.301208 4.489822 0.0003013611
v 3.301208 4.489838 -98.8
v -3.301086 4.489838 -98.8
v 3.301208 4.489822 0.0003013611
v 3.301208 -4.489258 -98.80001
v 3.30127 -32.24459 0.0003013611
v 3.30127 -27.68489 0.0003013611
v -0.3950195 -27.68489 0.0003013611
v -0.3950195 -32.24459 0.0003013611
v 3.30127 -32.24457 -98.8
v -0.3950195 -32.24457 -98.8
v -0.3950195 -27.68488 -98.8
v 3.30127 -27.68488 -98.8
v 3.30127 -32.24459 0.0003013611
v -0.3950195 -32.24459 0.0003013611
v -0.3950195 -32.24457 -98.8
v 3.30127 -32.24457 -98.8
v -0.3950195 -27.68489 0.0003013611
v -0.3950195 -32.24457 -98.8
v -0.3950195 -27.68489 0.0003013611
v 3.30127 -27.68489 0.0003013611
v 3.30127 -27.68488 -98.8
v -0.3950195 -27.68488 -98.8
v 3.30127 -27.68489 0.0003013611
v 3.30127 -32.24457 -98.8
v -1.297668 0.005172729 -16.86194
v -1.297668 0.005172729 -81.48475
v -1.448914 -28.77229 -81.41267
v -1.448914 -28.77229 -16.86194
v 2.213806 -28.77229 -81.2728
v 2.051025 0.005172729 -81.25682
v 2.051025 0.005172729 -16.86194
v 2.213806 -28.77229 -16.86194
v -1.448914 -28.77229 -81.41267
v -1.297668 0.005172729 -81.48475
v 2.213806 -28.77229 -16.86194
v 2.051025 0.005172729 -16.86194
v -1.448914 -28.77229 -16.86194
v 2.213806 -28.77229 -16.86194
v -1.297668 0.005172729 -81.48475

vn 0.9911869 0 0.1324714
vn 0 0 0.9999999
vn 0 0 0.9999999
vn -0.9994423 0 0.03339368
vn 0 8.496841E-07 -0.9999999
vn 0 8.496841E-07 -0.9999999
vn -0.9977747 5.665348E-08 -0.06667593
vn 0.9977747 5.665348E-08 -0.06667594
vn 0 -1 -1.544407E-07
vn 0 -1 -1.544407E-07
vn 0 -1 -1.544407E-07
vn 0 -1 -1.544407E-07
vn -1 0 0
vn -1 0 0
vn 0 1 1.544407E-07
vn 0 1 1.544407E-07
vn 0 1 1.544407E-07
vn 0 1 1.544407E-07
vn 0.9999999 0 0
vn 0.9999999 0 0
vn 0.9972125 0 0.07461486
vn 0 0 1
vn 0 0 1
vn -0.9998251 0 0.0187026
vn 0 0 -1
vn 0 0 -1
vn -0.999301 0 -0.03738553
vn 0.9993009 0 -0.03738556
vn 0 -1 -2.316611E-07
vn 0 -1 -2.316611E-07
vn 0 -1 -2.316611E-07
vn 0 -1 -2.316611E-07
vn -1 0 0
vn -0.9999999 0 0
vn 0 1 1.544407E-07
vn 0 1 1.544407E-07
vn 0 1 1.544407E-07
vn 0 1 1.544407E-07
vn 1 0 0
vn 1 0 0
vn -0.9999862 0.005255607 3.104126E-10
vn -0.9996645 -0.0002003611 0.02590085
vn -0.9999862 0.005255607 3.104126E-10
vn -0.9999862 0.005255606 6.211718E-10
vn 0.9995807 0.005669928 -0.02839324
vn 0.9941756 0.005487875 -0.1076326
vn 0.999984 0.005656446 2.572796E-10
vn 0.999984 0.005656445 5.144954E-10
vn 0.05238605 -0.0009628645 -0.9986265
vn 0.0679074 -0.002855669 -0.9976876
vn -0.9986441 -0.005648866 0.05174881
vn -0.9986441 -0.005648866 0.05174881
vn 0 0.9135163 0.406802
vn 0 0.9135163 0.406802
vn 0 0.9135163 0.406802

vt 0.9995005 0.1792437
vt 0.9995002 0.9729304
vt 0.8096783 0.9729303
vt 0.8096786 0.1792435
vt 0.8096783 0.1792437
vt 0.9995002 0.1792435
vt 0.9995005 0.9729303
vt 0.8096786 0.9729304
vt 0.8096783 0.1792435
vt 0.9995002 0.1792435
vt 0.9995002 0.9729305
vt 0.8096783 0.9729305
vt 0.9995003 0.1792435
vt 0.8096783 0.9729305
vt 0.8096783 0.1792435
vt 0.9995002 0.1792435
vt 0.9995002 0.9729305
vt 0.8096783 0.9729305
vt 0.8096783 0.1792435
vt 0.9995003 0.9729305
vt 0.9995005 0.1913212
vt 0.9995003 0.9656841
vt 0.8193401 0.9656836
vt 0.8193402 0.1913208
vt 0.8193401 0.1913212
vt 0.9995003 0.1913208
vt 0.9995005 0.9656836
vt 0.8193402 0.9656841
vt 0.8193401 0.1913208
vt 0.9995003 0.1913208
vt 0.9995003 0.9656841
vt 0.8193401 0.9656841
vt 0.9995 0.1913208
vt 0.8193401 0.9656841
vt 0.8193401 0.1913208
vt 0.9995003 0.1913208
vt 0.9995003 0.9656841
vt 0.8193401 0.9656841
vt 0.8193401 0.1913208
vt 0.9995 0.9656841
vt 0.7821091 0.8159256
vt 0.3072628 0.8159256
vt 0.308377 0.5850406
vt 0.7821091 0.5850406
vt 0.7788325 0.5850406
vt 0.7785854 0.8159256
vt 0.3072628 0.8159256
vt 0.3072628 0.5850406
vt 0.780995 0.5850406
vt 0.7821091 0.8159256
vt 0.7821091 0.5850406
vt 0.7821091 0.8159256
vt 0.7821091 0.8159255
vt 0.307269 0.8159256
vt 0.7408478 0.5850406

usemtl sn04_08_sn0415.JPG
usemap sn04_08_sn0415.JPG
f 3/3/3 1/1/1 2/2/2
f 1/1/1 3/3/3 4/4/4
f 7/7/7 5/5/5 6/6/6
f 5/5/5 7/7/7 8/8/8
f 11/11/11 9/9/9 10/10/10
f 9/9/9 11/11/11 12/12/12
f 7/7/7 4/4/4 13/13/13
f 4/4/4 7/7/7 14/14/14
f 17/17/17 15/15/15 16/16/16
f 15/15/15 17/17/17 18/18/18
f 20/20/20 19/19/19 1/1/1
f 19/19/19 20/20/20 8/8/8
f 23/23/23 21/21/21 22/22/22
f 21/21/21 23/23/23 24/24/24
f 27/27/27 25/25/25 26/26/26
f 25/25/25 27/27/27 28/28/28
f 31/31/31 29/29/29 30/30/30
f 29/29/29 31/31/31 32/32/32
f 27/27/27 24/24/24 33/33/33
f 24/24/24 27/27/27 34/34/34
f 37/37/37 35/35/35 36/36/36
f 35/35/35 37/37/37 38/38/38
f 40/40/40 39/39/39 21/21/21
f 39/39/39 40/40/40 28/28/28
f 43/43/43 41/41/41 42/42/42
f 41/41/41 43/43/43 44/44/44
f 47/47/47 45/45/45 46/46/46
f 45/45/45 47/47/47 48/48/48
f 49/49/49 46/46/46 45/45/45
f 50/50/50 46/46/46 49/49/49
f 42/42/42 51/51/51 52/52/52
f 55/55/55 53/53/53 54/54/54
