mtllib ./fangd01.mtl
g fangd01
v -43.41031 5.085579 85.4151
v -43.41032 4.334305 -4.133728
v -33.15115 9.827682 -4.133728
v 47.63489 3.983864 -4.133759
v 47.63492 4.735138 85.41504
v 41.40204 10.7107 85.41504
v -43.41032 4.334305 -4.133728
v -43.41037 5.085579 -101.2382
v -32.25351 12.16255 -101.2382
v 47.63486 4.735138 -101.2383
v 47.63489 3.983864 -4.133759
v 38.60654 7.795341 -4.133759
v -45.23369 7.434196 87.14539
v 1.00882 31.08754 87.09454
v 2.146301 31.08755 47.22589
v 2.146301 28.81407 -4.18454
v -45.2337 7.059471 -4.133728
v 2.146301 28.81407 -4.18454
v 49.1098 7.0933 87.07764
v 49.10977 6.718567 -4.201508
v 2.146301 31.08755 47.22589
v -45.23373 7.434196 -103.3201
v 2.146271 31.08754 -64.67841
v 49.10974 7.093292 -103.3201
v 1.968048 31.08755 -103.3201
v 2.146271 31.08754 -64.67841
v 47.63492 4.735138 85.41504
v 47.63489 3.983864 -4.133759
v 49.10977 6.718567 -4.201508
v 49.1098 7.0933 87.07764
v 47.63489 3.983864 -4.133759
v 47.63486 4.735138 -101.2383
v 49.10974 7.093292 -103.3201
v 49.10977 6.718567 -4.201508
v -43.41037 5.085579 -101.2382
v -43.41032 4.334305 -4.133728
v -45.2337 7.059471 -4.133728
v -45.23373 7.434196 -103.3201
v -43.41032 4.334305 -4.133728
v -43.41031 5.085579 85.4151
v -45.23369 7.434196 87.14539
v -45.2337 7.059471 -4.133728
v 1.00882 31.08754 87.09454
v 1.968048 31.08755 -103.3201
v 50.97729 7.586731 90.02002
v 50.96606 7.599762 83.88788
v 1.831665 33.01915 83.78339
v 1.847961 33.01283 89.9176
v 1.840271 26.95332 89.89758
v 49.36621 2.596771 90.03339
v 50.97729 7.586731 90.02002
v 1.847961 33.01283 89.9176
v 49.35498 2.60981 83.90155
v 1.823975 26.95963 83.763
v 1.831665 33.01915 83.78339
v 50.96606 7.599762 83.88788
v 49.35498 2.60981 83.90155
v 49.36621 2.596771 90.03339
v 1.823975 26.95963 83.763
v 1.840271 26.95332 89.89758
v 1.847961 33.01283 89.9176
v 1.831665 33.01915 83.78339
v -46.99397 8.271278 83.67902
v -46.97263 8.271698 89.81525
v -44.90323 2.619186 89.76166
v 1.840271 26.95332 89.89758
v 1.847961 33.01283 89.9176
v -46.97263 8.271698 89.81525
v 1.823975 26.95963 83.763
v -44.92459 2.618759 83.62439
v -46.99397 8.271278 83.67902
v 1.831665 33.01915 83.78339
v 1.823975 26.95963 83.763
v 1.840271 26.95332 89.89758
v -44.92459 2.618759 83.62439
v -44.90323 2.619186 89.76166
v 49.36621 2.596771 90.03339
v 49.35498 2.60981 83.90155
v 50.96606 7.599762 83.88788
v 50.97729 7.586731 90.02002
v -44.92459 2.618759 83.62439
v -44.90323 2.619186 89.76166
v -46.97263 8.271698 89.81525
v -46.99397 8.271278 83.67902
v 50.97723 7.586731 -99.11127
v 50.966 7.599762 -105.058
v 1.831604 33.01914 -105.144
v 1.8479 33.01283 -99.19897
v 1.84021 26.95332 -99.21536
v 49.36615 2.596771 -99.10025
v 50.97723 7.586731 -99.11127
v 1.8479 33.01283 -99.19897
v 49.35492 2.60981 -105.0473
v 1.834473 26.94564 -105.7741
v 1.831604 33.01914 -105.144
v 50.966 7.599762 -105.058
v 49.35492 2.60981 -105.0473
v 49.36615 2.596771 -99.10025
v 1.834473 26.94564 -105.7741
v 1.84021 26.95332 -99.21536
v 1.8479 33.01283 -99.19897
v 1.831604 33.01914 -105.144
v -46.99405 7.769226 -105.23
v -46.97269 7.769646 -99.28662
v -44.90329 2.619179 -99.33047
v 1.84021 26.95332 -99.21536
v 1.8479 33.01283 -99.19897
v -46.97269 7.769646 -99.28662
v 1.834473 26.94564 -105.7741
v -44.92465 2.618759 -105.273
v -46.99405 7.769226 -105.23
v 1.831604 33.01914 -105.144
v 1.834473 26.94564 -105.7741
v 1.84021 26.95332 -99.21536
v -44.92465 2.618759 -105.273
v -44.90329 2.619179 -99.33047
v 49.36615 2.596771 -99.10025
v 49.35492 2.60981 -105.0473
v 50.966 7.599762 -105.058
v 50.97723 7.586731 -99.11127
v -44.92465 2.618759 -105.273
v -44.90329 2.619179 -99.33047
v -46.97269 7.769646 -99.28662
v -46.99405 7.769226 -105.23
v 39.57559 10.68037 -101.2383
v 38.60654 7.795341 -4.133759
v -33.15115 9.827682 -4.133728
v -31.00681 12.13944 85.4151

vn 0.4843497 -0.8748265 0.009162609
vn 0.4720345 -0.8815491 0.007395718
vn 0.4843497 -0.8748265 0.009162609
vn -0.5396527 -0.8414969 0.02565125
vn -0.6920367 -0.7218369 0.006056122
vn -0.5396527 -0.8414969 0.02565125
vn 0.50617 -0.8623588 -0.01136418
vn 0.5356327 -0.8444259 -0.006533373
vn 0.50617 -0.8623588 -0.01136418
vn -0.4957593 -0.8682579 -0.01873062
vn -0.3889195 -0.9212442 -0.00712732
vn -0.4957593 -0.8682579 -0.01873062
vn -0.4415996 0.8970716 -0.01588672
vn -0.455363 0.890211 -0.01299168
vn -0.4651609 0.8847883 -0.02783388
vn -0.4374391 0.899248 8.811584E-08
vn -0.4172691 0.908783 9.834424E-08
vn 0.445794 0.8951355 -1.808695E-07
vn 0.4462085 0.8948722 -0.01007913
vn 0.4257189 0.9048554 -1.729399E-07
vn 0.4657992 0.8847415 -0.01623148
vn -0.4391767 0.898315 0.01240749
vn -0.4603341 0.887493 0.02118061
vn 0.4470165 0.8944514 0.01152826
vn 0.4536047 0.8912005 -0.002091893
vn 0.467515 0.8837717 0.01942693
vn 0.8649039 -0.5019277 0.003125188
vn 0.8801892 -0.4746063 0.003981433
vn 0.8649039 -0.5019277 0.003125188
vn 0.8471373 -0.5313696 0.002181176
vn 0.864801 -0.5021065 -0.002881538
vn 0.8461829 -0.5328765 -0.004123002
vn 0.864801 -0.5021065 -0.002881538
vn 0.8801349 -0.4747202 -0.001794987
vn -0.8113613 -0.5845355 -0.003352804
vn -0.8311122 -0.5560882 -0.004301929
vn -0.8113613 -0.5845355 -0.003352804
vn -0.788896 -0.6145223 -0.002321418
vn -0.8114231 -0.5844478 0.003639441
vn -0.7880363 -0.6156071 0.005164799
vn -0.8114231 -0.5844478 0.003639441
vn -0.8311177 -0.5560919 0.002283046
vn 0.4463436 0.894771 0.01273466
vn -0.4480074 0.8940275 0.002066479
vn 0.4595607 0.8881463 0.000369606
vn 0.4594928 0.8881809 0.001045894
vn 0.4595607 0.8881463 0.000369606
vn 0.4596285 0.8881112 -0.0003064713
vn -0.002580057 -0.0002241091 0.9999966
vn -0.001273853 0.003089985 0.9999944
vn -0.002580057 -0.0002241091 0.9999966
vn -0.003791942 -0.003298966 0.9999874
vn 0.002628803 0.0002224907 -0.9999965
vn 0.004635331 0.003358315 -0.9999837
vn 0.002628803 0.0002224907 -0.9999965
vn 0.0006076919 -0.002936071 -0.9999955
vn -0.4559425 -0.8900086 -0.00105744
vn -0.4560135 -0.8899728 -0.0003804458
vn -0.4560135 -0.8899728 -0.0003804458
vn -0.4560842 -0.8899366 0.0002962647
vn -0.4520755 0.8919778 0.001815593
vn -0.4521062 0.8919616 0.002119642
vn -0.4520755 0.8919778 0.001815593
vn -0.4520449 0.8919939 0.0015116
vn 0.0006731914 -0.006166234 0.9999808
vn -0.001188744 -0.003302292 0.9999939
vn 0.0006731914 -0.006166234 0.9999808
vn 0.002284067 -0.00864396 0.99996
vn -0.0006852812 0.006283951 -0.99998
vn -0.00173586 0.009028185 -0.9999577
vn -0.0006852812 0.006283951 -0.99998
vn 0.0004326724 0.003363683 -0.9999942
vn 0.4618289 -0.8869665 -0.002139097
vn 0.4617979 -0.8869834 -0.001842279
vn 0.4617979 -0.8869834 -0.001842279
vn 0.4617667 -0.8870001 -0.001545547
vn 0.9516248 -0.3072532 -0.002395988
vn 0.9516247 -0.3072535 -0.002396241
vn 0.9516248 -0.3072532 -0.002395988
vn 0.9516249 -0.3072529 -0.002395735
vn -0.9390327 -0.343812 0.003291377
vn -0.9390324 -0.343813 0.003292473
vn -0.9390327 -0.343812 0.003291377
vn -0.9390332 -0.3438109 0.003290282
vn 0.4595608 0.8881462 0.0003806762
vn 0.459493 0.8881808 0.001078495
vn 0.4595608 0.8881462 0.0003806762
vn 0.4596284 0.8881114 -0.0003173614
vn -0.002183949 -0.0001661396 0.9999976
vn -0.001107381 0.002565329 0.9999961
vn -0.002183949 -0.0001661396 0.9999976
vn -0.003182788 -0.002700433 0.9999913
vn 0.03456713 0.0508458 -0.9981081
vn 0.06791198 0.102975 -0.9923629
vn 0.03456713 0.0508458 -0.9981081
vn 0.0005454435 -0.002328862 -0.9999971
vn -0.4558044 -0.8900794 -0.001090712
vn -0.4559522 -0.8900041 0.0002369298
vn -0.4559522 -0.8900041 0.0002369298
vn -0.4560857 -0.8899347 0.001440389
vn -0.4593274 0.888265 0.001895074
vn -0.459357 0.888249 0.002201871
vn -0.4593274 0.888265 0.001895074
vn -0.4592977 0.888281 0.001588146
vn 0.0006081793 -0.005262002 0.999986
vn -0.0010554 -0.002703145 0.9999958
vn 0.0006081793 -0.005262002 0.999986
vn 0.002158695 -0.007646913 0.9999685
vn -0.03228335 0.05388521 -0.9980251
vn -0.01245522 0.003343561 -0.9999169
vn -0.03228335 0.05388521 -0.9980251
vn -0.05152801 0.1030203 -0.9933438
vn 0.4615392 -0.8871196 0.000634393
vn 0.4616474 -0.8870634 -0.0004263484
vn 0.4616474 -0.8870634 -0.0004263484
vn 0.4617663 -0.8870002 -0.001597338
vn 0.951625 -0.3072521 -0.002470552
vn 0.9516249 -0.3072523 -0.002470694
vn 0.951625 -0.3072521 -0.002470552
vn 0.951625 -0.307252 -0.002470409
vn -0.9278883 -0.3728429 0.003361688
vn -0.9278883 -0.3728432 0.003361929
vn -0.9278883 -0.3728429 0.003361688
vn -0.9278885 -0.3728427 0.003361447
vn -0.5933771 -0.8043721 -0.02981999
vn -0.3885846 -0.9204509 0.04209698
vn 0.4719805 -0.8814483 -0.01683132
vn 0.4943216 -0.8692144 0.01060223

vt -0.8152173 0
vt 1.815217 0
vt 1.815217 0.1895461
vt 2.18 0.7705314
vt -1.18 0.7705314
vt -1.18 0.5613161
vt -0.8152173 0
vt 1.815217 0
vt 1.815217 0.2050525
vt 2.18 0.7705314
vt -1.18 0.7705314
vt -1.18 0.5172364
vt 2.828586 0.06065935
vt 2.82523 0.9995005
vt 2.217217 0.9865471
vt 1.413322 0.9694206
vt 1.416678 0.03057948
vt 1.780857 0.9994996
vt 0.001778386 0.0005013049
vt 1.780857 0.0005004108
vt 0.7553253 0.9995002
vt 0.004769712 0.0004996359
vt 0.5282187 0.950564
vt 3.558221 0.0004995465
vt 3.558221 0.9994987
vt 2.872206 0.9994991
vt 0 0.7473431
vt 3.992324 0.7473431
vt 3.992324 1
vt 0 1
vt 0 0.7473431
vt 3.992324 0.7473431
vt 3.992324 1
vt 0 1
vt -1.3411 0.7709565
vt 2.3411 0.7709565
vt 2.3411 1.014396
vt -1.3411 1.014396
vt -1.3411 0.7709565
vt 2.3411 0.7709565
vt 2.3411 1.014396
vt -1.3411 1.014396
vt 0.001778916 0.9995005
vt 0.001413632 0.9393408
vt 0.1565974 0.229986
vt 0.1565973 0.154429
vt 0.9936314 0.1544272
vt 0.9936314 0.2299843
vt 0.0004995167 0.005730763
vt 0.8375335 0.005731538
vt 0.8375335 0.1461709
vt 0.0004995167 0.1461702
vt 0.1624665 0.01201173
vt 0.9995005 0.01515105
vt 0.9995005 0.1536581
vt 0.1624665 0.1536588
vt 0.1565973 0.154429
vt 0.1565974 0.229986
vt 0.9936314 0.1544272
vt 0.9936314 0.2299843
vt 0.1565974 0.229986
vt 0.1565973 0.154429
vt 0.9936314 0.1544272
vt 0.9936314 0.2299843
vt 0.0004995167 0.005730763
vt 0.8375335 0.005731538
vt 0.8375335 0.1461709
vt 0.0004995167 0.1461702
vt 0.1624665 0.01201173
vt 0.9995005 0.01515105
vt 0.9995005 0.1536581
vt 0.1624665 0.1536588
vt 0.1565973 0.154429
vt 0.1565974 0.229986
vt 0.9936314 0.1544272
vt 0.9936314 0.2299843
vt 0.5283548 0.005731538
vt 0.4064279 0.01201173
vt 0.4005587 0.08244831
vt 0.5319598 0.0824015
vt 0.5309015 0.01515105
vt 0.4038812 0.005730763
vt 0.4042594 0.08022587
vt 0.5250323 0.08196345
vt 0.1565974 0.229986
vt 0.1565973 0.154429
vt 0.9936314 0.1544272
vt 0.9936314 0.2299843
vt 0.0004995167 0.005730763
vt 0.8375335 0.005731538
vt 0.8375335 0.1461709
vt 0.0004995167 0.1461702
vt 0.1624665 0.01201173
vt 0.9995005 0.01515105
vt 0.9995005 0.1536581
vt 0.1624665 0.1536588
vt 0.1565973 0.154429
vt 0.1565974 0.229986
vt 0.9936314 0.1544272
vt 0.9936314 0.2299843
vt 0.1565974 0.229986
vt 0.1565973 0.154429
vt 0.9936314 0.1544272
vt 0.9936314 0.2299843
vt 0.0004995167 0.005730763
vt 0.8375335 0.005731538
vt 0.8375335 0.1461709
vt 0.0004995167 0.1461702
vt 0.1624665 0.01201173
vt 0.9995005 0.01515105
vt 0.9995005 0.1536581
vt 0.1624665 0.1536588
vt 0.1565973 0.154429
vt 0.1565974 0.229986
vt 0.9936314 0.1544272
vt 0.9936314 0.2299843
vt 0.5283548 0.005731538
vt 0.4064279 0.01201173
vt 0.4005587 0.08244831
vt 0.5319598 0.0824015
vt 0.5309015 0.01515105
vt 0.4038812 0.005730763
vt 0.4042594 0.08022587
vt 0.5250323 0.08196345
vt 2.18 0.5323212
vt 2.18 0.5172364
vt -0.8152173 0.1895461
vt -0.8152173 0.2269355

usemtl sn04_20_sn0425.JPG
usemap sn04_20_sn0425.JPG
f 3/3/3 1/1/1 2/2/2
f 6/6/6 4/4/4 5/5/5
f 9/9/9 7/7/7 8/8/8
f 12/12/12 10/10/10 11/11/11
f 10/10/10 12/12/12 125/125/125
f 4/4/4 6/6/6 126/126/126
f 127/127/127 7/7/7 9/9/9
f 128/128/128 1/1/1 3/3/3

usemtl sn04_21_sn0421.JPG
usemap sn04_21_sn0421.JPG
f 15/15/15 13/13/13 14/14/14
f 13/13/13 16/16/16 17/17/17
f 20/20/20 18/18/18 19/19/19
f 21/21/21 19/19/19 18/18/18
f 23/23/23 22/22/22 16/16/16
f 17/17/17 16/16/16 22/22/22
f 24/24/24 18/18/18 20/20/20
f 26/26/26 24/24/24 25/25/25
f 43/43/43 19/19/19 21/21/21
f 18/18/18 24/24/24 26/26/26
f 16/16/16 13/13/13 15/15/15
f 44/44/44 22/22/22 23/23/23

usemtl sn04_13_sn0412.JPG
usemap sn04_13_sn0412.JPG
f 29/29/29 27/27/27 28/28/28
f 27/27/27 29/29/29 30/30/30
f 33/33/33 31/31/31 32/32/32
f 31/31/31 33/33/33 34/34/34
f 37/37/37 35/35/35 36/36/36
f 35/35/35 37/37/37 38/38/38
f 41/41/41 39/39/39 40/40/40
f 39/39/39 41/41/41 42/42/42

usemtl sn04_11_sn0413.JPG
usemap sn04_11_sn0413.JPG
f 47/47/47 45/45/45 46/46/46
f 45/45/45 47/47/47 48/48/48
f 51/51/51 49/49/49 50/50/50
f 49/49/49 51/51/51 52/52/52
f 55/55/55 53/53/53 54/54/54
f 53/53/53 55/55/55 56/56/56
f 59/59/59 57/57/57 58/58/58
f 58/58/58 60/60/60 59/59/59
f 63/63/63 61/61/61 62/62/62
f 61/61/61 63/63/63 64/64/64
f 67/67/67 65/65/65 66/66/66
f 65/65/65 67/67/67 68/68/68
f 71/71/71 69/69/69 70/70/70
f 69/69/69 71/71/71 72/72/72
f 75/75/75 73/73/73 74/74/74
f 74/74/74 76/76/76 75/75/75
f 79/79/79 77/77/77 78/78/78
f 80/80/80 77/77/77 79/79/79
f 83/83/83 81/81/81 82/82/82
f 84/84/84 81/81/81 83/83/83
f 87/87/87 85/85/85 86/86/86
f 85/85/85 87/87/87 88/88/88
f 91/91/91 89/89/89 90/90/90
f 89/89/89 91/91/91 92/92/92
f 95/95/95 93/93/93 94/94/94
f 93/93/93 95/95/95 96/96/96
f 99/99/99 97/97/97 98/98/98
f 98/98/98 100/100/100 99/99/99
f 103/103/103 101/101/101 102/102/102
f 101/101/101 103/103/103 104/104/104
f 107/107/107 105/105/105 106/106/106
f 105/105/105 107/107/107 108/108/108
f 111/111/111 109/109/109 110/110/110
f 109/109/109 111/111/111 112/112/112
f 115/115/115 113/113/113 114/114/114
f 114/114/114 116/116/116 115/115/115
f 119/119/119 117/117/117 118/118/118
f 120/120/120 117/117/117 119/119/119
f 123/123/123 121/121/121 122/122/122
f 124/124/124 121/121/121 123/123/123
