mtllib ./fangd05.mtl
g fangd05
v 92.6355 4.616745 49.13538
v -4.487518 3.865479 49.13541
v -4.487518 10.75443 38.40186
v -4.487579 3.096642 -53.16
v 92.63544 3.847908 -53.16003
v 92.63544 10.16309 -42.59293
v -4.487518 3.865479 49.13541
v -109.5717 4.616745 49.13544
v -109.5717 11.37587 40.6976
v -109.5717 3.847908 -53.15997
v -4.487579 3.096642 -53.16
v -4.487549 9.568665 -43.21631
v -4.542694 30.2772 0.06573486
v -4.487518 6.741753 50.08899
v 94.61203 7.223236 50.08893
v 94.55682 31.08754 1.316925
v 51.27237 31.08755 0.06570435
v 94.53845 6.982162 -53.86368
v -4.542694 30.2772 0.06573486
v 51.27237 31.08755 0.06570435
v 94.55682 31.08754 1.316925
v -4.561096 6.500687 -53.86362
v -112.1717 7.223228 50.08902
v -70.21939 31.08754 0.06576538
v -112.1718 31.08755 0.2618103
v -112.1718 6.982162 -53.86359
v -112.1718 31.08755 0.2618103
v -70.21939 31.08754 0.06576538
v -4.561096 6.500687 -53.86362
v 94.53845 6.982162 -53.86368
v 92.63544 3.847908 -53.16003
v -4.487579 3.096642 -53.16
v -112.1718 6.982162 -53.86359
v -4.561096 6.500687 -53.86362
v -4.487579 3.096642 -53.16
v -109.5717 3.847908 -53.15997
v -4.487518 6.741753 50.08899
v -112.1717 7.223228 50.08902
v -109.5717 4.616745 49.13544
v -4.487518 3.865479 49.13541
v 94.61203 7.223236 50.08893
v -4.487518 6.741753 50.08899
v -4.487518 3.865479 49.13541
v 92.6355 4.616745 49.13538
v 91.93594 33.04834 0.4118042
v 97.62173 33.04202 0.3938904
v 97.73291 7.615921 -56.07443
v 92.05045 7.62896 -56.0621
v 97.73291 7.615921 -56.07443
v 97.62173 33.04202 0.3938904
v 97.59998 27.2737 0.5306396
v 97.74747 1.791161 -55.08081
v 91.93594 33.04834 0.4118042
v 92.05045 7.62896 -56.0621
v 92.06543 1.804192 -55.06845
v 91.91354 27.28001 0.5485535
v 97.74747 1.791161 -55.08081
v 97.59998 27.2737 0.5306396
v 91.91354 27.28001 0.5485535
v 92.06543 1.804192 -55.06845
v 91.82144 7.833122 51.64276
v 97.51059 7.833542 51.61926
v 97.62173 33.04202 0.3938904
v 91.93594 33.04834 0.4118042
v 97.62173 33.04202 0.3938904
v 97.51059 7.833542 51.61926
v 97.45242 2.379517 50.20862
v 97.59998 27.2737 0.5306396
v 91.82144 7.833122 51.64276
v 91.93594 33.04834 0.4118042
v 91.91354 27.28001 0.5485535
v 91.76154 2.379097 50.23212
v 97.59998 27.2737 0.5306396
v 97.45242 2.379517 50.20862
v 91.76154 2.379097 50.23212
v 91.91354 27.28001 0.5485535
v 92.05045 7.62896 -56.0621
v 97.73291 7.615921 -56.07443
v 97.74747 1.791161 -55.08081
v 92.06543 1.804192 -55.06845
v 97.51059 7.833542 51.61926
v 91.82144 7.833122 51.64276
v 91.76154 2.379097 50.23212
v 97.45242 2.379517 50.20862
v -114.1519 33.04834 0.4118652
v -108.6712 33.04202 0.3939514
v -108.5751 7.615921 -56.07437
v -114.0586 7.628952 -56.06201
v -108.5751 7.615921 -56.07437
v -108.6712 33.04202 0.3939514
v -108.6892 27.27369 0.5307007
v -108.5631 0.640831 -55.08075
v -114.1519 33.04834 0.4118652
v -114.0586 7.628952 -56.06201
v -114.047 0.6538696 -55.06839
v -114.836 27.24115 0.5552979
v -108.5631 0.640831 -55.08075
v -108.6892 27.27369 0.5307007
v -114.836 27.24115 0.5552979
v -114.047 0.6538696 -55.06839
v -114.2453 7.798424 51.69403
v -108.7674 7.798843 51.67053
v -108.6712 33.04202 0.3939514
v -114.1519 33.04834 0.4118652
v -108.6712 33.04202 0.3939514
v -108.7674 7.798843 51.67053
v -108.8155 2.473755 50.20868
v -108.6892 27.27369 0.5307007
v -114.2453 7.798424 51.69403
v -114.1519 33.04834 0.4118652
v -114.836 27.24115 0.5552979
v -114.292 2.473328 50.23218
v -108.6892 27.27369 0.5307007
v -108.8155 2.473755 50.20868
v -114.292 2.473328 50.23218
v -114.836 27.24115 0.5552979
v -114.0586 7.628952 -56.06201
v -108.5751 7.615921 -56.07437
v -108.5631 0.640831 -55.08075
v -114.047 0.6538696 -55.06839
v -108.7674 7.798843 51.67053
v -114.2453 7.798424 51.69403
v -114.292 2.473328 50.23218
v -108.8155 2.473755 50.20868
v 91.93594 33.04834 0.4118042
v 91.91354 27.28001 0.5485535
v 97.59998 27.2737 0.5306396
v 97.62173 33.04202 0.3938904
v 97.59998 27.2737 0.5306396
v 91.91354 27.28001 0.5485535
v 91.93594 33.04834 0.4118042
v 97.62173 33.04202 0.3938904
v -114.1519 33.04834 0.4118652
v -114.836 27.24115 0.5552979
v -108.6892 27.27369 0.5307007
v -108.6712 33.04202 0.3939514
v -114.836 27.24115 0.5552979
v 92.63547 11.30972 36.69553
v -4.487518 10.75443 38.40186
v -4.487549 9.568665 -43.21631
v -109.5717 10.17458 -43.36951

vn 0.001361165 -0.8627375 -0.5056502
vn 0.006509467 -0.8415596 -0.540125
vn 0.001361165 -0.8627375 -0.5056502
vn 0.004181058 -0.8485863 0.5290404
vn 0.006639843 -0.8583717 0.5129852
vn 0.004181058 -0.8485863 0.5290404
vn -0.01165518 -0.8145971 -0.57991
vn -0.005579815 -0.7804569 -0.6251847
vn -0.01165518 -0.8145971 -0.57991
vn -0.005814377 -0.8389828 0.5441269
vn -0.00599155 -0.8380964 0.5454893
vn -0.005814377 -0.8389828 0.5441269
vn 1.610174E-07 0.9025304 0.4306262
vn 1.601736E-07 0.9048529 0.4257244
vn -0.008637957 0.901508 0.4326763
vn -0.01270405 0.8981592 0.4394867
vn -0.01289419 0.8980917 0.4396192
vn -0.003359974 0.9136324 -0.4065274
vn -2.194828E-07 0.9129295 -0.4081173
vn -0.002288196 0.9122626 -0.4095994
vn 0.01157133 0.9163148 -0.4002915
vn -1.787879E-07 0.915017 -0.4034151
vn 0.005811077 0.902458 0.4307385
vn 0.007570323 0.9000462 0.4357289
vn 0.0020187 0.9018933 0.4319541
vn 0.005104678 0.9130864 -0.4077342
vn -0.001901005 0.9134986 -0.4068374
vn 0.006109528 0.9111539 -0.4120209
vn 0.001323667 -0.2107681 -0.9775352
vn 0.001066644 -0.2196653 -0.9755747
vn 0.001323667 -0.2107681 -0.9775352
vn 0.001565202 -0.2023876 -0.9793043
vn -0.001222548 -0.2108876 -0.9775095
vn -0.0009060376 -0.2024389 -0.9792945
vn -0.001222548 -0.2108876 -0.9775095
vn -0.001575131 -0.2202834 -0.9754347
vn -0.001907898 -0.3293454 0.9442076
vn -0.001542 -0.3449346 0.9386255
vn -0.001907898 -0.3293454 0.9442076
vn -0.002249499 -0.3146895 0.949192
vn 0.002068598 -0.3291983 0.9442586
vn 0.001529532 -0.3146899 0.9491934
vn 0.002068598 -0.3291983 0.9442586
vn 0.002671672 -0.3453531 0.938469
vn 0.0004604693 0.9118568 -0.410508
vn -0.0002804805 0.9118285 -0.4105713
vn 0.0004604693 0.9118568 -0.410508
vn 0.001201824 0.9118848 -0.4104445
vn 0.9999968 -0.0003794131 0.002480212
vn 0.9999866 -0.003686085 0.003628527
vn 0.9999968 -0.0003794131 0.002480212
vn 0.9999952 0.002737562 0.001397746
vn -0.9999967 0.0003906464 -0.002553901
vn -0.9999961 -0.002710246 -0.0008076075
vn -0.9999967 0.0003906464 -0.002553901
vn -0.9999828 0.003777425 -0.00446116
vn -0.0004375969 -0.9091313 0.4165094
vn 0.0003035557 -0.9091019 0.4165737
vn -0.0004375969 -0.9091313 0.4165094
vn -0.001179294 -0.9091602 0.4164449
vn 0.002072795 0.8972237 0.4415715
vn 0.001757578 0.8972383 0.441543
vn 0.002072795 0.8972237 0.4415715
vn 0.002388152 0.8972089 0.4416
vn 0.9999749 -0.007017314 -0.0009206335
vn 0.9999467 -0.009958006 -0.002730816
vn 0.9999749 -0.007017314 -0.0009206335
vn 0.9999924 -0.003746222 0.001092885
vn -0.9999735 0.007226312 0.0009478501
vn -0.9999925 0.003875459 -0.0003275464
vn -0.9999735 0.007226312 0.0009478501
vn -0.9999434 0.01042331 0.002164707
vn -0.002093721 -0.8940109 -0.4480403
vn -0.001784233 -0.894026 -0.4480115
vn -0.002093721 -0.8940109 -0.4480403
vn -0.002403406 -0.8939957 -0.4480691
vn -0.002527259 -0.1681648 -0.9857556
vn -0.002524625 -0.1681623 -0.985756
vn -0.002527259 -0.1681648 -0.9857556
vn -0.002529893 -0.1681674 -0.9857552
vn 0.004016608 -0.2504417 0.9681234
vn 0.004017221 -0.2504423 0.9681232
vn 0.004016608 -0.2504417 0.9681234
vn 0.004015995 -0.250441 0.9681236
vn 0.0004756592 0.9118568 -0.4105084
vn -0.0002909754 0.9118285 -0.4105713
vn 0.0004756592 0.9118568 -0.4105084
vn 0.001241871 0.9118844 -0.4104451
vn 0.9999977 -0.0002818373 0.002114224
vn 0.9999906 -0.003048488 0.00307501
vn 0.9999977 -0.0002818373 0.002114224
vn 0.9999973 0.001916269 0.001350867
vn -0.9982819 0.04975836 -0.03094246
vn -0.999998 -0.001791845 -0.0008459661
vn -0.9982819 0.04975836 -0.03094246
vn -0.9909616 0.1150189 -0.06903373
vn 0.002883893 -0.9020557 0.4316098
vn 0.006502667 -0.9018816 0.4319345
vn 0.002883893 -0.9020557 0.4316098
vn -0.00117313 -0.9022371 0.431239
vn 0.002152009 0.8971578 0.4417048
vn 0.001825932 0.8971725 0.4416766
vn 0.002031036 0.9164376 0.4001724
vn 0.002477871 0.8971432 0.4417329
vn 0.9999825 -0.005873768 -0.0007091748
vn 0.9999621 -0.008409671 -0.002265363
vn 0.9999825 -0.005873768 -0.0007091748
vn 0.9730465 -0.008567776 -0.2304497
vn -0.9975079 0.06134854 0.03484656
vn -0.9794536 0.111279 -0.1681895
vn -0.9975079 0.06134854 0.03484656
vn -0.9998963 0.005067787 0.01347645
vn 0.0006908493 -0.8948206 -0.4464255
vn -0.001846653 -0.894705 -0.4466538
vn 0.0006908493 -0.8948206 -0.4464255
vn 0.00295213 -0.8949187 -0.4462196
vn -0.002566583 -0.1410331 -0.9900016
vn -0.002566571 -0.141033 -0.9900016
vn -0.002566583 -0.1410331 -0.9900016
vn -0.002566596 -0.1410331 -0.9900016
vn 0.004157573 -0.2647597 0.9643055
vn 0.004156857 -0.264759 0.9643057
vn 0.004157573 -0.2647597 0.9643055
vn 0.00415829 -0.2647604 0.9643052
vn 0.003175853 0.02368798 0.9997144
vn 0.003175658 0.02368779 0.9997143
vn 0.003175853 0.02368798 0.9997144
vn 0.003176048 0.02368817 0.9997144
vn -0.003175852 -0.02368798 -0.9997143
vn -0.003175657 -0.02368779 -0.9997143
vn -0.003175852 -0.02368798 -0.9997143
vn -0.003176048 -0.02368818 -0.9997144
vn 0.003600938 0.02397918 0.999706
vn 0.003872165 0.02423561 0.9996989
vn 0.003600938 0.02397918 0.999706
vn 0.00329489 0.02368983 0.999714
vn -0.003872165 -0.02423561 -0.9996989
vn -0.003289132 -0.8806259 -0.4738007
vn -0.01677476 -0.8414591 -0.5400605
vn 0.001628208 -0.8381103 0.5454983
vn -0.005634031 -0.8398827 0.5427387

vt -0.8152173 0
vt 1.815218 0.001264393
vt 1.815218 0.1716783
vt 2.18 0.7705314
vt -1.179999 0.7696327
vt -1.179999 0.6096073
vt -0.8152173 0
vt 1.815217 0
vt 1.815217 0.1345414
vt 2.18 0.7705314
vt -1.18 0.7705314
vt -1.18 0.6193225
vt 1.413322 0.9694206
vt 1.416678 0.03057948
vt 2.828586 0.06065935
vt 2.82523 0.9995005
vt 2.217217 0.9865471
vt 0.001778386 0.0005013049
vt 1.780857 0.9994996
vt 0.7553253 0.9995002
vt 0.001778916 0.9995005
vt 1.780857 0.0005004108
vt 0.004769712 0.0004996359
vt 0.5282187 0.950564
vt 0.001413632 0.9393408
vt 3.558221 0.0004995465
vt 3.558221 0.9994987
vt 2.88625 0.9994991
vt 3.992324 1
vt -0.08112513 0.9905974
vt 0 0.7473431
vt 3.992324 0.7473431
vt 3.992324 1
vt 0 1
vt 0 0.7473431
vt 3.898495 0.7566154
vt 2.3411 1.014396
vt -1.43219 1.005852
vt -1.3411 0.7709565
vt 2.3411 0.7709565
vt 2.3411 1.014396
vt -1.3411 1.014396
vt -1.3411 0.7709565
vt 2.26767 0.7792342
vt 0.9936314 0.1544272
vt 0.9936314 0.2299843
vt 0.1565974 0.229986
vt 0.1565973 0.154429
vt 0.8375335 0.1461709
vt 0.0004995167 0.1461702
vt 0.0004995167 0.005730763
vt 0.8366176 0.05333776
vt 0.9995005 0.1536581
vt 0.1615502 0.1035131
vt 0.1624665 0.01201173
vt 0.9995005 0.01515105
vt 0.1565974 0.229986
vt 0.9936314 0.2299843
vt 0.9936314 0.1544272
vt 0.1565973 0.154429
vt 0.9936314 0.1544272
vt 0.9936314 0.2299843
vt 0.1565974 0.229986
vt 0.1565973 0.154429
vt 0.8375335 0.1461709
vt -0.007070564 0.1311251
vt 0.0004995167 0.005730763
vt 0.8375335 0.005731538
vt 0.9995005 0.1536581
vt 0.1624665 0.1536588
vt 0.1624665 0.01201173
vt 0.9919975 0.02705074
vt 0.1565974 0.229986
vt 0.9936314 0.2299843
vt 0.9936314 0.1544272
vt 0.1565973 0.154429
vt 0.760462 0.2346222
vt 0.9208486 0.2442373
vt 0.9172436 0.1482436
vt 0.7663313 0.1545238
vt 0.7617473 0.2420616
vt 0.9115058 0.2389683
vt 0.9173749 0.1528322
vt 0.7613691 0.1482428
vt 0.9936314 0.1544272
vt 0.9936314 0.2299843
vt 0.1565974 0.229986
vt 0.1565973 0.154429
vt 0.8375335 0.1461709
vt 0.0004995167 0.1461702
vt 0.0004995167 0.005730763
vt 0.8366184 0.05331304
vt 0.9995005 0.1536581
vt 0.1615506 0.1035373
vt 0.1624665 0.01201173
vt 0.9995005 0.01515105
vt 0.1565974 0.229986
vt 0.9936314 0.2299843
vt 0.9936314 0.1544272
vt 0.1565973 0.154429
vt 0.9936314 0.1544272
vt 0.9936314 0.2299843
vt 0.1565974 0.229986
vt 0.1565973 0.154429
vt 0.8375335 0.1461709
vt -0.007071791 0.1311343
vt 0.0004995167 0.005730763
vt 0.8375335 0.005731538
vt 0.9995005 0.1536581
vt 0.1624665 0.1536588
vt 0.1624665 0.01201173
vt 0.968581 0.04469576
vt 0.1565974 0.229986
vt 0.9936314 0.2299843
vt 0.9936314 0.1544272
vt 0.1565973 0.154429
vt 0.760462 0.2346222
vt 0.9208486 0.2442373
vt 0.9172436 0.1482436
vt 0.7663313 0.1545238
vt 0.7617473 0.2420616
vt 0.9115058 0.2389683
vt 0.9173749 0.1528322
vt 0.7613691 0.1482428
vt 0.9936314 0.1544272
vt 0.9995005 0.01515105
vt 0.9936314 0.2299843
vt 0.0004995167 0.1461702
vt 0.8375335 0.005731538
vt 0.1565973 0.154429
vt 0.1624665 0.1536588
vt 0.1565974 0.229986
vt 0.9936314 0.1544272
vt 0.9995005 0.01515105
vt 0.9936314 0.2299843
vt 0.0004995167 0.1461702
vt 0.1565973 0.154429
vt -0.8152173 0.1971761
vt -0.8151622 0.170414
vt 2.18 0.6193225
vt 2.179939 0.6214864

usemtl sn04_20_sn0425.JPG
usemap sn04_20_sn0425.JPG
f 3/3/3 1/1/1 2/2/2
f 6/6/6 4/4/4 5/5/5
f 9/9/9 7/7/7 8/8/8
f 12/12/12 10/10/10 11/11/11
f 1/1/1 3/3/3 138/138/138
f 7/7/7 9/9/9 139/139/139
f 140/140/140 4/4/4 6/6/6
f 141/141/141 10/10/10 12/12/12

usemtl sn04_21_sn0421.JPG
usemap sn04_21_sn0421.JPG
f 15/15/15 13/13/13 14/14/14
f 17/17/17 15/15/15 16/16/16
f 17/17/17 13/13/13 15/15/15
f 20/20/20 18/18/18 19/19/19
f 21/21/21 18/18/18 20/20/20
f 18/18/18 22/22/22 19/19/19
f 14/14/14 13/13/13 23/23/23
f 24/24/24 23/23/23 13/13/13
f 24/24/24 25/25/25 23/23/23
f 28/28/28 26/26/26 27/27/27
f 19/19/19 26/26/26 28/28/28
f 22/22/22 26/26/26 19/19/19

usemtl sn04_13_sn0412.JPG
usemap sn04_13_sn0412.JPG
f 31/31/31 29/29/29 30/30/30
f 29/29/29 31/31/31 32/32/32
f 35/35/35 33/33/33 34/34/34
f 33/33/33 35/35/35 36/36/36
f 39/39/39 37/37/37 38/38/38
f 37/37/37 39/39/39 40/40/40
f 43/43/43 41/41/41 42/42/42
f 41/41/41 43/43/43 44/44/44

usemtl sn04_11_sn0413.JPG
usemap sn04_11_sn0413.JPG
f 47/47/47 45/45/45 46/46/46
f 45/45/45 47/47/47 48/48/48
f 51/51/51 49/49/49 50/50/50
f 49/49/49 51/51/51 52/52/52
f 55/55/55 53/53/53 54/54/54
f 53/53/53 55/55/55 56/56/56
f 59/59/59 57/57/57 58/58/58
f 57/57/57 59/59/59 60/60/60
f 63/63/63 61/61/61 62/62/62
f 61/61/61 63/63/63 64/64/64
f 67/67/67 65/65/65 66/66/66
f 65/65/65 67/67/67 68/68/68
f 71/71/71 69/69/69 70/70/70
f 69/69/69 71/71/71 72/72/72
f 75/75/75 73/73/73 74/74/74
f 73/73/73 75/75/75 76/76/76
f 79/79/79 77/77/77 78/78/78
f 77/77/77 79/79/79 80/80/80
f 83/83/83 81/81/81 82/82/82
f 81/81/81 83/83/83 84/84/84
f 87/87/87 85/85/85 86/86/86
f 85/85/85 87/87/87 88/88/88
f 91/91/91 89/89/89 90/90/90
f 89/89/89 91/91/91 92/92/92
f 95/95/95 93/93/93 94/94/94
f 93/93/93 95/95/95 96/96/96
f 99/99/99 97/97/97 98/98/98
f 97/97/97 99/99/99 100/100/100
f 103/103/103 101/101/101 102/102/102
f 101/101/101 103/103/103 104/104/104
f 107/107/107 105/105/105 106/106/106
f 105/105/105 107/107/107 108/108/108
f 111/111/111 109/109/109 110/110/110
f 109/109/109 111/111/111 112/112/112
f 115/115/115 113/113/113 114/114/114
f 113/113/113 115/115/115 116/116/116
f 119/119/119 117/117/117 118/118/118
f 117/117/117 119/119/119 120/120/120
f 123/123/123 121/121/121 122/122/122
f 121/121/121 123/123/123 124/124/124
f 110/110/110 108/108/108 137/137/137
f 108/108/108 110/110/110 103/103/103

usemtl sn04_-01_
usemap sn04_-01_
f 127/127/127 125/125/125 126/126/126
f 125/125/125 127/127/127 128/128/128
f 131/131/131 129/129/129 130/130/130
f 129/129/129 131/131/131 132/132/132
f 135/135/135 133/133/133 134/134/134
f 133/133/133 135/135/135 136/136/136
