mtllib ./Line02.mtl
g Line02
v 1839.702 -0.0001831055 -610.6615
v 1758.666 -0.0001831055 130.2358
v 1839.702 749.5858 -610.6615
v 1758.666 749.5858 130.2358
v 1318.759 -0.0001831055 -911.651
v 1839.702 -0.0001831055 -610.6615
v 1318.759 749.5858 -911.651
v 1839.702 749.5858 -610.6615
v 463.694 -0.0001831055 -900.0745
v 1318.759 -0.0001831055 -911.651
v 463.694 749.5858 -900.0745
v 1318.759 749.5858 -911.651
v -509.1378 -0.0001831055 -934.8041
v 463.694 -0.0001831055 -900.0745
v -509.1378 749.5858 -934.8041
v 463.694 749.5858 -900.0745
v -1413.3 -0.0001831055 -1027.416
v -509.1378 -0.0001831055 -934.8041
v -1413.3 749.5858 -1027.416
v -509.1378 749.5858 -934.8041
v -1806.902 -0.0001831055 -656.9675
v -1413.3 -0.0001831055 -1027.416
v -1806.902 749.5858 -656.9675
v -1413.3 749.5858 -1027.416
v -1968.973 -0.0001831055 164.9654
v -1806.902 -0.0001831055 -656.9675
v -1968.973 749.5858 164.9654
v -1806.902 749.5858 -656.9675
v -1818.479 -0.0001831055 1114.24
v -1968.973 -0.0001831055 164.9654
v -1818.479 749.5858 1114.24
v -1968.973 749.5858 164.9654
v -683.7181 -0.0001831055 1230.005
v -1818.479 -0.0001831055 1114.24
v -683.7181 749.5858 1230.005
v -1818.479 749.5858 1114.24
v 477.2512 -0.0001831055 1264.735
v -683.7181 -0.0001831055 1230.005
v 477.2512 749.5858 1264.735
v -683.7181 749.5858 1230.005
v 1585.018 -0.0001831055 1137.393
v 477.2512 -0.0001831055 1264.735
v 1585.018 749.5858 1137.393
v 477.2512 749.5858 1264.735
v 1758.666 -0.0001831055 130.2358
v 1585.018 -0.0001831055 1137.393
v 1758.666 749.5858 130.2358
v 1585.018 749.5858 1137.393

vn -0.9940716 0 -0.1087266
vn -0.9940716 0 -0.1087266
vn -0.9940716 0 -0.1087266
vn -0.9940716 0 -0.1087266
vn -0.5002777 0 0.8658651
vn -0.5002777 0 0.8658651
vn -0.5002777 0 0.8658651
vn -0.5002777 0 0.8658651
vn 0.01353755 0 0.9999083
vn 0.01353755 0 0.9999083
vn 0.01353755 0 0.9999083
vn 0.01353755 0 0.9999083
vn -0.03567677 0 0.9993634
vn -0.03567677 0 0.9993634
vn -0.03567677 0 0.9993634
vn -0.03567677 0 0.9993634
vn -0.1018956 0 0.9947951
vn -0.1018956 0 0.9947951
vn -0.1018956 0 0.9947951
vn -0.1018956 0 0.9947951
vn 0.6853647 0 0.7282
vn 0.6853647 0 0.7282
vn 0.6853647 0 0.7282
vn 0.6853647 0 0.7282
vn 0.9811085 -3.938088E-09 0.1934581
vn 0.9811085 -1.969044E-09 0.193458
vn 0.9811085 -1.969044E-09 0.193458
vn 0.9811085 0 0.193458
vn 0.9876651 0 -0.1565812
vn 0.9876651 1.084392E-08 -0.1565812
vn 0.9876651 1.084392E-08 -0.1565812
vn 0.9876651 2.168785E-08 -0.1565812
vn 0.1014906 0 -0.9948365
vn 0.1014906 0 -0.9948365
vn 0.1014906 0 -0.9948365
vn 0.1014906 0 -0.9948365
vn 0.02990095 0 -0.9995528
vn 0.02990095 0 -0.9995528
vn 0.02990095 0 -0.9995528
vn 0.02990095 0 -0.9995528
vn -0.1142015 0 -0.9934576
vn -0.1142015 0 -0.9934576
vn -0.1142015 0 -0.9934576
vn -0.1142015 0 -0.9934576
vn -0.9854602 3.458673E-09 -0.1699068
vn -0.9854602 1.729337E-09 -0.1699068
vn -0.9854602 1.729337E-09 -0.1699068
vn -0.9854602 0 -0.1699068

vt 0 1.589326E-08
vt 1 -5.960464E-08
vt 7.54979E-08 1
vt 1 0.9999999
vt 0 1.589326E-08
vt 1 -5.960464E-08
vt 7.54979E-08 1
vt 1 0.9999999
vt 0 1.589326E-08
vt 1 -5.960464E-08
vt 7.54979E-08 1
vt 1 0.9999999
vt 0 1.589326E-08
vt 1 -5.960464E-08
vt 7.54979E-08 1
vt 1 0.9999999
vt 0 1.589326E-08
vt 1 -5.960464E-08
vt 7.54979E-08 1
vt 1 0.9999999
vt 0 1.589326E-08
vt 1 -5.960464E-08
vt 7.54979E-08 1
vt 1 0.9999999
vt 0 1.589326E-08
vt 1 -5.960464E-08
vt 7.54979E-08 1
vt 1 0.9999999
vt 0 1.589326E-08
vt 1 -5.960464E-08
vt 7.54979E-08 1
vt 1 0.9999999
vt 0 1.589326E-08
vt 1 -5.960464E-08
vt 7.54979E-08 1
vt 1 0.9999999
vt 0 1.589326E-08
vt 1 -5.960464E-08
vt 7.54979E-08 1
vt 1 0.9999999
vt 0 1.589326E-08
vt 1 -5.960464E-08
vt 7.54979E-08 1
vt 1 0.9999999
vt 0 5.960464E-08
vt 1 0
vt 1.192093E-07 1
vt 1 1

usemtl sn04_28_asn0437.JPG
usemap sn04_28_asn0437.JPG
f 3/3/3 1/1/1 2/2/2
f 4/4/4 3/3/3 2/2/2
f 7/7/7 5/5/5 6/6/6
f 8/8/8 7/7/7 6/6/6
f 11/11/11 9/9/9 10/10/10
f 12/12/12 11/11/11 10/10/10
f 15/15/15 13/13/13 14/14/14
f 16/16/16 15/15/15 14/14/14
f 19/19/19 17/17/17 18/18/18
f 20/20/20 19/19/19 18/18/18
f 23/23/23 21/21/21 22/22/22
f 24/24/24 23/23/23 22/22/22
f 27/27/27 25/25/25 26/26/26
f 28/28/28 27/27/27 26/26/26
f 31/31/31 29/29/29 30/30/30
f 32/32/32 31/31/31 30/30/30
f 35/35/35 33/33/33 34/34/34
f 36/36/36 35/35/35 34/34/34
f 39/39/39 37/37/37 38/38/38
f 40/40/40 39/39/39 38/38/38
f 43/43/43 41/41/41 42/42/42
f 44/44/44 43/43/43 42/42/42
f 47/47/47 45/45/45 46/46/46
f 48/48/48 47/47/47 46/46/46
