mtllib ./men04.mtl
g men04
v -9.999756 -6.754105 85.26694
v -9.999756 136.4918 -0.000231266
v -9.999756 -6.754105 -0.000231266
v -9.999756 -6.754105 -85.26741
v -9.999756 -150 -0.000231266
v -9.999756 -150 85.26694
v -9.999756 136.4918 85.26694
v -9.999756 136.4918 -85.26741
v -9.999756 -150 -85.26741

vn -1 0 0
vn -0.9999999 0 0
vn -0.9999999 0 0
vn -1 0 0
vn -0.9999999 0 0
vn -1 0 0
vn -1 0 0
vn -1 0 0
vn -1 0 0

vt 0 0.5
vt 0.5 1
vt 0.5 0.5
vt 1 0.5
vt 0.5 0
vt 0 0
vt 0 1
vt 1 1
vt 1 0

usemtl sn04_24_sn0430.JPG
usemap sn04_24_sn0430.JPG
f 3/3/3 1/1/1 2/2/2
f 3/3/3 4/4/4 5/5/5
f 3/3/3 6/6/6 1/1/1
f 2/2/2 1/1/1 7/7/7
f 8/8/8 3/3/3 2/2/2
f 3/3/3 8/8/8 4/4/4
f 5/5/5 4/4/4 9/9/9
f 6/6/6 3/3/3 5/5/5
