mtllib ./Object20.mtl
g Object20
v -3.046249 35.23599 87.81416
v 2.050888 35.24259 87.84419
v 1.99263 32.57785 -4.318405
v -3.048782 35.23599 87.86147
v -3.353287 35.23599 87.87578
v -3.349823 37.69734 92.87285
v -3.485321 29.67564 87.17046
v -3.529495 30.70344 91.45473
v -3.349823 37.69734 92.87285
v -3.353287 35.23599 87.87578
v 1.814026 29.68186 87.49718
v 1.951141 26.80606 -4.438553
v 1.99263 32.57785 -4.318405
v 2.050476 35.14019 87.8437
v -3.529495 30.70344 91.45473
v 1.87468 30.71043 91.41896
v 2.054352 37.70433 92.83708
v -3.349823 37.69734 92.87285
v 1.764008 35.25486 -106.2103
v -3.512695 35.23019 -106.4092
v -3.411545 32.57785 -4.282623
v 1.99263 32.57785 -4.318405
v 2.034119 26.79906 -4.198257
v 1.689056 29.9929 -103.8622
v 1.764008 35.25486 -106.2103
v 1.99263 32.57785 -4.318405
v -3.376617 29.78831 -105.7741
v -3.370071 26.80606 -4.162476
v -3.411545 32.57785 -4.282623
v -3.512695 35.23019 -106.4092
v 2.050827 35.22441 88.29521
v 2.054352 37.70433 92.83708
v 1.87468 30.71043 91.41896
v 2.054352 37.70433 92.83708
v 2.050903 35.24259 87.8607
v 2.050888 35.24259 87.84419
v 2.050903 35.24259 87.8607
v -3.411545 32.57785 -4.282623
v -3.353333 35.23599 87.81129
v -3.353333 35.23599 87.81129
v -3.411545 32.57785 -4.282623
v -3.453049 26.79906 -4.402756
v 1.689056 29.9929 -103.8622
v 1.894745 30.55129 -109.7653
v 1.986099 37.72105 -111.0386
v 1.764008 35.25486 -106.2103
v 1.894745 30.55129 -109.7653
v -3.509109 30.55829 -109.8472
v -3.417755 37.72805 -111.1205
v 1.986099 37.72105 -111.0386
v -3.512695 35.23019 -106.4092
v -3.417755 37.72805 -111.1205
v -3.509109 30.55829 -109.8472
v 1.986099 37.72105 -111.0386
v -3.417755 37.72805 -111.1205
v -3.512695 35.23019 -106.4092
v -3.376617 29.78831 -105.7741
v -3.512695 35.23019 -106.4092
v 1.764008 35.25486 -106.2103
v 1.87468 30.71043 91.41896
v -3.529495 30.70344 91.45473
v 1.814026 29.68186 87.49718
v -3.485321 29.67564 87.17046
v -3.509109 30.55829 -109.8472
v 1.894745 30.55129 -109.7653
v -3.376617 29.78831 -105.7741
v 1.689056 29.9929 -103.8622

vn -0.0006182609 0.9995831 -0.02886398
vn -0.001123955 0.9995818 -0.0288955
vn -0.0006439934 0.9995829 -0.02887446
vn -0.002317488 0.8992769 -0.4373737
vn -0.02055055 0.8991227 -0.4372141
vn -0.003207454 0.8969239 -0.4421734
vn -0.999704 0.02421071 -0.002417975
vn -0.9994242 0.02918412 -0.0173061
vn -0.9995202 0.02729389 -0.01464478
vn -0.9997125 0.02392431 -0.001619395
vn 0.999683 -0.02515455 0.001056119
vn 0.9999724 -0.007223729 0.001717348
vn 0.9996966 -0.02460211 0.001147539
vn 0.9990934 -0.04257236 0.0003933712
vn 0.006743287 -0.1988834 0.98
vn 0.006743432 -0.1988835 0.98
vn 0.006743287 -0.1988834 0.98
vn 0.006743142 -0.1988833 0.98
vn -0.002707445 0.9996552 0.02611729
vn -0.005651716 0.9996468 0.02596757
vn -0.002707445 0.9996552 0.02611729
vn 0.0001738952 0.9996551 0.02626359
vn 0.9999889 -0.003691129 -0.002953765
vn 0.9998639 -0.01601587 -0.003975035
vn 0.9999889 -0.003691129 -0.002953765
vn 0.9999724 0.007136517 -0.002056215
vn -0.9998748 -0.01582536 9.086895E-05
vn -0.9999742 -0.007188399 -0.0001465559
vn -0.9998748 -0.01582536 9.086895E-05
vn -0.9996884 -0.02495798 0.0003419468
vn 0.9995108 -0.0281302 0.01366918
vn 0.9995158 -0.02762906 0.01431013
vn 0.9993711 -0.03482261 0.006707259
vn -0.004093608 0.8963184 -0.4433921
vn -0.002691824 0.8980004 -0.4399864
vn 0.9999918 -0.004021476 -0.0005134935
vn 0.9999986 -0.001625229 0.0001075829
vn -0.0001662576 0.9995838 -0.02884981
vn 0.000269195 0.9995847 -0.02881675
vn -0.9999742 0.007169904 0.0004253321
vn -0.9999742 0.007173085 0.0004250411
vn -0.9998826 0.0153229 -0.00032009
vn 0.9992261 -0.001922036 0.03928958
vn 0.999393 -0.006661687 0.03419246
vn 0.9992261 -0.001922036 0.03928958
vn 0.9987117 0.008126348 0.05008917
vn 0.01469673 -0.1750167 -0.9844558
vn 0.01469534 -0.1750177 -0.9844556
vn 0.01469673 -0.1750167 -0.9844558
vn 0.01469812 -0.1750157 -0.9844559
vn -0.9998395 0.01011369 -0.01478613
vn -0.9998395 0.01011369 -0.01478613
vn -0.9999903 -0.003072262 0.003131873
vn -0.01359482 0.8871892 0.4612055
vn -0.005955959 0.883541 0.4683159
vn -0.01359482 0.8871892 0.4612055
vn -0.9993614 -0.02167406 0.02841019
vn -0.9993614 -0.02167406 0.02841019
vn -0.02127783 0.8907498 0.4539954
vn 0.002930965 -0.9672922 0.2536479
vn -0.005410209 -0.9699906 0.2430821
vn -0.005410209 -0.9699906 0.2430821
vn -0.01323234 -0.9723553 0.233131
vn 0.00154408 -0.9825873 -0.185795
vn 0.04374263 -0.9903446 -0.1315449
vn 0.04374263 -0.9903446 -0.1315449
vn 0.07457727 -0.9930239 -0.09133278

vt 0.2041586 0.2256927
vt 0.2036252 0.1544289
vt 0.9936314 0.1544272
vt 0.203763 0.2257284
vt 0.2036602 0.2299859
vt 0.1565974 0.229986
vt 0.7929962 0.005731496
vt 0.8375335 0.005731538
vt 0.8375335 0.1461709
vt 0.7904706 0.1461709
vt 0.2087143 0.01218519
vt 0.9995005 0.01515105
vt 0.9995005 0.1536581
vt 0.2094792 0.1508939
vt 0.8785963 0.1434127
vt 0.7349303 0.1496929
vt 0.7290611 0.2346222
vt 0.8822013 0.2369909
vt 0.1565974 0.229986
vt 0.1565973 0.154429
vt 0.9936314 0.1544272
vt 0.9936314 0.2299843
vt 0.0004995167 0.005730763
vt 0.8375335 0.005731538
vt 0.8375335 0.1461709
vt 0.0004995167 0.1461702
vt 0.1624665 0.01201173
vt 0.9995005 0.01515105
vt 0.9995005 0.1536581
vt 0.1624665 0.1536588
vt 0.2093303 0.1531645
vt 0.1624665 0.1536588
vt 0.1624665 0.01201173
vt 0.1565973 0.154429
vt 0.203487 0.1544289
vt 0.2094944 0.1536588
vt 0.2093562 0.1536588
vt 0.9936314 0.2299843
vt 0.2041996 0.2299859
vt 0.7899313 0.1461709
vt 0.0004995167 0.1461702
vt 0.0004995167 0.005730763
vt 0.7929962 0.005731496
vt 0.8375335 0.005731538
vt 0.8375335 0.1461709
vt 0.7904706 0.1461709
vt 0.8785963 0.1434127
vt 0.7349303 0.1496929
vt 0.7290611 0.2346222
vt 0.8822013 0.2369909
vt 0.2093303 0.1531645
vt 0.1624665 0.1536588
vt 0.1624665 0.01201173
vt 0.1565974 0.229986
vt 0.1565973 0.154429
vt 0.203487 0.1544289
vt 0.2087143 0.01218519
vt 0.2094792 0.1508939
vt 0.203763 0.2257284
vt 0.1565973 0.154429
vt 0.1565974 0.229986
vt 0.203487 0.1544289
vt 0.203763 0.2257284
vt 0.1565973 0.154429
vt 0.1565974 0.229986
vt 0.203487 0.1544289
vt 0.203763 0.2257284

usemtl sn04_11_sn0413.JPG
usemap sn04_11_sn0413.JPG
f 3/3/3 1/1/1 2/2/2
f 6/6/6 4/4/4 5/5/5
f 9/9/9 7/7/7 8/8/8
f 7/7/7 9/9/9 10/10/10
f 13/13/13 11/11/11 12/12/12
f 11/11/11 13/13/13 14/14/14
f 17/17/17 15/15/15 16/16/16
f 18/18/18 15/15/15 17/17/17
f 21/21/21 19/19/19 20/20/20
f 19/19/19 21/21/21 22/22/22
f 25/25/25 23/23/23 24/24/24
f 23/23/23 25/25/25 26/26/26
f 29/29/29 27/27/27 28/28/28
f 27/27/27 29/29/29 30/30/30
f 33/33/33 31/31/31 32/32/32
f 35/35/35 6/6/6 34/34/34
f 14/14/14 33/33/33 11/11/11
f 31/31/31 33/33/33 14/14/14
f 14/14/14 13/13/13 36/36/36
f 36/36/36 31/31/31 14/14/14
f 31/31/31 37/37/37 32/32/32
f 31/31/31 36/36/36 37/37/37
f 4/4/4 6/6/6 35/35/35
f 2/2/2 1/1/1 35/35/35
f 1/1/1 3/3/3 38/38/38
f 39/39/39 1/1/1 38/38/38
f 42/42/42 40/40/40 41/41/41
f 4/4/4 1/1/1 39/39/39
f 1/1/1 4/4/4 35/35/35
f 5/5/5 4/4/4 39/39/39
f 42/42/42 10/10/10 40/40/40
f 10/10/10 42/42/42 7/7/7
f 45/45/45 43/43/43 44/44/44
f 43/43/43 45/45/45 46/46/46
f 49/49/49 47/47/47 48/48/48
f 50/50/50 47/47/47 49/49/49
f 53/53/53 51/51/51 52/52/52
f 56/56/56 54/54/54 55/55/55
f 58/58/58 53/53/53 57/57/57
f 59/59/59 54/54/54 56/56/56
f 62/62/62 60/60/60 61/61/61
f 63/63/63 62/62/62 61/61/61
f 66/66/66 64/64/64 65/65/65
f 67/67/67 66/66/66 65/65/65
