mtllib ./Object27.mtl
g Object27
v -8.94928 -11.55512 -0.1869965
v 0.1126709 -11.63399 0.1269073
v 0.003051758 -0.3418274 -0.00705719
v -9.043579 -0.3418274 -0.00705719
v -9.007874 -21.25122 -0.1266556
v 0.06085205 -21.25122 0.2556
v 9.50415 -21.25122 0.3057404
v 9.558868 -12.09519 0.2365608
v 9.4646 -0.3418274 -0.00705719
v 0.007232666 -30.05785 0.3888245
v -9.067535 -30.00173 -0.06521606
v 9.440643 -30.51838 0.3859863

vn -0.02253277 0.0004008297 0.999746
vn -0.02118583 0.01315312 0.999689
vn -0.01137733 0.002637382 0.9999317
vn 0 -0.0160449 0.9998713
vn -0.04198414 0.01065323 0.9990615
vn -0.01722867 0.01225 0.9997765
vn -0.005309375 0.008144419 0.9999527
vn -0.009123203 0.01445534 0.999854
vn -0.005400111 0.016334 0.999852
vn -0.0298948 0.01265914 0.9994729
vn -0.04992408 0.00735269 0.998726
vn -0.002217189 0.01182457 0.9999276

vt 0.01522003 0.8262444
vt 0.1723439 0.8249987
vt 0.170443 1.003351
vt 0.01358516 1.003351
vt 0.01420424 0.6731004
vt 0.1714458 0.6731004
vt 0.3351812 0.6731004
vt 0.3361302 0.8177143
vt 0.3344953 1.003351
vt 0.170516 0.5340052
vt 0.01317001 0.5348914
vt 0.3340802 0.5267313

usemtl sn04_42_lho04.JPG
usemap sn04_42_lho04.JPG
f 3/3/3 1/1/1 2/2/2
f 1/1/1 3/3/3 4/4/4
f 2/2/2 5/5/5 6/6/6
f 8/8/8 6/6/6 7/7/7
f 9/9/9 2/2/2 8/8/8
f 2/2/2 9/9/9 3/3/3
f 6/6/6 5/5/5 10/10/10
f 5/5/5 11/11/11 10/10/10
f 5/5/5 2/2/2 1/1/1
f 7/7/7 6/6/6 12/12/12
f 6/6/6 10/10/10 12/12/12
f 6/6/6 8/8/8 2/2/2
