mtllib ./Object11.mtl
g Object11
v 67.58984 35.23599 60.15686
v 70.8717 35.24259 56.25794
v -2.145787 32.2122 -4.374934
v 67.62566 35.23599 60.18994
v 67.44236 35.23599 60.43347
v 71.40157 37.69734 63.72075
v 66.79944 29.67564 60.07058
v 70.16376 30.70344 62.92522
v 71.40157 37.69734 63.72075
v 67.44236 35.23599 60.43347
v 70.44551 29.68186 56.21158
v -2.267445 25.94322 -4.422138
v -2.145787 32.2122 -4.374934
v 70.87106 35.14019 56.25795
v 70.16376 30.70344 62.92522
v 73.58979 30.71043 58.74695
v 74.82759 37.70433 59.54248
v 71.40157 37.69734 63.72075
v -82.97641 35.25486 -71.28234
v -86.50679 35.2302 -67.35658
v -5.571794 32.2122 -0.1966406
v -2.145787 32.2122 -4.374934
v -2.024129 25.93623 -4.327731
v -81.23888 29.9929 -69.74026
v -82.97641 35.25486 -71.28234
v -2.145787 32.2122 -4.374934
v -86.4799 29.98176 -67.45423
v -5.450136 22.9628 -0.1494369
v -5.571794 32.2122 -0.1966406
v -86.50679 35.2302 -67.35658
v 71.22882 35.22441 56.55494
v 74.82759 37.70433 59.54248
v 73.58979 30.71043 58.74695
v 74.82759 37.70433 59.54248
v 70.88477 35.24259 56.2688
v 70.8717 35.24259 56.25794
v 70.88477 35.24259 56.2688
v -5.571794 32.2122 -0.1966406
v 67.39128 35.23599 60.39104
v 67.39128 35.23599 60.39104
v -5.571794 32.2122 -0.1966406
v -5.693451 25.93623 -0.2438444
v -81.23888 29.9929 -69.74026
v -85.70796 30.55129 -73.72341
v -86.65783 37.72105 -74.63194
v -82.97641 35.25486 -71.28234
v -85.70796 30.55129 -73.72341
v -89.22697 30.55829 -69.62286
v -90.17686 37.72805 -70.5314
v -86.65783 37.72105 -74.63194
v -86.50679 35.2302 -67.35658
v -90.17686 37.72805 -70.5314
v -89.22697 30.55829 -69.62286
v -86.65783 37.72105 -74.63194
v -90.17686 37.72805 -70.5314
v -86.50679 35.2302 -67.35658
v -86.4799 29.98176 -67.45423
v -86.50679 35.2302 -67.35658
v -82.97641 35.25486 -71.28234
v 73.58979 30.71043 58.74695
v 70.16376 30.70344 62.92522
v 70.44551 29.68186 56.21158
v 66.79944 29.67564 60.07058
v -89.22697 30.55829 -69.62286
v -85.70796 30.55129 -73.72341
v -86.4799 29.98176 -67.45423
v -81.23888 29.9929 -69.74026

vn -0.03187627 0.9994915 0.0006357469
vn -0.03190586 0.9994903 0.001117109
vn -0.03188771 0.9994913 0.0006626169
vn -0.4270505 0.9042242 0.002549991
vn -0.4268832 0.9040655 0.02088803
vn -0.4317877 0.9019687 0.003447384
vn -0.002035737 0.02422952 0.9997042
vn -0.01629484 0.02918013 0.9994413
vn -0.01370826 0.02728819 0.9995336
vn -0.001269668 0.02394345 0.9997124
vn 0.0006396174 -0.02410889 -0.9997091
vn 0.001198888 -0.006649824 -0.9999771
vn 0.0007261336 -0.02356851 -0.9997219
vn 2.792478E-05 -0.04257689 -0.9990932
vn 0.9788244 -0.2045669 -0.007437289
vn 0.9788244 -0.2045666 -0.007436916
vn 0.9788244 -0.2045669 -0.007437289
vn 0.9788243 -0.2045672 -0.007437736
vn 0.02884014 0.9995803 0.00274698
vn 0.02869236 0.9995717 0.005771158
vn 0.02884014 0.9995803 0.00274698
vn 0.02898451 0.9995798 -0.0002125567
vn -0.00339365 -0.003510255 -0.999988
vn -0.004501164 -0.01599908 -0.9998618
vn -0.00339365 -0.003510255 -0.999988
vn -0.002499491 0.006570039 -0.9999753
vn 0.0007913411 -0.009224374 0.999957
vn 0.000690788 -0.00448233 0.9999897
vn 0.0007913411 -0.009224374 0.999957
vn 0.0009684563 -0.01758341 0.9998448
vn 0.01277933 -0.02816028 -0.9995217
vn 0.01338282 -0.02762365 -0.9995288
vn 0.006000847 -0.03481604 -0.9993757
vn -0.4329905 0.901388 0.00433892
vn -0.4296292 0.9030007 0.00292743
vn -0.000995487 -0.004019791 -0.9999914
vn -0.0004087687 -0.00161326 -0.9999987
vn -0.0318653 0.9994921 0.0002054824
vn -0.03182905 0.9994932 -0.0002904786
vn 0.0009150803 0.006600039 0.9999778
vn 0.0009150207 0.006601284 0.9999778
vn 0.0001242459 0.01468009 0.9998922
vn 0.03791028 -0.002136477 -0.9992788
vn 0.03322771 -0.006561792 -0.9994263
vn 0.03791028 -0.002136477 -0.9992788
vn 0.04756019 0.006988195 -0.9988438
vn -0.9835457 -0.180067 -0.01462227
vn -0.9835455 -0.1800681 -0.01462074
vn -0.9835457 -0.180067 -0.01462227
vn -0.9835458 -0.180066 -0.01462376
vn -0.01384285 0.01011191 0.999853
vn -0.01384285 0.01011191 0.999853
vn -0.0002911091 -0.000158117 0.9999999
vn 0.4506032 0.8926231 0.01344988
vn 0.4576325 0.8891227 0.005761445
vn 0.4506032 0.8926231 0.01344988
vn 0.02292722 -0.01775365 0.9995795
vn 0.02292722 -0.01775365 0.9995795
vn 0.4434794 0.8960343 0.02117993
vn 0.246758 -0.9690723 -0.003062826
vn 0.2364474 -0.9716299 0.005300093
vn 0.2364474 -0.9716299 0.005300093
vn 0.2267407 -0.9738665 0.01314042
vn -0.1626193 -0.9866883 -0.001178298
vn -0.1184403 -0.9925013 -0.0302191
vn -0.1184403 -0.9925013 -0.0302191
vn -0.0912082 -0.9946758 -0.04796897

vt 0.2041586 0.2256927
vt 0.2036252 0.1544289
vt 0.9936314 0.1544272
vt 0.203763 0.2257284
vt 0.2036602 0.2299859
vt 0.1565974 0.229986
vt 0.7929962 0.005731496
vt 0.8375335 0.005731538
vt 0.8375335 0.1461709
vt 0.7904706 0.1461709
vt 0.2087143 0.01218519
vt 0.9995005 0.01515105
vt 0.9995005 0.1536581
vt 0.2094792 0.1508939
vt 0.245746 0.1506591
vt 0.1624665 0.1569393
vt 0.1565973 0.2249604
vt 0.249351 0.227329
vt 0.1565974 0.229986
vt 0.1565973 0.154429
vt 0.9936314 0.1544272
vt 0.9936314 0.2299843
vt 0.0004995167 0.005730763
vt 0.8375335 0.005731538
vt 0.8375335 0.1461709
vt 0.0004995167 0.1461702
vt 0.1624665 0.01201173
vt 0.9995005 0.01515105
vt 0.9995005 0.1536581
vt 0.1624665 0.1536588
vt 0.2093303 0.1531645
vt 0.1624665 0.1536588
vt 0.1624665 0.01201173
vt 0.1565973 0.154429
vt 0.203487 0.1544289
vt 0.2094944 0.1536588
vt 0.2093562 0.1536588
vt 0.9936314 0.2299843
vt 0.2041996 0.2299859
vt 0.7899313 0.1461709
vt 0.0004995167 0.1461702
vt 0.0004995167 0.005730763
vt 0.7929962 0.005731496
vt 0.8375335 0.005731538
vt 0.8375335 0.1461709
vt 0.7904706 0.1461709
vt 0.245746 0.1506591
vt 0.1624665 0.1569393
vt 0.1565973 0.2249604
vt 0.249351 0.227329
vt 0.2093303 0.1531645
vt 0.1624665 0.1536588
vt 0.1624665 0.01201173
vt 0.1565974 0.229986
vt 0.1565973 0.154429
vt 0.203487 0.1544289
vt 0.2087143 0.01218519
vt 0.2094792 0.1508939
vt 0.203763 0.2257284
vt 0.1565973 0.154429
vt 0.1565974 0.229986
vt 0.203487 0.1544289
vt 0.203763 0.2257284
vt 0.1565973 0.154429
vt 0.1565974 0.229986
vt 0.203487 0.1544289
vt 0.203763 0.2257284

usemtl sn04_11_sn0413.JPG
usemap sn04_11_sn0413.JPG
f 3/3/3 1/1/1 2/2/2
f 6/6/6 4/4/4 5/5/5
f 9/9/9 7/7/7 8/8/8
f 7/7/7 9/9/9 10/10/10
f 13/13/13 11/11/11 12/12/12
f 11/11/11 13/13/13 14/14/14
f 17/17/17 15/15/15 16/16/16
f 18/18/18 15/15/15 17/17/17
f 21/21/21 19/19/19 20/20/20
f 19/19/19 21/21/21 22/22/22
f 25/25/25 23/23/23 24/24/24
f 23/23/23 25/25/25 26/26/26
f 29/29/29 27/27/27 28/28/28
f 27/27/27 29/29/29 30/30/30
f 33/33/33 31/31/31 32/32/32
f 35/35/35 6/6/6 34/34/34
f 14/14/14 33/33/33 11/11/11
f 31/31/31 33/33/33 14/14/14
f 14/14/14 13/13/13 36/36/36
f 31/31/31 37/37/37 32/32/32
f 4/4/4 6/6/6 35/35/35
f 2/2/2 1/1/1 35/35/35
f 1/1/1 3/3/3 38/38/38
f 39/39/39 1/1/1 38/38/38
f 42/42/42 40/40/40 41/41/41
f 4/4/4 1/1/1 39/39/39
f 1/1/1 4/4/4 35/35/35
f 5/5/5 4/4/4 39/39/39
f 42/42/42 10/10/10 40/40/40
f 10/10/10 42/42/42 7/7/7
f 45/45/45 43/43/43 44/44/44
f 43/43/43 45/45/45 46/46/46
f 49/49/49 47/47/47 48/48/48
f 50/50/50 47/47/47 49/49/49
f 53/53/53 51/51/51 52/52/52
f 56/56/56 54/54/54 55/55/55
f 58/58/58 53/53/53 57/57/57
f 59/59/59 54/54/54 56/56/56
f 62/62/62 60/60/60 61/61/61
f 63/63/63 62/62/62 61/61/61
f 66/66/66 64/64/64 65/65/65
f 67/67/67 66/66/66 65/65/65
