mtllib ./Object32.mtl
g Object32
v -61.45349 5.046007 144.7129
v -61.45349 5.046007 155.5129
v -29.09924 5.111174 155.5868
v -29.09924 5.111174 144.7869
v -61.45349 5.046007 155.5129
v -61.45349 -0.2504082 155.5129
v -29.09918 -0.1852417 155.5868
v -29.09924 5.111174 155.5868
v -61.45349 55.28245 24.81238
v -61.45349 55.28245 34.19427
v -29.09918 55.34762 34.26831
v -29.09918 55.34762 24.88641
v -61.45349 55.28245 34.19427
v -61.45349 50.29752 34.19427
v -29.09918 50.36268 34.26831
v -29.09918 55.34762 34.26831
v -61.45349 50.29752 34.19427
v -61.45349 50.29752 45.83215
v -29.09918 50.36268 45.90619
v -29.09918 50.36268 34.26831
v -61.45349 50.29752 45.83215
v -61.45349 45.04327 45.83215
v -29.09918 45.10844 45.90619
v -29.09918 50.36268 45.90619
v -61.45349 45.04327 45.83215
v -61.45349 45.04327 57.3847
v -29.09918 45.10844 57.45874
v -29.09918 45.10844 45.90619
v -61.45349 45.04327 57.3847
v -61.45349 40.84457 57.3847
v -29.09918 40.90974 57.45874
v -29.09918 45.10844 57.45874
v -61.45349 40.84457 57.3847
v -61.45349 40.84457 68.67749
v -29.09918 40.90974 68.75153
v -29.09918 40.90974 57.45874
v -61.45349 40.84457 68.67749
v -61.45349 36.32567 68.66766
v -29.09918 36.39083 68.74158
v -29.09918 40.90974 68.75153
v -61.45349 36.32567 68.66766
v -61.45349 36.32567 80.14557
v -29.09918 36.39083 80.21967
v -29.09918 36.39083 68.74158
v -61.45349 36.32567 80.14557
v -61.45349 32.42847 80.14557
v -29.09918 32.49364 80.21967
v -29.09918 36.39083 80.21967
v -61.45349 32.42847 80.14557
v -61.45349 32.42847 90.23767
v -29.09918 32.49364 90.31171
v -29.09918 32.49364 80.21967
v -61.45349 32.42847 90.23767
v -61.45349 27.70654 90.23767
v -29.09918 27.77171 90.31171
v -29.09918 32.49364 90.31171
v -61.45349 27.70654 90.23767
v -61.45349 27.70654 100.5444
v -29.09924 27.77171 100.6185
v -29.09918 27.77171 90.31171
v -61.45349 27.70654 100.5444
v -61.45349 23.2714 100.5444
v -29.09924 23.33656 100.6185
v -29.09924 27.77171 100.6185
v -61.45349 23.2714 100.5444
v -61.45349 23.2714 111.2072
v -29.09924 23.33656 111.2812
v -29.09924 23.33656 100.6185
v -61.45349 23.2714 111.2072
v -61.45349 18.73668 111.2072
v -29.09924 18.80184 111.2812
v -29.09924 23.33656 111.2812
v -61.45349 18.73668 111.2072
v -61.45349 18.73668 122.5577
v -29.09924 18.80184 122.6317
v -29.09924 18.80184 111.2812
v -61.45349 18.73668 122.5577
v -61.45349 14.29108 122.5577
v -29.09924 14.35624 122.6317
v -29.09924 18.80184 122.6317
v -61.45349 14.29108 122.5577
v -61.45349 14.29108 134.226
v -29.09924 14.35624 134.3
v -29.09924 14.35624 122.6317
v -61.45349 14.29108 134.226
v -61.45349 9.579256 134.2362
v -29.09924 9.644423 134.3104
v -29.09924 14.35624 134.3
v -61.45349 9.579256 134.2362
v -61.45349 9.579256 144.7022
v -29.09924 9.644423 144.7762
v -29.09924 9.644423 134.3104
v -61.45349 9.579256 144.7022
v -61.45349 5.046007 144.7129
v -29.09924 5.111174 144.7869
v -29.09924 9.644423 144.7762
v -29.03778 60.06704 24.83093
v -61.45349 60.0908 24.66638
v -29.09918 55.34762 24.88641
v -61.45349 55.28245 24.81238

vn -0.002014151 0.999998 0
vn -0.002014151 0.999998 0
vn -0.002014151 0.999998 0
vn -0.002014151 0.999998 0
vn -0.002282615 -1.321748E-08 0.9999974
vn -0.002282612 0 0.9999974
vn -0.002282615 -1.321748E-08 0.9999974
vn -0.002282617 -2.643499E-08 0.9999974
vn -0.002014147 0.999998 0
vn -0.002014147 0.999998 0
vn -0.002014147 0.999998 0
vn -0.002014148 0.999998 0
vn -0.002288272 0 0.9999974
vn -0.002288272 0 0.9999974
vn -0.002288272 0 0.9999974
vn -0.002288272 0 0.9999974
vn -0.002014147 0.9999979 0
vn -0.002014147 0.9999979 0
vn -0.002014147 0.9999979 0
vn -0.002014147 0.999998 0
vn -0.002288272 0 0.9999974
vn -0.002288272 0 0.9999974
vn -0.002288272 0 0.9999974
vn -0.002288272 0 0.9999974
vn -0.002014147 0.999998 0
vn -0.002014147 0.999998 0
vn -0.002014147 0.999998 0
vn -0.002014147 0.999998 0
vn -0.002288272 0 0.9999974
vn -0.002288272 0 0.9999974
vn -0.002288272 0 0.9999974
vn -0.002288272 0 0.9999974
vn -0.002014147 0.9999979 0
vn -0.002014147 0.9999979 0
vn -0.002014147 0.9999979 0
vn -0.002014147 0.9999979 0
vn -0.002281973 -0.002188062 0.999995
vn -0.002280114 -0.002174556 0.999995
vn -0.002281973 -0.002188062 0.999995
vn -0.002283832 -0.002201569 0.999995
vn -0.002014147 0.999998 0
vn -0.002014147 0.999998 0
vn -0.002014147 0.999998 0
vn -0.002014147 0.999998 0
vn -0.002290158 0 0.9999974
vn -0.002290158 0 0.9999974
vn -0.002290158 0 0.9999974
vn -0.002290158 0 0.9999974
vn -0.002014147 0.999998 0
vn -0.002014147 0.999998 0
vn -0.002014147 0.999998 0
vn -0.002014147 0.9999979 0
vn -0.002288272 0 0.9999974
vn -0.002288272 0 0.9999974
vn -0.002288272 0 0.9999974
vn -0.002288272 0 0.9999974
vn -0.002014149 0.999998 -6.077209E-09
vn -0.002014151 0.999998 0
vn -0.002014149 0.999998 -6.077209E-09
vn -0.002014147 0.999998 -1.215433E-08
vn -0.002292049 0 0.9999973
vn -0.002292049 0 0.9999973
vn -0.002292049 0 0.9999973
vn -0.002292049 0 0.9999973
vn -0.002014151 0.9999979 0
vn -0.002014151 0.999998 0
vn -0.002014151 0.9999979 0
vn -0.002014151 0.999998 0
vn -0.002288276 0 0.9999974
vn -0.002288276 0 0.9999974
vn -0.002288276 0 0.9999974
vn -0.002288276 0 0.9999974
vn -0.002014151 0.999998 0
vn -0.002014151 0.999998 0
vn -0.002014151 0.999998 0
vn -0.002014151 0.999998 0
vn -0.00228639 0 0.9999974
vn -0.00228639 0 0.9999974
vn -0.00228639 0 0.9999974
vn -0.00228639 0 0.9999974
vn -0.002014151 0.999998 0
vn -0.002014151 0.999998 0
vn -0.002014151 0.999998 0
vn -0.002014151 0.999998 0
vn -0.002294566 0.002189152 0.9999951
vn -0.002296427 0.002176198 0.9999951
vn -0.002294566 0.002189152 0.9999951
vn -0.002292706 0.002202105 0.9999951
vn -0.002014151 0.999998 0
vn -0.002014151 0.9999979 0
vn -0.002014151 0.999998 0
vn -0.002014151 0.999998 0
vn -0.002292058 0.002349436 0.9999946
vn -0.002291129 0.002356168 0.9999946
vn -0.002292058 0.002349436 0.9999946
vn -0.002292988 0.002342704 0.9999946
vn -0.005067181 0.01182083 0.9999173
vn -0.003696274 0.02116523 0.9997692
vn -0.003696274 0.02116523 0.9997692
vn -0.002348345 0.03034896 0.9995366

vt 0.8081489 1.607061
vt 0.8081489 1.82656
vt 0.160245 1.829653
vt 0.160245 1.610154
vt 0.1918511 -0.008890867
vt 0.1918511 -0.116535
vt 0.8397555 -0.1076427
vt 0.8397549 1.519918E-06
vt 0.8081483 -0.8297927
vt 0.8081483 -0.6391126
vt 0.1602444 -0.6360188
vt 0.1602444 -0.8266989
vt 0.1918517 1.012113
vt 0.1918517 0.9107993
vt 0.8397556 0.9196916
vt 0.8397556 1.021005
vt 0.8081483 -0.6391126
vt 0.8081484 -0.4025845
vt 0.1602445 -0.3994906
vt 0.1602444 -0.6360188
vt 0.1918516 0.9107993
vt 0.1918516 0.8040122
vt 0.8397555 0.8129045
vt 0.8397555 0.9196916
vt 0.8081484 -0.4025845
vt 0.8081484 -0.1677937
vt 0.1602445 -0.1646997
vt 0.1602445 -0.3994906
vt 0.1918516 0.8040122
vt 0.1918516 0.718678
vt 0.8397555 0.7275704
vt 0.8397555 0.8129045
vt 0.8081484 -0.1677937
vt 0.8081485 0.06172329
vt 0.1602446 0.06481719
vt 0.1602445 -0.1646997
vt 0.1918515 0.718678
vt 0.1918515 0.6268359
vt 0.8397554 0.6357283
vt 0.8397554 0.7275704
vt 0.8081485 0.06152046
vt 0.8081485 0.2947973
vt 0.1602446 0.2978919
vt 0.1602446 0.06461439
vt 0.1918515 0.6268359
vt 0.1918515 0.5476294
vt 0.8397554 0.5565218
vt 0.8397554 0.6357283
vt 0.8081485 0.2947973
vt 0.8081486 0.4999082
vt 0.1602447 0.5030021
vt 0.1602446 0.2978919
vt 0.1918514 0.5476294
vt 0.1918514 0.4516611
vt 0.8397553 0.4605534
vt 0.8397553 0.5565218
vt 0.8081486 0.4999082
vt 0.8081486 0.709384
vt 0.1602448 0.7124779
vt 0.1602447 0.5030021
vt 0.1918514 0.4516611
vt 0.1918514 0.3615214
vt 0.8397552 0.3704137
vt 0.8397552 0.4605534
vt 0.8081486 0.709384
vt 0.8081487 0.9260947
vt 0.1602448 0.9291885
vt 0.1602448 0.7124779
vt 0.1918513 0.3615214
vt 0.1918513 0.2693579
vt 0.8397552 0.2782502
vt 0.8397552 0.3704137
vt 0.8081487 0.9260947
vt 0.8081487 1.15678
vt 0.1602449 1.159873
vt 0.1602448 0.9291885
vt 0.1918513 0.2693579
vt 0.1918513 0.1790056
vt 0.8397551 0.187898
vt 0.8397551 0.2782502
vt 0.8081487 1.15678
vt 0.8081488 1.393928
vt 0.1602449 1.397021
vt 0.1602449 1.159873
vt 0.1918512 0.1790056
vt 0.1918512 0.08324274
vt 0.8397551 0.0921351
vt 0.8397551 0.187898
vt 0.8081488 1.394136
vt 0.8081489 1.606846
vt 0.160245 1.60994
vt 0.1602449 1.397229
vt 0.1918511 0.08324274
vt 0.1918511 -0.008890867
vt 0.839755 1.519918E-06
vt 0.839755 0.0921351
vt 0.8410041 1.116923
vt 0.1918518 1.109838
vt 0.8397557 1.021005
vt 0.1918518 1.012113

usemtl sn04_00_sn0404.JPG
usemap sn04_00_sn0404.JPG
f 3/3/3 1/1/1 2/2/2
f 4/4/4 1/1/1 3/3/3
f 7/7/7 5/5/5 6/6/6
f 8/8/8 5/5/5 7/7/7
f 11/11/11 9/9/9 10/10/10
f 12/12/12 9/9/9 11/11/11
f 15/15/15 13/13/13 14/14/14
f 16/16/16 13/13/13 15/15/15
f 19/19/19 17/17/17 18/18/18
f 20/20/20 17/17/17 19/19/19
f 23/23/23 21/21/21 22/22/22
f 24/24/24 21/21/21 23/23/23
f 27/27/27 25/25/25 26/26/26
f 28/28/28 25/25/25 27/27/27
f 31/31/31 29/29/29 30/30/30
f 32/32/32 29/29/29 31/31/31
f 35/35/35 33/33/33 34/34/34
f 36/36/36 33/33/33 35/35/35
f 39/39/39 37/37/37 38/38/38
f 40/40/40 37/37/37 39/39/39
f 43/43/43 41/41/41 42/42/42
f 44/44/44 41/41/41 43/43/43
f 47/47/47 45/45/45 46/46/46
f 48/48/48 45/45/45 47/47/47
f 51/51/51 49/49/49 50/50/50
f 52/52/52 49/49/49 51/51/51
f 55/55/55 53/53/53 54/54/54
f 56/56/56 53/53/53 55/55/55
f 59/59/59 57/57/57 58/58/58
f 60/60/60 57/57/57 59/59/59
f 63/63/63 61/61/61 62/62/62
f 64/64/64 61/61/61 63/63/63
f 67/67/67 65/65/65 66/66/66
f 68/68/68 65/65/65 67/67/67
f 71/71/71 69/69/69 70/70/70
f 72/72/72 69/69/69 71/71/71
f 75/75/75 73/73/73 74/74/74
f 76/76/76 73/73/73 75/75/75
f 79/79/79 77/77/77 78/78/78
f 80/80/80 77/77/77 79/79/79
f 83/83/83 81/81/81 82/82/82
f 84/84/84 81/81/81 83/83/83
f 87/87/87 85/85/85 86/86/86
f 88/88/88 85/85/85 87/87/87
f 91/91/91 89/89/89 90/90/90
f 92/92/92 89/89/89 91/91/91
f 95/95/95 93/93/93 94/94/94
f 96/96/96 93/93/93 95/95/95
f 99/99/99 97/97/97 98/98/98
f 98/98/98 100/100/100 99/99/99
