mtllib ./Object17.mtl
g Object17
v 85.82766 35.236 61.91618
v 88.81589 35.2426 57.78646
v -1.660968 32.22761 -6.636318
v 85.87263 35.236 61.95134
v 85.70991 35.236 62.20932
v 90.61575 37.69734 65.70206
v 84.94109 29.67564 61.82342
v 89.11978 30.70344 64.85637
v 90.61575 37.69734 65.70206
v 85.70991 35.236 62.20932
v 88.33786 29.68186 57.7366
v -1.802953 24.48377 -6.686586
v -1.660968 32.22761 -6.636318
v 88.81516 35.1402 57.78646
v 89.11978 30.70344 64.85637
v 92.22165 30.71043 60.43058
v 93.71761 37.70434 61.27629
v 90.61575 37.69734 65.70206
v -101.7845 35.25487 -77.72628
v -105.0426 35.2302 -73.56846
v -4.762825 32.22761 -2.210538
v -1.660968 32.22761 -6.636318
v -1.518986 24.47678 -6.586071
v -99.12096 28.67732 -75.73564
v -101.7845 35.25487 -77.72628
v -1.660968 32.22761 -6.636318
v -104.7207 29.11305 -73.45024
v -4.620848 24.48377 -2.160285
v -4.762825 32.22761 -2.210538
v -105.0426 35.2302 -73.56846
v 89.25846 35.22442 58.10202
v 93.71761 37.70434 61.27629
v 92.22165 30.71043 60.43058
v 93.71761 37.70434 61.27629
v 88.83209 35.2426 57.798
v 88.81589 35.2426 57.78646
v 88.81516 35.1402 57.78646
v 88.81589 35.2426 57.78646
v 88.83209 35.2426 57.798
v -4.762825 32.22761 -2.210538
v 85.64661 35.236 62.16423
v 85.64661 35.236 62.16423
v -4.762825 32.22761 -2.210538
v -4.904815 24.47678 -2.2608
v -99.12096 28.67732 -75.73564
v -105.1973 30.55129 -80.31959
v -106.3938 37.72106 -81.28467
v -101.7845 35.25487 -77.72628
v -105.1973 30.55129 -80.31959
v -108.4145 30.55829 -75.97641
v -109.6109 37.72806 -76.94148
v -106.3938 37.72106 -81.28467
v -105.0426 35.2302 -73.56846
v -109.6109 37.72806 -76.94148
v -108.4145 30.55829 -75.97641
v -106.3938 37.72106 -81.28467
v -109.6109 37.72806 -76.94148
v -105.0426 35.2302 -73.56846
v -104.7207 29.11305 -73.45024
v -105.0426 35.2302 -73.56846
v -101.7845 35.25487 -77.72628
v 92.22165 30.71043 60.43058
v 89.11978 30.70344 64.85637
v 88.33786 29.68186 57.7366
v 84.94109 29.67564 61.82342
v -108.4145 30.55829 -75.97641
v -105.1973 30.55129 -80.31959
v -104.7207 29.11305 -73.45024
v -99.12096 28.67732 -75.73564

vn -0.0006211558 0.9996324 -0.02710417
vn -0.001103422 0.9996313 -0.02712966
vn -0.0006479369 0.9996321 -0.0271139
vn -0.002415851 0.927328 -0.3742418
vn -0.02120857 0.9271475 -0.3740958
vn -0.00333713 0.9255483 -0.3786149
vn -0.9997023 0.02428089 -0.002397448
vn -0.9994717 0.0291895 -0.01429605
vn -0.9995543 0.02729579 -0.01208395
vn -0.9997106 0.02399306 -0.001756281
vn 0.9997691 -0.02146956 0.0009811223
vn 0.9999845 -0.00538494 0.001421154
vn 0.9997798 -0.02096485 0.001047462
vn 0.9990928 -0.04258751 0.0003862083
vn 0.008124143 -0.2375655 0.9713376
vn 0.008124202 -0.2375655 0.9713376
vn 0.008124143 -0.2375655 0.9713376
vn 0.008124113 -0.2375655 0.9713376
vn -0.002758122 0.9996954 0.02452084
vn -0.005779161 0.9996858 0.02439352
vn -0.002758122 0.9996954 0.02452084
vn 0.0001983559 0.9996963 0.02464523
vn 0.9999925 -0.002927751 -0.002522856
vn 0.9999086 -0.01308207 -0.003412902
vn 0.9999925 -0.002927751 -0.002522856
vn 0.9999843 0.005321984 -0.001799554
vn -0.9999547 -0.009517354 0.0003965497
vn -0.9999856 -0.005353167 0.0002908707
vn -0.9999547 -0.009517354 0.0003965497
vn -0.9998906 -0.01478343 0.0005300343
vn 0.9995406 -0.02813198 0.01127276
vn 0.9995484 -0.02762996 0.01180556
vn 0.9993783 -0.03482379 0.005496353
vn -0.004253328 0.9250888 -0.3797269
vn -0.002804264 0.926363 -0.3766215
vn 0.9999912 -0.004164911 -0.0004817843
vn 0.9999915 -0.004121172 -9.11355E-05
vn 0.9999913 -0.00417984 -9.307265E-05
vn 0.9999988 -0.001595036 8.076429E-06
vn -0.000190082 0.9996328 -0.02709454
vn 0.0003021257 0.9996337 -0.02706351
vn -0.9999857 0.005345509 0.0004487932
vn -0.9999856 0.005345569 0.0004487634
vn -0.9999147 0.01306057 -0.0002976656
vn 0.9995043 -0.0009439435 0.03146839
vn 0.9996568 -0.007340401 0.02514642
vn 0.9995043 -0.0009439435 0.03146839
vn 0.9990538 0.01004038 0.04231861
vn 0.01752269 -0.2094629 -0.9776596
vn 0.01752371 -0.2094623 -0.9776597
vn 0.01752269 -0.2094629 -0.9776596
vn 0.01752171 -0.2094636 -0.9776595
vn -0.9998745 0.01011341 -0.01220143
vn -0.9998745 0.01011341 -0.01220143
vn -0.9999998 -5.605374E-05 -0.0007348061
vn -0.01403981 0.9181246 0.3960429
vn -0.006141946 0.9153591 0.4025916
vn -0.01403981 0.9181246 0.3960429
vn -0.9997896 -0.01400043 0.01498848
vn -0.9997896 -0.01400043 0.01498848
vn -0.02196595 0.9207964 0.3894244
vn 0.002975903 -0.9771318 0.2126134
vn -0.005446665 -0.9790418 0.203587
vn -0.005446665 -0.9790418 0.203587
vn -0.01333274 -0.9806916 0.1951059
vn 0.004364282 -0.9515521 -0.3074564
vn 0.04314928 -0.9634874 -0.2642539
vn 0.04314928 -0.9634874 -0.2642539
vn 0.06721138 -0.969207 -0.2368973

vt 0.2041586 0.2256927
vt 0.2036252 0.1544289
vt 0.9936314 0.1544272
vt 0.203763 0.2257284
vt 0.2036602 0.2299859
vt 0.1565974 0.229986
vt 0.7929962 0.005731496
vt 0.8375335 0.005731538
vt 0.8375335 0.1461709
vt 0.7904706 0.1461709
vt 0.2087143 0.01218519
vt 0.9995005 0.01515105
vt 0.9995005 0.1536581
vt 0.2094792 0.1508939
vt 0.3278716 0.1482436
vt 0.2397612 0.1545238
vt 0.233892 0.2249604
vt 0.3314766 0.2249136
vt 0.1565974 0.229986
vt 0.1565973 0.154429
vt 0.9936314 0.1544272
vt 0.9936314 0.2299843
vt 0.0004995167 0.005730763
vt 0.8375335 0.005731538
vt 0.8375335 0.1461709
vt 0.0004995167 0.1461702
vt 0.1624665 0.01201173
vt 0.9995005 0.01515105
vt 0.9995005 0.1536581
vt 0.1624665 0.1536588
vt 0.2093303 0.1531645
vt 0.1624665 0.1536588
vt 0.1624665 0.01201173
vt 0.1565973 0.154429
vt 0.203487 0.1544289
vt 0.2094944 0.1536588
vt 0.2094792 0.1508939
vt 0.2094944 0.1536588
vt 0.2093562 0.1536588
vt 0.9936314 0.2299843
vt 0.2041996 0.2299859
vt 0.7899313 0.1461709
vt 0.0004995167 0.1461702
vt 0.0004995167 0.005730763
vt 0.7929962 0.005731496
vt 0.8375335 0.005731538
vt 0.8375335 0.1461709
vt 0.7904706 0.1461709
vt 0.3278716 0.1482436
vt 0.2397612 0.1545238
vt 0.233892 0.2249604
vt 0.3314766 0.2249136
vt 0.2093303 0.1531645
vt 0.1624665 0.1536588
vt 0.1624665 0.01201173
vt 0.1565974 0.229986
vt 0.1565973 0.154429
vt 0.203487 0.1544289
vt 0.2087143 0.01218519
vt 0.2094792 0.1508939
vt 0.203763 0.2257284
vt 0.1565973 0.154429
vt 0.1565974 0.229986
vt 0.203487 0.1544289
vt 0.203763 0.2257284
vt 0.1565973 0.154429
vt 0.1565974 0.229986
vt 0.203487 0.1544289
vt 0.203763 0.2257284

usemtl sn04_11_sn0413.JPG
usemap sn04_11_sn0413.JPG
f 3/3/3 1/1/1 2/2/2
f 6/6/6 4/4/4 5/5/5
f 9/9/9 7/7/7 8/8/8
f 7/7/7 9/9/9 10/10/10
f 13/13/13 11/11/11 12/12/12
f 11/11/11 13/13/13 14/14/14
f 17/17/17 15/15/15 16/16/16
f 18/18/18 15/15/15 17/17/17
f 21/21/21 19/19/19 20/20/20
f 19/19/19 21/21/21 22/22/22
f 25/25/25 23/23/23 24/24/24
f 23/23/23 25/25/25 26/26/26
f 29/29/29 27/27/27 28/28/28
f 27/27/27 29/29/29 30/30/30
f 33/33/33 31/31/31 32/32/32
f 35/35/35 6/6/6 34/34/34
f 14/14/14 33/33/33 11/11/11
f 31/31/31 33/33/33 14/14/14
f 14/14/14 13/13/13 36/36/36
f 38/38/38 31/31/31 37/37/37
f 31/31/31 39/39/39 32/32/32
f 31/31/31 38/38/38 39/39/39
f 4/4/4 6/6/6 35/35/35
f 2/2/2 1/1/1 35/35/35
f 1/1/1 3/3/3 40/40/40
f 41/41/41 1/1/1 40/40/40
f 44/44/44 42/42/42 43/43/43
f 4/4/4 1/1/1 41/41/41
f 1/1/1 4/4/4 35/35/35
f 5/5/5 4/4/4 41/41/41
f 44/44/44 10/10/10 42/42/42
f 10/10/10 44/44/44 7/7/7
f 47/47/47 45/45/45 46/46/46
f 45/45/45 47/47/47 48/48/48
f 51/51/51 49/49/49 50/50/50
f 52/52/52 49/49/49 51/51/51
f 55/55/55 53/53/53 54/54/54
f 58/58/58 56/56/56 57/57/57
f 60/60/60 55/55/55 59/59/59
f 61/61/61 56/56/56 58/58/58
f 64/64/64 62/62/62 63/63/63
f 65/65/65 64/64/64 63/63/63
f 68/68/68 66/66/66 67/67/67
f 69/69/69 68/68/68 67/67/67
