mtllib ./Object18.mtl
g Object18
v 95.33813 35.23599 3.350769
v 95.38867 35.24259 -2.256104
v 95.37073 35.24259 -2.256073
v -4.687988 32.03694 -2.191986
v -4.649139 32.03694 3.752625
v 95.33502 35.23599 3.688538
v 100.8302 37.69734 3.684692
v 95.40503 35.23599 3.688507
v 94.63925 29.67564 3.83374
v 99.29059 30.70344 3.882324
v 94.99399 29.68186 -1.995544
v -4.557556 26.25815 -2.23764
v -4.687988 32.03694 -2.191986
v 95.37073 35.24259 -2.256073
v 95.37021 35.14019 -2.255615
v 100.7914 37.70433 -2.259888
v 100.8302 37.69734 3.684692
v 99.29059 30.70344 3.882324
v 99.25174 30.71043 -2.062256
v -4.649139 32.03694 3.752625
v -4.687988 32.03694 -2.191986
v -115.3095 35.25486 -1.940491
v -115.5255 35.23019 3.863892
v -115.3095 35.25486 -1.940491
v -4.687988 32.03694 -2.191986
v -4.557556 26.25815 -2.23764
v -113.2775 29.9929 -1.858032
v -4.649139 32.03694 3.752625
v -115.5255 35.23019 3.863892
v -112.8948 30.22206 3.011719
v -4.518707 26.26515 3.70697
v 99.25174 30.71043 -2.062256
v 94.99399 29.68186 -1.995544
v 95.37021 35.14019 -2.255615
v 95.86041 35.22441 -2.256012
v 95.38867 35.24259 -2.256104
v 100.7914 37.70433 -2.259888
v 95.38867 35.24259 -2.256104
v 95.33502 35.23599 3.688538
v -4.649139 32.03694 3.752625
v -4.779572 26.25815 3.798248
v 94.63925 29.67564 3.83374
v 95.40503 35.23599 3.688507
v 100.8302 37.69734 3.684692
v 100.7914 37.70433 -2.259888
v -120.5515 37.72105 -2.184784
v -115.3095 35.25486 -1.940491
v -113.2775 29.9929 -1.858032
v -119.1692 30.55129 -2.08429
v -120.6405 37.72805 3.75946
v -120.5515 37.72105 -2.184784
v -119.1692 30.55129 -2.08429
v -119.2581 30.55829 3.859924
v -119.2581 30.55829 3.859924
v -112.8948 30.22206 3.011719
v -115.5255 35.23019 3.863892
v -120.6405 37.72805 3.75946
v -115.5255 35.23019 3.863892
v -115.3095 35.25486 -1.940491
v -120.5515 37.72105 -2.184784
v -120.6405 37.72805 3.75946
v 99.29059 30.70344 3.882324
v 94.63925 29.67564 3.83374
v 94.99399 29.68186 -1.995544
v 99.25174 30.71043 -2.062256
v -119.1692 30.55129 -2.08429
v -113.2775 29.9929 -1.858032
v -112.8948 30.22206 3.011719
v -119.2581 30.55829 3.859924
v 94.99399 29.68186 -1.995544
v 94.63925 29.67564 3.83374
v -4.779572 26.25815 3.798248
v -4.649139 32.03694 3.752625
v -4.518707 26.26515 3.70697
v -112.8948 30.22206 3.011719
v -113.2775 29.9929 -1.858032

vn -0.03199701 0.9994878 0.0005632913
vn -0.4111845 0.911552 0.0005297109
vn -0.03201488 0.999487 0.0009903234
vn -0.03199837 0.9994877 0.0005883339
vn -0.03197749 0.9994886 0.0001818787
vn -0.2301781 0.973148 0.0009747618
vn -0.01483515 0.03001962 0.9994392
vn -0.001777438 0.02633483 0.9996516
vn -0.01483515 0.03001962 0.9994392
vn -0.01753081 0.03209807 0.999331
vn 0.001518811 -0.0191108 -0.9998162
vn 0.002158414 0.007948765 -0.9999661
vn 0.001500553 -0.0189782 -0.9998188
vn -0.0004951677 -0.004469159 -0.9999899
vn 0.000817895 -0.04685163 -0.9989015
vn 0.9765548 -0.215167 -0.006635048
vn 0.9765548 -0.2151669 -0.006634911
vn 0.9765548 -0.215167 -0.006635048
vn 0.9765547 -0.2151671 -0.006635186
vn 0.02893655 0.999578 0.002534677
vn 0.0290767 0.9995771 -0.0001900204
vn 0.02893655 0.999578 0.002534677
vn 0.02879312 0.9995712 0.005318897
vn -0.003001528 -0.003921338 -0.9999878
vn -0.002044935 0.007853896 -0.999967
vn -0.003001528 -0.003921338 -0.9999878
vn -0.004083474 -0.01724518 -0.9998429
vn -0.005405533 -0.08437332 0.9964195
vn -0.003899456 -0.1697357 0.9854819
vn -0.005405533 -0.08437332 0.9964195
vn -0.006709138 -0.008061088 0.999945
vn 0.006794211 -0.03829817 -0.9992433
vn -0.004223572 -0.04730173 -0.9988717
vn -0.003235091 -0.04643752 -0.998916
vn 0.01384728 -0.03094191 -0.9994253
vn 0.0001243156 -0.001810028 -0.9999983
vn 0.01449819 -0.03038955 -0.9994329
vn -0.001698626 -0.04910405 -0.9987922
vn 0.0003886844 0.007885445 0.9999688
vn 0.000388633 0.007886019 0.9999688
vn -0.000415666 0.01686009 0.9998577
vn -0.001260375 0.02628397 0.9996538
vn 0.0004359197 0.0005890038 0.9999998
vn -0.4116837 0.9113221 0.002952956
vn -0.4146298 0.9099823 0.003779465
vn 0.04131561 -0.00335645 -0.9991404
vn 0.04788527 0.00283951 -0.9988489
vn 0.04131561 -0.00335645 -0.9991404
vn 0.03773689 -0.006730156 -0.999265
vn -0.9817756 -0.1894925 -0.0144698
vn -0.9817748 -0.1894965 -0.0144647
vn -0.9817756 -0.1894925 -0.0144698
vn -0.9817763 -0.1894885 -0.01447489
vn 0.05381636 -0.04384425 0.9975878
vn 0.1261642 -0.1016382 0.9867888
vn 0.05381636 -0.04384425 0.9975878
vn -0.01498222 0.01112116 0.999826
vn 0.4318358 0.9018647 0.01256229
vn 0.4248755 0.9050384 0.01965276
vn 0.4318358 0.9018647 0.01256229
vn 0.4387148 0.8986094 0.005505716
vn 0.2249102 -0.974367 0.004940691
vn 0.2156266 -0.9764011 0.01208029
vn 0.2249102 -0.974367 0.004940691
vn 0.234781 -0.9720446 -0.002678321
vn -0.07158829 -0.9971521 0.02371986
vn -0.09628157 -0.99387 0.05433497
vn -0.07158829 -0.9971521 0.02371986
vn -0.05271323 -0.9986097 0.0003861783
vn 0.0645374 -0.710455 0.7007771
vn 0.03435406 -0.9994092 0.001024543
vn 0.03435406 -0.9994092 0.001024543
vn 0.05743511 -0.006598825 0.9983274
vn 0.01700035 -0.6621295 0.7491966
vn -0.03676062 -0.9980797 0.04985562
vn -0.03676062 -0.9980797 0.04985562

vt 0.2041586 0.2256927
vt 0.203487 0.1544289
vt 0.2036252 0.1544289
vt 0.9936314 0.1544272
vt 0.9936314 0.2299843
vt 0.2041996 0.2299859
vt 0.8375335 0.1461709
vt 0.7904706 0.1461709
vt 0.7929962 0.005731496
vt 0.8375335 0.005731538
vt 0.2087143 0.01218519
vt 0.9995005 0.01515105
vt 0.9995005 0.1536581
vt 0.2094944 0.1536588
vt 0.2094792 0.1508939
vt 0.760462 0.2346222
vt 0.9208486 0.2442373
vt 0.9172436 0.1482436
vt 0.7663313 0.1545238
vt 0.9936314 0.1544272
vt 0.9936314 0.2299843
vt 0.1565974 0.229986
vt 0.1565973 0.154429
vt 0.8375335 0.1461709
vt 0.0004995167 0.1461702
vt 0.0004995167 0.005730763
vt 0.8418463 0.01830986
vt 0.9995005 0.1536581
vt 0.162265 0.1323179
vt 0.1624665 0.01201173
vt 0.9995005 0.01515105
vt 0.1624665 0.01201173
vt 0.205527 0.03681719
vt 0.2143695 0.1568034
vt 0.2093303 0.1531645
vt 0.2093562 0.1536588
vt 0.1624665 0.1536588
vt 0.2094885 0.1536586
vt 0.7899313 0.1461709
vt 0.0004995167 0.1461702
vt 0.0004995167 0.005730763
vt 0.7669011 0.00750646
vt 0.2036602 0.2299859
vt 0.1565974 0.229986
vt 0.1565973 0.154429
vt 0.8375335 0.1461709
vt 0.7904706 0.1461709
vt 0.7929962 0.005731496
vt 0.8375335 0.005731538
vt 0.760462 0.2346222
vt 0.9208486 0.2442373
vt 0.9172436 0.1482436
vt 0.7663313 0.1545238
vt 0.1624665 0.01201173
vt 0.2008657 0.04556409
vt 0.2093303 0.1531645
vt 0.1624665 0.1536588
vt 0.203487 0.1544289
vt 0.203763 0.2257284
vt 0.1565974 0.229986
vt 0.1565973 0.154429
vt 0.1565974 0.229986
vt 0.203763 0.2257284
vt 0.203487 0.1544289
vt 0.1565973 0.154429
vt 0.1565974 0.229986
vt 0.203763 0.2257284
vt 0.203487 0.1544289
vt 0.1565973 0.154429
vt 0.2087143 0.01218519
vt 0.203763 0.2257284
vt 0.0004995167 0.005730763
vt 0.0004995167 0.1461702
vt 0.9995005 0.01515105
vt 0.1624665 0.01201173
vt 0.203763 0.2257284

usemtl sn04_11_sn0413.JPG
usemap sn04_11_sn0413.JPG
f 3/3/3 1/1/1 2/2/2
f 4/4/4 1/1/1 3/3/3
f 5/5/5 1/1/1 4/4/4
f 6/6/6 1/1/1 5/5/5
f 9/9/9 7/7/7 8/8/8
f 7/7/7 9/9/9 10/10/10
f 13/13/13 11/11/11 12/12/12
f 15/15/15 13/13/13 14/14/14
f 15/15/15 11/11/11 13/13/13
f 18/18/18 16/16/16 17/17/17
f 16/16/16 18/18/18 19/19/19
f 22/22/22 20/20/20 21/21/21
f 20/20/20 22/22/22 23/23/23
f 26/26/26 24/24/24 25/25/25
f 24/24/24 26/26/26 27/27/27
f 30/30/30 28/28/28 29/29/29
f 28/28/28 30/30/30 31/31/31
f 34/34/34 32/32/32 33/33/33
f 35/35/35 32/32/32 34/34/34
f 37/37/37 35/35/35 36/36/36
f 37/37/37 32/32/32 35/35/35
f 35/35/35 14/14/14 38/38/38
f 14/14/14 35/35/35 15/15/15
f 41/41/41 39/39/39 40/40/40
f 8/8/8 41/41/41 42/42/42
f 8/8/8 39/39/39 41/41/41
f 44/44/44 6/6/6 43/43/43
f 2/2/2 44/44/44 45/45/45
f 2/2/2 6/6/6 44/44/44
f 2/2/2 1/1/1 6/6/6
f 48/48/48 46/46/46 47/47/47
f 46/46/46 48/48/48 49/49/49
f 52/52/52 50/50/50 51/51/51
f 50/50/50 52/52/52 53/53/53
f 56/56/56 54/54/54 55/55/55
f 54/54/54 56/56/56 57/57/57
f 60/60/60 58/58/58 59/59/59
f 58/58/58 60/60/60 61/61/61
f 64/64/64 62/62/62 63/63/63
f 62/62/62 64/64/64 65/65/65
f 68/68/68 66/66/66 67/67/67
f 66/66/66 68/68/68 69/69/69

usemtl sn04_-01_
usemap sn04_-01_
f 72/72/72 70/70/70 71/71/71
f 74/74/74 70/70/70 73/73/73
f 76/76/76 74/74/74 75/75/75
