mtllib ./Object34.mtl
g Object34
v 110.4547 4.924437 -74.96362
v 99.6546 4.924437 -74.96362
v 99.50244 5.361967 -43.08484
v 110.3025 5.361967 -43.08484
v 99.6546 4.924437 -74.96362
v 99.6546 -0.3719788 -74.96362
v 99.50244 0.06555176 -43.08484
v 99.50244 5.361967 -43.08484
v 230.3552 55.16088 -74.96362
v 220.9731 55.16088 -74.96362
v 220.8209 55.59841 -43.08484
v 230.2029 55.59841 -43.08484
v 220.9731 55.16088 -74.96362
v 220.9731 50.17595 -74.96362
v 220.8209 50.61348 -43.08484
v 220.8209 55.59841 -43.08484
v 220.9731 50.17595 -74.96362
v 209.3353 50.17595 -74.96362
v 209.183 50.61348 -43.08484
v 220.8209 50.61348 -43.08484
v 209.3353 50.17595 -74.96362
v 209.3353 44.9217 -74.96362
v 209.183 45.35923 -43.08484
v 209.183 50.61348 -43.08484
v 209.3353 44.9217 -74.96362
v 197.7828 44.9217 -74.96362
v 197.6306 45.35923 -43.08484
v 209.183 45.35923 -43.08484
v 197.7828 44.9217 -74.96362
v 197.7828 40.723 -74.96362
v 197.6306 41.16053 -43.08484
v 197.6306 45.35923 -43.08484
v 197.7828 40.723 -74.96362
v 186.4899 40.723 -74.96362
v 186.3377 41.16053 -43.08484
v 197.6306 41.16053 -43.08484
v 186.4899 40.723 -74.96362
v 186.4999 36.2041 -74.96362
v 186.3477 36.64163 -43.08484
v 186.3377 41.16053 -43.08484
v 186.4999 36.2041 -74.96362
v 175.022 36.2041 -74.96362
v 174.8697 36.64163 -43.08484
v 186.3477 36.64163 -43.08484
v 175.022 36.2041 -74.96362
v 175.022 32.3069 -74.96362
v 174.8697 32.74443 -43.08484
v 174.8697 36.64163 -43.08484
v 175.022 32.3069 -74.96362
v 164.9299 32.3069 -74.96362
v 164.7776 32.74443 -43.08484
v 174.8697 32.74443 -43.08484
v 164.9299 32.3069 -74.96362
v 164.9299 27.58497 -74.96362
v 164.7776 28.0225 -43.08484
v 164.7776 32.74443 -43.08484
v 164.9299 27.58497 -74.96362
v 154.623 27.58497 -74.96362
v 154.4708 28.0225 -43.08484
v 164.7776 28.0225 -43.08484
v 154.623 27.58497 -74.96362
v 154.623 23.14983 -74.96362
v 154.4708 23.58736 -43.08484
v 154.4708 28.0225 -43.08484
v 154.623 23.14983 -74.96362
v 143.9603 23.14983 -74.96362
v 143.808 23.58736 -43.08484
v 154.4708 23.58736 -43.08484
v 143.9603 23.14983 -74.96362
v 143.9603 18.61511 -74.96362
v 143.808 19.05264 -43.08484
v 143.808 23.58736 -43.08484
v 143.9603 18.61511 -74.96362
v 132.6098 18.61511 -74.96362
v 132.4576 19.05264 -43.08484
v 143.808 19.05264 -43.08484
v 132.6098 18.61511 -74.96362
v 132.6098 14.16951 -74.96362
v 132.4576 14.60704 -43.08484
v 132.4576 19.05264 -43.08484
v 132.6098 14.16951 -74.96362
v 120.9415 14.16951 -74.96362
v 120.7892 14.60704 -43.08484
v 132.4576 14.60704 -43.08484
v 120.9415 14.16951 -74.96362
v 120.9312 9.457685 -74.96362
v 120.779 9.895216 -43.08484
v 120.7892 14.60704 -43.08484
v 120.9312 9.457685 -74.96362
v 110.4652 9.457685 -74.96362
v 110.313 9.895216 -43.08484
v 120.779 9.895216 -43.08484
v 110.4652 9.457685 -74.96362
v 110.4547 4.924437 -74.96362
v 110.3025 5.361967 -43.08484
v 110.313 9.895216 -43.08484
v 230.2584 60.31783 -43.02344
v 230.5012 59.96923 -74.96362
v 230.2029 55.59841 -43.08484
v 230.3552 55.16088 -74.96362

vn 0 0.9999058 -0.01372352
vn 0 0.9999058 -0.01372352
vn 0 0.9999058 -0.01372352
vn 0 0.9999058 -0.01372352
vn -0.9999886 0 -0.004773047
vn -0.9999886 0 -0.004773047
vn -0.9999886 0 -0.004773047
vn -0.9999886 0 -0.004773047
vn 0 0.9999059 -0.01372353
vn 0 0.9999059 -0.01372353
vn 0 0.9999059 -0.01372353
vn 0 0.9999059 -0.01372353
vn -0.9999886 0 -0.00477496
vn -0.9999886 0 -0.00477496
vn -0.9999886 0 -0.00477496
vn -0.9999886 0 -0.004774961
vn 0 0.9999058 -0.01372353
vn 0 0.9999058 -0.01372353
vn 0 0.9999058 -0.01372353
vn 0 0.9999058 -0.01372353
vn -0.9999886 0 -0.004774961
vn -0.9999886 0 -0.004774961
vn -0.9999886 0 -0.004774961
vn -0.9999886 0 -0.004774961
vn 0 0.9999058 -0.01372352
vn 0 0.9999058 -0.01372352
vn 0 0.9999058 -0.01372352
vn 0 0.9999058 -0.01372352
vn -0.9999886 0 -0.00477496
vn -0.9999886 0 -0.00477496
vn -0.9999886 0 -0.00477496
vn -0.9999886 0 -0.00477496
vn 0 0.9999059 -0.01372352
vn 0 0.9999059 -0.01372353
vn 0 0.9999059 -0.01372352
vn 0 0.9999059 -0.01372352
vn -0.9999864 -0.00220155 -0.004744735
vn -0.9999864 -0.002201549 -0.004744735
vn -0.9999864 -0.00220155 -0.004744735
vn -0.9999864 -0.00220155 -0.004744734
vn 0 0.9999058 -0.01372352
vn 0 0.9999059 -0.01372353
vn 0 0.9999058 -0.01372352
vn 0 0.9999058 -0.01372352
vn -0.9999886 0 -0.004776875
vn -0.9999886 0 -0.004776876
vn -0.9999886 0 -0.004776875
vn -0.9999886 0 -0.004776875
vn 0 0.9999058 -0.01372353
vn 0 0.9999058 -0.01372353
vn 0 0.9999058 -0.01372353
vn 0 0.9999058 -0.01372352
vn -0.9999886 0 -0.004774961
vn -0.9999886 0 -0.004774961
vn -0.9999886 0 -0.004774961
vn -0.9999886 0 -0.004774961
vn 0 0.9999058 -0.01372353
vn 0 0.9999058 -0.01372353
vn 0 0.9999058 -0.01372353
vn 0 0.9999058 -0.01372352
vn -0.9999886 0 -0.004774961
vn -0.9999886 0 -0.004774961
vn -0.9999886 0 -0.004774961
vn -0.9999886 0 -0.004774961
vn 0 0.9999058 -0.01372352
vn 0 0.9999058 -0.01372353
vn 0 0.9999058 -0.01372352
vn 0 0.9999058 -0.01372352
vn -0.9999886 0 -0.004774961
vn -0.9999886 0 -0.004774961
vn -0.9999886 0 -0.004774961
vn -0.9999886 0 -0.004774961
vn 0 0.9999058 -0.01372353
vn 0 0.9999058 -0.01372353
vn 0 0.9999058 -0.01372353
vn 0 0.9999058 -0.01372352
vn -0.9999886 0 -0.004773046
vn -0.9999886 0 -0.004773046
vn -0.9999886 0 -0.004773046
vn -0.9999886 0 -0.004773046
vn 0 0.9999058 -0.01372353
vn 0 0.9999058 -0.01372353
vn 0 0.9999058 -0.01372353
vn 0 0.9999058 -0.01372353
vn -0.9999861 0.002176178 -0.004804817
vn -0.9999861 0.002176179 -0.004804817
vn -0.9999861 0.002176178 -0.004804817
vn -0.9999861 0.002176178 -0.004804817
vn 0 0.9999058 -0.01372353
vn 0 0.9999058 -0.01372353
vn 0 0.9999058 -0.01372353
vn 0 0.9999058 -0.01372353
vn -0.9999858 0.002322487 -0.004805865
vn -0.9999858 0.002329219 -0.004805
vn -0.9999858 0.002322487 -0.004805865
vn -0.9999858 0.002315755 -0.00480673
vn -0.9998999 0.01185525 -0.007728361
vn -0.9997548 0.02118267 -0.006448146
vn -0.9997548 0.02118267 -0.006448146
vn -0.9995259 0.03034864 -0.005189281

vt 0.8081489 1.607061
vt 0.8081489 1.82656
vt 0.160245 1.829653
vt 0.160245 1.610154
vt 0.1918511 -0.008890867
vt 0.1918511 -0.116535
vt 0.8397555 -0.1076427
vt 0.8397549 1.519918E-06
vt 0.8081483 -0.8297927
vt 0.8081483 -0.6391126
vt 0.1602444 -0.6360188
vt 0.1602444 -0.8266989
vt 0.1918517 1.012113
vt 0.1918517 0.9107993
vt 0.8397556 0.9196916
vt 0.8397556 1.021005
vt 0.8081483 -0.6391126
vt 0.8081484 -0.4025845
vt 0.1602445 -0.3994906
vt 0.1602444 -0.6360188
vt 0.1918516 0.9107993
vt 0.1918516 0.8040122
vt 0.8397555 0.8129045
vt 0.8397555 0.9196916
vt 0.8081484 -0.4025845
vt 0.8081484 -0.1677937
vt 0.1602445 -0.1646997
vt 0.1602445 -0.3994906
vt 0.1918516 0.8040122
vt 0.1918516 0.718678
vt 0.8397555 0.7275704
vt 0.8397555 0.8129045
vt 0.8081484 -0.1677937
vt 0.8081485 0.06172329
vt 0.1602446 0.06481719
vt 0.1602445 -0.1646997
vt 0.1918515 0.718678
vt 0.1918515 0.6268359
vt 0.8397554 0.6357283
vt 0.8397554 0.7275704
vt 0.8081485 0.06152046
vt 0.8081485 0.2947973
vt 0.1602446 0.2978919
vt 0.1602446 0.06461439
vt 0.1918515 0.6268359
vt 0.1918515 0.5476294
vt 0.8397554 0.5565218
vt 0.8397554 0.6357283
vt 0.8081485 0.2947973
vt 0.8081486 0.4999082
vt 0.1602447 0.5030021
vt 0.1602446 0.2978919
vt 0.1918514 0.5476294
vt 0.1918514 0.4516611
vt 0.8397553 0.4605534
vt 0.8397553 0.5565218
vt 0.8081486 0.4999082
vt 0.8081486 0.709384
vt 0.1602448 0.7124779
vt 0.1602447 0.5030021
vt 0.1918514 0.4516611
vt 0.1918514 0.3615214
vt 0.8397552 0.3704137
vt 0.8397552 0.4605534
vt 0.8081486 0.709384
vt 0.8081487 0.9260947
vt 0.1602448 0.9291885
vt 0.1602448 0.7124779
vt 0.1918513 0.3615214
vt 0.1918513 0.2693579
vt 0.8397552 0.2782502
vt 0.8397552 0.3704137
vt 0.8081487 0.9260947
vt 0.8081487 1.15678
vt 0.1602449 1.159873
vt 0.1602448 0.9291885
vt 0.1918513 0.2693579
vt 0.1918513 0.1790056
vt 0.8397551 0.187898
vt 0.8397551 0.2782502
vt 0.8081487 1.15678
vt 0.8081488 1.393928
vt 0.1602449 1.397021
vt 0.1602449 1.159873
vt 0.1918512 0.1790056
vt 0.1918512 0.08324274
vt 0.8397551 0.0921351
vt 0.8397551 0.187898
vt 0.8081488 1.394136
vt 0.8081489 1.606846
vt 0.160245 1.60994
vt 0.1602449 1.397229
vt 0.1918511 0.08324274
vt 0.1918511 -0.008890867
vt 0.839755 1.519918E-06
vt 0.839755 0.0921351
vt 0.8410041 1.116923
vt 0.1918518 1.109838
vt 0.8397557 1.021005
vt 0.1918518 1.012113

usemtl sn04_00_sn0404.JPG
usemap sn04_00_sn0404.JPG
f 3/3/3 1/1/1 2/2/2
f 4/4/4 1/1/1 3/3/3
f 7/7/7 5/5/5 6/6/6
f 8/8/8 5/5/5 7/7/7
f 11/11/11 9/9/9 10/10/10
f 12/12/12 9/9/9 11/11/11
f 15/15/15 13/13/13 14/14/14
f 16/16/16 13/13/13 15/15/15
f 19/19/19 17/17/17 18/18/18
f 20/20/20 17/17/17 19/19/19
f 23/23/23 21/21/21 22/22/22
f 24/24/24 21/21/21 23/23/23
f 27/27/27 25/25/25 26/26/26
f 28/28/28 25/25/25 27/27/27
f 31/31/31 29/29/29 30/30/30
f 32/32/32 29/29/29 31/31/31
f 35/35/35 33/33/33 34/34/34
f 36/36/36 33/33/33 35/35/35
f 39/39/39 37/37/37 38/38/38
f 40/40/40 37/37/37 39/39/39
f 43/43/43 41/41/41 42/42/42
f 44/44/44 41/41/41 43/43/43
f 47/47/47 45/45/45 46/46/46
f 48/48/48 45/45/45 47/47/47
f 51/51/51 49/49/49 50/50/50
f 52/52/52 49/49/49 51/51/51
f 55/55/55 53/53/53 54/54/54
f 56/56/56 53/53/53 55/55/55
f 59/59/59 57/57/57 58/58/58
f 60/60/60 57/57/57 59/59/59
f 63/63/63 61/61/61 62/62/62
f 64/64/64 61/61/61 63/63/63
f 67/67/67 65/65/65 66/66/66
f 68/68/68 65/65/65 67/67/67
f 71/71/71 69/69/69 70/70/70
f 72/72/72 69/69/69 71/71/71
f 75/75/75 73/73/73 74/74/74
f 76/76/76 73/73/73 75/75/75
f 79/79/79 77/77/77 78/78/78
f 80/80/80 77/77/77 79/79/79
f 83/83/83 81/81/81 82/82/82
f 84/84/84 81/81/81 83/83/83
f 87/87/87 85/85/85 86/86/86
f 88/88/88 85/85/85 87/87/87
f 91/91/91 89/89/89 90/90/90
f 92/92/92 89/89/89 91/91/91
f 95/95/95 93/93/93 94/94/94
f 96/96/96 93/93/93 95/95/95
f 99/99/99 97/97/97 98/98/98
f 98/98/98 100/100/100 99/99/99
