mtllib ./peng02.mtl
g peng02
v 47.52364 -2.467376 20.45834
v 51.25874 19.35953 -21.60767
v -11.83892 -0.441097 22.90066
v -10.40665 15.34795 -25.74859
v -60.51357 2.818105 15.76242
v -67.81116 26.66488 -27.69592
v 48.70349 -8.883524 65.91516
v -11.14404 -8.161289 61.34802
v -70.51894 7.05506 59.61745
v 40.01492 -62.67035 51.68299
v 46.66367 -4.818582 61.86056
v 45.19516 -5.113865 60.94368
v 41.48343 -62.37506 52.59987
v 46.76216 -5.440248 60.22098
v 41.58194 -62.99671 50.9603
v 46.20699 -5.124239 61.00841
v -64.54472 -65.18223 58.78017
v -63.38689 9.589063 55.90598
v -64.56039 9.347759 54.62182
v -63.37119 -64.94092 60.0643
v -62.87018 8.95443 54.35209
v -62.85449 -65.57557 58.51043
v -63.60583 9.297084 54.95996
v 43.70295 -64.74916 -21.0982
v 42.25988 -19.33699 -14.66623
v 40.79137 -19.63228 -15.58311
v 45.17146 -64.45387 -20.18133
v 42.35839 -19.95866 -16.30581
v 45.26997 -65.07555 -21.8209
v 46.45506 23.57129 -17.152
v 44.98655 23.27601 -18.06886
v 46.55357 22.94962 -18.79157
v 45.99839 23.26563 -18.00414
v -63.83401 -66.48122 -8.381387
v -64.40414 -15.70999 -12.9517
v -65.57764 -15.9513 -14.23582
v -62.66048 -66.23988 -7.097242
v -63.88741 -16.34464 -14.50559
v -62.14378 -66.87453 -8.651137
v -63.40031 26.93322 -22.83857
v -64.57381 26.6919 -24.12273
v -62.88358 26.29858 -24.39248
v -63.61922 26.64123 -23.7846
v 51.25874 19.35953 -21.60767
v 47.52364 -2.467376 20.45834
v -11.80088 -2.593525 22.95288
v -10.40665 15.34795 -25.74859
v -60.51357 2.818105 15.76242
v -67.81116 26.66488 -27.69592
v 48.70349 -8.883524 65.91516
v -11.14404 -8.161289 61.34802
v -70.51894 7.05506 59.61745

vn 0.05588773 0.953291 0.2968383
vn 0.007036764 0.9146398 0.4042087
vn 0.07517387 0.9597253 0.2706958
vn 0.05442052 0.923286 0.3802386
vn 0.1152096 0.9539469 0.2769692
vn 0.1860137 0.8624724 0.4706807
vn 0.02331468 0.9863334 0.1631038
vn 0.11325 0.9744282 0.1940724
vn 0.1830684 0.9799298 0.07888944
vn -0.8682915 0.007680229 0.4959948
vn -0.03982555 -0.1668956 0.9851699
vn -0.7827271 0.2058603 -0.5873327
vn 0.7861428 -0.1964475 0.5859931
vn 0.8668071 0.002992014 -0.4986345
vn 0.04002622 0.1755432 -0.9836578
vn 0.03947069 0.94276 -0.3311279
vn -0.9680727 0.02400528 0.2495177
vn -0.3030215 0.04293795 0.9520159
vn -0.6676554 -0.004957533 -0.7444539
vn 0.669655 0.01266457 0.7425644
vn 0.9677064 -0.01642523 -0.2515445
vn 0.3036431 -0.0354785 -0.9521251
vn 0.1726642 0.935648 -0.3078146
vn -0.8451229 -0.1135703 0.5223687
vn 0.428882 -0.1279136 0.8942586
vn -0.9940494 0.09605653 -0.05136985
vn 0.8289778 -0.0469696 0.5573056
vn 0.4960189 0.04061133 -0.8673615
vn 0.03937455 0.1479935 -0.9882042
vn -0.03378364 0.05383863 0.9979779
vn -0.8197651 0.08623517 -0.5661701
vn 0.8768508 -0.1041625 -0.469343
vn 0.03947163 0.9427589 -0.331131
vn -0.9670053 0.004446231 0.2547178
vn 0.1829958 0.1163139 0.9762088
vn -0.9492185 -0.003009792 -0.3146034
vn 0.6850089 0.07899649 0.724239
vn 0.7463039 -0.1118421 -0.6561417
vn 0.2996174 -0.08053225 -0.9506545
vn -0.2834885 0.2174621 0.9339939
vn -0.6911039 -0.1102863 -0.7142915
vn 0.9690166 -0.06989241 -0.2369005
vn 0.1726577 0.9356486 -0.3078163
vn 0.008862715 -0.9066441 -0.4218033
vn -0.03286356 -0.9589238 -0.2817537
vn -0.07517385 -0.9597252 -0.2706958
vn -0.06391533 -0.912589 -0.4038518
vn -0.1395429 -0.9463114 -0.2915861
vn -0.1860137 -0.8624724 -0.4706807
vn -0.02331468 -0.9863334 -0.1631038
vn -0.1016152 -0.9816428 -0.1614054
vn -0.2033216 -0.9775695 -0.05493876

vt 0.5078476 0.7524164
vt 0.5078476 0.5090564
vt 0.7463768 0.7524164
vt 0.7463768 0.5090564
vt 0.9897367 0.7524164
vt 0.9897367 0.5090564
vt 0.5078476 0.9957764
vt 0.7463768 0.9957764
vt 0.9897367 0.9957764
vt 0.4396902 0.006145984
vt 0.4805988 0.6468434
vt 0.4602631 0.6468434
vt 0.5150787 0.006145984
vt 0.4762776 0.6468434
vt 0.4697444 0.006145984
vt 0.4723593 0.6468434
vt 0.4396902 0.002440667
vt 0.4805988 0.6431381
vt 0.4602631 0.6431381
vt 0.5150787 0.002440667
vt 0.4762776 0.6431381
vt 0.4697444 0.002440667
vt 0.4723593 0.6431381
vt 0.4858322 0.0004995167
vt 0.5150787 0.358803
vt 0.4396902 0.358803
vt 0.4639978 0.0004995167
vt 0.4697444 0.358803
vt 0.4705966 0.0004995167
vt 0.4805988 0.9995005
vt 0.4602631 0.9995005
vt 0.4762776 0.9995005
vt 0.4723593 0.9995005
vt 0.4858322 0.0004995167
vt 0.5150787 0.358803
vt 0.4396902 0.358803
vt 0.4639978 0.0004995167
vt 0.4697444 0.358803
vt 0.4705966 0.0004995167
vt 0.4805988 0.9995005
vt 0.4602631 0.9995005
vt 0.4762776 0.9995005
vt 0.4723593 0.9995005
vt 0.9995005 0.06549159
vt 0.968996 0.5144055
vt 0.4829846 0.5421971
vt 0.4936207 0.0212931
vt 0.08268049 0.4643815
vt 0.02259633 0.0004995167
vt 0.9787121 0.9995005
vt 0.487715 0.9507525
vt 0.0004995167 0.9322706

usemtl sn04_39_lho01.JPG
usemap sn04_39_lho01.JPG
f 3/3/3 1/1/1 2/2/2
f 2/2/2 4/4/4 3/3/3
f 5/5/5 3/3/3 4/4/4
f 4/4/4 6/6/6 5/5/5
f 8/8/8 7/7/7 1/1/1
f 1/1/1 3/3/3 8/8/8
f 9/9/9 8/8/8 3/3/3
f 3/3/3 5/5/5 9/9/9
f 12/12/12 10/10/10 11/11/11
f 11/11/11 10/10/10 13/13/13
f 11/11/11 13/13/13 14/14/14
f 14/14/14 13/13/13 15/15/15
f 14/14/14 15/15/15 12/12/12
f 12/12/12 15/15/15 10/10/10
f 11/11/11 16/16/16 12/12/12
f 14/14/14 16/16/16 11/11/11
f 12/12/12 16/16/16 14/14/14
f 19/19/19 17/17/17 18/18/18
f 18/18/18 17/17/17 20/20/20
f 18/18/18 20/20/20 21/21/21
f 21/21/21 20/20/20 22/22/22
f 21/21/21 22/22/22 19/19/19
f 19/19/19 22/22/22 17/17/17
f 18/18/18 23/23/23 19/19/19
f 21/21/21 23/23/23 18/18/18
f 19/19/19 23/23/23 21/21/21
f 26/26/26 24/24/24 25/25/25
f 25/25/25 24/24/24 27/27/27
f 25/25/25 27/27/27 28/28/28
f 28/28/28 27/27/27 29/29/29
f 28/28/28 29/29/29 26/26/26
f 26/26/26 29/29/29 24/24/24
f 31/31/31 26/26/26 30/30/30
f 30/30/30 26/26/26 25/25/25
f 30/30/30 25/25/25 32/32/32
f 32/32/32 25/25/25 28/28/28
f 32/32/32 28/28/28 31/31/31
f 31/31/31 28/28/28 26/26/26
f 30/30/30 33/33/33 31/31/31
f 32/32/32 33/33/33 30/30/30
f 31/31/31 33/33/33 32/32/32
f 36/36/36 34/34/34 35/35/35
f 35/35/35 34/34/34 37/37/37
f 35/35/35 37/37/37 38/38/38
f 38/38/38 37/37/37 39/39/39
f 38/38/38 39/39/39 36/36/36
f 36/36/36 39/39/39 34/34/34
f 41/41/41 36/36/36 40/40/40
f 40/40/40 36/36/36 35/35/35
f 40/40/40 35/35/35 42/42/42
f 42/42/42 35/35/35 38/38/38
f 42/42/42 38/38/38 41/41/41
f 41/41/41 38/38/38 36/36/36
f 40/40/40 43/43/43 41/41/41
f 42/42/42 43/43/43 40/40/40
f 41/41/41 43/43/43 42/42/42

usemtl sn04_40_B1gsc08.JPG
usemap sn04_40_B1gsc08.JPG
f 46/46/46 44/44/44 45/45/45
f 44/44/44 46/46/46 47/47/47
f 48/48/48 47/47/47 46/46/46
f 47/47/47 48/48/48 49/49/49
f 51/51/51 45/45/45 50/50/50
f 45/45/45 51/51/51 46/46/46
f 52/52/52 46/46/46 51/51/51
f 46/46/46 52/52/52 48/48/48
