mtllib ./Plane01.mtl
g Plane01
v 9631.178 -4287.402 -6945.317
v 9631.178 -3643.687 -5538.958
v 7599.767 -2334.628 -5538.958
v 7599.767 -3228.107 -6945.317
v 4815.589 -1388.546 -5538.958
v 4815.59 -2637.396 -6945.316
v 2407.795 -1070.542 -5538.958
v 2407.797 -2570.759 -6945.316
v 0.0004787445 -952.4988 -5538.958
v 0.001052856 -2600.24 -6945.316
v -2407.794 -1070.542 -5538.958
v -2407.793 -2570.759 -6945.316
v -4815.589 -1388.546 -5538.958
v -4815.588 -2637.396 -6945.316
v -7599.768 -2334.628 -5538.958
v -7599.765 -3228.107 -6945.317
v -9631.179 -3643.687 -5538.958
v -9631.178 -4287.402 -6945.317
v 9631.178 -2999.971 -3472.658
v 7599.767 -1690.912 -3472.658
v 4815.589 -744.8303 -3472.658
v 2407.795 -426.8259 -3472.658
v 0.0004787445 -308.783 -3472.658
v -2407.794 -426.8259 -3472.658
v -4815.589 -744.8303 -3472.658
v -7599.768 -1690.912 -3472.658
v -9631.179 -2999.971 -3472.658
v 9631.178 -2745.816 -1736.328
v 7599.768 -1436.757 -1736.328
v 4815.59 -490.6755 -1736.328
v 2407.795 -172.6709 -1736.328
v 0.0004787445 -54.62817 -1736.328
v -2407.794 -172.6709 -1736.328
v -4815.589 -490.6755 -1736.328
v -7599.768 -1436.757 -1736.328
v -9631.179 -2745.816 -1736.328
v 9631.18 -2691.188 0.0004730225
v 7599.768 -1382.129 0.0004425049
v 4815.59 -436.0474 0.0004272461
v 2407.795 -118.0427 0.0004272461
v 0.0004787445 0 0.0004272461
v -2407.794 -118.0427 0.0004272461
v -4815.589 -436.0474 0.0004272461
v -7599.768 -1382.129 0.0004425049
v -9631.179 -2691.188 0.0004730225
v 9631.18 -2745.816 1736.33
v 7599.768 -1436.757 1736.329
v 4815.59 -490.6755 1736.329
v 2407.795 -172.6709 1736.329
v 0.0004787445 -54.62817 1736.329
v -2407.794 -172.6709 1736.329
v -4815.589 -490.6755 1736.329
v -7599.768 -1436.757 1736.329
v -9631.179 -2745.816 1736.33
v 9631.18 -2999.971 3472.66
v 7599.768 -1690.912 3472.66
v 4815.589 -744.8303 3472.659
v 2407.795 -426.8257 3472.658
v 0.0004787445 -308.783 3472.658
v -2407.794 -426.8257 3472.658
v -4815.589 -744.8303 3472.659
v -7599.768 -1690.912 3472.66
v -9631.179 -2999.971 3472.66
v 9631.178 -3643.687 5538.959
v 7599.768 -2334.628 5538.958
v 4815.59 -1388.546 5538.958
v 2407.795 -1070.542 5538.957
v 0.0004787445 -952.4988 5538.957
v -2407.794 -1070.542 5538.957
v -4815.589 -1388.546 5538.958
v -7599.768 -2334.628 5538.958
v -9631.179 -3643.687 5538.959
v 9631.178 -4287.402 6945.319
v 7599.767 -3228.106 6945.319
v 4815.59 -2637.396 6945.319
v 2407.796 -2570.758 6945.317
v 0.001052856 -2600.24 6945.315
v -2407.793 -2570.758 6945.317
v -4815.588 -2637.396 6945.319
v -7599.765 -3228.106 6945.319
v -9631.178 -4287.402 6945.319

vn -0.4554041 -0.7812284 0.4269535
vn -0.5198166 -0.8066568 0.2812394
vn -0.3802869 -0.8543573 0.3541968
vn -0.2662177 -0.7793236 0.5672588
vn -0.1905463 -0.8727472 0.449449
vn -0.09289262 -0.7238024 0.6837258
vn -0.06336589 -0.8583163 0.5091935
vn -0.01443903 -0.6720322 0.7403812
vn 0.009556912 -0.8400534 0.5424194
vn 0.01079357 -0.6604888 0.7507583
vn 0.07160632 -0.843335 0.5325962
vn 0.03462206 -0.7041575 0.7091991
vn 0.2024292 -0.8542295 0.4788679
vn 0.1550923 -0.7714962 0.6170413
vn 0.3800499 -0.8303784 0.4074725
vn 0.3498205 -0.8094524 0.4716063
vn 0.485909 -0.7979218 0.3566697
vn 0.4284293 -0.8215998 0.3760612
vn -0.5335869 -0.8280254 0.1722177
vn -0.4182106 -0.8848825 0.2051411
vn -0.2331428 -0.9459982 0.2252371
vn -0.08894086 -0.969381 0.2288887
vn -0.001380107 -0.9732372 0.2297992
vn 0.08663 -0.9695792 0.2289355
vn 0.2279766 -0.9480284 0.2219655
vn 0.4112521 -0.8862777 0.2130342
vn 0.5289403 -0.8208152 0.2156028
vn -0.5407512 -0.8391429 0.05854398
vn -0.4228216 -0.902886 0.0775801
vn -0.2356536 -0.9678984 0.0874078
vn -0.08982863 -0.9920432 0.08821086
vn -1.489081E-08 -0.9960701 0.08856891
vn 0.08982863 -0.9920431 0.08821087
vn 0.235708 -0.9681222 0.08473967
vn 0.4226382 -0.9024945 0.08295023
vn 0.5394587 -0.8371376 0.09046985
vn -0.5416589 -0.8405522 -0.008814913
vn -0.4240992 -0.9056145 -0.001484541
vn -0.2365589 -0.9716168 0.0007386821
vn -0.09018017 -0.9959254 -1.240721E-09
vn 0 -1 0
vn 0.09018017 -0.9959254 0
vn 0.2365589 -0.9716168 -0.000738681
vn 0.4240993 -0.9056146 0.00148463
vn 0.541659 -0.8405522 0.008815115
vn -0.5394586 -0.8371377 -0.09046984
vn -0.422638 -0.9024944 -0.08295023
vn -0.2357081 -0.9681224 -0.0847397
vn -0.08982863 -0.9920432 -0.08821084
vn 1.240901E-09 -0.9960701 -0.0885689
vn 0.08982862 -0.9920432 -0.08821082
vn 0.2356536 -0.9678984 -0.08740773
vn 0.4228215 -0.9028862 -0.07758003
vn 0.540751 -0.839143 -0.0585438
vn -0.5289403 -0.8208151 -0.215603
vn -0.411252 -0.8862777 -0.2130342
vn -0.2279766 -0.9480284 -0.2219655
vn -0.08662999 -0.9695792 -0.2289355
vn 0.0013801 -0.973237 -0.2297992
vn 0.08894084 -0.969381 -0.2288887
vn 0.2331427 -0.9459983 -0.2252372
vn 0.4182105 -0.8848826 -0.205141
vn 0.5335867 -0.8280256 -0.1722177
vn -0.4859094 -0.7979217 -0.3566693
vn -0.38005 -0.8303785 -0.4074722
vn -0.202429 -0.8542296 -0.4788676
vn -0.07160612 -0.843335 -0.5325961
vn -0.009557047 -0.8400535 -0.5424194
vn 0.06336574 -0.8583164 -0.5091932
vn 0.1905462 -0.8727472 -0.4494489
vn 0.3802868 -0.8543572 -0.354197
vn 0.5198165 -0.8066568 -0.2812395
vn -0.42843 -0.8215998 -0.3760606
vn -0.3498209 -0.8094527 -0.4716055
vn -0.1550923 -0.7714967 -0.6170406
vn -0.03462168 -0.7041581 -0.7091987
vn -0.01079358 -0.6604889 -0.7507582
vn 0.01443859 -0.6720325 -0.7403808
vn 0.09289251 -0.723803 -0.6837254
vn 0.2662177 -0.7793239 -0.5672587
vn 0.4554038 -0.7812284 -0.4269537

vt 0.9968035 1.002413
vt 0.8962056 1.002413
vt 0.8962056 0.8964437
vt 0.9968035 0.8964437
vt 0.8962057 0.7512064
vt 0.9968035 0.7512065
vt 0.8962058 0.6256033
vt 0.9968036 0.6256033
vt 0.8962058 0.5000001
vt 0.9968037 0.5000001
vt 0.8962059 0.3743969
vt 0.9968038 0.374397
vt 0.8962059 0.2487938
vt 0.9968039 0.2487939
vt 0.896206 0.1035565
vt 0.996804 0.1035566
vt 0.8962061 -0.002412558
vt 0.996804 -0.002412438
vt 0.7484016 1.002413
vt 0.7484017 0.8964436
vt 0.7484018 0.7512064
vt 0.7484018 0.6256033
vt 0.7484019 0.5000001
vt 0.7484019 0.3743969
vt 0.748402 0.2487938
vt 0.7484021 0.1035565
vt 0.7484021 -0.002412558
vt 0.6242007 1.002413
vt 0.6242008 0.8964437
vt 0.6242008 0.7512064
vt 0.6242009 0.6256032
vt 0.6242009 0.5000001
vt 0.624201 0.3743969
vt 0.6242011 0.2487938
vt 0.6242011 0.1035565
vt 0.6242012 -0.002412558
vt 0.4999998 1.002413
vt 0.4999999 0.8964436
vt 0.4999999 0.7512064
vt 0.5 0.6256032
vt 0.5000001 0.5000001
vt 0.5000001 0.3743969
vt 0.5000002 0.2487937
vt 0.5000002 0.1035565
vt 0.5000003 -0.002412617
vt 0.3757989 1.002413
vt 0.3757989 0.8964436
vt 0.375799 0.7512063
vt 0.3757991 0.6256032
vt 0.3757991 0.5
vt 0.3757992 0.3743969
vt 0.3757993 0.2487937
vt 0.3757994 0.1035564
vt 0.3757994 -0.002412617
vt 0.2515979 1.002413
vt 0.2515979 0.8964436
vt 0.2515981 0.7512063
vt 0.2515982 0.6256032
vt 0.2515982 0.5
vt 0.2515983 0.3743969
vt 0.2515983 0.2487937
vt 0.2515984 0.1035564
vt 0.2515984 -0.002412617
vt 0.103794 1.002413
vt 0.1037941 0.8964436
vt 0.1037942 0.7512063
vt 0.1037943 0.6256031
vt 0.1037943 0.5
vt 0.1037944 0.3743968
vt 0.1037944 0.2487937
vt 0.1037945 0.1035564
vt 0.1037945 -0.002412617
vt 0.003195971 1.002413
vt 0.003196031 0.8964436
vt 0.00319612 0.7512063
vt 0.003196299 0.6256032
vt 0.003196478 0.5
vt 0.003196418 0.3743969
vt 0.003196359 0.2487937
vt 0.003196418 0.1035565
vt 0.003196478 -0.002412617

usemtl sn04_43_sn4sky.jpg
usemap sn04_43_sn4sky.jpg
f 3/3/3 1/1/1 2/2/2
f 1/1/1 3/3/3 4/4/4
f 5/5/5 4/4/4 3/3/3
f 4/4/4 5/5/5 6/6/6
f 7/7/7 6/6/6 5/5/5
f 6/6/6 7/7/7 8/8/8
f 9/9/9 8/8/8 7/7/7
f 8/8/8 9/9/9 10/10/10
f 11/11/11 10/10/10 9/9/9
f 10/10/10 11/11/11 12/12/12
f 13/13/13 12/12/12 11/11/11
f 12/12/12 13/13/13 14/14/14
f 15/15/15 14/14/14 13/13/13
f 14/14/14 15/15/15 16/16/16
f 17/17/17 16/16/16 15/15/15
f 16/16/16 17/17/17 18/18/18
f 20/20/20 2/2/2 19/19/19
f 2/2/2 20/20/20 3/3/3
f 21/21/21 3/3/3 20/20/20
f 3/3/3 21/21/21 5/5/5
f 22/22/22 5/5/5 21/21/21
f 5/5/5 22/22/22 7/7/7
f 23/23/23 7/7/7 22/22/22
f 7/7/7 23/23/23 9/9/9
f 24/24/24 9/9/9 23/23/23
f 9/9/9 24/24/24 11/11/11
f 25/25/25 11/11/11 24/24/24
f 11/11/11 25/25/25 13/13/13
f 26/26/26 13/13/13 25/25/25
f 13/13/13 26/26/26 15/15/15
f 27/27/27 15/15/15 26/26/26
f 15/15/15 27/27/27 17/17/17
f 29/29/29 19/19/19 28/28/28
f 19/19/19 29/29/29 20/20/20
f 30/30/30 20/20/20 29/29/29
f 20/20/20 30/30/30 21/21/21
f 31/31/31 21/21/21 30/30/30
f 21/21/21 31/31/31 22/22/22
f 32/32/32 22/22/22 31/31/31
f 22/22/22 32/32/32 23/23/23
f 33/33/33 23/23/23 32/32/32
f 23/23/23 33/33/33 24/24/24
f 34/34/34 24/24/24 33/33/33
f 24/24/24 34/34/34 25/25/25
f 35/35/35 25/25/25 34/34/34
f 25/25/25 35/35/35 26/26/26
f 36/36/36 26/26/26 35/35/35
f 26/26/26 36/36/36 27/27/27
f 38/38/38 28/28/28 37/37/37
f 28/28/28 38/38/38 29/29/29
f 39/39/39 29/29/29 38/38/38
f 29/29/29 39/39/39 30/30/30
f 40/40/40 30/30/30 39/39/39
f 30/30/30 40/40/40 31/31/31
f 41/41/41 31/31/31 40/40/40
f 31/31/31 41/41/41 32/32/32
f 42/42/42 32/32/32 41/41/41
f 32/32/32 42/42/42 33/33/33
f 43/43/43 33/33/33 42/42/42
f 33/33/33 43/43/43 34/34/34
f 44/44/44 34/34/34 43/43/43
f 34/34/34 44/44/44 35/35/35
f 45/45/45 35/35/35 44/44/44
f 35/35/35 45/45/45 36/36/36
f 47/47/47 37/37/37 46/46/46
f 37/37/37 47/47/47 38/38/38
f 48/48/48 38/38/38 47/47/47
f 38/38/38 48/48/48 39/39/39
f 49/49/49 39/39/39 48/48/48
f 39/39/39 49/49/49 40/40/40
f 50/50/50 40/40/40 49/49/49
f 40/40/40 50/50/50 41/41/41
f 51/51/51 41/41/41 50/50/50
f 41/41/41 51/51/51 42/42/42
f 52/52/52 42/42/42 51/51/51
f 42/42/42 52/52/52 43/43/43
f 53/53/53 43/43/43 52/52/52
f 43/43/43 53/53/53 44/44/44
f 54/54/54 44/44/44 53/53/53
f 44/44/44 54/54/54 45/45/45
f 56/56/56 46/46/46 55/55/55
f 46/46/46 56/56/56 47/47/47
f 57/57/57 47/47/47 56/56/56
f 47/47/47 57/57/57 48/48/48
f 58/58/58 48/48/48 57/57/57
f 48/48/48 58/58/58 49/49/49
f 59/59/59 49/49/49 58/58/58
f 49/49/49 59/59/59 50/50/50
f 60/60/60 50/50/50 59/59/59
f 50/50/50 60/60/60 51/51/51
f 61/61/61 51/51/51 60/60/60
f 51/51/51 61/61/61 52/52/52
f 62/62/62 52/52/52 61/61/61
f 52/52/52 62/62/62 53/53/53
f 63/63/63 53/53/53 62/62/62
f 53/53/53 63/63/63 54/54/54
f 65/65/65 55/55/55 64/64/64
f 55/55/55 65/65/65 56/56/56
f 66/66/66 56/56/56 65/65/65
f 56/56/56 66/66/66 57/57/57
f 67/67/67 57/57/57 66/66/66
f 57/57/57 67/67/67 58/58/58
f 68/68/68 58/58/58 67/67/67
f 58/58/58 68/68/68 59/59/59
f 69/69/69 59/59/59 68/68/68
f 59/59/59 69/69/69 60/60/60
f 70/70/70 60/60/60 69/69/69
f 60/60/60 70/70/70 61/61/61
f 71/71/71 61/61/61 70/70/70
f 61/61/61 71/71/71 62/62/62
f 72/72/72 62/62/62 71/71/71
f 62/62/62 72/72/72 63/63/63
f 74/74/74 64/64/64 73/73/73
f 64/64/64 74/74/74 65/65/65
f 75/75/75 65/65/65 74/74/74
f 65/65/65 75/75/75 66/66/66
f 76/76/76 66/66/66 75/75/75
f 66/66/66 76/76/76 67/67/67
f 77/77/77 67/67/67 76/76/76
f 67/67/67 77/77/77 68/68/68
f 78/78/78 68/68/68 77/77/77
f 68/68/68 78/78/78 69/69/69
f 79/79/79 69/69/69 78/78/78
f 69/69/69 79/79/79 70/70/70
f 80/80/80 70/70/70 79/79/79
f 70/70/70 80/80/80 71/71/71
f 81/81/81 71/71/71 80/80/80
f 71/71/71 81/81/81 72/72/72
