mtllib ./shizi05.mtl
g shizi05
v -5.507141 -1.6278 4.981777
v -7.49704 -2.012589 0.0003433228
v -7.736511 -4.666447 0.0003433228
v -5.49057 -4.421898 5.745556
v -5.507141 -1.6278 -4.981087
v -5.49057 -4.421898 -5.744862
v -5.828888 -7.059158 -6.514568
v -7.763489 -7.059826 0.0003395081
v -5.828888 -7.059158 6.515259
v 7.614471 0.6809158 4.459435
v 0.4625549 -0.4734421 5.54958
v 1.247192 -3.688251 6.11676
v 10.07675 -2.954601 4.405762
v -5.507141 -1.6278 4.981777
v -5.49057 -4.421898 5.745556
v -5.828888 -7.059158 6.515259
v 1.633087 -7.057144 6.632935
v 11.18692 -7.05513 4.516491
v 7.614471 0.6809158 -3.59959
v 9.604401 1.065701 0.4299164
v 11.28708 -2.710052 0.5156212
v 10.07675 -2.954601 -4.037949
v 7.614471 0.6809158 4.459435
v 10.07675 -2.954601 4.405762
v 11.18692 -7.05513 4.516491
v 12.63864 -7.054462 0.515625
v 11.18692 -7.05513 -4.14867
v -5.507141 -1.6278 -4.981087
v 0.4625549 -0.4734421 -5.548878
v 1.247192 -3.688251 -6.116062
v -5.49057 -4.421898 -5.744862
v 7.614471 0.6809158 -3.59959
v 10.07675 -2.954601 -4.037949
v 11.18692 -7.05513 -4.14867
v 1.633087 -7.057144 -6.63224
v -5.828888 -7.059158 -6.514568
v -7.347198 4.416286 3.393223
v -8.88205 4.244118 0.0003433228
v -7.93811 1.162235 0.0003395081
v -6.233459 1.479977 4.412159
v -7.347198 4.416286 -3.392536
v -6.233459 1.479977 -4.41148
v 1.862061 5.449306 3.416191
v -2.742554 4.932796 4.333866
v -1.119507 2.433197 4.880394
v 3.994446 3.386417 3.674282
v -7.347198 4.416286 3.393223
v -6.233459 1.479977 4.412159
v 1.862061 5.449306 -3.415493
v 3.396942 5.621475 0.0003471375
v 5.699097 3.704155 0.0003471375
v 3.994446 3.386417 -3.673588
v 1.862061 5.449306 3.416191
v 3.994446 3.386417 3.674282
v -7.347198 4.416286 -3.392536
v -2.742554 4.932796 -4.333164
v -1.119507 2.433197 -4.879692
v -6.233459 1.479977 -4.41148
v 1.862061 5.449306 -3.415493
v 3.994446 3.386417 -3.673588
v -8.927734 8.772049 2.473324
v -10.60345 8.760044 0.0003471375
v -9.561798 6.619148 -0.05598831
v -8.525909 6.695984 2.685867
v -8.927734 8.772049 -2.472626
v -8.525909 6.695984 -2.685173
v 1.126526 8.84409 3.730804
v -3.900604 8.808071 4.135963
v -3.650085 6.926487 4.134651
v 1.225739 7.15699 3.516285
v -8.927734 8.772049 2.473324
v -8.525909 6.695984 2.685867
v 1.126495 8.84409 -3.730099
v 2.802216 8.856098 0.0003471375
v 2.850983 7.233826 0.0003471375
v 1.225739 7.15699 -3.515591
v 1.126526 8.84409 3.730804
v 1.225739 7.15699 3.516285
v -8.927734 8.772049 -2.472626
v -3.900604 8.808071 -4.135269
v -3.650085 6.926487 -4.133953
v -8.525909 6.695984 -2.685173
v 1.126495 8.84409 -3.730099
v 1.225739 7.15699 -3.515591
v -6.001984 12.40151 2.252796
v -6.61496 13.37916 0.4616661
v -9.096954 11.1395 0.0003471375
v -7.710907 11.09745 2.470741
v -5.49646 13.29307 -1.6931
v -7.710907 11.09745 -2.470047
v -0.6382446 12.53185 3.082844
v -3.37616 12.72965 3.64563
v -3.552704 10.97134 4.191017
v 0.6054688 10.84521 3.815956
v -6.001984 12.40151 2.252796
v -7.710907 11.09745 2.470741
v -0.3844299 12.52736 -2.756401
v 0.4802551 12.87183 -0.2504272
v 1.991547 10.80317 0.0003471375
v 0.6054688 10.84521 -3.815258
v -0.6382446 12.53185 3.082844
v 0.6054688 10.84521 3.815956
v -5.49646 13.29307 -1.6931
v -2.758575 13.09526 -3.434387
v -3.552704 10.97134 -4.190315
v -7.710907 11.09745 -2.470047
v -0.3844299 12.52736 -2.756401
v 0.6054688 10.84521 -3.815258
v -2.758575 13.09526 -3.434387
v -1.67038 13.58059 -1.00275
v -5.49646 13.29307 -1.6931
v -2.905579 13.70152 0.8425446
v -4.140747 13.40575 1.845638
v -3.37616 12.72965 3.64563
v -6.61496 13.37916 0.4616661
v -6.001984 12.40151 2.252796

vn -0.9291632 -0.02540045 0.3687962
vn -0.9994024 -0.03456675 0
vn -0.9939718 0.1096358 7.848107E-09
vn -0.9223806 0.1545886 0.3540005
vn -0.929163 -0.02540113 -0.3687965
vn -0.9223804 0.1545887 -0.3540009
vn -0.9406965 0.1170283 -0.3184249
vn -0.9999366 0.011271 0
vn -0.9406967 0.1170275 0.3184244
vn 0.1381675 0.2320073 0.9628511
vn 0.003918773 0.1994292 0.9799044
vn 0.08086815 0.1625151 0.9833866
vn 0.1821278 0.09132597 0.9790245
vn -0.1111987 0.1799067 0.9773784
vn -0.0827459 0.2753212 0.9577846
vn -0.04445291 0.2088055 0.9769463
vn 0.1150589 0.1633089 0.9798427
vn 0.1976744 0.1212341 0.9727421
vn 0.7031866 0.6221194 -0.3442325
vn 0.7539993 0.6568753 0
vn 0.9214701 0.3884491 -3.297579E-09
vn 0.871082 0.4202947 -0.2541033
vn 0.6745436 0.6500115 0.349966
vn 0.8666569 0.402391 0.2949361
vn 0.9099401 0.2693858 0.3153415
vn 0.9548587 0.2970602 0
vn 0.9224298 0.2724793 -0.2736392
vn -0.1111966 0.1799065 -0.9773786
vn 0.06355293 0.2211261 -0.9731723
vn 0.1104856 0.1914298 -0.9752679
vn -0.08274537 0.2753212 -0.9577847
vn 0.2038194 0.2556497 -0.9450402
vn 0.2127612 0.1665879 -0.9627987
vn 0.2340444 0.1277672 -0.963794
vn 0.1357851 0.1652277 -0.9768634
vn -0.04445244 0.2088067 -0.9769461
vn -0.8868212 -0.2582751 0.3831997
vn -0.9584711 -0.2851901 0
vn -0.9801496 -0.1982592 4.372718E-09
vn -0.9127846 -0.1817519 0.3657741
vn -0.8852205 -0.2606294 -0.3853011
vn -0.9127845 -0.1817521 -0.365774
vn 0.1580649 0.2139082 0.9639807
vn -0.01961913 0.1529341 0.9880417
vn -0.001769868 0.2557939 0.9667298
vn 0.1457329 0.3760116 0.9150832
vn -0.2039897 0.1464606 0.9679554
vn -0.128752 0.2152304 0.9680386
vn 0.7308038 0.573926 -0.3695059
vn 0.77824 0.6279669 0
vn 0.6018901 0.7985788 -4.158903E-09
vn 0.5940119 0.7296712 -0.3387177
vn 0.7308039 0.5739261 0.3695058
vn 0.5668006 0.7556013 0.3283346
vn -0.2039871 0.1464631 -0.9679555
vn -0.01961789 0.152934 -0.9880417
vn 0.02320211 0.2343009 -0.9718872
vn -0.1287478 0.2152312 -0.968039
vn 0.158064 0.2139073 -0.963981
vn 0.1776284 0.2510214 -0.9515443
vn -0.8603377 0.1210109 0.495152
vn -0.9947542 0.1022942 0
vn -0.9509261 -0.3094181 4.512575E-09
vn -0.9024229 -0.2539474 0.3480569
vn -0.857043 0.1307556 -0.4983775
vn -0.8984078 -0.2496998 -0.3612664
vn 0.09380525 -0.03959455 0.994803
vn -0.1240188 -0.01084103 0.9922207
vn -0.09059459 0.03382542 0.9953132
vn 0.1285293 -0.06386812 0.989647
vn -0.3225229 0.0570327 0.9448419
vn -0.2876935 0.09683341 0.9528146
vn 0.9060161 0.1710062 -0.3871585
vn 0.9722144 0.2340921 -3.977756E-06
vn 0.9849894 0.1726151 -1.093353E-06
vn 0.8953975 0.1553385 -0.4172927
vn 0.9060177 0.1710066 0.3871547
vn 0.8953989 0.1553298 0.4172931
vn -0.3225228 0.05703304 -0.944842
vn -0.1240184 -0.01084011 -0.9922207
vn -0.09059414 0.03382615 -0.9953132
vn -0.2876928 0.09683613 -0.9528145
vn 0.09380629 -0.03959334 -0.9948028
vn 0.1285284 -0.06386496 -0.9896473
vn -0.5945986 0.6729777 0.4399474
vn -0.675892 0.7327573 0.07897253
vn -0.7653722 0.6435796 -0.00328325
vn -0.7004043 0.5890905 0.4029964
vn -0.5956891 0.7264405 -0.3426933
vn -0.6953952 0.5968012 -0.4003172
vn 0.1421236 0.3828008 0.9128332
vn -0.152834 0.3067386 0.9394431
vn -0.1415814 0.1929446 0.9709412
vn 0.09420826 0.2158469 0.9718719
vn -0.3854048 0.4395271 0.8113439
vn -0.3512942 0.3362744 0.8737917
vn 0.6095641 0.7320692 -0.3041485
vn 0.5996736 0.7998399 0.02545207
vn 0.8792645 0.4762626 0.008243216
vn 0.85041 0.4292648 -0.3041948
vn 0.4459949 0.8527128 0.2719732
vn 0.8389745 0.4541609 0.2997662
vn -0.3618838 0.52534 -0.7701026
vn -0.1342767 0.3764527 -0.9166533
vn -0.1493237 0.2592505 -0.9541968
vn -0.3392186 0.4039381 -0.8495674
vn 0.1880495 0.4305774 -0.882746
vn 0.09469547 0.2905553 -0.952161
vn 0.09578647 0.9670498 -0.2358802
vn 0.1780063 0.9817789 -0.06651276
vn -0.06530567 0.9946415 -0.08014549
vn 0.05164421 0.9930512 0.1057455
vn -0.08838314 0.9606301 0.2633977
vn -0.08127301 0.9211881 0.3805355
vn -0.1242729 0.9711544 0.2035074
vn -0.3259033 0.8050069 0.4957328

vt 1.095649 0.2136884
vt 0.9847603 0.2136884
vt 0.9697861 0.1070939
vt 1.095649 0.1070939
vt 0.873871 0.2136884
vt 0.8738711 0.1070939
vt 0.8738711 0.0004994571
vt 0.9847603 0.0004994571
vt 1.095649 0.0004994571
vt 0.1170711 0.4066644
vt 0.4628487 0.3101764
vt 0.4473505 0.1497436
vt 0.0587853 0.203582
vt 0.8086262 0.2136885
vt 0.8903338 0.107094
vt 0.9720414 0.0004996061
vt 0.4862704 0.0004996508
vt 0.0004995167 0.0004996955
vt 0.4692291 0.3245186
vt 0.3796133 0.3245185
vt 0.3796133 0.1625091
vt 0.4686236 0.1625091
vt 0.2899975 0.3245185
vt 0.290603 0.162509
vt 0.2912085 0.0004995465
vt 0.3796133 0.0004995763
vt 0.4680181 0.0004996061
vt 0.8086263 0.2136886
vt 0.4628487 0.3101766
vt 0.4979435 0.1601461
vt 0.8903338 0.1070942
vt 0.1170711 0.4066645
vt 0.05878533 0.2035822
vt 0.0004995465 0.0004998446
vt 0.4862705 0.0004997998
vt 0.9720414 0.0004997551
vt 1.048609 0.5530074
vt 0.9578646 0.5530074
vt 0.9636129 0.383348
vt 1.072129 0.3833479
vt 0.8671206 0.5530074
vt 0.8704958 0.3833479
vt 0.3913662 0.6111072
vt 0.6565222 0.5820572
vt 0.5684511 0.4455807
vt 0.2542187 0.5088858
vt 0.9216781 0.5530073
vt 0.8651521 0.3833479
vt 0.516857 0.5751147
vt 0.3796132 0.5751146
vt 0.3472993 0.4498164
vt 0.4930431 0.4498166
vt 0.2423694 0.5751146
vt 0.2661834 0.4498166
vt 0.9216781 0.5530074
vt 0.6565222 0.5820574
vt 0.548422 0.4468059
vt 0.8651522 0.383348
vt 0.3913663 0.6111073
vt 0.2542187 0.5088859
vt 1.042776 0.7526902
vt 0.9578646 0.7526902
vt 0.9693308 0.6528488
vt 1.045692 0.6528488
vt 0.8729529 0.7526902
vt 0.8700368 0.6528488
vt 0.3627173 0.7553042
vt 0.6475585 0.7515817
vt 0.6708015 0.6671636
vt 0.3770418 0.6832057
vt 0.9323996 0.7478591
vt 0.9270388 0.6504332
vt 0.5525404 0.6617272
vt 0.3796132 0.6617272
vt 0.3796133 0.6184209
vt 0.5346987 0.618421
vt 0.206686 0.6617272
vt 0.2245277 0.6184209
vt 0.9323996 0.7478592
vt 0.6475585 0.7515817
vt 0.6287153 0.6663916
vt 0.9270388 0.6504333
vt 0.3627173 0.7553042
vt 0.3770418 0.6832058
vt 1.059412 0.9753459
vt 0.9578646 0.9753459
vt 0.9606536 0.8640182
vt 1.051094 0.8640181
vt 0.8563178 0.9753459
vt 0.8646353 0.8640181
vt 0.4654948 0.9636663
vt 0.6252948 0.9815832
vt 0.6305836 0.8662834
vt 0.414106 0.8594853
vt 0.7850949 0.9995002
vt 0.8587472 0.8736796
vt 0.5525404 0.8453892
vt 0.3796132 0.8453891
vt 0.3796131 0.7535582
vt 0.5525404 0.7535582
vt 0.206686 0.8453891
vt 0.206686 0.7535582
vt 0.7850949 0.9995003
vt 0.6252948 0.9815834
vt 0.6413627 0.8668352
vt 0.8587472 0.8736798
vt 0.4654948 0.9636664
vt 0.4141061 0.8594853
vt 0.513078 0.9224448
vt 0.4109473 0.8967592
vt 0.4736157 0.9995005
vt 0.3401509 0.9224448
vt 0.3219708 0.9481301
vt 0.2461483 0.9224448
vt 0.3796131 0.9995004
vt 0.2856106 0.9995004

usemtl sn04_16_sn0416.JPG
usemap sn04_16_sn0416.JPG
f 3/3/3 1/1/1 2/2/2
f 4/4/4 1/1/1 3/3/3
f 3/3/3 5/5/5 6/6/6
f 2/2/2 5/5/5 3/3/3
f 3/3/3 7/7/7 8/8/8
f 6/6/6 7/7/7 3/3/3
f 3/3/3 9/9/9 4/4/4
f 8/8/8 9/9/9 3/3/3
f 12/12/12 10/10/10 11/11/11
f 13/13/13 10/10/10 12/12/12
f 12/12/12 14/14/14 15/15/15
f 11/11/11 14/14/14 12/12/12
f 12/12/12 16/16/16 17/17/17
f 15/15/15 16/16/16 12/12/12
f 12/12/12 18/18/18 13/13/13
f 17/17/17 18/18/18 12/12/12
f 21/21/21 19/19/19 20/20/20
f 22/22/22 19/19/19 21/21/21
f 21/21/21 23/23/23 24/24/24
f 20/20/20 23/23/23 21/21/21
f 21/21/21 25/25/25 26/26/26
f 24/24/24 25/25/25 21/21/21
f 21/21/21 27/27/27 22/22/22
f 26/26/26 27/27/27 21/21/21
f 30/30/30 28/28/28 29/29/29
f 31/31/31 28/28/28 30/30/30
f 30/30/30 32/32/32 33/33/33
f 29/29/29 32/32/32 30/30/30
f 30/30/30 34/34/34 35/35/35
f 33/33/33 34/34/34 30/30/30
f 30/30/30 36/36/36 31/31/31
f 35/35/35 36/36/36 30/30/30
f 39/39/39 37/37/37 38/38/38
f 40/40/40 37/37/37 39/39/39
f 39/39/39 41/41/41 42/42/42
f 38/38/38 41/41/41 39/39/39
f 39/39/39 5/5/5 2/2/2
f 42/42/42 5/5/5 39/39/39
f 39/39/39 1/1/1 40/40/40
f 2/2/2 1/1/1 39/39/39
f 45/45/45 43/43/43 44/44/44
f 46/46/46 43/43/43 45/45/45
f 45/45/45 47/47/47 48/48/48
f 44/44/44 47/47/47 45/45/45
f 45/45/45 14/14/14 11/11/11
f 48/48/48 14/14/14 45/45/45
f 45/45/45 10/10/10 46/46/46
f 11/11/11 10/10/10 45/45/45
f 51/51/51 49/49/49 50/50/50
f 52/52/52 49/49/49 51/51/51
f 51/51/51 53/53/53 54/54/54
f 50/50/50 53/53/53 51/51/51
f 51/51/51 23/23/23 20/20/20
f 54/54/54 23/23/23 51/51/51
f 51/51/51 19/19/19 52/52/52
f 20/20/20 19/19/19 51/51/51
f 57/57/57 55/55/55 56/56/56
f 58/58/58 55/55/55 57/57/57
f 57/57/57 59/59/59 60/60/60
f 56/56/56 59/59/59 57/57/57
f 57/57/57 32/32/32 29/29/29
f 60/60/60 32/32/32 57/57/57
f 57/57/57 28/28/28 58/58/58
f 29/29/29 28/28/28 57/57/57
f 63/63/63 61/61/61 62/62/62
f 64/64/64 61/61/61 63/63/63
f 63/63/63 65/65/65 66/66/66
f 62/62/62 65/65/65 63/63/63
f 63/63/63 41/41/41 38/38/38
f 66/66/66 41/41/41 63/63/63
f 63/63/63 37/37/37 64/64/64
f 38/38/38 37/37/37 63/63/63
f 69/69/69 67/67/67 68/68/68
f 70/70/70 67/67/67 69/69/69
f 69/69/69 71/71/71 72/72/72
f 68/68/68 71/71/71 69/69/69
f 69/69/69 47/47/47 44/44/44
f 72/72/72 47/47/47 69/69/69
f 69/69/69 43/43/43 70/70/70
f 44/44/44 43/43/43 69/69/69
f 75/75/75 73/73/73 74/74/74
f 76/76/76 73/73/73 75/75/75
f 75/75/75 77/77/77 78/78/78
f 74/74/74 77/77/77 75/75/75
f 75/75/75 53/53/53 50/50/50
f 78/78/78 53/53/53 75/75/75
f 75/75/75 49/49/49 76/76/76
f 50/50/50 49/49/49 75/75/75
f 81/81/81 79/79/79 80/80/80
f 82/82/82 79/79/79 81/81/81
f 81/81/81 83/83/83 84/84/84
f 80/80/80 83/83/83 81/81/81
f 81/81/81 59/59/59 56/56/56
f 84/84/84 59/59/59 81/81/81
f 81/81/81 55/55/55 82/82/82
f 56/56/56 55/55/55 81/81/81
f 87/87/87 85/85/85 86/86/86
f 88/88/88 85/85/85 87/87/87
f 87/87/87 89/89/89 90/90/90
f 86/86/86 89/89/89 87/87/87
f 87/87/87 65/65/65 62/62/62
f 90/90/90 65/65/65 87/87/87
f 87/87/87 61/61/61 88/88/88
f 62/62/62 61/61/61 87/87/87
f 93/93/93 91/91/91 92/92/92
f 94/94/94 91/91/91 93/93/93
f 93/93/93 95/95/95 96/96/96
f 92/92/92 95/95/95 93/93/93
f 93/93/93 71/71/71 68/68/68
f 96/96/96 71/71/71 93/93/93
f 93/93/93 67/67/67 94/94/94
f 68/68/68 67/67/67 93/93/93
f 99/99/99 97/97/97 98/98/98
f 100/100/100 97/97/97 99/99/99
f 99/99/99 101/101/101 102/102/102
f 98/98/98 101/101/101 99/99/99
f 99/99/99 77/77/77 74/74/74
f 102/102/102 77/77/77 99/99/99
f 99/99/99 73/73/73 100/100/100
f 74/74/74 73/73/73 99/99/99
f 105/105/105 103/103/103 104/104/104
f 106/106/106 103/103/103 105/105/105
f 105/105/105 107/107/107 108/108/108
f 104/104/104 107/107/107 105/105/105
f 105/105/105 83/83/83 80/80/80
f 108/108/108 83/83/83 105/105/105
f 105/105/105 79/79/79 106/106/106
f 80/80/80 79/79/79 105/105/105
f 110/110/110 97/97/97 109/109/109
f 98/98/98 97/97/97 110/110/110
f 110/110/110 111/111/111 112/112/112
f 109/109/109 111/111/111 110/110/110
f 110/110/110 101/101/101 98/98/98
f 112/112/112 101/101/101 110/110/110
f 113/113/113 101/101/101 112/112/112
f 114/114/114 101/101/101 113/113/113
f 113/113/113 111/111/111 115/115/115
f 112/112/112 111/111/111 113/113/113
f 113/113/113 116/116/116 114/114/114
f 115/115/115 116/116/116 113/113/113
