mtllib ./shizi04.mtl
g shizi04
v -5.507111 -1.627827 4.98148
v -7.497009 -2.012615 4.577637E-05
v -7.736481 -4.666473 4.577637E-05
v -5.49054 -4.421925 5.745258
v -5.507111 -1.627827 -4.981384
v -5.49054 -4.421925 -5.745159
v -5.828857 -7.059185 -6.514866
v -7.763458 -7.059856 4.196167E-05
v -5.828857 -7.059185 6.514961
v 7.614502 0.6808891 4.459137
v 0.4625854 -0.4734688 5.549282
v 1.247223 -3.688278 6.116463
v 10.07681 -2.954628 4.405464
v -5.507111 -1.627827 4.98148
v -5.49054 -4.421925 5.745258
v -5.828857 -7.059185 6.514961
v 1.633118 -7.057171 6.632637
v 11.18692 -7.055157 4.51619
v 7.614532 0.6808891 -3.599888
v 9.604401 1.065674 0.4296188
v 11.28708 -2.710079 0.5153275
v 10.07681 -2.954632 -4.038246
v 7.614502 0.6808891 4.459137
v 10.07681 -2.954628 4.405464
v 11.18692 -7.055157 4.51619
v 12.63864 -7.054485 0.5153275
v 11.18692 -7.055157 -4.148968
v -5.507111 -1.627827 -4.981384
v 0.4625854 -0.4734688 -5.549175
v 1.247223 -3.688278 -6.11636
v -5.49054 -4.421925 -5.745159
v 7.614532 0.6808891 -3.599888
v 10.07681 -2.954632 -4.038246
v 11.18692 -7.055157 -4.148968
v 1.633118 -7.057171 -6.632538
v -5.828857 -7.059185 -6.514866
v -7.347168 4.41626 3.392925
v -8.882019 4.244091 4.577637E-05
v -7.93808 1.162209 4.196167E-05
v -6.233429 1.47995 4.411865
v -7.347168 4.41626 -3.392834
v -6.233429 1.47995 -4.411777
v 1.862091 5.44928 3.415894
v -2.742523 4.93277 4.333569
v -1.119476 2.43317 4.880096
v 3.994476 3.386391 3.673985
v -7.347168 4.41626 3.392925
v -6.233429 1.47995 4.411865
v 1.862091 5.44928 -3.415787
v 3.396973 5.621449 4.959106E-05
v 5.699127 3.704128 4.959106E-05
v 3.994476 3.386391 -3.673885
v 1.862091 5.44928 3.415894
v 3.994476 3.386391 3.673985
v -7.347168 4.41626 -3.392834
v -2.742523 4.93277 -4.333466
v -1.119476 2.43317 -4.87999
v -6.233429 1.47995 -4.411777
v 1.862091 5.44928 -3.415787
v 3.994476 3.386391 -3.673885
v -8.927704 8.772022 2.47303
v -10.60342 8.760014 4.959106E-05
v -9.561768 6.619122 -0.05628586
v -8.525879 6.695957 2.68557
v -8.927704 8.772022 -2.472923
v -8.525879 6.695957 -2.685471
v 1.126556 8.844063 3.730507
v -3.900574 8.808041 4.135666
v -3.650055 6.92646 4.134354
v 1.225769 7.156963 3.515987
v -8.927704 8.772022 2.47303
v -8.525879 6.695957 2.68557
v 1.126526 8.844063 -3.730396
v 2.802246 8.856068 4.959106E-05
v 2.851013 7.233799 4.959106E-05
v 1.225769 7.156963 -3.515888
v 1.126556 8.844063 3.730507
v 1.225769 7.156963 3.515987
v -8.927704 8.772022 -2.472923
v -3.900574 8.808041 -4.135567
v -3.650055 6.92646 -4.134251
v -8.525879 6.695957 -2.685471
v 1.126526 8.844063 -3.730396
v 1.225769 7.156963 -3.515888
v -6.001953 12.40148 2.252499
v -6.614929 13.37913 0.4613686
v -9.096924 11.13947 4.959106E-05
v -7.710876 11.09743 2.470444
v -5.496429 13.29304 -1.693398
v -7.710876 11.09743 -2.470345
v -0.6382141 12.53182 3.082546
v -3.376129 12.72962 3.645332
v -3.552673 10.97131 4.19072
v 0.6054993 10.84519 3.815659
v -6.001953 12.40148 2.252499
v -7.710876 11.09743 2.470444
v -0.3843994 12.52734 -2.756699
v 0.4802856 12.8718 -0.2507248
v 1.991577 10.80315 4.959106E-05
v 0.6054993 10.84519 -3.815556
v -0.6382141 12.53182 3.082546
v 0.6054993 10.84519 3.815659
v -5.496429 13.29304 -1.693398
v -2.758545 13.09523 -3.434685
v -3.552673 10.97131 -4.190613
v -7.710876 11.09743 -2.470345
v -0.3843994 12.52734 -2.756699
v 0.6054993 10.84519 -3.815556
v -2.758545 13.09523 -3.434685
v -1.670349 13.58057 -1.003044
v -5.496429 13.29304 -1.693398
v -2.905548 13.70149 0.842247
v -4.140717 13.40573 1.845341
v -3.376129 12.72962 3.645332
v -6.614929 13.37913 0.4613686
v -6.001953 12.40148 2.252499

vn -0.9291632 -0.02540059 0.3687961
vn -0.9994024 -0.03456675 0
vn -0.9939719 0.1096358 3.924053E-09
vn -0.9223806 0.1545886 0.3540005
vn -0.929163 -0.02540113 -0.3687965
vn -0.9223804 0.1545887 -0.3540009
vn -0.9406966 0.1170282 -0.3184248
vn -0.9999365 0.01127098 0
vn -0.9406968 0.1170274 0.3184244
vn 0.1381674 0.2320074 0.9628511
vn 0.003918773 0.1994292 0.9799044
vn 0.08086819 0.1625146 0.9833866
vn 0.1821273 0.09132455 0.9790248
vn -0.1111985 0.1799064 0.9773784
vn -0.0827459 0.2753212 0.9577846
vn -0.04445291 0.2088055 0.9769463
vn 0.1150593 0.163309 0.9798426
vn 0.1976748 0.1212321 0.9727423
vn 0.7031888 0.6221208 -0.3442253
vn 0.7540008 0.6568733 2.865587E-06
vn 0.9214713 0.3884467 7.485517E-07
vn 0.8710875 0.4202896 -0.2540929
vn 0.6745448 0.6500127 0.349961
vn 0.8666616 0.4023896 0.2949241
vn 0.9099438 0.26938 0.315336
vn 0.9548587 0.2970605 0
vn 0.9224328 0.2724738 -0.273634
vn -0.1111966 0.1799065 -0.9773786
vn 0.06355278 0.221126 -0.9731722
vn 0.1104856 0.1914292 -0.9752681
vn -0.08274537 0.2753212 -0.9577847
vn 0.2038188 0.2556497 -0.9450403
vn 0.2127608 0.1665861 -0.9627991
vn 0.2340445 0.1277654 -0.9637942
vn 0.1357854 0.1652277 -0.9768634
vn -0.04445244 0.2088067 -0.9769461
vn -0.8868213 -0.258275 0.3831996
vn -0.9584711 -0.2851901 0
vn -0.9801496 -0.1982592 4.372717E-09
vn -0.9127846 -0.1817519 0.3657738
vn -0.8852205 -0.2606294 -0.3853011
vn -0.9127845 -0.1817521 -0.365774
vn 0.1580649 0.2139082 0.9639807
vn -0.01961913 0.1529341 0.9880417
vn -0.001769693 0.2557939 0.9667298
vn 0.1457329 0.3760116 0.9150832
vn -0.2039896 0.1464611 0.9679553
vn -0.1287513 0.2152306 0.9680386
vn 0.7308037 0.573926 -0.3695061
vn 0.7782401 0.6279669 0
vn 0.6018907 0.7985785 6.155183E-07
vn 0.5940101 0.729673 -0.338717
vn 0.7308039 0.5739261 0.3695058
vn 0.5668006 0.7556013 0.3283346
vn -0.2039874 0.1464629 -0.9679555
vn -0.0196175 0.1529342 -0.9880417
vn 0.02320217 0.2343011 -0.9718872
vn -0.1287478 0.2152312 -0.968039
vn 0.1580647 0.2139077 -0.9639809
vn 0.177628 0.2510228 -0.9515439
vn -0.8603379 0.1210109 0.4951515
vn -0.9947542 0.1022942 0
vn -0.9509261 -0.3094183 -4.512576E-09
vn -0.9024228 -0.2539477 0.3480569
vn -0.8570431 0.1307556 -0.4983774
vn -0.8984078 -0.2496998 -0.3612664
vn 0.09380525 -0.03959455 0.994803
vn -0.1240184 -0.01084105 0.9922207
vn -0.09059446 0.03382521 0.9953132
vn 0.1285293 -0.06386812 0.989647
vn -0.3225226 0.0570326 0.944842
vn -0.2876935 0.0968326 0.9528147
vn 0.9060161 0.1710062 -0.3871585
vn 0.9722145 0.2340919 -3.969048E-06
vn 0.9849893 0.172615 -1.083368E-06
vn 0.8953976 0.1553381 -0.4172927
vn 0.9060177 0.1710066 0.3871547
vn 0.8953989 0.1553298 0.4172931
vn -0.3225228 0.05703301 -0.9448419
vn -0.1240184 -0.01084011 -0.9922207
vn -0.09059405 0.03382642 -0.9953133
vn -0.2876928 0.09683613 -0.9528145
vn 0.09380629 -0.03959334 -0.9948028
vn 0.1285284 -0.06386606 -0.9896473
vn -0.5945983 0.6729782 0.4399467
vn -0.675892 0.7327573 0.07897253
vn -0.7653723 0.6435795 -0.003283231
vn -0.7004045 0.5890911 0.4029956
vn -0.5956889 0.7264408 -0.3426926
vn -0.6953955 0.5968013 -0.4003165
vn 0.1421236 0.3828008 0.9128332
vn -0.152834 0.3067386 0.9394431
vn -0.1415812 0.1929447 0.9709414
vn 0.09420826 0.2158469 0.9718719
vn -0.3854046 0.4395275 0.8113439
vn -0.3512938 0.3362751 0.8737915
vn 0.6095636 0.7320697 -0.304148
vn 0.599673 0.7998403 0.02545256
vn 0.8792645 0.4762623 0.008243214
vn 0.85041 0.4292645 -0.3041953
vn 0.4459947 0.8527129 0.2719733
vn 0.8389744 0.4541609 0.2997665
vn -0.3618835 0.5253402 -0.7701026
vn -0.134277 0.3764528 -0.9166532
vn -0.1493236 0.2592503 -0.9541969
vn -0.3392184 0.403938 -0.8495677
vn 0.1880492 0.430577 -0.8827462
vn 0.09469546 0.290555 -0.952161
vn 0.09578589 0.9670501 -0.2358797
vn 0.178006 0.981779 -0.06651247
vn -0.06530559 0.9946416 -0.08014549
vn 0.05164414 0.9930513 0.1057456
vn -0.08838314 0.9606301 0.2633977
vn -0.08127301 0.9211881 0.3805355
vn -0.1242729 0.9711544 0.2035074
vn -0.3259033 0.8050069 0.4957328

vt 1.095649 0.2136884
vt 0.9847603 0.2136884
vt 0.9697861 0.1070939
vt 1.095649 0.1070939
vt 0.873871 0.2136884
vt 0.8738711 0.1070939
vt 0.8738711 0.0004994571
vt 0.9847603 0.0004994571
vt 1.095649 0.0004994571
vt 0.1170711 0.4066644
vt 0.4628487 0.3101764
vt 0.4473505 0.1497436
vt 0.0587853 0.203582
vt 0.8086262 0.2136885
vt 0.8903338 0.107094
vt 0.9720414 0.0004996061
vt 0.4862704 0.0004996508
vt 0.0004995167 0.0004996955
vt 0.4692291 0.3245186
vt 0.3796133 0.3245185
vt 0.3796133 0.1625091
vt 0.4686236 0.1625091
vt 0.2899975 0.3245185
vt 0.290603 0.162509
vt 0.2912085 0.0004995465
vt 0.3796133 0.0004995763
vt 0.4680181 0.0004996061
vt 0.8086263 0.2136886
vt 0.4628487 0.3101766
vt 0.4979435 0.1601461
vt 0.8903338 0.1070942
vt 0.1170711 0.4066645
vt 0.05878533 0.2035822
vt 0.0004995465 0.0004998446
vt 0.4862705 0.0004997998
vt 0.9720414 0.0004997551
vt 1.048609 0.5530074
vt 0.9578646 0.5530074
vt 0.9636129 0.383348
vt 1.072129 0.3833479
vt 0.8671206 0.5530074
vt 0.8704958 0.3833479
vt 0.3913662 0.6111072
vt 0.6565222 0.5820572
vt 0.5684511 0.4455807
vt 0.2542187 0.5088858
vt 0.9216781 0.5530073
vt 0.8651521 0.3833479
vt 0.516857 0.5751147
vt 0.3796132 0.5751146
vt 0.3472993 0.4498164
vt 0.4930431 0.4498166
vt 0.2423694 0.5751146
vt 0.2661834 0.4498166
vt 0.9216781 0.5530074
vt 0.6565222 0.5820574
vt 0.548422 0.4468059
vt 0.8651522 0.383348
vt 0.3913663 0.6111073
vt 0.2542187 0.5088859
vt 1.042776 0.7526902
vt 0.9578646 0.7526902
vt 0.9693308 0.6528488
vt 1.045692 0.6528488
vt 0.8729529 0.7526902
vt 0.8700368 0.6528488
vt 0.3627173 0.7553042
vt 0.6475585 0.7515817
vt 0.6708015 0.6671636
vt 0.3770418 0.6832057
vt 0.9323996 0.7478591
vt 0.9270388 0.6504332
vt 0.5525404 0.6617272
vt 0.3796132 0.6617272
vt 0.3796133 0.6184209
vt 0.5346987 0.618421
vt 0.206686 0.6617272
vt 0.2245277 0.6184209
vt 0.9323996 0.7478592
vt 0.6475585 0.7515817
vt 0.6287153 0.6663916
vt 0.9270388 0.6504333
vt 0.3627173 0.7553042
vt 0.3770418 0.6832058
vt 1.059412 0.9753459
vt 0.9578646 0.9753459
vt 0.9606536 0.8640182
vt 1.051094 0.8640181
vt 0.8563178 0.9753459
vt 0.8646353 0.8640181
vt 0.4654948 0.9636663
vt 0.6252948 0.9815832
vt 0.6305836 0.8662834
vt 0.414106 0.8594853
vt 0.7850949 0.9995002
vt 0.8587472 0.8736796
vt 0.5525404 0.8453892
vt 0.3796132 0.8453891
vt 0.3796131 0.7535582
vt 0.5525404 0.7535582
vt 0.206686 0.8453891
vt 0.206686 0.7535582
vt 0.7850949 0.9995003
vt 0.6252948 0.9815834
vt 0.6413627 0.8668352
vt 0.8587472 0.8736798
vt 0.4654948 0.9636664
vt 0.4141061 0.8594853
vt 0.513078 0.9224448
vt 0.4109473 0.8967592
vt 0.4736157 0.9995005
vt 0.3401509 0.9224448
vt 0.3219708 0.9481301
vt 0.2461483 0.9224448
vt 0.3796131 0.9995004
vt 0.2856106 0.9995004

usemtl sn04_16_sn0416.JPG
usemap sn04_16_sn0416.JPG
f 3/3/3 1/1/1 2/2/2
f 4/4/4 1/1/1 3/3/3
f 3/3/3 5/5/5 6/6/6
f 2/2/2 5/5/5 3/3/3
f 3/3/3 7/7/7 8/8/8
f 6/6/6 7/7/7 3/3/3
f 3/3/3 9/9/9 4/4/4
f 8/8/8 9/9/9 3/3/3
f 12/12/12 10/10/10 11/11/11
f 13/13/13 10/10/10 12/12/12
f 12/12/12 14/14/14 15/15/15
f 11/11/11 14/14/14 12/12/12
f 12/12/12 16/16/16 17/17/17
f 15/15/15 16/16/16 12/12/12
f 12/12/12 18/18/18 13/13/13
f 17/17/17 18/18/18 12/12/12
f 21/21/21 19/19/19 20/20/20
f 22/22/22 19/19/19 21/21/21
f 21/21/21 23/23/23 24/24/24
f 20/20/20 23/23/23 21/21/21
f 21/21/21 25/25/25 26/26/26
f 24/24/24 25/25/25 21/21/21
f 21/21/21 27/27/27 22/22/22
f 26/26/26 27/27/27 21/21/21
f 30/30/30 28/28/28 29/29/29
f 31/31/31 28/28/28 30/30/30
f 30/30/30 32/32/32 33/33/33
f 29/29/29 32/32/32 30/30/30
f 30/30/30 34/34/34 35/35/35
f 33/33/33 34/34/34 30/30/30
f 30/30/30 36/36/36 31/31/31
f 35/35/35 36/36/36 30/30/30
f 39/39/39 37/37/37 38/38/38
f 40/40/40 37/37/37 39/39/39
f 39/39/39 41/41/41 42/42/42
f 38/38/38 41/41/41 39/39/39
f 39/39/39 5/5/5 2/2/2
f 42/42/42 5/5/5 39/39/39
f 39/39/39 1/1/1 40/40/40
f 2/2/2 1/1/1 39/39/39
f 45/45/45 43/43/43 44/44/44
f 46/46/46 43/43/43 45/45/45
f 45/45/45 47/47/47 48/48/48
f 44/44/44 47/47/47 45/45/45
f 45/45/45 14/14/14 11/11/11
f 48/48/48 14/14/14 45/45/45
f 45/45/45 10/10/10 46/46/46
f 11/11/11 10/10/10 45/45/45
f 51/51/51 49/49/49 50/50/50
f 52/52/52 49/49/49 51/51/51
f 51/51/51 53/53/53 54/54/54
f 50/50/50 53/53/53 51/51/51
f 51/51/51 23/23/23 20/20/20
f 54/54/54 23/23/23 51/51/51
f 51/51/51 19/19/19 52/52/52
f 20/20/20 19/19/19 51/51/51
f 57/57/57 55/55/55 56/56/56
f 58/58/58 55/55/55 57/57/57
f 57/57/57 59/59/59 60/60/60
f 56/56/56 59/59/59 57/57/57
f 57/57/57 32/32/32 29/29/29
f 60/60/60 32/32/32 57/57/57
f 57/57/57 28/28/28 58/58/58
f 29/29/29 28/28/28 57/57/57
f 63/63/63 61/61/61 62/62/62
f 64/64/64 61/61/61 63/63/63
f 63/63/63 65/65/65 66/66/66
f 62/62/62 65/65/65 63/63/63
f 63/63/63 41/41/41 38/38/38
f 66/66/66 41/41/41 63/63/63
f 63/63/63 37/37/37 64/64/64
f 38/38/38 37/37/37 63/63/63
f 69/69/69 67/67/67 68/68/68
f 70/70/70 67/67/67 69/69/69
f 69/69/69 71/71/71 72/72/72
f 68/68/68 71/71/71 69/69/69
f 69/69/69 47/47/47 44/44/44
f 72/72/72 47/47/47 69/69/69
f 69/69/69 43/43/43 70/70/70
f 44/44/44 43/43/43 69/69/69
f 75/75/75 73/73/73 74/74/74
f 76/76/76 73/73/73 75/75/75
f 75/75/75 77/77/77 78/78/78
f 74/74/74 77/77/77 75/75/75
f 75/75/75 53/53/53 50/50/50
f 78/78/78 53/53/53 75/75/75
f 75/75/75 49/49/49 76/76/76
f 50/50/50 49/49/49 75/75/75
f 81/81/81 79/79/79 80/80/80
f 82/82/82 79/79/79 81/81/81
f 81/81/81 83/83/83 84/84/84
f 80/80/80 83/83/83 81/81/81
f 81/81/81 59/59/59 56/56/56
f 84/84/84 59/59/59 81/81/81
f 81/81/81 55/55/55 82/82/82
f 56/56/56 55/55/55 81/81/81
f 87/87/87 85/85/85 86/86/86
f 88/88/88 85/85/85 87/87/87
f 87/87/87 89/89/89 90/90/90
f 86/86/86 89/89/89 87/87/87
f 87/87/87 65/65/65 62/62/62
f 90/90/90 65/65/65 87/87/87
f 87/87/87 61/61/61 88/88/88
f 62/62/62 61/61/61 87/87/87
f 93/93/93 91/91/91 92/92/92
f 94/94/94 91/91/91 93/93/93
f 93/93/93 95/95/95 96/96/96
f 92/92/92 95/95/95 93/93/93
f 93/93/93 71/71/71 68/68/68
f 96/96/96 71/71/71 93/93/93
f 93/93/93 67/67/67 94/94/94
f 68/68/68 67/67/67 93/93/93
f 99/99/99 97/97/97 98/98/98
f 100/100/100 97/97/97 99/99/99
f 99/99/99 101/101/101 102/102/102
f 98/98/98 101/101/101 99/99/99
f 99/99/99 77/77/77 74/74/74
f 102/102/102 77/77/77 99/99/99
f 99/99/99 73/73/73 100/100/100
f 74/74/74 73/73/73 99/99/99
f 105/105/105 103/103/103 104/104/104
f 106/106/106 103/103/103 105/105/105
f 105/105/105 107/107/107 108/108/108
f 104/104/104 107/107/107 105/105/105
f 105/105/105 83/83/83 80/80/80
f 108/108/108 83/83/83 105/105/105
f 105/105/105 79/79/79 106/106/106
f 80/80/80 79/79/79 105/105/105
f 110/110/110 97/97/97 109/109/109
f 98/98/98 97/97/97 110/110/110
f 110/110/110 111/111/111 112/112/112
f 109/109/109 111/111/111 110/110/110
f 110/110/110 101/101/101 98/98/98
f 112/112/112 101/101/101 110/110/110
f 113/113/113 101/101/101 112/112/112
f 114/114/114 101/101/101 113/113/113
f 113/113/113 111/111/111 115/115/115
f 112/112/112 111/111/111 113/113/113
f 113/113/113 116/116/116 114/114/114
f 115/115/115 116/116/116 113/113/113
