mtllib ./shizi02.mtl
g shizi02
v 7.49707 -2.012615 0.0002632141
v 5.507141 -1.627827 4.981697
v 7.736511 -4.666473 0.0002632141
v 5.490601 -4.421925 5.745476
v 5.490601 -4.421925 -5.744942
v 5.507141 -1.627827 -4.981167
v 7.763489 -7.059856 0.0002593994
v 5.828918 -7.059185 -6.514648
v 5.828918 -7.059185 6.515179
v -0.4625244 -0.4734688 5.5495
v -7.614441 0.6808891 4.459354
v -1.247131 -3.688278 6.11668
v -10.07672 -2.954628 4.405682
v 5.490601 -4.421925 5.745476
v 5.507141 -1.627827 4.981697
v -1.633057 -7.057171 6.632854
v 5.828918 -7.059185 6.515179
v -11.18689 -7.055157 4.516411
v -9.60437 1.065674 0.4298363
v -7.614441 0.6808891 -3.59967
v -11.28705 -2.710079 0.5155411
v -10.07672 -2.954632 -4.038029
v -10.07672 -2.954628 4.405682
v -7.614441 0.6808891 4.459354
v -12.63861 -7.054485 0.5155449
v -11.18689 -7.055157 4.516411
v -11.18689 -7.055157 -4.14875
v -0.4625244 -0.4734688 -5.548958
v 5.507141 -1.627827 -4.981167
v -1.247131 -3.688278 -6.116142
v 5.490601 -4.421925 -5.744942
v -10.07672 -2.954632 -4.038029
v -7.614441 0.6808891 -3.59967
v -1.633057 -7.057171 -6.63232
v -11.18689 -7.055157 -4.14875
v 5.828918 -7.059185 -6.514648
v 8.88208 4.244091 0.0002632141
v 7.347229 4.41626 3.393143
v 7.938171 1.162209 0.0002593994
v 6.233521 1.47995 4.412079
v 6.233521 1.47995 -4.41156
v 7.347229 4.41626 -3.392616
v 2.742554 4.93277 4.333786
v -1.862061 5.44928 3.416111
v 1.119568 2.43317 4.880314
v -3.994385 3.386391 3.674202
v 6.233521 1.47995 4.412079
v 7.347229 4.41626 3.393143
v -3.396912 5.621449 0.0002670288
v -1.862061 5.44928 -3.415573
v -5.699036 3.704128 0.0002670288
v -3.994385 3.386391 -3.673668
v -3.994385 3.386391 3.674202
v -1.862061 5.44928 3.416111
v 2.742554 4.93277 -4.333244
v 7.347229 4.41626 -3.392616
v 1.119568 2.43317 -4.879772
v 6.233521 1.47995 -4.41156
v -3.994385 3.386391 -3.673668
v -1.862061 5.44928 -3.415573
v 10.60345 8.760014 0.0002670288
v 8.927795 8.772022 2.473244
v 9.561829 6.619122 -0.05606842
v 8.52594 6.695957 2.685787
v 8.52594 6.695957 -2.685253
v 8.927734 8.772022 -2.472706
v 3.900635 8.808041 4.135883
v -1.126465 8.844063 3.730724
v 3.650085 6.92646 4.134571
v -1.225708 7.156963 3.516205
v 8.52594 6.695957 2.685787
v 8.927795 8.772022 2.473244
v -2.802185 8.856068 0.0002670288
v -1.126465 8.844063 -3.730179
v -2.850952 7.233799 0.0002670288
v -1.225708 7.156963 -3.515671
v -1.225708 7.156963 3.516205
v -1.126465 8.844063 3.730724
v 3.900635 8.808041 -4.135349
v 8.927734 8.772022 -2.472706
v 3.650085 6.92646 -4.134033
v 8.52594 6.695957 -2.685253
v -1.225708 7.156963 -3.515671
v -1.126465 8.844063 -3.730179
v 6.61499 13.37913 0.461586
v 6.002014 12.40148 2.252716
v 9.096985 11.13947 0.0002670288
v 7.710938 11.09743 2.470661
v 7.710938 11.09743 -2.470127
v 5.496521 13.29304 -1.69318
v 3.376221 12.72962 3.64555
v 0.6382446 12.53182 3.082764
v 3.552734 10.97131 4.190937
v -0.6054688 10.84519 3.815876
v 7.710938 11.09743 2.470661
v 6.002014 12.40148 2.252716
v -0.4802246 12.8718 -0.2505074
v 0.3844604 12.52734 -2.756481
v -1.991516 10.80315 0.0002670288
v -0.6054688 10.84519 -3.815338
v -0.6054688 10.84519 3.815876
v 0.6382446 12.53182 3.082764
v 2.758606 13.09523 -3.434467
v 5.496521 13.29304 -1.69318
v 3.552734 10.97131 -4.190395
v 7.710938 11.09743 -2.470127
v -0.6054688 10.84519 -3.815338
v 0.3844604 12.52734 -2.756481
v 2.758606 13.09523 -3.434467
v 1.67041 13.58057 -1.002831
v 2.905579 13.70149 0.8424644
v 5.496521 13.29304 -1.69318
v 4.140808 13.40573 1.845558
v 3.376221 12.72962 3.64555
v 6.61499 13.37913 0.461586
v 6.002014 12.40148 2.252716

vn 0.999402 -0.03457721 0
vn 0.9291623 -0.02540705 0.3687978
vn 0.9939719 0.1096354 3.924053E-09
vn 0.9223818 0.1545926 0.3539959
vn 0.9223816 0.1545927 -0.3539963
vn 0.9291621 -0.02540774 -0.3687981
vn 0.9999365 0.011271 0
vn 0.9406981 0.1170276 -0.3184206
vn 0.9406984 0.1170269 0.3184203
vn -0.003918789 0.1994292 0.9799044
vn -0.1381673 0.2320073 0.9628512
vn -0.08086821 0.1625152 0.9833866
vn -0.1821272 0.09132569 0.9790246
vn 0.08274632 0.2753217 0.9577844
vn 0.111199 0.1799062 0.9773784
vn -0.1150589 0.1633099 0.9798425
vn 0.04445299 0.2088053 0.9769464
vn -0.1976741 0.1212349 0.972742
vn -0.7539974 0.6568773 6.955278E-09
vn -0.7031853 0.6221212 -0.3442322
vn -0.9214701 0.3884492 -9.233224E-08
vn -0.8710819 0.4202946 -0.2541035
vn -0.8666569 0.402391 0.294936
vn -0.674542 0.6500131 0.3499655
vn -0.9548587 0.2970604 0
vn -0.9099401 0.2693859 0.3153417
vn -0.9224296 0.2724795 -0.2736394
vn -0.06355306 0.2211261 -0.9731722
vn 0.111197 0.179906 -0.9773787
vn -0.1104857 0.19143 -0.9752679
vn 0.08274579 0.2753217 -0.9577845
vn -0.2127606 0.1665877 -0.9627987
vn -0.2038191 0.2556498 -0.9450402
vn -0.1357851 0.1652289 -0.9768633
vn -0.234044 0.1277682 -0.9637939
vn 0.04445253 0.2088066 -0.9769462
vn 0.9584724 -0.2851852 6.171266E-09
vn 0.8868226 -0.25827 0.3831999
vn 0.9801489 -0.1982624 0
vn 0.9127837 -0.1817562 0.365774
vn 0.9127836 -0.1817564 -0.365774
vn 0.8852219 -0.2606242 -0.3853013
vn 0.0196191 0.1529344 0.9880416
vn -0.1580654 0.2139065 0.963981
vn 0.001769861 0.2557936 0.9667298
vn -0.145733 0.3760108 0.9150834
vn 0.1287519 0.2152298 0.9680388
vn 0.2039891 0.1464624 0.9679552
vn -0.7782434 0.6279628 0
vn -0.7308075 0.5739225 -0.3695041
vn -0.601891 0.7985783 8.317818E-09
vn -0.5940136 0.7296696 -0.3387184
vn -0.5668023 0.7556 0.3283353
vn -0.7308075 0.5739226 0.3695039
vn 0.01961785 0.1529342 -0.9880416
vn 0.2039865 0.1464649 -0.9679554
vn -0.02320211 0.2343008 -0.9718872
vn 0.1287477 0.2152305 -0.9680391
vn -0.1776285 0.2510205 -0.9515444
vn -0.1580646 0.2139056 -0.9639813
vn 0.9947542 0.1022944 -1.226287E-05
vn 0.8603422 0.1210113 0.4951441
vn 0.9509269 -0.3094155 -2.364592E-06
vn 0.9024214 -0.2539532 0.3480565
vn 0.8984093 -0.2496939 -0.3612669
vn 0.8570431 0.1307558 -0.4983772
vn 0.1240188 -0.01084197 0.9922207
vn -0.09380549 -0.03959427 0.9948029
vn 0.09059446 0.03382538 0.9953133
vn -0.12853 -0.06386566 0.989647
vn 0.2876919 0.09683214 0.9528153
vn 0.3225216 0.05703156 0.9448424
vn -0.9722145 0.2340919 0
vn -0.9060174 0.1710026 -0.387157
vn -0.9849882 0.1726217 -9.984949E-09
vn -0.8953963 0.1553463 -0.4172923
vn -0.8953964 0.1553454 0.4172923
vn -0.9060177 0.1710024 0.3871564
vn 0.1240188 -0.01084103 -0.9922206
vn 0.3225233 0.05703193 -0.9448419
vn 0.09059407 0.03382704 -0.9953132
vn 0.2876913 0.09683878 -0.9528149
vn -0.1285291 -0.06386364 -0.9896472
vn -0.09380626 -0.0395932 -0.9948029
vn 0.6758924 0.7327566 0.07897756
vn 0.5945983 0.6729782 0.4399467
vn 0.7653745 0.6435768 -0.003284595
vn 0.7004022 0.5890946 0.4029944
vn 0.6953995 0.5967953 -0.4003186
vn 0.595692 0.7264394 -0.3426904
vn 0.1528332 0.3067362 0.939444
vn -0.1421217 0.3828015 0.9128332
vn 0.141581 0.1929446 0.9709414
vn -0.09420756 0.2158451 0.9718723
vn 0.3512935 0.3362768 0.873791
vn 0.3854064 0.439525 0.8113443
vn -0.5996735 0.79984 0.02544944
vn -0.6095628 0.7320715 -0.3041455
vn -0.8792665 0.4762587 0.008243206
vn -0.8504124 0.4292639 -0.3041894
vn -0.8389817 0.4541498 0.2997626
vn -0.4459937 0.852714 0.2719713
vn 0.1342763 0.3764526 -0.9166535
vn 0.3618829 0.5253379 -0.7701045
vn 0.1493234 0.2592493 -0.9541972
vn 0.3392191 0.4039342 -0.8495691
vn -0.09469477 0.2905548 -0.9521611
vn -0.1880484 0.4305784 -0.8827458
vn -0.0957853 0.9670501 -0.2358798
vn -0.1780059 0.9817789 -0.06651403
vn -0.05164357 0.9930513 0.1057455
vn 0.0653052 0.9946416 -0.08014536
vn 0.08838243 0.9606302 0.2633975
vn 0.08127253 0.9211881 0.3805353
vn 0.1242748 0.9711541 0.2035081
vn 0.3259074 0.8050048 0.4957334

vt 0.9847603 0.2136884
vt 1.095649 0.2136884
vt 0.9697861 0.1070939
vt 1.095649 0.1070939
vt 0.8738711 0.1070939
vt 0.873871 0.2136884
vt 0.9847603 0.0004994571
vt 0.8738711 0.0004994571
vt 1.095649 0.0004994571
vt 0.4628487 0.3101764
vt 0.1170711 0.4066644
vt 0.4473505 0.1497436
vt 0.0587853 0.203582
vt 0.8903338 0.107094
vt 0.8086262 0.2136885
vt 0.4862704 0.0004996508
vt 0.9720414 0.0004996061
vt 0.0004995167 0.0004996955
vt 0.3796133 0.3245185
vt 0.4692291 0.3245186
vt 0.3796133 0.1625091
vt 0.4686236 0.1625091
vt 0.290603 0.162509
vt 0.2899975 0.3245185
vt 0.3796133 0.0004995763
vt 0.2912085 0.0004995465
vt 0.4680181 0.0004996061
vt 0.4628487 0.3101766
vt 0.8086263 0.2136886
vt 0.4979435 0.1601461
vt 0.8903338 0.1070942
vt 0.05878533 0.2035822
vt 0.1170711 0.4066645
vt 0.4862705 0.0004997998
vt 0.0004995465 0.0004998446
vt 0.9720414 0.0004997551
vt 0.9578646 0.5530074
vt 1.048609 0.5530074
vt 0.9636129 0.383348
vt 1.072129 0.3833479
vt 0.8704958 0.3833479
vt 0.8671206 0.5530074
vt 0.6565222 0.5820572
vt 0.3913662 0.6111072
vt 0.5684511 0.4455807
vt 0.2542187 0.5088858
vt 0.8651521 0.3833479
vt 0.9216781 0.5530073
vt 0.3796132 0.5751146
vt 0.516857 0.5751147
vt 0.3472993 0.4498164
vt 0.4930431 0.4498166
vt 0.2661834 0.4498166
vt 0.2423694 0.5751146
vt 0.6565222 0.5820574
vt 0.9216781 0.5530074
vt 0.548422 0.4468059
vt 0.8651522 0.383348
vt 0.2542187 0.5088859
vt 0.3913663 0.6111073
vt 0.9578646 0.7526902
vt 1.042776 0.7526902
vt 0.9693308 0.6528488
vt 1.045692 0.6528488
vt 0.8700368 0.6528488
vt 0.8729529 0.7526902
vt 0.6475585 0.7515817
vt 0.3627173 0.7553042
vt 0.6708015 0.6671636
vt 0.3770418 0.6832057
vt 0.9270388 0.6504332
vt 0.9323996 0.7478591
vt 0.3796132 0.6617272
vt 0.5525404 0.6617272
vt 0.3796133 0.6184209
vt 0.5346987 0.618421
vt 0.2245277 0.6184209
vt 0.206686 0.6617272
vt 0.6475585 0.7515817
vt 0.9323996 0.7478592
vt 0.6287153 0.6663916
vt 0.9270388 0.6504333
vt 0.3770418 0.6832058
vt 0.3627173 0.7553042
vt 0.9578646 0.9753459
vt 1.059412 0.9753459
vt 0.9606536 0.8640182
vt 1.051094 0.8640181
vt 0.8646353 0.8640181
vt 0.8563178 0.9753459
vt 0.6252948 0.9815832
vt 0.4654948 0.9636663
vt 0.6305836 0.8662834
vt 0.414106 0.8594853
vt 0.8587472 0.8736796
vt 0.7850949 0.9995002
vt 0.3796132 0.8453891
vt 0.5525404 0.8453892
vt 0.3796131 0.7535582
vt 0.5525404 0.7535582
vt 0.206686 0.7535582
vt 0.206686 0.8453891
vt 0.6252948 0.9815834
vt 0.7850949 0.9995003
vt 0.6413627 0.8668352
vt 0.8587472 0.8736798
vt 0.4141061 0.8594853
vt 0.4654948 0.9636664
vt 0.513078 0.9224448
vt 0.4109473 0.8967592
vt 0.3401509 0.9224448
vt 0.4736157 0.9995005
vt 0.3219708 0.9481301
vt 0.2461483 0.9224448
vt 0.3796131 0.9995004
vt 0.2856106 0.9995004

usemtl sn04_16_sn0416.JPG
usemap sn04_16_sn0416.JPG
f 3/3/3 1/1/1 2/2/2
f 4/4/4 3/3/3 2/2/2
f 3/3/3 5/5/5 6/6/6
f 1/1/1 3/3/3 6/6/6
f 3/3/3 7/7/7 8/8/8
f 5/5/5 3/3/3 8/8/8
f 3/3/3 4/4/4 9/9/9
f 7/7/7 3/3/3 9/9/9
f 12/12/12 10/10/10 11/11/11
f 13/13/13 12/12/12 11/11/11
f 12/12/12 14/14/14 15/15/15
f 10/10/10 12/12/12 15/15/15
f 12/12/12 16/16/16 17/17/17
f 14/14/14 12/12/12 17/17/17
f 12/12/12 13/13/13 18/18/18
f 16/16/16 12/12/12 18/18/18
f 21/21/21 19/19/19 20/20/20
f 22/22/22 21/21/21 20/20/20
f 21/21/21 23/23/23 24/24/24
f 19/19/19 21/21/21 24/24/24
f 21/21/21 25/25/25 26/26/26
f 23/23/23 21/21/21 26/26/26
f 21/21/21 22/22/22 27/27/27
f 25/25/25 21/21/21 27/27/27
f 30/30/30 28/28/28 29/29/29
f 31/31/31 30/30/30 29/29/29
f 30/30/30 32/32/32 33/33/33
f 28/28/28 30/30/30 33/33/33
f 30/30/30 34/34/34 35/35/35
f 32/32/32 30/30/30 35/35/35
f 30/30/30 31/31/31 36/36/36
f 34/34/34 30/30/30 36/36/36
f 39/39/39 37/37/37 38/38/38
f 40/40/40 39/39/39 38/38/38
f 39/39/39 41/41/41 42/42/42
f 37/37/37 39/39/39 42/42/42
f 39/39/39 1/1/1 6/6/6
f 41/41/41 39/39/39 6/6/6
f 39/39/39 40/40/40 2/2/2
f 1/1/1 39/39/39 2/2/2
f 45/45/45 43/43/43 44/44/44
f 46/46/46 45/45/45 44/44/44
f 45/45/45 47/47/47 48/48/48
f 43/43/43 45/45/45 48/48/48
f 45/45/45 10/10/10 15/15/15
f 47/47/47 45/45/45 15/15/15
f 45/45/45 46/46/46 11/11/11
f 10/10/10 45/45/45 11/11/11
f 51/51/51 49/49/49 50/50/50
f 52/52/52 51/51/51 50/50/50
f 51/51/51 53/53/53 54/54/54
f 49/49/49 51/51/51 54/54/54
f 51/51/51 19/19/19 24/24/24
f 53/53/53 51/51/51 24/24/24
f 51/51/51 52/52/52 20/20/20
f 19/19/19 51/51/51 20/20/20
f 57/57/57 55/55/55 56/56/56
f 58/58/58 57/57/57 56/56/56
f 57/57/57 59/59/59 60/60/60
f 55/55/55 57/57/57 60/60/60
f 57/57/57 28/28/28 33/33/33
f 59/59/59 57/57/57 33/33/33
f 57/57/57 58/58/58 29/29/29
f 28/28/28 57/57/57 29/29/29
f 63/63/63 61/61/61 62/62/62
f 64/64/64 63/63/63 62/62/62
f 63/63/63 65/65/65 66/66/66
f 61/61/61 63/63/63 66/66/66
f 63/63/63 37/37/37 42/42/42
f 65/65/65 63/63/63 42/42/42
f 63/63/63 64/64/64 38/38/38
f 37/37/37 63/63/63 38/38/38
f 69/69/69 67/67/67 68/68/68
f 70/70/70 69/69/69 68/68/68
f 69/69/69 71/71/71 72/72/72
f 67/67/67 69/69/69 72/72/72
f 69/69/69 43/43/43 48/48/48
f 71/71/71 69/69/69 48/48/48
f 69/69/69 70/70/70 44/44/44
f 43/43/43 69/69/69 44/44/44
f 75/75/75 73/73/73 74/74/74
f 76/76/76 75/75/75 74/74/74
f 75/75/75 77/77/77 78/78/78
f 73/73/73 75/75/75 78/78/78
f 75/75/75 49/49/49 54/54/54
f 77/77/77 75/75/75 54/54/54
f 75/75/75 76/76/76 50/50/50
f 49/49/49 75/75/75 50/50/50
f 81/81/81 79/79/79 80/80/80
f 82/82/82 81/81/81 80/80/80
f 81/81/81 83/83/83 84/84/84
f 79/79/79 81/81/81 84/84/84
f 81/81/81 55/55/55 60/60/60
f 83/83/83 81/81/81 60/60/60
f 81/81/81 82/82/82 56/56/56
f 55/55/55 81/81/81 56/56/56
f 87/87/87 85/85/85 86/86/86
f 88/88/88 87/87/87 86/86/86
f 87/87/87 89/89/89 90/90/90
f 85/85/85 87/87/87 90/90/90
f 87/87/87 61/61/61 66/66/66
f 89/89/89 87/87/87 66/66/66
f 87/87/87 88/88/88 62/62/62
f 61/61/61 87/87/87 62/62/62
f 93/93/93 91/91/91 92/92/92
f 94/94/94 93/93/93 92/92/92
f 93/93/93 95/95/95 96/96/96
f 91/91/91 93/93/93 96/96/96
f 93/93/93 67/67/67 72/72/72
f 95/95/95 93/93/93 72/72/72
f 93/93/93 94/94/94 68/68/68
f 67/67/67 93/93/93 68/68/68
f 99/99/99 97/97/97 98/98/98
f 100/100/100 99/99/99 98/98/98
f 99/99/99 101/101/101 102/102/102
f 97/97/97 99/99/99 102/102/102
f 99/99/99 73/73/73 78/78/78
f 101/101/101 99/99/99 78/78/78
f 99/99/99 100/100/100 74/74/74
f 73/73/73 99/99/99 74/74/74
f 105/105/105 103/103/103 104/104/104
f 106/106/106 105/105/105 104/104/104
f 105/105/105 107/107/107 108/108/108
f 103/103/103 105/105/105 108/108/108
f 105/105/105 79/79/79 84/84/84
f 107/107/107 105/105/105 84/84/84
f 105/105/105 106/106/106 80/80/80
f 79/79/79 105/105/105 80/80/80
f 110/110/110 109/109/109 98/98/98
f 97/97/97 110/110/110 98/98/98
f 110/110/110 111/111/111 112/112/112
f 109/109/109 110/110/110 112/112/112
f 110/110/110 97/97/97 102/102/102
f 111/111/111 110/110/110 102/102/102
f 113/113/113 111/111/111 102/102/102
f 114/114/114 113/113/113 102/102/102
f 113/113/113 115/115/115 112/112/112
f 111/111/111 113/113/113 112/112/112
f 113/113/113 114/114/114 116/116/116
f 115/115/115 113/113/113 116/116/116
