mtllib ./Line01.mtl
g Line01
v 63.16443 -0.006814452 -21.44975
v -123.5396 -0.006896807 -21.7224
v -123.5396 40.48087 -21.73462
v 63.16443 40.48096 -21.46197
v -123.5396 -0.006896807 -21.7224
v -123.5384 -0.0056411 -17.56509
v -123.5384 40.48213 -17.57732
v -123.5396 40.48087 -21.73462
v -112.3962 -0.005644377 -17.57594
v -112.3814 -0.004579952 -14.05192
v -112.3814 40.48319 -14.06414
v -112.3962 40.48213 -17.58817
v -101.0206 -0.004579337 -14.04989
v -101.007 -0.003380436 -10.08065
v -101.007 40.48439 -10.09287
v -101.0206 40.48319 -14.06211
v -89.92993 -0.00338576 -10.09828
v -89.92993 -0.002228693 -6.267545
v -89.92993 40.48554 -6.279766
v -89.92993 40.48439 -10.1105
v -80.51953 -0.002258532 -6.366331
v -80.5199 -0.001198598 -2.857179
v -80.5199 40.48657 -2.8694
v -80.51953 40.48551 -6.378552
v -70.54553 -0.001200571 -2.863709
v -70.60327 -8.594727E-05 0.826506
v -70.60327 40.48769 0.8142843
v -70.54553 40.48657 -2.875933
v -60.09094 -9.89744E-05 0.7833767
v -59.87463 0.001015652 4.473601
v -59.87463 40.48878 4.46138
v -60.09094 40.48767 0.7711551
v -49.33771 0.00101931 4.485713
v -49.3385 0.002153333 8.240154
v -49.3385 40.48993 8.227933
v -49.33771 40.48879 4.47349
v -38.82629 0.002143829 8.208689
v -38.83887 0.003243184 11.84836
v -38.83887 40.49101 11.83613
v -38.82629 40.48991 8.196467
v -28.76373 0.003204428 11.72005
v -28.76837 0.004254776 15.19746
v -28.76837 40.49203 15.18524
v -28.76373 40.49097 11.70782
v -18.80066 0.004224858 15.09841
v -18.78088 0.005317055 18.71438
v -18.78088 40.49306 18.70216
v -18.80066 40.492 15.08619
v -8.203308 0.005321921 18.73049
v -8.258484 0.006367171 22.19103
v -8.258484 40.49411 22.1788
v -8.203308 40.49306 18.71827
v 1.589417 0.006346391 22.12223
v 1.648132 0.007582156 26.21351
v 1.648132 40.49532 26.20129
v 1.589417 40.49409 22.11001
v 11.073 0.007574776 26.18908
v 11.06372 0.008575064 29.50076
v 11.06372 40.49632 29.48854
v 11.073 40.49532 26.17686
v 22.14087 0.008608711 29.61216
v 22.13672 0.009689844 33.1915
v 22.13672 40.49743 33.17928
v 22.14087 40.49635 29.59994
v 32.02509 0.009745734 33.37653
v 32.0224 0.01069187 36.50893
v 32.0224 40.49843 36.49671
v 32.02509 40.49749 33.36431
v 42.12744 0.01072897 36.63176
v 42.08911 0.01170122 39.85062
v 42.08911 40.49944 39.8384
v 42.12744 40.49847 36.61954
v 51.93176 0.01168334 39.79142
v 51.83148 0.01290067 43.82166
v 51.83148 40.50064 43.80943
v 51.93176 40.49942 39.77921
v 63.43719 0.01287496 43.73656
v 63.16443 -0.006814452 -21.44975
v 63.16443 40.48096 -21.46197
v 63.43719 40.50061 43.72434

vn 0.001460366 -0.9999989 0.0003018379
vn 0.001460361 -0.9999988 0.0003018975
vn 0.001460366 -0.9999989 0.0003018379
vn 0.001460371 -0.9999988 0.0003017783
vn -1 0.0002936282 -8.862116E-08
vn -1 0.0002936283 -8.862116E-08
vn -1 0.0002936282 -8.862116E-08
vn -1 0.0002936281 -8.862116E-08
vn -0.9999912 0.004191339 -1.264736E-06
vn -0.9999912 0.004191338 -1.264736E-06
vn -0.9999912 0.004191339 -1.264736E-06
vn -0.9999912 0.00419134 -1.264736E-06
vn -0.9999942 0.003413684 -1.030276E-06
vn -0.9999942 0.003413683 -1.030276E-06
vn -0.9999942 0.003413684 -1.030276E-06
vn -0.9999942 0.003413685 -1.030276E-06
vn -1 0 0
vn -1 0 0
vn -1 0 0
vn -1 0 0
vn -1 -0.0001043588 3.149762E-08
vn -1 -0.0001043588 3.149762E-08
vn -1 -0.0001043588 3.149762E-08
vn -1 -0.0001043588 3.149762E-08
vn -0.9998776 -0.01564466 4.721805E-06
vn -0.9998777 -0.01564467 4.719943E-06
vn -0.9998776 -0.01564466 4.721805E-06
vn -0.9998776 -0.01564465 4.721805E-06
vn -0.9982865 0.0585162 -1.76616E-05
vn -0.9982865 0.0585162 -1.765788E-05
vn -0.9982865 0.0585162 -1.76616E-05
vn -0.9982865 0.05851619 -1.76616E-05
vn -1 -0.0002113382 6.378104E-08
vn -1 -0.0002113382 6.378104E-08
vn -1 -0.0002113382 6.378104E-08
vn -1 -0.0002113381 6.37956E-08
vn -0.999994 -0.003454482 1.042616E-06
vn -0.999994 -0.003454482 1.042616E-06
vn -0.999994 -0.003454482 1.042616E-06
vn -0.999994 -0.003454482 1.042616E-06
vn -0.9999992 -0.001333941 4.026806E-07
vn -0.9999992 -0.001333941 4.026806E-07
vn -0.9999992 -0.001333941 4.026806E-07
vn -0.9999992 -0.001333941 4.026806E-07
vn -0.9999851 0.005468825 -1.650304E-06
vn -0.9999851 0.005468829 -1.650304E-06
vn -0.9999851 0.005468825 -1.650304E-06
vn -0.9999851 0.005468821 -1.650769E-06
vn -0.9998729 -0.01594225 4.811212E-06
vn -0.9998729 -0.01594226 4.811212E-06
vn -0.9998729 -0.01594225 4.811212E-06
vn -0.9998729 -0.01594225 4.811212E-06
vn -0.9998971 0.01434997 -4.33065E-06
vn -0.9998971 0.01434997 -4.33065E-06
vn -0.9998971 0.01434997 -4.33065E-06
vn -0.9998971 0.01434997 -4.33065E-06
vn -0.999996 -0.002801387 8.454081E-07
vn -0.9999961 -0.002801388 8.454081E-07
vn -0.999996 -0.002801387 8.454081E-07
vn -0.9999961 -0.002801386 8.454081E-07
vn -0.9999994 -0.00115954 3.499445E-07
vn -0.9999994 -0.00115954 3.499445E-07
vn -0.9999994 -0.00115954 3.499445E-07
vn -0.9999993 -0.00115954 3.499445E-07
vn -0.9999996 -0.0008573442 2.587331E-07
vn -0.9999996 -0.0008573442 2.587331E-07
vn -0.9999996 -0.0008573442 2.587331E-07
vn -0.9999996 -0.0008573442 2.587331E-07
vn -0.9999292 -0.01190712 3.593974E-06
vn -0.9999292 -0.01190712 3.593974E-06
vn -0.9999292 -0.01190712 3.593974E-06
vn -0.9999292 -0.01190712 3.593974E-06
vn -0.9996906 -0.02487445 7.50646E-06
vn -0.9996906 -0.02487443 7.50646E-06
vn -0.9996906 -0.02487445 7.50646E-06
vn -0.9996906 -0.02487445 7.504597E-06
vn 0.9999912 -0.00418437 1.262873E-06
vn 0.9999912 -0.00418437 1.262873E-06
vn 0.9999912 -0.00418437 1.262873E-06
vn 0.9999912 -0.00418437 1.262873E-06

vt 0.5674362 0
vt 0.8572913 0
vt 0.8572913 1
vt 0.5674362 1
vt 0.5674362 0
vt 0.8572913 0
vt 0.8572913 1
vt 0.5674362 1
vt 0.5674362 0
vt 0.8572913 0
vt 0.8572913 1
vt 0.5674362 1
vt 0.5674362 0
vt 0.8572913 0
vt 0.8572913 1
vt 0.5674362 1
vt 0.5674362 0
vt 0.8572913 0
vt 0.8572913 1
vt 0.5674362 1
vt 0.5674362 0
vt 0.8572913 0
vt 0.8572913 1
vt 0.5674362 1
vt 0.5674362 0
vt 0.8572913 0
vt 0.8572913 1
vt 0.5674362 1
vt 0.5674362 0
vt 0.8572913 0
vt 0.8572913 1
vt 0.5674362 1
vt 0.5674362 0
vt 0.8572913 0
vt 0.8572913 1
vt 0.5674362 1
vt 0.5674362 0
vt 0.8572913 0
vt 0.8572913 1
vt 0.5674362 1
vt 0.5674362 0
vt 0.8572913 0
vt 0.8572913 1
vt 0.5674362 1
vt 0.5674362 0
vt 0.8572913 0
vt 0.8572913 1
vt 0.5674362 1
vt 0.5674362 0
vt 0.8572913 0
vt 0.8572913 1
vt 0.5674362 1
vt 0.5674362 0
vt 0.8572913 0
vt 0.8572913 1
vt 0.5674362 1
vt 0.5674362 0
vt 0.8572913 0
vt 0.8572913 1
vt 0.5674362 1
vt 0.5674362 0
vt 0.8572913 0
vt 0.8572913 1
vt 0.5674362 1
vt 0.5674362 0
vt 0.8572913 0
vt 0.8572913 1
vt 0.5674362 1
vt 0.5674362 0
vt 0.8572913 0
vt 0.8572913 1
vt 0.5674362 1
vt 0.5674362 0
vt 0.8572913 0
vt 0.8572913 1
vt 0.5674362 1
vt 0.5674362 0
vt 0.8572913 0
vt 0.8572913 1
vt 0.5674362 1

usemtl sn01_08_sn01T-03.jpg
usemap sn01_08_sn01T-03.jpg
f 3/3/3 1/1/1 2/2/2
f 4/4/4 1/1/1 3/3/3
f 7/7/7 5/5/5 6/6/6
f 8/8/8 5/5/5 7/7/7
f 11/11/11 9/9/9 10/10/10
f 12/12/12 9/9/9 11/11/11
f 15/15/15 13/13/13 14/14/14
f 16/16/16 13/13/13 15/15/15
f 19/19/19 17/17/17 18/18/18
f 20/20/20 17/17/17 19/19/19
f 23/23/23 21/21/21 22/22/22
f 24/24/24 21/21/21 23/23/23
f 27/27/27 25/25/25 26/26/26
f 28/28/28 25/25/25 27/27/27
f 31/31/31 29/29/29 30/30/30
f 32/32/32 29/29/29 31/31/31
f 35/35/35 33/33/33 34/34/34
f 36/36/36 33/33/33 35/35/35
f 39/39/39 37/37/37 38/38/38
f 40/40/40 37/37/37 39/39/39
f 43/43/43 41/41/41 42/42/42
f 44/44/44 41/41/41 43/43/43
f 47/47/47 45/45/45 46/46/46
f 48/48/48 45/45/45 47/47/47
f 51/51/51 49/49/49 50/50/50
f 52/52/52 49/49/49 51/51/51
f 55/55/55 53/53/53 54/54/54
f 56/56/56 53/53/53 55/55/55
f 59/59/59 57/57/57 58/58/58
f 60/60/60 57/57/57 59/59/59
f 63/63/63 61/61/61 62/62/62
f 64/64/64 61/61/61 63/63/63
f 67/67/67 65/65/65 66/66/66
f 68/68/68 65/65/65 67/67/67
f 71/71/71 69/69/69 70/70/70
f 72/72/72 69/69/69 71/71/71
f 75/75/75 73/73/73 74/74/74
f 76/76/76 73/73/73 75/75/75
f 79/79/79 77/77/77 78/78/78
f 80/80/80 77/77/77 79/79/79
