mtllib ./Mesh01.mtl
g Mesh01
v 131.6959 723.0854 118.8657
v 0.0305891 723.041 180.8578
v 0.08872128 413.2815 180.7765
v 131.7541 413.392 118.7843
v 143.7013 723.1043 89.88222
v 143.7594 413.4388 89.80086
v 0.03244019 723.0957 -181.1987
v 131.7908 723.0851 -119.0249
v 131.8489 413.391 -119.1062
v 0.09057236 413.4174 -181.28
v 143.8774 723.1127 -89.84532
v 143.9355 413.4598 -89.92668
v 181.0121 723.0325 0.0001754761
v 181.0702 413.2607 -0.08118248
v -144.0142 723.0829 -89.55322
v -128.0076 723.061 -128.1942
v -127.9495 413.3314 -128.2755
v -143.956 413.3859 -89.63458
v -128.0098 723.0475 127.7954
v -127.9517 413.2978 127.7141
v -128.0098 723.0475 127.7954
v -143.5962 723.0711 90.17403
v -143.5381 413.3563 90.09267
v -127.9517 413.2978 127.7141
v -181.0279 723.0366 -0.1941166
v -180.9698 413.2706 -0.2754765

vn 0.4856454 -0.000138503 0.8741559
vn -0.1130852 -0.0002822026 0.9935853
vn 0.1782902 -0.0002250168 0.9839779
vn 0.6103709 -9.355399E-05 0.7921157
vn 0.9237018 7.27501E-05 0.3831123
vn 0.9236277 7.268302E-05 0.383291
vn 0.1792574 0.0002921087 -0.9838022
vn 0.6115672 0.0003226569 -0.7911924
vn 0.4866473 0.0003208564 -0.8735985
vn -0.1123256 0.0002399624 -0.9936714
vn 0.9241313 0.0002738402 -0.3820751
vn 0.9240568 0.0002739122 -0.382255
vn 0.9904759 0.000149729 0.1376859
vn 0.9907368 0.0002216342 -0.1357955
vn -0.9238756 -7.289221E-05 -0.3826926
vn -0.4694246 0.0001438433 -0.8829725
vn -0.6312943 8.522585E-05 -0.7755434
vn -0.9238781 -7.288934E-05 -0.3826869
vn -0.3828456 -0.0003145126 0.9238123
vn -0.3828456 -0.0003144963 0.9238123
vn -0.9238531 -0.0002739442 0.382747
vn -0.9238747 -0.000273931 0.3826946
vn -0.9238674 -0.0002739461 0.3827125
vn -0.9238532 -0.0002739288 0.3827469
vn -0.990881 -0.0001505832 -0.1347396
vn -0.9903255 -0.0002223243 0.1387639

vt -0.6856143 0.9335248
vt -1.236358 0.8261681
vt -1.236146 0.01719151
vt -0.6852453 0.01755987
vt -0.5701651 0.9791203
vt -0.5697771 0.01771624
vt 0.8344607 0.9582812
vt 0.2827629 0.9326048
vt 0.2828428 0.01755671
vt 0.8342493 0.01764484
vt 0.1663982 0.9995005
vt 0.1665472 0.01778625
vt -0.2017146 0.8058512
vt -0.2014181 0.0171219
vt 1.503938 0.9276426
vt 1.352307 0.8746033
vt 1.351947 0.01735772
vt 1.50355 0.01753967
vt -1.754142 0.8420021
vt -1.754202 0.01724587
vt 2.387646 0.8420021
vt 2.240259 0.8988925
vt 2.240111 0.01744108
vt 2.387586 0.01724587
vt 1.87001 0.8155193
vt 1.869714 0.01715507

usemtl sn01_11_sn01l.jpg
usemap sn01_11_sn01l.jpg
f 3/3/3 1/1/1 2/2/2
f 1/1/1 3/3/3 4/4/4
f 4/4/4 5/5/5 1/1/1
f 5/5/5 4/4/4 6/6/6
f 9/9/9 7/7/7 8/8/8
f 7/7/7 9/9/9 10/10/10
f 12/12/12 8/8/8 11/11/11
f 8/8/8 12/12/12 9/9/9
f 6/6/6 13/13/13 5/5/5
f 13/13/13 6/6/6 14/14/14
f 17/17/17 15/15/15 16/16/16
f 15/15/15 17/17/17 18/18/18
f 20/20/20 2/2/2 19/19/19
f 2/2/2 20/20/20 3/3/3
f 23/23/23 21/21/21 22/22/22
f 21/21/21 23/23/23 24/24/24
f 18/18/18 25/25/25 15/15/15
f 25/25/25 18/18/18 26/26/26
f 26/26/26 22/22/22 25/25/25
f 22/22/22 26/26/26 23/23/23
f 14/14/14 11/11/11 13/13/13
f 11/11/11 14/14/14 12/12/12
f 10/10/10 16/16/16 7/7/7
f 16/16/16 10/10/10 17/17/17
