mtllib ./Object24.mtl
g Object24
v 22.71632 -6.761204 -45.04508
v 22.71632 -2.237963 -56.17241
v -22.71547 -6.761199 -45.04511
v -22.71547 -2.237952 -56.17243
v 22.71632 -6.882945 -32.06996
v 22.71632 -2.359697 -43.19728
v -22.71547 -6.88294 -32.06999
v -22.71547 -2.359686 -43.19731
v 22.71632 -7.004685 -19.09484
v 22.71632 -2.481438 -30.22216
v -22.71547 -7.004685 -19.09484
v -22.71547 -2.481438 -30.22216
v 22.71632 -7.126413 -6.119736
v 22.71632 -2.603179 -17.24705
v -22.71547 -7.126413 -6.119736
v -22.71547 -2.603172 -17.24704
v 22.71632 -7.248154 6.855382
v 22.71632 -2.724907 -4.271939
v -22.71547 -7.248154 6.855382
v -22.71547 -2.724907 -4.271939
v 22.71632 -7.369895 19.8305
v 22.71632 -2.846653 8.703193
v -22.71547 -7.369895 19.8305
v -22.71547 -2.84664 8.703181
v 22.71632 -7.491629 32.80562
v 22.71632 -2.968387 21.67831
v -22.71547 -7.491629 32.80562
v -22.71547 -2.968381 21.6783
v 22.71632 -7.613362 45.78074
v 22.71632 -3.090128 34.65343
v -22.71547 -7.613362 45.78074
v -22.71547 -3.090115 34.65342
v 22.71632 -7.735103 58.75586
v 22.71632 -3.211856 47.62854
v -22.71547 -7.735103 58.75586
v -22.71547 -3.211854 47.62856
v 22.71632 -7.479579 70.79704
v 22.71632 -3.333602 60.60367
v -22.71547 -7.479572 70.79704
v -22.71547 -3.333595 60.60368
v 22.71632 -7.349196 83.87418
v 22.71632 -2.825949 72.74686
v -22.71547 -7.349189 83.87419
v -22.71547 -2.825943 72.74685
v 22.71632 -7.480687 96.8735
v 22.71632 -2.947689 85.722
v -22.71547 -7.480701 96.8735
v -22.71547 -2.947683 85.72198
v 22.71632 -7.603635 109.8516
v 22.71632 -3.059659 98.67293
v -22.71547 -7.603635 109.8516
v -22.71547 -3.059653 98.67292
v 22.71632 -7.714417 122.7996
v 22.71632 -3.180189 111.6451
v -22.71547 -7.714423 122.7996
v -22.71547 -3.180197 111.6451
v 22.71632 -7.836144 135.7747
v 22.71632 -3.336841 124.4897
v -22.71547 -7.836153 135.7747
v -22.71547 -3.336829 124.4897
v 22.71632 -6.478081 145.0106
v 22.71632 -3.434794 137.4588
v -22.71547 -6.478067 145.0106
v -22.71547 -3.434794 137.4588

vn 1.970655E-07 0.9999982 -0.001890689
vn 9.252373E-08 0.9999982 -0.001891106
vn 9.252373E-08 0.9999982 -0.001891106
vn -1.201804E-08 0.9999983 -0.001891524
vn 1.654468E-07 0.9999982 -0.001891375
vn 7.671453E-08 0.9999982 -0.001891732
vn 7.671453E-08 0.9999982 -0.001891732
vn -1.201772E-08 0.9999982 -0.00189203
vn 0 0.9999982 -0.001891494
vn 0 0.9999982 -0.001891494
vn 0 0.9999982 -0.001891494
vn 0 0.9999982 -0.001891494
vn 0 0.9999982 -0.001890779
vn -8.082764E-08 0.9999982 -0.001891106
vn -8.082764E-08 0.9999982 -0.001891106
vn -1.616553E-07 0.9999981 -0.001891434
vn 0 0.9999982 -0.001891494
vn 0 0.9999982 -0.001891494
vn 0 0.9999982 -0.001891494
vn 0 0.9999982 -0.001891494
vn 0 0.9999982 -0.001891375
vn -8.383211E-08 0.9999982 -0.001891762
vn -8.383211E-08 0.9999982 -0.001891762
vn -1.676641E-07 0.9999983 -0.00189203
vn 0 0.9999981 -0.001891434
vn 4.900289E-09 0.9999983 -0.001891404
vn 4.900289E-09 0.9999983 -0.001891404
vn 9.80057E-09 0.9999982 -0.001891375
vn 0 0.9999982 -0.001890749
vn -8.383221E-08 0.9999982 -0.001891047
vn -8.383221E-08 0.9999982 -0.001891047
vn -1.676643E-07 0.9999982 -0.001891375
vn 0 0.9999983 -0.001891524
vn -7.782315E-08 0.9999982 -0.001891792
vn -7.782315E-08 0.9999982 -0.001891792
vn -1.556464E-07 0.9999982 -0.00189206
vn -1.458337E-07 0.9999979 -0.002092063
vn -1.616512E-07 0.9999977 -0.002092123
vn -1.616512E-07 0.9999977 -0.002092123
vn -1.774686E-07 0.9999979 -0.002092183
vn -2.090841E-07 0.9999982 -0.001891494
vn -9.964182E-08 0.9999982 -0.001891077
vn -9.964182E-08 0.9999982 -0.001891077
vn 9.800302E-09 0.9999982 -0.00189063
vn 3.549295E-07 0.9999981 -0.001885295
vn 1.823641E-07 0.9999983 -0.001885951
vn 1.823641E-07 0.9999983 -0.001885951
vn 9.798849E-09 0.9999983 -0.001886636
vn 0 0.9999983 -0.00188008
vn -2.672012E-08 0.9999982 -0.001880139
vn -2.672012E-08 0.9999982 -0.001880139
vn -5.344022E-08 0.9999983 -0.001880258
vn -9.799125E-09 0.9999983 -0.001887381
vn 1.750341E-07 0.9999982 -0.001886666
vn 1.750341E-07 0.9999982 -0.001886666
vn 3.598666E-07 0.9999983 -0.001885951
vn 4.242599E-07 0.9999884 0.004820853
vn 1.884275E-07 0.9999883 0.004820019
vn 1.884275E-07 0.9999883 0.004820019
vn -4.740476E-08 0.9999884 0.004819125
vn -2.920475E-07 0.9999993 0.001124084
vn -1.460238E-07 0.9999993 0.001124889
vn -1.460238E-07 0.9999993 0.001124889
vn 0 0.9999994 0.001125753

vt 2.164661 0.9995
vt 1.948627 0.9995001
vt 2.16466 0.0005007982
vt 1.948626 0.000500828
vt 2.596729 0.9995
vt 2.380694 0.9995
vt 2.596728 0.0005007088
vt 2.380694 0.0005007684
vt 3.028796 0.9994999
vt 2.812762 0.9994999
vt 3.028796 0.0005006194
vt 2.812762 0.000500679
vt 3.460864 0.9994998
vt 3.24483 0.9994999
vt 3.460864 0.0005005598
vt 3.24483 0.0005005896
vt 3.892932 0.9994997
vt 3.676898 0.9994998
vt 3.892931 0.0005004704
vt 3.676898 0.0005005002
vt 4.325 0.9994997
vt 4.108966 0.9994997
vt 4.324999 0.000500381
vt 4.108965 0.0005004108
vt 4.757068 0.9994996
vt 4.541034 0.9994996
vt 4.757067 0.0005002916
vt 4.541034 0.0005003512
vt 5.189136 0.9994994
vt 4.973102 0.9994996
vt 5.189136 0.0005002022
vt 4.973101 0.0005002618
vt 5.621203 0.9994994
vt 5.405169 0.9994994
vt 5.621203 0.0005001128
vt 5.405169 0.0005001724
vt 6.053271 0.9994993
vt 5.837237 0.9994993
vt 6.053271 0.0005000532
vt 5.837236 0.000500083
vt 6.485339 0.9994992
vt 6.269305 0.9994993
vt 6.485338 0.0004999638
vt 6.269305 0.0004999936
vt 6.917407 0.9994991
vt 6.701373 0.9994992
vt 6.917407 0.0004998744
vt 6.701373 0.0004999042
vt 7.349475 0.9994991
vt 7.133441 0.9994991
vt 7.349474 0.0004997849
vt 7.13344 0.0004998446
vt 7.781543 0.999499
vt 7.565509 0.999499
vt 7.781543 0.0004996955
vt 7.565509 0.0004997551
vt 8.213611 0.9994988
vt 7.997577 0.999499
vt 8.213611 0.0004996061
vt 7.997577 0.0004996657
vt 8.645679 0.9994988
vt 8.429645 0.9994988
vt 8.645678 0.0004995465
vt 8.429645 0.0004995763

usemtl sn01_08_sn01T-03.jpg
usemap sn01_08_sn01T-03.jpg
f 3/3/3 1/1/1 2/2/2
f 2/2/2 4/4/4 3/3/3
f 7/7/7 5/5/5 6/6/6
f 6/6/6 8/8/8 7/7/7
f 11/11/11 9/9/9 10/10/10
f 10/10/10 12/12/12 11/11/11
f 15/15/15 13/13/13 14/14/14
f 14/14/14 16/16/16 15/15/15
f 19/19/19 17/17/17 18/18/18
f 18/18/18 20/20/20 19/19/19
f 23/23/23 21/21/21 22/22/22
f 22/22/22 24/24/24 23/23/23
f 27/27/27 25/25/25 26/26/26
f 26/26/26 28/28/28 27/27/27
f 31/31/31 29/29/29 30/30/30
f 30/30/30 32/32/32 31/31/31
f 35/35/35 33/33/33 34/34/34
f 34/34/34 36/36/36 35/35/35
f 39/39/39 37/37/37 38/38/38
f 38/38/38 40/40/40 39/39/39
f 43/43/43 41/41/41 42/42/42
f 42/42/42 44/44/44 43/43/43
f 47/47/47 45/45/45 46/46/46
f 46/46/46 48/48/48 47/47/47
f 51/51/51 49/49/49 50/50/50
f 50/50/50 52/52/52 51/51/51
f 55/55/55 53/53/53 54/54/54
f 54/54/54 56/56/56 55/55/55
f 59/59/59 57/57/57 58/58/58
f 58/58/58 60/60/60 59/59/59
f 63/63/63 61/61/61 62/62/62
f 62/62/62 64/64/64 63/63/63
