mtllib ./Plane01.mtl
g Plane01
v 22.67963 -2.238192 -56.08949
v 22.67963 -6.639695 -57.93721
v -22.67914 -2.238181 -56.08951
v -22.67914 -6.639699 -57.93718
v 22.67963 -2.359926 -43.13377
v 22.67963 -6.761433 -44.98147
v -22.67914 -2.359926 -43.13377
v -22.67914 -6.76144 -44.98147
v 22.67963 -2.481667 -30.17806
v 22.67963 -6.883173 -32.02576
v -22.67914 -2.481673 -30.17805
v -22.67914 -6.883181 -32.02576
v 22.67963 -2.603408 -17.22235
v 22.67963 -7.004914 -19.07005
v -22.67914 -2.603401 -17.22235
v -22.67914 -7.004914 -19.07005
v 22.67963 -2.725141 -4.266637
v 22.67963 -7.126648 -6.114334
v -22.67914 -2.725141 -4.266637
v -22.67914 -7.126648 -6.114334
v 22.67963 -2.846882 8.689074
v 22.67963 -7.248389 6.841376
v -22.67914 -2.846875 8.689076
v -22.67914 -7.248389 6.841376
v 22.67963 -2.968621 21.6448
v 22.67963 -7.37013 19.79709
v -22.67914 -2.968616 21.64479
v -22.67914 -7.37013 19.79709
v 22.67963 -3.090362 34.60051
v 22.67963 -7.491863 32.7528
v -22.67914 -3.090349 34.6005
v -22.67914 -7.491863 32.7528
v 22.67963 -3.21209 47.55621
v 22.67963 -7.613597 45.70851
v -22.67914 -3.212089 47.55623
v -22.67914 -7.613597 45.70851
v 22.67963 -3.333837 60.51194
v 22.67963 -7.735338 58.66422
v -22.67914 -3.33383 60.51194
v -22.67914 -7.735343 58.66424
v 22.67963 -2.826184 72.63734
v 22.67963 -7.479814 70.68761
v -22.67914 -2.826184 72.63734
v -22.67914 -7.479806 70.68761
v 22.67963 -2.947917 85.59306
v 22.67963 -7.349425 83.74534
v -22.67914 -2.947917 85.59306
v -22.67914 -7.349424 83.74535
v 22.67963 -3.059888 98.52462
v 22.67963 -7.480921 96.72522
v -22.67914 -3.059893 98.52463
v -22.67914 -7.480936 96.72521
v 22.67963 -3.180421 111.4774
v 22.67963 -7.60387 109.6839
v -22.67914 -3.180435 111.4774
v -22.67914 -7.603867 109.6839
v 22.67963 -3.337073 124.3028
v 22.67963 -7.714649 122.6125
v -22.67914 -3.337067 124.3028
v -22.67914 -7.714658 122.6125
v 22.67963 -3.435035 137.2525
v 22.67963 -7.836379 135.5682
v -22.67914 -3.435035 137.2525
v -22.67914 -7.836387 135.5682
v -22.67914 -2.819161 146.5836
v 22.67963 -2.819161 146.5836
v 22.67963 -6.47831 144.7912
v -22.67914 -6.478307 144.7912

vn 6.40473E-07 0.01324826 -0.9999123
vn -4.702713E-08 0.01324177 -0.9999123
vn -4.702713E-08 0.01324177 -0.9999123
vn -7.345286E-07 0.01323524 -0.9999123
vn 0 0.01324207 -0.9999123
vn 8.254592E-09 0.01324213 -0.9999123
vn 8.254592E-09 0.01324213 -0.9999123
vn 1.650917E-08 0.01324219 -0.9999124
vn -3.590091E-07 0.01324168 -0.9999123
vn -1.7125E-07 0.01324347 -0.9999123
vn -1.7125E-07 0.01324347 -0.9999123
vn 1.650864E-08 0.01324522 -0.9999124
vn 2.022881E-08 0.01324207 -0.9999123
vn 1.01144E-08 0.01324198 -0.9999124
vn 1.01144E-08 0.01324198 -0.9999124
vn 0 0.01324186 -0.9999123
vn 0 0.01324186 -0.9999123
vn 0 0.01324186 -0.9999123
vn 0 0.01324186 -0.9999123
vn 0 0.01324186 -0.9999123
vn 2.877038E-09 0.01324186 -0.9999123
vn 1.438518E-09 0.01324183 -0.9999123
vn 1.438518E-09 0.01324183 -0.9999123
vn 0 0.0132418 -0.9999123
vn 3.202365E-07 0.01324484 -0.9999123
vn 1.601182E-07 0.01324329 -0.9999123
vn 1.601182E-07 0.01324329 -0.9999123
vn 0 0.0132418 -0.9999123
vn 3.425003E-07 0.01324475 -0.9999123
vn 1.7125E-07 0.01324308 -0.9999123
vn 1.7125E-07 0.01324308 -0.9999123
vn 0 0.01324144 -0.9999123
vn -3.775528E-07 0.01324207 -0.9999123
vn -1.887762E-07 0.01324385 -0.9999123
vn -1.887762E-07 0.01324385 -0.9999123
vn 0 0.01324564 -0.9999123
vn 6.103637E-08 0.01324546 -0.9999122
vn -1.489865E-07 0.01324347 -0.9999123
vn -1.489865E-07 0.01324347 -0.9999123
vn -3.59009E-07 0.01324144 -0.9999123
vn 0 0.01254648 -0.9999212
vn 3.046738E-08 0.01254675 -0.9999213
vn 3.046738E-08 0.01254675 -0.9999213
vn 6.09348E-08 0.01254705 -0.9999213
vn 0 0.01324564 -0.9999123
vn -1.489864E-07 0.01324424 -0.9999124
vn -1.489864E-07 0.01324424 -0.9999124
vn -2.979731E-07 0.01324281 -0.9999124
vn -2.033478E-07 0.002328843 -0.9999973
vn -8.32239E-08 0.002330035 -0.9999973
vn -8.32239E-08 0.002330035 -0.9999973
vn 3.689967E-08 0.002331197 -0.9999973
vn 3.737723E-08 0.0009877682 -0.9999996
vn 1.084766E-07 0.0009884536 -0.9999995
vn 1.084766E-07 0.0009884536 -0.9999995
vn 1.795761E-07 0.0009891093 -0.9999994
vn 3.592608E-07 -0.01571757 -0.9998764
vn -8.98152E-08 -0.01572189 -0.9998764
vn -8.98152E-08 -0.01572189 -0.9998764
vn -5.388912E-07 -0.01572624 -0.9998764
vn 0 -0.01871625 -0.9998249
vn 2.80367E-07 -0.01871353 -0.9998249
vn 2.80367E-07 -0.01871353 -0.9998249
vn 5.607328E-07 -0.01871088 -0.9998249
vn -4.392842E-07 0.0712212 -0.9974605
vn 0 0.07122606 -0.9974601
vn -4.392842E-07 0.0712212 -0.9974605
vn -8.785707E-07 0.07121632 -0.9974608

vt 1.948627 0.9995001
vt 1.732593 0.9995002
vt 1.948626 0.000500828
vt 1.732592 0.0005008876
vt 2.380694 0.9995
vt 2.164661 0.9995
vt 2.380694 0.0005007684
vt 2.16466 0.0005007982
vt 2.812762 0.9994999
vt 2.596729 0.9995
vt 2.812762 0.000500679
vt 2.596728 0.0005007088
vt 3.24483 0.9994999
vt 3.028796 0.9994999
vt 3.24483 0.0005005896
vt 3.028796 0.0005006194
vt 3.676898 0.9994998
vt 3.460864 0.9994998
vt 3.676898 0.0005005002
vt 3.460864 0.0005005598
vt 4.108966 0.9994997
vt 3.892932 0.9994997
vt 4.108965 0.0005004108
vt 3.892931 0.0005004704
vt 4.541034 0.9994996
vt 4.325 0.9994997
vt 4.541034 0.0005003512
vt 4.324999 0.000500381
vt 4.973102 0.9994996
vt 4.757068 0.9994996
vt 4.973101 0.0005002618
vt 4.757067 0.0005002916
vt 5.405169 0.9994994
vt 5.189136 0.9994994
vt 5.405169 0.0005001724
vt 5.189136 0.0005002022
vt 5.837237 0.9994993
vt 5.621203 0.9994994
vt 5.837236 0.000500083
vt 5.621203 0.0005001128
vt 6.269305 0.9994993
vt 6.053271 0.9994993
vt 6.269305 0.0004999936
vt 6.053271 0.0005000532
vt 6.701373 0.9994992
vt 6.485339 0.9994992
vt 6.701373 0.0004999042
vt 6.485338 0.0004999638
vt 7.133441 0.9994991
vt 6.917407 0.9994991
vt 7.13344 0.0004998446
vt 6.917407 0.0004998744
vt 7.565509 0.999499
vt 7.349475 0.9994991
vt 7.565509 0.0004997551
vt 7.349474 0.0004997849
vt 7.997577 0.999499
vt 7.781543 0.999499
vt 7.997577 0.0004996657
vt 7.781543 0.0004996955
vt 8.429645 0.9994988
vt 8.213611 0.9994988
vt 8.429645 0.0004995763
vt 8.213611 0.0004996061
vt 0.9995005 0.2663679
vt 0.0004995167 0.2663682
vt 0.0004995167 0.004163504
vt 0.9995005 0.004163206

usemtl sn01_08_sn01T-03.jpg
usemap sn01_08_sn01T-03.jpg
f 3/3/3 1/1/1 2/2/2
f 2/2/2 4/4/4 3/3/3
f 7/7/7 5/5/5 6/6/6
f 6/6/6 8/8/8 7/7/7
f 11/11/11 9/9/9 10/10/10
f 10/10/10 12/12/12 11/11/11
f 15/15/15 13/13/13 14/14/14
f 14/14/14 16/16/16 15/15/15
f 19/19/19 17/17/17 18/18/18
f 18/18/18 20/20/20 19/19/19
f 23/23/23 21/21/21 22/22/22
f 22/22/22 24/24/24 23/23/23
f 27/27/27 25/25/25 26/26/26
f 26/26/26 28/28/28 27/27/27
f 31/31/31 29/29/29 30/30/30
f 30/30/30 32/32/32 31/31/31
f 35/35/35 33/33/33 34/34/34
f 34/34/34 36/36/36 35/35/35
f 39/39/39 37/37/37 38/38/38
f 38/38/38 40/40/40 39/39/39
f 43/43/43 41/41/41 42/42/42
f 42/42/42 44/44/44 43/43/43
f 47/47/47 45/45/45 46/46/46
f 46/46/46 48/48/48 47/47/47
f 51/51/51 49/49/49 50/50/50
f 50/50/50 52/52/52 51/51/51
f 55/55/55 53/53/53 54/54/54
f 54/54/54 56/56/56 55/55/55
f 59/59/59 57/57/57 58/58/58
f 58/58/58 60/60/60 59/59/59
f 63/63/63 61/61/61 62/62/62
f 62/62/62 64/64/64 63/63/63
f 67/67/67 65/65/65 66/66/66
f 65/65/65 67/67/67 68/68/68
