mtllib ./Item16.mtl
g 0
v -4.251447 5.097853 -1.14329
v -3.257972 3.908261 -1.530938
v -3.319866 3.713083 -1.530938
v -3.948531 5.488818 -1.14329
v -3.314109 5.624246 -1.14329
v 3.265209 5.624248 -1.14329
v -3.084796 3.960979 -1.530938
v -4.251447 3.961033 -1.143291
v -4.251446 -1.630836 -1.143291
v -3.233928 -0.5750751 -1.530938
v -4.251447 -6.484343 -1.143292
v -4.182499 -7.819571 -1.143292
v -3.319809 -0.3742285 -1.530938
v 3.035897 3.960979 -1.530938
v -2.577 0.6984959 -1.820426
v -3.008767 -0.6311274 -1.530938
v -3.932264 -8.251203 -1.144764
v -2.581216 3.244938 -1.820426
v 2.532316 3.244938 -1.820426
v -3.576808 -8.444931 -1.144764
v -2.462928 -0.7176542 -1.530938
v -2.116792 -8.783976 -1.144764
v -1.834167 -0.7908039 -1.530938
v -0.02444972 -8.879487 -1.144764
v -1.845701 0.5991726 -1.820426
v 1.796801 0.5991726 -1.820426
v 1.785268 -0.7908039 -1.530938
v -4.498721 5.085352 -0.001286827
v -4.065241 5.694804 0.02142854
v -3.350245 5.831552 0.02142856
v -0.02444972 5.811307 0.02142855
v -4.498721 3.948533 -0.00128703
v -4.429774 -7.832071 -0.001288434
v -4.498721 -6.496843 -0.001288208
v -4.49872 -1.643337 -0.001287696
v -3.9684 -8.920763 0.01865462
v -3.612944 -9.114491 0.01865459
v -2.091445 -9.452535 0.01865455
v -0.02444972 -9.549047 0.01865454
v -4.21052 4.865935 1.291555
v -3.801577 5.44089 1.292216
v -4.498721 5.085352 -0.001286827
v -3.127053 5.569898 1.292216
v -3.801577 5.44089 1.292216
v -4.21052 3.793464 1.291555
v -4.498721 3.948533 -0.00128703
v -4.145476 -7.320314 1.291554
v -4.21052 -6.060664 1.291554
v -4.498721 -6.496843 -0.001288208
v -4.429774 -7.832071 -0.001288434
v -4.21052 -1.442595 1.291555
v -4.49872 -1.643337 -0.001287696
v -3.710218 -8.34738 1.292135
v -3.9684 -8.920763 0.01865462
v -3.374882 -8.530144 1.292135
v -3.612944 -9.114491 0.01865459
v -1.939506 -8.849052 1.292135
v -1.939506 -8.849052 1.292135
v -3.801577 5.44089 1.292216
v -4.21052 4.865935 1.291555
v -0.02444972 -1.4141 1.298587
v -3.127053 5.569898 1.292216
v -4.21052 3.793464 1.291555
v -4.21052 -6.060664 1.291554
v -4.145476 -7.320314 1.291554
v -4.21052 -1.442595 1.291555
v -3.710218 -8.34738 1.292135
v -3.374882 -8.530144 1.292135
v -1.939506 -8.849052 1.292135
v 4.202547 5.097853 -1.14329
v 3.270967 3.713083 -1.530938
v 3.209073 3.908261 -1.530938
v 3.899632 5.48882 -1.14329
v 4.202547 3.961034 -1.143291
v 4.202547 -1.630836 -1.143291
v 4.202547 -6.484343 -1.143292
v 3.185028 -0.5750751 -1.530938
v 4.1336 -7.819571 -1.143292
v 3.270909 -0.3742285 -1.530938
v 2.5281 0.6984959 -1.820426
v 2.959867 -0.6311274 -1.530938
v 3.883364 -8.251203 -1.144764
v 3.527909 -8.444931 -1.144764
v 2.414028 -0.7176542 -1.530938
v 2.067893 -8.783976 -1.144764
v 4.449821 5.085352 -0.001286827
v 4.016342 5.694804 0.02142854
v 3.301345 5.831552 0.02142856
v 4.449821 3.948533 -0.00128703
v 4.380874 -7.832071 -0.001288434
v 4.449821 -6.496843 -0.001288208
v 4.449821 -1.643337 -0.001287696
v 3.9195 -8.920763 0.01865462
v 3.564045 -9.114491 0.01865459
v 2.042546 -9.452535 0.01865455
v 4.161621 4.865935 1.291555
v 3.752678 5.44089 1.292216
v 4.449821 5.085352 -0.001286827
v 3.078154 5.569896 1.292216
v -3.127053 5.569898 1.292216
v 3.752678 5.44089 1.292216
v 4.161621 3.793465 1.291555
v 4.449821 3.948533 -0.00128703
v 4.096577 -7.320314 1.291554
v 4.449821 -6.496843 -0.001288208
v 4.161621 -6.060664 1.291554
v 4.380874 -7.832071 -0.001288434
v 4.449821 -1.643337 -0.001287696
v 4.161621 -1.442595 1.291555
v 3.661318 -8.34738 1.292135
v 3.9195 -8.920763 0.01865462
v 3.325983 -8.530144 1.292135
v 3.564045 -9.114491 0.01865459
v 1.890606 -8.849052 1.292135
v 3.752678 5.44089 1.292216
v 4.161621 4.865935 1.291555
v -3.127053 5.569898 1.292216
v 3.078154 5.569896 1.292216
v 4.161621 3.793465 1.291555
v 4.161621 -6.060664 1.291554
v 4.096577 -7.320314 1.291554
v 4.161621 -1.442595 1.291555
v 3.661318 -8.34738 1.292135
v 3.325983 -8.530144 1.292135
v 1.890606 -8.849052 1.292135
v -1.939506 -8.849052 1.292135
v 4.192517 4.855296 0.9938115
v 4.07653 7.01636 0.8392094
v -4.100988 7.01636 0.8392094
v -4.216976 4.855296 0.9938115
v 4.192517 4.855297 -0.8614157
v -4.216976 4.855297 -0.8614157
v -4.100988 7.01636 -0.7068132
v 4.07653 7.01636 -0.7068132
v -4.100988 7.160789 -0.1742034
v 4.07653 7.160789 0.36614
v 4.07653 7.160789 -0.172371
v -4.100988 7.160789 0.3634922
v -2.868721 9.548619 0.07843238
v -2.468897 9.097829 0.7709482
v -2.069073 9.097829 0.07843233
v -3.268546 9.097829 0.7709482
v -3.66837 9.097829 0.07843226
v -3.268545 9.097829 -0.6140836
v -2.468897 9.097829 -0.6140835
v -2.468897 6.652192 0.7709482
v -2.069073 6.652192 0.07843217
v -3.268545 6.652192 0.7709481
v -3.66837 6.652192 0.07843211
v -3.268545 6.652192 -0.6140838
v -2.468897 6.652192 -0.6140836

vn -0.8009917 0.1051936 -0.5893611
vn -0.1323284 0.1859187 -0.9736136
vn -0.3751417 0.00244191 -0.9269643
vn -0.4531442 0.5855776 -0.6721303
vn -0.02106704 0.6536186 -0.7565308
vn 0.0115471 0.657939 -0.7529827
vn -0.00133021 0.2538484 -0.9672431
vn -0.8730651 -6.808497E-09 -0.4876036
vn -0.7893061 -0.001134141 -0.6139988
vn -0.2315204 -0.0279937 -0.9724271
vn -0.7886608 -0.01321686 -0.6146863
vn -0.6302834 -0.1627057 -0.7591243
vn -0.3661003 -0.007336846 -0.9305465
vn 0.001827033 0.2938933 -0.9558365
vn -0.2351865 -0.03521456 -0.971312
vn -0.01798297 -0.07825606 -0.9967711
vn -0.1578141 -0.1847441 -0.9700332
vn -0.03127569 0.1283233 -0.9912391
vn 0.02614364 0.05000184 -0.9984069
vn -0.05776559 -0.2211469 -0.9735282
vn -0.01051714 -0.05977999 -0.9981562
vn -0.02136447 -0.213989 -0.9766024
vn -0.00151161 -0.06442274 -0.9979216
vn -1.127966E-10 -0.1193324 -0.9928544
vn -0.001979567 -0.07007036 -0.9975401
vn 0.003886938 -0.08326703 -0.9965196
vn 0.001387112 -0.07606363 -0.9971019
vn -0.9249179 0.3222111 -0.2017592
vn -0.555491 0.8295009 0.05794946
vn -0.02435223 0.9987932 -0.04264857
vn 1.003496E-07 0.9966207 0.08214211
vn -0.9773514 -3.26618E-08 -0.2116224
vn -0.9651898 -0.1549843 -0.2106858
vn -0.9773195 -0.006102193 -0.2116823
vn -0.9773515 -4.075269E-09 -0.2116224
vn -0.8109801 -0.508591 -0.2892167
vn -0.2700206 -0.8308707 -0.4865622
vn -0.1370351 -0.9846524 -0.1080791
vn 0 -0.9844422 -0.1757089
vn -0.9059488 0.3341376 0.2600168
vn -0.783866 0.5572185 0.2739738
vn -0.9600842 0.1457223 0.2387534
vn -0.02659511 0.9781745 0.2060761
vn -0.1828607 0.9561023 0.228977
vn -0.9760426 -2.333818E-08 0.2175794
vn -0.9760427 -6.337354E-08 0.2175792
vn -0.9516194 -0.14952 0.268448
vn -0.9756001 -0.005913266 0.2194756
vn -0.9746202 -0.01753263 0.2231774
vn -0.9180012 -0.2544568 0.3041802
vn -0.9760426 -5.12746E-08 0.2175792
vn -0.9760427 -2.218267E-08 0.2175792
vn -0.8233068 -0.437429 0.361693
vn -0.7230389 -0.5631238 0.400133
vn -0.278684 -0.8520676 0.4430757
vn -0.2232922 -0.8694424 0.4406933
vn -0.1948811 -0.8771405 0.4389144
vn 0 -0.8896719 0.4566005
vn -0.0008938729 0.0004367667 0.9999995
vn -0.001662596 1.139577E-05 0.9999986
vn 1.671612E-11 -6.262377E-06 0.9999999
vn -0.0001607893 0.0008406988 0.9999996
vn -0.001679839 -9.448247E-08 0.9999986
vn -0.001659469 -1.842483E-05 0.9999986
vn -0.001575976 -9.102772E-05 0.9999987
vn -0.001679835 -8.468167E-08 0.9999986
vn -0.00120683 -0.0002890209 0.9999992
vn -0.0002266445 -0.0007999677 0.9999997
vn -0.0001823668 -0.0008208149 0.9999997
vn 0.8009917 0.1051935 -0.5893611
vn 0.3751417 0.002441894 -0.9269643
vn 0.1323286 0.1859185 -0.9736136
vn 0.4531447 0.5855772 -0.6721303
vn 0.8730649 5.956274E-08 -0.4876039
vn 0.7893059 -0.00113416 -0.6139991
vn 0.7886608 -0.01321689 -0.6146865
vn 0.2315204 -0.0279937 -0.9724272
vn 0.6302834 -0.1627057 -0.7591243
vn 0.3661003 -0.007336846 -0.9305465
vn 0.2351866 -0.03521456 -0.971312
vn 0.01798297 -0.07825608 -0.9967712
vn 0.1578141 -0.1847441 -0.9700332
vn 0.05776558 -0.2211469 -0.9735282
vn 0.01051713 -0.05977999 -0.9981562
vn 0.02136446 -0.2139891 -0.9766023
vn 0.9249181 0.3222108 -0.2017593
vn 0.5554908 0.8295009 0.05795009
vn 0.04177216 0.9982574 0.04168074
vn 0.9773514 2.658902E-08 -0.2116228
vn 0.9651899 -0.1549843 -0.2106857
vn 0.9773194 -0.006102319 -0.2116826
vn 0.9773514 2.498447E-08 -0.2116228
vn 0.8109801 -0.5085912 -0.2892165
vn 0.2700207 -0.8308707 -0.4865621
vn 0.09397453 -0.9906167 0.09923327
vn 0.9059489 0.3341378 0.2600168
vn 0.783866 0.5572185 0.2739738
vn 0.9600843 0.1457223 0.2387535
vn 0.01045354 0.9808866 0.1942994
vn 3.019781E-07 0.98243 0.1866312
vn 0.1828594 0.9561024 0.2289775
vn 0.9760426 -2.333818E-08 0.2175794
vn 0.9760427 -2.447483E-08 0.2175794
vn 0.9516193 -0.1495202 0.268448
vn 0.9746202 -0.01753282 0.2231774
vn 0.9756 -0.005913353 0.2194758
vn 0.9180012 -0.2544568 0.3041802
vn 0.9760426 -2.218269E-08 0.2175794
vn 0.9760426 -2.114297E-08 0.2175794
vn 0.8233069 -0.4374288 0.3616929
vn 0.7230391 -0.5631236 0.4001328
vn 0.278684 -0.8520676 0.4430756
vn 0.2232921 -0.8694424 0.4406932
vn 0.08674994 -0.8962161 0.4350529
vn 0.0008938724 0.0004367669 0.9999995
vn 0.001662596 1.139573E-05 0.9999986
vn 2.80369E-10 0.0009121286 0.9999995
vn 1.696275E-05 0.0009045931 0.9999995
vn 0.001679838 -9.448247E-08 0.9999986
vn 0.001659469 -1.842497E-05 0.9999986
vn 0.001575976 -9.102785E-05 0.9999987
vn 0.001679834 -8.468165E-08 0.9999986
vn 0.001206831 -0.0002890206 0.9999992
vn 0.0002266444 -0.0007999676 0.9999997
vn 5.175096E-05 -0.0008544581 0.9999996
vn 0 -0.0008677879 0.9999997
vn 0.1451412 0.07795662 0.986335
vn 0.05103211 0.2647363 0.9629695
vn -0.02539327 0.2619383 0.9647506
vn -0.3363349 0.0841974 0.9379711
vn 0.1817845 0.07936811 -0.9801301
vn -0.2838942 0.08282205 -0.955272
vn -0.02992842 0.1851271 -0.9822587
vn 0.05044477 0.4475909 -0.8928145
vn -0.4371806 0.8856524 -0.1565023
vn 0.4560739 0.8742384 0.1664444
vn 0.1751194 0.9805758 -0.08834153
vn -0.1719722 0.9808223 0.09172437
vn 0 1 -4.484768E-09
vn 0.340346 0.1879262 0.9213297
vn 0.9680678 0.1879262 0.1659164
vn -0.6277219 0.1879261 0.7554131
vn -0.9680678 0.1879261 -0.1659166
vn -0.340346 0.1879262 -0.9213296
vn 0.6277218 0.1879262 -0.7554132
vn 0.6546537 2.246867E-08 0.755929
vn 0.9819805 4.055124E-08 -0.1889823
vn -0.327327 -5.954528E-08 0.9449112
vn -0.9819806 -1.070205E-07 0.1889821
vn -0.6546536 5.507198E-09 -0.755929
vn 0.327327 9.639204E-08 -0.9449112

vt 0.8999112 0.7581503
vt 0.8059198 0.6986434
vt 0.8117754 0.6888801
vt 0.8712527 0.7777076
vt 0.8112308 0.784482
vt 0.1887694 0.7844821
vt 0.7895357 0.7012806
vt 0.8999112 0.7012833
vt 0.8999109 0.4215617
vt 0.8036448 0.474374
vt 0.8999109 0.1787752
vt 0.8933879 0.1119832
vt 0.8117699 0.4844209
vt 0.2104644 0.7012807
vt 0.7414937 0.5380817
vt 0.7823426 0.4715701
vt 0.8697134 0.09039178
vt 0.7418926 0.6654621
vt 0.2581075 0.6654622
vt 0.8360841 0.08070093
vt 0.7307014 0.4672418
vt 0.6979538 0.06374097
vt 0.6712151 0.4635826
vt 0.4999998 0.05896324
vt 0.6723063 0.5331133
vt 0.3276937 0.5331133
vt 0.3287848 0.4635827
vt 0.9548001 0.7570006
vt 0.8822945 0.7880116
vt 0.8146496 0.7948521
vt 0.5000001 0.7938395
vt 0.9548 0.7001336
vt 0.9482768 0.1108336
vt 0.9547998 0.1776256
vt 0.9547999 0.4204121
vt 0.9046267 0.0563741
vt 0.8709975 0.04668325
vt 0.6955557 0.0302977
vt 0.4999998 0.02546987
vt 0.9961243 0.7365406
vt 0.9574347 0.7653015
vt 0.954532 0.757525
vt 0.7935336 0.7817633
vt 0.8573495 0.77531
vt 0.9961243 0.6828925
vt 0.954532 0.700658
vt 0.9899703 0.126949
vt 0.996124 0.1899604
vt 0.9545317 0.1781499
vt 0.9480087 0.111358
vt 0.9961241 0.4209696
vt 0.9545318 0.4209364
vt 0.9618435 0.0420822
vt 0.9043587 0.05689844
vt 0.8970482 0.01538641
vt 0.8707295 0.04720759
vt 0.7052014 0.004437931
vt 0.4999998 0.003578901
vt 0.6635333 0.4125979
vt 0.6713971 0.4067522
vt 0.5909013 0.3429014
vt 0.6505625 0.4139095
vt 0.671397 0.395848
vt 0.671397 0.2956586
vt 0.6701462 0.2828514
vt 0.671397 0.3426117
vt 0.6617764 0.272409
vt 0.6553282 0.2705508
vt 0.6277267 0.2673084
vt 0.100089 0.7581504
vt 0.1882247 0.6888802
vt 0.1940804 0.6986436
vt 0.1287475 0.7777077
vt 0.100089 0.7012834
vt 0.1000889 0.4215618
vt 0.1000888 0.1787753
vt 0.1963551 0.474374
vt 0.1066117 0.1119834
vt 0.18823 0.484421
vt 0.2585063 0.5380818
vt 0.2176574 0.4715701
vt 0.1302862 0.09039187
vt 0.1639154 0.08070102
vt 0.2692985 0.4672418
vt 0.3020458 0.06374103
vt 0.04861684 0.7575251
vt 0.1177057 0.7880117
vt 0.1853507 0.7948521
vt 0.04861681 0.7006581
vt 0.05513953 0.111358
vt 0.04861657 0.17815
vt 0.04861669 0.4209365
vt 0.09878953 0.05689853
vt 0.1324187 0.04720768
vt 0.3044438 0.03029776
vt 0.007585173 0.7488589
vt 0.09527306 0.7865623
vt 0.04897884 0.7575251
vt 0.2064666 0.7817634
vt 0.5000001 0.780808
vt 0.1426506 0.7753102
vt 0.006045369 0.6998301
vt 0.04897881 0.7006581
vt 0.002960272 0.1123213
vt 0.04743881 0.17815
vt 0.001425823 0.1807218
vt 0.05396176 0.1121279
vt 0.04666904 0.4209365
vt 0.005737303 0.418968
vt 0.05736771 0.04246723
vt 0.09915153 0.05689853
vt 0.1106501 0.02331629
vt 0.1343205 0.04720768
vt 0.3033025 0.008903328
vt 0.5182693 0.4125979
vt 0.5104055 0.4067522
vt 0.5909013 0.4137153
vt 0.53124 0.4139096
vt 0.5104055 0.3958481
vt 0.5104055 0.2956586
vt 0.5116563 0.2828515
vt 0.5104055 0.3426117
vt 0.520026 0.272409
vt 0.5264743 0.2705508
vt 0.5540758 0.2673084
vt 0.5909013 0.2663827
vt 0.06184187 0.7560659
vt 0.07392849 0.8600867
vt 0.9260719 0.8600863
vt 0.9381585 0.7560654
vt 0.06184187 0.7560659
vt 0.9381585 0.7560654
vt 0.9260719 0.8600863
vt 0.07392849 0.8600867
vt 0.9260719 0.8641012
vt 0.07392849 0.8641017
vt 0.07392849 0.8641017
vt 0.9260719 0.8641012
vt 0.8180659 0.9691944
vt 0.7787102 0.9635066
vt 0.7393546 0.9480661
vt 0.8574216 0.9635066
vt 0.8967772 0.9480661
vt 0.8574216 0.9326256
vt 0.7787103 0.9326258
vt 0.7787102 0.8801072
vt 0.7393546 0.8646668
vt 0.8574216 0.8801072
vt 0.8967772 0.8646667
vt 0.8574216 0.8492264
vt 0.7787102 0.8492264

usemtl Item16_00_Item16.jpg
usemap Item16_00_Item16.jpg
f 3/3/3 1/1/1 2/2/2
f 1/1/1 4/4/4 2/2/2
f 7/7/7 5/5/5 6/6/6
f 4/4/4 5/5/5 2/2/2
f 8/8/8 1/1/1 3/3/3
f 11/11/11 9/9/9 10/10/10
f 11/11/11 10/10/10 12/12/12
f 13/13/13 10/10/10 9/9/9
f 7/7/7 6/6/6 14/14/14
f 13/13/13 15/15/15 10/10/10
f 10/10/10 16/16/16 17/17/17
f 7/7/7 14/14/14 18/18/18
f 8/8/8 3/3/3 9/9/9
f 2/2/2 7/7/7 18/18/18
f 2/2/2 5/5/5 7/7/7
f 18/18/18 14/14/14 19/19/19
f 3/3/3 13/13/13 9/9/9
f 10/10/10 15/15/15 16/16/16
f 17/17/17 16/16/16 20/20/20
f 12/12/12 10/10/10 17/17/17
f 20/20/20 16/16/16 21/21/21
f 20/20/20 21/21/21 22/22/22
f 22/22/22 23/23/23 24/24/24
f 16/16/16 25/25/25 21/21/21
f 3/3/3 15/15/15 13/13/13
f 3/3/3 18/18/18 15/15/15
f 2/2/2 18/18/18 3/3/3
f 18/18/18 19/19/19 25/25/25
f 15/15/15 25/25/25 16/16/16
f 15/15/15 18/18/18 25/25/25
f 25/25/25 26/26/26 27/27/27
f 25/25/25 19/19/19 26/26/26
f 23/23/23 25/25/25 27/27/27
f 23/23/23 27/27/27 24/24/24
f 4/4/4 28/28/28 29/29/29
f 28/28/28 4/4/4 1/1/1
f 6/6/6 30/30/30 31/31/31
f 30/30/30 6/6/6 5/5/5
f 5/5/5 29/29/29 30/30/30
f 29/29/29 5/5/5 4/4/4
f 1/1/1 32/32/32 28/28/28
f 32/32/32 1/1/1 8/8/8
f 11/11/11 33/33/33 34/34/34
f 33/33/33 11/11/11 12/12/12
f 9/9/9 34/34/34 35/35/35
f 34/34/34 9/9/9 11/11/11
f 8/8/8 35/35/35 32/32/32
f 35/35/35 8/8/8 9/9/9
f 12/12/12 36/36/36 33/33/33
f 36/36/36 12/12/12 17/17/17
f 17/17/17 37/37/37 36/36/36
f 37/37/37 17/17/17 20/20/20
f 20/20/20 38/38/38 37/37/37
f 38/38/38 20/20/20 22/22/22
f 22/22/22 39/39/39 38/38/38
f 39/39/39 22/22/22 24/24/24
f 21/21/21 25/25/25 23/23/23
f 21/21/21 23/23/23 22/22/22
f 29/29/29 40/40/40 41/41/41
f 40/40/40 29/29/29 42/42/42
f 43/43/43 31/31/31 30/30/30
f 30/30/30 44/44/44 43/43/43
f 44/44/44 30/30/30 29/29/29
f 42/42/42 45/45/45 40/40/40
f 45/45/45 42/42/42 46/46/46
f 49/49/49 47/47/47 48/48/48
f 47/47/47 49/49/49 50/50/50
f 52/52/52 48/48/48 51/51/51
f 48/48/48 52/52/52 49/49/49
f 46/46/46 51/51/51 45/45/45
f 51/51/51 46/46/46 52/52/52
f 50/50/50 53/53/53 47/47/47
f 53/53/53 50/50/50 54/54/54
f 54/54/54 55/55/55 53/53/53
f 55/55/55 54/54/54 56/56/56
f 56/56/56 57/57/57 55/55/55
f 57/57/57 56/56/56 38/38/38
f 58/58/58 38/38/38 39/39/39
f 61/61/61 59/59/59 60/60/60
f 61/61/61 62/62/62 59/59/59
f 61/61/61 60/60/60 63/63/63
f 61/61/61 64/64/64 65/65/65
f 61/61/61 66/66/66 64/64/64
f 61/61/61 63/63/63 66/66/66
f 61/61/61 65/65/65 67/67/67
f 61/61/61 67/67/67 68/68/68
f 61/61/61 68/68/68 69/69/69
f 72/72/72 70/70/70 71/71/71
f 72/72/72 73/73/73 70/70/70
f 72/72/72 6/6/6 73/73/73
f 71/71/71 70/70/70 74/74/74
f 77/77/77 75/75/75 76/76/76
f 78/78/78 77/77/77 76/76/76
f 75/75/75 77/77/77 79/79/79
f 77/77/77 80/80/80 79/79/79
f 82/82/82 81/81/81 77/77/77
f 75/75/75 71/71/71 74/74/74
f 19/19/19 14/14/14 72/72/72
f 14/14/14 6/6/6 72/72/72
f 75/75/75 79/79/79 71/71/71
f 81/81/81 80/80/80 77/77/77
f 83/83/83 81/81/81 82/82/82
f 82/82/82 77/77/77 78/78/78
f 84/84/84 81/81/81 83/83/83
f 85/85/85 84/84/84 83/83/83
f 24/24/24 27/27/27 85/85/85
f 84/84/84 26/26/26 81/81/81
f 79/79/79 80/80/80 71/71/71
f 80/80/80 19/19/19 71/71/71
f 71/71/71 19/19/19 72/72/72
f 81/81/81 26/26/26 80/80/80
f 26/26/26 19/19/19 80/80/80
f 87/87/87 86/86/86 73/73/73
f 70/70/70 73/73/73 86/86/86
f 31/31/31 88/88/88 6/6/6
f 88/88/88 87/87/87 6/6/6
f 73/73/73 6/6/6 87/87/87
f 86/86/86 89/89/89 70/70/70
f 74/74/74 70/70/70 89/89/89
f 91/91/91 90/90/90 76/76/76
f 78/78/78 76/76/76 90/90/90
f 92/92/92 91/91/91 75/75/75
f 76/76/76 75/75/75 91/91/91
f 89/89/89 92/92/92 74/74/74
f 75/75/75 74/74/74 92/92/92
f 90/90/90 93/93/93 78/78/78
f 82/82/82 78/78/78 93/93/93
f 93/93/93 94/94/94 82/82/82
f 83/83/83 82/82/82 94/94/94
f 94/94/94 95/95/95 83/83/83
f 85/85/85 83/83/83 95/95/95
f 95/95/95 39/39/39 85/85/85
f 24/24/24 85/85/85 39/39/39
f 27/27/27 26/26/26 84/84/84
f 85/85/85 27/27/27 84/84/84
f 97/97/97 96/96/96 87/87/87
f 98/98/98 87/87/87 96/96/96
f 100/100/100 99/99/99 31/31/31
f 88/88/88 31/31/31 99/99/99
f 99/99/99 101/101/101 88/88/88
f 87/87/87 88/88/88 101/101/101
f 96/96/96 102/102/102 98/98/98
f 103/103/103 98/98/98 102/102/102
f 106/106/106 104/104/104 105/105/105
f 107/107/107 105/105/105 104/104/104
f 109/109/109 106/106/106 108/108/108
f 105/105/105 108/108/108 106/106/106
f 102/102/102 109/109/109 103/103/103
f 108/108/108 103/103/103 109/109/109
f 104/104/104 110/110/110 107/107/107
f 111/111/111 107/107/107 110/110/110
f 110/110/110 112/112/112 111/111/111
f 113/113/113 111/111/111 112/112/112
f 112/112/112 114/114/114 113/113/113
f 95/95/95 113/113/113 114/114/114
f 114/114/114 58/58/58 95/95/95
f 39/39/39 95/95/95 58/58/58
f 116/116/116 115/115/115 61/61/61
f 118/118/118 117/117/117 61/61/61
f 115/115/115 118/118/118 61/61/61
f 119/119/119 116/116/116 61/61/61
f 121/121/121 120/120/120 61/61/61
f 120/120/120 122/122/122 61/61/61
f 122/122/122 119/119/119 61/61/61
f 123/123/123 121/121/121 61/61/61
f 124/124/124 123/123/123 61/61/61
f 125/125/125 124/124/124 61/61/61
f 126/126/126 125/125/125 61/61/61
f 129/129/129 127/127/127 128/128/128
f 127/127/127 129/129/129 130/130/130
f 133/133/133 131/131/131 132/132/132
f 131/131/131 133/133/133 134/134/134
f 133/133/133 132/132/132 135/135/135
f 130/130/130 135/135/135 132/132/132
f 136/136/136 129/129/129 128/128/128
f 135/135/135 134/134/134 133/133/133
f 131/131/131 136/136/136 127/127/127
f 137/137/137 131/131/131 134/134/134
f 137/137/137 134/134/134 135/135/135
f 135/135/135 130/130/130 138/138/138
f 138/138/138 137/137/137 135/135/135
f 136/136/136 131/131/131 137/137/137
f 136/136/136 137/137/137 138/138/138
f 138/138/138 130/130/130 129/129/129
f 129/129/129 136/136/136 138/138/138
f 128/128/128 127/127/127 136/136/136
f 141/141/141 139/139/139 140/140/140
f 140/140/140 139/139/139 142/142/142
f 142/142/142 139/139/139 143/143/143
f 143/143/143 139/139/139 144/144/144
f 144/144/144 139/139/139 145/145/145
f 145/145/145 139/139/139 141/141/141
f 147/147/147 141/141/141 146/146/146
f 146/146/146 141/141/141 140/140/140
f 146/146/146 140/140/140 148/148/148
f 148/148/148 140/140/140 142/142/142
f 148/148/148 142/142/142 149/149/149
f 149/149/149 142/142/142 143/143/143
f 149/149/149 143/143/143 150/150/150
f 150/150/150 143/143/143 144/144/144
f 150/150/150 144/144/144 151/151/151
f 151/151/151 144/144/144 145/145/145
f 151/151/151 145/145/145 147/147/147
f 147/147/147 145/145/145 141/141/141
