mtllib ./Object52.mtl
g Object52
v -65.76808 458.4547 500.2697
v -66.93021 356.9783 500.1033
v -68.30753 371.3092 325.0358
v -67.27299 458.4503 325.0864
v -68.13721 244.6141 499.7677
v -69.394 274.0833 324.9833
v -69.11932 302.9319 324.9961
v -67.86227 275.59 500.6351
v -71.96629 331.3765 141.3641
v -71.96629 379.921 141.2271
v -69.11932 302.9319 324.9961
v -71.96629 458.5976 141.4039
v -71.96629 458.5976 141.4039
v -71.96629 475.0924 141.4039
v -67.64246 477.0666 325.1199
v -67.27299 458.4503 325.0864
v -71.96629 498.7478 141.4039
v -68.01192 495.6786 325.1534
v -65.35065 492.507 500.3073
v -65.55936 475.4809 500.2885
v -68.01192 495.6786 325.1534
v -65.76808 458.4547 500.2697
v -67.86227 275.59 500.6351
v -71.9663 304.8777 141.4039
v -71.96629 331.3765 141.3641
v 42.3703 458.5251 500.4998
v 44.90975 371.3796 325.215
v 43.53243 357.0487 500.6185
v 43.87521 458.5207 325.2655
v 44.73943 245.3665 500.3445
v 45.72155 303.0023 325.1752
v 45.99622 273.0874 325.1624
v 44.4645 275.6603 500.0156
v 48.20999 332.326 141.441
v 48.03074 381.5833 141.2585
v 45.72155 303.0023 325.1752
v 48.20999 458.261 141.4935
v 48.20999 458.261 141.4935
v 44.24468 477.137 325.2991
v 48.20999 475.9549 141.4935
v 43.87521 458.5207 325.2655
v 47.89656 498.8904 141.1669
v 44.61414 495.749 325.3326
v 41.95288 492.5773 500.5374
v 42.16159 475.5512 500.5186
v 44.61414 495.749 325.3326
v 42.3703 458.5251 500.4998
v 44.4645 275.6603 500.0156
v 48.21001 305.0826 141.4935
v 48.20999 332.326 141.441
v -71.96629 379.921 141.2271
v -53.32523 380.778 141.4039
v -53.32523 458.7857 141.4039
v 48.20999 458.261 141.4935
v 32.05751 458.1144 141.4039
v 32.05751 383.0598 141.4039
v -71.96629 458.5976 141.4039
v -53.32523 458.7857 141.4039
v -53.32523 475.3498 141.4039
v -53.34667 498.7636 141.2742
v -71.96629 498.7478 141.4039
v -71.96629 475.0924 141.4039
v -12.05641 458.4612 141.4039
v -11.8856 475.9221 141.4039
v -11.67565 498.7614 141.1237
v 32.05751 458.1144 141.4039
v 48.20999 458.261 141.4935
v 48.20999 475.9549 141.4935
v 47.89656 498.8904 141.1669
v 31.63842 498.7487 141.3369
v 32.05751 476.5289 141.4039
v -71.96629 458.5976 141.4039
v 32.05751 332.3656 141.4039
v 48.20999 332.326 141.441
v 48.03074 381.5833 141.2585
v -71.96629 331.3765 141.3641
v -53.32522 331.8463 141.4039
v -71.9663 304.8777 141.4039
v -53.32523 305.2543 141.4039
v -71.96629 331.3765 141.3641
v -53.32522 331.8463 141.4039
v 32.05751 304.9542 141.4039
v 48.21001 305.0826 141.4935
v 32.05751 332.3656 141.4039
v 48.20999 332.326 141.441
v 31.63842 498.7487 141.3369

vn 0.9998944 -0.01163488 -0.008704071
vn 0.9998955 -0.01146854 -0.008805348
vn 0.9998521 -0.009253258 -0.01450359
vn 0.9997804 -0.01185936 -0.01727258
vn 0.9999216 -0.009059102 -0.008641834
vn 0.9998793 -0.009514597 -0.01228365
vn 0.9999027 -0.007048705 -0.01204212
vn 0.9998924 -0.01167195 -0.008897724
vn 0.9998065 -0.006957075 -0.0184037
vn 0.9998019 6.224841E-06 -0.01990103
vn 0.9998416 -0.01186276 -0.01326337
vn 0.9997191 -0.006205889 -0.02286877
vn 0.9996421 0.01054253 -0.02458683
vn 0.9997233 0 -0.02352889
vn 0.9998116 0.007210762 -0.0180236
vn 0.9996536 0.0198707 -0.01725776
vn 0.9997086 0.008756344 -0.02249517
vn 0.999578 0.01988045 -0.02117928
vn 0.9998989 0.004530028 -0.01347994
vn 0.999853 -0.01224336 -0.01200101
vn 0.9996925 0.01987127 -0.01482935
vn 0.9999375 0.004524834 -0.01022006
vn 0.9999266 -0.008636994 -0.008501014
vn 0.9998667 -0.004969915 -0.01555768
vn 0.9998798 -2.386131E-05 -0.01550546
vn -0.9998944 -0.01164804 -0.008695003
vn -0.9998677 -0.009260491 -0.01337576
vn -0.9998961 -0.01142769 -0.008785147
vn -0.9997975 -0.01186017 -0.01625424
vn -0.9999207 -0.009172891 -0.008624378
vn -0.9999139 -0.006996864 -0.01110917
vn -0.9998952 -0.009176048 -0.01119733
vn -0.9998931 -0.01160453 -0.00890146
vn -0.9998337 -0.008443081 -0.01616096
vn -0.9998561 7.068666E-06 -0.01696306
vn -0.9998537 -0.01186344 -0.01231877
vn -0.9997782 -0.005184163 -0.02041089
vn -0.9996924 0.01019314 -0.02261356
vn -0.999847 0.004991993 -0.01676296
vn -0.9997373 -0.007885349 -0.02151703
vn -0.9996701 0.01986931 -0.01627551
vn -0.9998055 0.00120942 -0.0196862
vn -0.9996497 0.01987514 -0.01747793
vn -0.9998989 0.00453 -0.01347602
vn -0.999853 -0.01224337 -0.01199752
vn -0.9996927 0.01987122 -0.01482504
vn -0.9999375 0.004524837 -0.01021709
vn -0.9999208 -0.009168434 -0.008622911
vn -0.9998959 -0.004814672 -0.01360079
vn -0.9999081 -2.666063E-05 -0.01354674
vn -0.005153351 -0.0001565719 0.9999867
vn -0.009488298 -2.015038E-10 0.999955
vn -0.00471266 -0.00112888 0.9999883
vn 0.001674182 -0.00155106 0.9999974
vn -0.005547028 0 0.9999846
vn 0.003527386 -0.00116426 0.9999932
vn 0 0 1
vn 0 0 0.9999999
vn 0.0009097015 0.005310786 0.9999855
vn 0.003541203 0.004226091 0.9999849
vn 0.006968865 0 0.9999758
vn 0.002563432 0.002042269 0.9999946
vn 0 0 1
vn -0.0009963809 0.005257756 0.9999857
vn -0.0005162791 0.01003271 0.9999495
vn -0.002318243 0 0.9999973
vn -0.005547027 0 0.9999846
vn -0.005351347 0.005503925 0.9999706
vn 0.00259878 0.008760062 0.9999583
vn 0.01043038 0.003212622 0.9999404
vn 5.878042E-05 0.002609048 0.9999966
vn 2.26942E-05 -0.002248185 0.9999976
vn 0.003458757 0.001832636 0.9999923
vn -0.002288372 0.003697817 0.9999905
vn 0.005779282 -0.0002962184 0.9999833
vn -0.002205952 0.002823885 0.9999936
vn -0.005861703 0.001406317 0.9999818
vn -3.034106E-05 0.001501763 0.9999989
vn -0.001084415 0.0007495642 0.9999991
vn -0.001084415 0.0007495642 0.9999991
vn -0.002134794 3.607277E-10 0.9999977
vn -0.005547022 0 0.9999846
vn -0.003924884 0.0009603854 0.9999919
vn -0.003924884 0.0009603854 0.9999919
vn -0.002292717 0.001926697 0.9999955
vn -0.002496329 0.007695593 0.9999673

vt -2.549453 2.578002
vt -2.547674 0.2699233
vt 0.4371798 0.59588
vt 0.4363236 2.577901
vt -1.755446 0.007356644
vt 0.5012966 0.007527769
vt 0.5011569 0.3091909
vt -2.546245 -1.581252
vt 3.547132 -0.5165226
vt 3.549453 0.7917542
vt 0.4378521 -0.9594611
vt 3.546458 2.581251
vt 3.790593 0.7995288
vt 3.790593 0.8957937
vt 2.448181 0.9073153
vt 2.448426 0.7986695
vt 3.790593 0.9961671
vt 2.447936 1.000502
vt 1.15965 0.9974262
vt 1.159788 0.8980609
vt 2.447936 1.000767
vt 1.159926 0.7986956
vt -1.755713 0.2846783
vt 2.758039 0.007698901
vt 2.758051 0.3432981
vt -2.549453 2.578002
vt 0.4371798 0.59588
vt -2.547674 0.2699233
vt 0.4363236 2.577901
vt -1.755446 0.007356644
vt 0.5011569 0.3091909
vt 0.5012966 0.007527769
vt -2.546245 -1.581252
vt 3.547132 -0.5165226
vt 3.549453 0.7917542
vt 0.4378521 -0.9594611
vt 3.546458 2.581251
vt 3.790593 0.7995288
vt 2.448181 0.9073153
vt 3.790593 0.8957937
vt 2.448426 0.7986695
vt 3.790593 0.9961671
vt 2.447936 1.000502
vt 1.15965 0.9974262
vt 1.159788 0.8980609
vt 2.447936 1.000767
vt 1.159926 0.7986956
vt -1.755713 0.2846783
vt 2.758039 0.007698901
vt 2.758051 0.3432981
vt -0.8111713 0.4831775
vt -0.4044083 0.5041679
vt -0.4044083 2.414817
vt 1.811171 2.477133
vt 1.458711 2.468896
vt 1.458711 0.5600576
vt 0.003917023 0.7940465
vt 0.1593401 0.7940493
vt 0.1593401 0.8975791
vt 0.1593401 0.997624
vt 0.003917023 0.997624
vt 0.003917023 0.8975642
vt 0.5034258 0.7940657
vt 0.50485 0.897612
vt 0.5067067 0.9973592
vt 0.8712332 0.7940831
vt 1.002918 0.794077
vt 1.002918 0.8976594
vt 1.002918 0.9981098
vt 0.8712332 0.997624
vt 0.8712332 0.8976467
vt -0.8111713 2.410208
vt 1.458711 -0.6816006
vt 1.811171 -0.6825684
vt 1.80726 0.5238921
vt -0.8111713 -0.705826
vt -0.4044083 -0.6943195
vt -0.09540711 0.01071388
vt 0.1737151 0.01071388
vt -0.09540688 0.3161543
vt 0.1737151 0.3168301
vt 0.1743105 0.009771407
vt 0.4077069 0.01061022
vt 0.1743105 0.3173142
vt 0.4077068 0.3172573
vt 0.8673916 0.9970841

usemtl sn02_10_sn203.jpg
usemap sn02_10_sn203.jpg
f 3/3/3 1/1/1 2/2/2
f 1/1/1 3/3/3 4/4/4
f 8/8/8 3/3/3 2/2/2
f 3/3/3 9/9/9 10/10/10
f 9/9/9 3/3/3 11/11/11
f 3/3/3 12/12/12 4/4/4
f 12/12/12 3/3/3 10/10/10
f 11/11/11 3/3/3 8/8/8
f 28/28/28 26/26/26 27/27/27
f 29/29/29 27/27/27 26/26/26
f 28/28/28 27/27/27 33/33/33
f 35/35/35 34/34/34 27/27/27
f 36/36/36 27/27/27 34/34/34
f 29/29/29 37/37/37 27/27/27
f 35/35/35 27/27/27 37/37/37
f 33/33/33 27/27/27 36/36/36
f 53/53/53 51/51/51 52/52/52
f 56/56/56 54/54/54 55/55/55
f 51/51/51 53/53/53 72/72/72
f 75/75/75 73/73/73 74/74/74
f 51/51/51 76/76/76 77/77/77
f 52/52/52 51/51/51 77/77/77
f 75/75/75 54/54/54 56/56/56
f 73/73/73 75/75/75 56/56/56

usemtl sn02_02_sn214.jpg
usemap sn02_02_sn214.jpg
f 7/7/7 5/5/5 6/6/6
f 15/15/15 13/13/13 14/14/14
f 13/13/13 15/15/15 16/16/16
f 15/15/15 17/17/17 18/18/18
f 17/17/17 15/15/15 14/14/14
f 15/15/15 19/19/19 20/20/20
f 19/19/19 15/15/15 21/21/21
f 15/15/15 22/22/22 16/16/16
f 22/22/22 15/15/15 20/20/20
f 5/5/5 7/7/7 23/23/23
f 24/24/24 7/7/7 6/6/6
f 7/7/7 24/24/24 25/25/25
f 32/32/32 30/30/30 31/31/31
f 40/40/40 38/38/38 39/39/39
f 41/41/41 39/39/39 38/38/38
f 43/43/43 42/42/42 39/39/39
f 40/40/40 39/39/39 42/42/42
f 45/45/45 44/44/44 39/39/39
f 46/46/46 39/39/39 44/44/44
f 41/41/41 47/47/47 39/39/39
f 45/45/45 39/39/39 47/47/47
f 48/48/48 31/31/31 30/30/30
f 32/32/32 31/31/31 49/49/49
f 50/50/50 49/49/49 31/31/31
f 59/59/59 57/57/57 58/58/58
f 62/62/62 60/60/60 61/61/61
f 64/64/64 58/58/58 63/63/63
f 59/59/59 65/65/65 60/60/60
f 68/68/68 66/66/66 67/67/67
f 71/71/71 69/69/69 70/70/70
f 59/59/59 60/60/60 62/62/62
f 57/57/57 59/59/59 62/62/62
f 64/64/64 65/65/65 59/59/59
f 58/58/58 64/64/64 59/59/59
f 68/68/68 69/69/69 71/71/71
f 66/66/66 68/68/68 71/71/71
f 80/80/80 78/78/78 79/79/79
f 81/81/81 80/80/80 79/79/79
f 84/84/84 82/82/82 83/83/83
f 85/85/85 84/84/84 83/83/83
f 71/71/71 63/63/63 66/66/66
f 63/63/63 71/71/71 64/64/64
f 71/71/71 86/86/86 64/64/64
f 64/64/64 86/86/86 65/65/65
