mtllib ./Plane03.mtl
g Plane03
v 125.5478 -0.0001220703 -121.3396
v 125.5478 -0.0001220703 -60.6698
v 62.77382 -0.0001220703 -60.6698
v 62.77382 -0.0001220703 -121.3396
v -0.0001339912 -0.0001220703 -60.6698
v -0.0001339912 -0.0001220703 -121.3396
v -62.77409 -0.0001220703 -60.6698
v -62.77409 -0.0001220703 -121.3396
v -125.548 -0.0001220703 -60.6698
v -125.548 -0.0001220703 -121.3396
v 125.5478 -0.0001220703 0
v 62.77382 -0.0001220703 0
v -0.0001339912 -0.0001220703 0
v -62.77409 -0.0001220703 0
v -125.548 -0.0001220703 0
v 125.5478 -0.0001220703 60.6698
v 62.77382 -0.0001220703 60.6698
v -0.0001339912 -0.0001220703 60.6698
v -62.77409 -0.0001220703 60.6698
v -125.548 -0.0001220703 60.6698
v 125.5478 -0.0001220703 121.3396
v 62.77382 -0.0001220703 121.3396
v -0.0001339912 -0.0001220703 121.3396
v -62.77409 -0.0001220703 121.3396
v -125.548 -0.0001220703 121.3396

vn 0 -1 0
vn 0 -1 0
vn 0 -1 0
vn 0 -1 0
vn 0 -1 0
vn 0 -1 0
vn 0 -1 0
vn 0 -1 0
vn 0 -1 0
vn 0 -0.9999999 0
vn 0 -1 0
vn 0 -1 0
vn 0 -1 0
vn 0 -1 0
vn 0 -1 0
vn 0 -1 0
vn 0 -1 0
vn 0 -1 0
vn 0 -1 0
vn 0 -1 0
vn 0 -1 0
vn 0 -1 0
vn 0 -1 0
vn 0 -1 0
vn 0 -0.9999999 0

vt 0.0004995465 0.9995003
vt 0.0004996657 0.4999999
vt 0.5 0.5
vt 0.4999999 0.9995004
vt 0.9995003 0.5000001
vt 0.9995002 0.9995005
vt 0.5 0.5
vt 0.5000001 0.9995004
vt 0.0004996657 0.5000001
vt 0.0004997551 0.9995005
vt 0.0004997849 0.0004994869
vt 0.5000001 0.0004996061
vt 0.9995005 0.0004997253
vt 0.4999999 0.0004996061
vt 0.0004995465 0.0004997253
vt 0.0004996657 0.5000001
vt 0.5 0.5
vt 0.9995003 0.4999999
vt 0.5 0.5
vt 0.0004996657 0.4999999
vt 0.0004997253 0.9995005
vt 0.5000001 0.9995004
vt 0.9995005 0.9995003
vt 0.4999999 0.9995004
vt 0.0004995465 0.9995003

usemtl sn02_04_sn215.jpg
usemap sn02_04_sn215.jpg
f 3/3/3 1/1/1 2/2/2
f 1/1/1 3/3/3 4/4/4
f 5/5/5 4/4/4 3/3/3
f 4/4/4 5/5/5 6/6/6
f 7/7/7 6/6/6 5/5/5
f 6/6/6 7/7/7 8/8/8
f 9/9/9 8/8/8 7/7/7
f 8/8/8 9/9/9 10/10/10
f 12/12/12 2/2/2 11/11/11
f 2/2/2 12/12/12 3/3/3
f 13/13/13 3/3/3 12/12/12
f 3/3/3 13/13/13 5/5/5
f 14/14/14 5/5/5 13/13/13
f 5/5/5 14/14/14 7/7/7
f 15/15/15 7/7/7 14/14/14
f 7/7/7 15/15/15 9/9/9
f 17/17/17 11/11/11 16/16/16
f 11/11/11 17/17/17 12/12/12
f 18/18/18 12/12/12 17/17/17
f 12/12/12 18/18/18 13/13/13
f 19/19/19 13/13/13 18/18/18
f 13/13/13 19/19/19 14/14/14
f 20/20/20 14/14/14 19/19/19
f 14/14/14 20/20/20 15/15/15
f 22/22/22 16/16/16 21/21/21
f 16/16/16 22/22/22 17/17/17
f 23/23/23 17/17/17 22/22/22
f 17/17/17 23/23/23 18/18/18
f 24/24/24 18/18/18 23/23/23
f 18/18/18 24/24/24 19/19/19
f 25/25/25 19/19/19 24/24/24
f 19/19/19 25/25/25 20/20/20
