mtllib ./Plane64.mtl
g Plane64
v 35.11807 2.086842 26.73012
v 35.11807 -2.086506 -26.73053
v -35.11725 2.086842 26.73012
v -35.11725 -2.086506 -26.73053
v 0.0003967285 37.13885 23.99382
v 0.0003967285 32.9655 -29.46684
v 0.0003967285 -32.96516 29.46642
v 0.0003967285 -37.13851 -23.99425

vn 0 0.001260579 -0.9999993
vn 0 0.001260579 -0.9999993
vn 0 0.001260579 -0.9999993
vn 0 0.001260579 -0.9999993
vn -1 0 0
vn -1 0 0
vn -1 0 0
vn -1 0 0

vt 0 1
vt 0 0
vt 1 1
vt 1 0
vt 0 1
vt 0 0
vt 1 1
vt 1 0

usemtl sn12_13_
usemap sn12_13_
f 3/3/3 1/1/1 2/2/2
f 2/2/2 4/4/4 3/3/3
f 7/7/7 5/5/5 6/6/6
f 6/6/6 8/8/8 7/7/7
