mtllib ./Box129.mtl
g Box129
v -147.0309 -141.2182 -139.7501
v -147.0309 -69.47247 -139.7501
v 116.175 -69.48456 -135.7146
v 116.3475 -141.2384 -135.7146
v -147.0309 -209.475 -139.7501
v -149.9996 -209.475 49.23999
v -149.9996 -141.2788 49.23999
v -147.0309 -141.2788 -139.7501
v 112.8209 -209.475 53.60645
v 112.9934 -141.2384 53.60632
v -149.9996 -141.2182 49.23999
v -149.9996 -141.2788 49.23999
v -149.9996 -209.475 49.23999
v 116.3475 -141.2384 -135.7146
v 116.175 -209.475 -135.7146
v -147.0309 -209.475 -139.7501
v -147.0309 -141.2788 -139.7501
v -147.0309 -141.2182 -139.7501
v -149.9996 -141.2182 49.23999
v -147.0309 -141.2182 -139.7501
v -149.9996 -69.47247 49.23999
v -147.0309 -69.47247 -139.7501
v -149.9996 -141.2182 49.23999
v 112.9934 -141.2384 53.60632
v 112.8209 -69.48456 53.60645
v -149.9996 -69.47247 49.23999
v -147.0309 -69.47247 -139.7501
v -147.0309 2.273239 -139.7501
v 116.175 2.249084 -135.7146
v 116.175 -69.48456 -135.7146
v -147.0309 -69.47247 -139.7501
v -149.9996 -69.47247 49.23999
v -149.9996 2.273254 49.23999
v -147.0309 2.273239 -139.7501
v -149.9996 -69.47247 49.23999
v 112.8209 -69.48456 53.60645
v 112.8209 2.249084 53.60645
v -149.9996 2.273254 49.23999

vn 0.01532536 1.842097E-05 -0.9998825
vn 0.01533038 0 -0.9998824
vn 0.01532536 1.842097E-05 -0.9998825
vn 0.01532035 3.68278E-05 -0.9998826
vn -0.9998766 0 -0.01570656
vn -0.9998767 0 -0.01570656
vn -0.9998767 0 -0.01570656
vn -0.9998767 0 -0.01570656
vn -0.01660585 2.187886E-05 0.9998621
vn -0.01660017 4.374984E-05 0.9998623
vn -0.01660018 4.371105E-05 0.9998621
vn -0.01661153 0 0.999862
vn -0.01661153 0 0.999862
vn 0.01532536 -1.936651E-05 -0.9998825
vn 0.01533038 -3.875144E-05 -0.9998825
vn 0.01532537 -1.937511E-05 -0.9998826
vn 0.01532035 0 -0.9998827
vn 0.01532035 0 -0.9998826
vn -0.9998767 0 -0.01570656
vn -0.9998766 0 -0.01570655
vn -0.9998767 0 -0.01570656
vn -0.9998767 0 -0.01570656
vn -0.01660585 -2.081188E-05 0.9998621
vn -0.01660018 -4.160777E-05 0.9998623
vn -0.01660585 -2.081188E-05 0.9998621
vn -0.01661154 0 0.999862
vn 0.01533039 0 -0.9998825
vn 0.01533039 0 -0.9998825
vn 0.01533039 0 -0.9998825
vn 0.01533039 0 -0.9998825
vn -0.9998766 0 -0.01570656
vn -0.9998767 0 -0.01570656
vn -0.9998766 0 -0.01570656
vn -0.9998767 0 -0.01570656
vn -0.01661153 0 0.9998621
vn -0.01661153 0 0.999862
vn -0.01661153 0 0.9998621
vn -0.01661153 0 0.999862

vt 0.9995003 0.5614875
vt 0.9995003 1.006485
vt 0.0004995465 1.006485
vt 0.0004995465 0.5614874
vt 0 0
vt 1 0
vt 1 0.5
vt 0 0.5
vt 0.0004997253 0.5512241
vt 0.0004997253 1.003806
vt 0.9995005 1.003806
vt 0.9995005 1.003218
vt 0.9995005 0.5512241
vt 0.0004995465 1.003806
vt 0.0004995465 0.5512242
vt 0.9995003 0.5512242
vt 0.9995003 1.003218
vt 0.9995003 1.003806
vt 1 0.5009358
vt 0 0.5009358
vt 1 0.9994123
vt 0 0.9994123
vt 0.9995005 0.5614875
vt 0.0004997253 0.5614875
vt 0.0004997253 1.006485
vt 0.9995005 1.006485
vt 0.9995003 0.5614875
vt 0.9995003 1.006485
vt 0.0004995465 1.006485
vt 0.0004995465 0.5614874
vt 0 0.5009358
vt 1 0.5009358
vt 1 0.9994123
vt 0 0.9994123
vt 0.9995005 0.5614875
vt 0.0004997253 0.5614875
vt 0.0004997253 1.006485
vt 0.9995005 1.006485

usemtl sn19_20_sn1911.jpg
usemap sn19_20_sn1911.jpg
f 3/3/3 1/1/1 2/2/2
f 1/1/1 3/3/3 4/4/4
f 7/7/7 5/5/5 6/6/6
f 5/5/5 7/7/7 8/8/8
f 11/11/11 9/9/9 10/10/10
f 12/12/12 9/9/9 11/11/11
f 13/13/13 9/9/9 12/12/12
f 16/16/16 14/14/14 15/15/15
f 17/17/17 14/14/14 16/16/16
f 18/18/18 14/14/14 17/17/17
f 8/8/8 19/19/19 20/20/20
f 19/19/19 8/8/8 7/7/7
f 21/21/21 20/20/20 19/19/19
f 20/20/20 21/21/21 22/22/22
f 25/25/25 23/23/23 24/24/24
f 23/23/23 25/25/25 26/26/26
f 29/29/29 27/27/27 28/28/28
f 27/27/27 29/29/29 30/30/30
f 33/33/33 31/31/31 32/32/32
f 31/31/31 33/33/33 34/34/34
f 37/37/37 35/35/35 36/36/36
f 35/35/35 37/37/37 38/38/38
