mtllib ./Box291.mtl
g Box291
v 2.19339 72.72688 -113.7836
v -2.192566 72.72688 -113.7836
v -2.192566 67.17163 -2.377075
v 2.19339 67.17163 -2.377075
v -2.192566 72.72688 -113.7836
v -2.192566 66.12834 -114.1253
v -2.192566 60.5567 -2.389954
v -2.192566 67.17163 -2.377075
v 2.19339 66.12834 -114.1253
v 2.19339 72.72688 -113.7836
v 2.19339 67.17163 -2.377075
v 2.19339 60.5567 -2.389954
v -2.192566 72.72749 166.8428
v 2.19339 72.72749 166.8428
v -2.192566 66.12772 166.8429
v -2.192566 72.72749 166.8428
v 2.19339 72.72749 166.8428
v 2.19339 66.12772 166.8429
v -2.192566 66.12834 -114.1253
v 2.19339 72.72688 -113.7836
v 2.19339 66.12834 -114.1253
v -2.192566 72.72688 -113.7836
v -2.192566 66.12772 166.8429
v 2.19339 66.12772 166.8429
v 2.19339 72.72749 166.8428
v -2.192566 72.72749 166.8428
v -110.9562 3.155502 -155.2086
v -56.81055 29.15065 -134.713
v -109.5745 3.155502 -161.5986
v -57.87962 29.30467 -128.1637
v -109.5745 3.155502 -161.5986
v -55.23827 23.00725 -133.9119
v -108.3405 -3.154572 -160.9698
v -56.81055 29.15065 -134.713
v -108.3405 -3.154572 -160.9698
v -56.30734 23.16127 -127.3625
v -109.7222 -3.154572 -154.5798
v -55.23827 23.00725 -133.9119
v -109.7222 -3.154572 -154.5798
v -57.87962 29.30467 -128.1637
v -110.9562 3.155502 -155.2086
v -56.30734 23.16127 -127.3625
v 0.01092529 72.72919 -121.8106
v 0.007171631 73.50818 -115.0117
v -0.006347656 65.34702 -121.5436
v 0.01092529 72.72919 -121.8106
v -0.01010132 66.12601 -114.7447
v -0.006347656 65.34702 -121.5436
v 0.007171631 73.50818 -115.0117
v -0.01010132 66.12601 -114.7447
v 57.59998 27.81129 -134.7111
v 58.67337 27.95399 -128.1616
v 56.03409 21.65793 -133.914
v 57.59998 27.81129 -134.7111
v 57.10748 21.80063 -127.3644
v 56.03409 21.65793 -133.914
v 58.67337 27.95399 -128.1616
v 57.10748 21.80063 -127.3644
v 109.5455 3.171799 -161.5815
v 110.9438 3.160324 -155.2001
v 108.3545 -3.159393 -160.9783
v 109.5455 3.171799 -161.5815
v 109.7529 -3.170868 -154.5969
v 108.3545 -3.159393 -160.9783
v 110.9438 3.160324 -155.2001
v 109.7529 -3.170868 -154.5969
v -108.3405 -3.154572 -160.9698
v -109.7222 -3.154572 -154.5798
v -110.9562 3.155502 -155.2086
v -109.5745 3.155502 -161.5986
v 108.3545 -3.159393 -160.9783
v 110.9438 3.160324 -155.2001
v 109.7529 -3.170868 -154.5969
v 109.5455 3.171799 -161.5815

vn 0 0.9987591 0.0498028
vn 0 0.9987591 0.0498028
vn 0 0.9998996 0.01416739
vn 0 0.9999236 -0.01235099
vn -1 0 0
vn -0.9999999 0 0
vn -1 0 0
vn -1 0 0
vn 1 0 0
vn 1 0 0
vn 1 0 0
vn 0.9999999 0 0
vn 0 0.9994614 -0.03281452
vn 0 0.9994614 -0.03281452
vn -1 0 0
vn -1 0 0
vn 1 0 0
vn 1 0 0
vn 0 0.05171108 -0.9986621
vn 0 0.05171108 -0.9986621
vn 0 0.05171108 -0.9986621
vn 0 0.05171108 -0.9986621
vn 0 1.387209E-05 1
vn 0 1.387209E-05 1
vn 0 1.387209E-05 1
vn 0 1.387209E-05 1
vn -0.4040755 0.9105433 -0.08737342
vn -0.4745083 0.8747755 -0.09802909
vn -0.4040753 0.9105433 -0.08737408
vn -0.536871 0.837825 -0.09909013
vn 0.4540041 -1.23447E-06 -0.8909996
vn 0.3905981 -0.02005491 -0.9203428
vn 0.4540044 -2.340796E-06 -0.8909994
vn 0.3205324 -0.03198719 -0.9466974
vn 0.4040755 -0.9105431 0.08737342
vn 0.4730775 -0.8755741 0.09781431
vn 0.4040751 -0.9105432 0.08737406
vn 0.5357703 -0.8385401 0.09899782
vn -0.4540048 1.033449E-06 0.8909993
vn -0.3895957 0.02036595 0.9207608
vn -0.4540053 2.110511E-06 0.890999
vn -0.3202569 0.03205392 0.9467883
vn -0.2295997 0.9658793 -0.1198376
vn 0.2451275 0.9620752 -0.1196815
vn 0.09137181 -0.04411343 -0.9948394
vn -0.08804332 -0.04417995 -0.9951365
vn 0.2245728 -0.9670506 0.1199181
vn -0.2499833 -0.9608369 0.119586
vn -0.0871837 0.04405315 0.9952178
vn 0.09214905 0.04423879 0.9947619
vn 0.5403786 0.8357021 -0.09794378
vn 0.4715129 0.8765773 -0.09637374
vn -0.3192674 -0.03139701 -0.9471444
vn -0.3913406 -0.01959754 -0.9200372
vn -0.5386953 -0.8368057 0.09779461
vn -0.4697141 -0.8775724 0.0961005
vn 0.3183857 0.03160695 0.9474342
vn 0.3912324 0.01963795 0.9200824
vn 0.3912107 0.9164522 -0.08408114
vn 0.3912117 0.9164519 -0.08407944
vn -0.4588292 0.001658518 -0.8885229
vn -0.45883 0.001656993 -0.8885226
vn -0.3912103 -0.9164522 0.08408158
vn -0.3912105 -0.9164522 0.08408105
vn 0.4588312 -0.001653591 0.888522
vn 0.4588308 -0.001654968 0.8885221
vn -0.9561215 -0.2075777 -0.2067443
vn -0.9561215 -0.2075777 -0.2067443
vn -0.9561215 -0.2075777 -0.2067443
vn -0.9561215 -0.2075777 -0.2067443
vn 0.9570029 -0.2000372 -0.2100728
vn 0.9570029 -0.2000372 -0.2100728
vn 0.9570029 -0.2000351 -0.2100751
vn 0.9570031 -0.2000393 -0.2100705

vt 1.899473 0.9223628
vt 1.899473 0.9964855
vt 0.5929915 0.9964935
vt 0.5929915 0.9223708
vt -0.1953258 0.9994506
vt -0.1988483 0.9269688
vt 0.9530968 0.9190654
vt 0.9532297 0.9928929
vt 2.198754 0.9269688
vt 2.195232 0.9994506
vt 1.046676 0.9928929
vt 1.046809 0.9190654
vt -0.8200868 0.996502
vt -0.8200868 0.9223794
vt 2.198754 0.9269176
vt 2.195496 0.9995008
vt -0.1955906 0.9995008
vt -0.1988483 0.9269176
vt 0.0009990335 0.9230264
vt 0.1195109 0.9994506
vt 0.1224462 0.9230264
vt 0.003934443 0.9994506
vt 0.1224462 0.9229752
vt 0.0009990335 0.9229752
vt 0.003713787 0.9995008
vt 0.1197314 0.9995008
vt 2.157723 0.9229413
vt 1.348421 0.995347
vt 2.13707 0.9953417
vt 1.364401 0.9229301
vt -1.275203 0.9950275
vt -0.3945588 0.9224803
vt -1.255204 0.9224383
vt -0.4200414 0.9950601
vt -1.119865 0.9952983
vt -0.3421381 0.9228204
vt -1.140517 0.9228553
vt -0.3261588 0.9952917
vt 2.278807 0.9224383
vt 1.438578 0.9950826
vt 2.298806 0.9950275
vt 1.413095 0.9224969
vt 0.4991256 0.9953322
vt 0.4991816 0.9228666
vt 0.5006019 0.9222489
vt 0.5008817 0.9949266
vt 0.4993224 0.92283
vt 0.4993785 0.9953138
vt 0.5003884 0.99504
vt 0.5006682 0.9223325
vt -0.3616435 0.9953468
vt -0.3776872 0.9229297
vt 1.408867 0.9223355
vt 1.434246 0.9948653
vt 1.353044 0.9228207
vt 1.337001 0.9952918
vt -0.4504332 0.994886
vt -0.4250543 0.9223508
vt -1.138059 0.9953405
vt -1.158961 0.9229402
vt 2.25684 0.9224378
vt 2.276142 0.9950299
vt 2.139921 0.9228577
vt 2.11902 0.9952989
vt -1.297597 0.9950282
vt -1.278295 0.9224366
vt 1.072266 0.9993783
vt 1.07124 0.9256196
vt 0.9270368 0.9281567
vt 0.9256471 0.9994998
vt 0.1498381 1.0006
vt 0.005330466 0.9269582
vt 0.1507888 0.9280621
vt 0.006795228 0.9970803

usemtl sn19_26_sn1902.JPG
usemap sn19_26_sn1902.JPG
f 3/3/3 1/1/1 2/2/2
f 1/1/1 3/3/3 4/4/4
f 7/7/7 5/5/5 6/6/6
f 5/5/5 7/7/7 8/8/8
f 11/11/11 9/9/9 10/10/10
f 9/9/9 11/11/11 12/12/12
f 13/13/13 4/4/4 3/3/3
f 4/4/4 13/13/13 14/14/14
f 15/15/15 8/8/8 7/7/7
f 8/8/8 15/15/15 16/16/16
f 17/17/17 12/12/12 11/11/11
f 12/12/12 17/17/17 18/18/18
f 21/21/21 19/19/19 20/20/20
f 19/19/19 22/22/22 20/20/20
f 25/25/25 23/23/23 24/24/24
f 25/25/25 26/26/26 23/23/23
f 29/29/29 27/27/27 28/28/28
f 30/30/30 28/28/28 27/27/27
f 33/33/33 31/31/31 32/32/32
f 34/34/34 32/32/32 31/31/31
f 37/37/37 35/35/35 36/36/36
f 38/38/38 36/36/36 35/35/35
f 41/41/41 39/39/39 40/40/40
f 42/42/42 40/40/40 39/39/39
f 28/28/28 30/30/30 43/43/43
f 44/44/44 43/43/43 30/30/30
f 32/32/32 34/34/34 45/45/45
f 46/46/46 45/45/45 34/34/34
f 36/36/36 38/38/38 47/47/47
f 48/48/48 47/47/47 38/38/38
f 40/40/40 42/42/42 49/49/49
f 50/50/50 49/49/49 42/42/42
f 43/43/43 44/44/44 51/51/51
f 52/52/52 51/51/51 44/44/44
f 45/45/45 46/46/46 53/53/53
f 54/54/54 53/53/53 46/46/46
f 47/47/47 48/48/48 55/55/55
f 56/56/56 55/55/55 48/48/48
f 49/49/49 50/50/50 57/57/57
f 58/58/58 57/57/57 50/50/50
f 51/51/51 52/52/52 59/59/59
f 60/60/60 59/59/59 52/52/52
f 53/53/53 54/54/54 61/61/61
f 62/62/62 61/61/61 54/54/54
f 55/55/55 56/56/56 63/63/63
f 64/64/64 63/63/63 56/56/56
f 57/57/57 58/58/58 65/65/65
f 66/66/66 65/65/65 58/58/58
f 69/69/69 67/67/67 68/68/68
f 69/69/69 70/70/70 67/67/67
f 73/73/73 71/71/71 72/72/72
f 71/71/71 74/74/74 72/72/72
