mtllib ./Box267.mtl
g Box267
v -141.1319 136.5906 140.8631
v -149.5909 136.5906 9.643137
v -149.5909 0 9.643137
v -141.1319 0 140.8631
v -132.673 136.5906 272.0831
v -83.65405 92.3965 268.9232
v 166.5086 92.18353 252.7967
v 166.5086 136.5906 252.7967
v 141.1318 136.5906 -140.8632
v 149.5907 136.5906 -9.643251
v 149.5907 64.33452 -9.643251
v 149.5907 0 -9.643251
v 141.1318 0 -140.8633
v 141.1318 64.61068 -140.8633
v -149.5909 210 9.643137
v -149.5909 136.5906 9.643137
v -141.1319 136.5906 140.8631
v -132.673 136.5906 272.0831
v -132.673 210 272.0831
v -141.1319 210 140.8631
v -132.673 136.5906 272.0831
v 166.5086 136.5906 252.7967
v 166.5086 210 252.7967
v 29.42943 210 261.6334
v 149.5907 210 -9.643251
v 149.5907 136.5906 -9.643251
v 141.1318 136.5906 -140.8632
v 132.4729 136.5906 -275.1857
v 132.4729 210 -275.1857
v 141.1318 210 -140.8632
v 166.5086 136.5906 252.7967
v 166.5086 92.18353 252.7967
v 158.0497 0 121.5768
v 149.5907 64.33452 -9.643251
v 149.5907 136.5906 -9.643251
v 158.0497 136.5906 121.5768
v 166.5086 210 252.7967
v 166.5086 136.5906 252.7967
v 158.0497 136.5906 121.5768
v 149.5907 136.5906 -9.643251
v 149.5907 210 -9.643251
v 158.0497 210 121.5768
v 149.5907 0 -9.643251
v 132.4729 0 -275.1857
v 132.4729 64.88683 -275.1857
v 132.4729 136.5906 -275.1857
v 141.1318 64.61068 -140.8633
v -158.0498 136.5906 -121.5769
v -166.7087 136.5906 -255.8993
v -166.7087 0 -255.8993
v -158.0498 0 -121.5769
v -166.7087 210 -255.8993
v -166.7087 136.5906 -255.8993
v -158.0498 136.5906 -121.5769
v -149.5909 136.5906 9.643137
v -149.5909 210 9.643137
v -158.0498 210 -121.5769
v -149.5909 0 9.643137
v -149.5909 136.5906 9.643137
v -158.0498 210 -121.5769
v -158.0498 136.5906 -121.5769
v -132.673 92.43823 272.0831
v -132.673 136.5906 272.0831
v 149.5907 64.33452 -9.643251
v 132.4729 64.88683 -275.1857
v 29.42943 210 261.6334
v -132.673 210 272.0831
v -132.673 136.5906 272.0831
v -132.673 26.00401 272.0831
v -132.673 0 272.0831
v -86.42181 0 269.1016
v -132.673 0 272.0831
v -132.673 26.00401 272.0831
v 166.5086 0 252.7967
v 166.5086 0 252.7967
v -85.14125 42.7483 269.019
v -132.673 92.43823 272.0831
v -85.14125 42.7483 269.019
v -83.65405 92.3965 268.9232
v -132.673 92.43823 272.0831
v -132.673 26.00401 272.0831

vn 0.0007020086 0 0.9999998
vn 0.0007020161 0 0.9999997
vn 0.0007020161 0 0.9999997
vn 0.0007020012 0 0.9999998
vn 0.9999998 5.747118E-08 -0.0007020235
vn 0.9999996 -4.36595E-08 -0.0007020235
vn 0.9999998 3.213034E-08 -0.0007020831
vn 0.9999998 0 -0.0007020235
vn -0.0007020012 3.931822E-08 -0.9999998
vn -0.0007020161 0 -0.9999997
vn -0.0007020012 2.722212E-08 -0.9999996
vn -0.0007019788 0 -0.9999996
vn -0.0007020235 0 -0.9999997
vn -0.0007020086 0 -0.9999998
vn 0.0007020235 0 0.9999997
vn 0.0007020235 0 0.9999997
vn 0.0007020086 0 0.9999998
vn 0.0007019863 0 0.9999998
vn 0.0007019863 0 0.9999998
vn 0.0007019937 0 0.9999996
vn 0.9999996 -5.325245E-08 -0.0007020235
vn 0.9999996 0 -0.0007020235
vn 0.9999996 -5.325245E-08 -0.0007020235
vn 0.9999998 -1.694784E-07 -0.0007020831
vn -0.0007020161 0 -0.9999997
vn -0.0007020161 0 -0.9999997
vn -0.0007020161 0 -0.9999997
vn -0.0007020161 0 -0.9999997
vn -0.0007020161 0 -0.9999997
vn -0.0007020161 0 -0.9999997
vn -0.0007020086 0 -0.9999996
vn -0.0007020161 0 -0.9999997
vn -0.0007020086 0 -0.9999998
vn -0.0007019788 0 -0.9999996
vn -0.0007019863 0 -0.9999998
vn -0.0007020012 0 -0.9999998
vn -0.0007020161 0 -0.9999997
vn -0.0007020161 0 -0.9999997
vn -0.0007020086 0 -0.9999998
vn -0.0007019863 0 -0.9999998
vn -0.0007019863 0 -0.9999998
vn -0.0007019937 0 -0.9999998
vn -0.0007019863 0 -0.9999998
vn -0.0007020384 0 -0.9999997
vn -0.0007020459 0 -0.9999997
vn -0.000702031 3.155904E-08 -0.9999997
vn -0.0007020161 3.911308E-08 -0.9999997
vn 0.0007020682 0 0.9999997
vn 0.0007020459 0 0.9999997
vn 0.0007020459 0 0.9999997
vn 0.0007020831 0 0.9999996
vn 0.0007020459 0 0.9999997
vn 0.0007020459 0 0.9999997
vn 0.0007020459 0 0.9999997
vn 0.000702098 0 0.9999998
vn 0.000702098 0 0.9999998
vn 0.000702098 0 0.9999998
vn 0.000702098 0 0.9999996
vn 0.000702098 0 0.9999996
vn 0.0007020459 0 0.9999997
vn 0.000702098 0 0.9999998
vn 0.0007019788 0 0.9999998
vn 0.0007019788 0 0.9999998
vn -0.0007019788 0 -0.9999996
vn -0.0007020459 0 -0.9999997
vn 0.9999996 0 -0.0007020235
vn 0.9999996 0 -0.0007020235
vn 0.9999996 0 -0.0007020235
vn 0.9999997 3.702332E-09 -0.0007022619
vn 0.9999997 0 -0.0007022619
vn 0.9999996 3.558985E-08 -0.0007020831
vn 0.0007019863 0 0.9999996
vn 0.0007019863 0 0.9999998
vn 0.9999997 -6.821457E-08 -0.0007020235
vn -0.0007020161 0 -0.9999997
vn 0.9999997 -1.243229E-07 -0.0007020235
vn 0.9999996 0 -0.0007019639
vn 0.9999997 -1.278237E-07 -0.0007021427
vn 0.9999997 -2.936711E-07 -0.0007019639
vn 0.9999997 -1.278237E-07 -0.0007021427
vn 0.9999997 0 -0.0007022619

vt 1 0.9790346
vt 1.999001 0.9790345
vt 1.999001 0.005517994
vt 1 0.005518061
vt 0 0.9701149
vt 0.1638434 0.6587588
vt 1 0.6572584
vt 1 0.9701149
vt 0.5000001 0.8684615
vt 0.0004994869 0.8684617
vt 0.00049955 0.4745136
vt 0.0004996061 0.009304828
vt 0.5000001 0.009304751
vt 0.5000001 0.4328455
vt 1.999001 0.9692551
vt 1.999001 0.4628868
vt 1 0.4628868
vt 0.0009990931 0.4628869
vt 0.0009990931 0.9692551
vt 1 0.9692551
vt 0 0.4545209
vt 1 0.4545209
vt 1 0.971705
vt 0.5418195 0.971705
vt 0.0004994869 0.8991814
vt 0.0004994869 0.4232675
vt 0.5000001 0.4232674
vt 0.9995005 0.4232672
vt 0.9995005 0.8991812
vt 0.5 0.8991812
vt 0.0004995465 0.9015975
vt 0.0004995465 0.6121839
vt 0.4999999 0.01139678
vt 0.9995004 0.4306836
vt 0.9995003 0.9015974
vt 0.4999999 0.9015974
vt 0.0004995465 0.9382891
vt 0.0004995465 0.418099
vt 0.4999999 0.4180989
vt 0.9995003 0.4180988
vt 0.9995003 0.938289
vt 0.4999999 0.9382891
vt 0.9995005 0.01139674
vt 0.9995005 0.009304704
vt 0.9995005 0.4346556
vt 0.9995005 0.8684614
vt 0.5000001 0.4763238
vt 1 0.9790346
vt 1.999001 0.9790345
vt 1.999001 0.005517994
vt 1 0.005518061
vt 1.999001 0.9692551
vt 1.999001 0.4628868
vt 1 0.4628868
vt 0.0009990931 0.4628869
vt 0.0009990931 0.9692551
vt 1 0.9692551
vt 0.0009990931 0.005518128
vt 0.0009990931 0.9790347
vt 1 0.9692551
vt 1 0.4628868
vt 0.0009990931 0.6643495
vt 0.0009990931 0.9790347
vt 0.00049955 0.4310353
vt 0.9995005 0.4781339
vt 0.5418195 0.971705
vt 0 0.971705
vt 0 0.4545209
vt 0 0.1910104
vt 0 0.007806881
vt 0.1545923 0.007806881
vt 0.0009990931 0.005518128
vt 0.0009990931 0.1908555
vt 1 0.007806881
vt 0.0004995465 0.01139687
vt 0.1588724 0.3089773
vt 0 0.6590528
vt 0.1588724 0.3089773
vt 0.1638434 0.6587588
vt 0 0.6590528
vt 0 0.1910104

usemtl sn19_29_sn19305.JPG
usemap sn19_29_sn19305.JPG
f 3/3/3 1/1/1 2/2/2
f 1/1/1 3/3/3 4/4/4
f 7/7/7 5/5/5 6/6/6
f 5/5/5 7/7/7 8/8/8
f 11/11/11 9/9/9 10/10/10
f 17/17/17 15/15/15 16/16/16
f 20/20/20 18/18/18 19/19/19
f 23/23/23 21/21/21 22/22/22
f 21/21/21 23/23/23 24/24/24
f 47/47/47 46/46/46 9/9/9
f 54/54/54 52/52/52 53/53/53
f 60/60/60 52/52/52 54/54/54
f 63/63/63 4/4/4 62/62/62
f 4/4/4 63/63/63 1/1/1
f 20/20/20 15/15/15 17/17/17
f 18/18/18 20/20/20 17/17/17
f 47/47/47 9/9/9 11/11/11
f 65/65/65 46/46/46 47/47/47
f 68/68/68 66/66/66 67/67/67
f 71/71/71 69/69/69 70/70/70
f 73/73/73 4/4/4 72/72/72
f 6/6/6 74/74/74 7/7/7
f 71/71/71 74/74/74 76/76/76
f 6/6/6 5/5/5 77/77/77
f 69/69/69 71/71/71 76/76/76
f 80/80/80 78/78/78 79/79/79
f 76/76/76 74/74/74 6/6/6
f 78/78/78 80/80/80 81/81/81
f 62/62/62 4/4/4 73/73/73

usemtl sn19_28_sn19306.JPG
usemap sn19_28_sn19306.JPG
f 14/14/14 12/12/12 13/13/13
f 27/27/27 25/25/25 26/26/26
f 30/30/30 28/28/28 29/29/29
f 33/33/33 31/31/31 32/32/32
f 36/36/36 34/34/34 35/35/35
f 39/39/39 37/37/37 38/38/38
f 42/42/42 40/40/40 41/41/41
f 36/36/36 31/31/31 33/33/33
f 43/43/43 36/36/36 33/33/33
f 42/42/42 37/37/37 39/39/39
f 40/40/40 42/42/42 39/39/39
f 45/45/45 13/13/13 44/44/44
f 30/30/30 25/25/25 27/27/27
f 28/28/28 30/30/30 27/27/27
f 36/36/36 43/43/43 34/34/34
f 12/12/12 14/14/14 64/64/64
f 13/13/13 45/45/45 14/14/14
f 33/33/33 32/32/32 75/75/75

usemtl sn19_35_sn19307.JPG
usemap sn19_35_sn19307.JPG
f 50/50/50 48/48/48 49/49/49
f 48/48/48 50/50/50 51/51/51
f 57/57/57 55/55/55 56/56/56
f 59/59/59 51/51/51 58/58/58
f 51/51/51 59/59/59 48/48/48
f 55/55/55 57/57/57 61/61/61
