mtllib ./Box288.mtl
g Box288
v 11.88338 72.9173 -13.27869
v -11.71255 73.06866 -13.3833
v -11.45583 73.13449 9.960571
v 11.62418 73.03479 9.880859
v 5.042786 66.71436 -11.26978
v -4.967575 66.79205 -11.31421
v -10.69749 69.90146 -12.34375
v -11.71255 73.06866 -13.3833
v 11.88338 72.9173 -13.27869
v 10.81799 69.74472 -12.24658
v -9.664642 66.84384 -6.958008
v -9.548752 66.87979 3.580078
v -10.46758 69.98065 8.947998
v -11.45583 73.13449 9.960571
v -11.71255 73.06866 -13.3833
v -10.69749 69.90146 -12.34375
v -4.796661 66.87015 7.94104
v 4.869827 66.81961 7.907593
v 10.58578 69.87479 8.873291
v 11.62418 73.03479 9.880859
v -11.45583 73.13449 9.960571
v -10.46758 69.98065 8.947998
v 9.622162 66.76849 3.568115
v 9.739609 66.70407 -6.925537
v 10.81799 69.74472 -12.24658
v 11.88338 72.9173 -13.27869
v 11.62418 73.03479 9.880859
v 10.58578 69.87479 8.873291
v -86.52635 30.10764 -91.22925
v -178.2051 4.971802 -182.5347
v -183.0118 4.971802 -177.8718
v -91.25308 30.14403 -86.90234
v -91.36897 29.68785 86.52441
v -183.014 4.973633 177.5873
v -178.208 4.973633 182.2593
v -86.68387 29.64314 90.95374
v 92.80768 28.31464 -86.93225
v 183.0436 4.969543 -177.7844
v 178.2568 4.969543 -182.516
v 88.04287 28.36098 -91.21057
v 6.144989 71.79053 8.5177
v 88.00235 28.43181 90.93701
v 92.72457 28.39662 86.56726
v 10.89732 71.73938 4.178223
v 178.2561 4.971237 182.2424
v 183.0442 4.971237 177.5146
v -10.79321 71.85309 4.207031
v -86.68387 29.64314 90.95374
v -6.041122 71.84344 8.567993
v 6.317352 71.68356 -11.88904
v 11.01418 71.67328 -7.5448
v -6.209854 71.76352 -11.95215
v -91.25308 30.14403 -86.90234
v -10.90692 71.81531 -7.595947
v -85.28406 25.13617 -90.59131
v -176.9628 0.0003356934 -181.8967
v -178.2051 4.971802 -182.5347
v -86.52635 30.10764 -91.22925
v -90.12451 24.71454 85.89746
v -181.7695 0.0003356934 176.9604
v -183.014 4.973633 177.5873
v -91.36897 29.68785 86.52441
v -181.7695 0.0003356934 -177.2339
v -90.0108 25.17256 -86.2644
v -91.25308 30.14403 -86.90234
v -183.0118 4.971802 -177.8718
v 91.5331 23.34543 -86.31299
v 181.769 0.0003356934 -177.1652
v 183.0436 4.969543 -177.7844
v 92.80768 28.31464 -86.93225
v 91.4494 23.42572 85.95703
v 9.622162 66.76849 3.568115
v 10.89732 71.73938 4.178223
v 92.72457 28.39662 86.56726
v -176.9635 0.0003356934 181.6323
v -85.43941 24.66985 90.3269
v -86.68387 29.64314 90.95374
v -178.208 4.973633 182.2593
v 181.769 0.0003356934 176.9045
v 91.4494 23.42572 85.95703
v 92.72457 28.39662 86.56726
v 183.0442 4.971237 177.5146
v 176.9822 0.0003356934 -181.8967
v 86.7683 23.39177 -90.59131
v 88.04287 28.36098 -91.21057
v 178.2568 4.969543 -182.516
v -4.796661 66.87015 7.94104
v -6.041122 71.84344 8.567993
v 5.042786 66.71436 -11.26978
v 6.317352 71.68356 -11.88904
v -9.664642 66.84384 -6.958008
v -10.90692 71.81531 -7.595947
v 9.739609 66.70407 -6.925537
v 11.01418 71.67328 -7.5448
v 4.869827 66.81961 7.907593
v 86.72719 23.46091 90.3269
v 88.00235 28.43181 90.93701
v 6.144989 71.79053 8.5177
v -4.967575 66.79205 -11.31421
v -6.209854 71.76352 -11.95215
v -9.548752 66.87979 3.580078
v -10.79321 71.85309 4.207031
v 181.769 0.0003356934 -177.1652
v 176.9822 0.0003356934 -181.8967
v 178.2568 4.969543 -182.516
v 183.0436 4.969543 -177.7844
v -176.9628 0.0003356934 -181.8967
v -181.7695 0.0003356934 -177.2339
v -183.0118 4.971802 -177.8718
v -178.2051 4.971802 -182.5347
v -181.7695 0.0003356934 176.9604
v -176.9635 0.0003356934 181.6323
v -178.208 4.973633 182.2593
v -183.014 4.973633 177.5873
v 86.72719 23.46091 90.3269
v 176.981 0.0003356934 181.6323
v 181.769 0.0003356934 176.9045

vn 0.005380946 0.9999777 -0.003941683
vn 0.006427626 0.9999751 -0.002890478
vn 0.005380946 0.9999777 -0.003941683
vn 0.004302348 0.9999782 -0.005024923
vn 0.00198621 -0.310892 -0.9504432
vn 0.001801699 -0.3113295 -0.9503003
vn 0.001801195 -0.3113317 -0.9502996
vn 0.002099381 -0.3105212 -0.9505642
vn 0.002226216 -0.310037 -0.9507219
vn 0.002185052 -0.310288 -0.9506401
vn -0.9531873 -0.3021643 0.01143585
vn -0.9531263 -0.3023537 0.01151327
vn -0.9531256 -0.3023557 0.01151368
vn -0.9532382 -0.3020056 0.01138763
vn -0.9533025 -0.3018043 0.01133519
vn -0.9532714 -0.3019021 0.01135042
vn 0.001821579 -0.30457 0.9524882
vn 0.001705207 -0.3042871 0.9525788
vn 0.001705629 -0.3042891 0.9525782
vn 0.001891728 -0.304811 0.9524109
vn 0.001970904 -0.305131 0.9523083
vn 0.00194497 -0.3049601 0.9523631
vn 0.9490114 -0.3149973 0.01240965
vn 0.9491268 -0.3146436 0.01255446
vn 0.9491271 -0.3146428 0.01255461
vn 0.9489142 -0.3152936 0.01231943
vn 0.9487894 -0.3156728 0.01222029
vn 0.9488506 -0.3154877 0.01224931
vn -0.1608203 0.9707967 -0.1780183
vn -0.1328001 0.9816431 -0.1368975
vn -0.1291514 0.9815584 -0.1409359
vn -0.1253259 0.9814386 -0.1451611
vn -0.1606301 0.971395 0.1748995
vn -0.1309831 0.9821853 0.1347419
vn -0.1275615 0.9822044 0.1378505
vn -0.1240027 0.9822018 0.1410778
vn 0.1628293 0.9718919 -0.1700374
vn 0.1260865 0.983784 -0.1275592
vn 0.1255505 0.9837901 -0.1280396
vn 0.2024633 0.9553657 -0.2151396
vn 0.241288 0.9368392 0.2532044
vn -0.1786325 0.8660885 0.4668844
vn 0.2022847 0.9563487 0.2108987
vn 0.241289 0.9368393 0.2532031
vn -0.2895391 0.7948735 0.5332384
vn 0.1539225 0.9756592 0.1561954
vn -0.2315153 0.9389898 0.2543596
vn -0.2315153 0.9389898 0.2543596
vn -0.2315171 0.9389898 0.2543582
vn 0.2427753 0.9345167 -0.2602667
vn 0.2427773 0.9345167 -0.2602649
vn -0.2303092 0.9378848 -0.2594798
vn -0.2303092 0.9378848 -0.2594798
vn -0.2303088 0.9378848 -0.25948
vn 0.6883801 0.07949914 -0.7209805
vn 0.6921237 0.08091433 -0.7172291
vn 0.6921235 0.08091574 -0.7172291
vn 0.6843778 0.07799029 -0.7249444
vn -0.6910561 -0.08240382 -0.7180884
vn -0.6911725 -0.08246095 -0.7179698
vn -0.6911741 -0.08245143 -0.7179694
vn -0.690933 -0.08235065 -0.718213
vn -0.6905715 -0.08032555 0.7187899
vn -0.6838183 -0.07777789 0.7254951
vn -0.6873047 -0.07909096 0.7220504
vn -0.6905715 -0.08032555 0.7187899
vn 0.6877795 -0.08659292 0.7207363
vn 0.6950899 -0.08938808 0.7133442
vn 0.6950898 -0.0893888 0.7133442
vn 0.6800551 -0.08366045 0.7283722
vn 0.6837519 -0.08646004 -0.7245744
vn 0.6837491 -0.08646766 -0.7245762
vn 0.6837519 -0.08646004 -0.7245744
vn 0.6837547 -0.08645242 -0.7245727
vn 0.69253 0.08296053 0.716603
vn 0.6914041 0.0825402 0.7177377
vn 0.6919799 0.08275624 0.7171577
vn 0.6925321 0.08295109 0.716602
vn 0.694853 -0.09067778 -0.7134122
vn 0.6948547 -0.0906704 -0.7134115
vn 0.694853 -0.09067778 -0.7134122
vn 0.6948513 -0.09068517 -0.7134128
vn -0.6968244 0.09005608 -0.7115656
vn -0.6806918 0.08390155 -0.7277493
vn -0.6889924 0.08705591 -0.7195211
vn -0.6968246 0.09005538 -0.7115656
vn 0.6908029 0.08230143 0.7183438
vn 0.6908 0.08230937 0.7183456
vn -0.6718854 0.08058161 -0.7362585
vn -0.6718852 0.08058198 -0.7362587
vn -0.6800898 -0.07637873 0.7291393
vn -0.6800898 -0.07637873 0.7291393
vn 0.6718848 -0.08058198 0.736259
vn 0.6718849 -0.0805816 0.736259
vn -0.6837495 0.08646686 0.7245759
vn -0.6837494 0.08646699 0.7245758
vn -0.6837495 0.08646686 0.7245759
vn -0.6837496 0.08646672 0.7245759
vn 0.6800897 0.07637969 -0.7291394
vn 0.6800901 0.07637855 -0.7291391
vn -0.6908027 -0.08230165 -0.718344
vn -0.6908026 -0.08230176 -0.718344
vn 0.6788667 -0.2597131 -0.6867962
vn 0.6788667 -0.2597131 -0.6867962
vn 0.6788667 -0.2597131 -0.6867962
vn 0.6788667 -0.2597131 -0.6867962
vn -0.6728702 -0.2571448 -0.6936298
vn -0.6728702 -0.2571448 -0.6936298
vn -0.6728702 -0.2571448 -0.6936298
vn -0.6728702 -0.2571448 -0.6936298
vn -0.6738083 -0.2559788 0.6931502
vn -0.6738039 -0.2559844 0.6931525
vn -0.6738083 -0.2559788 0.6931502
vn -0.6738127 -0.2559732 0.6931479
vn -0.6963966 0.09127644 0.7118289
vn -0.6608005 0.07788862 0.7465093
vn 0.6787378 -0.2584805 0.6873885

vt 0.0004994869 0.9228532
vt 0.2482928 0.9183739
vt 0.237424 0.9995005
vt 0.01147389 0.996086
vt 0.4798957 0.9967459
vt 0.4326464 0.9981116
vt 0.4056009 0.9579867
vt 0.4008097 0.9159585
vt 0.5121837 0.9123771
vt 0.5071549 0.9549448
vt 0.5214557 0.9128878
vt 0.5626445 0.913393
vt 0.5836254 0.9573921
vt 0.5875831 1.002146
vt 0.4963423 1.001209
vt 0.5004056 0.9562722
vt 0.5002571 0.9130723
vt 0.5746676 0.9115568
vt 0.6186679 0.9529043
vt 0.6266612 0.996086
vt 0.4489961 0.999458
vt 0.4566036 0.9561676
vt 0.5086631 0.9203857
vt 0.6003636 0.9193793
vt 0.6626213 0.9573056
vt 0.687941 0.9969639
vt 0.4854418 0.9988997
vt 0.4780694 0.9593477
vt 0.6835877 0.9297221
vt 1.939308 0.9300483
vt 1.940184 0.9844673
vt 0.6860949 0.9817097
vt 0.6917444 0.93509
vt 1.945567 0.9335608
vt 1.944759 0.9880282
vt 0.6902068 0.9874348
vt 0.83324 0.9859136
vt -0.4094803 0.9805723
vt -0.409214 0.9258718
vt 0.8364553 0.9339541
vt 1.950006 0.9789022
vt 0.8226541 0.9837649
vt 0.8203436 0.9315177
vt 1.947281 0.9266568
vt -0.4233047 0.9916139
vt -0.4236052 0.9369281
vt -0.4261274 0.9234617
vt 0.6900975 0.9874672
vt -0.4287038 0.9758292
vt 1.941625 0.9217339
vt 1.939313 0.9736886
vt -0.4116073 0.9253358
vt 0.6862245 0.9817482
vt -0.4093752 0.97736
vt 1.332415 0.9243168
vt 2.17266 0.9242736
vt 2.17853 0.9927282
vt 1.338285 0.9927714
vt 1.291754 0.9242426
vt 2.129767 0.9242278
vt 2.135537 0.9927284
vt 1.297524 0.9927431
vt -1.129732 0.9242959
vt -0.2925786 0.9243537
vt -0.2984492 0.9927856
vt -1.135602 0.9927278
vt 1.293044 0.9240016
vt 2.129117 0.9240794
vt 2.134816 0.9927281
vt 1.298743 0.9926503
vt -0.2922849 0.9240463
vt 0.4659057 0.9242751
vt 0.4602907 0.9927554
vt -0.2978999 0.9925266
vt -1.172743 0.9242959
vt -0.3324979 0.9242842
vt -0.3382673 0.9927518
vt -1.178512 0.9927635
vt -1.129236 0.9242959
vt -0.2922848 0.9242002
vt -0.2978998 0.9926676
vt -1.134851 0.9927633
vt -1.172641 0.9242959
vt -0.3323965 0.9240404
vt -0.3380957 0.9926652
vt -1.17834 0.9929206
vt 0.4256639 0.924293
vt 0.4198945 0.9927624
vt 0.3975653 0.9241268
vt 0.3918661 0.9927516
vt 0.4372442 0.9242883
vt 0.4313735 0.9927605
vt 0.5624745 0.9242637
vt 0.5681734 0.9929123
vt 0.5740466 0.9242841
vt 1.332516 0.924022
vt 1.338131 0.9926583
vt 0.5796614 0.9929204
vt 0.6028615 0.9242792
vt 0.6087322 0.9927338
vt 0.5342225 0.9242947
vt 0.5399917 0.992763
vt 0.8971297 0.9978943
vt 0.8887841 0.9172983
vt 1.005617 0.9188269
vt 1.013963 0.999423
vt 0.1091667 0.9276585
vt 0.1101155 0.995719
vt -0.02159822 0.998485
vt -0.02254703 0.9304245
vt 0.1377525 0.9202548
vt 0.1377346 1.000347
vt 0.03917924 1.001434
vt 0.03919718 0.921341
vt 0.9948124 0.5126727
vt 0.001999497 0.05745749
vt 0.001998186 0.05655039

usemtl sn19_26_sn1902.JPG
usemap sn19_26_sn1902.JPG
f 3/3/3 1/1/1 2/2/2
f 4/4/4 1/1/1 3/3/3
f 7/7/7 5/5/5 6/6/6
f 8/8/8 5/5/5 7/7/7
f 10/10/10 8/8/8 9/9/9
f 10/10/10 5/5/5 8/8/8
f 13/13/13 11/11/11 12/12/12
f 14/14/14 11/11/11 13/13/13
f 16/16/16 14/14/14 15/15/15
f 16/16/16 11/11/11 14/14/14
f 19/19/19 17/17/17 18/18/18
f 20/20/20 17/17/17 19/19/19
f 22/22/22 20/20/20 21/21/21
f 22/22/22 17/17/17 20/20/20
f 25/25/25 23/23/23 24/24/24
f 26/26/26 23/23/23 25/25/25
f 28/28/28 26/26/26 27/27/27
f 28/28/28 23/23/23 26/26/26
f 31/31/31 29/29/29 30/30/30
f 29/29/29 31/31/31 32/32/32
f 35/35/35 33/33/33 34/34/34
f 33/33/33 35/35/35 36/36/36
f 39/39/39 37/37/37 38/38/38
f 37/37/37 39/39/39 40/40/40
f 43/43/43 41/41/41 42/42/42
f 41/41/41 43/43/43 44/44/44
f 46/46/46 42/42/42 45/45/45
f 42/42/42 46/46/46 43/43/43
f 48/48/48 47/47/47 33/33/33
f 47/47/47 48/48/48 49/49/49
f 51/51/51 40/40/40 50/50/50
f 40/40/40 51/51/51 37/37/37
f 53/53/53 52/52/52 29/29/29
f 52/52/52 53/53/53 54/54/54
f 57/57/57 55/55/55 56/56/56
f 55/55/55 57/57/57 58/58/58
f 61/61/61 59/59/59 60/60/60
f 59/59/59 61/61/61 62/62/62
f 65/65/65 63/63/63 64/64/64
f 63/63/63 65/65/65 66/66/66
f 69/69/69 67/67/67 68/68/68
f 67/67/67 69/69/69 70/70/70
f 73/73/73 71/71/71 72/72/72
f 71/71/71 73/73/73 74/74/74
f 77/77/77 75/75/75 76/76/76
f 75/75/75 77/77/77 78/78/78
f 81/81/81 79/79/79 80/80/80
f 79/79/79 81/81/81 82/82/82
f 85/85/85 83/83/83 84/84/84
f 83/83/83 85/85/85 86/86/86
f 88/88/88 76/76/76 87/87/87
f 76/76/76 88/88/88 77/77/77
f 90/90/90 84/84/84 89/89/89
f 84/84/84 90/90/90 85/85/85
f 92/92/92 64/64/64 91/91/91
f 64/64/64 92/92/92 65/65/65
f 70/70/70 93/93/93 67/67/67
f 93/93/93 70/70/70 94/94/94
f 97/97/97 95/95/95 96/96/96
f 95/95/95 97/97/97 98/98/98
f 58/58/58 99/99/99 55/55/55
f 99/99/99 58/58/58 100/100/100
f 62/62/62 101/101/101 59/59/59
f 101/101/101 62/62/62 102/102/102
f 105/105/105 103/103/103 104/104/104
f 103/103/103 105/105/105 106/106/106
f 109/109/109 107/107/107 108/108/108
f 107/107/107 109/109/109 110/110/110
f 113/113/113 111/111/111 112/112/112
f 111/111/111 113/113/113 114/114/114
f 116/116/116 42/42/42 115/115/115
f 42/42/42 116/116/116 45/45/45
f 46/46/46 116/116/116 117/117/117
f 116/116/116 46/46/46 45/45/45
