mtllib ./Box34.mtl
g Box34
v -149.9996 135.7039 -150.0002
v 0.0003662109 135.7039 -150.0002
v 0.0003662109 0 -150.0002
v -149.9996 0 -150.0002
v -149.9996 67.85194 -150.0002
v -149.9996 67.85194 -150.0002
v -149.9996 0 -150.0002
v -149.9996 0 149.9998
v -149.9996 67.85194 149.9998
v 150.0004 135.7039 149.9998
v 0.0003051758 135.7039 149.9998
v 0.0003051758 0 149.9998
v 150.0004 67.85194 149.9998
v 150.0004 135.7039 149.9998
v 150.0004 67.85194 149.9998
v 150.0004 67.85194 -94.88141
v 150.0004 67.85194 -150.0002
v 150.0004 85.45168 -150.0002
v 150.0004 77.17194 -137.5101
v 0.0003051758 270 -150.0002
v 0.0003662109 135.7039 -150.0002
v -149.9996 135.7039 -150.0002
v -149.9996 270 -150.0002
v -149.9996 135.7039 -150.0002
v -149.9996 135.7039 149.9998
v -149.9996 270 149.9998
v -149.9996 270 -150.0002
v 0.0003051758 270 149.9998
v 0.0003051758 135.7039 149.9998
v 150.0004 135.7039 149.9998
v 150.0004 270 149.9998
v 150.0004 135.7039 149.9998
v 150.0004 135.7039 -150.0002
v 150.0004 270 -150.0002
v 150.0004 270 149.9998
v 150.0004 85.45168 -150.0002
v 150.0004 67.85194 -150.0002
v 0.0003662109 0 -150.0002
v 0.0003662109 135.7039 -150.0002
v 150.0004 135.7039 -150.0002
v -149.9996 67.85194 149.9998
v -149.9996 0 149.9998
v 0.0003051758 0 149.9998
v 0.0003051758 135.7039 149.9998
v -149.9996 135.7039 149.9998
v 150.0004 270 -150.0002
v 150.0004 135.7039 -150.0002
v 0.0003662109 135.7039 -150.0002
v 0.0003051758 270 -150.0002
v -149.9996 270 149.9998
v -149.9996 135.7039 149.9998
v 0.0003051758 135.7039 149.9998
v 0.0003051758 270 149.9998
v 150.0004 67.85194 149.9998
v 150.0004 0 149.9998
v 150.0004 0 -4.266602
v 150.0004 0 149.9998
v 150.0004 0 -150.0002
v 150.0004 67.85194 -150.0002
v 150.0004 67.85194 -137.5441
v 150.0004 0 -150.0002
v -149.9996 67.85194 149.9998
v -149.9996 135.7039 149.9998
v -149.9996 135.7039 -150.0002
v -149.9996 67.85194 -150.0002
v 150.0004 89.77928 -124.1649
v 150.0004 135.7039 -150.0002
v 150.0004 109.1246 -150.0002
v 150.0004 67.85194 -123.4508
v 150.0004 77.17194 -137.5101
v 150.0004 89.77928 -124.1649
v 150.0004 0 -137.7914
v 150.0004 67.85194 -123.4508
v 150.0004 0 -21.09537
v 150.0004 67.85194 -94.88141
v 150.0004 67.85194 -94.88141
v 150.0004 0 -4.266602
v 150.0004 67.85194 -94.88141
v 150.0004 109.1246 -150.0002
v 150.0004 99.71062 -137.428
v 150.0004 109.1246 -150.0002
v 150.0004 99.71062 -137.428
v 150.0004 99.71062 -137.428
v 150.0004 67.85194 -137.5441
v 150.0004 67.85194 -137.5441
v 150.0004 0 -137.7914
v 150.0004 67.85194 -137.5441

vn 0 0 -1
vn 0 0 -0.9999999
vn 0 0 -0.9999999
vn 0 0 -0.9999999
vn 0 0 -0.9999999
vn -0.9999999 0 0
vn -0.9999999 0 0
vn -0.9999999 0 0
vn -0.9999999 0 0
vn 0 0 1
vn 0 0 1
vn 0 0 1
vn 0 0 1
vn 1 0 0
vn 1 0 0
vn 1 0 0
vn 1 0 0
vn 0.9999999 0 0
vn 1 0 0
vn 0 0 -1
vn 0 0 -1
vn 0 0 -1
vn 0 0 -1
vn -1 0 0
vn -1 0 0
vn -1 0 0
vn -1 0 0
vn 0 0 1
vn 0 0 1
vn 0 0 1
vn 0 0 1
vn 1 0 0
vn 1 0 0
vn 1 0 0
vn 1 0 0
vn 0 0 -1
vn 0 0 -0.9999999
vn 0 0 -0.9999999
vn 0 0 -0.9999999
vn 0 0 -1
vn 0 0 1
vn 0 0 1
vn 0 0 1
vn 0 0 1
vn 0 0 0.9999999
vn 0 0 -1
vn 0 0 -1
vn 0 0 -1
vn 0 0 -1
vn 0 0 1
vn 0 0 1
vn 0 0 1
vn 0 0 1
vn 1 0 0
vn 1 0 0
vn 1 0 0
vn 0 0 1
vn 1 0 0
vn 1 0 0
vn 1 0 0
vn 0 0 -0.9999999
vn -0.9999999 0 0
vn -0.9999999 0 0
vn -0.9999999 0 0
vn -0.9999999 0 0
vn 1 0 0
vn 1 0 0
vn 0 0 -1
vn 1 0 0
vn 1 0 0
vn 1 0 0
vn 1 0 0
vn 1 0 0
vn 1 0 0
vn 1 0 0
vn 1 0 0
vn 1 0 0
vn 1 0 0
vn 1 0 0
vn 1 0 0
vn 1 0 0
vn 1 0 0
vn 1 0 0
vn 1 0 0
vn 1 0 0
vn 1 0 0
vn 1 0 0

vt 2.002038 1.005209
vt 1.003037 1.005209
vt 1.003037 0.0009990931
vt 2.002038 0.0009990931
vt 2.002038 0.503104
vt 1.999001 0.5965485
vt 1.999001 0.0009989738
vt 0.0009990335 0.0009991527
vt 0.0009990335 0.5965486
vt 0.0009994507 1.005209
vt 0.9964507 1.005209
vt 0.9964507 0.0009989738
vt 0.0009994507 0.5031039
vt 0.0009991527 0.5979528
vt 0.0009991527 0.005308449
vt 1.631909 0.005308352
vt 1.999001 0.00530833
vt 1.999001 0.159031
vt 1.915817 0.08671275
vt 1.003038 1.999001
vt 1.003037 1.005209
vt 2.002038 1.005209
vt 2.002038 1.999001
vt 1.999001 1.005208
vt 0.0009990335 1.005209
vt 0.0009990335 1.999001
vt 1.999001 1.999
vt 0.9964508 1.999001
vt 0.9964507 1.005209
vt 0.0009994507 1.005209
vt 0.0009994507 1.999001
vt 0.0009991527 1.005209
vt 1.999001 1.005209
vt 1.999001 1.999001
vt 0.0009991527 1.999001
vt 0.001856358 0.6333421
vt 0.001856358 0.503104
vt 0.9929355 0.0009990931
vt 0.9929355 1.005209
vt 0.001856358 1.005209
vt 1.997086 0.5031039
vt 1.997086 0.0009989738
vt 0.9980859 0.0009989738
vt 0.9980859 1.005209
vt 1.997086 1.005209
vt 0.001856358 1.999001
vt 0.001856358 1.005209
vt 0.9929355 1.005209
vt 0.9929356 1.999001
vt 1.997086 1.999001
vt 1.997086 1.005209
vt 0.9980859 1.005209
vt 0.998086 1.999001
vt 0.0009991527 0.6016339
vt 0.0009991527 0.0009996891
vt 1.028414 0.0009995971
vt 0.0009994507 0.0009989738
vt 2.038621 0.0009995103
vt 2.038621 0.6016338
vt 1.955664 0.6016338
vt 0.001856358 0.0009990931
vt 0.0009990335 0.008027814
vt 0.0009990335 0.6007658
vt 1.999001 0.6007657
vt 1.999001 0.008027695
vt 1.826938 0.1968299
vt 1.999001 0.5979527
vt 0.001856358 0.8085222
vt 1.822182 0.005308341
vt 1.915817 0.08671275
vt 1.826938 0.1968299
vt 1.917691 0.0009995176
vt 1.822182 0.6016338
vt 1.140494 0.0009995871
vt 1.631909 0.6016338
vt 1.631909 0.6016338
vt 1.028414 0.0009995971
vt 1.631909 0.005308352
vt 1.999001 0.3657995
vt 1.91527 0.2835739
vt 1.999001 0.3657995
vt 1.91527 0.2835739
vt 1.91527 0.2835739
vt 1.916043 0.005308335
vt 1.916043 0.005308335
vt 1.957311 0.0009995176
vt 1.916043 0.6016338

usemtl sn19_05_sn19317.JPG
usemap sn19_05_sn19317.JPG
f 3/3/3 1/1/1 2/2/2
f 5/5/5 3/3/3 4/4/4
f 43/43/43 41/41/41 42/42/42
f 45/45/45 43/43/43 44/44/44
f 43/43/43 45/45/45 41/41/41
f 1/1/1 3/3/3 5/5/5

usemtl sn19_07_sn19319.JPG
usemap sn19_07_sn19319.JPG
f 8/8/8 6/6/6 7/7/7
f 6/6/6 8/8/8 9/9/9
f 16/16/16 14/14/14 15/15/15
f 19/19/19 17/17/17 18/18/18
f 26/26/26 24/24/24 25/25/25
f 24/24/24 26/26/26 27/27/27
f 30/30/30 28/28/28 29/29/29
f 28/28/28 30/30/30 31/31/31
f 34/34/34 32/32/32 33/33/33
f 32/32/32 34/34/34 35/35/35
f 48/48/48 46/46/46 47/47/47
f 46/46/46 48/48/48 49/49/49
f 56/56/56 54/54/54 55/55/55
f 60/60/60 58/58/58 59/59/59
f 64/64/64 62/62/62 63/63/63
f 62/62/62 64/64/64 65/65/65
f 14/14/14 66/66/66 67/67/67
f 71/71/71 69/69/69 70/70/70
f 74/74/74 72/72/72 73/73/73
f 75/75/75 74/74/74 73/73/73
f 76/76/76 54/54/54 56/56/56
f 74/74/74 75/75/75 77/77/77
f 66/66/66 14/14/14 16/16/16
f 69/69/69 71/71/71 78/78/78
f 80/80/80 79/79/79 67/67/67
f 82/82/82 18/18/18 81/81/81
f 19/19/19 18/18/18 82/82/82
f 66/66/66 80/80/80 67/67/67
f 71/71/71 70/70/70 83/83/83
f 84/84/84 17/17/17 19/19/19
f 69/69/69 85/85/85 70/70/70
f 86/86/86 58/58/58 60/60/60
f 73/73/73 72/72/72 87/87/87

usemtl sn19_06_sn19318.JPG
usemap sn19_06_sn19318.JPG
f 12/12/12 10/10/10 11/11/11
f 10/10/10 12/12/12 13/13/13
f 38/38/38 36/36/36 37/37/37
f 40/40/40 38/38/38 39/39/39
f 13/13/13 12/12/12 57/57/57
f 38/38/38 37/37/37 61/61/61
f 38/38/38 40/40/40 68/68/68
f 38/38/38 68/68/68 36/36/36

usemtl sn19_08_sn19320.JPG
usemap sn19_08_sn19320.JPG
f 22/22/22 20/20/20 21/21/21
f 20/20/20 22/22/22 23/23/23
f 52/52/52 50/50/50 51/51/51
f 50/50/50 52/52/52 53/53/53
