mtllib ./Box304.mtl
g Box304
v 11.88412 72.91669 -13.27832
v -11.71179 73.06808 -13.38293
v -11.45508 73.13391 9.960938
v 11.62494 73.03421 9.881226
v 5.043549 66.71378 -11.26941
v -4.966827 66.79147 -11.31384
v -10.69675 69.90088 -12.34338
v -11.71179 73.06808 -13.38293
v 11.88412 72.91669 -13.27832
v 10.81873 69.74411 -12.24622
v -9.663879 66.84323 -6.957642
v -9.548004 66.87921 3.580444
v -10.46683 69.98004 8.948364
v -11.45508 73.13391 9.960938
v -11.71179 73.06808 -13.38293
v -10.69675 69.90088 -12.34338
v -4.795898 66.86954 7.941406
v 4.870575 66.81903 7.907959
v 10.58655 69.87421 8.873657
v 11.62494 73.03421 9.881226
v -11.45508 73.13391 9.960938
v -10.46683 69.98004 8.948364
v 9.622894 66.76788 3.568481
v 9.740356 66.70346 -6.925171
v 10.81873 69.74411 -12.24622
v 11.88412 72.91669 -13.27832
v 11.62494 73.03421 9.881226
v 10.58655 69.87421 8.873657
v -86.5256 30.10704 -91.22888
v -178.2044 4.971207 -182.5343
v -183.0111 4.971207 -177.8715
v -91.25235 30.14343 -86.90198
v -91.36823 29.68726 86.52478
v -183.0133 4.973038 177.5876
v -178.2072 4.973038 182.2596
v -86.68311 29.64255 90.9541
v 92.80841 28.31404 -86.93188
v 183.0443 4.968948 -177.7841
v 178.2575 4.968948 -182.5156
v 88.04361 28.36038 -91.21021
v 6.145752 71.78992 8.518066
v 88.00311 28.43121 90.93738
v 92.72531 28.39603 86.56763
v 10.89807 71.7388 4.178589
v 178.2569 4.970642 182.2428
v 183.045 4.970642 177.515
v -10.79245 71.85251 4.207397
v -86.68311 29.64255 90.9541
v -6.040375 71.84283 8.568359
v 6.318115 71.68298 -11.88867
v 11.01492 71.67267 -7.544434
v -6.209106 71.76294 -11.95178
v -91.25235 30.14343 -86.90198
v -10.90619 71.8147 -7.595581
v -85.28333 25.13557 -90.59094
v -176.9621 -0.0002593994 -181.8964
v -178.2044 4.971207 -182.5343
v -86.5256 30.10704 -91.22888
v -90.12375 24.71394 85.89783
v -181.7688 -0.0002593994 176.9608
v -183.0133 4.973038 177.5876
v -91.36823 29.68726 86.52478
v -181.7688 -0.0002593994 -177.2335
v -90.01004 25.17197 -86.26404
v -91.25235 30.14343 -86.90198
v -183.0111 4.971207 -177.8715
v 91.53384 23.34483 -86.31262
v 181.7698 -0.0002593994 -177.1648
v 183.0443 4.968948 -177.7841
v 92.80841 28.31404 -86.93188
v 91.45016 23.42513 85.9574
v 9.622894 66.76788 3.568481
v 10.89807 71.7388 4.178589
v 92.72531 28.39603 86.56763
v -176.9628 -0.0002593994 181.6327
v -85.43866 24.66925 90.32727
v -86.68311 29.64255 90.9541
v -178.2072 4.973038 182.2596
v 181.7698 -0.0002593994 176.9049
v 91.45016 23.42513 85.9574
v 92.72531 28.39603 86.56763
v 183.045 4.970642 177.515
v 176.9829 -0.0002593994 -181.8964
v 86.76904 23.39117 -90.59094
v 88.04361 28.36038 -91.21021
v 178.2575 4.968948 -182.5156
v -4.795898 66.86954 7.941406
v -6.040375 71.84283 8.568359
v 5.043549 66.71378 -11.26941
v 6.318115 71.68298 -11.88867
v -9.663879 66.84323 -6.957642
v -10.90619 71.8147 -7.595581
v 9.740356 66.70346 -6.925171
v 11.01492 71.67267 -7.544434
v 4.870575 66.81903 7.907959
v 86.72794 23.46031 90.32727
v 88.00311 28.43121 90.93738
v 6.145752 71.78992 8.518066
v -4.966827 66.79147 -11.31384
v -6.209106 71.76294 -11.95178
v -9.548004 66.87921 3.580444
v -10.79245 71.85251 4.207397
v 181.7698 -0.0002593994 -177.1648
v 176.9829 -0.0002593994 -181.8964
v 178.2575 4.968948 -182.5156
v 183.0443 4.968948 -177.7841
v -176.9621 -0.0002593994 -181.8964
v -181.7688 -0.0002593994 -177.2335
v -183.0111 4.971207 -177.8715
v -178.2044 4.971207 -182.5343
v -181.7688 -0.0002593994 176.9608
v -176.9628 -0.0002593994 181.6327
v -178.2072 4.973038 182.2596
v -183.0133 4.973038 177.5876
v 86.72794 23.46031 90.32727
v 176.9817 -0.0002593994 181.6327
v 181.7698 -0.0002593994 176.9049

vn 0.0053816 0.9999777 -0.003942339
vn 0.006428924 0.9999752 -0.002890488
vn 0.0053816 0.9999777 -0.003942339
vn 0.00430234 0.9999781 -0.005026244
vn 0.001985845 -0.3108929 -0.9504429
vn 0.001801696 -0.3113295 -0.9503003
vn 0.001801192 -0.3113317 -0.9502996
vn 0.002098951 -0.3105218 -0.950564
vn 0.002225817 -0.3100368 -0.9507219
vn 0.0021845 -0.3102888 -0.9506398
vn -0.9531872 -0.3021644 0.0114354
vn -0.9531257 -0.3023557 0.01151276
vn -0.953126 -0.3023546 0.01151254
vn -0.9532387 -0.3020039 0.01138712
vn -0.9533038 -0.3018003 0.01133457
vn -0.9532717 -0.3019008 0.01135024
vn 0.001822119 -0.30457 0.9524882
vn 0.00170616 -0.3042887 0.9525784
vn 0.001706399 -0.3042898 0.9525779
vn 0.001892021 -0.3048099 0.9524114
vn 0.001970918 -0.3051283 0.9523091
vn 0.001945159 -0.3049586 0.9523636
vn 0.9490107 -0.3149996 0.01240919
vn 0.949129 -0.3146372 0.01255583
vn 0.9491271 -0.3146428 0.01255461
vn 0.9489133 -0.3152964 0.01231877
vn 0.9487894 -0.3156728 0.01222009
vn 0.9488498 -0.3154899 0.01224874
vn -0.1608203 0.9707967 -0.1780185
vn -0.1328003 0.9816431 -0.1368971
vn -0.1291514 0.9815584 -0.140936
vn -0.1253257 0.9814385 -0.1451615
vn -0.1606301 0.971395 0.1748996
vn -0.1309833 0.9821854 0.1347415
vn -0.1275615 0.9822044 0.1378503
vn -0.1240026 0.9822018 0.1410779
vn 0.1628295 0.9718919 -0.1700371
vn 0.1260868 0.983784 -0.1275586
vn 0.1255508 0.98379 -0.1280393
vn 0.2024646 0.9553657 -0.2151384
vn 0.241287 0.9368392 0.2532055
vn -0.1786325 0.8660886 0.4668843
vn 0.2022842 0.9563486 0.2108993
vn 0.2412864 0.9368392 0.253206
vn -0.2895385 0.7948741 0.533238
vn 0.1539228 0.9756591 0.1561954
vn -0.2315138 0.9389898 0.254361
vn -0.2315138 0.9389898 0.254361
vn -0.2315143 0.9389898 0.2543607
vn 0.2427789 0.9345166 -0.2602634
vn 0.2427792 0.9345167 -0.2602631
vn -0.2303104 0.9378848 -0.2594788
vn -0.2303104 0.9378848 -0.2594788
vn -0.2303114 0.9378849 -0.2594775
vn 0.6883802 0.07949842 -0.7209803
vn 0.6921233 0.08091716 -0.7172292
vn 0.6921235 0.08091574 -0.7172291
vn 0.6843782 0.07798854 -0.7249444
vn -0.691056 -0.08240429 -0.7180885
vn -0.6911728 -0.08245954 -0.7179698
vn -0.6911741 -0.08245143 -0.7179694
vn -0.690933 -0.0823509 -0.718213
vn -0.690571 -0.08032765 0.71879
vn -0.683817 -0.07778183 0.7254958
vn -0.687304 -0.0790936 0.7220509
vn -0.6905715 -0.08032555 0.7187899
vn 0.6877798 -0.08659147 0.7207363
vn 0.6950904 -0.08938523 0.7133439
vn 0.6950901 -0.08938736 0.713344
vn 0.6800551 -0.0836597 0.7283722
vn 0.6837518 -0.08645979 -0.7245744
vn 0.6837484 -0.08646938 -0.7245767
vn 0.6837518 -0.08645979 -0.7245744
vn 0.6837554 -0.08645021 -0.7245722
vn 0.69253 0.08296053 0.716603
vn 0.6914043 0.08253897 0.7177377
vn 0.6919802 0.08275553 0.7171575
vn 0.6925316 0.08295391 0.7166021
vn 0.6948534 -0.09067565 -0.713412
vn 0.6948552 -0.09066755 -0.7134113
vn 0.6948534 -0.09067565 -0.713412
vn 0.6948515 -0.09068374 -0.7134128
vn -0.6968241 0.09005713 -0.7115658
vn -0.6806921 0.08390082 -0.7277492
vn -0.6889923 0.0870564 -0.7195211
vn -0.6968236 0.09005889 -0.711566
vn 0.6908023 0.0823029 0.7183443
vn 0.6908001 0.08230899 0.7183456
vn -0.6718854 0.08058161 -0.7362585
vn -0.6718854 0.08058161 -0.7362585
vn -0.6800885 -0.07638253 0.7291402
vn -0.6800885 -0.07638253 0.7291402
vn 0.6718849 -0.08058082 0.736259
vn 0.6718849 -0.08058082 0.736259
vn -0.6837488 0.08646931 0.7245762
vn -0.683749 0.08646919 0.7245761
vn -0.6837488 0.08646931 0.7245762
vn -0.6837487 0.08646944 0.7245764
vn 0.6800898 0.07637852 -0.7291393
vn 0.6800898 0.07637852 -0.7291393
vn -0.6908028 -0.08230127 -0.7183439
vn -0.6908033 -0.08229952 -0.7183436
vn 0.6788667 -0.2597131 -0.6867963
vn 0.6788639 -0.2597167 -0.6867978
vn 0.6788667 -0.2597131 -0.6867963
vn 0.6788696 -0.2597095 -0.6867948
vn -0.6728705 -0.2571458 -0.6936291
vn -0.6728702 -0.2571448 -0.6936298
vn -0.6728705 -0.2571458 -0.6936291
vn -0.6728709 -0.2571468 -0.6936284
vn -0.6738083 -0.2559788 0.6931502
vn -0.6738024 -0.2559862 0.6931532
vn -0.6738083 -0.2559788 0.6931502
vn -0.6738142 -0.2559714 0.6931472
vn -0.6963962 0.09127849 0.7118289
vn -0.6607997 0.07789256 0.7465096
vn 0.678735 -0.2584781 0.6873922

vt 0.0004994869 0.9228532
vt 0.2482928 0.9183739
vt 0.237424 0.9995005
vt 0.01147389 0.996086
vt 0.4798957 0.9967459
vt 0.4326464 0.9981116
vt 0.4056009 0.9579867
vt 0.4008097 0.9159585
vt 0.5121837 0.9123771
vt 0.5071549 0.9549448
vt 0.5214557 0.9128878
vt 0.5626445 0.913393
vt 0.5836254 0.9573921
vt 0.5875831 1.002146
vt 0.4963423 1.001209
vt 0.5004056 0.9562722
vt 0.5002571 0.9130723
vt 0.5746676 0.9115568
vt 0.6186679 0.9529043
vt 0.6266612 0.996086
vt 0.4489961 0.999458
vt 0.4566036 0.9561676
vt 0.5086631 0.9203857
vt 0.6003636 0.9193793
vt 0.6626213 0.9573056
vt 0.687941 0.9969639
vt 0.4854418 0.9988997
vt 0.4780694 0.9593477
vt 0.6835877 0.9297221
vt 1.939308 0.9300483
vt 1.940184 0.9844673
vt 0.6860949 0.9817097
vt 0.6917444 0.93509
vt 1.945567 0.9335608
vt 1.944759 0.9880282
vt 0.6902068 0.9874348
vt 0.83324 0.9859136
vt -0.4094803 0.9805723
vt -0.409214 0.9258718
vt 0.8364553 0.9339541
vt 1.950006 0.9789022
vt 0.8226541 0.9837649
vt 0.8203436 0.9315177
vt 1.947281 0.9266568
vt -0.4233047 0.9916139
vt -0.4236052 0.9369281
vt -0.4261274 0.9234617
vt 0.6900975 0.9874672
vt -0.4287038 0.9758292
vt 1.941625 0.9217339
vt 1.939313 0.9736886
vt -0.4116073 0.9253358
vt 0.6862245 0.9817482
vt -0.4093752 0.97736
vt 1.332415 0.9243168
vt 2.17266 0.9242736
vt 2.17853 0.9927282
vt 1.338285 0.9927714
vt 1.291754 0.9242426
vt 2.129767 0.9242278
vt 2.135537 0.9927284
vt 1.297524 0.9927431
vt -1.129732 0.9242959
vt -0.2925786 0.9243537
vt -0.2984492 0.9927856
vt -1.135602 0.9927278
vt 1.293044 0.9240016
vt 2.129117 0.9240794
vt 2.134816 0.9927281
vt 1.298743 0.9926503
vt -0.2922849 0.9240463
vt 0.4659057 0.9242751
vt 0.4602907 0.9927554
vt -0.2978999 0.9925266
vt -1.172743 0.9242959
vt -0.3324979 0.9242842
vt -0.3382673 0.9927518
vt -1.178512 0.9927635
vt -1.129236 0.9242959
vt -0.2922848 0.9242002
vt -0.2978998 0.9926676
vt -1.134851 0.9927633
vt -1.172641 0.9242959
vt -0.3323965 0.9240404
vt -0.3380957 0.9926652
vt -1.17834 0.9929206
vt 0.4256639 0.924293
vt 0.4198945 0.9927624
vt 0.3975653 0.9241268
vt 0.3918661 0.9927516
vt 0.4372442 0.9242883
vt 0.4313735 0.9927605
vt 0.5624745 0.9242637
vt 0.5681734 0.9929123
vt 0.5740466 0.9242841
vt 1.332516 0.924022
vt 1.338131 0.9926583
vt 0.5796614 0.9929204
vt 0.6028615 0.9242792
vt 0.6087322 0.9927338
vt 0.5342225 0.9242947
vt 0.5399917 0.992763
vt 0.8971297 0.9978943
vt 0.8887841 0.9172983
vt 1.005617 0.9188269
vt 1.013963 0.999423
vt 0.1091667 0.9276585
vt 0.1101155 0.995719
vt -0.02159822 0.998485
vt -0.02254703 0.9304245
vt 0.1377525 0.9202548
vt 0.1377346 1.000347
vt 0.03917924 1.001434
vt 0.03919718 0.921341
vt 0.9948124 0.5126727
vt 0.001999497 0.05745749
vt 0.001998186 0.05655039

usemtl sn19_26_sn1902.JPG
usemap sn19_26_sn1902.JPG
f 3/3/3 1/1/1 2/2/2
f 4/4/4 1/1/1 3/3/3
f 7/7/7 5/5/5 6/6/6
f 8/8/8 5/5/5 7/7/7
f 10/10/10 8/8/8 9/9/9
f 10/10/10 5/5/5 8/8/8
f 13/13/13 11/11/11 12/12/12
f 14/14/14 11/11/11 13/13/13
f 16/16/16 14/14/14 15/15/15
f 16/16/16 11/11/11 14/14/14
f 19/19/19 17/17/17 18/18/18
f 20/20/20 17/17/17 19/19/19
f 22/22/22 20/20/20 21/21/21
f 22/22/22 17/17/17 20/20/20
f 25/25/25 23/23/23 24/24/24
f 26/26/26 23/23/23 25/25/25
f 28/28/28 26/26/26 27/27/27
f 28/28/28 23/23/23 26/26/26
f 31/31/31 29/29/29 30/30/30
f 29/29/29 31/31/31 32/32/32
f 35/35/35 33/33/33 34/34/34
f 33/33/33 35/35/35 36/36/36
f 39/39/39 37/37/37 38/38/38
f 37/37/37 39/39/39 40/40/40
f 43/43/43 41/41/41 42/42/42
f 41/41/41 43/43/43 44/44/44
f 46/46/46 42/42/42 45/45/45
f 42/42/42 46/46/46 43/43/43
f 48/48/48 47/47/47 33/33/33
f 47/47/47 48/48/48 49/49/49
f 51/51/51 40/40/40 50/50/50
f 40/40/40 51/51/51 37/37/37
f 53/53/53 52/52/52 29/29/29
f 52/52/52 53/53/53 54/54/54
f 57/57/57 55/55/55 56/56/56
f 55/55/55 57/57/57 58/58/58
f 61/61/61 59/59/59 60/60/60
f 59/59/59 61/61/61 62/62/62
f 65/65/65 63/63/63 64/64/64
f 63/63/63 65/65/65 66/66/66
f 69/69/69 67/67/67 68/68/68
f 67/67/67 69/69/69 70/70/70
f 73/73/73 71/71/71 72/72/72
f 71/71/71 73/73/73 74/74/74
f 77/77/77 75/75/75 76/76/76
f 75/75/75 77/77/77 78/78/78
f 81/81/81 79/79/79 80/80/80
f 79/79/79 81/81/81 82/82/82
f 85/85/85 83/83/83 84/84/84
f 83/83/83 85/85/85 86/86/86
f 88/88/88 76/76/76 87/87/87
f 76/76/76 88/88/88 77/77/77
f 90/90/90 84/84/84 89/89/89
f 84/84/84 90/90/90 85/85/85
f 92/92/92 64/64/64 91/91/91
f 64/64/64 92/92/92 65/65/65
f 70/70/70 93/93/93 67/67/67
f 93/93/93 70/70/70 94/94/94
f 97/97/97 95/95/95 96/96/96
f 95/95/95 97/97/97 98/98/98
f 58/58/58 99/99/99 55/55/55
f 99/99/99 58/58/58 100/100/100
f 62/62/62 101/101/101 59/59/59
f 101/101/101 62/62/62 102/102/102
f 105/105/105 103/103/103 104/104/104
f 103/103/103 105/105/105 106/106/106
f 109/109/109 107/107/107 108/108/108
f 107/107/107 109/109/109 110/110/110
f 113/113/113 111/111/111 112/112/112
f 111/111/111 113/113/113 114/114/114
f 116/116/116 42/42/42 115/115/115
f 42/42/42 116/116/116 45/45/45
f 46/46/46 116/116/116 117/117/117
f 116/116/116 46/46/46 45/45/45
