mtllib ./Box30.mtl
g Box30
v -0.0003051758 111.4874 -149.9999
v -250.0003 111.4874 -149.9999
v -250.0003 138.3404 -149.9999
v -250.0003 210 -149.9999
v -0.0003051758 210 -149.9999
v -0.0003051758 139.3477 -149.9999
v -250.0003 111.4874 -149.9999
v -250.0003 111.4874 6.103516E-05
v -250.0003 210 6.103516E-05
v -250.0003 210 -149.9999
v -250.0003 138.3404 -149.9999
v -0.0003051758 111.4874 150.0001
v 249.9997 111.4874 150.0001
v 249.9997 210 150.0001
v -0.0003051758 210 150.0001
v 249.9997 111.4874 150.0001
v 249.9997 111.4874 6.103516E-05
v 249.9997 210 6.103516E-05
v 249.9997 210 150.0001
v -250.0003 111.4874 150.0001
v -250.0003 210 150.0001
v 249.9997 111.4874 -149.9999
v 249.9997 210 -149.9999
v 83.33301 177.1625 -149.9999
v 249.9997 210 -149.9999
v 249.9997 111.4874 -149.9999
v -250.0003 111.4874 150.0001
v -250.0003 210 150.0001
v -0.0003051758 0 -149.9999
v -250.0003 55.74372 -149.9999
v -250.0003 111.4874 -149.9999
v -0.0003051758 111.4874 -149.9999
v -250.0003 0 -149.9999
v -250.0003 0 6.103516E-05
v -250.0003 55.74372 6.103516E-05
v -250.0003 111.4874 6.103516E-05
v -250.0003 111.4874 -149.9999
v -250.0003 55.74372 -149.9999
v -0.0003051758 0 150.0001
v 249.9997 55.74372 150.0001
v 249.9997 111.4874 150.0001
v -0.0003051758 111.4874 150.0001
v 249.9997 0 150.0001
v 249.9997 0 6.103516E-05
v 249.9997 55.74372 6.103516E-05
v 249.9997 111.4874 6.103516E-05
v 249.9997 111.4874 150.0001
v 249.9997 55.74372 150.0001
v -250.0003 0 6.103516E-05
v -250.0003 0 150.0001
v -250.0003 55.74372 150.0001
v -250.0003 111.4874 150.0001
v -250.0003 111.4874 6.103516E-05
v -250.0003 55.74372 6.103516E-05
v 249.9997 0 6.103516E-05
v 249.9997 0 -149.9999
v 249.9997 55.74373 -149.9999
v 249.9997 111.4874 -149.9999
v 249.9997 111.4874 6.103516E-05
v 249.9997 55.74372 6.103516E-05
v 249.9997 0 -149.9999
v -0.0003051758 0 -149.9999
v -0.0003051758 111.4874 -149.9999
v 249.9997 111.4874 -149.9999
v 249.9997 55.74373 -149.9999
v -250.0003 0 150.0001
v -250.0003 111.4874 150.0001
v -250.0003 55.74372 150.0001
v -250.0003 138.3404 -149.9999
v 41.66632 144.325 -149.9999
v -0.0003051758 139.3477 -149.9999
v 124.9997 210 -149.9999
v 41.66632 144.325 -149.9999
v -0.0003051758 111.4874 -149.9999
v 249.9997 0 150.0001
v -250.0003 0 -149.9999

vn 0 0 -1
vn 0 0 -1
vn 0 0 -1
vn 0 0 -1
vn 0 0 -1
vn 0 0 -1
vn -1 0 0
vn -1 0 0
vn -1 0 0
vn -1 0 0
vn -1 0 0
vn 0 0 1
vn 0 0 1
vn 0 0 1
vn 0 0 1
vn 1 0 0
vn 1 0 0
vn 1 0 0
vn 1 0 0
vn -1 0 0
vn -1 0 0
vn 1 0 0
vn 1 0 0
vn 0 0 -1
vn 0 0 -1
vn 0 0 -1
vn 0 0 1
vn 0 0 1
vn 0 0 -1
vn 0 0 -1
vn 0 0 -1
vn 0 0 -1
vn -1 0 0
vn -1 0 0
vn -1 0 0
vn -1 0 0
vn -1 0 0
vn -1 0 0
vn 0 0 0.9999999
vn 0 0 1
vn 0 0 1
vn 0 0 0.9999999
vn 1 0 0
vn 1 0 0
vn 1 0 0
vn 1 0 0
vn 1 0 0
vn 1 0 0
vn -1 0 0
vn -1 0 0
vn -1 0 0
vn -1 0 0
vn -1 0 0
vn -1 0 0
vn 1 0 0
vn 1 0 0
vn 1 0 0
vn 1 0 0
vn 1 0 0
vn 1 0 0
vn 0 0 -1
vn 0 0 -1
vn 0 0 -1
vn 0 0 -0.9999999
vn 0 0 -1
vn 0 0 1
vn 0 0 1
vn 0 0 1
vn 0 0 -1
vn 0 0 -1
vn 0 0 -0.9999999
vn 0 0 -1
vn 0 0 -0.9999999
vn 0 0 -1
vn 0 0 1
vn 0 0 -1

vt 0.5 0.8856187
vt 1.276014 0.8856187
vt 1.276014 1.152383
vt 1.276014 1.86427
vt 0.5 1.86427
vt 0.5 1.162391
vt 0.9995004 -0.1105072
vt 0.4999999 -0.1105071
vt 0.4999999 0.8518321
vt 0.9995004 0.851832
vt 0.9995004 0.1518109
vt 0.5000002 0.8856187
vt -0.2760137 0.8856187
vt -0.2760137 1.86427
vt 0.5000002 1.86427
vt 0.0004995763 -0.1105058
vt 0.5 -0.1105059
vt 0.5 0.8518332
vt 0.0004995763 0.8518333
vt 0.0004995167 -0.110507
vt 0.0004995167 0.8518322
vt 0.9995005 -0.110506
vt 0.9995005 0.851833
vt 0.2413287 1.538053
vt -0.276014 1.86427
vt -0.276014 0.8856187
vt 1.276014 0.8856187
vt 1.276014 1.86427
vt 0.4999999 0.009243958
vt 1.276014 0.487658
vt 1.276014 0.966072
vt 0.5 0.966072
vt 1.999001 0.0004995167
vt 1.003275 0.0004996061
vt 1.003275 0.4999995
vt 1.003275 0.9994993
vt 1.999001 0.9994993
vt 1.999001 0.4999994
vt 0.5000001 0.009243853
vt -0.2760137 0.4876579
vt -0.2760137 0.966072
vt 0.5000002 0.966072
vt 0.0009991521 0.0005007684
vt 0.9982819 0.000500679
vt 0.9982818 0.5000005
vt 0.9982818 0.9995004
vt 0.0009991521 0.9995005
vt 0.0009991521 0.5000006
vt 0.9982817 0.0004996061
vt 0.000999034 0.0004996955
vt 0.000999034 0.4999996
vt 0.000999034 0.9994994
vt 0.9982817 0.9994993
vt 0.9982817 0.4999995
vt 1.003276 0.000500679
vt 1.999001 0.0005005896
vt 1.999001 0.5000005
vt 1.999001 0.9995003
vt 1.003276 0.9995004
vt 1.003276 0.5000005
vt -0.276014 0.009243958
vt 0.4999999 0.009243958
vt 0.5 0.966072
vt -0.276014 0.966072
vt -0.276014 0.487658
vt 1.276014 0.009243853
vt 1.276014 0.966072
vt 1.276014 0.4876579
vt 1.276014 1.152383
vt 0.3706644 1.211836
vt 0.5 1.162391
vt 0.111993 1.86427
vt 0.3706644 1.211836
vt 0.5 0.8856187
vt -0.2760137 0.009243853
vt 1.276014 0.009243958

usemtl sn19_12_sn19316.JPG
usemap sn19_12_sn19316.JPG
f 3/3/3 1/1/1 2/2/2
f 6/6/6 4/4/4 5/5/5
f 9/9/9 7/7/7 8/8/8
f 11/11/11 9/9/9 10/10/10
f 14/14/14 12/12/12 13/13/13
f 12/12/12 14/14/14 15/15/15
f 18/18/18 16/16/16 17/17/17
f 16/16/16 18/18/18 19/19/19
f 21/21/21 8/8/8 20/20/20
f 8/8/8 21/21/21 9/9/9
f 23/23/23 17/17/17 22/22/22
f 17/17/17 23/23/23 18/18/18
f 5/5/5 24/24/24 6/6/6
f 26/26/26 24/24/24 25/25/25
f 15/15/15 27/27/27 12/12/12
f 27/27/27 15/15/15 28/28/28
f 31/31/31 29/29/29 30/30/30
f 29/29/29 31/31/31 32/32/32
f 41/41/41 39/39/39 40/40/40
f 39/39/39 41/41/41 42/42/42
f 63/63/63 61/61/61 62/62/62
f 65/65/65 63/63/63 64/64/64
f 42/42/42 66/66/66 39/39/39
f 68/68/68 42/42/42 67/67/67
f 69/69/69 4/4/4 6/6/6
f 24/24/24 26/26/26 70/70/70
f 1/1/1 3/3/3 71/71/71
f 7/7/7 9/9/9 11/11/11
f 6/6/6 24/24/24 70/70/70
f 24/24/24 72/72/72 25/25/25
f 24/24/24 5/5/5 72/72/72
f 71/71/71 73/73/73 1/1/1
f 70/70/70 26/26/26 74/74/74
f 40/40/40 39/39/39 75/75/75
f 61/61/61 63/63/63 65/65/65
f 30/30/30 29/29/29 76/76/76
f 66/66/66 42/42/42 68/68/68

usemtl sn19_10_sn19313.JPG
usemap sn19_10_sn19313.JPG
f 35/35/35 33/33/33 34/34/34
f 38/38/38 36/36/36 37/37/37
f 57/57/57 55/55/55 56/56/56
f 60/60/60 58/58/58 59/59/59
f 57/57/57 58/58/58 60/60/60
f 55/55/55 57/57/57 60/60/60
f 35/35/35 36/36/36 38/38/38
f 33/33/33 35/35/35 38/38/38

usemtl sn19_11_sn19314.JPG
usemap sn19_11_sn19314.JPG
f 45/45/45 43/43/43 44/44/44
f 48/48/48 46/46/46 47/47/47
f 51/51/51 49/49/49 50/50/50
f 54/54/54 52/52/52 53/53/53
f 45/45/45 46/46/46 48/48/48
f 43/43/43 45/45/45 48/48/48
f 51/51/51 52/52/52 54/54/54
f 49/49/49 51/51/51 54/54/54
