mtllib ./Box305.mtl
g Box305
v 11.88342 72.91696 -13.27795
v -11.71249 73.06833 -13.38263
v -11.45578 73.13416 9.961365
v 11.62424 73.03445 9.881531
v 5.042847 66.71402 -11.26904
v -4.967529 66.79172 -11.31348
v -10.69745 69.90112 -12.34302
v -11.71249 73.06833 -13.38263
v 11.88342 72.91696 -13.27795
v 10.81802 69.74438 -12.24585
v -9.664581 66.84351 -6.957336
v -9.548706 66.87946 3.580811
v -10.46753 69.98032 8.948792
v -11.45578 73.13416 9.961365
v -11.71249 73.06833 -13.38263
v -10.69745 69.90112 -12.34302
v -4.7966 66.86981 7.941772
v 4.869873 66.81927 7.908325
v 10.58585 69.87445 8.874023
v 11.62424 73.03445 9.881531
v -11.45578 73.13416 9.961365
v -10.46753 69.98032 8.948792
v 9.622192 66.76816 3.568848
v 9.739655 66.70374 -6.924805
v 10.81802 69.74438 -12.24585
v 11.88342 72.91696 -13.27795
v 11.62424 73.03445 9.881531
v 10.58585 69.87445 8.874023
v -86.52631 30.1073 -91.22845
v -178.2051 4.971466 -182.5339
v -183.0118 4.971466 -177.871
v -91.25305 30.14368 -86.90161
v -91.36893 29.6875 86.52515
v -183.014 4.973297 177.5881
v -178.2079 4.973297 182.2599
v -86.68381 29.64279 90.95453
v 92.80771 28.3143 -86.93158
v 183.0436 4.969208 -177.7837
v 178.2568 4.969208 -182.5153
v 88.04291 28.36066 -91.20984
v 6.14505 71.79019 8.518494
v 88.00241 28.43146 90.93774
v 92.72461 28.3963 86.56793
v 10.89737 71.73904 4.179016
v 178.2562 4.970917 182.2432
v 183.0443 4.970917 177.5154
v -10.79315 71.85275 4.207764
v -86.68381 29.64279 90.95453
v -6.041077 71.84311 8.568665
v 6.317413 71.68323 -11.88837
v 11.01422 71.67294 -7.544128
v -6.209808 71.76318 -11.95142
v -91.25305 30.14368 -86.90161
v -10.90689 71.81497 -7.595276
v -85.28403 25.13583 -90.59052
v -176.9628 0 -181.8959
v -178.2051 4.971466 -182.5339
v -86.52631 30.1073 -91.22845
v -90.12445 24.7142 85.89825
v -181.7695 0 176.9611
v -183.014 4.973297 177.5881
v -91.36893 29.6875 86.52515
v -181.7695 0 -177.2332
v -90.01074 25.17221 -86.26367
v -91.25305 30.14368 -86.90161
v -183.0118 4.971466 -177.871
v 91.53314 23.34509 -86.31226
v 181.7691 0 -177.1644
v 183.0436 4.969208 -177.7837
v 92.80771 28.3143 -86.93158
v 91.44946 23.42538 85.95782
v 9.622192 66.76816 3.568848
v 10.89737 71.73904 4.179016
v 92.72461 28.3963 86.56793
v -176.9635 0 181.6331
v -85.43936 24.66949 90.32758
v -86.68381 29.64279 90.95453
v -178.2079 4.973297 182.2599
v 181.7691 0 176.9053
v 91.44946 23.42538 85.95782
v 92.72461 28.3963 86.56793
v 183.0443 4.970917 177.5154
v 176.9822 0 -181.8959
v 86.76834 23.39142 -90.59052
v 88.04291 28.36066 -91.20984
v 178.2568 4.969208 -182.5153
v -4.7966 66.86981 7.941772
v -6.041077 71.84311 8.568665
v 5.042847 66.71402 -11.26904
v 6.317413 71.68323 -11.88837
v -9.664581 66.84351 -6.957336
v -10.90689 71.81497 -7.595276
v 9.739655 66.70374 -6.924805
v 11.01422 71.67294 -7.544128
v 4.869873 66.81927 7.908325
v 86.72723 23.46057 90.32758
v 88.00241 28.43146 90.93774
v 6.14505 71.79019 8.518494
v -4.967529 66.79172 -11.31348
v -6.209808 71.76318 -11.95142
v -9.548706 66.87946 3.580811
v -10.79315 71.85275 4.207764
v 181.7691 0 -177.1644
v 176.9822 0 -181.8959
v 178.2568 4.969208 -182.5153
v 183.0436 4.969208 -177.7837
v -176.9628 0 -181.8959
v -181.7695 0 -177.2332
v -183.0118 4.971466 -177.871
v -178.2051 4.971466 -182.5339
v -181.7695 0 176.9611
v -176.9635 0 181.6331
v -178.2079 4.973297 182.2599
v -183.014 4.973297 177.5881
v 86.72723 23.46057 90.32758
v 176.981 0 181.6331
v 181.7691 0 176.9053

vn 0.005380941 0.9999778 -0.003941678
vn 0.006427637 0.9999752 -0.002890459
vn 0.005380941 0.9999778 -0.003941678
vn 0.004302318 0.9999781 -0.005024939
vn 0.001986154 -0.3108988 -0.9504409
vn 0.001801696 -0.3113295 -0.9503003
vn 0.001798799 -0.3113424 -0.950296
vn 0.002100216 -0.3105267 -0.9505623
vn 0.00222867 -0.3100376 -0.9507216
vn 0.002187269 -0.3102902 -0.9506394
vn -0.9531868 -0.3021657 0.01143554
vn -0.9531269 -0.3023517 0.01151182
vn -0.953126 -0.3023547 0.01151245
vn -0.9532382 -0.3020055 0.01138736
vn -0.9533039 -0.3018001 0.01133451
vn -0.9532713 -0.3019021 0.0113504
vn 0.00182384 -0.3045685 0.9524888
vn 0.00170521 -0.3042871 0.9525788
vn 0.001703314 -0.3042783 0.9525817
vn 0.00189531 -0.3048093 0.9524115
vn 0.001975948 -0.3051296 0.9523088
vn 0.001950675 -0.3049631 0.9523622
vn 0.9490104 -0.3150004 0.01240882
vn 0.949129 -0.3146372 0.01255583
vn 0.9491271 -0.3146428 0.01255461
vn 0.948913 -0.3152969 0.01231834
vn 0.9487895 -0.3156724 0.0122197
vn 0.9488496 -0.3154907 0.01224818
vn -0.1608203 0.9707968 -0.1780183
vn -0.1328003 0.9816431 -0.1368971
vn -0.1291518 0.9815585 -0.1409356
vn -0.1253263 0.9814386 -0.1451608
vn -0.1606306 0.9713948 0.1748997
vn -0.1309816 0.9821854 0.1347433
vn -0.1275611 0.9822043 0.1378509
vn -0.1240037 0.9822017 0.1410771
vn 0.1628297 0.971892 -0.1700369
vn 0.1260869 0.9837839 -0.1275588
vn 0.1255512 0.98379 -0.128039
vn 0.2024639 0.9553657 -0.2151392
vn 0.241288 0.936839 0.2532049
vn -0.1786332 0.8660882 0.4668849
vn 0.2022838 0.9563485 0.2108997
vn 0.2412897 0.936839 0.2532032
vn -0.2895396 0.7948732 0.5332385
vn 0.1539212 0.9756592 0.1561965
vn -0.2315153 0.9389898 0.2543594
vn -0.2315153 0.9389898 0.2543594
vn -0.2315157 0.9389898 0.2543591
vn 0.2427758 0.9345167 -0.2602663
vn 0.2427775 0.9345166 -0.2602646
vn -0.2303079 0.9378847 -0.2594814
vn -0.2303079 0.9378847 -0.2594814
vn -0.230307 0.9378846 -0.2594825
vn 0.6883802 0.07949844 -0.7209804
vn 0.6921233 0.08091716 -0.7172292
vn 0.6921235 0.08091574 -0.7172291
vn 0.684378 0.07798858 -0.7249445
vn -0.6910557 -0.08240399 -0.7180888
vn -0.6911756 -0.08244216 -0.7179691
vn -0.6911747 -0.08244721 -0.7179692
vn -0.6909317 -0.08235666 -0.7182135
vn -0.6905699 -0.08033201 0.7187906
vn -0.683817 -0.07778185 0.725496
vn -0.6873031 -0.07909659 0.7220513
vn -0.6905693 -0.08033428 0.7187909
vn 0.6877818 -0.08658294 0.7207354
vn 0.695092 -0.08937645 0.7133436
vn 0.6950916 -0.08937859 0.7133437
vn 0.6800576 -0.08365145 0.7283708
vn 0.6837504 -0.08646385 -0.7245753
vn 0.683751 -0.08646197 -0.7245749
vn 0.6837504 -0.08646385 -0.7245753
vn 0.6837496 -0.08646572 -0.7245757
vn 0.6925307 0.08295688 0.7166026
vn 0.6914065 0.08253129 0.7177365
vn 0.6919825 0.082748 0.7171562
vn 0.6925297 0.08296123 0.7166032
vn 0.6948518 -0.0906835 -0.7134126
vn 0.6948518 -0.0906835 -0.7134126
vn 0.6948518 -0.0906835 -0.7134126
vn 0.6948518 -0.0906835 -0.7134126
vn -0.6968258 0.09004843 -0.7115653
vn -0.6806944 0.08389224 -0.727748
vn -0.6889944 0.08704779 -0.7195203
vn -0.6968253 0.09005082 -0.7115654
vn 0.6907994 0.08231084 0.7183461
vn 0.6908014 0.08230501 0.7183447
vn -0.671888 0.08057366 -0.7362571
vn -0.6718881 0.08057344 -0.736257
vn -0.6800882 -0.07638256 0.7291404
vn -0.6800882 -0.07638256 0.7291404
vn 0.6718879 -0.08057288 0.7362572
vn 0.6718879 -0.08057288 0.7362572
vn -0.6837513 0.08646137 0.7245747
vn -0.6837511 0.08646161 0.7245749
vn -0.6837513 0.08646137 0.7245747
vn -0.6837515 0.08646113 0.7245746
vn 0.6800896 0.07637858 -0.7291394
vn 0.6800896 0.07637858 -0.7291394
vn -0.6908016 -0.08230533 -0.7183446
vn -0.6908033 -0.08229952 -0.7183436
vn 0.6788653 -0.259721 -0.6867948
vn 0.6788623 -0.2597246 -0.6867962
vn 0.6788653 -0.259721 -0.6867948
vn 0.6788681 -0.2597173 -0.6867933
vn -0.672869 -0.2571415 -0.6936321
vn -0.6728672 -0.2571363 -0.6936359
vn -0.672869 -0.2571415 -0.6936321
vn -0.6728709 -0.2571468 -0.6936284
vn -0.6738054 -0.2559825 0.6931517
vn -0.6738083 -0.2559789 0.6931502
vn -0.6738054 -0.2559825 0.6931517
vn -0.6738024 -0.2559862 0.6931532
vn -0.6963981 0.09127058 0.7118282
vn -0.6608005 0.07788848 0.7465092
vn 0.6787351 -0.2584774 0.6873923

vt 0.0004994869 0.9228532
vt 0.2482928 0.9183739
vt 0.237424 0.9995005
vt 0.01147389 0.996086
vt 0.4798957 0.9967459
vt 0.4326464 0.9981116
vt 0.4056009 0.9579867
vt 0.4008097 0.9159585
vt 0.5121837 0.9123771
vt 0.5071549 0.9549448
vt 0.5214557 0.9128878
vt 0.5626445 0.913393
vt 0.5836254 0.9573921
vt 0.5875831 1.002146
vt 0.4963423 1.001209
vt 0.5004056 0.9562722
vt 0.5002571 0.9130723
vt 0.5746676 0.9115568
vt 0.6186679 0.9529043
vt 0.6266612 0.996086
vt 0.4489961 0.999458
vt 0.4566036 0.9561676
vt 0.5086631 0.9203857
vt 0.6003636 0.9193793
vt 0.6626213 0.9573056
vt 0.687941 0.9969639
vt 0.4854418 0.9988997
vt 0.4780694 0.9593477
vt 0.6835877 0.9297221
vt 1.939308 0.9300483
vt 1.940184 0.9844673
vt 0.6860949 0.9817097
vt 0.6917444 0.93509
vt 1.945567 0.9335608
vt 1.944759 0.9880282
vt 0.6902068 0.9874348
vt 0.83324 0.9859136
vt -0.4094803 0.9805723
vt -0.409214 0.9258718
vt 0.8364553 0.9339541
vt 1.950006 0.9789022
vt 0.8226541 0.9837649
vt 0.8203436 0.9315177
vt 1.947281 0.9266568
vt -0.4233047 0.9916139
vt -0.4236052 0.9369281
vt -0.4261274 0.9234617
vt 0.6900975 0.9874672
vt -0.4287038 0.9758292
vt 1.941625 0.9217339
vt 1.939313 0.9736886
vt -0.4116073 0.9253358
vt 0.6862245 0.9817482
vt -0.4093752 0.97736
vt 1.332415 0.9243168
vt 2.17266 0.9242736
vt 2.17853 0.9927282
vt 1.338285 0.9927714
vt 1.291754 0.9242426
vt 2.129767 0.9242278
vt 2.135537 0.9927284
vt 1.297524 0.9927431
vt -1.129732 0.9242959
vt -0.2925786 0.9243537
vt -0.2984492 0.9927856
vt -1.135602 0.9927278
vt 1.293044 0.9240016
vt 2.129117 0.9240794
vt 2.134816 0.9927281
vt 1.298743 0.9926503
vt -0.2922849 0.9240463
vt 0.4659057 0.9242751
vt 0.4602907 0.9927554
vt -0.2978999 0.9925266
vt -1.172743 0.9242959
vt -0.3324979 0.9242842
vt -0.3382673 0.9927518
vt -1.178512 0.9927635
vt -1.129236 0.9242959
vt -0.2922848 0.9242002
vt -0.2978998 0.9926676
vt -1.134851 0.9927633
vt -1.172641 0.9242959
vt -0.3323965 0.9240404
vt -0.3380957 0.9926652
vt -1.17834 0.9929206
vt 0.4256639 0.924293
vt 0.4198945 0.9927624
vt 0.3975653 0.9241268
vt 0.3918661 0.9927516
vt 0.4372442 0.9242883
vt 0.4313735 0.9927605
vt 0.5624745 0.9242637
vt 0.5681734 0.9929123
vt 0.5740466 0.9242841
vt 1.332516 0.924022
vt 1.338131 0.9926583
vt 0.5796614 0.9929204
vt 0.6028615 0.9242792
vt 0.6087322 0.9927338
vt 0.5342225 0.9242947
vt 0.5399917 0.992763
vt 0.8971297 0.9978943
vt 0.8887841 0.9172983
vt 1.005617 0.9188269
vt 1.013963 0.999423
vt 0.1091667 0.9276585
vt 0.1101155 0.995719
vt -0.02159822 0.998485
vt -0.02254703 0.9304245
vt 0.1377525 0.9202548
vt 0.1377346 1.000347
vt 0.03917924 1.001434
vt 0.03919718 0.921341
vt 0.9948124 0.5126727
vt 0.001999497 0.05745749
vt 0.001998186 0.05655039

usemtl sn19_26_sn1902.JPG
usemap sn19_26_sn1902.JPG
f 3/3/3 1/1/1 2/2/2
f 4/4/4 1/1/1 3/3/3
f 7/7/7 5/5/5 6/6/6
f 8/8/8 5/5/5 7/7/7
f 10/10/10 8/8/8 9/9/9
f 10/10/10 5/5/5 8/8/8
f 13/13/13 11/11/11 12/12/12
f 14/14/14 11/11/11 13/13/13
f 16/16/16 14/14/14 15/15/15
f 16/16/16 11/11/11 14/14/14
f 19/19/19 17/17/17 18/18/18
f 20/20/20 17/17/17 19/19/19
f 22/22/22 20/20/20 21/21/21
f 22/22/22 17/17/17 20/20/20
f 25/25/25 23/23/23 24/24/24
f 26/26/26 23/23/23 25/25/25
f 28/28/28 26/26/26 27/27/27
f 28/28/28 23/23/23 26/26/26
f 31/31/31 29/29/29 30/30/30
f 29/29/29 31/31/31 32/32/32
f 35/35/35 33/33/33 34/34/34
f 33/33/33 35/35/35 36/36/36
f 39/39/39 37/37/37 38/38/38
f 37/37/37 39/39/39 40/40/40
f 43/43/43 41/41/41 42/42/42
f 41/41/41 43/43/43 44/44/44
f 46/46/46 42/42/42 45/45/45
f 42/42/42 46/46/46 43/43/43
f 48/48/48 47/47/47 33/33/33
f 47/47/47 48/48/48 49/49/49
f 51/51/51 40/40/40 50/50/50
f 40/40/40 51/51/51 37/37/37
f 53/53/53 52/52/52 29/29/29
f 52/52/52 53/53/53 54/54/54
f 57/57/57 55/55/55 56/56/56
f 55/55/55 57/57/57 58/58/58
f 61/61/61 59/59/59 60/60/60
f 59/59/59 61/61/61 62/62/62
f 65/65/65 63/63/63 64/64/64
f 63/63/63 65/65/65 66/66/66
f 69/69/69 67/67/67 68/68/68
f 67/67/67 69/69/69 70/70/70
f 73/73/73 71/71/71 72/72/72
f 71/71/71 73/73/73 74/74/74
f 77/77/77 75/75/75 76/76/76
f 75/75/75 77/77/77 78/78/78
f 81/81/81 79/79/79 80/80/80
f 79/79/79 81/81/81 82/82/82
f 85/85/85 83/83/83 84/84/84
f 83/83/83 85/85/85 86/86/86
f 88/88/88 76/76/76 87/87/87
f 76/76/76 88/88/88 77/77/77
f 90/90/90 84/84/84 89/89/89
f 84/84/84 90/90/90 85/85/85
f 92/92/92 64/64/64 91/91/91
f 64/64/64 92/92/92 65/65/65
f 70/70/70 93/93/93 67/67/67
f 93/93/93 70/70/70 94/94/94
f 97/97/97 95/95/95 96/96/96
f 95/95/95 97/97/97 98/98/98
f 58/58/58 99/99/99 55/55/55
f 99/99/99 58/58/58 100/100/100
f 62/62/62 101/101/101 59/59/59
f 101/101/101 62/62/62 102/102/102
f 105/105/105 103/103/103 104/104/104
f 103/103/103 105/105/105 106/106/106
f 109/109/109 107/107/107 108/108/108
f 107/107/107 109/109/109 110/110/110
f 113/113/113 111/111/111 112/112/112
f 111/111/111 113/113/113 114/114/114
f 116/116/116 42/42/42 115/115/115
f 42/42/42 116/116/116 45/45/45
f 46/46/46 116/116/116 117/117/117
f 116/116/116 46/46/46 45/45/45
