mtllib ./Box47.mtl
g Box47
v -0.0002746582 140 -140.8511
v -19.53152 70.00001 -140.8511
v -78.12527 70.00001 -140.8511
v -78.12527 140 -140.8511
v -78.12527 140 -140.8511
v -78.12527 70.00001 -140.8511
v -78.12527 0 0.0004272461
v -78.12527 140 0.0004272461
v -78.12527 140 0.0004272461
v -78.12527 0 0.0004272461
v -76.72446 0 153.8768
v -76.72446 140 153.8768
v 79.52554 140 -142.0616
v 78.12473 70 -140.8511
v -0.0002746582 70.00001 -140.8511
v -0.0002746582 140 -140.8511
v 78.12473 70 -140.8511
v 79.52554 0 -142.0616
v -0.0002746582 0 -140.8511
v -0.0002746582 70.00001 -140.8511
v -39.06277 0 -140.8511
v -78.12527 9.541355 -140.8511
v -78.12527 70.00001 -140.8511
v -19.53152 70.00001 -140.8511
v -78.12527 9.541355 -140.8511
v -19.53152 70.00001 -140.8511
v -36.08524 10.67149 -140.8511
v -36.08524 10.67149 -140.8511
v -19.53152 70.00001 -140.8511
v 2.801361 140 152.6663
v 22.33261 70.00001 152.6663
v 80.92636 70.00001 152.6663
v 80.92636 140 152.6663
v 80.92636 140 152.6663
v 80.92636 70.00001 152.6663
v 80.92636 70.00001 -2.420441
v 80.92636 0 -2.420441
v 80.92636 70.00001 -2.420441
v 80.92636 23.33334 49.27515
v 80.92636 70.00001 -2.420441
v 80.92636 0 -2.420441
v 79.52554 0 -142.0616
v 79.52554 140 -142.0616
v 80.22592 140 -72.241
v -76.72446 140 153.8768
v -75.32367 70 152.6663
v 2.801361 70.00001 152.6663
v -75.32367 70 152.6663
v -76.72446 0 153.8768
v 2.801361 0 152.6663
v 2.801361 70.00001 152.6663
v 41.86386 0 152.6663
v 80.92636 0 152.6663
v 80.92636 70.00001 152.6663
v 22.33261 70.00001 152.6663
v 80.92636 0 75.12292
v 80.92636 140 -2.420441
v 80.92636 70.00001 -2.420441
v 80.92636 140 -2.420441
v 80.92636 70.00001 152.6663
v 80.92636 0 152.6663
v -78.12527 0 -140.8511
v -36.08524 10.67149 -140.8511
v -39.06277 0 -140.8511
v -78.12527 9.541355 -140.8511
v -78.12527 0 -140.8511

vn 0 0 -1
vn 0 0 -1
vn 0 0 -1
vn 0 0 -1
vn -1 0 0
vn -1 0 0
vn -1 0 0
vn -1 0 0
vn -0.9999585 0 0.009103153
vn -0.9999585 0 0.009103153
vn -0.9999585 0 0.009103153
vn -0.9999585 0 0.009103153
vn -0.007677532 -0.008568674 -0.9999338
vn -1.394881E-09 -0.01728955 -0.9998505
vn -0.006831311 -0.007624231 -0.9999475
vn -0.0122188 0 -0.9999254
vn -0.007677531 0.008568673 -0.9999338
vn -0.01521688 0.01698312 -0.99974
vn -0.006153105 0.006867305 -0.9999575
vn 0 0 -1
vn 0 0 -1
vn 0 0 -1
vn 0 0 -1
vn 0 0 -1
vn -1 0 0
vn 0 0 -1
vn 0 0 -1
vn 0 0 -1
vn 0 0 -1
vn 0.005133832 0 0.9999868
vn 0 0 1
vn 0 0 1
vn 0 0 1
vn 1 0 0
vn 1 0 0
vn 1 0 0
vn 1 0 0
vn 1 0 0
vn 1 0 0
vn 0.9999496 1.751377E-07 -0.01003114
vn 0.9999496 0 -0.01003105
vn 0.9999496 1.250984E-07 -0.01003099
vn 0.9999496 0 -0.01003061
vn 0.9999497 1.459481E-07 -0.01003105
vn 0.007677531 -0.008568676 0.9999338
vn 1.39488E-09 -0.01728955 0.9998506
vn 0.00683131 -0.007624233 0.9999475
vn 0.007677529 0.008568674 0.9999338
vn 0.01521688 0.01698313 0.99974
vn 0.006153104 0.006867306 0.9999575
vn 0 0 1
vn 0 0 1
vn 0 0 0.9999999
vn 0 0 1
vn 0 0 1
vn 1 0 0
vn 0.9999497 0 -0.01003149
vn 0.9999497 0 -0.01003149
vn 1 0 0
vn 1 0 0
vn 0.9999999 0 0
vn 0 0 -1
vn 0 0 -1
vn 0 0 -0.9999999
vn 0 0 -1
vn -1 0 0

vt 0.5000001 1.012446
vt 0.6250001 0.5124461
vt 1 0.5124461
vt 1 1.012446
vt 1.999001 1.010944
vt 1.999001 0.5057215
vt 1 0.0004994869
vt 1 1.010944
vt 0.9972261 1.010944
vt 0.997226 0.0004994869
vt 0.0009990335 0.0004995465
vt 0.0009990335 1.010944
vt 0 1.012446
vt 0 0.5124461
vt 0.5000001 0.5124461
vt 0.5000001 1.012446
vt 0 0.9766908
vt 0 0.5008454
vt 0.5 0.5008454
vt 0.5000001 0.9766908
vt 0.75 0.5008454
vt 1 0.5657055
vt 1 0.9766908
vt 0.6250001 0.9766908
vt 1.999001 0.06936374
vt 0.6250001 0.5124461
vt 0.7309438 0.573388
vt 0.7309438 0.573388
vt 0.6250001 0.9766908
vt 0.7215744 1.012446
vt 0.8465744 0.5124461
vt 1.221574 0.5124461
vt 1.221574 1.012446
vt 1.999001 1.010944
vt 1.999001 0.5057215
vt 1 0.5057216
vt 1 0.0004994869
vt 1 0.5057216
vt 1.333 0.1689068
vt 0.9972261 0.5057216
vt 0.997226 0.0004994869
vt 0.0009990335 0.0004995465
vt 0.0009990335 1.010944
vt 0.4991127 1.010944
vt 0.2215743 1.012446
vt 0.2215743 0.5124461
vt 0.7215744 0.5124461
vt 0.2215743 0.9766908
vt 0.2215743 0.5008454
vt 0.7215744 0.5008454
vt 0.7215744 0.9766908
vt 0.9715744 0.5008454
vt 1.221574 0.5008454
vt 1.221574 0.9766908
vt 0.8465744 0.9766908
vt 1.499501 0.0004994571
vt 0.9972261 1.010944
vt 0.9972261 0.5057216
vt 1 1.010944
vt 1.999001 0.5057215
vt 1.999001 0.0004994273
vt 1 0.5008454
vt 0.7309438 0.573388
vt 0.75 0.5008454
vt 1 0.5657055
vt 1.999001 0.0004994273

usemtl sn19_14_sn19323.JPG
usemap sn19_14_sn19323.JPG
f 3/3/3 1/1/1 2/2/2
f 1/1/1 3/3/3 4/4/4
f 7/7/7 5/5/5 6/6/6
f 5/5/5 7/7/7 8/8/8
f 15/15/15 13/13/13 14/14/14
f 13/13/13 15/15/15 16/16/16
f 19/19/19 17/17/17 18/18/18
f 17/17/17 19/19/19 20/20/20
f 21/21/21 20/20/20 19/19/19
f 24/24/24 22/22/22 23/23/23
f 7/7/7 6/6/6 25/25/25
f 26/26/26 16/16/16 15/15/15
f 27/27/27 22/22/22 24/24/24
f 20/20/20 28/28/28 29/29/29
f 32/32/32 30/30/30 31/31/31
f 30/30/30 32/32/32 33/33/33
f 36/36/36 34/34/34 35/35/35
f 39/39/39 37/37/37 38/38/38
f 47/47/47 45/45/45 46/46/46
f 45/45/45 47/47/47 30/30/30
f 50/50/50 48/48/48 49/49/49
f 48/48/48 50/50/50 51/51/51
f 52/52/52 51/51/51 50/50/50
f 55/55/55 53/53/53 54/54/54
f 37/37/37 39/39/39 56/56/56
f 31/31/31 30/30/30 47/47/47
f 52/52/52 53/53/53 55/55/55
f 51/51/51 52/52/52 55/55/55
f 34/34/34 36/36/36 59/59/59
f 60/60/60 39/39/39 38/38/38
f 39/39/39 60/60/60 61/61/61
f 56/56/56 39/39/39 61/61/61
f 64/64/64 62/62/62 63/63/63
f 20/20/20 21/21/21 28/28/28
f 63/63/63 62/62/62 65/65/65
f 7/7/7 25/25/25 66/66/66

usemtl sn19_13_sn19324.JPG
usemap sn19_13_sn19324.JPG
f 11/11/11 9/9/9 10/10/10
f 9/9/9 11/11/11 12/12/12
f 42/42/42 40/40/40 41/41/41
f 44/44/44 42/42/42 43/43/43
f 40/40/40 42/42/42 44/44/44
f 44/44/44 57/57/57 58/58/58
