mtllib ./Box48.mtl
g Box48
v 149.9996 136.5906 -300.0004
v 149.9996 0 -300.0004
v 19.10211 0 -300.0004
v -150.0004 100.4691 -300.0004
v -150.0004 136.5906 -300.0004
v -120.4714 136.5906 -300.0004
v -150.0004 136.5906 149.9996
v -150.0004 136.5906 -0.0003814697
v -150.0004 0 -0.0003814697
v -150.0004 0 149.9996
v -150.0004 136.5906 299.9996
v -150.0004 0 299.9996
v 149.9996 0 299.9996
v 149.9996 136.5906 299.9996
v 149.9996 136.5906 -150.0004
v 149.9996 136.5906 -0.0003662109
v 149.9996 0 -0.0003967285
v 149.9996 0 -150.0004
v -120.4714 136.5906 -300.0004
v -150.0004 136.5906 -300.0004
v -150.0004 210 -300.0004
v -60.45959 210 -300.0004
v -150.0004 210 -0.0003814697
v -150.0004 136.5906 -0.0003814697
v -150.0004 136.5906 149.9996
v -150.0004 136.5906 299.9996
v -150.0004 210 299.9996
v -150.0004 210 149.9996
v -150.0004 136.5906 299.9996
v 149.9996 136.5906 299.9996
v 149.9996 210 299.9996
v -150.0004 210 299.9996
v 149.9996 210 -0.0003662109
v 149.9996 136.5906 -0.0003662109
v 149.9996 136.5906 -150.0004
v 149.9996 136.5906 -300.0004
v 149.9996 210 -300.0004
v 149.9996 210 -150.0004
v 149.9996 136.5906 299.9996
v 149.9996 0 299.9996
v 149.9996 0 149.9996
v 149.9996 0 -0.0003967285
v 149.9996 136.5906 -0.0003662109
v 149.9996 136.5906 149.9996
v 149.9996 210 299.9996
v 149.9996 136.5906 299.9996
v 149.9996 136.5906 149.9996
v 149.9996 136.5906 -0.0003662109
v 149.9996 210 -0.0003662109
v 149.9996 210 149.9996
v 149.9996 0 -300.0004
v 149.9996 136.5906 -300.0004
v -150.0004 136.5906 -150.0004
v -150.0004 136.5906 -300.0004
v -150.0004 100.4691 -300.0004
v -150.0004 0 -300.0004
v -150.0004 0 -150.0004
v -150.0004 210 -300.0004
v -150.0004 136.5906 -300.0004
v -150.0004 136.5906 -150.0004
v -150.0004 136.5906 -0.0003814697
v -150.0004 210 -0.0003814697
v -150.0004 210 -150.0004
v -150.0004 0 -0.0003814697
v -150.0004 136.5906 -0.0003814697
v -150.0004 0 299.9996
v -150.0004 136.5906 299.9996
v 45.065 173.1924 -300.0004
v 149.9996 210 -300.0004
v 149.9996 136.5906 -300.0004
v 44.57855 136.5906 -300.0004
v 44.57568 136.5906 -300.0004
v -150.0004 0 -300.0004
v -120.4714 136.5906 -300.0004
v 44.57568 136.5906 -300.0004
v -150.0004 100.4691 -300.0004
v 44.57855 136.5906 -300.0004
v 44.5755 136.5742 -300.0004
v 44.5755 136.5742 -300.0004
v 44.57855 136.5906 -300.0004
v 19.10211 0 -300.0004
v 44.57568 136.5906 -300.0004
v -120.4714 136.5906 -300.0004
v -60.45959 210 -300.0004
v 45.065 173.1924 -300.0004
v 45.55707 210 -300.0004
v 45.55707 210 -300.0004

vn 0 0 -0.9999999
vn 0 0 -1
vn 0 0 -1
vn 0 0 -1
vn 0 0 -1
vn 0 0 -1
vn -0.9999999 0 0
vn -1 0 0
vn -1 0 0
vn -1 0 0
vn 0 0 1
vn 0 0 1
vn 0 0 1
vn 0 0 1
vn 1 0 0
vn 1 0 0
vn 1 0 0
vn 1 0 0
vn 0 0 -1
vn 0 0 -1
vn 0 0 -1
vn 0 0 -1
vn -1 0 0
vn -1 0 0
vn -1 0 0
vn -1 0 0
vn -1 0 0
vn -1 0 0
vn 0 0 1
vn 0 0 1
vn 0 0 1
vn 0 0 1
vn 1 0 0
vn 1 0 0
vn 1 0 0
vn 1 0 0
vn 1 0 0
vn 1 0 0
vn 1 0 0
vn 1 0 0
vn 1 0 0
vn 1 0 0
vn 1 0 0
vn 1 0 0
vn 1 0 0
vn 1 0 0
vn 1 0 0
vn 1 0 0
vn 1 0 0
vn 1 0 0
vn 1 0 0
vn 1 0 0
vn -1 0 0
vn -1 0 0
vn -1 0 0
vn -1 0 0
vn -0.9999999 0 0
vn -0.9999999 0 0
vn -0.9999999 0 0
vn -1 0 0
vn -1 0 0
vn -1 0 0
vn -1 0 0
vn -1 0 0
vn -1 0 0
vn -1 0 0
vn -1 0 0
vn 0 0 -1
vn 0 0 -1
vn 0 0 -1
vn 0 0 -1
vn 0 0 -1
vn 0 0 -1
vn 0 0 -1
vn 0 0 -0.9999999
vn 0 0 -1
vn 0 0 -1
vn 0 0 -1
vn 0 0 -1
vn 0 0 -1
vn 0 0 -1
vn 0 0 -1
vn 0 0 -1
vn 0 0 -1
vn 0 0 -1
vn 0 0 -1
vn 0 0 -1

vt 0 0.9701148
vt 0 0.007806881
vt 0.4363249 0.007806881
vt 1 0.7156318
vt 1 0.9701149
vt 0.9015697 0.9701149
vt 1 0.9790346
vt 1.999001 0.9790345
vt 1.999001 0.005517994
vt 1 0.005518061
vt 0 0.9701149
vt 0 0.007806881
vt 1 0.007806881
vt 1 0.9701149
vt 0.5000001 0.9046934
vt 0.0004994869 0.9046935
vt 0.0004996061 0.009304828
vt 0.5000001 0.009304751
vt 0.9015697 0.4545209
vt 1 0.4545209
vt 1 0.971705
vt 0.7015306 0.971705
vt 1.999001 0.9692551
vt 1.999001 0.4628868
vt 1 0.4628868
vt 0.0009990931 0.4628869
vt 0.0009990931 0.9692551
vt 1 0.9692551
vt 0 0.4545209
vt 1 0.4545209
vt 1 0.971705
vt 0 0.971705
vt 0.0004994869 0.8991814
vt 0.0004994869 0.4232675
vt 0.5000001 0.4232674
vt 0.9995005 0.4232672
vt 0.9995005 0.8991812
vt 0.5 0.8991812
vt 0.0004995465 0.9015975
vt 0.0004995465 0.01139687
vt 0.4999999 0.01139678
vt 0.9995005 0.01139674
vt 0.9995003 0.9015974
vt 0.4999999 0.9015974
vt 0.0004995465 0.9382891
vt 0.0004995465 0.418099
vt 0.4999999 0.4180989
vt 0.9995003 0.4180988
vt 0.9995003 0.938289
vt 0.4999999 0.9382891
vt 0.9995005 0.009304704
vt 0.9995005 0.9046932
vt 1 0.9790346
vt 1.999001 0.9790345
vt 1.999001 0.7215873
vt 1.999001 0.005517994
vt 1 0.005518061
vt 1.999001 0.9692551
vt 1.999001 0.4628868
vt 1 0.4628868
vt 0.0009990931 0.4628869
vt 0.0009990931 0.9692551
vt 1 0.9692551
vt 0.0009990931 0.005518128
vt 0.0009990931 0.9790347
vt 0.0009990931 0.005518128
vt 0.0009990931 0.9790347
vt 0.3497819 0.7123879
vt 0 0.971705
vt 0 0.4545208
vt 0.3514035 0.4545209
vt 0.3514129 0.4545209
vt 1 0.007806881
vt 0.9015697 0.9701149
vt 0.3514129 0.9701149
vt 1 0.7156318
vt 0.3514035 0.9701149
vt 0.3514137 0.9699993
vt 0.3514137 0.9699993
vt 0.3514035 0.9701149
vt 0.4363249 0.007806881
vt 0.3514129 0.4545209
vt 0.9015697 0.4545209
vt 0.7015306 0.971705
vt 0.3497819 0.7123879
vt 0.3481417 0.971705
vt 0.3481417 0.971705

usemtl sn19_29_sn19305.JPG
usemap sn19_29_sn19305.JPG
f 3/3/3 1/1/1 2/2/2
f 6/6/6 4/4/4 5/5/5
f 13/13/13 11/11/11 12/12/12
f 11/11/11 13/13/13 14/14/14
f 21/21/21 19/19/19 20/20/20
f 19/19/19 21/21/21 22/22/22
f 31/31/31 29/29/29 30/30/30
f 29/29/29 31/31/31 32/32/32
f 70/70/70 68/68/68 69/69/69
f 68/68/68 71/71/71 72/72/72
f 75/75/75 73/73/73 74/74/74
f 74/74/74 73/73/73 76/76/76
f 78/78/78 75/75/75 77/77/77
f 68/68/68 70/70/70 71/71/71
f 1/1/1 79/79/79 80/80/80
f 81/81/81 73/73/73 78/78/78
f 1/1/1 3/3/3 79/79/79
f 78/78/78 73/73/73 75/75/75
f 84/84/84 82/82/82 83/83/83
f 84/84/84 85/85/85 82/82/82
f 68/68/68 86/86/86 69/69/69
f 85/85/85 84/84/84 87/87/87

usemtl sn19_35_sn19307.JPG
usemap sn19_35_sn19307.JPG
f 9/9/9 7/7/7 8/8/8
f 7/7/7 9/9/9 10/10/10
f 25/25/25 23/23/23 24/24/24
f 28/28/28 26/26/26 27/27/27
f 55/55/55 53/53/53 54/54/54
f 53/53/53 56/56/56 57/57/57
f 60/60/60 58/58/58 59/59/59
f 63/63/63 61/61/61 62/62/62
f 65/65/65 57/57/57 64/64/64
f 57/57/57 65/65/65 53/53/53
f 63/63/63 58/58/58 60/60/60
f 61/61/61 63/63/63 60/60/60
f 67/67/67 10/10/10 66/66/66
f 10/10/10 67/67/67 7/7/7
f 28/28/28 23/23/23 25/25/25
f 26/26/26 28/28/28 25/25/25
f 56/56/56 53/53/53 55/55/55

usemtl sn19_28_sn19306.JPG
usemap sn19_28_sn19306.JPG
f 17/17/17 15/15/15 16/16/16
f 15/15/15 17/17/17 18/18/18
f 35/35/35 33/33/33 34/34/34
f 38/38/38 36/36/36 37/37/37
f 41/41/41 39/39/39 40/40/40
f 44/44/44 42/42/42 43/43/43
f 47/47/47 45/45/45 46/46/46
f 50/50/50 48/48/48 49/49/49
f 44/44/44 39/39/39 41/41/41
f 42/42/42 44/44/44 41/41/41
f 50/50/50 45/45/45 47/47/47
f 48/48/48 50/50/50 47/47/47
f 52/52/52 18/18/18 51/51/51
f 18/18/18 52/52/52 15/15/15
f 38/38/38 33/33/33 35/35/35
f 36/36/36 38/38/38 35/35/35
