mtllib ./Box543.mtl
g Box543
v -0.3656006 32.84894 1.003906
v -0.3656006 -27.54843 1.003906
v 0.3653564 32.84894 -1.004639
v 0.3653564 -27.54843 -1.004639
v -28.03845 -27.54843 -11.34277
v -28.76953 -27.54843 -9.334229
v -28.03845 32.84894 -11.34277
v -28.76953 32.84894 -9.334229
v 0.3653564 -27.54843 -1.004639
v -0.3656006 -27.54843 1.003906
v -28.03845 -27.54843 -11.34277
v -28.76953 -27.54843 -9.334229
v 0.3653564 32.84894 -1.004639
v -28.03845 32.84894 -11.34277
v -28.03845 -27.54843 -11.34277
v -0.3656006 32.84894 1.003906
v 0.3653564 32.84894 -1.004639
v -28.76953 32.84894 -9.334229
v -28.03845 32.84894 -11.34277
v -0.3656006 32.84894 1.003906
v -28.76953 -27.54843 -9.334229
v -28.76953 32.84894 -9.334229

vn 0.9397067 0 0.3419815
vn -0.2070611 0 0.978328
vn 0.9397067 0 0.3419815
vn 0.3750098 0 -0.9270209
vn -0.9396883 0 -0.3420319
vn -0.9396883 0 -0.3420319
vn -0.9396883 0 -0.3420319
vn -0.9396883 0 -0.3420319
vn 0 -1 0
vn 0 -1 0
vn 0 -1 0
vn 0 -1 0
vn 0.34202 0 -0.9396927
vn 0.34202 0 -0.9396927
vn 0.34202 0 -0.9396927
vn 0 1 0
vn 0 1 0
vn 0 1 0
vn 0 1 0
vn -0.3420186 0 0.9396931
vn -0.3420186 0 0.9396931
vn -0.3420186 0 0.9396931

vt 0.0004984299 0.5804371
vt 0.3679051 0.5804436
vt 0.0004983545 0.01688901
vt 0.3679051 0.01689555
vt 0.3360996 0.03560882
vt 0.3023709 0.02942645
vt 0.3392223 0.5633336
vt 0.3054936 0.5643976
vt 0.3360993 0.03560882
vt 0.3023707 0.02942633
vt 0.3392156 0.5633336
vt 0.3054869 0.5643976
vt 0.3679052 0.5804436
vt 0.0004983703 0.5804437
vt 0.0004982949 0.01688872
vt 0.3360996 0.03560882
vt 0.302371 0.02942633
vt 0.3392153 0.5633336
vt 0.3054867 0.5643976
vt 0.3679051 0.01688864
vt 0.0004983703 0.5804437
vt 0.0004982949 0.01688872

usemtl sn19_45_Asn1916.JPG
usemap sn19_45_Asn1916.JPG
f 3/3/3 1/1/1 2/2/2
f 2/2/2 4/4/4 3/3/3
f 7/7/7 5/5/5 6/6/6
f 6/6/6 8/8/8 7/7/7
f 11/11/11 9/9/9 10/10/10
f 10/10/10 12/12/12 11/11/11
f 14/14/14 13/13/13 4/4/4
f 4/4/4 15/15/15 14/14/14
f 18/18/18 16/16/16 17/17/17
f 17/17/17 19/19/19 18/18/18
f 21/21/21 2/2/2 20/20/20
f 20/20/20 22/22/22 21/21/21
