mtllib ./Box538.mtl
g Box538
v -0.8187256 32.84863 -0.6873779
v -0.8187256 -27.54871 -0.6873779
v 0.8187256 32.84863 0.6866455
v 0.8187256 -27.54871 0.6866455
v 20.24805 -27.54871 -22.46838
v 18.61072 -27.54871 -23.84241
v 20.24805 32.84869 -22.46838
v 18.61072 32.84869 -23.84241
v 0.8187256 -27.54871 0.6866455
v -0.8187256 -27.54871 -0.6873779
v 20.24805 -27.54871 -22.46838
v 18.61072 -27.54871 -23.84241
v 0.8187256 32.84863 0.6866455
v 20.24805 32.84869 -22.46838
v 20.24805 -27.54871 -22.46838
v -0.8187256 32.84863 -0.6873779
v 0.8187256 32.84863 0.6866455
v 18.61072 32.84869 -23.84241
v 20.24805 32.84869 -22.46838
v -0.8187256 32.84863 -0.6873779
v 18.61072 -27.54871 -23.84241
v 18.61072 32.84869 -23.84241

vn -0.6427982 0 0.7660355
vn -0.8485115 0 -0.529177
vn -0.6427982 0 0.7660355
vn 0.7428529 0 0.6694546
vn 0.6428264 0 -0.7660119
vn 0.6428264 0 -0.7660119
vn 0.6428264 0 -0.7660119
vn 0.6428264 0 -0.7660119
vn 0 -1 0
vn 0 -1 0
vn 0 -1 0
vn 0 -1 0
vn 0.7660453 0 0.6427865
vn 0.7660453 0 0.6427865
vn 0.7660453 0 0.6427866
vn -1.297964E-06 1 1.54681E-06
vn -1.297994E-06 1 1.546788E-06
vn -1.297994E-06 1 1.546788E-06
vn -1.298024E-06 1 1.546766E-06
vn -0.7660434 0 -0.6427889
vn -0.7660434 0 -0.6427889
vn -0.7660433 0 -0.6427889

vt 0.0004984299 0.5804371
vt 0.346166 0.5804436
vt 0.0004983545 0.01688901
vt 0.346166 0.01689555
vt 0.3336841 0.02353153
vt 0.2999554 0.01734915
vt 0.3368068 0.5512563
vt 0.3030781 0.5450739
vt 0.3336839 0.02353153
vt 0.2999552 0.01734903
vt 0.3368001 0.5512564
vt 0.3030714 0.5450739
vt 0.3461661 0.5804436
vt 0.0004983703 0.5804437
vt 0.0004982949 0.01688872
vt 0.3336841 0.02353153
vt 0.2999555 0.01734903
vt 0.3367999 0.5512564
vt 0.3030712 0.5450739
vt 0.346166 0.01688864
vt 0.0004983703 0.5804437
vt 0.0004982949 0.01688872

usemtl sn19_45_Asn1916.JPG
usemap sn19_45_Asn1916.JPG
f 3/3/3 1/1/1 2/2/2
f 2/2/2 4/4/4 3/3/3
f 7/7/7 5/5/5 6/6/6
f 6/6/6 8/8/8 7/7/7
f 11/11/11 9/9/9 10/10/10
f 10/10/10 12/12/12 11/11/11
f 14/14/14 13/13/13 4/4/4
f 4/4/4 15/15/15 14/14/14
f 18/18/18 16/16/16 17/17/17
f 17/17/17 19/19/19 18/18/18
f 21/21/21 2/2/2 20/20/20
f 20/20/20 22/22/22 21/21/21
