mtllib ./Box58.mtl
g Box58
v -149.9996 6.029363E-07 7.304077
v -149.9996 80.22185 250.0004
v -149.9996 80.22185 7.304077
v -149.9996 139.5442 7.304077
v -149.9996 80.22185 -249.9996
v -149.9996 80.22185 7.304077
v -149.9996 -2.137697E-08 -249.9996
v -149.9996 6.029363E-07 7.304077
v -149.9996 80.22185 7.304077
v -149.9996 2.137697E-08 250.0004
v -149.9996 139.5441 250.0004
v -149.9996 139.5442 7.304077
v -149.9996 139.5441 -249.9996
v -149.9996 80.22185 -249.9996

vn -1 0 0
vn -1 0 0
vn -1 0 0
vn -1 0 0
vn -1 0 0
vn -0.9999999 0 0
vn -1 0 0
vn -1 0 0
vn -1 0 0
vn -1 0 0
vn -1 0 0
vn -1 0 0
vn -1 0 0
vn -1 0 0

vt 0.0004995465 0.0004994869
vt 0.9995005 0.5748102
vt 0.0004995465 0.5748102
vt 1 0.9995005
vt 0.0009990335 0.5788468
vt 1 0.5788468
vt 0.0009990335 0.0004995465
vt 1 0.0004995465
vt 1 0.5776705
vt 0.9995005 0.0004994869
vt 0.9995005 0.9995004
vt 0.0004995465 0.9995005
vt 0.0009990335 0.9995005
vt 0.0009990335 0.5776705

usemtl sn19_17_sn1907.jpg
usemap sn19_17_sn1907.jpg
f 3/3/3 1/1/1 2/2/2
f 6/6/6 4/4/4 5/5/5
f 9/9/9 7/7/7 8/8/8
f 2/2/2 1/1/1 10/10/10
f 11/11/11 3/3/3 2/2/2
f 3/3/3 11/11/11 12/12/12
f 5/5/5 4/4/4 13/13/13
f 7/7/7 9/9/9 14/14/14
