mtllib ./Box549.mtl
g Box549
v 300.0002 50.0005 7.97937
v 60.80707 50.0005 7.97937
v 61.14838 50.0005 300.0002
v 300.0002 50.0005 300.0002
v 300.0002 22.75622 300.0002
v 300.0002 50.0005 300.0002
v 61.14838 50.0005 300.0002
v 61.14838 22.75622 300.0002
v -299.9999 0.0004997551 7.979492
v -299.9999 22.75622 7.979492
v -299.9999 22.75622 -299.9995
v -299.9999 0.0004997551 -299.9995
v 300.0002 0.0004997551 7.97937
v 300.0002 22.75622 7.97937
v 300.0002 22.75622 300.0002
v 300.0002 0.0004997551 300.0002
v 44.52936 50.0005 7.97937
v 60.22174 49.52737 -299.647
v 45.01996 49.52737 -299.647
v -54.50085 50.0005 300.0005
v -299.9998 50.0005 300.0005
v -299.9998 22.75622 300.0005
v -54.50085 22.75622 300.0002
v 60.22174 22.28309 -299.647
v 60.22174 49.52737 -299.647
v 87.91364 50.0005 -299.9996
v 87.24957 22.75622 -299.9996
v 300.0001 50.0005 -299.9998
v 300.0001 22.75622 -299.9998
v 166.0753 22.75622 -299.9996
v 165.9356 50.0005 -299.9996
v -299.9999 22.75622 -299.9995
v -299.9999 50.0005 -299.9995
v -54.61798 49.76394 -299.7827
v -66.92365 22.75622 -299.9996
v -54.61798 49.76394 -299.7827
v -54.63007 22.28309 -299.647
v -66.92365 22.75622 -299.9996
v -299.9999 50.0005 -299.9995
v -299.9999 50.0005 7.979492
v -54.50092 50.0005 7.979492
v -54.61798 49.76394 -299.7827
v 44.52936 50.0005 300.0002
v 44.52936 22.75622 300.0002
v 300.0002 0.0004997551 300.0002
v 300.0002 22.75622 300.0002
v 61.14838 22.75622 300.0002
v 61.14838 0.0004997551 300.0002
v -299.9999 22.75622 -299.9995
v -299.9999 22.75622 7.979492
v -299.9999 50.0005 7.979492
v -299.9999 50.0005 -299.9995
v 300.0002 22.75622 300.0002
v 300.0002 22.75622 7.97937
v 300.0002 50.0005 7.97937
v 300.0002 50.0005 300.0002
v -54.50085 0.0004997551 300.0002
v -54.50085 22.75622 300.0002
v -299.9998 22.75622 300.0005
v -299.9998 0.0004997551 300.0005
v 60.22174 -0.4726295 -299.647
v 60.22174 22.28309 -299.647
v 87.24957 22.75622 -299.9996
v 86.69501 0.0004997551 -299.9996
v 300.0001 22.75622 -299.9998
v 300.0001 0.0004997551 -299.9998
v 166.1918 0.0004997551 -299.9996
v 166.0753 22.75622 -299.9996
v -299.9999 0.0004997551 -299.9995
v -299.9999 22.75622 -299.9995
v -66.92365 22.75622 -299.9996
v -77.12445 0.0004997551 -299.9996
v -54.63007 22.28309 -299.647
v -54.63007 -0.4726295 -299.647
v -77.12445 0.0004997551 -299.9996
v -66.92365 22.75622 -299.9996
v 44.52936 22.75622 300.0002
v 44.52936 0.0004997551 300.0002
v 300.0001 50.0005 -299.9998
v 165.9356 50.0005 -299.9996
v 87.91364 50.0005 -299.9996
v -299.9998 0.0004997551 300.0005
v -299.9998 22.75622 300.0005
v 300.0001 0.0004997551 -299.9998
v 300.0001 22.75622 -299.9998
v -40.74811 50.0005 7.979492
v -40.74811 50.0005 300.0005
v 44.52936 50.0005 300.0002
v -299.9998 50.0005 300.0005
v -54.50085 50.0005 300.0005
v -299.9998 22.75622 300.0005
v -299.9998 50.0005 300.0005
v 300.0001 22.75622 -299.9998
v 300.0001 50.0005 -299.9998
v 166.0753 22.75622 -299.9996
v 166.1918 0.0004997551 -299.9996
v 87.24957 22.75622 -299.9996
v 165.9356 50.0005 -299.9996
v 166.0753 22.75622 -299.9996
v 87.24957 22.75622 -299.9996
v 87.91364 50.0005 -299.9996
v -41.16589 49.52737 -299.647
v -40.74811 22.75622 300.0002
v -40.74811 50.0005 300.0005
v -40.74811 0.0004997551 300.0002
v -40.74811 22.75622 300.0002
v -41.6698 21.80996 -346.9352
v -41.16589 49.52737 -299.647
v -41.62677 21.4004 -299.2943
v 45.57831 -0.8126068 -386.4944
v 45.57831 -0.945755 -299.2943
v 45.54437 21.4004 -299.2943
v 45.57831 21.80997 -346.9352
v -41.6698 -0.9457588 -299.2943
v -41.66986 -0.8554649 -358.4287
v -41.66986 15.8758 -357.312
v 45.01996 49.52737 -299.647
v -41.66986 -0.8126106 -386.4943
v 45.57831 21.80997 -346.9352
v 59.99628 21.80996 -346.9352
v 59.99615 -0.8126106 -386.4944
v 45.57831 -0.8126068 -386.4944
v 45.01996 49.52737 -299.647
v 60.22174 49.52737 -299.647
v -41.6698 21.80996 -346.9352
v -54.75922 21.80996 -346.9352
v -54.61798 49.76394 -299.7827
v -41.16589 49.52737 -299.647
v -41.66986 15.8758 -357.312
v -54.75922 15.8758 -357.312
v -41.66986 -0.8126106 -386.4943
v -54.75922 -0.8126106 -386.4943
v -54.61798 49.76394 -299.7827
v -54.75922 21.80996 -346.9352
v -54.63007 22.28309 -299.647
v -54.63007 22.28309 -299.647
v -54.75922 21.80996 -346.9352
v -54.75922 15.8758 -357.312
v -54.64862 -0.8554649 -358.4287
v -54.63007 -0.4726295 -299.647
v -54.75922 -0.8126106 -386.4943
v 60.22174 22.28309 -299.647
v 60.22174 -0.4726295 -299.647
v 59.99615 -0.8126106 -386.4944
v 59.99628 21.80996 -346.9352
v 60.22174 22.28309 -299.647
v 59.99628 21.80996 -346.9352
v 60.22174 49.52737 -299.647
v 45.54437 21.4004 -299.2943
v -41.62677 21.4004 -299.2943
v -41.16589 49.52737 -299.647
v 45.01996 49.52737 -299.647

vn -0.0005075322 0.9999999 -4.467012E-05
vn 0 0.9999997 -0.0007890125
vn 0 1 0
vn 0 1 0
vn 0 0 1
vn 0 0 1
vn 0 0 1
vn 0 0 1
vn -1 0 2.034505E-07
vn -1 0 2.034505E-07
vn -1 0 1.981796E-07
vn -1 0 1.981796E-07
vn 1 0 -2.034506E-07
vn 1 0 -2.034505E-07
vn 1 0 0
vn 1 0 0
vn -5.126324E-10 0.9999997 -0.0007880469
vn -0.001586084 0.9999987 -0.0003017186
vn -4.570087E-11 0.9999989 -0.001537986
vn 4.836856E-07 -4.602666E-06 1
vn 0 0 1
vn 4.972335E-07 -4.480585E-06 1
vn 8.942734E-07 -8.961169E-06 0.9999999
vn -0.01289137 0.0001571096 -0.9999169
vn -0.01273414 0 -0.9999189
vn -0.01289137 0.0001571096 -0.9999169
vn -0.01305253 0.0003181473 -0.9999148
vn -9.11009E-07 -2.33482E-09 -1
vn -9.114841E-07 0 -1
vn -9.11009E-07 -2.33482E-09 -1
vn -9.105345E-07 -4.667208E-09 -1
vn 0.0004547829 0.003895172 -0.9999924
vn 0.0008835074 0 -0.9999995
vn 0.0004547829 0.003895172 -0.9999924
vn -5.237204E-07 0.008031719 -0.9999678
vn 0.02848411 -0.00494998 -0.9995819
vn 0.02848411 -0.00494998 -0.9995819
vn 0.02848411 -0.00494998 -0.9995819
vn 0.0004820882 0.9999998 -0.0003842865
vn 0 1 0
vn 0.0006090364 0.9999998 -0.0002833908
vn 0.001828969 0.999998 -0.0007693546
vn 2.059989E-06 0 1
vn 1.304351E-06 -4.082757E-06 1
vn 0 0 1
vn 0 0 1
vn 0 0 1
vn 0 0 1
vn -1 0 1.981796E-07
vn -1 0 2.052704E-07
vn -1 0 2.016627E-07
vn -1 0 1.981796E-07
vn 1 0 0
vn 1 0 -2.688836E-07
vn 1 0 -1.368469E-07
vn 1 0 0
vn 9.417126E-07 0 1
vn 9.417126E-07 0 1
vn 9.94467E-07 0 0.9999999
vn 9.94467E-07 0 0.9999999
vn -0.01318502 0.0001606619 -0.999913
vn -0.01304696 0 -0.9999148
vn -0.01318502 0.0001606619 -0.999913
vn -0.001908499 4.651083E-05 -0.9999982
vn -9.118809E-07 -2.335775E-09 -1
vn -9.12278E-07 0 -1
vn -9.118809E-07 -2.335775E-09 -1
vn -9.114839E-07 -4.669516E-09 -0.9999999
vn -5.354527E-07 1.200149E-07 -1
vn -5.237354E-07 0 -0.9999999
vn -5.354527E-07 1.200149E-07 -1
vn -5.477063E-07 2.455227E-07 -1
vn 0.02014774 -0.004515857 -0.9997868
vn 0.01567581 0 -0.9998772
vn 0.02014774 -0.004515857 -0.9997868
vn 0.02818664 -0.01263535 -0.9995228
vn 0 0 1
vn 0 0 1
vn 0 1 0
vn 0 1 0
vn -0.004465241 0.9999854 0.003074942
vn -1 0 2.090095E-07
vn -1 0 2.090095E-07
vn 1 0 -3.96359E-07
vn 1 0 -3.96359E-07
vn -1.027817E-09 0.9999997 -0.0007890122
vn 0 1 0
vn 0 1 0
vn 0 1 0
vn 0 1 0
vn -1 0 2.090095E-07
vn -1 0 2.090095E-07
vn 1 0 -3.963591E-07
vn 1 0 -3.963591E-07
vn 0 0 -1
vn 0 0 -1
vn 0 0 -1
vn 0 0 -1
vn 0 0 -1
vn 0 0 -1
vn 0 0 -1
vn 0.001191746 0.9999982 -0.001486331
vn 0 -8.961169E-06 1
vn 1.232657E-06 -5.102823E-06 1
vn 0 0 1
vn 0 0 1
vn 0.9999119 -0.01323219 -0.001016888
vn 0.9998651 -0.01639645 -0.001044048
vn 0.999981 -0.006139912 -0.0006084159
vn -0.9999999 -0.0005313701 -0.0002538096
vn -0.9999989 -0.001518629 -2.318836E-06
vn -0.9999815 -0.006072416 -0.0004430171
vn -0.9999524 -0.009718063 -0.0007958312
vn 0.9999982 -0.001925598 -3.972413E-06
vn 0.9999996 -0.0009059486 -0.000263542
vn 0.9999998 0.0002857006 -0.0005672672
vn -0.9998257 -0.01865221 -0.0008725468
vn 0.9999999 0 0
vn 1.504298E-07 0.8660799 -0.4999057
vn 1.517346E-07 0.8642769 -0.5030161
vn 1.722577E-07 0.8680795 -0.4964253
vn 2.296779E-07 0.8680795 -0.4964253
vn 1.66664E-07 0.862724 -0.5056751
vn 2.164898E-07 0.8627239 -0.5056751
vn 0.009277258 0.8620474 -0.5067426
vn 0 0.8626134 -0.5058638
vn 0.01027484 0.8613871 -0.5078453
vn 0.02027008 0.8624524 -0.5057321
vn 0 0.8680789 -0.4964262
vn 0 0.8680787 -0.4964265
vn 0 0.8680786 -0.4964267
vn 0 0.8680786 -0.4964267
vn -0.9999962 0.0004532258 0.002726588
vn -0.9999962 0.0004532258 0.002726588
vn -0.9999962 0.0004532258 0.002726588
vn -0.9999941 -0.003057919 0.001578413
vn -0.9999844 -0.00486079 0.002779724
vn -0.9999736 -0.006511549 0.003218704
vn -0.9999921 -0.003526023 0.001858052
vn -0.9999999 0 0.0003156539
vn -0.9999687 -0.006872218 0.003930004
vn 0.9999899 0.002944271 -0.003380454
vn 0.9999967 0 -0.002597489
vn 0.9999899 0.002944271 -0.003380454
vn 0.9999523 0.008479949 -0.004852483
vn 0.9999886 0 -0.004767812
vn 0.9999886 0 -0.004767812
vn 0.9999886 0 -0.004767812
vn 6.896984E-10 -0.0125372 -0.9999214
vn 8.229607E-10 -0.0125372 -0.9999214
vn 6.896984E-10 -0.0125372 -0.9999214
vn 5.549126E-10 -0.0125372 -0.9999213

vt 5.997002 3.07971
vt 3.607462 3.079711
vt 3.610871 5.997002
vt 5.997003 5.997001
vt 0.003496552 0.1880879
vt 0.003496617 0.9995005
vt 2.787317 0.9995005
vt 2.787316 0.1880879
vt 2.975127 0.7480625
vt 2.975127 0.02060706
vt 6.109148 0.02060704
vt 6.109148 0.7480625
vt 4.024871 0.7480625
vt 4.024871 0.02060706
vt 6.996501 0.02060704
vt 6.996501 0.7480625
vt 3.444848 3.079711
vt 3.603867 0.002997994
vt 3.444848 0.002998044
vt 4.135209 0.9995005
vt 6.996501 0.9995005
vt 6.996501 0.1880879
vt 4.135209 0.1880879
vt 4.204511 0.1880879
vt 4.204511 0.9995005
vt 4.524632 0.9995005
vt 4.516893 0.1880879
vt 6.9965 0.9995005
vt 6.996501 0.1880879
vt 5.435606 0.1880879
vt 5.433978 0.9995005
vt 0.003496617 0.1880879
vt 0.003496617 0.9995005
vt 2.862345 0.9995004
vt 2.720003 0.1880879
vt 2.864789 0.9995004
vt 2.864789 0.1880879
vt 2.720003 0.1880879
vt 0.0029971 0.002999067
vt 0.00299811 3.079712
vt 2.455534 3.079711
vt 2.455534 0.004619855
vt 2.98101 0.9995005
vt 2.981011 0.1880879
vt 0.003496498 0.7480625
vt 0.003496552 0.02060704
vt 2.787316 0.02060704
vt 2.787316 0.7480625
vt 6.109148 0.1880879
vt 2.975127 0.1880879
vt 2.975127 0.9995005
vt 6.109148 0.9995005
vt 6.996501 0.1880879
vt 4.024871 0.1880879
vt 4.024871 0.9995004
vt 6.996501 0.9995005
vt 4.135209 0.7480625
vt 4.135209 0.02060699
vt 6.996501 0.02060704
vt 6.996501 0.7480625
vt 4.204511 0.7480625
vt 4.204511 0.02060704
vt 4.516893 0.02060703
vt 4.510429 0.7480625
vt 6.996501 0.02060699
vt 6.996501 0.7480625
vt 5.436965 0.7480625
vt 5.435606 0.02060702
vt 0.003496617 0.7480625
vt 0.003496617 0.02060704
vt 2.720003 0.02060708
vt 2.601112 0.7480625
vt 2.864789 0.02060708
vt 2.864789 0.7480625
vt 2.601112 0.7480625
vt 2.720003 0.02060708
vt 2.981011 0.02060704
vt 2.981011 0.7480625
vt 5.997001 0.0029971
vt 4.657696 0.002997601
vt 3.878256 0.002997892
vt 0.003496826 0.7480625
vt 0.003496581 0.02060708
vt 0.8908504 0.7480625
vt 0.8908501 0.02060708
vt 2.592925 3.079711
vt 2.592925 5.997003
vt 3.444848 5.997002
vt 0.002999067 5.997003
vt 2.455535 5.997003
vt 0.003496581 0.1880879
vt 0.003496289 0.9995004
vt 0.8908501 0.1880879
vt 0.8908497 0.9995004
vt 5.435606 0.02060702
vt 5.436965 0.7480625
vt 4.516893 0.02060703
vt 5.433978 0.9995005
vt 5.435606 0.1880879
vt 4.516893 0.1880879
vt 4.524632 0.9995005
vt 2.592925 0.002998309
vt 3.97492 0.1880879
vt 3.97492 0.9995005
vt 3.974921 0.7480625
vt 3.97492 0.02060704
vt 0.5462942 0.9103183
vt 0.0004995167 1.999001
vt 0.0004994869 0.8939521
vt 0.0004996061 0.006319761
vt 0.9995004 0.0009991527
vt 0.9995004 0.8939524
vt 0.4537058 0.9103186
vt 0.0004994869 0.0009990335
vt 0.6779699 0.004607201
vt 0.6651754 0.673189
vt 0.9995004 1.999001
vt 0.9995004 0.006319642
vt 0.8739859 1.092588
vt 0.9995005 1.092588
vt 0.9995004 1.999001
vt 0.8739859 1.999001
vt 0.8733944 0.0009991527
vt 0.9995005 0.0009990931
vt 0.1144489 1.092588
vt 0.0004995763 1.092588
vt 0.0004996061 0.0009990335
vt 0.1151986 0.0009990335
vt 0.1144489 1.330351
vt 0.0004995465 1.330351
vt 0.1144489 1.999001
vt 0.0004995465 1.999001
vt 6.109149 0.9995005
vt 6.593946 0.1880879
vt 6.109149 0.1880879
vt 6.109149 0.02060704
vt 6.593946 0.02060704
vt 6.699542 0.2103105
vt 6.710906 0.745176
vt 6.109149 0.7480625
vt 6.996503 0.7438061
vt 0.8908515 0.02060704
vt 0.8908515 0.7480625
vt 0.003496826 0.7438061
vt 0.4060537 0.02060704
vt 0.8908515 0.1880879
vt 0.4060537 0.1880879
vt 0.8908515 0.9995005
vt 0.0004994571 0.002920166
vt 1.212061 0.002919987
vt 1.211567 0.9998335
vt 0.0008887053 0.9998336

usemtl sn19_62_sn1921.JPG
usemap sn19_62_sn1921.JPG
f 3/3/3 1/1/1 2/2/2
f 1/1/1 3/3/3 4/4/4
f 18/18/18 17/17/17 2/2/2
f 17/17/17 18/18/18 19/19/19
f 41/41/41 39/39/39 40/40/40
f 41/41/41 42/42/42 39/39/39
f 1/1/1 18/18/18 2/2/2
f 80/80/80 1/1/1 79/79/79
f 81/81/81 1/1/1 80/80/80
f 81/81/81 18/18/18 1/1/1
f 87/87/87 17/17/17 86/86/86
f 17/17/17 87/87/87 88/88/88
f 90/90/90 40/40/40 89/89/89
f 40/40/40 90/90/90 41/41/41
f 17/17/17 102/102/102 86/86/86
f 102/102/102 17/17/17 19/19/19
f 3/3/3 17/17/17 88/88/88
f 17/17/17 3/3/3 2/2/2
f 87/87/87 41/41/41 90/90/90
f 41/41/41 87/87/87 86/86/86
f 41/41/41 102/102/102 42/42/42
f 86/86/86 102/102/102 41/41/41

usemtl sn19_63_sn1924.JPG
usemap sn19_63_sn1924.JPG
f 7/7/7 5/5/5 6/6/6
f 5/5/5 7/7/7 8/8/8
f 11/11/11 9/9/9 10/10/10
f 9/9/9 11/11/11 12/12/12
f 15/15/15 13/13/13 14/14/14
f 13/13/13 15/15/15 16/16/16
f 22/22/22 20/20/20 21/21/21
f 20/20/20 22/22/22 23/23/23
f 26/26/26 24/24/24 25/25/25
f 24/24/24 26/26/26 27/27/27
f 30/30/30 28/28/28 29/29/29
f 28/28/28 30/30/30 31/31/31
f 34/34/34 32/32/32 33/33/33
f 32/32/32 34/34/34 35/35/35
f 38/38/38 36/36/36 37/37/37
f 43/43/43 8/8/8 7/7/7
f 8/8/8 43/43/43 44/44/44
f 47/47/47 45/45/45 46/46/46
f 45/45/45 47/47/47 48/48/48
f 51/51/51 49/49/49 50/50/50
f 49/49/49 51/51/51 52/52/52
f 55/55/55 53/53/53 54/54/54
f 53/53/53 55/55/55 56/56/56
f 59/59/59 57/57/57 58/58/58
f 57/57/57 59/59/59 60/60/60
f 63/63/63 61/61/61 62/62/62
f 61/61/61 63/63/63 64/64/64
f 67/67/67 65/65/65 66/66/66
f 65/65/65 67/67/67 68/68/68
f 71/71/71 69/69/69 70/70/70
f 69/69/69 71/71/71 72/72/72
f 75/75/75 73/73/73 74/74/74
f 73/73/73 75/75/75 76/76/76
f 77/77/77 48/48/48 47/47/47
f 48/48/48 77/77/77 78/78/78
f 83/83/83 9/9/9 82/82/82
f 9/9/9 83/83/83 10/10/10
f 85/85/85 13/13/13 84/84/84
f 13/13/13 85/85/85 14/14/14
f 92/92/92 50/50/50 91/91/91
f 50/50/50 92/92/92 51/51/51
f 94/94/94 54/54/54 93/93/93
f 54/54/54 94/94/94 55/55/55
f 64/64/64 95/95/95 96/96/96
f 95/95/95 64/64/64 97/97/97
f 100/100/100 98/98/98 99/99/99
f 98/98/98 100/100/100 101/101/101
f 104/104/104 23/23/23 103/103/103
f 23/23/23 104/104/104 20/20/20
f 106/106/106 57/57/57 105/105/105
f 57/57/57 106/106/106 58/58/58
f 104/104/104 44/44/44 43/43/43
f 44/44/44 104/104/104 103/103/103
f 106/106/106 78/78/78 77/77/77
f 78/78/78 106/106/106 105/105/105
f 135/135/135 133/133/133 134/134/134
f 138/138/138 136/136/136 137/137/137
f 139/139/139 136/136/136 138/138/138
f 140/140/140 136/136/136 139/139/139
f 139/139/139 138/138/138 141/141/141
f 144/144/144 142/142/142 143/143/143
f 142/142/142 144/144/144 145/145/145
f 148/148/148 146/146/146 147/147/147
f 151/151/151 149/149/149 150/150/150
f 149/149/149 151/151/151 152/152/152

usemtl sn19_64_sn19416.jpg
usemap sn19_64_sn19416.jpg
f 109/109/109 107/107/107 108/108/108
f 112/112/112 110/110/110 111/111/111
f 110/110/110 112/112/112 113/113/113
f 115/115/115 109/109/109 114/114/114
f 116/116/116 109/109/109 115/115/115
f 107/107/107 109/109/109 116/116/116
f 117/117/117 113/113/113 112/112/112
f 115/115/115 118/118/118 116/116/116
f 121/121/121 119/119/119 120/120/120
f 119/119/119 121/121/121 122/122/122
f 120/120/120 123/123/123 124/124/124
f 123/123/123 120/120/120 119/119/119
f 127/127/127 125/125/125 126/126/126
f 125/125/125 127/127/127 128/128/128
f 126/126/126 129/129/129 130/130/130
f 129/129/129 126/126/126 125/125/125
f 130/130/130 131/131/131 132/132/132
f 131/131/131 130/130/130 129/129/129
