mtllib ./Box524.mtl
g Box524
v -0.6873169 32.84894 0.8186035
v -0.6873169 -27.54843 0.8186035
v 0.6865845 32.84894 -0.8188477
v 0.6865845 -27.54843 -0.8188477
v -22.46844 -27.54843 -20.24817
v -23.84235 -27.54843 -18.61084
v -22.46844 32.84894 -20.24817
v -23.84235 32.84894 -18.61084
v 0.6865845 -27.54843 -0.8188477
v -0.6873169 -27.54843 0.8186035
v -22.46844 -27.54843 -20.24817
v -23.84235 -27.54843 -18.61084
v 0.6865845 32.84894 -0.8188477
v -22.46844 32.84894 -20.24817
v -22.46844 -27.54843 -20.24817
v -0.6873169 32.84894 0.8186035
v 0.6865845 32.84894 -0.8188477
v -23.84235 32.84894 -18.61084
v -22.46844 32.84894 -20.24817
v -0.6873169 32.84894 0.8186035
v -23.84235 -27.54843 -18.61084
v -23.84235 32.84894 -18.61084
v 0.8182983 32.84894 60.70203
v 0.8182983 -27.54843 60.70203
v -0.8190918 32.84894 59.328
v -0.8190308 -27.54843 59.328
v -20.24841 -27.54843 82.48303
v -18.61102 -27.54843 83.85693
v -20.24841 32.84892 82.48303
v -18.61102 32.84892 83.85693
v -0.8190308 -27.54843 59.328
v 0.8182983 -27.54843 60.70203
v -20.24841 -27.54843 82.48303
v -18.61102 -27.54843 83.85693
v -0.8190918 32.84894 59.328
v -20.24841 32.84892 82.48303
v -20.24841 -27.54843 82.48303
v 0.8182983 32.84894 60.70203
v -0.8190918 32.84894 59.328
v -18.61102 32.84892 83.85693
v -20.24841 32.84892 82.48303
v 0.8182983 32.84894 60.70203
v -18.61102 -27.54843 83.85693
v -18.61102 32.84892 83.85693
v 0.8182983 131.9656 60.70203
v 0.8182983 71.56821 60.70203
v -0.8190918 131.9656 59.328
v -0.8190308 71.56821 59.328
v -20.24841 71.56821 82.48303
v -18.61102 71.56821 83.85693
v -20.24841 131.9656 82.48303
v -18.61102 131.9656 83.85693
v -0.8190308 71.56821 59.328
v 0.8182983 71.56821 60.70203
v -20.24841 71.56821 82.48303
v -18.61102 71.56821 83.85693
v -0.8190918 131.9656 59.328
v -20.24841 131.9656 82.48303
v -20.24841 71.56821 82.48303
v 0.8182983 131.9656 60.70203
v -0.8190918 131.9656 59.328
v -18.61102 131.9656 83.85693
v -20.24841 131.9656 82.48303
v 0.8182983 131.9656 60.70203
v -18.61102 71.56821 83.85693
v -18.61102 131.9656 83.85693
v -0.9689331 131.9656 0.4515381
v -0.9689941 71.56821 0.4515381
v 0.9682617 131.9656 -0.4517822
v 0.9682007 71.56821 -0.4517822
v -11.80615 71.56821 -27.84656
v -13.74335 71.56821 -26.94324
v -11.80615 131.9656 -27.84656
v -13.74335 131.9656 -26.94324
v 0.9682007 71.56821 -0.4517822
v -0.9689941 71.56821 0.4515381
v -11.80615 71.56821 -27.84656
v -13.74335 71.56821 -26.94324
v 0.9682617 131.9656 -0.4517822
v -11.80615 131.9656 -27.84656
v -11.80615 71.56821 -27.84656
v -0.9689331 131.9656 0.4515381
v 0.9682617 131.9656 -0.4517822
v -13.74335 131.9656 -26.94324
v -11.80615 131.9656 -27.84656
v -0.9689331 131.9656 0.4515381
v -13.74335 71.56821 -26.94324
v -13.74335 131.9656 -26.94324
v 0.875061 233.5111 60.62805
v 0.875061 173.1137 60.62805
v -0.8757935 233.5111 59.40198
v -0.8757935 173.1137 59.40198
v -18.21313 173.1137 84.16235
v -16.46228 173.1137 85.38831
v -18.21313 233.5111 84.16235
v -16.46228 233.5111 85.38831
v -0.8757935 173.1137 59.40198
v 0.875061 173.1137 60.62805
v -18.21313 173.1137 84.16235
v -16.46228 173.1137 85.38831
v -0.8757935 233.5111 59.40198
v -18.21313 233.5111 84.16235
v -18.21313 173.1137 84.16235
v 0.875061 233.5111 60.62805
v -0.8757935 233.5111 59.40198
v -16.46228 233.5111 85.38831
v -18.21313 233.5111 84.16235
v 0.875061 233.5111 60.62805
v -16.46228 173.1137 85.38831
v -16.46228 233.5111 85.38831
v -0.8190308 233.5111 0.6868896
v -0.8190308 173.1137 0.6868896
v 0.8182983 233.5111 -0.6871338
v 0.8182983 173.1137 -0.6871338
v -18.61102 173.1137 -23.84204
v -20.24841 173.1137 -22.46814
v -18.61102 233.5111 -23.84204
v -20.24841 233.5111 -22.46814
v 0.8182983 173.1137 -0.6871338
v -0.8190308 173.1137 0.6868896
v -18.61102 173.1137 -23.84204
v -20.24841 173.1137 -22.46814
v 0.8182983 233.5111 -0.6871338
v -18.61102 233.5111 -23.84204
v -18.61102 173.1137 -23.84204
v -0.8190308 233.5111 0.6868896
v 0.8182983 233.5111 -0.6871338
v -20.24841 233.5111 -22.46814
v -18.61102 233.5111 -23.84204
v -0.8190308 233.5111 0.6868896
v -20.24841 173.1137 -22.46814
v -20.24841 233.5111 -22.46814
v 0.3651733 332.4821 61.01929
v 0.3651733 272.0847 61.01929
v -0.3659058 332.4821 59.01074
v -0.3659058 272.0847 59.01074
v -28.76971 272.0847 69.34888
v -28.0387 272.0847 71.35742
v -28.76971 332.4821 69.34888
v -28.0387 332.4821 71.35742
v -0.3659058 272.0847 59.01074
v 0.3651733 272.0847 61.01929
v -28.76971 272.0847 69.34888
v -28.0387 272.0847 71.35742
v -0.3659058 332.4821 59.01074
v -28.76971 332.4821 69.34888
v -28.76971 272.0847 69.34888
v 0.3651733 332.4821 61.01929
v -0.3659058 332.4821 59.01074
v -28.0387 332.4821 71.35742
v -28.76971 332.4821 69.34888
v 0.3651733 332.4821 61.01929
v -28.0387 272.0847 71.35742
v -28.0387 332.4821 71.35742
v -1.004639 332.4821 0.3653564
v -1.004639 272.0847 0.3653564
v 1.003906 332.4821 -0.3656006
v 1.003906 272.0847 -0.3656006
v -9.334229 272.0847 -28.76953
v -11.34277 272.0847 -28.03845
v -9.334229 332.4821 -28.76941
v -11.34277 332.4821 -28.03845
v 1.003906 272.0847 -0.3656006
v -1.004639 272.0847 0.3653564
v -9.334229 272.0847 -28.76953
v -11.34277 272.0847 -28.03845
v 1.003906 332.4821 -0.3656006
v -9.334229 332.4821 -28.76941
v -9.334229 272.0847 -28.76953
v -1.004639 332.4821 0.3653564
v 1.003906 332.4821 -0.3656006
v -11.34277 332.4821 -28.03845
v -9.334229 332.4821 -28.76941
v -1.004639 332.4821 0.3653564
v -11.34277 272.0847 -28.03845
v -11.34277 332.4821 -28.03845
v 0.875061 434.4353 60.62805
v 0.875061 374.038 60.62805
v -0.8757935 434.4353 59.40198
v -0.8757935 374.038 59.40198
v -18.21313 374.038 84.16235
v -16.46228 374.038 85.38831
v -18.21313 434.4353 84.16235
v -16.46228 434.4353 85.38831
v -0.8757935 374.038 59.40198
v 0.875061 374.038 60.62805
v -18.21313 374.038 84.16235
v -16.46228 374.038 85.38831
v -0.8757935 434.4353 59.40198
v -18.21313 434.4353 84.16235
v -18.21313 374.038 84.16235
v 0.875061 434.4353 60.62805
v -0.8757935 434.4353 59.40198
v -16.46228 434.4353 85.38831
v -18.21313 434.4353 84.16235
v 0.875061 434.4353 60.62805
v -16.46228 374.038 85.38831
v -16.46228 434.4353 85.38831
v -0.6873169 434.4353 0.8186035
v -0.6873169 374.038 0.8186035
v 0.6865845 434.4353 -0.8188477
v 0.6865845 374.038 -0.8188477
v -22.46844 374.038 -20.24817
v -23.84235 374.038 -18.61084
v -22.46844 434.4353 -20.24817
v -23.84235 434.4353 -18.61084
v 0.6865845 374.038 -0.8188477
v -0.6873169 374.038 0.8186035
v -22.46844 374.038 -20.24817
v -23.84235 374.038 -18.61084
v 0.6865845 434.4353 -0.8188477
v -22.46844 434.4353 -20.24817
v -22.46844 374.038 -20.24817
v -0.6873169 434.4353 0.8186035
v 0.6865845 434.4353 -0.8188477
v -23.84235 434.4353 -18.61084
v -22.46844 434.4353 -20.24817
v -0.6873169 434.4353 0.8186035
v -23.84235 374.038 -18.61084
v -23.84235 434.4353 -18.61084

vn 0.7660636 0 0.6427647
vn -0.5291806 0 0.8485091
vn 0.7660636 0 0.6427647
vn 0.6694537 0 -0.7428538
vn -0.76604 0 -0.6427928
vn -0.76604 0 -0.6427928
vn -0.76604 0 -0.6427928
vn -0.76604 0 -0.6427928
vn 0 -1 0
vn 0 -1 0
vn 0 -1 0
vn 0 -1 0
vn 0.6427866 0 -0.7660453
vn 0.6427866 0 -0.7660453
vn 0.6427866 0 -0.7660453
vn 0 1 0
vn 0 1 0
vn 0 1 0
vn 0 1 0
vn -0.6427889 0 0.7660433
vn -0.6427889 0 0.7660433
vn -0.6427889 0 0.7660433
vn 0.6428123 0 -0.7660237
vn 0.8485094 4.548451E-08 0.5291802
vn 0.6428193 3.248037E-07 -0.7660178
vn -0.7428534 -3.638718E-07 -0.6694542
vn -0.6427788 0 0.7660518
vn -0.6427788 0 0.7660518
vn -0.6427788 0 0.7660518
vn -0.6427788 0 0.7660518
vn 0 -1 0
vn 0 -1 0
vn 0 -1 0
vn 0 -1 0
vn -0.7660453 -7.741347E-07 -0.6427866
vn -0.7660449 -3.870671E-07 -0.6427872
vn -0.7660444 0 -0.6427878
vn -3.245001E-07 1 3.866988E-07
vn -3.244911E-07 1 3.867053E-07
vn -3.244911E-07 1 3.867053E-07
vn -3.244821E-07 1 3.867117E-07
vn 0.7660437 0 0.6427885
vn 0.7660437 0 0.6427885
vn 0.7660437 0 0.6427885
vn 0.6428123 0 -0.7660237
vn 0.8485094 4.548451E-08 0.5291802
vn 0.6428193 3.248037E-07 -0.7660178
vn -0.7428534 -3.638718E-07 -0.6694542
vn -0.6427788 0 0.7660518
vn -0.6427788 0 0.7660518
vn -0.6427788 0 0.7660518
vn -0.6427788 0 0.7660518
vn 0 -1 0
vn 0 -1 0
vn 0 -1 0
vn 0 -1 0
vn -0.7660453 -7.741347E-07 -0.6427866
vn -0.7660448 -3.870671E-07 -0.6427871
vn -0.7660444 0 -0.6427878
vn 0 1 0
vn 0 1 0
vn 0 1 0
vn 0 1 0
vn 0.7660437 0 0.6427885
vn 0.7660437 0 0.6427885
vn 0.7660437 0 0.6427885
vn 0.422615 -4.270777E-07 0.9063092
vn -0.8381972 8.470485E-07 0.5453672
vn 0.422615 -4.270777E-07 0.9063092
vn 0.9206751 -4.72744E-07 -0.3903298
vn -0.422615 0 -0.9063092
vn -0.422615 0 -0.9063092
vn -0.422615 0 -0.9063092
vn -0.422615 0 -0.9063092
vn 0 -1 0
vn 0 -1 0
vn 0 -1 0
vn 0 -1 0
vn 0.9063075 -9.158779E-07 -0.4226188
vn 0.9063079 -4.579392E-07 -0.422618
vn 0.9063084 0 -0.4226172
vn 0 1 0
vn 0 1 0
vn 0 1 0
vn 0 1 0
vn -0.9063079 4.579392E-07 0.422618
vn -0.9063079 4.579392E-07 0.422618
vn -0.9063075 0 0.4226188
vn 0.5736118 0 -0.8191273
vn 0.8914008 0 0.4532159
vn 0.5736118 0 -0.8191273
vn -0.7983742 0 -0.6021617
vn -0.5735735 0 0.8191542
vn -0.5735735 0 0.8191542
vn -0.5735735 0 0.8191542
vn -0.5735735 0 0.8191542
vn 0 -1 0
vn 0 -1 0
vn 0 -1 0
vn 0 -1 0
vn -0.819153 0 -0.5735751
vn -0.819153 0 -0.5735751
vn -0.819153 0 -0.5735751
vn 0 1 0
vn 0 1 0
vn 0 1 0
vn 0 1 0
vn 0.8191518 0 0.573577
vn 0.8191518 0 0.573577
vn 0.8191518 0 0.573577
vn 0.6428263 0 0.7660118
vn -0.6684822 0 0.7437282
vn 0.6428263 0 0.7660118
vn 0.7882784 0 -0.6153187
vn -0.6427788 0 -0.7660518
vn -0.6427788 0 -0.7660518
vn -0.6427788 0 -0.7660518
vn -0.6427788 0 -0.7660518
vn 0 -1 0
vn 0 -1 0
vn 0 -1 0
vn 0 -1 0
vn 0.7660437 0 -0.6427885
vn 0.7660437 0 -0.6427885
vn 0.7660437 0 -0.6427885
vn 0 1 0
vn 0 1 0
vn 0 1 0
vn 0 1 0
vn -0.7660444 0 0.6427878
vn -0.7660444 0 0.6427878
vn -0.7660444 0 0.6427878
vn 0.9396883 0 -0.3420319
vn 0.4702391 0 0.8825391
vn 0.9396883 0 -0.3420319
vn -0.3086023 0 -0.9511912
vn -0.9396976 0 0.3420067
vn -0.9396976 0 0.3420067
vn -0.9396976 0 0.3420067
vn -0.9396976 0 0.3420067
vn 0 -1 0
vn 0 -1 0
vn 0 -1 0
vn 0 -1 0
vn -0.34202 0 -0.9396927
vn -0.34202 0 -0.9396927
vn -0.34202 0 -0.9396927
vn 0 1 0
vn 0 1 0
vn 0 1 0
vn 0 1 0
vn 0.3420193 0 0.939693
vn 0.3420193 0 0.939693
vn 0.3420193 0 0.939693
vn 0.3419815 0 0.9397067
vn -0.8825404 0 0.4702366
vn 0.3419815 0 0.9397067
vn 0.9511912 3.454157E-07 -0.3086023
vn -0.3420319 1.899223E-06 -0.9396883
vn -0.3420067 9.496206E-07 -0.9396976
vn -0.3420067 9.496206E-07 -0.9396976
vn -0.3419815 0 -0.9397067
vn 0 -1 0
vn 0 -1 0
vn 0 -1 0
vn 0 -1 0
vn 0.9396927 0 -0.34202
vn 0.939693 3.45631E-07 -0.3420193
vn 0.9396931 6.912606E-07 -0.3420186
vn 0 1 0
vn 0 1 0
vn 0 1 0
vn 0 1 0
vn -0.9396927 0 0.34202
vn -0.9396927 0 0.34202
vn -0.9396927 0 0.34202
vn 0.5736118 0 -0.8191272
vn 0.8914008 0 0.4532159
vn 0.5736118 0 -0.8191272
vn -0.7983742 0 -0.6021618
vn -0.5735735 0 0.8191541
vn -0.5735735 0 0.8191541
vn -0.5735735 0 0.8191541
vn -0.5735735 0 0.8191541
vn 0 -1 0
vn 0 -1 0
vn 0 -1 0
vn 0 -1 0
vn -0.819153 0 -0.5735751
vn -0.819153 0 -0.5735751
vn -0.819153 0 -0.5735751
vn 0 1 0
vn 0 1 0
vn 0 1 0
vn 0 1 0
vn 0.8191516 0 0.5735769
vn 0.8191516 0 0.5735769
vn 0.8191516 0 0.5735769
vn 0.7660636 0 0.6427647
vn -0.5291806 0 0.8485092
vn 0.7660636 0 0.6427647
vn 0.6694537 0 -0.7428538
vn -0.7660401 0 -0.6427929
vn -0.7660401 0 -0.6427929
vn -0.7660401 0 -0.6427929
vn -0.7660401 0 -0.6427929
vn 0 -1 0
vn 0 -1 0
vn 0 -1 0
vn 0 -1 0
vn 0.6427865 0 -0.7660453
vn 0.6427865 0 -0.7660453
vn 0.6427865 0 -0.7660453
vn 0 1 0
vn 0 1 0
vn 0 1 0
vn 0 1 0
vn -0.6427889 0 0.7660434
vn -0.6427889 0 0.7660434
vn -0.6427889 0 0.7660434

vt 0.0004984299 0.5804371
vt 0.346166 0.5804436
vt 0.0004983545 0.01688901
vt 0.346166 0.01689555
vt 0.3336841 0.02353153
vt 0.2999554 0.01734915
vt 0.3368068 0.5512563
vt 0.3030781 0.5450739
vt 0.3336839 0.02353153
vt 0.2999552 0.01734903
vt 0.3368001 0.5512564
vt 0.3030714 0.5450739
vt 0.3461661 0.5804436
vt 0.0004983703 0.5804437
vt 0.0004982949 0.01688872
vt 0.3336841 0.02353153
vt 0.2999555 0.01734903
vt 0.3367999 0.5512564
vt 0.3030712 0.5450739
vt 0.346166 0.01688864
vt 0.0004983703 0.5804437
vt 0.0004982949 0.01688872
vt 0.0004984299 0.5804371
vt 0.3679051 0.5804436
vt 0.0004983545 0.01688901
vt 0.3679051 0.01689555
vt 0.3360996 0.03560882
vt 0.3023709 0.02942645
vt 0.3392223 0.5633336
vt 0.3054936 0.5643976
vt 0.3360993 0.03560882
vt 0.3023707 0.02942633
vt 0.3392156 0.5633336
vt 0.3054869 0.5643976
vt 0.3679052 0.5804436
vt 0.0004983703 0.5804437
vt 0.0004982949 0.01688872
vt 0.3360996 0.03560882
vt 0.302371 0.02942633
vt 0.3392153 0.5633336
vt 0.3054867 0.5643976
vt 0.3679051 0.01688864
vt 0.0004983703 0.5804437
vt 0.0004982949 0.01688872
vt 0.0004984299 0.5804371
vt 0.3679051 0.5804436
vt 0.0004983545 0.01688901
vt 0.3679051 0.01689555
vt 0.3360996 0.03560882
vt 0.3023709 0.02942645
vt 0.3392223 0.5633336
vt 0.3054936 0.5643976
vt 0.3360993 0.03560882
vt 0.3023707 0.02942633
vt 0.3392156 0.5633336
vt 0.3054869 0.5643976
vt 0.3679052 0.5804436
vt 0.0004983703 0.5804437
vt 0.0004982949 0.01688872
vt 0.3360996 0.03560882
vt 0.302371 0.02942633
vt 0.3392153 0.5633336
vt 0.3054867 0.5643976
vt 0.3679051 0.01688864
vt 0.0004983703 0.5804437
vt 0.0004982949 0.01688872
vt 0.0004984299 0.5804371
vt 0.346166 0.5804436
vt 0.0004983545 0.01688901
vt 0.346166 0.01689555
vt 0.3336841 0.02353153
vt 0.2999554 0.01734915
vt 0.3368068 0.5512563
vt 0.3030781 0.5450739
vt 0.3336839 0.02353153
vt 0.2999552 0.01734903
vt 0.3368001 0.5512564
vt 0.3030714 0.5450739
vt 0.3461661 0.5804436
vt 0.0004983703 0.5804437
vt 0.0004982949 0.01688872
vt 0.3336841 0.02353153
vt 0.2999555 0.01734903
vt 0.3367999 0.5512564
vt 0.3030712 0.5450739
vt 0.346166 0.01688864
vt 0.0004983703 0.5804437
vt 0.0004982949 0.01688872
vt 0.0004984299 0.5804371
vt 0.3679051 0.5804436
vt 0.0004983545 0.01688901
vt 0.3679051 0.01689555
vt 0.3360996 0.03560882
vt 0.3023709 0.02942645
vt 0.3392223 0.5633336
vt 0.3054936 0.5643976
vt 0.3360993 0.03560882
vt 0.3023707 0.02942633
vt 0.3392156 0.5633336
vt 0.3054869 0.5643976
vt 0.3679052 0.5804436
vt 0.0004983703 0.5804437
vt 0.0004982949 0.01688872
vt 0.3360996 0.03560882
vt 0.302371 0.02942633
vt 0.3392153 0.5633336
vt 0.3054867 0.5643976
vt 0.3679051 0.01688864
vt 0.0004983703 0.5804437
vt 0.0004982949 0.01688872
vt 0.0004984299 0.5804371
vt 0.346166 0.5804436
vt 0.0004983545 0.01688901
vt 0.346166 0.01689555
vt 0.3336841 0.02353153
vt 0.2999554 0.01734915
vt 0.3368068 0.5512563
vt 0.3030781 0.5450739
vt 0.3336839 0.02353153
vt 0.2999552 0.01734903
vt 0.3368001 0.5512564
vt 0.3030714 0.5450739
vt 0.3461661 0.5804436
vt 0.0004983703 0.5804437
vt 0.0004982949 0.01688872
vt 0.3336841 0.02353153
vt 0.2999555 0.01734903
vt 0.3367999 0.5512564
vt 0.3030712 0.5450739
vt 0.346166 0.01688864
vt 0.0004983703 0.5804437
vt 0.0004982949 0.01688872
vt 0.0004984299 0.5804371
vt 0.3679051 0.5804436
vt 0.0004983545 0.01688901
vt 0.3679051 0.01689555
vt 0.3360996 0.03560882
vt 0.3023709 0.02942645
vt 0.3392223 0.5633336
vt 0.3054936 0.5643976
vt 0.3360993 0.03560882
vt 0.3023707 0.02942633
vt 0.3392156 0.5633336
vt 0.3054869 0.5643976
vt 0.3679052 0.5804436
vt 0.0004983703 0.5804437
vt 0.0004982949 0.01688872
vt 0.3360996 0.03560882
vt 0.302371 0.02942633
vt 0.3392153 0.5633336
vt 0.3054867 0.5643976
vt 0.3679051 0.01688864
vt 0.0004983703 0.5804437
vt 0.0004982949 0.01688872
vt 0.0004984299 0.5804371
vt 0.346166 0.5804436
vt 0.0004983545 0.01688901
vt 0.346166 0.01689555
vt 0.3336841 0.02353153
vt 0.2999554 0.01734915
vt 0.3368068 0.5512563
vt 0.3030781 0.5450739
vt 0.3336839 0.02353153
vt 0.2999552 0.01734903
vt 0.3368001 0.5512564
vt 0.3030714 0.5450739
vt 0.3461661 0.5804436
vt 0.0004983703 0.5804437
vt 0.0004982949 0.01688872
vt 0.3336841 0.02353153
vt 0.2999555 0.01734903
vt 0.3367999 0.5512564
vt 0.3030712 0.5450739
vt 0.346166 0.01688864
vt 0.0004983703 0.5804437
vt 0.0004982949 0.01688872
vt 0.0004984299 0.5804371
vt 0.3679051 0.5804436
vt 0.0004983545 0.01688901
vt 0.3679051 0.01689555
vt 0.3360996 0.03560882
vt 0.3023709 0.02942645
vt 0.3392223 0.5633336
vt 0.3054936 0.5643976
vt 0.3360993 0.03560882
vt 0.3023707 0.02942633
vt 0.3392156 0.5633336
vt 0.3054869 0.5643976
vt 0.3679052 0.5804436
vt 0.0004983703 0.5804437
vt 0.0004982949 0.01688872
vt 0.3360996 0.03560882
vt 0.302371 0.02942633
vt 0.3392153 0.5633336
vt 0.3054867 0.5643976
vt 0.3679051 0.01688864
vt 0.0004983703 0.5804437
vt 0.0004982949 0.01688872
vt 0.0004984299 0.5804371
vt 0.346166 0.5804436
vt 0.0004983545 0.01688901
vt 0.346166 0.01689555
vt 0.3336841 0.02353153
vt 0.2999554 0.01734915
vt 0.3368068 0.5512563
vt 0.3030781 0.5450739
vt 0.3336839 0.02353153
vt 0.2999552 0.01734903
vt 0.3368001 0.5512564
vt 0.3030714 0.5450739
vt 0.3461661 0.5804436
vt 0.0004983703 0.5804437
vt 0.0004982949 0.01688872
vt 0.3336841 0.02353153
vt 0.2999555 0.01734903
vt 0.3367999 0.5512564
vt 0.3030712 0.5450739
vt 0.346166 0.01688864
vt 0.0004983703 0.5804437
vt 0.0004982949 0.01688872

usemtl sn19_45_Asn1916.JPG
usemap sn19_45_Asn1916.JPG
f 3/3/3 1/1/1 2/2/2
f 2/2/2 4/4/4 3/3/3
f 7/7/7 5/5/5 6/6/6
f 6/6/6 8/8/8 7/7/7
f 11/11/11 9/9/9 10/10/10
f 10/10/10 12/12/12 11/11/11
f 14/14/14 13/13/13 4/4/4
f 4/4/4 15/15/15 14/14/14
f 18/18/18 16/16/16 17/17/17
f 17/17/17 19/19/19 18/18/18
f 21/21/21 2/2/2 20/20/20
f 20/20/20 22/22/22 21/21/21
f 25/25/25 23/23/23 24/24/24
f 24/24/24 26/26/26 25/25/25
f 29/29/29 27/27/27 28/28/28
f 28/28/28 30/30/30 29/29/29
f 33/33/33 31/31/31 32/32/32
f 32/32/32 34/34/34 33/33/33
f 36/36/36 35/35/35 26/26/26
f 26/26/26 37/37/37 36/36/36
f 40/40/40 38/38/38 39/39/39
f 39/39/39 41/41/41 40/40/40
f 43/43/43 24/24/24 42/42/42
f 42/42/42 44/44/44 43/43/43
f 47/47/47 45/45/45 46/46/46
f 46/46/46 48/48/48 47/47/47
f 51/51/51 49/49/49 50/50/50
f 50/50/50 52/52/52 51/51/51
f 55/55/55 53/53/53 54/54/54
f 54/54/54 56/56/56 55/55/55
f 58/58/58 57/57/57 48/48/48
f 48/48/48 59/59/59 58/58/58
f 62/62/62 60/60/60 61/61/61
f 61/61/61 63/63/63 62/62/62
f 65/65/65 46/46/46 64/64/64
f 64/64/64 66/66/66 65/65/65
f 69/69/69 67/67/67 68/68/68
f 68/68/68 70/70/70 69/69/69
f 73/73/73 71/71/71 72/72/72
f 72/72/72 74/74/74 73/73/73
f 77/77/77 75/75/75 76/76/76
f 76/76/76 78/78/78 77/77/77
f 80/80/80 79/79/79 70/70/70
f 70/70/70 81/81/81 80/80/80
f 84/84/84 82/82/82 83/83/83
f 83/83/83 85/85/85 84/84/84
f 87/87/87 68/68/68 86/86/86
f 86/86/86 88/88/88 87/87/87
f 91/91/91 89/89/89 90/90/90
f 90/90/90 92/92/92 91/91/91
f 95/95/95 93/93/93 94/94/94
f 94/94/94 96/96/96 95/95/95
f 99/99/99 97/97/97 98/98/98
f 98/98/98 100/100/100 99/99/99
f 102/102/102 101/101/101 92/92/92
f 92/92/92 103/103/103 102/102/102
f 106/106/106 104/104/104 105/105/105
f 105/105/105 107/107/107 106/106/106
f 109/109/109 90/90/90 108/108/108
f 108/108/108 110/110/110 109/109/109
f 113/113/113 111/111/111 112/112/112
f 112/112/112 114/114/114 113/113/113
f 117/117/117 115/115/115 116/116/116
f 116/116/116 118/118/118 117/117/117
f 121/121/121 119/119/119 120/120/120
f 120/120/120 122/122/122 121/121/121
f 124/124/124 123/123/123 114/114/114
f 114/114/114 125/125/125 124/124/124
f 128/128/128 126/126/126 127/127/127
f 127/127/127 129/129/129 128/128/128
f 131/131/131 112/112/112 130/130/130
f 130/130/130 132/132/132 131/131/131
f 135/135/135 133/133/133 134/134/134
f 134/134/134 136/136/136 135/135/135
f 139/139/139 137/137/137 138/138/138
f 138/138/138 140/140/140 139/139/139
f 143/143/143 141/141/141 142/142/142
f 142/142/142 144/144/144 143/143/143
f 146/146/146 145/145/145 136/136/136
f 136/136/136 147/147/147 146/146/146
f 150/150/150 148/148/148 149/149/149
f 149/149/149 151/151/151 150/150/150
f 153/153/153 134/134/134 152/152/152
f 152/152/152 154/154/154 153/153/153
f 157/157/157 155/155/155 156/156/156
f 156/156/156 158/158/158 157/157/157
f 161/161/161 159/159/159 160/160/160
f 160/160/160 162/162/162 161/161/161
f 165/165/165 163/163/163 164/164/164
f 164/164/164 166/166/166 165/165/165
f 168/168/168 167/167/167 158/158/158
f 158/158/158 169/169/169 168/168/168
f 172/172/172 170/170/170 171/171/171
f 171/171/171 173/173/173 172/172/172
f 175/175/175 156/156/156 174/174/174
f 174/174/174 176/176/176 175/175/175
f 179/179/179 177/177/177 178/178/178
f 178/178/178 180/180/180 179/179/179
f 183/183/183 181/181/181 182/182/182
f 182/182/182 184/184/184 183/183/183
f 187/187/187 185/185/185 186/186/186
f 186/186/186 188/188/188 187/187/187
f 190/190/190 189/189/189 180/180/180
f 180/180/180 191/191/191 190/190/190
f 194/194/194 192/192/192 193/193/193
f 193/193/193 195/195/195 194/194/194
f 197/197/197 178/178/178 196/196/196
f 196/196/196 198/198/198 197/197/197
f 201/201/201 199/199/199 200/200/200
f 200/200/200 202/202/202 201/201/201
f 205/205/205 203/203/203 204/204/204
f 204/204/204 206/206/206 205/205/205
f 209/209/209 207/207/207 208/208/208
f 208/208/208 210/210/210 209/209/209
f 212/212/212 211/211/211 202/202/202
f 202/202/202 213/213/213 212/212/212
f 216/216/216 214/214/214 215/215/215
f 215/215/215 217/217/217 216/216/216
f 219/219/219 200/200/200 218/218/218
f 218/218/218 220/220/220 219/219/219
