mtllib ./Box69.mtl
g Box69
v 150 205.0806 -150.0004
v 150 140.1611 -150.0004
v 0 140.1611 -150.0004
v -150 140.1611 -150.0004
v -150 205.0806 -150.0004
v 0 205.0806 -150.0004
v -150 140.1611 -0.0002441406
v -150 140.1611 -150.0004
v -150 0 -150.0004
v -150 0 -0.0002441406
v -150 140.1611 149.9996
v -150 140.1611 -0.0002441406
v -150 0 -0.0002441406
v -150 70.08057 149.9996
v 0 0 -150.0004
v -150 0 -150.0004
v -150 140.1611 -150.0004
v 0 140.1611 -150.0004
v -150 270 -0.0003662109
v -150 205.0806 -150.0004
v -150 140.1611 -150.0004
v -150 140.1611 -0.0002441406
v -150 270 149.9996
v -150 140.1611 149.9996
v -150 205.0806 149.9996
v -150 0 149.9996
v 150 205.0806 149.9996
v 150 270 149.9996
v 0 270 149.9996
v -150 270 149.9996
v -150 205.0806 149.9996
v 0 205.0806 149.9996
v 0 270 149.9996
v 0 205.0806 149.9996
v -150 270 -150.0004
v 0 270 -150.0004
v -150 270 -150.0004
v 150 270 -150.0004
v 75 205.0806 -150.0004
v 75 270 -150.0004
v 0 140.1611 -150.0004
v 37.5 205.0806 -150.0004
v 0 140.1611 -150.0004
v 150 140.1611 -150.0004
v 150 0 -150.0004
v 0 0 -150.0004
v 75 270 -150.0004
v 37.5 205.0806 -150.0004
v 75 205.0806 -150.0004

vn 0 0 -1
vn 0 0 -1
vn 0 0 -1
vn 0 0 -1
vn 0 0 -1
vn 0 0 -1
vn -1 0 0
vn -1 0 0
vn -1 0 0
vn -1 0 0
vn -1 0 0
vn -1 0 0
vn -1 0 0
vn -1 0 0
vn 0 0 -1
vn 0 0 -1
vn 0 0 -1
vn 0 0 -1
vn -1 0 0
vn -1 0 0
vn -0.9999999 0 0
vn -1 0 0
vn -1 0 0
vn -1 0 0
vn -1 0 0
vn -1 0 0
vn 0 0 1
vn 0 0 1
vn 0 0 1
vn 0 0 1
vn 0 0 1
vn 0 0 1
vn 0 0 1
vn 0 0 1
vn 0 0 -1
vn 0 0 -1
vn -1 0 0
vn 0 0 -1
vn 0 0 -1
vn 0 0 -1
vn 0 0 -1
vn 0 0 -1
vn 0 0 -1
vn 0 0 -1
vn 0 0 -1
vn 0 0 -1
vn 0 0 -1
vn 0 0 -1
vn 0 0 -1

vt 0.2887344 0.5306763
vt 0.2887344 0.0004995465
vt 1 0.0004995465
vt 1.711266 0.0004995465
vt 1.711266 0.5306763
vt 1 0.5306763
vt 0.9999996 0.9998494
vt 1.999001 0.9998494
vt 1.999001 0.0009989738
vt 0.9999995 0.0009990931
vt 0.0009990931 0.9998496
vt 0.9999996 0.9998494
vt 0.9999995 0.0009990931
vt 0.0009990931 0.5195959
vt 1 0.0004995167
vt 1.999001 0.0004995167
vt 1.999001 1.000156
vt 1 1.000156
vt 0.9999996 1.999001
vt 1.691063 1.518597
vt 1.691063 1.038192
vt 0.9999996 1.038192
vt 0.3089368 1.999001
vt 0.3089368 1.038193
vt 0.3089368 1.518597
vt 0.0009990931 0.0009991527
vt 0.0009990335 0.5
vt 0.0009990335 0.9995005
vt 1 0.9995005
vt 1.999001 0.9995005
vt 1.999001 0.5
vt 1 0.5
vt 1 0.9995005
vt 1 0.5
vt 1.711266 0.9995005
vt 1 0.9995005
vt 1.691063 1.999001
vt 0.2887344 0.9995005
vt 0.6443672 0.5306763
vt 0.6443672 0.9995005
vt 1 0.0004995465
vt 0.8221836 0.5306763
vt 1 1.000156
vt 0.0009990335 1.000156
vt 0.0009990335 0.0004995167
vt 1 0.0004995167
vt 0.6443672 0.9995005
vt 0.8221836 0.5306763
vt 0.6443672 0.5306763

usemtl sn19_12_sn19316.JPG
usemap sn19_12_sn19316.JPG
f 3/3/3 1/1/1 2/2/2
f 6/6/6 4/4/4 5/5/5
f 21/21/21 19/19/19 20/20/20
f 19/19/19 21/21/21 22/22/22
f 22/22/22 23/23/23 19/19/19
f 25/25/25 22/22/22 24/24/24
f 29/29/29 27/27/27 28/28/28
f 23/23/23 22/22/22 25/25/25
f 27/27/27 29/29/29 34/34/34
f 36/36/36 5/5/5 35/35/35
f 20/20/20 19/19/19 37/37/37
f 39/39/39 38/38/38 1/1/1
f 6/6/6 5/5/5 36/36/36
f 40/40/40 6/6/6 36/36/36
f 41/41/41 4/4/4 6/6/6
f 42/42/42 41/41/41 6/6/6
f 42/42/42 6/6/6 40/40/40
f 38/38/38 39/39/39 47/47/47
f 1/1/1 3/3/3 39/39/39
f 39/39/39 3/3/3 48/48/48
f 49/49/49 42/42/42 40/40/40

usemtl sn19_10_sn19313.JPG
usemap sn19_10_sn19313.JPG
f 9/9/9 7/7/7 8/8/8
f 7/7/7 9/9/9 10/10/10
f 17/17/17 15/15/15 16/16/16
f 15/15/15 17/17/17 18/18/18

usemtl sn19_11_sn19314.JPG
usemap sn19_11_sn19314.JPG
f 13/13/13 11/11/11 12/12/12
f 11/11/11 13/13/13 14/14/14
f 14/14/14 13/13/13 26/26/26
f 45/45/45 43/43/43 44/44/44
f 43/43/43 45/45/45 46/46/46

usemtl sn19_09_sn19315.JPG
usemap sn19_09_sn19315.JPG
f 32/32/32 30/30/30 31/31/31
f 33/33/33 30/30/30 32/32/32
