mtllib ./ggg.mtl
g ggg
v 49.99994 0.0001678467 -53.91809
v 49.99994 0.0001678467 50.26239
v -50.00006 0.0001678467 49.95233
v -50.00006 70.00017 50.26239
v -50.00006 70.00017 -53.88318
v -50.00006 0.0001678467 -53.99646
v 49.99994 0.0001678467 50.26239
v 49.99994 0.0001678467 -53.91809
v 49.99994 70.00017 -53.99646
v 49.99994 70.00017 -38.70697
v 49.99994 70.00017 50.26239
v 49.99994 0.0001678467 50.26239
v 49.99994 70.00017 -38.70697
v -50.00006 0.0001678467 -53.99646
v -50.00006 0.0001678467 49.95233

vn 0 -1 0
vn 0 -1 0
vn 0 -1 0
vn -1 0 0
vn -0.9999999 0 0
vn -1 0 0
vn 1 0 0
vn 1 0 0
vn 1 0 0
vn 1 0 0
vn 1 0 0
vn 1 0 0
vn 1 0 0
vn 0 -1 0
vn -1 0 0

vt 0.0004995465 0.9973114
vt 0.0004997849 0.5937034
vt 0.9995003 0.5967568
vt 0.2674198 0.5770364
vt 0.7362198 0.5770364
vt 0.7364208 0.0004994571
vt 0.2674198 0.0004998744
vt 0.7362198 0.0004998296
vt 0.7364208 0.5770367
vt 0.6710024 0.5770367
vt 0.2674198 0.5770367
vt 0.2674198 0.0004998744
vt 0.6710024 0.5770367
vt 0.9995002 0.9973111
vt 0.2676208 0.0004995018

usemtl sn19_08_sn19320.JPG
usemap sn19_08_sn19320.JPG
f 3/3/3 1/1/1 2/2/2
f 1/1/1 3/3/3 14/14/14

usemtl sn19_12_sn19316.JPG
usemap sn19_12_sn19316.JPG
f 6/6/6 4/4/4 5/5/5
f 9/9/9 7/7/7 8/8/8
f 12/12/12 10/10/10 11/11/11
f 7/7/7 9/9/9 13/13/13
f 4/4/4 6/6/6 15/15/15
