mtllib ./gggg.mtl
g gggg
v -250.0001 130.1171 149.9998
v 5.072388 130.1171 149.9998
v -250.0001 210 149.9998
v 5.072388 210 149.9998
v 279.4088 210 149.9998
v 5.072388 210 149.9998
v 279.4088 130.1172 149.9998
v 5.072388 130.1171 149.9998
v -250.0001 0 149.9998
v 5.072388 0 149.9998
v -250.0001 130.1171 149.9998
v 5.072388 130.1171 149.9998
v 5.072388 0 149.9998
v 279.4088 0 149.9998
v 5.072388 130.1171 149.9998
v 279.4088 130.1172 149.9998

vn 0 0 1
vn 0 0 1
vn 0 0 1
vn 0 0 1
vn 0 0 1
vn 0 0 1
vn 0 0 1
vn 0 0 1
vn 0 0 1
vn 0 0 1
vn 0 0 1
vn 0 0 1
vn 0 0 1
vn 0 0 1
vn 0 0 1
vn 0 0 1

vt 1.992525 0.5395625
vt 1.004319 0.5395626
vt 1.992525 0.9995005
vt 1.004319 0.9995005
vt 1.004319 0.9995005
vt 0.003160171 0.9995005
vt 1.004319 0.5395626
vt 0.003160171 0.5395625
vt 0.005014297 0.0004995465
vt 0.9910628 0.0004995465
vt 0.005014297 1.00134
vt 0.9910628 1.00134
vt 1 0.0004995465
vt 1.999001 0.0004995465
vt 1 1.00134
vt 1.999001 1.00134

usemtl sn19_04_sn19301.jpg
usemap sn19_04_sn19301.jpg
f 3/3/3 1/1/1 2/2/2
f 2/2/2 4/4/4 3/3/3
f 11/11/11 9/9/9 10/10/10
f 10/10/10 12/12/12 11/11/11

usemtl sn19_03_sn19302.jpg
usemap sn19_03_sn19302.jpg
f 7/7/7 5/5/5 6/6/6
f 6/6/6 8/8/8 7/7/7
f 15/15/15 13/13/13 14/14/14
f 14/14/14 16/16/16 15/15/15
