mtllib ./Object54.mtl
g Object54
v 46.21692 -75.73101 141.2097
v 46.21692 -75.73101 261.2097
v -53.78314 -75.73101 261.2097
v -53.78314 -75.73101 141.2097
v -53.78314 -75.73101 141.2097
v -53.78314 -75.73101 261.2097
v -53.78314 -0.05744934 261.2097
v -53.78314 -0.05744934 141.2097
v 46.21692 -75.73101 261.2097
v 46.21692 -75.73101 141.2097
v 46.21692 -0.05744934 141.2097
v 46.21692 -0.05744934 261.2097

vn 0 -1 0
vn 0 -1 0
vn 0 -1 0
vn 0 -1 0
vn -1 0 0
vn -1 0 0
vn -1 0 0
vn -1 0 0
vn 1 0 0
vn 1 0 0
vn 1 0 0
vn 1 0 0

vt 1 0.5386474
vt 1 1
vt 0 1
vt 0 0.5386474
vt 0.09661835 0.468599
vt 0.884058 0.468599
vt 0.884058 1
vt 0.09661835 1
vt 0.09661835 0.468599
vt 0.884058 0.468599
vt 0.884058 1
vt 0.09661835 1

usemtl sn19_29_sn19305.JPG
usemap sn19_29_sn19305.JPG
f 3/3/3 1/1/1 2/2/2
f 1/1/1 3/3/3 4/4/4

usemtl sn19_28_sn19306.JPG
usemap sn19_28_sn19306.JPG
f 7/7/7 5/5/5 6/6/6
f 5/5/5 7/7/7 8/8/8
f 11/11/11 9/9/9 10/10/10
f 9/9/9 11/11/11 12/12/12
