mtllib ./Object97.mtl
g Object97
v -40.6155 -16.69783 4.873779
v -45.08163 -12.93318 10.00317
v -56.67049 -12.91682 -9.999756
v -51.05451 -16.68144 -9.999756
v -45.6063 -5.620041 -0.08154297
v -45.6063 1.675644 -10.0022
v -45.6063 1.675644 -9.999756
v -45.6063 1.675644 -9.999756
v -56.67049 -12.91682 -9.999756
v -45.6063 -5.620041 -0.08154297
v 40.61493 -16.66508 4.543457
v 51.05532 -16.68144 -9.999756
v 56.67142 -12.91682 -9.999756
v 45.08414 -12.90044 9.672974
v 45.60722 1.402145 -7.926758
v 56.67142 -12.91682 -9.999756
v 45.60722 1.675644 -10.00098
v -40.6155 -16.69783 4.873779
v -51.05451 -16.68144 -9.999756
v 51.05532 -16.68144 -9.999756
v 40.61493 -16.66508 4.543457
v -40.71987 6.83287 -9.989136
v -40.71987 6.559464 -7.914429
v 40.72076 6.559372 -7.913696
v 40.72076 6.83287 -9.987915
v -45.6063 1.402206 -7.92749
v -45.08163 -12.93318 10.00317
v -45.6063 1.402206 -7.92749
v -45.08163 -12.93318 10.00317
v 45.08414 -12.90044 9.672974
v 45.60722 1.402145 -7.926758
v 45.08414 -12.90044 9.672974
v 53.33714 12.25435 -6.561035
v 53.35918 12.50456 -8.635254
v 49.38633 16.69725 -8.622192
v 49.36428 16.44704 -6.547974
v -53.35831 12.50459 -8.637207
v -53.33627 12.25447 -6.562378
v -49.36343 16.44716 -6.549316
v -49.38546 16.69731 -8.624146
v -45.6063 1.402206 -7.92749
v 45.60722 1.402145 -7.926758
v 40.72076 6.559372 -7.913696
v -40.71987 6.559464 -7.914429
v 45.60722 1.402145 -7.926758
v 45.60722 1.675644 -10.00098
v 53.35918 12.50456 -8.635254
v 53.33714 12.25435 -6.561035
v -49.38546 16.69731 -8.624146
v -49.36343 16.44716 -6.549316
v 49.36428 16.44704 -6.547974
v 49.38633 16.69725 -8.622192
v -45.6063 1.675644 -10.0022
v -45.6063 1.402206 -7.92749
v -53.33627 12.25447 -6.562378
v -53.35831 12.50459 -8.637207
v 53.33714 12.25435 -6.561035
v 49.36428 16.44704 -6.547974
v -49.36343 16.44716 -6.549316
v -53.33627 12.25447 -6.562378

vn -0.169603 -0.8449467 0.5072474
vn -0.0585434 -0.8293172 0.555703
vn -0.4701848 -0.8313842 0.2961868
vn -0.5187758 -0.7738994 0.3632509
vn -0.9999999 0 0
vn -0.9999999 0 0
vn 1 0 0
vn -0.7281738 0.5521106 0.4061241
vn -0.7301518 0.5425293 0.4153796
vn -0.7386538 0.5345999 0.4106014
vn 0.09871396 -0.8315933 0.546542
vn 0.5168616 -0.7710595 0.3719158
vn 0.4671503 -0.8311707 0.3015392
vn 0.103936 -0.8428455 0.5280234
vn 0.7506154 0.5212038 0.4061073
vn 0.7506154 0.5212038 0.4061073
vn 0.7943277 0.6022764 0.07941386
vn 0.0001786025 -1 -1.028998E-06
vn 0 -0.9999995 -0.001101818
vn 0.0001786025 -1 -1.028998E-06
vn 0.0004088839 -0.9999989 0.001418278
vn 0.05795727 0.9897573 0.1304665
vn 0.1978074 0.9720966 0.1260973
vn -0.05808835 0.9897493 0.1304692
vn -0.1978052 0.9720879 0.1261674
vn -0.002002295 0.7785783 0.6275444
vn -0.7481304 0.5180709 0.4146125
vn -0.9248981 0.2833127 0.2535693
vn 0.002003028 0.78109 0.6244151
vn 0.0009996084 0.7785794 0.6275452
vn -4.543883E-06 0.7760536 0.6306669
vn 0.7414705 0.509766 0.4363028
vn 0.7230553 0.6848625 0.09030124
vn 0.7230553 0.6848625 0.09030124
vn 0.7230553 0.6848625 0.09030124
vn 0.7230553 0.6848625 0.09030124
vn -0.7230607 0.6848639 0.09024706
vn -0.7230603 0.6848647 0.09024478
vn -0.7230607 0.6848639 0.09024706
vn -0.7230613 0.6848632 0.09024937
vn 0.01178958 -0.01375143 0.999836
vn -0.01225659 -0.01414529 0.9998248
vn -0.01180921 -0.01375659 0.9998357
vn 0.01346428 -0.01528934 0.9997925
vn 0.815964 -0.5740734 -0.06813602
vn 0.8152894 -0.5740848 -0.07569662
vn 0.815964 -0.5740734 -0.06813602
vn 0.8165922 -0.5740288 -0.06056489
vn 0.7551143 0.6509224 0.07811926
vn 0.7558141 0.6509843 0.0704598
vn -0.7551168 0.6509144 0.07816009
vn -0.7542366 0.6527824 0.07072779
vn -0.8159615 -0.5740815 -0.06809793
vn -0.8166403 -0.5721988 -0.07541335
vn -0.8159615 -0.5740815 -0.06809793
vn -0.8152345 -0.5759344 -0.06076589
vn -0.07381279 -0.0727186 0.9946173
vn -0.07371015 -0.07294386 0.9946085
vn 0.0737794 -0.07268642 0.9946223
vn 0.07351088 -0.07275485 0.9946371

vt -1.614134 0.7744126
vt -1.846605 0.9908881
vt -3.262768 0.9951922
vt -2.889884 0.7787185
vt 0.2940598 0.2614497
vt 1.695571E-43 1.695571E-43
vt 0.2940598 0.5197204
vt 0.2940598 0.5197204
vt -0.1678317 0.3225626
vt 0.2940598 0.2614497
vt 2.614057 0.783025
vt 3.889877 0.7787185
vt 4.262769 0.9951922
vt 2.846688 0.9995005
vt 2.70594 0.4826462
vt 3.167832 0.3225627
vt 2.70594 0.5197402
vt 0.4105222 0.9995005
vt 0.001998067 0.0004996061
vt 3.998002 0.0004996061
vt 3.589424 0.9773184
vt 1.12832 0.8467202
vt 1.12832 0.9859263
vt -0.06922576 0.9859577
vt -0.06922583 0.8467739
vt 0.2940598 0.4826588
vt 0.3079332 0.0002597797
vt 0.2940598 0.4826588
vt 0.3079332 0.0002597797
vt 2.692109 0.006019736
vt 2.70594 0.4826462
vt 2.692109 0.006019736
vt -0.4352649 0.9904612
vt -0.4358746 0.8512775
vt -0.326047 0.8518463
vt -0.3254374 0.9910301
vt 1.491992 0.8509595
vt 1.491369 0.9901658
vt 1.379205 0.9907346
vt 1.379827 0.8515283
vt -0.1238355 0.8520132
vt 1.123836 0.8520123
vt 1.056996 0.9915587
vt -0.05699605 0.9915596
vt -0.2215748 0.8517926
vt -0.2215747 0.9909764
vt -0.4358746 0.8826392
vt -0.4352651 0.8467202
vt 1.379827 0.8515283
vt 1.379205 0.9907346
vt -0.3254374 0.9910301
vt -0.326047 0.8518463
vt 1.273131 0.990797
vt 1.273131 0.8515908
vt 1.491369 0.8467826
vt 1.491992 0.8824909
vt 1.428014 0.8615366
vt 1.358889 0.9918132
vt -0.3588894 0.9918147
vt -0.4280137 0.8615382

usemtl sn19_27_sn1903.JPG
usemap sn19_27_sn1903.JPG
f 3/3/3 1/1/1 2/2/2
f 1/1/1 3/3/3 4/4/4
f 13/13/13 11/11/11 12/12/12
f 11/11/11 13/13/13 14/14/14
f 11/11/11 2/2/2 1/1/1
f 2/2/2 11/11/11 14/14/14

usemtl sn19_39_sn1917.JPG
usemap sn19_39_sn1917.JPG
f 7/7/7 5/5/5 6/6/6
f 10/10/10 8/8/8 9/9/9
f 17/17/17 15/15/15 16/16/16
f 5/5/5 26/26/26 6/6/6
f 27/27/27 10/10/10 9/9/9
f 10/10/10 27/27/27 28/28/28
f 30/30/30 26/26/26 29/29/29
f 26/26/26 30/30/30 31/31/31
f 15/15/15 32/32/32 16/16/16

usemtl sn19_01_sn1904.JPG
usemap sn19_01_sn1904.JPG
f 20/20/20 18/18/18 19/19/19
f 18/18/18 20/20/20 21/21/21

usemtl sn19_02_sn1908.JPG
usemap sn19_02_sn1908.JPG
f 24/24/24 22/22/22 23/23/23
f 22/22/22 24/24/24 25/25/25
f 35/35/35 33/33/33 34/34/34
f 33/33/33 35/35/35 36/36/36
f 39/39/39 37/37/37 38/38/38
f 37/37/37 39/39/39 40/40/40
f 43/43/43 41/41/41 42/42/42
f 41/41/41 43/43/43 44/44/44
f 47/47/47 45/45/45 46/46/46
f 45/45/45 47/47/47 48/48/48
f 49/49/49 23/23/23 22/22/22
f 23/23/23 49/49/49 50/50/50
f 51/51/51 25/25/25 24/24/24
f 25/25/25 51/51/51 52/52/52
f 55/55/55 53/53/53 54/54/54
f 53/53/53 55/55/55 56/56/56
f 57/57/57 43/43/43 42/42/42
f 43/43/43 57/57/57 58/58/58
f 59/59/59 41/41/41 44/44/44
f 41/41/41 59/59/59 60/60/60
