mtllib ./Object26.mtl
g Object26
v -151.7522 -23.81709 0.0002441406
v 151.7517 -23.81709 0.0002441406
v 151.7517 -23.81709 108.7446
v -151.7522 -23.81709 108.7446
v -135.1859 -3.251198 25.6051
v -151.7522 -18.21472 108.7446
v -135.1859 -2.071304 82.28638
v -151.7522 -18.21472 108.7446
v 151.7517 -18.21472 108.7446
v 135.1853 -2.379837 82.32361
v -135.1859 -2.071304 82.28638
v 151.7517 -18.21472 0.0002441406
v -151.7522 -18.21472 0.0002441406
v -135.1859 -3.251198 25.6051
v -1.349613 20.4492 54.17566
v 135.1853 -3.197144 25.63245
v -127.3715 23.81738 54.17566
v 151.7517 -18.21472 108.7446
v 151.7517 -18.21472 0.0002441406
v 135.1853 -2.379837 82.32361
v -151.7522 -18.21472 0.0002441406
v 135.1853 -3.197144 25.63245
v 127.371 23.81738 54.17566
v -1.349613 20.4492 54.17566
v 127.371 23.81738 54.17566
v -127.3715 23.81738 54.17566
v -127.3715 23.81738 54.17566
v 127.371 23.81738 54.17566
v -151.7522 -23.81709 -108.7445
v 151.7518 -23.81709 -108.7445
v -135.1858 -3.251198 -82.74609
v -135.1858 -2.071304 -26.06482
v 135.1854 -2.379837 -26.02747
v -135.1858 -2.071304 -26.06482
v 151.7518 -18.21472 -108.7445
v -151.7522 -18.21472 -108.7445
v -135.1858 -3.251198 -82.74609
v -1.349548 20.4492 -54.17542
v 135.1854 -3.197144 -82.71863
v -127.3715 23.81738 -54.17542
v 151.7518 -18.21472 -108.7445
v 135.1854 -2.379837 -26.02747
v -151.7522 -18.21472 -108.7445
v 135.1854 -3.197144 -82.71863
v 127.3711 23.81738 -54.17542
v -1.349548 20.4492 -54.17542
v 127.3711 23.81738 -54.17542
v -127.3715 23.81738 -54.17542
v -127.3715 23.81738 -54.17542
v 127.3711 23.81738 -54.17542
v 151.7517 -23.81709 108.7446
v 151.7517 -23.81709 0.0002441406
v -151.7522 -23.81709 108.7446
v 151.7517 -23.81709 108.7446
v -151.7522 -23.81709 0.0002441406
v -151.7522 -23.81709 108.7446
v 151.7518 -23.81709 -108.7445
v -151.7522 -23.81709 -108.7445
v 151.7518 -23.81709 -108.7445
v -151.7522 -23.81709 -108.7445

vn 0 -1 0
vn 0 -1 0
vn 0 -1 0
vn 0 -1 0
vn -0.7879563 0.6157059 -0.005563928
vn -0.8104792 0.5857526 -0.004178212
vn -0.8706782 0.4917465 -0.01023633
vn 0.0004050787 0.8127639 0.5825932
vn 0 0.6988779 0.715241
vn -0.002454283 0.8159742 0.5780833
vn 0.004803727 0.798683 0.601733
vn -4.253825E-05 0.9861818 -0.1656667
vn 0.0003208305 0.9798222 0.199871
vn 0.002958443 0.8159066 -0.5781761
vn -4.006628E-05 0.7471015 -0.66471
vn -0.004253749 0.7953607 -0.6061215
vn 0.01932759 0.7231504 -0.6904202
vn 0.7912634 0.6114754 0
vn 0.8021607 0.5971057 -0.001779748
vn 0.7869473 0.6170081 -0.003861833
vn -0.7986535 0.6017855 -0.002589955
vn 0.8608575 0.5087932 -0.007335182
vn 0.9594564 0.2818276 -0.004063059
vn 0.0003941928 0.7552872 0.655394
vn -0.01908162 0.7292364 0.6839957
vn 0.01958339 0.7327214 0.6802468
vn -0.9590748 0.2830912 -0.005892907
vn -0.01893322 0.723565 -0.6899965
vn 0 -1 0
vn 0 -1 0
vn -0.7879216 0.6157503 -0.005564133
vn -0.8706383 0.4918172 -0.01023781
vn -0.00247223 0.813623 0.5813875
vn 0.004816037 0.7969933 0.603969
vn -5.482057E-05 0.823005 -0.5680342
vn 0 0.7048007 -0.7094053
vn 0.002940916 0.8182541 -0.5748491
vn -3.990202E-05 0.7471023 -0.6647092
vn -0.004238874 0.7970489 -0.6038999
vn 0.01932763 0.7231519 -0.6904186
vn 0.8088881 0.5879554 -0.00290434
vn 0.7869239 0.617038 -0.003861832
vn -0.7787652 0.6273155 0
vn 0.8608268 0.508845 -0.007335929
vn 0.9594564 0.2818276 -0.004063059
vn 0.0003940296 0.7552864 0.6553947
vn -0.01908162 0.7292364 0.6839957
vn 0.01958336 0.73272 0.6802484
vn -0.9590748 0.2830912 -0.005892907
vn -0.01893322 0.723565 -0.6899965
vn 1 0 0
vn 1 0 3.741804E-07
vn 0 0 0.9999999
vn 0 0 0.9999999
vn -1 0 -3.741808E-07
vn -1 0 -5.612717E-07
vn 0 0 -0.9999999
vn 0 0 -0.9999999
vn 1 0 5.612699E-07
vn -1 0 0

vt 2 0.001999378
vt 2 3.998001
vt 3.998002 3.998
vt 3.998001 0.001998305
vt 2.470448 0.6793059
vt 3.989241 0.1425098
vt 3.511872 0.6793048
vt 0.002497733 0.1333505
vt 4.997502 0.1333498
vt 4.724857 0.4841928
vt 0.2751434 0.4848764
vt 0.002497733 0.9923422
vt 4.997502 0.9923416
vt 4.724857 0.5940726
vt 2.522208 0.1673292
vt 0.275144 0.5936623
vt 4.596251 0.1673295
vt 0.00650754 0.1561108
vt 2.005411 0.1639957
vt 0.4874424 0.6793107
vt 1.990652 0.1425131
vt 1.529047 0.679309
vt 1.004615 0.9995003
vt 2.477793 0.9995002
vt 4.596251 0.9994999
vt 0.4037501 0.9995005
vt 2.995385 0.9994963
vt 0.4037505 0.1673289
vt 0.001998186 0.002000213
vt 0.001998901 3.998002
vt 0.4796779 0.6793098
vt 1.521102 0.6793088
vt 0.2751428 0.6035829
vt 4.724856 0.6030251
vt 0.002497733 0.1179311
vt 4.998016 0.1195519
vt 4.724857 0.4764563
vt 2.522208 0.9995002
vt 0.2751435 0.4769594
vt 4.596251 0.9994998
vt 3.992948 0.1561023
vt 2.478213 0.6793054
vt -0.01378071 0.1425157
vt 3.519818 0.6793038
vt 2.995385 0.9994948
vt 2.522207 0.1831514
vt 0.4037489 0.1831516
vt 4.59625 0.1831511
vt 1.004615 0.9995006
vt 0.4037499 0.9995005
vt 0.005378282 0.0236297
vt 2.002478 0.02362514
vt 0.002497733 0.0005002618
vt 4.997502 0.0004995167
vt 1.993569 0.02417133
vt 3.990984 0.02416805
vt 0.002497733 0.0004999416
vt 4.997502 0.0004997176
vt 3.995166 0.0236212
vt 0.001998186 0.02417398

usemtl sn19_01_sn1904.JPG
usemap sn19_01_sn1904.JPG
f 3/3/3 1/1/1 2/2/2
f 1/1/1 3/3/3 4/4/4
f 2/2/2 29/29/29 30/30/30
f 29/29/29 2/2/2 1/1/1

usemtl sn19_00_sn1906.JPG
usemap sn19_00_sn1906.JPG
f 7/7/7 5/5/5 6/6/6
f 10/10/10 8/8/8 9/9/9
f 11/11/11 8/8/8 10/10/10
f 14/14/14 12/12/12 13/13/13
f 16/16/16 14/14/14 15/15/15
f 14/14/14 17/17/17 15/15/15
f 20/20/20 18/18/18 19/19/19
f 12/12/12 14/14/14 16/16/16
f 5/5/5 21/21/21 6/6/6
f 23/23/23 20/20/20 22/22/22
f 22/22/22 20/20/20 19/19/19
f 25/25/25 24/24/24 10/10/10
f 11/11/11 24/24/24 26/26/26
f 27/27/27 5/5/5 7/7/7
f 11/11/11 10/10/10 24/24/24
f 16/16/16 15/15/15 28/28/28
f 32/32/32 31/31/31 21/21/21
f 33/33/33 13/13/13 12/12/12
f 34/34/34 13/13/13 33/33/33
f 37/37/37 35/35/35 36/36/36
f 39/39/39 37/37/37 38/38/38
f 37/37/37 40/40/40 38/38/38
f 42/42/42 19/19/19 41/41/41
f 35/35/35 37/37/37 39/39/39
f 31/31/31 43/43/43 21/21/21
f 45/45/45 42/42/42 44/44/44
f 44/44/44 42/42/42 41/41/41
f 47/47/47 46/46/46 33/33/33
f 34/34/34 46/46/46 48/48/48
f 49/49/49 31/31/31 32/32/32
f 34/34/34 33/33/33 46/46/46
f 39/39/39 38/38/38 50/50/50
f 51/51/51 19/19/19 18/18/18
f 19/19/19 51/51/51 52/52/52
f 53/53/53 9/9/9 8/8/8
f 9/9/9 53/53/53 54/54/54
f 55/55/55 6/6/6 21/21/21
f 6/6/6 55/55/55 56/56/56
f 57/57/57 36/36/36 35/35/35
f 36/36/36 57/57/57 58/58/58
f 52/52/52 41/41/41 19/19/19
f 41/41/41 52/52/52 59/59/59
f 60/60/60 21/21/21 43/43/43
f 21/21/21 60/60/60 55/55/55
