mtllib ./Object76.mtl
g Object76
v -158.7306 0.0004272461 -158.9067
v -77.56354 25.15445 -78.25409
v 78.89496 23.36868 -78.27557
v 158.74 0.0004272461 -158.8763
v -158.7306 0.0004272461 -158.9067
v -158.7309 0.0004272461 158.67
v -77.68262 24.69228 77.97601
v -77.56354 25.15445 -78.25409
v 158.7395 0.0004272461 158.6453
v 158.74 0.0004272461 -158.8763
v 78.89496 23.36868 -78.27557
v 78.83972 23.44341 78.00238
v 6.412903 66.79413 5.078369
v 6.541443 66.70929 -8.050415
v -77.68262 24.69228 77.97601
v -158.7309 0.0004272461 158.67
v 158.7395 0.0004272461 158.6453
v 78.83972 23.44341 78.00238
v -6.346985 66.87506 5.09845
v 6.412903 66.79413 5.078369
v 6.541443 66.70929 -8.050415
v -6.473877 66.81802 -8.084412
v -6.473877 66.81802 -8.084412
v -6.346985 66.87506 5.09845
v -158.7306 0.0004272461 -158.9067
v 158.74 0.0004272461 -158.8763
v 148.3553 -6.511688 -148.4897
v -148.3463 -6.511688 -148.5182
v -158.7309 0.0004272461 158.67
v -158.7306 0.0004272461 -158.9067
v -148.3463 -6.511688 -148.5182
v -148.3465 -6.511688 148.2825
v 158.74 0.0004272461 -158.8763
v 158.7395 0.0004272461 158.6453
v 148.3548 -6.511688 148.2593
v 148.3553 -6.511688 -148.4897
v 158.7395 0.0004272461 158.6453
v -158.7309 0.0004272461 158.67
v -148.3465 -6.511688 148.2825
v 148.3548 -6.511688 148.2593
v -148.3463 -6.511688 -148.5182
v 148.3553 -6.511688 -148.4897
v 0.004333496 -21.05914 -0.1165161
v -148.3465 -6.511688 148.2825
v 148.3548 -6.511688 148.2593
v -6.473877 66.81802 -8.084412
v -6.346985 66.87506 5.09845
v 6.412903 66.79413 5.078369
v 6.541443 66.70929 -8.050415

vn 0.003613554 0.9575725 -0.2881701
vn 0.01026334 0.9083806 -0.4180184
vn 0.005123465 0.9381711 -0.346134
vn 2.66595E-05 0.9604552 -0.2784347
vn -0.2937273 0.9558889 0.0008584088
vn -0.2914317 0.9565917 -2.800518E-07
vn -0.3507212 0.9364792 0.001181202
vn -0.4038449 0.9148242 0.002398501
vn 0.2812122 0.9596456 -0.0001182701
vn 0.2808879 0.9597406 4.319463E-07
vn 0.3452486 0.9385112 -0.0001544986
vn 0.4018298 0.9157143 -0.0002958089
vn 0.5137283 0.8579529 -0.0002507837
vn 0.5135025 0.858088 -0.0005174527
vn 0.003607113 0.9394991 0.3425325
vn 2.278406E-05 0.956228 0.2926227
vn 0.0025238 0.9582525 0.2859125
vn 0.007233778 0.9176388 0.3973497
vn 0.006756894 0.8625361 0.5059504
vn 0.006265969 0.8622895 0.5063768
vn 0.009600773 0.8554224 -0.5178421
vn 0.008501669 0.8560172 -0.5168774
vn -0.5072896 0.861773 0.002084257
vn -0.5081147 0.8612887 0.001164464
vn 5.088596E-05 -0.8472672 -0.5311668
vn 5.085531E-05 -0.8472676 -0.5311662
vn 5.088596E-05 -0.8472672 -0.5311668
vn 5.091874E-05 -0.8472667 -0.5311675
vn -0.5312822 -0.8471949 -4.750209E-07
vn -0.531283 -0.8471944 -5.105372E-07
vn -0.5312822 -0.8471949 -4.750209E-07
vn -0.5312815 -0.8471954 -4.370185E-07
vn 0.5312699 -0.8472025 8.446086E-07
vn 0.5312694 -0.847203 8.169803E-07
vn 0.5312699 -0.8472025 8.446086E-07
vn 0.5312706 -0.8472022 8.74171E-07
vn 4.138673E-05 -0.847249 0.531196
vn 4.136062E-05 -0.8472486 0.5311965
vn 4.138673E-05 -0.847249 0.531196
vn 4.141466E-05 -0.8472493 0.5311954
vn -0.04891064 -0.9976054 -0.04889903
vn 0.04891574 -0.997605 -0.04890314
vn -2.257846E-09 -0.9999999 0
vn -0.04891154 -0.9976054 0.04889893
vn 0.0489149 -0.997605 0.04890329
vn 0.0073611 0.9999583 -0.00539146
vn 0.006335645 0.9999703 -0.004387485
vn 0.0073611 0.9999583 -0.00539146
vn 0.00837052 0.9999445 -0.006379739

vt 3.998001 0.05771158
vt 2.989361 0.5132021
vt 0.9938455 0.5132021
vt 0.001998186 0.05771158
vt 0.001998186 0.05692645
vt 3.998002 0.05692643
vt 2.994349 0.5143802
vt 1.005651 0.5144104
vt 0.001998186 0.05655039
vt 3.998002 0.05655037
vt 2.994349 0.5140334
vt 1.005651 0.5140557
vt 1.911804 0.8947767
vt 2.122196 0.8947523
vt 2.990675 0.5126727
vt 3.998002 0.0574575
vt 0.001999497 0.05745749
vt 0.9948124 0.5126727
vt 2.104428 0.8936865
vt 1.894763 0.8936926
vt 1.892408 0.8936502
vt 2.10676 0.8936424
vt 1.876854 0.8942867
vt 2.088922 0.8943109
vt 0.4457537 1.000474
vt 8.331118 1.00047
vt 8.123007 0.6203933
vt 0.653634 0.621161
vt 0.003996372 0.9998684
vt 7.892159 0.999859
vt 7.682645 0.7652215
vt 0.213384 0.7652345
vt 7.996004 0.999499
vt 0.1093049 0.999499
vt 0.3180649 0.7710801
vt 7.787271 0.7710801
vt 7.996004 0.9995012
vt 0.1110618 0.9994972
vt 0.3189392 0.7735354
vt 7.787918 0.7731693
vt 0.002003074 0.001998067
vt 3.998002 0.002381444
vt 1.999999 2.000018
vt 0.001998067 3.998002
vt 3.997994 3.997691
vt 0.1395971 0.9159584
vt 0.1298569 0.9995005
vt 0.01036289 0.9979789
vt 0.0004995465 0.9185379

usemtl sn19_26_sn1902.JPG
usemap sn19_26_sn1902.JPG
f 3/3/3 1/1/1 2/2/2
f 1/1/1 3/3/3 4/4/4
f 7/7/7 5/5/5 6/6/6
f 5/5/5 7/7/7 8/8/8
f 11/11/11 9/9/9 10/10/10
f 9/9/9 11/11/11 12/12/12
f 11/11/11 13/13/13 12/12/12
f 13/13/13 11/11/11 14/14/14
f 17/17/17 15/15/15 16/16/16
f 15/15/15 17/17/17 18/18/18
f 18/18/18 19/19/19 15/15/15
f 19/19/19 18/18/18 20/20/20
f 2/2/2 21/21/21 3/3/3
f 21/21/21 2/2/2 22/22/22
f 7/7/7 23/23/23 8/8/8
f 23/23/23 7/7/7 24/24/24
f 48/48/48 46/46/46 47/47/47
f 49/49/49 46/46/46 48/48/48

usemtl sn19_27_sn1903.JPG
usemap sn19_27_sn1903.JPG
f 27/27/27 25/25/25 26/26/26
f 25/25/25 27/27/27 28/28/28
f 31/31/31 29/29/29 30/30/30
f 29/29/29 31/31/31 32/32/32
f 35/35/35 33/33/33 34/34/34
f 33/33/33 35/35/35 36/36/36
f 39/39/39 37/37/37 38/38/38
f 37/37/37 39/39/39 40/40/40

usemtl sn19_01_sn1904.JPG
usemap sn19_01_sn1904.JPG
f 43/43/43 41/41/41 42/42/42
f 43/43/43 44/44/44 41/41/41
f 43/43/43 42/42/42 45/45/45
f 43/43/43 45/45/45 44/44/44
