mtllib ./Object89.mtl
g Object89
v -60.42017 -22.76773 -63.25391
v -55.76074 -22.76773 -63.25391
v -55.76074 -28.32297 -301.7888
v -60.42017 -28.32297 -301.7888
v -55.76074 -22.76773 -63.25391
v -55.76074 -29.36627 -62.698
v -55.76074 -34.93791 -301.7678
v -55.76074 -28.32297 -301.7888
v -60.42017 -29.36627 -62.698
v -60.42017 -22.76773 -63.25391
v -60.42017 -28.32297 -301.7888
v -60.42017 -34.93791 -301.7678
v -55.76074 -22.76712 -548.2402
v -60.42017 -22.76712 -548.2402
v -55.76074 -29.3669 -548.7543
v -55.76074 -22.76712 -548.2402
v -60.42017 -22.76712 -548.2402
v -60.42017 -29.3669 -548.7543
v -55.76074 -29.36627 -62.698
v -60.42017 -22.76773 -63.25391
v -60.42017 -29.36627 -62.698
v -55.76074 -22.76773 -63.25391
v -55.76074 -29.3669 -548.7543
v -60.42017 -29.3669 -548.7543
v -60.42017 -22.76712 -548.2402
v -55.76074 -22.76712 -548.2402
v 59.78479 -92.33911 -60.09277
v 2.262817 -66.34396 -49.72729
v 58.31689 -92.33911 -49.69751
v 3.39856 -66.18994 -60.38184
v 58.31689 -92.33911 -49.69751
v 0.5925293 -72.48737 -51.03076
v 57.00598 -98.64919 -50.72046
v 2.262817 -66.34396 -49.72729
v 57.00598 -98.64919 -50.72046
v 1.728271 -72.33334 -61.68506
v 58.47375 -98.64919 -61.11572
v 0.5925293 -72.48737 -51.03076
v 58.47375 -98.64919 -61.11572
v 3.39856 -66.18994 -60.38184
v 59.78479 -92.33911 -60.09277
v 1.728271 -72.33334 -61.68506
v -58.10168 -22.76543 -50.19531
v -58.09766 -21.98642 -61.25586
v -58.08337 -30.1476 -50.62988
v -58.10168 -22.76543 -50.19531
v -58.07935 -29.36859 -61.69043
v -58.08337 -30.1476 -50.62988
v -58.09766 -21.98642 -61.25586
v -58.07935 -29.36859 -61.69043
v -119.2816 -67.68332 -49.73047
v -120.422 -67.54062 -60.38525
v -117.618 -73.83667 -51.02734
v -119.2816 -67.68332 -49.73047
v -118.7584 -73.69397 -61.68213
v -117.618 -73.83667 -51.02734
v -120.422 -67.54062 -60.38525
v -118.7584 -73.69397 -61.68213
v -174.4662 -92.32281 -49.72534
v -175.9517 -92.33429 -60.10669
v -173.2009 -98.65401 -50.70654
v -174.4662 -92.32281 -49.72534
v -174.6865 -98.66548 -61.08789
v -173.2009 -98.65401 -50.70654
v -175.9517 -92.33429 -60.10669
v -174.6865 -98.66548 -61.08789
v -173.2009 -98.65401 -50.70654
v -175.9517 -92.33429 -60.10669
v -174.6865 -98.66548 -61.08789
v -174.4662 -92.32281 -49.72534
v 59.78479 -92.33911 -544.5554
v 58.31689 -92.33911 -554.9508
v 2.262939 -66.34395 -554.9258
v 3.398682 -66.18993 -544.2712
v 58.31689 -92.33911 -554.9508
v 57.00598 -98.64917 -553.9279
v 0.5925293 -72.48735 -553.6223
v 2.262939 -66.34395 -554.9258
v 57.00598 -98.64917 -553.9279
v 58.47388 -98.64917 -543.5326
v 1.728394 -72.33333 -542.9679
v 0.5925293 -72.48735 -553.6223
v 58.47388 -98.64917 -543.5326
v 59.78479 -92.33911 -544.5554
v 3.398682 -66.18993 -544.2712
v 1.728394 -72.33333 -542.9679
v -58.10168 -22.76543 -554.2446
v -58.09766 -21.98642 -543.1841
v -58.08337 -30.14758 -553.8103
v -58.10168 -22.76543 -554.2446
v -58.07935 -29.36859 -542.7498
v -58.08337 -30.14758 -553.8103
v -58.09766 -21.98642 -543.1841
v -58.07935 -29.36859 -542.7498
v -119.2816 -67.6833 -554.9226
v -120.422 -67.54062 -544.2678
v -117.618 -73.83667 -553.6259
v -119.2816 -67.6833 -554.9226
v -118.7584 -73.69397 -542.9711
v -117.618 -73.83667 -553.6259
v -120.422 -67.54062 -544.2678
v -118.7584 -73.69397 -542.9711
v -174.4662 -92.32281 -554.923
v -175.9518 -92.33429 -544.5416
v -173.2009 -98.65401 -553.9418
v -174.4662 -92.32281 -554.923
v -174.6865 -98.66548 -543.5604
v -173.2009 -98.65401 -553.9418
v -175.9518 -92.33429 -544.5416
v -174.6865 -98.66548 -543.5604
v -173.2009 -98.65401 -553.9418
v -174.6865 -98.66548 -543.5604
v -175.9518 -92.33429 -544.5416
v -174.4662 -92.32281 -554.923

vn 0 0.9997289 -0.02328268
vn 0 0.9997289 -0.02328268
vn 0 0.9999705 -0.007676986
vn 0 0.9999711 0.007596404
vn 1 0 0
vn 1 0 0
vn 1 0 0
vn 1 0 0
vn -1 0 0
vn -1 0 0
vn -1 0 0
vn -1 0 0
vn 0 0.999746 0.02253765
vn 0 0.999746 0.02253765
vn 1 0 0
vn 1 0 0
vn -1 0 0
vn -1 0 0
vn 0 0.08394975 0.9964701
vn 0 0.08394975 0.9964701
vn 0 0.08394975 0.9964701
vn 0 0.08394975 0.9964701
vn 0 0.07765201 -0.9969805
vn 0 0.07765201 -0.9969805
vn 0 0.07765201 -0.9969805
vn 0 0.07765201 -0.9969805
vn 0.4198537 0.9057007 0.05855849
vn 0.4838004 0.8727885 0.06463227
vn 0.4199461 0.9056097 0.0592998
vn 0.5376743 0.8407623 0.06344421
vn -0.07933833 -0.1646688 0.9831529
vn -0.09373491 -0.1683535 0.9812598
vn -0.07261805 -0.1448842 0.9867802
vn -0.08525385 -0.1377422 0.9867923
vn -0.4196172 -0.9058122 -0.0585283
vn -0.4823354 -0.8736097 -0.06448747
vn -0.4194854 -0.9058278 -0.05922981
vn -0.5370191 -0.8411835 -0.06340972
vn 0.08335462 0.1636568 -0.9829895
vn 0.1027746 0.1660581 -0.9807456
vn 0.07228179 0.144955 -0.9867945
vn 0.09172214 0.1363968 -0.986399
vn 0.2216185 0.9722439 0.07501415
vn -0.2364331 0.9687536 0.07493818
vn -0.04461379 -0.09764064 0.9942213
vn 0.04075927 -0.09725423 0.9944246
vn -0.2168631 -0.9733108 -0.07507594
vn 0.2412464 -0.9675681 -0.0749136
vn 0.0407582 0.09681227 -0.9944677
vn -0.04794434 0.09709902 -0.9941193
vn -0.54083 0.8387902 0.06272075
vn -0.4804718 0.8747026 0.06357857
vn 0.08618511 -0.1362554 0.9869177
vn 0.0965206 -0.1650082 0.981558
vn 0.539488 -0.8396599 -0.06264187
vn 0.4790136 -0.875512 -0.06344052
vn -0.08990191 0.1355088 -0.9866889
vn -0.09661637 0.1649905 -0.9815516
vn -0.4069286 0.911712 0.05648259
vn -0.406794 0.9117274 0.05720067
vn 0.0751837 -0.1619031 0.9839385
vn 0.06285494 -0.1405693 0.9880736
vn 0.4066633 -0.9118323 -0.05645258
vn 0.4067566 -0.911744 -0.05720009
vn -0.07952429 0.1608547 -0.9837691
vn -0.07238212 0.1386086 -0.9876986
vn -0.9668027 -0.2146791 0.1385834
vn -0.9668027 -0.2146791 0.1385834
vn -0.9668037 -0.2146709 0.1385892
vn -0.9668018 -0.2146874 0.1385776
vn 0.4198587 0.9056983 -0.05855876
vn 0.4199512 0.9056074 -0.05929982
vn 0.4837426 0.872821 -0.06462637
vn 0.5375657 0.840832 -0.06344166
vn -0.0792635 -0.1646867 -0.9831558
vn -0.07254248 -0.1449008 -0.9867834
vn -0.09474297 -0.1680673 -0.9812121
vn -0.08745854 -0.1374404 -0.9866413
vn -0.419621 -0.9058102 0.05853328
vn -0.4194891 -0.9058256 0.05923527
vn -0.4822772 -0.873642 0.06448678
vn -0.536908 -0.8412544 0.06340994
vn 0.08328095 0.163676 0.9829926
vn 0.07219714 0.1449562 0.9868006
vn 0.1037664 0.1657833 0.9806877
vn 0.09389397 0.1361096 0.9862343
vn 0.2215776 0.9722538 -0.07500578
vn -0.2363926 0.9687641 -0.07492953
vn -0.04560144 -0.09734812 -0.9942052
vn 0.04172999 -0.09696195 -0.9944129
vn -0.2168237 -0.9733202 0.07506876
vn 0.2412042 -0.9675794 0.07490427
vn 0.04172225 0.09653307 0.994455
vn -0.04890703 0.09680857 0.9941007
vn -0.5407231 0.8388594 -0.06271746
vn -0.4804143 0.8747346 -0.06357343
vn 0.08836629 -0.1359411 -0.9867682
vn 0.09751954 -0.1647132 -0.9815088
vn 0.5393795 -0.8397298 0.06263889
vn 0.4789558 -0.8755441 0.06343479
vn -0.09205431 0.1351973 0.9865331
vn -0.09761401 0.1646956 0.9815024
vn -0.4069323 0.9117102 -0.05648475
vn -0.4067972 0.9117256 -0.05720591
vn 0.07510256 -0.1619132 -0.983943
vn 0.06277689 -0.1405853 -0.9880763
vn 0.4066674 -0.9118304 0.05645308
vn 0.4067609 -0.9117422 0.0572007
vn -0.07944337 0.1608642 0.9837741
vn -0.07230265 0.1386237 0.9877023
vn -0.9667999 -0.2146887 -0.1385887
vn -0.9667999 -0.2146887 -0.1385887
vn -0.9667999 -0.2146887 -0.1385887
vn -0.9667999 -0.2146887 -0.1385887

vt 1.899473 0.9223628
vt 1.899473 0.9964855
vt 0.5929915 0.9964935
vt 0.5929915 0.9223708
vt -0.1953258 0.9994506
vt -0.1988483 0.9269688
vt 0.9530968 0.9190654
vt 0.9532297 0.9928929
vt 2.198754 0.9269688
vt 2.195232 0.9994506
vt 1.046676 0.9928929
vt 1.046809 0.9190654
vt -0.8200868 0.996502
vt -0.8200868 0.9223794
vt 2.198754 0.9269176
vt 2.195496 0.9995008
vt -0.1955906 0.9995008
vt -0.1988483 0.9269176
vt 0.0009990335 0.9230264
vt 0.1195109 0.9994506
vt 0.1224462 0.9230264
vt 0.003934443 0.9994506
vt 0.1224462 0.9229752
vt 0.0009990335 0.9229752
vt 0.003713787 0.9995008
vt 0.1197314 0.9995008
vt 2.157723 0.9229413
vt 1.348421 0.995347
vt 2.13707 0.9953417
vt 1.364401 0.9229301
vt -1.275203 0.9950275
vt -0.3945588 0.9224803
vt -1.255204 0.9224383
vt -0.4200414 0.9950601
vt -1.119865 0.9952983
vt -0.3421381 0.9228204
vt -1.140517 0.9228553
vt -0.3261588 0.9952917
vt 2.278807 0.9224383
vt 1.438578 0.9950826
vt 2.298806 0.9950275
vt 1.413095 0.9224969
vt 0.4991256 0.9953322
vt 0.4991816 0.9228666
vt 0.5006019 0.9222489
vt 0.5008817 0.9949266
vt 0.4993224 0.92283
vt 0.4993785 0.9953138
vt 0.5003884 0.99504
vt 0.5006682 0.9223325
vt -0.3616435 0.9953468
vt -0.3776872 0.9229297
vt 1.408867 0.9223355
vt 1.434246 0.9948653
vt 1.353044 0.9228207
vt 1.337001 0.9952918
vt -0.4504332 0.994886
vt -0.4250543 0.9223508
vt -1.138059 0.9953405
vt -1.158961 0.9229402
vt 2.25684 0.9224378
vt 2.276142 0.9950299
vt 2.139921 0.9228577
vt 2.11902 0.9952989
vt -1.297597 0.9950282
vt -1.278295 0.9224366
vt 0.1498381 1.0006
vt 0.005330466 0.9269582
vt 0.1507888 0.9280621
vt 0.006795228 0.9970803
vt 2.157723 0.9229413
vt 2.13707 0.9953417
vt 1.348421 0.995347
vt 1.364401 0.9229301
vt -1.275203 0.9950275
vt -1.255204 0.9224383
vt -0.3945588 0.9224803
vt -0.4200414 0.9950601
vt -1.119865 0.9952983
vt -1.140517 0.9228553
vt -0.3421381 0.9228204
vt -0.3261588 0.9952917
vt 2.278807 0.9224383
vt 2.298806 0.9950275
vt 1.438578 0.9950826
vt 1.413095 0.9224969
vt 0.4991256 0.9953322
vt 0.4991816 0.9228666
vt 0.5006019 0.9222489
vt 0.5008817 0.9949266
vt 0.4993224 0.92283
vt 0.4993785 0.9953138
vt 0.5003884 0.99504
vt 0.5006682 0.9223325
vt -0.3616435 0.9953468
vt -0.3776872 0.9229297
vt 1.408867 0.9223355
vt 1.434246 0.9948653
vt 1.353044 0.9228207
vt 1.337001 0.9952918
vt -0.4504332 0.994886
vt -0.4250543 0.9223508
vt -1.138059 0.9953405
vt -1.158961 0.9229402
vt 2.25684 0.9224378
vt 2.276142 0.9950299
vt 2.139921 0.9228577
vt 2.11902 0.9952989
vt -1.297597 0.9950282
vt -1.278295 0.9224366
vt 0.1498381 1.0006
vt 0.1507888 0.9280621
vt 0.005330466 0.9269582
vt 0.006795228 0.9970803

usemtl sn19_26_sn1902.JPG
usemap sn19_26_sn1902.JPG
f 3/3/3 1/1/1 2/2/2
f 1/1/1 3/3/3 4/4/4
f 7/7/7 5/5/5 6/6/6
f 5/5/5 7/7/7 8/8/8
f 11/11/11 9/9/9 10/10/10
f 9/9/9 11/11/11 12/12/12
f 13/13/13 4/4/4 3/3/3
f 4/4/4 13/13/13 14/14/14
f 15/15/15 8/8/8 7/7/7
f 8/8/8 15/15/15 16/16/16
f 17/17/17 12/12/12 11/11/11
f 12/12/12 17/17/17 18/18/18
f 21/21/21 19/19/19 20/20/20
f 19/19/19 22/22/22 20/20/20
f 25/25/25 23/23/23 24/24/24
f 25/25/25 26/26/26 23/23/23
f 29/29/29 27/27/27 28/28/28
f 30/30/30 28/28/28 27/27/27
f 33/33/33 31/31/31 32/32/32
f 34/34/34 32/32/32 31/31/31
f 37/37/37 35/35/35 36/36/36
f 38/38/38 36/36/36 35/35/35
f 41/41/41 39/39/39 40/40/40
f 42/42/42 40/40/40 39/39/39
f 28/28/28 30/30/30 43/43/43
f 44/44/44 43/43/43 30/30/30
f 32/32/32 34/34/34 45/45/45
f 46/46/46 45/45/45 34/34/34
f 36/36/36 38/38/38 47/47/47
f 48/48/48 47/47/47 38/38/38
f 40/40/40 42/42/42 49/49/49
f 50/50/50 49/49/49 42/42/42
f 43/43/43 44/44/44 51/51/51
f 52/52/52 51/51/51 44/44/44
f 45/45/45 46/46/46 53/53/53
f 54/54/54 53/53/53 46/46/46
f 47/47/47 48/48/48 55/55/55
f 56/56/56 55/55/55 48/48/48
f 49/49/49 50/50/50 57/57/57
f 58/58/58 57/57/57 50/50/50
f 51/51/51 52/52/52 59/59/59
f 60/60/60 59/59/59 52/52/52
f 53/53/53 54/54/54 61/61/61
f 62/62/62 61/61/61 54/54/54
f 55/55/55 56/56/56 63/63/63
f 64/64/64 63/63/63 56/56/56
f 57/57/57 58/58/58 65/65/65
f 66/66/66 65/65/65 58/58/58
f 69/69/69 67/67/67 68/68/68
f 67/67/67 70/70/70 68/68/68
f 73/73/73 71/71/71 72/72/72
f 71/71/71 73/73/73 74/74/74
f 77/77/77 75/75/75 76/76/76
f 75/75/75 77/77/77 78/78/78
f 81/81/81 79/79/79 80/80/80
f 79/79/79 81/81/81 82/82/82
f 85/85/85 83/83/83 84/84/84
f 83/83/83 85/85/85 86/86/86
f 87/87/87 74/74/74 73/73/73
f 74/74/74 87/87/87 88/88/88
f 89/89/89 78/78/78 77/77/77
f 78/78/78 89/89/89 90/90/90
f 91/91/91 82/82/82 81/81/81
f 82/82/82 91/91/91 92/92/92
f 93/93/93 86/86/86 85/85/85
f 86/86/86 93/93/93 94/94/94
f 95/95/95 88/88/88 87/87/87
f 88/88/88 95/95/95 96/96/96
f 97/97/97 90/90/90 89/89/89
f 90/90/90 97/97/97 98/98/98
f 99/99/99 92/92/92 91/91/91
f 92/92/92 99/99/99 100/100/100
f 101/101/101 94/94/94 93/93/93
f 94/94/94 101/101/101 102/102/102
f 103/103/103 96/96/96 95/95/95
f 96/96/96 103/103/103 104/104/104
f 105/105/105 98/98/98 97/97/97
f 98/98/98 105/105/105 106/106/106
f 107/107/107 100/100/100 99/99/99
f 100/100/100 107/107/107 108/108/108
f 109/109/109 102/102/102 101/101/101
f 102/102/102 109/109/109 110/110/110
f 113/113/113 111/111/111 112/112/112
f 113/113/113 114/114/114 111/111/111
