mtllib ./Object18.mtl
g Object18
v -235.0051 41.89323 -3.611572
v -235.0051 41.89323 3.590088
v -3.871582 36.338 3.590088
v -3.871582 36.338 -3.611572
v -235.0051 41.89323 3.590088
v -235.5615 35.29469 3.590088
v -3.892578 29.72305 3.590088
v -3.871582 36.338 3.590088
v -235.5615 35.29469 -3.611572
v -235.0051 41.89323 -3.611572
v -3.871582 36.338 -3.611572
v -3.892578 29.72305 -3.611572
v 250.0343 41.89384 3.590088
v 250.0343 41.89384 -3.611572
v 250.549 35.29407 3.590088
v 250.0343 41.89384 3.590088
v 250.0343 41.89384 -3.611572
v 250.549 35.29407 -3.611572
v -235.5615 35.29469 3.590088
v -235.0051 41.89323 -3.611572
v -235.5615 35.29469 -3.611572
v -235.0051 41.89323 3.590088
v 250.549 35.29407 3.590088
v 250.549 35.29407 -3.611572
v 250.0343 41.89384 -3.611572
v 250.0343 41.89384 3.590088
v -237.0446 -27.67815 182.179
v -247.9448 -1.682999 93.27222
v -247.4514 -27.67815 179.9102
v -237.2785 -1.528976 95.02759
v -247.4514 -27.67815 179.9102
v -246.64 -7.826401 90.69043
v -246.4274 -33.98822 177.884
v -247.9448 -1.682999 93.27222
v -246.4274 -33.98822 177.884
v -235.9738 -7.672379 92.44604
v -236.0205 -33.98822 180.1528
v -246.64 -7.826401 90.69043
v -236.0205 -33.98822 180.1528
v -237.2785 -1.528976 95.02759
v -237.0446 -27.67815 182.179
v -235.9738 -7.672379 92.44604
v -248.078 41.89554 -0.02807617
v -237.0051 42.67455 -0.02197266
v -247.6431 34.51337 0.0002441406
v -248.078 41.89554 -0.02807617
v -236.5703 35.29237 0.006347656
v -247.6431 34.51337 0.0002441406
v -237.0051 42.67455 -0.02197266
v -236.5703 35.29237 0.006347656
v -247.9417 -3.022354 -94.58887
v -237.275 -2.879654 -96.35132
v -246.6434 -9.175705 -92.01758
v -247.9417 -3.022354 -94.58887
v -235.9768 -9.033005 -93.78003
v -246.6434 -9.175705 -92.01758
v -237.275 -2.879654 -96.35132
v -235.9768 -9.033005 -93.78003
v -247.4236 -27.66185 -179.8828
v -237.0308 -27.67332 -182.179
v -246.4413 -33.99304 -177.9272
v -247.4236 -27.66185 -179.8828
v -236.0484 -34.00452 -180.2234
v -246.4413 -33.99304 -177.9272
v -237.0308 -27.67332 -182.179
v -236.0484 -34.00452 -180.2234
v -246.4274 -33.98822 177.884
v -236.0205 -33.98822 180.1528
v -237.0446 -27.67815 182.179
v -247.4514 -27.67815 179.9102
v -246.4413 -33.99304 -177.9272
v -237.0308 -27.67332 -182.179
v -236.0484 -34.00452 -180.2234
v -247.4236 -27.66185 -179.8828
v 244.8549 -27.67815 182.179
v 255.2617 -27.67815 179.9102
v 255.8358 -1.682983 93.27222
v 245.1694 -1.528961 95.02759
v 255.2617 -27.67815 179.9102
v 254.2377 -33.9882 177.884
v 254.5309 -7.826385 90.69067
v 255.8358 -1.682983 93.27222
v 254.2377 -33.9882 177.884
v 243.8308 -33.9882 180.1528
v 243.8646 -7.672363 92.44604
v 254.5309 -7.826385 90.69067
v 243.8308 -33.9882 180.1528
v 244.8549 -27.67815 182.179
v 245.1694 -1.528961 95.02759
v 243.8646 -7.672363 92.44604
v 256.0454 41.89554 -0.02807617
v 244.9727 42.67455 -0.02197266
v 255.6106 34.51338 0.0002441406
v 256.0454 41.89554 -0.02807617
v 244.5378 35.29237 0.006347656
v 255.6106 34.51338 0.0002441406
v 244.9727 42.67455 -0.02197266
v 244.5378 35.29237 0.006347656
v 255.8326 -3.022339 -94.58887
v 245.166 -2.879654 -96.35132
v 254.5344 -9.175705 -92.01758
v 255.8326 -3.022339 -94.58887
v 243.8678 -9.033005 -93.78003
v 254.5344 -9.175705 -92.01758
v 245.166 -2.879654 -96.35132
v 243.8678 -9.033005 -93.78003
v 255.2339 -27.66185 -179.8828
v 244.8409 -27.67332 -182.179
v 254.2516 -33.99304 -177.9272
v 255.2339 -27.66185 -179.8828
v 243.8586 -34.00452 -180.2234
v 254.2516 -33.99304 -177.9272
v 244.8409 -27.67332 -182.179
v 243.8586 -34.00452 -180.2234
v 254.2377 -33.9882 177.884
v 244.8549 -27.67815 182.179
v 243.8308 -33.9882 180.1528
v 255.2617 -27.67815 179.9102
v 254.2516 -33.99304 -177.9272
v 243.8586 -34.00452 -180.2234
v 244.8409 -27.67332 -182.179
v 255.2339 -27.66185 -179.8828

vn 0.02402782 0.9997113 0
vn 0.02402782 0.9997113 0
vn 0.007755752 0.9999699 0
vn -0.007519231 0.9999717 0
vn 0 0 1
vn 0 0 1
vn 0 0 1
vn 0 0 1
vn 0 0 -1
vn 0 0 -1
vn 0 0 -1
vn 0 0 -1
vn -0.02187628 0.9997607 0
vn -0.02187628 0.9997607 0
vn 0 0 1
vn 0 0 1
vn 0 0 -1
vn 0 0 -1
vn -0.9964631 0.08403213 0
vn -0.9964631 0.08403213 0
vn -0.9964631 0.08403213 0
vn -0.9964631 0.08403213 0
vn 0.9969733 0.07774365 0
vn 0.9969733 0.07774365 0
vn 0.9969733 0.07774365 0
vn 0.9969733 0.07774365 0
vn -0.06180695 0.9559124 0.2870738
vn -0.06952635 0.9388794 0.3371519
vn -0.06260142 0.955838 0.2871494
vn -0.06951348 0.9216337 0.3817843
vn -0.9848611 -0.1670932 -0.04613565
vn -0.9837032 -0.1710259 -0.05548149
vn -0.9882596 -0.1469857 -0.04169255
vn -0.9889608 -0.139636 -0.04958307
vn 0.06177554 -0.9559694 -0.2868906
vn 0.06934349 -0.9393163 -0.3359707
vn 0.06252339 -0.9559501 -0.2867932
vn 0.06946368 -0.9218656 -0.3812328
vn 0.9848971 0.1661237 0.04878991
vn 0.9837295 0.1687993 0.06150722
vn 0.9882569 0.1470653 0.04147307
vn 0.988918 0.1383311 0.05390521
vn -0.07604906 0.9864231 0.145554
vn -0.07612485 0.984883 -0.1555971
vn -0.9947641 -0.09853831 -0.02710147
vn -0.9948685 -0.09813333 0.02462781
vn 0.07606798 -0.9868895 -0.1423474
vn 0.07615378 -0.9843571 0.1588767
vn 0.994912 0.09768417 0.02465433
vn 0.9947567 0.09798158 -0.0293054
vn -0.06880326 0.9205675 -0.3844758
vn -0.06831839 0.9399272 -0.3344691
vn -0.9891348 -0.138162 0.05023777
vn -0.9841731 -0.1676831 0.05731991
vn 0.06868275 -0.9210527 0.3833337
vn 0.06813767 -0.9403546 0.3333023
vn 0.989109 0.137414 -0.05273125
vn 0.9841735 0.1676593 -0.0573829
vn -0.05941335 0.9589493 -0.2772835
vn -0.06018079 0.9589301 -0.2771846
vn -0.9854566 -0.1643124 0.04332054
vn -0.9891533 -0.14261 0.03518881
vn 0.05937491 -0.9590103 0.2770811
vn 0.06017468 -0.9589385 0.2771569
vn 0.9854986 0.1632786 -0.0461797
vn 0.9891869 0.1406788 -0.04145814
vn -0.2011545 -0.3289129 0.922688
vn -0.2011539 -0.3289138 0.9226878
vn -0.2011545 -0.3289129 0.922688
vn -0.2011552 -0.3289121 0.9226882
vn -0.2048863 -0.3177425 -0.925776
vn -0.2048863 -0.3177425 -0.925776
vn -0.2048863 -0.3177425 -0.925776
vn -0.2048863 -0.3177425 -0.9257761
vn 0.06181654 0.955896 0.2871265
vn 0.06261309 0.9558212 0.287203
vn 0.06953559 0.9388588 0.3372076
vn 0.06951803 0.9216118 0.3818362
vn 0.9848447 -0.1674133 -0.04531755
vn 0.9882532 -0.1472614 -0.04086157
vn 0.9836907 -0.1713449 -0.05471223
vn 0.9889678 -0.1398562 -0.04881405
vn -0.0617823 -0.9559532 -0.2869431
vn -0.06253519 -0.9559335 -0.2868456
vn -0.06934781 -0.9392961 -0.3360264
vn -0.06946299 -0.9218436 -0.3812862
vn -0.9848858 0.1664286 0.04797351
vn -0.9882518 0.1473326 0.04063905
vn -0.9837254 0.1690979 0.06074898
vn -0.9889299 0.1385393 0.0531454
vn 0.07605248 0.9864211 0.145566
vn 0.07612823 0.9848811 -0.1556075
vn 0.9947604 -0.09863782 -0.02687566
vn 0.9948656 -0.09821959 0.02439933
vn -0.07606718 -0.9868881 -0.1423578
vn -0.07615639 -0.9843551 0.1588875
vn -0.994908 0.09778062 0.02443124
vn -0.994754 0.09807522 -0.02908103
vn 0.06880768 0.9205456 -0.3845275
vn 0.06832734 0.9399071 -0.3345236
vn 0.9891461 -0.1383591 0.04946591
vn 0.9841695 -0.1679682 0.05654207
vn -0.06868725 -0.9210305 0.3833862
vn -0.06814736 -0.9403343 0.3333575
vn -0.989121 0.1376173 -0.05197185
vn -0.9841688 0.1679503 -0.05660696
vn 0.05942254 0.9589338 -0.2773353
vn 0.06019197 0.9589143 -0.2772368
vn 0.9854442 -0.1646063 0.04247662
vn 0.9891466 -0.1428657 0.03432698
vn -0.0593845 -0.9589949 0.2771323
vn -0.06018584 -0.9589227 0.277209
vn -0.9854882 0.1635758 -0.04534137
vn -0.9891862 0.1409319 -0.04060725
vn 0.201155 -0.3289146 0.9226873
vn 0.201155 -0.3289146 0.9226873
vn 0.201155 -0.3289146 0.9226873
vn 0.201155 -0.3289146 0.9226873
vn 0.2048853 -0.3177406 -0.9257769
vn 0.2048853 -0.3177406 -0.9257769
vn 0.2048853 -0.3177406 -0.9257769
vn 0.2048853 -0.3177406 -0.9257769

vt 1.899473 0.9223628
vt 1.899473 0.9964855
vt 0.5929915 0.9964935
vt 0.5929915 0.9223708
vt -0.1953258 0.9994506
vt -0.1988483 0.9269688
vt 0.9530968 0.9190654
vt 0.9532297 0.9928929
vt 2.198754 0.9269688
vt 2.195232 0.9994506
vt 1.046676 0.9928929
vt 1.046809 0.9190654
vt -0.8200868 0.996502
vt -0.8200868 0.9223794
vt 2.198754 0.9269176
vt 2.195496 0.9995008
vt -0.1955906 0.9995008
vt -0.1988483 0.9269176
vt 0.0009990335 0.9230264
vt 0.1195109 0.9994506
vt 0.1224462 0.9230264
vt 0.003934443 0.9994506
vt 0.1224462 0.9229752
vt 0.0009990335 0.9229752
vt 0.003713787 0.9995008
vt 0.1197314 0.9995008
vt 2.157723 0.9229413
vt 1.348421 0.995347
vt 2.13707 0.9953417
vt 1.364401 0.9229301
vt -1.275203 0.9950275
vt -0.3945588 0.9224803
vt -1.255204 0.9224383
vt -0.4200414 0.9950601
vt -1.119865 0.9952983
vt -0.3421381 0.9228204
vt -1.140517 0.9228553
vt -0.3261588 0.9952917
vt 2.278807 0.9224383
vt 1.438578 0.9950826
vt 2.298806 0.9950275
vt 1.413095 0.9224969
vt 0.4991256 0.9953322
vt 0.4991816 0.9228666
vt 0.5006019 0.9222489
vt 0.5008817 0.9949266
vt 0.4993224 0.92283
vt 0.4993785 0.9953138
vt 0.5003884 0.99504
vt 0.5006682 0.9223325
vt -0.3616435 0.9953468
vt -0.3776872 0.9229297
vt 1.408867 0.9223355
vt 1.434246 0.9948653
vt 1.353044 0.9228207
vt 1.337001 0.9952918
vt -0.4504332 0.994886
vt -0.4250543 0.9223508
vt -1.138059 0.9953405
vt -1.158961 0.9229402
vt 2.25684 0.9224378
vt 2.276142 0.9950299
vt 2.139921 0.9228577
vt 2.11902 0.9952989
vt -1.297597 0.9950282
vt -1.278295 0.9224366
vt 1.072266 0.9993783
vt 1.07124 0.9256196
vt 0.9270368 0.9281567
vt 0.9256471 0.9994998
vt 0.1498381 1.0006
vt 0.005330466 0.9269582
vt 0.1507888 0.9280621
vt 0.006795228 0.9970803
vt 2.157723 0.9229413
vt 2.13707 0.9953417
vt 1.348421 0.995347
vt 1.364401 0.9229301
vt -1.275203 0.9950275
vt -1.255204 0.9224383
vt -0.3945588 0.9224803
vt -0.4200414 0.9950601
vt -1.119865 0.9952983
vt -1.140517 0.9228553
vt -0.3421381 0.9228204
vt -0.3261588 0.9952917
vt 2.278807 0.9224383
vt 2.298806 0.9950275
vt 1.438578 0.9950826
vt 1.413095 0.9224969
vt 0.4991256 0.9953322
vt 0.4991816 0.9228666
vt 0.5006019 0.9222489
vt 0.5008817 0.9949266
vt 0.4993224 0.92283
vt 0.4993785 0.9953138
vt 0.5003884 0.99504
vt 0.5006682 0.9223325
vt -0.3616435 0.9953468
vt -0.3776872 0.9229297
vt 1.408867 0.9223355
vt 1.434246 0.9948653
vt 1.353044 0.9228207
vt 1.337001 0.9952918
vt -0.4504332 0.994886
vt -0.4250543 0.9223508
vt -1.138059 0.9953405
vt -1.158961 0.9229402
vt 2.25684 0.9224378
vt 2.276142 0.9950299
vt 2.139921 0.9228577
vt 2.11902 0.9952989
vt -1.297597 0.9950282
vt -1.278295 0.9224366
vt 1.072266 0.9993783
vt 0.9270368 0.9281567
vt 1.07124 0.9256196
vt 0.9256471 0.9994998
vt 0.1498381 1.0006
vt 0.1507888 0.9280621
vt 0.005330466 0.9269582
vt 0.006795228 0.9970803

usemtl sn19_26_sn1902.JPG
usemap sn19_26_sn1902.JPG
f 3/3/3 1/1/1 2/2/2
f 1/1/1 3/3/3 4/4/4
f 7/7/7 5/5/5 6/6/6
f 5/5/5 7/7/7 8/8/8
f 11/11/11 9/9/9 10/10/10
f 9/9/9 11/11/11 12/12/12
f 13/13/13 4/4/4 3/3/3
f 4/4/4 13/13/13 14/14/14
f 15/15/15 8/8/8 7/7/7
f 8/8/8 15/15/15 16/16/16
f 17/17/17 12/12/12 11/11/11
f 12/12/12 17/17/17 18/18/18
f 21/21/21 19/19/19 20/20/20
f 19/19/19 22/22/22 20/20/20
f 25/25/25 23/23/23 24/24/24
f 25/25/25 26/26/26 23/23/23
f 29/29/29 27/27/27 28/28/28
f 30/30/30 28/28/28 27/27/27
f 33/33/33 31/31/31 32/32/32
f 34/34/34 32/32/32 31/31/31
f 37/37/37 35/35/35 36/36/36
f 38/38/38 36/36/36 35/35/35
f 41/41/41 39/39/39 40/40/40
f 42/42/42 40/40/40 39/39/39
f 28/28/28 30/30/30 43/43/43
f 44/44/44 43/43/43 30/30/30
f 32/32/32 34/34/34 45/45/45
f 46/46/46 45/45/45 34/34/34
f 36/36/36 38/38/38 47/47/47
f 48/48/48 47/47/47 38/38/38
f 40/40/40 42/42/42 49/49/49
f 50/50/50 49/49/49 42/42/42
f 43/43/43 44/44/44 51/51/51
f 52/52/52 51/51/51 44/44/44
f 45/45/45 46/46/46 53/53/53
f 54/54/54 53/53/53 46/46/46
f 47/47/47 48/48/48 55/55/55
f 56/56/56 55/55/55 48/48/48
f 49/49/49 50/50/50 57/57/57
f 58/58/58 57/57/57 50/50/50
f 51/51/51 52/52/52 59/59/59
f 60/60/60 59/59/59 52/52/52
f 53/53/53 54/54/54 61/61/61
f 62/62/62 61/61/61 54/54/54
f 55/55/55 56/56/56 63/63/63
f 64/64/64 63/63/63 56/56/56
f 57/57/57 58/58/58 65/65/65
f 66/66/66 65/65/65 58/58/58
f 69/69/69 67/67/67 68/68/68
f 69/69/69 70/70/70 67/67/67
f 73/73/73 71/71/71 72/72/72
f 71/71/71 74/74/74 72/72/72
f 77/77/77 75/75/75 76/76/76
f 75/75/75 77/77/77 78/78/78
f 81/81/81 79/79/79 80/80/80
f 79/79/79 81/81/81 82/82/82
f 85/85/85 83/83/83 84/84/84
f 83/83/83 85/85/85 86/86/86
f 89/89/89 87/87/87 88/88/88
f 87/87/87 89/89/89 90/90/90
f 91/91/91 78/78/78 77/77/77
f 78/78/78 91/91/91 92/92/92
f 93/93/93 82/82/82 81/81/81
f 82/82/82 93/93/93 94/94/94
f 95/95/95 86/86/86 85/85/85
f 86/86/86 95/95/95 96/96/96
f 97/97/97 90/90/90 89/89/89
f 90/90/90 97/97/97 98/98/98
f 99/99/99 92/92/92 91/91/91
f 92/92/92 99/99/99 100/100/100
f 101/101/101 94/94/94 93/93/93
f 94/94/94 101/101/101 102/102/102
f 103/103/103 96/96/96 95/95/95
f 96/96/96 103/103/103 104/104/104
f 105/105/105 98/98/98 97/97/97
f 98/98/98 105/105/105 106/106/106
f 107/107/107 100/100/100 99/99/99
f 100/100/100 107/107/107 108/108/108
f 109/109/109 102/102/102 101/101/101
f 102/102/102 109/109/109 110/110/110
f 111/111/111 104/104/104 103/103/103
f 104/104/104 111/111/111 112/112/112
f 113/113/113 106/106/106 105/105/105
f 106/106/106 113/113/113 114/114/114
f 117/117/117 115/115/115 116/116/116
f 115/115/115 118/118/118 116/116/116
f 121/121/121 119/119/119 120/120/120
f 121/121/121 122/122/122 119/119/119
