mtllib ./Object68.mtl
g Object68
v 125.0194 -35.00001 -36.14978
v 125.0194 -35.00001 -49.51672
v 125.0194 34.99999 -49.51672
v 125.0194 34.99999 -39.97571
v -125.2003 -35.00001 150.4833
v 125.0194 -35.00001 150.4833
v 125.0194 34.99999 150.4833
v -125.2003 34.99999 150.4833
v 125.4207 -34.99998 -150.3163
v 125.4207 34.99999 -150.3163
v 125.0194 34.99999 -49.51672
v 125.0194 -35.00001 -49.51672
v 125.4207 34.99999 -150.3163
v 125.4207 -34.99998 -150.3163
v 62.45425 -35.00001 -150.4833
v -124.9805 -35.00001 -150.4833
v 88.23935 34.99999 -150.4833
v 92.39148 34.99999 -150.4833
v -125.42 -35.00001 -49.51672
v -125.2003 -35.00001 150.4833
v -125.42 34.99999 -49.51672
v -125.2003 34.99999 150.4833
v -125.42 34.99999 -150.149
v -125.42 -34.99997 -150.149
v -125.42 34.99999 -49.51672
v -125.42 -35.00001 -49.51672
v 62.45425 -35.00001 -150.4833
v 92.39148 34.99999 -150.4833
v 125.0194 34.99999 -39.97571
v 125.0194 34.99999 150.4833
v 125.0194 -35.00001 150.4833
v 125.0194 -35.00001 -36.14978
v -124.9805 34.99999 -150.4833

vn 1 0 0
vn 1 0 0
vn 1 0 0
vn 0.9999999 0 0
vn 0 0 1
vn 0 0 1
vn 0 0 1
vn 0 0 1
vn 0.9999921 0 0.003981501
vn 0.9999921 0 0.0039815
vn 0.9999921 0 0.003981501
vn 0.9999921 0 0.0039815
vn 0.003479136 -0.0007439693 -0.9999937
vn 0.002652071 0 -0.9999965
vn 0.003479136 -0.0007439693 -0.9999937
vn 0 0 -1
vn 0 0 -1
vn 0 0 -0.9999999
vn -0.9999994 0 0.001098632
vn -0.9999994 0 0.001098632
vn -0.9999994 0 0.001098632
vn -0.9999994 0 0.001098632
vn -1 0 0
vn -1 0 0
vn -1 0 0
vn -0.9999999 0 0
vn 0 0 -1
vn 0.005055809 -0.002162242 -0.9999849
vn 1 0 0
vn 1 0 0
vn 1 0 0
vn 1 0 0
vn 0 0 -0.9999999

vt 0.9327329 0.5004995
vt 0.9995005 0.5004995
vt 0.9995005 0.9995005
vt 0.9518433 0.9995005
vt 0.0004995465 0.0004995167
vt 0.9995005 0.0004995167
vt 0.9995005 0.4995005
vt 0.0004995465 0.4995005
vt 1.004331 0.5004995
vt 1.004331 0.9995005
vt 0.5077459 0.9995005
vt 0.5077459 0.5004995
vt 0.0004995167 0.9995005
vt 0.0004995167 0.5053304
vt 0.2540605 0.5053304
vt 0.9995005 0.5053304
vt 0.1515115 0.9995005
vt 0.1349982 0.9995005
vt 0.9995005 0.5004995
vt 0.0004995167 0.5004995
vt 0.9995005 0.9995005
vt 0.0004995167 0.9995005
vt 1.004331 0.9995005
vt 1.004331 0.5004995
vt 0.5077459 0.9995005
vt 0.5077459 0.5004995
vt 0.2540605 0.5053304
vt 0.1349982 0.9995005
vt 0.9518433 0.9995005
vt 0.0004995167 0.9995005
vt 0.0004995167 0.5004995
vt 0.9327329 0.5004995
vt 0.9995005 0.9995005

usemtl sn19_20_sn1911.jpg
usemap sn19_20_sn1911.jpg
f 3/3/3 1/1/1 2/2/2
f 1/1/1 3/3/3 4/4/4
f 7/7/7 5/5/5 6/6/6
f 5/5/5 7/7/7 8/8/8
f 11/11/11 9/9/9 10/10/10
f 9/9/9 11/11/11 12/12/12
f 15/15/15 13/13/13 14/14/14
f 18/18/18 16/16/16 17/17/17
f 21/21/21 19/19/19 20/20/20
f 20/20/20 22/22/22 21/21/21
f 25/25/25 23/23/23 24/24/24
f 24/24/24 26/26/26 25/25/25
f 27/27/27 16/16/16 18/18/18
f 13/13/13 15/15/15 28/28/28
f 31/31/31 29/29/29 30/30/30
f 29/29/29 31/31/31 32/32/32
f 17/17/17 16/16/16 33/33/33
