mtllib ./Object96.mtl
g Object96
v 0.0001638454 -168.0758 -1.068637
v 0.0001638454 -228.4732 -1.068637
v -0.0007359426 -168.0758 1.068801
v -0.0007359426 -228.4732 1.068801
v 30.22529 -228.4732 1.081661
v 30.22624 -228.4732 -1.055664
v 30.22529 -168.0758 1.081661
v 30.22624 -168.0758 -1.055664
v -0.0007359426 -228.4732 1.068801
v 0.0001638454 -228.4732 -1.068637
v 30.22529 -228.4732 1.081661
v 30.22624 -228.4732 -1.055664
v -0.0007359426 -168.0758 1.068801
v 30.22529 -168.0758 1.081661
v 30.22529 -228.4732 1.081661
v 0.0001638454 -168.0758 -1.068637
v -0.0007359426 -168.0758 1.068801
v 30.22624 -168.0758 -1.055664
v 30.22529 -168.0758 1.081661
v 0.0001638454 -168.0758 -1.068637
v 30.22624 -228.4732 -1.055664
v 30.22624 -168.0758 -1.055664

vn -0.9612195 0 -0.2757841
vn 0.1384688 0 -0.9903668
vn -0.9612195 0 -0.2757841
vn -0.3095813 0 0.950873
vn 0.9612134 0 0.2758058
vn 0.9612134 0 0.2758058
vn 0.9612134 0 0.2758058
vn 0.9612134 0 0.2758058
vn 0 -1 0
vn 0 -1 0
vn 0 -1 0
vn 0 -1 0
vn -0.2757884 0 0.9612184
vn -0.2757884 0 0.9612184
vn -0.2757884 0 0.9612184
vn 0 1 0
vn 0 1 0
vn 0 1 0
vn 0 1 0
vn 0.275792 0 -0.9612173
vn 0.275792 0 -0.9612173
vn 0.275792 0 -0.9612173

vt 0.0004984299 0.5804371
vt 0.3679051 0.5804436
vt 0.0004983545 0.01688901
vt 0.3679051 0.01689555
vt 0.3360996 0.03560882
vt 0.3023709 0.02942645
vt 0.3392223 0.5633336
vt 0.3054936 0.5643976
vt 0.3360993 0.03560882
vt 0.3023707 0.02942633
vt 0.3392156 0.5633336
vt 0.3054869 0.5643976
vt 0.3679052 0.5804436
vt 0.0004983703 0.5804437
vt 0.0004982949 0.01688872
vt 0.3360996 0.03560882
vt 0.302371 0.02942633
vt 0.3392153 0.5633336
vt 0.3054867 0.5643976
vt 0.3679051 0.01688864
vt 0.0004983703 0.5804437
vt 0.0004982949 0.01688872

usemtl sn19_45_Asn1916.JPG
usemap sn19_45_Asn1916.JPG
f 3/3/3 1/1/1 2/2/2
f 2/2/2 4/4/4 3/3/3
f 7/7/7 5/5/5 6/6/6
f 6/6/6 8/8/8 7/7/7
f 11/11/11 9/9/9 10/10/10
f 10/10/10 12/12/12 11/11/11
f 14/14/14 13/13/13 4/4/4
f 4/4/4 15/15/15 14/14/14
f 18/18/18 16/16/16 17/17/17
f 17/17/17 19/19/19 18/18/18
f 21/21/21 2/2/2 20/20/20
f 20/20/20 22/22/22 21/21/21
