mtllib ./Object84.mtl
g Object84
v 55.44116 -2.427734 136.9718
v 55.44122 -2.427734 265.3853
v -62.2384 -2.427734 265.3853
v -62.2384 -2.427734 136.9718
v -62.2384 0.0871582 136.9718
v -62.2384 0.0871582 265.3853
v -33.74951 9.156021 265.3412
v -33.70929 9.332718 136.9784
v 55.44122 0.0871582 265.3853
v 55.44116 0.0871582 136.9718
v 27.40796 8.656982 136.9784
v -3.398621 22.23053 197.8862
v 27.37842 8.687943 265.3412
v -3.398621 24.15953 136.9814
v -3.398621 24.15953 265.3204
v 55.44116 0.0871582 136.9718
v 55.44122 0.0871582 265.3853
v 55.44122 -2.427734 265.3853
v 55.44116 -2.427734 136.9718
v -62.2384 0.0871582 265.3853
v -62.2384 0.0871582 136.9718
v -62.2384 -2.427734 136.9718
v -62.2384 -2.427734 265.3853

vn 0 -0.9999999 0
vn 0 -1 0
vn 0 -0.9999999 0
vn 0 -1 0
vn -0.3058151 0.9520907 0.0006072637
vn -0.3033317 0.9528851 0
vn -0.3546349 0.9349985 -0.003457909
vn -0.3710108 0.9286044 0.006714172
vn 0.2926888 0.9562078 -8.168908E-05
vn 0.2923472 0.9563122 -1.389532E-07
vn 0.3512801 0.9362611 0.00418577
vn 0.009356425 0.9999561 0.0002717244
vn 0.3743477 0.9272701 -0.005828881
vn 0.01105016 0.9994377 0.03165459
vn 0.007654007 0.9995618 -0.02859314
vn 1 0 -4.753019E-07
vn 1 0 -4.753019E-07
vn 1 0 -4.753019E-07
vn 1 0 -4.753019E-07
vn -1 0 0
vn -1 0 0
vn -1 0 0
vn -1 0 0

vt 0.0009990335 0.0009996295
vt 0.0009995103 1.999001
vt 1.999001 1.999
vt 1.999001 0.0009991527
vt 4.997502 0.03033321
vt 0.002498627 0.0303327
vt 0.004209727 0.4481332
vt 4.997249 0.4487239
vt 0.002497435 0.05035082
vt 4.997501 0.05035041
vt 4.997249 0.4614686
vt 2.628065 0.9132594
vt 0.004208684 0.461903
vt 4.997129 0.9132592
vt 0.005016327 0.9132597
vt 9.400729 0.9995005
vt -4.400733 0.9995004
vt -4.400733 0.7789237
vt 9.400729 0.7789239
vt 9.400729 0.9995004
vt -4.400733 0.9995005
vt -4.400733 0.7789239
vt 9.400729 0.7789237

usemtl sn19_01_sn1904.JPG
usemap sn19_01_sn1904.JPG
f 3/3/3 1/1/1 2/2/2
f 1/1/1 3/3/3 4/4/4

usemtl sn19_26_sn1902.JPG
usemap sn19_26_sn1902.JPG
f 7/7/7 5/5/5 6/6/6
f 8/8/8 5/5/5 7/7/7
f 11/11/11 9/9/9 10/10/10
f 13/13/13 11/11/11 12/12/12
f 11/11/11 14/14/14 12/12/12
f 9/9/9 11/11/11 13/13/13
f 15/15/15 12/12/12 7/7/7
f 8/8/8 12/12/12 14/14/14
f 8/8/8 7/7/7 12/12/12
f 13/13/13 12/12/12 15/15/15

usemtl sn19_27_sn1903.JPG
usemap sn19_27_sn1903.JPG
f 18/18/18 16/16/16 17/17/17
f 16/16/16 18/18/18 19/19/19
f 22/22/22 20/20/20 21/21/21
f 20/20/20 22/22/22 23/23/23
