mtllib ./Object70.mtl
g Object70
v 47.07251 -69.798 -1552.872
v 47.07251 -69.798 -1752.872
v 47.07251 0.2019958 -1752.872
v 47.07251 0.2019958 -1552.872
v -253.1912 -69.798 -1552.872
v 47.07251 -69.798 -1552.872
v 47.07251 0.2019958 -1552.872
v -253.1912 0.2019958 -1552.872
v 46.39276 -69.79798 -1853.671
v 46.39276 0.2019958 -1853.671
v 47.07251 0.2019958 -1752.872
v 47.07251 -69.798 -1752.872
v 46.39276 0.2019958 -1853.671
v 46.39276 -69.79798 -1853.671
v 19.6181 -69.79798 -1853.665
v -253.0593 -69.79797 -1853.601
v -253.0593 0.2019958 -1853.601
v 19.45361 0.2019958 -1853.665
v -253.4548 -69.798 -1752.872
v -253.1912 -69.798 -1552.872
v -253.4548 0.2019958 -1752.872
v -253.1912 0.2019958 -1552.872
v -253.0593 0.2019958 -1853.601
v -253.0593 -69.79797 -1853.601
v -253.4548 0.2019958 -1752.872
v -253.4548 -69.798 -1752.872
v 19.6181 -69.79798 -1853.665
v 19.6181 -69.79798 -1853.665
v 19.45361 0.2019958 -1853.665
v 46.39276 0.2019958 -1853.671
v 19.45361 0.2019958 -1853.665
v 46.39276 0.2019958 -1853.671

vn 1 0 0
vn 1 0 0
vn 1 0 0
vn 1 0 0
vn 0 0 1
vn 0 0 1
vn 0 0 1
vn 0 0 1
vn 0.9999772 0 -0.00674342
vn 0.9999772 0 -0.006743421
vn 0.9999772 0 -0.00674342
vn 0.9999774 0 -0.006743421
vn -0.000236351 -2.776952E-07 -1
vn -0.000237077 0 -0.9999999
vn -0.0002365925 -1.853193E-07 -1
vn -0.0002346514 -2.756819E-07 -0.9999999
vn -0.0002347222 0 -1
vn -0.0002346514 -2.756819E-07 -0.9999999
vn -0.9999992 0 0.001318206
vn -0.9999992 0 0.001318206
vn -0.9999992 0 0.001318206
vn -0.9999992 0 0.001318206
vn -0.9999922 0 -0.003926267
vn -0.9999923 0 -0.003926268
vn -0.9999923 0 -0.003926268
vn -0.9999923 0 -0.003926267
vn -0.0002345806 -5.511975E-07 -1
vn -0.0002356294 -5.536948E-07 -0.9999999
vn -0.0002356294 -5.536948E-07 -0.9999999
vn -0.0002356294 -5.536948E-07 -0.9999999
vn -0.0002356294 -5.536948E-07 -0.9999999
vn -0.000237077 0 -0.9999999

vt 0.0004995167 0.5004995
vt 0.9995005 0.5004995
vt 0.9995005 0.9995005
vt 0.0004995167 0.9995005
vt 0.0004995465 0.0004995167
vt 0.9995005 0.0004995167
vt 0.9995005 0.4995005
vt 0.0004995465 0.4995005
vt 1.004331 0.5004995
vt 1.004331 0.9995005
vt 0.5077459 0.9995005
vt 0.5077459 0.5004995
vt 0.0004995465 0.4995005
vt 0.0004995465 0.0004995167
vt 0.08982237 0.000499514
vt 0.9995005 0.0004994869
vt 0.996668 0.503332
vt 0.09037118 0.5043315
vt 0.9995005 0.5004995
vt 0.0004995167 0.5004995
vt 0.9995005 0.9995005
vt 0.0004995167 0.9995005
vt 1.004331 0.9995005
vt 1.004331 0.5004995
vt 0.5077459 0.9995005
vt 0.5077459 0.5004995
vt 0.08982237 0.000499514
vt 0.08982237 -0.00433147
vt 0.0004995465 0.4995005
vt 0.0004995465 0.4995005
vt 0.09037118 0.5043315
vt 0.0004995167 0.5043315

usemtl sn19_20_sn1911.jpg
usemap sn19_20_sn1911.jpg
f 3/3/3 1/1/1 2/2/2
f 1/1/1 3/3/3 4/4/4
f 7/7/7 5/5/5 6/6/6
f 5/5/5 7/7/7 8/8/8
f 11/11/11 9/9/9 10/10/10
f 9/9/9 11/11/11 12/12/12
f 15/15/15 13/13/13 14/14/14
f 18/18/18 16/16/16 17/17/17
f 21/21/21 19/19/19 20/20/20
f 20/20/20 22/22/22 21/21/21
f 25/25/25 23/23/23 24/24/24
f 24/24/24 26/26/26 25/25/25
f 27/27/27 16/16/16 18/18/18
f 30/30/30 28/28/28 29/29/29
f 13/13/13 15/15/15 31/31/31
f 15/15/15 32/32/32 14/14/14
