mtllib ./Object21.mtl
g Object21
v -121.0492 32.23288 308.1826
v -125.6955 31.59491 -201.8623
v -305.0312 -25.01764 540.7468
v -304.8559 -25.02386 -156.0105
v 33.26791 32.23251 308.1824
v -121.0492 32.23288 308.1826
v -59.46864 -25.03003 540.7468
v -305.0312 -25.01764 540.7468
v 329.2138 32.23288 308.1824
v 374.0742 -25.01764 540.7468
v 74.95889 -25.01764 61.24707
v 74.3309 -25.01764 -251.6123
v -109.6606 32.23288 293.8115
v -110.4392 31.65817 -205.7095
v 131.7349 -25.01761 61.24707
v 74.95889 -25.01764 61.24707
v 38.99838 32.23288 293.8115
v -109.6606 32.23288 293.8115
v 374.0744 -24.95099 61.24683
v 235.5439 -24.98428 61.24683
v 329.2139 32.23477 293.8108
v 235.5439 -24.98428 61.24683
v 374.0744 -27.49777 300.9968
v 374.0742 -25.01764 540.7468
v 374.0744 -34.00125 300.9968
v 374.0742 -34.00125 540.7468
v 374.0744 -24.95099 61.24683
v 374.0744 -34.00125 61.24683
v 235.5439 -24.98428 61.24683
v 374.0744 -24.95099 61.24683
v 131.7349 -34.00125 61.24707
v 374.0744 -34.00125 61.24683
v 225.7206 -34.00125 61.24683
v 74.95889 -25.01764 61.24707
v 131.7349 -25.01761 61.24707
v 74.95889 -34.00128 61.24707
v 74.3309 -25.01764 -251.6123
v 74.95889 -25.01764 61.24707
v 74.3309 -34.00128 -251.6123
v 74.95889 -34.00128 61.24707
v -305.0312 -34.00131 540.7468
v -304.8559 -34.00131 -156.0105
v -115.3647 -34.00125 300.9971
v -118.0795 -34.00125 -126.3542
v -59.46864 -34.00125 540.7468
v 36.13312 -34.00125 300.9968
v -60.40332 -34.00125 300.9971
v 374.0742 -34.00125 540.7468
v 374.0744 -34.00125 300.9968
v 74.95889 -34.00128 61.24707
v 74.3309 -34.00128 -251.6123
v 84.57401 -34.00125 179.5171
v 131.7349 -34.00125 61.24707
v 374.0744 -34.00125 61.24683
v 225.7206 -34.00125 61.24683
v -128.4512 31.54416 -395.6743
v -304.6806 -25.01767 -439.9951
v -125.6955 31.59491 -201.8623
v -304.8559 -25.02386 -156.0105
v 73.85962 -25.01764 -439.995
v -113.144 31.68219 -395.5662
v -304.6806 -25.01767 -439.9951
v -304.6806 -34.00131 -439.9951
v -304.8559 -25.02386 -156.0105
v -304.8559 -34.00131 -156.0105
v -120.794 -27.66025 -439.9955
v -120.794 -34.00125 -439.9956
v -304.6806 -25.01767 -439.9951
v -304.6806 -34.00131 -439.9951
v 73.85962 -25.01764 -439.995
v 73.85962 -34.00128 -439.995
v 73.85962 -25.01764 -439.995
v 73.85962 -34.00128 -439.995
v -304.6806 -34.00131 -439.9951
v -120.794 -34.00125 -439.9956
v 73.85962 -34.00128 -439.995
v -113.144 31.68219 -395.5662
v 73.85962 -25.01764 -439.995
v -120.7942 28.08176 -398.1887
v -120.794 -27.66025 -439.9955
v -128.4512 31.54416 -395.6743
v -304.6806 -25.01767 -439.9951
v 329.2138 32.23288 308.1824
v 374.0742 -25.01764 540.7468
v 332.4117 27.90598 300.9968
v 374.0744 -27.49777 300.9968
v 329.2139 32.23477 293.8108
v 374.0744 -24.95099 61.24683
v 329.2139 32.23477 293.8108
v 329.2138 32.23288 308.1824
v 332.4117 27.90598 300.9968
v -120.7942 28.08176 -398.1887
v -128.4512 31.54416 -395.6743
v -113.144 31.68219 -395.5662
v -109.6835 39.73285 293.8079
v -110.4622 39.15817 -205.7131
v -121.0721 39.73285 308.1787
v -125.7185 39.09488 -201.866
v 38.97543 39.73285 293.8079
v -109.6835 39.73285 293.8079
v 33.24496 39.73251 308.1787
v -121.0721 39.73285 308.1787
v 329.1909 39.73474 293.8071
v 329.1908 39.73285 308.1787
v -128.4742 39.04416 -395.6781
v -113.1669 39.18216 -395.5699
v -121.0721 39.73285 308.1787
v -125.7185 39.09488 -201.866
v -121.0492 32.23288 308.1826
v -125.6955 31.59491 -201.8623
v 33.24496 39.73251 308.1787
v -121.0721 39.73285 308.1787
v 33.26791 32.23251 308.1824
v -121.0492 32.23288 308.1826
v 329.1908 39.73285 308.1787
v 329.2138 32.23288 308.1824
v -110.4622 39.15817 -205.7131
v -109.6835 39.73285 293.8079
v -110.4392 31.65817 -205.7095
v -109.6606 32.23288 293.8115
v -109.6835 39.73285 293.8079
v 38.97543 39.73285 293.8079
v -109.6606 32.23288 293.8115
v 38.99838 32.23288 293.8115
v 329.1909 39.73474 293.8071
v 329.2139 32.23477 293.8108
v -128.4742 39.04416 -395.6781
v -128.4512 31.54416 -395.6743
v -113.1669 39.18216 -395.5699
v -113.144 31.68219 -395.5662
v 329.1909 39.73474 293.8071
v 329.1908 39.73285 308.1787
v 329.2139 32.23477 293.8108
v 329.2138 32.23288 308.1824
v -128.4742 39.04416 -395.6781
v -113.1669 39.18216 -395.5699
v -128.4512 31.54416 -395.6743
v -113.144 31.68219 -395.5662
v 38.99838 32.23288 293.8115

vn -0.295397 0.9553734 0.001495976
vn -0.2987849 0.9543203 0.0005975395
vn -0.2987849 0.9543203 0.0005975395
vn -0.3013534 0.9535125 -8.433541E-05
vn -1.354654E-05 0.9710046 0.239061
vn 3.112135E-05 0.9710009 0.2390756
vn 4.96685E-07 0.9710016 0.2390733
vn 4.899302E-05 0.9710021 0.2390711
vn -1.201554E-06 0.971011 0.2390346
vn -1.697968E-05 0.9710057 0.2390564
vn 0.2955042 0.9553412 -0.0005931543
vn 0.2930299 0.9561019 -0.001567635
vn 0.293903 0.9558346 -0.001185077
vn 0.2927411 0.956189 -0.002243021
vn -0.0002020375 0.9709924 -0.2391102
vn -1.442447E-07 0.9710111 -0.2390344
vn -0.0001049155 0.9710014 -0.2390737
vn 0 0.9710111 -0.2390343
vn -0.0002333871 0.9710633 -0.2388223
vn -8.009629E-05 0.971049 -0.2388805
vn -8.009629E-05 0.971049 -0.2388805
vn -0.0003122487 0.9709822 -0.2391516
vn 1 0 2.251841E-07
vn 1 0 7.63735E-07
vn 1 0 5.378685E-07
vn 1 0 7.63735E-07
vn 1 0 0
vn 1 0 0
vn -1.003164E-06 -1.552664E-05 -1
vn -6.40148E-07 6.973884E-07 -0.9999999
vn -1.24182E-06 6.776826E-07 -1
vn 0 0 -1
vn -1.007432E-06 1.651404E-05 -1
vn 0 0 -0.9999999
vn -1.123204E-06 0 -0.9999999
vn 0 0 -0.9999999
vn 0.9999976 0 -0.002193094
vn 0.999998 0 -0.002007258
vn 0.9999976 0 -0.002193094
vn 0.999998 0 -0.002007258
vn 2.514681E-07 -1 -1.496199E-08
vn 3.257791E-07 -0.9999999 -9.609719E-10
vn 1.821606E-07 -1 1.191758E-08
vn 1.936337E-08 -1 -3.497129E-10
vn 6.001215E-08 -0.9999999 2.393021E-08
vn 4.833042E-08 -1 -1.884187E-10
vn -2.722895E-13 -1 -1.689652E-07
vn 0 -1 0
vn 0 -1 0
vn -9.7982E-08 -1 4.903251E-08
vn -1.583806E-07 -1 3.473444E-10
vn 0 -1 0
vn 1.715681E-07 -1 1.768277E-07
vn 0 -1 0
vn 0 -0.9999999 0
vn -0.3065354 0.9518505 0.004109211
vn -0.3034457 0.9528474 0.00154995
vn -0.3034457 0.9528474 0.00154995
vn -0.3013722 0.9535066 -0.0001652251
vn 0.2899998 0.9570264 -0.0007255016
vn 0.2911655 0.9566697 -0.002384131
vn -0.9999998 0 -0.0006172621
vn -0.9999998 0 -0.0006172621
vn -0.9999998 0 -0.0006172621
vn -0.9999998 0 -0.000617262
vn 1.50812E-06 1.11372E-05 -1
vn -6.20849E-07 1.140305E-05 -0.9999999
vn -2.266188E-06 7.96562E-06 -1
vn -2.65534E-06 0 -0.9999999
vn 2.508462E-06 0 -1
vn 2.76795E-06 7.96562E-06 -1
vn 0.9999969 0 -0.002501724
vn 0.9999969 0 -0.002501724
vn 3.319175E-07 -1 2.048801E-10
vn 1.566292E-07 -1 -4.199873E-10
vn -1.573643E-07 -0.9999999 9.986291E-10
vn -0.008139728 0.5999908 -0.7999655
vn -0.008142995 0.5999833 -0.7999712
vn -0.007565637 0.599986 -0.7999747
vn 0.0004061672 0.6000028 -0.7999979
vn 0.00862016 0.5999809 -0.7999679
vn 0.008620552 0.5999809 -0.7999678
vn 0.7992225 0.6010031 -0.006216398
vn 0.7992229 0.6010027 -0.006216544
vn 0.7992244 0.6010039 -0.00588421
vn 0.7992384 0.6010141 0.0004030739
vn 0.7992222 0.6010018 0.006384324
vn 0.7992222 0.6010018 0.006384239
vn 0.8042676 0.5942671 8.506954E-05
vn 0.8042676 0.5942671 8.506954E-05
vn 0.8042676 0.5942671 8.506954E-05
vn 0.0004100322 0.5881985 -0.8087165
vn 0.0004100322 0.5881985 -0.8087165
vn 0.0004100322 0.5881985 -0.8087165
vn -0.001448867 0.9999983 -0.001148195
vn -0.003347485 0.999994 -0.0009415026
vn -0.003184997 0.9999942 -0.001184035
vn -0.00536846 0.9999853 -0.0006800304
vn -3.031678E-06 1 6.594955E-05
vn 1.107986E-06 1 1.23396E-05
vn 0 1 1.756129E-05
vn 2.175348E-06 1 1.723915E-06
vn -6.519271E-06 1 0.0001316549
vn -3.800535E-06 1 7.675077E-05
vn -0.009014067 0.9999593 -0.0001335216
vn -0.006583002 0.9999783 2.401389E-05
vn -0.9999538 -0.003051969 0.009113068
vn -0.9999461 -0.003051719 0.009928132
vn -0.9999539 -0.003052118 0.009113067
vn -0.9999313 -0.003050848 0.01131743
vn -2.396303E-10 0.0004882821 0.9999999
vn 7.92183E-07 0.0005045607 0.9999999
vn 4.041081E-07 0.0004965918 0.9999999
vn 1.583307E-06 0.0005208402 0.9999999
vn -5.538628E-10 0.0004882832 0.9999999
vn -5.790373E-10 0.0004882822 0.9999999
vn 0.9999706 0.003052691 -0.007039698
vn 0.9999942 0.003055052 -0.00156225
vn 0.9999889 0.003054046 -0.003587679
vn 0.9999942 0.003055058 -0.00156225
vn 0 -0.0004882832 -0.9999999
vn -1.245032E-06 -0.000488287 -0.9999999
vn 0 -0.0004882832 -0.9999999
vn -2.006605E-06 -0.0004882893 -0.9999998
vn -2.520534E-06 -0.000488291 -0.9999999
vn -2.520534E-06 -0.000488291 -0.9999999
vn -0.9998943 -0.00304896 0.01421772
vn -0.9998943 -0.00304833 0.01421775
vn 0.9998939 0.003050362 -0.01424441
vn 0.9998938 0.003049455 -0.01424437
vn 0.9999953 0.003059898 8.896678E-06
vn 0.9999953 0.003059898 8.896678E-06
vn 0.9999953 0.003059898 8.896678E-06
vn 0.9999953 0.003059898 8.896678E-06
vn 0.007069743 -0.0004829407 -0.9999748
vn 0.00706974 -0.0004829345 -0.9999749
vn 0.00706974 -0.0004829345 -0.9999749
vn 0.007069737 -0.0004829283 -0.9999749
vn -6.926622E-06 0.971042 -0.2389083

vt 5.437645 0.914176
vt 0.8877916 0.9141077
vt 7.512236 0.05416087
vt 1.296812 0.05416832
vt 2.008857 0.9141534
vt 3.576084 0.9141534
vt 2.950679 0.0539974
vt 5.444584 0.0539974
vt -0.6441085 0.9141535
vt -1.099706 0.05399741
vt 3.559009 0.0539974
vt 0.5588346 0.05402355
vt 5.789194 0.9138933
vt 0.9990214 0.9139214
vt 1.213842 0.05399741
vt 0.6694345 0.05399741
vt 0.3246204 0.9140189
vt -1.100826 0.9140189
vt 3.204628 0.0539974
vt 2.209235 0.05399741
vt 2.774476 0.9140189
vt 2.209235 0.05399741
vt 2.000001 1.002396
vt 5.316682 0.9921429
vt 2.000001 0.7815551
vt 5.316682 0.7815551
vt -1.316683 0.9995004
vt -1.316683 0.7815551
vt 2.429051 0.9958221
vt 3.998002 0.9995004
vt 0.8601007 0.7815567
vt 3.998002 0.7815559
vt 2.280584 0.7815564
vt 0.001998305 0.9921429
vt 0.8601007 0.9921438
vt 0.001998305 0.7815551
vt 2.00435 0.9994999
vt 7.048903 0.9995008
vt 2.00435 0.7670976
vt 7.048903 0.7670984
vt 0.0029971 1.999001
vt 4.329516 1.998458
vt 1.491726 1.410914
vt 4.145367 1.419332
vt 0.002997816 1.2376
vt 1.491726 0.9411739
vt 1.491726 1.240499
vt 0.00299871 0.0009996295
vt 1.491727 0.0009990335
vt 2.980455 0.8207893
vt 4.923157 0.8227366
vt 2.246057 0.7909763
vt 2.980455 0.6447475
vt 2.980457 0.0009992123
vt 2.980456 0.3533317
vt -0.7033103 0.9140671
vt -1.098673 0.05417579
vt 0.8877916 0.9141077
vt 1.296812 0.05416832
vt -1.099534 0.05404317
vt -0.673482 0.9140189
vt -0.0001732474 0.3264196
vt -0.0005976364 0.9999998
vt 2.123207E-29 1.0682E-29
vt -0.0002304335 1
vt 1.926972 0.9975494
vt 1.926972 0.7770868
vt -1.120666 0.9995002
vt -1.120666 0.7770834
vt 5.153059 0.9995005
vt 5.153059 0.7770843
vt -0.7840644 0.9994982
vt -0.7840644 0.7670968
vt 5.997 1.997914
vt 5.997003 1.427748
vt 5.997 0.8241979
vt 1.07768 0.44251
vt 3.204629 0.04980066
vt 0.9906679 0.3835434
vt 0.9906695 0.04979071
vt 0.9035781 0.4400786
vt -1.100826 0.04980129
vt 1.116422 0.4720854
vt 3.204629 0.04979595
vt 1.051903 0.4008717
vt 1.051903 0.04979142
vt 0.9873794 0.4720825
vt -1.100825 0.04979279
vt 1.212572 0.4720825
vt 1.287427 0.4720854
vt 1.250001 0.4008717
vt 1.21448 0.3835434
vt 1.163961 0.4400786
vt 1.264954 0.44251
vt 3.914583 0.9259449
vt 1.015018 0.9209526
vt 3.998002 1.000731
vt 1.03735 1.001778
vt 1.464022 0.9164234
vt 0.1059392 0.9164301
vt 1.411671 0.9994866
vt 0.001898164 0.9994975
vt 3.798102 0.9163811
vt 3.7981 0.9994823
vt 0.001997948 1.000328
vt 0.002625585 0.9215981
vt 0.002019644 0.9995005
vt 2.962656 1.000563
vt 0.001998067 0.9164625
vt 2.962634 0.9175248
vt 2.388406 0.9994538
vt 3.798101 0.9995004
vt 2.388197 0.9164319
vt 3.797892 0.9164785
vt 0.002107447 0.9995005
vt 0.001897937 0.9164786
vt 1.036135 0.9937697
vt 3.99798 0.9928821
vt 1.036157 0.9317273
vt 3.998002 0.931581
vt 0.001898277 0.9983391
vt 1.398171 0.9983393
vt 0.002113563 0.9228991
vt 1.398386 0.9228991
vt 3.797887 0.9987417
vt 3.798102 0.9233016
vt 3.998002 1.002264
vt 3.99798 0.9192261
vt 0.001997828 0.9938643
vt 0.002020001 0.932622
vt 0.0005017817 0.9995005
vt 0.1538334 0.9992495
vt 0.0007605255 0.9162094
vt 0.1540921 0.9159584
vt 0.0004992783 0.9983582
vt 0.1405185 0.9995005
vt 0.00199312 0.9207894
vt 0.1420124 0.9219316
vt 0.3246204 0.9140189

usemtl sn19_26_sn1902.JPG
usemap sn19_26_sn1902.JPG
f 3/3/3 1/1/1 2/2/2
f 2/2/2 4/4/4 3/3/3
f 7/7/7 5/5/5 6/6/6
f 6/6/6 8/8/8 7/7/7
f 10/10/10 9/9/9 5/5/5
f 5/5/5 7/7/7 10/10/10
f 13/13/13 11/11/11 12/12/12
f 12/12/12 14/14/14 13/13/13
f 17/17/17 15/15/15 16/16/16
f 16/16/16 18/18/18 17/17/17
f 21/21/21 19/19/19 20/20/20
f 15/15/15 17/17/17 22/22/22
f 58/58/58 56/56/56 57/57/57
f 57/57/57 59/59/59 58/58/58
f 12/12/12 60/60/60 61/61/61
f 61/61/61 14/14/14 12/12/12
f 64/64/64 62/62/62 63/63/63
f 63/63/63 65/65/65 64/64/64
f 79/79/79 77/77/77 78/78/78
f 78/78/78 80/80/80 79/79/79
f 81/81/81 79/79/79 80/80/80
f 80/80/80 82/82/82 81/81/81
f 85/85/85 83/83/83 84/84/84
f 84/84/84 86/86/86 85/85/85
f 87/87/87 85/85/85 86/86/86
f 86/86/86 88/88/88 87/87/87
f 91/91/91 89/89/89 90/90/90
f 94/94/94 92/92/92 93/93/93
f 97/97/97 95/95/95 96/96/96
f 96/96/96 98/98/98 97/97/97
f 101/101/101 99/99/99 100/100/100
f 100/100/100 102/102/102 101/101/101
f 104/104/104 103/103/103 99/99/99
f 99/99/99 101/101/101 104/104/104
f 106/106/106 105/105/105 98/98/98
f 98/98/98 96/96/96 106/106/106
f 109/109/109 107/107/107 108/108/108
f 108/108/108 110/110/110 109/109/109
f 113/113/113 111/111/111 112/112/112
f 112/112/112 114/114/114 113/113/113
f 116/116/116 115/115/115 111/111/111
f 111/111/111 113/113/113 116/116/116
f 119/119/119 117/117/117 118/118/118
f 118/118/118 120/120/120 119/119/119
f 123/123/123 121/121/121 122/122/122
f 122/122/122 124/124/124 123/123/123
f 124/124/124 122/122/122 125/125/125
f 125/125/125 126/126/126 124/124/124
f 110/110/110 108/108/108 127/127/127
f 127/127/127 128/128/128 110/110/110
f 130/130/130 129/129/129 117/117/117
f 117/117/117 119/119/119 130/130/130
f 133/133/133 131/131/131 132/132/132
f 132/132/132 134/134/134 133/133/133
f 137/137/137 135/135/135 136/136/136
f 136/136/136 138/138/138 137/137/137
f 21/21/21 20/20/20 139/139/139

usemtl sn19_27_sn1903.JPG
usemap sn19_27_sn1903.JPG
f 25/25/25 23/23/23 24/24/24
f 24/24/24 26/26/26 25/25/25
f 28/28/28 27/27/27 23/23/23
f 23/23/23 25/25/25 28/28/28
f 31/31/31 29/29/29 30/30/30
f 30/30/30 32/32/32 33/33/33
f 36/36/36 34/34/34 35/35/35
f 35/35/35 31/31/31 36/36/36
f 39/39/39 37/37/37 38/38/38
f 38/38/38 40/40/40 39/39/39
f 68/68/68 66/66/66 67/67/67
f 67/67/67 69/69/69 68/68/68
f 66/66/66 70/70/70 71/71/71
f 71/71/71 67/67/67 66/66/66
f 72/72/72 37/37/37 39/39/39
f 39/39/39 73/73/73 72/72/72
f 30/30/30 33/33/33 31/31/31
f 31/31/31 35/35/35 29/29/29

usemtl sn19_01_sn1904.JPG
usemap sn19_01_sn1904.JPG
f 43/43/43 41/41/41 42/42/42
f 42/42/42 44/44/44 43/43/43
f 46/46/46 45/45/45 41/41/41
f 41/41/41 47/47/47 46/46/46
f 49/49/49 48/48/48 45/45/45
f 45/45/45 46/46/46 49/49/49
f 50/50/50 43/43/43 44/44/44
f 44/44/44 51/51/51 50/50/50
f 52/52/52 46/46/46 47/47/47
f 43/43/43 50/50/50 53/53/53
f 54/54/54 49/49/49 46/46/46
f 46/46/46 55/55/55 54/54/54
f 42/42/42 74/74/74 75/75/75
f 75/75/75 44/44/44 42/42/42
f 44/44/44 75/75/75 76/76/76
f 76/76/76 51/51/51 44/44/44
f 46/46/46 52/52/52 55/55/55
f 52/52/52 53/53/53 55/55/55
f 53/53/53 52/52/52 43/43/43
f 52/52/52 47/47/47 43/43/43
f 41/41/41 43/43/43 47/47/47
