mtllib ./Object75.mtl
g Object75
v -179.3654 9.155273E-05 -179.5649
v -87.64667 25.15411 -88.42749
v 89.15146 23.36835 -88.45178
v 179.3764 9.155273E-05 -179.5305
v -179.3654 9.155273E-05 -179.5649
v -179.3658 9.155273E-05 179.2968
v -87.78122 24.69194 88.11255
v -87.64667 25.15411 -88.42749
v 179.3758 9.155273E-05 179.2688
v 179.3764 9.155273E-05 -179.5305
v 89.15146 23.36835 -88.45178
v 89.08905 23.44307 88.14233
v 7.246735 66.79379 5.738281
v 7.391937 66.70895 -9.09729
v -87.78122 24.69194 88.11255
v -179.3658 9.155273E-05 179.2968
v 179.3758 9.155273E-05 179.2688
v 89.08905 23.44307 88.14233
v -7.171967 66.87473 5.760864
v 7.246735 66.79379 5.738281
v 7.391937 66.70895 -9.09729
v -7.315369 66.81769 -9.135742
v -7.315369 66.81769 -9.135742
v -7.171967 66.87473 5.760864
v -179.3654 9.155273E-05 -179.5649
v 179.3764 9.155273E-05 -179.5305
v 167.6416 -6.512024 -167.7938
v -167.6311 -6.512024 -167.8259
v -179.3658 9.155273E-05 179.2968
v -179.3654 9.155273E-05 -179.5649
v -167.6311 -6.512024 -167.8259
v -167.6314 -6.512024 167.5588
v 179.3764 9.155273E-05 -179.5305
v 179.3758 9.155273E-05 179.2688
v 167.6411 -6.512024 167.5327
v 167.6416 -6.512024 -167.7938
v 179.3758 9.155273E-05 179.2688
v -179.3658 9.155273E-05 179.2968
v -167.6314 -6.512024 167.5588
v 167.6411 -6.512024 167.5327
v -167.6311 -6.512024 -167.8259
v 167.6416 -6.512024 -167.7938
v 0.0050354 -21.05948 -0.1320801
v -167.6314 -6.512024 167.5588
v 167.6411 -6.512024 167.5327
v -7.315369 66.81769 -9.135742
v -7.171967 66.87473 5.760864
v 7.246735 66.79379 5.738281
v 7.391937 66.70895 -9.09729

vn 0.003227063 0.966314 -0.2573458
vn 0.009259867 0.9261072 -0.3771466
vn 0.004594144 0.950604 -0.3103726
vn 2.384591E-05 0.9686319 -0.2485002
vn -0.262402 0.9649584 0.0007668772
vn -0.2603125 0.9655244 -2.324381E-07
vn -0.314597 0.9492247 0.001059565
vn -0.3638777 0.9314442 0.002161148
vn 0.2510221 0.9679814 -0.0001055498
vn 0.2507274 0.9680577 4.26511E-07
vn 0.3095567 0.9508809 -0.0001385427
vn 0.3619958 0.9321797 -0.0002665013
vn 0.4682225 0.8836105 -0.0002286962
vn 0.468003 0.8837267 -0.0004730168
vn 0.003233552 0.9516853 0.3070579
vn 2.036714E-05 0.9652317 0.2613963
vn 0.002253529 0.9668611 0.2552929
vn 0.006513977 0.9337687 0.3578179
vn 0.006152557 0.8875262 0.4607162
vn 0.005702778 0.8873142 0.4611301
vn 0.008754759 0.881444 -0.4722074
vn 0.00775268 0.8819531 -0.4712734
vn -0.4620055 0.8868749 0.001898259
vn -0.4628009 0.8864616 0.001061034
vn 4.650513E-05 -0.8744391 -0.4851353
vn 4.655229E-05 -0.8744385 -0.4851364
vn 4.650513E-05 -0.8744391 -0.4851353
vn 4.645468E-05 -0.8744397 -0.4851342
vn -0.4852465 -0.8743774 -4.372731E-07
vn -0.4852464 -0.8743774 -4.33286E-07
vn -0.4852465 -0.8743774 -4.372731E-07
vn -0.4852466 -0.8743773 -4.415392E-07
vn 0.4852347 -0.8743839 8.10676E-07
vn 0.4852351 -0.8743837 8.254307E-07
vn 0.4852347 -0.8743839 8.10676E-07
vn 0.4852343 -0.8743841 7.948885E-07
vn 3.780355E-05 -0.874424 0.4851624
vn 3.780515E-05 -0.874424 0.4851623
vn 3.780355E-05 -0.874424 0.4851624
vn 3.780184E-05 -0.874424 0.4851624
vn -0.04330623 -0.9981233 -0.04329595
vn 0.04331074 -0.9981229 -0.04329958
vn -1.544247E-09 -1 0
vn -0.04330701 -0.9981233 0.04329585
vn 0.04330997 -0.9981229 0.04329969
vn 0.006514326 0.9999675 -0.004771257
vn 0.005606819 0.9999768 -0.003882767
vn 0.006514326 0.9999675 -0.004771257
vn 0.007407645 0.9999565 -0.005645861

vt 3.998001 0.05771158
vt 2.989361 0.5132021
vt 0.9938455 0.5132021
vt 0.001998186 0.05771158
vt 0.001998186 0.05692645
vt 3.998002 0.05692643
vt 2.994349 0.5143802
vt 1.005651 0.5144104
vt 0.001998186 0.05655039
vt 3.998002 0.05655037
vt 2.994349 0.5140334
vt 1.005651 0.5140557
vt 1.911804 0.8947767
vt 2.122196 0.8947523
vt 2.990675 0.5126727
vt 3.998002 0.0574575
vt 0.001999497 0.05745749
vt 0.9948124 0.5126727
vt 2.104428 0.8936865
vt 1.894763 0.8936926
vt 1.892408 0.8936502
vt 2.10676 0.8936424
vt 1.876854 0.8942867
vt 2.088922 0.8943109
vt 0.4457537 1.000474
vt 8.331118 1.00047
vt 8.123007 0.6203933
vt 0.653634 0.621161
vt 0.003996372 0.9998684
vt 7.892159 0.999859
vt 7.682645 0.7652215
vt 0.213384 0.7652345
vt 7.996004 0.999499
vt 0.1093049 0.999499
vt 0.3180649 0.7710801
vt 7.787271 0.7710801
vt 7.996004 0.9995012
vt 0.1110618 0.9994972
vt 0.3189392 0.7735354
vt 7.787918 0.7731693
vt 0.002003074 0.001998067
vt 3.998002 0.002381444
vt 1.999999 2.000018
vt 0.001998067 3.998002
vt 3.997994 3.997691
vt 0.1251044 0.9183739
vt 0.1153641 0.9995005
vt 0.01036289 0.9979789
vt 0.0004995465 0.9209534

usemtl sn19_26_sn1902.JPG
usemap sn19_26_sn1902.JPG
f 3/3/3 1/1/1 2/2/2
f 1/1/1 3/3/3 4/4/4
f 7/7/7 5/5/5 6/6/6
f 5/5/5 7/7/7 8/8/8
f 11/11/11 9/9/9 10/10/10
f 9/9/9 11/11/11 12/12/12
f 11/11/11 13/13/13 12/12/12
f 13/13/13 11/11/11 14/14/14
f 17/17/17 15/15/15 16/16/16
f 15/15/15 17/17/17 18/18/18
f 18/18/18 19/19/19 15/15/15
f 19/19/19 18/18/18 20/20/20
f 2/2/2 21/21/21 3/3/3
f 21/21/21 2/2/2 22/22/22
f 7/7/7 23/23/23 8/8/8
f 23/23/23 7/7/7 24/24/24
f 48/48/48 46/46/46 47/47/47
f 49/49/49 46/46/46 48/48/48

usemtl sn19_27_sn1903.JPG
usemap sn19_27_sn1903.JPG
f 27/27/27 25/25/25 26/26/26
f 25/25/25 27/27/27 28/28/28
f 31/31/31 29/29/29 30/30/30
f 29/29/29 31/31/31 32/32/32
f 35/35/35 33/33/33 34/34/34
f 33/33/33 35/35/35 36/36/36
f 39/39/39 37/37/37 38/38/38
f 37/37/37 39/39/39 40/40/40

usemtl sn19_01_sn1904.JPG
usemap sn19_01_sn1904.JPG
f 43/43/43 41/41/41 42/42/42
f 43/43/43 44/44/44 41/41/41
f 43/43/43 42/42/42 45/45/45
f 43/43/43 45/45/45 44/44/44
