mtllib ./Object94.mtl
g Object94
v -141.19 -8.095131 5.076416
v -141.19 -8.075714 17.77148
v -42.83138 -8.075714 17.77148
v -42.83138 -8.095131 5.076416
v -141.19 -8.075714 17.77148
v -141.19 -14.76229 17.77148
v -42.83138 -14.76229 17.77148
v -42.83138 -8.075714 17.77148
v -141.19 -14.76229 17.77148
v -141.19 -14.76229 29.94702
v -42.83138 -14.76229 29.94702
v -42.83138 -14.76229 17.77148
v -141.19 -14.76229 29.94702
v -141.19 -22.20579 29.81665
v -42.83138 -22.20579 29.81665
v -42.83138 -14.76229 29.94702
v -141.19 -22.20579 29.81665
v -141.19 -22.21348 42.75842
v -42.83138 -22.21348 42.75842
v -42.83138 -22.20579 29.81665
v -141.19 -22.21348 42.75842
v -141.19 -29.91075 42.76208
v -42.83138 -29.91075 42.76208
v -42.83138 -22.21348 42.75842
v -141.19 -29.91075 42.76208
v -141.19 -29.763 56.01501
v -42.83138 -29.763 56.01501
v -42.83138 -29.91075 42.76208
v -141.19 -29.763 56.01501
v -141.19 -37.16943 56.02917
v -42.83138 -37.16943 56.02917
v -42.83138 -29.763 56.01501
v -141.19 -37.16943 56.02917
v -141.19 -37.19154 69.0614
v -42.83138 -37.19154 69.0614
v -42.83138 -37.16943 56.02917
v -141.19 -37.19154 69.0614
v -141.19 -43.80851 69.05664
v -42.83138 -43.80851 69.05664
v -42.83138 -37.19154 69.0614
v -141.19 -43.80851 69.05664
v -141.19 -43.80851 80.64526
v -42.83138 -43.80851 80.64526
v -42.83138 -43.80851 69.05664
v -141.19 -43.80851 80.64526
v -141.19 -49.87646 80.64526
v -42.83138 -49.87646 80.64526
v -42.83138 -43.80851 80.64526

vn 0 0.9999988 -0.001529475
vn 0 0.9999988 -0.001529475
vn 0 0.9999988 -0.001529475
vn 0 0.9999988 -0.001529475
vn 0 0 0.9999999
vn 0 0 0.9999999
vn 0 0 0.9999999
vn 0 0 0.9999999
vn 0 1 0
vn 0 1 0
vn 0 1 0
vn 0 1 0
vn 0 -0.01751208 0.9998466
vn 0 -0.01751208 0.9998466
vn 0 -0.01751208 0.9998466
vn 0 -0.01751208 0.9998466
vn 0 0.9999998 0.0005948225
vn 0 0.9999998 0.0005948225
vn 0 0.9999998 0.0005948225
vn 0 0.9999998 0.0005948225
vn 0 0.0004757675 0.9999999
vn 0 0.0004757675 0.9999999
vn 0 0.0004757675 0.9999999
vn 0 0.0004757675 0.9999999
vn 0 0.9999378 -0.01114771
vn 0 0.9999378 -0.01114771
vn 0 0.9999378 -0.01114771
vn 0 0.9999378 -0.01114771
vn 0 0.001911871 0.9999982
vn 0 0.001911871 0.9999982
vn 0 0.001911871 0.9999982
vn 0 0.001911871 0.9999982
vn 0 0.9999986 0.00169656
vn 0 0.9999986 0.00169656
vn 0 0.9999986 0.00169656
vn 0 0.9999986 0.00169656
vn 0 -0.0007194736 0.9999997
vn 0 -0.0007194736 0.9999997
vn 0 -0.0007194736 0.9999997
vn 0 -0.0007194736 0.9999997
vn 0 0.9999999 -6.583521E-07
vn 0 0.9999999 -6.583521E-07
vn 0 0.9999999 -6.583521E-07
vn 0 0.9999999 -6.583521E-07
vn 0 0 1
vn 0 0 1
vn 0 0 1
vn 0 0 1

vt 0.9402851 0.004216254
vt 0.9402851 0.2950953
vt 0.08402666 0.295096
vt 0.08402663 0.00421685
vt 0.05971485 1.677564
vt 0.05971485 1.410368
vt 0.9159733 1.410368
vt 0.9159733 1.677564
vt 0.9402851 0.2950953
vt 0.9402852 0.5740725
vt 0.08402669 0.574073
vt 0.08402666 0.295096
vt 0.05971482 1.410368
vt 0.05971482 1.112926
vt 0.9159733 1.112926
vt 0.9159733 1.410368
vt 0.9402852 0.5710843
vt 0.9402852 0.8676175
vt 0.08402672 0.8676181
vt 0.08402669 0.5710849
vt 0.05971479 1.112618
vt 0.05971479 0.8050352
vt 0.9159733 0.8050352
vt 0.9159733 1.112618
vt 0.9402852 0.8677009
vt 0.9402852 1.171364
vt 0.08402675 1.171365
vt 0.08402672 0.8677015
vt 0.05971476 0.8109393
vt 0.05971476 0.5149782
vt 0.9159732 0.5149782
vt 0.9159732 0.8109393
vt 0.9402852 1.171687
vt 0.9402853 1.470295
vt 0.08402678 1.470296
vt 0.08402675 1.171688
vt 0.05971473 0.5140947
vt 0.05971473 0.24968
vt 0.9159732 0.24968
vt 0.9159732 0.5140947
vt 0.9402853 1.470186
vt 0.9402853 1.735714
vt 0.08402681 1.735715
vt 0.08402678 1.470187
vt 0.0597147 0.2496803
vt 0.0597147 0.007204831
vt 0.9159732 0.007204831
vt 0.9159732 0.2496803

usemtl sn19_64_sn19416.jpg
usemap sn19_64_sn19416.jpg
f 3/3/3 1/1/1 2/2/2
f 4/4/4 1/1/1 3/3/3
f 7/7/7 5/5/5 6/6/6
f 8/8/8 5/5/5 7/7/7
f 11/11/11 9/9/9 10/10/10
f 12/12/12 9/9/9 11/11/11
f 15/15/15 13/13/13 14/14/14
f 16/16/16 13/13/13 15/15/15
f 19/19/19 17/17/17 18/18/18
f 20/20/20 17/17/17 19/19/19
f 23/23/23 21/21/21 22/22/22
f 24/24/24 21/21/21 23/23/23
f 27/27/27 25/25/25 26/26/26
f 28/28/28 25/25/25 27/27/27
f 31/31/31 29/29/29 30/30/30
f 32/32/32 29/29/29 31/31/31
f 35/35/35 33/33/33 34/34/34
f 36/36/36 33/33/33 35/35/35
f 39/39/39 37/37/37 38/38/38
f 40/40/40 37/37/37 39/39/39
f 43/43/43 41/41/41 42/42/42
f 44/44/44 41/41/41 43/43/43
f 47/47/47 45/45/45 46/46/46
f 48/48/48 45/45/45 47/47/47
