mtllib ./Object24.mtl
g Object24
v 53.15286 -5.602089 -173.4313
v 53.15286 -5.602089 173.1797
v -53.53995 -5.602089 173.1797
v -53.53995 -5.602089 -173.4313
v -11.43704 15.80119 -154.512
v -53.53995 0.0002822876 -173.4313
v -27.58075 16.1437 -154.512
v -53.53995 0.0002822876 -173.4313
v -53.53995 0.0002822876 173.1797
v -27.61734 15.83517 154.2604
v -27.58075 16.1437 -154.512
v 53.15289 0.0002822876 173.1797
v 53.15289 0.0002822876 -173.4313
v 28.03104 14.96381 -154.512
v 28.01758 14.99084 -0.1257324
v -0.0004577637 38.66421 -1.66687
v 28.00412 15.01786 154.2604
v -0.0004577637 42.03239 -145.5878
v -0.0004577637 39.83546 -51.71411
v 28.03104 14.96381 -154.512
v -53.53995 0.0002822876 173.1797
v 53.15289 0.0002822876 173.1797
v -27.61734 15.83517 154.2604
v 53.15289 0.0002822876 -173.4313
v -1.932495 0.0002822876 -173.4313
v 28.03104 14.96381 -154.512
v 28.00412 15.01786 154.2604
v -0.0004577637 42.03239 145.3362
v -0.0004577637 38.66421 -1.66687
v -0.0004577637 42.03239 145.3362
v -0.0004577637 39.83546 -51.71411
v -11.86826 30.89249 -149.4279
v -0.0004577637 42.03239 -145.5878
v -0.0004577637 42.03239 145.3362
v 159.8457 -5.602089 -173.4313
v 159.8457 -5.602089 138.9573
v 134.3377 14.96381 -154.512
v 78.72592 16.1437 -154.512
v 53.15289 0.0002822876 -173.4313
v 53.15289 0.0002822876 173.1797
v 78.68936 15.83517 138.8704
v 78.72592 16.1437 -154.512
v 159.8457 0.0002822876 138.9573
v 159.8457 0.0002822876 -173.4313
v 134.3377 14.96381 -154.512
v 106.3062 38.66421 -1.666748
v 134.3108 15.01786 138.8704
v 106.3062 42.03239 -145.5878
v 159.8457 0.0002822876 138.9573
v 78.68936 15.83517 138.8704
v 159.8457 0.0002822876 -173.4313
v 134.3108 15.01786 138.8704
v 106.3062 42.03239 138.6587
v 106.3062 38.66421 -1.666748
v 78.68936 15.83517 138.8704
v 106.3062 42.03239 138.6587
v 106.3062 42.03239 -145.5878
v 78.72592 16.1437 -154.512
v 106.3062 42.03239 -145.5878
v 106.3062 38.66421 -1.666748
v 106.3062 42.03239 138.6587
v 53.15289 0.0002822876 173.1797
v -53.53995 0.0002822876 173.1797
v -53.53995 -5.602089 173.1797
v 53.15286 -5.602089 173.1797
v -53.53995 0.0002822876 173.1797
v -53.53995 0.0002822876 -173.4313
v -53.53995 -5.602089 -173.4313
v -53.53995 -5.602089 173.1797
v -1.932495 0.0002822876 -173.4313
v 53.15289 0.0002822876 -173.4313
v 53.15286 -5.602089 -173.4313
v -53.53995 -5.602089 -173.4313
v -53.53995 0.0002822876 -173.4313
v 159.8457 0.0002822876 -173.4313
v 159.8457 0.0002822876 138.9573
v 159.8457 -5.602089 138.9573
v 159.8457 -5.602089 -173.4313
v 159.8457 0.0002822876 138.9573
v 159.8457 -5.602089 138.9573
v 159.8457 0.0002822876 -173.4313
v 159.8457 -5.602089 -173.4313
v -11.86826 30.89249 -149.4279
v -0.0004577637 39.83546 -51.71411
v 28.01758 14.99084 -0.1257324
v -0.0004577637 42.03239 -145.5878

vn 0 -1 0
vn 0 -1 0
vn 0 -1 0
vn 0 -1 0
vn 0.008101774 0.6226424 -0.7824646
vn 0.003858735 0.7632791 -0.6460575
vn 0.01278718 0.602698 -0.7978669
vn -0.5247046 0.8512841 0.0003714609
vn -0.5212892 0.85338 0
vn -0.5854134 0.8107322 -0.002135305
vn -0.6008615 0.7993479 0.002892512
vn 0.5122168 0.8588562 -4.979948E-05
vn 0.5117373 0.8591419 0
vn 0.512051 0.858955 -3.258911E-05
vn 0.5746973 0.8183638 0.001905728
vn 0.66808 0.7440748 -0.004682053
vn 0.6290951 0.7773051 -0.006006442
vn 0.6973034 0.7165798 0.01677009
vn 0.6768475 0.7360948 0.006470457
vn 0.6768475 0.7360948 0.006470457
vn 0 0.7668482 0.6418285
vn 0.07713922 0.8106705 0.5803989
vn 0.004255454 0.667069 0.7449839
vn 0.004208844 0.7754605 -0.6313821
vn 0.004439658 0.774924 -0.6320389
vn 0.007108139 0.6527525 -0.7575378
vn 0.00822047 0.5594407 0.8288296
vn 0.004673257 0.3180366 0.9480669
vn -0.6606141 0.7507251 -0.0009002114
vn -0.6909303 0.7227316 -0.01655945
vn -0.6872129 0.7262573 0.01699659
vn -0.6872128 0.7262573 0.01699659
vn 0.006777311 0.3194264 -0.9475868
vn 0.6968833 0.7169963 -0.01642804
vn 0 -1 0
vn 0 -1 0
vn 0.006132543 0.6658477 -0.7460625
vn 0.01150087 0.5420697 -0.8402548
vn -0.5303329 0.8477895 0.0003784138
vn -0.5269943 0.8498688 0
vn -0.5682247 0.8228732 0.000504323
vn -0.5898786 0.8074915 0.0007756833
vn 0.5064507 0.8622689 -5.438775E-05
vn 0.5059853 0.8625422 0
vn 0.5842451 0.8115727 0.002710628
vn 0.6714113 0.7410849 -3.594546E-05
vn 0.6105653 0.7919564 -0.003877922
vn 0.6973035 0.7165798 0.0167701
vn 0.1430448 0.7367555 0.6608552
vn 0.1106176 0.5719585 0.8127897
vn 0 0.7843335 -0.6203393
vn 0.0001063709 0.007239019 0.9999738
vn 0.0001169116 0.00795636 0.9999683
vn -0.6877922 0.7259076 -1.139524E-05
vn -0.6881792 0.7253318 -0.01740987
vn -0.6881792 0.7253318 -0.01740987
vn -0.6872123 0.7262577 0.01699658
vn -0.6872123 0.7262577 0.01699658
vn 0.006777145 0.3194265 -0.9475868
vn -0.634912 0.7725841 0.0007333607
vn 0.6942351 0.7195411 -0.01727088
vn 0.1063129 -5.415062E-07 0.9943327
vn 0 0 1
vn 0 0 1
vn 0.2091101 -5.325526E-07 0.977892
vn -1 0 0
vn -1 0 0
vn -1 0 0
vn -1 0 0
vn 0 0 -1
vn 0 0 -1
vn 0 0 -1
vn 0 0 -1
vn 0 0 -1
vn 1 0 0
vn 1 0 0
vn 1 0 0
vn 1 0 0
vn 0.305429 -7.778534E-07 0.9522149
vn 0.3054289 0 0.9522149
vn 0 0 -1
vn 0 0 -1
vn 0.006777593 0.3194261 -0.947587
vn 0.6447213 0.7642083 0.01788479
vn 0.6635392 0.7481414 -7.3147E-05
vn -0.6872128 0.7262573 0.01699658

vt 2 0.001999378
vt 2 3.998001
vt 3.998002 3.998
vt 3.998001 0.001998305
vt 3.209554 0.6793051
vt 3.989241 0.1425098
vt 3.511872 0.6793048
vt 0.002497733 0.1333505
vt 4.997502 0.1333498
vt 4.724857 0.4841928
vt 0.2751434 0.4848764
vt 0.002497733 0.9923422
vt 4.997502 0.9923416
vt 4.724857 0.5940726
vt 2.5 0.5938675
vt 2.522208 0.1673292
vt 0.275144 0.5936623
vt 4.596251 0.1673295
vt 3.243439 0.1673293
vt 4.724857 0.5940726
vt 0.00650754 0.1561108
vt 2.005411 0.1639957
vt 0.4874424 0.6793107
vt 1.990652 0.1425131
vt 3.022521 0.1425114
vt 2.470448 0.6793059
vt 1.529047 0.679309
vt 1.004615 0.9995003
vt 2.477793 0.9995002
vt 4.596251 0.9994999
vt 1.756562 0.9995003
vt 0.3484106 0.7780578
vt 2.995385 0.9994963
vt 0.4037505 0.1673289
vt 0.001998186 0.002000213
vt 0.001998901 3.998002
vt 0.4796779 0.6793098
vt 1.521102 0.6793088
vt 3.031438 0.07189053
vt -2.031438 0.07189224
vt -1.530289 0.41562
vt 2.755087 0.4150971
vt -1.531558 0.07548992
vt 3.031437 0.07548879
vt 2.755087 0.438899
vt 0.5225088 0.8382623
vt -1.530289 0.4392841
vt 2.624733 0.8382618
vt 3.992948 0.1561023
vt 2.478213 0.6793054
vt -0.01378071 0.1425157
vt 3.519818 0.6793038
vt 2.995385 0.9994948
vt 0.5225088 0.8382623
vt -1.530289 0.41562
vt -1.527198 0.8382629
vt 2.624733 0.8382618
vt 2.755087 0.4150971
vt 1.004615 0.9995006
vt 0.5225088 0.8382623
vt -1.527198 0.8382629
vt 1.69481 0.998058
vt -2.868154 0.9977041
vt -2.868899 0.7958357
vt 1.693135 0.7958352
vt 8.543793 0.9966826
vt -2.870801 0.9966826
vt -2.870801 0.7931168
vt 8.543793 0.7931167
vt 4.031355 0.9970937
vt 1.68638 0.9970939
vt 1.688046 0.7958994
vt 6.2441 0.795899
vt 6.240116 0.9970937
vt 8.544967 0.9960633
vt -2.870801 0.9959906
vt -2.870801 0.7931167
vt 8.543793 0.7931167
vt 6.248587 0.9977037
vt 6.253655 0.7958347
vt -2.881551 0.997094
vt -2.871131 0.7958997
vt 3.21763 0.8617179
vt 3.243439 0.1673293
vt 2.5 0.5938675
vt 0.4037501 0.9995005

usemtl sn19_01_sn1904.JPG
usemap sn19_01_sn1904.JPG
f 3/3/3 1/1/1 2/2/2
f 1/1/1 3/3/3 4/4/4
f 2/2/2 35/35/35 36/36/36
f 35/35/35 2/2/2 1/1/1

usemtl sn19_39_sn1917.JPG
usemap sn19_39_sn1917.JPG
f 7/7/7 5/5/5 6/6/6
f 10/10/10 8/8/8 9/9/9
f 11/11/11 8/8/8 10/10/10
f 14/14/14 12/12/12 13/13/13
f 17/17/17 15/15/15 16/16/16
f 20/20/20 18/18/18 19/19/19
f 23/23/23 21/21/21 22/22/22
f 12/12/12 15/15/15 17/17/17
f 26/26/26 24/24/24 25/25/25
f 28/28/28 23/23/23 27/27/27
f 27/27/27 23/23/23 22/22/22
f 30/30/30 29/29/29 10/10/10
f 32/32/32 29/29/29 31/31/31
f 33/33/33 26/26/26 5/5/5
f 11/11/11 10/10/10 29/29/29
f 17/17/17 16/16/16 34/34/34
f 38/38/38 37/37/37 24/24/24
f 41/41/41 39/39/39 40/40/40
f 42/42/42 39/39/39 41/41/41
f 45/45/45 43/43/43 44/44/44
f 47/47/47 45/45/45 46/46/46
f 45/45/45 48/48/48 46/46/46
f 50/50/50 22/22/22 49/49/49
f 43/43/43 45/45/45 47/47/47
f 37/37/37 51/51/51 24/24/24
f 53/53/53 50/50/50 52/52/52
f 52/52/52 50/50/50 49/49/49
f 56/56/56 54/54/54 55/55/55
f 58/58/58 54/54/54 57/57/57
f 59/59/59 37/37/37 38/38/38
f 42/42/42 41/41/41 60/60/60
f 47/47/47 46/46/46 61/61/61
f 26/26/26 25/25/25 5/5/5
f 5/5/5 25/25/25 6/6/6
f 33/33/33 5/5/5 83/83/83
f 83/83/83 5/5/5 7/7/7
f 11/11/11 29/29/29 32/32/32
f 15/15/15 84/84/84 16/16/16
f 12/12/12 14/14/14 15/15/15
f 85/85/85 20/20/20 19/19/19
f 32/32/32 31/31/31 86/86/86

usemtl sn19_27_sn1903.JPG
usemap sn19_27_sn1903.JPG
f 64/64/64 62/62/62 63/63/63
f 62/62/62 64/64/64 65/65/65
f 68/68/68 66/66/66 67/67/67
f 66/66/66 68/68/68 69/69/69
f 72/72/72 70/70/70 71/71/71
f 74/74/74 72/72/72 73/73/73
f 77/77/77 75/75/75 76/76/76
f 75/75/75 77/77/77 78/78/78
f 65/65/65 79/79/79 62/62/62
f 79/79/79 65/65/65 80/80/80
f 82/82/82 71/71/71 81/81/81
f 71/71/71 82/82/82 72/72/72
f 72/72/72 74/74/74 70/70/70
