mtllib ./Object36.mtl
g Object36
v -51.29425 -23.81717 0.0004272461
v 0.0003662109 -23.81717 142.1451
v -102.5889 -23.81717 142.1451
v -102.5889 -23.81717 142.1451
v -102.5889 -23.81717 -142.1442
v -51.29425 -23.81717 0.0004272461
v -24.15521 -3.251274 -125.618
v -102.5889 -18.2148 -142.1442
v -77.62811 -2.071381 -125.618
v -102.5889 -18.2148 -142.1442
v -102.5889 -18.2148 142.1451
v -77.66327 -2.379913 142.0462
v -77.62811 -2.071381 -125.618
v 0.0004272461 -18.2148 142.1451
v 0.0004272461 -18.2148 -142.1442
v -24.15521 -3.251274 -125.618
v -51.10858 20.44913 -2.27533
v -24.18109 -3.19722 142.0462
v -51.10858 23.81731 -117.8226
v -102.5889 -18.2148 142.1451
v 0.0004272461 -18.2148 142.1451
v -77.66327 -2.379913 142.0462
v 0.0004272461 -18.2148 -142.1442
v -24.18109 -3.19722 142.0462
v -51.10858 23.81731 141.7537
v -51.10858 20.44913 -2.27533
v -51.10858 23.81731 141.7537
v -51.10858 23.81731 -117.8226
v -51.10858 23.81731 -117.8226
v -51.10858 23.81731 141.7537
v 51.29504 -23.81717 0.0004272461
v 102.5897 -23.81717 142.1451
v 0.0003662109 -23.81717 142.1451
v 0.0003662109 -23.81717 -142.1442
v 51.29504 -23.81717 0.0004272461
v 78.06274 -3.251274 -125.618
v 24.58984 -2.071381 -125.618
v 0.0004272461 -18.2148 -142.1442
v 0.0004272461 -18.2148 142.1451
v 24.55469 -2.379913 142.0462
v 24.58984 -2.071381 -125.618
v 102.5897 -18.2148 142.1451
v 102.5897 -18.2148 -142.1442
v 78.06274 -3.251274 -125.618
v 51.10938 20.44913 -2.275208
v 78.03687 -3.19722 142.0462
v 51.10938 23.81731 -117.8226
v 102.5897 -18.2148 142.1451
v 24.55469 -2.379913 142.0462
v 102.5897 -18.2148 -142.1442
v 78.03687 -3.19722 142.0462
v 51.10938 23.81731 141.7537
v 51.10938 20.44913 -2.275208
v 51.10938 23.81731 141.7537
v 51.10938 23.81731 -117.8226
v 51.10938 23.81731 -117.8226
v 51.10938 23.81731 141.7537
v -102.5889 -23.81717 142.1451
v 0.0003662109 -23.81717 142.1451
v -102.5889 -18.2148 142.1451
v -102.5889 -18.2148 -142.1442
v -102.5889 -23.81717 -142.1442
v -102.5889 -23.81717 142.1451
v 0.0003662109 -23.81717 -142.1442
v -102.5889 -23.81717 -142.1442
v 102.5897 -18.2148 -142.1442
v 102.5897 -18.2148 142.1451
v 102.5897 -23.81717 142.1451
v 102.5897 -23.81717 -142.1442
v 102.5897 -23.81717 142.1451
v 102.5897 -23.81717 -142.1442
v -102.5889 -23.81717 -142.1442
v 0.0003662109 -23.81717 -142.1442
v 0.0003662109 -23.81717 -142.1442
v 0.0003662109 -23.81717 142.1451
v 102.5897 -23.81717 -142.1442
v 102.5897 -23.81717 -142.1442
v 102.5897 -23.81717 142.1451

vn 0 -1 0
vn 0 -1 0
vn 0 -1 0
vn 0 -1 0
vn 0 -1 0
vn 0 -1 0
vn 0.00588868 0.6147788 -0.7886777
vn 0.004421474 0.5848197 -0.8111511
vn 0.01083051 0.49084 -0.8711824
vn -0.5397663 0.8418148 0.0004361803
vn -0.5362279 0.8440732 0
vn -0.6030253 0.7977183 -0.00242002
vn -0.6227275 0.7824239 0.00482248
vn 0.5270785 0.8498166 -5.851216E-05
vn 0.5266098 0.8501071 0
vn 0.6003358 0.7997423 0.003008381
vn 0.685757 0.7278307 -3.876092E-05
vn 0.6300383 0.7765535 -0.004088292
vn 0.7114069 0.7024819 0.02047721
vn 0 0.00461234 0.9999893
vn 1.40381E-05 0.004442771 0.9999902
vn 8.349637E-05 0.00811169 0.9999671
vn 0.002740928 0.600855 -0.7993533
vn 0.0001449756 0.009486781 0.9999551
vn 0.0001680024 0.01099359 0.9999395
vn -0.6766435 0.7363107 0.0003826911
vn -0.7022946 0.7116917 -0.01664321
vn -0.7015128 0.7123544 0.02076499
vn 0.006232564 0.2824605 -0.9592587
vn 0.7082397 0.7057791 -0.01650494
vn 0 -0.9999999 0
vn 0 -0.9999999 0
vn 0 -1 0
vn 0 -1 0
vn 0 -0.9999999 0
vn 0.005889099 0.6148223 -0.7886437
vn 0.01083207 0.4909108 -0.8711425
vn -0.5455087 0.8381051 0.0004337413
vn -0.541968 0.8403991 0
vn -0.6062223 0.7952916 -0.00243657
vn -0.6249821 0.7806242 0.0048346
vn 0.521283 0.8533839 -5.913325E-05
vn 0.5208126 0.853671 0
vn 0.5970241 0.8022177 0.00299111
vn 0.685757 0.7278306 -3.876092E-05
vn 0.6278931 0.7782888 -0.004075259
vn 0.7114071 0.7024819 0.02047719
vn 2.271864E-05 0.004338311 0.9999906
vn 8.350302E-05 0.008112334 0.9999672
vn 0 0.626393 -0.7795075
vn 0.0001449955 0.009488085 0.999955
vn 0.0001680024 0.01099359 0.9999395
vn -0.6766435 0.7363107 0.0003826911
vn -0.7022946 0.7116919 -0.01664322
vn -0.7015128 0.7123543 0.02076497
vn 0.006232564 0.2824605 -0.9592587
vn 0.7082396 0.7057791 -0.01650495
vn 0 0 0.9999999
vn 0 0 0.9999999
vn -0.9999999 0 0
vn -0.9999999 0 0
vn -0.9999999 0 0
vn -0.9999999 0 0
vn 0 0 -1
vn 0 0 -1
vn 0.9999999 0 0
vn 0.9999999 0 0
vn 0.9999999 0 0
vn 0.9999999 0 0
vn 0 0 1
vn 0 0 -0.9999999
vn 0 -1 0
vn 0 -1 0
vn 0 -1 0
vn 0 -1 0
vn 0 -0.9999999 0
vn 0 -1 0
vn 0 -1 0

vt 2.999001 2
vt 2 3.998001
vt 3.998002 3.998
vt 2.998502 0.0004995763
vt 0.001498997 0.0005002916
vt 1.5 0.5000001
vt 2.470448 0.6793059
vt 3.989241 0.1425098
vt 3.511872 0.6793048
vt 3.373923 0.1460382
vt -2.273551 0.1460393
vt -2.271587 0.5356751
vt 3.045625 0.5351006
vt -2.273551 0.1411843
vt 3.373922 0.1411832
vt 3.045625 0.5352809
vt 0.5953944 0.975024
vt -2.271587 0.5357043
vt 2.890767 0.9750234
vt 0.00650754 0.1561108
vt 2.005411 0.1639957
vt 0.4874424 0.6793107
vt 1.990652 0.1425131
vt 1.529047 0.679309
vt 1.004615 0.9995003
vt 0.5953944 0.975024
vt -2.265777 0.9750245
vt 2.890767 0.9750234
vt 2.995385 0.9994963
vt -2.265777 0.9750245
vt 1.000999 2
vt 0.001998901 3.998002
vt 2.998502 0.0004993677
vt 0.001499265 0.000500083
vt 1.500001 0.5000002
vt 0.4796779 0.6793098
vt 1.521102 0.6793088
vt 3.420805 0.1689449
vt -2.317275 0.1689459
vt -2.315279 0.5635877
vt 3.08724 0.5630425
vt -2.317275 0.1854687
vt 3.420804 0.1854677
vt 3.08724 0.5652477
vt 0.5976961 0.9826
vt -2.315279 0.5656494
vt 2.929897 0.9825996
vt 3.992948 0.1561023
vt 2.478213 0.6793054
vt -0.01378071 0.1425157
vt 3.519818 0.6793038
vt 2.995385 0.9994948
vt 0.5976961 0.9826
vt -2.309376 0.9826006
vt 2.929897 0.9825996
vt 1.004615 0.9995006
vt -2.309376 0.9826006
vt 0.005378282 0.0236297
vt 2.002478 0.02362514
vt 4.997502 0.1333498
vt 0.002497733 0.1333505
vt 0.002497733 0.0005002618
vt 4.997502 0.0004995167
vt 1.993569 0.02417133
vt 3.990984 0.02416805
vt 4.998016 0.1195519
vt 0.002497733 0.1179311
vt 0.002497733 0.0004999416
vt 4.997502 0.0004997176
vt 3.995166 0.0236212
vt 0.001998186 0.02417398
vt 3.998001 0.001998305
vt 2 0.001999378
vt 0.001499265 0.9995006
vt 2.998502 0.9994999
vt 0.001998186 0.002000213
vt 0.001499534 0.9995004
vt 2.998502 0.9994997

usemtl sn19_01_sn1904.JPG
usemap sn19_01_sn1904.JPG
f 3/3/3 1/1/1 2/2/2
f 6/6/6 4/4/4 5/5/5
f 2/2/2 31/31/31 32/32/32
f 35/35/35 33/33/33 34/34/34
f 73/73/73 1/1/1 72/72/72
f 6/6/6 74/74/74 75/75/75
f 76/76/76 31/31/31 73/73/73
f 35/35/35 77/77/77 78/78/78

usemtl sn19_00_sn1906.JPG
usemap sn19_00_sn1906.JPG
f 9/9/9 7/7/7 8/8/8
f 12/12/12 10/10/10 11/11/11
f 13/13/13 10/10/10 12/12/12
f 16/16/16 14/14/14 15/15/15
f 18/18/18 16/16/16 17/17/17
f 16/16/16 19/19/19 17/17/17
f 22/22/22 20/20/20 21/21/21
f 14/14/14 16/16/16 18/18/18
f 7/7/7 23/23/23 8/8/8
f 25/25/25 22/22/22 24/24/24
f 24/24/24 22/22/22 21/21/21
f 27/27/27 26/26/26 12/12/12
f 13/13/13 26/26/26 28/28/28
f 29/29/29 7/7/7 9/9/9
f 13/13/13 12/12/12 26/26/26
f 18/18/18 17/17/17 30/30/30
f 37/37/37 36/36/36 23/23/23
f 40/40/40 38/38/38 39/39/39
f 41/41/41 38/38/38 40/40/40
f 44/44/44 42/42/42 43/43/43
f 46/46/46 44/44/44 45/45/45
f 44/44/44 47/47/47 45/45/45
f 49/49/49 21/21/21 48/48/48
f 42/42/42 44/44/44 46/46/46
f 36/36/36 50/50/50 23/23/23
f 52/52/52 49/49/49 51/51/51
f 51/51/51 49/49/49 48/48/48
f 54/54/54 53/53/53 40/40/40
f 41/41/41 53/53/53 55/55/55
f 56/56/56 36/36/36 37/37/37
f 41/41/41 40/40/40 53/53/53
f 46/46/46 45/45/45 57/57/57
f 58/58/58 21/21/21 20/20/20
f 21/21/21 58/58/58 59/59/59
f 62/62/62 60/60/60 61/61/61
f 60/60/60 62/62/62 63/63/63
f 64/64/64 8/8/8 23/23/23
f 8/8/8 64/64/64 65/65/65
f 68/68/68 66/66/66 67/67/67
f 66/66/66 68/68/68 69/69/69
f 59/59/59 48/48/48 21/21/21
f 48/48/48 59/59/59 70/70/70
f 71/71/71 23/23/23 50/50/50
f 23/23/23 71/71/71 64/64/64
