mtllib ./Object74.mtl
g Object74
v -179.3662 0.0004577637 -179.5653
v -87.64743 25.15448 -88.42786
v 89.1507 23.36871 -88.45215
v 179.3756 0.0004577637 -179.5309
v -179.3662 0.0004577637 -179.5653
v -179.3665 0.0004577637 179.2964
v -87.78195 24.69231 88.11218
v -87.64743 25.15448 -88.42786
v 179.375 0.0004577637 179.2684
v 179.3756 0.0004577637 -179.5309
v 89.1507 23.36871 -88.45215
v 89.08829 23.44344 88.14197
v 7.245987 66.79416 5.737915
v 7.391205 66.70932 -9.097656
v -87.78195 24.69231 88.11218
v -179.3665 0.0004577637 179.2964
v 179.375 0.0004577637 179.2684
v 89.08829 23.44344 88.14197
v -7.172699 66.87509 5.760498
v 7.245987 66.79416 5.737915
v 7.391205 66.70932 -9.097656
v -7.316101 66.81805 -9.136108
v -7.316101 66.81805 -9.136108
v -7.172699 66.87509 5.760498
v -179.3662 0.0004577637 -179.5653
v 179.3756 0.0004577637 -179.5309
v 167.6409 -6.511658 -167.7942
v -167.6319 -6.511658 -167.8263
v -179.3665 0.0004577637 179.2964
v -179.3662 0.0004577637 -179.5653
v -167.6319 -6.511658 -167.8263
v -167.6322 -6.511658 167.5585
v 179.3756 0.0004577637 -179.5309
v 179.375 0.0004577637 179.2684
v 167.6403 -6.511658 167.5323
v 167.6409 -6.511658 -167.7942
v 179.375 0.0004577637 179.2684
v -179.3665 0.0004577637 179.2964
v -167.6322 -6.511658 167.5585
v 167.6403 -6.511658 167.5323
v -167.6319 -6.511658 -167.8263
v 167.6409 -6.511658 -167.7942
v 0.00428772 -21.05911 -0.1324463
v -167.6322 -6.511658 167.5585
v 167.6403 -6.511658 167.5323
v -7.172699 66.87509 5.760498
v 7.245987 66.79416 5.737915
v 7.391205 66.70932 -9.097656
v -7.316101 66.81805 -9.136108

vn 0.003227063 0.966314 -0.2573458
vn 0.009259867 0.9261073 -0.3771466
vn 0.004594143 0.9506039 -0.3103726
vn 2.384591E-05 0.9686319 -0.2485002
vn -0.262402 0.9649584 0.0007668847
vn -0.2603124 0.9655244 -2.435065E-07
vn -0.314597 0.9492247 0.001059589
vn -0.3638777 0.9314442 0.002161209
vn 0.251022 0.9679813 -0.000105557
vn 0.2507274 0.9680577 4.158482E-07
vn 0.3095567 0.9508809 -0.0001385407
vn 0.3619958 0.9321797 -0.0002665014
vn 0.4682226 0.8836105 -0.0002286687
vn 0.4680036 0.8837264 -0.0004726582
vn 0.003233553 0.9516854 0.3070579
vn 2.036714E-05 0.9652317 0.2613963
vn 0.002253529 0.9668611 0.2552929
vn 0.006513978 0.9337687 0.3578179
vn 0.006152559 0.8875262 0.4607163
vn 0.005702785 0.8873141 0.4611302
vn 0.008754758 0.881444 -0.4722074
vn 0.00775268 0.8819531 -0.4712734
vn -0.4620055 0.8868751 0.001898329
vn -0.4628009 0.8864616 0.001061034
vn 4.650514E-05 -0.8744391 -0.4851354
vn 4.655229E-05 -0.8744385 -0.4851364
vn 4.650514E-05 -0.8744391 -0.4851354
vn 4.645469E-05 -0.8744398 -0.4851342
vn -0.4852458 -0.8743778 -4.479376E-07
vn -0.4852459 -0.8743777 -4.539182E-07
vn -0.4852458 -0.8743778 -4.479376E-07
vn -0.4852457 -0.8743779 -4.415384E-07
vn 0.485234 -0.8743843 8.00008E-07
vn 0.4852341 -0.8743843 8.047934E-07
vn 0.485234 -0.8743843 8.00008E-07
vn 0.4852339 -0.8743843 7.948877E-07
vn 3.780356E-05 -0.8744241 0.4851623
vn 3.780515E-05 -0.8744242 0.4851623
vn 3.780356E-05 -0.8744241 0.4851623
vn 3.780186E-05 -0.8744241 0.4851624
vn -0.04330623 -0.9981232 -0.04329594
vn 0.04331074 -0.9981229 -0.04329958
vn -1.544248E-09 -1 -2.171383E-09
vn -0.04330701 -0.9981232 0.04329584
vn 0.04330999 -0.9981229 0.0432997
vn 0.006514328 0.9999674 -0.004771254
vn 0.005603988 0.9999682 -0.005663576
vn 0.006514328 0.9999674 -0.004771254
vn 0.007403143 0.999965 -0.003900015

vt 3.998001 0.05771158
vt 2.989361 0.5132021
vt 0.9938455 0.5132021
vt 0.001998186 0.05771158
vt 0.001998186 0.05692645
vt 3.998002 0.05692643
vt 2.994349 0.5143802
vt 1.005651 0.5144104
vt 0.001998186 0.05655039
vt 3.998002 0.05655037
vt 2.994349 0.5140334
vt 1.005651 0.5140557
vt 1.911804 0.8947767
vt 2.122196 0.8947523
vt 2.990675 0.5126727
vt 3.998002 0.0574575
vt 0.001999497 0.05745749
vt 0.9948124 0.5126727
vt 2.104428 0.8936865
vt 1.894763 0.8936926
vt 1.892408 0.8936502
vt 2.10676 0.8936424
vt 1.876854 0.8942867
vt 2.088922 0.8943109
vt 0.4457537 1.000474
vt 8.331118 1.00047
vt 8.123007 0.6203933
vt 0.653634 0.621161
vt 0.003996372 0.9998684
vt 7.892159 0.999859
vt 7.682645 0.7652215
vt 0.213384 0.7652345
vt 7.996004 0.999499
vt 0.1093049 0.999499
vt 0.3180649 0.7710801
vt 7.787271 0.7710801
vt 7.996004 0.9995012
vt 0.1110618 0.9994972
vt 0.3189392 0.7735354
vt 7.787918 0.7731693
vt 0.002003074 0.001998067
vt 3.998002 0.002381444
vt 1.999999 2.000018
vt 0.001998067 3.998002
vt 3.997994 3.997691
vt 0.1161277 0.9958583
vt 0.005624116 0.9979789
vt 0.005238323 0.9161224
vt 0.1195098 0.9171852

usemtl sn19_26_sn1902.JPG
usemap sn19_26_sn1902.JPG
f 3/3/3 1/1/1 2/2/2
f 1/1/1 3/3/3 4/4/4
f 7/7/7 5/5/5 6/6/6
f 5/5/5 7/7/7 8/8/8
f 11/11/11 9/9/9 10/10/10
f 9/9/9 11/11/11 12/12/12
f 11/11/11 13/13/13 12/12/12
f 13/13/13 11/11/11 14/14/14
f 17/17/17 15/15/15 16/16/16
f 15/15/15 17/17/17 18/18/18
f 18/18/18 19/19/19 15/15/15
f 19/19/19 18/18/18 20/20/20
f 2/2/2 21/21/21 3/3/3
f 21/21/21 2/2/2 22/22/22
f 7/7/7 23/23/23 8/8/8
f 23/23/23 7/7/7 24/24/24
f 48/48/48 46/46/46 47/47/47
f 49/49/49 46/46/46 48/48/48

usemtl sn19_27_sn1903.JPG
usemap sn19_27_sn1903.JPG
f 27/27/27 25/25/25 26/26/26
f 25/25/25 27/27/27 28/28/28
f 31/31/31 29/29/29 30/30/30
f 29/29/29 31/31/31 32/32/32
f 35/35/35 33/33/33 34/34/34
f 33/33/33 35/35/35 36/36/36
f 39/39/39 37/37/37 38/38/38
f 37/37/37 39/39/39 40/40/40

usemtl sn19_01_sn1904.JPG
usemap sn19_01_sn1904.JPG
f 43/43/43 41/41/41 42/42/42
f 43/43/43 44/44/44 41/41/41
f 43/43/43 42/42/42 45/45/45
f 43/43/43 45/45/45 44/44/44
