mtllib ./tan.mtl
g tan
v 48.00164 -29.74517 21.16495
v 52.15404 -29.07319 -20.38006
v -11.18605 -37.27536 23.77365
v -9.492701 -33.50736 -24.57769
v -59.94359 -29.05695 16.46483
v -66.78976 -28.18462 -26.44004
v 49.00009 -28.66839 66.43783
v -10.83881 -27.98761 61.80776
v -69.94371 -27.7798 60.37785
v 52.15404 -29.07319 -20.38006
v 48.00164 -29.74517 21.16495
v -11.14151 -39.7014 23.83206
v -9.492701 -33.50736 -24.57769
v -59.94359 -29.05695 16.46483
v -66.78976 -28.18462 -26.44004
v -10.83881 -27.98761 61.80776
v -69.94371 -27.7798 60.37785

vn 0.05688713 0.9965446 -0.06052038
vn -0.06682771 0.994507 -0.08056011
vn 0.02037719 0.9997197 0.01204428
vn -0.07951088 0.9946909 0.06533128
vn -0.05590249 0.9864137 0.1544758
vn -0.02914118 0.9934314 0.1106567
vn 0 0 0
vn 0.1351976 0.9906732 -0.01697578
vn 0.09379364 0.9900724 0.1046879
vn 0.09207252 -0.9906746 0.1004331
vn -0.07706547 -0.9932178 0.08705996
vn -0.02037719 -0.9997197 -0.01204428
vn 0.1137746 -0.9905535 -0.07654436
vn 0.07597757 -0.98027 -0.1824778
vn 0.02914118 -0.9934313 -0.1106567
vn -0.1732523 -0.984422 0.02995221
vn -0.1196129 -0.9844971 -0.1282899

vt 0.03414205 0.5119216
vt 0.0004995167 0.06443039
vt 0.5187207 0.5407025
vt 0.5052725 0.01992601
vt 0.9179978 0.4625137
vt 0.9744193 0.0004994869
vt 0.02558073 0.9995005
vt 0.5155593 0.9503057
vt 0.9995005 0.9355699
vt 0.0004995167 0.06443039
vt 0.03414205 0.5119216
vt 0.5162722 0.5449374
vt 0.5032381 0.02344504
vt 0.9179979 0.4625137
vt 0.9744194 0.0004995167
vt 0.5155593 0.9503056
vt 0.9995005 0.9355698

usemtl sn19_36_sn1940.JPG
usemap sn19_36_sn1940.JPG
f 3/3/3 1/1/1 2/2/2
f 2/2/2 4/4/4 3/3/3
f 5/5/5 3/3/3 4/4/4
f 4/4/4 6/6/6 5/5/5
f 8/8/8 7/7/7 1/1/1
f 1/1/1 3/3/3 8/8/8
f 9/9/9 8/8/8 3/3/3
f 3/3/3 5/5/5 9/9/9
f 12/12/12 10/10/10 11/11/11
f 10/10/10 12/12/12 13/13/13
f 14/14/14 13/13/13 12/12/12
f 13/13/13 14/14/14 15/15/15
f 16/16/16 11/11/11 7/7/7
f 11/11/11 16/16/16 12/12/12
f 17/17/17 12/12/12 16/16/16
f 12/12/12 17/17/17 14/14/14
