mtllib ./yin2.mtl
g yin2
v -99.70387 50.00011 -50
v -200 50.00011 -49.99988
v -99.70382 50.00011 50
v -199.9999 50.00011 50.00012
v 200.0001 50.00011 49.99988
v 200 50.00011 -50.00012
v 100.0429 50.00011 50
v 100.0428 50.00011 -50
v -99.70383 0.0001144409 149.4
v -199.9999 0.0001144409 149.4001
v 200.0002 98.82647 248.8519
v 99.58576 99.00257 248.8735
v -99.0021 99.00257 348.8735
v 99.58575 99.00257 348.8735
v -99.00213 99.00257 248.8735
v 200.0002 99.00257 348.8734
v -199.9998 99.00257 248.8737
v -199.9998 99.00257 348.8737
v -199.9999 148.7194 48.98389
v -99.00223 148.7194 48.98376
v 99.58559 148.9184 49.18628
v -99.00228 148.9184 -50.81372
v 99.58556 148.9184 -50.81372
v 200 148.9184 -50.81384
v 200.0001 148.9184 49.18616
v -200 148.9184 -50.8136
v 200.0002 198.5457 248.8904
v 99.58569 198.5457 248.8905
v -99.0021 198.5717 348.8735
v 99.58575 198.5717 348.8735
v -99.00213 198.5717 248.8735
v 200.0002 198.5717 348.8734
v -199.9998 198.5717 248.8737
v -199.9998 198.5717 348.8737
v -199.9999 248.3724 49.18628
v -99.00223 248.3724 49.18628
v 99.58559 248.4875 49.18628
v -99.00228 248.4875 -50.81372
v 99.58556 248.4875 -50.81372
v 200 248.4875 -50.81384
v 200.0001 248.4875 49.18616
v -200 248.4875 -50.8136
v 200.0002 299.169 248.8126
v 99.58569 299.169 248.8127
v -99.0021 299.1209 348.8735
v 99.58575 299.1209 348.8735
v -99.00213 299.1209 248.8735
v 200.0002 299.1209 348.8734
v -199.9998 299.1209 248.8737
v -199.9998 299.1209 348.8737
v -199.9999 349.019 49.2085
v -99.00223 349.019 49.2085
v 99.58559 349.0367 49.18628
v -99.00228 349.0367 -50.81372
v 99.58556 349.0367 -50.81372
v 200 349.0367 -50.81384
v 200.0001 349.0367 49.18616
v -200 349.0367 -50.8136
v -99.0021 399.8301 348.8735
v 99.58575 399.8301 348.8735
v -99.00213 399.8301 248.8735
v 99.58569 399.634 248.9288
v 200.0002 399.634 248.9288
v 200.0002 399.8301 348.8734
v -199.9998 399.8301 248.8737
v -199.9998 399.8301 348.8737
v -199.9999 449.7458 49.18628
v -99.00226 449.7458 49.1864
v 99.58559 449.7458 49.18628
v -99.00228 449.7458 -50.81372
v 99.58556 449.7458 -50.81372
v 200 449.7458 -50.81384
v 200.0001 449.7458 49.18616
v -200 449.7458 -50.8136
v 200.0002 498.7177 248.8038
v 99.58569 498.7177 248.804
v -99.0021 498.6776 348.8735
v 99.58575 498.6776 348.8735
v -99.00213 498.6776 248.8735
v 200.0002 498.6776 348.8734
v -199.9998 498.6776 248.8737
v -199.9998 498.6776 348.8737

vn 0 1 0
vn 0 1 0
vn 8.699739E-08 0.9974421 0.0714793
vn 3.862708E-07 0.9483017 0.31737
vn -1.969128E-07 0.986915 -0.1612419
vn 0 1 0
vn 0.0004222902 0.9925442 -0.1218848
vn 0 1 0
vn 5.46927E-07 0.8933462 0.4493692
vn 5.469271E-07 0.8933461 0.4493692
vn 0.0008491185 0.9868434 -0.1616766
vn 0.001029159 0.9951672 -0.09818915
vn 0 1 0
vn 0.0002944712 1 -0.000295692
vn 1.204211E-07 0.9950242 0.0996332
vn -2.140343E-09 0.9999985 -0.001760636
vn 1.976756E-07 0.9865348 0.1635515
vn 0 1 0
vn 1.985758E-07 0.9864111 0.1642963
vn -0.0003950536 0.994894 0.1009247
vn -0.0001983535 0.9950957 -0.09891607
vn -0.0003324812 0.999999 0.001331867
vn 0 1 0
vn 0 1 0
vn -1.985949E-07 0.9865659 -0.1633632
vn 2.409402E-09 0.999998 0.001993474
vn -1.987073E-07 0.9865506 -0.1634557
vn 5.173782E-05 0.9950446 -0.0994298
vn 0 1 0
vn 4.353542E-05 1 -0.0001738882
vn 2.589739E-05 0.9950083 0.09979238
vn -3.165093E-10 1 -0.0002603591
vn 1.981301E-07 0.9864724 0.1639275
vn 0 1 0
vn 9.928785E-08 0.9864111 0.1642962
vn -0.00022842 0.9949353 0.1005173
vn -0.0001147395 0.9948719 -0.1011438
vn -0.0001920681 0.9999996 0.0007693935
vn 0 1 0
vn 0 1 0
vn -2.027483E-07 0.9859942 -0.1667798
vn 1.390931E-09 0.9999993 0.001150819
vn -2.025212E-07 0.9860258 -0.166593
vn -9.595224E-05 0.9948815 -0.101049
vn 0 1 0
vn -8.044515E-05 0.9999999 0.0003213122
vn -4.76995E-05 0.9949754 0.1001196
vn 5.84698E-10 0.9999999 0.0004809698
vn 1.985215E-07 0.9864184 0.1642513
vn 0 1 0
vn 9.928785E-08 0.986411 0.1642962
vn -3.506994E-05 0.9949746 0.1001285
vn -1.765483E-05 0.9948722 -0.10114
vn -2.94858E-05 1 0.0001181153
vn 0 1 0
vn 0 1 0
vn -2.023447E-07 0.9860502 -0.1664478
vn 2.135164E-10 1 0.0001766577
vn 0 1 0
vn 0.0003280544 0.999999 -0.001310306
vn 0.0001946578 0.9950179 0.09969643
vn 0.0003906144 0.9947465 -0.1023681
vn -1.015718E-07 0.9859391 -0.167105
vn -2.385308E-09 0.999998 -0.001962143
vn 1.985756E-07 0.986411 0.1642961
vn 0 1 0
vn 0 0.9864111 0.1642962
vn -1.209469E-07 0.9949806 0.1000682
vn -1.191164E-07 0.9951879 -0.09798463
vn 0 1 0
vn 0 1 0
vn 0 1 0
vn -1.960955E-07 0.9869043 -0.1613073
vn 0 1 0
vn -1.958951E-07 0.9869311 -0.1611424
vn -7.986891E-05 0.9952151 -0.09770806
vn 0 1 0
vn -6.692318E-05 1 0.0002673031
vn -6.680868E-05 0.9999999 0.0001326739
vn 4.864022E-10 0.9999999 0.0004001122
vn 0 1 0
vn 0 1 0

vt 0.7490108 0.002533466
vt 0.9995005 0.002533525
vt 0.7490107 0.2524791
vt 0.9995005 0.2524791
vt 0.0004997849 0.252479
vt 0.0004997849 0.002533346
vt 0.250143 0.252479
vt 0.250143 0.002533406
vt 0.7490108 0.5009251
vt 0.9995004 0.5009251
vt 0.0004996657 0.7495009
vt 0.2512848 0.7495548
vt 0.7472583 0.9995004
vt 0.2512849 0.9995004
vt 0.7472584 0.7495548
vt 0.0004995763 0.9995003
vt 0.9995003 0.7495549
vt 0.9995003 0.9995005
vt 0.9995004 0.2499391
vt 0.7472585 0.2499391
vt 0.2512851 0.2504452
vt 0.7472585 0.0004996061
vt 0.2512851 0.0004995465
vt 0.0004997849 0.0004994869
vt 0.0004997849 0.2504451
vt 0.9995005 0.0004996657
vt 0.0004996657 0.7495971
vt 0.251285 0.7495972
vt 0.7472583 0.9995004
vt 0.2512849 0.9995004
vt 0.7472584 0.7495548
vt 0.0004995763 0.9995003
vt 0.9995003 0.7495549
vt 0.9995003 0.9995005
vt 0.9995004 0.2504451
vt 0.7472585 0.250445
vt 0.2512851 0.2504452
vt 0.7472585 0.0004996061
vt 0.2512851 0.0004995465
vt 0.0004997849 0.0004994869
vt 0.0004997849 0.2504451
vt 0.9995005 0.0004996657
vt 0.0004996657 0.7494027
vt 0.251285 0.7494028
vt 0.7472583 0.9995004
vt 0.2512849 0.9995004
vt 0.7472584 0.7495548
vt 0.0004995763 0.9995003
vt 0.9995003 0.7495549
vt 0.9995003 0.9995005
vt 0.9995004 0.2505006
vt 0.7472585 0.2505006
vt 0.2512851 0.2504452
vt 0.7472585 0.0004996061
vt 0.2512851 0.0004995465
vt 0.0004997849 0.0004994869
vt 0.0004997849 0.2504451
vt 0.9995005 0.0004996657
vt 0.7472583 0.9995004
vt 0.2512849 0.9995004
vt 0.7472584 0.7495548
vt 0.251285 0.749693
vt 0.0004996657 0.749693
vt 0.0004995763 0.9995003
vt 0.9995003 0.7495549
vt 0.9995003 0.9995005
vt 0.9995005 0.2504452
vt 0.7472585 0.2504453
vt 0.2512851 0.2504452
vt 0.7472585 0.0004996061
vt 0.2512851 0.0004995465
vt 0.0004997849 0.0004994869
vt 0.0004997849 0.2504451
vt 0.9995005 0.0004996657
vt 0.0004996657 0.7493807
vt 0.251285 0.7493808
vt 0.7472583 0.9995004
vt 0.2512849 0.9995004
vt 0.7472584 0.7495548
vt 0.0004995763 0.9995003
vt 0.9995003 0.7495549
vt 0.9995003 0.9995005

usemtl sn19_49_sn19410.jpg
usemap sn19_49_sn19410.jpg
f 3/3/3 1/1/1 2/2/2
f 2/2/2 4/4/4 3/3/3
f 7/7/7 5/5/5 6/6/6
f 6/6/6 8/8/8 7/7/7
f 3/3/3 7/7/7 8/8/8
f 8/8/8 1/1/1 3/3/3
f 9/9/9 3/3/3 4/4/4
f 4/4/4 10/10/10 9/9/9
f 11/11/11 5/5/5 7/7/7
f 7/7/7 12/12/12 11/11/11
f 15/15/15 13/13/13 14/14/14
f 14/14/14 12/12/12 15/15/15
f 11/11/11 12/12/12 14/14/14
f 14/14/14 16/16/16 11/11/11
f 15/15/15 17/17/17 18/18/18
f 18/18/18 13/13/13 15/15/15
f 19/19/19 17/17/17 15/15/15
f 15/15/15 20/20/20 19/19/19
f 22/22/22 20/20/20 21/21/21
f 21/21/21 23/23/23 22/22/22
f 24/24/24 23/23/23 21/21/21
f 21/21/21 25/25/25 24/24/24
f 22/22/22 26/26/26 19/19/19
f 19/19/19 20/20/20 22/22/22
f 27/27/27 25/25/25 21/21/21
f 21/21/21 28/28/28 27/27/27
f 31/31/31 29/29/29 30/30/30
f 30/30/30 28/28/28 31/31/31
f 27/27/27 28/28/28 30/30/30
f 30/30/30 32/32/32 27/27/27
f 31/31/31 33/33/33 34/34/34
f 34/34/34 29/29/29 31/31/31
f 35/35/35 33/33/33 31/31/31
f 31/31/31 36/36/36 35/35/35
f 38/38/38 36/36/36 37/37/37
f 37/37/37 39/39/39 38/38/38
f 40/40/40 39/39/39 37/37/37
f 37/37/37 41/41/41 40/40/40
f 38/38/38 42/42/42 35/35/35
f 35/35/35 36/36/36 38/38/38
f 43/43/43 41/41/41 37/37/37
f 37/37/37 44/44/44 43/43/43
f 47/47/47 45/45/45 46/46/46
f 46/46/46 44/44/44 47/47/47
f 43/43/43 44/44/44 46/46/46
f 46/46/46 48/48/48 43/43/43
f 47/47/47 49/49/49 50/50/50
f 50/50/50 45/45/45 47/47/47
f 51/51/51 49/49/49 47/47/47
f 47/47/47 52/52/52 51/51/51
f 54/54/54 52/52/52 53/53/53
f 53/53/53 55/55/55 54/54/54
f 56/56/56 55/55/55 53/53/53
f 53/53/53 57/57/57 56/56/56
f 54/54/54 58/58/58 51/51/51
f 51/51/51 52/52/52 54/54/54
f 61/61/61 59/59/59 60/60/60
f 60/60/60 62/62/62 61/61/61
f 63/63/63 62/62/62 60/60/60
f 60/60/60 64/64/64 63/63/63
f 61/61/61 65/65/65 66/66/66
f 66/66/66 59/59/59 61/61/61
f 63/63/63 57/57/57 53/53/53
f 53/53/53 62/62/62 63/63/63
f 67/67/67 65/65/65 61/61/61
f 61/61/61 68/68/68 67/67/67
f 70/70/70 68/68/68 69/69/69
f 69/69/69 71/71/71 70/70/70
f 72/72/72 71/71/71 69/69/69
f 69/69/69 73/73/73 72/72/72
f 70/70/70 74/74/74 67/67/67
f 67/67/67 68/68/68 70/70/70
f 75/75/75 73/73/73 69/69/69
f 69/69/69 76/76/76 75/75/75
f 79/79/79 77/77/77 78/78/78
f 78/78/78 76/76/76 79/79/79
f 75/75/75 76/76/76 78/78/78
f 78/78/78 80/80/80 75/75/75
f 79/79/79 81/81/81 82/82/82
f 82/82/82 77/77/77 79/79/79
