mtllib ./ying.mtl
g ying
v 99.70386 50.00037 50.00024
v 200 50.00037 50.00024
v 99.70386 50.00037 -49.99976
v 200 50.00037 -49.99976
v -200 50.00037 -49.99976
v -200 50.00037 50.00024
v -100.0428 50.00037 -49.99976
v -100.0428 50.00037 50.00024
v 99.70386 0.0003738403 -149.3998
v 200 0.0003738403 -149.3998
v -200.0001 98.82673 -248.8517
v -99.58569 99.00283 -248.8733
v 99.0022 99.00283 -348.8733
v -99.58563 99.00283 -348.8733
v 99.0022 99.00283 -248.8733
v -200.0001 99.00283 -348.8733
v 199.9999 99.00283 -248.8733
v 199.9999 99.00283 -348.8733
v 200 148.7197 -48.98352
v 99.00232 148.7197 -48.98352
v -99.58557 148.9186 -49.18604
v 99.00232 148.9186 50.81396
v -99.58551 148.9186 50.81396
v -200 148.9186 50.81396
v -200 148.9186 -49.18604
v 200 148.9186 50.81396
v -200.0001 198.546 -248.8903
v -99.58563 198.546 -248.8903
v 99.0022 198.572 -348.8733
v -99.58563 198.572 -348.8733
v 99.0022 198.572 -248.8733
v -200.0001 198.572 -348.8733
v 199.9999 198.572 -248.8733
v 199.9999 198.572 -348.8733
v 200 248.3727 -49.18604
v 99.00232 248.3727 -49.18591
v -99.58557 248.4878 -49.18604
v 99.00232 248.4878 50.81396
v -99.58551 248.4878 50.81396
v -200 248.4878 50.81396
v -200 248.4878 -49.18604
v 200 248.4878 50.81396
v -200.0001 299.1693 -248.8125
v -99.58563 299.1693 -248.8125
v 99.0022 299.1211 -348.8733
v -99.58563 299.1211 -348.8733
v 99.0022 299.1211 -248.8733
v -200.0001 299.1211 -348.8733
v 199.9999 299.1211 -248.8733
v 199.9999 299.1211 -348.8733
v 200 349.0192 -49.20825
v 99.00232 349.0192 -49.20813
v -99.58557 349.0369 -49.18604
v 99.00232 349.0369 50.81396
v -99.58551 349.0369 50.81396
v -200 349.0369 50.81396
v -200 349.0369 -49.18604
v 200 349.0369 50.81396
v 99.0022 399.8303 -348.8733
v -99.58563 399.8303 -348.8733
v 99.0022 399.8303 -248.8733
v -99.58563 399.6342 -248.9286
v -200.0001 399.6342 -248.9286
v -200.0001 399.8303 -348.8733
v 199.9999 399.8303 -248.8733
v 199.9999 399.8303 -348.8733
v 200 449.7461 -49.18604
v 99.00232 449.7461 -49.18604
v -99.58557 449.7461 -49.18604
v 99.00232 449.7461 50.81396
v -99.58551 449.7461 50.81396
v -200 449.7461 50.81396
v -200 449.7461 -49.18604
v 200 449.7461 50.81396
v -200.0001 498.718 -248.8036
v -99.58563 498.718 -248.8037
v 99.0022 498.6779 -348.8733
v -99.58563 498.6779 -348.8733
v 99.0022 498.6779 -248.8733
v -200.0001 498.6779 -348.8733
v 199.9999 498.6779 -248.8733
v 199.9999 498.6779 -348.8733

vn 0 1 0
vn 0 1 0
vn 0 0.9974421 -0.07147931
vn 0 0.9483019 -0.31737
vn 0 0.9869149 0.1612419
vn 0 1 0
vn -0.0004223644 0.9925442 0.1218849
vn 0 1 0
vn 0 0.8933461 -0.4493691
vn 0 0.8933461 -0.4493691
vn -0.0008492171 0.9868435 0.1616766
vn -0.001029159 0.9951673 0.09818915
vn 0 1 0
vn -0.0002944715 0.9999999 0.0002956918
vn 0 0.9950243 -0.09963318
vn 0 0.9999985 0.001760634
vn 0 0.9865348 -0.1635514
vn 0 1 0
vn 0 0.986411 -0.1642962
vn 0.0003951746 0.994894 -0.1009247
vn 0.0001982328 0.9950957 0.09891603
vn 0.000332482 0.999999 -0.001331867
vn 0 1 0
vn 0 1 0
vn 0 0.986566 0.1633632
vn 0 0.9999981 -0.001993474
vn 0 0.9865507 0.1634557
vn -5.185858E-05 0.9950446 0.09942978
vn 0 1 0
vn -4.353553E-05 1 0.0001738882
vn -2.589739E-05 0.9950083 -0.09979241
vn 0 1 0.0002603591
vn 0 0.9864724 -0.1639276
vn 0 1 0
vn -9.928785E-08 0.9864111 -0.1642962
vn 0.0002282991 0.9949353 -0.1005174
vn 0.0001146163 0.9948718 0.1011438
vn 0.0001920682 0.9999997 -0.0007693939
vn 0 1 0
vn 0 1 0
vn 0 0.9859942 0.1667798
vn 0 0.9999993 -0.001150817
vn 0 0.9860257 0.166593
vn 9.582919E-05 0.9948815 0.101049
vn 0 1 0
vn 8.044534E-05 0.9999999 -0.0003213122
vn 4.76995E-05 0.9949754 -0.1001196
vn 0 0.9999999 -0.0004809698
vn 0 0.9864185 -0.1642514
vn 0 1 0
vn -9.928785E-08 0.986411 -0.1642962
vn 3.494901E-05 0.9949745 -0.1001285
vn 1.759334E-05 0.9948722 0.1011401
vn 2.948581E-05 1 -0.0001181153
vn 0 1 0
vn 0 1 0
vn 0 0.9860503 0.1664478
vn 0 1 -0.0001766575
vn 0 1 0
vn -0.0003280547 0.999999 0.001310305
vn -0.0001946578 0.9950179 -0.09969642
vn -0.0003906145 0.9947465 0.1023681
vn 0 0.9859391 0.1671049
vn 0 0.9999982 0.001962141
vn 0 0.986411 -0.1642962
vn 0 1 0
vn 0 0.986411 -0.1642962
vn 0 0.9949806 -0.1000682
vn 5.955829E-08 0.9951879 0.09798469
vn 0 1 0
vn 0 1 0
vn 0 1 0
vn 0 0.9869041 0.1613074
vn 0 1 0
vn 9.794762E-08 0.9869312 0.1611424
vn 7.986894E-05 0.9952152 0.09770813
vn 0 1 0
vn 6.692325E-05 0.9999999 -0.000267303
vn 6.680869E-05 1 -0.0001326739
vn 0 0.9999999 -0.0004001117
vn 0 1 0
vn 0 1 0

vt 0.2509893 0.9974666
vt 0.0004996359 0.9974666
vt 0.2509893 0.747521
vt 0.0004995763 0.7475209
vt 0.9995003 0.747521
vt 0.9995004 0.9974666
vt 0.7498571 0.7475209
vt 0.7498571 0.9974666
vt 0.2509893 0.499075
vt 0.0004995763 0.499075
vt 0.9995004 0.250499
vt 0.7487153 0.2504452
vt 0.2527416 0.0004996955
vt 0.7487151 0.0004995763
vt 0.2527416 0.2504453
vt 0.9995004 0.0004996657
vt 0.0004996657 0.2504452
vt 0.0004996657 0.0004995763
vt 0.0004996359 0.750061
vt 0.2527416 0.750061
vt 0.748715 0.7495548
vt 0.2527415 0.9995005
vt 0.748715 0.9995005
vt 0.9995004 0.9995005
vt 0.9995003 0.7495548
vt 0.0004996061 0.9995005
vt 0.9995004 0.2504028
vt 0.7487151 0.2504028
vt 0.2527416 0.0004996955
vt 0.7487151 0.0004995763
vt 0.2527416 0.2504453
vt 0.9995004 0.0004996657
vt 0.0004996657 0.2504452
vt 0.0004996657 0.0004995763
vt 0.0004996359 0.7495551
vt 0.2527416 0.7495551
vt 0.748715 0.7495548
vt 0.2527415 0.9995005
vt 0.748715 0.9995005
vt 0.9995004 0.9995005
vt 0.9995003 0.7495548
vt 0.0004996061 0.9995005
vt 0.9995004 0.2505972
vt 0.7487151 0.2505972
vt 0.2527416 0.0004996955
vt 0.7487151 0.0004995763
vt 0.2527416 0.2504453
vt 0.9995004 0.0004996657
vt 0.0004996657 0.2504452
vt 0.0004996657 0.0004995763
vt 0.0004996359 0.7494996
vt 0.2527416 0.7494995
vt 0.748715 0.7495548
vt 0.2527415 0.9995005
vt 0.748715 0.9995005
vt 0.9995004 0.9995005
vt 0.9995003 0.7495548
vt 0.0004996061 0.9995005
vt 0.2527416 0.0004996955
vt 0.7487151 0.0004995763
vt 0.2527416 0.2504453
vt 0.7487151 0.2503069
vt 0.9995004 0.2503069
vt 0.9995004 0.0004996657
vt 0.0004996657 0.2504452
vt 0.0004996657 0.0004995763
vt 0.0004995763 0.7495549
vt 0.2527415 0.7495548
vt 0.748715 0.7495548
vt 0.2527415 0.9995005
vt 0.748715 0.9995005
vt 0.9995004 0.9995005
vt 0.9995003 0.7495548
vt 0.0004996061 0.9995005
vt 0.9995004 0.2506192
vt 0.7487151 0.2506192
vt 0.2527416 0.0004996955
vt 0.7487151 0.0004995763
vt 0.2527416 0.2504453
vt 0.9995004 0.0004996657
vt 0.0004996657 0.2504452
vt 0.0004996657 0.0004995763

usemtl sn19_50_sn19411.jpg
usemap sn19_50_sn19411.jpg
f 3/3/3 1/1/1 2/2/2
f 2/2/2 4/4/4 3/3/3
f 7/7/7 5/5/5 6/6/6
f 6/6/6 8/8/8 7/7/7
f 3/3/3 7/7/7 8/8/8
f 8/8/8 1/1/1 3/3/3
f 9/9/9 3/3/3 4/4/4
f 4/4/4 10/10/10 9/9/9
f 11/11/11 5/5/5 7/7/7
f 7/7/7 12/12/12 11/11/11
f 15/15/15 13/13/13 14/14/14
f 14/14/14 12/12/12 15/15/15
f 11/11/11 12/12/12 14/14/14
f 14/14/14 16/16/16 11/11/11
f 15/15/15 17/17/17 18/18/18
f 18/18/18 13/13/13 15/15/15
f 19/19/19 17/17/17 15/15/15
f 15/15/15 20/20/20 19/19/19
f 22/22/22 20/20/20 21/21/21
f 21/21/21 23/23/23 22/22/22
f 24/24/24 23/23/23 21/21/21
f 21/21/21 25/25/25 24/24/24
f 22/22/22 26/26/26 19/19/19
f 19/19/19 20/20/20 22/22/22
f 27/27/27 25/25/25 21/21/21
f 21/21/21 28/28/28 27/27/27
f 31/31/31 29/29/29 30/30/30
f 30/30/30 28/28/28 31/31/31
f 27/27/27 28/28/28 30/30/30
f 30/30/30 32/32/32 27/27/27
f 31/31/31 33/33/33 34/34/34
f 34/34/34 29/29/29 31/31/31
f 35/35/35 33/33/33 31/31/31
f 31/31/31 36/36/36 35/35/35
f 38/38/38 36/36/36 37/37/37
f 37/37/37 39/39/39 38/38/38
f 40/40/40 39/39/39 37/37/37
f 37/37/37 41/41/41 40/40/40
f 38/38/38 42/42/42 35/35/35
f 35/35/35 36/36/36 38/38/38
f 43/43/43 41/41/41 37/37/37
f 37/37/37 44/44/44 43/43/43
f 47/47/47 45/45/45 46/46/46
f 46/46/46 44/44/44 47/47/47
f 43/43/43 44/44/44 46/46/46
f 46/46/46 48/48/48 43/43/43
f 47/47/47 49/49/49 50/50/50
f 50/50/50 45/45/45 47/47/47
f 51/51/51 49/49/49 47/47/47
f 47/47/47 52/52/52 51/51/51
f 54/54/54 52/52/52 53/53/53
f 53/53/53 55/55/55 54/54/54
f 56/56/56 55/55/55 53/53/53
f 53/53/53 57/57/57 56/56/56
f 54/54/54 58/58/58 51/51/51
f 51/51/51 52/52/52 54/54/54
f 61/61/61 59/59/59 60/60/60
f 60/60/60 62/62/62 61/61/61
f 63/63/63 62/62/62 60/60/60
f 60/60/60 64/64/64 63/63/63
f 61/61/61 65/65/65 66/66/66
f 66/66/66 59/59/59 61/61/61
f 63/63/63 57/57/57 53/53/53
f 53/53/53 62/62/62 63/63/63
f 67/67/67 65/65/65 61/61/61
f 61/61/61 68/68/68 67/67/67
f 70/70/70 68/68/68 69/69/69
f 69/69/69 71/71/71 70/70/70
f 72/72/72 71/71/71 69/69/69
f 69/69/69 73/73/73 72/72/72
f 70/70/70 74/74/74 67/67/67
f 67/67/67 68/68/68 70/70/70
f 75/75/75 73/73/73 69/69/69
f 69/69/69 76/76/76 75/75/75
f 79/79/79 77/77/77 78/78/78
f 78/78/78 76/76/76 79/79/79
f 75/75/75 76/76/76 78/78/78
f 78/78/78 80/80/80 75/75/75
f 79/79/79 81/81/81 82/82/82
f 82/82/82 77/77/77 79/79/79
