mtllib ./Box04.mtl
g Box04
v 750.4795 200 -750.4807
v 554.5336 200 -750.4807
v 557.708 197.4 -539.0328
v 750.4795 200 -544.0256
v 554.5336 200 -750.4807
v 375.2399 200 -750.4807
v 376.2149 200 -538.7833
v 557.708 197.4 -539.0328
v 187.62 200 -750.4807
v 187.62 200 -539.9786
v 0.0001959801 200 -750.4807
v 0.0001959801 200 -539.1584
v -187.6196 200 -750.4807
v -187.6196 200 -539.9214
v -375.2394 200 -750.4807
v -375.2394 200 -540.3855
v -542.5335 200 -750.4807
v -542.0102 197.4 -537.5157
v -542.5335 200 -750.4807
v -750.4791 200 -750.4807
v -750.4791 200 -537.9028
v -542.0102 197.4 -537.5157
v 750.4795 200 -544.0256
v 557.708 197.4 -539.0328
v 557.9904 199.3302 -374.9693
v 750.4795 200 -375.2404
v -542.0102 197.4 -537.5157
v -750.4791 200 -537.9028
v -750.4791 200 -375.2404
v -540.2034 200 -375.2404
v 557.8091 198.3189 -187.6203
v 750.4795 200 -187.6203
v -750.4791 200 -187.6203
v -541.6037 200 -187.6203
v 557.2338 199.3302 0.4694061
v 750.4795 200 -0.000213623
v -750.4791 200 -0.000213623
v -541.1696 200 -0.000213623
v 557.3605 200 197.0484
v 750.4795 200 187.6199
v -750.4791 200 187.6199
v -541.4501 200 187.6199
v 557.9437 200 375.7096
v 750.4795 200 375.24
v -765.3984 200 375.24
v -541.1894 200 375.24
v 556.934 198.7096 468.4714
v 555.8951 197.4 546.5919
v 750.4795 200 546.8376
v 750.4795 200 473.0535
v -757.9026 200 469.5044
v -750.4791 200 546.3258
v -540.9547 197.4 546.7928
v -540.538 198.6527 472.7038
v 750.4795 200 546.8376
v 555.8951 197.4 546.5919
v 555.4645 200 750.4803
v 750.4795 200 750.4803
v 555.8951 197.4 546.5919
v 375.2398 200 546.7235
v 375.2399 200 750.4803
v 555.4645 200 750.4803
v 187.62 200 545.9564
v 187.62 200 750.4803
v 0.0001897812 200 546.6151
v 0.0001959801 200 750.4803
v -187.6196 200 546.3837
v -187.6196 200 750.4803
v -375.2394 200 546.2681
v -375.2394 200 750.4803
v -540.9547 197.4 546.7928
v -541.3566 200 750.4803
v -540.9547 197.4 546.7928
v -750.4791 200 546.3258
v -750.4791 200 750.4803
v -541.3566 200 750.4803
v -539.3516 104.3333 544.7657
v -540.9547 197.4 546.7928
v -375.2394 200 546.2681
v -345.1468 104.3333 544.7657
v -187.6196 200 546.3837
v -158.356 104.3333 544.7657
v 210.3151 122.8287 546.0763
v 214.4975 104.3333 544.7657
v 187.62 200 545.9564
v 390.0335 127.4173 546.009
v 391.3807 104.3333 544.7657
v 375.2398 200 546.7235
v 554.9878 104.3333 544.7657
v 555.8951 197.4 546.5919
v 0.0001897812 200 546.6151
v 28.06914 104.3333 544.7657
v 554.9878 104.3333 544.7657
v 555.8951 197.4 546.5919
v 556.934 198.7096 468.4714
v 557.9437 200 375.7096
v 555.1343 104.3333 359.5897
v 557.3605 200 197.0484
v 555.2997 104.3333 185.2552
v 557.4121 125.371 -184.4654
v 557.2338 199.3302 0.4694061
v 557.8091 198.3189 -187.6203
v 555.8304 104.3333 -374.2626
v 557.9904 199.3302 -374.9693
v 555.9629 104.3333 -536.8026
v 557.7933 130.95 -369.7153
v 555.5027 104.3333 -28.76361
v -375.2394 200 -540.3855
v -542.0102 197.4 -537.5157
v -539.3516 104.3333 -537.0738
v -365.0601 104.3333 -538.6616
v -365.5798 131.9679 -556.6174
v -190.7851 104.3333 -538.6156
v -187.6196 200 -539.9214
v -189.0379 126.4279 -552.6451
v 186.5775 104.3333 -536.8892
v 0.0001959801 200 -539.1584
v -5.47232 104.3333 -536.9398
v 367.8165 104.3333 -536.8414
v 376.2149 200 -538.7833
v 555.9629 104.3333 -536.8026
v 557.708 197.4 -539.0328
v -539.3516 104.3333 544.7657
v -539.3516 104.3333 383.0251
v -541.1894 200 375.24
v -539.3516 104.3333 199.779
v -541.4501 200 187.6199
v -541.0402 123.337 198.3637
v -539.3516 104.3333 -173.199
v -541.1696 200 -0.000213623
v -539.3516 104.3333 15.88099
v -539.3516 104.3333 -353.8487
v -541.6037 200 -187.6203
v -539.3516 104.3333 -537.0738
v -540.2034 200 -375.2404
v -542.0102 197.4 -537.5157
v 187.62 200 -539.9786
v 557.708 197.4 -539.0328
v 555.6592 104.3333 -193.7559
v -540.7982 128.3201 385.1823
v -540.9547 197.4 546.7928
v -540.538 198.6527 472.7038
v 556.934 198.7096 468.4714

vn -0.006607849 0.9999585 0.006271487
vn 0 0.9999244 0.01229527
vn -0.006607849 0.9999585 0.006271487
vn -0.01348628 0.999909 0
vn 0.007210367 0.9999556 0.006073497
vn 0 1 0
vn 0.004734371 0.9999809 0.003987895
vn 0.01433973 0.9998242 0.01207876
vn 0 1 0
vn 0 1 0
vn 0 1 0
vn 0 0.9999999 0
vn 0 0.9999999 0
vn 0 1 0
vn -0.00496203 0.9999799 0.003951153
vn -0.004793247 0.9999886 5.355738E-10
vn 0 0.9999255 0.0122077
vn -0.007729684 0.9999511 0.006154974
vn 0.006237883 0.9999619 0.006101952
vn 0 1 0
vn 0.006237883 0.9999619 0.006101952
vn 0.01244741 0.9998484 0.01217617
vn -0.008565895 0.9999465 -0.005791521
vn -0.01378934 0.999836 -0.01173943
vn -0.006732336 0.9999758 -0.001764884
vn -0.005288021 0.9999844 0.001858096
vn 0.006216156 0.9999484 -0.008035705
vn 0.01247094 0.9999222 0
vn 0.003934652 0.9999793 -0.005086375
vn 0 0.9999883 -0.004848293
vn -0.006978273 0.9999756 -1.172772E-05
vn -0.006969985 0.9999741 -0.001802329
vn 0 0.9999999 0
vn 0 0.9999999 0
vn -0.005193809 0.9999821 -0.002943057
vn -0.002332089 0.9999966 -0.001170801
vn 0 1 0
vn 0 1 0
vn -0.001213838 0.9999986 -0.001189631
vn 0 1 0
vn 0 1 0
vn 0 1 0
vn 6.847787E-06 0.999996 0.002807562
vn -0.001722713 0.9999927 0.003407343
vn 0 0.9999999 0
vn 0.001505029 0.9999928 0.003460051
vn -0.003414108 0.9999713 0.006752743
vn -0.01012892 0.9999121 0.008551278
vn -0.01336065 0.9999108 0
vn -0.008775313 0.999948 0.0052076
vn 0.003907237 0.9999809 0.004779732
vn 0.009178349 0.9999269 0.007874301
vn 0.01236852 0.9997795 0.01697411
vn 0.007915019 0.9999165 0.01021869
vn -0.006669225 0.9999574 -0.006386671
vn -0.01334342 0.9998293 -0.01277811
vn -0.006669225 0.9999574 -0.006386671
vn 0 1 0
vn 0.007201975 0.9999538 -0.006370209
vn 0.004671168 0.9999891 -8.072543E-10
vn 0.004739114 0.99998 -0.004191787
vn 0 0.9999186 -0.01275107
vn 0 1 0
vn 0 0.9999999 0
vn 0 1 0
vn 0 1 0
vn 0 1 0
vn 0 1 0
vn -0.005009295 0.9999791 -0.004074832
vn 0 1 0
vn -0.01572688 0.9997945 -0.01279309
vn -0.007844987 0.9999489 -0.006381537
vn 0.006217358 0.9999605 -0.006368654
vn 0.01240813 0.999923 0
vn 0.006217358 0.9999605 -0.006368654
vn 0 0.9999185 -0.01276364
vn -0.001590595 0.01843024 -0.9998289
vn -0.003505952 0.02171484 -0.9997581
vn -0.0008282754 0.01755481 -0.9998454
vn 0.0002032752 0.01616311 -0.9998693
vn 0.0006172912 0.01669761 -0.9998604
vn 0.0004125049 0.01784003 -0.9998407
vn -0.242091 0.06052276 -0.9683641
vn -2.194909E-10 0.01244511 -0.9999226
vn 0.0001467524 0.01614361 -0.9998696
vn 0 0 1
vn 0.001452282 0.01802091 -0.9998366
vn 0.00130646 0.02042606 -0.9997906
vn -0.0002310978 0.02002612 -0.9997994
vn -0.0004462076 0.01962211 -0.9998074
vn -0.0007606591 0.01830227 -0.9998322
vn -0.001175077 0.01669396 -0.99986
vn -0.9997662 0.02076729 -0.006011634
vn -0.9998637 0.01000507 -0.01312889
vn -0.9998689 0.01106433 -0.01181872
vn -0.9996683 0.02572847 -0.001173344
vn -0.9996427 0.0267234 0.0005039364
vn -0.9997136 0.02391223 0.0009645933
vn -0.9997909 0.02044594 -0.0004363255
vn -0.9997786 0.0209304 -0.002132303
vn -0.999847 0.01725864 -0.002869179
vn -0.9998415 0.01771996 -0.001700307
vn -0.9995605 0.02963232 -0.000842278
vn -0.9998745 0.01557894 0.002890298
vn -0.9997844 0.02076519 0.0003361526
vn -0.9997414 0.0227245 -0.0008446584
vn -0.9996707 0.02530343 -0.004271909
vn 0.005521858 0.01413122 0.999885
vn 0.01712335 0.005237208 0.9998396
vn 0.01297322 0.01235657 0.9998395
vn 0.004422486 0.01848757 0.9998193
vn 0 0 0
vn -0.004012439 0.01726864 0.9998429
vn -0.003269883 0.01375617 0.9999001
vn 0 0 0
vn -0.0006313716 0.02706598 0.9996335
vn -0.002217287 0.02322837 0.9997277
vn -0.004573712 0.02344625 0.9997146
vn -0.000234254 0.02031493 0.9997937
vn -0.001331751 0.02427243 0.9997045
vn 0.0007248695 0.02206123 0.9997564
vn 0.001716768 0.02392399 0.9997122
vn 0.9998816 0.01537547 -0.0006053402
vn 0.9998155 0.01920722 -2.31125E-10
vn 0.9998333 0.01820342 -0.001411666
vn 0.9997892 0.02053591 2.663205E-05
vn 0.9997593 0.02193707 5.268794E-05
vn 0 0 0
vn 0.9997603 0.02187952 -0.0007786455
vn 0.9997829 0.02083262 -0.0002052772
vn 0.9998195 0.01900062 0
vn 0.999895 0.01426532 0.002538775
vn 0.9998172 0.01904339 0.001737772
vn 0.999824 0.01797652 -0.005363768
vn 0.9998818 0.01534971 -0.0008125161
vn 0.9995267 0.02849841 -0.01158527
vn -0.0009964132 0.03228819 0.9994781
vn -0.9998224 0.01878387 0.001499672
vn -0.9994602 0.03251257 0.0047251
vn 0.9921587 -0.01550248 -0.1240198
vn 0.9998364 0.01709421 0.005913079
vn 0.9999312 0.0116677 -0.00119105
vn -0.00706061 0.9998361 0.01666742

vt 5.883129 1.015263
vt 4.891847 1.015263
vt 4.893671 0.5063117
vt 5.762044 0.5099931
vt 4.890567 1.011929
vt 3.499998 1.011929
vt 3.507793 0.5106619
vt 4.880937 0.5044415
vt 1.999999 1.01193
vt 1.999999 0.4656634
vt 0.5000005 1.01193
vt 0.4999999 0.4971762
vt -0.9999982 1.01193
vt -0.9999988 0.4607168
vt -2.499997 1.01193
vt -2.499998 0.4182183
vt -3.999996 1.011931
vt -3.995812 0.4330083
vt 0.9684323 0.9887545
vt -0.3244764 0.9786528
vt -0.3244773 0.4010196
vt 0.9726156 0.4098321
vt -3.288714 0.9949226
vt -3.281627 0.4832669
vt -2.497835 0.4778308
vt -2.500002 0.9949225
vt 4.998775 0.3438315
vt 5.00187 0.970381
vt 3.501869 0.9703812
vt 3.501868 0.3121038
vt -1.000001 0.5359512
vt -1.000001 0.9949223
vt 2.001868 0.9703814
vt 2.001868 0.3728225
vt 0.5037541 0.4161783
vt 0.5 0.9949222
vt 0.5018669 0.9703815
vt 0.5018665 0.3972843
vt 2.07538 0.485697
vt 2.000001 0.994922
vt -0.9981341 0.9703817
vt -0.9981345 0.3735477
vt 3.503756 0.4944003
vt 3.500002 0.9949218
vt -2.498135 1.023822
vt -2.498136 0.3266602
vt 4.245376 0.4568418
vt 4.998038 0.4187241
vt 5.000003 0.9949217
vt 4.282009 0.9949217
vt -3.251768 0.9969726
vt -3.998137 0.9703821
vt -4.00187 0.3442675
vt -3.277348 0.335784
vt -5.499995 0.3972971
vt -4.003439 0.3964784
vt -3.999996 0.97493
vt -5.499995 0.9749302
vt -4.003439 0.3964784
vt -2.499998 0.396763
vt -2.499997 0.9749299
vt -3.999996 0.97493
vt -0.9999988 0.4201617
vt -0.9999985 0.9749297
vt 0.5 0.4534119
vt 0.5000003 0.9749296
vt 1.999999 0.4284289
vt 1.999999 0.9749295
vt 3.499997 0.4764221
vt 3.499998 0.9749293
vt 4.996783 0.3988516
vt 4.999997 0.9749292
vt 0.4668599 0.2956771
vt 1.651843 0.2941215
vt 1.645951 0.9247926
vt 0.4641806 0.9247928
vt 4.586471 -0.1505185
vt 4.973258 0.6035848
vt 3.476472 0.6746781
vt 3.235884 -0.1505183
vt 1.976474 0.6417835
vt 1.742514 -0.150518
vt -1.204969 0.005969679
vt -1.238407 -0.1505176
vt -1.023524 0.6361175
vt -2.641796 0.04479361
vt -2.652567 -0.1505173
vt -2.523523 0.6200801
vt -3.633522 -0.1505172
vt -4.026964 0.601959
vt 0.4764748 0.6589071
vt 0.2520664 -0.1505178
vt 4.555242 -0.1495827
vt 4.943275 0.574447
vt 4.190613 0.6126659
vt 3.448993 0.6503241
vt 3.320116 -0.1492006
vt 2.020617 0.6435116
vt 1.926332 -0.1487694
vt -1.029541 0.01449946
vt 0.448991 0.5848089
vt -1.054765 0.5967723
vt -2.546947 -0.1473855
vt -2.552598 0.6330668
vt -3.662601 -0.1470404
vt -2.510593 0.05801309
vt 0.2152769 -0.1482401
vt -2.544494 0.5941687
vt -4.040308 0.5860658
vt -3.654492 -0.1441584
vt -2.463111 -0.1442416
vt -2.467266 0.08365497
vt -1.069803 -0.1443389
vt -1.044495 0.6212574
vt -1.055834 0.03786968
vt 1.947167 -0.1445496
vt 0.4555035 0.6444967
vt 0.4117514 -0.1444424
vt 3.396152 -0.1446508
vt 3.463296 0.6530932
vt 4.573295 -0.144733
vt 5.113842 0.5762878
vt -2.638736 -0.1548519
vt -1.590975 -0.1548521
vt -1.528733 0.6221882
vt -0.125943 -0.1548523
vt -0.0287323 0.6587354
vt -0.1146287 0.01043771
vt 2.855973 -0.1548527
vt 1.471269 0.6772372
vt 1.3443 -0.1548525
vt 4.300246 -0.154853
vt 2.97127 0.6581699
vt 5.581273 -0.1548532
vt 4.471271 0.6108416
vt 5.968178 0.617752
vt 1.955502 0.6244111
vt -4.014851 0.6249665
vt -1.103817 -0.147832
vt -1.60822 0.05378065
vt -3.032468 0.6180924
vt -2.307945 0.6200658
vt 4.245376 0.4568418

usemtl sn08_02_sn08m1r.jpg
usemap sn08_02_sn08m1r.jpg
f 3/3/3 1/1/1 2/2/2
f 1/1/1 3/3/3 4/4/4
f 7/7/7 5/5/5 6/6/6
f 5/5/5 7/7/7 8/8/8
f 10/10/10 6/6/6 9/9/9
f 6/6/6 10/10/10 7/7/7
f 12/12/12 9/9/9 11/11/11
f 9/9/9 12/12/12 10/10/10
f 14/14/14 11/11/11 13/13/13
f 11/11/11 14/14/14 12/12/12
f 16/16/16 13/13/13 15/15/15
f 13/13/13 16/16/16 14/14/14
f 18/18/18 15/15/15 17/17/17
f 15/15/15 18/18/18 16/16/16
f 25/25/25 23/23/23 24/24/24
f 23/23/23 25/25/25 26/26/26
f 29/29/29 27/27/27 28/28/28
f 27/27/27 29/29/29 30/30/30
f 31/31/31 26/26/26 25/25/25
f 26/26/26 31/31/31 32/32/32
f 33/33/33 30/30/30 29/29/29
f 30/30/30 33/33/33 34/34/34
f 35/35/35 32/32/32 31/31/31
f 32/32/32 35/35/35 36/36/36
f 37/37/37 34/34/34 33/33/33
f 34/34/34 37/37/37 38/38/38
f 39/39/39 36/36/36 35/35/35
f 36/36/36 39/39/39 40/40/40
f 41/41/41 38/38/38 37/37/37
f 38/38/38 41/41/41 42/42/42
f 43/43/43 40/40/40 39/39/39
f 40/40/40 43/43/43 44/44/44
f 45/45/45 42/42/42 41/41/41
f 42/42/42 45/45/45 46/46/46
f 47/47/47 44/44/44 43/43/43
f 50/50/50 48/48/48 49/49/49
f 51/51/51 46/46/46 45/45/45
f 54/54/54 52/52/52 53/53/53
f 61/61/61 59/59/59 60/60/60
f 59/59/59 61/61/61 62/62/62
f 64/64/64 60/60/60 63/63/63
f 60/60/60 64/64/64 61/61/61
f 66/66/66 63/63/63 65/65/65
f 63/63/63 66/66/66 64/64/64
f 68/68/68 65/65/65 67/67/67
f 65/65/65 68/68/68 66/66/66
f 70/70/70 67/67/67 69/69/69
f 67/67/67 70/70/70 68/68/68
f 72/72/72 69/69/69 71/71/71
f 69/69/69 72/72/72 70/70/70
f 79/79/79 77/77/77 78/78/78
f 80/80/80 77/77/77 79/79/79
f 82/82/82 80/80/80 81/81/81
f 85/85/85 83/83/83 84/84/84
f 88/88/88 86/86/86 87/87/87
f 90/90/90 89/89/89 88/88/88
f 92/92/92 82/82/82 91/91/91
f 95/95/95 93/93/93 94/94/94
f 97/97/97 93/93/93 96/96/96
f 99/99/99 97/97/97 98/98/98
f 102/102/102 100/100/100 101/101/101
f 105/105/105 103/103/103 104/104/104
f 104/104/104 106/106/106 102/102/102
f 101/101/101 107/107/107 99/99/99
f 110/110/110 108/108/108 109/109/109
f 112/112/112 111/111/111 108/108/108
f 115/115/115 113/113/113 114/114/114
f 118/118/118 116/116/116 117/117/117
f 116/116/116 119/119/119 120/120/120
f 119/119/119 121/121/121 120/120/120
f 121/121/121 122/122/122 120/120/120
f 125/125/125 123/123/123 124/124/124
f 125/125/125 124/124/124 126/126/126
f 128/128/128 126/126/126 127/127/127
f 131/131/131 129/129/129 130/130/130
f 129/129/129 132/132/132 133/133/133
f 132/132/132 134/134/134 135/135/135
f 134/134/134 136/136/136 135/135/135
f 110/110/110 111/111/111 108/108/108
f 113/113/113 118/118/118 117/117/117
f 108/108/108 111/111/111 112/112/112
f 108/108/108 111/111/111 113/113/113
f 108/108/108 113/113/113 114/114/114
f 114/114/114 113/113/113 115/115/115
f 114/114/114 113/113/113 117/117/117
f 117/117/117 116/116/116 137/137/137
f 137/137/137 116/116/116 120/120/120
f 105/105/105 104/104/104 138/138/138
f 100/100/100 139/139/139 107/107/107
f 104/104/104 103/103/103 106/106/106
f 103/103/103 139/139/139 102/102/102
f 103/103/103 102/102/102 106/106/106
f 100/100/100 102/102/102 139/139/139
f 101/101/101 100/100/100 107/107/107
f 101/101/101 99/99/99 98/98/98
f 98/98/98 97/97/97 96/96/96
f 88/88/88 89/89/89 87/87/87
f 84/84/84 92/92/92 85/85/85
f 88/88/88 87/87/87 86/86/86
f 88/88/88 87/87/87 85/85/85
f 87/87/87 84/84/84 85/85/85
f 85/85/85 84/84/84 83/83/83
f 85/85/85 92/92/92 91/91/91
f 91/91/91 82/82/82 81/81/81
f 81/81/81 80/80/80 79/79/79
f 140/140/140 125/125/125 124/124/124
f 126/126/126 131/131/131 130/130/130
f 142/142/142 141/141/141 123/123/123
f 125/125/125 140/140/140 124/124/124
f 125/125/125 126/126/126 127/127/127
f 127/127/127 126/126/126 128/128/128
f 127/127/127 126/126/126 130/130/130
f 130/130/130 129/129/129 133/133/133
f 133/133/133 132/132/132 135/135/135
f 51/51/51 52/52/52 54/54/54
f 125/125/125 142/142/142 123/123/123
f 46/46/46 51/51/51 54/54/54
f 143/143/143 48/48/48 50/50/50
f 44/44/44 47/47/47 50/50/50
f 96/96/96 93/93/93 95/95/95

usemtl sn08_03_sn08m1s.jpg
usemap sn08_03_sn08m1s.jpg
f 21/21/21 19/19/19 20/20/20
f 19/19/19 21/21/21 22/22/22
f 57/57/57 55/55/55 56/56/56
f 55/55/55 57/57/57 58/58/58
f 75/75/75 73/73/73 74/74/74
f 73/73/73 75/75/75 76/76/76
