mtllib ./Box06.mtl
g Box06
v 446.8939 0.0001945496 359.6626
v 395.064 0.0001945496 261.2991
v 391.6444 0.0001945496 377.394
v 267.3119 0.0001945496 348.6609
v 350.7245 0.0001945496 267.0498
v 394.3329 0.0001945496 451.7412
v 277.3983 0.0001945496 403.7823
v 108.4915 0.0001945496 453.5641
v 97.65498 0.0001945496 359.5697
v 94.17083 0.0001945496 420.7908
v 267.3119 0.0001945496 348.6609
v 94.17083 0.0001945496 420.7908
v 97.65498 0.0001945496 359.5697
v -99.82158 0.0001945496 375.2784
v -101.9031 0.0001945496 355.2144
v -99.82158 0.0001945496 375.2784
v -101.9031 0.0001945496 355.2144
v -315.2477 0.0001945496 393.1812
v -298.0153 0.0001945496 356.4661
v -315.2477 0.0001945496 393.1812
v -298.0153 0.0001945496 356.4661
v -387.5633 0.0001945496 377.1587
v -359.1451 0.0001945496 304.5951
v -455.7155 0.0001945496 363.946
v -409.4444 0.0001945496 294.9119
v -460.6173 0.0001945496 122.5249
v -347.5765 0.0001945496 102.8737
v -406.55 0.0001945496 101.8698
v -359.1451 0.0001945496 304.5951
v -406.55 0.0001945496 101.8698
v -347.5765 0.0001945496 102.8737
v -417.4741 0.0001945496 -84.04261
v -356.811 0.0001945496 -47.62405
v -417.4741 0.0001945496 -84.04261
v -356.811 0.0001945496 -47.62405
v -402.3665 0.0001945496 -249.1472
v -345.7571 0.0001945496 -251.9396
v -402.3665 0.0001945496 -249.1472
v -345.7571 0.0001945496 -251.9396
v -372.284 0.0001945496 -356.764
v -293.847 0.0001945496 -335.6995
v -434.511 0.0001945496 -451.5449
v -305.3717 0.0001945496 -403.7698
v -102.8685 0.0001945496 -461.2222
v -90.43848 0.0001945496 -353.0453
v -82.98981 0.0001945496 -398.995
v -293.847 0.0001945496 -335.6995
v -82.98981 0.0001945496 -398.995
v -90.43848 0.0001945496 -353.0453
v 109.0927 0.0001945496 -400.5528
v 133.0374 0.0001945496 -355.3906
v 109.0927 0.0001945496 -400.5528
v 133.0374 0.0001945496 -355.3906
v 273.7781 0.0001945496 -398.6174
v 300.6464 0.0001945496 -358.8516
v 273.7781 0.0001945496 -398.6174
v 300.6464 0.0001945496 -358.8516
v 371.7901 0.0001945496 -381.391
v 347.3355 0.0001945496 -264.5426
v 458.9007 0.0001945496 -372.3645
v 401.979 0.0001945496 -274.6888
v 458.5557 0.0001945496 -71.64703
v 348.8781 0.0001945496 -67.45601
v 403.3903 0.0001945496 -60.09388
v 347.3355 0.0001945496 -264.5426
v 403.3903 0.0001945496 -60.09388
v 348.8781 0.0001945496 -67.45601
v 394.7923 0.0001945496 125.2553
v 345.2312 0.0001945496 134.9629
v 394.7923 0.0001945496 125.2553
v 345.2312 0.0001945496 134.9629
v 395.064 0.0001945496 261.2991
v 446.8939 0.0001945496 359.6626
v -409.4444 0.0001945496 294.9119
v -455.7155 0.0001945496 363.946
v -387.2534 0.0001945496 455.8846
v 277.3983 0.0001945496 403.7823
v 394.3329 0.0001945496 451.7412
v 401.979 0.0001945496 -274.6888
v 458.9007 0.0001945496 -372.3645
v 395.3262 0.0001945496 -452.3966
v -305.3717 0.0001945496 -403.7698
v -434.511 0.0001945496 -451.5449
v -453.4975 0.0001945496 -298.4121
v -460.6173 0.0001945496 122.5249
v -454.4404 0.0001945496 -74.35204
v -454.4404 0.0001945496 -74.35204
v -453.4975 0.0001945496 -298.4121
v -102.8685 0.0001945496 -461.2222
v 125.5182 0.0001945496 -455.618
v 125.5182 0.0001945496 -455.618
v 395.3262 0.0001945496 -452.3966
v 458.5557 0.0001945496 -71.64703
v 459.8994 0.0001945496 138.1385
v 459.8994 0.0001945496 138.1385
v 350.7245 0.0001945496 267.0498
v 108.4915 0.0001945496 453.5641
v -114.7175 0.0001945496 453.5641
v -114.7175 0.0001945496 453.5641
v -387.2534 0.0001945496 455.8846

vn 0 1 0
vn 0 1 0
vn 0 1 0
vn 0 1 0
vn 0 1 0
vn 0 1 0
vn 0 1 0
vn 0 1 0
vn 0 1 0
vn 0 1 0
vn 0 1 0
vn 0 1 0
vn 0 1 0
vn 0 0.9999999 0
vn 0 0.9999999 0
vn 0 1 0
vn 0 1 0
vn 0 1 0
vn 0 1 0
vn 0 1 0
vn 0 1 0
vn 0 1 0
vn 0 1 0
vn 0 1 0
vn 0 0.9999999 0
vn 0 1 0
vn 0 1 0
vn 0 0.9999999 0
vn 0 1 0
vn 0 1 0
vn 0 1 0
vn 0 0.9999999 0
vn 0 0.9999999 0
vn 0 0.9999999 0
vn 0 1 0
vn 0 0.9999999 0
vn 0 1 0
vn 0 1 0
vn 0 1 0
vn 0 1 0
vn 0 1 0
vn 0 1 0
vn 0 1 0
vn 0 1 0
vn 0 1 0
vn 0 1 0
vn 0 1 0
vn 0 1 0
vn 0 1 0
vn 0 1 0
vn 0 1 0
vn 0 0.9999999 0
vn 0 1 0
vn 0 1 0
vn 0 1 0
vn 0 1 0
vn 0 1 0
vn 0 1 0
vn 0 1 0
vn 0 1 0
vn 0 1 0
vn 0 1 0
vn 0 1 0
vn 0 1 0
vn 0 1 0
vn 0 1 0
vn 0 1 0
vn 0 1 0
vn 0 1 0
vn 0 1 0
vn 0 1 0
vn 0 1 0
vn 0 1 0
vn 0 1 0
vn 0 1 0
vn 0 1 0
vn 0 1 0
vn 0 0.9999999 0
vn 0 1 0
vn 0 1 0
vn 0 1 0
vn 0 1 0
vn 0 0.9999999 0
vn 0 1 0
vn 0 1 0
vn 0 1 0
vn 0 1 0
vn 0 1 0
vn 0 1 0
vn 0 1 0
vn 0 1 0
vn 0 1 0
vn 0 1 0
vn 0 1 0
vn 0 1 0
vn 0 1 0
vn 0 1 0
vn 0 0.9999999 0
vn 0 0.9999999 0
vn 0 1 0

vt 0 1
vt 0 0.362079
vt 0.490711 0.5027882
vt 1 0
vt 0 0
vt 0 1
vt 0 0.3840732
vt 1 1
vt 1 0
vt 1 0.5127851
vt 0 0
vt 0 0.5127851
vt 0 0
vt 1 0.5487115
vt 1 0
vt 0 0.5487115
vt 0 0
vt 1 0.4483407
vt 1 0
vt 0 0.4483407
vt 0 0
vt 0.4915869 0.5036641
vt 1 0
vt 0 1
vt 0 0.4442547
vt 1 1
vt 1 0
vt 1 0.5370237
vt 0 0
vt 0 0.5370237
vt 0 0
vt 1 0.5417798
vt 1 0
vt 0 0.5417798
vt 0 0
vt 1 0.4939703
vt 1 0
vt 0 0.4939703
vt 0 0
vt 0.4916432 0.5037205
vt 1 0
vt 0 1
vt 0 0.4969754
vt 1 1
vt 1 0
vt 1 0.4927167
vt 0 0
vt 0 0.4927167
vt 0 0
vt 1 0.4900829
vt 1 0
vt 0 0.4900829
vt 0 0
vt 1 0.4485971
vt 1 0
vt 0 0.4485971
vt 0 0
vt 0.4926116 0.5046889
vt 1 0
vt 0 1
vt 0 0.4013655
vt 1 1
vt 1 0
vt 1 0.4279771
vt 0 0
vt 0 0.4279771
vt 0 0
vt 1 0.5143394
vt 1 0
vt 0 0.5143394
vt 0 0
vt 1 0.362079
vt 1 1
vt 1 0.4442547
vt 1 1
vt 0 1
vt 1 0.3840732
vt 1 1
vt 1 0.4013655
vt 1 1
vt 0 1
vt 1 0.4969754
vt 1 1
vt 0 1
vt 0 1
vt 1 1
vt 0 1
vt 1 1
vt 0 1
vt 1 1
vt 0 1
vt 1 1
vt 0 1
vt 1 1
vt 0 1
vt 1 0
vt 0 1
vt 1 1
vt 0 1
vt 1 1

usemtl sn08_19_asn08fog.bmp
usemap sn08_19_asn08fog.bmp
f 3/3/3 1/1/1 2/2/2
f 5/5/5 4/4/4 3/3/3
f 8/8/8 6/6/6 7/7/7
f 11/11/11 9/9/9 10/10/10
f 14/14/14 12/12/12 13/13/13
f 13/13/13 15/15/15 14/14/14
f 18/18/18 16/16/16 17/17/17
f 17/17/17 19/19/19 18/18/18
f 22/22/22 20/20/20 21/21/21
f 21/21/21 23/23/23 22/22/22
f 26/26/26 24/24/24 25/25/25
f 29/29/29 27/27/27 28/28/28
f 32/32/32 30/30/30 31/31/31
f 31/31/31 33/33/33 32/32/32
f 36/36/36 34/34/34 35/35/35
f 35/35/35 37/37/37 36/36/36
f 40/40/40 38/38/38 39/39/39
f 39/39/39 41/41/41 40/40/40
f 44/44/44 42/42/42 43/43/43
f 47/47/47 45/45/45 46/46/46
f 50/50/50 48/48/48 49/49/49
f 49/49/49 51/51/51 50/50/50
f 54/54/54 52/52/52 53/53/53
f 53/53/53 55/55/55 54/54/54
f 58/58/58 56/56/56 57/57/57
f 57/57/57 59/59/59 58/58/58
f 62/62/62 60/60/60 61/61/61
f 65/65/65 63/63/63 64/64/64
f 68/68/68 66/66/66 67/67/67
f 67/67/67 69/69/69 68/68/68
f 72/72/72 70/70/70 71/71/71
f 70/70/70 72/72/72 73/73/73
f 22/22/22 74/74/74 75/75/75
f 75/75/75 76/76/76 22/22/22
f 3/3/3 77/77/77 78/78/78
f 78/78/78 1/1/1 3/3/3
f 58/58/58 79/79/79 80/80/80
f 80/80/80 81/81/81 58/58/58
f 40/40/40 82/82/82 83/83/83
f 83/83/83 84/84/84 40/40/40
f 22/22/22 23/23/23 74/74/74
f 28/28/28 25/25/25 29/29/29
f 86/86/86 85/85/85 30/30/30
f 25/25/25 28/28/28 26/26/26
f 88/88/88 87/87/87 34/34/34
f 30/30/30 32/32/32 86/86/86
f 40/40/40 84/84/84 38/38/38
f 34/34/34 36/36/36 88/88/88
f 40/40/40 41/41/41 82/82/82
f 46/46/46 43/43/43 47/47/47
f 90/90/90 89/89/89 48/48/48
f 43/43/43 46/46/46 44/44/44
f 92/92/92 91/91/91 52/52/52
f 48/48/48 50/50/50 90/90/90
f 58/58/58 81/81/81 56/56/56
f 52/52/52 54/54/54 92/92/92
f 58/58/58 59/59/59 79/79/79
f 64/64/64 61/61/61 65/65/65
f 94/94/94 93/93/93 66/66/66
f 61/61/61 64/64/64 62/62/62
f 73/73/73 95/95/95 70/70/70
f 66/66/66 68/68/68 94/94/94
f 71/71/71 96/96/96 72/72/72
f 3/3/3 2/2/2 5/5/5
f 3/3/3 4/4/4 77/77/77
f 10/10/10 7/7/7 11/11/11
f 98/98/98 97/97/97 12/12/12
f 7/7/7 10/10/10 8/8/8
f 100/100/100 99/99/99 16/16/16
f 12/12/12 14/14/14 98/98/98
f 22/22/22 76/76/76 20/20/20
f 16/16/16 18/18/18 100/100/100
