mtllib ./Plane02.mtl
g Plane02
v 596.381 -0.0003833771 -447.2864
v 596.381 -0.0003833771 -596.3817
v 447.2856 -0.0003833771 -447.2864
v 447.2856 -0.0003833771 -596.3817
v 298.1902 -0.0003833771 -447.2864
v 298.1902 -0.0003833771 -596.3817
v 149.0949 -0.0003833771 -447.2864
v 149.0949 -0.0003833771 -596.3817
v -0.0004882813 -0.0003833771 -447.2864
v -0.0004882813 -0.0003833771 -596.3817
v -149.0959 -0.0003833771 -447.2864
v -149.0959 -0.0003833771 -596.3817
v -298.1912 -0.0003833771 -447.2864
v -298.1912 -0.0003833771 -596.3817
v -447.2866 -0.0003833771 -447.2864
v -447.2866 -0.0003833771 -596.3817
v -596.382 -0.0003833771 -447.2864
v -596.382 -0.0003833771 -596.3817
v 596.381 -0.0003833771 -298.191
v 447.2856 -0.0003833771 -298.191
v 298.1902 -0.0003833771 -298.191
v 149.0949 -0.0003833771 -298.191
v -0.0004882813 -0.0003833771 -298.191
v -149.0959 -0.0003833771 -298.191
v -298.1912 -0.0003833771 -298.191
v -447.2866 -0.0003833771 -298.191
v -596.382 -0.0003833771 -298.191
v 596.381 -0.0003833771 -149.0956
v 447.2856 -0.0003833771 -149.0956
v 298.1902 -0.0003833771 -149.0956
v -298.1912 -0.0003833771 -149.0956
v -447.2866 -0.0003833771 -149.0956
v -596.382 -0.0003833771 -149.0956
v 596.381 -0.0003833771 -0.0002689362
v 447.2856 -0.0003833771 -0.0002689362
v 298.1902 -0.0003833771 -0.0002689362
v -298.1912 -0.0003833771 -0.0002689362
v -447.2866 -0.0003833771 -0.0002689362
v -596.382 -0.0003833771 -0.0002689362
v 596.381 -0.0003833771 149.0951
v 447.2856 -0.0003833771 149.0951
v 298.1902 -0.0003833771 149.0951
v -298.1912 -0.0003833771 149.0951
v -447.2866 -0.0003833771 149.0951
v -596.382 -0.0003833771 149.0951
v 596.381 -0.0003833771 298.1905
v 447.2856 -0.0003833771 298.1905
v 298.1902 -0.0003833771 298.1905
v -298.1912 -0.0003833771 298.1905
v -447.2866 -0.0003833771 298.1905
v -596.382 -0.0003833771 298.1905
v 596.381 -0.0003833771 447.2858
v 447.2856 -0.0003833771 447.2858
v 298.1902 -0.0003833771 447.2858
v 149.0949 -0.0003833771 447.2858
v 149.0949 -0.0003833771 298.1905
v -0.0004882813 -0.0003833771 447.2858
v -0.0004882813 -0.0003833771 298.1905
v -149.0959 -0.0003833771 447.2858
v -149.0959 -0.0003833771 298.1905
v -298.1912 -0.0003833771 447.2858
v -447.2866 -0.0003833771 447.2858
v -596.382 -0.0003833771 447.2858
v 596.381 -0.0003833771 596.3812
v 447.2856 -0.0003833771 596.3812
v 298.1902 -0.0003833771 596.3812
v 149.0949 -0.0003833771 596.3812
v -0.0004882813 -0.0003833771 596.3812
v -149.0959 -0.0003833771 596.3812
v -298.1912 -0.0003833771 596.3812
v -447.2866 -0.0003833771 596.3812
v -596.382 -0.0003833771 596.3812

vn 0 1 0
vn 0 0.9999999 0
vn 0 1 0
vn 0 1 0
vn 0 1 0
vn 0 1 0
vn 0 1 0
vn 0 1 0
vn 0 1 0
vn 0 1 0
vn 0 1 0
vn 0 1 0
vn 0 1 0
vn 0 1 0
vn 0 1 0
vn 0 1 0
vn 0 1 0
vn 0 0.9999999 0
vn 0 1 0
vn 0 1 0
vn 0 1 0
vn 0 1 0
vn 0 1 0
vn 0 1 0
vn 0 1 0
vn 0 1 0
vn 0 1 0
vn 0 1 0
vn 0 1 0
vn 0 1 0
vn 0 1 0
vn 0 1 0
vn 0 1 0
vn 0 1 0
vn 0 1 0
vn 0 1 0
vn 0 1 0
vn 0 1 0
vn 0 1 0
vn 0 1 0
vn 0 1 0
vn 0 1 0
vn 0 1 0
vn 0 1 0
vn 0 1 0
vn 0 1 0
vn 0 1 0
vn 0 1 0
vn 0 1 0
vn 0 1 0
vn 0 1 0
vn 0 1 0
vn 0 1 0
vn 0 1 0
vn 0 1 0
vn 0 1 0
vn 0 1 0
vn 0 1 0
vn 0 1 0
vn 0 1 0
vn 0 1 0
vn 0 1 0
vn 0 1 0
vn 0 1 0
vn 0 1 0
vn 0 1 0
vn 0 1 0
vn 0 1 0
vn 0 1 0
vn 0 1 0
vn 0 1 0
vn 0 1 0

vt -3.089929 -2.192446
vt -3.08993 -3.089928
vt -2.192447 -2.192446
vt -2.192448 -3.089929
vt -1.294965 -2.192446
vt -1.294966 -3.089929
vt -0.3974831 -2.192447
vt -0.3974833 -3.089929
vt 0.4999992 -2.192447
vt 0.499999 -3.089929
vt 1.397481 -2.192447
vt 1.397481 -3.089929
vt 2.294964 -2.192447
vt 2.294964 -3.08993
vt 3.192446 -2.192448
vt 3.192446 -3.08993
vt 4.089928 -2.192448
vt 4.089928 -3.08993
vt -3.089929 -1.294964
vt -2.192447 -1.294964
vt -1.294965 -1.294964
vt -0.3974829 -1.294964
vt 0.4999994 -1.294965
vt 1.397481 -1.294965
vt 2.294964 -1.294965
vt 3.192446 -1.294965
vt 4.089928 -1.294966
vt -3.089929 -0.3974817
vt -2.192447 -0.3974819
vt -1.294965 -0.3974821
vt 2.294964 -0.397483
vt 3.192446 -0.3974832
vt 4.089928 -0.3974834
vt -3.089929 0.5000006
vt -2.192447 0.5000002
vt -1.294965 0.5000002
vt 2.294964 0.4999993
vt 3.192446 0.4999991
vt 4.089929 0.4999989
vt -3.089929 1.397483
vt -2.192447 1.397483
vt -1.294964 1.397482
vt 2.294964 1.397481
vt 3.192447 1.397481
vt 4.089929 1.397481
vt -3.089929 2.294965
vt -2.192446 2.294965
vt -1.294964 2.294965
vt 2.294965 2.294964
vt 3.192447 2.294963
vt 4.089929 2.294963
vt -3.089928 3.192447
vt -2.192446 3.192447
vt -1.294964 3.192447
vt -0.3974818 3.192447
vt -0.397482 2.294964
vt 0.5000002 3.192446
vt 0.5000002 2.294964
vt 1.397483 3.192446
vt 1.397482 2.294964
vt 2.294965 3.192446
vt 3.192447 3.192446
vt 4.08993 3.192446
vt -3.089928 4.08993
vt -2.192446 4.08993
vt -1.294964 4.089929
vt -0.3974816 4.089929
vt 0.5000007 4.089929
vt 1.397483 4.089928
vt 2.294965 4.089928
vt 3.192447 4.089928
vt 4.08993 4.089928

usemtl sn08_20_sn08du.jpg
usemap sn08_20_sn08du.jpg
f 3/3/3 1/1/1 2/2/2
f 2/2/2 4/4/4 3/3/3
f 5/5/5 3/3/3 4/4/4
f 4/4/4 6/6/6 5/5/5
f 7/7/7 5/5/5 6/6/6
f 6/6/6 8/8/8 7/7/7
f 9/9/9 7/7/7 8/8/8
f 8/8/8 10/10/10 9/9/9
f 11/11/11 9/9/9 10/10/10
f 10/10/10 12/12/12 11/11/11
f 13/13/13 11/11/11 12/12/12
f 12/12/12 14/14/14 13/13/13
f 15/15/15 13/13/13 14/14/14
f 14/14/14 16/16/16 15/15/15
f 17/17/17 15/15/15 16/16/16
f 16/16/16 18/18/18 17/17/17
f 20/20/20 19/19/19 1/1/1
f 1/1/1 3/3/3 20/20/20
f 21/21/21 20/20/20 3/3/3
f 3/3/3 5/5/5 21/21/21
f 22/22/22 21/21/21 5/5/5
f 5/5/5 7/7/7 22/22/22
f 23/23/23 22/22/22 7/7/7
f 7/7/7 9/9/9 23/23/23
f 24/24/24 23/23/23 9/9/9
f 9/9/9 11/11/11 24/24/24
f 25/25/25 24/24/24 11/11/11
f 11/11/11 13/13/13 25/25/25
f 26/26/26 25/25/25 13/13/13
f 13/13/13 15/15/15 26/26/26
f 27/27/27 26/26/26 15/15/15
f 15/15/15 17/17/17 27/27/27
f 29/29/29 28/28/28 19/19/19
f 19/19/19 20/20/20 29/29/29
f 30/30/30 29/29/29 20/20/20
f 20/20/20 21/21/21 30/30/30
f 32/32/32 31/31/31 25/25/25
f 25/25/25 26/26/26 32/32/32
f 33/33/33 32/32/32 26/26/26
f 26/26/26 27/27/27 33/33/33
f 35/35/35 34/34/34 28/28/28
f 28/28/28 29/29/29 35/35/35
f 36/36/36 35/35/35 29/29/29
f 29/29/29 30/30/30 36/36/36
f 38/38/38 37/37/37 31/31/31
f 31/31/31 32/32/32 38/38/38
f 39/39/39 38/38/38 32/32/32
f 32/32/32 33/33/33 39/39/39
f 41/41/41 40/40/40 34/34/34
f 34/34/34 35/35/35 41/41/41
f 42/42/42 41/41/41 35/35/35
f 35/35/35 36/36/36 42/42/42
f 44/44/44 43/43/43 37/37/37
f 37/37/37 38/38/38 44/44/44
f 45/45/45 44/44/44 38/38/38
f 38/38/38 39/39/39 45/45/45
f 47/47/47 46/46/46 40/40/40
f 40/40/40 41/41/41 47/47/47
f 48/48/48 47/47/47 41/41/41
f 41/41/41 42/42/42 48/48/48
f 50/50/50 49/49/49 43/43/43
f 43/43/43 44/44/44 50/50/50
f 51/51/51 50/50/50 44/44/44
f 44/44/44 45/45/45 51/51/51
f 53/53/53 52/52/52 46/46/46
f 46/46/46 47/47/47 53/53/53
f 54/54/54 53/53/53 47/47/47
f 47/47/47 48/48/48 54/54/54
f 55/55/55 54/54/54 48/48/48
f 48/48/48 56/56/56 55/55/55
f 57/57/57 55/55/55 56/56/56
f 56/56/56 58/58/58 57/57/57
f 59/59/59 57/57/57 58/58/58
f 58/58/58 60/60/60 59/59/59
f 61/61/61 59/59/59 60/60/60
f 60/60/60 49/49/49 61/61/61
f 62/62/62 61/61/61 49/49/49
f 49/49/49 50/50/50 62/62/62
f 63/63/63 62/62/62 50/50/50
f 50/50/50 51/51/51 63/63/63
f 65/65/65 64/64/64 52/52/52
f 52/52/52 53/53/53 65/65/65
f 66/66/66 65/65/65 53/53/53
f 53/53/53 54/54/54 66/66/66
f 67/67/67 66/66/66 54/54/54
f 54/54/54 55/55/55 67/67/67
f 68/68/68 67/67/67 55/55/55
f 55/55/55 57/57/57 68/68/68
f 69/69/69 68/68/68 57/57/57
f 57/57/57 59/59/59 69/69/69
f 70/70/70 69/69/69 59/59/59
f 59/59/59 61/61/61 70/70/70
f 71/71/71 70/70/70 61/61/61
f 61/61/61 62/62/62 71/71/71
f 72/72/72 71/71/71 62/62/62
f 62/62/62 63/63/63 72/72/72
