mtllib ./Box182.mtl
g Box182
v 24.29996 -0.0004272461 -16.96655
v 24.29996 -0.0004272461 16.96558
v -24.30004 -0.0004272461 16.96558
v -24.30004 -0.0004272461 -16.96655
v 24.29996 36.66623 -16.96655
v -24.30004 36.66623 -16.96655
v -23.65947 36.66623 16.96558
v 24.29996 36.66623 16.96558
v -24.30004 -0.0004272461 16.96558
v -24.30004 23.71127 16.96558
v -24.30004 23.71127 -16.96655
v -22.03479 27.28134 15.38403
v -22.03479 27.28134 -15.38501
v -24.30004 33.52679 16.96558
v -24.30004 33.52679 -16.96655
v -23.65947 36.66623 16.96558
v -24.30004 36.66623 -16.96655
v -24.30004 -0.0004272461 16.96558
v 24.29996 -0.0004272461 16.96558
v 24.51962 23.71127 16.96558
v -24.30004 23.71127 16.96558
v 22.0347 27.28134 15.38403
v -22.03479 27.28134 15.38403
v 24.29996 33.52679 16.96558
v -24.30004 33.52679 16.96558
v 24.29996 36.66623 16.96558
v -23.65947 36.66623 16.96558
v 24.29996 -0.0004272461 16.96558
v 24.29996 23.71127 -16.96655
v 24.51962 23.71127 16.96558
v 22.0347 27.28134 -15.38501
v 22.0347 27.28134 15.38403
v 24.29996 33.52679 -16.96655
v 24.29996 33.52679 16.96558
v 24.29996 36.66623 -16.96655
v 24.29996 36.66623 16.96558

vn 0.2369975 -0.9715102 0
vn 0 -1 0
vn 0 -1 0
vn -0.69839 -0.7157173 0
vn 0 0.9999999 0
vn 0 1 0
vn 0 0.9999999 0
vn 0 1 0
vn -1 0 0
vn -0.9990148 0.04437861 0
vn -0.9901327 0.1401328 0
vn -0.9838995 0.1787226 0
vn -0.989 -0.1479159 0
vn -0.9713939 -0.2374737 0
vn -0.9916798 -0.1286432 0.00469267
vn -0.9947925 0.1014877 0.009389746
vn -0.9998219 0 0.01887444
vn 0 0 1
vn 0 0 1
vn 0 0.03106464 0.9995174
vn 0 0.09817138 0.9951696
vn 0 0.126213 0.9920032
vn 0 -0.1038554 0.9945924
vn 0 -0.1964937 0.980505
vn 0 -0.1256915 0.9920694
vn 0 0 1
vn 0 0 1
vn 0.9999841 -0.004631853 -0.003236729
vn 0.9991823 0.04028261 -0.003460557
vn 0.9901625 0.1398051 -0.005729957
vn 0.9808721 0.1946451 -0.001817794
vn 0.9908239 -0.1351586 0
vn 0.9611878 -0.2758946 0
vn 0.9840339 -0.1779807 0
vn 0.9999999 0 0
vn 0.9999999 0 0

vt 0.9995005 0.0004998744
vt 0.9995003 0.9995005
vt 0.0004995167 0.9995002
vt 0.0004996955 0.0004995465
vt 0.0004995167 0.0004998744
vt 0.9995003 0.0004995465
vt 0.9995005 0.9995002
vt 0.0004996955 0.9995005
vt 0.9995002 0.0004995763
vt 0.9995002 0.6465358
vt 0.0004995465 0.6465358
vt 0.9529366 0.7438044
vt 0.04706308 0.7438044
vt 0.9995002 0.9139646
vt 0.0004995465 0.9139646
vt 0.9995002 0.9995004
vt 0.0004995465 0.9995004
vt 0.0004995167 0.0004995763
vt 0.9995003 0.0004995763
vt 0.9995003 0.6465358
vt 0.0004995167 0.6465358
vt 0.9529368 0.7438044
vt 0.04706311 0.7438044
vt 0.9995003 0.9139646
vt 0.0004995167 0.9139646
vt 0.9995003 0.9995004
vt 0.0004995167 0.9995004
vt 0.0004995465 0.0004995763
vt 0.9995002 0.6465358
vt 0.0004995465 0.6465358
vt 0.9529366 0.7438044
vt 0.04706308 0.7438044
vt 0.9995002 0.9139646
vt 0.0004995465 0.9139646
vt 0.9995002 0.9995004
vt 0.0004995465 0.9995004

usemtl sn11_18_sngsc13.jpg
usemap sn11_18_sngsc13.jpg
f 3/3/3 1/1/1 2/2/2
f 1/1/1 3/3/3 4/4/4
f 7/7/7 5/5/5 6/6/6
f 5/5/5 7/7/7 8/8/8
f 10/10/10 4/4/4 9/9/9
f 4/4/4 10/10/10 11/11/11
f 12/12/12 11/11/11 10/10/10
f 11/11/11 12/12/12 13/13/13
f 14/14/14 13/13/13 12/12/12
f 13/13/13 14/14/14 15/15/15
f 16/16/16 15/15/15 14/14/14
f 15/15/15 16/16/16 17/17/17
f 20/20/20 18/18/18 19/19/19
f 18/18/18 20/20/20 21/21/21
f 22/22/22 21/21/21 20/20/20
f 21/21/21 22/22/22 23/23/23
f 24/24/24 23/23/23 22/22/22
f 23/23/23 24/24/24 25/25/25
f 26/26/26 25/25/25 24/24/24
f 25/25/25 26/26/26 27/27/27
f 29/29/29 28/28/28 1/1/1
f 28/28/28 29/29/29 30/30/30
f 31/31/31 30/30/30 29/29/29
f 30/30/30 31/31/31 32/32/32
f 33/33/33 32/32/32 31/31/31
f 32/32/32 33/33/33 34/34/34
f 35/35/35 34/34/34 33/33/33
f 34/34/34 35/35/35 36/36/36
