mtllib ./Box170.mtl
g Box170
v 95.25298 0.0004272461 -10.26953
v 95.25298 0.0004272461 10.27051
v 70.42885 0.0004272461 10.27051
v 70.42885 0.0004272461 -10.26953
v 44.00581 0.0004272461 10.27051
v 44.00581 0.0004272461 -10.26953
v -1.847833 0.0004272461 10.27051
v -1.847833 0.0004272461 -10.26953
v 110.183 20.00043 -10.26953
v 104.0545 20.00043 -10.26953
v 105.5454 20.00043 10.27051
v 111.5688 20.00043 10.27051
v 100.9442 20.00043 -10.26953
v 100.9442 20.00043 10.27051
v 95.25298 20.00043 -10.26953
v 95.25298 20.00043 10.27051
v 70.42885 20.00043 -10.26953
v 70.42885 20.00043 10.27051
v 44.00581 20.00043 -10.26953
v 44.00581 20.00043 10.27051
v -1.847833 20.00043 -10.26953
v -1.847833 20.00043 10.27051
v -1.847833 0.0004272461 10.27051
v 44.00581 0.0004272461 10.27051
v 44.00581 6.667084 10.27051
v -1.847833 6.667084 10.27051
v 70.42885 0.0004272461 10.27051
v 70.42886 6.667084 10.27051
v 95.25298 0.0004272461 10.27051
v 95.253 6.667084 10.27051
v 100.9442 6.667084 10.27051
v 95.253 6.667084 10.27051
v 95.25298 0.0004272461 10.27051
v 44.00581 13.33377 10.27051
v -1.847833 13.33377 10.27051
v 70.42886 13.33377 10.27051
v 95.253 13.33377 10.27051
v 100.9442 6.667084 10.27051
v 100.9442 13.33377 10.27051
v 104.6014 7.597992 10.27051
v 105.5454 13.33377 10.27051
v 108.9324 13.68085 10.27051
v -1.847833 13.33377 10.27051
v 44.00581 13.33377 10.27051
v 44.00581 20.00043 10.27051
v -1.847833 20.00043 10.27051
v 70.42886 13.33377 10.27051
v 70.42885 20.00043 10.27051
v 95.253 13.33377 10.27051
v 95.25298 20.00043 10.27051
v 100.9442 13.33377 10.27051
v 100.9442 20.00043 10.27051
v 105.5454 13.33377 10.27051
v 105.5454 20.00043 10.27051
v 108.9324 13.68085 10.27051
v 111.5688 20.00043 10.27051
v 108.9324 13.68085 10.27051
v 108.9324 13.68085 -10.09326
v 110.183 20.00043 -10.26953
v 111.5688 20.00043 10.27051
v 95.25298 0.0004272461 -9.916992
v 100.9442 6.667084 -9.916992
v 100.9442 6.667084 10.27051
v 95.25298 0.0004272461 10.27051
v 104.6014 7.597992 -9.916992
v 104.6014 7.597992 10.27051
v -98.94865 0.0004272461 -10.26953
v -74.12452 0.0004272461 10.27051
v -98.94865 0.0004272461 10.27051
v -74.12452 0.0004272461 -10.26953
v -47.70147 0.0004272461 10.27051
v -47.70147 0.0004272461 -10.26953
v -113.8787 20.00043 -10.26953
v -109.2411 20.00043 10.27051
v -107.7501 20.00043 -10.26953
v -114.3647 20.00043 10.27051
v -104.6399 20.00043 10.27051
v -104.6399 20.00043 -10.26953
v -98.94865 20.00043 10.27051
v -98.94865 20.00043 -10.26953
v -74.12452 20.00043 10.27051
v -74.12452 20.00043 -10.26953
v -47.70147 20.00043 10.27051
v -47.70147 20.00043 -10.26953
v -47.70148 6.667084 10.27051
v -47.70147 0.0004272461 10.27051
v -74.12453 6.667084 10.27051
v -74.12452 0.0004272461 10.27051
v -98.94867 6.667084 10.27051
v -98.94865 0.0004272461 10.27051
v -104.6399 6.667084 10.27051
v -98.94865 0.0004272461 10.27051
v -98.94867 6.667084 10.27051
v -47.70148 13.33377 10.27051
v -74.12453 13.33377 10.27051
v -98.94867 13.33377 10.27051
v -104.6399 13.33377 10.27051
v -104.6399 6.667084 10.27051
v -109.2411 13.33377 10.27051
v -108.2971 7.597992 10.27051
v -112.6281 13.68085 10.27051
v -47.70147 20.00043 10.27051
v -47.70148 13.33377 10.27051
v -74.12452 20.00043 10.27051
v -74.12453 13.33377 10.27051
v -98.94865 20.00043 10.27051
v -98.94867 13.33377 10.27051
v -104.6399 20.00043 10.27051
v -104.6399 13.33377 10.27051
v -109.2411 20.00043 10.27051
v -109.2411 13.33377 10.27051
v -114.3647 20.00043 10.27051
v -112.6281 13.68085 10.27051
v -112.6281 13.68085 10.27051
v -113.8787 20.00043 -10.26953
v -112.6281 13.68085 -10.09326
v -114.3647 20.00043 10.27051
v -98.94865 0.0004272461 -9.916992
v -104.6399 6.667084 10.27051
v -104.6399 6.667084 -9.916992
v -98.94865 0.0004272461 10.27051
v -108.2971 7.597992 10.27051
v -108.2971 7.597992 -9.916992

vn 0 -1 0
vn 0 -1 0
vn 0 -1 0
vn 0 -1 0
vn 0 -1 0
vn 0 -1 0
vn 0 -1 0
vn 0 -1 0
vn 0 1 0
vn 0 1 0
vn 0 1 0
vn 0 1 0
vn 0 1 0
vn 0 1 0
vn 0 1 0
vn 0 1 0
vn 0 1 0
vn 0 1 0
vn 0 1 0
vn 0 1 0
vn 0 1 0
vn 0 1 0
vn 0 0 1
vn 0 0 1
vn 0 0 1
vn 0 0 1
vn 0 0 1
vn 0 0 1
vn 0 0 1
vn 0 0 1
vn 0 0 1
vn 0 0 1
vn 0 0 1
vn 0 0 1
vn 0 0 0.9999999
vn 0 0 1
vn 0 0 1
vn 0 0 1
vn 0 0 0.9999999
vn 0 0 1
vn 0 0 1
vn 0 0 1
vn 0 0 1
vn 0 0 1
vn 0 0 0.9999999
vn 0 0 1
vn 0 0 1
vn 0 0 1
vn 0 0 0.9999999
vn 0 0 1
vn 0 0 1
vn 0 0 1
vn 0 0 0.9999999
vn 0 0 1
vn 0 0 1
vn 0 0 1
vn 0.8924289 -0.4509228 -0.01547159
vn 0.9119077 -0.4103953 0
vn 0.9551917 -0.2942132 -0.03236166
vn 0.9211225 -0.3842799 -0.06214699
vn 0.7605534 -0.6492754 0
vn 0.5483657 -0.8362386 0
vn 0.688154 -0.7255647 0
vn 0.7605534 -0.6492754 0
vn 0.7287332 -0.6847978 0
vn 0.5635628 -0.8260733 0
vn 0 -1 0
vn 0 -1 0
vn 0 -1 0
vn 0 -0.9999999 0
vn 0 -1 0
vn 0 -1 0
vn 0 1 0
vn 0 1 0
vn 0 1 0
vn 0 1 0
vn 0 1 0
vn 0 1 0
vn 0 1 0
vn 0 1 0
vn 0 1 0
vn 0 0.9999999 0
vn 0 1 0
vn 0 1 0
vn 0 0 1
vn 0 0 1
vn 0 0 1
vn 0 0 1
vn 0 0 1
vn 0 0 1
vn 0 0 1
vn 0 0 1
vn 0 0 1
vn 0 0 1
vn 0 0 1
vn 0 0 1
vn 0 0 0.9999999
vn 0 0 1
vn 0 0 1
vn 0 0 1
vn 0 0 1
vn 0 0 1
vn 0 0 1
vn 0 0 1
vn 0 0 1
vn 0 0 1
vn 0 0 0.9999999
vn 0 0 1
vn 0 0 1
vn 0 0 1
vn 0 0 0.9999999
vn 0 0 1
vn 0 0 1
vn -0.905466 -0.424383 -0.005505365
vn -0.973086 -0.230152 -0.0115623
vn -0.9119077 -0.4103953 0
vn -0.9640024 -0.2649133 -0.02281044
vn -0.7605534 -0.6492754 0
vn -0.688154 -0.7255647 0
vn -0.5483657 -0.8362386 0
vn -0.7605534 -0.6492754 0
vn -0.5635628 -0.8260733 0
vn -0.7287332 -0.6847978 0

vt 0.01012439 -0.4356367
vt 0.1010094 -0.4356367
vt 0.1010094 -0.2045847
vt 0.01012439 -0.2045847
vt 0.1010094 0.0413492
vt 0.01012439 0.0413492
vt 0.1010094 0.4681345
vt 0.01012439 0.4681345
vt 0.1160974 -0.5745988
vt 0.1160974 -0.5175569
vt 0.02521241 -0.5314339
vt 0.02521241 -0.5745988
vt 0.1160974 -0.4886082
vt 0.02521241 -0.4886082
vt 0.1160974 -0.4356367
vt 0.02521241 -0.4356367
vt 0.1160974 -0.2045847
vt 0.02521241 -0.2045847
vt 0.1160974 0.0413492
vt 0.02521241 0.0413492
vt 0.1160974 0.4681345
vt 0.02521241 0.4681345
vt 0.9679272 0.4681345
vt 0.9679272 -0.4378555
vt 1.033014 -0.4378557
vt 1.033014 0.4681345
vt 0.9679272 -0.9599299
vt 1.033014 -0.9599301
vt 0.9679272 -1.450413
vt 1.033014 -1.450413
vt 1.046537 -1.562862
vt 1.046537 -1.450413
vt 1.017001 -1.450413
vt 1.098101 -0.4378557
vt 1.098101 0.4681345
vt 1.098101 -0.9599301
vt 1.098101 -1.450413
vt 1.033014 -1.562862
vt 1.098101 -1.562862
vt 1.042102 -1.635122
vt 1.098101 -1.653773
vt 1.10149 -1.720694
vt 1.076072 0.4681345
vt 1.076072 -0.4378557
vt 1.105608 -0.4378555
vt 1.105608 0.4681345
vt 1.076072 -0.9599301
vt 1.105608 -0.9599299
vt 1.076072 -1.450413
vt 1.105608 -1.450413
vt 1.076072 -1.562862
vt 1.105608 -1.562862
vt 1.076072 -1.653773
vt 1.105608 -1.653773
vt 1.07761 -1.720694
vt 1.105608 -1.745405
vt 0.3586164 2.031227
vt 0.3586164 1.906064
vt 0.3020306 1.90498
vt 0.3020307 2.031227
vt 0.5596012 1.907147
vt 0.4686326 1.907147
vt 0.4686326 2.031227
vt 0.5596012 2.031227
vt 0.435453 1.907147
vt 0.4354531 2.031227
vt 0.01012439 1.371906
vt 0.1010094 1.140854
vt 0.1010094 1.371906
vt 0.01012439 1.140854
vt 0.1010094 0.8949198
vt 0.01012439 0.8949198
vt 0.1160974 1.510868
vt 0.02521241 1.467703
vt 0.1160974 1.453826
vt 0.02521241 1.510868
vt 0.02521241 1.424877
vt 0.1160974 1.424877
vt 0.02521241 1.371906
vt 0.1160974 1.371906
vt 0.02521241 1.140854
vt 0.1160974 1.140854
vt 0.02521241 0.8949198
vt 0.1160974 0.8949198
vt 1.033014 1.374125
vt 0.9679272 1.374125
vt 1.033014 1.896199
vt 0.967927 1.896199
vt 1.033014 2.386682
vt 0.967927 2.386682
vt 1.046537 2.499131
vt 1.017001 2.386682
vt 1.046537 2.386682
vt 1.098101 1.374125
vt 1.098101 1.896199
vt 1.098101 2.386682
vt 1.098101 2.499131
vt 1.033014 2.499131
vt 1.098101 2.590042
vt 1.042102 2.571391
vt 1.101489 2.656963
vt 1.105608 1.374125
vt 1.076072 1.374125
vt 1.105608 1.896199
vt 1.076072 1.896199
vt 1.105608 2.386682
vt 1.076072 2.386682
vt 1.105608 2.499131
vt 1.076072 2.499131
vt 1.105608 2.590042
vt 1.076072 2.590042
vt 1.105608 2.681674
vt 1.07761 2.656963
vt 0.6071475 0.6029897
vt 0.6287106 0.3970102
vt 0.6071475 0.398778
vt 0.6287107 0.6029897
vt 0.3712893 0.4005458
vt 0.469417 0.6029898
vt 0.4694169 0.4005458
vt 0.3712894 0.6029898
vt 0.5324737 0.6029898
vt 0.5324736 0.4005458

usemtl sn11_19_sngsc11.jpg
usemap sn11_19_sngsc11.jpg
f 3/3/3 1/1/1 2/2/2
f 1/1/1 3/3/3 4/4/4
f 5/5/5 4/4/4 3/3/3
f 4/4/4 5/5/5 6/6/6
f 7/7/7 6/6/6 5/5/5
f 6/6/6 7/7/7 8/8/8
f 11/11/11 9/9/9 10/10/10
f 9/9/9 11/11/11 12/12/12
f 14/14/14 10/10/10 13/13/13
f 10/10/10 14/14/14 11/11/11
f 16/16/16 13/13/13 15/15/15
f 13/13/13 16/16/16 14/14/14
f 18/18/18 15/15/15 17/17/17
f 15/15/15 18/18/18 16/16/16
f 20/20/20 17/17/17 19/19/19
f 17/17/17 20/20/20 18/18/18
f 22/22/22 19/19/19 21/21/21
f 19/19/19 22/22/22 20/20/20
f 25/25/25 23/23/23 24/24/24
f 23/23/23 25/25/25 26/26/26
f 28/28/28 24/24/24 27/27/27
f 24/24/24 28/28/28 25/25/25
f 30/30/30 27/27/27 29/29/29
f 27/27/27 30/30/30 28/28/28
f 33/33/33 31/31/31 32/32/32
f 34/34/34 26/26/26 25/25/25
f 26/26/26 34/34/34 35/35/35
f 36/36/36 25/25/25 28/28/28
f 25/25/25 36/36/36 34/34/34
f 37/37/37 28/28/28 30/30/30
f 28/28/28 37/37/37 36/36/36
f 39/39/39 30/30/30 38/38/38
f 30/30/30 39/39/39 37/37/37
f 41/41/41 38/38/38 40/40/40
f 38/38/38 41/41/41 39/39/39
f 40/40/40 42/42/42 41/41/41
f 45/45/45 43/43/43 44/44/44
f 43/43/43 45/45/45 46/46/46
f 48/48/48 44/44/44 47/47/47
f 44/44/44 48/48/48 45/45/45
f 50/50/50 47/47/47 49/49/49
f 47/47/47 50/50/50 48/48/48
f 52/52/52 49/49/49 51/51/51
f 49/49/49 52/52/52 50/50/50
f 54/54/54 51/51/51 53/53/53
f 51/51/51 54/54/54 52/52/52
f 56/56/56 53/53/53 55/55/55
f 53/53/53 56/56/56 54/54/54
f 59/59/59 57/57/57 58/58/58
f 57/57/57 59/59/59 60/60/60
f 63/63/63 61/61/61 62/62/62
f 61/61/61 63/63/63 64/64/64
f 66/66/66 62/62/62 65/65/65
f 62/62/62 66/66/66 63/63/63
f 57/57/57 65/65/65 58/58/58
f 65/65/65 57/57/57 66/66/66
f 69/69/69 67/67/67 68/68/68
f 70/70/70 68/68/68 67/67/67
f 68/68/68 70/70/70 71/71/71
f 72/72/72 71/71/71 70/70/70
f 71/71/71 72/72/72 7/7/7
f 8/8/8 7/7/7 72/72/72
f 75/75/75 73/73/73 74/74/74
f 76/76/76 74/74/74 73/73/73
f 78/78/78 75/75/75 77/77/77
f 74/74/74 77/77/77 75/75/75
f 80/80/80 78/78/78 79/79/79
f 77/77/77 79/79/79 78/78/78
f 82/82/82 80/80/80 81/81/81
f 79/79/79 81/81/81 80/80/80
f 84/84/84 82/82/82 83/83/83
f 81/81/81 83/83/83 82/82/82
f 21/21/21 84/84/84 22/22/22
f 83/83/83 22/22/22 84/84/84
f 86/86/86 23/23/23 85/85/85
f 26/26/26 85/85/85 23/23/23
f 88/88/88 86/86/86 87/87/87
f 85/85/85 87/87/87 86/86/86
f 90/90/90 88/88/88 89/89/89
f 87/87/87 89/89/89 88/88/88
f 93/93/93 91/91/91 92/92/92
f 85/85/85 26/26/26 94/94/94
f 35/35/35 94/94/94 26/26/26
f 87/87/87 85/85/85 95/95/95
f 94/94/94 95/95/95 85/85/85
f 89/89/89 87/87/87 96/96/96
f 95/95/95 96/96/96 87/87/87
f 98/98/98 89/89/89 97/97/97
f 96/96/96 97/97/97 89/89/89
f 100/100/100 98/98/98 99/99/99
f 97/97/97 99/99/99 98/98/98
f 99/99/99 101/101/101 100/100/100
f 103/103/103 43/43/43 102/102/102
f 46/46/46 102/102/102 43/43/43
f 105/105/105 103/103/103 104/104/104
f 102/102/102 104/104/104 103/103/103
f 107/107/107 105/105/105 106/106/106
f 104/104/104 106/106/106 105/105/105
f 109/109/109 107/107/107 108/108/108
f 106/106/106 108/108/108 107/107/107
f 111/111/111 109/109/109 110/110/110
f 108/108/108 110/110/110 109/109/109
f 113/113/113 111/111/111 112/112/112
f 110/110/110 112/112/112 111/111/111
f 116/116/116 114/114/114 115/115/115
f 117/117/117 115/115/115 114/114/114
f 120/120/120 118/118/118 119/119/119
f 121/121/121 119/119/119 118/118/118
f 123/123/123 120/120/120 122/122/122
f 119/119/119 122/122/122 120/120/120
f 116/116/116 123/123/123 114/114/114
f 122/122/122 114/114/114 123/123/123
