mtllib ./Box189.mtl
g Box189
v 3.205986 -27.71222 -1092.658
v 3.212715 -20.23239 -1127.616
v -3.205994 -27.71219 -1092.658
v 3.205994 -57.58746 -879.0775
v -3.205994 -57.58746 -879.0775
v 3.206001 -89.84418 -641.9005
v -3.205978 -89.84418 -641.9005
v 3.206001 -111.2879 -435.1234
v -3.205978 -111.2879 -435.1234
v 3.205978 -130.4426 -200.2555
v -3.206001 -130.4426 -200.2557
v 3.206017 -125.8686 95.07397
v -3.205986 -125.8686 95.07422
v 3.205986 -116.4262 400.1995
v -3.206009 -116.4262 400.1998
v 3.206009 -94.14151 666.6337
v -3.205978 -94.14154 666.6329
v 3.205986 -57.96915 993.5717
v -3.206001 -57.96915 993.5717
v 3.205978 -17.09415 1254.706
v -3.206017 -17.09409 1254.707
v -3.212715 -20.16522 -1127.928
v 0.03762817 -24.5062 -1092.658
v 0.03762817 -17.01968 -1127.616
v 0.03761292 -30.91818 -1092.658
v 0.03762817 -54.38144 -879.0775
v 0.03762817 -60.79346 -879.0775
v 0.03762817 -86.63815 -641.9005
v 0.03762817 -93.05017 -641.9005
v 0.03762817 -108.0818 -435.1234
v 0.03761292 -114.4939 -435.1234
v 0.03762817 -127.2366 -200.2555
v 0.03762817 -133.6486 -200.2555
v 0.03762817 -122.6626 95.07385
v 0.03762817 -129.0746 95.07361
v 0.03762817 -113.2202 400.2
v 0.03761292 -119.6322 400.1997
v 0.03762817 -90.93552 666.6329
v 0.03762817 -97.3475 666.6329
v 0.03761292 -54.76318 993.5717
v 0.03761292 -61.17517 993.5717
v 0.03762817 -13.88809 1254.707
v 0.03761292 -20.30014 1254.706
v 0.03762054 -23.37793 -1127.928

vn 2.53308E-06 0.9895824 0.1439672
vn 2.138064E-05 0.977865 0.2092374
vn 8.884878E-06 0.9877124 0.156283
vn 0 0.9907181 0.1359323
vn 1.51567E-06 0.9905455 0.1371851
vn 1.502388E-06 0.9933985 0.1147141
vn 0 0.992131 0.1252046
vn 2.021162E-06 0.9961221 0.08798262
vn 3.226966E-06 0.9954537 0.09524672
vn -2.585957E-06 0.9999266 0.01212071
vn 7.347431E-07 0.9990293 0.044052
vn -2.73608E-06 0.9996647 -0.02589595
vn -3.590896E-06 0.9997848 -0.02074866
vn 2.602857E-06 0.9979293 -0.06432024
vn -1.029441E-06 0.9988992 -0.04690869
vn 4.164938E-06 0.9947552 -0.1022841
vn 4.456481E-06 0.9956197 -0.09349564
vn -2.546565E-06 0.9904959 -0.137542
vn 2.793753E-06 0.9924315 -0.1227994
vn -8.260289E-06 0.98797 -0.1546456
vn -4.130141E-06 0.98797 -0.1546455
vn 3.792427E-05 0.9778642 0.2092403
vn -1 1.279869E-06 2.25417E-07
vn -1 1.785611E-06 2.734344E-07
vn -1 2.232603E-06 3.719037E-07
vn -0.9999999 0 0
vn -1 7.650657E-07 1.299842E-07
vn -1 7.561817E-07 5.497069E-08
vn -1 0 -2.240213E-08
vn -1 1.553543E-06 1.653652E-07
vn -1 1.620843E-06 1.489966E-07
vn -1 0 0
vn -1 7.305538E-07 7.952494E-08
vn -1 8.018232E-07 -4.166275E-08
vn -1 6.485788E-13 -1.703403E-08
vn -0.9999999 1.623114E-06 -7.188985E-08
vn -1 1.551476E-06 -8.612202E-08
vn -1 0 -3.31601E-08
vn -0.9999999 7.374217E-07 -6.16787E-08
vn -1 7.317764E-07 -1.145441E-07
vn -1 0 -3.335212E-08
vn -1 2.379742E-06 -3.14065E-07
vn -1 1.189868E-06 -1.570321E-07
vn -1 1.197964E-06 3.979459E-08

vt -56.07779 1.013458
vt -59.53035 1.013458
vt -56.07779 0.7933601
vt -44.84146 1.013458
vt -44.84146 0.7933601
vt -34.02775 1.013458
vt -34.02775 0.7933601
vt -23.63451 1.013458
vt -23.63451 0.7933601
vt -11.45195 1.013458
vt -11.45195 0.7933601
vt 3.866771 1.013458
vt 3.866771 0.7933601
vt 19.69361 1.013458
vt 19.69361 0.7933601
vt 33.51263 1.013458
vt 33.51263 0.7933601
vt 48.52819 1.013458
vt 48.52819 0.7933601
vt 63.40582 1.013458
vt 63.40582 0.7933601
vt -59.57024 0.7933601
vt -56.07779 1.013458
vt -59.53035 1.013458
vt -56.07779 0.7933601
vt -44.84146 1.013458
vt -44.84146 0.7933601
vt -34.02775 1.013458
vt -34.02775 0.7933601
vt -23.63451 1.013458
vt -23.63451 0.7933601
vt -11.45195 1.013458
vt -11.45195 0.7933601
vt 3.866771 1.013458
vt 3.866771 0.7933601
vt 19.69361 1.013458
vt 19.69361 0.7933601
vt 33.51263 1.013458
vt 33.51263 0.7933601
vt 48.52819 1.013458
vt 48.52819 0.7933601
vt 63.40582 1.013458
vt 63.40582 0.7933601
vt -59.57024 0.7933601

usemtl sn11_39_kmsc03.bmp
usemap sn11_39_kmsc03.bmp
f 3/3/3 1/1/1 2/2/2
f 5/5/5 4/4/4 1/1/1
f 1/1/1 3/3/3 5/5/5
f 7/7/7 6/6/6 4/4/4
f 4/4/4 5/5/5 7/7/7
f 9/9/9 8/8/8 6/6/6
f 6/6/6 7/7/7 9/9/9
f 11/11/11 10/10/10 8/8/8
f 8/8/8 9/9/9 11/11/11
f 13/13/13 12/12/12 10/10/10
f 10/10/10 11/11/11 13/13/13
f 15/15/15 14/14/14 12/12/12
f 12/12/12 13/13/13 15/15/15
f 17/17/17 16/16/16 14/14/14
f 14/14/14 15/15/15 17/17/17
f 19/19/19 18/18/18 16/16/16
f 16/16/16 17/17/17 19/19/19
f 21/21/21 20/20/20 18/18/18
f 18/18/18 19/19/19 21/21/21
f 3/3/3 2/2/2 22/22/22
f 25/25/25 23/23/23 24/24/24
f 27/27/27 26/26/26 23/23/23
f 23/23/23 25/25/25 27/27/27
f 29/29/29 28/28/28 26/26/26
f 26/26/26 27/27/27 29/29/29
f 31/31/31 30/30/30 28/28/28
f 28/28/28 29/29/29 31/31/31
f 33/33/33 32/32/32 30/30/30
f 30/30/30 31/31/31 33/33/33
f 35/35/35 34/34/34 32/32/32
f 32/32/32 33/33/33 35/35/35
f 37/37/37 36/36/36 34/34/34
f 34/34/34 35/35/35 37/37/37
f 39/39/39 38/38/38 36/36/36
f 36/36/36 37/37/37 39/39/39
f 41/41/41 40/40/40 38/38/38
f 38/38/38 39/39/39 41/41/41
f 43/43/43 42/42/42 40/40/40
f 40/40/40 41/41/41 43/43/43
f 25/25/25 24/24/24 44/44/44
