mtllib ./Box202.mtl
g Box202
v -24.0392 -9.138702 -5.000488
v -24.0392 -9.138702 4.999512
v -30.61723 0.0003356934 -9.229248
v -30.61723 0.0003356934 9.228271
v -4.688526 -9.138702 -5.000488
v -24.0392 -9.138702 -5.000488
v -8.031738 0.0003356934 -9.229248
v -30.61723 0.0003356934 -9.229248
v 14.66213 -9.138702 -5.000488
v 12.96281 0.0003356934 -9.229248
v 33.84579 -9.138702 -5.000488
v 33.79036 0.0003356934 -9.229248
v 33.84579 -9.138702 4.999512
v 33.84579 -9.138702 -5.000488
v 33.79036 0.0003356934 9.228271
v 33.79036 0.0003356934 -9.229248
v 12.96281 1.272369 9.228271
v 34.01279 10.31812 -0.0004882813
v 14.66213 10.31812 -0.0004882813
v 33.95736 1.272369 9.228271
v -8.031738 1.272369 9.228271
v -4.688526 10.31812 -0.0004882813
v -33.51576 1.272369 9.228271
v -24.0392 10.31812 -0.0004882813
v -24.0392 10.31812 -0.0004882813
v -33.51576 1.403656 -13.04004
v -33.51576 1.272369 9.228271
v -8.031738 1.403656 -13.04004
v -24.0392 10.31812 -0.0004882813
v -4.688526 10.31812 -0.0004882813
v -33.51576 1.403656 -13.04004
v 12.96281 1.403656 -13.04004
v 14.66213 10.31812 -0.0004882813
v 33.95736 1.403656 -13.04004
v 34.01279 10.31812 -0.0004882813
v 33.95736 1.272369 9.228271
v -8.031738 0.0003356934 -9.229248
v -30.61723 0.0003356934 -9.229248
v -8.031738 1.403656 -13.04004
v -33.51576 1.403656 -13.04004
v 12.96281 0.0003356934 -9.229248
v 12.96281 1.403656 -13.04004
v 33.79036 0.0003356934 -9.229248
v 33.95736 1.403656 -13.04004
v -30.61723 0.0003356934 -9.229248
v -30.61723 0.0003356934 9.228271
v -33.51576 1.403656 -13.04004
v -33.51576 1.272369 9.228271
v 33.79036 0.0003356934 9.228271
v 33.79036 0.0003356934 -9.229248
v 33.95736 1.272369 9.228271
v 33.95736 1.403656 -13.04004

vn -0.8116216 -0.5841834 0
vn -0.8116217 -0.5841835 0
vn -0.8116217 -0.5841835 0
vn -0.8116217 -0.5841834 0
vn 0 -0.4199374 -0.9075531
vn 0 -0.4199374 -0.9075531
vn 0 -0.4199374 -0.907553
vn 0 -0.4199374 -0.907553
vn 0 -0.4199374 -0.9075531
vn 0 -0.4199373 -0.9075531
vn 0 -0.4199374 -0.907553
vn 0 -0.4199374 -0.9075531
vn 0.9999815 0.006065227 0
vn 0.9999816 0.006065228 0
vn 0.9999816 0.006065228 0
vn 0.9999816 0.006065228 0
vn 0 0.7141524 0.6999902
vn 0 0.7141525 0.6999903
vn 0 0.7141524 0.6999902
vn 0 0.7141525 0.6999902
vn 0 0.7141525 0.6999902
vn 0 0.7141525 0.6999902
vn 0 0.7141525 0.6999903
vn 0 0.7141524 0.6999902
vn -0.6882844 0.7254283 0.004276868
vn -0.6882844 0.7254283 0.004276868
vn -0.6882844 0.7254283 0.004276868
vn 0 0.8255238 -0.5643674
vn 0 0.8255237 -0.5643674
vn 0 0.8255237 -0.5643674
vn 0 0.8255237 -0.5643674
vn 0 0.8255237 -0.5643674
vn 0 0.8255237 -0.5643674
vn 0.3001747 0.7868591 -0.5392105
vn 0.5492363 0.6887733 -0.4732131
vn 0.999981 -0.006164859 -3.634599E-05
vn 0 -0.9383954 -0.3455633
vn 0 -0.9383955 -0.3455633
vn 0 -0.9383954 -0.3455632
vn 0 -0.9383954 -0.3455633
vn 0 -0.9383954 -0.3455633
vn 0 -0.9383955 -0.3455633
vn 0 -0.9383954 -0.3455633
vn 0 -0.9383954 -0.3455633
vn -0.4357638 -0.9000611 0
vn -0.4174409 -0.9086993 -0.002929346
vn -0.4174409 -0.9086993 -0.002929346
vn -0.4018541 -0.9156878 -0.005398594
vn 0.9914919 -0.1301687 0
vn 0.9922266 -0.1244441 -0.0004011668
vn 0.9922266 -0.1244441 -0.0004011668
vn 0.9927658 -0.1200647 -0.0007078619

vt 0.7706223 0.3881324
vt 0.2293782 0.3881324
vt 0.9995005 0.9994993
vt 0.0004995167 0.9995005
vt 0.6996396 0.3849244
vt -0.001725674 0.3849244
vt 0.70459 0.9994998
vt -0.0010373 0.9994987
vt 1.329309 0.3849244
vt 1.323346 0.9994998
vt 1.841153 0.3849244
vt 1.839778 0.9995005
vt 0.7706219 0.3810551
vt 0.2293779 0.3810551
vt 0.9995005 0.9995005
vt 0.0004994571 0.9995
vt 0.02976954 0.0005007684
vt -0.7487509 0.9995005
vt -0.03307861 0.9994999
vt -0.7467009 0.0005013049
vt 0.8062403 0.000500232
vt 0.6825936 0.9994994
vt 1.748751 0.0004995763
vt 1.398266 0.999499
vt 0.4061394 0.9943472
vt 1.048476 0.005653143
vt -0.04847604 0.005653739
vt 0.7560539 0.8672792
vt 1.251059 0.1327202
vt 0.6526701 0.1327205
vt 1.544106 0.8672788
vt 0.1068307 0.8672794
vt 0.05428195 0.1327207
vt -0.542392 0.8672797
vt -0.5441062 0.132721
vt 0 2.802597E-45
vt 0.7402963 -0.01516658
vt 1.397938 -0.01516712
vt 0.7402963 0.1093313
vt 1.482337 0.1093311
vt 0.1289796 -0.01516646
vt 0.1289797 0.1093315
vt -0.477474 -0.01516658
vt -0.4823367 0.1093317
vt 0.09124431 -0.01038074
vt 0.9570051 -0.01038104
vt -0.08750242 0.08880594
vt 0.9570051 0.08880562
vt 0.9995005 0.004019171
vt 0.1714587 0.004018873
vt 0.9995005 0.1007418
vt 0.0004994869 0.1107241

usemtl sn11_22_sngsc05.jpg
usemap sn11_22_sngsc05.jpg
f 3/3/3 1/1/1 2/2/2
f 2/2/2 4/4/4 3/3/3
f 7/7/7 5/5/5 6/6/6
f 6/6/6 8/8/8 7/7/7
f 10/10/10 9/9/9 5/5/5
f 5/5/5 7/7/7 10/10/10
f 12/12/12 11/11/11 9/9/9
f 9/9/9 10/10/10 12/12/12
f 15/15/15 13/13/13 14/14/14
f 14/14/14 16/16/16 15/15/15
f 39/39/39 37/37/37 38/38/38
f 38/38/38 40/40/40 39/39/39
f 42/42/42 41/41/41 37/37/37
f 37/37/37 39/39/39 42/42/42
f 44/44/44 43/43/43 41/41/41
f 41/41/41 42/42/42 44/44/44
f 47/47/47 45/45/45 46/46/46
f 46/46/46 48/48/48 47/47/47
f 51/51/51 49/49/49 50/50/50
f 50/50/50 52/52/52 51/51/51

usemtl sn11_23_sngsc06.jpg
usemap sn11_23_sngsc06.jpg
f 19/19/19 17/17/17 18/18/18
f 20/20/20 18/18/18 17/17/17
f 22/22/22 21/21/21 19/19/19
f 17/17/17 19/19/19 21/21/21
f 24/24/24 23/23/23 22/22/22
f 21/21/21 22/22/22 23/23/23
f 27/27/27 25/25/25 26/26/26
f 30/30/30 28/28/28 29/29/29
f 31/31/31 29/29/29 28/28/28
f 33/33/33 32/32/32 30/30/30
f 28/28/28 30/30/30 32/32/32
f 35/35/35 34/34/34 33/33/33
f 32/32/32 33/33/33 34/34/34
f 34/34/34 35/35/35 36/36/36
