mtllib ./Box296.mtl
g Box296
v -89.95081 189.0389 29.7296
v -123.4412 189.0389 19.23729
v -131.8751 189.0389 59.59804
v -104.0192 189.0389 113.8417
v -46.10596 189.0389 36.56801
v -59.02631 189.0389 120.3852
v -1.079224 189.0389 41.28752
v -5.00592 189.0389 113.2509
v 35.74066 189.0389 42.90132
v 22.22034 189.0389 106.9206
v -88.83405 189.0389 -10.78728
v -124.1715 189.0389 -14.52455
v -42.42126 189.0389 -8.111816
v 5.208496 189.0389 -4.84845
v 54.05518 189.0389 -0.9971924
v -81.39032 189.0389 -51.71838
v -115.791 189.0389 -47.14201
v -36.58789 189.039 -53.99001
v 8.757935 189.0389 -52.30719
v 60.05408 189.0389 -46.10164
v 122.0794 189.0389 -70.06143
v 105.2912 196.174 -7.404236
v 132.0281 189.0389 -70.78166
v 170.3346 204.0262 26.77341
v -71.42505 189.0389 -118.3237
v -102.4568 189.0389 -116.1761
v -30.36969 189.039 -120.3654
v 7.141479 189.0389 -115.2321
v 51.59528 189.0389 -120.2459
v 118.0251 189.0389 -179.0777
v 135.6584 189.0389 -118.8743
v -95.71674 144.8106 125.2326
v -130.2542 144.8106 68.70836
v -74.67975 51.15547 59.00273
v -69.29425 63.69622 118.8317
v -49.49713 144.8106 133.7191
v -26.5321 63.69622 106.8653
v -8.079773 144.8106 123.6538
v -4.141846 63.69622 97.38182
v 19.00287 144.8106 113.8319
v 23.11798 63.69621 106.4364
v 53.46808 144.8106 80.71532
v 69.12903 63.69621 93.43987
v 88.27429 144.8106 91.37648
v 84.51434 63.6962 90.42686
v -104.0192 189.0389 113.8417
v -131.8751 189.0389 59.59804
v -59.02631 189.0389 120.3852
v -5.00592 189.0389 113.2509
v 22.22034 189.0389 106.9206
v 66.28174 189.0389 85.70537
v 105.132 189.0389 79.25871
v 137.2868 144.8106 68.88499
v 138.6884 63.69622 78.22676
v 170.6274 144.8106 24.57137
v 153.3935 63.69621 45.81688
v 130.7869 144.8106 -66.90326
v 134.955 63.69621 -44.97197
v 123.4106 144.8106 -127.8965
v 71.82355 63.69622 -94.29099
v 137.7623 189.0389 59.74403
v 170.3346 204.0262 26.77341
v 132.0281 189.0389 -70.78166
v 135.6584 189.0389 -118.8743
v 118.5082 144.8106 -182.2974
v 89.68396 63.69622 -153.8167
v 34.22815 144.8106 -125.4388
v 23.26617 63.69621 -115.4357
v -6.746948 144.8106 -115.2812
v 34.22815 144.8106 -125.4388
v 23.26617 63.69621 -115.4357
v 1.153137 63.69621 -67.27391
v -43.50592 144.8106 -123.0208
v -25.59155 63.69621 -60.21317
v -60.55988 144.8106 -113.0616
v -58.74756 63.6962 -99.55296
v -92.02454 144.8106 -118.543
v -87.80792 63.6962 -94.56039
v 118.0251 189.0389 -179.0777
v 51.59528 189.0389 -120.2459
v 7.141479 189.0389 -115.2321
v 51.59528 189.0389 -120.2459
v -6.746948 144.8106 -115.2812
v -30.36969 189.039 -120.3654
v -71.42505 189.0389 -118.3237
v -102.4568 189.0389 -116.1761
v -120.5673 144.8106 -47.24034
v -107.21 63.69621 -38.86324
v -130.0034 144.8106 -16.58672
v -82.09375 63.69621 -6.458313
v -126.2967 144.8106 26.91542
v -74.91943 63.69621 23.61374
v -115.791 189.0389 -47.14201
v -124.1715 189.0389 -14.52455
v -123.4412 189.0389 19.23729
v 92.96252 192.6494 47.21501
v 66.28174 189.0389 85.70537
v 105.132 189.0389 79.25871
v 137.7623 189.0389 59.74403
v -72.66608 -85.54499 84.73848
v -37.52985 -73.00423 94.23643
v -7.41571 -73.00423 103.5624
v 8.352112 -73.00423 96.8839
v 27.54919 -73.00425 103.2604
v 59.95129 -73.00425 94.10789
v 70.78601 -73.00425 91.98607
v 108.9368 -73.00423 83.39442
v 119.2925 -73.00425 60.57057
v 106.3076 -73.00425 -3.365234
v 61.84882 -73.00423 -38.09694
v 74.42657 -73.00423 -80.01646
v 89.68396 63.69622 -153.8167
v 74.42657 -73.00423 -80.01646
v 28.59149 -73.00425 -10.41971
v 12.08099 -73.00425 -19.07083
v 12.08099 -73.00425 -19.07083
v -6.753357 -73.00425 -14.09848
v -30.1026 -73.00425 -41.80257
v -50.56763 -73.00425 -38.28667
v -64.23108 -73.00425 0.9366913
v -46.54364 -73.00425 23.75706
v -58.74121 -73.00425 37.45732
v -37.52985 -73.00423 94.23643
v -72.66608 -85.54499 84.73848
v 0.1306152 -301.0946 22.95158
v -7.41571 -73.00423 103.5624
v 8.352112 -73.00423 96.8839
v 27.54919 -73.00425 103.2604
v 59.95129 -73.00425 94.10789
v 70.78601 -73.00425 91.98607
v 108.9368 -73.00423 83.39442
v 119.2925 -73.00425 60.57057
v 108.9368 -73.00423 83.39442
v 0.1306152 -301.0946 22.95158
v 106.3076 -73.00425 -3.365234
v 61.84882 -73.00423 -38.09694
v 106.3076 -73.00425 -3.365234
v 0.1306152 -301.0946 22.95158
v 74.42657 -73.00423 -80.01646
v 61.84882 -73.00423 -38.09694
v 28.59149 -73.00425 -10.41971
v 74.42657 -73.00423 -80.01646
v 0.1306152 -301.0946 22.95158
v 12.08099 -73.00425 -19.07083
v 28.59149 -73.00425 -10.41971
v -6.753357 -73.00425 -14.09848
v -30.1026 -73.00425 -41.80257
v -6.753357 -73.00425 -14.09848
v -50.56763 -73.00425 -38.28667
v -30.1026 -73.00425 -41.80257
v -64.23108 -73.00425 0.9366913
v -50.56763 -73.00425 -38.28667
v -46.54364 -73.00425 23.75706
v -58.74121 -73.00425 37.45732
v -72.66608 -85.54499 84.73848

vn 0 1 0
vn 0 1 0
vn 0 1 0
vn 0 1 0
vn 0 1 0
vn 0 1 0
vn 0 1 0
vn 0 1 0
vn -0.03173271 0.9994525 -0.009360882
vn -0.02373307 0.9995748 0.01693376
vn -1.347131E-07 1 1.203865E-07
vn 0 1 0
vn 1.012458E-07 0.9999999 2.379769E-07
vn 0 1 0
vn -0.05902685 0.997902 -0.02659567
vn -4.316932E-07 1 -5.864866E-08
vn 0 1 0
vn 1.347518E-07 1 1.878307E-07
vn 2.014755E-07 0.9999999 9.321936E-08
vn 0 1 0
vn -0.03233455 0.9988239 -0.03612865
vn -0.1071691 0.9921409 -0.06458414
vn -0.04194 0.9918058 -0.1206746
vn -0.07974746 0.9965582 0.0226327
vn -2.873618E-07 1 -4.299412E-08
vn 0 1 0
vn -2.480166E-07 1 -3.710742E-08
vn 4.825202E-07 0.9999999 1.71727E-08
vn 0 1 0
vn 0 1 0
vn 0 1 0
vn -0.7021132 -0.2367768 0.6715458
vn -0.9026452 -0.3632863 0.2307698
vn -0.9694051 -0.238314 0.0588243
vn -0.5182281 -0.2026702 0.8308817
vn 0.08772802 -0.03257312 0.9956118
vn 0.1889837 -0.1411663 0.9717805
vn 0.2902602 -0.1053475 0.9511314
vn 0.1175545 -0.09169009 0.9888244
vn 0.4237927 -0.09368208 0.9009014
vn 0.1240672 0.005897597 0.9922563
vn 0.2816932 0.04577581 0.958412
vn 0.1844141 0.04145472 0.9819741
vn 0.1918115 0.09064583 0.9772367
vn 0.2546935 0.01189477 0.9669486
vn -0.7353913 0.07769269 0.673174
vn -0.9934634 0.01853484 0.1126366
vn -0.05231583 0.2669446 0.9622909
vn 0.1822006 0.254209 0.9498319
vn 0.3516354 0.1394911 0.9256861
vn 0.4571168 -0.1082428 0.8827953
vn 0.1420016 0.08214562 0.986452
vn 0.5618109 0.07052477 0.824254
vn 0.5341592 -0.01398005 0.8452683
vn 0.9939783 -0.09578732 -0.05321331
vn 0.9777423 -0.1982147 -0.06878202
vn 0.9631279 -0.1128246 -0.2442446
vn 0.8725764 -0.2838258 -0.3975592
vn 0.878419 -0.3642715 -0.3093323
vn 0.8264124 -0.3851509 -0.4107327
vn 0.5286007 0.1306625 0.8387542
vn 0.9926246 0.03427272 0.1162828
vn 0.9508803 -0.01601915 -0.3091439
vn 0.9776254 -0.1703105 -0.1234624
vn 0.1450282 -0.2485074 -0.9577113
vn 0.850483 -0.1173426 -0.5127468
vn -0.540089 0.02215355 -0.8413163
vn -0.4999557 -0.03912737 -0.8651667
vn -0.2843125 -0.2830466 -0.9159973
vn -0.2059283 0.02238117 -0.9783111
vn -0.6913639 -0.366415 -0.6227005
vn -0.4823595 -0.4531074 -0.7496819
vn -0.07974513 -0.4088396 -0.9091155
vn 0.2910307 -0.3438217 -0.8927977
vn 0.236806 -0.2143265 -0.9476217
vn 0.5081308 -0.2027513 -0.8370752
vn -0.7373964 -0.1468616 -0.6593014
vn -0.7343323 -0.3346699 -0.5905524
vn 0.5296476 -0.07530967 -0.8448679
vn -0.5980306 0.1882398 -0.7790542
vn -0.0811705 0.07158734 -0.9941261
vn -0.1106577 0.1586451 -0.981115
vn -0.2399107 0.07641036 -0.9677833
vn 0.09350125 0.01216432 -0.9955447
vn -0.1564551 -0.06218971 -0.9857252
vn -0.6458157 -0.1652617 -0.7453929
vn -0.938207 -0.08420691 -0.3356738
vn -0.9530109 -0.2989562 -0.04894285
vn -0.9666612 -0.2368231 0.09737102
vn -0.8662305 -0.2752083 0.4170192
vn -0.9350954 -0.3542212 0.01112706
vn -0.9344096 -0.3511768 -0.05961126
vn -0.9600103 -0.02367358 -0.2789621
vn -0.9770895 0.1252741 -0.172054
vn -0.9965063 0.07634519 -0.03386128
vn -0.06436847 0.9954439 0.07034312
vn 0.04037745 0.991828 0.1210244
vn 0.03576413 0.994497 0.09847102
vn 0.0005222075 0.9613937 0.2751764
vn -0.9635474 -0.09870567 0.2486638
vn -0.04104729 -0.1380411 0.9895756
vn 0.09962569 -0.01010824 0.9949736
vn -0.1392708 -0.0163353 0.9901196
vn 0.1594928 -0.01776234 0.9870393
vn 0.2367732 -0.01114882 0.971501
vn 0.2168211 -0.01064064 0.9761534
vn 0.7047619 -0.1269994 0.697984
vn 0.9609777 -0.2520302 -0.1140284
vn 0.7306468 -0.3343076 -0.5953097
vn 0.9882635 -0.1139384 -0.1017505
vn 0.9567015 0.04819208 0.2870539
vn -0.4626807 -0.380612 -0.8006629
vn -0.6330903 -0.4074644 -0.6581561
vn -0.7214531 -0.4094139 -0.5584673
vn 0.4474832 -0.2653687 -0.854013
vn -0.2400673 -0.3398368 -0.9093287
vn 0.6265943 -0.1702097 -0.7605315
vn 0.2400295 -0.3346702 -0.9112527
vn -0.8052934 -0.399655 -0.4379251
vn -0.9342841 -0.2098162 0.2882542
vn -0.9694436 -0.1618316 0.1843628
vn -0.9531645 -0.1062589 -0.2831725
vn -0.204604 -0.3226077 0.9241545
vn -0.1406589 -0.3164185 0.9381335
vn 0.02698164 -0.3357631 0.94156
vn -0.05429104 -0.3343233 0.9408934
vn 0.008216089 -0.3086003 0.9511564
vn 0.05057739 -0.3370866 0.9401141
vn 0.2367918 -0.3453961 0.908092
vn 0.2009079 -0.3402661 0.9186158
vn 0.2064936 -0.3414842 0.9169236
vn 0.8878261 -0.4593921 -0.02690445
vn 0.7999766 -0.4777985 0.3629683
vn 0.9387388 -0.3351098 -0.0804414
vn 0.883778 -0.4321115 -0.1794884
vn 0.5759529 -0.3531724 -0.7372567
vn 0.5759529 -0.3531724 -0.7372567
vn 0.3127777 -0.30725 -0.8987589
vn 0.9422926 -0.1792988 0.2827305
vn 0.9422926 -0.1792988 0.2827305
vn -0.8349188 0.02373154 -0.5498614
vn -0.8349188 0.02373154 -0.5498614
vn -0.929192 -0.1403695 -0.3419044
vn 0.1017283 -0.185399 -0.9773836
vn 0.4561734 -0.1842957 -0.870598
vn -0.2518631 -0.1625671 -0.9540109
vn 0.7621128 -0.08133382 -0.6423153
vn 0.7621128 -0.08133382 -0.6423153
vn -0.1620786 -0.2893153 -0.9434125
vn -0.1620786 -0.2893153 -0.9434125
vn -0.9621007 -0.2654594 0.06239922
vn -0.9049584 -0.2857845 -0.3152421
vn -0.9691451 -0.1988312 0.1456842
vn -0.8846524 -0.2015985 -0.4204145
vn -0.9194728 -0.21645 -0.3282064

vt 0.2608858 0.5500448
vt 0.02960634 0.5938423
vt 0.001580417 0.3347435
vt 0.2259337 0.01239735
vt 0.5588254 0.536036
vt 0.5313415 0.0009989738
vt 0.8631771 0.5361176
vt 0.8874926 0.08147943
vt 1.110478 0.5502895
vt 1.065071 0.1392193
vt 0.2398813 0.8052932
vt 0.0009990335 0.8054387
vt 0.5520636 0.8191298
vt 0.8727953 0.8300769
vt 1.202077 0.8381346
vt 0.260886 1.067321
vt 0.03410906 1.015862
vt 0.5588256 1.11117
vt 0.8631773 1.130538
vt 1.210489 1.125424
vt 1.608336 1.31688
vt 1.540123 0.9122083
vt 1.674343 1.327973
vt 1.999001 0.7404609
vt 0.2807077 1.492289
vt 0.07474768 1.45831
vt 0.553757 1.53222
vt 0.8081528 1.52474
vt 1.101835 1.585584
vt 1.504625 1.999001
vt 1.66482 1.632469
vt 2.100216 0.7952107
vt 1.826009 0.7952107
vt 1.954768 0.4721068
vt 2.172144 0.5153715
vt 2.273696 0.7952107
vt 2.322082 0.5153715
vt 2.428511 0.7952107
vt 2.419842 0.5153715
vt 2.55053 0.7952107
vt 2.570892 0.5153715
vt 2.766064 0.7952107
vt 2.831852 0.5153715
vt 2.935169 0.7952107
vt 2.918991 0.5153714
vt 2.046245 0.9477955
vt 1.785938 0.9477955
vt 2.213068 0.9477955
vt 2.432709 0.9477955
vt 2.566202 0.9477955
vt 2.832577 0.9477955
vt 3.054804 0.9477955
vt 3.229609 0.7952107
vt 3.19594 0.5153715
vt 3.546812 0.7952106
vt 3.39213 0.5153715
vt 4.173941 0.7952107
vt 4.002677 0.5153715
vt 4.521596 0.7952107
vt 4.641534 0.5153715
vt 3.272823 0.9477954
vt 3.534215 0.9995005
vt 4.196994 0.9477955
vt 4.441617 0.9477955
vt 4.690991 0.7952107
vt 4.740173 0.5153715
vt 4.997865 0.7952107
vt 4.965734 0.5181369
vt 0.3005121 0.7952107
vt -0.00213474 0.7952107
vt 0.07349483 0.5153715
vt 0.4218163 0.5153715
vt 0.5069559 0.7952106
vt 0.7926031 0.5153715
vt 0.6355067 0.7952107
vt 0.6947849 0.5153714
vt 0.7406128 0.7952107
vt 0.8448496 0.5153714
vt 4.685951 0.9477954
vt 4.872303 0.9477954
vt 0.1974619 0.9477954
vt -0.1276964 0.9477954
vt 0.3106365 0.8018861
vt 0.4416921 0.9477955
vt 0.6611706 0.9477954
vt 0.7861843 0.9477954
vt 1.208348 0.7952107
vt 1.252227 0.5153715
vt 1.3985 0.7952106
vt 1.507107 0.5153715
vt 1.646497 0.7952106
vt 1.754094 0.5153715
vt 1.204334 0.9477955
vt 1.413199 0.9477954
vt 1.610786 0.9477954
vt 1.496078 0.560972
vt 1.344745 0.3015754
vt 1.599956 0.3677205
vt 1.8044 0.5118473
vt 2.064255 0.0004994869
vt 2.244252 0.0437642
vt 2.410213 0.0437642
vt 2.487755 0.0437642
vt 2.594714 0.0437642
vt 2.780905 0.0437642
vt 2.843762 0.04376417
vt 3.057381 0.0437642
vt 3.196947 0.0437642
vt 3.607654 0.0437642
vt 4.130178 0.0437642
vt 4.537948 0.0437642
vt 1.300485 0.4609147
vt -0.4620519 0.0437642
vt -2.193592 0.0437642
vt -2.073183 0.06752849
vt 1.796047 0.0437642
vt 1.666866 0.0437642
vt 1.07491 0.04376417
vt 1.188594 0.04376417
vt 1.608228 0.0437642
vt 1.877314 0.0437642
vt 1.909631 0.0437642
vt 0.3861242 0.8768252
vt 0.3010308 0.8489088
vt 0.3943069 0.3690833
vt 0.4593486 0.8768252
vt 0.4948272 0.8768252
vt 0.5416129 0.8768252
vt 0.6156516 0.8768252
vt 0.6406412 0.8768252
vt 0.7283562 0.8768252
vt 0.2370887 0.8768252
vt 0.1543112 0.8768252
vt 0.2329282 0.3690833
vt 0.4536918 0.8768252
vt 0.412602 0.8768252
vt 0.2993092 0.8768252
vt 0.6056931 0.3690833
vt 0.7074369 0.8768252
vt 0.5577471 0.8768252
vt 0.5501639 0.8768252
vt 0.2925631 0.8768252
vt 0.7670718 0.3690833
vt 0.5250915 0.8768252
vt 0.4840695 0.8768252
vt 0.5682139 0.8768252
vt 0.5371193 0.8768252
vt 0.4497111 0.8768252
vt 0.6773794 0.8768252
vt 0.6300564 0.8768252
vt 0.6232491 0.8768252
vt 0.4824977 0.8768252
vt 0.6958113 0.8768252
vt 0.7476757 0.8768252
vt 0.9164159 0.8489088

usemtl sn11_16_sngsc18.jpg
usemap sn11_16_sngsc18.jpg
f 3/3/3 1/1/1 2/2/2
f 1/1/1 3/3/3 4/4/4
f 4/4/4 5/5/5 1/1/1
f 5/5/5 4/4/4 6/6/6
f 6/6/6 7/7/7 5/5/5
f 7/7/7 6/6/6 8/8/8
f 8/8/8 9/9/9 7/7/7
f 9/9/9 8/8/8 10/10/10
f 2/2/2 11/11/11 12/12/12
f 11/11/11 2/2/2 1/1/1
f 1/1/1 13/13/13 11/11/11
f 13/13/13 1/1/1 5/5/5
f 5/5/5 14/14/14 13/13/13
f 14/14/14 5/5/5 7/7/7
f 7/7/7 15/15/15 14/14/14
f 15/15/15 7/7/7 9/9/9
f 12/12/12 16/16/16 17/17/17
f 16/16/16 12/12/12 11/11/11
f 11/11/11 18/18/18 16/16/16
f 18/18/18 11/11/11 13/13/13
f 13/13/13 19/19/19 18/18/18
f 19/19/19 13/13/13 14/14/14
f 14/14/14 20/20/20 19/19/19
f 20/20/20 14/14/14 15/15/15
f 15/15/15 21/21/21 20/20/20
f 21/21/21 15/15/15 22/22/22
f 22/22/22 23/23/23 21/21/21
f 23/23/23 22/22/22 24/24/24
f 17/17/17 25/25/25 26/26/26
f 25/25/25 17/17/17 16/16/16
f 16/16/16 27/27/27 25/25/25
f 27/27/27 16/16/16 18/18/18
f 18/18/18 28/28/28 27/27/27
f 28/28/28 18/18/18 19/19/19
f 19/19/19 29/29/29 28/28/28
f 29/29/29 19/19/19 20/20/20
f 20/20/20 30/30/30 29/29/29
f 30/30/30 20/20/20 21/21/21
f 21/21/21 31/31/31 30/30/30
f 31/31/31 21/21/21 23/23/23
f 34/34/34 32/32/32 33/33/33
f 32/32/32 34/34/34 35/35/35
f 35/35/35 36/36/36 32/32/32
f 36/36/36 35/35/35 37/37/37
f 37/37/37 38/38/38 36/36/36
f 38/38/38 37/37/37 39/39/39
f 39/39/39 40/40/40 38/38/38
f 40/40/40 39/39/39 41/41/41
f 41/41/41 42/42/42 40/40/40
f 42/42/42 41/41/41 43/43/43
f 43/43/43 44/44/44 42/42/42
f 44/44/44 43/43/43 45/45/45
f 33/33/33 46/46/46 47/47/47
f 46/46/46 33/33/33 32/32/32
f 32/32/32 48/48/48 46/46/46
f 48/48/48 32/32/32 36/36/36
f 36/36/36 49/49/49 48/48/48
f 49/49/49 36/36/36 38/38/38
f 38/38/38 50/50/50 49/49/49
f 50/50/50 38/38/38 40/40/40
f 40/40/40 51/51/51 50/50/50
f 51/51/51 40/40/40 42/42/42
f 42/42/42 52/52/52 51/51/51
f 52/52/52 42/42/42 44/44/44
f 45/45/45 53/53/53 44/44/44
f 53/53/53 45/45/45 54/54/54
f 54/54/54 55/55/55 53/53/53
f 55/55/55 54/54/54 56/56/56
f 56/56/56 57/57/57 55/55/55
f 57/57/57 56/56/56 58/58/58
f 58/58/58 59/59/59 57/57/57
f 59/59/59 58/58/58 60/60/60
f 44/44/44 61/61/61 52/52/52
f 61/61/61 44/44/44 53/53/53
f 53/53/53 62/62/62 61/61/61
f 62/62/62 53/53/53 55/55/55
f 55/55/55 63/63/63 62/62/62
f 63/63/63 55/55/55 57/57/57
f 57/57/57 64/64/64 63/63/63
f 64/64/64 57/57/57 59/59/59
f 60/60/60 65/65/65 59/59/59
f 65/65/65 60/60/60 66/66/66
f 66/66/66 67/67/67 65/65/65
f 67/67/67 66/66/66 68/68/68
f 71/71/71 69/69/69 70/70/70
f 69/69/69 71/71/71 72/72/72
f 72/72/72 73/73/73 69/69/69
f 73/73/73 72/72/72 74/74/74
f 74/74/74 75/75/75 73/73/73
f 75/75/75 74/74/74 76/76/76
f 76/76/76 77/77/77 75/75/75
f 77/77/77 76/76/76 78/78/78
f 59/59/59 79/79/79 64/64/64
f 79/79/79 59/59/59 65/65/65
f 65/65/65 80/80/80 79/79/79
f 80/80/80 65/65/65 67/67/67
f 70/70/70 81/81/81 82/82/82
f 81/81/81 70/70/70 83/83/83
f 69/69/69 84/84/84 81/81/81
f 84/84/84 69/69/69 73/73/73
f 73/73/73 85/85/85 84/84/84
f 85/85/85 73/73/73 75/75/75
f 75/75/75 86/86/86 85/85/85
f 86/86/86 75/75/75 77/77/77
f 78/78/78 87/87/87 77/77/77
f 87/87/87 78/78/78 88/88/88
f 88/88/88 89/89/89 87/87/87
f 89/89/89 88/88/88 90/90/90
f 90/90/90 91/91/91 89/89/89
f 91/91/91 90/90/90 92/92/92
f 92/92/92 33/33/33 91/91/91
f 33/33/33 92/92/92 34/34/34
f 77/77/77 93/93/93 86/86/86
f 93/93/93 77/77/77 87/87/87
f 87/87/87 94/94/94 93/93/93
f 94/94/94 87/87/87 89/89/89
f 89/89/89 95/95/95 94/94/94
f 95/95/95 89/89/89 91/91/91
f 91/91/91 47/47/47 95/95/95
f 47/47/47 91/91/91 33/33/33
f 96/96/96 9/9/9 10/10/10
f 96/96/96 10/10/10 97/97/97
f 96/96/96 97/97/97 98/98/98
f 96/96/96 98/98/98 99/99/99
f 96/96/96 15/15/15 9/9/9
f 96/96/96 22/22/22 15/15/15
f 96/96/96 99/99/99 24/24/24
f 96/96/96 24/24/24 22/22/22
f 100/100/100 35/35/35 34/34/34
f 35/35/35 100/100/100 101/101/101
f 101/101/101 37/37/37 35/35/35
f 37/37/37 101/101/101 102/102/102
f 102/102/102 39/39/39 37/37/37
f 39/39/39 102/102/102 103/103/103
f 103/103/103 41/41/41 39/39/39
f 41/41/41 103/103/103 104/104/104
f 104/104/104 43/43/43 41/41/41
f 43/43/43 104/104/104 105/105/105
f 105/105/105 45/45/45 43/43/43
f 45/45/45 105/105/105 106/106/106
f 106/106/106 54/54/54 45/45/45
f 54/54/54 106/106/106 107/107/107
f 107/107/107 56/56/56 54/54/54
f 56/56/56 107/107/107 108/108/108
f 108/108/108 58/58/58 56/56/56
f 58/58/58 108/108/108 109/109/109
f 109/109/109 60/60/60 58/58/58
f 60/60/60 109/109/109 110/110/110
f 110/110/110 66/66/66 60/60/60
f 66/66/66 110/110/110 111/111/111
f 113/113/113 71/71/71 112/112/112
f 71/71/71 113/113/113 114/114/114
f 114/114/114 72/72/72 71/71/71
f 72/72/72 114/114/114 115/115/115
f 116/116/116 74/74/74 72/72/72
f 74/74/74 116/116/116 117/117/117
f 117/117/117 76/76/76 74/74/74
f 76/76/76 117/117/117 118/118/118
f 118/118/118 78/78/78 76/76/76
f 78/78/78 118/118/118 119/119/119
f 119/119/119 88/88/88 78/78/78
f 88/88/88 119/119/119 120/120/120
f 120/120/120 90/90/90 88/88/88
f 90/90/90 120/120/120 121/121/121
f 121/121/121 92/92/92 90/90/90
f 92/92/92 121/121/121 122/122/122
f 122/122/122 34/34/34 92/92/92
f 34/34/34 122/122/122 100/100/100
f 125/125/125 123/123/123 124/124/124
f 125/125/125 126/126/126 123/123/123
f 125/125/125 127/127/127 126/126/126
f 125/125/125 128/128/128 127/127/127
f 125/125/125 129/129/129 128/128/128
f 125/125/125 130/130/130 129/129/129
f 125/125/125 131/131/131 130/130/130
f 134/134/134 132/132/132 133/133/133
f 134/134/134 135/135/135 132/132/132
f 138/138/138 136/136/136 137/137/137
f 134/134/134 139/139/139 140/140/140
f 143/143/143 141/141/141 142/142/142
f 138/138/138 144/144/144 145/145/145
f 138/138/138 146/146/146 144/144/144
f 134/134/134 147/147/147 148/148/148
f 138/138/138 149/149/149 150/150/150
f 143/143/143 151/151/151 152/152/152
f 143/143/143 153/153/153 151/151/151
f 143/143/143 154/154/154 153/153/153
f 143/143/143 155/155/155 154/154/154
