mtllib ./Box303.mtl
g Box303
v 11.04087 -0.8775227 4.562173
v 20.6868 6.750779 -4.758166
v 15.65497 20.37946 6.047207
v 6.267933 -1.999665 10.63887
v 20.6868 6.750779 -4.758166
v 19.44363 10.39067 -10.50438
v 8.75812 25.99589 -7.761626
v 8.75812 25.99589 -7.761626
v 22.18475 9.768871 -17.20799
v 4.988887 22.75609 -10.87446
v 22.18475 9.768871 -17.20799
v 11.39812 4.37869 -16.47375
v 0.1991522 17.03947 -12.96799
v 0.1991522 17.03947 -12.96799
v 1.278498 2.876235 -16.91584
v -0.6989894 10.83944 -16.82081
v -0.6989894 10.83944 -16.82081
v 11.39812 4.37869 -16.47375
v 11.90392 20.31467 13.59832
v 11.90392 20.31467 13.59832
v 5.524113 13.05383 16.07606
v 6.267933 -1.999665 10.63887
v 3.928422 27.03664 -4.8178
v 1.553041 27.17978 -9.322826
v 3.928422 27.03664 -4.8178
v 4.988887 22.75609 -10.87446
v -1.4485 25.8032 -13.20242
v -1.4485 25.8032 -13.20242
v -7.257127 7.77338 -12.16359
v 5.524113 13.05383 16.07606
v -0.8718105 16.85248 3.143632
v -4.818435 5.57662 16.3539
v -2.817975 23.62311 0.01136
v -3.34066 28.0652 -6.315067
v -3.34066 28.0652 -6.315067
v -8.19492 22.38969 -8.373256
v -14.96555 3.0443 -6.523717
v -8.19492 22.38969 -8.373256
v 5.727601 -27.37287 24.63316
v 5.776914 -29.68177 19.07066
v 7.63222 -13.65141 5.547232
v 8.558434 -11.94016 10.6344
v 6.499769 -32.28824 13.45961
v 8.39655 -15.94575 -0.08573225
v 4.607603 -33.28028 9.152807
v 0.4610392 -12.71101 -2.443683
v -0.8001894 -32.31254 6.087376
v -1.937837 -14.24038 -6.293895
v -0.8001894 -32.31254 6.087376
v -7.349721 -30.75485 3.311967
v -5.717453 -14.48495 -9.852666
v -1.937837 -14.24038 -6.293895
v 20.6868 6.750779 -4.758166
v 8.558434 -11.94016 10.6344
v 19.44363 10.39067 -10.50438
v 22.18475 9.768871 -17.20799
v 22.18475 9.768871 -17.20799
v 19.44363 10.39067 -10.50438
v 8.39655 -15.94575 -0.08573225
v 11.39812 4.37869 -16.47375
v 0.4610392 -12.71101 -2.443683
v -12.78176 -27.39092 6.046279
v -9.805033 -11.17775 -7.737902
v -17.41159 -24.46428 8.521439
v -14.2518 -6.882583 -5.519052
v -21.87658 -21.61839 10.96548
v -19.30109 -5.125141 -2.539966
v -21.87658 -21.61839 10.96548
v -20.95197 -19.87741 16.12328
v -17.16477 1.313943 1.148691
v -19.30109 -5.125141 -2.539966
v -19.28757 -18.60798 20.87614
v -19.79162 9.418708 6.502929
v -15.58331 -18.72041 24.3138
v -14.23307 4.533219 10.26965
v -11.03551 -19.44551 27.10754
v -14.15096 1.892656 15.91673
v -7.471831 -19.39964 30.78913
v -4.904652 -3.359018 18.0038
v -8.19492 22.38969 -8.373256
v -14.96555 3.0443 -6.523717
v -3.34066 28.0652 -6.315067
v -2.817975 23.62311 0.01136
v -14.23307 4.533219 10.26965
v -14.15096 1.892656 15.91673
v -4.818435 5.57662 16.3539
v -7.471831 -19.39964 30.78913
v -2.864881 -21.78832 29.59862
v 0.09514832 -5.871319 16.9064
v -4.904652 -3.359018 18.0038
v 1.623455 -24.37428 27.80982
v 4.04372 -9.062551 13.10567
v 5.727601 -27.37287 24.63316
v 5.524113 13.05383 16.07606

vn 0.847811 -0.4376631 0.2994451
vn 0.8608559 -0.4809554 -0.166159
vn 0.8722083 -0.4615983 -0.1618011
vn 0.7481143 -0.599641 0.2841753
vn 0.8433648 -0.2584287 -0.4711162
vn 0.6336451 -0.1716006 -0.7543522
vn 0.388829 -0.1874399 -0.9020412
vn 0.6616546 -0.2192881 -0.7170256
vn 0.1382888 0.06162065 -0.9884731
vn 0.03333326 -0.04557112 -0.9984047
vn -0.7174451 -0.4934629 -0.491698
vn -0.7244737 -0.5061081 -0.4679664
vn -0.6565729 -0.01828912 -0.7540408
vn -0.358815 0.002064824 -0.9334064
vn -0.7480457 -0.5034382 -0.432409
vn -0.8753328 0.14439 -0.4614587
vn -0.1626398 -0.1075757 -0.9808037
vn -0.1626398 -0.1075757 -0.9808037
vn 0.8242347 0.565425 0.03052402
vn 0.7327107 -0.4194188 0.5359319
vn 0.7327107 -0.4194188 0.5359319
vn 0.7327107 -0.4194188 0.5359319
vn 0.726205 0.567103 -0.3886136
vn 0.11621 0.4519842 -0.8844239
vn 0.524385 0.4698048 -0.7101436
vn -0.3885185 -0.4566948 -0.800302
vn -0.7897236 0.1914906 -0.5828105
vn 0.2222888 0.5840948 -0.7806542
vn -0.863721 0.2192155 -0.4537956
vn 0.7452314 0.5723495 0.3421202
vn 0.4523479 0.8753307 0.1708143
vn 0.4405286 0.8975252 0.01956999
vn 0.6465506 0.7433239 0.1715861
vn -0.04629029 0.5225681 -0.8513399
vn 0.7652414 0.6349912 -0.1057912
vn -0.1262683 0.7405839 -0.6599938
vn -0.8496005 0.3150576 -0.4229868
vn -0.8028372 0.3850505 -0.4551798
vn 0.4845107 -0.8506219 -0.2041862
vn 0.6341839 -0.745703 -0.204298
vn 0.3803695 -0.9213672 -0.08000952
vn 0.3148506 -0.948862 -0.02302048
vn -0.1110266 -0.925549 -0.3619838
vn -0.1868956 -0.9590479 -0.2128317
vn -0.08302695 -0.8598349 -0.5037762
vn -0.5006488 -0.8092328 -0.307397
vn -0.5553018 -0.7593318 -0.3391978
vn -0.1706543 -0.9376134 -0.3029163
vn -0.5278013 -0.7979127 -0.2911375
vn -0.9735829 -0.2183304 -0.06684512
vn -0.8560094 -0.4061677 -0.3198059
vn -0.519582 -0.7855645 -0.33604
vn -0.02272069 -0.9994907 -0.02240306
vn 0.9946975 -0.08761805 0.05385217
vn 0.2118517 -0.9771604 -0.0166285
vn -0.8020868 -0.5457265 -0.2425684
vn 0.6719579 -0.7251635 0.1503684
vn 0.6719579 -0.7251635 0.1503684
vn 0.6719579 -0.7251635 0.1503684
vn -0.008546978 -0.9992175 0.03861392
vn -0.5676601 -0.818458 -0.0888173
vn -0.9970311 0.07684948 -0.004831374
vn -0.9777476 0.1154915 -0.1751322
vn -0.9989931 0.03831038 -0.02334738
vn -0.9833983 0.09530845 -0.1544152
vn -0.9979759 0.06355685 -0.002135068
vn -0.9952351 0.04785067 -0.08495575
vn -0.3750062 0.9029561 0.2098584
vn -0.5812047 0.7839967 0.2180601
vn -0.5806795 0.814131 0.001335651
vn -0.4524318 0.8904858 0.04838051
vn 0.2589814 0.8595312 0.4406073
vn -0.1640922 0.9754249 0.1470379
vn 0.1403011 0.8942522 0.4250042
vn 0.4748729 0.7889556 0.3899293
vn 0.6425942 0.6750501 0.3624639
vn 0.5561908 0.6850357 0.4705082
vn 0.2919624 0.9259209 0.2396422
vn 0.7049818 0.5614787 0.4332924
vn -0.3117825 0.9497148 0.02886707
vn -0.6500128 0.7339742 -0.1968889
vn -0.3108663 0.9357767 -0.1663859
vn 0.6392397 0.7428342 0.1989225
vn 0.6751127 0.7155387 0.1795191
vn 0.4550557 0.8902327 -0.02025002
vn 0.6671005 0.4176502 0.6168835
vn 0.9856565 0.1521143 0.07309318
vn 0.9989791 -0.04517369 0.0004839301
vn 0.9571505 -0.1550422 0.2445912
vn 0.9209126 0.1197284 0.3709245
vn 0.9966146 -0.06389992 -0.05173129
vn 0.9859217 -0.1612337 0.04429474
vn 0.9822072 -0.1807252 -0.05106172
vn 0.6709778 0.4133871 0.6155484

vt 0.6331195 0.6301109
vt 0.7765411 0.9345744
vt 0.5045726 1.07477
vt 0.5290921 0.5233702
vt 0.2234589 0.6248725
vt 0.2434914 0.5195127
vt 0.5790407 0.5379233
vt 0.4209593 1.291304
vt 0.1531247 0.4148457
vt 0.5928322 0.4316133
vt 0.1531247 1.107283
vt 0.2852293 0.9073492
vt 0.6066238 1.037555
vt 0.6066238 0.3253033
vt 0.435207 0.7990502
vt 0.5415854 0.9392458
vt 0.5415854 0.2189932
vt 0.2852293 0.3090476
vt 0.3989151 0.9817353
vt 0.3976705 0.9817353
vt 0.2332601 0.7665852
vt 0.2497183 0.5233702
vt 0.314581 1.198891
vt 0.6992106 0.4478097
vt 0.685419 0.5541198
vt 0.5928322 1.172238
vt 0.7130021 1.198891
vt 0.7130021 0.3414996
vt 0.6486992 0.7876862
vt 0.420994 0.7665852
vt 0.2823923 0.894438
vt 0.3344461 0.4762942
vt 0.2065541 1.037555
vt 0.805589 0.4640061
vt 0.1944111 1.172238
vt 0.8210289 0.3579471
vt 0.7652221 0.5894979
vt 0.8210289 1.037555
vt 0.2609378 -0.09494543
vt 0.3752476 -0.09494543
vt 0.3811137 0.3459904
vt 0.2693881 0.3459904
vt 0.485577 -0.09494555
vt 0.4902148 0.3526611
vt 0.5883581 -0.09494555
vt 0.5937215 0.3710811
vt 0.6915483 -0.09494555
vt 0.6946293 0.352661
vt 0.2920588 -0.09494555
vt 0.3977222 -0.09494543
vt 0.4321409 0.3459904
vt 0.2445483 0.352661
vt 0.3751275 0.9345744
vt 0.6582835 0.3459904
vt 0.4804873 1.042874
vt 0.5851543 1.107283
vt 0.8468753 1.107283
vt 0.7565086 1.042874
vt 0.7557627 0.3526611
vt 0.6909524 0.9073492
vt 0.2605091 0.3710811
vt 0.5341536 -0.09494543
vt 0.5422838 0.3608267
vt 0.6518377 -0.09494543
vt 0.6680417 0.3913825
vt 0.7658845 -0.09494543
vt 0.784836 0.3608267
vt 0.2531434 -0.09494543
vt 0.3663129 -0.09494543
vt 0.3714283 0.4752467
vt 0.2560288 0.3608267
vt 0.4766054 -0.09494543
vt 0.4822942 0.5420508
vt 0.5748705 -0.09494543
vt 0.5840484 0.4752467
vt 0.6660992 -0.09494543
vt 0.681269 0.3608267
vt 0.7683535 -0.09494543
vt 0.7829686 0.3459904
vt 0.3579471 1.037555
vt 0.2530425 0.5894979
vt 0.4640061 1.172238
vt 0.5705672 1.037555
vt 0.1968386 0.4752467
vt 0.2703302 0.3608267
vt 0.6996178 0.4762942
vt 0.333576 -0.09494543
vt 0.4383501 -0.09494543
vt 0.4262261 0.3459904
vt 0.3144033 0.3459904
vt 0.5465209 -0.09494543
vt 0.5429665 0.3459904
vt 0.6603632 -0.09494543
vt 0.7667399 0.7665852

usemtl sn11_31_sngsc39.jpg
usemap sn11_31_sngsc39.jpg
f 3/3/3 1/1/1 2/2/2
f 1/1/1 3/3/3 4/4/4
f 7/7/7 5/5/5 6/6/6
f 2/2/2 8/8/8 3/3/3
f 10/10/10 6/6/6 9/9/9
f 6/6/6 10/10/10 7/7/7
f 13/13/13 11/11/11 12/12/12
f 9/9/9 14/14/14 10/10/10
f 16/16/16 12/12/12 15/15/15
f 18/18/18 17/17/17 14/14/14
f 19/19/19 4/4/4 3/3/3
f 22/22/22 20/20/20 21/21/21
f 23/23/23 3/3/3 8/8/8
f 3/3/3 23/23/23 19/19/19
f 24/24/24 7/7/7 10/10/10
f 7/7/7 24/24/24 25/25/25
f 27/27/27 26/26/26 13/13/13
f 10/10/10 28/28/28 24/24/24
f 29/29/29 13/13/13 16/16/16
f 13/13/13 29/29/29 27/27/27
f 31/31/31 30/30/30 19/19/19
f 30/30/30 31/31/31 32/32/32
f 33/33/33 19/19/19 23/23/23
f 19/19/19 33/33/33 31/31/31
f 34/34/34 25/25/25 24/24/24
f 23/23/23 35/35/35 33/33/33
f 36/36/36 24/24/24 28/28/28
f 24/24/24 36/36/36 34/34/34
f 37/37/37 27/27/27 29/29/29
f 27/27/27 37/37/37 38/38/38
f 41/41/41 39/39/39 40/40/40
f 39/39/39 41/41/41 42/42/42
f 44/44/44 40/40/40 43/43/43
f 40/40/40 44/44/44 41/41/41
f 46/46/46 43/43/43 45/45/45
f 43/43/43 46/46/46 44/44/44
f 48/48/48 45/45/45 47/47/47
f 45/45/45 48/48/48 46/46/46
f 51/51/51 49/49/49 50/50/50
f 49/49/49 51/51/51 52/52/52
f 53/53/53 42/42/42 41/41/41
f 54/54/54 2/2/2 1/1/1
f 55/55/55 41/41/41 44/44/44
f 41/41/41 55/55/55 53/53/53
f 56/56/56 44/44/44 46/46/46
f 59/59/59 57/57/57 58/58/58
f 60/60/60 46/46/46 48/48/48
f 61/61/61 12/12/12 11/11/11
f 15/15/15 52/52/52 51/51/51
f 52/52/52 15/15/15 12/12/12
f 63/63/63 50/50/50 62/62/62
f 50/50/50 63/63/63 51/51/51
f 65/65/65 62/62/62 64/64/64
f 62/62/62 65/65/65 63/63/63
f 67/67/67 64/64/64 66/66/66
f 64/64/64 67/67/67 65/65/65
f 16/16/16 51/51/51 63/63/63
f 51/51/51 16/16/16 15/15/15
f 29/29/29 63/63/63 65/65/65
f 63/63/63 29/29/29 16/16/16
f 37/37/37 65/65/65 67/67/67
f 65/65/65 37/37/37 29/29/29
f 70/70/70 68/68/68 69/69/69
f 68/68/68 70/70/70 71/71/71
f 73/73/73 69/69/69 72/72/72
f 69/69/69 73/73/73 70/70/70
f 75/75/75 72/72/72 74/74/74
f 72/72/72 75/75/75 73/73/73
f 77/77/77 74/74/74 76/76/76
f 74/74/74 77/77/77 75/75/75
f 79/79/79 76/76/76 78/78/78
f 76/76/76 79/79/79 77/77/77
f 80/80/80 71/71/71 70/70/70
f 71/71/71 80/80/80 81/81/81
f 82/82/82 70/70/70 73/73/73
f 70/70/70 82/82/82 80/80/80
f 83/83/83 73/73/73 75/75/75
f 73/73/73 83/83/83 82/82/82
f 31/31/31 84/84/84 85/85/85
f 84/84/84 31/31/31 33/33/33
f 86/86/86 77/77/77 79/79/79
f 85/85/85 32/32/32 31/31/31
f 89/89/89 87/87/87 88/88/88
f 87/87/87 89/89/89 90/90/90
f 92/92/92 88/88/88 91/91/91
f 88/88/88 92/92/92 89/89/89
f 54/54/54 91/91/91 93/93/93
f 91/91/91 54/54/54 92/92/92
f 30/30/30 90/90/90 89/89/89
f 79/79/79 94/94/94 86/86/86
f 4/4/4 89/89/89 92/92/92
f 89/89/89 4/4/4 30/30/30
f 1/1/1 92/92/92 54/54/54
f 92/92/92 1/1/1 4/4/4
