mtllib ./Box305.mtl
g Box305
v 11.04097 -0.8773105 4.561933
v 20.6869 6.750991 -4.758406
v 15.65508 20.37968 6.046978
v 6.268042 -1.999446 10.63864
v 20.6869 6.750991 -4.758406
v 19.44374 10.39089 -10.50461
v 8.75822 25.9961 -7.761866
v 8.75822 25.9961 -7.761866
v 22.18485 9.769084 -17.20823
v 4.988987 22.7563 -10.8747
v 22.18485 9.769084 -17.20823
v 11.39822 4.378902 -16.47399
v 0.1992522 17.03968 -12.96823
v 0.1992522 17.03968 -12.96823
v 1.278598 2.876447 -16.91607
v -0.6988894 10.83965 -16.82105
v -0.6988894 10.83965 -16.82105
v 11.39822 4.378902 -16.47399
v 11.90402 20.31488 13.59808
v 11.90402 20.31488 13.59808
v 5.524213 13.05404 16.07582
v 6.268042 -1.999446 10.63864
v 3.928522 27.03685 -4.818039
v 1.55315 27.18 -9.323057
v 3.928522 27.03685 -4.818039
v 4.988987 22.7563 -10.8747
v -1.4484 25.80341 -13.20266
v -1.4484 25.80341 -13.20266
v -7.257027 7.773592 -12.16383
v 5.524213 13.05404 16.07582
v -0.8717105 16.85269 3.143392
v -4.818326 5.57684 16.35367
v -2.817875 23.62333 0.01111996
v -3.340551 28.06542 -6.315297
v -3.340551 28.06542 -6.315297
v -8.194811 22.38991 -8.373486
v -14.96544 3.044519 -6.523947
v -8.194811 22.38991 -8.373486
v 5.727709 -27.37265 24.63293
v 5.777027 -29.68154 19.07042
v 7.632319 -13.65119 5.546991
v 8.558543 -11.93994 10.63417
v 3.687955 -30.00441 14.30614
v 8.39665 -15.94554 -0.08597229
v 4.607707 -33.28007 9.152588
v 0.4611393 -12.7108 -2.443923
v -3.61199 -30.0287 6.933907
v -1.937728 -14.24016 -6.294125
v -3.61199 -30.0287 6.933907
v -10.16153 -28.47101 4.158488
v -5.717344 -14.48473 -9.852896
v -1.937728 -14.24016 -6.294125
v 20.6869 6.750991 -4.758406
v 8.558543 -11.93994 10.63417
v 19.44374 10.39089 -10.50461
v 22.18485 9.769084 -17.20823
v 22.18485 9.769084 -17.20823
v 19.44374 10.39089 -10.50461
v 8.39665 -15.94554 -0.08597229
v 11.39822 4.378902 -16.47399
v 0.4611393 -12.7108 -2.443923
v -15.59357 -25.10709 6.892811
v -9.804928 -11.17753 -7.738137
v -20.22339 -22.18044 9.36797
v -14.25169 -6.882364 -5.519282
v -24.68839 -19.33454 11.81199
v -19.30099 -5.124928 -2.540205
v -24.68839 -19.33454 11.81199
v -23.76378 -17.59357 16.9698
v -17.16466 1.314162 1.148461
v -19.30099 -5.124928 -2.540205
v -22.09936 -16.32415 21.72264
v -19.79152 9.418927 6.502699
v -18.3951 -16.4366 25.16032
v -14.23297 4.533431 10.26941
v -13.84728 -17.16167 27.95405
v -14.15086 1.892868 15.91649
v -10.28364 -17.1158 31.63567
v -4.904552 -3.358805 18.00356
v -8.194811 22.38991 -8.373486
v -14.96544 3.044519 -6.523947
v -3.340551 28.06542 -6.315297
v -2.817875 23.62333 0.01111996
v -14.23297 4.533431 10.26941
v -14.15086 1.892868 15.91649
v -4.818326 5.57684 16.35367
v -10.28364 -17.1158 31.63567
v -2.864772 -21.78811 29.59839
v 0.09524834 -5.871107 16.90616
v -4.904552 -3.358805 18.00356
v 1.623564 -24.37406 27.80959
v 4.04382 -9.06234 13.10543
v 5.727709 -27.37265 24.63293
v 5.524213 13.05404 16.07582

vn 0.847811 -0.4376635 0.299445
vn 0.8608558 -0.4809556 -0.1661596
vn 0.8722082 -0.4615984 -0.1618014
vn 0.7481143 -0.5996408 0.2841758
vn 0.8433661 -0.2584277 -0.4711143
vn 0.6336451 -0.1716002 -0.7543522
vn 0.3888297 -0.1874398 -0.902041
vn 0.6616541 -0.2192883 -0.7170261
vn 0.1382887 0.06162065 -0.9884731
vn 0.03333329 -0.04557115 -0.9984049
vn -0.717445 -0.493463 -0.491698
vn -0.7244737 -0.5061082 -0.4679661
vn -0.6565728 -0.01828906 -0.7540409
vn -0.3588149 0.002064764 -0.9334065
vn -0.7480459 -0.5034384 -0.4324086
vn -0.875333 0.1443896 -0.4614584
vn -0.1626398 -0.1075756 -0.9808037
vn -0.1626398 -0.1075756 -0.9808037
vn 0.8242342 0.5654258 0.03052425
vn 0.732711 -0.4194182 0.5359319
vn 0.732711 -0.4194182 0.5359319
vn 0.732711 -0.4194182 0.5359319
vn 0.726205 0.5671033 -0.3886134
vn 0.11621 0.4519841 -0.8844239
vn 0.5243864 0.4698045 -0.7101427
vn -0.3885187 -0.4566947 -0.800302
vn -0.7897236 0.1914918 -0.58281
vn 0.222288 0.5840944 -0.7806548
vn -0.8637213 0.2192161 -0.4537951
vn 0.7452313 0.5723496 0.3421202
vn 0.4523478 0.8753307 0.1708141
vn 0.4405282 0.8975253 0.01956964
vn 0.6465507 0.7433237 0.1715863
vn -0.04629026 0.5225682 -0.8513399
vn 0.7652425 0.6349902 -0.1057903
vn -0.1262682 0.7405839 -0.6599938
vn -0.8496004 0.3150585 -0.4229864
vn -0.802837 0.3850518 -0.455179
vn 0.4845103 -0.8506219 -0.2041864
vn 0.4663802 -0.8654377 -0.1830497
vn 0.3803695 -0.9213671 -0.08000968
vn 0.3148497 -0.9488624 -0.02302071
vn -0.1712743 -0.9509743 -0.257513
vn -0.3253435 -0.9331844 -0.1527038
vn -0.0979369 -0.8819446 -0.4610662
vn -0.4225811 -0.8551036 -0.3003716
vn -0.8360779 -0.532566 -0.131709
vn -0.3914893 -0.8901891 -0.2330226
vn -0.5705028 -0.808437 -0.1447623
vn -0.9749054 -0.2210238 -0.02660751
vn -0.8730451 -0.4092991 -0.2650782
vn -0.5355647 -0.7915771 -0.2942382
vn -0.02272063 -0.9994907 -0.02240309
vn 0.9946976 -0.08761626 0.0538519
vn 0.211852 -0.9771603 -0.01662832
vn -0.8020867 -0.5457265 -0.2425685
vn 0.6719568 -0.7251645 0.1503681
vn 0.6719568 -0.7251645 0.1503681
vn 0.6719568 -0.7251645 0.1503681
vn -0.008547038 -0.9992176 0.03861389
vn -0.56766 -0.8184581 -0.08881718
vn -0.9967219 0.07886273 -0.01806697
vn -0.9758197 0.1165471 -0.1849128
vn -0.9987477 0.0402125 -0.02976802
vn -0.9816644 0.09735148 -0.1638836
vn -0.9977282 0.06604645 -0.01327652
vn -0.9945439 0.05005474 -0.09152669
vn -0.3800763 0.9226194 0.06569344
vn -0.5730661 0.8116739 0.1130522
vn -0.58021 0.8120475 -0.06273187
vn -0.4693571 0.8827889 -0.01969226
vn 0.3343402 0.8798344 0.3377988
vn -0.1393784 0.9867005 0.08364031
vn 0.2457554 0.9212781 0.3014155
vn 0.5460405 0.7773561 0.3123417
vn 0.6917432 0.6801053 0.2427928
vn 0.6303852 0.6812927 0.3720952
vn 0.3524994 0.9331753 0.07020134
vn 0.739817 0.5657037 0.3642115
vn -0.3117824 0.949715 0.02886698
vn -0.650014 0.7339728 -0.1968905
vn -0.3108665 0.9357765 -0.1663859
vn 0.6392406 0.7428331 0.1989229
vn 0.6751127 0.7155387 0.1795191
vn 0.455055 0.890233 -0.0202502
vn 0.6671005 0.417649 0.6168842
vn 0.9918261 0.1156945 0.05381441
vn 0.9992736 -0.03727756 0.007917285
vn 0.9656348 -0.1395095 0.2192864
vn 0.9250078 0.1218224 0.3598889
vn 0.9966147 -0.06389901 -0.05173165
vn 0.9859219 -0.1612331 0.04429463
vn 0.9822074 -0.1807251 -0.05106169
vn 0.6709785 0.4133851 0.615549

vt 0.6331195 0.6301109
vt 0.7765411 0.9345744
vt 0.5045726 1.07477
vt 0.5290921 0.5233702
vt 0.2234589 0.6248725
vt 0.2434914 0.5195127
vt 0.5790407 0.5379233
vt 0.4209593 1.291304
vt 0.1531247 0.4148457
vt 0.5928322 0.4316133
vt 0.1531247 1.107283
vt 0.2852293 0.9073492
vt 0.6066238 1.037555
vt 0.6066238 0.3253033
vt 0.435207 0.7990502
vt 0.5415854 0.9392458
vt 0.5415854 0.2189932
vt 0.2852293 0.3090476
vt 0.3989151 0.9817353
vt 0.3976705 0.9817353
vt 0.2332601 0.7665852
vt 0.2497183 0.5233702
vt 0.314581 1.198891
vt 0.6992106 0.4478097
vt 0.685419 0.5541198
vt 0.5928322 1.172238
vt 0.7130021 1.198891
vt 0.7130021 0.3414996
vt 0.6486992 0.7876862
vt 0.420994 0.7665852
vt 0.2823923 0.894438
vt 0.3344461 0.4762942
vt 0.2065541 1.037555
vt 0.805589 0.4640061
vt 0.1944111 1.172238
vt 0.8210289 0.3579471
vt 0.7652221 0.5894979
vt 0.8210289 1.037555
vt 0.2609378 -0.09494543
vt 0.3752476 -0.09494543
vt 0.3811137 0.3459904
vt 0.2693881 0.3459904
vt 0.485577 -0.09494555
vt 0.4902148 0.3526611
vt 0.5883581 -0.09494555
vt 0.5937215 0.3710811
vt 0.6915483 -0.09494555
vt 0.6946293 0.352661
vt 0.2920588 -0.09494555
vt 0.3977222 -0.09494543
vt 0.4321409 0.3459904
vt 0.2445483 0.352661
vt 0.3751275 0.9345744
vt 0.6582835 0.3459904
vt 0.4804873 1.042874
vt 0.5851543 1.107283
vt 0.8468753 1.107283
vt 0.7565086 1.042874
vt 0.7557627 0.3526611
vt 0.6909524 0.9073492
vt 0.2605091 0.3710811
vt 0.5341536 -0.09494543
vt 0.5422838 0.3608267
vt 0.6518377 -0.09494543
vt 0.6680417 0.3913825
vt 0.7658845 -0.09494543
vt 0.784836 0.3608267
vt 0.2531434 -0.09494543
vt 0.3663129 -0.09494543
vt 0.3714283 0.4752467
vt 0.2560288 0.3608267
vt 0.4766054 -0.09494543
vt 0.4822942 0.5420508
vt 0.5748705 -0.09494543
vt 0.5840484 0.4752467
vt 0.6660992 -0.09494543
vt 0.681269 0.3608267
vt 0.7683535 -0.09494543
vt 0.7829686 0.3459904
vt 0.3579471 1.037555
vt 0.2530425 0.5894979
vt 0.4640061 1.172238
vt 0.5705672 1.037555
vt 0.1968386 0.4752467
vt 0.2703302 0.3608267
vt 0.6996178 0.4762942
vt 0.333576 -0.09494543
vt 0.4383501 -0.09494543
vt 0.4262261 0.3459904
vt 0.3144033 0.3459904
vt 0.5465209 -0.09494543
vt 0.5429665 0.3459904
vt 0.6603632 -0.09494543
vt 0.7667399 0.7665852

usemtl sn11_31_sngsc39.jpg
usemap sn11_31_sngsc39.jpg
f 3/3/3 1/1/1 2/2/2
f 1/1/1 3/3/3 4/4/4
f 7/7/7 5/5/5 6/6/6
f 2/2/2 8/8/8 3/3/3
f 10/10/10 6/6/6 9/9/9
f 6/6/6 10/10/10 7/7/7
f 13/13/13 11/11/11 12/12/12
f 9/9/9 14/14/14 10/10/10
f 16/16/16 12/12/12 15/15/15
f 18/18/18 17/17/17 14/14/14
f 19/19/19 4/4/4 3/3/3
f 22/22/22 20/20/20 21/21/21
f 23/23/23 3/3/3 8/8/8
f 3/3/3 23/23/23 19/19/19
f 24/24/24 7/7/7 10/10/10
f 7/7/7 24/24/24 25/25/25
f 27/27/27 26/26/26 13/13/13
f 10/10/10 28/28/28 24/24/24
f 29/29/29 13/13/13 16/16/16
f 13/13/13 29/29/29 27/27/27
f 31/31/31 30/30/30 19/19/19
f 30/30/30 31/31/31 32/32/32
f 33/33/33 19/19/19 23/23/23
f 19/19/19 33/33/33 31/31/31
f 34/34/34 25/25/25 24/24/24
f 23/23/23 35/35/35 33/33/33
f 36/36/36 24/24/24 28/28/28
f 24/24/24 36/36/36 34/34/34
f 37/37/37 27/27/27 29/29/29
f 27/27/27 37/37/37 38/38/38
f 41/41/41 39/39/39 40/40/40
f 39/39/39 41/41/41 42/42/42
f 44/44/44 40/40/40 43/43/43
f 40/40/40 44/44/44 41/41/41
f 46/46/46 43/43/43 45/45/45
f 43/43/43 46/46/46 44/44/44
f 48/48/48 45/45/45 47/47/47
f 45/45/45 48/48/48 46/46/46
f 51/51/51 49/49/49 50/50/50
f 49/49/49 51/51/51 52/52/52
f 53/53/53 42/42/42 41/41/41
f 54/54/54 2/2/2 1/1/1
f 55/55/55 41/41/41 44/44/44
f 41/41/41 55/55/55 53/53/53
f 56/56/56 44/44/44 46/46/46
f 59/59/59 57/57/57 58/58/58
f 60/60/60 46/46/46 48/48/48
f 61/61/61 12/12/12 11/11/11
f 15/15/15 52/52/52 51/51/51
f 52/52/52 15/15/15 12/12/12
f 63/63/63 50/50/50 62/62/62
f 50/50/50 63/63/63 51/51/51
f 65/65/65 62/62/62 64/64/64
f 62/62/62 65/65/65 63/63/63
f 67/67/67 64/64/64 66/66/66
f 64/64/64 67/67/67 65/65/65
f 16/16/16 51/51/51 63/63/63
f 51/51/51 16/16/16 15/15/15
f 29/29/29 63/63/63 65/65/65
f 63/63/63 29/29/29 16/16/16
f 37/37/37 65/65/65 67/67/67
f 65/65/65 37/37/37 29/29/29
f 70/70/70 68/68/68 69/69/69
f 68/68/68 70/70/70 71/71/71
f 73/73/73 69/69/69 72/72/72
f 69/69/69 73/73/73 70/70/70
f 75/75/75 72/72/72 74/74/74
f 72/72/72 75/75/75 73/73/73
f 77/77/77 74/74/74 76/76/76
f 74/74/74 77/77/77 75/75/75
f 79/79/79 76/76/76 78/78/78
f 76/76/76 79/79/79 77/77/77
f 80/80/80 71/71/71 70/70/70
f 71/71/71 80/80/80 81/81/81
f 82/82/82 70/70/70 73/73/73
f 70/70/70 82/82/82 80/80/80
f 83/83/83 73/73/73 75/75/75
f 73/73/73 83/83/83 82/82/82
f 31/31/31 84/84/84 85/85/85
f 84/84/84 31/31/31 33/33/33
f 86/86/86 77/77/77 79/79/79
f 85/85/85 32/32/32 31/31/31
f 89/89/89 87/87/87 88/88/88
f 87/87/87 89/89/89 90/90/90
f 92/92/92 88/88/88 91/91/91
f 88/88/88 92/92/92 89/89/89
f 54/54/54 91/91/91 93/93/93
f 91/91/91 54/54/54 92/92/92
f 30/30/30 90/90/90 89/89/89
f 79/79/79 94/94/94 86/86/86
f 4/4/4 89/89/89 92/92/92
f 89/89/89 4/4/4 30/30/30
f 1/1/1 92/92/92 54/54/54
f 92/92/92 1/1/1 4/4/4
