mtllib ./nder100.mtl
g nder100
v -157.5429 -37.74622 45.63656
v -153.1493 -36.67141 -21.94684
v -163.7598 -31.07831 28.63991
v -157.5429 -37.74622 45.63656
v 8.52646 -33.62006 -127.7759
v -68.60704 -36.79208 -130.4126
v 73.20684 -35.62226 -56.17336
v 68.5326 -33.83357 -83.36231
v 126.6877 -36.33619 24.97172
v 193.3447 -31.5725 96.25089
v 170.3135 -36.11662 21.18331
v -57.40958 -35.38349 96.93597
v -68.7769 -31.75718 152.767
v 47.9673 -33.44184 221.3567
v -58.99928 -95.9238 -164.4377
v -41.14986 -136.7123 -82.14732
v -135.8159 -159.2353 -168.7672
v 180.5028 -85.54709 64.21458
v 136.5881 -117.8245 126.5407
v 151.6168 -116.6607 61.61483
v 47.9673 -33.44184 221.3567
v -68.7769 -31.75718 152.767
v 35.23464 -103.5853 223.1023
v -68.7769 -31.75718 152.767
v -156.6764 -100.5386 41.92273
v -49.78343 -314.1393 117.2861
v 151.6168 -116.6607 61.61483
v 50.7819 -219.8322 114.9254
v 137.3236 -175.0225 62.61762
v -49.78343 -314.1393 117.2861
v -138.6935 -267.4999 22.13485
v -90.26157 -314.3767 90.34099
v -41.14986 -136.7123 -82.14732
v 17.54193 -139.0101 -129.7334
v -146.0437 -312.5825 -193.7298
v 114.4013 -245.242 57.88687
v 125.4341 -290.758 37.56013
v 138.5567 -224.004 35.02824
v 125.4341 -290.758 37.56013
v 99.30714 -321.3521 64.82338
v 147.9691 -317.7036 -38.72389
v -153.1493 -36.67141 -21.94684
v 129.4174 -33.51379 -24.23391
v 98.74141 -33.26663 84.51476
v -48.11375 -36.57648 -169.5699
v 41.88054 -32.88288 -172.7964
v -58.99928 -95.9238 -164.4377
v 148.8104 -70.93494 121.5348
v 47.9673 -33.44184 221.3567
v 136.5881 -117.8245 126.5407
v -144.6181 -34.93529 -131.0903
v -135.8159 -159.2353 -168.7672
v 17.54193 -139.0101 -129.7334
v 36.97844 -78.60427 -190.9486
v 93.59734 -216.3687 -58.64137
v 151.6168 -116.6607 61.61483
v 160.4515 -193.2591 -1.062743
v 136.5881 -117.8245 126.5407
v 114.4013 -245.242 57.88687
v 138.5567 -224.004 35.02824
v 160.4515 -193.2591 -1.062743
v 151.6168 -116.6607 61.61483
v 137.3236 -175.0225 62.61762
v 50.7819 -219.8322 114.9254
v -49.78343 -314.1393 117.2861
v 35.23464 -103.5853 223.1023
v -49.78343 -314.1393 117.2861
v -138.6935 -267.4999 22.13485
v -135.8159 -159.2353 -168.7672
v -41.14986 -136.7123 -82.14732
v -146.0437 -312.5825 -193.7298
v -146.0437 -312.5825 -193.7298
v 17.54193 -139.0101 -129.7334
v 2.359045 -330.7489 -147.9418
v 120.7918 -326.7382 -107.4159
v 17.54193 -139.0101 -129.7334
v 93.59734 -216.3687 -58.64137
v 120.7918 -326.7382 -107.4159
v 147.9691 -317.7036 -38.72389
v 58.37893 -316.4514 140.0742
v 50.7819 -219.8322 114.9254
v 58.37893 -316.4514 140.0742
v -90.26157 -314.3767 90.34099
v -138.6935 -267.4999 22.13485
v -145.7963 -314.7287 48.57298
v 58.37893 -316.4514 140.0742
v -58.99928 -95.9238 -164.4377
v -144.6181 -34.93529 -131.0903
v -135.8159 -159.2353 -168.7672
v 159.7389 -59.53563 88.28516
v 218.9968 -143.3514 19.07838
v 205.9772 -69.20801 -86.32169
v 204.3004 -87.00336 59.38567
v 127.0361 -174.1722 -85.96295
v 205.9772 -69.20801 -86.32169
v 218.9968 -143.3514 19.07838
v 212.2379 -33.89019 -54.09291
v 193.3149 -42.38145 4.368991
v 160.4515 -193.2591 -1.062743
v 204.3004 -87.00336 59.38567
v 180.5028 -85.54709 64.21458
v 218.9968 -143.3514 19.07838
v 127.0361 -174.1722 -85.96295
v -49.78343 -314.1393 117.2861
v 193.3149 -42.38145 4.368991
v 212.2379 -33.89019 -54.09291
v 127.0361 -174.1722 -85.96295
v 113.2914 -98.29218 -120.4953
v 205.9772 -69.20801 -86.32169
v 93.59734 -216.3687 -58.64137
v 88.50001 -89.61393 -140.6256
v 17.54193 -139.0101 -129.7334
v 88.50001 -89.61393 -140.6256
v 138.5567 -224.004 35.02824
v 118.2747 -33.05889 -110.7023
v 156.1675 -35.15971 -82.75162
v 205.9772 -69.20801 -86.32169
v 156.1675 -35.15971 -82.75162
v 212.2379 -33.89019 -54.09291
v 118.2747 -33.05889 -110.7023
v 36.97844 -78.60427 -190.9486
v 36.97844 -78.60427 -190.9486
v 118.2747 -33.05889 -110.7023
v 88.50001 -89.61393 -140.6256
v 204.3004 -87.00336 59.38567
v 193.3149 -42.38145 4.368991
v 170.3135 -36.11662 21.18331
v 180.5028 -85.54709 64.21458
v 180.5028 -85.54709 64.21458
v 170.3135 -36.11662 21.18331
v 170.3135 -36.11662 21.18331
v 193.3447 -31.5725 96.25089
v 159.7389 -59.53563 88.28516
v 148.8104 -70.93494 121.5348
v 193.3447 -31.5725 96.25089
v 148.8104 -70.93494 121.5348
v -49.78343 -314.1393 117.2861
v 218.9968 -143.3514 19.07838
v -87.42168 -721.8313 111.8196
v -44.51406 -721.5938 125.0033
v -49.78343 -314.1393 117.2861
v -90.26157 -314.3767 90.34099
v 96.89282 -728.8065 45.58274
v 133.5072 -725.1582 -37.23299
v 147.9691 -317.7036 -38.72389
v 99.30714 -321.3521 64.82338
v 23.44496 -738.2035 -135.7769
v -100.1649 -720.0371 -99.68341
v 97.60442 -734.1926 -88.60275
v -44.51406 -721.5938 125.0033
v 42.27205 -723.9059 112.772
v 58.37893 -316.4514 140.0742
v -49.78343 -314.1393 117.2861
v -112.1602 -722.1832 38.5845
v -145.7963 -314.7287 48.57298
v 118.2747 -33.05889 -110.7023
v 41.88054 -32.88288 -172.7964
v -48.11375 -36.57648 -169.5699
v -144.6181 -34.93529 -131.0903
v -144.6181 -34.93529 -131.0903
v -174.9277 -16.37027 -4.903392
v 114.4013 -245.242 57.88687
v -126.2569 -35.18858 94.69393
v -126.2569 -35.18858 94.69393
v -157.5429 -37.74622 45.63656

vn 0.6592662 0.7519094 0.0006491274
vn 0.7049241 0.7092319 0.008491736
vn 0.6953994 0.7185693 0.008814986
vn -0.01042214 0.9999446 -0.001474098
vn -0.02368377 0.9997166 0.002431761
vn -0.008467417 0.9999624 0.001799782
vn -0.004932542 0.9999629 0.007061837
vn 0.0004222743 0.9996622 0.02598585
vn -0.007163673 0.9999028 -0.01195683
vn -0.01663426 0.9995499 -0.02496619
vn 0.03750778 0.9984924 -0.0400773
vn -0.003056334 0.9997095 -0.02390726
vn 0.02744704 0.99778 -0.06067875
vn -0.005372104 0.9999021 -0.01292111
vn 0.08074203 -0.8129857 -0.5766584
vn 0.1928309 -0.850481 -0.4893855
vn 0.5406597 -0.672612 -0.5052528
vn 0.594427 -0.7021795 0.3919191
vn 0.6477734 -0.5861033 0.4866954
vn 0.6394464 -0.6834254 0.3521902
vn 0.3844813 -0.08388839 0.9193133
vn -0.53124 -0.08684085 0.8427591
vn -0.3473912 -0.1035113 0.9319897
vn -0.6719077 -0.1457405 0.7261541
vn -0.6892725 -0.1440327 0.7100409
vn -0.687554 -0.1415661 0.7121999
vn 0.5578752 -0.2377954 0.795128
vn 0.3436411 -0.04770581 0.9378887
vn 0.6411965 -0.1903311 0.7433982
vn -0.4111833 0.5351695 0.7379172
vn -0.4111833 0.5351695 0.7379172
vn -0.4111833 0.5351695 0.7379172
vn -0.5079042 0.6548453 -0.5596523
vn -0.5079042 0.6548453 -0.5596523
vn -0.5079042 0.6548453 -0.5596523
vn 0.8510643 -0.000310735 0.5250615
vn 0.9911157 0.1295734 0.03000485
vn 0.9345603 -0.1961962 -0.296823
vn 0.8716553 -0.3400734 0.3529408
vn 0.8716553 -0.3400734 0.3529408
vn 0.8712441 -0.3786427 0.3123512
vn 0.02544984 0.9995539 0.01562685
vn 0.006375281 0.9998211 0.0178146
vn -0.01512415 0.9996333 -0.02246253
vn -0.2776158 0.111826 -0.9541617
vn 0.004934631 0.188802 -0.9820029
vn -0.202858 0.1634113 -0.9654768
vn 0.7984236 -0.1251906 0.5889373
vn 0.7380943 -0.1000418 0.6672394
vn 0.8134386 -0.07224848 0.5771462
vn -0.3500723 0.260982 -0.8996321
vn -0.2969022 0.2123395 -0.9309999
vn -0.03119549 -0.7568978 -0.6527884
vn 0.08408901 -0.7266334 -0.6818599
vn -0.422847 0.9048272 -0.04988075
vn 0.3269291 0.6106651 -0.7212527
vn 0.3206219 0.6568482 -0.6824602
vn 0.6989648 -0.1906982 0.6892622
vn -0.0870762 0.7934003 0.6024399
vn -0.0870762 0.7934003 0.6024399
vn 0.9085994 -0.2659192 0.322078
vn 0.925865 -0.2130775 0.3120449
vn 0.9085994 -0.2659192 0.322078
vn 0.756842 -0.6459877 0.09944958
vn -0.4221297 -0.08203078 0.9028164
vn 0.5896986 -0.5417722 0.5989478
vn 0.6217393 -0.7819273 0.04505655
vn -0.7044229 -0.1566558 0.6922768
vn 0.5997742 0.07699244 -0.7964565
vn 0.5997742 0.07699244 -0.7964565
vn 0.5997742 0.07699244 -0.7964565
vn -0.001747288 -0.08694886 -0.9962113
vn 0.2314953 0.06549625 -0.9706288
vn 0.2726769 -0.001809182 -0.9621039
vn 0.5390796 -0.03739576 -0.8414242
vn 0.770139 0.3927524 -0.5026246
vn 0.9202614 0.2508378 -0.3003317
vn 0.7849356 0.3871463 -0.4837289
vn 0.869355 0.4468143 -0.2111375
vn 0.8167242 0.1219718 0.5639898
vn 0.7521282 0.2311062 0.6171654
vn -0.1170176 0.2325795 0.9655121
vn -0.4720653 0.4732274 0.743781
vn -0.4720653 0.4732274 0.743781
vn -0.4720653 0.4732274 0.743781
vn 0.8683494 -0.2905869 0.401906
vn 0.2498379 -0.2744766 0.9285707
vn 0.2498379 -0.2744766 0.9285707
vn 0.2498379 -0.2744766 0.9285707
vn 0.9252965 0.1473839 0.3494342
vn 0.9732392 0.2260938 -0.04107505
vn 0.9865019 0.163548 -0.008111988
vn 0.9669977 0.2520162 -0.03746052
vn 0.7362651 -0.6766837 -0.003574153
vn 0.5329781 -0.7915767 -0.2988992
vn 0.3104828 -0.84202 -0.4411382
vn 0.9131276 -0.3742601 0.1616396
vn 0.9954652 0.09027233 0.03000328
vn 0.5724092 -0.8167585 0.07247888
vn 0.1998948 -0.553458 0.8085334
vn 0.4328783 -0.4092809 0.8031846
vn 0.4328783 -0.4092809 0.8031846
vn 0.8491029 -0.3361748 0.4074444
vn 0.8491029 -0.3361748 0.4074444
vn 0.1062382 0.9914045 0.07635826
vn 0.03538945 0.9971055 0.06729223
vn 0.2610621 -0.3833958 -0.88592
vn 0.3599834 -0.1292916 -0.9239565
vn 0.3039482 -0.136764 -0.9428207
vn 0.3410287 -0.6770068 -0.6521972
vn 0.2654515 -0.3630781 -0.8931461
vn 0.122718 -0.4686989 -0.8747923
vn 0.3590363 -0.7114189 -0.6041325
vn 0.5183769 -0.7714012 -0.3690873
vn 0.3978836 0.707692 -0.5838326
vn 0.3423783 0.6487402 -0.679642
vn 0.3423783 0.6487402 -0.679642
vn -0.005354364 0.9999624 -0.006821227
vn 0.2947816 0.5950234 -0.7476972
vn 0.4101813 0.1530679 -0.899067
vn 0.07965375 0.3500084 -0.9333538
vn 0.6388605 0.009551222 -0.7692633
vn 0.6388605 0.009551222 -0.7692633
vn 0.6388605 0.009551222 -0.7692633
vn 0.4373743 0.7051065 0.5581474
vn 0.5694999 0.7060319 0.420938
vn 0.4373743 0.7051065 0.5581474
vn 0.2456852 0.6666594 0.7037073
vn 0.8851261 0.2484117 0.3935016
vn 0.8803989 0.4241421 0.2121352
vn 0.6384152 -0.7408792 -0.2086239
vn 0.6396226 -0.7489208 -0.1732071
vn 0.6396226 -0.7489208 -0.1732071
vn 0.6395038 -0.7620218 -0.1017725
vn 0.6919203 -0.2464322 0.6786144
vn 0.6919203 -0.2464322 0.6786144
vn -0.5182244 0.8506382 0.0886476
vn -0.5182244 0.8506382 0.0886476
vn -0.6645793 0.02157748 0.7469061
vn -0.2144424 0.01430358 0.9766318
vn -0.358339 0.02795356 0.933173
vn -0.7059453 -0.01110359 0.7081793
vn 0.9119011 -0.03002235 0.4093104
vn 0.9772869 -0.04836757 -0.2063273
vn 0.9893865 -0.03151234 0.1418497
vn 0.8999132 -0.04070185 0.4341654
vn 0.06858086 -0.09863656 -0.9927576
vn -0.3792125 -0.2466536 -0.8918296
vn 0.4506875 -0.04530879 -0.8915312
vn 0.02737502 -0.02326467 0.9993544
vn 0.7035984 -0.06264194 0.7078314
vn 0.3404522 -0.04189725 0.939328
vn -0.1249362 0.01587062 0.9920379
vn -0.769931 -0.02861641 0.6374853
vn -0.5319976 -0.06902856 0.8439274
vn 0.00562944 0.9993741 0.03492672
vn -0.01686703 0.9998391 0.006095069
vn -0.02193165 0.9997541 -0.003287313
vn 0.0256425 0.9995455 0.01585404
vn 0.7107756 0.7033701 0.008290248
vn 0.7113871 0.7027343 0.009639447
vn 0.6522018 -0.2447688 0.7174407
vn -0.0001409207 0.9982015 -0.05994768
vn -0.7009409 -0.1610997 0.6947868
vn -0.7943258 -0.04347749 0.605934

vt 1.773402 0.8887106
vt 1.675757 0.4696146
vt 1.813327 0.7590297
vt 1.999001 1.084916
vt 1.086004 0.2252933
vt 1.499913 0.2030544
vt 0.7473848 0.5955713
vt 0.7691702 0.4572582
vt 0.470074 1.012915
vt 0.1208001 1.381782
vt 0.2353281 0.9987395
vt 1.467512 1.356392
vt 1.535368 1.637998
vt 0.9167821 1.999001
vt 0.4304435 0.07470781
vt 0.496901 0.2709621
vt 0.1113936 0.06029209
vt 1.404867 0.6302575
vt 1.21635 0.7758032
vt 1.284983 0.6225307
vt 0.8388448 0.9968578
vt 0.3598176 0.9992394
vt 0.7857285 0.8976922
vt 1.298348 0.9992394
vt 0.8779106 0.9019996
vt 1.167756 0.6000212
vt 1.284983 0.8792069
vt 0.8606037 0.733348
vt 1.225448 0.7966979
vt 0.6300834 0.7633047
vt 1.339027 0.7219627
vt 1.110876 0.984314
vt 1.073099 0.2709621
vt 0.8245212 0.1611941
vt 1.498783 0.0004995465
vt 0.6096665 0.6974248
vt 0.6844689 0.6330765
vt 0.6927921 0.7274501
vt 0.3179418 0.28491
vt 0.1865002 -0.0731523
vt 0.5824689 0.2770915
vt 1.967162 0.7429549
vt 0.4494128 0.7638887
vt 0.6274173 1.311423
vt 1.093802 0.9924262
vt 0.7192363 0.997648
vt 1.139556 0.9085237
vt 0.3696063 0.9438518
vt 0.006210811 0.9968578
vt 0.351989 0.8775616
vt 1.498771 0.9947464
vt 1.458606 0.8190171
vt 0.7454787 0.1611941
vt 0.832092 0.01696557
vt 0.5149437 0.3340101
vt 0.2850168 0.6225307
vt 0.2423551 0.47426
vt 1.21635 0.8775616
vt 0.4394333 0.6116773
vt 0.3368185 0.5587311
vt 0.8254118 0.7709157
vt 0.5926268 0.8792069
vt 0.5901001 0.7966979
vt 0.8606037 0.7436122
vt 0.4421577 0.6000212
vt 0.7857285 0.9995005
vt 0.4421577 0.7437937
vt 0.805704 0.6659577
vt 1.475341 0.8190171
vt 1.144589 0.8508589
vt 1.569216 0.602222
vt 1.460497 0.710113
vt 1.150634 0.9995005
vt 1.20165 0.6798253
vt 0.8486696 0.6865121
vt 1.316925 0.8476104
vt 1.045604 0.7382444
vt 1.225033 0.5822095
vt 0.9667912 0.5949821
vt 0.3081829 0.5967523
vt 0.4025288 0.733348
vt 0.8898219 0.5967523
vt 0.984314 0.3366959
vt 0.7219627 0.3906288
vt 0.8377843 0.1866448
vt -0.1611848 0.1409322
vt 0.4304435 0.9085237
vt 0.07122895 0.9947464
vt 0.1113936 0.8190171
vt 0.4925675 0.9599676
vt 0.7454125 0.8414729
vt 1.139228 0.9462932
vt 0.5964739 0.9211351
vt 1.196699 0.2709729
vt 1.525027 0.2743768
vt 1.569216 0.5252149
vt 1.018616 0.9962239
vt 0.8023922 0.9842194
vt 1.327645 0.47426
vt 1.50429 0.6200803
vt 1.404867 0.9231938
vt 1.569216 0.8414729
vt 1.144572 0.7978998
vt 0.4022438 0.6000212
vt 0.1097525 0.9161834
vt 0.0009990335 0.6221161
vt 0.3733005 0.7978998
vt 0.4271987 0.9051754
vt 0.04497261 0.9462932
vt 1.055056 0.3340101
vt 0.5283979 0.9174443
vt 0.8245212 0.8476104
vt 1.041602 0.1391697
vt 1.233181 0.5587311
vt 0.4073998 0.2117889
vt 0.2524545 0.2801644
vt 0.04497261 0.2743768
vt 0.2986183 0.4704394
vt 0.02198079 0.3511999
vt 0.4073998 0.9973992
vt 0.7379079 0.9330093
vt 1.543364 0.9330093
vt 1.237491 0.9973992
vt 1.351503 0.9174443
vt 0.0657097 0.6200803
vt 0.1061985 0.4889221
vt 0.2034432 0.5275861
vt 0.1651333 0.6302575
vt 0.5804957 0.9231938
vt 0.7416899 0.9930763
vt 1.366557 0.5275861
vt 1.455246 0.7069786
vt 1.316242 0.6862627
vt 1.267652 0.7645819
vt 1.455246 0.9995005
vt 1.267652 0.9438518
vt 1.127842 0.7437937
vt 0.0007841944 0.5252149
vt 2.227527 0.02779585
vt 2.325071 0.02819189
vt 2.308741 0.7075176
vt 2.19327 0.7071217
vt 0.3534652 0.01616633
vt 0.6286401 0.02224907
vt 0.6300402 0.701575
vt 0.2816687 0.6954921
vt 1.135733 0.0004994869
vt 1.548242 0.03078726
vt 0.8382967 0.007186443
vt -0.1049293 0.02819189
vt 0.1413136 0.0243369
vt 0.1055838 0.7036626
vt -0.1212587 0.7075176
vt 2.042952 0.0272091
vt 2.021572 0.7065349
vt 0.498705 0.3244426
vt 0.9013909 0.0009989142
vt 1.385081 0.006990314
vt 1.908033 0.1908717
vt 1.518043 -0.2073007
vt 1.901394 0.472981
vt 1.130567 0.6974248
vt 1.836969 1.337107
vt 1.077107 0.9943883
vt 0.8916748 0.9907724

usemtl sn11_13_sngsc08.jpg
usemap sn11_13_sngsc08.jpg
f 3/3/3 1/1/1 2/2/2
f 6/6/6 4/4/4 5/5/5
f 8/8/8 4/4/4 7/7/7
f 11/11/11 9/9/9 10/10/10
f 14/14/14 12/12/12 13/13/13
f 42/42/42 4/4/4 6/6/6
f 43/43/43 9/9/9 11/11/11
f 10/10/10 44/44/44 14/14/14
f 43/43/43 105/105/105 106/106/106
f 105/105/105 43/43/43 11/11/11
f 5/5/5 4/4/4 8/8/8
f 7/7/7 4/4/4 43/43/43
f 117/117/117 115/115/115 116/116/116
f 106/106/106 118/118/118 43/43/43
f 116/116/116 119/119/119 117/117/117
f 156/156/156 7/7/7 118/118/118
f 118/118/118 7/7/7 43/43/43
f 156/156/156 8/8/8 7/7/7
f 157/157/157 8/8/8 156/156/156
f 157/157/157 5/5/5 8/8/8
f 158/158/158 5/5/5 157/157/157
f 158/158/158 6/6/6 5/5/5
f 159/159/159 6/6/6 158/158/158
f 159/159/159 42/42/42 6/6/6
f 161/161/161 2/2/2 160/160/160
f 161/161/161 3/3/3 2/2/2
f 43/43/43 4/4/4 9/9/9
f 9/9/9 44/44/44 10/10/10
f 9/9/9 4/4/4 44/44/44
f 44/44/44 12/12/12 14/14/14
f 44/44/44 4/4/4 12/12/12
f 12/12/12 163/163/163 13/13/13
f 12/12/12 4/4/4 163/163/163

usemtl sn11_15_sngsc67.jpg
usemap sn11_15_sngsc67.jpg
f 17/17/17 15/15/15 16/16/16
f 20/20/20 18/18/18 19/19/19
f 23/23/23 21/21/21 22/22/22
f 26/26/26 24/24/24 25/25/25
f 29/29/29 27/27/27 28/28/28
f 35/35/35 33/33/33 34/34/34
f 38/38/38 36/36/36 37/37/37
f 47/47/47 45/45/45 46/46/46
f 50/50/50 48/48/48 49/49/49
f 52/52/52 51/51/51 47/47/47
f 16/16/16 15/15/15 53/53/53
f 53/53/53 15/15/15 54/54/54
f 57/57/57 55/55/55 56/56/56
f 23/23/23 58/58/58 21/21/21
f 60/60/60 57/57/57 59/59/59
f 63/63/63 61/61/61 62/62/62
f 64/64/64 20/20/20 19/19/19
f 28/28/28 58/58/58 65/65/65
f 67/67/67 19/19/19 66/66/66
f 65/65/65 23/23/23 22/22/22
f 68/68/68 26/26/26 25/25/25
f 71/71/71 69/69/69 70/70/70
f 74/74/74 72/72/72 73/73/73
f 74/74/74 73/73/73 75/75/75
f 78/78/78 76/76/76 77/77/77
f 79/79/79 78/78/78 77/77/77
f 37/37/37 36/36/36 80/80/80
f 79/79/79 77/77/77 37/37/37
f 80/80/80 36/36/36 81/81/81
f 82/82/82 28/28/28 65/65/65
f 45/45/45 47/47/47 52/52/52
f 52/52/52 51/51/51 45/45/45
f 89/89/89 87/87/87 88/88/88
f 50/50/50 90/90/90 48/48/48
f 93/93/93 91/91/91 92/92/92
f 95/95/95 67/67/67 94/94/94
f 95/95/95 96/96/96 67/67/67
f 92/92/92 97/97/97 98/98/98
f 96/96/96 20/20/20 99/99/99
f 18/18/18 96/96/96 100/100/100
f 102/102/102 101/101/101 27/27/27
f 77/77/77 103/103/103 104/104/104
f 109/109/109 107/107/107 108/108/108
f 110/110/110 53/53/53 94/94/94
f 112/112/112 111/111/111 107/107/107
f 53/53/53 54/54/54 113/113/113
f 77/77/77 38/38/38 37/37/37
f 114/114/114 110/110/110 99/99/99
f 121/121/121 46/46/46 120/120/120
f 121/121/121 47/47/47 46/46/46
f 124/124/124 122/122/122 123/123/123
f 111/111/111 108/108/108 107/107/107
f 111/111/111 120/120/120 108/108/108
f 109/109/109 108/108/108 120/120/120
f 92/92/92 98/98/98 93/93/93
f 127/127/127 125/125/125 126/126/126
f 125/125/125 127/127/127 128/128/128
f 129/129/129 90/90/90 50/50/50
f 129/129/129 130/130/130 90/90/90
f 133/133/133 131/131/131 132/132/132
f 134/134/134 133/133/133 132/132/132
f 136/136/136 135/135/135 21/21/21
f 138/138/138 55/55/55 137/137/137
f 96/96/96 99/99/99 110/110/110
f 141/141/141 139/139/139 140/140/140
f 139/139/139 141/141/141 142/142/142
f 145/145/145 143/143/143 144/144/144
f 143/143/143 145/145/145 146/146/146
f 72/72/72 147/147/147 148/148/148
f 147/147/147 72/72/72 74/74/74
f 74/74/74 149/149/149 147/147/147
f 149/149/149 74/74/74 75/75/75
f 75/75/75 144/144/144 149/149/149
f 144/144/144 75/75/75 145/145/145
f 152/152/152 150/150/150 151/151/151
f 150/150/150 152/152/152 153/153/153
f 142/142/142 154/154/154 139/139/139
f 154/154/154 142/142/142 155/155/155
f 146/146/146 151/151/151 143/143/143
f 151/151/151 146/146/146 152/152/152
f 162/162/162 29/29/29 28/28/28
f 36/36/36 61/61/61 63/63/63
f 25/25/25 24/24/24 164/164/164
f 165/165/165 25/25/25 164/164/164

usemtl sn11_12_sngsc09.jpg
usemap sn11_12_sngsc09.jpg
f 32/32/32 30/30/30 31/31/31
f 41/41/41 39/39/39 40/40/40
f 85/85/85 83/83/83 84/84/84
f 40/40/40 39/39/39 86/86/86
