mtllib ./nder01.mtl
g nder01
v -1266.984 5.477173 74.90245
v -1109.89 129.5192 698.2988
v -1193.223 129.5192 66.57993
v -1183.335 5.477173 747.8898
v -698.7767 129.5192 1132.362
v -748.4276 5.477173 1208.615
v -70.04053 129.5192 1234.563
v -78.79562 5.477173 1313.491
v -78.79562 5.477173 1313.491
v 546.3486 129.5192 1016.444
v -70.04053 129.5192 1234.563
v 576.9459 5.477173 1078.207
v 971.9976 129.5192 568.5631
v 1028.205 5.477173 601.9372
v 1123.182 129.5192 -0.0006332397
v 1188.188 5.477173 -0.0006332397
v 972.6262 129.5192 -560.8171
v 1028.912 5.477173 -593.2229
v 561.5126 129.5192 -972.4796
v 594.0054 5.477173 -1028.747
v -4.577637E-05 129.5192 -1123.183
v -3.814697E-05 5.477173 -1188.188
v -562.2984 129.5192 -971.882
v -594.8893 5.477173 -1028.075
v -987.9474 129.5192 -546.4018
v -1046.149 5.477173 -577.0056
v -889.5571 259.0382 549.5255
v -971.9421 259.0382 41.61224
v -549.8243 259.0382 903.6019
v -43.77524 259.0382 997.7798
v 454.5569 259.0382 831.1528
v -43.77524 259.0382 997.7798
v 803.3743 259.0382 468.4406
v 928.1671 259.0382 -0.0006332397
v 803.7671 259.0382 -463.5999
v 464.0344 259.0382 -803.6757
v 9.918213E-05 259.0382 -928.1674
v -464.5254 259.0382 -803.3022
v -813.343 259.0382 -454.5901
v -522.3354 388.5572 301.5699
v -603.1409 388.5572 -0.0004882813
v -301.5703 388.5572 522.335
v 0.0001678467 388.5572 603.1404
v 301.5707 388.5572 522.3347
v 0.0001678467 388.5572 603.1404
v 522.3355 388.5572 301.5699
v 603.1412 388.5572 -0.0006332397
v 522.3355 388.5572 -301.571
v 301.5706 388.5572 -522.3359
v 9.918213E-05 388.5572 -603.1414
v -301.5703 388.5572 -522.3358
v -522.3354 388.5572 -301.5709

vn -0.8549308 0.5182081 -0.02353054
vn -0.5425488 0.8037868 0.2440649
vn -0.6543681 0.7531626 -0.06744228
vn -0.6993595 0.5821611 0.4147105
vn -0.2767022 0.8104393 0.5163565
vn -0.2936051 0.5771285 0.7620491
vn -0.1091966 0.7247755 0.6802768
vn -0.1303516 0.5387884 0.8322953
vn 0.2924541 0.4910912 0.8205487
vn 0.3662196 0.7244639 0.5839821
vn 0.2044246 0.7832457 0.5871429
vn 0.530111 0.4774211 0.7007506
vn 0.6097903 0.7097051 0.3528097
vn 0.8037782 0.4641722 0.3721353
vn 0.7053019 0.7088771 0.006518673
vn 0.8832396 0.4628248 -0.07537278
vn 0.6136678 0.7090366 -0.3473889
vn 0.7270417 0.4625316 -0.5074197
vn 0.3582357 0.7090966 -0.6073297
vn 0.3763274 0.4627202 -0.802663
vn 0.005813006 0.7092252 -0.704958
vn -0.0766443 0.462738 -0.8831756
vn -0.34968 0.7097689 -0.6115162
vn -0.5105483 0.4625302 -0.724849
vn -0.592401 0.718071 -0.3652875
vn -0.7845653 0.4727974 -0.4011483
vn -0.3264251 0.9339593 0.1454882
vn -0.4089017 0.9117559 -0.03873855
vn -0.1760796 0.9375647 0.2999474
vn -0.07086879 0.9136789 0.4002106
vn 0.221777 0.9001521 0.3748879
vn 0.1205197 0.917979 0.3778751
vn 0.3877986 0.8916144 0.2337436
vn 0.4546601 0.8905864 0.01183365
vn 0.3995973 0.8905432 -0.2173822
vn 0.2376235 0.8905752 -0.3878285
vn 0.01155608 0.890628 -0.4545856
vn -0.2183888 0.8906008 -0.3989192
vn -0.3788535 0.8942055 -0.2384667
vn -0.2785773 0.9547858 0.1038209
vn -0.3416779 0.9385235 -0.04929292
vn -0.1671532 0.9611228 0.2197791
vn -0.0637749 0.9535682 0.2943476
vn 0.1434855 0.9389195 0.3127976
vn 0.08554056 0.9438049 0.3192413
vn 0.2959011 0.9301395 0.2174465
vn 0.3696361 0.928179 0.04304647
vn 0.3419638 0.928026 -0.1477446
vn 0.2224457 0.9280085 -0.2988614
vn 0.04314816 0.9280781 -0.3698776
vn -0.1477622 0.9280273 -0.3419526
vn -0.2968682 0.928835 -0.2216637

vt 8.999999 0.01160052
vt 9.999999 0.3334998
vt 8.999999 0.3334998
vt 9.999999 0.01160052
vt 11 0.3334998
vt 11 0.01160052
vt 12 0.3334998
vt 12 0.01160052
vt -7.152557E-07 0.01160052
vt 0.9999999 0.3334998
vt -7.152557E-07 0.3334998
vt 0.9999999 0.01160052
vt 2 0.3334998
vt 2 0.01160052
vt 3 0.3334998
vt 3 0.01160052
vt 4 0.3334998
vt 4 0.01160052
vt 5 0.3334998
vt 5 0.01160052
vt 6 0.3334998
vt 6 0.01160052
vt 7 0.3334998
vt 7 0.01160052
vt 8 0.3334998
vt 8 0.01160052
vt 9.999999 0.6665002
vt 8.999999 0.6665002
vt 11 0.6665002
vt 12 0.6665002
vt 0.9999999 0.6665002
vt -7.152557E-07 0.6665002
vt 2 0.6665002
vt 3 0.6665002
vt 4 0.6665002
vt 5 0.6665002
vt 6 0.6665002
vt 7 0.6665002
vt 8 0.6665002
vt 9.999999 0.9995004
vt 8.999999 0.9995004
vt 11 0.9995004
vt 12 0.9995004
vt 0.9999999 0.9995004
vt -7.152557E-07 0.9995004
vt 2 0.9995004
vt 3 0.9995004
vt 4 0.9995004
vt 5 0.9995004
vt 6 0.9995004
vt 7 0.9995004
vt 8 0.9995004

usemtl sn11_56_sngsc59.jpg
usemap sn11_56_sngsc59.jpg
f 3/3/3 1/1/1 2/2/2
f 2/2/2 1/1/1 4/4/4
f 2/2/2 4/4/4 5/5/5
f 5/5/5 4/4/4 6/6/6
f 5/5/5 6/6/6 7/7/7
f 7/7/7 6/6/6 8/8/8
f 11/11/11 9/9/9 10/10/10
f 10/10/10 9/9/9 12/12/12
f 10/10/10 12/12/12 13/13/13
f 13/13/13 12/12/12 14/14/14
f 13/13/13 14/14/14 15/15/15
f 15/15/15 14/14/14 16/16/16
f 15/15/15 16/16/16 17/17/17
f 17/17/17 16/16/16 18/18/18
f 17/17/17 18/18/18 19/19/19
f 19/19/19 18/18/18 20/20/20
f 19/19/19 20/20/20 21/21/21
f 21/21/21 20/20/20 22/22/22
f 21/21/21 22/22/22 23/23/23
f 23/23/23 22/22/22 24/24/24
f 23/23/23 24/24/24 25/25/25
f 25/25/25 24/24/24 26/26/26
f 25/25/25 26/26/26 3/3/3
f 3/3/3 26/26/26 1/1/1
f 28/28/28 3/3/3 27/27/27
f 27/27/27 3/3/3 2/2/2
f 27/27/27 2/2/2 29/29/29
f 29/29/29 2/2/2 5/5/5
f 29/29/29 5/5/5 30/30/30
f 30/30/30 5/5/5 7/7/7
f 32/32/32 11/11/11 31/31/31
f 31/31/31 11/11/11 10/10/10
f 31/31/31 10/10/10 33/33/33
f 33/33/33 10/10/10 13/13/13
f 33/33/33 13/13/13 34/34/34
f 34/34/34 13/13/13 15/15/15
f 34/34/34 15/15/15 35/35/35
f 35/35/35 15/15/15 17/17/17
f 35/35/35 17/17/17 36/36/36
f 36/36/36 17/17/17 19/19/19
f 36/36/36 19/19/19 37/37/37
f 37/37/37 19/19/19 21/21/21
f 37/37/37 21/21/21 38/38/38
f 38/38/38 21/21/21 23/23/23
f 38/38/38 23/23/23 39/39/39
f 39/39/39 23/23/23 25/25/25
f 39/39/39 25/25/25 28/28/28
f 28/28/28 25/25/25 3/3/3
f 41/41/41 28/28/28 40/40/40
f 40/40/40 28/28/28 27/27/27
f 40/40/40 27/27/27 42/42/42
f 42/42/42 27/27/27 29/29/29
f 42/42/42 29/29/29 43/43/43
f 43/43/43 29/29/29 30/30/30
f 45/45/45 32/32/32 44/44/44
f 44/44/44 32/32/32 31/31/31
f 44/44/44 31/31/31 46/46/46
f 46/46/46 31/31/31 33/33/33
f 46/46/46 33/33/33 47/47/47
f 47/47/47 33/33/33 34/34/34
f 47/47/47 34/34/34 48/48/48
f 48/48/48 34/34/34 35/35/35
f 48/48/48 35/35/35 49/49/49
f 49/49/49 35/35/35 36/36/36
f 49/49/49 36/36/36 50/50/50
f 50/50/50 36/36/36 37/37/37
f 50/50/50 37/37/37 51/51/51
f 51/51/51 37/37/37 38/38/38
f 51/51/51 38/38/38 52/52/52
f 52/52/52 38/38/38 39/39/39
f 52/52/52 39/39/39 41/41/41
f 41/41/41 39/39/39 28/28/28
