mtllib ./nder106.mtl
g nder106
v -1266.984 23.98065 74.90332
v -1109.89 129.5187 698.2996
v -1193.223 129.5187 66.58057
v -1183.335 23.98065 747.8906
v -698.7767 129.5187 1132.363
v -748.4276 23.98065 1208.616
v -70.04053 129.5187 1234.564
v -78.79562 23.98065 1313.492
v -78.79562 23.98065 1313.492
v 546.3486 129.5187 1016.444
v -70.04053 129.5187 1234.564
v 576.9459 23.98065 1078.208
v 897.2352 129.5187 611.4924
v 962.5025 23.98065 615.1416
v 768.8044 129.5187 37.3606
v 826.4647 23.98065 7.344727
v -1046.149 23.98065 -577.0051
v -987.9474 129.5187 -546.4011
v -889.5571 259.0378 549.5261
v -971.9421 259.0378 41.61304
v -549.8243 259.0378 903.6028
v -43.77524 259.0377 997.7805
v 454.5569 259.0377 831.1536
v -43.77524 259.0377 997.7805
v 701.4331 259.0378 600.5442
v 595.8234 259.0377 127.4089
v -813.343 259.0378 -454.5896
v -522.3354 388.5567 301.5706
v -603.1409 388.5567 0.0002441406
v -301.5703 388.5567 522.3357
v 0.0001678467 388.5567 603.1411
v 301.5707 388.5567 522.3354
v 0.0001678467 388.5567 603.1411
v 375.0964 388.5567 582.2974
v 307.522 388.5567 277.489
v -522.3354 388.5567 -301.5701

vn -0.8142489 0.5800831 -0.02241084
vn -0.512463 0.8257003 0.2357983
vn -0.6249127 0.7783533 -0.0604189
vn -0.6581174 0.643881 0.3902546
vn -0.2583512 0.831391 0.4919792
vn -0.2765635 0.6389446 0.7178179
vn -0.1031658 0.7595171 0.6422544
vn -0.1236843 0.6008639 0.7897245
vn 0.2798658 0.5523498 0.7852291
vn 0.3562711 0.7310777 0.5818902
vn 0.1975811 0.7989651 0.5679933
vn 0.5314519 0.5175411 0.6706042
vn 0.6515462 0.7432584 0.1518376
vn 0.847973 0.5263513 0.06241928
vn 0.7193844 0.6757075 -0.1609522
vn 0.8385326 0.5115064 -0.1876814
vn -0.8032007 0.5307125 -0.2705786
vn -0.5939834 0.7802059 -0.1961187
vn -0.326425 0.9339592 0.1454881
vn -0.4089017 0.9117559 -0.03873855
vn -0.1760795 0.9375647 0.2999473
vn -0.0708687 0.9136789 0.4002106
vn 0.185995 0.8855444 0.4256959
vn 0.1205197 0.917979 0.3778751
vn 0.4295751 0.8957035 0.114806
vn 0.482644 0.8691545 -0.1078202
vn -0.4024467 0.9070357 -0.1237854
vn -0.2785773 0.9547858 0.1038209
vn -0.3416778 0.9385235 -0.04929291
vn -0.1671532 0.9611228 0.219779
vn -0.06377485 0.9535682 0.2943476
vn 0.07371669 0.9362745 0.3434471
vn 0.08554056 0.9438049 0.3192413
vn 0.3021104 0.9396388 0.1606497
vn 0.3719013 0.9245728 -0.08279192
vn -0.3617207 0.9272347 -0.09692264

vt 8.999999 0.0004995465
vt 9.999999 0.3334998
vt 8.999999 0.3334998
vt 9.999999 0.0004995465
vt 11 0.3334998
vt 11 0.0004995465
vt 12 0.3334998
vt 12 0.0004995465
vt -7.152557E-07 0.00782196
vt 0.9999999 0.3334998
vt -7.152557E-07 0.3334998
vt 0.9999999 0.00782196
vt 2 0.3334998
vt 2 0.00782196
vt 3 0.3334998
vt 3 0.00782196
vt 8 0.0004995465
vt 8 0.3334998
vt 9.999999 0.6665002
vt 8.999999 0.6665002
vt 11 0.6665002
vt 12 0.6665002
vt 0.9999999 0.6665002
vt -7.152557E-07 0.6665002
vt 2 0.6665002
vt 3 0.6665002
vt 8 0.6665002
vt 9.999999 0.9995004
vt 8.999999 0.9995004
vt 11 0.9995004
vt 12 0.9995004
vt 0.9999999 0.9995004
vt -7.152557E-07 0.9995004
vt 2 0.9995004
vt 3 0.9995004
vt 8 0.9995004

usemtl sn11_56_sngsc59.jpg
usemap sn11_56_sngsc59.jpg
f 3/3/3 1/1/1 2/2/2
f 2/2/2 1/1/1 4/4/4
f 2/2/2 4/4/4 5/5/5
f 5/5/5 4/4/4 6/6/6
f 5/5/5 6/6/6 7/7/7
f 7/7/7 6/6/6 8/8/8
f 11/11/11 9/9/9 10/10/10
f 10/10/10 9/9/9 12/12/12
f 10/10/10 12/12/12 13/13/13
f 13/13/13 12/12/12 14/14/14
f 13/13/13 14/14/14 15/15/15
f 15/15/15 14/14/14 16/16/16
f 18/18/18 17/17/17 3/3/3
f 3/3/3 17/17/17 1/1/1
f 20/20/20 3/3/3 19/19/19
f 19/19/19 3/3/3 2/2/2
f 19/19/19 2/2/2 21/21/21
f 21/21/21 2/2/2 5/5/5
f 21/21/21 5/5/5 22/22/22
f 22/22/22 5/5/5 7/7/7
f 24/24/24 11/11/11 23/23/23
f 23/23/23 11/11/11 10/10/10
f 23/23/23 10/10/10 25/25/25
f 25/25/25 10/10/10 13/13/13
f 25/25/25 13/13/13 26/26/26
f 26/26/26 13/13/13 15/15/15
f 27/27/27 18/18/18 20/20/20
f 20/20/20 18/18/18 3/3/3
f 29/29/29 20/20/20 28/28/28
f 28/28/28 20/20/20 19/19/19
f 28/28/28 19/19/19 30/30/30
f 30/30/30 19/19/19 21/21/21
f 30/30/30 21/21/21 31/31/31
f 31/31/31 21/21/21 22/22/22
f 33/33/33 24/24/24 32/32/32
f 32/32/32 24/24/24 23/23/23
f 32/32/32 23/23/23 34/34/34
f 34/34/34 23/23/23 25/25/25
f 34/34/34 25/25/25 35/35/35
f 35/35/35 25/25/25 26/26/26
f 36/36/36 27/27/27 29/29/29
f 29/29/29 27/27/27 20/20/20
