mtllib ./Object35.mtl
g Object35
v 7.440704 2.746674 3.000671
v -3.749786 2.746674 -9.872498
v -3.749786 15.29585 -9.872498
v 7.440704 15.29585 3.000671
v -3.636597 -1.368759 3.09729
v 7.327545 -1.368759 -9.969238
v 7.327545 11.18042 -9.969238
v -3.636597 11.18042 3.09729
v 3.750488 0.6066742 9.872192
v -7.440002 0.6066742 -3.001038
v -7.440002 14.95654 -3.001038
v 3.750488 14.95654 9.872192
v -7.326843 0.6066742 9.968872
v 3.637329 0.6066742 -3.097717
v 3.637329 14.95654 -3.097717
v -7.326843 14.95654 9.968872

vn 0.7547091 0 -0.6560596
vn 0.7547091 0 -0.6560596
vn 0.7547091 0 -0.6560596
vn 0.7547091 0 -0.6560596
vn 0.7660438 0 0.6427884
vn 0.7660438 0 0.6427884
vn 0.7660438 0 0.6427884
vn 0.7660438 0 0.6427884
vn 0.7547107 0 -0.6560578
vn 0.7547107 0 -0.6560578
vn 0.7547107 0 -0.6560578
vn 0.7547107 0 -0.6560578
vn 0.7660444 0 0.6427877
vn 0.7660444 0 0.6427877
vn 0.7660444 0 0.6427877
vn 0.7660444 0 0.6427877

vt 0 0
vt 1 0
vt 1 1
vt 0 1
vt 0 0
vt 1 0
vt 1 1
vt 0 1
vt 0.0004995167 0.0004995167
vt 0.9995005 0.0004995167
vt 0.9995005 0.9995005
vt 0.0004995167 0.9995005
vt 0.0004995167 0.0004995167
vt 0.9995005 0.0004995167
vt 0.9995005 0.9995005
vt 0.0004995167 0.9995005

usemtl sn11_45_Asc06.bmp
usemap sn11_45_Asc06.bmp
f 3/3/3 1/1/1 2/2/2
f 1/1/1 3/3/3 4/4/4
f 7/7/7 5/5/5 6/6/6
f 5/5/5 7/7/7 8/8/8
f 11/11/11 9/9/9 10/10/10
f 9/9/9 11/11/11 12/12/12
f 15/15/15 13/13/13 14/14/14
f 13/13/13 15/15/15 16/16/16
