mtllib ./Object37.mtl
g Object37
v 3.094299 1.770905 -11.59167
v -8.096222 1.770905 -24.4649
v -8.096222 14.32008 -24.4649
v 3.094299 14.32008 -11.59167
v -7.983063 -2.344543 -11.49515
v 2.98114 -2.344543 -24.56165
v 2.98114 10.20464 -24.56165
v -7.983063 10.20464 -11.49515
v -0.5959167 -0.3691101 -4.720123
v -11.78647 -0.3691101 -17.59335
v -11.78647 13.98076 -17.59335
v -0.5959167 13.98076 -4.720123
v -11.67331 -0.3691101 -4.623566
v -0.7090759 -0.3691101 -17.69016
v -0.7090759 13.98076 -17.69016
v -11.67331 13.98076 -4.623566
v 9.673035 3.723846 7.111572
v -1.517456 3.723846 -5.761627
v -1.517456 16.27303 -5.761627
v 9.673035 16.27303 7.111572
v -1.404297 -0.3915863 7.208191
v 9.559875 -0.3915863 -5.858337
v 9.559875 12.15759 -5.858337
v -1.404297 12.15759 7.208191
v 5.982819 1.583847 13.98309
v -5.207672 1.583847 1.109863
v -5.207672 15.93372 1.109863
v 5.982819 15.93372 13.98309
v -5.094513 1.583847 14.07974
v 5.869659 1.583847 1.013184
v 5.869659 15.93372 1.013184
v -5.094513 15.93372 14.07974
v 11.78592 3.723846 17.59442
v 0.595459 3.723846 4.721222
v 0.595459 16.27303 4.721222
v 11.78592 16.27303 17.59442
v 0.7086487 -0.3915863 17.69107
v 11.67276 -0.3915863 4.624542
v 11.67276 12.15759 4.624542
v 0.7086487 12.15759 17.69107
v 8.095703 1.583847 24.46597
v -3.094757 1.583847 11.59277
v -3.094757 15.93372 11.59277
v 8.095703 15.93372 24.46597
v -2.981598 1.583847 24.56262
v 7.982513 1.583847 11.49606
v 7.982513 15.93372 11.49606
v -2.981598 15.93372 24.56262
v 4.929871 3.723846 -0.9528503
v -6.26059 3.723846 -13.82608
v -6.26059 16.27303 -13.82608
v 4.929871 16.27303 -0.9528503
v -6.1474 -0.3915863 -0.8562012
v 4.816711 -0.3915863 -13.92273
v 4.816711 12.15759 -13.92273
v -6.1474 12.15759 -0.8562012
v 1.239655 1.583847 5.918701
v -9.950806 1.583847 -6.954529
v -9.950806 15.93372 -6.954529
v 1.239655 15.93372 5.918701
v -9.837646 1.583847 6.01535
v 1.126465 1.583847 -7.051208
v 1.126465 15.93372 -7.051208
v -9.837646 15.93372 6.01535

vn 0.7547098 0 -0.6560588
vn 0.7547098 0 -0.6560588
vn 0.7547098 0 -0.6560588
vn 0.7547098 0 -0.6560588
vn 0.7660413 0 0.6427914
vn 0.7660413 0 0.6427914
vn 0.7660413 0 0.6427914
vn 0.7660413 0 0.6427914
vn 0.7547089 0 -0.6560598
vn 0.7547089 0 -0.6560598
vn 0.7547089 0 -0.6560598
vn 0.7547089 0 -0.6560598
vn 0.7660426 0 0.6427898
vn 0.7660426 0 0.6427898
vn 0.7660426 0 0.6427898
vn 0.7660426 0 0.6427898
vn 0.7547098 0 -0.6560587
vn 0.7547098 0 -0.6560587
vn 0.7547098 0 -0.6560587
vn 0.7547098 0 -0.6560587
vn 0.7660429 0 0.6427895
vn 0.7660429 0 0.6427895
vn 0.7660429 0 0.6427895
vn 0.7660429 0 0.6427895
vn 0.7547107 0 -0.6560578
vn 0.7547107 0 -0.6560578
vn 0.7547107 0 -0.6560578
vn 0.7547107 0 -0.6560578
vn 0.7660436 0 0.6427886
vn 0.7660436 0 0.6427886
vn 0.7660436 0 0.6427886
vn 0.7660436 0 0.6427886
vn 0.7547107 0 -0.6560577
vn 0.7547107 0 -0.6560577
vn 0.7547107 0 -0.6560577
vn 0.7547107 0 -0.6560577
vn 0.7660446 0 0.6427873
vn 0.7660446 0 0.6427873
vn 0.7660446 0 0.6427873
vn 0.7660446 0 0.6427873
vn 0.7547108 0 -0.6560577
vn 0.7547108 0 -0.6560577
vn 0.7547108 0 -0.6560577
vn 0.7547108 0 -0.6560577
vn 0.7660454 0 0.6427864
vn 0.7660454 0 0.6427864
vn 0.7660454 0 0.6427864
vn 0.7660454 0 0.6427864
vn 0.7547116 0 -0.6560568
vn 0.7547116 0 -0.6560568
vn 0.7547116 0 -0.6560568
vn 0.7547116 0 -0.6560568
vn 0.7660446 0 0.6427873
vn 0.7660446 0 0.6427873
vn 0.7660446 0 0.6427873
vn 0.7660446 0 0.6427873
vn 0.7547116 0 -0.6560568
vn 0.7547116 0 -0.6560568
vn 0.7547116 0 -0.6560568
vn 0.7547116 0 -0.6560568
vn 0.7660454 0 0.6427864
vn 0.7660454 0 0.6427864
vn 0.7660454 0 0.6427864
vn 0.7660454 0 0.6427864

vt 0 0
vt 1 0
vt 1 1
vt 0 1
vt 0 0
vt 1 0
vt 1 1
vt 0 1
vt 0.0004995167 0.0004995167
vt 0.9995005 0.0004995167
vt 0.9995005 0.9995005
vt 0.0004995167 0.9995005
vt 0.0004995167 0.0004995167
vt 0.9995005 0.0004995167
vt 0.9995005 0.9995005
vt 0.0004995167 0.9995005
vt 0 0
vt 1 0
vt 1 1
vt 0 1
vt 0 0
vt 1 0
vt 1 1
vt 0 1
vt 0.0004995167 0.0004995167
vt 0.9995005 0.0004995167
vt 0.9995005 0.9995005
vt 0.0004995167 0.9995005
vt 0.0004995167 0.0004995167
vt 0.9995005 0.0004995167
vt 0.9995005 0.9995005
vt 0.0004995167 0.9995005
vt 0 0
vt 1 0
vt 1 1
vt 0 1
vt 0 0
vt 1 0
vt 1 1
vt 0 1
vt 0.0004995167 0.0004995167
vt 0.9995005 0.0004995167
vt 0.9995005 0.9995005
vt 0.0004995167 0.9995005
vt 0.0004995167 0.0004995167
vt 0.9995005 0.0004995167
vt 0.9995005 0.9995005
vt 0.0004995167 0.9995005
vt 0 0
vt 1 0
vt 1 1
vt 0 1
vt 0 0
vt 1 0
vt 1 1
vt 0 1
vt 0.0004995167 0.0004995167
vt 0.9995005 0.0004995167
vt 0.9995005 0.9995005
vt 0.0004995167 0.9995005
vt 0.0004995167 0.0004995167
vt 0.9995005 0.0004995167
vt 0.9995005 0.9995005
vt 0.0004995167 0.9995005

usemtl sn11_43_Asc02.JPG
usemap sn11_43_Asc02.JPG
f 3/3/3 1/1/1 2/2/2
f 1/1/1 3/3/3 4/4/4
f 7/7/7 5/5/5 6/6/6
f 5/5/5 7/7/7 8/8/8
f 11/11/11 9/9/9 10/10/10
f 9/9/9 11/11/11 12/12/12
f 15/15/15 13/13/13 14/14/14
f 13/13/13 15/15/15 16/16/16
f 19/19/19 17/17/17 18/18/18
f 17/17/17 19/19/19 20/20/20
f 23/23/23 21/21/21 22/22/22
f 21/21/21 23/23/23 24/24/24
f 27/27/27 25/25/25 26/26/26
f 25/25/25 27/27/27 28/28/28
f 31/31/31 29/29/29 30/30/30
f 29/29/29 31/31/31 32/32/32
f 35/35/35 33/33/33 34/34/34
f 33/33/33 35/35/35 36/36/36
f 39/39/39 37/37/37 38/38/38
f 37/37/37 39/39/39 40/40/40
f 43/43/43 41/41/41 42/42/42
f 41/41/41 43/43/43 44/44/44
f 47/47/47 45/45/45 46/46/46
f 45/45/45 47/47/47 48/48/48
f 51/51/51 49/49/49 50/50/50
f 49/49/49 51/51/51 52/52/52
f 55/55/55 53/53/53 54/54/54
f 53/53/53 55/55/55 56/56/56
f 59/59/59 57/57/57 58/58/58
f 57/57/57 59/59/59 60/60/60
f 63/63/63 61/61/61 62/62/62
f 61/61/61 63/63/63 64/64/64
