mtllib ./Object87.mtl
g Object87
v 4.150543 1.769981 -2.914551
v -7.040009 1.769981 -15.78778
v -7.040009 14.31916 -15.78778
v 4.150543 14.31916 -2.914551
v -6.926819 -2.34549 -2.817993
v 4.037384 -2.34549 -15.88452
v 4.037384 10.20369 -15.88452
v -6.926819 10.20369 -2.817993
v 0.4603271 -0.3700256 3.95697
v -10.73022 -0.3700256 -8.916199
v -10.73022 13.97984 -8.916199
v 0.4603271 13.97984 3.95697
v -10.61707 -0.3700256 4.053528
v 0.347168 -0.3700256 -9.013
v 0.347168 13.97984 -9.013
v -10.61707 13.97984 4.053528
v 10.72925 3.722908 15.7887
v -0.4612427 3.722908 2.915466
v -0.4612427 16.27209 2.915466
v 10.72925 16.27209 15.7887
v -0.348053 -0.3925133 15.88538
v 10.61612 -0.3925133 2.818848
v 10.61612 12.15667 2.818848
v -0.348053 12.15667 15.88538
v 5.986053 3.722908 7.724243
v -5.204376 3.722908 -5.148926
v -5.204376 16.27209 -5.148926
v 5.986053 16.27209 7.724243
v -5.091217 -0.3925133 7.820923
v 5.872894 -0.3925133 -5.245605
v 5.872894 12.15667 -5.245605
v -5.091217 12.15667 7.820923
v 2.295837 1.582901 14.59583
v -8.894623 1.582901 1.722595
v -8.894623 15.93277 1.722595
v 2.295837 15.93277 14.59583
v -8.781433 1.582901 14.6925
v 2.182678 1.582901 1.625916
v 2.182678 15.93277 1.625916
v -8.781433 15.93277 14.6925

vn 0.7547089 0 -0.6560599
vn 0.7547089 0 -0.6560599
vn 0.7547089 0 -0.6560599
vn 0.7547089 0 -0.6560599
vn 0.766042 0 0.6427905
vn 0.766042 0 0.6427905
vn 0.766042 0 0.6427905
vn 0.766042 0 0.6427905
vn 0.7547073 0 -0.6560615
vn 0.7547073 0 -0.6560615
vn 0.7547073 0 -0.6560615
vn 0.7547073 0 -0.6560615
vn 0.7660411 0 0.6427915
vn 0.7660411 0 0.6427915
vn 0.7660411 0 0.6427915
vn 0.7660411 0 0.6427915
vn 0.7547107 0 -0.6560578
vn 0.7547107 0 -0.6560578
vn 0.7547107 0 -0.6560578
vn 0.7547107 0 -0.6560578
vn 0.7660429 0 0.6427895
vn 0.7660429 0 0.6427895
vn 0.7660429 0 0.6427895
vn 0.7660429 0 0.6427895
vn 0.7547109 0 -0.6560575
vn 0.7547109 0 -0.6560575
vn 0.7547109 0 -0.6560575
vn 0.7547109 0 -0.6560575
vn 0.7660446 0 0.6427873
vn 0.7660446 0 0.6427873
vn 0.7660446 0 0.6427873
vn 0.7660446 0 0.6427873
vn 0.7547116 0 -0.6560568
vn 0.7547116 0 -0.6560568
vn 0.7547116 0 -0.6560568
vn 0.7547116 0 -0.6560568
vn 0.7660461 0 0.6427855
vn 0.7660461 0 0.6427855
vn 0.7660461 0 0.6427855
vn 0.7660461 0 0.6427855

vt 0 0
vt 1 0
vt 1 1
vt 0 1
vt 0 0
vt 1 0
vt 1 1
vt 0 1
vt 0.0004995167 0.0004995167
vt 0.9995005 0.0004995167
vt 0.9995005 0.9995005
vt 0.0004995167 0.9995005
vt 0.0004995167 0.0004995167
vt 0.9995005 0.0004995167
vt 0.9995005 0.9995005
vt 0.0004995167 0.9995005
vt 0 0
vt 1 0
vt 1 1
vt 0 1
vt 0 0
vt 1 0
vt 1 1
vt 0 1
vt 0 0
vt 1 0
vt 1 1
vt 0 1
vt 0 0
vt 1 0
vt 1 1
vt 0 1
vt 0.0004995167 0.0004995167
vt 0.9995005 0.0004995167
vt 0.9995005 0.9995005
vt 0.0004995167 0.9995005
vt 0.0004995167 0.0004995167
vt 0.9995005 0.0004995167
vt 0.9995005 0.9995005
vt 0.0004995167 0.9995005

usemtl sn11_44_Asc05.bmp
usemap sn11_44_Asc05.bmp
f 3/3/3 1/1/1 2/2/2
f 1/1/1 3/3/3 4/4/4
f 7/7/7 5/5/5 6/6/6
f 5/5/5 7/7/7 8/8/8
f 11/11/11 9/9/9 10/10/10
f 9/9/9 11/11/11 12/12/12
f 15/15/15 13/13/13 14/14/14
f 13/13/13 15/15/15 16/16/16

usemtl sn11_43_Asc02.JPG
usemap sn11_43_Asc02.JPG
f 19/19/19 17/17/17 18/18/18
f 17/17/17 19/19/19 20/20/20
f 23/23/23 21/21/21 22/22/22
f 21/21/21 23/23/23 24/24/24

usemtl sn11_45_Asc06.bmp
usemap sn11_45_Asc06.bmp
f 27/27/27 25/25/25 26/26/26
f 25/25/25 27/27/27 28/28/28
f 31/31/31 29/29/29 30/30/30
f 29/29/29 31/31/31 32/32/32
f 35/35/35 33/33/33 34/34/34
f 33/33/33 35/35/35 36/36/36
f 39/39/39 37/37/37 38/38/38
f 37/37/37 39/39/39 40/40/40
