mtllib ./Object82.mtl
g Object82
v 6.522263 1.77034 -2.318787
v -4.668282 1.77034 -15.19202
v -4.668282 14.31952 -15.19202
v 6.522263 14.31952 -2.318787
v -4.555117 -2.345093 -2.222229
v 6.4091 -2.345093 -15.28876
v 6.4091 10.20409 -15.28876
v -4.555117 10.20409 -2.222229
v 2.832039 -0.3696594 4.552795
v -8.358507 -0.3696594 -8.320435
v -8.358507 13.98021 -8.320435
v 2.832039 13.98021 4.552795
v -8.245342 -0.3696594 4.649353
v 2.718872 -0.3696594 -8.417175
v 2.718872 13.98021 -8.417175
v -8.245342 13.98021 4.649353
v 8.357834 3.723297 8.320068
v -2.832611 3.723297 -4.553162
v -2.832611 16.27248 -4.553162
v 8.357834 16.27248 8.320068
v -2.719471 -0.3921509 8.416687
v 8.244644 -0.3921509 -4.649841
v 8.244644 12.15703 -4.649841
v -2.719471 12.15703 8.416687
v 4.667583 1.583282 15.19159
v -6.522863 1.583282 2.318359
v -6.522863 15.93315 2.318359
v 4.667583 15.93315 15.19159
v -6.409674 1.583282 15.28827
v 4.554443 1.583282 2.221741
v 4.554443 15.93315 2.221741
v -6.409674 15.93315 15.28827

vn 0.7547091 0 -0.6560596
vn 0.7547091 0 -0.6560596
vn 0.7547091 0 -0.6560596
vn 0.7547091 0 -0.6560596
vn 0.7660416 0 0.642791
vn 0.7660416 0 0.642791
vn 0.7660416 0 0.642791
vn 0.7660416 0 0.642791
vn 0.7547091 0 -0.6560596
vn 0.7547091 0 -0.6560596
vn 0.7547091 0 -0.6560596
vn 0.7547091 0 -0.6560596
vn 0.7660416 0 0.6427909
vn 0.7660416 0 0.6427909
vn 0.7660416 0 0.6427909
vn 0.7660416 0 0.6427909
vn 0.7547119 0 -0.6560562
vn 0.7547119 0 -0.6560562
vn 0.7547119 0 -0.6560562
vn 0.7547119 0 -0.6560562
vn 0.7660446 0 0.6427875
vn 0.7660446 0 0.6427875
vn 0.7660446 0 0.6427875
vn 0.7660446 0 0.6427875
vn 0.7547119 0 -0.6560563
vn 0.7547119 0 -0.6560563
vn 0.7547119 0 -0.6560563
vn 0.7547119 0 -0.6560563
vn 0.7660446 0 0.6427876
vn 0.7660446 0 0.6427876
vn 0.7660446 0 0.6427876
vn 0.7660446 0 0.6427876

vt 0 0
vt 1 0
vt 1 1
vt 0 1
vt 0 0
vt 1 0
vt 1 1
vt 0 1
vt 0.0004995167 0.0004995167
vt 0.9995005 0.0004995167
vt 0.9995005 0.9995005
vt 0.0004995167 0.9995005
vt 0.0004995167 0.0004995167
vt 0.9995005 0.0004995167
vt 0.9995005 0.9995005
vt 0.0004995167 0.9995005
vt 0 0
vt 1 0
vt 1 1
vt 0 1
vt 0 0
vt 1 0
vt 1 1
vt 0 1
vt 0.0004995167 0.0004995167
vt 0.9995005 0.0004995167
vt 0.9995005 0.9995005
vt 0.0004995167 0.9995005
vt 0.0004995167 0.0004995167
vt 0.9995005 0.0004995167
vt 0.9995005 0.9995005
vt 0.0004995167 0.9995005

usemtl sn11_44_Asc05.bmp
usemap sn11_44_Asc05.bmp
f 3/3/3 1/1/1 2/2/2
f 1/1/1 3/3/3 4/4/4
f 7/7/7 5/5/5 6/6/6
f 5/5/5 7/7/7 8/8/8
f 11/11/11 9/9/9 10/10/10
f 9/9/9 11/11/11 12/12/12
f 15/15/15 13/13/13 14/14/14
f 13/13/13 15/15/15 16/16/16

usemtl sn11_45_Asc06.bmp
usemap sn11_45_Asc06.bmp
f 19/19/19 17/17/17 18/18/18
f 17/17/17 19/19/19 20/20/20
f 23/23/23 21/21/21 22/22/22
f 21/21/21 23/23/23 24/24/24
f 27/27/27 25/25/25 26/26/26
f 25/25/25 27/27/27 28/28/28
f 31/31/31 29/29/29 30/30/30
f 29/29/29 31/31/31 32/32/32
