mtllib ./Object83.mtl
g Object83
v 6.522858 1.770462 -2.318787
v -4.667694 1.770462 -15.19202
v -4.667694 14.31964 -15.19202
v 6.522858 14.31964 -2.318787
v -4.554535 -2.344986 -2.222229
v 6.409683 -2.344986 -15.28876
v 6.409683 10.20419 -15.28876
v -4.554535 10.20419 -2.222229
v 2.832626 -0.3695526 4.552734
v -8.357925 -0.3695526 -8.320435
v -8.357925 13.98032 -8.320435
v 2.832626 13.98032 4.552734
v -8.244751 -0.3695526 4.649292
v 2.719467 -0.3695526 -8.417297
v 2.719467 13.98032 -8.417297
v -8.244751 13.98032 4.649292
v 8.358414 3.723404 8.320007
v -2.832031 3.723404 -4.553223
v -2.832031 16.27258 -4.553223
v 8.358414 16.27258 8.320007
v -2.718872 -0.3920441 8.416626
v 8.245239 -0.3920441 -4.649841
v 8.245239 12.15714 -4.649841
v -2.718872 12.15714 8.416626
v 4.668182 1.583405 15.19153
v -6.522263 1.583405 2.318359
v -6.522263 15.93326 2.318359
v 4.668182 15.93326 15.19153
v -6.409103 1.583405 15.28821
v 4.555023 1.583405 2.22168
v 4.555023 15.93326 2.22168
v -6.409103 15.93326 15.28821

vn 0.7547089 0 -0.6560599
vn 0.7547089 0 -0.6560599
vn 0.7547089 0 -0.6560599
vn 0.7547089 0 -0.6560599
vn 0.7660416 0 0.642791
vn 0.7660416 0 0.642791
vn 0.7660416 0 0.642791
vn 0.7660416 0 0.642791
vn 0.7547074 0 -0.6560616
vn 0.7547074 0 -0.6560616
vn 0.7547074 0 -0.6560616
vn 0.7547074 0 -0.6560616
vn 0.7660431 0 0.6427893
vn 0.7660431 0 0.6427893
vn 0.7660431 0 0.6427893
vn 0.7660431 0 0.6427893
vn 0.7547119 0 -0.6560562
vn 0.7547119 0 -0.6560562
vn 0.7547119 0 -0.6560562
vn 0.7547119 0 -0.6560562
vn 0.7660432 0 0.6427891
vn 0.7660432 0 0.6427891
vn 0.7660432 0 0.6427891
vn 0.7660432 0 0.6427891
vn 0.7547104 0 -0.656058
vn 0.7547104 0 -0.656058
vn 0.7547104 0 -0.656058
vn 0.7547104 0 -0.656058
vn 0.7660443 0 0.6427879
vn 0.7660443 0 0.6427879
vn 0.7660443 0 0.6427879
vn 0.7660443 0 0.6427879

vt 0 0
vt 1 0
vt 1 1
vt 0 1
vt 0 0
vt 1 0
vt 1 1
vt 0 1
vt 0.0004995167 0.0004995167
vt 0.9995005 0.0004995167
vt 0.9995005 0.9995005
vt 0.0004995167 0.9995005
vt 0.0004995167 0.0004995167
vt 0.9995005 0.0004995167
vt 0.9995005 0.9995005
vt 0.0004995167 0.9995005
vt 0 0
vt 1 0
vt 1 1
vt 0 1
vt 0 0
vt 1 0
vt 1 1
vt 0 1
vt 0.0004995167 0.0004995167
vt 0.9995005 0.0004995167
vt 0.9995005 0.9995005
vt 0.0004995167 0.9995005
vt 0.0004995167 0.0004995167
vt 0.9995005 0.0004995167
vt 0.9995005 0.9995005
vt 0.0004995167 0.9995005

usemtl sn11_44_Asc05.bmp
usemap sn11_44_Asc05.bmp
f 3/3/3 1/1/1 2/2/2
f 1/1/1 3/3/3 4/4/4
f 7/7/7 5/5/5 6/6/6
f 5/5/5 7/7/7 8/8/8
f 11/11/11 9/9/9 10/10/10
f 9/9/9 11/11/11 12/12/12
f 15/15/15 13/13/13 14/14/14
f 13/13/13 15/15/15 16/16/16

usemtl sn11_45_Asc06.bmp
usemap sn11_45_Asc06.bmp
f 19/19/19 17/17/17 18/18/18
f 17/17/17 19/19/19 20/20/20
f 23/23/23 21/21/21 22/22/22
f 21/21/21 23/23/23 24/24/24
f 27/27/27 25/25/25 26/26/26
f 25/25/25 27/27/27 28/28/28
f 31/31/31 29/29/29 30/30/30
f 29/29/29 31/31/31 32/32/32
