mtllib ./Object39.mtl
g Object39
v 7.440369 2.746674 3.001312
v -3.750183 2.746674 -9.871902
v -3.750183 15.29585 -9.871902
v 7.440369 15.29585 3.001312
v -3.637024 -1.368759 3.097931
v 7.327209 -1.368759 -9.968582
v 7.327209 11.18042 -9.968582
v -3.637024 11.18042 3.097931
v 3.750122 0.6066742 9.872833
v -7.440369 0.6066742 -3.000366
v -7.440369 14.95654 -3.000366
v 3.750122 14.95654 9.872833
v -7.327209 0.6066742 9.969482
v 3.636963 0.6066742 -3.097107
v 3.636963 14.95654 -3.097107
v -7.327209 14.95654 9.969482

vn 0.7547085 0 -0.6560603
vn 0.7547085 0 -0.6560603
vn 0.7547085 0 -0.6560603
vn 0.7547085 0 -0.6560603
vn 0.7660408 0 0.642792
vn 0.7660408 0 0.642792
vn 0.7660408 0 0.642792
vn 0.7660408 0 0.642792
vn 0.75471 0 -0.6560587
vn 0.75471 0 -0.6560587
vn 0.75471 0 -0.6560587
vn 0.75471 0 -0.6560587
vn 0.7660444 0 0.6427877
vn 0.7660444 0 0.6427877
vn 0.7660444 0 0.6427877
vn 0.7660444 0 0.6427877

vt 0 0
vt 1 0
vt 1 1
vt 0 1
vt 0 0
vt 1 0
vt 1 1
vt 0 1
vt 0.0004995167 0.0004995167
vt 0.9995005 0.0004995167
vt 0.9995005 0.9995005
vt 0.0004995167 0.9995005
vt 0.0004995167 0.0004995167
vt 0.9995005 0.0004995167
vt 0.9995005 0.9995005
vt 0.0004995167 0.9995005

usemtl sn11_45_Asc06.bmp
usemap sn11_45_Asc06.bmp
f 3/3/3 1/1/1 2/2/2
f 1/1/1 3/3/3 4/4/4
f 7/7/7 5/5/5 6/6/6
f 5/5/5 7/7/7 8/8/8
f 11/11/11 9/9/9 10/10/10
f 9/9/9 11/11/11 12/12/12
f 15/15/15 13/13/13 14/14/14
f 13/13/13 15/15/15 16/16/16
