mtllib ./Object67.mtl
g Object67
v 24.94589 93.55304 -195.6741
v 88.64531 93.55304 -220.9895
v 58.17218 -146.4888 -399.9346
v -11.8875 -146.4888 -393.7667
v 137.5327 93.55292 -191.2017
v 119.334 -146.4888 -368.7361
v 58.17218 -146.4888 -399.9346
v 137.5327 93.55292 -191.2017
v 217.5582 93.55304 -88.48833
v 182.7467 -146.4888 -255.3923
v 207.2049 -146.4888 -360.8403
v 194.828 93.55292 -146.5359
v 194.828 93.55292 -146.5359
v 207.2049 -146.4888 -360.8403
v 119.334 -146.4888 -368.7361
v -185.7782 93.55292 -2.621946
v -209.8899 -146.4888 -138.4164
v -175.0273 -146.4888 -76.04635
v -154.3612 93.55292 62.82466
v -108.6103 93.55292 115.1479
v -130.5507 -146.4888 -25.92904
v 21.7055 93.55304 149.0898
v -47.12504 93.55292 148.0415
v -72.91606 -146.4888 7.145478
v -8.216403 -146.4888 9.851217
v -108.6103 93.55292 115.1479
v -130.5507 -146.4888 -25.92904
v 199.501 93.55304 -23.39294
v 164.8944 -146.4888 -178.5253
v 136.2673 93.55292 22.5497
v 87.17597 -146.4888 -133.5151
v 164.8944 -146.4888 -178.5253
v 199.501 93.55304 -23.39294
v 58.5054 -146.4888 -29.87165
v 91.90528 93.55292 109.5609
v 136.2673 93.55292 22.5497
v 91.90528 93.55292 109.5609
v 58.5054 -146.4888 -29.87165
v 87.17597 -146.4888 -133.5151
v 220.6072 275.1336 -87.10525
v 199.5358 274.1868 -132.1804
v 159.1428 276.1048 -78.05907
v 203.174 275.3238 -36.592
v 151.6796 277.9479 -185.5773
v 102.1623 278.9479 -130.9868
v 33.81563 280.5563 -54.34914
v 101.2322 278.9479 -4.441385
v 155.0254 271.8356 32.09537
v 5.960258 280.3298 -314.367
v -52.12976 279.8642 -250.3147
v 38.46003 280.412 -173.8425
v 103.0697 278.3598 -241.7792
v -102.5307 280.0185 -147.8564
v -30.04454 280.1302 -105.5731
v -165.4328 276.4637 -20.95295
v -136.4427 276.3852 29.36953
v -91.17918 279.1487 -29.28771
v -141.9964 278.2064 -75.65803
v -90.47606 278.5407 83.53502
v -36.55746 280.1302 24.38493
v 67.03172 272.8958 166.1009
v 103.7772 273.4406 109.5929
v 31.25435 280.412 65.0754
v -24.8613 274.3045 117.4065
v 5.960258 280.3298 -314.367
v 34.01037 234.9146 -285.9969
v -27.92814 236.8317 -247.8088
v -52.12976 279.8642 -250.3147
v 39.6331 203.2282 -267.2194
v -21.25902 203.7048 -224.2763
v -117.5517 204.1812 -170.878
v -110.619 238.7496 -167.4677
v -102.5307 280.0185 -147.8564
v -52.12976 279.8642 -250.3147
v -27.92814 236.8317 -247.8088
v -110.619 238.7496 -167.4677
v 24.94589 93.55304 -195.6741
v -42.56284 93.55304 -200.9402
v -30.98639 156.02 -217.2074
v 33.17739 156.02 -244.8411
v -118.1017 93.55304 -148.9645
v -117.9682 156.02 -162.9037
v 217.5582 93.55304 -88.48833
v 194.828 93.55292 -146.5359
v 208.7043 156.02 -147.5991
v 211.1643 156.02 -104.7216
v 137.5327 93.55292 -191.2017
v 126.1373 156.02 -183.1263
v 138.2968 204.1812 -179.645
v 209.6834 203.7048 -132.5606
v 225.0258 203.2281 -105.705
v 93.66744 156.02 -243.6614
v 88.64531 93.55304 -220.9895
v 106.2092 203.7048 -255.6462
v 103.0697 278.3598 -241.7792
v 108.8211 236.8318 -248.9935
v 151.6796 277.9479 -185.5773
v 146.3563 238.7496 -191.0993
v 220.6072 275.1336 -87.10525
v 212.7599 234.9146 -98.52663
v 198.4001 236.8317 -135.9192
v 199.5358 274.1868 -132.1804
v -185.7782 93.55292 -2.621946
v -154.3612 93.55292 62.82466
v -164.4801 156.02 59.81459
v -195.7286 156.02 -9.699739
v -108.6103 93.55292 115.1479
v -115.3481 156.02 116.5748
v -120.2003 204.1812 117.9221
v -171.0102 203.7048 58.27221
v -201.5791 203.2282 -13.83649
v 21.7055 93.55304 149.0898
v 26.73669 156.02 155.2917
v -48.39185 156.02 153.0188
v -47.12504 93.55292 148.0415
v 29.82653 203.2282 159.3532
v -49.5915 203.7048 156.3706
v 67.03172 272.8958 166.1009
v -24.8613 274.3045 117.4065
v -46.46347 236.8317 146.0613
v 30.89425 234.9146 148.1837
v -90.47606 278.5407 83.53502
v -115.0033 238.7496 110.395
v -165.4328 276.4637 -20.95295
v -190.5359 234.9146 -17.17881
v -162.4344 236.8317 52.82945
v -136.4427 276.3852 29.36953
v -162.4344 236.8317 52.82945
v -190.5359 234.9146 -17.17881
v -90.47606 278.5407 83.53502
v -136.4427 276.3852 29.36953
v -162.4344 236.8317 52.82945
v -115.0033 238.7496 110.395
v 21.7055 93.55304 149.0898
v 91.90528 93.55292 109.5609
v 103.3306 156.02 114.2262
v 26.73669 156.02 155.2917
v 136.2673 93.55292 22.5497
v 48.02643 156.02 20.70001
v 123.923 204.1811 29.04778
v 101.143 203.7048 99.20762
v 29.82653 203.2282 159.3532
v 191.1709 156.02 -44.148
v 199.501 93.55304 -23.39294
v 211.2477 203.7048 -47.63275
v 203.174 275.3238 -36.592
v 199.684 236.8317 -66.5001
v 155.0254 271.8356 32.09537
v 149.0773 238.7496 20.12241
v 67.03172 272.8958 166.1009
v 30.89425 234.9146 148.1837
v 109.5598 236.8317 110.4382
v 103.7772 273.4406 109.5929
v -81.93183 -146.4888 -351.7016
v -42.56284 93.55304 -200.9402
v -118.1017 93.55304 -148.9645
v -81.93183 -146.4888 -351.7016
v -155.9264 -146.4887 -288.3072
v -118.1017 93.55304 -148.9645

vn -0.4557857 0.6097948 -0.6483901
vn -0.2577929 0.5947641 -0.7614451
vn -0.2893877 0.6141047 -0.7342548
vn -0.4943025 0.6387812 -0.589596
vn 0.08936092 0.529623 -0.8435129
vn 0.08936092 0.529623 -0.8435129
vn 0.08936092 0.529623 -0.8435129
vn 0.02862829 0.5810702 -0.8133498
vn 0.9560823 -0.1716597 -0.2375699
vn 0.9491084 -0.2859889 -0.1319231
vn 0.9360238 -0.05503645 -0.3476066
vn 0.6921763 0.3499225 -0.6312259
vn 0.2349563 0.5926582 -0.7704231
vn -0.014907 0.6067466 -0.7947556
vn -0.2205326 0.5895298 -0.7770585
vn -0.6535162 -0.1776958 0.7357587
vn -0.6292824 -0.1850847 0.7548161
vn -0.5539489 -0.2422663 0.7965221
vn -0.5679631 -0.2380182 0.7878866
vn -0.442116 -0.303757 0.843958
vn -0.4385807 -0.3062796 0.8448904
vn 0.511824 -0.5121025 0.6897733
vn 0.09773828 -0.4757842 0.8741146
vn 0.08520594 -0.473471 0.8766786
vn 0.5143515 -0.5095076 0.6898149
vn -0.1261461 -0.4221248 0.8977182
vn -0.1398759 -0.4210866 0.8961702
vn 0.950349 -0.2975559 -0.09108925
vn 0.9498895 -0.29145 -0.1129904
vn 0.6800332 -0.5385699 0.4974911
vn 0.6476 -0.5538018 0.5233716
vn 0.6800332 -0.5385699 0.4974911
vn 0.7165763 -0.5192534 0.4657193
vn 0.676012 -0.4941871 0.546614
vn 0.667767 -0.4980886 0.5531679
vn 0.9345862 -0.3557367 -0.0003070198
vn 0.927179 -0.3615639 0.09803388
vn 0.9345862 -0.3557367 -0.0003070198
vn 0.9333823 -0.3473802 -0.09013585
vn 0.008595522 0.9998252 -0.01660184
vn 0.04042904 0.999019 -0.01807304
vn 0.04086694 0.9991609 -0.002706808
vn 0.00370874 0.9996812 0.02497237
vn 0.0328768 0.9994197 -0.00890428
vn 0.03058665 0.9995236 -0.004116498
vn 0.009704323 0.9999462 -0.003649083
vn 0.06063642 0.9981595 -0.0009250925
vn 0.07806806 0.9968045 0.01691073
vn 0.008172107 0.9999474 -0.006200377
vn -0.005071915 0.9999869 0.0005138702
vn 0.00643387 0.9999667 -0.005017108
vn 0.01897831 0.9996949 -0.01580688
vn -0.006242617 0.999967 0.00519214
vn -0.004592379 0.9999759 0.005210204
vn -0.02488688 0.9992393 0.03002414
vn -0.03752874 0.9989129 0.0276521
vn -0.01811526 0.9997374 0.01404323
vn -0.02370378 0.9994554 0.02296015
vn -0.00741915 0.9991677 0.04011009
vn -0.01076794 0.9999139 0.007488698
vn 0.03542121 0.9974638 0.06173641
vn 0.08101818 0.9966527 0.01093612
vn 0.03847612 0.9987902 0.03062167
vn 0.02030753 0.9949749 0.0980439
vn -0.3224456 -0.3323147 -0.8863384
vn -0.3118065 -0.52402 -0.7925779
vn -0.7670726 -0.4380036 -0.4687777
vn -0.8476821 -0.4140661 -0.3316388
vn -0.492937 -0.336447 -0.8023818
vn -0.760069 -0.2897353 -0.5816773
vn -0.8022376 -0.1458459 -0.578916
vn -0.8865758 0.2057461 -0.4143091
vn -0.9650564 -0.03515853 -0.259673
vn -0.8797934 -0.4686345 -0.07965679
vn -0.9650564 -0.03515853 -0.259673
vn -0.8153754 0.4319306 -0.3854853
vn -0.4613559 -0.4587676 -0.7593964
vn -0.6190866 -0.1866854 -0.7628108
vn -0.7211611 -0.2118119 -0.6595924
vn -0.4643966 -0.5209621 -0.7161943
vn -0.8015744 -0.1493597 -0.5789388
vn -0.787473 -0.1631756 -0.5943567
vn 0.9499792 0.07270191 -0.303733
vn 0.5078301 -0.1825709 -0.8418885
vn 0.408272 0.01089449 -0.9127952
vn 0.979592 -0.04086484 -0.1967985
vn 0.286458 0.004869705 -0.9580804
vn 0.3227448 0.07554039 -0.9434667
vn 0.4428132 -0.1072617 -0.890175
vn 0.3287852 0.1892345 -0.9252516
vn 0.9495912 -0.02049262 -0.3128204
vn 0.1023592 -0.3382052 -0.9354891
vn -0.3011574 -0.3435756 -0.8895281
vn 0.3480149 -0.1713733 -0.9216924
vn 0.3442522 0.2165859 -0.913554
vn 0.3403296 -0.04472522 -0.9392418
vn 0.4869525 0.05981898 -0.8713776
vn 0.5004054 -0.1886912 -0.8449793
vn 0.9083633 -0.1839547 -0.3755485
vn 0.9249071 0.06607704 -0.3744071
vn 0.5056818 0.004471726 -0.8627085
vn 0.559966 0.03239333 -0.8278821
vn -0.6917951 -0.1110036 0.7135108
vn -0.5813207 -0.108439 0.8064165
vn -0.5917659 -0.09857798 0.8000598
vn -0.7020284 -0.08912345 0.7065501
vn -0.3019857 -0.08554294 0.9494667
vn -0.3042832 -0.08483651 0.9487965
vn -0.3062009 0.07166784 0.9492655
vn -0.605243 0.06678528 0.7932343
vn -0.7173823 0.07695598 0.6924163
vn 0.3350744 -0.08841427 0.9380342
vn 0.3282578 -0.09092028 0.9402023
vn 0.1011388 -0.08099742 0.9915696
vn 0.1107474 -0.08194054 0.9904649
vn 0.3271311 0.09029426 0.9406552
vn 0.09671471 0.08898624 0.9913262
vn 0.07640822 0.331829 0.94024
vn -0.06319551 0.6848542 0.7259346
vn 0.04606926 0.4339226 0.8997715
vn 0.3293023 -0.08082892 0.9407586
vn -0.05572036 0.6708841 0.739466
vn -0.2030846 0.4452826 0.8720552
vn -0.5677415 0.5804184 0.583767
vn -0.6383903 0.5123457 0.5744211
vn -0.5677415 0.5804184 0.583767
vn -0.4758869 0.654509 0.5874944
vn -0.5873433 0.2946254 0.7538062
vn -0.695011 0.3412165 0.6328753
vn -0.3792325 0.6660818 0.6422755
vn -0.3773582 0.6622143 0.6473584
vn -0.3792325 0.6660818 0.6422755
vn -0.3809716 0.6696753 0.6374916
vn 0.755864 -0.1382987 0.6399556
vn 0.9167929 -0.1825905 0.355178
vn 0.9966174 0.0034954 0.08210747
vn 0.7515608 -0.1166605 0.6492664
vn 0.8107456 0.5552846 0.1853389
vn 0.9878264 0.06892583 0.1394567
vn 0.8734918 -0.4538662 0.1761177
vn 0.9660367 -0.03504679 0.2560175
vn 0.8176888 0.02069129 0.5752885
vn 0.9076649 0.0005460804 0.4196954
vn 0.9232019 0.2907417 0.2513316
vn 0.958674 0.08133119 0.2726343
vn 0.9056896 -0.4081243 0.1147209
vn 0.9814448 -0.09218955 0.1681284
vn 0.9571775 -0.2429819 0.1573872
vn 0.9135843 -0.3950976 0.09623774
vn 0.7988656 -0.399589 0.4496025
vn 0.6964496 -0.3060242 0.6490816
vn 0.9207365 -0.2589214 0.2918975
vn 0.9671227 0.1432806 0.2101058
vn -0.5647157 0.5738691 -0.5931023
vn -0.528853 0.5437776 -0.6516291
vn -0.7035187 0.5209963 -0.4833469
vn -0.7726798 0.4774277 -0.4183643
vn -0.7726798 0.4774277 -0.4183643
vn -0.7726798 0.4774277 -0.4183643

vt 0.4135425 0.8341845
vt 0.1586763 0.8341845
vt 0.1136099 0.1663427
vt 0.4790069 0.1663427
vt 1.115537 0.8341841
vt 1.187473 0.1663424
vt 1.501901 0.1663427
vt -0.03681135 0.8341841
vt 0.7044818 0.8341845
vt 0.7339327 0.1663427
vt 1.155684 0.1663427
vt 0.936734 0.8341841
vt -0.2658981 0.8341841
vt -0.3973203 0.1663427
vt -0.04584116 0.1663424
vt 0.6472764 0.8341841
vt 0.7422935 0.1663427
vt 0.9826478 0.1663427
vt 0.8999295 0.8341841
vt 1.109337 0.8341841
vt 1.183228 0.1663427
vt 0.5726944 0.8341845
vt 0.2973639 0.8341841
vt 0.275938 0.1663427
vt 0.5347403 0.1663427
vt 0.05148974 0.8341841
vt 0.04546744 0.1663427
vt 0.4441322 0.8341845
vt 0.4264945 0.1663427
vt 1.031254 0.8341841
vt 0.9166578 0.1663427
vt 1.227648 0.1663427
vt 1.284305 0.8341845
vt 0.8017301 0.1663427
vt 0.8535961 0.8341841
vt 0.2605014 0.8341841
vt -0.0874542 0.8341841
vt -0.1678963 0.1663427
vt 0.2466269 0.1663427
vt 0.0009989738 0.9465041
vt 0.1099107 0.7590241
vt 0.3191121 0.9839711
vt 0.09136993 1.156503
vt 0.3574115 0.5368768
vt 0.6138337 0.7637525
vt 0.9677662 1.082258
vt 0.6190277 1.289944
vt 0.3407512 1.441999
vt 1.11114 0.0009988546
vt 1.411955 0.267197
vt 0.9433717 0.5853982
vt 0.6088047 0.3030638
vt 1.673093 0.6931118
vt 1.298096 0.8691069
vt 1.999001 1.220643
vt 1.849124 1.429961
vt 1.614704 1.186165
vt 1.87755 0.9932278
vt 1.611405 1.6553
vt 1.332192 1.409475
vt 0.7965314 1.999001
vt 0.6061995 1.764122
vt 0.98138 1.578836
vt 1.271942 1.796301
vt 2.731497 0.9995005
vt 2.663555 0.7565914
vt 2.959511 0.7668454
vt 3.031435 0.9970104
vt 2.658506 0.5871125
vt 3.002307 0.5896615
vt 3.461783 0.5922098
vt 3.466328 0.7771033
vt 0.06650937 1.580046
vt -0.3524391 1.579429
vt -0.342359 1.407299
vt -0.01195794 1.414971
vt 2.873867 0.000500232
vt 3.165952 0.000500232
vt 3.062806 0.3346129
vt 2.714009 0.3346129
vt 3.554353 0.000500232
vt 3.495002 0.3346129
vt 1.140628 0.000500232
vt 1.544116 0.0004995763
vt 1.521982 0.3346129
vt 1.242732 0.3346129
vt 2.049519 0.0004995763
vt 2.087194 0.3346129
vt 1.990988 0.5922098
vt 1.426913 0.5896615
vt 1.249293 0.5871118
vt 2.411705 0.3346129
vt 2.424996 0.000500232
vt 2.36071 0.5896615
vt 2.362656 0.9889638
vt 2.341977 0.7668461
vt 1.945096 0.986761
vt 1.999192 0.7771033
vt 1.134471 0.9717081
vt 1.202139 0.7565914
vt 1.465798 0.7668454
vt 1.43839 0.9666442
vt 4.081256 0.0004995763
vt 4.297258 0.0004995763
vt 4.273622 0.3346129
vt 4.050495 0.3346129
vt 4.490582 0.0004995763
vt 4.479361 0.3346129
vt 4.472065 0.5922098
vt 4.259779 0.5896615
vt 4.033083 0.5871125
vt 4.849607 0.000500232
vt 4.866293 0.3346129
vt 4.677497 0.3346129
vt 4.674832 0.0004995763
vt 4.876326 0.5871125
vt 4.678449 0.5896615
vt 4.975134 0.959739
vt 4.694643 0.9672736
vt 4.674117 0.7668454
vt 4.873891 0.7565914
vt 4.470885 0.9899315
vt 4.469187 0.7771033
vt 0.5739967 1.565827
vt 0.5890355 1.399631
vt 0.8599283 1.407299
vt 0.7661456 1.565513
vt 4.26036 0.7668454
vt 4.03399 0.7565914
vt 0.3850042 0.791594
vt 0.2358075 0.9807111
vt 0.01688926 0.5569074
vt 0.2369914 0.4535749
vt -0.1503927 0.000500232
vt 0.05026802 0.0004995763
vt 0.08562499 0.3346129
vt -0.1337069 0.3346129
vt 0.3119832 0.0004995763
vt -0.1571634 0.3346129
vt 0.1736918 0.5922091
vt 0.08442631 0.5896615
vt -0.1236743 0.5871125
vt 0.8090405 0.3346129
vt 0.7356144 0.000500232
vt 0.8898821 0.5896615
vt 0.8110559 0.9727254
vt 0.975533 0.7668454
vt 0.3724928 0.9540685
vt 0.3764068 0.7771033
vt -0.02486557 0.959739
vt -0.1261085 0.7565914
vt 0.1071756 0.7668454
vt 0.08890883 0.9626529
vt 0.7592928 0.1663427
vt 0.6835759 0.8341845
vt 0.9345912 0.8341845
vt -0.1197994 0.1663427
vt 0.1428323 0.1663429
vt 0.06204036 0.8341845

usemtl sn11_12_sngsc09.jpg
usemap sn11_12_sngsc09.jpg
f 3/3/3 1/1/1 2/2/2
f 1/1/1 3/3/3 4/4/4
f 7/7/7 5/5/5 6/6/6
f 8/8/8 3/3/3 2/2/2
f 11/11/11 9/9/9 10/10/10
f 9/9/9 11/11/11 12/12/12
f 14/14/14 8/8/8 13/13/13
f 8/8/8 14/14/14 15/15/15
f 18/18/18 16/16/16 17/17/17
f 16/16/16 18/18/18 19/19/19
f 18/18/18 20/20/20 19/19/19
f 20/20/20 18/18/18 21/21/21
f 24/24/24 22/22/22 23/23/23
f 22/22/22 24/24/24 25/25/25
f 24/24/24 26/26/26 27/27/27
f 26/26/26 24/24/24 23/23/23
f 29/29/29 9/9/9 28/28/28
f 9/9/9 29/29/29 10/10/10
f 32/32/32 30/30/30 31/31/31
f 30/30/30 32/32/32 33/33/33
f 34/34/34 22/22/22 25/25/25
f 22/22/22 34/34/34 35/35/35
f 38/38/38 36/36/36 37/37/37
f 36/36/36 38/38/38 39/39/39
f 75/75/75 73/73/73 74/74/74
f 73/73/73 75/75/75 76/76/76
f 126/126/126 124/124/124 125/125/125
f 124/124/124 126/126/126 127/127/127
f 154/154/154 1/1/1 4/4/4
f 1/1/1 154/154/154 155/155/155
f 154/154/154 156/156/156 155/155/155
f 159/159/159 157/157/157 158/158/158

usemtl sn11_13_sngsc08.jpg
usemap sn11_13_sngsc08.jpg
f 42/42/42 40/40/40 41/41/41
f 40/40/40 42/42/42 43/43/43
f 42/42/42 44/44/44 45/45/45
f 44/44/44 42/42/42 41/41/41
f 42/42/42 46/46/46 47/47/47
f 46/46/46 42/42/42 45/45/45
f 42/42/42 48/48/48 43/43/43
f 48/48/48 42/42/42 47/47/47
f 51/51/51 49/49/49 50/50/50
f 49/49/49 51/51/51 52/52/52
f 51/51/51 53/53/53 54/54/54
f 53/53/53 51/51/51 50/50/50
f 51/51/51 46/46/46 45/45/45
f 46/46/46 51/51/51 54/54/54
f 51/51/51 44/44/44 52/52/52
f 44/44/44 51/51/51 45/45/45
f 57/57/57 55/55/55 56/56/56
f 55/55/55 57/57/57 58/58/58
f 57/57/57 59/59/59 60/60/60
f 59/59/59 57/57/57 56/56/56
f 57/57/57 46/46/46 54/54/54
f 46/46/46 57/57/57 60/60/60
f 57/57/57 53/53/53 58/58/58
f 53/53/53 57/57/57 54/54/54
f 63/63/63 61/61/61 62/62/62
f 61/61/61 63/63/63 64/64/64
f 63/63/63 48/48/48 47/47/47
f 48/48/48 63/63/63 62/62/62
f 63/63/63 46/46/46 60/60/60
f 46/46/46 63/63/63 47/47/47
f 63/63/63 59/59/59 64/64/64
f 59/59/59 63/63/63 60/60/60

usemtl sn11_15_sngsc67.jpg
usemap sn11_15_sngsc67.jpg
f 67/67/67 65/65/65 66/66/66
f 65/65/65 67/67/67 68/68/68
f 67/67/67 69/69/69 70/70/70
f 69/69/69 67/67/67 66/66/66
f 67/67/67 71/71/71 72/72/72
f 71/71/71 67/67/67 70/70/70
f 79/79/79 77/77/77 78/78/78
f 77/77/77 79/79/79 80/80/80
f 79/79/79 81/81/81 82/82/82
f 81/81/81 79/79/79 78/78/78
f 79/79/79 71/71/71 70/70/70
f 71/71/71 79/79/79 82/82/82
f 79/79/79 69/69/69 80/80/80
f 69/69/69 79/79/79 70/70/70
f 85/85/85 83/83/83 84/84/84
f 83/83/83 85/85/85 86/86/86
f 85/85/85 87/87/87 88/88/88
f 87/87/87 85/85/85 84/84/84
f 85/85/85 89/89/89 90/90/90
f 89/89/89 85/85/85 88/88/88
f 85/85/85 91/91/91 86/86/86
f 91/91/91 85/85/85 90/90/90
f 92/92/92 77/77/77 80/80/80
f 77/77/77 92/92/92 93/93/93
f 92/92/92 69/69/69 94/94/94
f 69/69/69 92/92/92 80/80/80
f 92/92/92 89/89/89 88/88/88
f 89/89/89 92/92/92 94/94/94
f 92/92/92 87/87/87 93/93/93
f 87/87/87 92/92/92 88/88/88
f 96/96/96 65/65/65 95/95/95
f 65/65/65 96/96/96 66/66/66
f 96/96/96 97/97/97 98/98/98
f 97/97/97 96/96/96 95/95/95
f 96/96/96 89/89/89 94/94/94
f 89/89/89 96/96/96 98/98/98
f 96/96/96 69/69/69 66/66/66
f 69/69/69 96/96/96 94/94/94
f 101/101/101 99/99/99 100/100/100
f 99/99/99 101/101/101 102/102/102
f 101/101/101 91/91/91 90/90/90
f 91/91/91 101/101/101 100/100/100
f 101/101/101 89/89/89 98/98/98
f 89/89/89 101/101/101 90/90/90
f 101/101/101 97/97/97 102/102/102
f 97/97/97 101/101/101 98/98/98
f 105/105/105 103/103/103 104/104/104
f 103/103/103 105/105/105 106/106/106
f 105/105/105 107/107/107 108/108/108
f 107/107/107 105/105/105 104/104/104
f 105/105/105 109/109/109 110/110/110
f 109/109/109 105/105/105 108/108/108
f 105/105/105 111/111/111 106/106/106
f 111/111/111 105/105/105 110/110/110
f 114/114/114 112/112/112 113/113/113
f 112/112/112 114/114/114 115/115/115
f 114/114/114 116/116/116 117/117/117
f 116/116/116 114/114/114 113/113/113
f 114/114/114 109/109/109 108/108/108
f 109/109/109 114/114/114 117/117/117
f 114/114/114 107/107/107 115/115/115
f 107/107/107 114/114/114 108/108/108
f 120/120/120 118/118/118 119/119/119
f 118/118/118 120/120/120 121/121/121
f 120/120/120 122/122/122 123/123/123
f 122/122/122 120/120/120 119/119/119
f 120/120/120 109/109/109 117/117/117
f 109/109/109 120/120/120 123/123/123
f 120/120/120 116/116/116 121/121/121
f 116/116/116 120/120/120 117/117/117
f 128/128/128 111/111/111 110/110/110
f 111/111/111 128/128/128 129/129/129
f 128/128/128 109/109/109 123/123/123
f 109/109/109 128/128/128 110/110/110
f 136/136/136 134/134/134 135/135/135
f 134/134/134 136/136/136 137/137/137
f 136/136/136 138/138/138 139/139/139
f 138/138/138 136/136/136 135/135/135
f 136/136/136 140/140/140 141/141/141
f 140/140/140 136/136/136 139/139/139
f 136/136/136 142/142/142 137/137/137
f 142/142/142 136/136/136 141/141/141
f 143/143/143 83/83/83 86/86/86
f 83/83/83 143/143/143 144/144/144
f 143/143/143 91/91/91 145/145/145
f 91/91/91 143/143/143 86/86/86
f 143/143/143 140/140/140 139/139/139
f 140/140/140 143/143/143 145/145/145
f 143/143/143 138/138/138 144/144/144
f 138/138/138 143/143/143 139/139/139
f 147/147/147 99/99/99 146/146/146
f 99/99/99 147/147/147 100/100/100
f 147/147/147 148/148/148 149/149/149
f 148/148/148 147/147/147 146/146/146
f 147/147/147 140/140/140 145/145/145
f 140/140/140 147/147/147 149/149/149
f 147/147/147 91/91/91 100/100/100
f 91/91/91 147/147/147 145/145/145
f 152/152/152 150/150/150 151/151/151
f 150/150/150 152/152/152 153/153/153
f 152/152/152 142/142/142 141/141/141
f 142/142/142 152/152/152 151/151/151
f 152/152/152 140/140/140 149/149/149
f 140/140/140 152/152/152 141/141/141
f 152/152/152 148/148/148 153/153/153
f 148/148/148 152/152/152 149/149/149

usemtl sn11_14_sngsc16.jpg
usemap sn11_14_sngsc16.jpg
f 132/132/132 130/130/130 131/131/131
f 130/130/130 132/132/132 133/133/133
