mtllib ./Object46.mtl
g Object46
v 175.8074 -260.5423 -124.384
v 168.1442 -260.5423 -136.6649
v 160.5619 -73.40726 -159.7141
v 203.1924 -73.40726 -95.84288
v 112.796 -260.5423 -199.8907
v 139.7797 -73.40732 -209.1867
v 160.5619 -73.40726 -159.7141
v 112.796 -260.5423 -199.8907
v -13.35693 -260.5423 -231.7312
v 8.558168 -73.40726 -234.2173
v 78.61787 -73.40726 -240.3851
v 69.85197 -260.5423 -241.9176
v 69.85197 -260.5423 -241.9176
v 78.61787 -73.40726 -240.3851
v 139.7797 -73.40732 -209.1867
v 24.946 93.55319 -195.6746
v 88.64541 93.55319 -220.99
v 137.5327 93.55307 -191.2022
v 137.5327 93.55307 -191.2022
v 217.5583 93.55319 -88.48877
v 194.8281 93.55307 -146.5364
v 194.8281 93.55307 -146.5364
v -185.7781 93.55307 -2.622367
v -189.4442 -73.40726 21.13311
v -154.5817 -73.40726 83.5031
v -154.3611 93.55307 62.82419
v -108.6102 93.55307 115.1474
v -110.105 -73.40726 133.6204
v -212.2136 -260.5423 13.38913
v -167.8854 -260.5423 77.9514
v -113.5783 -260.5423 140.584
v 29.45802 -260.5423 212.3427
v 12.22924 -73.40726 169.4007
v -52.47035 -73.40726 166.6949
v -46.6097 -260.5423 193.9877
v -113.5783 -260.5423 140.584
v -110.105 -73.40726 133.6204
v 21.70562 93.55319 149.0893
v -47.12493 93.55307 148.0411
v -108.6102 93.55307 115.1474
v 111.1167 -260.5423 169.6958
v 78.95105 -73.40726 129.6778
v 110.9281 -260.5423 63.38651
v 107.6217 -73.40726 26.03437
v 78.95105 -73.40726 129.6778
v 111.1167 -260.5423 169.6958
v 185.3401 -73.40726 -18.97592
v 164.4009 -260.5423 -42.291
v 185.3401 -73.40726 -18.97592
v 107.6217 -73.40726 26.03437
v 110.9281 -260.5423 63.38651
v 199.5011 93.55319 -23.39341
v 136.2674 93.55307 22.54923
v 199.5011 93.55319 -23.39341
v 91.90538 93.55307 109.5605
v 136.2674 93.55307 22.54923
v 91.90538 93.55307 109.5605
v 220.6073 275.1338 -87.10571
v 199.5359 274.187 -132.1809
v 159.1429 276.1049 -78.0595
v 203.1741 275.3239 -36.59249
v 151.6797 277.9481 -185.5778
v 102.1624 278.9481 -130.9872
v 33.81573 280.5565 -54.34959
v 101.2323 278.9481 -4.441817
v 155.0254 271.8358 32.09491
v 5.960354 280.3299 -314.3674
v -52.12964 279.8643 -250.3152
v 38.46014 280.4122 -173.843
v 103.0698 278.36 -241.7796
v -102.5305 280.0186 -147.8568
v -30.04444 280.1303 -105.5735
v -165.4328 276.4638 -20.95343
v -136.4426 276.3853 29.36911
v -91.17908 279.1489 -29.28814
v -141.9963 278.2065 -75.65845
v -90.47594 278.5409 83.53454
v -36.55736 280.1303 24.3845
v 67.03188 272.896 166.1005
v 103.7773 273.4408 109.5925
v 31.25447 280.4122 65.07494
v -24.86119 274.3047 117.4061
v 5.960354 280.3299 -314.3674
v 34.01048 234.9148 -285.9973
v -27.92803 236.8319 -247.8093
v -52.12964 279.8643 -250.3152
v 39.63319 203.2284 -267.2198
v -21.25891 203.7049 -224.2767
v -117.5516 204.1814 -170.8784
v -110.6189 238.7497 -167.4682
v -102.5305 280.0186 -147.8568
v -52.12964 279.8643 -250.3152
v -27.92803 236.8319 -247.8093
v -110.6189 238.7497 -167.4682
v 24.946 93.55319 -195.6746
v -42.56274 93.55319 -200.9406
v -30.98627 156.0201 -217.2079
v 33.17748 156.0201 -244.8415
v -118.1015 93.55319 -148.965
v -117.9681 156.0201 -162.9041
v 217.5583 93.55319 -88.48877
v 194.8281 93.55307 -146.5364
v 208.7045 156.0201 -147.5995
v 211.1644 156.0201 -104.722
v 137.5327 93.55307 -191.2022
v 126.1374 156.0201 -183.1267
v 138.2969 204.1814 -179.6454
v 209.6835 203.7049 -132.5611
v 225.0258 203.2282 -105.7055
v 93.66755 156.0201 -243.6618
v 88.64541 93.55319 -220.99
v 106.2093 203.7049 -255.6466
v 103.0698 278.36 -241.7796
v 108.8212 236.832 -248.9939
v 151.6797 277.9481 -185.5778
v 146.3564 238.7497 -191.0997
v 220.6073 275.1338 -87.10571
v 212.76 234.9148 -98.52709
v 198.4003 236.8319 -135.9196
v 199.5359 274.187 -132.1809
v -185.7781 93.55307 -2.622367
v -154.3611 93.55307 62.82419
v -164.48 156.0201 59.81414
v -195.7285 156.0201 -9.700185
v -108.6102 93.55307 115.1474
v -115.348 156.0201 116.5744
v -120.2002 204.1814 117.9216
v -171.0101 203.7049 58.27178
v -201.5789 203.2284 -13.83694
v 21.70562 93.55319 149.0893
v 26.7368 156.0201 155.2912
v -48.39175 156.0201 153.0183
v -47.12493 93.55307 148.0411
v 29.82664 203.2284 159.3527
v -49.59138 203.7049 156.3702
v 67.03188 272.896 166.1005
v -24.86119 274.3047 117.4061
v -46.46336 236.8319 146.0608
v 30.89435 234.9148 148.1833
v -90.47594 278.5409 83.53454
v -115.0032 238.7497 110.3945
v -165.4328 276.4638 -20.95343
v -190.5358 234.9148 -17.17929
v -162.4343 236.8319 52.82896
v -136.4426 276.3853 29.36911
v -162.4343 236.8319 52.82896
v -190.5358 234.9148 -17.17929
v -90.47594 278.5409 83.53454
v -136.4426 276.3853 29.36911
v -162.4343 236.8319 52.82896
v -115.0032 238.7497 110.3945
v 21.70562 93.55319 149.0893
v 91.90538 93.55307 109.5605
v 103.3307 156.0201 114.2258
v 26.7368 156.0201 155.2912
v 136.2674 93.55307 22.54923
v 48.02655 156.0201 20.69954
v 108.7369 204.1812 23.22798
v 101.1432 203.7049 99.20718
v 29.82664 203.2284 159.3527
v 182.9341 156.0201 -47.30487
v 199.5011 93.55319 -23.39341
v 211.2478 203.7049 -47.63319
v 203.1741 275.3239 -36.59249
v 199.6841 236.8319 -66.50053
v 155.0254 271.8358 32.09491
v 149.0773 238.7497 20.12196
v 67.03188 272.896 166.1005
v 30.89435 234.9148 148.1833
v 109.5599 236.8319 110.4377
v 103.7773 273.4408 109.5925
v -61.48614 -73.40726 -192.1521
v -42.56274 93.55319 -200.9406
v -118.1015 93.55319 -148.965
v -61.48614 -73.40726 -192.1521
v -135.4808 -73.4072 -128.7577
v -118.1015 93.55319 -148.965
v -83.93258 -260.5423 -211.3633
v -162.152 -260.5423 -118.991
v -83.93258 -260.5423 -211.3633

vn 0.8918996 -0.1172504 -0.4367692
vn 0.4869344 -0.0477533 -0.8721324
vn 0.5803871 -0.06643441 -0.8116263
vn 0.853358 -0.09807055 -0.5120177
vn 0.7139647 -0.1504468 -0.6838276
vn 0.7210984 -0.05482122 -0.6906604
vn 0.5710683 -0.0601735 -0.8186941
vn 0.3343772 -0.06376351 -0.9402798
vn -0.5869101 0.04804105 -0.8082255
vn -0.6369784 0.1303707 -0.7597776
vn -0.4086028 0.08602828 -0.9086488
vn -0.4687816 0.01381889 -0.883206
vn 0.3970483 -0.02690095 -0.9174033
vn 0.1995924 -0.0154204 -0.9797578
vn 0.105343 -0.009885135 -0.9943869
vn -0.5687537 0.1479289 -0.8090959
vn -0.3186252 0.1129631 -0.9411256
vn 0.1048036 0.1015421 -0.9892954
vn 0.3959539 0.01211487 -0.9181905
vn 0.8839533 -0.09812717 -0.4571625
vn 0.7293434 -0.1602305 -0.6651197
vn 0.2911122 -0.06380574 -0.9545588
vn -0.6623895 0.07140695 0.7457489
vn -0.6379237 0.08689946 0.7651808
vn -0.5510468 0.06197134 0.83217
vn -0.5833823 0.06882232 0.8092766
vn -0.4625143 0.08108369 0.8828964
vn -0.4599445 0.05807735 0.8860464
vn -0.6014868 0.06284527 0.796407
vn -0.5180839 0.03797198 0.8544865
vn -0.4660594 0.03617833 0.8840135
vn 0.5297165 0.2269471 0.8172486
vn 0.5885211 0.1751298 0.7892861
vn 0.03291509 0.1205124 0.992166
vn -0.09802139 0.115538 0.9884546
vn -0.2376373 0.07137398 0.9687281
vn -0.1538453 0.06912272 0.9856743
vn 0.5931532 0.09572241 0.7993788
vn 0.1103785 0.1154123 0.987166
vn -0.1383586 0.106579 0.9846309
vn 0.7238368 0.2598754 0.6391596
vn 0.7601107 0.170544 0.6270139
vn 0.9934741 0.02237937 -0.1118413
vn 0.9946433 -0.03819442 -0.09605115
vn 0.991977 0.02349983 -0.1242146
vn 0.9196493 0.1690369 -0.354502
vn 0.9880551 -0.1316776 -0.08005205
vn 0.9888921 -0.1449012 -0.03310708
vn 0.7957545 0.03707136 0.6044838
vn 0.7761744 0.06380569 0.6272817
vn 0.765246 0.1786577 0.6184497
vn 0.9926754 -0.07445017 -0.09514515
vn 0.8060917 -0.0495596 0.5897119
vn 0.8381338 -0.02843751 0.5447229
vn 0.7683739 0.06677207 0.6365084
vn 0.9958802 -0.0906779 -0.0003269091
vn 0.9943537 -0.01439328 0.1051363
vn 0.008595513 0.9998253 -0.01660184
vn 0.04042907 0.999019 -0.01807308
vn 0.04086696 0.9991609 -0.002706812
vn 0.003708764 0.9996813 0.02497237
vn 0.03287682 0.9994197 -0.008904289
vn 0.03058665 0.9995237 -0.004116498
vn 0.009704322 0.9999462 -0.003649082
vn 0.06063645 0.9981595 -0.000925081
vn 0.07806811 0.9968046 0.0169107
vn 0.008172105 0.9999474 -0.006200378
vn -0.005071915 0.9999869 0.0005138711
vn 0.006433869 0.9999667 -0.005017108
vn 0.0189783 0.9996949 -0.01580688
vn -0.006242617 0.999967 0.005192138
vn -0.00459238 0.9999759 0.005210203
vn -0.02488688 0.9992393 0.03002415
vn -0.03752873 0.9989129 0.0276521
vn -0.01811526 0.9997373 0.01404323
vn -0.02370377 0.9994554 0.02296015
vn -0.007419148 0.9991677 0.0401101
vn -0.01076794 0.9999139 0.007488699
vn 0.03542118 0.9974638 0.06173639
vn 0.08101813 0.9966526 0.01093604
vn 0.03847611 0.9987903 0.03062165
vn 0.0203075 0.9949748 0.09804384
vn -0.3224454 -0.3323146 -0.8863385
vn -0.3118061 -0.5240199 -0.7925782
vn -0.7670726 -0.4380036 -0.4687778
vn -0.8476821 -0.4140661 -0.3316391
vn -0.4929368 -0.3364472 -0.8023819
vn -0.7600689 -0.2897355 -0.5816775
vn -0.8022376 -0.1458458 -0.5789161
vn -0.8865758 0.2057461 -0.4143091
vn -0.9650564 -0.03515817 -0.2596728
vn -0.8797935 -0.4686346 -0.07965647
vn -0.9650564 -0.03515817 -0.2596728
vn -0.8153751 0.4319313 -0.3854852
vn -0.4613559 -0.4587675 -0.7593966
vn -0.6190866 -0.1866857 -0.7628108
vn -0.721161 -0.211812 -0.6595926
vn -0.4643966 -0.5209619 -0.7161945
vn -0.8015742 -0.14936 -0.578939
vn -0.787473 -0.1631756 -0.594357
vn 0.9558983 0.1231786 -0.2666185
vn 0.5078301 -0.1825713 -0.8418885
vn 0.408272 0.01089413 -0.9127954
vn 0.993077 -0.02686933 -0.114351
vn 0.2864578 0.00486942 -0.9580805
vn 0.3227448 0.0755402 -0.9434667
vn 0.442813 -0.1072616 -0.890175
vn 0.3287853 0.1892341 -0.9252517
vn 0.9569939 -0.0545271 -0.2849379
vn 0.1023592 -0.3382051 -0.9354891
vn -0.3011569 -0.343576 -0.889528
vn 0.3480148 -0.171373 -0.9216925
vn 0.3442522 0.2165851 -0.9135543
vn 0.3403296 -0.04472541 -0.9392418
vn 0.4869525 0.05981871 -0.8713777
vn 0.5004051 -0.1886913 -0.8449795
vn 0.9083636 -0.1839537 -0.3755484
vn 0.9249074 0.06607618 -0.3744064
vn 0.5056817 0.004471992 -0.8627085
vn 0.559966 0.03239506 -0.8278819
vn -0.691795 -0.1110034 0.7135108
vn -0.5813205 -0.1084391 0.8064165
vn -0.5917659 -0.09857804 0.8000597
vn -0.7020284 -0.08912317 0.7065501
vn -0.3019858 -0.08554339 0.9494667
vn -0.3042833 -0.08483651 0.9487963
vn -0.3062008 0.07166824 0.9492655
vn -0.605243 0.0667852 0.7932343
vn -0.7173824 0.07695595 0.6924162
vn 0.3350747 -0.08841465 0.9380341
vn 0.3282582 -0.09092031 0.9402022
vn 0.1011391 -0.0809974 0.9915696
vn 0.1107475 -0.08194105 0.9904649
vn 0.3271313 0.09029434 0.9406551
vn 0.09671479 0.08898661 0.9913262
vn 0.07640815 0.3318287 0.9402401
vn -0.06319568 0.684854 0.7259348
vn 0.04606912 0.4339225 0.8997716
vn 0.3293021 -0.08082964 0.9407586
vn -0.05572067 0.6708841 0.7394659
vn -0.2030847 0.4452829 0.872055
vn -0.5677419 0.5804182 0.583767
vn -0.6383905 0.5123456 0.574421
vn -0.5677419 0.5804182 0.583767
vn -0.4758874 0.6545087 0.5874943
vn -0.5873432 0.2946257 0.7538061
vn -0.6950111 0.3412168 0.632875
vn -0.3792322 0.6660817 0.6422757
vn -0.3773578 0.662214 0.647359
vn -0.3792322 0.6660817 0.6422757
vn -0.3809714 0.6696755 0.6374916
vn 0.7558638 -0.1382985 0.6399558
vn 0.916793 -0.1825902 0.355178
vn 0.9978322 0.03101925 0.05804221
vn 0.7515607 -0.1166604 0.6492664
vn 0.7991745 0.578835 0.162081
vn 0.9724343 0.2153372 0.08945051
vn 0.8625427 -0.4794477 0.1617096
vn 0.9864752 -0.04316084 0.1581261
vn 0.8176886 0.02069127 0.5752887
vn 0.8988341 0.05102571 0.4353086
vn 0.8831357 0.4028242 0.2404243
vn 0.933143 0.005165741 0.3594683
vn 0.90569 -0.4081233 0.1147213
vn 0.9681158 -0.1588675 0.1936827
vn 0.9571776 -0.242982 0.1573869
vn 0.8265253 -0.5561253 0.08706687
vn 0.7988651 -0.3995904 0.4496021
vn 0.6964496 -0.3060253 0.6490812
vn 0.91049 -0.3174678 0.2649948
vn 0.9671231 0.1432787 0.2101052
vn -0.6943067 0.08254201 -0.7149301
vn -0.6300955 -0.0148555 -0.7763755
vn -0.8240384 0.02087713 -0.5661492
vn -0.9053277 0.07265491 -0.4184532
vn -0.8792514 0.01665276 -0.4760667
vn -0.8791163 -0.02418041 -0.4759936
vn -0.5977081 0.130761 -0.7909782
vn -0.9123756 0.1108118 -0.3940704
vn -0.9323756 0.1559474 -0.3261228

vt 0.8481652 -0.5821974
vt 0.8973087 -0.5821974
vt 1.155684 0.1663427
vt 0.7339327 0.1663427
vt 0.06211907 -0.5821974
vt -0.04584116 0.1663424
vt -0.3973203 0.1663427
vt 1.15035 -0.5821974
vt 0.4815436 -0.5821974
vt 0.4790069 0.1663427
vt 0.1136099 0.1663427
vt 0.1486715 -0.5821974
vt 1.508052 -0.5821974
vt 1.501901 0.1663427
vt 1.187473 0.1663424
vt 0.4135425 0.8341845
vt 0.1586763 0.8341845
vt 1.115537 0.8341841
vt -0.03681135 0.8341841
vt 0.7044818 0.8341845
vt 0.936734 0.8341841
vt -0.2658981 0.8341841
vt 0.6472764 0.8341841
vt 0.7422935 0.1663427
vt 0.9826478 0.1663427
vt 0.8999295 0.8341841
vt 1.109337 0.8341841
vt 1.183228 0.1663427
vt 0.8213328 -0.5821974
vt 1.070479 -0.5821974
vt 1.321145 -0.5821974
vt 0.5176692 -0.5821974
vt 0.5347403 0.1663427
vt 0.275938 0.1663427
vt 0.213429 -0.5821974
vt -0.0543316 -0.5821974
vt 0.04546744 0.1663427
vt 0.5726944 0.8341845
vt 0.2973639 0.8341841
vt 0.05148974 0.8341841
vt 0.8444154 -0.5821974
vt 0.8017301 0.1663427
vt 0.09720474 -0.5821974
vt 0.2466269 0.1663427
vt -0.1678963 0.1663427
vt -0.4381183 -0.5821974
vt 0.4264945 0.1663427
vt 0.519807 -0.5821974
vt 1.227648 0.1663427
vt 0.9166578 0.1663427
vt 0.9297973 -0.5821974
vt 0.4441322 0.8341845
vt 1.031254 0.8341841
vt 1.284305 0.8341845
vt 0.8535961 0.8341841
vt 0.2605014 0.8341841
vt -0.0874542 0.8341841
vt 0.0009989738 0.9465041
vt 0.1099107 0.7590241
vt 0.3191121 0.9839711
vt 0.09136993 1.156503
vt 0.3574115 0.5368768
vt 0.6138337 0.7637525
vt 0.9677662 1.082258
vt 0.6190277 1.289944
vt 0.3407512 1.441999
vt 1.11114 0.0009988546
vt 1.411955 0.267197
vt 0.9433717 0.5853982
vt 0.6088047 0.3030638
vt 1.673093 0.6931118
vt 1.298096 0.8691069
vt 1.999001 1.220643
vt 1.849124 1.429961
vt 1.614704 1.186165
vt 1.87755 0.9932278
vt 1.611405 1.6553
vt 1.332192 1.409475
vt 0.7965314 1.999001
vt 0.6061995 1.764122
vt 0.98138 1.578836
vt 1.271942 1.796301
vt 2.731497 0.9995005
vt 2.663555 0.7565914
vt 2.959511 0.7668454
vt 3.031435 0.9970104
vt 2.658506 0.5871125
vt 3.002307 0.5896615
vt 3.461783 0.5922098
vt 3.466328 0.7771033
vt 0.06650937 1.580046
vt -0.3524391 1.579429
vt -0.342359 1.407299
vt -0.01195794 1.414971
vt 2.873867 0.000500232
vt 3.165952 0.000500232
vt 3.062806 0.3346129
vt 2.714009 0.3346129
vt 3.554353 0.000500232
vt 3.495002 0.3346129
vt 1.140628 0.000500232
vt 1.544116 0.0004995763
vt 1.521982 0.3346129
vt 1.242732 0.3346129
vt 2.049519 0.0004995763
vt 2.087194 0.3346129
vt 1.990988 0.5922098
vt 1.426913 0.5896615
vt 1.249293 0.5871118
vt 2.411705 0.3346129
vt 2.424996 0.000500232
vt 2.36071 0.5896615
vt 2.362656 0.9889638
vt 2.341977 0.7668461
vt 1.945096 0.986761
vt 1.999192 0.7771033
vt 1.134471 0.9717081
vt 1.202139 0.7565914
vt 1.465798 0.7668454
vt 1.43839 0.9666442
vt 4.081256 0.0004995763
vt 4.297258 0.0004995763
vt 4.273622 0.3346129
vt 4.050495 0.3346129
vt 4.490582 0.0004995763
vt 4.479361 0.3346129
vt 4.472065 0.5922098
vt 4.259779 0.5896615
vt 4.033083 0.5871125
vt 4.849607 0.000500232
vt 4.866293 0.3346129
vt 4.677497 0.3346129
vt 4.674832 0.0004995763
vt 4.876326 0.5871125
vt 4.678449 0.5896615
vt 4.975134 0.959739
vt 4.694643 0.9672736
vt 4.674117 0.7668454
vt 4.873891 0.7565914
vt 4.470885 0.9899315
vt 4.469187 0.7771033
vt 0.5739967 1.565827
vt 0.5890355 1.399631
vt 0.8599283 1.407299
vt 0.7661456 1.565513
vt 4.26036 0.7668454
vt 4.03399 0.7565914
vt 0.3850042 0.791594
vt 0.2358075 0.9807111
vt 0.01688926 0.5569074
vt 0.2369914 0.4535749
vt -0.1503927 0.000500232
vt 0.05026802 0.0004995763
vt 0.08562499 0.3346129
vt -0.1337069 0.3346129
vt 0.3119832 0.0004995763
vt -0.1571634 0.3346129
vt 0.1736918 0.5922091
vt 0.08442631 0.5896615
vt -0.1236743 0.5871125
vt 0.8090405 0.3346129
vt 0.7356144 0.000500232
vt 0.8898821 0.5896615
vt 0.8110559 0.9727254
vt 0.975533 0.7668454
vt 0.3724928 0.9540685
vt 0.3764068 0.7771033
vt -0.02486557 0.959739
vt -0.1261085 0.7565914
vt 0.1071756 0.7668454
vt 0.08890883 0.9626529
vt 0.7592928 0.1663427
vt 0.6835759 0.8341845
vt 0.9345912 0.8341845
vt -0.1197994 0.1663427
vt 0.1428323 0.1663429
vt 0.06204036 0.8341845
vt 0.8490374 -0.5821974
vt 0.1726224 -0.5821974
vt -0.1966994 -0.5821974

usemtl sn11_15_sngsc67.jpg
usemap sn11_15_sngsc67.jpg
f 3/3/3 1/1/1 2/2/2
f 1/1/1 3/3/3 4/4/4
f 7/7/7 5/5/5 6/6/6
f 8/8/8 3/3/3 2/2/2
f 11/11/11 9/9/9 10/10/10
f 9/9/9 11/11/11 12/12/12
f 14/14/14 8/8/8 13/13/13
f 8/8/8 14/14/14 15/15/15
f 11/11/11 16/16/16 17/17/17
f 16/16/16 11/11/11 10/10/10
f 14/14/14 18/18/18 15/15/15
f 19/19/19 11/11/11 17/17/17
f 3/3/3 20/20/20 4/4/4
f 20/20/20 3/3/3 21/21/21
f 7/7/7 19/19/19 22/22/22
f 19/19/19 7/7/7 6/6/6
f 25/25/25 23/23/23 24/24/24
f 23/23/23 25/25/25 26/26/26
f 25/25/25 27/27/27 26/26/26
f 27/27/27 25/25/25 28/28/28
f 25/25/25 29/29/29 30/30/30
f 29/29/29 25/25/25 24/24/24
f 25/25/25 31/31/31 28/28/28
f 31/31/31 25/25/25 30/30/30
f 34/34/34 32/32/32 33/33/33
f 32/32/32 34/34/34 35/35/35
f 34/34/34 36/36/36 35/35/35
f 36/36/36 34/34/34 37/37/37
f 34/34/34 38/38/38 39/39/39
f 38/38/38 34/34/34 33/33/33
f 34/34/34 40/40/40 37/37/37
f 40/40/40 34/34/34 39/39/39
f 42/42/42 32/32/32 41/41/41
f 32/32/32 42/42/42 33/33/33
f 45/45/45 43/43/43 44/44/44
f 43/43/43 45/45/45 46/46/46
f 47/47/47 1/1/1 4/4/4
f 1/1/1 47/47/47 48/48/48
f 47/47/47 43/43/43 48/48/48
f 51/51/51 49/49/49 50/50/50
f 47/47/47 20/20/20 52/52/52
f 20/20/20 47/47/47 4/4/4
f 49/49/49 53/53/53 50/50/50
f 53/53/53 49/49/49 54/54/54
f 42/42/42 38/38/38 33/33/33
f 38/38/38 42/42/42 55/55/55
f 45/45/45 56/56/56 57/57/57
f 56/56/56 45/45/45 44/44/44
f 85/85/85 83/83/83 84/84/84
f 83/83/83 85/85/85 86/86/86
f 85/85/85 87/87/87 88/88/88
f 87/87/87 85/85/85 84/84/84
f 85/85/85 89/89/89 90/90/90
f 89/89/89 85/85/85 88/88/88
f 93/93/93 91/91/91 92/92/92
f 91/91/91 93/93/93 94/94/94
f 97/97/97 95/95/95 96/96/96
f 95/95/95 97/97/97 98/98/98
f 97/97/97 99/99/99 100/100/100
f 99/99/99 97/97/97 96/96/96
f 97/97/97 89/89/89 88/88/88
f 89/89/89 97/97/97 100/100/100
f 97/97/97 87/87/87 98/98/98
f 87/87/87 97/97/97 88/88/88
f 103/103/103 101/101/101 102/102/102
f 101/101/101 103/103/103 104/104/104
f 103/103/103 105/105/105 106/106/106
f 105/105/105 103/103/103 102/102/102
f 103/103/103 107/107/107 108/108/108
f 107/107/107 103/103/103 106/106/106
f 103/103/103 109/109/109 104/104/104
f 109/109/109 103/103/103 108/108/108
f 110/110/110 95/95/95 98/98/98
f 95/95/95 110/110/110 111/111/111
f 110/110/110 87/87/87 112/112/112
f 87/87/87 110/110/110 98/98/98
f 110/110/110 107/107/107 106/106/106
f 107/107/107 110/110/110 112/112/112
f 110/110/110 105/105/105 111/111/111
f 105/105/105 110/110/110 106/106/106
f 114/114/114 83/83/83 113/113/113
f 83/83/83 114/114/114 84/84/84
f 114/114/114 115/115/115 116/116/116
f 115/115/115 114/114/114 113/113/113
f 114/114/114 107/107/107 112/112/112
f 107/107/107 114/114/114 116/116/116
f 114/114/114 87/87/87 84/84/84
f 87/87/87 114/114/114 112/112/112
f 119/119/119 117/117/117 118/118/118
f 117/117/117 119/119/119 120/120/120
f 119/119/119 109/109/109 108/108/108
f 109/109/109 119/119/119 118/118/118
f 119/119/119 107/107/107 116/116/116
f 107/107/107 119/119/119 108/108/108
f 119/119/119 115/115/115 120/120/120
f 115/115/115 119/119/119 116/116/116
f 123/123/123 121/121/121 122/122/122
f 121/121/121 123/123/123 124/124/124
f 123/123/123 125/125/125 126/126/126
f 125/125/125 123/123/123 122/122/122
f 123/123/123 127/127/127 128/128/128
f 127/127/127 123/123/123 126/126/126
f 123/123/123 129/129/129 124/124/124
f 129/129/129 123/123/123 128/128/128
f 132/132/132 130/130/130 131/131/131
f 130/130/130 132/132/132 133/133/133
f 132/132/132 134/134/134 135/135/135
f 134/134/134 132/132/132 131/131/131
f 132/132/132 127/127/127 126/126/126
f 127/127/127 132/132/132 135/135/135
f 132/132/132 125/125/125 133/133/133
f 125/125/125 132/132/132 126/126/126
f 138/138/138 136/136/136 137/137/137
f 136/136/136 138/138/138 139/139/139
f 138/138/138 140/140/140 141/141/141
f 140/140/140 138/138/138 137/137/137
f 138/138/138 127/127/127 135/135/135
f 127/127/127 138/138/138 141/141/141
f 138/138/138 134/134/134 139/139/139
f 134/134/134 138/138/138 135/135/135
f 144/144/144 142/142/142 143/143/143
f 142/142/142 144/144/144 145/145/145
f 146/146/146 129/129/129 128/128/128
f 129/129/129 146/146/146 147/147/147
f 146/146/146 127/127/127 141/141/141
f 127/127/127 146/146/146 128/128/128
f 150/150/150 148/148/148 149/149/149
f 148/148/148 150/150/150 151/151/151
f 154/154/154 152/152/152 153/153/153
f 152/152/152 154/154/154 155/155/155
f 154/154/154 156/156/156 157/157/157
f 156/156/156 154/154/154 153/153/153
f 154/154/154 158/158/158 159/159/159
f 158/158/158 154/154/154 157/157/157
f 154/154/154 160/160/160 155/155/155
f 160/160/160 154/154/154 159/159/159
f 161/161/161 101/101/101 104/104/104
f 101/101/101 161/161/161 162/162/162
f 161/161/161 109/109/109 163/163/163
f 109/109/109 161/161/161 104/104/104
f 161/161/161 158/158/158 157/157/157
f 158/158/158 161/161/161 163/163/163
f 161/161/161 156/156/156 162/162/162
f 156/156/156 161/161/161 157/157/157
f 165/165/165 117/117/117 164/164/164
f 117/117/117 165/165/165 118/118/118
f 165/165/165 166/166/166 167/167/167
f 166/166/166 165/165/165 164/164/164
f 165/165/165 158/158/158 163/163/163
f 158/158/158 165/165/165 167/167/167
f 165/165/165 109/109/109 118/118/118
f 109/109/109 165/165/165 163/163/163
f 170/170/170 168/168/168 169/169/169
f 168/168/168 170/170/170 171/171/171
f 170/170/170 160/160/160 159/159/159
f 160/160/160 170/170/170 169/169/169
f 170/170/170 158/158/158 167/167/167
f 158/158/158 170/170/170 159/159/159
f 170/170/170 166/166/166 171/171/171
f 166/166/166 170/170/170 167/167/167
f 172/172/172 16/16/16 10/10/10
f 16/16/16 172/172/172 173/173/173
f 172/172/172 174/174/174 173/173/173
f 177/177/177 175/175/175 176/176/176
f 172/172/172 9/9/9 178/178/178
f 9/9/9 172/172/172 10/10/10
f 175/175/175 179/179/179 176/176/176
f 179/179/179 175/175/175 180/180/180

usemtl sn11_13_sngsc08.jpg
usemap sn11_13_sngsc08.jpg
f 60/60/60 58/58/58 59/59/59
f 58/58/58 60/60/60 61/61/61
f 60/60/60 62/62/62 63/63/63
f 62/62/62 60/60/60 59/59/59
f 60/60/60 64/64/64 65/65/65
f 64/64/64 60/60/60 63/63/63
f 60/60/60 66/66/66 61/61/61
f 66/66/66 60/60/60 65/65/65
f 69/69/69 67/67/67 68/68/68
f 67/67/67 69/69/69 70/70/70
f 69/69/69 71/71/71 72/72/72
f 71/71/71 69/69/69 68/68/68
f 69/69/69 64/64/64 63/63/63
f 64/64/64 69/69/69 72/72/72
f 69/69/69 62/62/62 70/70/70
f 62/62/62 69/69/69 63/63/63
f 75/75/75 73/73/73 74/74/74
f 73/73/73 75/75/75 76/76/76
f 75/75/75 77/77/77 78/78/78
f 77/77/77 75/75/75 74/74/74
f 75/75/75 64/64/64 72/72/72
f 64/64/64 75/75/75 78/78/78
f 75/75/75 71/71/71 76/76/76
f 71/71/71 75/75/75 72/72/72
f 81/81/81 79/79/79 80/80/80
f 79/79/79 81/81/81 82/82/82
f 81/81/81 66/66/66 65/65/65
f 66/66/66 81/81/81 80/80/80
f 81/81/81 64/64/64 78/78/78
f 64/64/64 81/81/81 65/65/65
f 81/81/81 77/77/77 82/82/82
f 77/77/77 81/81/81 78/78/78
