mtllib ./Object80.mtl
g Object80
v 5.595093 -0.2107544 6.43689
v -5.595337 -0.2107544 -6.43634
v -5.595337 14.13911 -6.43634
v 5.595093 14.13911 6.43689
v -5.482391 -0.2107544 6.53363
v 5.48172 -0.2107544 -6.532959
v 5.48172 14.13911 -6.532959
v -5.482391 14.13911 6.53363

vn 0.7547124 0 -0.6560557
vn 0.7547124 0 -0.6560557
vn 0.7547124 0 -0.6560557
vn 0.7547124 0 -0.6560557
vn 0.7660461 0 0.6427855
vn 0.7660461 0 0.6427855
vn 0.7660461 0 0.6427855
vn 0.7660461 0 0.6427855

vt 0.0004995167 0.0004995167
vt 0.9995005 0.0004995167
vt 0.9995005 0.9995005
vt 0.0004995167 0.9995005
vt 0.0004995167 0.0004995167
vt 0.9995005 0.0004995167
vt 0.9995005 0.9995005
vt 0.0004995167 0.9995005

usemtl sn11_45_Asc06.bmp
usemap sn11_45_Asc06.bmp
f 3/3/3 1/1/1 2/2/2
f 1/1/1 3/3/3 4/4/4
f 7/7/7 5/5/5 6/6/6
f 5/5/5 7/7/7 8/8/8
