mtllib ./Object25.mtl
g Object25
v 7.440063 2.746826 3.001373
v -3.750427 2.746826 -9.871857
v -3.750427 15.29601 -9.871857
v 7.440063 15.29601 3.001373
v -3.637268 -1.368607 3.097961
v 7.326904 -1.368607 -9.968567
v 7.326904 11.18057 -9.968567
v -3.637268 11.18057 3.097961
v 3.749878 0.6068268 9.872864
v -7.440613 0.6068268 -3.000366
v -7.440613 14.9567 -3.000366
v 3.749878 14.9567 9.872864
v -7.327454 0.6068268 9.969513
v 3.636719 0.6068268 -3.097046
v 3.636719 14.9567 -3.097046
v -7.327454 14.9567 9.969513

vn 0.7547107 0 -0.6560578
vn 0.7547107 0 -0.6560578
vn 0.7547107 0 -0.6560578
vn 0.7547107 0 -0.6560578
vn 0.7660429 0 0.6427895
vn 0.7660429 0 0.6427895
vn 0.7660429 0 0.6427895
vn 0.7660429 0 0.6427895
vn 0.7547107 0 -0.6560578
vn 0.7547107 0 -0.6560578
vn 0.7547107 0 -0.6560578
vn 0.7547107 0 -0.6560578
vn 0.7660436 0 0.6427886
vn 0.7660436 0 0.6427886
vn 0.7660436 0 0.6427886
vn 0.7660436 0 0.6427886

vt 0 0
vt 1 0
vt 1 1
vt 0 1
vt 0 0
vt 1 0
vt 1 1
vt 0 1
vt 0.0004995167 0.0004995167
vt 0.9995005 0.0004995167
vt 0.9995005 0.9995005
vt 0.0004995167 0.9995005
vt 0.0004995167 0.0004995167
vt 0.9995005 0.0004995167
vt 0.9995005 0.9995005
vt 0.0004995167 0.9995005

usemtl sn11_44_Asc05.bmp
usemap sn11_44_Asc05.bmp
f 3/3/3 1/1/1 2/2/2
f 1/1/1 3/3/3 4/4/4
f 7/7/7 5/5/5 6/6/6
f 5/5/5 7/7/7 8/8/8
f 11/11/11 9/9/9 10/10/10
f 9/9/9 11/11/11 12/12/12
f 15/15/15 13/13/13 14/14/14
f 13/13/13 15/15/15 16/16/16
