mtllib ./Object73.mtl
g Object73
v 7.440277 2.746861 3.001099
v -3.750275 2.746861 -9.872131
v -3.750275 15.29604 -9.872131
v 7.440277 15.29604 3.001099
v -3.637115 -1.36861 3.097717
v 7.327087 -1.36861 -9.96875
v 7.327087 11.18057 -9.96875
v -3.637115 11.18057 3.097717
v 3.750031 0.6068268 9.87262
v -7.440491 0.6068268 -3.000549
v -7.440491 14.95669 -3.000549
v 3.750031 14.95669 9.87262
v -7.327332 0.6068268 9.969238
v 3.636871 0.6068268 -3.09729
v 3.636871 14.95669 -3.09729
v -7.327332 14.95669 9.969238

vn 0.7547089 0 -0.6560599
vn 0.7547089 0 -0.6560599
vn 0.7547089 0 -0.6560599
vn 0.7547089 0 -0.6560599
vn 0.7660406 0 0.6427923
vn 0.7660406 0 0.6427923
vn 0.7660406 0 0.6427923
vn 0.7660406 0 0.6427923
vn 0.7547082 0 -0.6560606
vn 0.7547082 0 -0.6560606
vn 0.7547082 0 -0.6560606
vn 0.7547082 0 -0.6560606
vn 0.766042 0 0.6427904
vn 0.766042 0 0.6427904
vn 0.766042 0 0.6427904
vn 0.766042 0 0.6427904

vt 0 0
vt 1 0
vt 1 1
vt 0 1
vt 0 0
vt 1 0
vt 1 1
vt 0 1
vt 0.0004995167 0.0004995167
vt 0.9995005 0.0004995167
vt 0.9995005 0.9995005
vt 0.0004995167 0.9995005
vt 0.0004995167 0.0004995167
vt 0.9995005 0.0004995167
vt 0.9995005 0.9995005
vt 0.0004995167 0.9995005

usemtl sn11_44_Asc05.bmp
usemap sn11_44_Asc05.bmp
f 3/3/3 1/1/1 2/2/2
f 1/1/1 3/3/3 4/4/4
f 7/7/7 5/5/5 6/6/6
f 5/5/5 7/7/7 8/8/8
f 11/11/11 9/9/9 10/10/10
f 9/9/9 11/11/11 12/12/12
f 15/15/15 13/13/13 14/14/14
f 13/13/13 15/15/15 16/16/16
