mtllib ./Object95.mtl
g Object95
v -6.525421 -1.664398 -1.469238
v 8.469772 -1.664398 15.78101
v -6.525421 15.15149 -1.469238
v 8.469772 15.15149 15.78101
v 8.318268 -7.179077 -1.599121
v -6.373779 -7.179077 15.91016
v 8.318268 9.63681 -1.599121
v -6.373779 9.63681 15.91016
v -28.21738 -4.531982 -4.945801
v -13.22205 -4.531982 12.3042
v -28.21738 14.69681 -4.945801
v -13.22205 14.69681 12.3042
v -13.37382 -4.531982 -5.075439
v -28.06573 -4.531982 12.43359
v -13.37382 14.69681 -5.075439
v -28.06573 14.69681 12.43359
v -14.45689 0.9525757 10.90869
v 0.5382996 0.9525757 28.15894
v -14.45689 17.76846 10.90869
v 0.5382996 17.76846 28.15894
v 0.386795 -4.562134 10.77905
v -14.30512 -4.562134 28.28833
v 0.386795 12.25375 10.77905
v -14.30512 12.25375 28.28833
v -19.4018 -1.915039 20.11646
v -4.406601 -1.915039 37.3667
v -19.4018 17.31375 20.11646
v -4.406601 17.31375 37.3667
v -4.558243 -1.915039 19.98706
v -19.25016 -1.915039 37.49609
v -4.558243 17.31375 19.98706
v -19.25016 17.31375 37.49609
v -11.62572 4.289764 24.95581
v 3.369614 4.289764 42.20581
v -11.62572 21.10565 24.95581
v 3.369614 21.10565 42.20581
v 3.217972 -4.562134 24.82617
v -11.47395 -4.562134 42.33545
v 3.217972 12.25375 24.82617
v -11.47395 12.25375 42.33545
v -16.57049 1.42215 34.16357
v -1.575294 1.42215 51.41382
v -16.57049 20.65097 34.16357
v -1.575294 20.65097 51.41382
v -1.726929 1.42215 34.03394
v -16.41898 1.42215 51.54321
v -1.726929 20.65097 34.03394
v -16.41898 20.65097 51.54321
v -20.81269 0.9525757 0.1022949
v -5.817497 0.9525757 17.35254
v -20.81269 17.76846 0.1022949
v -5.817497 17.76846 17.35254
v -5.969139 -4.562134 -0.02709961
v -20.66119 -4.562134 17.48193
v -5.969139 12.25375 -0.02709961
v -20.66119 12.25375 17.48193
v -25.7576 -1.915039 9.310303
v -10.76226 -1.915039 26.5603
v -25.7576 17.31375 9.310303
v -10.76226 17.31375 26.5603
v -10.91404 -1.915039 9.180664
v -25.60595 -1.915039 26.68994
v -10.91404 17.31375 9.180664
v -25.60595 17.31375 26.68994
v 4.407639 0.1329346 -51.41333
v 19.40283 0.1329346 -34.16333
v 4.407639 16.94882 -51.41333
v 19.40283 16.94882 -34.16333
v 19.25133 -5.381775 -51.54321
v 4.55928 -5.381775 -34.03418
v 19.25133 11.43411 -51.54321
v 4.55928 11.43411 -34.03418
v -0.5379333 -2.73468 -42.20557
v 14.4574 -2.73468 -24.95557
v -0.5379333 16.49414 -42.20557
v 14.4574 16.49414 -24.95557
v 14.30562 -2.73468 -42.33545
v -0.3862915 -2.73468 -24.82617
v 14.30562 16.49414 -42.33545
v -0.3862915 16.49414 -24.82617
v 13.22321 2.749878 -26.35107
v 28.21841 2.749878 -9.101074
v 13.22321 19.56577 -26.35107
v 28.21841 19.56577 -9.101074
v 28.06677 -2.764832 -26.48071
v 13.37486 -2.764832 -8.97168
v 28.06677 14.05109 -26.48071
v 13.37486 14.05109 -8.97168
v 8.278046 -0.1177368 -17.14331
v 23.27324 -0.1177368 0.1066895
v 8.278046 19.11111 -17.14331
v 23.27324 19.11111 0.1066895
v 23.1216 -0.1177368 -17.27295
v 8.429688 -0.1177368 0.2363281
v 23.1216 19.11111 -17.27295
v 8.429688 19.11111 0.2363281
v -4.004501 0.9525757 -16.61792
v 10.99083 0.9525757 0.6320801
v -4.004501 17.76846 -16.61792
v 10.99083 17.76846 0.6320801
v 10.83932 -4.562134 -16.74756
v -3.852592 -4.562134 0.7617188
v 10.83932 12.25375 -16.74756
v -3.852592 12.25375 0.7617188
v -8.949272 -1.915039 -7.410156
v 6.045929 -1.915039 9.840088
v -8.949272 17.31375 -7.410156
v 6.045929 17.31375 9.840088
v 5.894287 -1.915039 -7.539795
v -8.79776 -1.915039 9.969482
v 5.894287 17.31375 -7.539795
v -8.79776 17.31375 9.969482
v 6.867287 2.749878 -37.15747
v 21.86248 2.749878 -19.90747
v 6.867287 19.56577 -37.15747
v 21.86248 19.56577 -19.90747
v 21.71084 -2.764832 -37.28711
v 7.018791 -2.764832 -19.77783
v 21.71084 14.05109 -37.28711
v 7.018791 14.05109 -19.77783
v 1.922379 -0.1177368 -27.94971
v 16.91771 -0.1177368 -10.69946
v 1.922379 19.11111 -27.94971
v 16.91771 19.11111 -10.69946
v 16.76594 -0.1177368 -28.0791
v 2.07402 -0.1177368 -10.57007
v 16.76594 19.11111 -28.0791
v 2.07402 19.11111 -10.57007

vn -0.7547143 0 0.6560537
vn -0.7547143 0 0.6560537
vn -0.7547143 0 0.6560537
vn -0.7547143 0 0.6560537
vn -0.7660441 0 -0.6427881
vn -0.7660441 0 -0.6427881
vn -0.7660441 0 -0.6427881
vn -0.7660441 0 -0.6427881
vn -0.7547067 0 0.6560624
vn -0.7547067 0 0.6560624
vn -0.7547067 0 0.6560624
vn -0.7547067 0 0.6560624
vn -0.7660424 0 -0.6427901
vn -0.7660424 0 -0.6427901
vn -0.7660424 0 -0.6427901
vn -0.7660424 0 -0.6427901
vn -0.7547143 0 0.6560537
vn -0.7547143 0 0.6560537
vn -0.7547143 0 0.6560537
vn -0.7547143 0 0.6560537
vn -0.7660468 0 -0.6427847
vn -0.7660468 0 -0.6427847
vn -0.7660468 0 -0.6427847
vn -0.7660468 0 -0.6427847
vn -0.7547141 0 0.6560538
vn -0.7547141 0 0.6560538
vn -0.7547141 0 0.6560538
vn -0.7547141 0 0.6560538
vn -0.7660425 0 -0.64279
vn -0.7660425 0 -0.64279
vn -0.7660425 0 -0.64279
vn -0.7660425 0 -0.64279
vn -0.7547067 0 0.6560624
vn -0.7547067 0 0.6560624
vn -0.7547067 0 0.6560624
vn -0.7547067 0 0.6560624
vn -0.7660468 0 -0.6427847
vn -0.7660468 0 -0.6427847
vn -0.7660468 0 -0.6427847
vn -0.7660468 0 -0.6427847
vn -0.7547143 0 0.6560537
vn -0.7547143 0 0.6560537
vn -0.7547143 0 0.6560537
vn -0.7547143 0 0.6560537
vn -0.7660439 0 -0.6427883
vn -0.7660439 0 -0.6427883
vn -0.7660439 0 -0.6427883
vn -0.7660439 0 -0.6427883
vn -0.7547143 0 0.6560537
vn -0.7547143 0 0.6560537
vn -0.7547143 0 0.6560537
vn -0.7547143 0 0.6560537
vn -0.7660397 0 -0.6427934
vn -0.7660397 0 -0.6427934
vn -0.7660397 0 -0.6427934
vn -0.7660397 0 -0.6427934
vn -0.7547066 0 0.6560624
vn -0.7547066 0 0.6560624
vn -0.7547066 0 0.6560624
vn -0.7547066 0 0.6560624
vn -0.7660469 0 -0.6427847
vn -0.7660469 0 -0.6427847
vn -0.7660469 0 -0.6427847
vn -0.7660469 0 -0.6427847
vn -0.7547097 0 0.656059
vn -0.7547097 0 0.656059
vn -0.7547097 0 0.656059
vn -0.7547097 0 0.656059
vn -0.7660397 0 -0.6427934
vn -0.7660397 0 -0.6427934
vn -0.7660397 0 -0.6427934
vn -0.7660397 0 -0.6427934
vn -0.7547066 0 0.6560624
vn -0.7547066 0 0.6560624
vn -0.7547066 0 0.6560624
vn -0.7547066 0 0.6560624
vn -0.766047 0 -0.6427845
vn -0.766047 0 -0.6427845
vn -0.766047 0 -0.6427845
vn -0.766047 0 -0.6427845
vn -0.7547094 0 0.6560591
vn -0.7547094 0 0.6560591
vn -0.7547094 0 0.6560591
vn -0.7547094 0 0.6560591
vn -0.7660425 0 -0.64279
vn -0.7660425 0 -0.64279
vn -0.7660425 0 -0.64279
vn -0.7660425 0 -0.64279
vn -0.7547097 0 0.656059
vn -0.7547097 0 0.656059
vn -0.7547097 0 0.656059
vn -0.7547097 0 0.656059
vn -0.766047 0 -0.6427846
vn -0.766047 0 -0.6427846
vn -0.766047 0 -0.6427846
vn -0.766047 0 -0.6427846
vn -0.7547067 0 0.6560624
vn -0.7547067 0 0.6560624
vn -0.7547067 0 0.6560624
vn -0.7547067 0 0.6560624
vn -0.7660468 0 -0.6427847
vn -0.7660468 0 -0.6427847
vn -0.7660468 0 -0.6427847
vn -0.7660468 0 -0.6427847
vn -0.7547141 0 0.6560538
vn -0.7547141 0 0.6560538
vn -0.7547141 0 0.6560538
vn -0.7547141 0 0.6560538
vn -0.7660441 0 -0.6427882
vn -0.7660441 0 -0.6427882
vn -0.7660441 0 -0.6427882
vn -0.7660441 0 -0.6427882
vn -0.7547097 0 0.656059
vn -0.7547097 0 0.656059
vn -0.7547097 0 0.656059
vn -0.7547097 0 0.656059
vn -0.766044 0 -0.6427881
vn -0.766044 0 -0.6427881
vn -0.766044 0 -0.6427881
vn -0.766044 0 -0.6427881
vn -0.7547113 0 0.6560571
vn -0.7547113 0 0.6560571
vn -0.7547113 0 0.6560571
vn -0.7547113 0 0.6560571
vn -0.7660424 0 -0.6427901
vn -0.7660424 0 -0.6427901
vn -0.7660424 0 -0.6427901
vn -0.7660424 0 -0.6427901

vt 1 0
vt 0 0
vt 1 1
vt 0 1
vt 1 0
vt 0 0
vt 1 1
vt 0 1
vt 0.9995005 0.0004995167
vt 0.0004995167 0.0004995167
vt 0.9995005 0.9995005
vt 0.0004995167 0.9995005
vt 0.9995005 0.0004995167
vt 0.0004995167 0.0004995167
vt 0.9995005 0.9995005
vt 0.0004995167 0.9995005
vt 1 0
vt 0 0
vt 1 1
vt 0 1
vt 1 0
vt 0 0
vt 1 1
vt 0 1
vt 0.9995005 0.0004995167
vt 0.0004995167 0.0004995167
vt 0.9995005 0.9995005
vt 0.0004995167 0.9995005
vt 0.9995005 0.0004995167
vt 0.0004995167 0.0004995167
vt 0.9995005 0.9995005
vt 0.0004995167 0.9995005
vt 1 0
vt 0 0
vt 1 1
vt 0 1
vt 1 0
vt 0 0
vt 1 1
vt 0 1
vt 0.9995005 0.0004995167
vt 0.0004995167 0.0004995167
vt 0.9995005 0.9995005
vt 0.0004995167 0.9995005
vt 0.9995005 0.0004995167
vt 0.0004995167 0.0004995167
vt 0.9995005 0.9995005
vt 0.0004995167 0.9995005
vt 1 0
vt 0 0
vt 1 1
vt 0 1
vt 1 0
vt 0 0
vt 1 1
vt 0 1
vt 0.9995005 0.0004995167
vt 0.0004995167 0.0004995167
vt 0.9995005 0.9995005
vt 0.0004995167 0.9995005
vt 0.9995005 0.0004995167
vt 0.0004995167 0.0004995167
vt 0.9995005 0.9995005
vt 0.0004995167 0.9995005
vt 1 0
vt 0 0
vt 1 1
vt 0 1
vt 1 0
vt 0 0
vt 1 1
vt 0 1
vt 0.9995005 0.0004995167
vt 0.0004995167 0.0004995167
vt 0.9995005 0.9995005
vt 0.0004995167 0.9995005
vt 0.9995005 0.0004995167
vt 0.0004995167 0.0004995167
vt 0.9995005 0.9995005
vt 0.0004995167 0.9995005
vt 1 0
vt 0 0
vt 1 1
vt 0 1
vt 1 0
vt 0 0
vt 1 1
vt 0 1
vt 0.9995005 0.0004995167
vt 0.0004995167 0.0004995167
vt 0.9995005 0.9995005
vt 0.0004995167 0.9995005
vt 0.9995005 0.0004995167
vt 0.0004995167 0.0004995167
vt 0.9995005 0.9995005
vt 0.0004995167 0.9995005
vt 1 0
vt 0 0
vt 1 1
vt 0 1
vt 1 0
vt 0 0
vt 1 1
vt 0 1
vt 0.9995005 0.0004995167
vt 0.0004995167 0.0004995167
vt 0.9995005 0.9995005
vt 0.0004995167 0.9995005
vt 0.9995005 0.0004995167
vt 0.0004995167 0.0004995167
vt 0.9995005 0.9995005
vt 0.0004995167 0.9995005
vt 1 0
vt 0 0
vt 1 1
vt 0 1
vt 1 0
vt 0 0
vt 1 1
vt 0 1
vt 0.9995005 0.0004995167
vt 0.0004995167 0.0004995167
vt 0.9995005 0.9995005
vt 0.0004995167 0.9995005
vt 0.9995005 0.0004995167
vt 0.0004995167 0.0004995167
vt 0.9995005 0.9995005
vt 0.0004995167 0.9995005

usemtl sn11_44_Asc05.bmp
usemap sn11_44_Asc05.bmp
f 3/3/3 1/1/1 2/2/2
f 2/2/2 4/4/4 3/3/3
f 7/7/7 5/5/5 6/6/6
f 6/6/6 8/8/8 7/7/7
f 11/11/11 9/9/9 10/10/10
f 10/10/10 12/12/12 11/11/11
f 15/15/15 13/13/13 14/14/14
f 14/14/14 16/16/16 15/15/15
f 67/67/67 65/65/65 66/66/66
f 66/66/66 68/68/68 67/67/67
f 71/71/71 69/69/69 70/70/70
f 70/70/70 72/72/72 71/71/71
f 75/75/75 73/73/73 74/74/74
f 74/74/74 76/76/76 75/75/75
f 79/79/79 77/77/77 78/78/78
f 78/78/78 80/80/80 79/79/79

usemtl sn11_43_Asc02.JPG
usemap sn11_43_Asc02.JPG
f 19/19/19 17/17/17 18/18/18
f 18/18/18 20/20/20 19/19/19
f 23/23/23 21/21/21 22/22/22
f 22/22/22 24/24/24 23/23/23
f 27/27/27 25/25/25 26/26/26
f 26/26/26 28/28/28 27/27/27
f 31/31/31 29/29/29 30/30/30
f 30/30/30 32/32/32 31/31/31
f 83/83/83 81/81/81 82/82/82
f 82/82/82 84/84/84 83/83/83
f 87/87/87 85/85/85 86/86/86
f 86/86/86 88/88/88 87/87/87
f 91/91/91 89/89/89 90/90/90
f 90/90/90 92/92/92 91/91/91
f 95/95/95 93/93/93 94/94/94
f 94/94/94 96/96/96 95/95/95

usemtl sn11_45_Asc06.bmp
usemap sn11_45_Asc06.bmp
f 35/35/35 33/33/33 34/34/34
f 34/34/34 36/36/36 35/35/35
f 39/39/39 37/37/37 38/38/38
f 38/38/38 40/40/40 39/39/39
f 43/43/43 41/41/41 42/42/42
f 42/42/42 44/44/44 43/43/43
f 47/47/47 45/45/45 46/46/46
f 46/46/46 48/48/48 47/47/47
f 51/51/51 49/49/49 50/50/50
f 50/50/50 52/52/52 51/51/51
f 55/55/55 53/53/53 54/54/54
f 54/54/54 56/56/56 55/55/55
f 59/59/59 57/57/57 58/58/58
f 58/58/58 60/60/60 59/59/59
f 63/63/63 61/61/61 62/62/62
f 62/62/62 64/64/64 63/63/63
f 99/99/99 97/97/97 98/98/98
f 98/98/98 100/100/100 99/99/99
f 103/103/103 101/101/101 102/102/102
f 102/102/102 104/104/104 103/103/103
f 107/107/107 105/105/105 106/106/106
f 106/106/106 108/108/108 107/107/107
f 111/111/111 109/109/109 110/110/110
f 110/110/110 112/112/112 111/111/111
f 115/115/115 113/113/113 114/114/114
f 114/114/114 116/116/116 115/115/115
f 119/119/119 117/117/117 118/118/118
f 118/118/118 120/120/120 119/119/119
f 123/123/123 121/121/121 122/122/122
f 122/122/122 124/124/124 123/123/123
f 127/127/127 125/125/125 126/126/126
f 126/126/126 128/128/128 127/127/127
