mtllib ./Object90.mtl
g Object90
v 5.595337 2.746622 6.436218
v -5.595093 2.746622 -6.437012
v -5.595093 15.2958 -6.437012
v 5.595337 15.2958 6.436218
v -5.481934 -1.368823 6.532837
v 5.482178 -1.368823 -6.533691
v 5.482178 11.18036 -6.533691
v -5.481934 11.18036 6.532837

vn 0.7547124 0 -0.6560557
vn 0.7547124 0 -0.6560557
vn 0.7547124 0 -0.6560557
vn 0.7547124 0 -0.6560557
vn 0.7660446 0 0.6427873
vn 0.7660446 0 0.6427873
vn 0.7660446 0 0.6427873
vn 0.7660446 0 0.6427873

vt 0 0
vt 1 0
vt 1 1
vt 0 1
vt 0 0
vt 1 0
vt 1 1
vt 0 1

usemtl sn11_45_Asc06.bmp
usemap sn11_45_Asc06.bmp
f 3/3/3 1/1/1 2/2/2
f 1/1/1 3/3/3 4/4/4
f 7/7/7 5/5/5 6/6/6
f 5/5/5 7/7/7 8/8/8
