mtllib ./Object34.mtl
g Object34
v 3.094193 1.770905 -11.59198
v -8.096298 1.770905 -24.46521
v -8.096298 14.32008 -24.46521
v 3.094193 14.32008 -11.59198
v -7.983139 -2.344543 -11.49542
v 2.981033 -2.344543 -24.56195
v 2.981033 10.20464 -24.56195
v -7.983139 10.20464 -11.49542
v -0.5960388 -0.3691101 -4.720459
v -11.78653 -0.3691101 -17.59369
v -11.78653 13.98076 -17.59369
v -0.5960388 13.98076 -4.720459
v -11.67336 -0.3691101 -4.623901
v -0.709198 -0.3691101 -17.69043
v -0.709198 13.98076 -17.69043
v -11.67336 13.98076 -4.623901
v 9.672958 3.723846 7.111206
v -1.517532 3.723846 -5.761963
v -1.517532 16.27303 -5.761963
v 9.672958 16.27303 7.111206
v -1.404373 -0.3915863 7.207825
v 9.559799 -0.3915863 -5.858704
v 9.559799 12.15759 -5.858704
v -1.404373 12.15759 7.207825
v 5.982727 1.583847 13.98273
v -5.207764 1.583847 1.109497
v -5.207764 15.93372 1.109497
v 5.982727 15.93372 13.98273
v -5.094604 1.583847 14.07941
v 5.869568 1.583847 1.012817
v 5.869568 15.93372 1.012817
v -5.094604 15.93372 14.07941
v 11.78584 3.723846 17.59412
v 0.5953522 3.723846 4.720886
v 0.5953522 16.27303 4.720886
v 11.78584 16.27303 17.59412
v 0.7085266 -0.3915863 17.69073
v 11.67268 -0.3915863 4.624207
v 11.67268 12.15759 4.624207
v 0.7085266 12.15759 17.69073
v 8.095627 1.583847 24.46564
v -3.094864 1.583847 11.59241
v -3.094864 15.93372 11.59241
v 8.095627 15.93372 24.46564
v -2.981705 1.583847 24.56226
v 7.982452 1.583847 11.49573
v 7.982452 15.93372 11.49573
v -2.981705 15.93372 24.56226
v 4.929794 3.723846 -0.953186
v -6.260696 3.723846 -13.82635
v -6.260696 16.27303 -13.82635
v 4.929794 16.27303 -0.953186
v -6.147537 -0.3915863 -0.8565674
v 4.816635 -0.3915863 -13.9231
v 4.816635 12.15759 -13.9231
v -6.147537 12.15759 -0.8565674
v 1.239578 1.583847 5.918335
v -9.950928 1.583847 -6.954895
v -9.950928 15.93372 -6.954895
v 1.239578 15.93372 5.918335
v -9.837753 1.583847 6.015015
v 1.126404 1.583847 -7.051575
v 1.126404 15.93372 -7.051575
v -9.837753 15.93372 6.015015

vn 0.7547107 0 -0.6560578
vn 0.7547107 0 -0.6560578
vn 0.7547107 0 -0.6560578
vn 0.7547107 0 -0.6560578
vn 0.7660429 0 0.6427895
vn 0.7660429 0 0.6427895
vn 0.7660429 0 0.6427895
vn 0.7660429 0 0.6427895
vn 0.7547107 0 -0.6560578
vn 0.7547107 0 -0.6560578
vn 0.7547107 0 -0.6560578
vn 0.7547107 0 -0.6560578
vn 0.7660433 0 0.6427889
vn 0.7660433 0 0.6427889
vn 0.7660433 0 0.6427889
vn 0.7660433 0 0.6427889
vn 0.7547091 0 -0.6560596
vn 0.7547091 0 -0.6560596
vn 0.7547091 0 -0.6560596
vn 0.7547091 0 -0.6560596
vn 0.7660429 0 0.6427895
vn 0.7660429 0 0.6427895
vn 0.7660429 0 0.6427895
vn 0.7660429 0 0.6427895
vn 0.7547107 0 -0.6560578
vn 0.7547107 0 -0.6560578
vn 0.7547107 0 -0.6560578
vn 0.7547107 0 -0.6560578
vn 0.7660444 0 0.6427877
vn 0.7660444 0 0.6427877
vn 0.7660444 0 0.6427877
vn 0.7660444 0 0.6427877
vn 0.7547107 0 -0.6560578
vn 0.7547107 0 -0.6560578
vn 0.7547107 0 -0.6560578
vn 0.7547107 0 -0.6560578
vn 0.7660434 0 0.6427889
vn 0.7660434 0 0.6427889
vn 0.7660434 0 0.6427889
vn 0.7660434 0 0.6427889
vn 0.7547107 0 -0.6560578
vn 0.7547107 0 -0.6560578
vn 0.7547107 0 -0.6560578
vn 0.7547107 0 -0.6560578
vn 0.7660433 0 0.6427889
vn 0.7660433 0 0.6427889
vn 0.7660433 0 0.6427889
vn 0.7660433 0 0.6427889
vn 0.7547091 0 -0.6560596
vn 0.7547091 0 -0.6560596
vn 0.7547091 0 -0.6560596
vn 0.7547091 0 -0.6560596
vn 0.7660429 0 0.6427895
vn 0.7660429 0 0.6427895
vn 0.7660429 0 0.6427895
vn 0.7660429 0 0.6427895
vn 0.7547103 0 -0.6560583
vn 0.7547103 0 -0.6560583
vn 0.7547103 0 -0.6560583
vn 0.7547103 0 -0.6560583
vn 0.7660449 0 0.6427872
vn 0.7660449 0 0.6427872
vn 0.7660449 0 0.6427872
vn 0.7660449 0 0.6427872

vt 0 0
vt 1 0
vt 1 1
vt 0 1
vt 0 0
vt 1 0
vt 1 1
vt 0 1
vt 0.0004995167 0.0004995167
vt 0.9995005 0.0004995167
vt 0.9995005 0.9995005
vt 0.0004995167 0.9995005
vt 0.0004995167 0.0004995167
vt 0.9995005 0.0004995167
vt 0.9995005 0.9995005
vt 0.0004995167 0.9995005
vt 0 0
vt 1 0
vt 1 1
vt 0 1
vt 0 0
vt 1 0
vt 1 1
vt 0 1
vt 0.0004995167 0.0004995167
vt 0.9995005 0.0004995167
vt 0.9995005 0.9995005
vt 0.0004995167 0.9995005
vt 0.0004995167 0.0004995167
vt 0.9995005 0.0004995167
vt 0.9995005 0.9995005
vt 0.0004995167 0.9995005
vt 0 0
vt 1 0
vt 1 1
vt 0 1
vt 0 0
vt 1 0
vt 1 1
vt 0 1
vt 0.0004995167 0.0004995167
vt 0.9995005 0.0004995167
vt 0.9995005 0.9995005
vt 0.0004995167 0.9995005
vt 0.0004995167 0.0004995167
vt 0.9995005 0.0004995167
vt 0.9995005 0.9995005
vt 0.0004995167 0.9995005
vt 0 0
vt 1 0
vt 1 1
vt 0 1
vt 0 0
vt 1 0
vt 1 1
vt 0 1
vt 0.0004995167 0.0004995167
vt 0.9995005 0.0004995167
vt 0.9995005 0.9995005
vt 0.0004995167 0.9995005
vt 0.0004995167 0.0004995167
vt 0.9995005 0.0004995167
vt 0.9995005 0.9995005
vt 0.0004995167 0.9995005

usemtl sn11_44_Asc05.bmp
usemap sn11_44_Asc05.bmp
f 3/3/3 1/1/1 2/2/2
f 1/1/1 3/3/3 4/4/4
f 7/7/7 5/5/5 6/6/6
f 5/5/5 7/7/7 8/8/8
f 11/11/11 9/9/9 10/10/10
f 9/9/9 11/11/11 12/12/12
f 15/15/15 13/13/13 14/14/14
f 13/13/13 15/15/15 16/16/16

usemtl sn11_43_Asc02.JPG
usemap sn11_43_Asc02.JPG
f 19/19/19 17/17/17 18/18/18
f 17/17/17 19/19/19 20/20/20
f 23/23/23 21/21/21 22/22/22
f 21/21/21 23/23/23 24/24/24
f 27/27/27 25/25/25 26/26/26
f 25/25/25 27/27/27 28/28/28
f 31/31/31 29/29/29 30/30/30
f 29/29/29 31/31/31 32/32/32

usemtl sn11_45_Asc06.bmp
usemap sn11_45_Asc06.bmp
f 35/35/35 33/33/33 34/34/34
f 33/33/33 35/35/35 36/36/36
f 39/39/39 37/37/37 38/38/38
f 37/37/37 39/39/39 40/40/40
f 43/43/43 41/41/41 42/42/42
f 41/41/41 43/43/43 44/44/44
f 47/47/47 45/45/45 46/46/46
f 45/45/45 47/47/47 48/48/48
f 51/51/51 49/49/49 50/50/50
f 49/49/49 51/51/51 52/52/52
f 55/55/55 53/53/53 54/54/54
f 53/53/53 55/55/55 56/56/56
f 59/59/59 57/57/57 58/58/58
f 57/57/57 59/59/59 60/60/60
f 63/63/63 61/61/61 62/62/62
f 61/61/61 63/63/63 64/64/64
