mtllib ./Object75.mtl
g Object75
v 7.440491 2.746964 3.000488
v -3.750061 2.746964 -9.872681
v -3.750061 15.29614 -9.872681
v 7.440491 15.29614 3.000488
v -3.636902 -1.368506 3.097168
v 7.327301 -1.368506 -9.96936
v 7.327301 11.18067 -9.96936
v -3.636902 11.18067 3.097168
v 3.750244 0.6069307 9.87207
v -7.440308 0.6069307 -3.00116
v -7.440308 14.9568 -3.00116
v 3.750244 14.9568 9.87207
v -7.327118 0.6069307 9.968689
v 3.637085 0.6069307 -3.0979
v 3.637085 14.9568 -3.0979
v -7.327118 14.9568 9.968689

vn 0.7547074 0 -0.6560616
vn 0.7547074 0 -0.6560616
vn 0.7547074 0 -0.6560616
vn 0.7547074 0 -0.6560616
vn 0.766042 0 0.6427904
vn 0.766042 0 0.6427904
vn 0.766042 0 0.6427904
vn 0.766042 0 0.6427904
vn 0.7547088 0 -0.6560597
vn 0.7547088 0 -0.6560597
vn 0.7547088 0 -0.6560597
vn 0.7547088 0 -0.6560597
vn 0.7660435 0 0.6427888
vn 0.7660435 0 0.6427888
vn 0.7660435 0 0.6427888
vn 0.7660435 0 0.6427888

vt 0 0
vt 1 0
vt 1 1
vt 0 1
vt 0 0
vt 1 0
vt 1 1
vt 0 1
vt 0.0004995167 0.0004995167
vt 0.9995005 0.0004995167
vt 0.9995005 0.9995005
vt 0.0004995167 0.9995005
vt 0.0004995167 0.0004995167
vt 0.9995005 0.0004995167
vt 0.9995005 0.9995005
vt 0.0004995167 0.9995005

usemtl sn11_44_Asc05.bmp
usemap sn11_44_Asc05.bmp
f 3/3/3 1/1/1 2/2/2
f 1/1/1 3/3/3 4/4/4
f 7/7/7 5/5/5 6/6/6
f 5/5/5 7/7/7 8/8/8
f 11/11/11 9/9/9 10/10/10
f 9/9/9 11/11/11 12/12/12
f 15/15/15 13/13/13 14/14/14
f 13/13/13 15/15/15 16/16/16
