mtllib ./Object62.mtl
g Object62
v 3.094208 1.770905 -11.59261
v -8.096344 1.770905 -24.46582
v -8.096344 14.32008 -24.46582
v 3.094208 14.32008 -11.59261
v -7.983154 -2.344543 -11.49605
v 2.981049 -2.344543 -24.56258
v 2.981049 10.20464 -24.56258
v -7.983154 10.20464 -11.49605
v -0.5960083 -0.3691101 -4.721054
v -11.78656 -0.3691101 -17.59427
v -11.78656 13.98076 -17.59427
v -0.5960083 13.98076 -4.721054
v -11.6734 -0.3691101 -4.624527
v -0.7091675 -0.3691101 -17.6911
v -0.7091675 13.98076 -17.6911
v -11.6734 13.98076 -4.624527
v 9.672943 3.723846 7.110657
v -1.517548 3.723846 -5.762558
v -1.517548 16.27303 -5.762558
v 9.672943 16.27303 7.110657
v -1.404388 -0.3915863 7.207275
v 9.559784 -0.3915863 -5.859253
v 9.559784 12.15759 -5.859253
v -1.404388 12.15759 7.207275
v 5.982727 1.583847 13.98218
v -5.207764 1.583847 1.108963
v -5.207764 15.93372 1.108963
v 5.982727 15.93372 13.98218
v -5.094604 1.583847 14.07883
v 5.869568 1.583847 1.012253
v 5.869568 15.93372 1.012253
v -5.094604 15.93372 14.07883
v 11.78583 3.723846 17.59351
v 0.5953674 3.723846 4.720291
v 0.5953674 16.27303 4.720291
v 11.78583 16.27303 17.59351
v 0.7085266 -0.3915863 17.69016
v 11.67267 -0.3915863 4.623627
v 11.67267 12.15759 4.623627
v 0.7085266 12.15759 17.69016
v 8.095581 1.583847 24.46506
v -3.094849 1.583847 11.59184
v -3.094849 15.93372 11.59184
v 8.095581 15.93372 24.46506
v -2.981689 1.583847 24.56174
v 7.982422 1.583847 11.49516
v 7.982422 15.93372 11.49516
v -2.981689 15.93372 24.56174
v 4.929779 3.723846 -0.9537811
v -6.260681 3.723846 -13.827
v -6.260681 16.27303 -13.827
v 4.929779 16.27303 -0.9537811
v -6.147522 -0.3915863 -0.857132
v 4.81662 -0.3915863 -13.92365
v 4.81662 12.15759 -13.92365
v -6.147522 12.15759 -0.857132
v 1.239532 1.583847 5.91777
v -9.950897 1.583847 -6.955444
v -9.950897 15.93372 -6.955444
v 1.239532 15.93372 5.91777
v -9.837738 1.583847 6.014404
v 1.126373 1.583847 -7.05217
v 1.126373 15.93372 -7.05217
v -9.837738 15.93372 6.014404

vn 0.7547085 0 -0.6560603
vn 0.7547085 0 -0.6560603
vn 0.7547085 0 -0.6560603
vn 0.7547085 0 -0.6560603
vn 0.766042 0 0.6427905
vn 0.766042 0 0.6427905
vn 0.766042 0 0.6427905
vn 0.766042 0 0.6427905
vn 0.7547085 0 -0.6560603
vn 0.7547085 0 -0.6560603
vn 0.7547085 0 -0.6560603
vn 0.7547085 0 -0.6560603
vn 0.7660422 0 0.6427903
vn 0.7660422 0 0.6427903
vn 0.7660422 0 0.6427903
vn 0.7660422 0 0.6427903
vn 0.7547103 0 -0.6560583
vn 0.7547103 0 -0.6560583
vn 0.7547103 0 -0.6560583
vn 0.7547103 0 -0.6560583
vn 0.7660429 0 0.6427895
vn 0.7660429 0 0.6427895
vn 0.7660429 0 0.6427895
vn 0.7660429 0 0.6427895
vn 0.7547103 0 -0.6560583
vn 0.7547103 0 -0.6560583
vn 0.7547103 0 -0.6560583
vn 0.7547103 0 -0.6560583
vn 0.766044 0 0.6427882
vn 0.766044 0 0.6427882
vn 0.766044 0 0.6427882
vn 0.766044 0 0.6427882
vn 0.7547112 0 -0.6560572
vn 0.7547112 0 -0.6560572
vn 0.7547112 0 -0.6560572
vn 0.7547112 0 -0.6560572
vn 0.7660438 0 0.6427884
vn 0.7660438 0 0.6427884
vn 0.7660438 0 0.6427884
vn 0.7660438 0 0.6427884
vn 0.754712 0 -0.6560562
vn 0.754712 0 -0.6560562
vn 0.754712 0 -0.6560562
vn 0.754712 0 -0.6560562
vn 0.7660458 0 0.6427861
vn 0.7660458 0 0.6427861
vn 0.7660458 0 0.6427861
vn 0.7660458 0 0.6427861
vn 0.7547112 0 -0.6560572
vn 0.7547112 0 -0.6560572
vn 0.7547112 0 -0.6560572
vn 0.7547112 0 -0.6560572
vn 0.7660435 0 0.6427888
vn 0.7660435 0 0.6427888
vn 0.7660435 0 0.6427888
vn 0.7660435 0 0.6427888
vn 0.754712 0 -0.6560562
vn 0.754712 0 -0.6560562
vn 0.754712 0 -0.6560562
vn 0.754712 0 -0.6560562
vn 0.7660458 0 0.6427861
vn 0.7660458 0 0.6427861
vn 0.7660458 0 0.6427861
vn 0.7660458 0 0.6427861

vt 0 0
vt 1 0
vt 1 1
vt 0 1
vt 0 0
vt 1 0
vt 1 1
vt 0 1
vt 0.0004995167 0.0004995167
vt 0.9995005 0.0004995167
vt 0.9995005 0.9995005
vt 0.0004995167 0.9995005
vt 0.0004995167 0.0004995167
vt 0.9995005 0.0004995167
vt 0.9995005 0.9995005
vt 0.0004995167 0.9995005
vt 0 0
vt 1 0
vt 1 1
vt 0 1
vt 0 0
vt 1 0
vt 1 1
vt 0 1
vt 0.0004995167 0.0004995167
vt 0.9995005 0.0004995167
vt 0.9995005 0.9995005
vt 0.0004995167 0.9995005
vt 0.0004995167 0.0004995167
vt 0.9995005 0.0004995167
vt 0.9995005 0.9995005
vt 0.0004995167 0.9995005
vt 0 0
vt 1 0
vt 1 1
vt 0 1
vt 0 0
vt 1 0
vt 1 1
vt 0 1
vt 0.0004995167 0.0004995167
vt 0.9995005 0.0004995167
vt 0.9995005 0.9995005
vt 0.0004995167 0.9995005
vt 0.0004995167 0.0004995167
vt 0.9995005 0.0004995167
vt 0.9995005 0.9995005
vt 0.0004995167 0.9995005
vt 0 0
vt 1 0
vt 1 1
vt 0 1
vt 0 0
vt 1 0
vt 1 1
vt 0 1
vt 0.0004995167 0.0004995167
vt 0.9995005 0.0004995167
vt 0.9995005 0.9995005
vt 0.0004995167 0.9995005
vt 0.0004995167 0.0004995167
vt 0.9995005 0.0004995167
vt 0.9995005 0.9995005
vt 0.0004995167 0.9995005

usemtl sn11_44_Asc05.bmp
usemap sn11_44_Asc05.bmp
f 3/3/3 1/1/1 2/2/2
f 1/1/1 3/3/3 4/4/4
f 7/7/7 5/5/5 6/6/6
f 5/5/5 7/7/7 8/8/8
f 11/11/11 9/9/9 10/10/10
f 9/9/9 11/11/11 12/12/12
f 15/15/15 13/13/13 14/14/14
f 13/13/13 15/15/15 16/16/16

usemtl sn11_43_Asc02.JPG
usemap sn11_43_Asc02.JPG
f 19/19/19 17/17/17 18/18/18
f 17/17/17 19/19/19 20/20/20
f 23/23/23 21/21/21 22/22/22
f 21/21/21 23/23/23 24/24/24
f 27/27/27 25/25/25 26/26/26
f 25/25/25 27/27/27 28/28/28
f 31/31/31 29/29/29 30/30/30
f 29/29/29 31/31/31 32/32/32

usemtl sn11_45_Asc06.bmp
usemap sn11_45_Asc06.bmp
f 35/35/35 33/33/33 34/34/34
f 33/33/33 35/35/35 36/36/36
f 39/39/39 37/37/37 38/38/38
f 37/37/37 39/39/39 40/40/40
f 43/43/43 41/41/41 42/42/42
f 41/41/41 43/43/43 44/44/44
f 47/47/47 45/45/45 46/46/46
f 45/45/45 47/47/47 48/48/48
f 51/51/51 49/49/49 50/50/50
f 49/49/49 51/51/51 52/52/52
f 55/55/55 53/53/53 54/54/54
f 53/53/53 55/55/55 56/56/56
f 59/59/59 57/57/57 58/58/58
f 57/57/57 59/59/59 60/60/60
f 63/63/63 61/61/61 62/62/62
f 61/61/61 63/63/63 64/64/64
