mtllib ./Object64.mtl
g Object64
v 7.440063 2.746452 3.000504
v -3.750488 2.746452 -9.872726
v -3.750488 15.29563 -9.872726
v 7.440063 15.29563 3.000504
v -3.637329 -1.369019 3.097153
v 7.326904 -1.369019 -9.969376
v 7.326904 11.18016 -9.969376
v -3.637329 11.18016 3.097153
v 3.749878 0.6064148 9.872055
v -7.440674 0.6064148 -3.001175
v -7.440674 14.95628 -3.001175
v 3.749878 14.95628 9.872055
v -7.327515 0.6064148 9.968689
v 3.636719 0.6064148 -3.0979
v 3.636719 14.95628 -3.0979
v -7.327515 14.95628 9.968689

vn 0.7547089 0 -0.6560599
vn 0.7547089 0 -0.6560599
vn 0.7547089 0 -0.6560599
vn 0.7547089 0 -0.6560599
vn 0.7660412 0 0.6427916
vn 0.7660412 0 0.6427916
vn 0.7660412 0 0.6427916
vn 0.7660412 0 0.6427916
vn 0.7547089 0 -0.6560598
vn 0.7547089 0 -0.6560598
vn 0.7547089 0 -0.6560598
vn 0.7547089 0 -0.6560598
vn 0.7660426 0 0.6427898
vn 0.7660426 0 0.6427898
vn 0.7660426 0 0.6427898
vn 0.7660426 0 0.6427898

vt 0 0
vt 1 0
vt 1 1
vt 0 1
vt 0 0
vt 1 0
vt 1 1
vt 0 1
vt 0.0004995167 0.0004995167
vt 0.9995005 0.0004995167
vt 0.9995005 0.9995005
vt 0.0004995167 0.9995005
vt 0.0004995167 0.0004995167
vt 0.9995005 0.0004995167
vt 0.9995005 0.9995005
vt 0.0004995167 0.9995005

usemtl sn11_44_Asc05.bmp
usemap sn11_44_Asc05.bmp
f 3/3/3 1/1/1 2/2/2
f 1/1/1 3/3/3 4/4/4
f 7/7/7 5/5/5 6/6/6
f 5/5/5 7/7/7 8/8/8
f 11/11/11 9/9/9 10/10/10
f 9/9/9 11/11/11 12/12/12
f 15/15/15 13/13/13 14/14/14
f 13/13/13 15/15/15 16/16/16
