mtllib ./Plane01.mtl
g Plane01
v 2360.226 92.7758 -7501.028
v 2865.845 359.6734 -5110.301
v 1862.593 1031.211 -5388.714
v 1421.574 234.6339 -7932.359
v 599.3962 1402.169 -5551.832
v 479.1141 377.0676 -8149.117
v -540.708 1574.472 -5551.832
v -461.4418 519.2136 -8149.117
v -1810.984 1586.398 -5388.714
v -1403.902 661.6473 -7932.359
v -2834.676 1221.192 -5110.301
v -2342.553 803.5055 -7501.028
v 3239.265 754.0081 -1611.822
v 2184.732 1613.347 -1689.553
v 687.2948 2151.281 -1751.084
v -598.6334 2345.623 -1751.083
v -2108.322 2262.155 -1689.555
v -3190.375 1725.718 -1611.822
v 3239.265 754.008 1611.82
v 2184.732 1613.347 1689.552
v 687.2943 2151.281 1751.082
v -598.634 2345.623 1751.082
v -2108.323 2262.155 1689.553
v -3190.375 1725.718 1611.82
v 2865.845 359.6732 5110.302
v 1862.593 1031.211 5388.714
v 599.3958 1402.168 5551.832
v -540.7087 1574.472 5551.832
v -1810.984 1586.397 5388.715
v -2834.676 1221.192 5110.302
v 2360.226 92.77557 7501.029
v 1421.574 234.6336 7932.359
v 479.1136 377.0674 8149.117
v -461.4424 519.2134 8149.118
v -1403.902 661.647 7932.358
v -2342.554 803.5052 7501.028

vn -0.7318196 -0.6256815 0.2701162
vn -0.8437267 -0.5073764 0.1751982
vn -0.695092 -0.6832743 0.2235691
vn -0.5821693 -0.7371556 0.3430456
vn -0.5391459 -0.8016521 0.258216
vn -0.4859942 -0.792383 0.3686988
vn -0.3849104 -0.884489 0.2636724
vn -0.3803966 -0.850641 0.3629162
vn -0.1385092 -0.9549437 0.2624834
vn -0.231681 -0.9226679 0.3082335
vn -0.07327059 -0.9681474 0.2394201
vn -0.4297485 -0.889339 0.1561802
vn -0.8705523 -0.4891533 0.05355063
vn -0.7581201 -0.6465516 0.08499996
vn -0.5804697 -0.8083193 0.09836008
vn -0.3966426 -0.9124495 0.1005508
vn -0.1386313 -0.984656 0.1059894
vn 0.06952131 -0.9896085 0.1258629
vn -0.8577401 -0.5017058 -0.1121306
vn -0.7612273 -0.6411577 -0.09721114
vn -0.5870033 -0.8036635 -0.09773457
vn -0.4043839 -0.9089974 -0.1009816
vn -0.1460255 -0.9849398 -0.0925744
vn 0.09179345 -0.9939495 -0.06031633
vn -0.7789379 -0.5879335 -0.2181514
vn -0.7399149 -0.6276498 -0.2420366
vn -0.569761 -0.7806781 -0.2567373
vn -0.4203113 -0.8685211 -0.2626969
vn -0.2212214 -0.9455133 -0.2388841
vn 0.05370289 -0.9791563 -0.1958797
vn -0.5519277 -0.8196666 -0.1533696
vn -0.6729422 -0.6804379 -0.2900915
vn -0.5439636 -0.7604259 -0.3547621
vn -0.4400636 -0.8177158 -0.3710591
vn -0.3379301 -0.8717115 -0.3548554
vn -0.1416339 -0.9457744 -0.292319

vt 0.9946653 0.0330027
vt 0.796443 0.03252514
vt 0.7969416 0.2267694
vt 0.9949136 0.2278097
vt 0.7972338 0.4322185
vt 0.9950384 0.4330324
vt 0.7972338 0.6516773
vt 0.9950384 0.6511036
vt 0.7969416 0.8636072
vt 0.9949136 0.8629169
vt 0.796443 1.057887
vt 0.9946653 1.057362
vt 0.5776675 0.03217617
vt 0.5782534 0.2260095
vt 0.5787172 0.4316236
vt 0.5787172 0.6520964
vt 0.5782534 0.8641113
vt 0.5776675 1.058271
vt 0.3720513 0.03217617
vt 0.3715081 0.2260095
vt 0.3710781 0.4316236
vt 0.3710781 0.6520964
vt 0.3715081 0.8641113
vt 0.3720513 1.058271
vt 0.1719547 0.03252514
vt 0.1716897 0.2267694
vt 0.1715345 0.4322185
vt 0.1715345 0.6516773
vt 0.1716897 0.8636072
vt 0.1719547 1.057887
vt -0.0003265627 0.0330027
vt -0.001316775 0.2278097
vt -0.001814391 0.4330324
vt -0.001814395 0.6511036
vt -0.001316775 0.8629169
vt -0.0003265627 1.057362

usemtl sn11_61_Asc08.jpg
usemap sn11_61_Asc08.jpg
f 3/3/3 1/1/1 2/2/2
f 1/1/1 3/3/3 4/4/4
f 5/5/5 4/4/4 3/3/3
f 4/4/4 5/5/5 6/6/6
f 7/7/7 6/6/6 5/5/5
f 6/6/6 7/7/7 8/8/8
f 9/9/9 8/8/8 7/7/7
f 8/8/8 9/9/9 10/10/10
f 11/11/11 10/10/10 9/9/9
f 10/10/10 11/11/11 12/12/12
f 14/14/14 2/2/2 13/13/13
f 2/2/2 14/14/14 3/3/3
f 15/15/15 3/3/3 14/14/14
f 3/3/3 15/15/15 5/5/5
f 16/16/16 5/5/5 15/15/15
f 5/5/5 16/16/16 7/7/7
f 17/17/17 7/7/7 16/16/16
f 7/7/7 17/17/17 9/9/9
f 18/18/18 9/9/9 17/17/17
f 9/9/9 18/18/18 11/11/11
f 20/20/20 13/13/13 19/19/19
f 13/13/13 20/20/20 14/14/14
f 21/21/21 14/14/14 20/20/20
f 14/14/14 21/21/21 15/15/15
f 22/22/22 15/15/15 21/21/21
f 15/15/15 22/22/22 16/16/16
f 23/23/23 16/16/16 22/22/22
f 16/16/16 23/23/23 17/17/17
f 24/24/24 17/17/17 23/23/23
f 17/17/17 24/24/24 18/18/18
f 26/26/26 19/19/19 25/25/25
f 19/19/19 26/26/26 20/20/20
f 27/27/27 20/20/20 26/26/26
f 20/20/20 27/27/27 21/21/21
f 28/28/28 21/21/21 27/27/27
f 21/21/21 28/28/28 22/22/22
f 29/29/29 22/22/22 28/28/28
f 22/22/22 29/29/29 23/23/23
f 30/30/30 23/23/23 29/29/29
f 23/23/23 30/30/30 24/24/24
f 32/32/32 25/25/25 31/31/31
f 25/25/25 32/32/32 26/26/26
f 33/33/33 26/26/26 32/32/32
f 26/26/26 33/33/33 27/27/27
f 34/34/34 27/27/27 33/33/33
f 27/27/27 34/34/34 28/28/28
f 35/35/35 28/28/28 34/34/34
f 28/28/28 35/35/35 29/29/29
f 36/36/36 29/29/29 35/35/35
f 29/29/29 36/36/36 30/30/30
