mtllib ./wuy03.mtl
g wuy03
v 18.20226 1.884827 0.08325195
v 32.97018 1.479156 0.08325195
v 33.01324 -1.479431 -0.08203125
v 17.27167 -1.479431 -0.08203125
v -15.27386 1.479156 0.08325195
v -16.20446 -1.479431 -0.08203125
v -31.72882 -1.479431 -0.08203125
v -32.06478 1.479156 0.08325195
v 37.51849 -1.378479 0.08325195
v 32.97018 5.018127 0.1831055
v 37.51849 5.018127 0.1831055

vn 0 0.05056639 -0.9987207
vn 0.01126658 0.04981978 -0.9986947
vn 0.004897981 0.05261917 -0.9986026
vn -0.0002534042 0.05165518 -0.998665
vn -0.0002565728 0.05296476 -0.9985963
vn 0 0.0557786 -0.9984432
vn 0 0.0557786 -0.9984431
vn 0 0.0557786 -0.9984432
vn 0.01294002 0.02835237 -0.9995143
vn 0.006312927 0.02009574 -0.9997782
vn 0 0.01560849 -0.9998782

vt 0.6955624 0.7205002
vt 0.6955623 0.9063018
vt 0.5964081 0.906826
vt 0.5964082 0.7091749
vt 0.6955624 0.313097
vt 0.5964082 0.3017716
vt 0.5964083 0.09865921
vt 0.6955624 0.09909787
vt 0.5980873 0.9995005
vt 0.7873953 0.9063018
vt 0.7873953 0.9995005

usemtl sn11_20_kmsc04.bmp
usemap sn11_20_kmsc04.bmp
f 3/3/3 1/1/1 2/2/2
f 1/1/1 3/3/3 4/4/4
f 4/4/4 5/5/5 1/1/1
f 5/5/5 4/4/4 6/6/6
f 8/8/8 6/6/6 7/7/7
f 6/6/6 8/8/8 5/5/5
f 3/3/3 2/2/2 9/9/9
f 9/9/9 10/10/10 11/11/11
f 10/10/10 9/9/9 2/2/2
