mtllib ./yinzi05.mtl
g yinzi05
v -703.1837 -10.15009 24.38686
v -640.28 -10.15009 148.1868
v -653.653 -10.15009 23.86208
v -689.514 -10.15009 163.1772
v -599.8301 -10.15009 268.2364
v -649.0302 -10.15009 296.634
v -537.7747 -10.15009 387.682
v -583.2884 -10.15009 419.6284
v -459.1314 -10.15009 483.5091
v -494.8147 -10.15009 527.434
v -387.0093 -10.15009 615.9078
v -354.2032 -10.15009 573.537
v -244.8748 -10.15009 631.9742
v -264.0148 -10.15009 681.6497
v -117.968 -10.15009 657.7775
v -160.7507 -10.15009 726.4014
v -56.88522 -10.15015 671.8972
v -70.30623 -10.15015 731.4333
v 8.232483 -10.15015 735.8029
v 134.7855 -10.15009 636.8864
v 17.7575 -7.554565 661.5121
v 184.1324 -10.15015 733.6877
v 253.4138 -10.15009 600.9008
v 280.4796 -10.15009 681.6497
v 362.7421 -10.15009 542.4635
v 403.474 -10.15009 615.9077
v 458.5693 -10.15009 463.8203
v 511.2795 -10.15009 527.434
v 537.2126 -10.15009 367.9931
v 599.7533 -10.15009 419.6284
v 595.6498 -10.15009 258.6647
v 665.4952 -10.15009 296.6339
v 631.6353 -10.15009 140.0365
v 705.9788 -10.15009 163.1772
v 655.0386 -10.15009 15.77669
v 719.6485 -10.15015 24.38682
v 646.0908 -10.15009 -107.4948
v 705.9788 -10.15009 -114.4035
v 613.0512 -10.15015 -226.0709
v 665.4951 -10.15015 -247.8604
v 560.5887 -10.15015 -339.5252
v 642.1137 -10.15009 -356.0685
v 484.4783 -10.14996 -436.8658
v 565.052 -10.15009 -477.1073
v 394.3947 -10.15009 -526.2273
v 459.6246 -10.14996 -606.0045
v 261.1268 -10.15009 -584.0394
v 280.4794 -10.15015 -632.8759
v 140.7206 -10.15009 -623.7732
v 147.0226 -10.15009 -673.3596
v 11.41616 -10.15009 -633.4644
v 8.232313 -10.15009 -687.0292
v -106.3887 -10.15015 -635.4218
v -100.67 -10.15009 -692.3613
v -240.9598 -10.15015 -590.7833
v -260.6968 -10.15015 -632.1826
v -365.0074 -10.15009 -545.4575
v -490.8203 -10.15009 -569.7144
v -455.6036 -10.14996 -442.9802
v -494.8146 -10.15015 -478.6602
v -566.4177 -10.15009 -377.4153
v -618.6167 -10.15009 -407.1467
v -647.9245 -10.14996 -244.7173
v -719.6492 -10.15009 -234.5194
v -651.2646 -10.14996 -117.6605
v -689.514 -10.15015 -114.4034
v -502.6588 -10.15009 118.1058
v -517.0587 -10.15009 14.21473
v -474.3176 -10.15009 219.7064
v -434.588 -10.15009 317.2162
v -353.5669 -10.15009 419.2685
v -283.0198 -10.15009 477.0693
v -194.4078 -10.15009 518.4012
v -97.26845 -10.15009 561.9103
v -108.914 -10.15009 556.6943
v 10.67961 -10.15015 572.5422
v -43.29438 -10.15015 567.2263
v 65.02199 -10.15015 565.9506
v 119.3644 -10.15009 559.359
v 223.164 -10.15009 527.8718
v 131.7493 -10.15009 555.6021
v 318.8264 -10.15009 476.739
v 402.6751 -10.15009 407.9261
v 471.488 -10.15009 324.0773
v 522.6206 -10.15009 228.4151
v 554.1079 -10.15009 124.6154
v 553.3732 -10.15009 17.92542
v 544.9521 -10.15009 -91.77312
v 509.6626 -10.15015 -191.0386
v 461.119 -10.15009 -283.1347
v 391.7573 -10.15015 -358.9658
v 310.6657 -10.15015 -425.2367
v 214.8135 -10.15009 -473.4735
v 112.71 -10.15015 -494.8082
v 10.6795 -10.15009 -507.8181
v -95.77586 -10.15009 -501.3247
v -188.3617 -10.15015 -469.3694
v -95.77586 -10.15009 -501.3247
v -277.0755 -10.15015 -421.13
v -357.1563 -10.15009 -361.9742
v -430.6495 -10.15009 -278.8617
v -500.5248 -10.15015 -192.529
v -502.8869 -10.15015 -86.86859
v -470.8079 7.057068 110.7614
v -483.34 0.7734985 19.2187
v -413.6092 7.098267 193.6523
v -376.2572 -1.463928 282.7131
v -337.5204 2.477356 369.4357
v -269.9685 6.741821 430.2742
v -173.1319 -10.15009 456.1147
v -59.42015 -9.61084 484.3722
v -75.92921 -9.681946 493.0695
v 5.331158 -9.510864 502.0167
v -29.16973 -9.61084 496.7737
v 41.11902 -9.410889 502.8968
v 192.9144 -10.15009 454.8425
v 108.6685 -9.6922 495.5963
v 274.9106 -10.15009 411.0146
v 377.5999 1.571289 364.3434
v 436.5824 1.571289 292.473
v 449.5914 -10.15009 198.1654
v 476.5805 -10.15009 109.1943
v 509.2247 1.563538 16.66736
v 505.556 10.15015 -98.40266
v 462.3871 -7.352295 -164.8307
v 421.2531 -7.613831 -271.4996
v 359.3859 -7.613831 -331.0929
v 287.8882 -7.613647 -397.1787
v 192.9143 -10.15009 -421.5078
v 103.2065 -10.14996 -445.9456
v 39.8597 4.069458 -473.7605
v -73.08292 4.900635 -470.5761
v -180.5371 4.745178 -432.7664
v -73.08292 4.900635 -470.5761
v -252.8148 -10.15015 -375.1285
v -331.4927 -2.107849 -326.5909
v -410.4979 0.9058228 -247.2567
v -452.8369 0.6610107 -173.9826
v -474.2269 0.7734985 -73.30814
v -158.4815 -9.21759 -760.5408
v -304.3358 -9.217651 -701.8347
v -505.1449 -9.21759 -618.1981
v -226.7973 -8.494141 -823.361
v -330.5941 -8.494202 -768.8591
v -502.9744 -8.494141 -678.6682
v -145.2896 -8.942749 770.07
v -40.9194 -8.94281 773.2744
v 9.249973 -8.94281 774.8148
v 167.067 -8.94281 767.9573
v -127.2843 -6.265564 799.8674
v 11.50615 -6.265625 823.3611
v 150.2965 -6.265625 799.8673
v 89.98044 -9.61084 490.3853

vn -1.595899E-09 1 -1.506268E-07
vn 0 1 0
vn -3.502116E-07 1 2.569829E-07
vn 0 1 0
vn 0 1 0
vn 0 1 0
vn 0 1 0
vn 0 1 0
vn 0 1 0
vn 0 1 0
vn 0 1 0
vn 0 1 0
vn 0 1 0
vn 0 1 0
vn 3.228412E-07 0.9999999 9.244379E-08
vn 0.0002632102 0.9999888 -0.004722714
vn -0.01457569 0.9998662 -0.007429122
vn -0.005592595 0.9999665 -0.005977541
vn 0.005753797 0.9999763 0.003788077
vn 0.006877422 0.9999669 0.004332035
vn -3.389283E-07 1 -5.614569E-08
vn -0.0002094402 0.9999696 -0.007787337
vn -4.486708E-08 1 1.46032E-07
vn -1.574145E-07 0.9999999 5.276293E-08
vn 0 1 0
vn 0 1 0
vn 0 1 0
vn 0 1 0
vn 0 1 0
vn 0 0.9999999 0
vn 0 1 0
vn 0 1 0
vn 0 1 0
vn 3.026832E-07 0.9999999 -1.046044E-07
vn 2.617591E-07 1 -5.791604E-08
vn 6.675731E-07 1 0
vn 7.347134E-08 1 -2.162828E-07
vn -5.631231E-08 1 -1.355347E-07
vn 8.454633E-08 0.9999999 -1.643866E-07
vn -2.863494E-07 1 1.32411E-07
vn -5.979285E-08 1 6.558439E-07
vn 2.005453E-07 0.9999999 5.30095E-07
vn -2.03163E-07 1 3.951317E-07
vn 3.64843E-07 1 -2.322844E-07
vn -2.408642E-07 0.9999999 2.507444E-07
vn -5.027218E-07 1 5.587142E-07
vn -2.753716E-07 1 -1.35211E-08
vn -8.119316E-08 1 -9.40823E-07
vn 1.521379E-07 1 1.253037E-07
vn 1.459521E-07 1 1.854927E-08
vn -1.728644E-07 1 -9.681681E-08
vn -1.804061E-07 1 3.433294E-07
vn -2.839545E-07 1 5.22488E-08
vn 0.001565576 0.9999901 0.004164038
vn 1.800243E-07 1 1.433922E-07
vn 0.00231176 0.999974 0.006832661
vn 5.882928E-07 1 -2.712125E-07
vn 0.002199646 0.9999766 0.006487744
vn -1.529971E-07 1 -6.01468E-08
vn -1.892005E-06 1 -9.647028E-07
vn 1.99445E-08 1 -3.824262E-08
vn -5.55882E-07 0.9999999 -7.786205E-07
vn 4.569804E-07 0.9999999 -2.395269E-07
vn -2.323684E-06 1 -1.945766E-07
vn -2.468629E-07 1 3.087596E-07
vn -2.790621E-06 1 5.341062E-07
vn -0.06589815 0.9977322 0.01370644
vn -0.06530038 0.9978656 0.0003045205
vn -0.07659443 0.9961449 0.04276382
vn -0.03712884 0.9991465 0.01810173
vn -0.07931169 0.9941521 0.07329011
vn -0.01151163 0.9983435 0.05637209
vn -0.0008056946 0.9999994 0.0005144189
vn -0.0004515843 0.9999982 0.001889477
vn -0.0009723341 0.9999968 0.002371487
vn -0.008320648 0.9999446 -0.006462001
vn -0.0007779248 0.9999921 0.003898147
vn -0.0001908061 0.9999615 -0.008770457
vn 0.009039065 0.999938 -0.006510239
vn 0 1 0
vn 0.00209223 0.9999968 0.001472337
vn 0.0007305634 0.9995429 0.03022241
vn 0.06291934 0.9962549 0.05930783
vn 0.05559243 0.9983761 0.01243411
vn 0 0.9999999 0
vn 0.02251456 0.999567 0.01894353
vn 0.1039339 0.9945785 0.003380242
vn 0.08482519 0.9956234 -0.03922777
vn 0.01567673 0.9998539 -0.006820378
vn 0.01186259 0.9998857 -0.009373084
vn 0.01031688 0.9998863 -0.01099842
vn 0.002842374 0.9999552 -0.00903772
vn 1.154982E-07 1 -1.191928E-07
vn 0.01625916 0.999572 -0.02431506
vn 0.00130653 0.9962041 -0.08703848
vn -0.002997407 0.9987876 -0.04913676
vn -0.0330849 0.9986042 -0.04117074
vn -0.05047573 0.9883049 -0.1438939
vn -0.001698186 0.9999077 -0.01347367
vn -0.03211461 0.9988294 -0.03617155
vn -0.04115561 0.9986621 -0.03130629
vn -0.04416269 0.998924 -0.01416288
vn -0.05494836 0.9984781 -0.004709186
vn -0.3387045 0.9362006 0.09384903
vn -0.3151793 0.948435 -0.03366353
vn -0.2053084 0.9654084 0.160733
vn -0.1514694 0.9851982 0.08025824
vn -0.1877571 0.9756024 0.1137859
vn -0.1153168 0.9543087 0.2756751
vn 0.0178416 0.9946841 0.1014155
vn -0.002127143 0.9999799 0.005979004
vn -0.00332272 0.9999914 0.00247755
vn -0.002372402 0.9999608 0.008533121
vn -0.002111551 0.9999747 0.006807892
vn 0.002015691 0.9999478 0.01000953
vn 0.00221547 0.9999967 0.001344878
vn 0.006362603 0.9999663 0.005195293
vn -0.0312363 0.9992941 0.02087144
vn 0.04698304 0.9920141 0.1170502
vn 0.2419956 0.9660011 0.09099503
vn 0.07527175 0.997077 -0.01309008
vn -0.00767305 0.9992262 0.03857509
vn 0.1361737 0.9882138 0.06992881
vn 0.3932751 0.9128713 -0.1095473
vn 0.1419487 0.9819407 -0.1250726
vn 0.05018697 0.9982821 -0.03023766
vn 0.04391451 0.998058 -0.04417895
vn 0.0292303 0.9976831 -0.06143328
vn -0.0006534926 0.9997863 -0.02066029
vn 0.050471 0.9986773 0.00981411
vn 0.07960988 0.9590519 -0.2718121
vn -0.01426745 0.9154971 -0.4020713
vn -0.2070673 0.9196927 -0.3335994
vn -0.1275004 0.924762 -0.3585514
vn -0.07810557 0.9931176 -0.08727545
vn -0.04525303 0.9928771 -0.1102152
vn -0.1885682 0.9680462 -0.1653138
vn -0.2056348 0.97293 -0.1054585
vn -0.2825193 0.9587457 -0.03145315
vn 0.003805758 0.9999457 0.009699716
vn 0.004186683 0.9999324 0.01084672
vn 0.005533745 0.9999076 0.01241785
vn 0.003797976 0.9999577 0.008376531
vn 0.004819707 0.9999377 0.01006828
vn 0.0063791 0.9999053 0.01219159
vn 0.001653171 0.9989441 -0.04591348
vn 0.001703018 0.9987513 -0.04992756
vn 0.001324273 0.9989203 -0.04643823
vn -0.005256966 0.9983137 -0.05781039
vn 0.0067312 0.9975301 -0.06991692
vn -0.0009957999 0.9979981 -0.06323534
vn -0.01552111 0.9956666 -0.09169152
vn 0.003335153 0.9999618 0.008079211

vt 0.988072 0.5147944
vt 0.9444113 0.5898989
vt 0.9536933 0.5144761
vt 0.9785841 0.5989931
vt 0.9163354 0.6627283
vt 0.9504847 0.679956
vt 0.8732635 0.7351912
vt 0.9048541 0.7545718
vt 0.818678 0.7933257
vt 0.8434454 0.8199732
vt 0.7686188 0.8736467
vt 0.7458485 0.8479421
vt 0.6699648 0.8833936
vt 0.6832497 0.9135297
vt 0.5818802 0.8990474
vt 0.6115752 0.9406788
vt 0.5394833 0.9076133
vt 0.5487987 0.9437315
vt 0.4942858 0.9463824
vt 0.4064467 0.8863736
vt 0.4876746 0.9013131
vt 0.3721955 0.9450992
vt 0.3241081 0.8645427
vt 0.305322 0.9135298
vt 0.2482245 0.8290911
vt 0.2199529 0.8736467
vt 0.1817118 0.7813814
vt 0.1451262 0.8199732
vt 0.1271264 0.7232469
vt 0.08371753 0.7545719
vt 0.08656567 0.6569216
vt 0.0380868 0.6799561
vt 0.06158853 0.5849547
vt 0.009987503 0.5989932
vt 0.0453445 0.5095712
vt 0.0004995167 0.5147946
vt 0.05155513 0.4347872
vt 0.009987473 0.430596
vt 0.07448751 0.3628519
vt 0.03808674 0.349633
vt 0.1109011 0.2940236
vt 0.05431551 0.2839875
vt 0.1637285 0.2349709
vt 0.1078032 0.210558
vt 0.2262546 0.1807588
vt 0.1809792 0.1323612
vt 0.3187544 0.1456865
vt 0.3053219 0.1160594
vt 0.402327 0.1215816
vt 0.3979528 0.09149951
vt 0.4920758 0.1157023
vt 0.4942857 0.08320668
vt 0.5738429 0.1145148
vt 0.5698736 0.07997191
vt 0.6672473 0.1415952
vt 0.6809465 0.1164799
vt 0.7533473 0.1690925
vt 0.8406727 0.1543768
vt 0.8162292 0.2312614
vt 0.8434452 0.2096158
vt 0.8931441 0.271037
vt 0.9293749 0.2530001
vt 0.9497172 0.3515396
vt 0.9995005 0.3577262
vt 0.9520355 0.42862
vt 0.9785839 0.4305959
vt 0.8488898 0.57165
vt 0.8588847 0.5086234
vt 0.8292185 0.6332871
vt 0.8016426 0.6924424
vt 0.7454067 0.7543535
vt 0.6964408 0.7894189
vt 0.6349362 0.8144934
vt 0.5675128 0.8408886
vt 0.5755959 0.8377243
vt 0.4925872 0.8473386
vt 0.53005 0.8441136
vt 0.4548688 0.8433397
vt 0.4171503 0.8393409
vt 0.3451041 0.8202388
vt 0.4085541 0.8370617
vt 0.2787059 0.7892187
vt 0.2205074 0.7474726
vt 0.172745 0.6966049
vt 0.1372544 0.6385704
vt 0.1153995 0.5755993
vt 0.1159094 0.5108747
vt 0.1217544 0.444325
vt 0.1462484 0.3841045
vt 0.179942 0.3282335
vt 0.2280852 0.2822298
vt 0.2843699 0.2420258
vt 0.3509 0.2127625
vt 0.4217689 0.1998195
vt 0.4925871 0.1831296
vt 0.5664766 0.1870689
vt 0.6307395 0.2152522
vt 0.5664766 0.1958662
vt 0.6923148 0.2445171
vt 0.747898 0.2804045
vt 0.7989089 0.3308256
vt 0.8474086 0.3832002
vt 0.8490481 0.4473002
vt 0.8267825 0.5671945
vt 0.8354808 0.5116591
vt 0.7870815 0.6174811
vt 0.7611558 0.6715108
vt 0.7342691 0.7241219
vt 0.6873821 0.7610302
vt 0.6201688 0.7767066
vt 0.5412427 0.7938493
vt 0.5527015 0.7991257
vt 0.4962995 0.8045536
vt 0.5202462 0.8013729
vt 0.4714596 0.8050874
vt 0.3661001 0.7759349
vt 0.4245742 0.8006586
vt 0.3091873 0.7493463
vt 0.2379118 0.7210327
vt 0.1969727 0.6774318
vt 0.1879432 0.6202191
vt 0.1692103 0.5662439
vt 0.1465524 0.5101115
vt 0.1490987 0.4403031
vt 0.1790618 0.4000038
vt 0.2076124 0.335292
vt 0.2505538 0.2991391
vt 0.3001796 0.2590474
vt 0.3661 0.244288
vt 0.4283652 0.2294625
vt 0.4855295 0.2015917
vt 0.5639217 0.2035235
vt 0.6253085 0.2374578
vt 0.5507258 0.2145202
vt 0.6754757 0.2724244
vt 0.7300852 0.3018702
vt 0.7849219 0.3499991
vt 0.814309 0.3944516
vt 0.8291556 0.4555268
vt 0.61 0.0386101
vt 0.7112358 0.07422474
vt 0.8506153 0.1249637
vt 0.6574172 0.0004995465
vt 0.7294614 0.03356367
vt 0.8491087 0.08827886
vt 0.6008438 0.9671708
vt 0.5284016 0.9691148
vt 0.4935796 0.9700493
vt 0.3840405 0.9658892
vt 0.5883465 0.9852477
vt 0.4920136 0.9995004
vt 0.3956807 0.9852477
vt 0.4375454 0.7974973

usemtl sn11_49_sngsc64.jpg
usemap sn11_49_sngsc64.jpg
f 3/3/3 1/1/1 2/2/2
f 2/2/2 1/1/1 4/4/4
f 2/2/2 4/4/4 5/5/5
f 5/5/5 4/4/4 6/6/6
f 5/5/5 6/6/6 7/7/7
f 7/7/7 6/6/6 8/8/8
f 7/7/7 8/8/8 9/9/9
f 9/9/9 8/8/8 10/10/10
f 9/9/9 10/10/10 11/11/11
f 12/12/12 9/9/9 11/11/11
f 12/12/12 11/11/11 13/13/13
f 13/13/13 11/11/11 14/14/14
f 13/13/13 14/14/14 15/15/15
f 15/15/15 14/14/14 16/16/16
f 15/15/15 16/16/16 17/17/17
f 17/17/17 16/16/16 18/18/18
f 21/21/21 19/19/19 20/20/20
f 20/20/20 19/19/19 22/22/22
f 20/20/20 22/22/22 23/23/23
f 23/23/23 22/22/22 24/24/24
f 23/23/23 24/24/24 25/25/25
f 25/25/25 24/24/24 26/26/26
f 25/25/25 26/26/26 27/27/27
f 27/27/27 26/26/26 28/28/28
f 27/27/27 28/28/28 29/29/29
f 29/29/29 28/28/28 30/30/30
f 29/29/29 30/30/30 31/31/31
f 31/31/31 30/30/30 32/32/32
f 31/31/31 32/32/32 33/33/33
f 33/33/33 32/32/32 34/34/34
f 33/33/33 34/34/34 35/35/35
f 35/35/35 34/34/34 36/36/36
f 35/35/35 36/36/36 37/37/37
f 37/37/37 36/36/36 38/38/38
f 37/37/37 38/38/38 39/39/39
f 39/39/39 38/38/38 40/40/40
f 39/39/39 40/40/40 41/41/41
f 41/41/41 40/40/40 42/42/42
f 41/41/41 42/42/42 43/43/43
f 43/43/43 42/42/42 44/44/44
f 43/43/43 44/44/44 45/45/45
f 45/45/45 44/44/44 46/46/46
f 45/45/45 46/46/46 47/47/47
f 47/47/47 46/46/46 48/48/48
f 47/47/47 48/48/48 49/49/49
f 49/49/49 48/48/48 50/50/50
f 49/49/49 50/50/50 51/51/51
f 51/51/51 50/50/50 52/52/52
f 51/51/51 52/52/52 53/53/53
f 53/53/53 52/52/52 54/54/54
f 53/53/53 54/54/54 55/55/55
f 55/55/55 54/54/54 56/56/56
f 55/55/55 56/56/56 57/57/57
f 57/57/57 56/56/56 58/58/58
f 57/57/57 58/58/58 59/59/59
f 59/59/59 58/58/58 60/60/60
f 59/59/59 60/60/60 61/61/61
f 61/61/61 60/60/60 62/62/62
f 61/61/61 62/62/62 63/63/63
f 63/63/63 62/62/62 64/64/64
f 63/63/63 64/64/64 65/65/65
f 65/65/65 64/64/64 66/66/66
f 65/65/65 66/66/66 3/3/3
f 3/3/3 66/66/66 1/1/1
f 68/68/68 3/3/3 67/67/67
f 67/67/67 3/3/3 2/2/2
f 67/67/67 2/2/2 69/69/69
f 69/69/69 2/2/2 5/5/5
f 69/69/69 5/5/5 70/70/70
f 70/70/70 5/5/5 7/7/7
f 70/70/70 7/7/7 9/9/9
f 71/71/71 70/70/70 9/9/9
f 71/71/71 9/9/9 72/72/72
f 72/72/72 9/9/9 12/12/12
f 72/72/72 12/12/12 73/73/73
f 73/73/73 12/12/12 13/13/13
f 75/75/75 13/13/13 74/74/74
f 74/74/74 13/13/13 15/15/15
f 77/77/77 15/15/15 76/76/76
f 76/76/76 15/15/15 17/17/17
f 76/76/76 21/21/21 78/78/78
f 79/79/79 21/21/21 20/20/20
f 81/81/81 20/20/20 80/80/80
f 80/80/80 20/20/20 23/23/23
f 80/80/80 23/23/23 82/82/82
f 82/82/82 23/23/23 25/25/25
f 82/82/82 25/25/25 83/83/83
f 83/83/83 25/25/25 27/27/27
f 83/83/83 27/27/27 84/84/84
f 84/84/84 27/27/27 29/29/29
f 84/84/84 29/29/29 85/85/85
f 85/85/85 29/29/29 31/31/31
f 85/85/85 31/31/31 86/86/86
f 86/86/86 31/31/31 33/33/33
f 86/86/86 33/33/33 87/87/87
f 87/87/87 33/33/33 35/35/35
f 87/87/87 35/35/35 88/88/88
f 88/88/88 35/35/35 37/37/37
f 88/88/88 37/37/37 89/89/89
f 89/89/89 37/37/37 39/39/39
f 89/89/89 39/39/39 90/90/90
f 90/90/90 39/39/39 41/41/41
f 90/90/90 41/41/41 91/91/91
f 91/91/91 41/41/41 43/43/43
f 91/91/91 43/43/43 92/92/92
f 92/92/92 43/43/43 45/45/45
f 92/92/92 45/45/45 93/93/93
f 93/93/93 45/45/45 47/47/47
f 93/93/93 47/47/47 94/94/94
f 94/94/94 47/47/47 49/49/49
f 94/94/94 49/49/49 95/95/95
f 95/95/95 49/49/49 51/51/51
f 95/95/95 51/51/51 96/96/96
f 96/96/96 51/51/51 53/53/53
f 98/98/98 53/53/53 97/97/97
f 97/97/97 53/53/53 55/55/55
f 97/97/97 55/55/55 99/99/99
f 99/99/99 55/55/55 57/57/57
f 99/99/99 57/57/57 100/100/100
f 100/100/100 57/57/57 59/59/59
f 100/100/100 59/59/59 101/101/101
f 101/101/101 59/59/59 61/61/61
f 101/101/101 61/61/61 102/102/102
f 102/102/102 61/61/61 63/63/63
f 102/102/102 63/63/63 103/103/103
f 103/103/103 63/63/63 65/65/65
f 103/103/103 65/65/65 68/68/68
f 68/68/68 65/65/65 3/3/3
f 105/105/105 68/68/68 104/104/104
f 104/104/104 68/68/68 67/67/67
f 104/104/104 67/67/67 69/69/69
f 106/106/106 104/104/104 69/69/69
f 106/106/106 69/69/69 107/107/107
f 107/107/107 69/69/69 70/70/70
f 107/107/107 70/70/70 108/108/108
f 108/108/108 70/70/70 71/71/71
f 108/108/108 71/71/71 109/109/109
f 109/109/109 71/71/71 72/72/72
f 109/109/109 72/72/72 110/110/110
f 110/110/110 72/72/72 73/73/73
f 112/112/112 75/75/75 111/111/111
f 111/111/111 75/75/75 74/74/74
f 114/114/114 77/77/77 113/113/113
f 113/113/113 77/77/77 76/76/76
f 113/113/113 76/76/76 115/115/115
f 115/115/115 76/76/76 78/78/78
f 117/117/117 81/81/81 116/116/116
f 116/116/116 81/81/81 80/80/80
f 116/116/116 80/80/80 118/118/118
f 118/118/118 80/80/80 82/82/82
f 118/118/118 82/82/82 119/119/119
f 119/119/119 82/82/82 83/83/83
f 119/119/119 83/83/83 120/120/120
f 120/120/120 83/83/83 84/84/84
f 120/120/120 84/84/84 121/121/121
f 121/121/121 84/84/84 85/85/85
f 121/121/121 85/85/85 122/122/122
f 122/122/122 85/85/85 86/86/86
f 122/122/122 86/86/86 123/123/123
f 123/123/123 86/86/86 87/87/87
f 123/123/123 87/87/87 124/124/124
f 124/124/124 87/87/87 88/88/88
f 124/124/124 88/88/88 125/125/125
f 125/125/125 88/88/88 89/89/89
f 125/125/125 89/89/89 126/126/126
f 126/126/126 89/89/89 90/90/90
f 126/126/126 90/90/90 127/127/127
f 127/127/127 90/90/90 91/91/91
f 127/127/127 91/91/91 128/128/128
f 128/128/128 91/91/91 92/92/92
f 128/128/128 92/92/92 129/129/129
f 129/129/129 92/92/92 93/93/93
f 129/129/129 93/93/93 130/130/130
f 130/130/130 93/93/93 94/94/94
f 130/130/130 94/94/94 131/131/131
f 131/131/131 94/94/94 95/95/95
f 131/131/131 95/95/95 132/132/132
f 132/132/132 95/95/95 96/96/96
f 134/134/134 98/98/98 133/133/133
f 133/133/133 98/98/98 97/97/97
f 133/133/133 97/97/97 135/135/135
f 135/135/135 97/97/97 99/99/99
f 135/135/135 99/99/99 136/136/136
f 136/136/136 99/99/99 100/100/100
f 136/136/136 100/100/100 137/137/137
f 137/137/137 100/100/100 101/101/101
f 137/137/137 101/101/101 138/138/138
f 138/138/138 101/101/101 102/102/102
f 138/138/138 102/102/102 139/139/139
f 139/139/139 102/102/102 103/103/103
f 139/139/139 103/103/103 105/105/105
f 105/105/105 103/103/103 68/68/68
f 140/140/140 56/56/56 54/54/54
f 56/56/56 140/140/140 141/141/141
f 141/141/141 58/58/58 56/56/56
f 58/58/58 141/141/141 142/142/142
f 143/143/143 141/141/141 140/140/140
f 141/141/141 143/143/143 144/144/144
f 144/144/144 142/142/142 141/141/141
f 142/142/142 144/144/144 145/145/145
f 146/146/146 18/18/18 16/16/16
f 18/18/18 146/146/146 147/147/147
f 148/148/148 22/22/22 19/19/19
f 22/22/22 148/148/148 149/149/149
f 150/150/150 147/147/147 146/146/146
f 148/148/148 150/150/150 151/151/151
f 151/151/151 149/149/149 148/148/148
f 149/149/149 151/151/151 152/152/152
f 153/153/153 78/78/78 79/79/79
f 78/78/78 21/21/21 79/79/79
f 115/115/115 78/78/78 153/153/153
f 111/111/111 74/74/74 114/114/114
f 114/114/114 74/74/74 77/77/77
f 74/74/74 15/15/15 77/77/77
f 110/110/110 73/73/73 112/112/112
f 112/112/112 73/73/73 75/75/75
f 73/73/73 13/13/13 75/75/75
f 153/153/153 79/79/79 117/117/117
f 117/117/117 79/79/79 81/81/81
f 79/79/79 20/20/20 81/81/81
f 19/19/19 147/147/147 148/148/148
f 150/150/150 148/148/148 147/147/147
f 147/147/147 19/19/19 18/18/18
f 21/21/21 18/18/18 19/19/19
f 17/17/17 18/18/18 21/21/21
f 76/76/76 17/17/17 21/21/21
