mtllib ./BBox02.mtl
g 13
v -13.09757 -0.0004130527 -6.877225
v -0.632652 -0.0004130527 -6.768445
v -13.2176 -0.0004130527 6.876309
v 13.21721 -0.0004130527 -6.647578

vn 0 -1 0
vn 0 -1 0
vn 0 -1 0
vn 0 -0.9999999 0

vt 0.009142518 0.0004995465
vt 0.4782602 0.004593611
vt 0.004625231 0.5181143
vt 0.9995005 0.009142578

usemtl BBox02_00_BBox02.jpg
usemap BBox02_00_BBox02.jpg
f 3/3/3 1/1/1 2/2/2
f 3/3/3 2/2/2 4/4/4
g 12
v -13.1626 -0.0004130527 0.4813089
v 13.27221 -0.0004130527 -13.04258
v -13.27222 -0.0004130527 13.04257
v 13.15789 -0.0004130527 0.05745031

vn 0 -1 0
vn 0 -1 0
vn 0 -1 0
vn 0 -1 0

vt 0.004625231 0.5181143
vt 0.9995005 0.009142578
vt 0.0004995167 0.9908576
vt 0.9951978 0.5021626

usemtl BBox02_00_BBox02.jpg
usemap BBox02_00_BBox02.jpg
f 7/7/7 5/5/5 6/6/6
f 6/6/6 8/8/8 7/7/7
g 11
v 13.21489 -0.0004130527 -6.60755
v 0.4663971 -0.0004130527 6.496964
v -13.21522 -0.0004130527 6.377567
v 13.09957 -0.0004130527 6.607211

vn 0 -0.9999999 0
vn 0 -0.9999999 0
vn 0 -1 0
vn 0 -1 0

vt 0.9951978 0.5021626
vt 0.5154076 0.9953513
vt 0.0004995167 0.9908576
vt 0.9908575 0.9995005

usemtl BBox02_00_BBox02.jpg
usemap BBox02_00_BBox02.jpg
f 11/11/11 9/9/9 10/10/10
f 9/9/9 12/12/12 10/10/10
g 10
v -6.316603 -13.15841 -0.05503654
v 6.316569 -13.15841 0.05521011
v 6.316569 13.15877 0.05521011
v -3.455562 13.15877 -0.03006935

vn -0.008726447 9.09737E-09 0.9999619
vn -0.008726427 0 0.9999619
vn -0.008726447 9.09737E-09 0.9999619
vn -0.00872647 2.085823E-08 0.9999619

vt 0.5154076 0.0004995167
vt 0.9908575 0.0004995167
vt 0.9908575 0.9995005
vt 0.623083 0.9995005

usemtl BBox02_00_BBox02.jpg
usemap BBox02_00_BBox02.jpg
f 15/15/15 13/13/13 14/14/14
f 13/13/13 15/15/15 16/16/16
g 9
v 8.271439 13.15877 0.07193184
v -8.271219 13.15877 -0.07243252
v -8.271219 -13.15841 -0.07243252
v 5.410397 -13.15841 0.04696465

vn -0.008726479 1.09401E-08 0.999962
vn -0.008726462 0 0.999962
vn -0.008726479 1.09401E-08 0.999962
vn -0.0087265 2.416794E-08 0.9999619

vt 0.623083 0.9995005
vt 0.0004995167 0.9995005
vt 0.0004995167 0.0004995167
vt 0.5154076 0.0004995167

usemtl BBox02_00_BBox02.jpg
usemap BBox02_00_BBox02.jpg
f 19/19/19 17/17/17 18/18/18
f 17/17/17 19/19/19 20/20/20
g 8
v 0.05440235 -13.15841 -6.280691
v -0.0552187 -13.15841 6.280567
v -0.0552187 13.15877 6.280567
v 0.01831627 13.15877 -2.14567

vn -0.999962 -2.26612E-09 -0.008726579
vn -0.999962 0 -0.008726584
vn -0.999962 -2.26612E-09 -0.008726579
vn -0.9999619 -5.644296E-09 -0.008726572

vt 0.5181143 0.0004995167
vt 0.9908576 0.0004995167
vt 0.9908576 0.9995005
vt 0.6737359 0.9995005

usemtl BBox02_00_BBox02.jpg
usemap BBox02_00_BBox02.jpg
f 23/23/23 21/21/21 22/22/22
f 21/21/21 23/23/23 24/24/24
g 7
v -0.07768345 13.15877 8.94433
v 0.07842731 13.15877 -8.944225
v 0.07842827 -13.15841 -8.944225
v -0.04159737 -13.15841 4.809309

vn -0.9999619 -2.347647E-08 -0.008726537
vn -0.9999619 -3.595566E-08 -0.00872652
vn -0.9999619 -2.347647E-08 -0.008726537
vn -0.9999619 -7.245403E-09 -0.008726561

vt 0.6737359 0.9995005
vt 0.0004995465 0.9995005
vt 0.0004995465 0.0004995167
vt 0.5181143 0.0004995167

usemtl BBox02_00_BBox02.jpg
usemap BBox02_00_BBox02.jpg
f 27/27/27 25/25/25 26/26/26
f 25/25/25 27/27/27 28/28/28
g 6
v 6.232348 -13.15841 0.05455589
v -6.232572 -13.15841 -0.05422497
v -6.232573 13.15877 -0.05422497
v 5.495926 13.15877 0.04812908

vn 0.008726624 -1.497776E-09 -0.9999619
vn 0.008726628 3.633831E-10 -0.9999619
vn 0.008726624 -1.497776E-09 -0.9999619
vn 0.008726619 -3.475795E-09 -0.9999619

vt 0.5217398 0.0004995167
vt 0.9908575 0.0004995167
vt 0.9908575 0.9995005
vt 0.549455 0.9995005

usemtl BBox02_00_BBox02.jpg
usemap BBox02_00_BBox02.jpg
f 31/31/31 29/29/29 30/30/30
f 29/29/29 31/31/31 32/32/32
g 5
v -7.293074 13.15877 -0.06387138
v 7.293215 13.15877 0.0634222
v 7.293215 -13.15841 0.0634222
v -6.556652 -13.15841 -0.05744457

vn 0.008726599 -2.070745E-09 -0.9999619
vn 0.008726602 0 -0.999962
vn 0.008726599 -2.070745E-09 -0.9999619
vn 0.008726595 -4.251596E-09 -0.999962

vt 0.549455 0.9995005
vt 0.0004995167 0.9995005
vt 0.0004995167 0.0004995167
vt 0.5217398 0.0004995167

usemtl BBox02_00_BBox02.jpg
usemap BBox02_00_BBox02.jpg
f 35/35/35 33/33/33 34/34/34
f 33/33/33 35/35/35 36/36/36
g 4
v 0.06908989 13.15877 -7.936726
v -0.0694313 13.15877 7.936211
v -0.0694313 -13.15841 7.936211
v 0.04589176 -13.15841 -5.27855

vn 0.9999619 -1.136757E-08 0.008726528
vn 0.9999619 0 0.008726547
vn 0.9999619 -1.136757E-08 0.008726528
vn 0.9999619 -2.502175E-08 0.008726505

vt 0.597878 0.9995005
vt 0.0004995167 0.9995005
vt 0.0004995167 0.0004995167
vt 0.4978375 0.0004995167

usemtl BBox02_00_BBox02.jpg
usemap BBox02_00_BBox02.jpg
f 39/39/39 37/37/37 38/38/38
f 37/37/37 39/39/39 40/40/40
g 3
v -0.05710793 -13.15841 6.55045
v 0.05721474 -13.15841 -6.549578
v 0.05721474 13.15877 -6.549578
v -0.0339098 13.15877 3.892274

vn 0.999962 -1.019739E-08 0.00872655
vn 0.9999619 0 0.00872657
vn 0.999962 -1.019739E-08 0.00872655
vn 0.9999619 -2.299072E-08 0.008726523

vt 0.4978375 0.0004995167
vt 0.9908574 0.0004995167
vt 0.9908574 0.9995005
vt 0.597878 0.9995005

usemtl BBox02_00_BBox02.jpg
usemap BBox02_00_BBox02.jpg
f 43/43/43 41/41/41 42/42/42
f 41/41/41 43/43/43 44/44/44
g 2
v 3.316438 -0.0002326965 7.850932
v 13.08857 -0.0002326965 7.936211
v 13.22709 -0.0002326965 -7.936726
v -13.22622 -0.0002326965 7.706567

vn 0 1 0
vn 0 0.9999999 0
vn 0 1 0
vn 0 1 0

vt 0.376917 0.9962909
vt 0.009142488 0.9995005
vt 0.003929108 0.402122
vt 0.9995005 0.9908576

usemtl BBox02_00_BBox02.jpg
usemap BBox02_00_BBox02.jpg
f 47/47/47 45/45/45 46/46/46
f 47/47/47 48/48/48 45/45/45
g 1
v -1.351074 -0.0002326965 -8.841871
v -13.07957 -0.0002326965 -8.944225
v -13.23568 -0.0002326965 8.94433
v 13.23522 -0.0002326965 -8.714578

vn 0 1 0
vn 0 0.9999999 0
vn 0 1 0
vn 0 1 0

vt 0.549455 0.004351735
vt 0.9908575 0.0004995465
vt 0.9967329 0.6737359
vt 0.0004995167 0.009142578

usemtl BBox02_00_BBox02.jpg
usemap BBox02_00_BBox02.jpg
f 51/51/51 49/49/49 50/50/50
f 51/51/51 52/52/52 49/49/49
g 0
v 13.27221 -0.0002326965 -13.04258
v -13.19868 -0.0002326965 4.61633
v 13.18109 -0.0002326965 -2.600726
v -13.27222 -0.0002326965 13.04257

vn 0 1 0
vn 0 1 0
vn 0 1 0
vn 0 1 0

vt 0.0004995167 0.009142578
vt 0.9967329 0.6737359
vt 0.003929108 0.402122
vt 0.9995005 0.9908576

usemtl BBox02_00_BBox02.jpg
usemap BBox02_00_BBox02.jpg
f 55/55/55 53/53/53 54/54/54
f 56/56/56 55/55/55 54/54/54
