mtllib ./Box18.mtl
g Box18
v 42.02173 0.1020813 -13.67334
v 42.02173 0.1020813 -19.99963
v 1.343201 22.73877 -19.99963
v 1.343201 22.73877 -13.67334
v -39.99359 43.20666 -20.44159
v -39.99359 43.20666 -14.1153
v 42.02173 -0.02780151 20.00037
v 42.02173 -0.02780151 13.43829
v 1.343201 22.73877 13.43829
v 1.343201 22.73877 20.00037
v -39.98853 43.27418 13.60413
v -39.98853 43.27418 20.1662
v 40.67865 -3.476059 -13.67334
v 40.67865 -3.476059 -19.99963
v 42.02173 0.1020813 -19.99963
v 42.02173 0.1020813 -13.67334
v 40.67865 -3.476059 -19.99963
v 0.0001220703 19.16063 -19.99963
v 1.343201 22.73877 -19.99963
v 42.02173 0.1020813 -19.99963
v 0.0001220703 19.16063 -13.67334
v 40.67865 -3.476059 -13.67334
v 42.02173 0.1020813 -13.67334
v 1.343201 22.73877 -13.67334
v 0.0001220703 19.16063 -19.99963
v -41.33667 39.80767 -20.44159
v -39.99359 43.20666 -20.44159
v 1.343201 22.73877 -19.99963
v -41.33667 39.80767 -20.44159
v -41.33667 39.62852 -14.1153
v -39.99359 43.20666 -14.1153
v -39.99359 43.20666 -20.44159
v -41.33667 39.62852 -14.1153
v 0.0001220703 19.16063 -13.67334
v 1.343201 22.73877 -13.67334
v -39.99359 43.20666 -14.1153
v 40.67865 -3.605942 20.00037
v 40.67865 -3.605942 13.43829
v 42.02173 -0.02780151 13.43829
v 42.02173 -0.02780151 20.00037
v 40.67865 -3.605942 13.43829
v 0.0001220703 19.16063 13.43829
v 1.343201 22.73877 13.43829
v 42.02173 -0.02780151 13.43829
v 0.0001220703 19.16063 20.00037
v 40.67865 -3.605942 20.00037
v 42.02173 -0.02780151 20.00037
v 1.343201 22.73877 20.00037
v 0.0001220703 19.16063 13.43829
v -41.3316 39.69604 13.60413
v -39.98853 43.27418 13.60413
v 1.343201 22.73877 13.43829
v -41.3316 39.69604 13.60413
v -41.3316 39.69604 20.1662
v -39.98853 43.27418 20.1662
v -39.98853 43.27418 13.60413
v -41.3316 39.69604 20.1662
v 0.0001220703 19.16063 20.00037
v 1.343201 22.73877 20.00037
v -39.98853 43.27418 20.1662

vn 0.4862585 0.8738151 0
vn 0.4862585 0.8738151 0
vn 0.4722907 0.8814429 0
vn 0.4581128 0.8888941 0
vn 0.4437327 0.8961592 0
vn 0.4437327 0.8961592 0
vn 0.4883845 0.8726286 0
vn 0.4883845 0.8726286 0
vn 0.4741296 0.8804551 0
vn 0.459649 0.8881006 0
vn 0.4449508 0.895555 0
vn 0.4449508 0.895555 0
vn 0.9362193 -0.3514161 0
vn 0.9362193 -0.3514161 0
vn 0.9362193 -0.3514161 0
vn 0.9362193 -0.3514161 0
vn 0 0 -1
vn 0 0 -1
vn 0 0 -1
vn 0 0 -1
vn 0 0 1
vn 0 0 1
vn 0 0 1
vn 0 0 1
vn 0.008973069 -0.003454589 -0.9999539
vn 0.008928839 -0.003528154 -0.9999539
vn 0.008973069 -0.003454589 -0.9999539
vn 0.009015492 -0.003384029 -0.9999536
vn -0.9332149 0.3592828 0.005087241
vn -0.9361729 0.3513987 0.009951212
vn -0.9332149 0.3592828 0.005087241
vn -0.9300268 0.3674916 0
vn -0.009015481 0.003384017 0.9999536
vn -0.009015481 0.003384017 0.9999536
vn -0.009015481 0.003384017 0.9999536
vn -0.009015481 0.003384017 0.9999536
vn 0.9362194 -0.3514161 0
vn 0.9362194 -0.3514161 0
vn 0.9362194 -0.3514161 0
vn 0.9362194 -0.3514161 0
vn 0 0 -1
vn 0 0 -1
vn 0 0 -1
vn 0 0 -1
vn 0 0 1
vn 0 0 1
vn 0 0 1
vn 0 0 1
vn -0.003381566 0.001269292 -0.9999934
vn -0.003381566 0.001269292 -0.9999934
vn -0.003381566 0.001269292 -0.9999934
vn -0.003381566 0.001269292 -0.9999934
vn -0.9362194 0.3514161 0
vn -0.9362194 0.3514161 0
vn -0.9362194 0.3514161 0
vn -0.9362194 0.3514161 0
vn 0.003381566 -0.001269295 0.9999934
vn 0.003381566 -0.001269295 0.9999934
vn 0.003381566 -0.001269295 0.9999934
vn 0.003381566 -0.001269295 0.9999934

vt 0.1717641 2.03379
vt 0.0004999936 2.03379
vt 0.0004998147 0.5549193
vt 0.1717639 0.5549192
vt 0.0004995167 -0.9239511
vt 0.1717636 -0.9239511
vt 0.9995005 2.03379
vt 0.8356126 2.03379
vt 0.8356124 0.5549191
vt 0.9995003 0.554919
vt 0.8356121 -0.9239514
vt 0.9995 -0.9239514
vt 0 0
vt 0.1710145 0
vt 0.1710145 0.2746377
vt 0 0.2746377
vt 0.1701908 -0.03703701
vt 0.1701907 0.962963
vt -4.371139E-08 0.9629629
vt 0 -0.03703706
vt 0.1824396 2.980232E-08
vt 0.1824396 1
vt -4.371139E-08 1
vt 0 -1.390907E-08
vt 0.1701908 -0.03703701
vt 0.1701907 0.962963
vt -4.371139E-08 0.9629629
vt 0 -0.03703706
vt 0 0
vt 0.1802898 0
vt 0.1802898 0.2411594
vt 0 0.2411594
vt 0.1824396 2.980232E-08
vt 0.1824396 1
vt -4.371139E-08 1
vt 0 -1.390907E-08
vt 0 0
vt 0.1710145 0
vt 0.1710145 0.2746377
vt 0 0.2746377
vt 0.1824396 2.980232E-08
vt 0.1824396 1
vt -4.371139E-08 1
vt 0 -1.390907E-08
vt 0.1701908 -0.03703701
vt 0.1701907 0.962963
vt -4.371139E-08 0.9629629
vt 0 -0.03703706
vt 0.1824396 2.980232E-08
vt 0.1824396 1
vt -4.371139E-08 1
vt 0 -1.390907E-08
vt 0 0
vt 0.1802898 0
vt 0.1802898 0.2411594
vt 0 0.2411594
vt 0.1701908 -0.03703701
vt 0.1701907 0.962963
vt -4.371139E-08 0.9629629
vt 0 -0.03703706

usemtl sn15_09_sn1529.JPG
usemap sn15_09_sn1529.JPG
f 3/3/3 1/1/1 2/2/2
f 1/1/1 3/3/3 4/4/4
f 5/5/5 4/4/4 3/3/3
f 4/4/4 5/5/5 6/6/6
f 9/9/9 7/7/7 8/8/8
f 7/7/7 9/9/9 10/10/10
f 11/11/11 10/10/10 9/9/9
f 10/10/10 11/11/11 12/12/12
f 15/15/15 13/13/13 14/14/14
f 13/13/13 15/15/15 16/16/16
f 19/19/19 17/17/17 18/18/18
f 17/17/17 19/19/19 20/20/20
f 23/23/23 21/21/21 22/22/22
f 21/21/21 23/23/23 24/24/24
f 27/27/27 25/25/25 26/26/26
f 25/25/25 27/27/27 28/28/28
f 31/31/31 29/29/29 30/30/30
f 29/29/29 31/31/31 32/32/32
f 35/35/35 33/33/33 34/34/34
f 33/33/33 35/35/35 36/36/36
f 39/39/39 37/37/37 38/38/38
f 37/37/37 39/39/39 40/40/40
f 43/43/43 41/41/41 42/42/42
f 41/41/41 43/43/43 44/44/44
f 47/47/47 45/45/45 46/46/46
f 45/45/45 47/47/47 48/48/48
f 51/51/51 49/49/49 50/50/50
f 49/49/49 51/51/51 52/52/52
f 55/55/55 53/53/53 54/54/54
f 53/53/53 55/55/55 56/56/56
f 59/59/59 57/57/57 58/58/58
f 57/57/57 59/59/59 60/60/60
