mtllib ./Box21358.mtl
g Box21358
v -13.90097 8.031697 20.97675
v -7.484344 8.031696 20.97681
v -13.90097 8.031695 -20.97778
v -7.484344 8.031695 -20.97778
v -7.484344 8.031696 20.97681
v -8.080994 4.031698 20.97681
v -7.484344 8.031695 -20.97778
v -8.080994 4.031695 -20.97778
v -8.176575 5.888933 20.97681
v -3.176575 5.888933 20.97681
v -8.176575 5.888931 -20.97778
v -3.176575 5.888931 -20.97778
v -3.176575 5.888933 20.97681
v -3.176575 1.888935 20.97681
v -3.176575 5.888931 -20.97778
v -3.176575 1.888932 -20.97778
v -3.272156 3.478498 20.97681
v 1.727844 3.478498 20.97681
v -3.272156 3.478496 -20.97778
v 1.727844 3.478496 -20.97778
v 1.727844 3.478498 20.97681
v 1.727844 -0.5215015 20.97681
v 1.727844 3.478496 -20.97778
v 1.727844 -0.5215034 -20.97778
v 1.632263 1.252172 20.97681
v 6.632263 1.252172 20.97681
v 1.632263 1.252171 -20.97778
v 6.632263 1.25217 -20.97778
v 6.632263 1.252172 20.97681
v 6.632263 -2.093105 20.97681
v 6.632263 1.25217 -20.97778
v 6.632263 -2.093105 -20.97778
v 6.574524 -0.8729343 20.97681
v 11.57452 -0.8729343 20.97681
v 6.574524 -0.8729362 -20.97778
v 11.57452 -0.8729362 -20.97778
v 11.57452 -0.8729343 20.97681
v 11.57452 -4.236948 20.97681
v 11.57452 -0.8729362 -20.97778
v 11.57452 -4.236952 -20.97778
v 11.51678 -3.295738 20.97681
v 16.51678 -3.29574 20.97681
v 11.51678 -3.295742 -20.97778
v 16.51678 -3.295742 -20.97778
v 16.51678 -3.29574 20.97681
v 16.51678 -7.295738 20.97681
v 16.51678 -3.295742 -20.97778
v 16.51678 -7.295744 -20.97778
v 16.45905 -5.864986 20.97681
v 21.45905 -5.864988 20.97681
v 16.45905 -5.864988 -20.97778
v 21.45905 -5.86499 -20.97778
v 21.45905 -5.864988 20.97681
v 21.45905 -9.864988 20.97681
v 21.45905 -5.86499 -20.97778
v 21.45905 -9.86499 -20.97778
v 21.40131 -8.852222 20.97681
v 26.40131 -8.852222 20.97681
v 21.40131 -8.852224 -20.97778
v 26.40131 -8.852224 -20.97778
v 26.40131 -8.852222 20.97681
v 26.40131 -12.85222 20.97681
v 26.40131 -8.852224 -20.97778
v 26.40131 -12.85222 -20.97778
v 25.90051 -11.82463 20.97681
v 30.90051 -11.82463 20.97681
v 25.90054 -11.82463 -20.97778
v 30.90054 -11.82463 -20.97778
v 30.90051 -11.82463 20.97681
v 30.90051 -15.82463 20.97681
v 30.90054 -11.82463 -20.97778
v 30.90054 -15.82463 -20.97778
v -17.60269 9.926104 20.97675
v -11.18607 9.926104 20.97681
v -17.60269 9.926103 -20.97778
v -11.18607 9.926103 -20.97778
v -11.18607 9.926104 20.97681
v -11.78271 5.926105 20.97681
v -11.18607 9.926103 -20.97778
v -11.78271 5.926102 -20.97778
v -23.79169 11.64545 20.97675
v -15.02744 11.84693 20.97681
v -23.79169 11.64545 -20.97778
v -15.02744 11.84693 -20.97778
v -15.02744 11.84693 20.97681
v -15.62408 7.846933 20.97681
v -15.02744 11.84693 -20.97778
v -15.62408 7.846931 -20.97778
v -28.22638 13.6248 20.97675
v -19.46216 13.82628 20.97681
v -28.22638 13.62479 -20.97778
v -19.46213 13.82628 -20.97778
v -19.46216 13.82628 20.97681
v -20.05881 9.826281 20.97681
v -19.46213 13.82628 -20.97778
v -20.05881 9.826279 -20.97778
v -30.90125 14.81703 20.97675
v -22.13702 15.01851 20.97681
v -30.90125 14.81702 -20.97778
v -22.13702 15.01851 -20.97778
v -22.13702 15.01851 20.97681
v -22.73367 11.01851 20.97681
v -22.13702 15.01851 -20.97778
v -22.73367 11.01851 -20.97778

vn 1.486259E-07 1 -4.546228E-08
vn 7.431291E-08 1 -3.409669E-08
vn 7.431291E-08 1 -3.409669E-08
vn 0 1 -2.273111E-08
vn 0.9890575 -0.1475302 3.353524E-09
vn 0.9890575 -0.1475301 6.707046E-09
vn 0.9890575 -0.1475301 6.707046E-09
vn 0.9890576 -0.1475301 1.006057E-08
vn 0 1 -4.546222E-08
vn 0 1 -4.546222E-08
vn 0 1 -4.546222E-08
vn 0 1 -4.546222E-08
vn 1 0 0
vn 1 0 0
vn 1 0 0
vn 1 0 0
vn 0 1 -4.546222E-08
vn 0 1 -4.546222E-08
vn 0 1 -4.546222E-08
vn 0 1 -4.546222E-08
vn 1 0 0
vn 1 0 0
vn 1 0 0
vn 1 0 0
vn 0 1 -4.546222E-08
vn 9.536743E-08 1 -5.682777E-08
vn 9.536743E-08 1 -5.682777E-08
vn 1.907349E-07 1 -6.819332E-08
vn 1 0 0
vn 1 0 0
vn 1 0 0
vn 1 0 0
vn 0 1 -4.546222E-08
vn 0 1 -4.546222E-08
vn 0 1 -4.546222E-08
vn 0 1 -4.546222E-08
vn 1 0 0
vn 1 0 0
vn 1 0 0
vn 1 0 0
vn 3.814697E-07 1 -9.092443E-08
vn 1.907349E-07 1 -6.819332E-08
vn 1.907349E-07 1 -6.819332E-08
vn 0 1 -4.546222E-08
vn 1 0 0
vn 1 0 0
vn 1 0 0
vn 0.9999999 0 0
vn 3.814697E-07 1 -4.546222E-08
vn 3.814697E-07 1 -4.546222E-08
vn 3.814697E-07 1 -4.546222E-08
vn 3.814697E-07 1 -4.546222E-08
vn 1 0 0
vn 1 0 0
vn 1 0 0
vn 1 0 0
vn 0 1 -4.546222E-08
vn 0 1 -4.546222E-08
vn 0 1 -4.546222E-08
vn 0 1 -4.546222E-08
vn 1 0 0
vn 1 0 0
vn 1 0 0
vn 1 0 0
vn 0 1 -4.546222E-08
vn 0 1 -4.546222E-08
vn 0 1 -4.546222E-08
vn 0 1 -4.546222E-08
vn 1 0 7.273954E-07
vn 1 0 7.273954E-07
vn 1 0 7.273954E-07
vn 0.9999999 0 7.273954E-07
vn 2.162194E-13 1 -2.273114E-08
vn 1.081096E-13 1 -2.273112E-08
vn 1.081096E-13 1 -2.273112E-08
vn 0 1 -2.273111E-08
vn 0.9890575 -0.1475302 3.353524E-09
vn 0.9890576 -0.1475301 8.383807E-09
vn 0.9890576 -0.1475301 8.383807E-09
vn 0.9890575 -0.14753 1.341409E-08
vn -0.02298298 0.9997358 -6.817541E-08
vn -0.02298303 0.9997359 -5.68128E-08
vn -0.02298303 0.9997359 -5.68128E-08
vn -0.02298309 0.9997359 -4.545021E-08
vn 0.9890575 -0.1475302 6.707048E-09
vn 0.9890575 -0.1475302 6.707048E-09
vn 0.9890575 -0.1475302 6.707048E-09
vn 0.9890575 -0.1475302 6.707048E-09
vn -0.02298317 0.9997358 -4.545027E-08
vn -0.02298313 0.9997358 -5.380916E-08
vn -0.02298313 0.9997358 -5.380916E-08
vn -0.02298309 0.9997359 -6.2168E-08
vn 0.9890575 -0.1475302 7.26143E-07
vn 0.989057 -0.1475338 3.66425E-07
vn 0.989057 -0.1475338 3.66425E-07
vn 0.9890565 -0.1475375 6.707384E-09
vn -0.02298317 0.9997358 -4.545027E-08
vn -0.02298317 0.9997359 -4.545024E-08
vn -0.02298317 0.9997359 -4.545024E-08
vn -0.02298317 0.9997359 -4.545021E-08
vn 0.9890575 -0.1475302 6.707048E-09
vn 0.9890575 -0.1475302 6.707048E-09
vn 0.9890575 -0.1475302 6.707048E-09
vn 0.9890575 -0.1475302 6.707048E-09

vt 1.061708E-07 1.192093E-07
vt -4.371139E-08 1
vt 3.110909 6.58145E-08
vt 3.110909 1
vt 5.209332 1
vt 5.209333 0
vt 2.098263 1
vt 2.098264 0
vt 0 -1.390907E-08
vt -4.371139E-08 1
vt 3.11091 1.219585E-08
vt 3.110909 1
vt 5.209332 1
vt 5.209333 0
vt 2.098263 1
vt 2.098264 0
vt 4.973263E-07 -1.788139E-07
vt -4.371139E-08 1
vt 3.11091 -5.422606E-08
vt 3.11091 1
vt 5.209332 1
vt 5.209333 0
vt 2.098263 1
vt 2.098264 0
vt 0 -1.390907E-08
vt -4.371139E-08 1
vt 3.11091 1.219585E-08
vt 3.110909 1
vt 5.209332 1
vt 5.209333 0
vt 2.098263 1
vt 2.098264 0
vt 4.973263E-07 -2.384186E-07
vt -4.371139E-08 1
vt 3.11091 -7.823417E-08
vt 3.11091 1
vt 5.209333 1
vt 5.209333 0
vt 2.098264 1
vt 2.098264 3.559654E-08
vt 0 -1.390907E-08
vt -4.371139E-08 1
vt 3.11091 1.219585E-08
vt 3.110909 1
vt 5.209332 1
vt 5.209333 0
vt 2.098263 1
vt 2.098264 0
vt 4.93601E-07 1.192093E-07
vt -4.371139E-08 1
vt 3.11091 6.581449E-08
vt 3.11091 1
vt 5.209333 1
vt 5.209333 0
vt 2.098264 1
vt 2.098264 1.779827E-07
vt 0 -1.390907E-08
vt -4.371139E-08 1
vt 3.11091 1.219585E-08
vt 3.110909 0.9999999
vt 5.209333 1
vt 5.209333 0
vt 2.098264 1
vt 2.098264 -1.423861E-07
vt 0 -1.390907E-08
vt -4.371139E-08 1
vt 3.11091 1.219585E-08
vt 3.110909 0.9999999
vt 5.209333 1
vt 5.209333 0
vt 2.098264 1
vt 2.098264 -1.423861E-07
vt 1.061708E-07 1.192093E-07
vt -4.371139E-08 1
vt 3.110909 6.58145E-08
vt 3.110909 1
vt 5.209332 1
vt 5.209333 0
vt 2.098263 1
vt 2.098264 0
vt 1.061708E-07 1.192093E-07
vt -4.371139E-08 1
vt 3.110909 6.58145E-08
vt 3.110909 1
vt 5.209332 1
vt 5.209333 0
vt 2.098263 1
vt 2.098264 0
vt 1.061708E-07 1.192093E-07
vt -4.371139E-08 1
vt 3.110909 6.58145E-08
vt 3.110909 1
vt 5.209332 1
vt 5.209333 0
vt 2.098263 1
vt 2.098264 0
vt 1.061708E-07 1.192093E-07
vt -4.371139E-08 1
vt 3.110909 6.58145E-08
vt 3.110909 1
vt 5.209332 1
vt 5.209333 0
vt 2.098263 1
vt 2.098264 0

usemtl sn15_01_sn1540.JPG
usemap sn15_01_sn1540.JPG
f 3/3/3 1/1/1 2/2/2
f 2/2/2 4/4/4 3/3/3
f 7/7/7 5/5/5 6/6/6
f 6/6/6 8/8/8 7/7/7
f 11/11/11 9/9/9 10/10/10
f 10/10/10 12/12/12 11/11/11
f 15/15/15 13/13/13 14/14/14
f 14/14/14 16/16/16 15/15/15
f 19/19/19 17/17/17 18/18/18
f 18/18/18 20/20/20 19/19/19
f 23/23/23 21/21/21 22/22/22
f 22/22/22 24/24/24 23/23/23
f 27/27/27 25/25/25 26/26/26
f 26/26/26 28/28/28 27/27/27
f 31/31/31 29/29/29 30/30/30
f 30/30/30 32/32/32 31/31/31
f 35/35/35 33/33/33 34/34/34
f 34/34/34 36/36/36 35/35/35
f 39/39/39 37/37/37 38/38/38
f 38/38/38 40/40/40 39/39/39
f 43/43/43 41/41/41 42/42/42
f 42/42/42 44/44/44 43/43/43
f 47/47/47 45/45/45 46/46/46
f 46/46/46 48/48/48 47/47/47
f 51/51/51 49/49/49 50/50/50
f 50/50/50 52/52/52 51/51/51
f 55/55/55 53/53/53 54/54/54
f 54/54/54 56/56/56 55/55/55
f 59/59/59 57/57/57 58/58/58
f 58/58/58 60/60/60 59/59/59
f 63/63/63 61/61/61 62/62/62
f 62/62/62 64/64/64 63/63/63
f 67/67/67 65/65/65 66/66/66
f 66/66/66 68/68/68 67/67/67
f 71/71/71 69/69/69 70/70/70
f 70/70/70 72/72/72 71/71/71
f 75/75/75 73/73/73 74/74/74
f 74/74/74 76/76/76 75/75/75
f 79/79/79 77/77/77 78/78/78
f 78/78/78 80/80/80 79/79/79
f 83/83/83 81/81/81 82/82/82
f 82/82/82 84/84/84 83/83/83
f 87/87/87 85/85/85 86/86/86
f 86/86/86 88/88/88 87/87/87
f 91/91/91 89/89/89 90/90/90
f 90/90/90 92/92/92 91/91/91
f 95/95/95 93/93/93 94/94/94
f 94/94/94 96/96/96 95/95/95
f 99/99/99 97/97/97 98/98/98
f 98/98/98 100/100/100 99/99/99
f 103/103/103 101/101/101 102/102/102
f 102/102/102 104/104/104 103/103/103
