mtllib ./Box21362.mtl
g Box21362
v -3.096527 -0.125607 64.98309
v 3.320099 -0.1256065 64.98309
v 3.320099 -0.1256084 23.0285
v -3.096527 -0.1256084 23.0285
v -2.499878 -4.125605 64.98309
v -3.096527 -0.125607 64.98309
v -3.096527 -0.1256084 23.0285
v -2.499878 -4.125608 23.0285
v -7.404297 -2.298275 64.98309
v -2.404297 -2.298275 64.98309
v -2.404297 -2.298276 23.0285
v -7.404297 -2.298276 23.0285
v -7.404297 -6.298274 64.98309
v -7.404297 -2.298275 64.98309
v -7.404297 -2.298276 23.0285
v -7.404297 -6.298275 23.0285
v -12.30872 -4.747223 64.98309
v -7.308716 -4.747222 64.98309
v -7.308716 -4.747225 23.0285
v -12.30872 -4.747225 23.0285
v -12.30872 -8.747221 64.98309
v -12.30872 -4.747223 64.98309
v -12.30872 -4.747225 23.0285
v -12.30872 -8.747223 23.0285
v -17.21313 -7.132396 64.98309
v -12.21313 -7.132396 64.98309
v -12.21313 -7.132399 23.0285
v -17.21313 -7.132399 23.0285
v -17.21313 -10.47767 64.98309
v -17.21313 -7.132396 64.98309
v -17.21313 -7.132399 23.0285
v -17.21313 -10.47767 23.0285
v -22.1554 -9.760975 64.98309
v -17.1554 -9.760975 64.98309
v -17.1554 -9.760977 23.0285
v -22.1554 -9.760977 23.0285
v -22.1554 -13.12499 64.98309
v -22.1554 -9.760975 64.98309
v -22.1554 -9.760977 23.0285
v -22.1554 -13.12499 23.0285
v -27.09766 -12.06927 64.98309
v -22.09766 -12.06926 64.98309
v -22.09766 -12.06927 23.0285
v -27.09766 -12.06927 23.0285
v -27.09766 -16.06927 64.98309
v -27.09766 -12.06927 64.98309
v -27.09766 -12.06927 23.0285
v -27.09766 -16.06927 23.0285
v -32.03992 -14.49621 64.98309
v -27.03992 -14.49621 64.98309
v -27.03992 -14.49621 23.0285
v -32.03992 -14.49621 23.0285
v -32.03992 -18.49621 64.98309
v -32.03992 -14.49621 64.98309
v -32.03992 -14.49621 23.0285
v -32.03992 -18.49621 23.0285
v -36.98218 -17.46635 64.98309
v -31.98218 -17.46635 64.98309
v -31.98218 -17.46636 23.0285
v -36.98218 -17.46636 23.0285
v -36.98218 -21.46635 64.98309
v -36.98218 -17.46635 64.98309
v -36.98218 -17.46636 23.0285
v -36.98218 -21.46636 23.0285
v -41.48138 -20.43876 64.98309
v -36.48138 -20.43876 64.98309
v -36.48141 -20.43876 23.0285
v -41.48141 -20.43876 23.0285
v -41.48138 -24.43876 64.98309
v -41.48138 -20.43876 64.98309
v -41.48141 -20.43876 23.0285
v -41.48141 -24.43876 23.0285
v 0.6051941 1.453233 64.98309
v 7.02182 1.453233 64.98309
v 7.02182 1.453232 23.0285
v 0.6051941 1.453232 23.0285
v 1.201843 -2.546766 64.98309
v 0.6051941 1.453233 64.98309
v 0.6051941 1.453232 23.0285
v 1.201843 -2.546769 23.0285
v 4.446564 3.659415 64.98309
v 13.21082 3.457932 64.98309
v 13.21082 3.45793 23.0285
v 4.446564 3.659413 23.0285
v 5.043213 -0.3405833 64.98309
v 4.446564 3.659415 64.98309
v 4.446564 3.659413 23.0285
v 5.043213 -0.3405857 23.0285
v 8.712463 5.591503 64.98309
v 17.47672 5.390021 64.98309
v 17.47672 5.390018 23.0285
v 8.712463 5.591501 23.0285
v 9.309113 1.591505 64.98309
v 8.712463 5.591503 64.98309
v 8.712463 5.591501 23.0285
v 9.309113 1.591503 23.0285
v 11.74905 7.19153 64.98309
v 20.51331 6.990047 64.98309
v 20.51331 6.990045 23.0285
v 11.74905 7.191528 23.0285
v 12.34573 3.191532 64.98309
v 11.74905 7.19153 64.98309
v 11.74905 7.191528 23.0285
v 12.34573 3.191529 23.0285

vn -3.715638E-08 1 -3.977944E-08
vn -7.431276E-08 1 -4.546222E-08
vn -3.715638E-08 1 -3.977944E-08
vn 0 1 -3.409666E-08
vn -0.9890575 -0.1475301 7.025744E-09
vn -0.9890575 -0.1475302 4.215447E-09
vn -0.9890575 -0.1475301 7.025744E-09
vn -0.9890576 -0.1475301 9.83604E-09
vn 0 1 -2.273111E-08
vn 0 1 -2.273111E-08
vn 0 1 -2.273111E-08
vn 0 1 -2.273111E-08
vn -1 0 0
vn -1 0 0
vn -1 0 0
vn -1 0 0
vn -9.536743E-08 1 -5.682777E-08
vn -1.907349E-07 1 -6.819332E-08
vn -9.536743E-08 1 -5.682777E-08
vn 0 1 -4.546222E-08
vn -0.9999999 0 0
vn -0.9999999 0 0
vn -0.9999999 0 0
vn -0.9999999 0 0
vn 0 1 -6.819332E-08
vn 0 1 -6.819332E-08
vn 0 1 -6.819332E-08
vn 0 1 -6.819332E-08
vn -1 0 0
vn -1 0 0
vn -1 0 0
vn -1 0 0
vn 0 1 -4.546222E-08
vn 0 1 -4.546222E-08
vn 0 1 -4.546222E-08
vn 0 1 -4.546222E-08
vn -1 0 0
vn -1 0 0
vn -1 0 0
vn -1 0 0
vn -5.722046E-07 1 -6.819332E-08
vn -7.629395E-07 1 -9.092443E-08
vn -5.722046E-07 1 -6.819332E-08
vn -3.814697E-07 1 -4.546222E-08
vn -1 0 0
vn -1 0 0
vn -1 0 0
vn -0.9999999 0 0
vn -1.907349E-07 1 -2.273111E-08
vn -3.814697E-07 1 -4.546222E-08
vn -1.907349E-07 1 -2.273111E-08
vn 0 1 0
vn -1 0 0
vn -1 0 0
vn -1 0 0
vn -1 0 0
vn 0 1 -4.546222E-08
vn 0 1 -4.546222E-08
vn 0 1 -4.546222E-08
vn 0 1 -4.546222E-08
vn -1 0 0
vn -1 0 0
vn -1 0 0
vn -1 0 0
vn 0 1 -4.546222E-08
vn 0 1 -4.546222E-08
vn 0 1 -4.546222E-08
vn 0 1 -4.546222E-08
vn -1 0 7.273954E-07
vn -1 0 7.273954E-07
vn -1 0 7.273954E-07
vn -1 0 7.273954E-07
vn -3.715638E-08 1 -2.841389E-08
vn -7.431276E-08 1 -3.409666E-08
vn -3.715638E-08 1 -2.841389E-08
vn 0 1 -2.273111E-08
vn -0.9890575 -0.1475301 6.323169E-09
vn -0.9890575 -0.1475301 2.810298E-09
vn -0.9890575 -0.1475301 6.323169E-09
vn -0.9890575 -0.1475301 9.836038E-09
vn 0.02298306 0.9997359 -5.104834E-08
vn 0.02298303 0.9997359 -5.672037E-08
vn 0.02298306 0.9997359 -5.104834E-08
vn 0.02298309 0.9997359 -4.53763E-08
vn -0.9890575 -0.1475301 7.728319E-09
vn -0.9890575 -0.1475302 7.025745E-09
vn -0.9890575 -0.1475301 7.728319E-09
vn -0.9890575 -0.1475301 8.430893E-09
vn 0.02298306 0.9997359 -5.104834E-08
vn 0.02298303 0.9997359 -5.672037E-08
vn 0.02298306 0.9997359 -5.104834E-08
vn 0.02298309 0.9997359 -4.53763E-08
vn -0.9890575 -0.1475301 7.728319E-09
vn -0.9890575 -0.1475302 7.025745E-09
vn -0.9890575 -0.1475301 7.728319E-09
vn -0.9890575 -0.1475301 8.430893E-09
vn 0.02298306 0.9997359 -5.104834E-08
vn 0.02298303 0.9997359 -5.672037E-08
vn 0.02298306 0.9997359 -5.104834E-08
vn 0.02298309 0.9997359 -4.53763E-08
vn -0.9890565 -0.1475375 7.72831E-09
vn -0.9890565 -0.1475375 7.025738E-09
vn -0.9890565 -0.1475375 7.72831E-09
vn -0.9890565 -0.1475375 8.430884E-09

vt -4.371139E-08 1
vt 1.061708E-07 1.192093E-07
vt 3.110909 6.58145E-08
vt 3.110909 1
vt 5.209333 0
vt 5.209332 1
vt 2.098263 1
vt 2.098264 0
vt -4.371139E-08 1
vt 0 -1.390907E-08
vt 3.11091 1.219585E-08
vt 3.110909 1
vt 5.209333 0
vt 5.209332 1
vt 2.098263 1
vt 2.098264 0
vt -4.371139E-08 1
vt 4.973263E-07 -1.788139E-07
vt 3.11091 -5.422606E-08
vt 3.11091 1
vt 5.209333 0
vt 5.209332 1
vt 2.098263 1
vt 2.098264 0
vt -4.371139E-08 1
vt 0 -1.390907E-08
vt 3.11091 1.219585E-08
vt 3.110909 1
vt 5.209333 0
vt 5.209332 1
vt 2.098263 1
vt 2.098264 0
vt -4.371139E-08 1
vt 4.973263E-07 -2.384186E-07
vt 3.11091 -7.823417E-08
vt 3.11091 1
vt 5.209333 0
vt 5.209333 1
vt 2.098264 1
vt 2.098264 3.559654E-08
vt -4.371139E-08 1
vt 0 -1.390907E-08
vt 3.11091 1.219585E-08
vt 3.110909 1
vt 5.209333 0
vt 5.209332 1
vt 2.098263 1
vt 2.098264 0
vt -4.371139E-08 1
vt 4.93601E-07 1.192093E-07
vt 3.11091 6.581449E-08
vt 3.11091 1
vt 5.209333 0
vt 5.209333 1
vt 2.098264 1
vt 2.098264 1.779827E-07
vt -4.371139E-08 1
vt 0 -1.390907E-08
vt 3.11091 1.219585E-08
vt 3.110909 0.9999999
vt 5.209333 0
vt 5.209333 1
vt 2.098264 1
vt 2.098264 -1.423861E-07
vt -4.371139E-08 1
vt 0 -1.390907E-08
vt 3.11091 1.219585E-08
vt 3.110909 0.9999999
vt 5.209333 0
vt 5.209333 1
vt 2.098264 1
vt 2.098264 -1.423861E-07
vt -4.371139E-08 1
vt 1.061708E-07 1.192093E-07
vt 3.110909 6.58145E-08
vt 3.110909 1
vt 5.209333 0
vt 5.209332 1
vt 2.098263 1
vt 2.098264 0
vt -4.371139E-08 1
vt 1.061708E-07 1.192093E-07
vt 3.110909 6.58145E-08
vt 3.110909 1
vt 5.209333 0
vt 5.209332 1
vt 2.098263 1
vt 2.098264 0
vt -4.371139E-08 1
vt 1.061708E-07 1.192093E-07
vt 3.110909 6.58145E-08
vt 3.110909 1
vt 5.209333 0
vt 5.209332 1
vt 2.098263 1
vt 2.098264 0
vt -4.371139E-08 1
vt 1.061708E-07 1.192093E-07
vt 3.110909 6.58145E-08
vt 3.110909 1
vt 5.209333 0
vt 5.209332 1
vt 2.098263 1
vt 2.098264 0

usemtl sn15_01_sn1540.JPG
usemap sn15_01_sn1540.JPG
f 3/3/3 1/1/1 2/2/2
f 1/1/1 3/3/3 4/4/4
f 7/7/7 5/5/5 6/6/6
f 5/5/5 7/7/7 8/8/8
f 11/11/11 9/9/9 10/10/10
f 9/9/9 11/11/11 12/12/12
f 15/15/15 13/13/13 14/14/14
f 13/13/13 15/15/15 16/16/16
f 19/19/19 17/17/17 18/18/18
f 17/17/17 19/19/19 20/20/20
f 23/23/23 21/21/21 22/22/22
f 21/21/21 23/23/23 24/24/24
f 27/27/27 25/25/25 26/26/26
f 25/25/25 27/27/27 28/28/28
f 31/31/31 29/29/29 30/30/30
f 29/29/29 31/31/31 32/32/32
f 35/35/35 33/33/33 34/34/34
f 33/33/33 35/35/35 36/36/36
f 39/39/39 37/37/37 38/38/38
f 37/37/37 39/39/39 40/40/40
f 43/43/43 41/41/41 42/42/42
f 41/41/41 43/43/43 44/44/44
f 47/47/47 45/45/45 46/46/46
f 45/45/45 47/47/47 48/48/48
f 51/51/51 49/49/49 50/50/50
f 49/49/49 51/51/51 52/52/52
f 55/55/55 53/53/53 54/54/54
f 53/53/53 55/55/55 56/56/56
f 59/59/59 57/57/57 58/58/58
f 57/57/57 59/59/59 60/60/60
f 63/63/63 61/61/61 62/62/62
f 61/61/61 63/63/63 64/64/64
f 67/67/67 65/65/65 66/66/66
f 65/65/65 67/67/67 68/68/68
f 71/71/71 69/69/69 70/70/70
f 69/69/69 71/71/71 72/72/72
f 75/75/75 73/73/73 74/74/74
f 73/73/73 75/75/75 76/76/76
f 79/79/79 77/77/77 78/78/78
f 77/77/77 79/79/79 80/80/80
f 83/83/83 81/81/81 82/82/82
f 81/81/81 83/83/83 84/84/84
f 87/87/87 85/85/85 86/86/86
f 85/85/85 87/87/87 88/88/88
f 91/91/91 89/89/89 90/90/90
f 89/89/89 91/91/91 92/92/92
f 95/95/95 93/93/93 94/94/94
f 93/93/93 95/95/95 96/96/96
f 99/99/99 97/97/97 98/98/98
f 97/97/97 99/99/99 100/100/100
f 103/103/103 101/101/101 102/102/102
f 101/101/101 103/103/103 104/104/104
