mtllib ./Box21354.mtl
g Box21354
v 19.27921 1.858741 -48.94751
v 12.95291 1.858741 -48.94751
v 19.27921 24.90555 19.17609
v 12.95288 24.90555 19.17609
v 12.95288 24.90555 19.17609
v 19.27921 41.07016 73.26694
v 12.95291 41.07016 73.26694
v -22.70517 1.396305 -48.94751
v -30.11014 1.396307 -48.94751
v -22.70404 24.38985 19.17609
v -30.10901 24.38985 19.17609
v -30.10901 24.38985 19.17609
v -22.7052 41.07633 73.565
v -30.11014 41.07634 73.56497
v 19.27921 -2.181836 -47.60443
v 12.95291 -2.181836 -47.60443
v 19.27921 1.858741 -48.94751
v 12.95291 1.858741 -48.94751
v 19.27921 19.76659 20.51917
v 19.27921 -2.181836 -47.60443
v 19.27921 24.90555 19.17609
v 19.27921 1.858741 -48.94751
v 12.95291 -2.181836 -47.60443
v 12.95288 20.86497 20.51917
v 12.95291 1.858741 -48.94751
v 12.95288 24.90555 19.17609
v 19.27921 36.37843 74.61002
v 19.27921 19.76659 20.51917
v 19.27921 41.07016 73.26694
v 19.27921 24.90555 19.17609
v 12.95291 36.66436 74.61005
v 19.27921 36.37843 74.61002
v 12.95291 41.07016 73.26694
v 19.27921 41.07016 73.26694
v 12.95288 20.86497 20.51917
v 12.95291 36.66436 74.61005
v 12.95288 24.90555 19.17609
v 12.95291 41.07016 73.26694
v -22.70517 -2.181837 -47.60443
v -30.11014 -2.181837 -47.60443
v -22.70517 1.396305 -48.94751
v -30.11014 1.396307 -48.94751
v -22.70404 19.71332 20.51917
v -22.70517 -2.181837 -47.60443
v -22.70404 24.38985 19.17609
v -22.70517 1.396305 -48.94751
v -30.11014 -2.181837 -47.60443
v -30.11011 19.76659 20.51917
v -30.11014 1.396307 -48.94751
v -30.10901 24.38985 19.17609
v -22.7052 36.3846 74.90808
v -22.70404 19.71332 20.51917
v -22.7052 41.07633 73.565
v -22.70404 24.38985 19.17609
v -30.11014 36.38461 74.90805
v -22.7052 36.3846 74.90808
v -30.11014 41.07634 73.56497
v -22.7052 41.07633 73.565
v -30.11011 19.76659 20.51917
v -30.11014 36.38461 74.90805
v -30.10901 24.38985 19.17609
v -30.11014 41.07634 73.56497
v -28.33862 -2.18203 -47.60437
v -28.33862 19.7664 20.51923
v -30.11014 -2.181837 -47.60443
v -30.11011 19.76659 20.51917
v -28.33862 19.7664 20.51923
v -28.33862 36.38441 74.90814
v -30.11011 19.76659 20.51917
v -30.11014 36.38461 74.90805

vn 0 0.94726 -0.3204663
vn 0 0.9472599 -0.3204663
vn 0 0.9504477 -0.3108846
vn 0 0.9472598 -0.3204663
vn 0 0.9581312 -0.2863296
vn 0 0.9581312 -0.2863296
vn 0 0.9581312 -0.2863296
vn 2.440501E-07 0.9474846 -0.3198015
vn 1.220251E-07 0.9474846 -0.3198015
vn 8.744059E-08 0.9499785 -0.3123151
vn 0 0.9474846 -0.3198015
vn 8.506408E-07 0.9560187 -0.293306
vn 8.506408E-07 0.9560187 -0.293306
vn 1.701285E-06 0.9560185 -0.2933061
vn 0 -0.3154286 -0.9489493
vn 0 -0.3154286 -0.9489493
vn 0 -0.3154286 -0.9489493
vn 0 -0.3154286 -0.9489493
vn 1 0 0
vn 1 0 0
vn 1 0 0
vn 1 0 0
vn -1 -1.338532E-07 -4.026899E-07
vn -1 -1.338532E-07 -4.0269E-07
vn -1 -1.338532E-07 -4.0269E-07
vn -1 -1.338531E-07 -4.0269E-07
vn 1 0 0
vn 1 0 0
vn 1 0 0
vn 1 0 0
vn 0.01318303 0.2915761 0.9564568
vn 0.006401639 0.2831737 0.9590473
vn 0.006401639 0.2831737 0.9590473
vn 0 0.2752106 0.9613839
vn -1 1.709391E-07 5.142612E-07
vn -1 1.640166E-07 5.157297E-07
vn -1 1.640166E-07 5.157297E-07
vn -1 1.576331E-07 5.170838E-07
vn 0 -0.351416 -0.9362195
vn -4.52583E-08 -0.3514159 -0.9362194
vn -4.52583E-08 -0.3514159 -0.9362194
vn -9.051659E-08 -0.3514158 -0.9362196
vn 1 -4.35801E-06 -1.517435E-05
vn 1 -4.871419E-06 -1.497006E-05
vn 1 -4.871419E-06 -1.497006E-05
vn 1 -5.521951E-06 -1.471122E-05
vn -1 1.500085E-07 3.996431E-07
vn -1 0.0001234115 -3.219656E-05
vn -1 0.0001234115 -3.219656E-05
vn -1 0.000220797 -5.794988E-05
vn 1 5.611309E-06 1.960179E-05
vn 1 5.619474E-06 1.95985E-05
vn 1 5.619474E-06 1.95985E-05
vn 1 5.627662E-06 1.959521E-05
vn -3.820324E-06 0.2752106 0.961384
vn -3.820324E-06 0.2752106 0.961384
vn -3.820324E-06 0.2752106 0.961384
vn -3.820324E-06 0.2752106 0.961384
vn -1 0.0002181091 -6.720229E-05
vn -1 0.0001055492 -4.297691E-05
vn -1 0.0001055492 -4.297691E-05
vn -1 -5.463244E-06 -1.908456E-05
vn -0.0001140705 -0.9518185 0.306662
vn -0.0001140715 -0.9518185 0.306662
vn -0.0001140715 -0.9518185 0.306662
vn -0.0001140725 -0.9518185 0.306662
vn -0.0001140678 -0.9563556 0.2922053
vn -0.0001170985 -0.9563556 0.2922054
vn -0.0001170985 -0.9563556 0.2922054
vn -0.0001201293 -0.9563556 0.2922055

vt 0.0004999936 2.03379
vt 0.1717641 2.03379
vt 0.0004998147 0.5549193
vt 0.1717639 0.5549192
vt 0.1717639 0.5549192
vt 0.0004995167 -0.9239511
vt 0.1717636 -0.9239511
vt 0.8356126 2.03379
vt 0.9995005 2.03379
vt 0.8356124 0.5549191
vt 0.9995003 0.554919
vt 0.9995004 0.5549187
vt 0.8356121 -0.9239514
vt 0.9995 -0.9239514
vt 0.1710145 0
vt 0 0
vt 0.1710145 0.2746377
vt 0 0.2746377
vt 0.1701907 0.962963
vt 0.1701908 -0.03703701
vt -4.371139E-08 0.9629629
vt 0 -0.03703706
vt 0.1824396 1
vt 0.1824396 2.980232E-08
vt -4.371139E-08 1
vt 0 -1.390907E-08
vt 0.1701907 0.962963
vt 0.1701908 -0.03703701
vt -4.371139E-08 0.9629629
vt 0 -0.03703706
vt 0.1802898 0
vt 0 0
vt 0.1802898 0.2411594
vt 0 0.2411594
vt 0.1824396 1
vt 0.1824396 2.980232E-08
vt -4.371139E-08 1
vt 0 -1.390907E-08
vt 0.1710145 0
vt 0 0
vt 0.1710145 0.2746377
vt 0 0.2746377
vt 0.1824396 1
vt 0.1824396 2.980232E-08
vt -4.371139E-08 1
vt 0 -1.390907E-08
vt 0.1701907 0.962963
vt 0.1701908 -0.03703701
vt -4.371139E-08 0.9629629
vt 0 -0.03703706
vt 0.1824396 1
vt 0.1824396 2.980232E-08
vt -4.371139E-08 1
vt 0 -1.390907E-08
vt 0.1802898 0
vt 0 0
vt 0.1802898 0.2411594
vt 0 0.2411594
vt 0.1701907 0.962963
vt 0.1701908 -0.03703701
vt -4.371139E-08 0.9629629
vt 0 -0.03703706
vt 0.1701907 0.962963
vt 0.1701908 -0.03703701
vt 0.1701907 0.962963
vt 0.1701908 -0.03703701
vt 0.1701907 0.962963
vt 0.1701908 -0.03703701
vt 0.1701907 0.962963
vt 0.1701908 -0.03703701

usemtl sn15_09_sn1529.JPG
usemap sn15_09_sn1529.JPG
f 3/3/3 1/1/1 2/2/2
f 2/2/2 4/4/4 3/3/3
f 6/6/6 3/3/3 5/5/5
f 5/5/5 7/7/7 6/6/6
f 10/10/10 8/8/8 9/9/9
f 9/9/9 11/11/11 10/10/10
f 13/13/13 10/10/10 12/12/12
f 12/12/12 14/14/14 13/13/13
f 17/17/17 15/15/15 16/16/16
f 16/16/16 18/18/18 17/17/17
f 21/21/21 19/19/19 20/20/20
f 20/20/20 22/22/22 21/21/21
f 25/25/25 23/23/23 24/24/24
f 24/24/24 26/26/26 25/25/25
f 29/29/29 27/27/27 28/28/28
f 28/28/28 30/30/30 29/29/29
f 33/33/33 31/31/31 32/32/32
f 32/32/32 34/34/34 33/33/33
f 37/37/37 35/35/35 36/36/36
f 36/36/36 38/38/38 37/37/37
f 41/41/41 39/39/39 40/40/40
f 40/40/40 42/42/42 41/41/41
f 45/45/45 43/43/43 44/44/44
f 44/44/44 46/46/46 45/45/45
f 49/49/49 47/47/47 48/48/48
f 48/48/48 50/50/50 49/49/49
f 53/53/53 51/51/51 52/52/52
f 52/52/52 54/54/54 53/53/53
f 57/57/57 55/55/55 56/56/56
f 56/56/56 58/58/58 57/57/57
f 61/61/61 59/59/59 60/60/60
f 60/60/60 62/62/62 61/61/61
f 65/65/65 63/63/63 64/64/64
f 64/64/64 66/66/66 65/65/65
f 69/69/69 67/67/67 68/68/68
f 68/68/68 70/70/70 69/69/69
