mtllib ./Box21301.mtl
g Box21301
v 56.64843 23.7204 -1.907104
v 50.32213 23.7204 -1.907104
v 56.64844 43.42237 40.21484
v 50.32214 43.42237 40.21484
v -57.00363 23.39168 -1.907104
v -63.5657 23.39168 -1.907104
v -56.60799 43.4211 39.9883
v -63.17007 43.4211 39.9883
v 56.64844 38.33319 41.55791
v 56.64843 18.63121 -0.5640106
v 56.64844 43.42237 40.21484
v 56.64843 23.7204 -1.907104
v 50.32213 38.33319 41.55791
v 56.64844 38.33319 41.55791
v 50.32214 43.42237 40.21484
v 56.64844 43.42237 40.21484
v 50.32213 18.63121 -0.5640106
v 50.32213 38.33319 41.55791
v 50.32213 23.7204 -1.907104
v 50.32214 43.42237 40.21484
v -56.60799 38.66063 41.33138
v -57.00363 18.63121 -0.5640259
v -56.60799 43.4211 39.9883
v -57.00363 23.39168 -1.907104
v -63.17007 38.66063 41.33138
v -56.60799 38.66063 41.33138
v -63.17007 43.4211 39.9883
v -56.60799 43.4211 39.9883
v -63.5657 18.63121 -0.5640259
v -63.17007 38.66063 41.33138
v -63.5657 23.39168 -1.907104
v -63.17007 43.4211 39.9883

vn 0 0.9058114 -0.4236812
vn 0 0.9058114 -0.4236812
vn 0 0.9058114 -0.4236812
vn 0 0.9058114 -0.4236812
vn 0 0.9021972 -0.4313238
vn 5.129741E-07 0.9021972 -0.4313238
vn 5.129741E-07 0.9021972 -0.4313238
vn 1.025948E-06 0.9021971 -0.4313239
vn 0.9999999 -7.097576E-07 1.508533E-07
vn 1 -7.097575E-07 1.508533E-07
vn 1 -7.097575E-07 1.508533E-07
vn 1 -7.097574E-07 1.508532E-07
vn 0 0.2551717 0.9668958
vn 0 0.2551717 0.9668958
vn 0 0.2551717 0.9668958
vn 0 0.2551717 0.9668958
vn -1 6.884829E-07 -2.314656E-07
vn -1 6.884831E-07 -2.314656E-07
vn -1 6.884831E-07 -2.314656E-07
vn -1 6.884833E-07 -2.314657E-07
vn 0.9999627 -0.002346836 -0.008321128
vn 0.9999626 -0.002346842 -0.008321124
vn 0.9999626 -0.002346842 -0.008321124
vn 0.9999626 -0.002346848 -0.00832112
vn 1.276816E-06 0.2715328 0.9624291
vn 1.578479E-07 0.2715314 0.9624296
vn 1.578479E-07 0.2715314 0.9624296
vn -9.611215E-07 0.27153 0.9624299
vn -0.9999626 0.002346826 0.008321039
vn -0.9999627 0.002346831 0.008321038
vn -0.9999627 0.002346831 0.008321038
vn -0.9999626 0.002346836 0.008321036

vt 0.0004998147 0.5549193
vt 0.1717639 0.5549192
vt 0.0004995167 -0.9239511
vt 0.1717636 -0.9239511
vt 0.8356124 0.5549188
vt 0.9995004 0.5549187
vt 0.8356121 -0.9239514
vt 0.9995 -0.9239514
vt 0.1701907 0.962963
vt 0.1701908 -0.03703701
vt -4.371139E-08 0.9629629
vt 0 -0.03703706
vt 0.1802898 0
vt 0 0
vt 0.1802898 0.2411594
vt 0 0.2411594
vt 0.1824396 1
vt 0.1824396 2.980232E-08
vt -4.371139E-08 1
vt 0 -1.390907E-08
vt 0.1824396 1
vt 0.1824396 2.980232E-08
vt -4.371139E-08 1
vt 0 -1.390907E-08
vt 0.1802898 0
vt 0 0
vt 0.1802898 0.2411594
vt 0 0.2411594
vt 0.1701907 0.962963
vt 0.1701908 -0.03703701
vt -4.371139E-08 0.9629629
vt 0 -0.03703706

usemtl sn15_09_sn1529.JPG
usemap sn15_09_sn1529.JPG
f 3/3/3 1/1/1 2/2/2
f 2/2/2 4/4/4 3/3/3
f 7/7/7 5/5/5 6/6/6
f 6/6/6 8/8/8 7/7/7
f 11/11/11 9/9/9 10/10/10
f 10/10/10 12/12/12 11/11/11
f 15/15/15 13/13/13 14/14/14
f 14/14/14 16/16/16 15/15/15
f 19/19/19 17/17/17 18/18/18
f 18/18/18 20/20/20 19/19/19
f 23/23/23 21/21/21 22/22/22
f 22/22/22 24/24/24 23/23/23
f 27/27/27 25/25/25 26/26/26
f 26/26/26 28/28/28 27/27/27
f 31/31/31 29/29/29 30/30/30
f 30/30/30 32/32/32 31/31/31
