mtllib ./Box21274.mtl
g Box21274
v 194.7377 4.349359 17.2796
v 194.7377 58.81876 17.2796
v 97.59473 58.81876 17.2796
v 97.59473 4.349359 17.2796
v 200.2829 120.255 35.01837
v -199.2409 120.255 35.01837
v -193.8342 114.9377 35.11835
v 194.7377 114.9377 35.11835
v -199.2409 120.255 35.01837
v -199.2409 4.349359 35.01837
v -193.8342 4.349359 35.11835
v -193.8342 114.9377 35.11835
v 200.2829 4.349359 35.01837
v 200.2829 120.255 35.01837
v 194.7377 114.9377 35.11835
v 194.7377 4.349359 35.11835
v -193.8342 4.349359 35.11835
v 194.7377 4.349359 35.11835
v 194.7377 4.349359 17.2796
v 97.59473 4.349359 17.2796
v 0.4517212 4.349359 17.2796
v -96.69122 4.349359 17.2796
v -193.8342 4.349359 17.2796
v 194.7377 4.349359 35.11835
v 194.7377 114.9377 35.11835
v 194.7377 114.9377 17.2796
v 194.7377 58.81876 17.2796
v 194.7377 114.9377 35.11835
v -193.8342 114.9377 35.11835
v -193.8342 114.9377 17.2796
v -96.69122 114.9377 17.2796
v 0.4517212 114.9377 17.2796
v 97.59473 114.9377 17.2796
v 194.7377 114.9377 17.2796
v -193.8342 114.9377 35.11835
v -193.8342 4.349359 35.11835
v -193.8342 4.349359 17.2796
v -193.8342 58.81876 17.2796
v -193.8342 114.9377 17.2796
v -199.2409 0.0004432518 35.01837
v -193.8342 0.0004432518 35.11835
v -193.8342 4.349359 35.11835
v -199.2409 4.349359 35.01837
v 194.7377 0.0004432518 35.11835
v 200.2829 0.0004432518 35.01837
v 200.2829 4.349359 35.01837
v 194.7377 4.349359 35.11835
v 97.59473 114.9377 17.2796
v 0.4517212 114.9377 17.2796
v 0.4517212 58.81876 17.2796
v 97.59473 58.81876 17.2796
v 0.4517212 58.81876 17.2796
v -96.69122 58.81876 17.2796
v -96.69122 4.349359 17.2796
v 0.4517212 4.349359 17.2796
v 0.4517212 114.9377 17.2796
v -96.69122 114.9377 17.2796
v -96.69122 58.81876 17.2796
v 0.4517212 58.81876 17.2796
v 97.59473 4.349359 17.2796
v 97.59473 58.81876 17.2796
v 0.4517212 58.81876 17.2796
v 0.4517212 4.349359 17.2796
v 97.59473 114.9377 17.2796
v 97.59473 58.81876 17.2796
v 194.7377 58.81876 17.2796
v 194.7377 114.9377 17.2796
v -193.8342 58.81876 17.2796
v -193.8342 4.349359 17.2796
v -96.69122 4.349359 17.2796
v -96.69122 58.81876 17.2796
v -193.8342 114.9377 17.2796
v -193.8342 58.81876 17.2796
v -96.69122 58.81876 17.2796
v -96.69122 114.9377 17.2796
v 96.70938 4.349381 32.71466
v 96.70941 114.9377 32.71466
v 96.70947 114.9377 15.81738
v 96.70944 4.349404 15.81738
v 102.0266 4.349366 32.81464
v 102.0267 114.9377 32.81464
v 96.70941 114.9377 32.71466
v 96.70938 4.349381 32.71466
v 102.0267 4.349374 15.81738
v 102.0267 114.9377 15.81738
v 102.0267 114.9377 32.81464
v 102.0266 4.349366 32.81464
v -2.206909 4.349389 32.71466
v -2.206909 114.9377 32.71466
v -2.206848 114.9377 15.81738
v -2.206848 4.349412 15.81738
v 3.110352 4.34937 32.81464
v 3.110352 114.9377 32.81464
v -2.206909 114.9377 32.71466
v -2.206909 4.349389 32.71466
v 3.110352 4.349378 15.81738
v 3.110413 114.9377 15.81738
v 3.110352 114.9377 32.81464
v 3.110352 4.34937 32.81464
v -100.4568 4.349385 32.71466
v -100.4568 114.9377 32.71466
v -100.4568 114.9377 15.81738
v -100.4568 4.349408 15.81738
v -95.13959 4.34937 32.81464
v -95.13959 114.9377 32.81464
v -100.4568 114.9377 32.71466
v -100.4568 4.349385 32.71466
v -95.13959 4.349378 15.81738
v -95.13953 114.9377 15.81738
v -95.13959 114.9377 32.81464
v -95.13959 4.34937 32.81464
v 194.7377 61.32259 15.58453
v -193.8342 61.32259 15.58453
v -193.8342 61.32259 33.3233
v 194.7377 61.32259 33.3233
v 194.7377 61.32259 33.3233
v -193.8342 61.32259 33.3233
v -193.8342 56.00533 33.42328
v 194.7377 56.00533 33.42328
v 194.7377 56.00533 33.42328
v -193.8342 56.00533 33.42328
v -193.8342 56.00533 15.58447
v 194.7377 56.00533 15.58447
v 194.7377 79.58627 23.50525
v -193.8342 79.58627 23.50525
v -193.8342 79.58627 33.65704
v 194.7377 79.58627 33.65704
v 194.7377 79.58627 33.65704
v -193.8342 79.58627 33.65704
v -193.8342 76.51325 33.75702
v 194.7377 76.51325 33.75702
v 194.7377 76.51325 33.75702
v -193.8342 76.51325 33.75702
v -193.8342 76.51325 23.50519
v 194.7377 76.51325 23.50519
v 194.7377 22.39295 23.50525
v -193.8342 22.39295 23.50525
v -193.8342 22.39295 33.65704
v 194.7377 22.39295 33.65704
v 194.7377 22.39295 33.65704
v -193.8342 22.39295 33.65704
v -193.8342 19.31993 33.75702
v 194.7377 19.31993 33.75702
v 194.7377 19.31993 33.75702
v -193.8342 19.31993 33.75702
v -193.8342 19.31993 23.50519
v 194.7377 19.31993 23.50519
v 194.7377 40.88929 23.50525
v -193.8342 40.88929 23.50525
v -193.8342 40.88929 33.65704
v 194.7377 40.88929 33.65704
v 194.7377 40.88929 33.65704
v -193.8342 40.88929 33.65704
v -193.8342 37.81628 33.75702
v 194.7377 37.81628 33.75702
v 194.7377 37.81628 33.75702
v -193.8342 37.81628 33.75702
v -193.8342 37.81628 23.50519
v 194.7377 37.81628 23.50519
v 194.7377 97.55918 23.50525
v -193.8342 97.55918 23.50525
v -193.8342 97.55918 33.65704
v 194.7377 97.55918 33.65704
v 194.7377 97.55918 33.65704
v -193.8342 97.55918 33.65704
v -193.8342 94.48617 33.75702
v 194.7377 94.48617 33.75702
v 194.7377 94.48617 33.75702
v -193.8342 94.48617 33.75702
v -193.8342 94.48617 23.50519
v 194.7377 94.48617 23.50519

vn 0 0 1
vn 0 0 1
vn 0 0 1
vn 0 0 1
vn 0 0.01879876 0.9998233
vn 0 0.01879876 0.9998233
vn 0 0.01879876 0.9998233
vn 0 0.01879876 0.9998233
vn -0.01848797 0 0.9998291
vn -0.01848797 0 0.9998291
vn -0.01848797 0 0.9998291
vn -0.01848797 0 0.999829
vn 0.01802639 0 0.9998376
vn 0.01802639 0 0.9998375
vn 0.01802639 0 0.9998376
vn 0.01802639 0 0.9998375
vn 0 0.9999999 0
vn 0 1 0
vn -0.1114442 0.9937707 0
vn 0 1 0
vn 0 0.9999999 0
vn 0 1 0
vn 0 1 0
vn -1 0 0
vn -1 0 0
vn -0.9999999 0 0
vn -1 0 0
vn 0 -0.9999999 0
vn 0 -1 0
vn 0 -1 0
vn 0 -1 0
vn 0 -0.9999999 0
vn 0 -1 0
vn 0 -1 0
vn 1 0 0
vn 1 0 0
vn 1 0 0
vn 1 0 0
vn 1 0 0
vn -0.01848797 0 0.9998291
vn -0.0001277561 0 1
vn -0.0005006472 0 0.9999999
vn -0.01848797 0 0.9998291
vn 0.0005003003 0 0.9999999
vn 0.01802639 0 0.9998376
vn 0.01802639 0 0.9998376
vn 0.0001277335 0 1
vn 0 0 1
vn 0 0 1
vn 0 0 1
vn 0 0 1
vn 0 0 1
vn 0 0 1
vn 0 0 1
vn 0 0 1
vn 0 0 1
vn 0 0 1
vn 0 0 1
vn 0 0 1
vn 0 0 1
vn 0 0 1
vn 0 0 1
vn 0 0 1
vn 0 0 1
vn 0 0 1
vn 0 0 1
vn 0 0 1
vn 0 0 1
vn 0 0 1
vn 0 0 1
vn 0 0 1
vn 0 0 1
vn 0 0 1
vn 0 0 1
vn 0 0 1
vn -1 2.759567E-07 -3.61213E-06
vn -0.9999999 2.759566E-07 -3.61213E-06
vn -1 2.759567E-07 -3.61213E-06
vn -1 2.759567E-07 -3.612129E-06
vn -0.01879876 5.187642E-09 0.9998233
vn -0.01879876 5.187642E-09 0.9998233
vn -0.01879876 5.187642E-09 0.9998233
vn -0.01879876 5.187643E-09 0.9998233
vn 0.9999999 -2.759566E-07 1.795442E-06
vn 1 -2.759566E-07 1.795442E-06
vn 0.9999999 -2.759566E-07 1.795442E-06
vn 0.9999999 -2.759566E-07 1.795442E-06
vn -1 0 -3.61213E-06
vn -1 0 -3.61213E-06
vn -1 0 -3.61213E-06
vn -1 0 -3.61213E-06
vn -0.01879876 0 0.9998233
vn -0.01879876 0 0.9998233
vn -0.01879876 0 0.9998233
vn -0.01879876 0 0.9998233
vn 1 -2.759566E-07 1.795442E-06
vn 1 -5.519132E-07 3.590884E-06
vn 1 -2.759566E-07 1.795442E-06
vn 1 0 0
vn -1 0 -3.61213E-06
vn -1 0 -3.61213E-06
vn -1 0 -3.61213E-06
vn -1 0 -3.61213E-06
vn -0.01879876 0 0.9998233
vn -0.01879876 0 0.9998233
vn -0.01879876 0 0.9998233
vn -0.01879876 0 0.9998233
vn 1 -2.759566E-07 1.795442E-06
vn 1 -5.519132E-07 3.590884E-06
vn 1 -2.759566E-07 1.795442E-06
vn 1 0 0
vn 0 1 0
vn 0 1 0
vn 0 1 0
vn 0 1 0
vn 0 0.01879876 0.9998233
vn 0 0.01879876 0.9998233
vn 0 0.01879876 0.9998233
vn 0 0.01879876 0.9998233
vn 0 -1 0
vn 0 -1 0
vn 0 -1 0
vn 0 -1 0
vn 0 0.9999999 0
vn 0 0.9999999 0
vn 0 0.9999999 0
vn 0 0.9999999 0
vn 0 0.0325162 0.9994712
vn 0 0.0325162 0.9994712
vn 0 0.0325162 0.9994712
vn 0 0.0325162 0.9994712
vn 0 -1 0
vn 0 -1 0
vn 0 -1 0
vn 0 -1 0
vn 0 0.9999999 0
vn 0 0.9999999 0
vn 0 0.9999999 0
vn 0 0.9999999 0
vn 0 0.0325162 0.9994712
vn 0 0.0325162 0.9994712
vn 0 0.0325162 0.9994712
vn 0 0.0325162 0.9994712
vn 0 -1 0
vn 0 -1 0
vn 0 -1 0
vn 0 -1 0
vn 0 0.9999999 0
vn 0 0.9999999 0
vn 0 0.9999999 0
vn 0 0.9999999 0
vn 0 0.0325162 0.9994712
vn 0 0.0325162 0.9994712
vn 0 0.0325162 0.9994712
vn 0 0.0325162 0.9994712
vn 0 -1 0
vn 0 -1 0
vn 0 -1 0
vn 0 -1 0
vn 0 0.9999999 0
vn 0 0.9999999 0
vn 0 0.9999999 0
vn 0 0.9999999 0
vn 0 0.0325162 0.9994712
vn 0 0.0325162 0.9994712
vn 0 0.0325162 0.9994712
vn 0 0.0325162 0.9994712
vn 0 -1 0
vn 0 -1 0
vn 0 -1 0
vn 0 -1 0

vt 0 0.2560386
vt 1 0.2560386
vt 1 0.6111111
vt 0 0.6111111
vt 0.0004995465 0.6420121
vt 2 0.6420121
vt 1.960529 0.6116101
vt 0.01436511 0.6116101
vt 0.0004994571 0.6444267
vt 2 0.6444267
vt 2 0.6116093
vt 0.1002152 0.6116093
vt 2 0.6091956
vt 0.0004995167 0.6091956
vt 0.07894218 0.6444284
vt 2 0.6444284
vt 4 0.6130219
vt 0.0004995465 0.6130271
vt 0.0004995465 0.2420506
vt 1.000375 0.2420493
vt 2.00025 0.242048
vt 3.000125 0.2420467
vt 4 0.2420454
vt 0.0004996955 0.6106116
vt 2 0.6106116
vt 2 0.2420506
vt 1.00025 0.2420506
vt 0.0004995465 0.6130271
vt 4 0.6130219
vt 4 0.2420454
vt 3.000125 0.2420467
vt 2.00025 0.242048
vt 1.000375 0.2420493
vt 0.0004995465 0.2420506
vt 2 0.6106064
vt 0.0004995763 0.6106064
vt 0.0004995763 0.2420454
vt 1.00025 0.2420454
vt 2 0.2420454
vt 2.362225 0.6091952
vt 2.348706 0.6091952
vt 2.348706 0.6468434
vt 2.362225 0.6468434
vt 0.01436511 0.6091952
vt 0.0004995465 0.6091952
vt 0.0004995465 0.6468434
vt 0.01436511 0.6468434
vt 1 0.615942
vt 0 0.615942
vt 0 0.2415459
vt 1 0.2415459
vt 0.0004995167 0.6106116
vt 0.9995005 0.6106116
vt 0.9995005 0.2541227
vt 0.0004995167 0.2541227
vt 0.0004995167 0.6154425
vt 0.9995005 0.6154425
vt 0.9995005 0.2420455
vt 0.0004995167 0.2420455
vt 1 0.6111111
vt 0 0.6111111
vt 0 0.2560386
vt 1 0.2560386
vt 1 0.6135266
vt 0 0.6135266
vt 0 0.2391304
vt 1 0.2391304
vt 0 0.2560386
vt 1 0.2560386
vt 1 0.6135266
vt 0 0.6135266
vt 1 0.6135266
vt 0 0.6135266
vt 0 0.2391305
vt 1 0.2391305
vt 2 0.6071475
vt 0.0004995763 0.6071497
vt 0.0004995465 0.2420491
vt 2 0.2420468
vt 0.0004995465 0.6116209
vt 2 0.6116152
vt 2 0.6420082
vt 0.0004996359 0.642014
vt 2 0.2420454
vt 0.0004995465 0.2420477
vt 0.0004995763 0.6130271
vt 2 0.6130248
vt 2 0.6071475
vt 0.0004995763 0.6071497
vt 0.0004995465 0.2420491
vt 2 0.2420468
vt 0.0004995465 0.6116209
vt 2 0.6116152
vt 2 0.6420082
vt 0.0004997982 0.642014
vt 2 0.2420454
vt 0.0004995465 0.2420477
vt 0.0004995763 0.6130271
vt 2 0.6130248
vt 2 0.6071475
vt 0.0004995763 0.6071497
vt 0.0004995465 0.2420491
vt 2 0.2420468
vt 0.0004995465 0.6116209
vt 2 0.6116152
vt 2 0.6420082
vt 0.0004997982 0.642014
vt 2 0.2420454
vt 0.0004995465 0.2420477
vt 0.0004995763 0.6130271
vt 2 0.6130248
vt 0.0004995465 0.2372217
vt 4 0.2372165
vt 4 0.6050064
vt 0.0004995465 0.6050115
vt 0.0004995465 0.6444275
vt 4 0.6444275
vt 4 0.6140255
vt 0.0004995465 0.6140255
vt 0.0004995465 0.6106116
vt 4 0.6106064
vt 4 0.2372145
vt 0.0004995465 0.2372197
vt 0.0004995465 0.2372217
vt 4 0.2372165
vt 4 0.6050064
vt 0.0004995465 0.6050115
vt 0.0004995465 0.6444275
vt 4 0.6444275
vt 4 0.6140255
vt 0.0004995465 0.6140255
vt 0.0004995465 0.6106116
vt 4 0.6106064
vt 4 0.2372145
vt 0.0004995465 0.2372197
vt 0.0004995465 0.2372217
vt 4 0.2372165
vt 4 0.6050064
vt 0.0004995465 0.6050115
vt 0.0004995465 0.6444275
vt 4 0.6444275
vt 4 0.6140255
vt 0.0004995465 0.6140255
vt 0.0004995465 0.6106116
vt 4 0.6106064
vt 4 0.2372145
vt 0.0004995465 0.2372197
vt 0.0004995465 0.2372217
vt 4 0.2372165
vt 4 0.6050064
vt 0.0004995465 0.6050115
vt 0.0004995465 0.6444275
vt 4 0.6444275
vt 4 0.6140255
vt 0.0004995465 0.6140255
vt 0.0004995465 0.6106116
vt 4 0.6106064
vt 4 0.2372145
vt 0.0004995465 0.2372197
vt 0.0004995465 0.2372217
vt 4 0.2372165
vt 4 0.6050064
vt 0.0004995465 0.6050115
vt 0.0004995465 0.6444275
vt 4 0.6444275
vt 4 0.6140255
vt 0.0004995465 0.6140255
vt 0.0004995465 0.6106116
vt 4 0.6106064
vt 4 0.2372145
vt 0.0004995465 0.2372197

usemtl sn15_45_sn1565.JPG
usemap sn15_45_sn1565.JPG
f 3/3/3 1/1/1 2/2/2
f 1/1/1 3/3/3 4/4/4
f 7/7/7 5/5/5 6/6/6
f 5/5/5 7/7/7 8/8/8
f 11/11/11 9/9/9 10/10/10
f 9/9/9 11/11/11 12/12/12
f 15/15/15 13/13/13 14/14/14
f 13/13/13 15/15/15 16/16/16
f 19/19/19 17/17/17 18/18/18
f 20/20/20 17/17/17 19/19/19
f 21/21/21 17/17/17 20/20/20
f 22/22/22 17/17/17 21/21/21
f 23/23/23 17/17/17 22/22/22
f 26/26/26 24/24/24 25/25/25
f 27/27/27 24/24/24 26/26/26
f 19/19/19 24/24/24 27/27/27
f 30/30/30 28/28/28 29/29/29
f 31/31/31 28/28/28 30/30/30
f 32/32/32 28/28/28 31/31/31
f 33/33/33 28/28/28 32/32/32
f 34/34/34 28/28/28 33/33/33
f 37/37/37 35/35/35 36/36/36
f 38/38/38 35/35/35 37/37/37
f 39/39/39 35/35/35 38/38/38
f 42/42/42 40/40/40 41/41/41
f 40/40/40 42/42/42 43/43/43
f 46/46/46 44/44/44 45/45/45
f 44/44/44 46/46/46 47/47/47
f 47/47/47 41/41/41 44/44/44
f 41/41/41 47/47/47 42/42/42
f 50/50/50 48/48/48 49/49/49
f 48/48/48 50/50/50 51/51/51
f 54/54/54 52/52/52 53/53/53
f 52/52/52 54/54/54 55/55/55
f 58/58/58 56/56/56 57/57/57
f 56/56/56 58/58/58 59/59/59
f 62/62/62 60/60/60 61/61/61
f 60/60/60 62/62/62 63/63/63
f 66/66/66 64/64/64 65/65/65
f 64/64/64 66/66/66 67/67/67
f 70/70/70 68/68/68 69/69/69
f 68/68/68 70/70/70 71/71/71
f 74/74/74 72/72/72 73/73/73
f 72/72/72 74/74/74 75/75/75
f 78/78/78 76/76/76 77/77/77
f 76/76/76 78/78/78 79/79/79
f 82/82/82 80/80/80 81/81/81
f 80/80/80 82/82/82 83/83/83
f 86/86/86 84/84/84 85/85/85
f 84/84/84 86/86/86 87/87/87
f 90/90/90 88/88/88 89/89/89
f 88/88/88 90/90/90 91/91/91
f 94/94/94 92/92/92 93/93/93
f 92/92/92 94/94/94 95/95/95
f 98/98/98 96/96/96 97/97/97
f 96/96/96 98/98/98 99/99/99
f 102/102/102 100/100/100 101/101/101
f 100/100/100 102/102/102 103/103/103
f 106/106/106 104/104/104 105/105/105
f 104/104/104 106/106/106 107/107/107
f 110/110/110 108/108/108 109/109/109
f 108/108/108 110/110/110 111/111/111
f 114/114/114 112/112/112 113/113/113
f 112/112/112 114/114/114 115/115/115
f 118/118/118 116/116/116 117/117/117
f 116/116/116 118/118/118 119/119/119
f 122/122/122 120/120/120 121/121/121
f 120/120/120 122/122/122 123/123/123
f 130/130/130 128/128/128 129/129/129
f 128/128/128 130/130/130 131/131/131
f 142/142/142 140/140/140 141/141/141
f 140/140/140 142/142/142 143/143/143
f 154/154/154 152/152/152 153/153/153
f 152/152/152 154/154/154 155/155/155
f 166/166/166 164/164/164 165/165/165
f 164/164/164 166/166/166 167/167/167

usemtl sn15_73_sn1587.jpg
usemap sn15_73_sn1587.jpg
f 126/126/126 124/124/124 125/125/125
f 124/124/124 126/126/126 127/127/127
f 134/134/134 132/132/132 133/133/133
f 132/132/132 134/134/134 135/135/135
f 138/138/138 136/136/136 137/137/137
f 136/136/136 138/138/138 139/139/139
f 146/146/146 144/144/144 145/145/145
f 144/144/144 146/146/146 147/147/147
f 150/150/150 148/148/148 149/149/149
f 148/148/148 150/150/150 151/151/151
f 158/158/158 156/156/156 157/157/157
f 156/156/156 158/158/158 159/159/159
f 162/162/162 160/160/160 161/161/161
f 160/160/160 162/162/162 163/163/163
f 170/170/170 168/168/168 169/169/169
f 168/168/168 170/170/170 171/171/171
