mtllib ./Box21356.mtl
g Box21356
v -3.319824 -0.2582092 64.98299
v 3.096802 -0.2582102 64.98299
v -3.319824 -0.2582116 23.02841
v 3.096802 -0.2582116 23.0284
v 3.096802 -0.2582102 64.98299
v 2.500153 -4.258208 64.98299
v 3.096802 -0.2582116 23.0284
v 2.500153 -4.258211 23.0284
v 2.404572 -2.267237 64.98299
v 7.404572 -2.267237 64.98299
v 2.404572 -2.267239 23.0284
v 7.404572 -2.267239 23.02841
v 7.404572 -2.267237 64.98299
v 7.404572 -6.267235 64.98301
v 7.404572 -2.267239 23.02841
v 7.404572 -6.267237 23.02841
v 7.30899 -4.969417 64.98299
v 12.30899 -4.969417 64.98299
v 7.30899 -4.969419 23.0284
v 12.30899 -4.969419 23.0284
v 12.30899 -4.969417 64.98299
v 12.30899 -8.969416 64.98301
v 12.30899 -4.969419 23.0284
v 12.30899 -8.969419 23.0284
v 12.21341 -7.221105 64.983
v 17.21341 -7.221105 64.98299
v 12.21341 -7.221107 23.0284
v 17.21341 -7.221107 23.0284
v 17.21341 -7.221105 64.98299
v 17.21341 -10.56638 64.98301
v 17.21341 -7.221107 23.0284
v 17.21341 -10.56638 23.0284
v 17.15567 -9.628218 64.983
v 22.15567 -9.628218 64.983
v 17.15567 -9.62822 23.0284
v 22.15567 -9.628222 23.0284
v 22.15567 -9.628218 64.983
v 22.15567 -12.99223 64.98301
v 22.15567 -9.628222 23.0284
v 22.15567 -12.99224 23.02841
v 22.09793 -11.76094 64.98301
v 27.09793 -11.76094 64.983
v 22.09793 -11.76095 23.0284
v 27.09793 -11.76095 23.0284
v 27.09793 -11.76094 64.983
v 27.09793 -15.76094 64.98301
v 27.09793 -11.76095 23.0284
v 27.09793 -15.76095 23.02841
v 27.04019 -14.20557 64.983
v 32.04019 -14.20557 64.983
v 27.04019 -14.20557 23.0284
v 32.04019 -14.20557 23.0284
v 32.04019 -14.20557 64.983
v 32.04019 -18.20557 64.983
v 32.04019 -14.20557 23.0284
v 32.04019 -18.20557 23.0284
v 31.98245 -17.46601 64.983
v 36.98245 -17.46601 64.98301
v 31.98245 -17.46601 23.0284
v 36.98245 -17.46601 23.02841
v 36.98245 -17.46601 64.98301
v 36.98245 -21.46601 64.983
v 36.98245 -17.46601 23.02841
v 36.98245 -21.46601 23.0284
v 36.48166 -20.43842 64.983
v 41.48166 -20.43842 64.98301
v 36.48166 -20.43842 23.0284
v 41.48169 -20.43842 23.0284
v 41.48166 -20.43842 64.98301
v 41.48166 -24.43842 64.983
v 41.48169 -20.43842 23.0284
v 41.48169 -24.43842 23.0284
v -7.021545 1.477447 64.98299
v -0.6049194 1.477447 64.98299
v -7.021545 1.477446 23.02841
v -0.6049194 1.477446 23.0284
v -0.6049194 1.477447 64.98299
v -1.201569 -2.522552 64.98299
v -0.6049194 1.477446 23.0284
v -1.201569 -2.522554 23.02841
v -13.21054 3.214909 64.98299
v -4.446289 3.416391 64.98299
v -13.21054 3.214907 23.02841
v -4.446289 3.416389 23.0284
v -4.446289 3.416391 64.98299
v -5.042938 -0.5836067 64.98299
v -4.446289 3.416389 23.0284
v -5.042938 -0.5836086 23.02842
v -17.3895 5.269019 64.98299
v -8.625275 5.470502 64.98299
v -17.3895 5.269017 23.02841
v -8.625275 5.4705 23.0284
v -8.625275 5.470502 64.98299
v -9.221924 1.470504 64.98299
v -8.625275 5.4705 23.0284
v -9.221924 1.470501 23.02842
v -20.49487 6.634407 64.98299
v -11.73065 6.835889 64.98299
v -20.49487 6.634405 23.02841
v -11.73065 6.835887 23.0284
v -11.73065 6.835889 64.98299
v -12.3273 2.835891 64.98299
v -11.73065 6.835887 23.0284
v -12.3273 2.835889 23.02842

vn 1.486256E-07 1 -5.682779E-08
vn 7.431276E-08 1 -4.546223E-08
vn 7.431276E-08 1 -4.546223E-08
vn -4.054107E-14 1 -3.409666E-08
vn 0.9890575 -0.1475302 5.030286E-09
vn 0.9890575 -0.1475301 7.545427E-09
vn 0.9890575 -0.1475301 7.545427E-09
vn 0.9890576 -0.1475301 1.006057E-08
vn 0 1 -4.546222E-08
vn 3.468492E-14 1 -4.546222E-08
vn 3.468492E-14 1 -4.546222E-08
vn 6.936984E-14 0.9999999 -4.546222E-08
vn 0.9999999 0 0
vn 1 0 0
vn 1 0 0
vn 1 0 0
vn 0 1 -6.819332E-08
vn 5.202737E-14 1 -6.819332E-08
vn 5.202737E-14 1 -6.819332E-08
vn 1.040548E-13 1 -6.819332E-08
vn 1 0 0
vn 1 0 0
vn 1 0 0
vn 1 0 0
vn -1.040547E-13 1 -6.819332E-08
vn -5.202737E-14 1 -6.819332E-08
vn -5.202737E-14 1 -6.819332E-08
vn 0 1 -6.819332E-08
vn 1 0 0
vn 1 0 0
vn 1 0 0
vn 1 0 0
vn 0 1 -4.54622E-08
vn 1.907349E-07 1 -6.81933E-08
vn 1.907349E-07 1 -6.81933E-08
vn 3.814699E-07 1 -9.092442E-08
vn 1 0 0
vn 1 0 0
vn 1 0 0
vn 1 0 0
vn 3.814696E-07 1 -9.09244E-08
vn 1.907348E-07 1 -6.81933E-08
vn 1.907348E-07 1 -6.81933E-08
vn 0 1 -4.546221E-08
vn 1 0 0
vn 1 0 0
vn 1 0 0
vn 1 0 0
vn 0 1 0
vn 1.907349E-07 1 -2.273111E-08
vn 1.907349E-07 1 -2.273111E-08
vn 3.814698E-07 1 -4.546221E-08
vn 1 0 0
vn 1 0 0
vn 1 0 0
vn 1 0 0
vn 6.936983E-14 1 -4.546221E-08
vn 6.936983E-14 1 -4.546221E-08
vn 6.936983E-14 1 -4.546221E-08
vn 6.936983E-14 1 -4.546221E-08
vn 1 0 0
vn 1 0 0
vn 1 0 0
vn 1 0 0
vn 6.936983E-14 1 -4.546221E-08
vn 3.46848E-14 1 -4.54622E-08
vn 3.46848E-14 1 -4.54622E-08
vn 0 1 -4.54622E-08
vn 1 -1.387396E-12 7.273952E-07
vn 1 -6.936984E-13 7.273953E-07
vn 1 -6.936984E-13 7.273953E-07
vn 1 0 7.273953E-07
vn 7.431279E-08 1 -3.409668E-08
vn 3.715638E-08 1 -2.841389E-08
vn 3.715638E-08 1 -2.841389E-08
vn -2.702738E-14 1 -2.273111E-08
vn 0.9890575 -0.1475301 3.353523E-09
vn 0.9890575 -0.1475301 5.030285E-09
vn 0.9890575 -0.1475301 5.030285E-09
vn 0.9890575 -0.1475301 6.707046E-09
vn -0.02298309 0.9997359 -4.545023E-08
vn -0.02298309 0.9997359 -4.545022E-08
vn -0.02298309 0.9997359 -4.545022E-08
vn -0.02298309 0.9997359 -4.545021E-08
vn 0.9890575 -0.1475302 6.707048E-09
vn 0.9890576 -0.1475302 6.70705E-09
vn 0.9890576 -0.1475302 6.70705E-09
vn 0.9890575 -0.1475302 6.70705E-09
vn -0.02298317 0.9997359 -4.545023E-08
vn -0.02298317 0.9997358 -4.545022E-08
vn -0.02298317 0.9997358 -4.545022E-08
vn -0.02298317 0.9997359 -4.545021E-08
vn 0.9890575 -0.1475302 6.707048E-09
vn 0.9890575 -0.1475301 7.545429E-09
vn 0.9890575 -0.1475301 7.545429E-09
vn 0.9890576 -0.1475302 8.383813E-09
vn -0.02298317 0.9997359 -4.545023E-08
vn -0.02298317 0.9997358 -4.545022E-08
vn -0.02298317 0.9997358 -4.545022E-08
vn -0.02298317 0.9997359 -4.545021E-08
vn 0.9890575 -0.1475301 6.707047E-09
vn 0.9890575 -0.1475301 6.707048E-09
vn 0.9890575 -0.1475301 6.707048E-09
vn 0.9890576 -0.1475302 6.70705E-09

vt 1.061708E-07 1.192093E-07
vt -4.371139E-08 1
vt 3.110909 6.58145E-08
vt 3.110909 1
vt 5.209332 1
vt 5.209333 0
vt 2.098263 1
vt 2.098264 0
vt 0 -1.390907E-08
vt -4.371139E-08 1
vt 3.11091 1.219585E-08
vt 3.110909 1
vt 5.209332 1
vt 5.209333 0
vt 2.098263 1
vt 2.098264 0
vt 4.973263E-07 -1.788139E-07
vt -4.371139E-08 1
vt 3.11091 -5.422606E-08
vt 3.11091 1
vt 5.209332 1
vt 5.209333 0
vt 2.098263 1
vt 2.098264 0
vt 0 -1.390907E-08
vt -4.371139E-08 1
vt 3.11091 1.219585E-08
vt 3.110909 1
vt 5.209332 1
vt 5.209333 0
vt 2.098263 1
vt 2.098264 0
vt 4.973263E-07 -2.384186E-07
vt -4.371139E-08 1
vt 3.11091 -7.823417E-08
vt 3.11091 1
vt 5.209333 1
vt 5.209333 0
vt 2.098264 1
vt 2.098264 3.559654E-08
vt 0 -1.390907E-08
vt -4.371139E-08 1
vt 3.11091 1.219585E-08
vt 3.110909 1
vt 5.209332 1
vt 5.209333 0
vt 2.098263 1
vt 2.098264 0
vt 4.93601E-07 1.192093E-07
vt -4.371139E-08 1
vt 3.11091 6.581449E-08
vt 3.11091 1
vt 5.209333 1
vt 5.209333 0
vt 2.098264 1
vt 2.098264 1.779827E-07
vt 0 -1.390907E-08
vt -4.371139E-08 1
vt 3.11091 1.219585E-08
vt 3.110909 0.9999999
vt 5.209333 1
vt 5.209333 0
vt 2.098264 1
vt 2.098264 -1.423861E-07
vt 0 -1.390907E-08
vt -4.371139E-08 1
vt 3.11091 1.219585E-08
vt 3.110909 0.9999999
vt 5.209333 1
vt 5.209333 0
vt 2.098264 1
vt 2.098264 -1.423861E-07
vt 1.061708E-07 1.192093E-07
vt -4.371139E-08 1
vt 3.110909 6.58145E-08
vt 3.110909 1
vt 5.209332 1
vt 5.209333 0
vt 2.098263 1
vt 2.098264 0
vt 1.061708E-07 1.192093E-07
vt -4.371139E-08 1
vt 3.110909 6.58145E-08
vt 3.110909 1
vt 5.209332 1
vt 5.209333 0
vt 2.098263 1
vt 2.098264 0
vt 1.061708E-07 1.192093E-07
vt -4.371139E-08 1
vt 3.110909 6.58145E-08
vt 3.110909 1
vt 5.209332 1
vt 5.209333 0
vt 2.098263 1
vt 2.098264 0
vt 1.061708E-07 1.192093E-07
vt -4.371139E-08 1
vt 3.110909 6.58145E-08
vt 3.110909 1
vt 5.209332 1
vt 5.209333 0
vt 2.098263 1
vt 2.098264 0

usemtl sn15_01_sn1540.JPG
usemap sn15_01_sn1540.JPG
f 3/3/3 1/1/1 2/2/2
f 2/2/2 4/4/4 3/3/3
f 7/7/7 5/5/5 6/6/6
f 6/6/6 8/8/8 7/7/7
f 11/11/11 9/9/9 10/10/10
f 10/10/10 12/12/12 11/11/11
f 15/15/15 13/13/13 14/14/14
f 14/14/14 16/16/16 15/15/15
f 19/19/19 17/17/17 18/18/18
f 18/18/18 20/20/20 19/19/19
f 23/23/23 21/21/21 22/22/22
f 22/22/22 24/24/24 23/23/23
f 27/27/27 25/25/25 26/26/26
f 26/26/26 28/28/28 27/27/27
f 31/31/31 29/29/29 30/30/30
f 30/30/30 32/32/32 31/31/31
f 35/35/35 33/33/33 34/34/34
f 34/34/34 36/36/36 35/35/35
f 39/39/39 37/37/37 38/38/38
f 38/38/38 40/40/40 39/39/39
f 43/43/43 41/41/41 42/42/42
f 42/42/42 44/44/44 43/43/43
f 47/47/47 45/45/45 46/46/46
f 46/46/46 48/48/48 47/47/47
f 51/51/51 49/49/49 50/50/50
f 50/50/50 52/52/52 51/51/51
f 55/55/55 53/53/53 54/54/54
f 54/54/54 56/56/56 55/55/55
f 59/59/59 57/57/57 58/58/58
f 58/58/58 60/60/60 59/59/59
f 63/63/63 61/61/61 62/62/62
f 62/62/62 64/64/64 63/63/63
f 67/67/67 65/65/65 66/66/66
f 66/66/66 68/68/68 67/67/67
f 71/71/71 69/69/69 70/70/70
f 70/70/70 72/72/72 71/71/71
f 75/75/75 73/73/73 74/74/74
f 74/74/74 76/76/76 75/75/75
f 79/79/79 77/77/77 78/78/78
f 78/78/78 80/80/80 79/79/79
f 83/83/83 81/81/81 82/82/82
f 82/82/82 84/84/84 83/83/83
f 87/87/87 85/85/85 86/86/86
f 86/86/86 88/88/88 87/87/87
f 91/91/91 89/89/89 90/90/90
f 90/90/90 92/92/92 91/91/91
f 95/95/95 93/93/93 94/94/94
f 94/94/94 96/96/96 95/95/95
f 99/99/99 97/97/97 98/98/98
f 98/98/98 100/100/100 99/99/99
f 103/103/103 101/101/101 102/102/102
f 102/102/102 104/104/104 103/103/103
