mtllib ./Box21324.mtl
g Box21324
v 222.6213 -10.07822 -77.97974
v 200.5914 -10.07822 -77.97974
v 222.6213 43.20506 40.73349
v 200.5914 43.20506 40.73349
v -75.57436 -7.390381 -70.05743
v -96.31252 -7.390381 -70.05743
v -75.57434 43.20209 40.71875
v -96.3125 43.20209 40.71875
v 222.6213 38.11588 42.07657
v 222.6213 -15.16742 -76.63666
v 222.6213 43.20506 40.73349
v 222.6213 -10.07822 -77.97974
v 200.5914 38.11588 42.07657
v 222.6213 38.11588 42.07657
v 200.5914 43.20506 40.73349
v 222.6213 43.20506 40.73349
v 200.5914 -15.16742 -76.63666
v 200.5914 38.11588 42.07657
v 200.5914 -10.07822 -77.97974
v 200.5914 43.20506 40.73349
v -75.57434 38.44162 42.06183
v -75.57434 -12.15088 -68.71436
v -75.57434 43.20209 40.71875
v -75.57436 -7.390381 -70.05743
v -96.3125 38.44162 42.06186
v -75.57434 38.44162 42.06183
v -96.3125 43.20209 40.71875
v -75.57434 43.20209 40.71875
v -96.3125 -12.15088 -68.71436
v -96.3125 38.44162 42.06186
v -96.31252 -7.390381 -70.05743
v -96.3125 43.20209 40.71875

vn 0 0.912317 -0.4094846
vn 0 0.912317 -0.4094846
vn 0 0.912317 -0.4094846
vn 0 0.912317 -0.4094847
vn 0 0.9096237 -0.4154332
vn 0 0.9096237 -0.4154332
vn 0 0.9096237 -0.4154332
vn 0 0.9096237 -0.4154332
vn 1 1.516444E-07 5.746102E-07
vn 1 1.516442E-07 5.746103E-07
vn 1 1.516442E-07 5.746103E-07
vn 1 1.51644E-07 5.746104E-07
vn 0 0.2551718 0.9668958
vn 0 0.2551718 0.9668958
vn 0 0.2551718 0.9668958
vn 0 0.2551718 0.9668958
vn -1 2.620071E-06 -1.433063E-06
vn -1 1.264544E-06 -8.889156E-07
vn -1 1.264544E-06 -8.889156E-07
vn -1 -9.098663E-08 -3.447661E-07
vn 1 0 0
vn 1 1.402505E-06 -7.09409E-07
vn 1 1.402505E-06 -7.09409E-07
vn 1 2.805003E-06 -1.418814E-06
vn 1.416277E-06 0.2715375 0.9624279
vn 7.081388E-07 0.2715347 0.9624287
vn 7.081388E-07 0.2715347 0.9624287
vn 0 0.2715318 0.9624294
vn -1 -2.839429E-06 1.296793E-06
vn -1 -1.402503E-06 7.09408E-07
vn -1 -1.402503E-06 7.09408E-07
vn -0.9999999 3.442684E-08 1.220213E-07

vt 0.0004998147 0.5549193
vt 0.1717639 0.5549192
vt 0.0004995167 -0.9239511
vt 0.1717636 -0.9239511
vt 0.8356124 0.5549188
vt 0.9995004 0.5549187
vt 0.8356121 -0.9239514
vt 0.9995 -0.9239514
vt 0.1701907 0.962963
vt 0.1701908 -0.03703701
vt -4.371139E-08 0.9629629
vt 0 -0.03703706
vt 0.1802898 0
vt 0 0
vt 0.1802898 0.2411594
vt 0 0.2411594
vt 0.1824396 1
vt 0.1824396 2.980232E-08
vt -4.371139E-08 1
vt 0 -1.390907E-08
vt 0.1824396 1
vt 0.1824396 2.980232E-08
vt -4.371139E-08 1
vt 0 -1.390907E-08
vt 0.1802898 0
vt 0 0
vt 0.1802898 0.2411594
vt 0 0.2411594
vt 0.1701907 0.962963
vt 0.1701908 -0.03703701
vt -4.371139E-08 0.9629629
vt 0 -0.03703706

usemtl sn15_09_sn1529.JPG
usemap sn15_09_sn1529.JPG
f 3/3/3 1/1/1 2/2/2
f 2/2/2 4/4/4 3/3/3
f 7/7/7 5/5/5 6/6/6
f 6/6/6 8/8/8 7/7/7
f 11/11/11 9/9/9 10/10/10
f 10/10/10 12/12/12 11/11/11
f 15/15/15 13/13/13 14/14/14
f 14/14/14 16/16/16 15/15/15
f 19/19/19 17/17/17 18/18/18
f 18/18/18 20/20/20 19/19/19
f 23/23/23 21/21/21 22/22/22
f 22/22/22 24/24/24 23/23/23
f 27/27/27 25/25/25 26/26/26
f 26/26/26 28/28/28 27/27/27
f 31/31/31 29/29/29 30/30/30
f 30/30/30 32/32/32 31/31/31
