mtllib ./Box21325.mtl
g Box21325
v -58.83374 -8.205734 64.19714
v -40.22377 -8.205734 64.19714
v -58.77866 12.79375 21.87955
v -39.45148 12.79375 21.87955
v -58.83372 41.9304 -38.43469
v -40.22377 41.9304 -38.43469
v 37.22675 -7.894318 64.9079
v 56.53027 -7.894318 64.9079
v 39.52991 13.51599 21.44757
v 58.83344 13.51599 21.44757
v 39.52991 42.92238 -38.86804
v 58.83344 42.92238 -38.86804
v -58.83374 -16.32622 62.90198
v -40.22375 -15.72734 63.33264
v -58.83374 -8.205734 64.19714
v -40.22377 -8.205734 64.19714
v -58.77866 5.719971 19.28336
v -58.83374 -16.32622 62.90198
v -58.77866 12.79375 21.87955
v -58.83374 -8.205734 64.19714
v -40.22375 -15.72734 63.33264
v -39.45148 6.818344 19.28336
v -40.22377 -8.205734 64.19714
v -39.45148 12.79375 21.87955
v -58.83372 34.71913 -38.19794
v -58.77866 5.719971 19.28336
v -58.83372 41.9304 -38.43469
v -58.77866 12.79375 21.87955
v -40.22377 34.71913 -38.19794
v -58.83372 34.71913 -38.19794
v -40.22377 41.9304 -38.43469
v -58.83372 41.9304 -38.43469
v -39.45148 6.818344 19.28336
v -40.22377 34.71913 -38.19794
v -39.45148 12.79375 21.87955
v -40.22377 41.9304 -38.43469
v 37.22675 -11.47246 63.56482
v 58.8334 -2.940201 40.67868
v 37.22675 -7.894318 64.9079
v 56.53027 -7.894318 64.9079
v 39.52991 8.839462 20.10449
v 37.22675 -11.47246 63.56482
v 39.52991 13.51599 21.44757
v 37.22675 -7.894318 64.9079
v 58.8334 -2.940201 40.67868
v 58.83344 20.78142 0.0001831055
v 56.53027 -7.894318 64.9079
v 58.83344 13.51599 21.44757
v 39.52991 38.23065 -40.21112
v 39.52991 8.839462 20.10449
v 39.52991 42.92238 -38.86804
v 39.52991 13.51599 21.44757
v 58.83344 38.23067 -40.21112
v 39.52991 38.23065 -40.21112
v 58.83344 42.92238 -38.86804
v 39.52991 42.92238 -38.86804
v 58.83344 20.78142 0.0001831055
v 58.83344 38.23067 -40.21112
v 58.83344 13.51599 21.44757
v 58.83344 42.92238 -38.86804
v -55.08154 5.71994 19.28345
v -55.13663 -16.32625 62.90207
v -58.77866 5.719971 19.28336
v -58.83374 -16.32622 62.90198
v -55.13661 34.71912 -38.19788
v -55.08154 5.71994 19.28345
v -58.83372 34.71913 -38.19794
v -58.77866 5.719971 19.28336
v 37.22675 -11.47246 63.56482
v 56.53027 -11.47246 63.56482
v 56.53027 -7.894318 64.9079
v 37.22675 -7.894318 64.9079

vn 0 0.895772 0.4445136
vn 0 0.8957721 0.4445136
vn 0 0.8977413 0.4405231
vn 0 0.8992144 0.437508
vn 0 0.900438 0.4349844
vn 0 0.900438 0.4349844
vn 0 0.8970525 0.4419242
vn 0 0.8970525 0.4419242
vn 0 0.8977944 0.4404147
vn 0 0.8983831 0.4392126
vn 0 0.8988615 0.4382327
vn 0 0.8988615 0.4382327
vn -0.0177814 -0.1574781 0.9873624
vn -0.009260992 -0.1367644 0.9905603
vn -0.009260992 -0.1367644 0.9905603
vn 0 -0.1141841 0.9934595
vn -0.9999993 0.0003909655 -0.001065254
vn -0.9999993 0.0002909937 -0.001136219
vn -0.9999993 0.0002909937 -0.001136219
vn -0.9999992 0.0001923841 -0.001206217
vn 0.9998612 -0.001900934 0.01655674
vn 0.9998664 -0.004059018 0.01583494
vn 0.9998664 -0.004059018 0.01583494
vn 0.999866 -0.006521992 0.01501104
vn -0.9999996 3.198319E-05 0.0009741679
vn -0.9999996 -0.0001427912 0.0008645201
vn -0.9999996 -0.0001427912 0.0008645201
vn -0.9999997 -0.0002846333 0.0007755331
vn 0 -0.03281361 -0.9994615
vn 0 -0.03281361 -0.9994615
vn 0 -0.03281361 -0.9994615
vn 0 -0.03281361 -0.9994615
vn 0.9999269 0.004820455 -0.01109478
vn 0.9999248 0.002158932 -0.01206608
vn 0.9999248 0.002158932 -0.01206608
vn 0.9999154 -0.0004271266 -0.01300974
vn 0.7489952 -0.2328397 0.6203159
vn 0.1845738 -0.9821509 -0.03622355
vn 0.1845738 -0.9821509 -0.03622355
vn 0 -0.9797297 -0.2003241
vn -0.9988205 0.01340285 -0.04666802
vn -0.9988403 0.01489796 -0.04578204
vn -0.9988403 0.01489796 -0.04578204
vn -0.9988608 0.01676845 -0.04467339
vn 0.9602798 0.2410467 0.1405668
vn 0.9936955 0.0851827 0.072893
vn 0.9936955 0.0851827 0.072893
vn 0.9398038 -0.3236486 -0.1096378
vn -0.9999999 0 0
vn -1 0 0
vn -1 0 0
vn -1 0 0
vn -2.175456E-07 0.2752117 -0.9613837
vn -1.087726E-07 0.2752113 -0.9613838
vn -1.087726E-07 0.2752113 -0.9613838
vn 0 0.2752109 -0.9613839
vn 1 0 0
vn 1 0 0
vn 1 0 0
vn 1 0 0
vn 3.803481E-06 -0.8924801 -0.4510868
vn 3.803481E-06 -0.8924801 -0.4510868
vn 3.803481E-06 -0.8924801 -0.4510868
vn 3.803481E-06 -0.8924801 -0.4510868
vn 3.751131E-06 -0.8928153 -0.450423
vn 3.767703E-06 -0.8928152 -0.4504229
vn 3.767703E-06 -0.8928152 -0.4504229
vn 3.784275E-06 -0.8928153 -0.450423
vn 0 -0.3514161 0.9362193
vn 0 -0.3514161 0.9362193
vn 0 -0.3514161 0.9362193
vn 0 -0.3514161 0.9362193

vt 0.0004999936 2.03379
vt 0.1717641 2.03379
vt 0.0004998147 0.5549193
vt 0.1717639 0.5549192
vt 0.0004995167 -0.9239511
vt 0.1717636 -0.9239511
vt 0.8356126 2.03379
vt 0.9995005 2.03379
vt 0.8356124 0.5549191
vt 0.9995003 0.554919
vt 0.8356121 -0.9239514
vt 0.9995 -0.9239514
vt 0.1710145 0
vt 0 0
vt 0.1710145 0.2746377
vt 0 0.2746377
vt 0.1701907 0.962963
vt 0.1701908 -0.03703701
vt -4.371139E-08 0.9629629
vt 0 -0.03703706
vt 0.1824396 1
vt 0.1824396 2.980232E-08
vt -4.371139E-08 1
vt 0 -1.390907E-08
vt 0.1701907 0.962963
vt 0.1701908 -0.03703701
vt -4.371139E-08 0.9629629
vt 0 -0.03703706
vt 0.1802898 0
vt 0 0
vt 0.1802898 0.2411594
vt 0 0.2411594
vt 0.1824396 1
vt 0.1824396 2.980232E-08
vt -4.371139E-08 1
vt 0 -1.390907E-08
vt 0.1710145 0
vt 0 0
vt 0.1710145 0.2746377
vt 0 0.2746377
vt 0.1824396 1
vt 0.1824396 2.980232E-08
vt -4.371139E-08 1
vt 0 -1.390907E-08
vt 0.1701907 0.962963
vt 0.1701908 -0.03703701
vt -4.371139E-08 0.9629629
vt 0 -0.03703706
vt 0.1824396 1
vt 0.1824396 2.980232E-08
vt -4.371139E-08 1
vt 0 -1.390907E-08
vt 0.1802898 0
vt 0 0
vt 0.1802898 0.2411594
vt 0 0.2411594
vt 0.1701907 0.962963
vt 0.1701908 -0.03703701
vt -4.371139E-08 0.9629629
vt 0 -0.03703706
vt 0.1701907 0.962963
vt 0.1701908 -0.03703701
vt 0.1701907 0.962963
vt 0.1701908 -0.03703701
vt 0.1701907 0.962963
vt 0.1701908 -0.03703701
vt 0.1701907 0.962963
vt 0.1701908 -0.03703701
vt 0.1689926 0.9995013
vt 0.0004989068 0.9994968
vt 0.0004988909 0.7569508
vt 0.1689926 0.7569497

usemtl sn15_09_sn1529.JPG
usemap sn15_09_sn1529.JPG
f 3/3/3 1/1/1 2/2/2
f 2/2/2 4/4/4 3/3/3
f 5/5/5 3/3/3 4/4/4
f 4/4/4 6/6/6 5/5/5
f 9/9/9 7/7/7 8/8/8
f 8/8/8 10/10/10 9/9/9
f 11/11/11 9/9/9 10/10/10
f 10/10/10 12/12/12 11/11/11
f 15/15/15 13/13/13 14/14/14
f 14/14/14 16/16/16 15/15/15
f 19/19/19 17/17/17 18/18/18
f 18/18/18 20/20/20 19/19/19
f 23/23/23 21/21/21 22/22/22
f 22/22/22 24/24/24 23/23/23
f 27/27/27 25/25/25 26/26/26
f 26/26/26 28/28/28 27/27/27
f 31/31/31 29/29/29 30/30/30
f 30/30/30 32/32/32 31/31/31
f 35/35/35 33/33/33 34/34/34
f 34/34/34 36/36/36 35/35/35
f 39/39/39 37/37/37 38/38/38
f 38/38/38 40/40/40 39/39/39
f 43/43/43 41/41/41 42/42/42
f 42/42/42 44/44/44 43/43/43
f 47/47/47 45/45/45 46/46/46
f 46/46/46 48/48/48 47/47/47
f 51/51/51 49/49/49 50/50/50
f 50/50/50 52/52/52 51/51/51
f 55/55/55 53/53/53 54/54/54
f 54/54/54 56/56/56 55/55/55
f 59/59/59 57/57/57 58/58/58
f 58/58/58 60/60/60 59/59/59
f 63/63/63 61/61/61 62/62/62
f 62/62/62 64/64/64 63/63/63
f 67/67/67 65/65/65 66/66/66
f 66/66/66 68/68/68 67/67/67
f 71/71/71 69/69/69 70/70/70
f 69/69/69 71/71/71 72/72/72
