mtllib ./Box21.mtl
g Box21
v 305.2584 40 -224.8896
v 305.2584 40 -308.3264
v 239.3854 40 -224.8896
v 239.3854 40 -308.3264
v 175.7437 40 -224.8896
v 175.7437 40 -308.3264
v 112.3403 40.40642 -224.8896
v 112.3403 40.40642 -308.3264
v 39.99995 40.40642 -224.8896
v -1.525879E-05 40.40642 -224.8896
v 305.2584 40 -141.4528
v 239.3854 40 -141.4528
v 175.7437 40 -141.4528
v 112.3403 40.40642 -141.4528
v 39.99995 40.40642 -141.4528
v -1.525879E-05 40.40642 -141.4528
v 305.2584 40 -20.00003
v 239.3854 40 -20.00003
v 175.7437 40 -20.00003
v 112.3403 40 -20.00003
v 39.99995 40.20321 -20.00009
v -1.525879E-05 40.40642 -20.00003
v 305.2584 40 19.99988
v 239.3854 40 19.99988
v 175.7437 40 19.99988
v 112.3403 40 19.99988
v 39.99995 40 19.99988
v 305.2584 40 108.8576
v 239.3854 40 108.8576
v 175.7437 40 108.8576
v 112.3403 40 108.8576
v 39.99995 40 108.8576
v -1.525879E-05 40 108.8576
v -1.525879E-05 40 19.99988
v 112.5771 -0.56464 -308.3264
v -1.525879E-05 -0.56464 -224.8896
v -1.525879E-05 40.40642 -224.8896
v 112.3403 40.40642 -308.3264
v -1.525879E-05 -0.56464 -224.8896
v -1.525879E-05 -0.56464 -141.4528
v -1.525879E-05 40.40642 -141.4528
v -1.525879E-05 40.40642 -224.8896
v -1.525879E-05 -0.56464 -20.00003
v -1.525879E-05 40.40642 -20.00003
v -1.525879E-05 15.18721 -20.00003
v 39.99994 15.18721 -20.00003
v 39.99995 40.20321 -20.00009
v -1.525879E-05 40.40642 -20.00003
v 39.99995 15.18721 19.99988
v -1.525879E-05 15.18721 19.99988
v -1.525879E-05 40 19.99988
v 39.99995 40 19.99988
v 39.9899 36.62306 -20.01828
v 39.98991 36.41985 19.98169
v 39.99995 40 19.99988
v 39.99995 40.20321 -20.00009

vn 0 1 0
vn 0 1 0
vn 0 0.9999999 0
vn 0 1 0
vn 0.003199019 0.9999949 0
vn 0.004268011 0.9999908 0
vn 0.002994023 0.9999955 0
vn 0.002312576 0.9999974 0
vn 0 1 0
vn 0 1 0
vn 0 1 0
vn 0 1 0
vn 0.002132932 0.9999975 0.0006600383
vn 0.003386636 0.9999929 0.001667977
vn 0.0007278024 0.9999996 0.0006731965
vn 0 1 0
vn 0 1 0
vn 0 1 0
vn 0 0.9999999 0
vn 0.002527481 0.9999945 0.002149134
vn 0.002270175 0.9999939 0.00264297
vn 0.002540153 0.9999965 0.0008365887
vn 0 1 0
vn 0 1 0
vn 0 1 0
vn 0 1 0
vn 0.0004206377 0.9999996 0.0007607292
vn 0 1 0
vn 0 1 0
vn 0 1 0
vn 0 1 0
vn 0 1 0
vn 0 1 0
vn 0 1 0
vn -0.5958445 -0.001721556 -0.803098
vn -0.5954411 0 -0.803399
vn -0.5958445 -0.001721556 -0.803098
vn -0.5962466 -0.003445435 -0.802794
vn -1 0 0
vn -1 0 0
vn -1 0 0
vn -1 0 0
vn -1 0 0
vn -1 0 0
vn 7.660265E-07 1.214987E-06 1
vn 0 2.439845E-06 0.9999999
vn 7.660265E-07 1.214987E-06 1
vn 1.52588E-06 0 1
vn 0 0 -1
vn 0 0 -1
vn 0 0 -1
vn 0 0 -1
vn -0.9999961 0.00280648 1.444829E-05
vn -0.9999961 0.002804348 1.462819E-05
vn -0.9999961 0.00280648 1.444829E-05
vn -0.9999961 0.002808612 1.426839E-05

vt -2.667729 3.716981
vt -4.825181 3.716982
vt -2.66773 2.292864
vt -4.825181 2.292865
vt -2.667731 0.9169853
vt -4.825181 0.9169856
vt -2.667731 -0.4537386
vt -4.825182 -0.4537382
vt -2.667731 -2.017675
vt -2.667732 -2.882439
vt -0.5102783 3.716981
vt -0.5102787 2.292864
vt -0.5102792 0.9169847
vt -0.5102795 -0.453739
vt -0.5102801 -2.017675
vt -0.5102804 -2.882439
vt 2.630164 3.71698
vt 2.630163 2.292863
vt 2.630163 0.9169841
vt 2.630162 -0.4537397
vt 2.630162 -2.017676
vt 2.630162 -2.88244
vt 3.664454 3.71698
vt 3.664453 2.292863
vt 3.664453 0.916984
vt 3.664452 -0.4537398
vt 3.664452 -2.017676
vt 5.962075 3.71698
vt 5.962075 2.292862
vt 5.962074 0.9169835
vt 5.962074 -0.4537402
vt 5.962073 -2.017676
vt 5.962073 -2.88244
vt 3.664451 -2.88244
vt -2.14622 -0.05080389
vt 3.146217 -0.05080389
vt 3.146217 0.9995005
vt -2.135091 0.9995005
vt -1.647005 -0.05080389
vt 1.302934 -0.05080389
vt 1.302934 0.9995005
vt -1.647005 0.9995005
vt 5.596943 -0.05080389
vt 5.596943 0.9995005
vt -0.8875014 0.3592367
vt 1.887501 0.3592367
vt 1.887501 0.9995005
vt -0.8875014 0.9995005
vt -1.222416 0.0004995465
vt 2.222415 0.0004995465
vt 2.222415 0.9995005
vt -1.222416 0.9995005
vt -0.2804695 0.409197
vt 1.27976 0.3982688
vt 1.280469 0.590803
vt -0.27976 0.6017313

usemtl sn15_00_sn1532.JPG
usemap sn15_00_sn1532.JPG
f 3/3/3 1/1/1 2/2/2
f 2/2/2 4/4/4 3/3/3
f 5/5/5 3/3/3 4/4/4
f 4/4/4 6/6/6 5/5/5
f 7/7/7 5/5/5 6/6/6
f 6/6/6 8/8/8 7/7/7
f 9/9/9 7/7/7 8/8/8
f 10/10/10 9/9/9 8/8/8
f 12/12/12 11/11/11 1/1/1
f 1/1/1 3/3/3 12/12/12
f 13/13/13 12/12/12 3/3/3
f 3/3/3 5/5/5 13/13/13
f 14/14/14 13/13/13 5/5/5
f 5/5/5 7/7/7 14/14/14
f 15/15/15 14/14/14 7/7/7
f 7/7/7 9/9/9 15/15/15
f 16/16/16 15/15/15 9/9/9
f 9/9/9 10/10/10 16/16/16
f 18/18/18 17/17/17 11/11/11
f 11/11/11 12/12/12 18/18/18
f 19/19/19 18/18/18 12/12/12
f 12/12/12 13/13/13 19/19/19
f 20/20/20 19/19/19 13/13/13
f 13/13/13 14/14/14 20/20/20
f 21/21/21 20/20/20 14/14/14
f 14/14/14 15/15/15 21/21/21
f 22/22/22 21/21/21 15/15/15
f 15/15/15 16/16/16 22/22/22
f 24/24/24 23/23/23 17/17/17
f 17/17/17 18/18/18 24/24/24
f 25/25/25 24/24/24 18/18/18
f 18/18/18 19/19/19 25/25/25
f 26/26/26 25/25/25 19/19/19
f 19/19/19 20/20/20 26/26/26
f 27/27/27 26/26/26 20/20/20
f 20/20/20 21/21/21 27/27/27
f 29/29/29 28/28/28 23/23/23
f 23/23/23 24/24/24 29/29/29
f 30/30/30 29/29/29 24/24/24
f 24/24/24 25/25/25 30/30/30
f 31/31/31 30/30/30 25/25/25
f 25/25/25 26/26/26 31/31/31
f 32/32/32 31/31/31 26/26/26
f 26/26/26 27/27/27 32/32/32
f 33/33/33 32/32/32 27/27/27
f 27/27/27 34/34/34 33/33/33
f 55/55/55 53/53/53 54/54/54
f 53/53/53 55/55/55 56/56/56

usemtl sn15_01_sn1540.JPG
usemap sn15_01_sn1540.JPG
f 37/37/37 35/35/35 36/36/36
f 35/35/35 37/37/37 38/38/38
f 41/41/41 39/39/39 40/40/40
f 39/39/39 41/41/41 42/42/42
f 44/44/44 40/40/40 43/43/43
f 40/40/40 44/44/44 41/41/41
f 47/47/47 45/45/45 46/46/46
f 45/45/45 47/47/47 48/48/48
f 51/51/51 49/49/49 50/50/50
f 49/49/49 51/51/51 52/52/52
