mtllib ./Box21326.mtl
g Box21326
v -0.0001831055 -0.7756348 2.499908
v -0.0001831055 -1.044189 -3.916718
v -81.19052 -1.142776 2.499908
v -81.19052 -1.453842 -3.916718
v -0.0001831055 -4.424088 2.499908
v -0.0001831055 -0.7756348 2.499908
v -81.19052 -4.743683 2.499908
v -81.19052 -1.142776 2.499908
v -0.000213623 -3.025375 7.404327
v -0.000213623 -3.025375 2.404327
v -81.19055 -3.46759 7.404327
v -81.19055 -3.46759 2.404327
v -0.000213623 -7.025375 7.404327
v -0.000213623 -3.025375 7.404327
v -81.19055 -7.46759 7.404327
v -81.19055 -3.46759 7.404327
v -0.000213623 -5.779984 12.30875
v -0.000213623 -5.779984 7.308746
v -81.19055 -5.779968 12.30875
v -81.19055 -5.779968 7.308746
v -0.000213623 -9.779984 12.30875
v -0.000213623 -5.779984 12.30875
v -81.19055 -9.779968 12.30875
v -81.19055 -5.779968 12.30875
v -0.000213623 -8.164368 17.21317
v -0.000213623 -8.164368 12.21317
v -81.19055 -8.164368 17.21317
v -81.19055 -8.164368 12.21317
v -0.000213623 -12.16437 17.21317
v -0.000213623 -8.164368 17.21317
v -81.19055 -12.16437 17.21317
v -81.19055 -8.164368 17.21317
v -0.000213623 -10.42726 22.15543
v -0.000213623 -10.42726 17.15543
v -81.19055 -10.42725 22.15543
v -81.19055 -10.42725 17.15543
v -0.000213623 -14.42726 22.15543
v -0.000213623 -10.42726 22.15543
v -81.19055 -14.42725 22.15543
v -81.19055 -10.42725 22.15543
v -0.000213623 -12.823 27.09769
v -0.000213623 -12.823 22.09769
v -81.19055 -12.82298 27.09769
v -81.19055 -12.82298 22.09769
v -0.000213623 -16.823 27.09769
v -0.000213623 -12.823 27.09769
v -81.19055 -16.82298 27.09769
v -81.19055 -12.82298 27.09769
v -0.000213623 -15.14314 32.03995
v -0.000213623 -15.14314 27.03995
v -81.19055 -15.14314 32.03995
v -81.19055 -15.14313 27.03995
v -0.000213623 -19.14314 32.03995
v -0.000213623 -15.14314 32.03995
v -81.19055 -19.14313 32.03995
v -81.19055 -15.14314 32.03995
v -0.000213623 -17.63658 36.98221
v -0.000213623 -17.63658 31.98221
v -81.19055 -17.63657 36.98221
v -81.19055 -17.63657 31.98221
v -0.000213623 -21.63657 36.98221
v -0.000213623 -17.63658 36.98221
v -81.19055 -21.63657 36.98221
v -81.19055 -17.63657 36.98221
v -0.000213623 -19.78517 41.92447
v -0.000213623 -19.78517 36.92447
v -81.19055 -19.78516 41.92447
v -81.19055 -19.78516 36.92447
v -0.000213623 -23.78517 41.92447
v -0.000213623 -19.78517 41.92447
v -81.19055 -23.78516 41.92447
v -81.19055 -19.78516 41.92447
v -0.000213623 -22.14084 45.99606
v -0.000213623 -22.14084 40.99606
v -81.19055 -22.14082 45.99606
v -81.19055 -22.14082 40.99606
v -0.000213623 -26.14084 45.99606
v -0.000213623 -22.14084 45.99606
v -81.19055 -26.14082 45.99606
v -81.19055 -22.14082 45.99606
v -0.000213623 -24.23068 51.03964
v -0.000213623 -24.23068 46.03964
v -81.19055 -24.23067 51.03964
v -81.19055 -24.23067 46.03964
v -0.000213623 -28.23068 51.03964
v -0.000213623 -24.23068 51.03964
v -81.19055 -28.23067 51.03964
v -81.19055 -24.23067 51.03964
v -0.000213623 -26.70688 56.08322
v -0.000213623 -26.70688 51.08322
v -81.19055 -26.70686 56.08322
v -81.19055 -26.70686 51.08322
v -0.000213623 -30.18333 56.08322
v -0.000213623 -26.70688 56.08322
v -81.19055 -30.18333 56.08322
v -81.19055 -26.70686 56.08322
v -0.000213623 -29.2576 61.1268
v -0.000213623 -29.2576 56.1268
v -81.19054 -29.2576 61.1268
v -81.19054 -29.2576 56.1268
v -0.000213623 -32.92793 61.1268
v -0.000213623 -29.2576 61.1268
v -81.19055 -32.92792 61.1268
v -81.19054 -29.2576 61.1268
v -0.000213623 -31.66629 66.17038
v -0.000213623 -31.66629 61.17038
v -81.19054 -31.66628 66.17038
v -81.19054 -31.66628 61.17038
v -0.000213623 -35.40665 66.17038
v -0.000213623 -31.66629 66.17038
v -81.19055 -35.40665 66.17038
v -81.19054 -31.66628 66.17038
v -0.000213623 -33.72665 70.49704
v -0.000213623 -33.72665 65.49704
v -81.19054 -33.72664 70.49704
v -81.19054 -33.72664 65.49704
v -0.000213623 -37.22217 70.49704
v -0.000213623 -33.72665 70.49704
v -81.19055 -37.22215 70.49704
v -81.19054 -33.72664 70.49704
v -0.000213623 -36.20226 75.1087
v -0.000213623 -36.20226 70.1087
v -81.19054 -36.20224 75.1087
v -81.19054 -36.20224 70.1087
v -0.000213623 -39.34142 75.1087
v -0.000213623 -36.20226 75.1087
v -81.19055 -39.3414 75.1087
v -81.19054 -36.20224 75.1087
v -0.0001831055 -37.97122 78.74686
v -0.0001831055 -37.97122 73.74686
v -81.19055 -37.97121 78.74686
v -81.19054 -37.97121 73.74686
v -0.000213623 -41.44768 78.74686
v -0.0001831055 -37.97122 78.74686
v -81.19055 -41.44768 78.74686
v -81.19055 -37.97121 78.74686
v -0.0001831055 -40.28604 83.20657
v -0.0001831055 -40.28604 78.20657
v -81.19054 -40.28604 83.20657
v -81.19054 -40.28604 78.20657
v -0.000213623 -43.95638 83.20657
v -0.0001831055 -40.28604 83.20657
v -81.19054 -43.95638 83.20657
v -81.19054 -40.28604 83.20657
v -0.0001831055 -42.27571 87.57156
v -0.0001831055 -42.2757 82.57156
v -81.19052 -42.2757 87.57156
v -81.19052 -42.2757 82.57156
v -0.000213623 -46.01608 87.57156
v -0.0001831055 -42.27571 87.57156
v -81.19054 -46.01608 87.57156
v -81.19052 -42.2757 87.57156
v -0.000213623 -44.76636 92.24771
v -0.000213623 -44.76636 87.24771
v -81.19052 -44.76636 92.24771
v -81.19055 -44.76636 87.24771
v -0.000213623 -48.26187 92.24771
v -0.000213623 -44.76636 92.24771
v -81.19055 -48.26187 92.24771
v -81.19052 -44.76636 92.24771
v -0.000213623 -47.08466 97.09036
v -0.000213623 -47.08466 92.09036
v -81.19052 -47.08466 97.09036
v -81.19054 -47.08466 92.09036
v -0.000213623 -50.22382 97.09036
v -0.000213623 -47.08466 97.09036
v -81.19055 -50.22382 97.09036
v -81.19052 -47.08466 97.09036
v -3.098267 -48.27368 100.8413
v -3.098267 -48.27368 95.84128
v -84.2886 -48.27367 100.8413
v -84.28862 -48.27367 95.84128
v -3.098267 -51.41284 100.8413
v -3.098267 -48.27368 100.8413
v -84.28862 -51.41283 100.8413
v -84.2886 -48.27367 100.8413
v -0.0001831055 0.9521332 -0.7164917
v -0.0001831055 0.4900818 -7.133118
v -81.19052 0.5175018 -0.7164917
v -81.19052 -0.1926575 -7.133118
v -0.0001831055 -3.047867 -0.7164917
v -0.0001831055 0.9521332 -0.7164917
v -81.19052 -3.482498 -0.7164917
v -81.19052 0.5175018 -0.7164917

vn -0.004517986 0.9991151 -0.04181591
vn -0.00477886 0.9989702 -0.045119
vn -0.00477886 0.9989702 -0.045119
vn -0.005039602 0.9988143 -0.0484206
vn 0 0 0.9999999
vn 0 0 1
vn 0 0 1
vn 0 0 1
vn -0.005446564 0.9999852 0
vn -0.005446564 0.9999852 0
vn -0.005446564 0.9999852 0
vn -0.005446564 0.9999852 0
vn 0 0 1
vn 0 0 1
vn 0 0 1
vn 0 0 1
vn 1.879385E-07 1 0
vn 1.879385E-07 1 0
vn 1.879385E-07 1 0
vn 1.879385E-07 1 0
vn 0 0 1
vn 0 0 1
vn 0 0 1
vn 0 0 1
vn 0 1 0
vn 0 1 0
vn 0 1 0
vn 0 1 0
vn 0 0 1
vn 0 0 1
vn 0 0 1
vn 0 0 1
vn 1.879385E-07 1 0
vn 1.879385E-07 1 0
vn 1.879385E-07 1 0
vn 1.879385E-07 1 0
vn 0 0 1
vn 0 0 1
vn 0 0 1
vn 0 0 1
vn 1.879385E-07 1 0
vn 1.879385E-07 1 0
vn 1.879385E-07 1 0
vn 1.879385E-07 1 0
vn 0 0 1
vn 0 0 1
vn 0 0 1
vn 0 0 1
vn 0 1 0
vn 9.396924E-08 1 1.525879E-06
vn 9.396924E-08 1 1.525879E-06
vn 1.879385E-07 1 3.051758E-06
vn 0 0 1
vn 0 0 1
vn 0 0 1
vn 0 0 1
vn 1.879385E-07 1 0
vn 1.879385E-07 1 0
vn 1.879385E-07 1 0
vn 1.879385E-07 1 0
vn 0 0 1
vn 0 0 1
vn 0 0 1
vn 0 0 1
vn 1.879385E-07 1 0
vn 1.879385E-07 1 0
vn 1.879385E-07 1 0
vn 1.879385E-07 1 0
vn 0 0 1
vn 0 0 1
vn 0 0 1
vn 0 0 1
vn 1.879385E-07 1 0
vn 1.879385E-07 1 0
vn 1.879385E-07 1 0
vn 1.879385E-07 1 0
vn 0 0 1
vn 0 0 1
vn 0 0 1
vn 0 0 1
vn 1.879385E-07 1 0
vn 1.879385E-07 1 0
vn 1.879385E-07 1 0
vn 1.879385E-07 1 0
vn 0 0 1
vn 0 0 1
vn 0 0 1
vn 0 0 1
vn 1.879385E-07 1 0
vn 1.879385E-07 1 0
vn 1.879385E-07 1 0
vn 1.879385E-07 1 0
vn 0 0 1
vn 0 0 1
vn 0 0 1
vn 0 0 1
vn 0 0.9999999 0
vn 0 0.9999999 0
vn 0 0.9999999 0
vn 0 0.9999999 0
vn 0 0 1
vn 0 0 1
vn 0 0 1
vn 0 0 1
vn 1.879385E-07 0.9999999 0
vn 1.879385E-07 0.9999999 0
vn 1.879385E-07 0.9999999 0
vn 1.879385E-07 0.9999999 0
vn 0 0 1
vn 0 0 1
vn 0 0 1
vn 0 0 1
vn 1.879385E-07 0.9999999 0
vn 1.879385E-07 0.9999999 0
vn 1.879385E-07 0.9999999 0
vn 1.879385E-07 0.9999999 0
vn 0 0 1
vn 0 0 1
vn 0 0 1
vn 0 0 1
vn 1.879385E-07 0.9999999 0
vn 1.879385E-07 0.9999999 0
vn 1.879385E-07 0.9999999 0
vn 1.879385E-07 0.9999999 0
vn 0 0 0.9999999
vn 0 0 0.9999999
vn 0 0 0.9999999
vn 0 0 1
vn 1.879384E-07 1 0
vn 1.879384E-07 1 2.867713E-13
vn 1.879384E-07 1 2.867713E-13
vn 1.879384E-07 1 5.735426E-13
vn 0 0 1
vn 0 0 1
vn 0 0 1
vn 0 0 1
vn 0 1 0
vn 0 1 0
vn 0 1 0
vn 0 1 0
vn 0 0 0.9999999
vn 0 0 1
vn 0 0 1
vn 0 0 1
vn 1.879385E-07 1 3.051758E-06
vn 9.396924E-08 1 1.525879E-06
vn 9.396924E-08 1 1.525879E-06
vn 0 1 0
vn 0 0 1
vn 0 0 0.9999999
vn 0 0 0.9999999
vn 0 0 1
vn 0 1 0
vn 0 0.9999999 0
vn 0 0.9999999 0
vn 0 1 0
vn 0 0 1
vn 0 0 1
vn 0 0 1
vn 0 0 1
vn 0 1 0
vn 0 1 0
vn 0 1 0
vn 0 0.9999999 0
vn 0 0 0.9999999
vn 0 0 1
vn 0 0 1
vn 0 0 0.9999999
vn 1.879385E-07 1 0
vn 1.879385E-07 1 -2.867713E-13
vn 1.879385E-07 1 -2.867713E-13
vn 1.879384E-07 1 -5.735426E-13
vn 0 0 1
vn 0 0 0.9999999
vn 0 0 0.9999999
vn 0 0 0.9999999
vn -0.005339338 0.9974031 -0.07182148
vn -0.006852491 0.9958308 -0.09096085
vn -0.006852491 0.9958308 -0.09096085
vn -0.008357794 0.9938965 -0.1099994
vn 0 0 1
vn 0 0 1
vn 0 0 1
vn 0 0 1

vt 2.291232 1
vt 2.291232 2.980232E-08
vt -4.371139E-08 1
vt 0 -1.390907E-08
vt 5.960464E-08 0
vt 0 1
vt 1 0
vt 1 1
vt 2.291232 1
vt 2.291232 2.980232E-08
vt -4.371139E-08 1
vt 0 -1.390907E-08
vt 5.960464E-08 0
vt 0 1
vt 1 0
vt 1 1
vt 2.291232 1
vt 2.291232 2.980232E-08
vt -4.371139E-08 1
vt 0 -1.390907E-08
vt 5.960464E-08 0
vt 0 1
vt 1 0
vt 1 1
vt 2.291232 1
vt 2.291232 2.980232E-08
vt -4.371139E-08 1
vt 0 -1.390907E-08
vt 5.960464E-08 0
vt 0 1
vt 1 0
vt 1 1
vt 2.291232 1
vt 2.291232 2.980232E-08
vt -4.371139E-08 1
vt 0 -1.390907E-08
vt 5.960464E-08 0
vt 0 1
vt 1 0
vt 1 1
vt 2.291232 1
vt 2.291232 2.980232E-08
vt -4.371139E-08 1
vt 0 -1.390907E-08
vt 5.960464E-08 0
vt 0 1
vt 1 0
vt 1 1
vt 2.291232 1
vt 2.291232 2.980232E-08
vt -4.371139E-08 1
vt 0 -1.390907E-08
vt 5.960464E-08 0
vt 0 1
vt 1 0
vt 1 1
vt 2.291232 1
vt 2.291232 2.980232E-08
vt -4.371139E-08 1
vt 0 -1.390907E-08
vt 5.960464E-08 0
vt 0 1
vt 1 0
vt 1 1
vt 2.291232 1
vt 2.291232 2.980232E-08
vt -4.371139E-08 1
vt 0 -1.390907E-08
vt 5.960464E-08 0
vt 0 1
vt 1 0
vt 1 1
vt 2.291232 1
vt 2.291232 2.980232E-08
vt -4.371139E-08 1
vt 0 -1.390907E-08
vt 5.960464E-08 0
vt 0 1
vt 1 0
vt 1 1
vt 2.291232 1
vt 2.291232 2.980232E-08
vt -4.371139E-08 1
vt 0 -1.390907E-08
vt 5.960464E-08 0
vt 0 1
vt 1 0
vt 1 1
vt 2.291232 1
vt 2.291232 2.980232E-08
vt -4.371139E-08 1
vt 0 -1.390907E-08
vt 5.960464E-08 0
vt 0 1
vt 1 0
vt 1 1
vt 2.291232 1
vt 2.291232 2.980232E-08
vt -4.371139E-08 1
vt 0 -1.390907E-08
vt 5.960464E-08 0
vt 0 1
vt 1 0
vt 1 1
vt 2.291232 1
vt 2.291232 2.980232E-08
vt -4.371139E-08 1
vt 0 -1.390907E-08
vt 5.960464E-08 0
vt 0 1
vt 1 0
vt 1 1
vt 2.291232 1
vt 2.291232 2.980232E-08
vt -4.371139E-08 1
vt 0 -1.390907E-08
vt 5.960464E-08 0
vt 0 1
vt 1 0
vt 1 1
vt 2.291232 1
vt 2.291232 2.980232E-08
vt -4.371139E-08 1
vt 0 -1.390907E-08
vt 5.960464E-08 0
vt 0 1
vt 1 0
vt 1 1
vt 2.291232 1
vt 2.291232 2.980232E-08
vt -4.371139E-08 1
vt 0 -1.390907E-08
vt 5.960464E-08 0
vt 0 1
vt 1 0
vt 1 1
vt 2.291232 1
vt 2.291232 2.980232E-08
vt -4.371139E-08 1
vt 0 -1.390907E-08
vt 5.960464E-08 0
vt 0 1
vt 1 0
vt 1 1
vt 2.291232 1
vt 2.291232 2.980232E-08
vt -4.371139E-08 1
vt 0 -1.390907E-08
vt 5.960464E-08 0
vt 0 1
vt 1 0
vt 1 1
vt 2.291232 1
vt 2.291232 2.980232E-08
vt -4.371139E-08 1
vt 0 -1.390907E-08
vt 5.960464E-08 0
vt 0 1
vt 1 0
vt 1 1
vt 2.291232 1
vt 2.291232 2.980232E-08
vt -4.371139E-08 1
vt 0 -1.390907E-08
vt 5.960464E-08 0
vt 0 1
vt 1 0
vt 1 1
vt 2.291232 1
vt 2.291232 2.980232E-08
vt -4.371139E-08 1
vt 0 -1.390907E-08
vt 5.960464E-08 0
vt 0 1
vt 1 0
vt 1 1
vt 2.291232 1
vt 2.291232 2.980232E-08
vt -4.371139E-08 1
vt 0 -1.390907E-08
vt 5.960464E-08 0
vt 0 1
vt 1 0
vt 1 1

usemtl sn15_01_sn1540.JPG
usemap sn15_01_sn1540.JPG
f 3/3/3 1/1/1 2/2/2
f 2/2/2 4/4/4 3/3/3
f 7/7/7 5/5/5 6/6/6
f 6/6/6 8/8/8 7/7/7
f 11/11/11 9/9/9 10/10/10
f 10/10/10 12/12/12 11/11/11
f 15/15/15 13/13/13 14/14/14
f 14/14/14 16/16/16 15/15/15
f 19/19/19 17/17/17 18/18/18
f 18/18/18 20/20/20 19/19/19
f 23/23/23 21/21/21 22/22/22
f 22/22/22 24/24/24 23/23/23
f 27/27/27 25/25/25 26/26/26
f 26/26/26 28/28/28 27/27/27
f 31/31/31 29/29/29 30/30/30
f 30/30/30 32/32/32 31/31/31
f 35/35/35 33/33/33 34/34/34
f 34/34/34 36/36/36 35/35/35
f 39/39/39 37/37/37 38/38/38
f 38/38/38 40/40/40 39/39/39
f 43/43/43 41/41/41 42/42/42
f 42/42/42 44/44/44 43/43/43
f 47/47/47 45/45/45 46/46/46
f 46/46/46 48/48/48 47/47/47
f 51/51/51 49/49/49 50/50/50
f 50/50/50 52/52/52 51/51/51
f 55/55/55 53/53/53 54/54/54
f 54/54/54 56/56/56 55/55/55
f 59/59/59 57/57/57 58/58/58
f 58/58/58 60/60/60 59/59/59
f 63/63/63 61/61/61 62/62/62
f 62/62/62 64/64/64 63/63/63
f 67/67/67 65/65/65 66/66/66
f 66/66/66 68/68/68 67/67/67
f 71/71/71 69/69/69 70/70/70
f 70/70/70 72/72/72 71/71/71
f 75/75/75 73/73/73 74/74/74
f 74/74/74 76/76/76 75/75/75
f 79/79/79 77/77/77 78/78/78
f 78/78/78 80/80/80 79/79/79
f 83/83/83 81/81/81 82/82/82
f 82/82/82 84/84/84 83/83/83
f 87/87/87 85/85/85 86/86/86
f 86/86/86 88/88/88 87/87/87
f 91/91/91 89/89/89 90/90/90
f 90/90/90 92/92/92 91/91/91
f 95/95/95 93/93/93 94/94/94
f 94/94/94 96/96/96 95/95/95
f 99/99/99 97/97/97 98/98/98
f 98/98/98 100/100/100 99/99/99
f 103/103/103 101/101/101 102/102/102
f 102/102/102 104/104/104 103/103/103
f 107/107/107 105/105/105 106/106/106
f 106/106/106 108/108/108 107/107/107
f 111/111/111 109/109/109 110/110/110
f 110/110/110 112/112/112 111/111/111
f 115/115/115 113/113/113 114/114/114
f 114/114/114 116/116/116 115/115/115
f 119/119/119 117/117/117 118/118/118
f 118/118/118 120/120/120 119/119/119
f 123/123/123 121/121/121 122/122/122
f 122/122/122 124/124/124 123/123/123
f 127/127/127 125/125/125 126/126/126
f 126/126/126 128/128/128 127/127/127
f 131/131/131 129/129/129 130/130/130
f 130/130/130 132/132/132 131/131/131
f 135/135/135 133/133/133 134/134/134
f 134/134/134 136/136/136 135/135/135
f 139/139/139 137/137/137 138/138/138
f 138/138/138 140/140/140 139/139/139
f 143/143/143 141/141/141 142/142/142
f 142/142/142 144/144/144 143/143/143
f 147/147/147 145/145/145 146/146/146
f 146/146/146 148/148/148 147/147/147
f 151/151/151 149/149/149 150/150/150
f 150/150/150 152/152/152 151/151/151
f 155/155/155 153/153/153 154/154/154
f 154/154/154 156/156/156 155/155/155
f 159/159/159 157/157/157 158/158/158
f 158/158/158 160/160/160 159/159/159
f 163/163/163 161/161/161 162/162/162
f 162/162/162 164/164/164 163/163/163
f 167/167/167 165/165/165 166/166/166
f 166/166/166 168/168/168 167/167/167
f 171/171/171 169/169/169 170/170/170
f 170/170/170 172/172/172 171/171/171
f 175/175/175 173/173/173 174/174/174
f 174/174/174 176/176/176 175/175/175
f 179/179/179 177/177/177 178/178/178
f 178/178/178 180/180/180 179/179/179
f 183/183/183 181/181/181 182/182/182
f 182/182/182 184/184/184 183/183/183
