mtllib ./Box21330.mtl
g Box21330
v -67.88361 -6.471115 26.4306
v -67.88361 -6.471115 45.04059
v -22.31664 15.33032 44.98547
v -22.31663 15.33032 25.65826
v 42.04208 41.63397 45.04059
v 42.04208 41.63397 26.4306
v -68.9592 -6.674622 -58.09229
v -68.9592 -6.674622 -38.78876
v -21.87602 14.19168 -39.52972
v -21.87602 14.19168 -58.83325
v -21.87602 14.19168 -58.83325
v -21.87602 14.19168 -39.52972
v 42.20911 41.76303 -39.52972
v 42.20911 41.76303 -58.83319
v -67.90524 -12.39418 26.4306
v -67.46596 -12.99306 45.04059
v -67.88361 -6.471115 45.04059
v -67.88361 -6.471115 26.4306
v -67.46596 -12.99306 45.04059
v -20.94669 7.710007 44.98547
v -22.31664 15.33032 44.98547
v -67.88361 -6.471115 45.04059
v -20.94669 8.80838 25.65826
v -67.90524 -12.39418 26.4306
v -67.88361 -6.471115 26.4306
v -22.31663 15.33032 25.65826
v -20.94669 7.710007 44.98547
v 43.41203 33.99844 45.04059
v 42.04208 41.63397 45.04059
v -22.31664 15.33032 44.98547
v 43.41203 33.99844 45.04059
v 43.41203 33.99844 26.4306
v 42.04208 41.63397 26.4306
v 42.04208 41.63397 45.04059
v 43.41203 33.99844 26.4306
v -20.94669 8.80838 25.65826
v -22.31663 15.33032 25.65826
v 42.04208 41.63397 26.4306
v -67.58927 -10.25276 -58.09229
v -67.58926 -10.25276 -38.78876
v -68.9592 -6.674622 -38.78876
v -68.9592 -6.674622 -58.09229
v -67.58926 -10.25276 -38.78876
v -20.50608 9.515167 -39.52972
v -21.87602 14.19168 -39.52972
v -68.9592 -6.674622 -38.78876
v 0.0003051758 20.78156 -58.83325
v -67.58927 -10.25276 -58.09229
v -68.9592 -6.674622 -58.09229
v -21.87602 14.19168 -58.83325
v -20.50608 9.515167 -39.52972
v 43.57906 37.07129 -39.52972
v 42.20911 41.76303 -39.52972
v -21.87602 14.19168 -39.52972
v 43.57906 37.07129 -39.52972
v 43.57906 37.07129 -58.83319
v 42.20911 41.76303 -58.83319
v 42.20911 41.76303 -39.52972
v 43.57906 37.07129 -58.83319
v 0.0003051758 20.78156 -58.83325
v -21.87602 14.19168 -58.83325
v 42.20911 41.76303 -58.83319
v -65.063 -12.99309 41.34344
v -20.94677 7.709976 41.28839
v -20.94669 7.710007 44.98547
v -67.46596 -12.99306 45.04059
v -20.94677 7.709976 41.28839
v 43.41196 33.99841 41.34344
v 43.41203 33.99844 45.04059
v -20.94669 7.710007 44.98547
v -67.58927 -10.25276 -58.09229
v -67.58926 -10.25276 -38.78876
v -68.9592 -6.674622 -58.09229
v -68.9592 -6.674622 -38.78876

vn -0.431593 0.9020684 -1.735918E-07
vn -0.431593 0.9020684 -1.769369E-07
vn -0.4098059 0.9121727 -1.636645E-07
vn -0.3928473 0.9196037 -1.01589E-07
vn -0.3783258 0.9256725 -7.608357E-08
vn -0.3783258 0.9256725 0
vn -0.4051726 0.9142402 0
vn -0.4051726 0.9142402 0
vn -0.4051726 0.9142402 0
vn -0.4051726 0.9142402 0
vn -0.3952061 0.9185924 0
vn -0.3952061 0.9185925 0
vn -0.3952061 0.9185924 0
vn -0.3952061 0.9185925 0
vn -0.9994304 -0.031804 0.01128354
vn -0.9977252 -0.06389291 0.02149461
vn -0.9994304 -0.031804 0.01128354
vn -0.9999933 0.003651688 -4.099597E-07
vn 0.001131035 0.0001429643 0.9999993
vn 0.001097003 0.0001972144 0.9999993
vn 0.001131035 0.0001429643 0.9999993
vn 0.001173574 7.51535E-05 0.9999993
vn -0.01589222 -0.001721791 -0.9998723
vn -0.01647217 6.014944E-05 -0.9998643
vn -0.01589222 -0.001721791 -0.9998723
vn -0.01539977 -0.003234743 -0.9998762
vn -0.0007978229 -0.0001432861 0.9999996
vn -0.0007978929 -0.000143156 0.9999997
vn -0.0007978229 -0.0001432861 0.9999996
vn -0.0007977528 -0.0001434165 0.9999997
vn 0.984283 0.1765978 0
vn 0.984283 0.1765978 0
vn 0.984283 0.1765978 0
vn 0.984283 0.1765978 0
vn 0.01113747 0.002155435 -0.9999357
vn 0.01108816 0.002329082 -0.9999358
vn 0.01113747 0.002155435 -0.9999357
vn 0.01117994 0.002005885 -0.9999354
vn -0.9338934 -0.3575514 1.845528E-07
vn -0.9338931 -0.3575522 3.691055E-07
vn -0.9338934 -0.3575514 1.845528E-07
vn -0.9338938 -0.3575505 0
vn 0.01376431 0.00456864 0.9998949
vn 0.01401233 0.00410479 0.9998934
vn 0.01376431 0.00456864 0.9998949
vn 0.01345309 0.005150679 0.9998962
vn 0.005178734 -0.03997233 -0.9991875
vn -0.009323223 -0.003569497 -0.9999502
vn 0.005178734 -0.03997233 -0.9991875
vn 0.03317564 -0.1101328 -0.9933631
vn 0 0 1
vn 0 0 1
vn 0 0 1
vn 0 0 1
vn 0.9599161 0.2802874 0
vn 0.9599161 0.2802874 0
vn 0.9599161 0.2802874 0
vn 0.9599161 0.2802874 0
vn -2.842154E-07 3.480764E-06 -1
vn -5.813929E-06 1.930043E-05 -1
vn -2.842154E-07 3.480764E-06 -1
vn 8.461157E-07 2.470587E-07 -0.9999999
vn 0.4119279 -0.9013291 0.1338705
vn 0.4248306 -0.9052728 -2.032607E-06
vn 0.4119279 -0.9013291 0.1338705
vn 0.3933356 -0.8831347 0.2556563
vn 0.3781383 -0.9257491 -4.749339E-07
vn 0.3781383 -0.9257491 0
vn 0.3781383 -0.9257491 -4.749339E-07
vn 0.3781383 -0.9257491 -9.498759E-07
vn -0.9338938 -0.3575505 3.691058E-07
vn -0.9338934 -0.3575514 1.845528E-07
vn -0.9338934 -0.3575514 1.845528E-07
vn -0.9338931 -0.3575522 0

vt 0.1717641 2.03379
vt 0.0004999936 2.03379
vt 0.0004998147 0.5549193
vt 0.1717639 0.5549192
vt 0.0004995167 -0.9239511
vt 0.1717636 -0.9239511
vt 0.9995005 2.03379
vt 0.8356126 2.03379
vt 0.8356124 0.5549191
vt 0.9995003 0.554919
vt 0.9995004 0.5549187
vt 0.8356124 0.5549188
vt 0.8356121 -0.9239514
vt 0.9995 -0.9239514
vt 0 0
vt 0.1710145 0
vt 0.1710145 0.2746377
vt 0 0.2746377
vt 0.1701908 -0.03703701
vt 0.1701907 0.962963
vt -4.371139E-08 0.9629629
vt 0 -0.03703706
vt 0.1824396 2.980232E-08
vt 0.1824396 1
vt -4.371139E-08 1
vt 0 -1.390907E-08
vt 0.1701908 -0.03703701
vt 0.1701907 0.962963
vt -4.371139E-08 0.9629629
vt 0 -0.03703706
vt 0 0
vt 0.1802898 0
vt 0.1802898 0.2411594
vt 0 0.2411594
vt 0.1824396 2.980232E-08
vt 0.1824396 1
vt -4.371139E-08 1
vt 0 -1.390907E-08
vt 0 0
vt 0.1710145 0
vt 0.1710145 0.2746377
vt 0 0.2746377
vt 0.1824396 2.980232E-08
vt 0.1824396 1
vt -4.371139E-08 1
vt 0 -1.390907E-08
vt 0.1701908 -0.03703701
vt 0.1701907 0.962963
vt -4.371139E-08 0.9629629
vt 0 -0.03703706
vt 0.1824396 2.980232E-08
vt 0.1824396 1
vt -4.371139E-08 1
vt 0 -1.390907E-08
vt 0 0
vt 0.1802898 0
vt 0.1802898 0.2411594
vt 0 0.2411594
vt 0.1701908 -0.03703701
vt 0.1701907 0.962963
vt -4.371139E-08 0.9629629
vt 0 -0.03703706
vt 0.1701908 -0.03703701
vt 0.1701907 0.962963
vt 0.1701907 0.962963
vt 0.1701908 -0.03703701
vt 0.1701908 -0.03703701
vt 0.1701907 0.962963
vt 0.1701907 0.962963
vt 0.1701908 -0.03703701
vt 0.0004989068 0.9994968
vt 0.1689926 0.9995013
vt 0.0004988909 0.7569508
vt 0.1689926 0.7569497

usemtl sn15_09_sn1529.JPG
usemap sn15_09_sn1529.JPG
f 3/3/3 1/1/1 2/2/2
f 1/1/1 3/3/3 4/4/4
f 5/5/5 4/4/4 3/3/3
f 4/4/4 5/5/5 6/6/6
f 9/9/9 7/7/7 8/8/8
f 7/7/7 9/9/9 10/10/10
f 13/13/13 11/11/11 12/12/12
f 11/11/11 13/13/13 14/14/14
f 17/17/17 15/15/15 16/16/16
f 15/15/15 17/17/17 18/18/18
f 21/21/21 19/19/19 20/20/20
f 19/19/19 21/21/21 22/22/22
f 25/25/25 23/23/23 24/24/24
f 23/23/23 25/25/25 26/26/26
f 29/29/29 27/27/27 28/28/28
f 27/27/27 29/29/29 30/30/30
f 33/33/33 31/31/31 32/32/32
f 31/31/31 33/33/33 34/34/34
f 37/37/37 35/35/35 36/36/36
f 35/35/35 37/37/37 38/38/38
f 41/41/41 39/39/39 40/40/40
f 39/39/39 41/41/41 42/42/42
f 45/45/45 43/43/43 44/44/44
f 43/43/43 45/45/45 46/46/46
f 49/49/49 47/47/47 48/48/48
f 47/47/47 49/49/49 50/50/50
f 53/53/53 51/51/51 52/52/52
f 51/51/51 53/53/53 54/54/54
f 57/57/57 55/55/55 56/56/56
f 55/55/55 57/57/57 58/58/58
f 61/61/61 59/59/59 60/60/60
f 59/59/59 61/61/61 62/62/62
f 65/65/65 63/63/63 64/64/64
f 63/63/63 65/65/65 66/66/66
f 69/69/69 67/67/67 68/68/68
f 67/67/67 69/69/69 70/70/70
f 73/73/73 71/71/71 72/72/72
f 72/72/72 74/74/74 73/73/73
