mtllib ./Box21338.mtl
g Box21338
v 26.66669 0.6669464 3.916351
v 26.66669 -0.3187904 -2.453125
v -45.37579 -0.3187904 -2.453125
v -45.37579 0.6669483 3.916351
v 26.66669 -0.3187904 -2.453125
v 26.66669 -4.31879 -2.453125
v -45.37579 -4.31879 -2.453125
v -45.37579 -0.3187904 -2.453125
v 26.66669 -1.830025 -2.358948
v 26.66669 -2.563503 -7.257935
v -45.37585 -2.563507 -7.257935
v -45.37585 -1.830025 -2.358948
v 26.66669 -2.563503 -7.257935
v 26.66669 -6.99324 -7.257935
v -45.37585 -6.99324 -7.257935
v -45.37585 -2.563507 -7.257935
v 26.66669 -4.150745 -7.164795
v 26.66669 -4.85397 -12.00763
v -45.37585 -4.853973 -12.00763
v -45.37585 -4.150749 -7.164795
v 26.66669 -4.85397 -12.00763
v 26.66669 -10.76064 -12.00763
v -45.37585 -10.76064 -12.00763
v -45.37585 -4.853973 -12.00763
v 26.66669 -6.144314 -11.91559
v 26.66669 -6.81728 -16.70227
v -45.37585 -6.81728 -16.70227
v -45.37585 -6.144314 -11.91559
v 26.66669 -6.81728 -16.70227
v 26.66669 -13.10976 -16.70227
v -45.37585 -13.10976 -16.70227
v -45.37585 -6.81728 -16.70227
v 26.66669 -8.292229 -16.64731
v 26.66669 -8.9347 -21.37738
v -45.37585 -8.934704 -21.37738
v -45.37585 -8.292233 -16.64731
v 26.66669 -8.9347 -21.37738
v 26.66669 -16.81558 -21.37738
v -45.37585 -16.81558 -21.37738
v -45.37585 -8.934704 -21.37738
v 26.66669 -10.70437 -21.32309
v 26.66669 -11.31635 -25.99655
v -45.37585 -11.31635 -25.99655
v -45.37585 -10.70437 -21.32309
v 26.66669 -11.31635 -25.99655
v 26.66669 -20.61594 -25.99655
v -45.37585 -20.61594 -25.99655
v -45.37585 -11.31635 -25.99655
v 26.66669 -12.72411 -25.9429
v 26.66669 -13.3056 -30.55978
v -45.37579 -13.3056 -30.55978
v -45.37579 -12.72411 -25.9429
v 26.66669 -13.3056 -30.55978
v 26.66669 -17.3056 -30.55978
v -45.37579 -17.3056 -30.55978
v -45.37579 -13.3056 -30.55978
v 26.66669 -14.6238 -30.50681
v 26.66669 -15.1748 -35.06708
v -45.37579 -15.1748 -35.06708
v -45.37579 -14.6238 -30.50681
v 26.66669 -15.1748 -35.06708
v 26.66669 -19.1748 -35.06708
v -45.37579 -19.1748 -35.06708
v -45.37579 -15.1748 -35.06708
v 26.66669 -16.62615 -35.01474
v 26.66669 -17.14665 -39.51843
v -45.37579 -17.14665 -39.51843
v -45.37579 -16.62615 -35.01474
v 26.66669 -17.14665 -39.51843
v 26.66669 -21.14665 -39.51843
v -45.37579 -21.14665 -39.51843
v -45.37579 -17.14665 -39.51843
v 26.66669 -18.22882 -38.68649
v 26.66669 -18.72421 -43.14355
v -45.37579 -18.72421 -43.14355
v -45.37579 -18.22883 -38.68649
v 26.66669 -18.72421 -43.14355
v 26.66669 -22.72421 -43.14355
v -45.37579 -22.72421 -43.14355
v -45.37579 -18.72421 -43.14355
v 26.66669 -20.35873 -43.18216
v 26.66669 -20.823 -47.58145
v -45.37579 -20.823 -47.58145
v -45.37579 -20.35873 -43.18216
v 26.66669 -20.823 -47.58145
v 26.66669 -24.823 -47.58145
v -45.37579 -24.823 -47.58145
v -45.37579 -20.823 -47.58145
v 26.66669 -22.44646 -47.61957
v 26.66669 -22.87962 -51.96112
v -45.37579 -22.87961 -51.96109
v -45.37579 -22.44646 -47.61957
v 26.66669 -22.87962 -51.96112
v 26.66669 -26.35608 -51.96112
v -45.37579 -26.35608 -51.96109
v -45.37579 -22.87961 -51.96109
v 26.66669 -24.47999 -51.99869
v 26.66669 -24.88202 -56.2825
v -45.37579 -24.88202 -56.28247
v -45.37579 -24.47999 -51.99869
v 26.66669 -24.88202 -56.2825
v 26.66669 -28.55235 -56.2825
v -45.37579 -28.55235 -56.28247
v -45.37579 -24.88202 -56.28247
v 26.66669 -26.59523 -56.31958
v 26.66669 -26.96615 -60.54562
v -45.37579 -26.96614 -60.54559
v -45.37579 -26.59523 -56.31955
v 26.66669 -26.96615 -60.54562
v 26.66669 -30.70652 -60.54562
v -45.37579 -30.70652 -60.54559
v -45.37579 -26.96614 -60.54559
v 26.66669 -28.60326 -60.58218
v 26.66669 -28.94306 -64.75046
v -45.37579 -28.94306 -64.75046
v -45.37579 -28.60326 -60.58218
v 26.66669 -28.94306 -64.75046
v 26.66669 -32.43858 -64.75046
v -45.37579 -32.43858 -64.75046
v -45.37579 -28.94306 -64.75046
v 26.66669 -30.39272 -64.29504
v 26.66669 -30.70506 -68.41235
v -45.37579 -30.70506 -68.41235
v -45.37579 -30.39272 -64.29501
v 26.66669 -30.70506 -68.41235
v 26.66669 -34.70506 -68.41235
v -45.37579 -34.70506 -68.41235
v -45.37579 -30.70506 -68.41235
v 26.66669 -32.42202 -68.36514
v 26.66669 -32.70387 -72.42584
v -45.37579 -32.70387 -72.42584
v -45.37579 -32.42202 -68.36514
v 26.66669 -32.70387 -72.42584
v 26.66669 -36.70387 -72.42584
v -45.37579 -36.70387 -72.42584
v -45.37579 -32.70387 -72.42584
v 26.66663 -34.00486 -71.67618
v 26.66669 -34.26159 -75.69028
v -45.37579 -34.26159 -75.69028
v -45.37579 -34.00486 -71.67618
v 26.66669 -34.26159 -75.69028
v 26.66669 -38.26159 -75.69028
v -45.37579 -38.26159 -75.69028
v -45.37579 -34.26159 -75.69028
v 26.66669 -36.29279 -75.72501
v 26.66669 -36.51839 -79.68137
v -45.37579 -36.51839 -79.68137
v -45.37579 -36.29279 -75.72501
v 26.66669 -36.51839 -79.68137
v 26.66669 -40.51839 -79.68137
v -45.37579 -40.51839 -79.68137
v -45.37579 -36.51839 -79.68137
v 26.66669 -38.10084 -79.71561
v 26.66669 -38.29533 -83.61417
v -45.37579 -38.29533 -83.61417
v -45.37579 -38.10084 -79.71558
v 26.66669 -38.29533 -83.61417
v 26.66669 -41.7718 -83.61417
v -45.37579 -41.7718 -83.61417
v -45.37579 -38.29533 -83.61417
v 26.66669 -40.19396 -83.64792
v 26.66669 -40.35734 -87.48874
v -45.37579 -40.35734 -87.48874
v -45.37579 -40.19396 -83.64789
v 26.66669 -40.35734 -87.48874
v 26.66669 -44.02767 -87.48874
v -45.37579 -44.02767 -87.48874
v -45.37579 -40.35734 -87.48874
v 26.66669 -42.17682 -87.52194
v 26.66669 -42.30908 -91.30502
v -45.37579 -42.30908 -91.30502
v -45.37579 -42.17683 -87.52194
v 26.66669 -42.30908 -91.30502
v 26.66669 -46.04945 -91.30502
v -45.37579 -46.04945 -91.30502
v -45.37579 -42.30908 -91.30502
v 26.66669 -44.13363 -91.33774
v 26.66669 -44.23477 -95.06308
v -45.37579 -44.23477 -95.06308
v -45.37579 -44.13363 -91.33774
v 26.66669 -44.23477 -95.06308
v 26.66669 -47.73029 -95.06308
v -45.37579 -47.73029 -95.06308
v -45.37579 -44.23477 -95.06308
v 26.66669 -45.61951 -94.38821
v 26.66669 -45.69544 -98.06674
v -45.37579 -45.69544 -98.06671
v -45.37579 -45.61951 -94.38821
v 26.66669 -45.69544 -98.06674
v 26.66669 -49.19096 -98.06674
v -45.37579 -49.19096 -98.06671
v -45.37579 -45.69544 -98.06671

vn 1.335001E-08 0.9882356 -0.152939
vn 0 0.9882356 -0.1529388
vn 1.335001E-08 0.9882356 -0.152939
vn 2.670002E-08 0.9882356 -0.1529391
vn 0 0 -1
vn 0 0 -1
vn 0 0 -1
vn 0 0 -1
vn -2.605527E-08 0.9889768 -0.1480705
vn -5.211054E-08 0.9889769 -0.1480701
vn -2.605527E-08 0.9889768 -0.1480705
vn 0 0.9889767 -0.1480708
vn 0 0 -1
vn 0 0 -1
vn 0 0 -1
vn 0 0 -1
vn -5.207281E-08 0.989621 -0.1437021
vn -5.207281E-08 0.989621 -0.1437021
vn -5.207281E-08 0.989621 -0.1437021
vn -5.207281E-08 0.989621 -0.1437021
vn 0 0 -1
vn 0 0 -1
vn 0 0 -1
vn 0 0 -1
vn 0 0.9902612 -0.1392221
vn 0 0.9902612 -0.1392221
vn 0 0.9902612 -0.1392221
vn 0 0.9902612 -0.1392221
vn 0 0 -0.9999999
vn 0 0 -0.9999999
vn 0 0 -0.9999999
vn 0 0 -0.9999999
vn -5.19966E-08 0.9909012 -0.1345911
vn -5.19966E-08 0.9909012 -0.1345911
vn -5.19966E-08 0.9909012 -0.1345911
vn -5.19966E-08 0.9909012 -0.1345911
vn 0 0 -1
vn 0 0 -1
vn 0 0 -1
vn 0 0 -1
vn 0 0.9915351 -0.1298395
vn 0 0.9915351 -0.1298395
vn 0 0.9915351 -0.1298395
vn 0 0.9915351 -0.1298395
vn 0 0 -0.9999999
vn 0 0 -0.9999999
vn 0 0 -0.9999999
vn 0 0 -0.9999999
vn 0 0.9921616 -0.1249613
vn 0 0.9921616 -0.1249613
vn 0 0.9921616 -0.1249613
vn 0 0.9921616 -0.1249613
vn 0 0 -1
vn 0 0 -1
vn 0 0 -1
vn 0 0 -1
vn 0 0.9927796 -0.1199526
vn 0 0.9927796 -0.1199526
vn 0 0.9927796 -0.1199526
vn 0 0.9927796 -0.1199526
vn 0 0 -1
vn 0 0 -1
vn 0 0 -1
vn 0 0 -1
vn 0 0.9933878 -0.1148077
vn 0 0.9933878 -0.1148077
vn 0 0.9933878 -0.1148077
vn 0 0.9933878 -0.1148077
vn 0 0 -1
vn 0 0 -1
vn 0 0 -1
vn 0 0 -1
vn -2.619782E-08 0.99388 -0.1104653
vn 0 0.99388 -0.1104657
vn -2.619782E-08 0.99388 -0.1104653
vn -5.239563E-08 0.99388 -0.1104649
vn 0 0 -0.9999999
vn 0 0 -0.9999999
vn 0 0 -0.9999999
vn 0 0 -0.9999999
vn 2.655779E-08 0.9944775 -0.10495
vn 0 0.9944776 -0.1049496
vn 2.655779E-08 0.9944775 -0.10495
vn 5.311558E-08 0.9944775 -0.1049504
vn 0 0 -1
vn 0 0 -1
vn 0 0 -1
vn 0 0 -1
vn 5.309519E-09 0.9950599 -0.09927579
vn 1.0619E-08 0.99506 -0.09927589
vn 5.309519E-09 0.9950599 -0.09927579
vn 0 0.9950599 -0.0992757
vn -4.236053E-07 0 -1
vn -4.236053E-07 0 -1
vn -4.236053E-07 0 -1
vn -4.236053E-07 0 -1
vn -1.980594E-08 0.995625 -0.09343859
vn -3.961174E-08 0.995625 -0.09343826
vn -1.980594E-08 0.995625 -0.09343859
vn 0 0.9956249 -0.09343892
vn -4.236053E-07 0 -1
vn -4.236053E-07 0 -1
vn -4.236053E-07 0 -1
vn -4.236053E-07 0 -1
vn -1.072639E-08 0.9961703 -0.08743305
vn 1.560203E-08 0.9961703 -0.08743349
vn -1.072639E-08 0.9961703 -0.08743305
vn -3.705482E-08 0.9961705 -0.08743261
vn -4.236053E-07 0 -1
vn -4.236053E-07 0 -1
vn -4.236053E-07 0 -1
vn -4.236053E-07 0 -1
vn 0 0.9966937 -0.08125054
vn 0 0.9966937 -0.08125054
vn 0 0.9966937 -0.08125054
vn 0 0.9966937 -0.08125054
vn 0 0 -1
vn 0 0 -1
vn 0 0 -1
vn 0 0 -1
vn -1.602951E-08 0.997135 -0.07564254
vn 0 0.997135 -0.07564282
vn -1.602951E-08 0.997135 -0.07564254
vn -3.20589E-08 0.997135 -0.07564227
vn 0 0 -1
vn 0 0 -1
vn 0 0 -1
vn 0 0 -1
vn 0 0.9975997 -0.0692433
vn 0 0.9975997 -0.0692433
vn 0 0.9975997 -0.0692433
vn 0 0.9975997 -0.0692433
vn 0 0 -1
vn 0 0 -1
vn 0 0 -1
vn 0 0 -1
vn 0 0.997961 -0.06382644
vn 0 0.997961 -0.06382644
vn 0 0.997961 -0.06382644
vn 0 0.997961 -0.06382643
vn 0 0 -1
vn 0 0 -1
vn 0 0 -1
vn 0 0 -1
vn 0 0.998378 -0.05693186
vn 0 0.998378 -0.05693186
vn 0 0.998378 -0.05693186
vn 0 0.998378 -0.05693186
vn 0 0 -1
vn 0 0 -1
vn 0 0 -1
vn 0 0 -1
vn -1.05978E-08 0.9987579 -0.04982707
vn 0 0.9987578 -0.04982727
vn -1.05978E-08 0.9987579 -0.04982707
vn -2.119552E-08 0.9987579 -0.04982688
vn 0 0 -1
vn 0 0 -1
vn 0 0 -1
vn 0 0 -1
vn -8.931436E-09 0.9990965 -0.04249811
vn 0 0.9990966 -0.04249828
vn -8.931436E-09 0.9990965 -0.04249811
vn -1.78628E-08 0.9990966 -0.04249794
vn 0 0 -1
vn 0 0 -1
vn 0 0 -1
vn 0 0 -1
vn -5.289272E-08 0.9993895 -0.03493941
vn 0 0.9993893 -0.03494041
vn -5.289272E-08 0.9993895 -0.03493941
vn -1.057854E-07 0.9993895 -0.0349384
vn 0 0 -1
vn 0 0 -1
vn 0 0 -1
vn 0 0 -1
vn 0 0.9996316 -0.02713996
vn 0 0.9996316 -0.02713996
vn 0 0.9996316 -0.02713996
vn 0 0.9996316 -0.02713996
vn 0 0 -1
vn 0 0 -1
vn 0 0 -1
vn 0 0 -1
vn -4.384916E-09 0.999787 -0.02063648
vn -8.769796E-09 0.999787 -0.0206364
vn -4.384916E-09 0.999787 -0.02063648
vn 0 0.999787 -0.02063657
vn -4.236053E-07 0 -1
vn -4.236053E-07 0 -1
vn -4.236053E-07 0 -1
vn -4.236053E-07 0 -1

vt 2.291232 2.980232E-08
vt 2.291232 1
vt -4.371139E-08 1
vt 0 -1.390907E-08
vt 0 1
vt 5.960464E-08 0
vt 1 0
vt 1 1
vt 2.291232 2.980232E-08
vt 2.291232 1
vt -4.371139E-08 1
vt 0 -1.390907E-08
vt 0 1
vt 5.960464E-08 0
vt 1 0
vt 1 1
vt 2.291232 2.980232E-08
vt 2.291232 1
vt -4.371139E-08 1
vt 0 -1.390907E-08
vt 0 1
vt 5.960464E-08 0
vt 1 0
vt 1 1
vt 2.291232 2.980232E-08
vt 2.291232 1
vt -4.371139E-08 1
vt 0 -1.390907E-08
vt 0 1
vt 5.960464E-08 0
vt 1 0
vt 1 1
vt 2.291232 2.980232E-08
vt 2.291232 1
vt -4.371139E-08 1
vt 0 -1.390907E-08
vt 0 1
vt 5.960464E-08 0
vt 1 0
vt 1 1
vt 2.291232 2.980232E-08
vt 2.291232 1
vt -4.371139E-08 1
vt 0 -1.390907E-08
vt 0 1
vt 5.960464E-08 0
vt 1 0
vt 1 1
vt 2.291232 2.980232E-08
vt 2.291232 1
vt -4.371139E-08 1
vt 0 -1.390907E-08
vt 0 1
vt 5.960464E-08 0
vt 1 0
vt 1 1
vt 2.291232 2.980232E-08
vt 2.291232 1
vt -4.371139E-08 1
vt 0 -1.390907E-08
vt 0 1
vt 5.960464E-08 0
vt 1 0
vt 1 1
vt 2.291232 2.980232E-08
vt 2.291232 1
vt -4.371139E-08 1
vt 0 -1.390907E-08
vt 0 1
vt 5.960464E-08 0
vt 1 0
vt 1 1
vt 2.291232 2.980232E-08
vt 2.291232 1
vt -4.371139E-08 1
vt 0 -1.390907E-08
vt 0 1
vt 5.960464E-08 0
vt 1 0
vt 1 1
vt 2.291232 2.980232E-08
vt 2.291232 1
vt -4.371139E-08 1
vt 0 -1.390907E-08
vt 0 1
vt 5.960464E-08 0
vt 1 0
vt 1 1
vt 2.291232 2.980232E-08
vt 2.291232 1
vt -4.371139E-08 1
vt 0 -1.390907E-08
vt 0 1
vt 5.960464E-08 0
vt 1 0
vt 1 1
vt 2.291232 2.980232E-08
vt 2.291232 1
vt -4.371139E-08 1
vt 0 -1.390907E-08
vt 0 1
vt 5.960464E-08 0
vt 1 0
vt 1 1
vt 2.291232 2.980232E-08
vt 2.291232 1
vt -4.371139E-08 1
vt 0 -1.390907E-08
vt 0 1
vt 5.960464E-08 0
vt 1 0
vt 1 1
vt 2.291232 2.980232E-08
vt 2.291232 1
vt -4.371139E-08 1
vt 0 -1.390907E-08
vt 0 1
vt 5.960464E-08 0
vt 1 0
vt 1 1
vt 2.291232 2.980232E-08
vt 2.291232 1
vt -4.371139E-08 1
vt 0 -1.390907E-08
vt 0 1
vt 5.960464E-08 0
vt 1 0
vt 1 1
vt 2.291232 2.980232E-08
vt 2.291232 1
vt -4.371139E-08 1
vt 0 -1.390907E-08
vt 0 1
vt 5.960464E-08 0
vt 1 0
vt 1 1
vt 2.291232 2.980232E-08
vt 2.291232 1
vt -4.371139E-08 1
vt 0 -1.390907E-08
vt 0 1
vt 5.960464E-08 0
vt 1 0
vt 1 1
vt 2.291232 2.980232E-08
vt 2.291232 1
vt -4.371139E-08 1
vt 0 -1.390907E-08
vt 0 1
vt 5.960464E-08 0
vt 1 0
vt 1 1
vt 2.291232 2.980232E-08
vt 2.291232 1
vt -4.371139E-08 1
vt 0 -1.390907E-08
vt 0 1
vt 5.960464E-08 0
vt 1 0
vt 1 1
vt 2.291232 2.980232E-08
vt 2.291232 1
vt -4.371139E-08 1
vt 0 -1.390907E-08
vt 0 1
vt 5.960464E-08 0
vt 1 0
vt 1 1
vt 2.291232 2.980232E-08
vt 2.291232 1
vt -4.371139E-08 1
vt 0 -1.390907E-08
vt 0 1
vt 5.960464E-08 0
vt 1 0
vt 1 1
vt 2.291232 2.980232E-08
vt 2.291232 1
vt -4.371139E-08 1
vt 0 -1.390907E-08
vt 0 1
vt 5.960464E-08 0
vt 1 0
vt 1 1
vt 2.291232 2.980232E-08
vt 2.291232 1
vt -4.371139E-08 1
vt 0 -1.390907E-08
vt 0 1
vt 5.960464E-08 0
vt 1 0
vt 1 1

usemtl sn15_01_sn1540.JPG
usemap sn15_01_sn1540.JPG
f 3/3/3 1/1/1 2/2/2
f 1/1/1 3/3/3 4/4/4
f 7/7/7 5/5/5 6/6/6
f 5/5/5 7/7/7 8/8/8
f 11/11/11 9/9/9 10/10/10
f 9/9/9 11/11/11 12/12/12
f 15/15/15 13/13/13 14/14/14
f 13/13/13 15/15/15 16/16/16
f 19/19/19 17/17/17 18/18/18
f 17/17/17 19/19/19 20/20/20
f 23/23/23 21/21/21 22/22/22
f 21/21/21 23/23/23 24/24/24
f 27/27/27 25/25/25 26/26/26
f 25/25/25 27/27/27 28/28/28
f 31/31/31 29/29/29 30/30/30
f 29/29/29 31/31/31 32/32/32
f 35/35/35 33/33/33 34/34/34
f 33/33/33 35/35/35 36/36/36
f 39/39/39 37/37/37 38/38/38
f 37/37/37 39/39/39 40/40/40
f 43/43/43 41/41/41 42/42/42
f 41/41/41 43/43/43 44/44/44
f 47/47/47 45/45/45 46/46/46
f 45/45/45 47/47/47 48/48/48
f 51/51/51 49/49/49 50/50/50
f 49/49/49 51/51/51 52/52/52
f 55/55/55 53/53/53 54/54/54
f 53/53/53 55/55/55 56/56/56
f 59/59/59 57/57/57 58/58/58
f 57/57/57 59/59/59 60/60/60
f 63/63/63 61/61/61 62/62/62
f 61/61/61 63/63/63 64/64/64
f 67/67/67 65/65/65 66/66/66
f 65/65/65 67/67/67 68/68/68
f 71/71/71 69/69/69 70/70/70
f 69/69/69 71/71/71 72/72/72
f 75/75/75 73/73/73 74/74/74
f 73/73/73 75/75/75 76/76/76
f 79/79/79 77/77/77 78/78/78
f 77/77/77 79/79/79 80/80/80
f 83/83/83 81/81/81 82/82/82
f 81/81/81 83/83/83 84/84/84
f 87/87/87 85/85/85 86/86/86
f 85/85/85 87/87/87 88/88/88
f 91/91/91 89/89/89 90/90/90
f 89/89/89 91/91/91 92/92/92
f 95/95/95 93/93/93 94/94/94
f 93/93/93 95/95/95 96/96/96
f 99/99/99 97/97/97 98/98/98
f 97/97/97 99/99/99 100/100/100
f 103/103/103 101/101/101 102/102/102
f 101/101/101 103/103/103 104/104/104
f 107/107/107 105/105/105 106/106/106
f 105/105/105 107/107/107 108/108/108
f 111/111/111 109/109/109 110/110/110
f 109/109/109 111/111/111 112/112/112
f 115/115/115 113/113/113 114/114/114
f 113/113/113 115/115/115 116/116/116
f 119/119/119 117/117/117 118/118/118
f 117/117/117 119/119/119 120/120/120
f 123/123/123 121/121/121 122/122/122
f 121/121/121 123/123/123 124/124/124
f 127/127/127 125/125/125 126/126/126
f 125/125/125 127/127/127 128/128/128
f 131/131/131 129/129/129 130/130/130
f 129/129/129 131/131/131 132/132/132
f 135/135/135 133/133/133 134/134/134
f 133/133/133 135/135/135 136/136/136
f 139/139/139 137/137/137 138/138/138
f 137/137/137 139/139/139 140/140/140
f 143/143/143 141/141/141 142/142/142
f 141/141/141 143/143/143 144/144/144
f 147/147/147 145/145/145 146/146/146
f 145/145/145 147/147/147 148/148/148
f 151/151/151 149/149/149 150/150/150
f 149/149/149 151/151/151 152/152/152
f 155/155/155 153/153/153 154/154/154
f 153/153/153 155/155/155 156/156/156
f 159/159/159 157/157/157 158/158/158
f 157/157/157 159/159/159 160/160/160
f 163/163/163 161/161/161 162/162/162
f 161/161/161 163/163/163 164/164/164
f 167/167/167 165/165/165 166/166/166
f 165/165/165 167/167/167 168/168/168
f 171/171/171 169/169/169 170/170/170
f 169/169/169 171/171/171 172/172/172
f 175/175/175 173/173/173 174/174/174
f 173/173/173 175/175/175 176/176/176
f 179/179/179 177/177/177 178/178/178
f 177/177/177 179/179/179 180/180/180
f 183/183/183 181/181/181 182/182/182
f 181/181/181 183/183/183 184/184/184
f 187/187/187 185/185/185 186/186/186
f 185/185/185 187/187/187 188/188/188
f 191/191/191 189/189/189 190/190/190
f 189/189/189 191/191/191 192/192/192
