mtllib ./Box21304.mtl
g Box21304
v -4.50119 -1.965706 0.0004577637
v 1.915451 -3.200745 0.0004577637
v -4.50119 -1.965702 -29.31168
v 1.915451 -3.200741 -29.31168
v -4.50119 -5.965706 0.0004577637
v -4.50119 -1.965706 0.0004577637
v -4.50119 -5.965702 -29.31168
v -4.50119 -1.965702 -29.31168
v -7.404114 -3.462719 0.0004577637
v -2.404114 -3.462719 0.0004577637
v -7.404114 -3.462715 -29.31168
v -2.404114 -3.462715 -29.31168
v -7.404114 -7.462717 0.0004577637
v -7.404114 -3.462719 0.0004577637
v -7.404114 -7.462715 -29.31168
v -7.404114 -3.462715 -29.31168
v -12.30853 -5.90591 0.0004577637
v -7.308533 -5.90591 0.0004577637
v -12.30853 -5.905907 -29.31168
v -7.308533 -5.905907 -29.31168
v -12.30853 -9.905909 0.0004577637
v -12.30853 -5.90591 0.0004577637
v -12.30853 -9.905905 -29.31168
v -12.30853 -5.905907 -29.31168
v -17.21295 -8.269924 0.0004577637
v -12.21295 -8.269924 0.0004577637
v -17.21295 -8.26992 -29.31168
v -12.21295 -8.26992 -29.31168
v -17.21295 -12.26992 0.0004577637
v -17.21295 -8.269924 0.0004577637
v -17.21295 -12.26992 -29.31168
v -17.21295 -8.26992 -29.31168
v -22.15521 -10.66486 0.0004577637
v -17.15521 -10.66486 0.0004577637
v -22.15521 -10.66486 -29.31168
v -17.15521 -10.66486 -29.31168
v -22.15521 -14.66486 0.0004577637
v -22.15521 -10.66486 0.0004577637
v -22.15521 -14.66486 -29.31168
v -22.15521 -10.66486 -29.31168
v -27.09747 -13.13093 0.0004577637
v -22.09747 -13.13093 0.0004577637
v -27.09747 -13.13092 -29.31168
v -22.09747 -13.13092 -29.31168
v -27.09747 -17.13093 0.0004577637
v -27.09747 -13.13093 0.0004577637
v -27.09747 -17.13092 -29.31168
v -27.09747 -13.13092 -29.31168
v -32.03973 -15.74331 0.0004577637
v -27.03973 -15.74331 0.0004577637
v -32.03973 -15.7433 -29.31168
v -27.03973 -15.7433 -29.31168
v -32.03973 -19.74331 0.0004577637
v -32.03973 -15.74331 0.0004577637
v -32.03973 -19.7433 -29.31168
v -32.03973 -15.7433 -29.31168
v -36.98199 -17.99583 0.0004577637
v -31.98199 -17.99583 0.0004577637
v -36.98199 -17.99582 -29.31168
v -31.98199 -17.99582 -29.31168
v -36.98199 -21.99582 0.0004577637
v -36.98199 -17.99583 0.0004577637
v -36.98199 -21.99582 -29.31168
v -36.98199 -17.99582 -29.31168
v -41.46663 -20.3368 0.0004577637
v -36.46663 -20.3368 0.0004577637
v -41.46663 -20.3368 -29.31168
v -36.46663 -20.3368 -29.31168
v -41.46663 -24.3368 0.0004577637
v -41.46663 -20.3368 0.0004577637
v -41.46663 -24.33679 -29.31168
v -41.46663 -20.3368 -29.31168
v -45.99585 -22.4454 0.0004577637
v -40.99585 -22.4454 0.0004577637
v -45.99585 -22.4454 -29.31168
v -40.99585 -22.4454 -29.31168
v -45.99585 -26.4454 0.0004577637
v -45.99585 -22.4454 0.0004577637
v -45.99585 -26.4454 -29.31168
v -45.99585 -22.4454 -29.31168
v -51.03943 -25.3947 0.0004577637
v -46.03943 -25.3947 0.0004577637
v -51.03943 -25.3947 -29.31168
v -46.03943 -25.3947 -29.31168
v -51.03943 -29.3947 0.0004577637
v -51.03943 -25.3947 0.0004577637
v -51.03943 -29.3947 -29.31168
v -51.03943 -25.3947 -29.31168
v -56.08301 -27.41412 0.0004577637
v -51.08301 -27.41412 0.0004577637
v -56.08301 -27.41412 -29.31168
v -51.08301 -27.41412 -29.31168
v -56.08301 -30.89058 0.0004577637
v -56.08301 -27.41412 0.0004577637
v -56.08301 -30.89058 -29.31168
v -56.08301 -27.41412 -29.31168
v -61.12659 -30.21795 0.0004577637
v -56.12659 -30.21795 0.0004577637
v -61.12659 -30.21795 -29.31168
v -56.12659 -30.21795 -29.31168
v -61.12659 -33.88829 0.0004577637
v -61.12659 -30.21795 0.0004577637
v -61.12659 -33.88828 -29.31168
v -61.12659 -30.21795 -29.31168
v -66.17017 -32.40768 0.0004577637
v -61.17017 -32.40768 0.0004577637
v -66.17017 -32.40768 -29.31168
v -61.17017 -32.40768 -29.31168
v -66.17017 -36.14806 0.0004577637
v -66.17017 -32.40768 0.0004577637
v -66.17017 -36.14805 -29.31168
v -66.17017 -32.40768 -29.31168
v -71.21375 -35.05849 0.0004577637
v -66.21375 -35.05849 0.0004577637
v -71.21375 -35.05849 -29.31168
v -66.21375 -35.05849 -29.31168
v -71.21375 -38.55401 0.0004577637
v -71.21375 -35.05849 0.0004577637
v -71.21375 -38.55401 -29.31168
v -71.21375 -35.05849 -29.31168
v -76.25732 -37.61198 0.0004577637
v -71.25732 -37.61198 0.0004577637
v -76.25732 -37.61198 -29.31168
v -71.25732 -37.61198 -29.31168
v -76.25732 -40.75114 0.0004577637
v -76.25732 -37.61198 0.0004577637
v -76.25732 -40.75114 -29.31168
v -76.25732 -37.61198 -29.31168
v -1.26062 -0.4492416 0.0004577637
v 5.156021 -1.68428 0.0004577637
v -1.26062 -0.4492416 -29.31168
v 5.156021 -1.68428 -29.31168
v -1.26062 -4.449242 0.0004577637
v -1.26062 -0.4492416 0.0004577637
v -1.26062 -4.449238 -29.31168
v -1.26062 -0.4492416 -29.31168

vn 0.1890052 0.981976 1.277949E-07
vn 0.1890052 0.981976 1.277949E-07
vn 0.1890052 0.981976 1.277949E-07
vn 0.1890052 0.981976 1.277949E-07
vn -1 0 0
vn -1 0 0
vn -1 0 0
vn -1 0 0
vn 0 1 1.301406E-07
vn 0 1 1.301406E-07
vn 0 1 1.301406E-07
vn 0 1 1.301406E-07
vn -0.9999999 0 0
vn -1 0 0
vn -1 0 0
vn -1 0 0
vn 0 1 1.301406E-07
vn 0 1 1.301406E-07
vn 0 1 1.301406E-07
vn 0 1 1.301406E-07
vn -0.9999999 0 0
vn -0.9999999 0 0
vn -0.9999999 0 0
vn -0.9999999 0 0
vn 0 1 1.301406E-07
vn 0 1 1.301406E-07
vn 0 1 1.301406E-07
vn 0 1 1.301406E-07
vn -0.9999999 0 0
vn -0.9999999 0 0
vn -0.9999999 0 0
vn -0.9999999 0 0
vn 0 1 1.301406E-07
vn 0 1 1.301406E-07
vn 0 1 1.301406E-07
vn 0 1 1.301406E-07
vn -1 0 0
vn -1 0 0
vn -1 0 0
vn -1 0 0
vn 0 1 1.301406E-07
vn 0 1 1.301406E-07
vn 0 1 1.301406E-07
vn 0 1 1.301406E-07
vn -0.9999999 0 0
vn -1 0 0
vn -1 0 0
vn -1 0 0
vn 0 1 1.301406E-07
vn 0 1 1.301406E-07
vn 0 1 1.301406E-07
vn 0 1 1.301406E-07
vn -1 0 0
vn -1 0 0
vn -1 0 0
vn -1 0 0
vn 0 1 1.301406E-07
vn 0 1 1.301406E-07
vn 0 1 1.301406E-07
vn 0 1 1.301406E-07
vn -0.9999999 0 0
vn -1 0 0
vn -1 0 0
vn -1 0 0
vn 0 1 6.507028E-08
vn 0 1 6.507028E-08
vn 0 1 6.507028E-08
vn 0 1 6.507028E-08
vn -1 0 0
vn -1 0 0
vn -1 0 0
vn -0.9999999 0 0
vn 0 1 1.301406E-07
vn 0 1 1.301406E-07
vn 0 1 1.301406E-07
vn 0 1 1.301406E-07
vn -1 0 0
vn -1 0 0
vn -1 0 0
vn -1 0 0
vn 0 1 1.301406E-07
vn 0 1 1.301406E-07
vn 0 1 1.301406E-07
vn 0 1 1.301406E-07
vn -0.9999999 0 0
vn -1 0 0
vn -1 0 0
vn -1 0 0
vn 0 1 1.301406E-07
vn 0 1 1.301406E-07
vn 0 1 1.301406E-07
vn 0 1 1.301406E-07
vn -1 0 0
vn -1 0 0
vn -1 0 0
vn -1 0 0
vn 0 1 6.507028E-08
vn 0 1 6.507028E-08
vn 0 1 6.507028E-08
vn 0 1 6.507028E-08
vn -1 0 0
vn -1 0 0
vn -1 0 0
vn -1 0 0
vn 0 1 1.301406E-07
vn 0 1 1.301406E-07
vn 0 1 1.301406E-07
vn 0 1 1.301406E-07
vn -0.9999999 0 0
vn -0.9999999 0 0
vn -0.9999999 0 0
vn -0.9999999 0 0
vn 0 1 1.301406E-07
vn 0 1 1.301406E-07
vn 0 1 1.301406E-07
vn 0 1 1.301406E-07
vn -1 0 0
vn -1 0 0
vn -1 0 0
vn -1 0 0
vn 0 1 1.301406E-07
vn 0 1 1.301406E-07
vn 0 1 1.301406E-07
vn 0 1 1.301406E-07
vn -1 0 0
vn -1 0 0
vn -1 0 0
vn -1 0 0
vn 0.1890052 0.981976 0
vn 0.1890052 0.981976 0
vn 0.1890052 0.981976 0
vn 0.1890052 0.981976 0
vn -1 0 0
vn -1 0 0
vn -1 0 0
vn -1 0 0

vt 2.291232 1
vt 2.291232 2.980232E-08
vt -4.371139E-08 1
vt 0 -1.390907E-08
vt 5.960464E-08 0
vt 0 1
vt 1 0
vt 1 1
vt 2.291232 1
vt 2.291232 2.980232E-08
vt -4.371139E-08 1
vt 0 -1.390907E-08
vt 5.960464E-08 0
vt 0 1
vt 1 0
vt 1 1
vt 2.291232 1
vt 2.291232 2.980232E-08
vt -4.371139E-08 1
vt 0 -1.390907E-08
vt 5.960464E-08 0
vt 0 1
vt 1 0
vt 1 1
vt 2.291232 1
vt 2.291232 2.980232E-08
vt -4.371139E-08 1
vt 0 -1.390907E-08
vt 5.960464E-08 0
vt 0 1
vt 1 0
vt 1 1
vt 2.291232 1
vt 2.291232 2.980232E-08
vt -4.371139E-08 1
vt 0 -1.390907E-08
vt 5.960464E-08 0
vt 0 1
vt 1 0
vt 1 1
vt 2.291232 1
vt 2.291232 2.980232E-08
vt -4.371139E-08 1
vt 0 -1.390907E-08
vt 5.960464E-08 0
vt 0 1
vt 1 0
vt 1 1
vt 2.291232 1
vt 2.291232 2.980232E-08
vt -4.371139E-08 1
vt 0 -1.390907E-08
vt 5.960464E-08 0
vt 0 1
vt 1 0
vt 1 1
vt 2.291232 1
vt 2.291232 2.980232E-08
vt -4.371139E-08 1
vt 0 -1.390907E-08
vt 5.960464E-08 0
vt 0 1
vt 1 0
vt 1 1
vt 2.291232 1
vt 2.291232 2.980232E-08
vt -4.371139E-08 1
vt 0 -1.390907E-08
vt 5.960464E-08 0
vt 0 1
vt 1 0
vt 1 1
vt 2.291232 1
vt 2.291232 2.980232E-08
vt -4.371139E-08 1
vt 0 -1.390907E-08
vt 5.960464E-08 0
vt 0 1
vt 1 0
vt 1 1
vt 2.291232 1
vt 2.291232 2.980232E-08
vt -4.371139E-08 1
vt 0 -1.390907E-08
vt 5.960464E-08 0
vt 0 1
vt 1 0
vt 1 1
vt 2.291232 1
vt 2.291232 2.980232E-08
vt -4.371139E-08 1
vt 0 -1.390907E-08
vt 5.960464E-08 0
vt 0 1
vt 1 0
vt 1 1
vt 2.291232 1
vt 2.291232 2.980232E-08
vt -4.371139E-08 1
vt 0 -1.390907E-08
vt 5.960464E-08 0
vt 0 1
vt 1 0
vt 1 1
vt 2.291232 1
vt 2.291232 2.980232E-08
vt -4.371139E-08 1
vt 0 -1.390907E-08
vt 5.960464E-08 0
vt 0 1
vt 1 0
vt 1 1
vt 2.291232 1
vt 2.291232 2.980232E-08
vt -4.371139E-08 1
vt 0 -1.390907E-08
vt 5.960464E-08 0
vt 0 1
vt 1 0
vt 1 1
vt 2.291232 1
vt 2.291232 2.980232E-08
vt -4.371139E-08 1
vt 0 -1.390907E-08
vt 5.960464E-08 0
vt 0 1
vt 1 0
vt 1 1
vt 2.291232 1
vt 2.291232 2.980232E-08
vt -4.371139E-08 1
vt 0 -1.390907E-08
vt 5.960464E-08 0
vt 0 1
vt 1 0
vt 1 1

usemtl sn15_01_sn1540.JPG
usemap sn15_01_sn1540.JPG
f 3/3/3 1/1/1 2/2/2
f 2/2/2 4/4/4 3/3/3
f 7/7/7 5/5/5 6/6/6
f 6/6/6 8/8/8 7/7/7
f 11/11/11 9/9/9 10/10/10
f 10/10/10 12/12/12 11/11/11
f 15/15/15 13/13/13 14/14/14
f 14/14/14 16/16/16 15/15/15
f 19/19/19 17/17/17 18/18/18
f 18/18/18 20/20/20 19/19/19
f 23/23/23 21/21/21 22/22/22
f 22/22/22 24/24/24 23/23/23
f 27/27/27 25/25/25 26/26/26
f 26/26/26 28/28/28 27/27/27
f 31/31/31 29/29/29 30/30/30
f 30/30/30 32/32/32 31/31/31
f 35/35/35 33/33/33 34/34/34
f 34/34/34 36/36/36 35/35/35
f 39/39/39 37/37/37 38/38/38
f 38/38/38 40/40/40 39/39/39
f 43/43/43 41/41/41 42/42/42
f 42/42/42 44/44/44 43/43/43
f 47/47/47 45/45/45 46/46/46
f 46/46/46 48/48/48 47/47/47
f 51/51/51 49/49/49 50/50/50
f 50/50/50 52/52/52 51/51/51
f 55/55/55 53/53/53 54/54/54
f 54/54/54 56/56/56 55/55/55
f 59/59/59 57/57/57 58/58/58
f 58/58/58 60/60/60 59/59/59
f 63/63/63 61/61/61 62/62/62
f 62/62/62 64/64/64 63/63/63
f 67/67/67 65/65/65 66/66/66
f 66/66/66 68/68/68 67/67/67
f 71/71/71 69/69/69 70/70/70
f 70/70/70 72/72/72 71/71/71
f 75/75/75 73/73/73 74/74/74
f 74/74/74 76/76/76 75/75/75
f 79/79/79 77/77/77 78/78/78
f 78/78/78 80/80/80 79/79/79
f 83/83/83 81/81/81 82/82/82
f 82/82/82 84/84/84 83/83/83
f 87/87/87 85/85/85 86/86/86
f 86/86/86 88/88/88 87/87/87
f 91/91/91 89/89/89 90/90/90
f 90/90/90 92/92/92 91/91/91
f 95/95/95 93/93/93 94/94/94
f 94/94/94 96/96/96 95/95/95
f 99/99/99 97/97/97 98/98/98
f 98/98/98 100/100/100 99/99/99
f 103/103/103 101/101/101 102/102/102
f 102/102/102 104/104/104 103/103/103
f 107/107/107 105/105/105 106/106/106
f 106/106/106 108/108/108 107/107/107
f 111/111/111 109/109/109 110/110/110
f 110/110/110 112/112/112 111/111/111
f 115/115/115 113/113/113 114/114/114
f 114/114/114 116/116/116 115/115/115
f 119/119/119 117/117/117 118/118/118
f 118/118/118 120/120/120 119/119/119
f 123/123/123 121/121/121 122/122/122
f 122/122/122 124/124/124 123/123/123
f 127/127/127 125/125/125 126/126/126
f 126/126/126 128/128/128 127/127/127
f 131/131/131 129/129/129 130/130/130
f 130/130/130 132/132/132 131/131/131
f 135/135/135 133/133/133 134/134/134
f 134/134/134 136/136/136 135/135/135
