mtllib ./Box21298.mtl
g Box21298
v 2.500488 -0.4925995 0.0001220703
v -3.916138 -0.4925995 0.0001220703
v 2.500488 -0.4925957 27.60013
v -3.916138 -0.4925995 27.60013
v 2.500488 -4.492599 0.0001220703
v 2.500488 -0.4925995 0.0001220703
v 2.500488 -4.492596 27.60013
v 2.500488 -0.4925957 27.60013
v 6.929382 -2.537865 0.0001220703
v 1.929382 -2.537865 0.0001220703
v 6.929382 -2.537861 27.60013
v 1.929382 -2.537861 27.60013
v 6.929382 -6.537865 0.0001220703
v 6.929382 -2.537865 0.0001220703
v 6.929382 -6.537861 27.60013
v 6.929382 -2.537861 27.60013
v 10.64679 -4.314735 0.0001220703
v 5.64679 -4.314735 0.0001220703
v 10.64679 -4.314732 27.60013
v 5.64679 -4.314732 27.60013
v 10.64679 -8.314734 0.0001220703
v 10.64679 -4.314735 0.0001220703
v 10.64679 -8.314732 27.60013
v 10.64679 -4.314732 27.60013
v 17.21375 -7.956587 0.0001220703
v 12.21375 -7.956587 0.0001220703
v 17.21375 -7.956583 27.60013
v 12.21375 -7.956583 27.60013
v 17.21375 -11.95658 0.0001220703
v 17.21375 -7.956587 0.0001220703
v 17.21375 -11.95658 27.60013
v 17.21375 -7.956583 27.60013
v 22.15601 -9.854326 0.0001220703
v 17.15601 -9.854326 0.0001220703
v 22.15601 -9.854322 27.60013
v 17.15601 -9.854322 27.60013
v 22.15601 -13.85432 0.0001220703
v 22.15601 -9.854326 0.0001220703
v 22.15601 -13.85432 27.60013
v 22.15601 -9.854322 27.60013
v 27.09827 -12.33026 0.0001220703
v 22.09827 -12.33026 0.0001220703
v 27.09827 -12.33026 27.60013
v 22.09827 -12.33026 27.60013
v 27.09827 -16.33026 0.0001220703
v 27.09827 -12.33026 0.0001220703
v 27.09827 -16.33026 27.60013
v 27.09827 -12.33026 27.60013
v 32.04053 -14.77438 0.0001220703
v 27.04053 -14.77438 0.0001220703
v 32.04053 -14.77437 27.60013
v 27.04053 -14.77437 27.60013
v 32.04053 -18.77438 0.0001220703
v 32.04053 -14.77438 0.0001220703
v 32.04053 -18.77437 27.60013
v 32.04053 -14.77437 27.60013
v 36.98279 -17.31926 0.0001220703
v 31.98279 -17.31926 0.0001220703
v 36.98279 -17.31926 27.60013
v 31.98279 -17.31926 27.60013
v 36.98279 -21.31926 0.0001220703
v 36.98279 -17.31926 0.0001220703
v 36.98279 -21.31926 27.60013
v 36.98279 -17.31926 27.60013
v 41.92505 -19.9468 0.0001220703
v 36.92505 -19.9468 0.0001220703
v 41.92505 -19.94679 27.60013
v 36.92505 -19.94679 27.60013
v 41.92505 -23.9468 0.0001220703
v 41.92505 -19.9468 0.0001220703
v 41.92505 -23.94679 27.60013
v 41.92505 -19.94679 27.60013
v 45.99664 -22.27575 0.0001220703
v 40.99664 -22.27575 0.0001220703
v 45.99664 -22.27574 27.60013
v 40.99664 -22.27574 27.60013
v 45.99664 -26.27575 0.0001220703
v 45.99664 -22.27575 0.0001220703
v 45.99664 -26.27574 27.60013
v 45.99664 -22.27574 27.60013
v 51.04022 -24.77017 0.0001220703
v 46.04022 -24.77017 0.0001220703
v 51.04022 -24.77017 27.60013
v 46.04022 -24.77017 27.60013
v 51.04022 -28.77017 0.0001220703
v 51.04022 -24.77017 0.0001220703
v 51.04022 -28.77016 27.60013
v 51.04022 -24.77017 27.60013
v 56.0838 -27.09475 0.0001220703
v 51.0838 -27.09475 0.0001220703
v 56.0838 -27.09474 27.60013
v 51.0838 -27.09474 27.60013
v 56.0838 -30.57121 0.0001220703
v 56.0838 -27.09475 0.0001220703
v 56.0838 -30.57121 27.60013
v 56.0838 -27.09474 27.60013
v 61.12738 -29.44588 0.0001220703
v 56.12738 -29.44588 0.0001220703
v 61.12738 -29.44588 27.60013
v 56.12738 -29.44588 27.60013
v 61.12738 -33.11621 0.0001220703
v 61.12738 -29.44588 0.0001220703
v 61.12738 -33.11621 27.60013
v 61.12738 -29.44588 27.60013
v 66.17096 -31.92085 0.0001220703
v 61.17096 -31.92085 0.0001220703
v 66.17096 -31.92085 27.60013
v 61.17096 -31.92085 27.60013
v 66.17096 -35.66122 0.0001220703
v 66.17096 -31.92085 0.0001220703
v 66.17096 -35.66122 27.60013
v 66.17096 -31.92085 27.60013
v 71.21454 -34.71071 0.0001220703
v 66.21454 -34.71071 0.0001220703
v 71.21454 -34.7107 27.60013
v 66.21454 -34.7107 27.60013
v 71.21454 -38.20623 0.0001220703
v 71.21454 -34.71071 0.0001220703
v 71.21454 -38.20622 27.60013
v 71.21454 -34.7107 27.60013
v 76.25812 -37.2027 0.0001220703
v 71.25812 -37.2027 0.0001220703
v 76.25812 -37.2027 27.60013
v 71.25812 -37.2027 27.60013
v 76.25812 -40.34186 0.0001220703
v 76.25812 -37.2027 0.0001220703
v 76.25812 -40.34186 27.60013
v 76.25812 -37.2027 27.60013
v 13.00302 -6.148254 0.0001220703
v 8.003021 -6.148254 0.0001220703
v 13.00302 -6.148251 27.60013
v 8.003021 -6.148251 27.60013
v 13.00302 -10.14825 0.0001220703
v 13.00302 -6.148254 0.0001220703
v 13.00302 -10.14825 27.60013
v 13.00302 -6.148251 27.60013
v -0.0609436 0.8843193 0.0001220703
v -6.47757 0.8843155 0.0001220703
v -0.0609436 0.8843193 27.60013
v -6.47757 0.8843193 27.60013
v -0.0609436 -3.115681 0.0001220703
v -0.0609436 0.8843193 0.0001220703
v -0.0609436 -3.115677 27.60013
v -0.0609436 0.8843193 27.60013

vn 0 1 -1.382136E-07
vn -2.97251E-07 1 -6.910682E-08
vn -2.97251E-07 1 -6.910682E-08
vn -5.94502E-07 1 0
vn 1 0 0
vn 1 0 0
vn 1 0 0
vn 1 0 0
vn 0 1 -1.382136E-07
vn 0 1 -1.382136E-07
vn 0 1 -1.382136E-07
vn 0 1 -1.382136E-07
vn 1 0 0
vn 1 0 0
vn 1 0 0
vn 1 0 0
vn 0 1 -1.382136E-07
vn 0 1 -1.382136E-07
vn 0 1 -1.382136E-07
vn 0 1 -1.382136E-07
vn 1 0 0
vn 1 0 0
vn 1 0 0
vn 1 0 0
vn 0 1 -1.382136E-07
vn 0 1 -1.382136E-07
vn 0 1 -1.382136E-07
vn 0 1 -1.382136E-07
vn 1 0 0
vn 1 0 0
vn 1 0 0
vn 1 0 0
vn 0 1 -1.382136E-07
vn 0 1 -1.382136E-07
vn 0 1 -1.382136E-07
vn 0 1 -1.382136E-07
vn 1 0 0
vn 1 0 0
vn 1 0 0
vn 1 0 0
vn 0 1 -6.910682E-08
vn 0 1 -6.910682E-08
vn 0 1 -6.910682E-08
vn 0 1 -6.910682E-08
vn 1 0 0
vn 1 0 0
vn 1 0 0
vn 1 0 0
vn 0 1 -1.382136E-07
vn 0 1 -1.382136E-07
vn 0 1 -1.382136E-07
vn 0 1 -1.382136E-07
vn 1 0 0
vn 1 0 0
vn 1 0 0
vn 1 0 0
vn 0 1 -1.382136E-07
vn 0 1 -1.382136E-07
vn 0 1 -1.382136E-07
vn 0 1 -1.382136E-07
vn 1 0 0
vn 1 0 0
vn 1 0 0
vn 1 0 0
vn 0 1 -1.382136E-07
vn 0 1 -1.382136E-07
vn 0 1 -1.382136E-07
vn 0 1 -1.382136E-07
vn 1 0 0
vn 1 0 0
vn 1 0 0
vn 1 0 0
vn 0 1 -1.382136E-07
vn 0 1 -1.382136E-07
vn 0 1 -1.382136E-07
vn 0 1 -1.382136E-07
vn 1 0 0
vn 1 0 0
vn 1 0 0
vn 1 0 0
vn 0 1 -6.910682E-08
vn 0 1 -6.910682E-08
vn 0 1 -6.910682E-08
vn 0 1 -6.910682E-08
vn 1 0 0
vn 1 0 0
vn 1 0 0
vn 1 0 0
vn 0 1 -6.910682E-08
vn 0 1 -6.910682E-08
vn 0 1 -6.910682E-08
vn 0 1 -6.910682E-08
vn 0.9999999 0 0
vn 1 0 0
vn 1 0 0
vn 1 0 0
vn 0 1 -1.382136E-07
vn 0 1 -1.382136E-07
vn 0 1 -1.382136E-07
vn 0 1 -1.382136E-07
vn 0.9999999 0 0
vn 0.9999999 0 0
vn 0.9999999 0 0
vn 0.9999999 0 0
vn 0 1 -1.382136E-07
vn 0 1 -1.382136E-07
vn 0 1 -1.382136E-07
vn 0 1 -1.382136E-07
vn 1 0 0
vn 1 0 0
vn 1 0 0
vn 1 0 0
vn 0 1 -1.382136E-07
vn 0 1 -1.382136E-07
vn 0 1 -1.382136E-07
vn 0 1 -1.382136E-07
vn 0.9999999 0 0
vn 0.9999999 0 0
vn 0.9999999 0 0
vn 0.9999999 0 0
vn 0 1 -1.382136E-07
vn 0 1 -1.382136E-07
vn 0 1 -1.382136E-07
vn 0 1 -1.382136E-07
vn 1 0 0
vn 1 0 0
vn 1 0 0
vn 1 0 0
vn 0 1 -1.382136E-07
vn 0 1 -1.382136E-07
vn 0 1 -1.382136E-07
vn 0 1 -1.382136E-07
vn 1 0 0
vn 1 0 0
vn 1 0 0
vn 1 0 0
vn -5.94502E-07 1 0
vn -2.97251E-07 1 -6.910682E-08
vn -2.97251E-07 1 -6.910682E-08
vn 0 1 -1.382136E-07
vn 1 0 0
vn 1 0 0
vn 1 0 0
vn 1 0 0

vt 2.291232 1
vt 2.291232 2.980232E-08
vt -4.371139E-08 1
vt 0 -1.390907E-08
vt 5.960464E-08 0
vt 0 1
vt 1 0
vt 1 1
vt 2.291232 1
vt 2.291232 2.980232E-08
vt -4.371139E-08 1
vt 0 -1.390907E-08
vt 5.960464E-08 0
vt 0 1
vt 1 0
vt 1 1
vt 2.291232 1
vt 2.291232 2.980232E-08
vt -4.371139E-08 1
vt 0 -1.390907E-08
vt 5.960464E-08 0
vt 0 1
vt 1 0
vt 1 1
vt 2.291232 1
vt 2.291232 2.980232E-08
vt -4.371139E-08 1
vt 0 -1.390907E-08
vt 5.960464E-08 0
vt 0 1
vt 1 0
vt 1 1
vt 2.291232 1
vt 2.291232 2.980232E-08
vt -4.371139E-08 1
vt 0 -1.390907E-08
vt 5.960464E-08 0
vt 0 1
vt 1 0
vt 1 1
vt 2.291232 1
vt 2.291232 2.980232E-08
vt -4.371139E-08 1
vt 0 -1.390907E-08
vt 5.960464E-08 0
vt 0 1
vt 1 0
vt 1 1
vt 2.291232 1
vt 2.291232 2.980232E-08
vt -4.371139E-08 1
vt 0 -1.390907E-08
vt 5.960464E-08 0
vt 0 1
vt 1 0
vt 1 1
vt 2.291232 1
vt 2.291232 2.980232E-08
vt -4.371139E-08 1
vt 0 -1.390907E-08
vt 5.960464E-08 0
vt 0 1
vt 1 0
vt 1 1
vt 2.291232 1
vt 2.291232 2.980232E-08
vt -4.371139E-08 1
vt 0 -1.390907E-08
vt 5.960464E-08 0
vt 0 1
vt 1 0
vt 1 1
vt 2.291232 1
vt 2.291232 2.980232E-08
vt -4.371139E-08 1
vt 0 -1.390907E-08
vt 5.960464E-08 0
vt 0 1
vt 1 0
vt 1 1
vt 2.291232 1
vt 2.291232 2.980232E-08
vt -4.371139E-08 1
vt 0 -1.390907E-08
vt 5.960464E-08 0
vt 0 1
vt 1 0
vt 1 1
vt 2.291232 1
vt 2.291232 2.980232E-08
vt -4.371139E-08 1
vt 0 -1.390907E-08
vt 5.960464E-08 0
vt 0 1
vt 1 0
vt 1 1
vt 2.291232 1
vt 2.291232 2.980232E-08
vt -4.371139E-08 1
vt 0 -1.390907E-08
vt 5.960464E-08 0
vt 0 1
vt 1 0
vt 1 1
vt 2.291232 1
vt 2.291232 2.980232E-08
vt -4.371139E-08 1
vt 0 -1.390907E-08
vt 5.960464E-08 0
vt 0 1
vt 1 0
vt 1 1
vt 2.291232 1
vt 2.291232 2.980232E-08
vt -4.371139E-08 1
vt 0 -1.390907E-08
vt 5.960464E-08 0
vt 0 1
vt 1 0
vt 1 1
vt 2.291232 1
vt 2.291232 2.980232E-08
vt -4.371139E-08 1
vt 0 -1.390907E-08
vt 5.960464E-08 0
vt 0 1
vt 1 0
vt 1 1
vt 2.291232 1
vt 2.291232 2.980232E-08
vt -4.371139E-08 1
vt 0 -1.390907E-08
vt 5.960464E-08 0
vt 0 1
vt 1 0
vt 1 1
vt 2.291232 1
vt 2.291232 2.980232E-08
vt -4.371139E-08 1
vt 0 -1.390907E-08
vt 5.960464E-08 0
vt 0 1
vt 1 0
vt 1 1

usemtl sn15_01_sn1540.JPG
usemap sn15_01_sn1540.JPG
f 3/3/3 1/1/1 2/2/2
f 2/2/2 4/4/4 3/3/3
f 7/7/7 5/5/5 6/6/6
f 6/6/6 8/8/8 7/7/7
f 11/11/11 9/9/9 10/10/10
f 10/10/10 12/12/12 11/11/11
f 15/15/15 13/13/13 14/14/14
f 14/14/14 16/16/16 15/15/15
f 19/19/19 17/17/17 18/18/18
f 18/18/18 20/20/20 19/19/19
f 23/23/23 21/21/21 22/22/22
f 22/22/22 24/24/24 23/23/23
f 27/27/27 25/25/25 26/26/26
f 26/26/26 28/28/28 27/27/27
f 31/31/31 29/29/29 30/30/30
f 30/30/30 32/32/32 31/31/31
f 35/35/35 33/33/33 34/34/34
f 34/34/34 36/36/36 35/35/35
f 39/39/39 37/37/37 38/38/38
f 38/38/38 40/40/40 39/39/39
f 43/43/43 41/41/41 42/42/42
f 42/42/42 44/44/44 43/43/43
f 47/47/47 45/45/45 46/46/46
f 46/46/46 48/48/48 47/47/47
f 51/51/51 49/49/49 50/50/50
f 50/50/50 52/52/52 51/51/51
f 55/55/55 53/53/53 54/54/54
f 54/54/54 56/56/56 55/55/55
f 59/59/59 57/57/57 58/58/58
f 58/58/58 60/60/60 59/59/59
f 63/63/63 61/61/61 62/62/62
f 62/62/62 64/64/64 63/63/63
f 67/67/67 65/65/65 66/66/66
f 66/66/66 68/68/68 67/67/67
f 71/71/71 69/69/69 70/70/70
f 70/70/70 72/72/72 71/71/71
f 75/75/75 73/73/73 74/74/74
f 74/74/74 76/76/76 75/75/75
f 79/79/79 77/77/77 78/78/78
f 78/78/78 80/80/80 79/79/79
f 83/83/83 81/81/81 82/82/82
f 82/82/82 84/84/84 83/83/83
f 87/87/87 85/85/85 86/86/86
f 86/86/86 88/88/88 87/87/87
f 91/91/91 89/89/89 90/90/90
f 90/90/90 92/92/92 91/91/91
f 95/95/95 93/93/93 94/94/94
f 94/94/94 96/96/96 95/95/95
f 99/99/99 97/97/97 98/98/98
f 98/98/98 100/100/100 99/99/99
f 103/103/103 101/101/101 102/102/102
f 102/102/102 104/104/104 103/103/103
f 107/107/107 105/105/105 106/106/106
f 106/106/106 108/108/108 107/107/107
f 111/111/111 109/109/109 110/110/110
f 110/110/110 112/112/112 111/111/111
f 115/115/115 113/113/113 114/114/114
f 114/114/114 116/116/116 115/115/115
f 119/119/119 117/117/117 118/118/118
f 118/118/118 120/120/120 119/119/119
f 123/123/123 121/121/121 122/122/122
f 122/122/122 124/124/124 123/123/123
f 127/127/127 125/125/125 126/126/126
f 126/126/126 128/128/128 127/127/127
f 131/131/131 129/129/129 130/130/130
f 130/130/130 132/132/132 131/131/131
f 135/135/135 133/133/133 134/134/134
f 134/134/134 136/136/136 135/135/135
f 139/139/139 137/137/137 138/138/138
f 138/138/138 140/140/140 139/139/139
f 143/143/143 141/141/141 142/142/142
f 142/142/142 144/144/144 143/143/143
