mtllib ./Box21331.mtl
g Box21331
v 2.550247 -2.541443 -1.674561
v -3.99472 -2.642654 -1.674561
v 2.550247 -2.541428 81.18994
v -3.99472 -2.642654 81.18994
v 2.550247 -6.541443 -1.674561
v 2.550247 -2.541443 -1.674561
v 2.550247 -6.541428 81.18994
v 2.550247 -2.541428 81.18994
v 7.55275 -4.678909 -1.674561
v 2.452759 -4.678909 -1.674561
v 7.55275 -4.678894 81.19
v 2.452759 -4.678894 81.19
v 7.55275 -8.678894 -1.674561
v 7.55275 -4.678909 -1.674561
v 7.55275 -8.678894 81.19
v 7.55275 -4.678894 81.19
v 12.55525 -7.217606 -1.674561
v 7.455261 -7.217606 -1.674561
v 12.55525 -7.21759 81.19
v 7.455261 -7.21759 81.19
v 12.55525 -11.21761 -1.674561
v 12.55525 -7.217606 -1.674561
v 12.55525 -11.21759 81.19
v 12.55525 -7.21759 81.19
v 17.55775 -9.339462 -1.674561
v 12.45776 -9.339462 -1.674561
v 17.55775 -9.339447 81.19
v 12.45776 -9.339447 81.19
v 17.55775 -13.33946 -1.674561
v 17.55775 -9.339462 -1.674561
v 17.55775 -13.33945 81.19
v 17.55775 -9.339447 81.19
v 22.59886 -11.38724 -1.674561
v 17.49887 -11.38724 -1.674561
v 22.59886 -11.38724 81.19
v 17.49887 -11.38724 81.19
v 22.59886 -15.38724 -4.735535
v 22.59886 -11.38724 -1.674561
v 22.59886 -15.38724 81.19
v 22.59886 -11.38724 81.19
v 27.63997 -14.01471 -4.735535
v 22.53998 -14.01471 -1.674561
v 27.63997 -14.01469 81.19
v 22.53998 -14.01469 81.19
v 27.63997 -18.01469 -4.735535
v 27.63997 -14.01471 -4.735535
v 27.63997 -18.01469 81.19
v 27.63997 -14.01469 81.19
v 32.68108 -16.18405 -3.06134
v 27.58107 -16.18405 -4.735535
v 32.68108 -16.18404 81.19
v 27.58108 -16.18404 81.19
v 32.68108 -20.18405 -3.06134
v 32.68108 -16.18405 -3.06134
v 32.68108 -20.18404 81.19
v 32.68108 -16.18404 81.19
v 37.72218 -18.25366 -3.06134
v 32.62218 -18.25366 -3.06134
v 37.72218 -18.25365 81.19
v 32.62218 -18.25365 81.19
v 37.72218 -22.25366 -3.06134
v 37.72218 -18.25366 -3.06134
v 37.72218 -22.25365 81.19
v 37.72218 -18.25365 81.19
v 42.76329 -20.7507 -3.06134
v 37.66328 -20.7507 -3.06134
v 42.76328 -20.75069 81.19
v 37.66328 -20.75069 81.19
v 42.76329 -24.7507 -3.06134
v 42.76329 -20.7507 -3.06134
v 42.76328 -24.75069 81.19
v 42.76328 -20.75069 81.19
v 46.91631 -23.07484 -3.06134
v 41.81631 -23.07484 -3.06134
v 46.91631 -23.07483 81.19
v 41.81631 -23.07483 81.19
v 46.91631 -27.07484 -3.06134
v 46.91631 -23.07484 -3.06134
v 46.91631 -27.07483 81.19
v 46.91631 -23.07483 81.19
v 52.06075 -25.32753 -4.70343
v 46.96075 -25.32753 -3.06134
v 52.06076 -25.32751 81.19
v 46.96075 -25.32751 81.19
v 52.06075 -29.32753 -4.70343
v 52.06075 -25.32753 -4.70343
v 52.06076 -29.32751 81.19
v 52.06076 -25.32751 81.19
v 57.2052 -27.87262 -4.70343
v 52.10521 -27.87262 -4.70343
v 57.2052 -27.8726 81.19
v 52.10521 -27.8726 81.19
v 57.2052 -31.34908 -4.70343
v 57.2052 -27.87262 -4.70343
v 57.2052 -31.34908 81.19
v 57.2052 -27.8726 81.19
v 62.34966 -29.54228 -4.70343
v 57.24965 -29.54228 -4.70343
v 62.34966 -29.54228 81.19
v 57.24965 -29.54228 81.19
v 62.34966 -33.21262 -4.70343
v 62.34966 -29.54228 -4.70343
v 62.34966 -33.2126 81.19
v 62.34966 -29.54228 81.19
v 67.4941 -31.86388 -4.70343
v 62.3941 -31.86388 -4.70343
v 67.4941 -31.86386 81.19
v 62.3941 -31.86386 81.19
v 67.4941 -35.60423 -4.70343
v 67.4941 -31.86388 -4.70343
v 67.4941 -35.60423 81.19
v 67.4941 -31.86386 81.19
v 71.9073 -34.1494 -4.70343
v 66.8073 -34.1494 -4.70343
v 71.9073 -34.1494 81.19
v 66.8073 -34.1494 81.19
v 71.9073 -37.64491 -0.0003662109
v 71.9073 -34.1494 -4.70343
v 71.9073 -37.64491 81.19
v 71.9073 -34.1494 81.19
v 76.61119 -36.03181 -7.730835
v 71.51119 -36.03181 -4.70343
v 76.61119 -36.0318 81.19
v 71.51119 -36.0318 81.19
v 76.61119 -39.17097 -7.730835
v 76.61119 -36.03181 -7.730835
v 76.61119 -39.17096 81.19
v 76.61119 -36.0318 81.19
v 80.3221 -37.98985 -7.730835
v 75.2221 -37.98985 -7.730835
v 80.3221 -37.98984 81.19
v 75.2221 -37.98985 81.19
v 80.3221 -41.46632 -7.730835
v 80.3221 -37.98985 -7.730835
v 80.3221 -41.46631 81.19
v 80.3221 -37.98984 81.19
v 84.81747 -39.62892 -7.730835
v 79.71747 -39.62892 -7.730835
v 84.81747 -39.62891 81.18994
v 79.71746 -39.62891 81.18994
v 84.81747 -43.29926 -7.730835
v 84.81747 -39.62892 -7.730835
v 84.81747 -43.29924 81.18994
v 84.81747 -39.62891 81.18994
v 89.59361 -42.31302 -7.730896
v 84.49361 -42.31302 -7.730896
v 89.59361 -42.313 81.18994
v 84.49362 -42.313 81.18994
v 89.59361 -46.05339 -7.730835
v 89.59361 -42.31302 -7.730896
v 89.59361 -46.05339 81.18994
v 89.59361 -42.313 81.18994
v 94.84915 -44.56181 -7.730835
v 89.74915 -44.56181 -7.730835
v 94.84915 -44.56181 81.18994
v 89.74915 -44.56181 81.18994
v 94.84915 -48.05733 -7.730835
v 94.84915 -44.56181 -7.730835
v 94.84915 -48.05733 81.18994
v 94.84915 -44.56181 81.18994
v 99.63237 -46.75914 -7.730835
v 94.53237 -46.75914 -7.730835
v 99.63237 -46.75912 81.18994
v 94.53237 -46.75912 81.18994
v 99.63237 -49.89828 -7.730835
v 99.63237 -46.75914 -7.730835
v 99.63237 -49.89828 81.19
v 99.63237 -46.75912 81.18994
v -0.7664948 -0.955658 -1.674561
v -7.311447 -1.056885 -1.674561
v -0.7664948 -0.955658 81.18994
v -7.311447 -1.05687 81.18994
v -0.7664948 -4.955658 -1.674561
v -0.7664948 -0.955658 -1.674561
v -0.7664948 -4.955658 81.18994
v -0.7664948 -0.955658 81.18994
v -2.480759 0.3596039 -1.674561
v -9.025726 0.2583771 -1.674561
v -3.300659 0.2008362 81.18994
v -9.845612 0.09960938 81.18994
v -2.480759 -3.640396 -1.674561
v -2.480759 0.3596039 -1.674561
v -3.300659 -3.799164 81.18994
v -3.300659 0.2008362 81.18994

vn -0.01546218 0.9998805 -1.841194E-07
vn -0.01546334 0.9998805 -9.205972E-08
vn -0.01546334 0.9998805 -9.205972E-08
vn -0.01546451 0.9998804 0
vn 1 0 0
vn 1 0 0
vn 1 0 0
vn 1 0 0
vn 0 1 -1.841413E-07
vn 0 1 -1.841413E-07
vn 0 1 -1.841413E-07
vn 0 1 -1.841413E-07
vn 1 0 0
vn 0.9999999 0 0
vn 0.9999999 0 0
vn 1 0 0
vn 0 1 -1.841413E-07
vn 0 1 -1.841413E-07
vn 0 1 -1.841413E-07
vn 0 1 -1.841413E-07
vn 1 0 0
vn 1 0 0
vn 1 0 0
vn 1 0 0
vn 0 1 -1.841413E-07
vn 0 1 -1.841413E-07
vn 0 1 -1.841413E-07
vn 0 1 -1.841413E-07
vn 1 0 0
vn 1 0 0
vn 1 0 0
vn 1 0 0
vn 0 1 0
vn 0 1 0
vn 0 1 0
vn 0 1 0
vn 1 0 0
vn 1 0 0
vn 1 0 0
vn 1 0 0
vn -1.06583E-07 1 -1.775815E-07
vn -5.425795E-08 1 -1.808019E-07
vn -5.425795E-08 1 -1.808019E-07
vn 0 1 -1.841413E-07
vn 1 0 0
vn 1 0 0
vn 1 0 0
vn 1 0 0
vn 5.945364E-08 1 -1.811103E-07
vn 2.943439E-08 1 -1.793286E-07
vn 2.943439E-08 1 -1.793286E-07
vn 0 1 -1.775815E-07
vn 1 0 0
vn 1 0 0
vn 1 0 0
vn 1 0 0
vn 0 0.9999999 -1.811103E-07
vn 0 0.9999999 -1.811103E-07
vn 0 0.9999999 -1.811103E-07
vn 0 0.9999999 -1.811103E-07
vn 1 0 -9.055517E-08
vn 1 9.536743E-07 -4.527776E-08
vn 1 9.536743E-07 -4.527776E-08
vn 1 1.907349E-06 -3.454406E-13
vn 0 1 -1.811103E-07
vn 0 1 -1.811103E-07
vn 0 1 -1.811103E-07
vn 0 0.9999999 -1.811103E-07
vn 1 0 9.055517E-08
vn 1 0 9.055517E-08
vn 1 0 9.055517E-08
vn 1 0 9.055517E-08
vn 0 0.9999999 -1.811103E-07
vn 0 0.9999999 -1.811103E-07
vn 0 0.9999999 -1.811103E-07
vn 0 0.9999999 -1.811103E-07
vn 1 0 0
vn 1 0 0
vn 1 0 0
vn 1 0 0
vn -5.719881E-08 1 -1.776479E-07
vn -2.88754E-08 1 -1.793624E-07
vn -2.88754E-08 1 -1.793624E-07
vn 0 1 -1.811103E-07
vn 1 0 -8.882396E-08
vn 1 0 -8.882396E-08
vn 1 0 -8.882396E-08
vn 1 0 -8.882396E-08
vn 0 1 -1.776479E-07
vn 0 1 -1.776479E-07
vn 0 1 -1.776479E-07
vn 0 1 -1.776479E-07
vn 1 0 0
vn 1 0 0
vn 1 0 0
vn 1 0 0
vn 0 1 0
vn 0 1 0
vn 0 1 0
vn 0 1 0
vn 1 0 0
vn 1 0 0
vn 1 0 0
vn 1 0 0
vn 0 1 -1.776479E-07
vn 0 1 -1.776479E-07
vn 0 1 -1.776479E-07
vn 0 1 -1.776479E-07
vn 1 0 0
vn 1 0 0
vn 1 0 0
vn 1 0 0
vn 0 1 0
vn 0 1 0
vn 0 1 0
vn 0 1 0
vn 1 0 0
vn 1 0 0
vn 1 0 0
vn 1 0 0
vn -1.018631E-07 1 -1.715997E-07
vn -5.181358E-08 1 -1.745714E-07
vn -5.181358E-08 1 -1.745714E-07
vn 0 1 -1.776479E-07
vn 1 0 0
vn 1 0 0
vn 1 0 0
vn 1 0 0
vn 0 1 -1.715997E-07
vn -1.49596E-06 1 -8.579985E-08
vn -1.49596E-06 1 -8.579985E-08
vn -2.991921E-06 1 0
vn 1 0 0
vn 1 0 0
vn 1 0 0
vn 1 0 0
vn 0 1 -1.715998E-07
vn 0 1 -1.715998E-07
vn 0 1 -1.715998E-07
vn 0 1 -1.715998E-07
vn 1 0 0
vn 1 0 0
vn 1 0 0
vn 1 0 0
vn 0 1 -1.715997E-07
vn 0 1 -1.715997E-07
vn 0 1 -1.715997E-07
vn 0 1 -1.715997E-07
vn 1 -1.400078E-12 -8.579992E-08
vn 1 -7.000372E-13 -8.579988E-08
vn 1 -7.000372E-13 -8.579988E-08
vn 1 0 -8.579985E-08
vn 0 1 0
vn 0 1 0
vn 0 1 0
vn 0 1 0
vn 1 0 0
vn 1 0 0
vn 1 0 0
vn 1 0 0
vn 0 1 -1.715998E-07
vn 0 1 -1.715998E-07
vn 0 1 -1.715998E-07
vn 0 1 -1.715998E-07
vn 1 0 0
vn 0.9999999 0 0
vn 0.9999999 0 0
vn 1 0 0
vn -0.01546454 0.9998804 0
vn -0.01546338 0.9998804 -9.205971E-08
vn -0.01546338 0.9998804 -9.205971E-08
vn -0.01546221 0.9998804 -1.841194E-07
vn 1 0 0
vn 1 0 0
vn 1 0 0
vn 1 0 0
vn -0.01546448 0.9998788 0.001762747
vn -0.0154645 0.9998788 0.001762748
vn -0.0154645 0.9998788 0.001762748
vn -0.01546452 0.9998788 0.001762749
vn 0.9999511 0 0.009893988
vn 0.9999511 0 0.009893988
vn 0.9999511 0 0.009893988
vn 0.9999511 0 0.009893988

vt 2.291232 1
vt 2.291232 2.980232E-08
vt -4.371139E-08 1
vt 0 -1.390907E-08
vt 5.960464E-08 0
vt 0 1
vt 1 0
vt 1 1
vt 2.291232 1
vt 2.291232 2.980232E-08
vt -4.371139E-08 1
vt 0 -1.390907E-08
vt 5.960464E-08 0
vt 0 1
vt 1 0
vt 1 1
vt 2.291232 1
vt 2.291232 2.980232E-08
vt -4.371139E-08 1
vt 0 -1.390907E-08
vt 5.960464E-08 0
vt 0 1
vt 1 0
vt 1 1
vt 2.291232 1
vt 2.291232 2.980232E-08
vt -4.371139E-08 1
vt 0 -1.390907E-08
vt 5.960464E-08 0
vt 0 1
vt 1 0
vt 1 1
vt 2.291232 1
vt 2.291232 2.980232E-08
vt -4.371139E-08 1
vt 0 -1.390907E-08
vt 5.960464E-08 0
vt 0 1
vt 1 0
vt 1 1
vt 2.291232 1
vt 2.291232 2.980232E-08
vt -4.371139E-08 1
vt 0 -1.390907E-08
vt 5.960464E-08 0
vt 0 1
vt 1 0
vt 1 1
vt 2.291232 1
vt 2.291232 2.980232E-08
vt -4.371139E-08 1
vt 0 -1.390907E-08
vt 5.960464E-08 0
vt 0 1
vt 1 0
vt 1 1
vt 2.291232 1
vt 2.291232 2.980232E-08
vt -4.371139E-08 1
vt 0 -1.390907E-08
vt 5.960464E-08 0
vt 0 1
vt 1 0
vt 1 1
vt 2.291232 1
vt 2.291232 2.980232E-08
vt -4.371139E-08 1
vt 0 -1.390907E-08
vt 5.960464E-08 0
vt 0 1
vt 1 0
vt 1 1
vt 2.291232 1
vt 2.291232 2.980232E-08
vt -4.371139E-08 1
vt 0 -1.390907E-08
vt 5.960464E-08 0
vt 0 1
vt 1 0
vt 1 1
vt 2.291232 1
vt 2.291232 2.980232E-08
vt -4.371139E-08 1
vt 0 -1.390907E-08
vt 5.960464E-08 0
vt 0 1
vt 1 0
vt 1 1
vt 2.291232 1
vt 2.291232 2.980232E-08
vt -4.371139E-08 1
vt 0 -1.390907E-08
vt 5.960464E-08 0
vt 0 1
vt 1 0
vt 1 1
vt 2.291232 1
vt 2.291232 2.980232E-08
vt -4.371139E-08 1
vt 0 -1.390907E-08
vt 5.960464E-08 0
vt 0 1
vt 1 0
vt 1 1
vt 2.291232 1
vt 2.291232 2.980232E-08
vt -4.371139E-08 1
vt 0 -1.390907E-08
vt 5.960464E-08 0
vt 0 1
vt 1 0
vt 1 1
vt 2.291232 1
vt 2.291232 2.980232E-08
vt -4.371139E-08 1
vt 0 -1.390907E-08
vt 5.960464E-08 0
vt 0 1
vt 1 0
vt 1 1
vt 2.291232 1
vt 2.291232 2.980232E-08
vt -4.371139E-08 1
vt 0 -1.390907E-08
vt 5.960464E-08 0
vt 0 1
vt 1 0
vt 1 1
vt 2.291232 1
vt 2.291232 2.980232E-08
vt -4.371139E-08 1
vt 0 -1.390907E-08
vt 5.960464E-08 0
vt 0 1
vt 1 0
vt 1 1
vt 2.291232 1
vt 2.291232 2.980232E-08
vt -4.371139E-08 1
vt 0 -1.390907E-08
vt 5.960464E-08 0
vt 0 1
vt 1 0
vt 1 1
vt 2.291232 1
vt 2.291232 2.980232E-08
vt -4.371139E-08 1
vt 0 -1.390907E-08
vt 5.960464E-08 0
vt 0 1
vt 1 0
vt 1 1
vt 2.291232 1
vt 2.291232 2.980232E-08
vt -4.371139E-08 1
vt 0 -1.390907E-08
vt 5.960464E-08 0
vt 0 1
vt 1 0
vt 1 1
vt 2.291232 1
vt 2.291232 2.980232E-08
vt -4.371139E-08 1
vt 0 -1.390907E-08
vt 5.960464E-08 0
vt 0 1
vt 1 0
vt 1 1
vt 2.291232 1
vt 2.291232 2.980232E-08
vt -4.371139E-08 1
vt 0 -1.390907E-08
vt 5.960464E-08 0
vt 0 1
vt 1 0
vt 1 1
vt 2.291232 1
vt 2.291232 2.980232E-08
vt -4.371139E-08 1
vt 0 -1.390907E-08
vt 5.960464E-08 0
vt 0 1
vt 1 0
vt 1 1

usemtl sn15_01_sn1540.JPG
usemap sn15_01_sn1540.JPG
f 3/3/3 1/1/1 2/2/2
f 2/2/2 4/4/4 3/3/3
f 7/7/7 5/5/5 6/6/6
f 6/6/6 8/8/8 7/7/7
f 11/11/11 9/9/9 10/10/10
f 10/10/10 12/12/12 11/11/11
f 15/15/15 13/13/13 14/14/14
f 14/14/14 16/16/16 15/15/15
f 19/19/19 17/17/17 18/18/18
f 18/18/18 20/20/20 19/19/19
f 23/23/23 21/21/21 22/22/22
f 22/22/22 24/24/24 23/23/23
f 27/27/27 25/25/25 26/26/26
f 26/26/26 28/28/28 27/27/27
f 31/31/31 29/29/29 30/30/30
f 30/30/30 32/32/32 31/31/31
f 35/35/35 33/33/33 34/34/34
f 34/34/34 36/36/36 35/35/35
f 39/39/39 37/37/37 38/38/38
f 38/38/38 40/40/40 39/39/39
f 43/43/43 41/41/41 42/42/42
f 42/42/42 44/44/44 43/43/43
f 47/47/47 45/45/45 46/46/46
f 46/46/46 48/48/48 47/47/47
f 51/51/51 49/49/49 50/50/50
f 50/50/50 52/52/52 51/51/51
f 55/55/55 53/53/53 54/54/54
f 54/54/54 56/56/56 55/55/55
f 59/59/59 57/57/57 58/58/58
f 58/58/58 60/60/60 59/59/59
f 63/63/63 61/61/61 62/62/62
f 62/62/62 64/64/64 63/63/63
f 67/67/67 65/65/65 66/66/66
f 66/66/66 68/68/68 67/67/67
f 71/71/71 69/69/69 70/70/70
f 70/70/70 72/72/72 71/71/71
f 75/75/75 73/73/73 74/74/74
f 74/74/74 76/76/76 75/75/75
f 79/79/79 77/77/77 78/78/78
f 78/78/78 80/80/80 79/79/79
f 83/83/83 81/81/81 82/82/82
f 82/82/82 84/84/84 83/83/83
f 87/87/87 85/85/85 86/86/86
f 86/86/86 88/88/88 87/87/87
f 91/91/91 89/89/89 90/90/90
f 90/90/90 92/92/92 91/91/91
f 95/95/95 93/93/93 94/94/94
f 94/94/94 96/96/96 95/95/95
f 99/99/99 97/97/97 98/98/98
f 98/98/98 100/100/100 99/99/99
f 103/103/103 101/101/101 102/102/102
f 102/102/102 104/104/104 103/103/103
f 107/107/107 105/105/105 106/106/106
f 106/106/106 108/108/108 107/107/107
f 111/111/111 109/109/109 110/110/110
f 110/110/110 112/112/112 111/111/111
f 115/115/115 113/113/113 114/114/114
f 114/114/114 116/116/116 115/115/115
f 119/119/119 117/117/117 118/118/118
f 118/118/118 120/120/120 119/119/119
f 123/123/123 121/121/121 122/122/122
f 122/122/122 124/124/124 123/123/123
f 127/127/127 125/125/125 126/126/126
f 126/126/126 128/128/128 127/127/127
f 131/131/131 129/129/129 130/130/130
f 130/130/130 132/132/132 131/131/131
f 135/135/135 133/133/133 134/134/134
f 134/134/134 136/136/136 135/135/135
f 139/139/139 137/137/137 138/138/138
f 138/138/138 140/140/140 139/139/139
f 143/143/143 141/141/141 142/142/142
f 142/142/142 144/144/144 143/143/143
f 147/147/147 145/145/145 146/146/146
f 146/146/146 148/148/148 147/147/147
f 151/151/151 149/149/149 150/150/150
f 150/150/150 152/152/152 151/151/151
f 155/155/155 153/153/153 154/154/154
f 154/154/154 156/156/156 155/155/155
f 159/159/159 157/157/157 158/158/158
f 158/158/158 160/160/160 159/159/159
f 163/163/163 161/161/161 162/162/162
f 162/162/162 164/164/164 163/163/163
f 167/167/167 165/165/165 166/166/166
f 166/166/166 168/168/168 167/167/167
f 171/171/171 169/169/169 170/170/170
f 170/170/170 172/172/172 171/171/171
f 175/175/175 173/173/173 174/174/174
f 174/174/174 176/176/176 175/175/175
f 179/179/179 177/177/177 178/178/178
f 178/178/178 180/180/180 179/179/179
f 183/183/183 181/181/181 182/182/182
f 182/182/182 184/184/184 183/183/183
