mtllib ./Box21296.mtl
g Box21296
v -3.91687 -2.713791 -6.103516E-05
v 2.499756 -2.713791 -6.103516E-05
v 2.499756 -2.713783 -27.60007
v -3.91687 -2.713783 -27.60004
v 2.499756 -2.713791 -6.103516E-05
v 2.499756 -6.713791 -6.103516E-05
v 2.499756 -6.713783 -27.60007
v 2.499756 -2.713783 -27.60007
v 2.404175 -4.807907 -6.103516E-05
v 7.404175 -4.807907 -6.103516E-05
v 7.404175 -4.807899 -27.60007
v 2.404175 -4.807899 -27.60007
v 7.404175 -4.807907 -6.103516E-05
v 7.404175 -8.807907 -6.103516E-05
v 7.404175 -8.807899 -27.60007
v 7.404175 -4.807899 -27.60007
v 7.308594 -7.042725 -6.103516E-05
v 12.30859 -7.042725 -6.103516E-05
v 12.30859 -7.042725 -27.60007
v 7.308594 -7.042725 -27.60007
v 12.30859 -7.042725 -6.103516E-05
v 12.30859 -11.04272 -6.103516E-05
v 12.30859 -11.04272 -27.60007
v 12.30859 -7.042725 -27.60007
v 12.21301 -9.136978 -6.103516E-05
v 17.21301 -9.136978 -6.103516E-05
v 17.21301 -9.136971 -27.60007
v 12.21301 -9.136971 -27.60007
v 17.21301 -9.136978 -6.103516E-05
v 17.21301 -13.13698 -6.103516E-05
v 17.21301 -13.13697 -27.60007
v 17.21301 -9.136971 -27.60007
v 17.15527 -10.93916 -6.103516E-05
v 22.15527 -10.93916 -6.103516E-05
v 22.15527 -10.93916 -27.60007
v 17.15527 -10.93916 -27.60007
v 22.15527 -10.93916 -6.103516E-05
v 22.15527 -14.93916 -6.103516E-05
v 22.15527 -14.93916 -27.60007
v 22.15527 -10.93916 -27.60007
v 22.09753 -13.09151 -6.103516E-05
v 27.09753 -13.09151 -6.103516E-05
v 27.09753 -13.09151 -27.60007
v 22.09753 -13.09151 -27.60007
v 27.09753 -13.09151 -6.103516E-05
v 27.09753 -17.09151 -6.103516E-05
v 27.09753 -17.0915 -27.60007
v 27.09753 -13.09151 -27.60007
v 27.03979 -15.53535 -6.103516E-05
v 32.03979 -15.53535 -6.103516E-05
v 32.03979 -15.53535 -27.60007
v 27.03979 -15.53535 -27.60007
v 32.03979 -15.53535 -6.103516E-05
v 32.03979 -19.53536 -6.103516E-05
v 32.03979 -19.53535 -27.60007
v 32.03979 -15.53535 -27.60007
v 31.98206 -17.83654 -6.103516E-05
v 36.98206 -17.83654 -6.103516E-05
v 36.98206 -17.83654 -27.60007
v 31.98206 -17.83654 -27.60007
v 36.98206 -17.83654 -6.103516E-05
v 36.98206 -21.83654 -6.103516E-05
v 36.98206 -21.83654 -27.60007
v 36.98206 -17.83654 -27.60007
v 36.92432 -20.7271 -6.103516E-05
v 41.92432 -20.7271 -6.103516E-05
v 41.92432 -20.7271 -27.60007
v 36.92432 -20.7271 -27.60007
v 41.92432 -20.7271 -6.103516E-05
v 41.92432 -24.7271 -6.103516E-05
v 41.92432 -24.7271 -27.60007
v 41.92432 -20.7271 -27.60007
v 40.99591 -23.05605 -6.103516E-05
v 45.99591 -23.05605 -6.103516E-05
v 45.99591 -23.05605 -27.60007
v 40.99591 -23.05605 -27.60007
v 45.99591 -23.05605 -6.103516E-05
v 45.99591 -27.05605 -6.103516E-05
v 45.99591 -27.05605 -27.60007
v 45.99591 -23.05605 -27.60007
v 46.03949 -24.77073 -6.103516E-05
v 51.03949 -24.77073 -6.103516E-05
v 51.03949 -24.77073 -27.60007
v 46.03949 -24.77073 -27.60007
v 51.03949 -24.77073 -6.103516E-05
v 51.03949 -28.77073 -6.103516E-05
v 51.03949 -28.77073 -27.60007
v 51.03949 -24.77073 -27.60007
v 51.08307 -27.09531 -6.103516E-05
v 56.08307 -27.09531 -6.103516E-05
v 56.08307 -27.0953 -27.60007
v 51.08307 -27.0953 -27.60007
v 56.08307 -27.09531 -6.103516E-05
v 56.08307 -30.57177 -6.103516E-05
v 56.08307 -30.57177 -27.60007
v 56.08307 -27.0953 -27.60007
v 56.12665 -29.44644 -6.103516E-05
v 61.12665 -29.44644 -6.103516E-05
v 61.12665 -29.44644 -27.60007
v 56.12665 -29.44644 -27.60007
v 61.12665 -29.44644 -6.103516E-05
v 61.12665 -33.11678 -6.103516E-05
v 61.12665 -33.11677 -27.60007
v 61.12665 -29.44644 -27.60007
v 61.17023 -31.92141 -6.103516E-05
v 66.17023 -31.92141 -6.103516E-05
v 66.17023 -31.9214 -27.60007
v 61.17023 -31.9214 -27.60007
v 66.17023 -31.92141 -6.103516E-05
v 66.17023 -35.66178 -6.103516E-05
v 66.17023 -35.66177 -27.60007
v 66.17023 -31.9214 -27.60007
v 66.21381 -34.71127 -6.103516E-05
v 71.21381 -34.71127 -6.103516E-05
v 71.21381 -34.71127 -27.60007
v 66.21381 -34.71127 -27.60007
v 71.21381 -34.71127 -6.103516E-05
v 71.21381 -38.20679 -6.103516E-05
v 71.21381 -38.20678 -27.60007
v 71.21381 -34.71127 -27.60007
v 71.25739 -37.61263 -6.103516E-05
v 76.25739 -37.61263 -6.103516E-05
v 76.25739 -37.61263 -27.60007
v 71.25739 -37.61263 -27.60007
v 76.25739 -37.61263 -6.103516E-05
v 76.25739 -40.75179 -6.103516E-05
v 76.25739 -40.75179 -27.60007
v 76.25739 -37.61263 -27.60007
v -6.991699 -1.168381 -6.103516E-05
v -0.5750122 -1.168381 -6.103516E-05
v -0.5750122 -1.168373 -27.60007
v -6.991699 -1.168373 -27.60004
v -0.5750122 -1.168381 -6.103516E-05
v -0.5750122 -5.168381 -6.103516E-05
v -0.5750122 -5.168373 -27.60007
v -0.5750122 -1.168373 -27.60007

vn 6.573467E-13 1 2.764274E-07
vn 0 1 2.764273E-07
vn 6.573467E-13 1 2.764274E-07
vn 1.314694E-12 1 2.764276E-07
vn 1 0 0
vn 1 0 0
vn 1 0 0
vn 1 0 0
vn 0 1 2.764273E-07
vn 0 1 2.764273E-07
vn 0 1 2.764273E-07
vn 0 1 2.764273E-07
vn 1 0 0
vn 1 0 0
vn 1 0 0
vn 1 0 0
vn 0 1 0
vn 0 1 0
vn 0 1 0
vn 0 1 0
vn 1 0 0
vn 1 0 0
vn 1 0 0
vn 1 0 0
vn 0 1 2.764273E-07
vn 0 1 2.764273E-07
vn 0 1 2.764273E-07
vn 0 1 2.764273E-07
vn 1 0 0
vn 1 0 0
vn 1 0 0
vn 1 0 0
vn 0 1 2.764273E-07
vn 0 1 2.764273E-07
vn 0 1 2.764273E-07
vn 0 1 2.764273E-07
vn 1 0 0
vn 1 0 0
vn 1 0 0
vn 1 0 0
vn 0 1 0
vn 0 1 0
vn 0 1 0
vn 0 1 0
vn 1 0 0
vn 1 0 0
vn 1 0 0
vn 1 0 0
vn 0 1 0
vn 0 1 0
vn 0 1 0
vn 0 1 0
vn 0.9999999 0 0
vn 1 0 0
vn 0.9999999 0 0
vn 1 0 0
vn 0 1 1.382136E-07
vn 0 1 1.382136E-07
vn 0 1 1.382136E-07
vn 0 1 1.382136E-07
vn 1 0 0
vn 1 0 0
vn 1 0 0
vn 1 0 0
vn 0 1 0
vn 0 1 0
vn 0 1 0
vn 0 1 0
vn 1 0 0
vn 1 0 0
vn 1 0 0
vn 1 0 0
vn 0 1 0
vn 0 1 0
vn 0 1 0
vn 0 1 0
vn 1 0 0
vn 1 0 0
vn 1 0 0
vn 1 0 0
vn 0 1 1.382136E-07
vn 0 1 1.382136E-07
vn 0 1 1.382136E-07
vn 0 1 1.382136E-07
vn 1 0 0
vn 1 0 0
vn 1 0 0
vn 1 0 0
vn 0 1 1.382136E-07
vn 0 1 1.382136E-07
vn 0 1 1.382136E-07
vn 0 1 1.382136E-07
vn 0.9999999 0 0
vn 0.9999999 0 0
vn 0.9999999 0 0
vn 0.9999999 0 0
vn 0 1 1.382136E-07
vn 0 1 1.382136E-07
vn 0 1 1.382136E-07
vn 0 1 1.382136E-07
vn 0.9999999 0 0
vn 0.9999999 0 0
vn 0.9999999 0 0
vn 0.9999999 0 0
vn 0 1 2.764273E-07
vn 0 1 2.764273E-07
vn 0 1 2.764273E-07
vn 0 1 2.764273E-07
vn 1 0 0
vn 1 0 0
vn 1 0 0
vn 1 0 0
vn 0 1 1.382136E-07
vn 0 1 1.382136E-07
vn 0 1 1.382136E-07
vn 0 1 1.382136E-07
vn 1 0 0
vn 0.9999999 0 0
vn 1 0 0
vn 1 0 0
vn 0 1 2.764273E-07
vn 0 1 2.764273E-07
vn 0 1 2.764273E-07
vn 0 1 2.764273E-07
vn 1 0 0
vn 1 0 0
vn 1 0 0
vn 1 0 0
vn 6.573404E-13 0.9999999 2.764274E-07
vn 0 1 2.764273E-07
vn 6.573404E-13 0.9999999 2.764274E-07
vn 1.314682E-12 1 2.764276E-07
vn 1 0 0
vn 1 0 0
vn 1 0 0
vn 1 0 0

vt 2.291232 2.980232E-08
vt 2.291232 1
vt -4.371139E-08 1
vt 0 -1.390907E-08
vt 0 1
vt 5.960464E-08 0
vt 1 0
vt 1 1
vt 2.291232 2.980232E-08
vt 2.291232 1
vt -4.371139E-08 1
vt 0 -1.390907E-08
vt 0 1
vt 5.960464E-08 0
vt 1 0
vt 1 1
vt 2.291232 2.980232E-08
vt 2.291232 1
vt -4.371139E-08 1
vt 0 -1.390907E-08
vt 0 1
vt 5.960464E-08 0
vt 1 0
vt 1 1
vt 2.291232 2.980232E-08
vt 2.291232 1
vt -4.371139E-08 1
vt 0 -1.390907E-08
vt 0 1
vt 5.960464E-08 0
vt 1 0
vt 1 1
vt 2.291232 2.980232E-08
vt 2.291232 1
vt -4.371139E-08 1
vt 0 -1.390907E-08
vt 0 1
vt 5.960464E-08 0
vt 1 0
vt 1 1
vt 2.291232 2.980232E-08
vt 2.291232 1
vt -4.371139E-08 1
vt 0 -1.390907E-08
vt 0 1
vt 5.960464E-08 0
vt 1 0
vt 1 1
vt 2.291232 2.980232E-08
vt 2.291232 1
vt -4.371139E-08 1
vt 0 -1.390907E-08
vt 0 1
vt 5.960464E-08 0
vt 1 0
vt 1 1
vt 2.291232 2.980232E-08
vt 2.291232 1
vt -4.371139E-08 1
vt 0 -1.390907E-08
vt 0 1
vt 5.960464E-08 0
vt 1 0
vt 1 1
vt 2.291232 2.980232E-08
vt 2.291232 1
vt -4.371139E-08 1
vt 0 -1.390907E-08
vt 0 1
vt 5.960464E-08 0
vt 1 0
vt 1 1
vt 2.291232 2.980232E-08
vt 2.291232 1
vt -4.371139E-08 1
vt 0 -1.390907E-08
vt 0 1
vt 5.960464E-08 0
vt 1 0
vt 1 1
vt 2.291232 2.980232E-08
vt 2.291232 1
vt -4.371139E-08 1
vt 0 -1.390907E-08
vt 0 1
vt 5.960464E-08 0
vt 1 0
vt 1 1
vt 2.291232 2.980232E-08
vt 2.291232 1
vt -4.371139E-08 1
vt 0 -1.390907E-08
vt 0 1
vt 5.960464E-08 0
vt 1 0
vt 1 1
vt 2.291232 2.980232E-08
vt 2.291232 1
vt -4.371139E-08 1
vt 0 -1.390907E-08
vt 0 1
vt 5.960464E-08 0
vt 1 0
vt 1 1
vt 2.291232 2.980232E-08
vt 2.291232 1
vt -4.371139E-08 1
vt 0 -1.390907E-08
vt 0 1
vt 5.960464E-08 0
vt 1 0
vt 1 1
vt 2.291232 2.980232E-08
vt 2.291232 1
vt -4.371139E-08 1
vt 0 -1.390907E-08
vt 0 1
vt 5.960464E-08 0
vt 1 0
vt 1 1
vt 2.291232 2.980232E-08
vt 2.291232 1
vt -4.371139E-08 1
vt 0 -1.390907E-08
vt 0 1
vt 5.960464E-08 0
vt 1 0
vt 1 1
vt 2.291232 2.980232E-08
vt 2.291232 1
vt -4.371139E-08 1
vt 0 -1.390907E-08
vt 0 1
vt 5.960464E-08 0
vt 1 0
vt 1 1

usemtl sn15_01_sn1540.JPG
usemap sn15_01_sn1540.JPG
f 3/3/3 1/1/1 2/2/2
f 1/1/1 3/3/3 4/4/4
f 7/7/7 5/5/5 6/6/6
f 5/5/5 7/7/7 8/8/8
f 11/11/11 9/9/9 10/10/10
f 9/9/9 11/11/11 12/12/12
f 15/15/15 13/13/13 14/14/14
f 13/13/13 15/15/15 16/16/16
f 19/19/19 17/17/17 18/18/18
f 17/17/17 19/19/19 20/20/20
f 23/23/23 21/21/21 22/22/22
f 21/21/21 23/23/23 24/24/24
f 27/27/27 25/25/25 26/26/26
f 25/25/25 27/27/27 28/28/28
f 31/31/31 29/29/29 30/30/30
f 29/29/29 31/31/31 32/32/32
f 35/35/35 33/33/33 34/34/34
f 33/33/33 35/35/35 36/36/36
f 39/39/39 37/37/37 38/38/38
f 37/37/37 39/39/39 40/40/40
f 43/43/43 41/41/41 42/42/42
f 41/41/41 43/43/43 44/44/44
f 47/47/47 45/45/45 46/46/46
f 45/45/45 47/47/47 48/48/48
f 51/51/51 49/49/49 50/50/50
f 49/49/49 51/51/51 52/52/52
f 55/55/55 53/53/53 54/54/54
f 53/53/53 55/55/55 56/56/56
f 59/59/59 57/57/57 58/58/58
f 57/57/57 59/59/59 60/60/60
f 63/63/63 61/61/61 62/62/62
f 61/61/61 63/63/63 64/64/64
f 67/67/67 65/65/65 66/66/66
f 65/65/65 67/67/67 68/68/68
f 71/71/71 69/69/69 70/70/70
f 69/69/69 71/71/71 72/72/72
f 75/75/75 73/73/73 74/74/74
f 73/73/73 75/75/75 76/76/76
f 79/79/79 77/77/77 78/78/78
f 77/77/77 79/79/79 80/80/80
f 83/83/83 81/81/81 82/82/82
f 81/81/81 83/83/83 84/84/84
f 87/87/87 85/85/85 86/86/86
f 85/85/85 87/87/87 88/88/88
f 91/91/91 89/89/89 90/90/90
f 89/89/89 91/91/91 92/92/92
f 95/95/95 93/93/93 94/94/94
f 93/93/93 95/95/95 96/96/96
f 99/99/99 97/97/97 98/98/98
f 97/97/97 99/99/99 100/100/100
f 103/103/103 101/101/101 102/102/102
f 101/101/101 103/103/103 104/104/104
f 107/107/107 105/105/105 106/106/106
f 105/105/105 107/107/107 108/108/108
f 111/111/111 109/109/109 110/110/110
f 109/109/109 111/111/111 112/112/112
f 115/115/115 113/113/113 114/114/114
f 113/113/113 115/115/115 116/116/116
f 119/119/119 117/117/117 118/118/118
f 117/117/117 119/119/119 120/120/120
f 123/123/123 121/121/121 122/122/122
f 121/121/121 123/123/123 124/124/124
f 127/127/127 125/125/125 126/126/126
f 125/125/125 127/127/127 128/128/128
f 131/131/131 129/129/129 130/130/130
f 129/129/129 131/131/131 132/132/132
f 135/135/135 133/133/133 134/134/134
f 133/133/133 135/135/135 136/136/136
