mtllib ./Box77.mtl
g Box77
v 88.12744 86.04247 -6.946167
v -88.1272 86.04247 -6.946167
v -88.1272 86.04247 6.946045
v 88.12744 86.04247 6.946045
v 94.46925 0.3791962 -8.464844
v -94.46902 0.3791962 -8.464844
v -88.1272 5.571812 -5.988159
v 88.12744 5.571812 -5.988159
v -94.46902 0.3791962 -8.464844
v -94.46902 0.3791962 8.4646
v -88.1272 5.571812 5.987915
v -88.1272 5.571812 -5.988159
v -94.46902 0.3791962 8.4646
v 94.46925 0.3791962 8.4646
v 88.12744 5.571812 5.987915
v -88.1272 5.571812 5.987915
v 94.46925 0.3791962 8.4646
v 94.46925 0.3791962 -8.464844
v 88.12744 5.571812 -5.988159
v 88.12744 5.571812 5.987915
v -88.1272 9.654099 -5.988159
v 88.12744 9.654099 -5.988159
v -88.1272 9.654099 5.987915
v -88.1272 9.654099 -5.988159
v 88.12744 9.654099 5.987915
v -88.1272 9.654099 5.987915
v 88.12744 9.654099 -5.988159
v 88.12744 9.654099 5.987915
v -90.77103 11.78194 -7.501953
v 90.77126 11.78194 -7.501953
v -90.77103 11.78194 7.501709
v -90.77103 11.78194 -7.501953
v 90.77126 11.78194 7.501709
v -90.77103 11.78194 7.501709
v 90.77126 11.78194 -7.501953
v 90.77126 11.78194 7.501709
v -88.1272 15.14689 -5.988159
v 88.12744 15.14689 -5.988159
v -88.1272 15.14689 5.987915
v -88.1272 15.14689 -5.988159
v 88.12744 15.14689 5.987915
v -88.1272 15.14689 5.987915
v 88.12744 15.14689 -5.988159
v 88.12744 15.14689 5.987915
v -88.1272 76.21842 -5.988159
v 88.12744 76.21842 -5.988159
v -88.1272 76.21842 5.987915
v -88.1272 76.21842 -5.988159
v 88.12744 76.21842 5.987915
v -88.1272 76.21842 5.987915
v 88.12744 76.21842 -5.988159
v 88.12744 76.21842 5.987915
v -90.77103 81.13689 -6.946167
v 90.77126 81.13689 -6.946167
v -90.77103 81.13689 6.946045
v -90.77103 81.13689 -6.946167
v 90.77126 81.13689 6.946045
v -90.77103 81.13689 6.946045
v 90.77126 81.13689 -6.946167
v 90.77126 81.13689 6.946045
v -88.1272 86.04247 -6.946167
v 88.12744 86.04247 -6.946167
v -88.1272 86.04247 6.946045
v -88.1272 86.04247 -6.946167
v 88.12744 86.04247 6.946045
v -88.1272 86.04247 6.946045
v 88.12744 86.04247 -6.946167
v 88.12744 86.04247 6.946045
v 94.46925 -3.088737 8.4646
v 94.46925 -3.088737 -8.464844
v -94.46902 -3.088737 8.4646
v 94.46925 -3.088737 8.4646
v -94.46902 -3.088737 -8.464844
v -94.46902 -3.088737 8.4646
v 94.46925 -3.088737 -8.464844
v -94.46902 -3.088737 -8.464844

vn 0 1 0
vn 0 1 0
vn 0 1 0
vn 0 1 0
vn 0 0.3341098 -0.9425341
vn 0 0.2000751 -0.9797806
vn 0 0.3267842 -0.945099
vn 0 0.1823121 -0.9832407
vn -0.7514902 0.6597443 0
vn -0.8861678 0.4633646 0
vn -0.7354757 0.6775512 0
vn -0.9033522 0.4288994 0
vn 0 0.3341098 0.9425341
vn 0 0.2000751 0.9797806
vn 0 0.3267842 0.945099
vn 0 0.1823121 0.9832407
vn 0.7514905 0.6597438 0
vn 0.8861679 0.4633641 0
vn 0.7354761 0.6775507 0
vn 0.9033524 0.428899 0
vn 0 -0.1455131 -0.9893563
vn 0 -0.3434998 -0.9391528
vn -0.9685563 -0.2487946 0
vn -0.8303728 -0.5572083 0
vn 0 -0.1455131 0.9893563
vn 0 -0.3434998 0.9391528
vn 0.9685565 -0.248794 0
vn 0.8303736 -0.5572072 0
vn 0 -0.1908651 -0.9816163
vn 0 0.1654665 -0.9862154
vn -0.9595367 -0.2815835 0
vn -0.9682862 0.2498437 0
vn 0 -0.1908651 0.9816163
vn 0 0.1654665 0.9862154
vn 0.9595369 -0.2815828 0
vn 0.9682863 0.249843 0
vn 0 0.0452099 -0.9989775
vn 0 0.01206045 -0.9999272
vn -0.9962577 0.08643199 0
vn -0.9997783 0.02106036 0
vn 0 0.0452099 0.9989775
vn 0 0.01206045 0.9999272
vn 0.9962577 0.08643174 0
vn 0.9997783 0.02106029 0
vn 0 -0.0075395 -0.9999716
vn 0 -0.02735909 -0.9996257
vn -0.9997836 -0.02080297 0
vn -0.9968428 -0.07940026 0
vn 0 -0.007540461 0.9999716
vn 0 -0.02736257 0.9996255
vn 0.9997836 -0.02080291 0
vn 0.9968428 -0.07940003 0
vn 0 -0.1282611 -0.9917405
vn 0 -0.06553547 -0.9978502
vn -0.9871221 -0.1599687 0
vn -0.9842706 0.1766675 0
vn 0 -0.1282772 0.9917384
vn 0 -0.06554379 0.9978497
vn 0.9871222 -0.1599682 0
vn 0.9842707 0.176667 0
vn 0 0 -1
vn 0 0 -1
vn -0.8802936 0.4744292 0
vn -0.8802936 0.4744292 0
vn 0 0 1
vn 0 0 1
vn 0.8802942 0.4744281 0
vn 0.8802942 0.4744281 0
vn 0.9999999 0 0
vn 0.9999999 0 0
vn 0 0 1
vn 0 0 1
vn -0.9999999 0 0
vn -0.9999999 0 0
vn 0 0 -1
vn 0 0 -1

vt 0.07537875 0.0005028546
vt 0.9096454 0.0004995465
vt 0.9096454 0.1069367
vt 0.07537875 0.10694
vt 0.04252276 0.03419521
vt 0.9413033 0.03419521
vt 0.921674 0.06202344
vt 0.08608262 0.06202344
vt 0.07604068 0.03119928
vt 0.1580982 0.03119928
vt 0.1580985 0.06236857
vt 0.07604101 0.06236857
vt 0.04712236 0.04146997
vt 0.9474105 0.04146997
vt 0.9286357 0.06795622
vt 0.06708781 0.06713105
vt 0.07275809 0.02643613
vt 0.16037 0.02643613
vt 0.1603699 0.07284926
vt 0.072758 0.07284926
vt 0.9203464 0.1161398
vt 0.0669436 0.1120257
vt 0.1580985 0.1174946
vt 0.07604098 0.1174946
vt 0.9301594 0.1203409
vt 0.06575089 0.1263433
vt 0.1603699 0.120521
vt 0.07275803 0.120521
vt 0.9468504 0.1622015
vt 0.04098822 0.1622015
vt 0.1580984 0.1535363
vt 0.07604092 0.1535363
vt 0.9441385 0.1563826
vt 0.04259908 0.1589452
vt 0.1603699 0.1565627
vt 0.07275797 0.1565627
vt 0.9175104 0.2191976
vt 0.07258296 0.2191976
vt 0.1580985 0.2105324
vt 0.07604098 0.2105324
vt 0.9257405 0.2133787
vt 0.06632418 0.2125015
vt 0.1603699 0.2135588
vt 0.07275803 0.2135588
vt 0.9168293 0.9375104
vt 0.07200567 0.9375104
vt 0.1580985 0.9326653
vt 0.07604098 0.9326653
vt 0.9187382 0.938225
vt 0.07304107 0.938225
vt 0.1603699 0.933821
vt 0.07275803 0.933821
vt 0.9308084 0.9746575
vt 0.05126071 0.9733797
vt 0.1580984 0.9772405
vt 0.07604092 0.9772405
vt 0.9327173 0.9806816
vt 0.05906202 0.9806816
vt 0.1603699 0.9757397
vt 0.07275797 0.9757397
vt 0.9181991 0.9967611
vt 0.07200567 0.9995005
vt 0.1580985 0.9995005
vt 0.07604101 0.9995005
vt 0.9187382 0.9995005
vt 0.07304107 0.9995005
vt 0.1603699 0.9995005
vt 0.072758 0.9995005
vt 0.07275809 0.0004995167
vt 0.16037 0.0004995167
vt 0.04196268 0.0004995167
vt 0.9474105 0.0004995167
vt 0.07604068 0.0004995167
vt 0.1580982 0.0004995167
vt 0.04252276 0.0004995167
vt 0.9413033 0.0004995167

usemtl sn15_38_sn1557.JPG
usemap sn15_38_sn1557.JPG
f 3/3/3 1/1/1 2/2/2
f 1/1/1 3/3/3 4/4/4
f 7/7/7 5/5/5 6/6/6
f 5/5/5 7/7/7 8/8/8
f 11/11/11 9/9/9 10/10/10
f 9/9/9 11/11/11 12/12/12
f 15/15/15 13/13/13 14/14/14
f 13/13/13 15/15/15 16/16/16
f 19/19/19 17/17/17 18/18/18
f 17/17/17 19/19/19 20/20/20
f 21/21/21 8/8/8 7/7/7
f 8/8/8 21/21/21 22/22/22
f 23/23/23 12/12/12 11/11/11
f 12/12/12 23/23/23 24/24/24
f 25/25/25 16/16/16 15/15/15
f 16/16/16 25/25/25 26/26/26
f 27/27/27 20/20/20 19/19/19
f 20/20/20 27/27/27 28/28/28
f 29/29/29 22/22/22 21/21/21
f 22/22/22 29/29/29 30/30/30
f 31/31/31 24/24/24 23/23/23
f 24/24/24 31/31/31 32/32/32
f 33/33/33 26/26/26 25/25/25
f 26/26/26 33/33/33 34/34/34
f 35/35/35 28/28/28 27/27/27
f 28/28/28 35/35/35 36/36/36
f 37/37/37 30/30/30 29/29/29
f 30/30/30 37/37/37 38/38/38
f 39/39/39 32/32/32 31/31/31
f 32/32/32 39/39/39 40/40/40
f 41/41/41 34/34/34 33/33/33
f 34/34/34 41/41/41 42/42/42
f 43/43/43 36/36/36 35/35/35
f 36/36/36 43/43/43 44/44/44
f 45/45/45 38/38/38 37/37/37
f 38/38/38 45/45/45 46/46/46
f 47/47/47 40/40/40 39/39/39
f 40/40/40 47/47/47 48/48/48
f 49/49/49 42/42/42 41/41/41
f 42/42/42 49/49/49 50/50/50
f 51/51/51 44/44/44 43/43/43
f 44/44/44 51/51/51 52/52/52
f 53/53/53 46/46/46 45/45/45
f 46/46/46 53/53/53 54/54/54
f 55/55/55 48/48/48 47/47/47
f 48/48/48 55/55/55 56/56/56
f 57/57/57 50/50/50 49/49/49
f 50/50/50 57/57/57 58/58/58
f 59/59/59 52/52/52 51/51/51
f 52/52/52 59/59/59 60/60/60
f 61/61/61 54/54/54 53/53/53
f 54/54/54 61/61/61 62/62/62
f 63/63/63 56/56/56 55/55/55
f 56/56/56 63/63/63 64/64/64
f 65/65/65 58/58/58 57/57/57
f 58/58/58 65/65/65 66/66/66
f 67/67/67 60/60/60 59/59/59
f 60/60/60 67/67/67 68/68/68
f 69/69/69 18/18/18 17/17/17
f 18/18/18 69/69/69 70/70/70
f 71/71/71 14/14/14 13/13/13
f 14/14/14 71/71/71 72/72/72
f 73/73/73 10/10/10 9/9/9
f 10/10/10 73/73/73 74/74/74
f 75/75/75 6/6/6 5/5/5
f 6/6/6 75/75/75 76/76/76
