mtllib ./Cylinder01.mtl
g Cylinder01
v 45.27432 1.297176 -28.5975
v 75.27431 1.297176 -28.5975
v 75.27431 -35.436 -30.31863
v 45.27432 -35.436 -30.31863
v 40.74988 -35.436 -30.31863
v 40.35595 1.297176 -28.5975
v -40.75016 -35.436 -30.31863
v -44.72568 -35.436 -30.31863
v -44.72569 1.297176 -28.5975
v -40.35623 1.297176 -28.5975
v -74.72567 1.297176 -28.5975
v -74.72569 -35.436 -30.31863
v 45.27431 38.03037 -26.8764
v 75.27431 38.03035 -26.8764
v -40.31451 5.187431 -28.41522
v -44.72568 38.03037 -26.87637
v -27.72996 38.03036 -26.8764
v -30.88274 34.98804 -27.01892
v -37.88325 21.04401 -27.67227
v -74.72569 38.03036 -26.87637
v 45.27431 74.76353 -29.05414
v 75.27431 74.76352 -29.05414
v 75.27431 54.8138 -26.03497
v 75.27431 38.03035 -26.8764
v 45.27431 54.81084 -26.11533
v 27.72968 38.03037 -26.8764
v 20.15705 45.33768 -26.534
v 15.27432 47.38143 -26.43826
v 15.27431 54.81282 -26.06152
v 15.27431 74.76353 -29.05414
v -7.00065 50.84461 -26.27597
v -14.72569 47.61118 -26.42749
v -14.72569 52.08454 -26.2179
v -4.04181 54.81041 -26.12711
v -14.72569 54.81449 -26.01639
v 7.000384 50.84461 -26.27597
v -44.72568 54.81363 -26.03943
v -14.72569 74.76353 -29.05414
v -20.15732 45.33769 -26.534
v -74.72567 54.81768 -25.92947
v -74.72567 1.297176 -6.574982
v -74.72567 1.297176 -28.5975
v -74.72569 -35.436 -30.31863
v -74.72569 -35.436 -7.589264
v -74.72569 1.297176 26.50482
v -74.72569 -35.436 26.50482
v -74.72569 1.297176 59.58459
v -74.72569 1.297176 26.50482
v -74.72569 -35.436 60.59891
v -74.72567 1.297176 81.60715
v -74.72569 -35.436 83.32828
v -74.72569 38.03037 -5.505554
v -74.72569 38.03036 -26.87637
v -74.72569 38.03036 26.50482
v -74.72569 38.03037 58.51521
v -74.72569 38.03036 79.88602
v -74.72569 54.81343 -5.015533
v -74.72567 54.81768 -25.92947
v -74.72569 54.81144 26.51361
v -74.72569 74.76353 26.50482
v -74.72569 74.76352 59.84007
v -74.72569 54.81491 58.00146
v -74.72567 54.81656 78.96945
v -74.72569 54.81491 58.00146
v -44.72569 1.297176 81.60715
v -74.72567 1.297176 81.60715
v -74.72569 -35.436 83.32828
v -44.72568 -35.436 83.32828
v -40.75016 -35.436 83.32828
v -40.35623 1.297176 81.60715
v -44.72569 1.297176 81.60715
v -44.72568 -35.436 83.32828
v 40.74989 -35.436 83.32828
v 45.27432 -35.436 83.32828
v 45.27431 1.297176 81.60715
v 40.35596 1.297176 81.60715
v 75.27431 1.297176 81.60715
v 45.27431 1.297176 81.60715
v 45.27432 -35.436 83.32828
v 75.27431 -35.436 83.32828
v -44.72568 38.03037 79.88602
v -74.72569 38.03036 79.88602
v -40.35623 1.297176 81.60715
v -40.31451 5.18742 81.42487
v -37.88326 21.04399 80.68192
v -30.88273 34.98803 80.02856
v -27.72994 38.03037 79.88602
v 40.31424 5.187412 81.42487
v 40.35596 1.297176 81.60715
v 37.88299 21.04399 80.68192
v 45.27431 38.03037 79.88602
v 30.88247 34.98803 80.02856
v 27.72967 38.03036 79.88602
v 75.27431 38.03036 79.88602
v -44.72569 54.81267 79.07498
v -74.72567 54.81656 78.96945
v -74.72569 38.03036 79.88602
v -44.72568 74.76353 82.06378
v -14.72569 54.81586 78.98846
v -14.72569 74.76353 82.06378
v -27.72994 38.03037 79.88602
v -20.15732 45.33768 79.54364
v 7.000383 50.8446 79.28561
v 15.27432 47.38141 79.44788
v 15.27431 54.8185 78.91681
v -7.000651 50.8446 79.28561
v 20.15705 45.33767 79.54364
v 45.27431 54.81955 78.88837
v 75.27431 54.82306 78.79279
v 75.27431 1.297176 59.58459
v 75.27431 1.297176 81.60715
v 75.27431 -35.436 83.32828
v 75.27431 -35.436 60.59889
v 75.27431 1.297176 26.50482
v 75.27431 -35.436 26.50482
v 75.27431 1.297176 -6.574982
v 75.27431 1.297176 26.50482
v 75.27431 -35.436 26.50482
v 75.27431 -35.436 -7.589264
v 75.27431 1.297176 -28.5975
v 75.27431 -35.436 -30.31863
v 75.27431 38.03037 58.51521
v 75.27431 38.03036 79.88602
v 75.27431 38.03036 26.50482
v 75.27431 38.03037 -5.505554
v 75.27431 38.03036 26.50482
v 75.27431 38.03035 -26.8764
v 75.27431 54.81472 58.0045
v 75.27431 54.82306 78.79279
v 75.2743 54.814 26.50079
v 75.2743 74.76353 26.50482
v 75.27431 54.81231 -5.033539
v 75.27431 54.8138 -26.03497
v 75.27431 74.76352 -29.05414
v 30.88247 34.98804 -27.01895
v 37.88299 21.044 -27.67227
v 40.31423 5.187424 -28.41525
v 75.27431 74.76353 59.84007
v 75.27431 74.76352 82.06378
v 75.27431 74.76352 82.06378
v 45.27431 74.76352 82.06378
v 15.27431 74.76352 82.06378
v -14.72569 47.61116 79.43712
v -74.72567 74.76353 82.06378
v -74.72567 74.76353 82.06378
v -74.72569 74.76353 26.50482
v -74.72567 74.76353 -6.830414
v -74.72567 74.76353 -29.05414
v -74.72567 74.76353 -29.05414
v -44.72569 74.76353 -29.05414
v 75.27431 74.76353 -6.830444

vn 1.1368E-08 0.0468033 -0.9989041
vn 7.935036E-09 0.04680302 -0.9989042
vn 2.975692E-09 0.04680358 -0.9989041
vn 5.171454E-09 0.04680359 -0.9989041
vn 0 0.04680358 -0.9989041
vn 0 0.04680294 -0.9989042
vn -2.139509E-08 0.04680358 -0.9989041
vn 0 0.04680358 -0.9989042
vn -1.901065E-08 0.04680356 -0.9989041
vn 0 0.04680368 -0.9989041
vn 1.983795E-09 0.04680358 -0.9989041
vn 5.951383E-09 0.04680359 -0.9989041
vn -4.849521E-05 0.04643952 -0.9989211
vn 2.380511E-08 0.04680275 -0.9989041
vn 1.204829E-06 0.04680321 -0.9989041
vn -0.000632105 0.04926294 -0.9987856
vn -0.0006281351 0.04890859 -0.9988031
vn -2.738102E-07 0.04680219 -0.9989042
vn -6.925324E-08 0.04680358 -0.998904
vn -7.508992E-09 0.04857395 -0.9988195
vn 0.0008879168 -0.1470235 -0.9891326
vn -7.610822E-08 -0.1496349 -0.9887413
vn 0.001732374 -0.08989584 -0.9959496
vn 0.001335347 0.0476906 -0.9988612
vn 0.0003374607 -0.05265976 -0.9986124
vn 0 0.04680582 -0.998904
vn -0.0007284946 0.04691903 -0.9988984
vn 0.001605574 0.05063057 -0.9987162
vn 9.603758E-05 -0.08185178 -0.9966445
vn -0.0008199859 -0.1470815 -0.9891241
vn 0.001064042 0.04286659 -0.9990802
vn 3.72282E-07 0.04680266 -0.9989042
vn -0.006142935 0.05334316 -0.9985573
vn -0.001336162 -0.108711 -0.9940725
vn -0.00133721 -0.1101955 -0.9939091
vn 0.000841742 0.05221236 -0.9986356
vn -0.001001969 -0.08012023 -0.9967847
vn 0.0002545314 -0.150166 -0.9886608
vn -0.001126179 0.05177142 -0.9986582
vn -0.002520433 -0.02504641 -0.9996831
vn -1 6.248916E-08 -1.850174E-07
vn -1 -1.357062E-07 4.844718E-14
vn -1 4.153954E-07 0
vn -1 2.625511E-07 -1.697245E-07
vn -0.9999999 1.412668E-07 -3.044035E-07
vn -0.9999999 0 0
vn -1 -4.835997E-08 1.842075E-07
vn -1 0 0
vn -0.9999999 1.250921E-07 1.935264E-07
vn -1 2.141386E-08 4.570246E-07
vn -0.9999999 4.153953E-07 0
vn -1 -2.742839E-07 0
vn -1 5.002159E-09 -1.713225E-07
vn -1 -9.44819E-08 -1.084218E-07
vn -1 7.548288E-08 5.789227E-08
vn -1 8.356316E-09 2.870389E-07
vn -1 3.748691E-07 -2.931449E-07
vn -1 5.158491E-07 -4.625642E-07
vn -1 0 0
vn -1 0 0
vn -1 -1.615535E-08 1.75283E-07
vn -1 0 0
vn -1 2.539745E-07 4.964749E-07
vn -1 -5.556714E-08 7.12699E-07
vn -5.796126E-09 0.04680357 0.9989042
vn -3.967589E-09 0.04680357 0.9989042
vn 2.975692E-09 0.04680358 0.9989041
vn 5.951382E-09 0.04680358 0.9989041
vn 0 0.04680358 0.9989041
vn 0 0.04680358 0.9989041
vn 0 0.04680358 0.9989041
vn 0 0.04680358 0.9989042
vn -1.890771E-08 0.04680358 0.9989042
vn -3.946163E-08 0.04680359 0.9989041
vn -1.890771E-08 0.04680358 0.9989042
vn 0 0.04680358 0.9989041
vn 1.983794E-09 0.04680358 0.9989041
vn 5.137343E-09 0.04680356 0.9989042
vn 2.975692E-09 0.04680358 0.9989041
vn 5.951383E-09 0.04680358 0.9989041
vn -3.589401E-08 0.04713321 0.9988886
vn -1.190276E-08 0.04680357 0.9989041
vn 0 0.04680471 0.998904
vn 1.315477E-06 0.04680323 0.9989042
vn -9.052712E-09 0.04680357 0.998904
vn 8.594141E-08 0.04680371 0.9989041
vn 0 0.04680331 0.9989041
vn -1.218757E-06 0.04680325 0.9989042
vn 0 0.0468048 0.998904
vn -3.97862E-08 0.04680356 0.9989041
vn 0.001080351 0.05339272 0.998573
vn -1.060596E-07 0.0468037 0.998904
vn -2.04934E-08 0.04680286 0.9989042
vn 7.919725E-09 0.05018638 0.9987399
vn -0.0002337636 -0.02936205 0.9995688
vn -0.00227511 -0.09077024 0.9958693
vn -0.001753176 0.05139681 0.9986768
vn -0.0001575129 -0.1504943 0.9886109
vn 0.001362936 -0.09026704 0.9959166
vn 0.0007912068 -0.1535313 0.9881434
vn 0.0007758058 0.05101572 0.9986976
vn -0.01490899 0.06697988 0.997643
vn 0.005379458 0.08129784 0.9966753
vn 0.003496152 0.06329366 0.9979888
vn 0.001091169 -0.1188142 0.992916
vn -0.0003260617 0.07828913 0.9969306
vn 2.996464E-07 0.04680377 0.9989041
vn 0.002068466 -0.0701872 0.9975318
vn 0.002190848 -0.0220436 0.9997546
vn 1 0 0
vn 1 0 0
vn 0.9999999 0 0
vn 0.9999999 0 0
vn 1 0 0
vn 1 0 0
vn 1 0 0
vn 1 0 0
vn 0.9999999 0 0
vn 0.9999999 0 0
vn 1 0 0
vn 1 0 0
vn 1 1.145888E-07 -6.105775E-08
vn 1 0 0
vn 1 1.668043E-07 -3.975635E-14
vn 1 0 0
vn 1 2.146177E-07 1.142007E-07
vn 1 0 0
vn 1 6.885924E-09 -2.937138E-07
vn 1 0 0
vn 1 2.812165E-07 8.652643E-08
vn 0.9999999 1.4301E-08 -1.554219E-07
vn 1 1.74771E-07 1.925857E-07
vn 1 0 0
vn 1 0 0
vn 2.698522E-07 0.04680216 -0.9989042
vn 2.014705E-07 0.04680279 -0.9989041
vn 5.683924E-06 0.04680409 -0.9989041
vn 1 1.839239E-08 -1.998868E-07
vn 1 0 0
vn 0.001581939 -0.1595564 0.9871875
vn 0.0003139526 -0.1567757 0.9876341
vn -3.96358E-08 -0.1558543 0.98778
vn -0.006440644 0.06215079 0.9980461
vn 0 -0.1532943 0.9881806
vn -0.9999999 -8.736404E-08 7.065645E-07
vn -1 3.71654E-07 -2.3523E-07
vn -1 5.063067E-07 -3.990482E-07
vn -1 0 0
vn -0.001821527 -0.1520948 -0.9883643
vn 0 -0.1494176 -0.9887742
vn 1 1.574453E-08 3.503969E-07

vt 0.2002997 0.3335
vt 0.0004995763 0.3335001
vt 0.0004995167 0.0004998446
vt 0.2002997 0.0004998147
vt 0.2304324 0.0004997849
vt 0.233056 0.3335
vt 0.7732232 0.0004996359
vt 0.7997001 0.0004995763
vt 0.7997003 0.3334998
vt 0.7705997 0.3334998
vt 0.9995004 0.3334997
vt 0.9995004 0.0004995465
vt 0.2002998 0.6665003
vt 0.0004996061 0.6665003
vt 0.7703218 0.3687665
vt 0.7997003 0.6665002
vt 0.6865087 0.6665002
vt 0.7075062 0.6389203
vt 0.7541296 0.5125123
vt 0.9995005 0.6665
vt 0.2002998 0.9995005
vt 0.0004996657 0.9995005
vt 0.0004996359 0.8186486
vt 0.0004996061 0.6665003
vt 0.2002998 0.8186218
vt 0.3171471 0.6665003
vt 0.3675809 0.7327439
vt 0.4000999 0.7512711
vt 0.4001 0.8186396
vt 0.4001 0.9995004
vt 0.5484514 0.7826662
vt 0.5999002 0.753354
vt 0.5999002 0.7939066
vt 0.5287455 0.8186177
vt 0.5999002 0.8186547
vt 0.4552044 0.7826663
vt 0.7997003 0.8186469
vt 0.5999002 0.9995003
vt 0.6360749 0.7327439
vt 0.9995005 0.8186835
vt 0.2092156 0.3334998
vt -1.441687E-06 0.3334998
vt -0.0002814978 0.0004995465
vt 0.2002997 0.0004995763
vt 0.5131506 0.3334999
vt 0.5160958 0.0004996359
vt 0.7907841 0.3334999
vt 0.5131506 0.3334999
vt 0.7997004 0.0004996955
vt 0.9966283 0.3335
vt 0.9967561 0.0004997551
vt 0.218616 0.6665002
vt 0.0002786145 0.6665001
vt 0.5099633 0.6665002
vt 0.7813838 0.6665003
vt 0.9965005 0.6665003
vt 0.2229235 0.8186451
vt 0.0004326925 0.8186836
vt 0.5087098 0.8186121
vt 0.513872 0.9995004
vt 0.7930298 0.9995004
vt 0.7768677 0.8186586
vt 0.9964324 0.8186736
vt 0.7768677 0.8186586
vt 0.7997003 0.3334998
vt 0.9995004 0.3334997
vt 0.9995004 0.0004995465
vt 0.7997001 0.0004995763
vt 0.3107873 0.0004997551
vt 0.3126042 0.3333458
vt 0.2924514 0.3333458
vt 0.2924514 0.0004997551
vt 0.6866812 0.000499934
vt 0.7075487 0.0004999638
vt 0.7075487 0.333346
vt 0.6848643 0.3333459
vt 0.0004995763 0.3335001
vt 0.2002997 0.3335
vt 0.2002996 0.0004998147
vt 0.0004995167 0.0004998446
vt 0.7997003 0.6665002
vt 0.9995005 0.6665
vt 0.7705996 0.3334998
vt 0.7703218 0.3687663
vt 0.7541296 0.5125122
vt 0.7075061 0.6389202
vt 0.6865085 0.6665002
vt 0.2333339 0.3687665
vt 0.233056 0.3335
vt 0.249526 0.5125123
vt 0.2002998 0.6665003
vt 0.2961495 0.6389203
vt 0.3171472 0.6665003
vt 0.0004996061 0.6665003
vt 0.7997003 0.8186381
vt 0.9995004 0.8186733
vt 0.9995005 0.6665
vt 0.7997003 0.9995002
vt 0.5999002 0.8186671
vt 0.5999002 0.9995003
vt 0.6865085 0.6665002
vt 0.6360748 0.7327437
vt 0.4552044 0.7826661
vt 0.4000999 0.7512711
vt 0.4000999 0.8186911
vt 0.5484514 0.7826661
vt 0.3675809 0.7327437
vt 0.2002998 0.8187007
vt 0.0004996061 0.8187326
vt 0.2092158 0.3334999
vt 0.0006792564 0.3335
vt 0.000405876 0.0004996955
vt 0.2002997 0.0004996359
vt 0.5063754 0.3334998
vt 0.5093204 0.0004995763
vt 0.7907844 0.3334998
vt 0.5063754 0.3334998
vt 0.5093204 0.0004995763
vt 0.7997003 0.0004995167
vt 0.9961663 0.3334998
vt 0.9963447 0.0004994869
vt 0.2186162 0.6665003
vt 0.0009526331 0.6665003
vt 0.5031881 0.6665002
vt 0.781384 0.6665002
vt 0.5031881 0.6665002
vt 0.995988 0.6665001
vt 0.2231056 0.8186569
vt 0.00112628 0.8187326
vt 0.5017741 0.8186435
vt 0.5070968 0.9995005
vt 0.7772346 0.8186349
vt 0.9959007 0.8186485
vt 0.9962137 0.9995003
vt 0.2961496 0.6389204
vt 0.249526 0.5125124
vt 0.2333339 0.3687666
vt 0.2069702 0.9995005
vt 0.0006067287 0.9995005
vt 0.0004996359 0.9995005
vt 0.2002998 0.9995004
vt 0.4001 0.9995003
vt 0.5999001 0.7533538
vt 0.9995004 0.9995002
vt 0.9966623 0.9995005
vt 0.513872 0.9995004
vt 0.2069699 0.9995003
vt -7.574633E-05 0.9995003
vt 0.9995005 0.9995002
vt 0.7997003 0.9995002
vt 0.7930301 0.9995004

usemtl sn15_20_sn1541.JPG
usemap sn15_20_sn1541.JPG
f 3/3/3 1/1/1 2/2/2
f 1/1/1 3/3/3 4/4/4
f 1/1/1 5/5/5 6/6/6
f 5/5/5 1/1/1 4/4/4
f 9/9/9 7/7/7 8/8/8
f 7/7/7 9/9/9 10/10/10
f 8/8/8 11/11/11 9/9/9
f 11/11/11 8/8/8 12/12/12
f 2/2/2 13/13/13 14/14/14
f 13/13/13 2/2/2 1/1/1
f 9/9/9 15/15/15 10/10/10
f 18/18/18 16/16/16 17/17/17
f 19/19/19 16/16/16 18/18/18
f 19/19/19 9/9/9 16/16/16
f 19/19/19 15/15/15 9/9/9
f 9/9/9 20/20/20 16/16/16
f 20/20/20 9/9/9 11/11/11
f 23/23/23 21/21/21 22/22/22
f 25/25/25 24/24/24 13/13/13
f 27/27/27 13/13/13 26/26/26
f 29/29/29 27/27/27 28/28/28
f 21/21/21 25/25/25 30/30/30
f 25/25/25 13/13/13 27/27/27
f 33/33/33 31/31/31 32/32/32
f 30/30/30 34/34/34 35/35/35
f 36/36/36 29/29/29 28/28/28
f 29/29/29 34/34/34 30/30/30
f 37/37/37 17/17/17 16/16/16
f 38/38/38 35/35/35 37/37/37
f 37/37/37 39/39/39 17/17/17
f 32/32/32 39/39/39 33/33/33
f 16/16/16 40/40/40 37/37/37
f 40/40/40 16/16/16 20/20/20
f 43/43/43 41/41/41 42/42/42
f 41/41/41 43/43/43 44/44/44
f 44/44/44 45/45/45 41/41/41
f 45/45/45 44/44/44 46/46/46
f 46/46/46 47/47/47 48/48/48
f 47/47/47 46/46/46 49/49/49
f 49/49/49 50/50/50 47/47/47
f 50/50/50 49/49/49 51/51/51
f 42/42/42 52/52/52 53/53/53
f 52/52/52 42/42/42 41/41/41
f 41/41/41 54/54/54 52/52/52
f 54/54/54 41/41/41 45/45/45
f 48/48/48 55/55/55 54/54/54
f 55/55/55 48/48/48 47/47/47
f 47/47/47 56/56/56 55/55/55
f 56/56/56 47/47/47 50/50/50
f 53/53/53 57/57/57 58/58/58
f 57/57/57 53/53/53 52/52/52
f 52/52/52 59/59/59 57/57/57
f 59/59/59 52/52/52 54/54/54
f 61/61/61 60/60/60 59/59/59
f 62/62/62 54/54/54 55/55/55
f 55/55/55 63/63/63 64/64/64
f 63/63/63 55/55/55 56/56/56
f 67/67/67 65/65/65 66/66/66
f 65/65/65 67/67/67 68/68/68
f 71/71/71 69/69/69 70/70/70
f 69/69/69 71/71/71 72/72/72
f 75/75/75 73/73/73 74/74/74
f 73/73/73 75/75/75 76/76/76
f 79/79/79 77/77/77 78/78/78
f 77/77/77 79/79/79 80/80/80
f 66/66/66 81/81/81 82/82/82
f 81/81/81 66/66/66 65/65/65
f 84/84/84 65/65/65 83/83/83
f 85/85/85 65/65/65 84/84/84
f 81/81/81 86/86/86 87/87/87
f 81/81/81 85/85/85 86/86/86
f 81/81/81 65/65/65 85/85/85
f 78/78/78 88/88/88 89/89/89
f 78/78/78 90/90/90 88/88/88
f 91/91/91 90/90/90 78/78/78
f 91/91/91 92/92/92 90/90/90
f 93/93/93 92/92/92 91/91/91
f 78/78/78 94/94/94 91/91/91
f 94/94/94 78/78/78 77/77/77
f 97/97/97 95/95/95 96/96/96
f 98/98/98 96/96/96 95/95/95
f 100/100/100 98/98/98 99/99/99
f 99/99/99 101/101/101 102/102/102
f 98/98/98 95/95/95 99/99/99
f 99/99/99 95/95/95 101/101/101
f 105/105/105 103/103/103 104/104/104
f 105/105/105 106/106/106 103/103/103
f 100/100/100 99/99/99 105/105/105
f 99/99/99 106/106/106 105/105/105
f 91/91/91 107/107/107 93/93/93
f 104/104/104 108/108/108 105/105/105
f 104/104/104 91/91/91 108/108/108
f 104/104/104 107/107/107 91/91/91
f 91/91/91 109/109/109 108/108/108
f 109/109/109 91/91/91 94/94/94
f 112/112/112 110/110/110 111/111/111
f 110/110/110 112/112/112 113/113/113
f 113/113/113 114/114/114 110/110/110
f 114/114/114 113/113/113 115/115/115
f 118/118/118 116/116/116 117/117/117
f 116/116/116 118/118/118 119/119/119
f 119/119/119 120/120/120 116/116/116
f 120/120/120 119/119/119 121/121/121
f 111/111/111 122/122/122 123/123/123
f 122/122/122 111/111/111 110/110/110
f 110/110/110 124/124/124 122/122/122
f 124/124/124 110/110/110 114/114/114
f 117/117/117 125/125/125 126/126/126
f 125/125/125 117/117/117 116/116/116
f 116/116/116 127/127/127 125/125/125
f 127/127/127 116/116/116 120/120/120
f 123/123/123 128/128/128 129/129/129
f 128/128/128 123/123/123 122/122/122
f 122/122/122 130/130/130 128/128/128
f 131/131/131 128/128/128 130/130/130
f 126/126/126 132/132/132 130/130/130
f 132/132/132 126/126/126 125/125/125
f 125/125/125 133/133/133 132/132/132
f 134/134/134 132/132/132 133/133/133
f 13/13/13 135/135/135 26/26/26
f 13/13/13 136/136/136 135/135/135
f 1/1/1 136/136/136 13/13/13
f 137/137/137 1/1/1 6/6/6
f 137/137/137 136/136/136 1/1/1
f 129/129/129 138/138/138 139/139/139
f 140/140/140 108/108/108 109/109/109
f 108/108/108 140/140/140 141/141/141
f 105/105/105 108/108/108 141/141/141
f 105/105/105 141/141/141 142/142/142
f 142/142/142 100/100/100 105/105/105
f 99/99/99 102/102/102 143/143/143
f 143/143/143 106/106/106 99/99/99
f 95/95/95 97/97/97 81/81/81
f 95/95/95 81/81/81 101/101/101
f 96/96/96 98/98/98 144/144/144
f 145/145/145 64/64/64 63/63/63
f 64/64/64 145/145/145 61/61/61
f 61/61/61 59/59/59 62/62/62
f 146/146/146 57/57/57 59/59/59
f 57/57/57 146/146/146 147/147/147
f 147/147/147 58/58/58 57/57/57
f 58/58/58 147/147/147 148/148/148
f 149/149/149 37/37/37 40/40/40
f 37/37/37 149/149/149 150/150/150
f 150/150/150 38/38/38 37/37/37
f 35/35/35 39/39/39 37/37/37
f 38/38/38 30/30/30 35/35/35
f 36/36/36 31/31/31 29/29/29
f 30/30/30 25/25/25 29/29/29
f 29/29/29 25/25/25 27/27/27
f 21/21/21 23/23/23 25/25/25
f 133/133/133 125/125/125 127/127/127
f 24/24/24 25/25/25 23/23/23
f 132/132/132 134/134/134 151/151/151
f 151/151/151 130/130/130 132/132/132
f 130/130/130 151/151/151 131/131/131
f 130/130/130 122/122/122 124/124/124
f 128/128/128 131/131/131 138/138/138
f 138/138/138 129/129/129 128/128/128
f 33/33/33 39/39/39 35/35/35
f 35/35/35 34/34/34 33/33/33
f 29/29/29 31/31/31 34/34/34
f 34/34/34 31/31/31 33/33/33
f 62/62/62 59/59/59 54/54/54
