mtllib ./nobl13.mtl
g nobl13
v 4.081635 10.19806 -4.081543
v 4.081635 -10.19828 -4.081543
v -4.082001 10.19806 4.082031
v -4.082001 -10.19828 4.082031
v 4.081635 10.19806 4.082031
v 4.081635 -10.19829 4.082031
v -4.082001 10.19806 -4.081543
v -4.082001 -10.19829 -4.081543

vn -0.7071041 0 -0.7071094
vn -0.7071041 0 -0.7071094
vn -0.7071041 0 -0.7071094
vn -0.7071041 0 -0.7071094
vn 0.7071042 0 -0.7071095
vn 0.7071042 0 -0.7071095
vn 0.7071042 0 -0.7071095
vn 0.7071042 0 -0.7071095

vt 0 1
vt 0 0
vt 1 1
vt 1 0
vt 0 1
vt 0 0
vt 1 1
vt 1 0

usemtl sn15_44_A1505.bmp
usemap sn15_44_A1505.bmp
f 3/3/3 1/1/1 2/2/2
f 2/2/2 4/4/4 3/3/3
f 7/7/7 5/5/5 6/6/6
f 6/6/6 8/8/8 7/7/7
