mtllib ./nobl07.mtl
g nobl07
v 4.145973 10.35856 -4.14624
v 4.145973 -10.35899 -4.14624
v -4.146217 10.35856 4.145996
v -4.146217 -10.35899 4.145996
v 4.145973 10.35856 4.145996
v 4.145973 -10.35899 4.145996
v -4.146217 10.35856 -4.14624
v -4.146217 -10.35899 -4.14624

vn -0.7071087 0 -0.7071048
vn -0.7071087 0 -0.7071048
vn -0.7071087 0 -0.7071048
vn -0.7071087 0 -0.7071048
vn 0.7071087 0 -0.7071047
vn 0.7071087 0 -0.7071047
vn 0.7071087 0 -0.7071047
vn 0.7071087 0 -0.7071047

vt 0 1
vt 0 0
vt 1 1
vt 1 0
vt 0 1
vt 0 0
vt 1 1
vt 1 0

usemtl sn15_44_A1505.bmp
usemap sn15_44_A1505.bmp
f 3/3/3 1/1/1 2/2/2
f 2/2/2 4/4/4 3/3/3
f 7/7/7 5/5/5 6/6/6
f 6/6/6 8/8/8 7/7/7
