mtllib ./Object38.mtl
g Object38
v 124.8229 7.328575 0.9990234
v 124.8229 10.56388 1.38559
v 61.78134 10.56388 1.38559
v 61.78134 7.328575 0.9990234
v 124.8229 7.328575 -0.9833984
v 61.78134 7.328575 -0.9833984
v 61.78134 10.56388 -1.369965
v 124.8229 10.56388 -1.369965
v 124.8229 7.328575 0.9990234
v 61.78134 7.328575 0.9990234
v 61.78134 7.328575 -0.9833984
v 124.8229 7.328575 -0.9833984
v 61.78134 10.56388 1.38559
v 124.8229 10.56388 1.38559
v 124.8229 10.56388 -1.369965
v 61.78134 10.56388 -1.369965
v 124.8229 10.56388 1.38559
v 124.8229 7.328575 0.9990234
v 124.8229 7.328575 -0.9833984

vn 0 -0.1186398 0.9929374
vn 0 -0.1186398 0.9929374
vn 0 -0.1186398 0.9929374
vn 0 -0.1186398 0.9929374
vn 0 -0.1186398 -0.9929374
vn 0 -0.1186398 -0.9929374
vn 0 -0.1186398 -0.9929374
vn 0.04336061 -0.1185282 -0.9920034
vn 0 -0.9999999 0
vn 0 -0.9999999 0
vn 0 -0.9999999 0
vn 0 -0.9999999 0
vn 0 1 0
vn 0 1 0
vn 0 1 0
vn 0 1 0
vn 1 0 0
vn 1 0 0
vn 1 0 0

vt 1.933792 0.9167498
vt 1.933792 0.9995008
vt 1.219382 0.9994963
vt 1.219382 0.9167454
vt 0 0.9227053
vt 1 0.9227053
vt 1 1
vt 0 1
vt 0 0.9227053
vt 1 0.9227053
vt 1 1
vt 0 1
vt 0 0.9227053
vt 1 0.9227053
vt 1 1
vt 0 1
vt 0 0.9227053
vt 1 0.9227053
vt 1 1

usemtl sn15_13_sn1503.JPG
usemap sn15_13_sn1503.JPG
f 3/3/3 1/1/1 2/2/2
f 1/1/1 3/3/3 4/4/4
f 7/7/7 5/5/5 6/6/6
f 5/5/5 7/7/7 8/8/8
f 11/11/11 9/9/9 10/10/10
f 9/9/9 11/11/11 12/12/12
f 15/15/15 13/13/13 14/14/14
f 13/13/13 15/15/15 16/16/16
f 19/19/19 17/17/17 18/18/18
f 17/17/17 19/19/19 8/8/8
