mtllib ./Object17.mtl
g Object17
v 122.7404 7.328278 0.9984436
v 122.7404 10.56358 1.38501
v 61.78094 10.56358 1.38501
v 61.78094 7.328278 0.9984436
v -3.972626 10.56358 1.38501
v -3.972626 7.328278 0.9984436
v 122.7404 7.328278 -0.9839783
v 61.78094 7.328278 -0.9839783
v 61.78094 10.56358 -1.370544
v 122.7404 10.56358 -1.370544
v 61.78094 7.328278 -0.9839783
v -3.972626 7.328278 -0.9839783
v -3.972626 10.56358 -1.370544
v 61.78094 10.56358 -1.370544
v 122.7404 7.328278 0.9984436
v 61.78094 7.328278 0.9984436
v 61.78094 7.328278 -0.9839783
v 122.7404 7.328278 -0.9839783
v 61.78094 7.328278 0.9984436
v -3.972626 7.328278 0.9984436
v -3.972626 7.328278 -0.9839783
v 61.78094 7.328278 -0.9839783
v -3.972626 10.56358 1.38501
v 61.78094 10.56358 1.38501
v -3.972626 10.56358 -1.370544
v 61.78094 10.56358 1.38501
v 122.7404 10.56358 1.38501
v 122.7404 10.56358 -1.370544
v 122.7404 10.56358 1.38501
v 122.7404 7.328278 0.9984436
v 122.7404 7.328278 -0.9839783

vn 0 -0.1186398 0.9929373
vn 0 -0.1186398 0.9929373
vn 0 -0.1186398 0.9929374
vn 0 -0.1186398 0.9929373
vn 0 -0.1186398 0.9929373
vn 0 -0.1186398 0.9929373
vn 0 -0.1186398 -0.9929373
vn 0 -0.1186398 -0.9929373
vn 0 0.6243199 -0.7811688
vn 0.04483866 -0.1185205 -0.9919387
vn 0 -0.1186398 -0.9929373
vn 0 -0.1186398 -0.9929373
vn 0 -0.1186398 -0.9929373
vn 0 0.5566912 -0.8307196
vn 0 -1 0
vn 0 -1 0
vn 0 -1 0
vn 0 -1 0
vn 0 -1 0
vn 0 -1 0
vn 0 -1 0
vn 0 -1 0
vn 0 1 0
vn 0 1 0
vn 0 1 0
vn 0 1 0
vn 0 1 0
vn 0 1 0
vn 1 0 0
vn 1 0 0
vn 1 0 0

vt 1.933792 0.9167498
vt 1.933792 0.9995008
vt 1.219382 0.9994963
vt 1.219382 0.9167454
vt 0.5049719 0.9994918
vt 0.5049719 0.9167409
vt 0 0.9227053
vt 1 0.9227053
vt 1 1
vt 0 1
vt 0 0.9227053
vt 1 0.9227053
vt 1 1
vt 0 1
vt 0 0.9227053
vt 1 0.9227053
vt 1 1
vt 0 1
vt 0 0.9227053
vt 1 0.9227053
vt 1 1
vt 0 1
vt 0 0.9227053
vt 1 0.9227053
vt 0 1
vt 0 0.9227053
vt 1 0.9227053
vt 1 1
vt 0 0.9227053
vt 1 0.9227053
vt 1 1

usemtl sn15_13_sn1503.JPG
usemap sn15_13_sn1503.JPG
f 3/3/3 1/1/1 2/2/2
f 1/1/1 3/3/3 4/4/4
f 5/5/5 4/4/4 3/3/3
f 4/4/4 5/5/5 6/6/6
f 9/9/9 7/7/7 8/8/8
f 7/7/7 9/9/9 10/10/10
f 13/13/13 11/11/11 12/12/12
f 11/11/11 13/13/13 14/14/14
f 17/17/17 15/15/15 16/16/16
f 15/15/15 17/17/17 18/18/18
f 21/21/21 19/19/19 20/20/20
f 19/19/19 21/21/21 22/22/22
f 9/9/9 23/23/23 24/24/24
f 23/23/23 9/9/9 25/25/25
f 28/28/28 26/26/26 27/27/27
f 26/26/26 28/28/28 14/14/14
f 31/31/31 29/29/29 30/30/30
f 29/29/29 31/31/31 10/10/10
