mtllib ./Object16.mtl
g Object16
v -1.08844 36.73167 -57.13016
v -1.08844 33.32632 -54.46506
v -1.08844 36.73167 96.56702
v -1.08844 33.32632 93.67752
v 59.24139 7.13176 99.88699
v 58.83011 7.13176 100.6445
v 69.31006 6.790939 106.4961
v 58.83011 7.13176 100.6445
v 59.24139 7.13176 99.88699
v 28.71704 14.81775 89.97559
v 28.71704 14.81775 92.71942
v 28.71704 14.81775 92.71942
v 28.71704 14.81775 89.97559
v -0.0002441406 34.0968 90.80978
v -0.0002441406 34.0968 92.49915
v 58.81674 4.960129 99.72473
v 58.81674 4.960129 99.72473
v 27.19336 11.95203 88.82394
v 59.24139 7.13176 99.88699
v 27.19336 11.95203 88.82394
v -0.0002441406 32.74277 90.27118
v 28.71704 14.81775 89.97559
v -0.0002441406 32.74277 90.27118
v -0.0002441406 32.74277 92.0957
v -0.0002441406 34.0968 92.49915
v -0.0002441406 32.74277 92.0957
v 27.19336 12.06497 90.67865
v 28.71704 14.81775 92.71942
v 27.19336 12.06497 90.67865
v 58.27075 4.861115 100.7241
v 58.83011 7.13176 100.6445
v 69.31006 6.790939 106.4961
v 58.27075 4.861115 100.7241
v 58.27075 4.861115 100.7241
v 58.81674 4.960129 99.72473
v -62.35986 7.131775 100.6445
v -62.77118 7.131775 99.88699
v -72.83981 6.790939 106.4961
v -62.77118 7.131775 99.88699
v -62.35986 7.131775 100.6445
v -30.90179 14.81775 89.97559
v -30.90179 14.81775 92.71942
v -30.90179 14.81775 89.97559
v -30.90179 14.81775 92.71942
v -62.3465 4.960129 99.72476
v -72.83981 6.790939 106.4961
v -62.77118 7.131775 99.88699
v -29.37811 11.95203 88.82394
v -62.3465 4.960129 99.72476
v -62.77118 7.131775 99.88699
v -29.37811 11.95203 88.82394
v -30.90179 14.81775 89.97559
v -0.0002441406 32.74277 90.27118
v -0.0002441406 34.0968 90.80978
v -29.37811 12.06497 90.67865
v -30.90179 14.81775 92.71942
v -61.80051 4.86113 100.7241
v -29.37811 12.06497 90.67865
v -62.35986 7.131775 100.6445
v -72.83981 6.790939 106.4961
v -61.80051 4.86113 100.7241
v -62.3465 4.960129 99.72476
v -61.80051 4.86113 100.7241
v -72.83981 6.790939 106.4961
v 58.83011 7.13176 -61.62231
v 59.24139 7.13176 -60.86481
v 69.31006 6.790939 -67.47388
v 59.24139 7.13176 -60.86481
v 58.83011 7.13176 -61.62231
v 28.71704 14.81775 -50.95337
v 28.71704 14.81775 -53.6972
v 28.71704 14.81775 -50.95337
v 28.71704 14.81775 -53.6972
v -0.0002441406 34.0968 -51.79208
v -0.0002441406 34.0968 -53.48141
v 58.81674 4.960129 -60.70255
v 69.31006 6.790939 -67.47388
v 59.24139 7.13176 -60.86481
v 27.19336 11.95203 -49.80173
v 58.81674 4.960129 -60.70255
v 28.71704 14.81775 -50.95337
v 59.24139 7.13176 -60.86481
v -0.0002441406 32.74277 -51.25345
v 27.19336 11.95203 -49.80173
v -0.0002441406 34.0968 -51.79208
v 28.71704 14.81775 -50.95337
v 27.19336 11.95203 -49.80173
v -0.0002441406 32.74277 -53.078
v -0.0002441406 32.74277 -51.25345
v -0.0002441406 34.0968 -53.48141
v 27.19336 12.06497 -51.65643
v -0.0002441406 32.74277 -53.078
v 28.71704 14.81775 -53.6972
v -0.0002441406 34.0968 -53.48141
v -0.0002441406 32.74277 -53.078
v 58.27075 4.861115 -61.7019
v 27.19336 12.06497 -51.65643
v 58.83011 7.13176 -61.62231
v 28.71704 14.81775 -53.6972
v 58.83011 7.13176 -61.62231
v 69.31006 6.790939 -67.47388
v 58.27075 4.861115 -61.7019
v 58.81674 4.960129 -60.70255
v 58.27075 4.861115 -61.7019
v 69.31006 6.790939 -67.47388
v -62.77118 7.131775 -60.86481
v -62.35986 7.131775 -61.62231
v -72.83981 6.790939 -67.47385
v -62.35986 7.131775 -61.62231
v -62.77118 7.131775 -60.86481
v -30.90179 14.81775 -50.95337
v -30.90179 14.81775 -50.95337
v -30.90179 14.81775 -53.6972
v -62.35986 7.131775 -61.62231
v -30.90179 14.81775 -53.6972
v -30.90179 14.81775 -50.95337
v -0.0002441406 34.0968 -51.79208
v -0.0002441406 34.0968 -51.79208
v -0.0002441406 34.0968 -53.48141
v -72.83981 6.790939 -67.47385
v -62.34653 4.960129 -60.70255
v -62.77118 7.131775 -60.86481
v -62.34653 4.960129 -60.70255
v -29.37811 11.95203 -49.80173
v -30.90179 14.81775 -50.95337
v -62.77118 7.131775 -60.86481
v -29.37811 11.95203 -49.80173
v -0.0002441406 32.74277 -51.25345
v -0.0002441406 34.0968 -51.79208
v -30.90179 14.81775 -50.95337
v -0.0002441406 32.74277 -51.25345
v -0.0002441406 34.0968 -53.48141
v -0.0002441406 34.0968 -51.79208
v -0.0002441406 32.74277 -53.078
v -29.37811 12.06497 -51.65643
v -30.90179 14.81775 -53.6972
v -0.0002441406 34.0968 -53.48141
v -29.37811 12.06497 -51.65643
v -61.80054 4.86113 -61.7019
v -62.35986 7.131775 -61.62231
v -30.90179 14.81775 -53.6972
v -29.37811 12.06497 -51.65643
v -72.83981 6.790939 -67.47385
v -62.35986 7.131775 -61.62231
v -61.80054 4.86113 -61.7019
v -61.80054 4.86113 -61.7019
v -62.34653 4.960129 -60.70255
v -72.83981 6.790939 -67.47385
v 1.162354 36.73167 -57.13019
v 1.162354 33.32632 -54.46506
v -1.08844 33.32632 -54.46506
v 1.162354 36.73167 96.56702
v 1.162354 36.73167 -57.13019
v -1.08844 36.73167 -57.13016
v -1.08844 36.73167 96.56702
v 1.162354 33.32632 93.67752
v 1.162354 36.73167 96.56702
v -1.08844 33.32632 93.67752
v 1.162354 33.32632 -54.46506
v 1.162354 36.73167 -57.13019
v 1.162354 36.73167 96.56702
v 1.162354 33.32632 93.67752

vn -0.9998272 -0.01145899 -0.0146418
vn -1 0 0
vn -0.9998087 -0.01265221 0.01491098
vn -1 0 0
vn 0.5259614 0.3289518 -0.7843184
vn -0.4196135 0.4664535 0.7786819
vn 0.6069851 -0.1772037 -0.7747051
vn 0.2379057 0.9708862 0.02794561
vn 0.2079796 0.9715931 0.1129216
vn 0.3863763 0.5661802 -0.7281163
vn -0.1615193 0.3271942 0.9310507
vn 0.5573833 0.8302553 0
vn 0.5573833 0.8302553 0
vn -7.994343E-09 0.766959 -0.6416959
vn 0 0.6886333 0.7251098
vn 0.5471454 -0.04453759 -0.8358518
vn 0.3393 0.1123687 -0.9339426
vn 0.3558204 0.1793961 -0.9171744
vn 0.3111309 0.01016627 -0.9503126
vn 0.1826606 0.3080334 -0.9336758
vn 3.470543E-08 0.36961 -0.929187
vn 0.1671891 0.289814 -0.9423671
vn -1 0 0
vn 0 0 0
vn 1 0 0
vn -1.148271E-08 -0.4329174 0.9014336
vn -0.3017898 -0.4543264 0.8381588
vn -0.2769307 -0.4134834 0.8673758
vn -0.32444 -0.2242238 0.9189464
vn -0.2841367 0.1034189 0.9531898
vn -0.32444 -0.2242238 0.9189464
vn -0.4784485 0.1482116 0.8655174
vn -0.4784485 0.1482116 0.8655174
vn 0.173589 -0.9848144 -0.002734487
vn 0.173589 -0.9848144 -0.002734487
vn 0.4196118 0.466458 0.7786803
vn -0.02494629 0.999597 0.01354549
vn -0.02494629 0.999597 0.01354549
vn -0.2008666 0.973528 0.1090678
vn -0.2286516 0.9731377 0.02686056
vn -0.3724206 0.5728356 -0.7301796
vn 0.1557575 0.3244962 0.9329747
vn -0.5293192 0.8484227 0
vn -0.5293193 0.8484228 0
vn -0.5471456 -0.04455697 -0.8358507
vn -0.5471456 -0.04455697 -0.8358507
vn -0.5471456 -0.04455697 -0.8358507
vn -0.3439085 0.1869475 -0.9202052
vn -0.3275806 0.1178083 -0.9374498
vn -0.2997272 0.01264953 -0.953941
vn -0.1721054 0.312106 -0.9343284
vn -0.1583255 0.2945515 -0.9424289
vn 1 0 0
vn 1 0 0
vn 0.285826 -0.4635619 0.8386977
vn 0.2613043 -0.4202344 0.8689781
vn 0.2738925 0.1010091 0.9564413
vn 0.3128567 -0.2300332 0.9215234
vn 0.3128567 -0.2300332 0.9215234
vn 0.4784483 0.1482117 0.8655176
vn 0.4784483 0.1482117 0.8655176
vn -0.1735821 -0.9848156 -0.002723439
vn -0.1735821 -0.9848156 -0.002723439
vn -0.1735821 -0.9848156 -0.002723439
vn 0.02494561 0.9995971 -0.01354412
vn 0.02494561 0.9995971 -0.01354412
vn 0.02494561 0.9995971 -0.01354412
vn 0.2079795 0.9715931 -0.1129216
vn 0.2379057 0.9708862 -0.0279456
vn 0.2379057 0.9708862 -0.0279456
vn 0.2473091 0.9689366 0
vn 0.5573833 0.8302553 0
vn 0.5573834 0.8302553 0
vn 0.5573834 0.8302553 0
vn 0.5573834 0.8302553 0
vn 0.5471454 -0.04453772 0.8358518
vn 0.5471454 -0.04453772 0.8358518
vn 0.5471454 -0.04453772 0.8358518
vn 0.355821 0.1793957 0.9171742
vn 0.3393008 0.1123684 0.9339423
vn 0.3393008 0.1123684 0.9339423
vn 0.3111318 0.01016599 0.9503123
vn 0.2269156 0.359986 0.9049416
vn 0.2269156 0.359986 0.9049416
vn 0.1825461 0.3080837 0.9336816
vn 0.1670801 0.2898724 0.9423683
vn 0.1670801 0.2898724 0.9423683
vn 0 0 0
vn -0.9999999 0 0
vn -0.9999999 0 0
vn -0.3016933 -0.4543828 -0.838163
vn -0.3016933 -0.4543828 -0.838163
vn -0.2768212 -0.4135261 -0.8673905
vn -0.1950685 -0.280045 -0.939959
vn -0.1950685 -0.280045 -0.939959
vn -0.2841396 0.1034066 -0.9531902
vn -0.3244411 -0.2242285 -0.9189448
vn -0.3244411 -0.2242285 -0.9189448
vn -0.331536 -0.4365373 -0.8363725
vn -0.4784496 0.1482004 -0.8655187
vn -0.4784496 0.1482004 -0.8655187
vn -0.4784496 0.1482004 -0.8655187
vn 0.1735891 -0.9848143 0.002734548
vn 0.1735891 -0.9848143 0.002734548
vn 0.1735891 -0.9848143 0.002734548
vn -0.02494633 0.9995971 -0.01354551
vn -0.02494633 0.9995971 -0.01354551
vn -0.02494633 0.9995971 -0.01354551
vn -0.2008666 0.973528 -0.1090677
vn -0.2008666 0.973528 -0.1090677
vn -0.2008666 0.973528 -0.1090677
vn -0.2373431 0.971426 0
vn -0.2373431 0.971426 0
vn -0.2373431 0.971426 0
vn -0.5293192 0.8484227 0
vn -0.5293192 0.8484227 0
vn -0.5293192 0.8484227 0
vn -0.5293193 0.8484228 0
vn -0.5293193 0.8484228 0
vn -0.5471448 -0.04453713 0.8358523
vn -0.5471448 -0.04453713 0.8358523
vn -0.5471448 -0.04453713 0.8358523
vn -0.327582 0.117815 0.9374484
vn -0.3439083 0.1869477 0.9202052
vn -0.327582 0.117815 0.9374484
vn -0.2997317 0.01266581 0.9539395
vn -0.1719973 0.3121536 0.9343324
vn -0.2108229 0.3613205 0.9082958
vn -0.1719973 0.3121536 0.9343324
vn -0.1582221 0.2946067 0.9424291
vn 1 0 0
vn 1 0 0
vn 1 0 0
vn 0.2612003 -0.4202737 -0.8689905
vn 0.2857339 -0.4636144 -0.8387001
vn 0.2612003 -0.4202737 -0.8689905
vn 0.1817522 -0.2807743 -0.9424076
vn 0.2738959 0.1009934 -0.9564421
vn 0.2738959 0.1009934 -0.9564421
vn 0.312858 -0.2300395 -0.9215215
vn 0.3193757 -0.4439021 -0.8372277
vn 0.3193757 -0.4439021 -0.8372277
vn 0.4784481 0.1481937 -0.8655207
vn 0.4784481 0.1481937 -0.8655207
vn 0.4784481 0.1481937 -0.8655207
vn -0.1735825 -0.9848155 0.002723229
vn -0.1735825 -0.9848155 0.002723229
vn -0.1735825 -0.9848155 0.002723229
vn -5.340094E-06 -0.6163167 -0.7874984
vn 0 -0.6163189 -0.7874966
vn -5.340094E-06 -0.6163167 -0.7874984
vn 0 1 0
vn 0 1 0
vn 0 1 0
vn 0 1 0
vn 0 -0.6469916 0.7624972
vn 0 -0.6469916 0.7624972
vn 0 -0.6469916 0.7624972
vn 1 0 0
vn 1 0 0
vn 1 0 0
vn 0.9999999 0 0

vt -0.7719594 1
vt -0.7719594 0.9234782
vt 1 1
vt 1 0.9234782
vt 1 0.2222222
vt 0 0.2222222
vt 0 0.0410628
vt 0 0.0410628
vt 1 0.0410628
vt 1 0.2222222
vt 0 0.2222222
vt 0 0.0410628
vt 1 0.0410628
vt 1 0.2222222
vt 0 0.2222222
vt 1 0.0410628
vt 0 0.0410628
vt 1 0.0410628
vt 0 0.2222222
vt 0 0.0410628
vt 1 0.0410628
vt 0 0.2222222
vt 0 0.0410628
vt 1 0.0410628
vt 1 0.2222222
vt 0 0.0410628
vt 1 0.0410628
vt 1 0.2222222
vt 0 0.0410628
vt 1 0.0410628
vt 1 0.2222222
vt 1 0.2222222
vt 0 0.0410628
vt 1 0.2222222
vt 0 0.2222222
vt 0 0.2222222
vt 1 0.2222222
vt 0 0.0410628
vt 1 0.0410628
vt 0 0.0410628
vt 1 0.2222222
vt 0 0.2222222
vt 1 0.0410628
vt 0 0.0410628
vt 1 0.0410628
vt 0 0.0410628
vt 1 0.2222222
vt 1 0.0410628
vt 0 0.0410628
vt 0 0.2222222
vt 0 0.0410628
vt 0 0.2222222
vt 0 0.0410628
vt 0 0.2222222
vt 1 0.0410628
vt 1 0.2222222
vt 1 0.0410628
vt 0 0.0410628
vt 1 0.2222222
vt 1 0.2222222
vt 0 0.0410628
vt 0 0.2222222
vt 1 0.2222222
vt 0 0.0410628
vt 1 0.9263769
vt 1 1
vt 0 0.9263769
vt 0 1
vt 0 0.9263769
vt 1 1
vt 1 0.9263769
vt 0 1
vt 0 0.9263769
vt 1 1
vt 1 0.9263769
vt -0.3546875 0.923815
vt 1.023632 0.923815
vt -0.3546875 1.002541
vt -0.3546875 0.923815
vt 1.023632 0.923815
vt -0.3546875 1.002541
vt 1.023632 1.002541
vt -0.3546875 0.923815
vt 1.023632 0.923815
vt -0.3546875 1.002541
vt 1.023632 1.002541
vt 1.023632 0.923815
vt 1 0.9263769
vt 1 1
vt 0 0.9263769
vt -0.6396334 0.9290777
vt 0.5073853 0.9302526
vt -0.6570858 0.9962443
vt 0.489933 0.9974191
vt 0.5073853 0.9302526
vt -0.6396334 0.9290777
vt 0.5073853 0.9302526
vt -0.6570858 0.9962443
vt 0.489933 0.9974191
vt 0.489933 0.9974191
vt -0.6570858 0.9962443
vt 0.5073853 0.9302526
vt 1 1
vt 0 1
vt 0 0.9263769
vt 1 1
vt 0 1
vt 0 0.9263769
vt 0 0.9263769
vt 1 0.9263769
vt 1 1
vt 1 1
vt 0 1
vt 0 0.9263769
vt 1 1
vt 0 1
vt 0 0.9263769
vt 0 0.9263769
vt 1 0.9263769
vt 0 0.9263769
vt 1 0.9263769
vt 1 1
vt 0 0.9263769
vt 1 0.9263769
vt 1 1
vt 0 1
vt 0 0.9263769
vt 1 0.9263769
vt 1 1
vt 0 1
vt 0 0.9263769
vt 1 1
vt 0 1
vt 0 0.9263769
vt 1 0.9263769
vt 1 1
vt 0 1
vt 0 0.9263769
vt 1 0.9263769
vt 1 1
vt 0 1
vt 0 0.9263769
vt 1 1
vt 0 1
vt 0 0.9263769
vt 1 1
vt 0 1
vt 0 0.9263769
vt -0.7719594 0.9234782
vt 1 0.9234782
vt 1 1
vt -0.7719594 0.9234782
vt 1 0.9234782
vt 1 1
vt -0.7719594 1
vt -0.7719594 0.9234782
vt 1 0.9234782
vt -0.7719594 1
vt 1.611187 0.9195318
vt 1.596522 1.004
vt 0.0603028 1.002665
vt 0.07496769 0.9181963

usemtl sn15_13_sn1503.JPG
usemap sn15_13_sn1503.JPG
f 3/3/3 1/1/1 2/2/2
f 2/2/2 4/4/4 3/3/3
f 7/7/7 5/5/5 6/6/6
f 10/10/10 8/8/8 9/9/9
f 8/8/8 10/10/10 11/11/11
f 14/14/14 12/12/12 13/13/13
f 12/12/12 14/14/14 15/15/15
f 5/5/5 7/7/7 16/16/16
f 10/10/10 17/17/17 18/18/18
f 17/17/17 10/10/10 19/19/19
f 14/14/14 20/20/20 21/21/21
f 20/20/20 14/14/14 22/22/22
f 25/25/25 23/23/23 24/24/24
f 28/28/28 26/26/26 27/27/27
f 26/26/26 28/28/28 15/15/15
f 31/31/31 29/29/29 30/30/30
f 29/29/29 31/31/31 11/11/11
f 33/33/33 32/32/32 6/6/6
f 7/7/7 34/34/34 35/35/35
f 38/38/38 36/36/36 37/37/37
f 41/41/41 39/39/39 40/40/40
f 40/40/40 42/42/42 41/41/41
f 14/14/14 43/43/43 44/44/44
f 44/44/44 15/15/15 14/14/14
f 47/47/47 45/45/45 46/46/46
f 41/41/41 48/48/48 49/49/49
f 49/49/49 50/50/50 41/41/41
f 14/14/14 21/21/21 51/51/51
f 51/51/51 52/52/52 14/14/14
f 25/25/25 24/24/24 53/53/53
f 53/53/53 54/54/54 25/25/25
f 56/56/56 55/55/55 26/26/26
f 26/26/26 15/15/15 56/56/56
f 59/59/59 57/57/57 58/58/58
f 58/58/58 42/42/42 59/59/59
f 61/61/61 36/36/36 60/60/60
f 64/64/64 62/62/62 63/63/63
f 67/67/67 65/65/65 66/66/66
f 70/70/70 68/68/68 69/69/69
f 69/69/69 71/71/71 70/70/70
f 74/74/74 72/72/72 73/73/73
f 73/73/73 75/75/75 74/74/74
f 78/78/78 76/76/76 77/77/77
f 81/81/81 79/79/79 80/80/80
f 80/80/80 82/82/82 81/81/81
f 85/85/85 83/83/83 84/84/84
f 87/87/87 86/86/86 85/85/85
f 90/90/90 88/88/88 89/89/89
f 93/93/93 91/91/91 92/92/92
f 95/95/95 94/94/94 93/93/93
f 98/98/98 96/96/96 97/97/97
f 97/97/97 99/99/99 98/98/98
f 102/102/102 100/100/100 101/101/101
f 105/105/105 103/103/103 104/104/104
f 108/108/108 106/106/106 107/107/107
f 111/111/111 109/109/109 110/110/110
f 114/114/114 112/112/112 113/113/113
f 117/117/117 115/115/115 116/116/116
f 115/115/115 118/118/118 119/119/119
f 122/122/122 120/120/120 121/121/121
f 125/125/125 123/123/123 124/124/124
f 123/123/123 125/125/125 126/126/126
f 129/129/129 127/127/127 128/128/128
f 127/127/127 129/129/129 130/130/130
f 132/132/132 131/131/131 88/88/88
f 131/131/131 132/132/132 133/133/133
f 136/136/136 134/134/134 135/135/135
f 134/134/134 136/136/136 137/137/137
f 140/140/140 138/138/138 139/139/139
f 142/142/142 140/140/140 141/141/141
f 145/145/145 143/143/143 144/144/144
f 148/148/148 146/146/146 147/147/147
f 151/151/151 149/149/149 150/150/150
f 149/149/149 151/151/151 1/1/1
f 154/154/154 152/152/152 153/153/153
f 152/152/152 154/154/154 155/155/155
f 3/3/3 156/156/156 157/157/157
f 156/156/156 3/3/3 158/158/158
f 161/161/161 159/159/159 160/160/160
f 159/159/159 161/161/161 162/162/162
