mtllib ./Object42.mtl
g Object42
v -0.0003662109 9.848557 -8.873291
v -0.0003662109 -9.848694 -8.873291
v -0.0003662109 9.848557 8.872803
v -0.0003662109 -9.848694 8.872803
v 8.872681 9.848557 -0.0002441406
v 8.872681 -9.848694 -0.0002441406
v -8.873413 9.848557 -0.0002441406
v -8.873413 -9.848694 -0.0002441406

vn -1 0 0
vn -1 0 0
vn -1 0 0
vn -1 0 0
vn 0 0 -1
vn 0 0 -1
vn 0 0 -1
vn 0 0 -1

vt 0 1
vt 0 0
vt 1 1
vt 1 0
vt 0 1
vt 0 0
vt 1 1
vt 1 0

usemtl sn15_68_kay0100.bmp
usemap sn15_68_kay0100.bmp
f 3/3/3 1/1/1 2/2/2
f 2/2/2 4/4/4 3/3/3
f 7/7/7 5/5/5 6/6/6
f 6/6/6 8/8/8 7/7/7
