mtllib ./Object12.mtl
g Object12
v 121.3329 49.65183 -9.463104
v 121.3329 52.88714 -9.076538
v 60.37349 52.88714 -9.076538
v 60.37349 49.65183 -9.463104
v -0.585968 52.88714 -9.076538
v -0.585968 49.65183 -9.463104
v -61.54543 52.88714 -9.076538
v -61.54543 49.65183 -9.463104
v -124.1673 52.88714 -9.076538
v -124.1673 49.65183 -9.463104
v 121.3329 49.65183 -11.44553
v 60.37349 49.65183 -11.44553
v 60.37349 52.88714 -11.83209
v 121.3329 52.88714 -11.83209
v 60.37349 49.65183 -11.44553
v -0.585968 49.65183 -11.44553
v -0.585968 52.88714 -11.83209
v 60.37349 52.88714 -11.83209
v -0.585968 49.65183 -11.44553
v -61.54543 49.65183 -11.44553
v -61.54543 52.88714 -11.83209
v -0.585968 52.88714 -11.83209
v -61.54543 49.65183 -11.44553
v -124.1673 49.65182 -11.44553
v -124.1673 52.88713 -11.83209
v -61.54543 52.88714 -11.83209
v 121.3329 49.65183 -9.463104
v 60.37349 49.65183 -9.463104
v 60.37349 49.65183 -11.44553
v 121.3329 49.65183 -11.44553
v 60.37349 49.65183 -9.463104
v -0.585968 49.65183 -9.463104
v -0.585968 49.65183 -11.44553
v 60.37349 49.65183 -11.44553
v -0.585968 49.65183 -9.463104
v -61.54543 49.65183 -9.463104
v -61.54543 49.65183 -11.44553
v -0.585968 49.65183 -11.44553
v -61.54543 49.65183 -9.463104
v -124.1673 49.65183 -9.463104
v -124.1673 49.65182 -11.44553
v -61.54543 49.65183 -11.44553
v -124.1673 52.88714 -9.076538
v -61.54543 52.88714 -9.076538
v -124.1673 52.88713 -11.83209
v -61.54543 52.88714 -9.076538
v -0.585968 52.88714 -9.076538
v -0.585968 52.88714 -9.076538
v 60.37349 52.88714 -9.076538
v 60.37349 52.88714 -9.076538
v 121.3329 52.88714 -9.076538
v 121.3329 52.88714 -11.83209

vn 0 -0.1186398 0.9929374
vn 0 -0.1186398 0.9929374
vn 0 -0.1186398 0.9929374
vn 0 -0.1186398 0.9929374
vn 0 -0.1186398 0.9929374
vn 0 -0.1186398 0.9929374
vn 0 -0.1186398 0.9929374
vn 0 -0.1186398 0.9929373
vn 0 -0.1186398 0.9929374
vn 0 -0.1186398 0.9929374
vn 0 -0.1186398 -0.9929374
vn 0 -0.1186398 -0.9929374
vn 0 0.5907847 -0.8068292
vn 0 -0.1186398 -0.9929374
vn 0 -0.1186398 -0.9929373
vn 0 -0.1186398 -0.9929373
vn 0 0.5907846 -0.8068293
vn 0 0.5907845 -0.8068295
vn 0 -0.1186398 -0.9929373
vn 0 -0.1186398 -0.9929373
vn -4.252687E-08 0.6027827 -0.7979054
vn 0 0.5907846 -0.8068293
vn 1.445421E-08 -0.1186398 -0.9929374
vn 1.445421E-08 -0.1186398 -0.9929374
vn 1.445421E-08 -0.1186398 -0.9929374
vn 1.187168E-08 0.5787156 -0.8155295
vn 0 -1 0
vn 0 -1 0
vn 0 -1 0
vn 0 -1 0
vn 0 -1 0
vn 0 -1 0
vn 0 -1 0
vn 0 -1 0
vn 0 -1 0
vn 0 -1 0
vn 0 -1 0
vn 0 -1 0
vn 6.091635E-08 -1 1.924261E-06
vn 0 -1 3.848522E-06
vn 6.091635E-08 -1 1.924261E-06
vn 1.218327E-07 -1 0
vn -6.091635E-08 1 -1.384367E-06
vn 0 1 0
vn -1.218327E-07 1 -2.768733E-06
vn 0 1 0
vn 0 1 0
vn 0 1 0
vn 0 1 0
vn 0 1 0
vn 0 1 0
vn 0 1 0

vt 1.933792 0.9167498
vt 1.933792 0.9995008
vt 1.219382 0.9994963
vt 1.219382 0.9167454
vt 0.5049719 0.9994918
vt 0.5049719 0.9167409
vt -0.2094379 0.9994874
vt -0.2094379 0.9167364
vt -0.9433308 0.9994828
vt -0.9433308 0.9167318
vt 0 0.9227053
vt 1 0.9227053
vt 1 1
vt 0 1
vt 0 0.9227053
vt 1 0.9227053
vt 1 1
vt 0 1
vt 0 0.9227053
vt 1 0.9227053
vt 1 1
vt 0 1
vt 0 0.9227053
vt 1 0.9227053
vt 1 1
vt 0 1
vt 0 0.9227053
vt 1 0.9227053
vt 1 1
vt 0 1
vt 0 0.9227053
vt 1 0.9227053
vt 1 1
vt 0 1
vt 0 0.9227053
vt 1 0.9227053
vt 1 1
vt 0 1
vt 0 0.9227053
vt 1 0.9227053
vt 1 1
vt 0 1
vt 0 0.9227053
vt 1 0.9227053
vt 0 1
vt 0 0.9227053
vt 1 0.9227053
vt 0 0.9227053
vt 1 0.9227053
vt 0 0.9227053
vt 1 0.9227053
vt 1 1

usemtl sn15_13_sn1503.JPG
usemap sn15_13_sn1503.JPG
f 3/3/3 1/1/1 2/2/2
f 1/1/1 3/3/3 4/4/4
f 5/5/5 4/4/4 3/3/3
f 4/4/4 5/5/5 6/6/6
f 7/7/7 6/6/6 5/5/5
f 6/6/6 7/7/7 8/8/8
f 9/9/9 8/8/8 7/7/7
f 8/8/8 9/9/9 10/10/10
f 13/13/13 11/11/11 12/12/12
f 11/11/11 13/13/13 14/14/14
f 17/17/17 15/15/15 16/16/16
f 15/15/15 17/17/17 18/18/18
f 21/21/21 19/19/19 20/20/20
f 19/19/19 21/21/21 22/22/22
f 25/25/25 23/23/23 24/24/24
f 23/23/23 25/25/25 26/26/26
f 29/29/29 27/27/27 28/28/28
f 27/27/27 29/29/29 30/30/30
f 33/33/33 31/31/31 32/32/32
f 31/31/31 33/33/33 34/34/34
f 37/37/37 35/35/35 36/36/36
f 35/35/35 37/37/37 38/38/38
f 41/41/41 39/39/39 40/40/40
f 39/39/39 41/41/41 42/42/42
f 21/21/21 43/43/43 44/44/44
f 43/43/43 21/21/21 45/45/45
f 17/17/17 46/46/46 47/47/47
f 46/46/46 17/17/17 26/26/26
f 13/13/13 48/48/48 49/49/49
f 48/48/48 13/13/13 22/22/22
f 52/52/52 50/50/50 51/51/51
f 50/50/50 52/52/52 18/18/18
