mtllib ./Object03.mtl
g Object03
v -12.71068 10.09836 2.235992
v -12.41402 21.31056 4.766052
v -12.41402 21.31056 0.7060852
v -12.71068 10.09836 0.7086487
v -12.41402 21.31056 0.7060852
v -12.41402 21.31056 -3.353912
v -12.71068 10.09836 -0.8187256
v -12.71068 11.6655 -3.50119
v -8.458496 21.31056 4.766052
v -8.161835 11.6655 4.918457
v -8.161835 10.00826 2.235992
v -8.458496 21.31056 0.7060852
v -8.161835 10.00826 2.235992
v -8.161835 10.00826 0.7086487
v -8.458496 21.31056 4.766052
v -8.458496 21.31056 -3.353912
v -8.161835 10.00826 0.7086487
v -8.161835 10.00826 -0.8187256
v -8.458496 21.31056 0.7060852
v -8.161835 10.00826 -0.8187256
v -8.161835 11.6655 -3.50119
v 12.06299 -22.59987 66.39619
v 7.51416 -18.96548 71.31522
v 7.51416 -22.59987 66.39619
v 12.06299 -18.96548 71.31522
v -8.161835 10.00826 0.7086487
v -12.71068 10.09836 2.235992
v -12.71068 10.09836 0.7086487
v -8.161835 10.00826 2.235992
v -8.161835 10.00826 -0.8187256
v -12.71068 10.09836 0.7086487
v -12.71068 10.09836 -0.8187256
v -8.161835 10.00826 0.7086487
v 12.76964 -19.38417 -71.31491
v 6.439468 -22.93623 -67.3277
v 8.22081 -19.38417 -71.31491
v 10.98831 -22.93623 -67.3277
v -8.458496 21.31056 -3.353912
v -12.71068 11.6655 -3.50119
v -12.41402 21.31056 -3.353912
v -12.71068 11.6655 -3.50119
v -8.161835 11.6655 -3.50119
v -8.475128 22.93604 0.7060852
v -12.3974 22.93604 -3.523499
v -12.3974 22.93604 0.7060852
v -8.475128 22.93604 -3.523499
v -8.475128 22.93604 4.935638
v -12.3974 22.93604 4.935638
v -8.161835 11.6655 4.918457
v -12.41402 21.31056 4.766052
v -12.71068 11.6655 4.918457
v -10.93393 -8.945358 30.06122
v -12.71068 11.6655 4.918457
v -12.71068 10.09836 2.235992
v -10.93393 -8.945358 30.06122
v -10.93393 -5.584671 31.70271
v -10.93393 -5.037598 -32.83771
v -12.71068 10.09836 -0.8187256
v -12.71068 11.6655 -3.50119
v -12.71068 10.09836 -0.8187256
v -10.93393 -5.037598 -32.83771
v -10.93393 -8.945358 -30.9866
v -6.385086 -5.584671 31.70271
v -8.161835 10.00826 2.235992
v -8.161835 11.6655 4.918457
v -8.161835 10.00826 2.235992
v -6.385086 -8.945358 30.06122
v -6.385086 -8.945358 -30.9866
v -8.161835 11.6655 -3.50119
v -8.161835 10.00826 -0.8187256
v -6.385086 -5.037598 -32.83771
v -6.385086 -8.945358 30.06122
v -12.71068 10.09836 2.235992
v -8.161835 10.00826 2.235992
v -10.93393 -8.945358 30.06122
v -10.93393 -5.584671 31.70271
v -8.161835 11.6655 4.918457
v -12.71068 11.6655 4.918457
v -6.385086 -5.584671 31.70271
v -10.93393 -8.945358 -30.9866
v -12.71068 10.09836 -0.8187256
v -6.385086 -8.945358 -30.9866
v -6.385086 -5.037598 -32.83771
v -12.71068 11.6655 -3.50119
v -8.161835 11.6655 -3.50119
v -10.93393 -5.037598 -32.83771
v 7.51416 -22.59987 66.39619
v -10.93393 -8.945358 30.06122
v 7.51416 -18.96548 71.31522
v -10.93393 -8.945358 30.06122
v -6.385086 -8.945358 30.06122
v 7.51416 -22.59987 66.39619
v 12.06299 -18.96548 71.31522
v -6.385086 -8.945358 30.06122
v -6.385086 -5.584671 31.70271
v -6.385086 -8.945358 30.06122
v 12.06299 -22.59987 66.39619
v -6.385086 -5.584671 31.70271
v 12.06299 -18.96548 71.31522
v 8.22081 -19.38417 -71.31491
v -10.93393 -8.945358 -30.9866
v -10.93393 -5.037598 -32.83771
v -10.93393 -8.945358 -30.9866
v 8.22081 -19.38417 -71.31491
v 6.439468 -22.93623 -67.3277
v -10.93393 -5.037598 -32.83771
v 8.22081 -19.38417 -71.31491
v 10.98831 -22.93623 -67.3277
v -6.385086 -8.945358 -30.9866
v 12.76964 -19.38417 -71.31491
v -6.385086 -8.945358 -30.9866
v -10.93393 -8.945358 -30.9866
v 10.98831 -22.93623 -67.3277
v -12.77002 21.77182 5.485474
v -12.41402 21.31056 0.7060852
v -12.41402 21.31056 4.766052
v -12.77002 21.77182 0.7060852
v -12.41402 21.31056 -3.353912
v -12.77002 21.77182 -4.073334
v -8.102509 21.77182 0.7060852
v -8.458496 21.31056 4.766052
v -8.458496 21.31056 0.7060852
v -8.102509 21.77182 5.485474
v -8.102509 21.77182 -4.073334
v -8.458496 21.31056 -3.353912
v -12.77002 21.77182 -4.073334
v -8.458496 21.31056 -3.353912
v -12.41402 21.31056 -3.353912
v -8.102509 21.77182 -4.073334
v -8.102509 21.77182 5.485474
v -12.41402 21.31056 4.766052
v -8.458496 21.31056 4.766052
v -12.77002 21.77182 5.485474
v -12.3974 22.93604 -3.523499
v -8.102509 21.77182 -4.073334
v -12.77002 21.77182 -4.073334
v -8.102509 21.77182 -4.073334
v -8.475128 22.93604 -3.523499
v -12.3974 22.93604 0.7060852
v -12.77002 21.77182 -4.073334
v -12.77002 21.77182 0.7060852
v -12.3974 22.93604 -3.523499
v -8.475128 22.93604 -3.523499
v -8.102509 21.77182 -4.073334
v -8.475128 22.93604 0.7060852
v -12.3974 22.93604 4.935638
v -12.77002 21.77182 0.7060852
v -12.77002 21.77182 5.485474
v -12.3974 22.93604 4.935638
v -8.102509 21.77182 5.485474
v -8.475128 22.93604 4.935638
v -8.475128 22.93604 4.935638
v -12.77002 21.77182 5.485474
v -8.102509 21.77182 5.485474
v -12.3974 22.93604 4.935638
v -8.458496 21.31056 4.766052
v -12.71068 10.09836 0.7086487
v -12.71068 10.09836 -0.8187256
v -12.41402 21.31056 0.7060852
v -12.71068 10.09836 0.7086487
v -12.71068 11.6655 4.918457
v -12.41402 21.31056 4.766052
v -12.71068 10.09836 2.235992

vn -0.9996502 0.02644954 0
vn -0.9996502 0.02644954 0
vn -0.9996502 0.02644954 0
vn -0.9996502 0.02644954 0
vn -0.9996502 0.02644954 0
vn -0.9996043 0.02763231 0.005236338
vn -0.9993773 0.0304669 0.01779925
vn -0.9993773 0.0304669 0.01779925
vn 0.9993596 0.03044097 -0.0188066
vn 0.9993596 0.03044097 -0.0188066
vn 0.9993596 0.03044097 -0.0188066
vn 0.9996557 0.02623882 0
vn 0.9996557 0.02623882 0
vn 0.9996557 0.02623882 0
vn 0.9996557 0.02623882 0
vn 0.9996073 0.02747244 0.005505367
vn 0.9996557 0.02623883 0
vn 0.9996557 0.02623882 0
vn 0.9996557 0.02623883 0
vn 0.9993591 0.03045086 0.01881271
vn 0.9993591 0.03045086 0.01881271
vn 0 -0.9717467 -0.2360262
vn 0 0.897833 0.4403362
vn 0 -0.8042861 0.5942423
vn 0 -0.8042861 0.5942423
vn -0.01980404 -0.9998039 0
vn -0.01980404 -0.9998039 0
vn -0.01980404 -0.9998039 0
vn -0.01980404 -0.9998039 0
vn -0.008905889 -0.8578895 0.5137571
vn -0.01980404 -0.9998039 0
vn -0.01980404 -0.9998039 0
vn -0.01980404 -0.9998039 0
vn 0 0.8875974 -0.4606199
vn 0 -0.9680941 0.2505872
vn 0 -0.7466774 -0.6651863
vn 0 -0.7466774 -0.6651863
vn 0 0.01526798 -0.9998835
vn 0 0.01526798 -0.9998834
vn 0 0.01526798 -0.9998834
vn 0 0.01526798 -0.9998834
vn 0 0.01526798 -0.9998834
vn 0 1 0
vn 0 1 0
vn 0 1 0
vn 0 1 0
vn 0 1 0
vn 0 1 0
vn 0 0.01579935 0.9998752
vn 0 0.01579935 0.9998752
vn 0 0.01579935 0.9998751
vn -0.9983052 -0.05024798 0.02935565
vn -0.9985083 -0.03601135 0.04104054
vn -0.9983052 -0.05024798 0.02935565
vn -0.9984268 -0.02460868 0.05038217
vn -0.5297397 0.7936256 0.2992227
vn -0.9981565 -0.05240454 -0.03061557
vn -0.9981565 -0.05240454 -0.03061557
vn -0.9981565 -0.05240454 -0.03061557
vn -0.9987441 -0.02144966 -0.04528114
vn -0.9987441 -0.02144966 -0.04528114
vn -0.9987441 -0.02144966 -0.04528114
vn 0.998509 0.03563247 -0.04135124
vn 0.9980962 0.05247016 -0.03241634
vn 0.9980962 0.05247016 -0.03241634
vn 0.9985813 0.02336938 -0.04784486
vn 0.9985813 0.02336938 -0.04784486
vn 0.9986631 0.03264747 0.04007509
vn 0.9986631 0.03264747 0.04007509
vn 0.9984603 0.04719184 0.02915537
vn 0.6129971 0.7509452 -0.2455926
vn -0.008181377 -0.8260709 -0.5635069
vn -0.008181377 -0.8260709 -0.5635069
vn -0.01637825 -0.8268534 -0.562179
vn 0 -0.8252326 -0.5647931
vn -0.7513682 0.2600873 0.6064655
vn 0 0.8407254 0.5414618
vn 0 0.8407254 0.5414618
vn 0 0.8407254 0.5414618
vn -0.008382396 -0.8463741 0.5325229
vn -0.01675615 -0.8459378 0.5330182
vn 0 -0.8467511 0.5319895
vn 0.7624415 0.6467457 0.0200757
vn 0 0.8690158 -0.4947844
vn 0 0.8690158 -0.4947844
vn 0 0.8690158 -0.4947844
vn -0.894665 -0.3056075 0.3258505
vn -0.9024298 -0.1890879 0.3871257
vn -0.8807057 -0.3809612 0.281471
vn 0 -0.9360842 -0.351776
vn 0 -0.9360842 -0.351776
vn 0 -0.9360842 -0.351776
vn 0.8946652 0.3056071 -0.3258503
vn 0.9136589 0.1783986 -0.3652415
vn 0.9136589 0.1783986 -0.3652415
vn 0.8701423 0.3963527 -0.292843
vn 0.8701423 0.3963527 -0.292843
vn 0 0.9474083 0.3200273
vn 0 0.9474083 0.3200273
vn -0.9056638 -0.1815119 -0.3831797
vn -0.9056638 -0.1815119 -0.3831797
vn -0.9056638 -0.1815119 -0.3831797
vn -0.9052809 -0.02221006 -0.4242325
vn -0.9052809 -0.02221006 -0.4242325
vn -0.9052809 -0.02221006 -0.4242325
vn 0 0.936987 -0.3493641
vn 0 0.936987 -0.3493641
vn 0.9085453 0.1004345 0.4055345
vn 0.9128082 0.1748302 0.369074
vn 0.8999574 0.03636249 0.4344588
vn 0 -0.9332292 0.3592816
vn 0 -0.9332292 0.3592816
vn 0 -0.9332292 0.3592816
vn -0.7916368 -0.610992 0
vn -0.7916368 -0.610992 0
vn -0.7916366 -0.610992 0
vn -0.7916367 -0.610992 0
vn -0.7916367 -0.610992 0
vn -0.7916368 -0.610992 0
vn 0.9999159 0.01297042 0
vn 0.7916494 -0.6109756 0
vn 0.7916494 -0.6109756 0
vn 0.7916494 -0.6109756 0
vn 0.7916495 -0.6109756 0
vn 0.7916494 -0.6109756 0
vn 0 -0.841831 -0.539741
vn 0 -0.841831 -0.539741
vn 0 -0.8418311 -0.5397411
vn 0 -0.8418311 -0.5397411
vn 0 -0.841831 0.539741
vn 0 -0.841831 0.539741
vn 0 -0.8418311 0.5397411
vn 0 -0.8418311 0.5397411
vn 0 0.4270488 -0.9042286
vn 0 0.4270488 -0.9042286
vn 0 0.4270488 -0.9042286
vn 0 0.4270488 -0.9042285
vn 0 0.4270488 -0.9042285
vn -0.9524073 0.3048283 0
vn -0.9524074 0.3048283 0
vn -0.9524073 0.3048283 0
vn -0.9524073 0.3048283 0
vn 0.9524074 0.3048283 0
vn 0.9524073 0.3048283 0
vn 0.9524074 0.3048283 0
vn -0.9524073 0.3048283 0
vn -0.9524074 0.3048283 0
vn -0.9524073 0.3048283 0
vn -0.9524074 0.3048283 0
vn 0.9524074 0.3048283 0
vn 0.9524074 0.3048283 0
vn 0 0.4270488 0.9042286
vn 0 0.4270488 0.9042286
vn 0 0.4270488 0.9042286
vn 0 0.4270488 0.9042285
vn 0 0.01579935 0.9998751
vn -0.9996502 0.02644954 0
vn -0.9996502 0.02644954 0
vn -0.9996502 0.02644954 0
vn -0.9996502 0.02644954 0
vn -0.9993777 0.03045753 -0.01779378
vn -0.9993777 0.03045753 -0.01779378
vn -0.9993777 0.03045753 -0.01779378

vt 0 0.9251208
vt 0 1
vt 1 1
vt 0 0.9251208
vt 0 1
vt 1 1
vt 0 0.9251208
vt 1 0.9251208
vt 1 1
vt 0 0.9251208
vt 0 1
vt 1 1
vt 0 0.9251208
vt 0 1
vt 1 0.9251208
vt 1 1
vt 0 0.9251208
vt 0 1
vt 1 0.9251208
vt 0 0.9251208
vt 0 1
vt 1 1
vt 0 0.9178744
vt 0 1
vt 1 0.9178744
vt 1 1
vt 0 0.9251208
vt 0 1
vt 1 0.9251208
vt 1 1
vt 0 0.9251208
vt 0 1
vt 1 0.9251208
vt 1 1
vt 0 0.9178744
vt 0 1
vt 1 0.9178744
vt 0.6216897 0.9265791
vt 0.04464146 0.9931327
vt 0.6042374 0.9944394
vt 0.04464146 0.9931327
vt 0.06209388 0.9252723
vt 0.919749 0.4999999
vt 0.08025411 0.2789822
vt 0.0802542 0.5000001
vt 0.9197489 0.2789821
vt 0.9197491 0.7210178
vt 0.08025432 0.721018
vt 0.04464146 0.9931327
vt 0.6216897 0.9265791
vt 0.06209388 0.9252723
vt 1 1
vt 0 0.9178744
vt 0 1
vt 1 1
vt 1 0.9178744
vt 1 1
vt 0 0.9178744
vt 0 1
vt 0 0.9178744
vt 1 1
vt 1 0.9178744
vt 0 0.9178744
vt 1 1
vt 1 0.9178744
vt 1 1
vt 0 1
vt 0 0.9178744
vt 1 1
vt 1 0.9178744
vt 0 1
vt 1 1
vt 0 0.9178744
vt 0 1
vt 1 0.9178744
vt 0 0.9178744
vt 1 1
vt 1 0.9178744
vt 0 1
vt 0 0.9178744
vt 1 0.9178744
vt 0 1
vt 1 1
vt 0 0.9178744
vt 0 1
vt 1 0.9178744
vt 1 1
vt 0 1
vt 1 0.9178744
vt 0 0.9178744
vt 0 1
vt 1 0.9178744
vt 0 0.9178744
vt 1 1
vt 1 0.9178744
vt 1 1
vt 0 1
vt 1 1
vt 0 1
vt 1 1
vt 0 0.9178744
vt 0 1
vt 0 0.9178744
vt 1 1
vt 1 0.9178744
vt 0 0.9178744
vt 1 0.9178744
vt 0 0.9178744
vt 1 0.9178744
vt 0 1
vt 1 1
vt 1 0.9178744
vt 0 1
vt 0.2502497 0.9095353
vt 0.5 0.8738911
vt 0.2878439 0.8738911
vt 0.4999999 0.9095353
vt 0.7121562 0.873891
vt 0.7497501 0.9095353
vt 0.4999999 0.9095353
vt 0.712156 0.8738911
vt 0.4999999 0.8738911
vt 0.7497501 0.9095353
vt 0.2502497 0.9095353
vt 0.2878437 0.873891
vt 0.9994988 0.0004996061
vt 0.07669139 0.07568762
vt 0.9233025 0.07568771
vt 0.000498414 0.0004995167
vt 0.0004979372 0.9995003
vt 0.9233022 0.9243122
vt 0.076691 0.9243121
vt 0.9994984 0.9995005
vt 0.08025399 0.9995004
vt 0.9995016 0.9095353
vt 0.0005011559 0.9095353
vt 0.9995016 0.9095353
vt 0.9197488 0.9995004
vt 0.4999999 0.9995004
vt 0.7497501 0.9095353
vt 0.4999999 0.9095353
vt 0.7210178 0.9995004
vt 0.2789821 0.9995004
vt 0.2502497 0.9095353
vt 0.4999999 0.9995004
vt 0.2789821 0.9995004
vt 0.4999999 0.9095353
vt 0.2502497 0.9095353
vt 0.2789821 0.9995004
vt 0.7497501 0.9095353
vt 0.7210178 0.9995004
vt 0.0802508 0.9995005
vt 0.9994984 0.9095354
vt 0.0004979372 0.9095354
vt 0.9197456 0.9995005
vt 0.6042374 0.9944394
vt 0 0.9251208
vt 1 0.9251208
vt 1 1
vt 1 0.9251208
vt 0 0.9251208
vt 1 1
vt 1 0.9251208

usemtl sn15_13_sn1503.JPG
usemap sn15_13_sn1503.JPG
f 3/3/3 1/1/1 2/2/2
f 6/6/6 4/4/4 5/5/5
f 8/8/8 7/7/7 6/6/6
f 11/11/11 9/9/9 10/10/10
f 14/14/14 12/12/12 13/13/13
f 15/15/15 13/13/13 12/12/12
f 18/18/18 16/16/16 17/17/17
f 19/19/19 17/17/17 16/16/16
f 21/21/21 16/16/16 20/20/20
f 24/24/24 22/22/22 23/23/23
f 25/25/25 23/23/23 22/22/22
f 28/28/28 26/26/26 27/27/27
f 29/29/29 27/27/27 26/26/26
f 32/32/32 30/30/30 31/31/31
f 33/33/33 31/31/31 30/30/30
f 36/36/36 34/34/34 35/35/35
f 37/37/37 35/35/35 34/34/34
f 40/40/40 38/38/38 39/39/39
f 42/42/42 41/41/41 38/38/38
f 45/45/45 43/43/43 44/44/44
f 46/46/46 44/44/44 43/43/43
f 48/48/48 47/47/47 45/45/45
f 43/43/43 45/45/45 47/47/47
f 51/51/51 49/49/49 50/50/50
f 54/54/54 52/52/52 53/53/53
f 56/56/56 53/53/53 55/55/55
f 59/59/59 57/57/57 58/58/58
f 62/62/62 60/60/60 61/61/61
f 65/65/65 63/63/63 64/64/64
f 67/67/67 66/66/66 63/63/63
f 70/70/70 68/68/68 69/69/69
f 71/71/71 69/69/69 68/68/68
f 74/74/74 72/72/72 73/73/73
f 75/75/75 73/73/73 72/72/72
f 78/78/78 76/76/76 77/77/77
f 79/79/79 77/77/77 76/76/76
f 81/81/81 80/80/80 30/30/30
f 82/82/82 30/30/30 80/80/80
f 85/85/85 83/83/83 84/84/84
f 86/86/86 84/84/84 83/83/83
f 88/88/88 87/87/87 76/76/76
f 89/89/89 76/76/76 87/87/87
f 91/91/91 22/22/22 90/90/90
f 92/92/92 90/90/90 22/22/22
f 95/95/95 93/93/93 94/94/94
f 97/97/97 96/96/96 93/93/93
f 56/56/56 23/23/23 98/98/98
f 99/99/99 98/98/98 23/23/23
f 102/102/102 100/100/100 101/101/101
f 105/105/105 103/103/103 104/104/104
f 71/71/71 34/34/34 106/106/106
f 107/107/107 106/106/106 34/34/34
f 109/109/109 108/108/108 83/83/83
f 110/110/110 83/83/83 108/108/108
f 112/112/112 35/35/35 111/111/111
f 113/113/113 111/111/111 35/35/35
f 116/116/116 114/114/114 115/115/115
f 117/117/117 115/115/115 114/114/114
f 115/115/115 117/117/117 118/118/118
f 119/119/119 118/118/118 117/117/117
f 122/122/122 120/120/120 121/121/121
f 123/123/123 121/121/121 120/120/120
f 125/125/125 124/124/124 122/122/122
f 120/120/120 122/122/122 124/124/124
f 128/128/128 126/126/126 127/127/127
f 129/129/129 127/127/127 126/126/126
f 132/132/132 130/130/130 131/131/131
f 133/133/133 131/131/131 130/130/130
f 136/136/136 134/134/134 135/135/135
f 138/138/138 137/137/137 134/134/134
f 141/141/141 139/139/139 140/140/140
f 142/142/142 140/140/140 139/139/139
f 144/144/144 143/143/143 120/120/120
f 145/145/145 120/120/120 143/143/143
f 148/148/148 146/146/146 147/147/147
f 139/139/139 147/147/147 149/149/149
f 120/120/120 145/145/145 150/150/150
f 151/151/151 150/150/150 145/145/145
f 154/154/154 152/152/152 153/153/153
f 155/155/155 153/153/153 152/152/152
f 156/156/156 50/50/50 49/49/49
f 158/158/158 157/157/157 6/6/6
f 160/160/160 1/1/1 159/159/159
f 163/163/163 161/161/161 162/162/162
