mtllib ./Object100.mtl
g Object100
v -4.401428 0.0003967285 -4.861725
v -4.401489 0.0003967285 4.862396
v -2.76416 16.78934 4.862396
v -2.764099 16.78934 -4.861725
v 20.99811 0.0003967285 4.862396
v 20.99811 0.0003967285 -4.86171
v 19.40027 16.78934 -4.86171
v 19.40027 16.78934 4.862396
v -2.764099 16.78934 -4.861725
v -2.76416 16.78934 4.862396
v 19.40027 16.78934 4.862396
v 19.40027 16.78934 -4.86171
v -2.76416 16.78934 4.862396
v -4.401489 0.0003967285 4.862396
v 20.99811 0.0003967285 4.862396
v 19.40027 16.78934 4.862396
v -71.24353 -0.135437 -4.861725
v -71.24353 -0.135437 4.862396
v -69.6062 16.6535 4.862396
v -69.6062 16.6535 -4.861725
v -45.84399 0.0003967285 4.862396
v -45.84399 0.0003967285 -4.86171
v -47.44183 16.6535 -4.86171
v -47.44183 16.6535 4.862396
v -69.6062 16.6535 -4.861725
v -69.6062 16.6535 4.862396
v -47.44183 16.6535 4.862396
v -47.44183 16.6535 -4.86171
v -69.6062 16.6535 4.862396
v -71.24353 -0.135437 4.862396
v -45.84399 0.0003967285 4.862396
v -47.44183 16.6535 4.862396
v -136.4304 -0.135437 -4.861725
v -136.4304 -0.135437 4.862396
v -134.793 16.6535 4.862396
v -134.793 16.6535 -4.861725
v -111.0308 0.0003967285 4.862396
v -111.0308 0.0003967285 -4.86171
v -112.6287 16.6535 -4.86171
v -112.6287 16.6535 4.862396
v -134.793 16.6535 -4.861725
v -134.793 16.6535 4.862396
v -112.6287 16.6535 4.862396
v -112.6287 16.6535 -4.86171
v -134.793 16.6535 4.862396
v -136.4304 -0.135437 4.862396
v -111.0308 0.0003967285 4.862396
v -112.6287 16.6535 4.862396

vn -0.9952782 0.09706377 -6.247039E-06
vn -0.9952782 0.09706377 -6.247039E-06
vn -0.9952782 0.09706377 -6.247039E-06
vn -0.9952782 0.09706377 -6.247039E-06
vn 0.9955017 0.09474402 0
vn 0.9955017 0.09474402 0
vn 0.9955017 0.09474402 0
vn 0.9955017 0.09474402 0
vn 0 1 0
vn 0 0.9999999 0
vn 0 1 0
vn 0 0.9999999 0
vn 0 0 1
vn 0 0 1
vn 0 0 1
vn 0 0 1
vn -0.9952782 0.09706377 0
vn -0.9952782 0.09706377 0
vn -0.9952782 0.09706377 0
vn -0.9952782 0.09706377 0
vn 0.9954284 0.09550979 0
vn 0.9954284 0.09550979 0
vn 0.9954284 0.09550979 0
vn 0.9954284 0.09550979 0
vn 0 1 0
vn 0 1 0
vn 0 1 0
vn 0 0.9999999 0
vn 0 0 1
vn 0 0 1
vn 0 0 1
vn 0 0 1
vn -0.9952782 0.09706377 0
vn -0.9952782 0.09706377 0
vn -0.9952782 0.09706377 0
vn -0.9952782 0.09706377 0
vn 0.9954284 0.09550979 0
vn 0.9954284 0.09550979 0
vn 0.9954284 0.09550979 0
vn 0.9954284 0.09550979 0
vn 0 1 0
vn 0 1 0
vn 0 1 0
vn 0 0.9999999 0
vn 0 0 1
vn 0 0 1
vn 0 0 1
vn 0 0 1

vt 0.4513794 0.4160553
vt 0.5486205 0.4160553
vt 0.5486205 0.5839447
vt 0.4513794 0.5839447
vt 0.4513794 0.4160554
vt 0.5486205 0.4160554
vt 0.5486205 0.5839447
vt 0.4513794 0.5839447
vt 0.6106244 0.4513794
vt 0.6106244 0.5486205
vt 0.3889806 0.5486206
vt 0.3889806 0.4513794
vt 0.3893756 0.5839447
vt 0.3730021 0.4160553
vt 0.6269978 0.4160554
vt 0.6110194 0.5839447
vt 0.4513794 0.4160553
vt 0.5486205 0.4160553
vt 0.5486205 0.5839447
vt 0.4513794 0.5839447
vt 0.4513794 0.4174137
vt 0.5486205 0.4174137
vt 0.5486205 0.5839447
vt 0.4513794 0.5839447
vt 0.6106246 0.4513794
vt 0.6106246 0.5486205
vt 0.3889806 0.5486206
vt 0.3889806 0.4513794
vt 0.3893754 0.5839447
vt 0.3730022 0.4160553
vt 0.6269978 0.4174137
vt 0.6110194 0.5839447
vt 0.4513794 0.4160553
vt 0.5486205 0.4160553
vt 0.5486205 0.5839447
vt 0.4513794 0.5839447
vt 0.4513794 0.4174137
vt 0.5486205 0.4174137
vt 0.5486205 0.5839447
vt 0.4513794 0.5839447
vt 0.6106246 0.4513794
vt 0.6106246 0.5486205
vt 0.3889806 0.5486206
vt 0.3889806 0.4513794
vt 0.3893754 0.5839447
vt 0.3730022 0.4160553
vt 0.6269978 0.4174137
vt 0.6110194 0.5839447

usemtl sn15_21_sn1501.JPG
usemap sn15_21_sn1501.JPG
f 3/3/3 1/1/1 2/2/2
f 1/1/1 3/3/3 4/4/4
f 7/7/7 5/5/5 6/6/6
f 5/5/5 7/7/7 8/8/8
f 11/11/11 9/9/9 10/10/10
f 9/9/9 11/11/11 12/12/12
f 15/15/15 13/13/13 14/14/14
f 13/13/13 15/15/15 16/16/16
f 19/19/19 17/17/17 18/18/18
f 17/17/17 19/19/19 20/20/20
f 23/23/23 21/21/21 22/22/22
f 21/21/21 23/23/23 24/24/24
f 27/27/27 25/25/25 26/26/26
f 25/25/25 27/27/27 28/28/28
f 31/31/31 29/29/29 30/30/30
f 29/29/29 31/31/31 32/32/32
f 35/35/35 33/33/33 34/34/34
f 33/33/33 35/35/35 36/36/36
f 39/39/39 37/37/37 38/38/38
f 37/37/37 39/39/39 40/40/40
f 43/43/43 41/41/41 42/42/42
f 41/41/41 43/43/43 44/44/44
f 47/47/47 45/45/45 46/46/46
f 45/45/45 47/47/47 48/48/48
