mtllib ./Object108.mtl
g Object108
v 0.606754 0.0002441406 -4.860303
v 0.6038178 0.0002441406 4.860882
v 2.240592 16.78918 4.861376
v 2.243528 16.78918 -4.859808
v 25.99568 0.0002441406 4.868552
v 25.99862 0.0002441406 -4.852633
v 24.40126 16.78918 -4.853116
v 24.39833 16.78918 4.868069
v 2.243528 16.78918 -4.859808
v 2.240592 16.78918 4.861376
v 24.39833 16.78918 4.868069
v 24.40126 16.78918 -4.853116
v 2.240592 16.78918 4.861376
v 0.6038178 0.0002441406 4.860882
v 25.99568 0.0002441406 4.868552
v 24.39833 16.78918 4.868069
v -55.15289 -0.1355896 -4.877145
v -55.15583 -0.1355896 4.84404
v -53.51899 16.65335 4.844534
v -53.51606 16.65335 -4.87665
v -29.76396 0.0002441406 4.851709
v -29.76103 0.0002441406 -4.869475
v -31.35838 16.65335 -4.869958
v -31.36132 16.65335 4.851227
v -53.51606 16.65335 -4.87665
v -53.51899 16.65335 4.844534
v -31.36132 16.65335 4.851227
v -31.35838 16.65335 -4.869958
v -53.51899 16.65335 4.844534
v -55.15583 -0.1355896 4.84404
v -29.76396 0.0002441406 4.851709
v -31.36132 16.65335 4.851227
v -110.9126 -0.1355896 -4.893987
v -110.9155 -0.1355896 4.827198
v -109.2787 16.65335 4.827692
v -109.2758 16.65335 -4.893493
v -85.52367 0.0002441406 4.834867
v -85.52074 0.0002441406 -4.886317
v -87.11803 16.65335 -4.8868
v -87.12096 16.65335 4.834385
v -109.2758 16.65335 -4.893493
v -109.2787 16.65335 4.827692
v -87.12096 16.65335 4.834385
v -87.11803 16.65335 -4.8868
v -109.2787 16.65335 4.827692
v -110.9155 -0.1355896 4.827198
v -85.52367 0.0002441406 4.834867
v -87.12096 16.65335 4.834385

vn 0.0003005549 0.09703116 -0.9952812
vn 0.000300561 0.09703116 -0.9952812
vn 0.0003005549 0.09703116 -0.9952812
vn 0.0003005488 0.09703115 -0.9952812
vn -0.0003007383 0.09471568 0.9955043
vn -0.0003007383 0.09471568 0.9955043
vn -0.0003007383 0.09471568 0.9955043
vn -0.0003007383 0.09471568 0.9955043
vn 0 1 0
vn 0 1 0
vn 0 1 0
vn 0 1 0
vn -0.9999999 -4.363163E-10 -0.0003020167
vn -0.9999999 -4.316871E-09 -0.0003020167
vn -0.9999999 -4.363163E-10 -0.0003020167
vn -0.9999999 4.010642E-09 -0.0003020167
vn 0.0003004755 0.09703477 -0.9952809
vn 0.0003006708 0.09703489 -0.9952809
vn 0.0003004755 0.09703477 -0.9952809
vn 0.0003002802 0.09703466 -0.9952809
vn -0.0003007162 0.09548122 0.9954311
vn -0.0003007162 0.09548122 0.9954311
vn -0.0003007162 0.09548122 0.9954311
vn -0.0003007162 0.09548122 0.9954311
vn 0 1 0
vn 0 1 0
vn 0 1 0
vn 0 1 0
vn -0.9999999 1.101083E-10 -0.0003019571
vn -0.9999998 -5.01202E-09 -0.0003019571
vn -0.9999999 1.101083E-10 -0.0003019571
vn -0.9999999 6.024669E-09 -0.0003019571
vn 0.0003006708 0.09703466 -0.9952809
vn 0.0003006708 0.09703466 -0.9952809
vn 0.0003006708 0.09703466 -0.9952809
vn 0.0003006708 0.09703466 -0.9952809
vn -0.0003003257 0.09547749 0.9954315
vn -0.0003007163 0.09547772 0.9954315
vn -0.0003003257 0.09547749 0.9954315
vn -0.000299935 0.09547727 0.9954315
vn 0 0.9999999 0
vn 0 1 0
vn 0 0.9999999 0
vn 0 1 0
vn -0.9999999 7.028184E-10 -0.0003020167
vn -0.9999999 -3.24153E-09 -0.0003020167
vn -0.9999999 7.028184E-10 -0.0003020167
vn -0.9999999 5.257372E-09 -0.0003020167

vt 0.4513794 0.4160553
vt 0.5486205 0.4160553
vt 0.5486205 0.5839447
vt 0.4513794 0.5839447
vt 0.4513794 0.4160554
vt 0.5486205 0.4160554
vt 0.5486205 0.5839447
vt 0.4513794 0.5839447
vt 0.6106244 0.4513794
vt 0.6106244 0.5486205
vt 0.3889806 0.5486206
vt 0.3889806 0.4513794
vt 0.3893756 0.5839447
vt 0.3730021 0.4160553
vt 0.6269978 0.4160554
vt 0.6110194 0.5839447
vt 0.4513794 0.4160553
vt 0.5486205 0.4160553
vt 0.5486205 0.5839447
vt 0.4513794 0.5839447
vt 0.4513794 0.4174137
vt 0.5486205 0.4174137
vt 0.5486205 0.5839447
vt 0.4513794 0.5839447
vt 0.6106246 0.4513794
vt 0.6106246 0.5486205
vt 0.3889806 0.5486206
vt 0.3889806 0.4513794
vt 0.3893754 0.5839447
vt 0.3730022 0.4160553
vt 0.6269978 0.4174137
vt 0.6110194 0.5839447
vt 0.4513794 0.4160553
vt 0.5486205 0.4160553
vt 0.5486205 0.5839447
vt 0.4513794 0.5839447
vt 0.4513794 0.4174137
vt 0.5486205 0.4174137
vt 0.5486205 0.5839447
vt 0.4513794 0.5839447
vt 0.6106246 0.4513794
vt 0.6106246 0.5486205
vt 0.3889806 0.5486206
vt 0.3889806 0.4513794
vt 0.3893754 0.5839447
vt 0.3730022 0.4160553
vt 0.6269978 0.4174137
vt 0.6110194 0.5839447

usemtl sn15_21_sn1501.JPG
usemap sn15_21_sn1501.JPG
f 3/3/3 1/1/1 2/2/2
f 1/1/1 3/3/3 4/4/4
f 7/7/7 5/5/5 6/6/6
f 5/5/5 7/7/7 8/8/8
f 11/11/11 9/9/9 10/10/10
f 9/9/9 11/11/11 12/12/12
f 15/15/15 13/13/13 14/14/14
f 13/13/13 15/15/15 16/16/16
f 19/19/19 17/17/17 18/18/18
f 17/17/17 19/19/19 20/20/20
f 23/23/23 21/21/21 22/22/22
f 21/21/21 23/23/23 24/24/24
f 27/27/27 25/25/25 26/26/26
f 25/25/25 27/27/27 28/28/28
f 31/31/31 29/29/29 30/30/30
f 29/29/29 31/31/31 32/32/32
f 35/35/35 33/33/33 34/34/34
f 33/33/33 35/35/35 36/36/36
f 39/39/39 37/37/37 38/38/38
f 37/37/37 39/39/39 40/40/40
f 43/43/43 41/41/41 42/42/42
f 41/41/41 43/43/43 44/44/44
f 47/47/47 45/45/45 46/46/46
f 45/45/45 47/47/47 48/48/48
