mtllib ./Object59.mtl
g Object59
v 101.6239 -1.01432 -0.0001831055
v 104.4796 -1.01432 -1.55072
v 104.3945 -1.01432 1.697662
v 101.7089 -1.01432 -3.248566
v 98.85324 -1.01432 -1.698059
v 98.76817 -1.01432 1.550323
v 101.5388 -1.01432 3.248169
v 104.3945 -1.01432 1.697662
v 104.5186 -0.307312 -1.571899
v 104.4324 -0.307312 1.720856
v 104.4796 -1.01432 -1.55072
v 104.4796 -1.01432 -1.55072
v 101.7101 -0.307312 -3.292969
v 104.5186 -0.307312 -1.571899
v 101.7089 -1.01432 -3.248566
v 98.81537 -0.307312 -1.721252
v 98.85324 -1.01432 -1.698059
v 98.72914 -0.307312 1.571533
v 98.76817 -1.01432 1.550323
v 101.5377 -0.307312 3.292572
v 101.5388 -1.01432 3.248169
v 104.4324 -0.307312 1.720856
v 106.6214 2.520721 -2.713593
v 106.4725 2.520729 2.971039
v 104.5186 -0.307312 -1.571899
v 104.5186 -0.307312 -1.571899
v 101.7727 2.263306 -5.684845
v 106.6214 2.520721 -2.713593
v 101.7101 -0.307312 -3.292969
v 96.77527 2.263306 -2.971436
v 98.81537 -0.307312 -1.721252
v 96.6264 2.520729 2.713226
v 98.72914 -0.307312 1.571533
v 101.475 2.520729 5.684448
v 101.5377 -0.307312 3.292572
v 104.5186 5.348763 -1.571899
v 104.4324 5.348763 1.720856
v 101.7101 5.091347 -3.292969
v 104.5186 5.348763 -1.571899
v 98.81537 5.091347 -1.721252
v 98.72914 5.348763 1.571533
v 101.5377 5.348763 3.292572
v 104.4324 5.348763 1.720856
v 104.4796 6.055771 -1.55072
v 104.3945 6.055771 1.697662
v 104.5186 5.348763 -1.571899
v 104.5186 5.348763 -1.571899
v 101.7089 6.055771 -3.248566
v 104.4796 6.055771 -1.55072
v 101.7101 5.091347 -3.292969
v 98.85324 6.055771 -1.698059
v 98.81537 5.091347 -1.721252
v 98.76817 6.055771 1.550323
v 98.72914 5.348763 1.571533
v 101.5388 6.055771 3.248169
v 101.5377 5.348763 3.292572
v 101.6239 6.055771 -0.0001831055
v 104.3945 6.055771 1.697662
v 104.4796 6.055771 -1.55072
v 101.7089 6.055771 -3.248566
v 98.85324 6.055771 -1.698059
v 98.76817 6.055771 1.550323
v 101.5388 6.055771 3.248169
v 102.1145 -8.102531 0.9225769
v 102.3705 -2.287804 0.02587891
v 101.9746 -2.287804 0.6594543
v 102.6683 -8.102531 0.0362854
v 102.0198 -2.287804 -0.6337585
v 102.1777 -8.102531 -0.8864746
v 102.1777 -8.102531 -0.8864746
v 101.2731 -2.287804 -0.6598511
v 102.0198 -2.287804 -0.6337585
v 101.1332 -8.102531 -0.9229431
v 100.8772 -2.287804 -0.02627563
v 100.5794 -8.102531 -0.03668213
v 101.228 -2.287804 0.6333923
v 101.0701 -8.102531 0.8861084
v 101.6239 -2.287804 -0.0001831055
v 101.9746 -2.287804 0.6594543
v 102.3705 -2.287804 0.02587891
v 102.0198 -2.287804 -0.6337585
v 101.2731 -2.287804 -0.6598511
v 100.8772 -2.287804 -0.02627563
v 101.228 -2.287804 0.6333923
v 101.6599 -3.235672 0.210022
v 101.7946 8.103043 -0.01586914
v 101.6533 8.103043 0.1975708
v 101.8087 -3.235672 -0.01538086

vn 0 -1 0
vn 0 -1 0
vn 0 -1 0
vn 0 -1 0
vn 0 -1 0
vn 0 -1 0
vn 0 -1 0
vn 0.934835 -0.06154733 0.3497077
vn 0.9981812 -0.05432542 0.02613508
vn 0.7382573 -0.06158554 0.6717018
vn 0.9981813 -0.05432393 0.02613541
vn 0.5217281 -0.05432224 -0.8513807
vn 0.2125811 -0.06158859 -0.9752006
vn 0.5217313 -0.05430734 -0.8513796
vn -0.164559 -0.06154965 -0.984445
vn -0.7382579 -0.06158556 -0.6717011
vn -0.9348344 -0.06154683 -0.3497097
vn -0.9508385 -0.06159959 0.3034991
vn -0.7702721 -0.06156383 0.6347368
vn -0.2125768 -0.06160227 0.9752006
vn 0.1645587 -0.06154962 0.9844451
vn 0.7422988 -0.6328424 0.2202339
vn 0.9863925 -0.1623658 0.02582982
vn 0.8526394 -1.327427E-08 0.5224999
vn 0.8063654 -0.5910407 0.02111256
vn 0.4292797 -0.6088293 -0.6671175
vn 0.02617819 -1.651182E-07 -0.9996573
vn 0.5045258 0.1635345 -0.8477677
vn -0.1732729 -0.6686262 -0.7231289
vn -0.8535164 -4.553939E-07 -0.521066
vn -0.7294126 -0.6558428 -0.1944933
vn -0.875957 2.011666E-07 0.4823894
vn -0.5618761 -0.6328417 0.5327348
vn -0.02617491 8.495521E-07 0.9996574
vn 0.1804241 -0.6328415 0.7529668
vn 0.8063676 0.5910377 0.02111459
vn 0.5332249 0.6328421 0.5614107
vn 0.1958425 0.6292777 -0.7521006
vn 0.3872429 0.5779332 -0.7183566
vn -0.523555 0.6308366 -0.5726563
vn -0.7558846 0.636014 0.1553212
vn -0.2195799 0.6328424 0.7424926
vn 0.9336524 0.06158689 0.352846
vn 0.9981812 0.05432544 0.02613508
vn 0.7359998 0.06154582 0.6741782
vn 0.9981813 0.05432394 0.02613476
vn 0.5204041 0.04597528 -0.8526816
vn 0.1791788 0.04986437 -0.9825521
vn 0.5217257 0.05430714 -0.851383
vn -0.1627141 0.04517848 -0.9856384
vn -0.7366447 0.04515811 -0.6747706
vn -0.9202538 0.04986786 -0.3881317
vn -0.9637842 0.0544623 0.2610631
vn -0.7735541 0.06162478 0.6307269
vn -0.2158541 0.06156269 0.974483
vn 0.1612523 0.06158932 0.9849896
vn 0 1 0
vn 0 1 0
vn 0 1 0
vn 0 1 0
vn 0 1 0
vn 0 1 0
vn 0 1 0
vn 0.5960815 0.05060155 0.8013279
vn 0.9630521 0.04979725 0.2646714
vn 0.2523255 0.04979869 0.9663601
vn 0.9920115 0.05059974 -0.1155552
vn 0.8820772 0.04433677 -0.469014
vn 0.8820769 0.04433667 -0.4690145
vn 0.03487338 0.04433691 -0.9984077
vn -0.2523129 0.04979656 -0.9663636
vn 0.0348908 0.04433959 -0.998407
vn -0.5960767 0.05059913 -0.8013318
vn -0.9630538 0.04979714 -0.2646652
vn -0.9920115 0.05060015 0.1155538
vn -0.7107458 0.04979786 0.7016842
vn -0.3959388 0.05060221 0.9168816
vn 0 1 0
vn 0 1 0
vn 0 1 0
vn 0 1 0
vn 0 1 0
vn 0 1 0
vn 0 1 0
vn 0.8341232 0.0010769 0.551577
vn 0.8341232 0.0010769 0.551577
vn 0.8337332 0.001093278 0.5521665
vn 0.8344926 0.001061378 0.5510182

vt 0.7463769 0.7536231
vt 0.7972135 0.8397869
vt 0.8480501 0.7536231
vt 0.6955402 0.8397869
vt 0.6447036 0.7536231
vt 0.6955402 0.6674593
vt 0.7972134 0.6674593
vt 0.9190203 0.4968366
vt 0.9949359 0.5208724
vt 0.9190203 0.5208724
vt 0.9949359 0.4968366
vt 0.5095932 0.4968366
vt 0.6004334 0.5208724
vt 0.5095932 0.5208724
vt 0.6004334 0.4968366
vt 0.676349 0.5208724
vt 0.676349 0.4968366
vt 0.7522646 0.5208724
vt 0.7522646 0.4968366
vt 0.8431048 0.5208724
vt 0.8431048 0.4968366
vt 0.9209034 0.5324511
vt 0.9983738 0.763378
vt 0.9209034 0.763378
vt 0.9983738 0.5324511
vt 0.5030909 0.5324511
vt 0.5957915 0.763378
vt 0.5030909 0.763378
vt 0.5957915 0.5324511
vt 0.6732619 0.763378
vt 0.6732619 0.5324512
vt 0.7507324 0.763378
vt 0.7507324 0.5324512
vt 0.843433 0.763378
vt 0.843433 0.5324512
vt 0.9983738 0.9653195
vt 0.9209034 0.9653195
vt 0.5957915 0.9653195
vt 0.5030909 0.9653195
vt 0.6732619 0.9653195
vt 0.7507324 0.9653195
vt 0.843433 0.9653195
vt 0.9190203 0.9667816
vt 0.9949359 0.9980637
vt 0.9190203 0.9980637
vt 0.9949359 0.9667816
vt 0.5095932 0.9667816
vt 0.6004334 0.9980637
vt 0.5095932 0.9980637
vt 0.6004334 0.9667816
vt 0.676349 0.9980637
vt 0.676349 0.9667816
vt 0.7522646 0.9980637
vt 0.7522646 0.9667816
vt 0.8431048 0.9980637
vt 0.8431048 0.9667816
vt 0.710145 0.227053
vt 0.7639404 0.227053
vt 0.7370427 0.2726425
vt 0.6832473 0.2726425
vt 0.6563496 0.227053
vt 0.6832473 0.1814638
vt 0.7370427 0.1814638
vt 0.8265324 0.0004995465
vt 0.9165541 0.4946693
vt 0.8265324 0.4946696
vt 0.9165541 0.0004995465
vt 0.9923934 0.4946693
vt 0.9923934 0.0004995465
vt 0.5095116 0.0004995465
vt 0.5850915 0.4946696
vt 0.5095116 0.4946693
vt 0.5850915 0.0004995465
vt 0.6751132 0.4946696
vt 0.6751132 0.0005000234
vt 0.7509525 0.4946696
vt 0.7509525 0.0005000234
vt 0.7536232 0.7584541
vt 0.7931671 0.73818
vt 0.7935675 0.7781243
vt 0.7540237 0.7983985
vt 0.7140793 0.7787281
vt 0.7136788 0.7387838
vt 0.7532227 0.7185097
vt 0.9922011 0.9736305
vt 0.5093396 0.9925529
vt 0.5077682 0.9725932
vt 0.9937723 0.9935904

usemtl sn15_64_sn1556.JPG
usemap sn15_64_sn1556.JPG
f 3/3/3 1/1/1 2/2/2
f 2/2/2 1/1/1 4/4/4
f 4/4/4 1/1/1 5/5/5
f 5/5/5 1/1/1 6/6/6
f 6/6/6 1/1/1 7/7/7
f 7/7/7 1/1/1 3/3/3
f 10/10/10 8/8/8 9/9/9
f 9/9/9 8/8/8 11/11/11
f 14/14/14 12/12/12 13/13/13
f 13/13/13 12/12/12 15/15/15
f 13/13/13 15/15/15 16/16/16
f 16/16/16 15/15/15 17/17/17
f 16/16/16 17/17/17 18/18/18
f 18/18/18 17/17/17 19/19/19
f 18/18/18 19/19/19 20/20/20
f 20/20/20 19/19/19 21/21/21
f 20/20/20 21/21/21 10/10/10
f 10/10/10 21/21/21 8/8/8
f 24/24/24 22/22/22 23/23/23
f 23/23/23 22/22/22 25/25/25
f 28/28/28 26/26/26 27/27/27
f 27/27/27 26/26/26 29/29/29
f 27/27/27 29/29/29 30/30/30
f 30/30/30 29/29/29 31/31/31
f 30/30/30 31/31/31 32/32/32
f 32/32/32 31/31/31 33/33/33
f 32/32/32 33/33/33 34/34/34
f 34/34/34 33/33/33 35/35/35
f 34/34/34 35/35/35 24/24/24
f 24/24/24 35/35/35 22/22/22
f 37/37/37 24/24/24 36/36/36
f 36/36/36 24/24/24 23/23/23
f 39/39/39 28/28/28 38/38/38
f 38/38/38 28/28/28 27/27/27
f 38/38/38 27/27/27 40/40/40
f 40/40/40 27/27/27 30/30/30
f 40/40/40 30/30/30 41/41/41
f 41/41/41 30/30/30 32/32/32
f 41/41/41 32/32/32 42/42/42
f 42/42/42 32/32/32 34/34/34
f 42/42/42 34/34/34 37/37/37
f 37/37/37 34/34/34 24/24/24
f 45/45/45 43/43/43 44/44/44
f 44/44/44 43/43/43 46/46/46
f 49/49/49 47/47/47 48/48/48
f 48/48/48 47/47/47 50/50/50
f 48/48/48 50/50/50 51/51/51
f 51/51/51 50/50/50 52/52/52
f 51/51/51 52/52/52 53/53/53
f 53/53/53 52/52/52 54/54/54
f 53/53/53 54/54/54 55/55/55
f 55/55/55 54/54/54 56/56/56
f 55/55/55 56/56/56 45/45/45
f 45/45/45 56/56/56 43/43/43
f 59/59/59 57/57/57 58/58/58
f 60/60/60 57/57/57 59/59/59
f 61/61/61 57/57/57 60/60/60
f 62/62/62 57/57/57 61/61/61
f 63/63/63 57/57/57 62/62/62
f 58/58/58 57/57/57 63/63/63
f 66/66/66 64/64/64 65/65/65
f 65/65/65 64/64/64 67/67/67
f 65/65/65 67/67/67 68/68/68
f 68/68/68 67/67/67 69/69/69
f 72/72/72 70/70/70 71/71/71
f 71/71/71 70/70/70 73/73/73
f 71/71/71 73/73/73 74/74/74
f 74/74/74 73/73/73 75/75/75
f 74/74/74 75/75/75 76/76/76
f 76/76/76 75/75/75 77/77/77
f 76/76/76 77/77/77 66/66/66
f 66/66/66 77/77/77 64/64/64
f 80/80/80 78/78/78 79/79/79
f 81/81/81 78/78/78 80/80/80
f 82/82/82 78/78/78 81/81/81
f 83/83/83 78/78/78 82/82/82
f 84/84/84 78/78/78 83/83/83
f 79/79/79 78/78/78 84/84/84
f 87/87/87 85/85/85 86/86/86
f 86/86/86 85/85/85 88/88/88
