mtllib ./Object130.mtl
g Object130
v 5.516602 7.464233 -4.534363
v 0.7330627 7.464233 -1.061127
v 5.515076 5.193314 0.4942627
v 3.765228 -1.234024 -0.07589722
v 5.516602 -1.234024 -1.34613
v 5.552368 -4.009232 0.5067749
v 5.365906 -4.009232 0.4441833
v 4.879547 -1.224442 0.2861633
v 5.516602 -1.224442 -0.1744995
v 5.516602 -1.234024 -1.34613
v 3.765228 -1.234024 -0.07589722
v 4.203094 3.225861 0.06637573
v 5.516602 3.225876 -0.8857422
v 5.516602 -1.224442 -0.1744995
v 4.879547 -1.224442 0.2861633
v 5.082062 3.923828 0.3515625
v 5.516968 3.923828 0.0383606
v 2.562836 5.385025 -0.4665833
v 5.516602 5.385025 -2.610413
v 0.7330627 7.464233 -1.061127
v 5.516602 7.464233 -4.534363
v 2.558105 7.464233 4.561615
v 5.515076 5.193314 0.4942627
v 4.432098 -1.234024 1.9823
v 5.365906 -4.009232 0.4441833
v 5.552368 -4.009232 0.5067749
v 4.432098 -1.234024 1.9823
v 5.120789 -1.224442 1.034393
v 4.432098 -1.234024 1.9823
v 4.702728 3.225861 1.609802
v 5.120789 -1.224442 1.034393
v 5.245575 3.923828 0.861969
v 3.688995 5.385025 3.005096
v 2.558105 7.464233 4.561615
v 2.558105 7.464233 4.561615
v 8.469604 7.464233 4.563385
v 5.515076 5.193314 0.4942627
v 6.595612 -1.234024 1.98407
v 4.432098 -1.234024 1.9823
v 5.552368 -4.009232 0.5067749
v 5.906952 -1.224442 1.036163
v 6.595612 -1.234024 1.98407
v 6.325012 3.225876 1.611572
v 4.702728 3.225861 1.609802
v 5.120789 -1.224442 1.034393
v 5.906952 -1.224442 1.036163
v 5.781525 3.923828 0.8641968
v 5.245575 3.923828 0.861969
v 7.338745 5.385025 3.006866
v 3.688995 5.385025 3.005096
v 5.245575 3.923828 0.861969
v 5.781525 3.923828 0.8641968
v 8.469604 7.464233 4.563385
v 2.558105 7.464233 4.561615
v 8.469604 7.464233 4.563385
v 10.29807 7.464233 -1.058228
v 5.515076 5.193314 0.4942627
v 7.265869 -1.234024 -0.07299805
v 6.595612 -1.234024 1.98407
v 5.552368 -4.009232 0.5067749
v 6.151581 -1.224442 0.289032
v 7.265869 -1.234024 -0.07299805
v 6.828003 3.225876 0.0692749
v 6.325012 3.225876 1.611572
v 5.906952 -1.224442 1.036163
v 6.151581 -1.224442 0.289032
v 5.949249 3.923828 0.3551636
v 5.781525 3.923828 0.8641968
v 8.468262 5.385025 -0.4637146
v 7.338745 5.385025 3.006866
v 10.29807 7.464233 -1.058228
v 8.469604 7.464233 4.563385
v 5.515076 5.193314 0.4942627
v 5.552368 -4.009232 0.5067749
v 5.516602 5.385025 -2.610413
v 10.29807 7.464233 -1.058228
v 8.468262 5.385025 -0.4637146
v 5.516602 7.464233 -4.534363
v 7.202057 -4.297791 -1.284973
v 7.202057 -4.297791 2.148163
v 7.202057 -6.073685 2.148163
v 7.202057 -6.073685 -1.284973
v 7.202057 -6.073685 -1.284973
v 7.202057 -6.073685 2.148163
v 3.799103 -6.073685 2.148163
v 3.799103 -6.073685 -1.284973
v 7.202057 -4.297791 -1.284973
v 7.202057 -6.073685 -1.284973
v 3.799103 -6.073685 -1.284973
v 3.799103 -4.297791 -1.284973
v 6.621033 -2.836899 1.446503
v 6.621033 -2.836899 -0.583313
v 4.380127 -2.836899 -0.583313
v 4.380127 -2.836899 1.446503
v 7.202057 -6.073685 2.148163
v 7.202057 -4.297791 2.148163
v 3.799103 -4.297791 2.148163
v 3.799103 -6.073685 2.148163
v 4.380127 -4.467682 1.446503
v 4.380127 -4.467682 -0.583313
v 3.799103 -4.297791 -1.284973
v 3.799103 -4.297791 2.148163
v 6.621033 -4.467667 -0.583313
v 6.621033 -4.467667 1.446503
v 7.202057 -4.297791 2.148163
v 7.202057 -4.297791 -1.284973
v 4.380127 -2.836899 1.446503
v 4.380127 -2.836899 -0.583313
v 4.380127 -4.467682 -0.583313
v 4.380127 -4.467682 1.446503
v 6.621033 -2.836899 1.446503
v 4.380127 -2.836899 1.446503
v 4.380127 -4.467682 1.446503
v 6.621033 -4.467667 1.446503
v 6.621033 -2.836899 -0.583313
v 6.621033 -2.836899 1.446503
v 6.621033 -4.467667 1.446503
v 6.621033 -4.467667 -0.583313
v 4.380127 -2.836899 -0.583313
v 6.621033 -2.836899 -0.583313
v 6.621033 -4.467667 -0.583313
v 4.380127 -4.467682 -0.583313
v -2.086761 -3.821487 2.443604
v -2.086761 -6.512207 2.443604
v 3.799103 -6.073685 2.148163
v 3.799103 -4.297791 2.148163
v -2.086761 -3.806076 -1.580414
v -2.086761 -3.821487 2.443604
v 3.799103 -4.297791 2.148163
v 3.799103 -4.297791 -1.284973
v -2.086761 -6.512207 -1.580414
v -2.086761 -3.806076 -1.580414
v 3.799103 -4.297791 -1.284973
v 3.799103 -6.073685 -1.284973
v -2.086761 -6.512207 2.443604
v -2.086761 -6.512207 -1.580414
v -10.43704 -2.87767 4.113586
v -10.43704 -7.493805 4.113586
v -2.086761 -6.512207 2.443604
v -2.086761 -3.821487 2.443604
v -10.43704 -2.863373 -3.250366
v -10.43704 -2.87767 4.113586
v -2.086761 -3.821487 2.443604
v -2.086761 -3.806076 -1.580414
v -10.43704 -7.493805 -3.250366
v -10.43704 -2.863373 -3.250366
v -2.086761 -3.806076 -1.580414
v -2.086761 -6.512207 -1.580414
v -10.43704 -7.493805 4.113586
v -10.43704 -7.493805 -3.250366
v -2.086761 -6.512207 -1.580414
v -2.086761 -6.512207 2.443604

vn -0.0001247477 0.9113756 0.4115759
vn 0.3913947 0.9113749 0.1273024
vn 0.2863739 0.8731727 0.3944104
vn -0.7845346 -0.53971 -0.3053171
vn 0.0006887855 -0.5552679 -0.8316714
vn -0.4694787 -0.4604982 -0.7533466
vn -0.8636691 -0.4591815 0.2079135
vn -0.00670607 0.9999606 -0.005808169
vn 0.003451684 0.9999606 -0.008172859
vn -0.0009052602 0.9999661 -0.008182586
vn -0.008061678 0.9999661 -0.001667567
vn -0.9104621 0.03013354 -0.4124934
vn 0.1109675 0.03014018 -0.9933668
vn -0.3408349 -0.1482509 -0.9283605
vn -0.9882467 -0.1482527 0.03727785
vn -0.6801655 -0.7329446 0.01292284
vn -0.2224684 -0.7329451 -0.6428837
vn -0.6494509 -0.7574336 -0.06714181
vn -0.2663762 -0.7525734 -0.6022266
vn -0.6538798 -0.6738999 -0.3439479
vn -0.47031 -0.5993699 -0.6477377
vn 0.4636027 0.873172 -0.1504773
vn 0.4636027 0.873172 -0.1504773
vn -0.8539538 -0.4406896 0.276687
vn -0.2689468 -0.5345497 0.8012018
vn -0.2689468 -0.5345497 0.8012018
vn -0.2689468 -0.5345497 0.8012018
vn -0.007596044 0.9999606 0.004582936
vn -0.004077088 0.9999662 0.007151726
vn -0.9513963 -0.01471267 0.3076178
vn -0.9439228 -0.1280215 0.304336
vn -0.9325356 0.2005017 0.3002941
vn -0.6499018 -0.7302372 0.2106685
vn -0.7614459 -0.5992866 0.2470944
vn 0.0001459406 0.8731726 -0.4874113
vn 0.0001459406 0.8731726 -0.4874113
vn 0.0001459406 0.8731726 -0.4874113
vn -0.0007222691 -0.4696791 0.8828369
vn -0.0007222691 -0.4696791 0.8828369
vn -0.0007222691 -0.4696791 0.8828369
vn 0.002011392 0.9999606 0.008640498
vn 0.005541922 0.9999661 0.006087665
vn -0.001433716 -0.0147106 0.9998907
vn -0.001219097 0.07761127 0.9969829
vn -0.001456895 -0.1282288 0.9917435
vn -0.002232933 -0.1280221 0.9917688
vn -0.001269249 0.7309588 0.6824203
vn -0.002831591 0.7320817 0.6812109
vn -0.0004746713 -0.7302377 0.683193
vn -0.0002931515 -0.6692146 0.7430692
vn -0.0005380811 -0.8262039 0.5633709
vn -0.002346766 -0.8253791 0.5645741
vn -0.0002963963 -0.5992882 0.8005333
vn -0.0002396768 -0.5993717 0.8004708
vn -0.4635088 0.8731732 -0.1507588
vn -0.3914694 0.911376 0.1270655
vn -0.4635088 0.8731732 -0.1507588
vn 0.7969782 -0.5460262 -0.2582269
vn 0.8427604 -0.4629803 0.2745979
vn 0.8427604 -0.4629803 0.2745979
vn 0.008839397 0.9999606 0.0007571649
vn 0.007502432 0.9999662 -0.003389562
vn 0.979037 0.03014153 -0.2014397
vn 0.9478093 0.07761542 0.3092465
vn 0.9427516 -0.1282286 0.3078583
vn 0.7776044 -0.1482461 -0.6110273
vn 0.5426627 -0.7329506 -0.4102446
vn 0.5740708 -0.7971079 0.1872473
vn 0.5839972 -0.8117518 -0.002489876
vn 0.7066102 -0.6692142 0.229901
vn 0.7612606 -0.5992877 0.2476621
vn 0.76122 -0.5993688 0.247591
vn -0.2866111 0.8731732 0.3942367
vn 0.5194603 -0.4698381 -0.7137318
vn 0.4707837 -0.5992849 -0.6474723
vn 0.4707837 -0.5992849 -0.6474723
vn 0.4707983 -0.5994197 -0.6473368
vn 0.4707746 -0.5992016 -0.6475558
vn 1 0 0
vn 1 0 0
vn 1 0 0
vn 1 0 0
vn 0 -1 0
vn 0 -1 0
vn 0.0345311 -0.9994036 0
vn 0.05874054 -0.9982733 0
vn 0 0 -1
vn 0 0 -1
vn 0 0 -1
vn 0 0 -1
vn 0 1 0
vn 0 1 0
vn 0 1 0
vn 0 1 0
vn 0 0 1
vn 0 0 1
vn 0 0 1
vn 0 0 1
vn 0.1913086 0.9783876 -0.07847765
vn 0.06581527 0.9809082 0.1829955
vn 0.1637369 0.9812173 0.1019942
vn 0.09625155 0.9827003 -0.1582273
vn -0.1912965 0.9783908 0.0784672
vn -0.06581346 0.9809083 -0.1829955
vn -0.1637228 0.9812206 -0.1019854
vn -0.09624648 0.9827006 0.1582274
vn -1 0 0
vn -1 0 0
vn -1 0 0
vn -1 0 0
vn 0 0 1
vn 0 0 0.9999999
vn 0 0 1
vn 0 0 1
vn 1 0 0
vn 1 0 0
vn 1 0 0
vn 1 0 0
vn 0 0 -1
vn 0 0 -1
vn 0 0 -1
vn 0 0 -0.9999999
vn 0.05013184 0 0.9987426
vn 0.05013184 0 0.9987426
vn 0.05013184 0 0.9987426
vn 0.05013184 0 0.9987426
vn 0.08195561 0.9966339 0.0020597
vn 0.08084932 0.996719 0.003817283
vn 0.08195561 0.9966339 0.0020597
vn 0.08325159 0.9965286 0
vn 0.05013183 0 -0.9987426
vn 0.05013184 0 -0.9987425
vn 0.05013183 0 -0.9987426
vn 0.05013184 0 -0.9987426
vn 0.0742984 -0.9972361 0
vn 0.0742984 -0.997236 0
vn 0.1961079 0 0.9805823
vn 0.1961079 0 0.9805824
vn 0.1961079 0 0.9805823
vn 0.1961079 0 0.9805823
vn 0.1122472 0.9936769 0.002592298
vn 0.1126938 0.9936278 0.001929178
vn 0.1122472 0.9936769 0.002592298
vn 0.1114298 0.993765 0.00380597
vn 0.1961044 0 -0.980583
vn 0.1961044 0 -0.980583
vn 0.1961044 0 -0.980583
vn 0.1961044 0 -0.980583
vn 0.1167488 -0.9931615 0
vn 0.1167488 -0.9931616 0
vn 0.1167488 -0.9931615 0
vn 0.1167488 -0.9931614 0

vt 0.9806015 0.9849241
vt 0.6161717 0.9849241
vt 0.5525317 0.7538996
vt 0.5533686 0.2068586
vt 0.6888965 0.2068585
vt 0.5093251 -0.01645696
vt 0.497878 -0.01645696
vt 0.5305457 0.2691379
vt 0.5151005 0.3110307
vt 0.4493823 0.3311227
vt 0.4920593 0.2158882
vt 0.5381891 0.4864299
vt 0.6397741 0.4864299
vt 0.5638877 0.2076307
vt 0.5147388 0.2076307
vt 0.50776 0.7149854
vt 0.5411793 0.7149854
vt 0.5554875 0.8525982
vt 0.7842233 0.8525982
vt 0.6237584 0.9911291
vt 1.005153 0.991129
vt 0.02620403 0.9849243
vt 0.1928157 0.7538996
vt 0.3337722 0.2068587
vt 0.4560906 -0.004956517
vt 0.336971 -0.004956514
vt 0.2937134 0.1995888
vt 0.5764497 0.2691793
vt 0.618382 0.2161771
vt 0.3735133 0.4864299
vt 0.4349064 0.2076307
vt 0.4533018 0.7149854
vt 0.1850773 0.8525982
vt 0.00634177 0.9911292
vt 0.1331297 0.7574406
vt 0.8617176 0.7574406
vt 0.6667538 0.9902459
vt 0.5484461 0.1987504
vt 0.2941919 0.1987504
vt 0.4550858 -0.003828678
vt 0.5893747 0.3110976
vt 0.6537766 0.3315902
vt 0.5983239 0.4875376
vt 0.4231708 0.4875376
vt 0.4683076 0.1464159
vt 0.553187 0.1464159
vt 0.5396472 0.706929
vt 0.4817817 0.706929
vt 0.7108768 0.8491018
vt 0.3452019 0.8491018
vt 0.4525376 0.7155868
vt 0.5405422 0.7155868
vt 0.9107283 0.9870847
vt 0.1453505 0.9870849
vt 0.02601393 0.9849243
vt 0.6158641 0.9849241
vt 0.552224 0.7538996
vt 0.5530609 0.2068585
vt 0.333582 0.2068586
vt 0.4788581 -0.01645693
vt 0.5514588 0.3369631
vt 0.5493291 0.4026305
vt 0.5378813 0.4864299
vt 0.3733231 0.4864299
vt 0.4347162 0.2076307
vt 0.514431 0.2076307
vt 0.5073754 0.7149854
vt 0.4530641 0.7149854
vt 0.5551798 0.8525982
vt 0.1848872 0.8525982
vt 0.6234508 0.9911291
vt 0.006151721 0.9911292
vt 0.7746581 0.7538996
vt 0.4975702 -0.01645696
vt 0.9886864 0.8525982
vt 0.3242496 0.9911291
vt 0.322884 0.8525982
vt 0.9874897 0.991129
vt 0.6943459 1.001327
vt 0.3091566 1.001328
vt 0.3091565 0.8515217
vt 0.6943459 0.8515214
vt 0.7328725 0.9995005
vt 0.2671275 0.9995005
vt 0.2671275 0.8067733
vt 0.7328725 0.8067733
vt 0.68611 0.9995005
vt 0.3051446 0.9995005
vt 0.3051445 0.8558071
vt 0.6861099 0.8558071
vt 0.5279031 0.9676112
vt 0.3623141 0.9676112
vt 0.3623141 0.8728172
vt 0.5279031 0.8728172
vt 0.6948552 0.9995005
vt 0.3138897 0.9995005
vt 0.3138899 0.8558071
vt 0.6948553 0.8558071
vt 0.9449241 0.5723515
vt 0.8907107 0.5723515
vt 0.8484054 0.5577262
vt 0.9872292 0.5577262
vt 0.8907107 0.6512785
vt 0.9449241 0.6512785
vt 0.9872292 0.6659039
vt 0.8484054 0.6659039
vt 0.6376857 1.003582
vt 0.3623141 1.003582
vt 0.3623142 0.8537716
vt 0.6376858 0.8537717
vt 0.5736619 0.83784
vt 0.4263381 0.83784
vt 0.426338 0.9853266
vt 0.5736619 0.9853265
vt 0.6376859 1.003582
vt 0.3623143 1.003582
vt 0.3623142 0.8537718
vt 0.6376858 0.8537716
vt 0.7532195 0.8345473
vt 0.6058958 0.8345473
vt 0.6058957 0.9863091
vt 0.7532196 0.9863091
vt 0.2198165 0.4734227
vt 0.7889284 0.4734227
vt 0.6948553 0.8067733
vt 0.3138899 0.8067733
vt 0.2270489 0.4734227
vt 0.772951 0.4734227
vt 0.7328724 0.8067733
vt 0.2671275 0.8067733
vt 0.2110713 0.4734227
vt 0.7801832 0.4734227
vt 0.6861099 0.8067733
vt 0.3051445 0.8067733
vt 0.2270489 0.4734227
vt 0.772951 0.4734227
vt 0.2206169 0.05670724
vt 0.750165 0.05670724
vt 0.6375599 0.4777464
vt 0.333222 0.4777464
vt 0.2159402 0.05670724
vt 0.7501652 0.05670724
vt 0.6290158 0.4777464
vt 0.3370896 0.4777464
vt 0.2159402 0.05670724
vt 0.7454882 0.05670724
vt 0.6328833 0.4777464
vt 0.3285454 0.4777464
vt 0.2159402 0.05670724
vt 0.7501652 0.05670724
vt 0.6290158 0.4777464
vt 0.3370896 0.4777464

usemtl sn15_70_sn1583.JPG
usemap sn15_70_sn1583.JPG
f 3/3/3 1/1/1 2/2/2
f 6/6/6 4/4/4 5/5/5
f 4/4/4 6/6/6 7/7/7
f 10/10/10 8/8/8 9/9/9
f 8/8/8 10/10/10 11/11/11
f 14/14/14 12/12/12 13/13/13
f 12/12/12 14/14/14 15/15/15
f 13/13/13 16/16/16 17/17/17
f 16/16/16 13/13/13 12/12/12
f 17/17/17 18/18/18 19/19/19
f 18/18/18 17/17/17 16/16/16
f 19/19/19 20/20/20 21/21/21
f 20/20/20 19/19/19 18/18/18
f 23/23/23 2/2/2 22/22/22
f 7/7/7 24/24/24 4/4/4
f 27/27/27 25/25/25 26/26/26
f 11/11/11 28/28/28 8/8/8
f 28/28/28 11/11/11 29/29/29
f 15/15/15 30/30/30 12/12/12
f 30/30/30 15/15/15 31/31/31
f 12/12/12 32/32/32 16/16/16
f 32/32/32 12/12/12 30/30/30
f 16/16/16 33/33/33 18/18/18
f 33/33/33 16/16/16 32/32/32
f 18/18/18 34/34/34 20/20/20
f 34/34/34 18/18/18 33/33/33
f 37/37/37 35/35/35 36/36/36
f 40/40/40 38/38/38 39/39/39
f 29/29/29 41/41/41 28/28/28
f 41/41/41 29/29/29 42/42/42
f 45/45/45 43/43/43 44/44/44
f 43/43/43 45/45/45 46/46/46
f 44/44/44 47/47/47 48/48/48
f 47/47/47 44/44/44 43/43/43
f 51/51/51 49/49/49 50/50/50
f 49/49/49 51/51/51 52/52/52
f 50/50/50 53/53/53 54/54/54
f 53/53/53 50/50/50 49/49/49
f 57/57/57 55/55/55 56/56/56
f 60/60/60 58/58/58 59/59/59
f 42/42/42 61/61/61 41/41/41
f 61/61/61 42/42/42 62/62/62
f 65/65/65 63/63/63 64/64/64
f 63/63/63 65/65/65 66/66/66
f 64/64/64 67/67/67 68/68/68
f 67/67/67 64/64/64 63/63/63
f 68/68/68 69/69/69 70/70/70
f 69/69/69 68/68/68 67/67/67
f 70/70/70 71/71/71 72/72/72
f 71/71/71 70/70/70 69/69/69
f 73/73/73 56/56/56 1/1/1
f 74/74/74 5/5/5 58/58/58
f 62/62/62 9/9/9 61/61/61
f 9/9/9 62/62/62 10/10/10
f 66/66/66 13/13/13 63/63/63
f 13/13/13 66/66/66 14/14/14
f 63/63/63 17/17/17 67/67/67
f 17/17/17 63/63/63 13/13/13
f 67/67/67 19/19/19 69/69/69
f 19/19/19 67/67/67 17/17/17
f 77/77/77 75/75/75 76/76/76
f 78/78/78 76/76/76 75/75/75
f 81/81/81 79/79/79 80/80/80
f 79/79/79 81/81/81 82/82/82
f 85/85/85 83/83/83 84/84/84
f 83/83/83 85/85/85 86/86/86
f 89/89/89 87/87/87 88/88/88
f 87/87/87 89/89/89 90/90/90
f 93/93/93 91/91/91 92/92/92
f 91/91/91 93/93/93 94/94/94
f 97/97/97 95/95/95 96/96/96
f 95/95/95 97/97/97 98/98/98
f 101/101/101 99/99/99 100/100/100
f 99/99/99 101/101/101 102/102/102
f 105/105/105 103/103/103 104/104/104
f 103/103/103 105/105/105 106/106/106
f 106/106/106 100/100/100 103/103/103
f 100/100/100 106/106/106 101/101/101
f 102/102/102 104/104/104 99/99/99
f 104/104/104 102/102/102 105/105/105
f 109/109/109 107/107/107 108/108/108
f 107/107/107 109/109/109 110/110/110
f 113/113/113 111/111/111 112/112/112
f 111/111/111 113/113/113 114/114/114
f 117/117/117 115/115/115 116/116/116
f 115/115/115 117/117/117 118/118/118
f 121/121/121 119/119/119 120/120/120
f 119/119/119 121/121/121 122/122/122
f 125/125/125 123/123/123 124/124/124
f 123/123/123 125/125/125 126/126/126
f 129/129/129 127/127/127 128/128/128
f 127/127/127 129/129/129 130/130/130
f 133/133/133 131/131/131 132/132/132
f 131/131/131 133/133/133 134/134/134
f 86/86/86 135/135/135 136/136/136
f 135/135/135 86/86/86 85/85/85
f 139/139/139 137/137/137 138/138/138
f 137/137/137 139/139/139 140/140/140
f 143/143/143 141/141/141 142/142/142
f 141/141/141 143/143/143 144/144/144
f 147/147/147 145/145/145 146/146/146
f 145/145/145 147/147/147 148/148/148
f 151/151/151 149/149/149 150/150/150
f 149/149/149 151/151/151 152/152/152
