mtllib ./Object110.mtl
g Object110
v -4.401398 0.0002441406 -4.862122
v -4.401398 0.0002441406 4.862
v -2.764069 16.78918 4.862
v -2.764069 16.78918 -4.862122
v 20.99817 0.0002441406 4.862
v 20.99817 0.0002441406 -4.862122
v 19.40033 16.78918 -4.862122
v 19.40033 16.78918 4.862
v -2.764069 16.78918 -4.862122
v -2.764069 16.78918 4.862
v 19.40033 16.78918 4.862
v 19.40033 16.78918 -4.862122
v -2.764069 16.78918 4.862
v -4.401398 0.0002441406 4.862
v 20.99817 0.0002441406 4.862
v 19.40033 16.78918 4.862
v -55.17116 -0.1355896 -4.862122
v -55.17116 -0.1355896 4.862
v -53.53383 16.65335 4.862
v -53.53383 16.65335 -4.862122
v -29.77161 0.0002441406 4.862
v -29.77161 0.0002441406 -4.862122
v -31.36945 16.65335 -4.862122
v -31.36945 16.65335 4.862
v -53.53383 16.65335 -4.862122
v -53.53383 16.65335 4.862
v -31.36945 16.65335 4.862
v -31.36945 16.65335 -4.862122
v -53.53383 16.65335 4.862
v -55.17116 -0.1355896 4.862
v -29.77161 0.0002441406 4.862
v -31.36945 16.65335 4.862
v -105.9409 -0.1355896 -4.862122
v -105.9409 -0.1355896 4.862
v -104.3036 16.65335 4.862
v -104.3036 16.65335 -4.862122
v -80.54135 0.0002441406 4.862
v -80.54135 0.0002441406 -4.862122
v -82.13919 16.65335 -4.862122
v -82.13919 16.65335 4.862
v -104.3036 16.65335 -4.862122
v -104.3036 16.65335 4.862
v -82.13919 16.65335 4.862
v -82.13919 16.65335 -4.862122
v -104.3036 16.65335 4.862
v -105.9409 -0.1355896 4.862
v -80.54135 0.0002441406 4.862
v -82.13919 16.65335 4.862
v -156.7107 -0.1355896 -4.862122
v -156.7107 -0.1355896 4.862
v -155.0733 16.65335 4.862
v -155.0733 16.65335 -4.862122
v -131.3111 0.0002441406 4.862
v -131.3111 0.0002441406 -4.862122
v -132.9089 16.65335 -4.862122
v -132.9089 16.65335 4.862
v -155.0733 16.65335 -4.862122
v -155.0733 16.65335 4.862
v -132.9089 16.65335 4.862
v -132.9089 16.65335 -4.862122
v -155.0733 16.65335 4.862
v -156.7107 -0.1355896 4.862
v -131.3111 0.0002441406 4.862
v -132.9089 16.65335 4.862

vn -0.9952782 0.09706377 0
vn -0.9952782 0.09706377 0
vn -0.9952782 0.09706377 0
vn -0.9952782 0.09706377 0
vn 0.9955016 0.09474402 0
vn 0.9955016 0.09474402 0
vn 0.9955016 0.09474402 0
vn 0.9955016 0.09474402 0
vn 0 1 0
vn 0 1 0
vn 0 1 0
vn 0 1 0
vn 0 0 1
vn 0 0 1
vn 0 0 1
vn 0 0 1
vn -0.9952782 0.09706377 0
vn -0.9952782 0.09706377 0
vn -0.9952782 0.09706377 0
vn -0.9952782 0.09706377 0
vn 0.9954285 0.09550979 0
vn 0.9954285 0.09550979 0
vn 0.9954285 0.09550979 0
vn 0.9954285 0.09550979 0
vn 0 1 0
vn 0 1 0
vn 0 1 0
vn 0 1 0
vn 0 0 1
vn 0 0 1
vn 0 0 1
vn 0 0 1
vn -0.9952782 0.09706377 0
vn -0.9952782 0.09706377 0
vn -0.9952782 0.09706377 0
vn -0.9952782 0.09706377 0
vn 0.9954285 0.09550979 0
vn 0.9954285 0.09550979 0
vn 0.9954285 0.09550979 0
vn 0.9954285 0.09550979 0
vn 0 1 0
vn 0 1 0
vn 0 1 0
vn 0 1 0
vn 0 0 1
vn 0 0 1
vn 0 0 1
vn 0 0 1
vn -0.9952782 0.09706377 0
vn -0.9952782 0.09706377 0
vn -0.9952782 0.09706377 0
vn -0.9952782 0.09706377 0
vn 0.9954285 0.09550979 0
vn 0.9954285 0.09550979 0
vn 0.9954285 0.09550979 0
vn 0.9954285 0.09550979 0
vn 0 1 0
vn 0 1 0
vn 0 1 0
vn 0 1 0
vn 0 0 1
vn 0 0 1
vn 0 0 1
vn 0 0 1

vt 0.4513794 0.4160553
vt 0.5486205 0.4160553
vt 0.5486205 0.5839447
vt 0.4513794 0.5839447
vt 0.4513794 0.4160554
vt 0.5486205 0.4160554
vt 0.5486205 0.5839447
vt 0.4513794 0.5839447
vt 0.6106244 0.4513794
vt 0.6106244 0.5486205
vt 0.3889806 0.5486206
vt 0.3889806 0.4513794
vt 0.3893756 0.5839447
vt 0.3730021 0.4160553
vt 0.6269978 0.4160554
vt 0.6110194 0.5839447
vt 0.4513794 0.4160553
vt 0.5486205 0.4160553
vt 0.5486205 0.5839447
vt 0.4513794 0.5839447
vt 0.4513794 0.4174137
vt 0.5486205 0.4174137
vt 0.5486205 0.5839447
vt 0.4513794 0.5839447
vt 0.6106246 0.4513794
vt 0.6106246 0.5486205
vt 0.3889806 0.5486206
vt 0.3889806 0.4513794
vt 0.3893754 0.5839447
vt 0.3730022 0.4160553
vt 0.6269978 0.4174137
vt 0.6110194 0.5839447
vt 0.4513794 0.4160553
vt 0.5486205 0.4160553
vt 0.5486205 0.5839447
vt 0.4513794 0.5839447
vt 0.4513794 0.4174137
vt 0.5486205 0.4174137
vt 0.5486205 0.5839447
vt 0.4513794 0.5839447
vt 0.6106246 0.4513794
vt 0.6106246 0.5486205
vt 0.3889806 0.5486206
vt 0.3889806 0.4513794
vt 0.3893754 0.5839447
vt 0.3730022 0.4160553
vt 0.6269978 0.4174137
vt 0.6110194 0.5839447
vt 0.4513794 0.4160553
vt 0.5486205 0.4160553
vt 0.5486205 0.5839447
vt 0.4513794 0.5839447
vt 0.4513794 0.4174137
vt 0.5486205 0.4174137
vt 0.5486205 0.5839447
vt 0.4513794 0.5839447
vt 0.6106246 0.4513794
vt 0.6106246 0.5486205
vt 0.3889806 0.5486206
vt 0.3889806 0.4513794
vt 0.3893754 0.5839447
vt 0.3730022 0.4160553
vt 0.6269978 0.4174137
vt 0.6110194 0.5839447

usemtl sn15_21_sn1501.JPG
usemap sn15_21_sn1501.JPG
f 3/3/3 1/1/1 2/2/2
f 1/1/1 3/3/3 4/4/4
f 7/7/7 5/5/5 6/6/6
f 5/5/5 7/7/7 8/8/8
f 11/11/11 9/9/9 10/10/10
f 9/9/9 11/11/11 12/12/12
f 15/15/15 13/13/13 14/14/14
f 13/13/13 15/15/15 16/16/16
f 19/19/19 17/17/17 18/18/18
f 17/17/17 19/19/19 20/20/20
f 23/23/23 21/21/21 22/22/22
f 21/21/21 23/23/23 24/24/24
f 27/27/27 25/25/25 26/26/26
f 25/25/25 27/27/27 28/28/28
f 31/31/31 29/29/29 30/30/30
f 29/29/29 31/31/31 32/32/32
f 35/35/35 33/33/33 34/34/34
f 33/33/33 35/35/35 36/36/36
f 39/39/39 37/37/37 38/38/38
f 37/37/37 39/39/39 40/40/40
f 43/43/43 41/41/41 42/42/42
f 41/41/41 43/43/43 44/44/44
f 47/47/47 45/45/45 46/46/46
f 45/45/45 47/47/47 48/48/48
f 51/51/51 49/49/49 50/50/50
f 49/49/49 51/51/51 52/52/52
f 55/55/55 53/53/53 54/54/54
f 53/53/53 55/55/55 56/56/56
f 59/59/59 57/57/57 58/58/58
f 57/57/57 59/59/59 60/60/60
f 63/63/63 61/61/61 62/62/62
f 61/61/61 63/63/63 64/64/64
