mtllib ./Object56.mtl
g Object56
v 0.0002746582 9.848885 8.872742
v 0.0002746582 -9.848366 8.872742
v 0.0002746582 9.848885 -8.873352
v 0.0002746582 -9.848366 -8.873352
v 8.873322 9.848885 -0.0003051758
v 8.873322 -9.848366 -0.0003051758
v -8.872772 9.848885 -0.0003051758
v -8.872772 -9.848366 -0.0003051758

vn 1 0 0
vn 1 0 0
vn 1 0 0
vn 1 0 0
vn 0 0 -1
vn 0 0 -1
vn 0 0 -1
vn 0 0 -1

vt 0 1
vt 0 0
vt 1 1
vt 1 0
vt 0 1
vt 0 0
vt 1 1
vt 1 0

usemtl sn15_68_kay0100.bmp
usemap sn15_68_kay0100.bmp
f 3/3/3 1/1/1 2/2/2
f 2/2/2 4/4/4 3/3/3
f 7/7/7 5/5/5 6/6/6
f 6/6/6 8/8/8 7/7/7
