mtllib ./Object19.mtl
g Object19
v 44.72237 49.35638 -1.280365
v 44.99892 42.57135 -1.285034
v -85.58175 49.35638 -1.280365
v -84.21999 42.57135 -1.285034
v -85.58175 49.35638 1.388153
v 44.72238 49.35638 1.388153
v 44.72237 49.35638 -1.280365
v -85.58175 49.35638 -1.280365
v 44.99893 42.57135 1.307281
v -84.21999 42.57135 1.307281
v -84.21999 42.57135 -1.285034
v 44.99892 42.57135 -1.285034
v 44.99893 42.57135 1.307281
v 44.72238 49.35638 1.388153
v -85.58175 49.35638 1.388153
v -84.21999 42.57135 1.307281

vn 0 0.00068816 -0.9999998
vn 0 0.0006881599 -0.9999998
vn 0 0.0006881599 -0.9999998
vn 0 0.0006881598 -0.9999997
vn 0 1 0
vn 0 1 0
vn 0 1 0
vn 0 1 0
vn 0 -1 0
vn 0 -1 0
vn 0 -1 0
vn 0 -1 0
vn 0 -0.01191826 0.999929
vn 0 -0.01191827 0.999929
vn 0 -0.01191826 0.999929
vn 0 -0.01191827 0.999929

vt 0.0006263723 0.08664689
vt 0.0001001381 0.0009401228
vt 0.9992038 0.08769275
vt 0.9980603 0.002426183
vt 0.9992038 0.08769242
vt 0.0006263719 0.08664689
vt 0.0001607374 0.001150799
vt 0.9982522 0.002514519
vt 0.9992038 0.08672731
vt 0.0006045561 0.08698804
vt 0.0003985404 0.0009401192
vt 0.9982522 0.002426692
vt 0.9982522 0.002426183
vt 0.9991652 0.08769275
vt 0.0006183459 0.08664689
vt 0.0003985404 0.0009401228

usemtl sn15_14_sn1511.JPG
usemap sn15_14_sn1511.JPG
f 3/3/3 1/1/1 2/2/2
f 2/2/2 4/4/4 3/3/3
f 7/7/7 5/5/5 6/6/6
f 5/5/5 7/7/7 8/8/8
f 11/11/11 9/9/9 10/10/10
f 9/9/9 11/11/11 12/12/12
f 15/15/15 13/13/13 14/14/14
f 13/13/13 15/15/15 16/16/16
