mtllib ./Object22.mtl
g Object22
v -3.659607 0.6976471 31.88235
v -4.070892 0.6976471 31.19117
v -9.704285 0.3568268 37.22166
v 2.457336 1.969692 25.66975
v 2.457336 1.969692 27.3476
v 8.615601 4.225403 25.35822
v 8.615601 4.225403 27.11813
v -3.64624 -1.473988 31.04311
v -9.704285 0.3568268 37.22166
v -4.070892 0.6976471 31.19117
v 3.981018 0.09959412 24.39801
v -3.64624 -1.473988 31.04311
v 2.457336 1.969692 25.66975
v -4.070892 0.6976471 31.19117
v 8.615601 2.871368 24.7971
v 3.981018 0.09959412 24.39801
v 8.615601 4.225403 25.35822
v 2.457336 1.969692 25.66975
v 8.615601 4.225403 25.35822
v 8.615601 4.225403 27.11813
v 8.615601 2.871368 24.7971
v 3.981018 0.2125359 25.2216
v 8.615601 2.871376 26.69785
v 2.457336 1.969692 27.3476
v 8.615601 4.225403 27.11813
v -3.10025 -1.572998 31.95498
v 3.981018 0.2125359 25.2216
v -3.659607 0.6976471 31.88235
v 2.457336 1.969692 27.3476
v -3.659607 0.6976471 31.88235
v -9.704285 0.3568268 37.22166
v -3.10025 -1.572998 31.95498
v -3.64624 -1.473988 31.04311
v -3.10025 -1.572998 31.95498
v -4.070892 0.6976471 -28.44551
v -3.659607 0.6976471 -29.1367
v -9.704285 0.3568268 -34.47602
v -3.659607 0.6976471 -29.1367
v -4.070892 0.6976471 -28.44551
v 2.457336 1.969692 -23.69366
v 2.457336 1.969692 -25.37152
v 2.457336 1.969692 -25.37152
v 2.457336 1.969692 -23.69366
v 8.615601 4.225403 -23.38682
v 8.615601 4.225403 -25.14674
v -9.704285 0.3568268 -34.47602
v -3.64624 -1.473988 -28.29745
v -4.070892 0.6976471 -28.44551
v 3.981018 0.09959412 -22.42194
v 2.457336 1.969692 -23.69366
v 3.981018 0.09959412 -22.42194
v 8.615601 2.871368 -22.8257
v 8.615601 4.225403 -23.38682
v 3.981018 0.09959412 -22.42194
v 8.615601 4.225403 -25.14674
v 8.615601 4.225403 -23.38682
v 8.615601 2.871368 -22.8257
v 8.615601 2.871368 -24.72646
v 3.981018 0.2125359 -23.24553
v 2.457336 1.969692 -25.37152
v 8.615601 4.225403 -25.14674
v 8.615601 2.871368 -24.72646
v 3.981018 0.2125359 -23.24553
v -3.10025 -1.572994 -29.20934
v -3.659607 0.6976471 -29.1367
v -9.704285 0.3568268 -34.47602
v -3.10025 -1.572994 -29.20934
v -3.10025 -1.572994 -29.20934
v -3.64624 -1.473988 -28.29745
v 7.453003 3.454918 -26.17146
v 7.453003 5.779892 -28.94791
v 9.703796 3.454918 -26.17146
v 9.703796 5.779892 -28.94788
v 7.453003 5.779892 -28.94791
v 7.453003 5.779892 30.68159
v 9.703796 5.779892 -28.94788
v 9.703796 5.779892 30.68159
v 7.453003 5.779892 30.68159
v 7.453003 3.454918 28.34574
v 9.703796 5.779892 30.68159
v 9.703796 3.454918 28.34574
v 7.453003 3.454918 28.34574
v 7.453003 3.454918 -26.17146
v 9.703796 3.454918 28.34574
v 9.703796 3.454918 -26.17146
v 7.453003 5.779892 -28.94791
v 7.453003 3.454918 -26.17146
v 7.453003 5.779892 30.68159
v 7.453003 3.454918 28.34574

vn -0.137359 0.9901243 0.028044
vn -0.08432011 0.9951748 0.05017472
vn -0.03692383 0.9990765 0.02197154
vn -0.2409425 0.9703622 0.01854231
vn -0.3000932 0.9539098 0
vn -0.3439429 0.9389905 0
vn -0.3439429 0.9389906 0
vn -0.7247488 -0.09519525 -0.6824054
vn -0.6938596 -0.4778297 -0.5387371
vn -0.7247488 -0.09519525 -0.6824054
vn -0.6545061 -0.01928481 -0.7558107
vn -0.6461148 -0.04378907 -0.7619832
vn -0.6461148 -0.04378907 -0.7619832
vn -0.6358891 -0.07195488 -0.7684187
vn -0.1477668 0.3786298 -0.9136764
vn -0.187106 0.4171617 -0.8893636
vn -0.187106 0.4171617 -0.8893636
vn -0.2027899 0.4322839 -0.8786392
vn 1 0 0
vn 1 0 0
vn 1 0 0
vn 0.1752716 -0.6935055 0.698806
vn 0.1685571 -0.5735394 0.801649
vn 0.1685571 -0.5735394 0.801649
vn 0.1426944 -0.2934052 0.9452786
vn 0.6524884 0.1842483 0.7350588
vn 0.6547617 -0.0459886 0.754435
vn 0.6547617 -0.0459886 0.754435
vn 0.6042138 -0.3450617 0.7182327
vn 0.6450834 0.1826449 0.7419625
vn 0.6450834 0.1826449 0.7419625
vn 0.6450834 0.1826449 0.7419625
vn -0.2481176 -0.9677534 0.04348428
vn -0.2481176 -0.9677534 0.04348428
vn -0.03692394 0.9990765 -0.02197137
vn -0.03692394 0.9990765 -0.02197137
vn -0.6981665 -0.7000889 -0.1497965
vn -0.177191 0.9836956 -0.03076185
vn -0.1342931 0.9877144 -0.07991026
vn -0.177191 0.9836956 -0.03076185
vn -0.2035986 0.9790544 0
vn -0.3439429 0.9389906 0
vn -0.3439429 0.9389906 0
vn -0.3439429 0.9389906 0
vn -0.3439429 0.9389905 0
vn -0.7247497 -0.09519668 0.6824042
vn -0.6416276 -0.03555992 0.7661915
vn -0.655694 -0.07701045 0.751089
vn -0.6144438 0.03535291 0.7881681
vn -0.4983403 0.1306028 0.857088
vn -0.1468683 0.3786832 0.9137991
vn -0.1468683 0.3786832 0.9137991
vn -0.1864718 0.4174548 0.8893592
vn -0.2022574 0.4326648 0.8785745
vn 1 0 0
vn 1 0 0
vn 1 0 0
vn 0.1747636 -0.6937757 -0.6986651
vn 0.1747636 -0.6937757 -0.6986651
vn 0.3236611 -0.5218569 -0.7892457
vn 0.141989 -0.2934362 -0.9453752
vn 0.141989 -0.2934362 -0.9453752
vn 0.6044559 -0.09086679 -0.7914394
vn 0.6081564 0.1745907 -0.7743796
vn 0.623461 0.0001504231 -0.7818545
vn 0.6450833 0.1826501 -0.7419612
vn 0.6450833 0.1826501 -0.7419612
vn -0.2481156 -0.9677538 -0.04348622
vn -0.2481156 -0.9677538 -0.04348622
vn 0 -0.7666883 -0.6420194
vn 3.264336E-06 -0.7666871 -0.642021
vn 3.264336E-06 -0.7666871 -0.642021
vn 6.528689E-06 -0.7666858 -0.6420226
vn 0 1 0
vn 0 1 0
vn 0 1 0
vn 0 1 0
vn 0 -0.708756 0.7054538
vn 0 -0.708756 0.7054538
vn 0 -0.708756 0.7054538
vn 0 -0.708756 0.7054538
vn 0 -1 0
vn 0 -1 0
vn 0 -1 0
vn 0 -1 0
vn -1 0 0
vn -1 0 0
vn -1 0 0
vn -1 0 0

vt 0.6432967 0.9165311
vt 0.6249798 0.991118
vt 0.9823177 0.9945915
vt 0.2876987 0.9940934
vt 0.3301747 0.9188823
vt 0.004073442 0.9943159
vt 0.003376691 0.9228183
vt 1 0.9202899
vt 0 0.9202899
vt 1 1
vt 1 0.9202899
vt 0 0.9202899
vt 1 1
vt 0 1
vt 1 0.9202899
vt 0 0.9202899
vt 1 1
vt 0 1
vt 0 1
vt 1 1
vt 0 0.9202899
vt 1 0.9202899
vt 0 0.9202899
vt 1 1
vt 0 1
vt 1 0.9202899
vt 0 0.9202899
vt 1 1
vt 0 1
vt 0 1
vt 1 1
vt 0 0.9202899
vt 0 1
vt 1 1
vt 1 1
vt 1 0.9266425
vt 0 0.9266425
vt 0 0.9266425
vt 0 1
vt 1 1
vt 1 0.9266425
vt 0 0.9266425
vt 0 1
vt 1 1
vt 1 0.9266425
vt 0.979012 0.9885172
vt 0.5823119 0.9244287
vt 0.5842194 0.9965327
vt 0.2765996 0.922807
vt 0.2779018 0.9947659
vt 0.2765996 0.922807
vt 0.0122709 0.9226658
vt 0.0122709 0.9950126
vt 0.2765996 0.922807
vt 0 0.9266425
vt 0 1
vt 1 1
vt 1.00303 1.002915
vt 0.767616 0.9947743
vt 0.7475816 0.9160256
vt 0.99463 0.9232048
vt 1.00303 1.002915
vt 0.767616 0.9947743
vt 0.3554664 0.9219851
vt 0.3546825 0.9959653
vt 0.0004990101 0.9995005
vt 0.3554664 0.9219851
vt 0 1
vt 1 1
vt 0.5169082 0.9275362
vt 0 0.9275362
vt 0.5169082 1
vt 0 1
vt 1.495 0.9304348
vt -0.495 0.9304348
vt 1.495 1
vt -0.495 1
vt 0.5496619 0.9234782
vt 0 0.9234782
vt 0.5496619 1
vt 0 1
vt 1.495 0.9304348
vt -0.495 0.9304348
vt 1.495 1
vt -0.495 1
vt 1.613614 0.9995003
vt 1.551114 0.922338
vt -0.6311033 0.9995005
vt -0.5075312 0.922338

usemtl sn15_13_sn1503.JPG
usemap sn15_13_sn1503.JPG
f 3/3/3 1/1/1 2/2/2
f 4/4/4 2/2/2 1/1/1
f 1/1/1 5/5/5 4/4/4
f 6/6/6 4/4/4 5/5/5
f 5/5/5 7/7/7 6/6/6
f 10/10/10 8/8/8 9/9/9
f 13/13/13 11/11/11 12/12/12
f 12/12/12 14/14/14 13/13/13
f 17/17/17 15/15/15 16/16/16
f 16/16/16 18/18/18 17/17/17
f 21/21/21 19/19/19 20/20/20
f 24/24/24 22/22/22 23/23/23
f 23/23/23 25/25/25 24/24/24
f 28/28/28 26/26/26 27/27/27
f 27/27/27 29/29/29 28/28/28
f 32/32/32 30/30/30 31/31/31
f 9/9/9 33/33/33 34/34/34
f 37/37/37 35/35/35 36/36/36
f 40/40/40 38/38/38 39/39/39
f 38/38/38 40/40/40 41/41/41
f 44/44/44 42/42/42 43/43/43
f 42/42/42 44/44/44 45/45/45
f 48/48/48 46/46/46 47/47/47
f 50/50/50 47/47/47 49/49/49
f 47/47/47 50/50/50 48/48/48
f 53/53/53 51/51/51 52/52/52
f 54/54/54 53/53/53 50/50/50
f 57/57/57 55/55/55 56/56/56
f 60/60/60 58/58/58 59/59/59
f 62/62/62 60/60/60 61/61/61
f 65/65/65 63/63/63 64/64/64
f 63/63/63 65/65/65 60/60/60
f 67/67/67 66/66/66 65/65/65
f 37/37/37 68/68/68 69/69/69
f 72/72/72 70/70/70 71/71/71
f 71/71/71 73/73/73 72/72/72
f 76/76/76 74/74/74 75/75/75
f 75/75/75 77/77/77 76/76/76
f 80/80/80 78/78/78 79/79/79
f 79/79/79 81/81/81 80/80/80
f 84/84/84 82/82/82 83/83/83
f 83/83/83 85/85/85 84/84/84
f 88/88/88 86/86/86 87/87/87
f 87/87/87 89/89/89 88/88/88
