mtllib ./Object23.mtl
g Object23
v -3.658875 0.6973839 32.17474
v -4.07016 0.6973839 31.47723
v -9.703552 0.3565636 37.56305
v 2.458069 1.969429 25.90515
v 2.458069 1.969429 27.59839
v 8.616333 4.225143 25.59076
v 8.616333 4.225143 27.36682
v 8.616333 4.225143 25.59076
v -3.645508 -1.474255 31.32782
v -9.703552 0.3565636 37.56305
v -4.07016 0.6973839 31.47723
v 3.98175 0.0993309 24.62177
v -3.645508 -1.474255 31.32782
v 2.458069 1.969429 25.90515
v -4.07016 0.6973839 31.47723
v 8.616333 2.871109 25.02448
v 3.98175 0.0993309 24.62177
v 8.616333 4.225143 25.59076
v 2.458069 1.969429 25.90515
v 8.616333 4.225143 25.59076
v 3.98175 0.0993309 24.62177
v 8.616333 4.225143 25.59076
v 8.616333 4.225143 27.36682
v 8.616333 2.871109 25.02448
v 3.98175 0.2122726 25.45288
v 8.616333 2.871109 26.94269
v 2.458069 1.969429 27.59839
v 8.616333 4.225143 27.36682
v -3.099518 -1.573261 32.24805
v 3.98175 0.2122726 25.45288
v -3.658875 0.6973839 32.17474
v 2.458069 1.969429 27.59839
v 3.98175 0.2122726 25.45288
v -3.658875 0.6973839 32.17474
v -9.703552 0.3565636 37.56305
v -3.099518 -1.573261 32.24805
v -3.645508 -1.474255 31.32782
v -3.099518 -1.573261 32.24805
v -4.07016 0.6973839 -28.7066
v -3.658875 0.6973839 -29.40411
v -9.703552 0.3565636 -34.79242
v -3.658875 0.6973839 -29.40411
v -4.07016 0.6973839 -28.7066
v 2.458069 1.969429 -23.91113
v 2.458069 1.969429 -25.60437
v -3.658875 0.6973839 -29.40411
v 2.458069 1.969429 -25.60437
v 2.458069 1.969429 -23.91113
v 8.616333 4.225143 -23.6015
v 8.616333 4.225143 -25.37756
v -9.703552 0.3565636 -34.79242
v -3.645508 -1.474251 -28.55719
v -4.07016 0.6973839 -28.7066
v 3.98175 0.0993309 -22.62775
v 2.458069 1.969429 -23.91113
v 3.98175 0.0993309 -22.62775
v 8.616333 2.871109 -23.03522
v 8.616333 4.225143 -23.6015
v 3.98175 0.0993309 -22.62775
v 8.616333 4.225143 -25.37756
v 8.616333 4.225143 -23.6015
v 8.616333 2.871109 -23.03522
v 8.616333 2.871109 -24.95343
v 3.98175 0.2122726 -23.45892
v 2.458069 1.969429 -25.60437
v 8.616333 4.225143 -25.37756
v 8.616333 2.871109 -24.95343
v -3.099518 -1.573261 -29.47742
v -3.658875 0.6973839 -29.40411
v -9.703552 0.3565636 -34.79242
v -3.099518 -1.573261 -29.47742
v -3.645508 -1.474251 -28.55719
v -9.703552 0.3565636 -34.79242
v 7.453735 3.454659 -26.41168
v 7.453735 5.779633 -29.21356
v 9.704529 3.454659 -26.41168
v 9.704529 5.779633 -29.21356
v 7.453735 5.779633 -29.21356
v 7.453735 5.779633 30.96295
v 9.704529 5.779633 -29.21356
v 9.704529 5.779633 30.96295
v 7.453735 5.779633 30.96295
v 7.453735 3.454659 28.60571
v 9.704529 5.779633 30.96295
v 9.704529 3.454659 28.60571
v 7.453735 3.454659 28.60571
v 7.453735 3.454659 -26.41168
v 9.704529 3.454659 28.60571
v 9.704529 3.454659 -26.41168
v 7.453735 5.779633 -29.21356
v 7.453735 3.454659 -26.41168
v 7.453735 5.779633 30.96295
v 7.453735 3.454659 28.60571

vn -0.13736 0.9901313 0.02778935
vn -0.08432163 0.9951974 0.0497201
vn -0.03692381 0.9990808 0.02177206
vn -0.2409436 0.9703653 0.01837381
vn -0.3000936 0.9539098 0
vn -0.3439434 0.9389904 0
vn -0.3439434 0.9389904 0
vn -0.3439434 0.9389904 0
vn -0.7278223 -0.09560005 -0.6790694
vn -0.6956893 -0.479089 -0.5352477
vn -0.7278223 -0.09560005 -0.6790694
vn -0.657915 -0.01939221 -0.7528425
vn -0.6495362 -0.04402541 -0.759055
vn -0.6495362 -0.04402541 -0.759055
vn -0.6393151 -0.07234395 -0.7655342
vn -0.1489116 0.3815342 -0.9122812
vn -0.1489116 0.3815342 -0.9122812
vn -0.1489116 0.3815342 -0.9122812
vn -0.2042198 0.43533 -0.8768022
vn -0.2042198 0.43533 -0.8768022
vn -0.2042198 0.43533 -0.8768022
vn 1 0 0
vn 1 0 0
vn 1 0 0
vn 0.1760504 -0.6965933 0.6955315
vn 0.169545 -0.5769058 0.7990208
vn 0.169545 -0.5769058 0.7990208
vn 0.1438612 -0.2958061 0.9443531
vn 0.6557029 0.1851575 0.7319635
vn 0.6557029 0.1851575 0.7319635
vn 0.6581611 -0.04622792 0.7514565
vn 0.6070539 -0.3466873 0.7150478
vn 0.6070539 -0.3466873 0.7150478
vn 0.6483215 0.1835634 0.738907
vn 0.6483215 0.1835634 0.738907
vn 0.6483215 0.1835634 0.738907
vn -0.2481195 -0.9677705 0.04309269
vn -0.2481195 -0.9677705 0.04309269
vn -0.03692381 0.9990808 -0.02177206
vn -0.03692381 0.9990808 -0.02177206
vn -0.03692381 0.9990808 -0.02177206
vn -0.1342996 0.9877715 -0.07918954
vn -0.1342996 0.9877715 -0.07918954
vn -0.1771922 0.983704 -0.03048276
vn -0.2035986 0.9790545 0
vn -0.2035986 0.9790545 0
vn -0.3439434 0.9389905 0
vn -0.3439434 0.9389904 0
vn -0.3439434 0.9389905 0
vn -0.3439434 0.9389904 0
vn -0.7278223 -0.09560016 0.6790694
vn -0.6450644 -0.03575148 0.7632914
vn -0.6590676 -0.07740683 0.7480896
vn -0.6179289 0.03555053 0.7854298
vn -0.5016874 0.131479 0.8549988
vn -0.1479951 0.3815873 0.9124081
vn -0.1479951 0.3815873 0.9124081
vn -0.1878197 0.4204793 0.8876491
vn -0.2036818 0.435721 0.8767331
vn 1 0 0
vn 1 0 0
vn 1 0 0
vn 0.175537 -0.6968539 -0.6954001
vn 0.5023138 -0.3024951 -0.810048
vn 0.3255001 -0.5248139 -0.786524
vn 0.1431462 -0.2958371 -0.9444519
vn 0.1431462 -0.2958371 -0.9444519
vn 0.6286118 0.1792849 -0.7567722
vn 0.6269379 0.0001546497 -0.7790692
vn 0.6483215 0.1835635 -0.738907
vn -0.2481216 -0.9677701 -0.04308995
vn -0.2481216 -0.9677701 -0.04308995
vn -0.2481216 -0.9677701 -0.04308995
vn 0 -0.7695603 -0.6385741
vn 0 -0.7695603 -0.6385741
vn 0 -0.7695603 -0.6385741
vn 0 -0.7695603 -0.6385741
vn 0 1 0
vn 0 1 0
vn 0 1 0
vn 0 1 0
vn 0 -0.7119625 0.7022175
vn 0 -0.7119625 0.7022175
vn 0 -0.7119625 0.7022175
vn 0 -0.7119625 0.7022175
vn 0 -0.9999999 0
vn 0 -0.9999999 0
vn 0 -0.9999999 0
vn 0 -0.9999999 0
vn -1 0 0
vn -1 0 0
vn -1 0 0
vn -1 0 0

vt 0.6432967 0.9165311
vt 0.6249798 0.991118
vt 0.9823177 0.9945915
vt 0.2876987 0.9940934
vt 0.3301747 0.9188823
vt 0.004073442 0.9943159
vt 0.003376691 0.9228183
vt 0.004073442 0.9943159
vt 1 0.9202899
vt 0 0.9202899
vt 1 1
vt 1 0.9202899
vt 0 0.9202899
vt 1 1
vt 0 1
vt 1 0.9202899
vt 0 0.9202899
vt 1 1
vt 0 1
vt 1 1
vt 0 0.9202899
vt 0 1
vt 1 1
vt 0 0.9202899
vt 1 0.9202899
vt 0 0.9202899
vt 1 1
vt 0 1
vt 1 0.9202899
vt 0 0.9202899
vt 1 1
vt 0 1
vt 0 0.9202899
vt 0 1
vt 1 1
vt 0 0.9202899
vt 0 1
vt 1 1
vt 1 1
vt 1 0.9266425
vt 0 0.9266425
vt 0 0.9266425
vt 0 1
vt 1 1
vt 1 0.9266425
vt 0 0.9266425
vt 0 0.9266425
vt 0 1
vt 1 1
vt 1 0.9266425
vt 0.979012 0.9885172
vt 0.5823119 0.9244287
vt 0.5842194 0.9965327
vt 0.2765996 0.922807
vt 0.2779018 0.9947659
vt 0.2765996 0.922807
vt 0.0122709 0.9226658
vt 0.0122709 0.9950126
vt 0.2765996 0.922807
vt 0 0.9266425
vt 0 1
vt 1 1
vt 1.00303 1.002915
vt 0.767616 0.9947743
vt 0.7475816 0.9160256
vt 0.99463 0.9232048
vt 1.00303 1.002915
vt 0.3554664 0.9219851
vt 0.3546825 0.9959653
vt 0.0004990101 0.9995005
vt 0 1
vt 1 1
vt 0 0.9266425
vt 0.5169082 0.9275362
vt 0 0.9275362
vt 0.5169082 1
vt 0 1
vt 1.495 0.9304348
vt -0.495 0.9304348
vt 1.495 1
vt -0.495 1
vt 0.5496619 0.9234782
vt 0 0.9234782
vt 0.5496619 1
vt 0 1
vt 1.495 0.9304348
vt -0.495 0.9304348
vt 1.495 1
vt -0.495 1
vt 1.613614 0.9995003
vt 1.551114 0.922338
vt -0.6311033 0.9995005
vt -0.5075312 0.922338

usemtl sn15_13_sn1503.JPG
usemap sn15_13_sn1503.JPG
f 3/3/3 1/1/1 2/2/2
f 4/4/4 2/2/2 1/1/1
f 1/1/1 5/5/5 4/4/4
f 6/6/6 4/4/4 5/5/5
f 5/5/5 7/7/7 8/8/8
f 11/11/11 9/9/9 10/10/10
f 14/14/14 12/12/12 13/13/13
f 13/13/13 15/15/15 14/14/14
f 18/18/18 16/16/16 17/17/17
f 21/21/21 19/19/19 20/20/20
f 24/24/24 22/22/22 23/23/23
f 27/27/27 25/25/25 26/26/26
f 26/26/26 28/28/28 27/27/27
f 31/31/31 29/29/29 30/30/30
f 33/33/33 32/32/32 31/31/31
f 36/36/36 34/34/34 35/35/35
f 10/10/10 37/37/37 38/38/38
f 41/41/41 39/39/39 40/40/40
f 44/44/44 42/42/42 43/43/43
f 46/46/46 44/44/44 45/45/45
f 49/49/49 47/47/47 48/48/48
f 47/47/47 49/49/49 50/50/50
f 53/53/53 51/51/51 52/52/52
f 55/55/55 52/52/52 54/54/54
f 52/52/52 55/55/55 53/53/53
f 58/58/58 56/56/56 57/57/57
f 59/59/59 58/58/58 55/55/55
f 62/62/62 60/60/60 61/61/61
f 65/65/65 63/63/63 64/64/64
f 67/67/67 65/65/65 66/66/66
f 69/69/69 64/64/64 68/68/68
f 64/64/64 69/69/69 65/65/65
f 68/68/68 70/70/70 69/69/69
f 73/73/73 71/71/71 72/72/72
f 76/76/76 74/74/74 75/75/75
f 75/75/75 77/77/77 76/76/76
f 80/80/80 78/78/78 79/79/79
f 79/79/79 81/81/81 80/80/80
f 84/84/84 82/82/82 83/83/83
f 83/83/83 85/85/85 84/84/84
f 88/88/88 86/86/86 87/87/87
f 87/87/87 89/89/89 88/88/88
f 92/92/92 90/90/90 91/91/91
f 91/91/91 93/93/93 92/92/92
