mtllib ./Object02.mtl
g Object02
v 12.41403 21.31056 4.766052
v 12.71069 10.09836 2.235992
v 12.41403 21.31056 0.7060852
v 12.41403 21.31056 0.7060852
v 12.71069 10.09836 0.7086487
v 12.41403 21.31056 -3.353912
v 12.71069 10.09836 -0.8187256
v 12.71069 11.6655 -3.50119
v 8.16185 11.6655 4.918457
v 8.458511 21.31056 4.766052
v 8.16185 10.00826 2.235992
v 8.16185 10.00826 2.235992
v 8.458511 21.31056 0.7060852
v 8.16185 10.00826 0.7086487
v 8.458511 21.31056 4.766052
v 8.16185 10.00826 0.7086487
v 8.458511 21.31056 -3.353912
v 8.16185 10.00826 -0.8187256
v 8.458511 21.31056 0.7060852
v 8.16185 10.00826 -0.8187256
v 8.16185 11.6655 -3.50119
v -7.514145 -18.96548 71.31522
v -12.06297 -22.59987 66.39619
v -7.514145 -22.59987 66.39619
v -12.06297 -18.96548 71.31522
v 12.71069 10.09836 2.235992
v 8.16185 10.00826 0.7086487
v 12.71069 10.09836 0.7086487
v 8.16185 10.00826 2.235992
v 12.71069 10.09836 0.7086487
v 8.16185 10.00826 -0.8187256
v 12.71069 10.09836 -0.8187256
v 8.16185 10.00826 0.7086487
v -6.439453 -22.93623 -67.3277
v -12.76962 -19.38417 -71.31491
v -8.220795 -19.38417 -71.31491
v -10.9883 -22.93623 -67.3277
v 12.71069 11.6655 -3.50119
v 8.458511 21.31056 -3.353912
v 12.41403 21.31056 -3.353912
v 12.71069 11.6655 -3.50119
v 8.16185 11.6655 -3.50119
v 12.39742 22.93604 -3.523499
v 8.475143 22.93604 0.7060852
v 12.39742 22.93604 0.7060852
v 8.475143 22.93604 -3.523499
v 8.475143 22.93604 4.935638
v 12.39742 22.93604 4.935638
v 12.41403 21.31056 4.766052
v 8.16185 11.6655 4.918457
v 12.71069 11.6655 4.918457
v 12.71069 11.6655 4.918457
v 10.93394 -8.945358 30.06122
v 12.71069 10.09836 2.235992
v 10.93394 -5.584671 31.70271
v 12.71069 10.09836 -0.8187256
v 10.93394 -5.037598 -32.83771
v 12.71069 11.6655 -3.50119
v 10.93394 -5.037598 -32.83771
v 12.71069 10.09836 -0.8187256
v 10.93394 -8.945358 -30.9866
v 8.16185 10.00826 2.235992
v 6.385101 -5.584671 31.70271
v 8.16185 11.6655 4.918457
v 6.385101 -8.945358 30.06122
v 8.16185 11.6655 -3.50119
v 6.385101 -8.945358 -30.9866
v 8.16185 10.00826 -0.8187256
v 6.385101 -5.037598 -32.83771
v 12.71069 10.09836 2.235992
v 6.385101 -8.945358 30.06122
v 8.16185 10.00826 2.235992
v 10.93394 -8.945358 30.06122
v 8.16185 11.6655 4.918457
v 10.93394 -5.584671 31.70271
v 12.71069 11.6655 4.918457
v 6.385101 -5.584671 31.70271
v 10.93394 -8.945358 -30.9866
v 12.71069 10.09836 -0.8187256
v 6.385101 -8.945358 -30.9866
v 12.71069 11.6655 -3.50119
v 6.385101 -5.037598 -32.83771
v 8.16185 11.6655 -3.50119
v 10.93394 -5.037598 -32.83771
v -7.514145 -22.59987 66.39619
v 10.93394 -8.945358 30.06122
v -7.514145 -18.96548 71.31522
v 10.93394 -8.945358 30.06122
v 6.385101 -8.945358 30.06122
v -7.514145 -22.59987 66.39619
v 6.385101 -8.945358 30.06122
v -12.06297 -18.96548 71.31522
v 6.385101 -5.584671 31.70271
v 6.385101 -8.945358 30.06122
v -12.06297 -22.59987 66.39619
v 6.385101 -5.584671 31.70271
v -12.06297 -18.96548 71.31522
v 10.93394 -8.945358 -30.9866
v -8.220795 -19.38417 -71.31491
v 10.93394 -5.037598 -32.83771
v -8.220795 -19.38417 -71.31491
v 10.93394 -8.945358 -30.9866
v -6.439453 -22.93623 -67.3277
v 10.93394 -5.037598 -32.83771
v -8.220795 -19.38417 -71.31491
v -10.9883 -22.93623 -67.3277
v 6.385101 -8.945358 -30.9866
v -12.76962 -19.38417 -71.31491
v 6.385101 -8.945358 -30.9866
v 10.93394 -8.945358 -30.9866
v -10.9883 -22.93623 -67.3277
v 12.41403 21.31056 0.7060852
v 12.77003 21.77182 5.485474
v 12.41403 21.31056 4.766052
v 12.77003 21.77182 0.7060852
v 12.41403 21.31056 -3.353912
v 12.77003 21.77182 -4.073334
v 8.458511 21.31056 4.766052
v 8.102524 21.77182 0.7060852
v 8.458511 21.31056 0.7060852
v 8.102524 21.77182 5.485474
v 8.102524 21.77182 -4.073334
v 8.458511 21.31056 -3.353912
v 8.458511 21.31056 -3.353912
v 12.77003 21.77182 -4.073334
v 12.41403 21.31056 -3.353912
v 8.102524 21.77182 -4.073334
v 12.41403 21.31056 4.766052
v 8.102524 21.77182 5.485474
v 8.458511 21.31056 4.766052
v 12.77003 21.77182 5.485474
v 8.102524 21.77182 -4.073334
v 12.39742 22.93604 -3.523499
v 12.77003 21.77182 -4.073334
v 12.39742 22.93604 -3.523499
v 8.102524 21.77182 -4.073334
v 8.475143 22.93604 -3.523499
v 12.39742 22.93604 0.7060852
v 12.39742 22.93604 -3.523499
v 8.475143 22.93604 -3.523499
v 8.102524 21.77182 -4.073334
v 8.475143 22.93604 0.7060852
v 12.39742 22.93604 4.935638
v 8.475143 22.93604 4.935638
v 12.77003 21.77182 5.485474
v 8.475143 22.93604 4.935638
v 8.102524 21.77182 5.485474
v 12.39742 22.93604 4.935638
v 8.458511 21.31056 4.766052
v 12.71069 10.09836 -0.8187256
v 12.71069 10.09836 0.7086487
v 12.41403 21.31056 4.766052
v 12.71069 11.6655 4.918457
v 12.71069 10.09836 2.235992

vn 0.9996502 0.02644954 0
vn 0.9996501 0.02644954 0
vn 0.9996501 0.02644954 0
vn 0.9996502 0.02644953 0
vn 0.9996501 0.02644954 0
vn 0.9996043 0.02763231 0.005236338
vn 0.9993773 0.0304669 0.01779925
vn 0.9993773 0.0304669 0.01779925
vn -0.9993596 0.03044097 -0.01880661
vn -0.9993596 0.03044097 -0.01880661
vn -0.9993596 0.03044097 -0.01880661
vn -0.9996557 0.02623883 0
vn -0.9996557 0.02623883 0
vn -0.9996557 0.02623882 0
vn -0.9996557 0.02623883 0
vn -0.9996557 0.02623882 0
vn -0.9996073 0.02747244 0.005505367
vn -0.9996557 0.02623882 0
vn -0.9996557 0.02623882 0
vn -0.9993591 0.03045086 0.01881272
vn -0.9993591 0.03045086 0.01881272
vn 0 0.8978329 0.4403362
vn 0 -0.9717467 -0.2360262
vn 0 -0.8042861 0.5942423
vn 0 -0.8042861 0.5942423
vn 0.01980404 -0.9998039 0
vn 0.01980404 -0.9998039 0
vn 0.01980404 -0.9998039 0
vn 0.01980404 -0.9998039 0
vn 0.01980404 -0.9998039 0
vn 0.008905948 -0.8578895 0.5137571
vn 0.01980404 -0.9998039 0
vn 0.01980404 -0.9998039 0
vn 0 -0.9680941 0.2505873
vn 0 0.8875974 -0.4606199
vn 0 -0.7466774 -0.6651863
vn 0 -0.7466774 -0.6651863
vn 0 0.01526798 -0.9998834
vn 0 0.01526798 -0.9998835
vn 0 0.01526798 -0.9998834
vn 0 0.01526798 -0.9998834
vn 0 0.01526798 -0.9998834
vn 0 1 0
vn 0 1 0
vn 0 1 0
vn 0 1 0
vn 0 1 0
vn 0 1 0
vn 0 0.01579935 0.9998752
vn 0 0.01579935 0.9998752
vn 0 0.01579935 0.9998751
vn 0.9985083 -0.03601137 0.04104057
vn 0.9985083 -0.03601137 0.04104057
vn 0.9983053 -0.05024801 0.02935569
vn 0.5297397 0.7936256 0.2992227
vn 0.9981565 -0.05240458 -0.03061559
vn 0.9981565 -0.05240458 -0.03061559
vn 0.9981565 -0.05240458 -0.03061559
vn 0.998744 -0.02144966 -0.04528113
vn 0.998744 -0.02144966 -0.04528113
vn 0.998744 -0.02144966 -0.04528113
vn -0.9985091 0.03563245 -0.04135124
vn -0.9985091 0.03563245 -0.04135124
vn -0.9980962 0.05247013 -0.03241634
vn -0.9985813 0.02336936 -0.04784486
vn -0.9986631 0.03264748 0.04007511
vn -0.9986631 0.03264748 0.04007511
vn -0.9984602 0.04719187 0.0291554
vn -0.6129972 0.7509452 -0.2455926
vn 0.008181375 -0.8260708 -0.5635069
vn 0.008181375 -0.8260708 -0.5635069
vn 0.01637825 -0.8268533 -0.562179
vn 0 -0.8252326 -0.5647931
vn 0 0.8407254 0.5414619
vn 0.7513681 0.2600874 0.6064656
vn 0 0.8407254 0.5414619
vn 0 0.8407254 0.5414619
vn 0.008382458 -0.8463741 0.5325229
vn 0.01675627 -0.8459378 0.5330182
vn 0 -0.8467511 0.5319895
vn 0 0.8690157 -0.4947844
vn -0.7624415 0.6467457 0.02007568
vn 0 0.8690157 -0.4947844
vn 0 0.8690157 -0.4947844
vn 0.894665 -0.3056074 0.3258505
vn 0.9024298 -0.1890878 0.3871257
vn 0.8807058 -0.3809611 0.281471
vn 0 -0.9360842 -0.351776
vn 0 -0.9360842 -0.3517759
vn 0 -0.9360842 -0.351776
vn -0.9136589 0.1783986 -0.3652415
vn -0.8946652 0.3056072 -0.3258504
vn -0.9136589 0.1783986 -0.3652415
vn -0.8701422 0.3963527 -0.292843
vn -0.8701422 0.3963527 -0.292843
vn 0 0.9474083 0.3200274
vn 0 0.9474083 0.3200274
vn 0.9056637 -0.181512 -0.3831795
vn 0.9056637 -0.181512 -0.3831795
vn 0.9056637 -0.181512 -0.3831795
vn 0.9052809 -0.02220984 -0.4242325
vn 0.9052809 -0.02220984 -0.4242325
vn 0.9052809 -0.02220984 -0.4242325
vn 0 0.936987 -0.3493641
vn 0 0.936987 -0.349364
vn -0.9085453 0.1004345 0.4055344
vn -0.9128082 0.1748302 0.369074
vn -0.8999574 0.03636255 0.4344587
vn 0 -0.9332291 0.3592816
vn 0 -0.9332291 0.3592816
vn 0 -0.9332291 0.3592816
vn 0.7916368 -0.610992 0
vn 0.9901129 -0.140273 0
vn 0.7916367 -0.610992 0
vn 0.999916 0.01296012 0
vn 0.7916367 -0.610992 0
vn 0.991602 0.129327 0
vn -0.7916494 -0.6109756 0
vn -0.9999159 0.01297042 0
vn -0.7916494 -0.6109756 0
vn -0.9916013 0.1293325 0
vn -0.7916495 -0.6109756 0
vn -0.7916495 -0.6109756 0
vn 0 -0.841831 -0.539741
vn 0 -0.841831 -0.539741
vn 0 -0.8418311 -0.539741
vn 0 -0.8418311 -0.5397411
vn 0 -0.841831 0.539741
vn 0 -0.841831 0.539741
vn 0 -0.8418311 0.539741
vn 0 -0.8418311 0.5397411
vn 0 0.4270489 -0.9042286
vn 0 0.4270489 -0.9042286
vn 0 0.4270489 -0.9042286
vn 0 0.4270488 -0.9042285
vn 0 0.4270488 -0.9042285
vn 0 0.4270488 -0.9042285
vn 0.9524073 0.3048283 0
vn 0.9524073 0.3048283 0
vn -0.9524074 0.3048283 0
vn -0.9524073 0.3048283 0
vn -0.9524074 0.3048283 0
vn 0.9524074 0.3048283 0
vn -0.9524074 0.3048283 0
vn 0 0.4270489 0.9042286
vn 0 0.4270489 0.9042286
vn 0 0.4270489 0.9042286
vn 0 0.4270488 0.9042285
vn 0 0.01579935 0.9998751
vn 0.9996501 0.02644954 0
vn 0.9996502 0.02644954 0
vn 0.9993777 0.03045753 -0.01779378
vn 0.9993777 0.03045753 -0.01779378
vn 0.9993777 0.03045753 -0.01779378

vt 0 1
vt 0 0.9251208
vt 1 1
vt 0 1
vt 0 0.9251208
vt 1 1
vt 0 0.9251208
vt 1 0.9251208
vt 0 0.9251208
vt 1 1
vt 0 1
vt 0 0.9251208
vt 1 1
vt 0 1
vt 1 0.9251208
vt 0 0.9251208
vt 1 1
vt 0 1
vt 1 0.9251208
vt 0 0.9251208
vt 0 1
vt 0 0.9178744
vt 1 1
vt 0 1
vt 1 0.9178744
vt 0 0.9251208
vt 1 1
vt 0 1
vt 1 0.9251208
vt 0 0.9251208
vt 1 1
vt 0 1
vt 1 0.9251208
vt 0 0.9178744
vt 1 1
vt 0 1
vt 1 0.9178744
vt 0.04464146 0.9931327
vt 0.6216897 0.9265791
vt 0.6042374 0.9944394
vt 0.04464146 0.9931327
vt 0.06209388 0.9252723
vt 0.08025411 0.2789822
vt 0.919749 0.4999999
vt 0.0802542 0.5000001
vt 0.9197489 0.2789821
vt 0.9197491 0.7210178
vt 0.08025432 0.721018
vt 0.6216897 0.9265791
vt 0.04464146 0.9931327
vt 0.06209388 0.9252723
vt 0 0.9178744
vt 1 1
vt 0 1
vt 1 0.9178744
vt 0 0.9178744
vt 1 1
vt 0 1
vt 1 1
vt 0 0.9178744
vt 1 0.9178744
vt 1 1
vt 0 0.9178744
vt 1 0.9178744
vt 0 1
vt 1 1
vt 0 0.9178744
vt 1 0.9178744
vt 0 1
vt 0 0.9178744
vt 1 1
vt 0 1
vt 1 0.9178744
vt 1 1
vt 0 0.9178744
vt 1 0.9178744
vt 0 1
vt 0 0.9178744
vt 1 0.9178744
vt 0 1
vt 0 0.9178744
vt 1 1
vt 0 1
vt 1 0.9178744
vt 1 1
vt 0 1
vt 1 0.9178744
vt 0 0.9178744
vt 0 1
vt 1 0.9178744
vt 1 1
vt 0 0.9178744
vt 1 0.9178744
vt 1 1
vt 0 1
vt 1 1
vt 0 1
vt 0 0.9178744
vt 1 1
vt 0 1
vt 1 1
vt 0 0.9178744
vt 1 0.9178744
vt 0 0.9178744
vt 1 0.9178744
vt 0 0.9178744
vt 1 0.9178744
vt 0 1
vt 1 1
vt 1 0.9178744
vt 0 1
vt 0.5 0.8738911
vt 0.2502497 0.9095353
vt 0.2878439 0.8738911
vt 0.4999999 0.9095353
vt 0.7121562 0.873891
vt 0.7497501 0.9095353
vt 0.712156 0.8738911
vt 0.4999999 0.9095353
vt 0.4999999 0.8738911
vt 0.7497501 0.9095353
vt 0.2502497 0.9095353
vt 0.2878437 0.873891
vt 0.07669139 0.07568762
vt 0.9994988 0.0004996061
vt 0.9233025 0.07568771
vt 0.000498414 0.0004995167
vt 0.9233022 0.9243122
vt 0.0004979372 0.9995003
vt 0.076691 0.9243121
vt 0.9994984 0.9995005
vt 0.9995016 0.9095353
vt 0.08025399 0.9995004
vt 0.0005011559 0.9095353
vt 0.08025399 0.9995004
vt 0.9995016 0.9095353
vt 0.9197488 0.9995004
vt 0.4999999 0.9995004
vt 0.7210178 0.9995004
vt 0.2789821 0.9995004
vt 0.2502497 0.9095353
vt 0.4999999 0.9995004
vt 0.2789821 0.9995004
vt 0.7210178 0.9995004
vt 0.9994984 0.9095354
vt 0.0802508 0.9995005
vt 0.0004979372 0.9095354
vt 0.9197456 0.9995005
vt 0.6042374 0.9944394
vt 1 0.9251208
vt 1 0.9251208
vt 1 1
vt 0 0.9251208
vt 1 0.9251208

usemtl sn15_13_sn1503.JPG
usemap sn15_13_sn1503.JPG
f 3/3/3 1/1/1 2/2/2
f 6/6/6 4/4/4 5/5/5
f 8/8/8 6/6/6 7/7/7
f 11/11/11 9/9/9 10/10/10
f 14/14/14 12/12/12 13/13/13
f 15/15/15 13/13/13 12/12/12
f 18/18/18 16/16/16 17/17/17
f 19/19/19 17/17/17 16/16/16
f 21/21/21 20/20/20 17/17/17
f 24/24/24 22/22/22 23/23/23
f 25/25/25 23/23/23 22/22/22
f 28/28/28 26/26/26 27/27/27
f 29/29/29 27/27/27 26/26/26
f 32/32/32 30/30/30 31/31/31
f 33/33/33 31/31/31 30/30/30
f 36/36/36 34/34/34 35/35/35
f 37/37/37 35/35/35 34/34/34
f 40/40/40 38/38/38 39/39/39
f 42/42/42 39/39/39 41/41/41
f 45/45/45 43/43/43 44/44/44
f 46/46/46 44/44/44 43/43/43
f 48/48/48 45/45/45 47/47/47
f 44/44/44 47/47/47 45/45/45
f 51/51/51 49/49/49 50/50/50
f 54/54/54 52/52/52 53/53/53
f 55/55/55 53/53/53 52/52/52
f 58/58/58 56/56/56 57/57/57
f 61/61/61 59/59/59 60/60/60
f 64/64/64 62/62/62 63/63/63
f 65/65/65 63/63/63 62/62/62
f 68/68/68 66/66/66 67/67/67
f 69/69/69 67/67/67 66/66/66
f 72/72/72 70/70/70 71/71/71
f 73/73/73 71/71/71 70/70/70
f 76/76/76 74/74/74 75/75/75
f 77/77/77 75/75/75 74/74/74
f 79/79/79 31/31/31 78/78/78
f 80/80/80 78/78/78 31/31/31
f 83/83/83 81/81/81 82/82/82
f 84/84/84 82/82/82 81/81/81
f 86/86/86 75/75/75 85/85/85
f 87/87/87 85/85/85 75/75/75
f 89/89/89 88/88/88 23/23/23
f 90/90/90 23/23/23 88/88/88
f 93/93/93 91/91/91 92/92/92
f 95/95/95 92/92/92 94/94/94
f 55/55/55 96/96/96 22/22/22
f 97/97/97 22/22/22 96/96/96
f 100/100/100 98/98/98 99/99/99
f 103/103/103 101/101/101 102/102/102
f 69/69/69 104/104/104 35/35/35
f 105/105/105 35/35/35 104/104/104
f 107/107/107 82/82/82 106/106/106
f 108/108/108 106/106/106 82/82/82
f 110/110/110 109/109/109 34/34/34
f 111/111/111 34/34/34 109/109/109
f 114/114/114 112/112/112 113/113/113
f 115/115/115 113/113/113 112/112/112
f 112/112/112 116/116/116 115/115/115
f 117/117/117 115/115/115 116/116/116
f 120/120/120 118/118/118 119/119/119
f 121/121/121 119/119/119 118/118/118
f 123/123/123 120/120/120 122/122/122
f 119/119/119 122/122/122 120/120/120
f 126/126/126 124/124/124 125/125/125
f 127/127/127 125/125/125 124/124/124
f 130/130/130 128/128/128 129/129/129
f 131/131/131 129/129/129 128/128/128
f 134/134/134 132/132/132 133/133/133
f 137/137/137 135/135/135 136/136/136
f 115/115/115 117/117/117 138/138/138
f 139/139/139 138/138/138 117/117/117
f 141/141/141 119/119/119 140/140/140
f 142/142/142 140/140/140 119/119/119
f 113/113/113 115/115/115 143/143/143
f 138/138/138 143/143/143 115/115/115
f 119/119/119 121/121/121 142/142/142
f 144/144/144 142/142/142 121/121/121
f 147/147/147 145/145/145 146/146/146
f 148/148/148 146/146/146 145/145/145
f 149/149/149 50/50/50 49/49/49
f 150/150/150 6/6/6 5/5/5
f 151/151/151 3/3/3 2/2/2
f 154/154/154 152/152/152 153/153/153
