mtllib ./Object63.mtl
g Object63
v -107.2069 -7.192558 -7.192993
v -107.2069 -7.192558 7.192993
v -260.4189 -7.192558 7.192993
v -260.4189 -7.192558 -7.192993
v -107.2069 7.193405 -7.192993
v -260.4189 7.193405 -7.192993
v -260.4189 7.193405 7.192993
v -107.2069 7.193405 7.192993
v -107.2069 -7.192558 -7.192993
v -260.4189 -7.192558 -7.192993
v -260.4189 7.193405 -7.192993
v -107.2069 7.193405 -7.192993
v -260.4189 -7.192558 7.192993
v -107.2069 -7.192558 7.192993
v -107.2069 7.193405 7.192993
v -260.4189 7.193405 7.192993
v -91.40038 -7.192558 -7.192993
v -91.40038 -7.192558 7.192993
v -91.40038 7.193405 7.192993
v -91.40038 7.193405 -7.192993
v -91.40038 7.193405 -7.192993
v -91.40038 -7.192558 -7.192993
v -91.40038 -7.192558 7.192993
v -91.40038 7.193405 7.192993
v -58.10869 -7.192558 -7.192993
v -58.10869 -7.192558 7.192993
v -58.10869 7.193405 -7.192993
v -58.10869 -7.192558 -7.192993
v -58.10869 7.193405 7.192993
v -58.10869 7.193405 -7.192993
v -58.10869 -7.192558 7.192993
v -58.10869 7.193405 7.192993
v -44.54892 -7.192558 -7.192993
v -44.54892 -7.192558 7.192993
v -44.54892 7.193405 -7.192993
v -44.54892 -7.192558 -7.192993
v -44.54892 7.193405 7.192993
v -44.54892 7.193405 -7.192993
v -44.54892 -7.192558 7.192993
v -44.54892 7.193405 7.192993
v 90.61221 -7.192558 -7.192993
v 90.61221 -7.192558 7.192993
v 90.61221 7.193405 -7.192993
v 90.61221 -7.192558 -7.192993
v 90.61221 7.193405 7.192993
v 90.61221 7.193405 -7.192993
v 90.61221 -7.192558 7.192993
v 90.61221 7.193405 7.192993
v 104.5996 -7.192558 -7.192993
v 104.5996 -7.192558 7.192993
v 104.5996 7.193405 -7.192993
v 104.5996 -7.192558 -7.192993
v 104.5996 7.193405 7.192993
v 104.5996 7.193405 -7.192993
v 104.5996 -7.192558 7.192993
v 104.5996 7.193405 7.192993
v 135.7668 -7.192558 -7.192993
v 135.7668 -7.192558 7.192993
v 135.7668 7.193405 -7.192993
v 135.7668 -7.192558 -7.192993
v 135.7668 7.193405 7.192993
v 135.7668 7.193405 -7.192993
v 135.7668 -7.192558 7.192993
v 135.7668 7.193405 7.192993
v 155.4323 -7.192558 -7.192993
v 155.4323 -7.192558 7.192993
v 155.4323 7.193405 -7.192993
v 155.4323 -7.192558 -7.192993
v 155.4323 7.193405 7.192993
v 155.4323 7.193405 -7.192993
v 155.4323 -7.192558 7.192993
v 155.4323 7.193405 7.192993
v 260.4197 -7.192558 -7.192993
v 260.4197 -7.192558 7.192993
v 260.4197 7.193405 -7.192993
v 260.4197 -7.192558 -7.192993
v 260.4197 7.193405 7.192993
v 260.4197 7.193405 -7.192993
v 260.4197 -7.192558 7.192993
v 260.4197 7.193405 7.192993

vn 0 -1 0
vn 0 -1 0
vn 0 -1 0
vn 0 -1 0
vn 0 1 0
vn 0 1 0
vn 0 1 0
vn 0 1 0
vn 0 0 -1
vn 0 0 -1
vn 0 0 -1
vn 0 0 -1
vn 0 0 1
vn 0 0 1
vn 0 0 1
vn 0 0 1
vn 0 -1 0
vn 0 -1 0
vn 0 1 0
vn 0 1 0
vn 0 0 -1
vn 0 0 -1
vn 0 0 1
vn 0 0 1
vn 0 -1 0
vn 0 -1 0
vn 0 0 -1
vn 0 0 -1
vn 0 1 0
vn 0 1 0
vn 0 0 1
vn 0 0 1
vn 0 -1 0
vn 0 -1 0
vn 0 0 -1
vn 0 0 -1
vn 0 1 0
vn 0 1 0
vn 0 0 1
vn 0 0 1
vn 0 -1 0
vn 0 -1 0
vn 0 0 -1
vn 0 0 -1
vn 0 1 0
vn 0 1 0
vn 0 0 1
vn 0 0 1
vn 0 -1 0
vn 0 -1 0
vn 0 0 -1
vn 0 0 -1
vn 0 1 0
vn 0 1 0
vn 0 0 1
vn 0 0 1
vn 0 -1 0
vn 0 -1 0
vn 0 0 -1
vn 0 0 -1
vn 0 1 0
vn 0 1 0
vn 0 0 1
vn 0 0 1
vn 0 -1 0
vn 0 -1 0
vn 0 0 -1
vn 0 0 -1
vn 0 1 0
vn 0 1 0
vn 0 0 1
vn 0 0 1
vn 0 -1 0
vn 0 -1 0
vn 0 0 -1
vn 0 0 -1
vn 0 1 0
vn 0 1 0
vn 0 0 1
vn 0 0 1

vt -0.0627538 0.000502646
vt -0.0627538 0.9994912
vt -0.8669963 0.9994876
vt -0.8669963 0.0004990101
vt 1.062754 0.000502646
vt 1.866996 0.0004990101
vt 1.866996 0.9994876
vt 1.062754 0.9994912
vt 1.062754 0.0004995167
vt 1.866996 0.0004995167
vt 1.866996 0.9995005
vt 1.062754 0.9995005
vt -0.8669963 0.0004995167
vt -0.0627538 0.0004995167
vt -0.0627538 0.9995005
vt -0.8669963 0.9995005
vt 0.0202179 0.0005030334
vt 0.0202179 0.9994916
vt 0.9797821 0.9994916
vt 0.9797821 0.0005030334
vt 0.9797821 0.9995005
vt 0.9797821 0.0004995167
vt 0.0202179 0.0004995167
vt 0.0202179 0.9995005
vt 0.194973 0.0005038083
vt 0.194973 0.9994924
vt 0.805027 0.9995005
vt 0.805027 0.0004995167
vt 0.805027 0.9994924
vt 0.805027 0.0005038083
vt 0.194973 0.0004995167
vt 0.194973 0.9995005
vt 0.2661511 0.0005041361
vt 0.2661511 0.9994928
vt 0.7338489 0.9995005
vt 0.7338489 0.0004995167
vt 0.7338489 0.9994928
vt 0.7338489 0.0005041361
vt 0.2661511 0.0004995167
vt 0.2661511 0.9995005
vt 0.9756405 0.0005073547
vt 0.9756405 0.999496
vt 0.02435952 0.9995005
vt 0.02435952 0.0004995167
vt 0.02435952 0.999496
vt 0.02435952 0.0005073547
vt 0.9756405 0.0004995167
vt 0.9756405 0.9995005
vt 1.049064 0.0005076826
vt 1.049063 0.9994963
vt -0.04906356 0.9995005
vt -0.04906356 0.0004995167
vt -0.0490635 0.9994963
vt -0.04906356 0.0005076826
vt 1.049063 0.0004995167
vt 1.049063 0.9995005
vt 1.212667 0.0005084276
vt 1.212667 0.9994971
vt -0.2126665 0.9995005
vt -0.2126665 0.0004995167
vt -0.2126665 0.9994971
vt -0.2126665 0.0005084276
vt 1.212667 0.0004995167
vt 1.212667 0.9995005
vt 1.315895 0.0005089045
vt 1.315895 0.9994975
vt -0.3158951 0.9995005
vt -0.3158951 0.0004995167
vt -0.3158951 0.9994975
vt -0.3158951 0.0005089045
vt 1.315895 0.0004995167
vt 1.315895 0.9995005
vt 1.866996 0.0005114079
vt 1.866996 0.9995
vt -0.8669963 0.9995005
vt -0.8669963 0.0004995167
vt -0.8669963 0.9995
vt -0.8669963 0.0005114079
vt 1.866996 0.0004995167
vt 1.866996 0.9995005

usemtl sn15_18_sn1547.JPG
usemap sn15_18_sn1547.JPG
f 3/3/3 1/1/1 2/2/2
f 1/1/1 3/3/3 4/4/4
f 7/7/7 5/5/5 6/6/6
f 5/5/5 7/7/7 8/8/8
f 11/11/11 9/9/9 10/10/10
f 9/9/9 11/11/11 12/12/12
f 15/15/15 13/13/13 14/14/14
f 13/13/13 15/15/15 16/16/16
f 17/17/17 2/2/2 1/1/1
f 2/2/2 17/17/17 18/18/18
f 19/19/19 5/5/5 8/8/8
f 5/5/5 19/19/19 20/20/20
f 21/21/21 9/9/9 12/12/12
f 9/9/9 21/21/21 22/22/22
f 23/23/23 15/15/15 14/14/14
f 15/15/15 23/23/23 24/24/24
f 25/25/25 18/18/18 17/17/17
f 18/18/18 25/25/25 26/26/26
f 27/27/27 22/22/22 21/21/21
f 22/22/22 27/27/27 28/28/28
f 29/29/29 20/20/20 19/19/19
f 20/20/20 29/29/29 30/30/30
f 31/31/31 24/24/24 23/23/23
f 24/24/24 31/31/31 32/32/32
f 33/33/33 26/26/26 25/25/25
f 26/26/26 33/33/33 34/34/34
f 35/35/35 28/28/28 27/27/27
f 28/28/28 35/35/35 36/36/36
f 37/37/37 30/30/30 29/29/29
f 30/30/30 37/37/37 38/38/38
f 39/39/39 32/32/32 31/31/31
f 32/32/32 39/39/39 40/40/40
f 41/41/41 34/34/34 33/33/33
f 34/34/34 41/41/41 42/42/42
f 43/43/43 36/36/36 35/35/35
f 36/36/36 43/43/43 44/44/44
f 45/45/45 38/38/38 37/37/37
f 38/38/38 45/45/45 46/46/46
f 47/47/47 40/40/40 39/39/39
f 40/40/40 47/47/47 48/48/48
f 49/49/49 42/42/42 41/41/41
f 42/42/42 49/49/49 50/50/50
f 51/51/51 44/44/44 43/43/43
f 44/44/44 51/51/51 52/52/52
f 53/53/53 46/46/46 45/45/45
f 46/46/46 53/53/53 54/54/54
f 55/55/55 48/48/48 47/47/47
f 48/48/48 55/55/55 56/56/56
f 57/57/57 50/50/50 49/49/49
f 50/50/50 57/57/57 58/58/58
f 59/59/59 52/52/52 51/51/51
f 52/52/52 59/59/59 60/60/60
f 61/61/61 54/54/54 53/53/53
f 54/54/54 61/61/61 62/62/62
f 63/63/63 56/56/56 55/55/55
f 56/56/56 63/63/63 64/64/64
f 65/65/65 58/58/58 57/57/57
f 58/58/58 65/65/65 66/66/66
f 67/67/67 60/60/60 59/59/59
f 60/60/60 67/67/67 68/68/68
f 69/69/69 62/62/62 61/61/61
f 62/62/62 69/69/69 70/70/70
f 71/71/71 64/64/64 63/63/63
f 64/64/64 71/71/71 72/72/72
f 73/73/73 66/66/66 65/65/65
f 66/66/66 73/73/73 74/74/74
f 75/75/75 68/68/68 67/67/67
f 68/68/68 75/75/75 76/76/76
f 77/77/77 70/70/70 69/69/69
f 70/70/70 77/77/77 78/78/78
f 79/79/79 72/72/72 71/71/71
f 72/72/72 79/79/79 80/80/80
