mtllib ./Object26.mtl
g Object26
v -5.997101 6.535601 -6.366455
v -5.997101 6.535601 6.371826
v 5.997467 6.535601 6.371826
v 5.997467 6.535601 -6.366455
v -5.997101 5.393261 -6.366455
v -5.997101 5.393261 6.371826
v -5.997101 6.535601 6.371826
v -5.997101 6.535601 -6.366455
v -5.997101 5.393261 6.371826
v 5.997467 5.393261 6.371826
v -5.997101 6.535601 6.371826
v 5.997467 5.393261 6.371826
v 5.997467 5.393261 -6.366455
v 5.997467 6.535601 -6.366455
v 5.997467 6.535601 6.371826
v 5.997467 5.393261 -6.366455
v -5.997101 5.393261 -6.366455
v -5.997101 6.535601 -6.366455
v -5.448944 3.941229 -6.366455
v -5.448944 3.941229 6.371826
v -4.291901 3.941229 6.371826
v -4.291901 3.941229 -6.366455
v -5.448944 2.079218 -6.366455
v -5.448944 2.079218 6.371826
v -5.448944 3.941229 6.371826
v -5.448944 3.941229 -6.366455
v -4.291901 2.079218 6.371826
v -4.291901 2.079218 -6.366455
v -4.291901 3.941229 -6.366455
v -4.291901 3.941229 6.371826
v -5.604767 5.760128 6.201294
v 5.605133 0.295723 7.457275
v 5.605133 5.76013 6.201294
v -5.604767 0.295723 7.457275
v 5.605133 -5.596909 6.201294
v -5.604767 -5.596909 6.201294
v 5.605133 -6.535885 7.076538
v -5.604767 -6.535889 7.076538
v -5.604767 5.760128 5.379395
v 5.605133 0.2957268 6.635498
v -5.604767 0.295723 6.635498
v 5.605133 5.76013 5.379395
v 5.605133 -5.596909 5.379395
v -5.604767 -5.596909 5.379395
v -5.604767 -5.596909 5.379395
v 5.605133 -6.535885 6.254639
v -5.604767 -6.535889 6.254639
v 5.605133 -5.596909 5.379395
v -5.604767 5.760128 6.201294
v -5.604767 0.295723 6.635498
v -5.604767 0.295723 7.457275
v -5.604767 5.760128 5.379395
v -5.604767 -5.596909 5.379395
v -5.604767 -5.596909 6.201294
v -5.604767 -6.535889 6.254639
v -5.604767 -6.535889 7.076538
v 5.605133 -6.535885 7.076538
v 5.605133 -5.596909 5.379395
v 5.605133 -5.596909 6.201294
v 5.605133 -6.535885 6.254639
v 5.605133 0.2957268 6.635498
v 5.605133 0.295723 7.457275
v 5.605133 5.76013 5.379395
v 5.605133 5.76013 6.201294
v -5.604767 5.760128 -6.202148
v 5.605133 5.760128 -6.202148
v 5.605133 0.295723 -7.45813
v -5.604767 0.295723 -7.45813
v 5.605133 -5.596909 -6.202026
v -5.604767 -5.596909 -6.202026
v 5.605133 -6.535885 -7.077393
v -5.604767 -6.535885 -7.077393
v -5.604767 5.760128 -5.380249
v -5.604767 0.295723 -6.636353
v 5.605133 0.2957268 -6.636353
v 5.605133 5.760128 -5.380249
v -5.604767 -5.596909 -5.380249
v 5.605133 -5.596909 -5.380249
v -5.604767 -6.535885 -6.255493
v 5.605133 -6.535885 -6.255493
v -5.604767 5.760128 -6.202148
v -5.604767 0.295723 -7.45813
v -5.604767 0.295723 -6.636353
v -5.604767 5.760128 -5.380249
v -5.604767 -5.596909 -6.202026
v -5.604767 -5.596909 -5.380249
v -5.604767 -6.535885 -7.077393
v -5.604767 -6.535885 -6.255493
v 5.605133 -6.535885 -7.077393
v 5.605133 -5.596909 -6.202026
v 5.605133 -5.596909 -5.380249
v 5.605133 -6.535885 -6.255493
v 5.605133 0.295723 -7.45813
v 5.605133 0.2957268 -6.636353
v 5.605133 5.760128 -6.202148
v 5.605133 5.760128 -5.380249

vn 0 1 0
vn 0 1 0
vn 0 0.9960031 0.08931926
vn 0 0.9960031 -0.08931926
vn -1 0 0
vn -1 0 0
vn -1 0 0
vn -1 0 0
vn 0 0 1
vn 0 0 1
vn 0 0 1
vn 1 0 0
vn 1 0 0
vn 1 0 0
vn 1 0 0
vn 0 0 -1
vn 0 0 -1
vn 0 0 -1
vn 0 1 0
vn 0 1 0
vn 0 1 0
vn 0 1 0
vn -1 0 0
vn -1 0 0
vn -1 0 0
vn -1 0 0
vn 1 0 0
vn 1 0 0
vn 1 0 0
vn 1 0 0
vn -1.905722E-08 0.2240068 0.9745877
vn -1.266896E-08 0.07445823 0.9972242
vn -3.811443E-08 0.2240067 0.9745876
vn 0 -0.07261968 0.9973597
vn 0 -0.1275789 0.9918285
vn -3.825217E-08 0.06350981 0.9979812
vn -1.16015E-07 0.6818453 0.7314964
vn -2.320298E-07 0.6818446 0.731497
vn 5.689912E-08 -0.2240275 -0.9745828
vn 1.260862E-08 -0.07446542 -0.9972236
vn 0 0.07262668 -0.9973592
vn 3.793275E-08 -0.2240276 -0.9745829
vn -3.530039E-08 0.208481 -0.9780264
vn 0 0.2084811 -0.9780264
vn 1.159827E-07 -0.6818453 -0.7314964
vn 1.159827E-07 -0.6818453 -0.7314964
vn 2.319651E-07 -0.6818446 -0.731497
vn 0 -0.6818461 -0.7314957
vn -1 0 0
vn -0.9999999 0 0
vn -1 0 0
vn -1 0 0
vn -0.9999999 0 0
vn -1 0 0
vn -1 0 0
vn -1 0 0
vn 1 0 0
vn 1 0 0
vn 1 0 0
vn 1 0 0
vn 1 0 0
vn 0.9999999 0 0
vn 1 0 0
vn 1 0 0
vn 0 0.2240068 -0.9745876
vn 0 0.2240068 -0.9745876
vn 0 0.07445104 -0.9972247
vn 0 -0.07263371 -0.9973586
vn 0 -0.1275882 -0.9918272
vn 0 0.06352546 -0.9979803
vn 0 0.6818969 -0.7314482
vn 0 0.6818969 -0.7314482
vn 3.793275E-08 -0.2240276 0.9745828
vn 0 0.07262668 0.9973592
vn 0 -0.07446544 0.9972236
vn 0 -0.2240276 0.9745828
vn 0 -0.06349423 0.9979821
vn -3.315674E-08 0.1275976 0.991826
vn 0 -0.6818461 0.7314957
vn 0 -0.6818461 0.7314957
vn -1 0 0
vn -1 0 0
vn -0.9999999 0 0
vn -1 0 0
vn -0.9999999 0 0
vn -1 0 0
vn -1 0 0
vn -1 0 0
vn 0.9999999 0 0
vn 1 0 0
vn 1 0 0
vn 1 0 0
vn 1 0 0
vn 1 0 0
vn 1 0 0
vn 1 0 0

vt 0.0004995465 0.0004998744
vt 0.9995003 0.0004995167
vt 0.9995005 0.9995002
vt 0.0004997253 0.9995005
vt 0.0004995465 0.0004996061
vt 0.9995003 0.0004996061
vt 0.9995003 0.9995004
vt 0.0004995465 0.9995004
vt 0.0004995167 0.0004996061
vt 0.9995002 0.0004996061
vt 0.0004995167 0.9995004
vt 0.0004995465 0.0004996061
vt 0.9995003 0.0004996061
vt 0.9995003 0.9995004
vt 0.0004995465 0.9995004
vt 0.0004995167 0.0004996061
vt 0.9995002 0.0004996061
vt 0.9995002 0.9995004
vt 0.0004995465 0.0004998446
vt 0.9995003 0.0004994869
vt 0.9995005 0.9995002
vt 0.0004997253 0.9995005
vt 0.0004995465 0.0004995465
vt 0.9995003 0.0004995465
vt 0.9995003 0.9995005
vt 0.0004995465 0.9995005
vt 0.0004995465 0.0004995465
vt 0.9995003 0.0004995465
vt 0.9995003 0.9995005
vt 0.0004995465 0.9995005
vt 0.9995005 0.0004998744
vt 0.55554 0.9995003
vt 0.9995003 0.9995005
vt 0.5555401 0.0004997253
vt 0.07678762 0.9995002
vt 0.07678777 0.0004995465
vt 0.0004995167 0.9995002
vt 0.0004996657 0.0004995167
vt 0.0004995167 0.0004998744
vt 0.44446 0.9995003
vt 0.4444599 0.0004997253
vt 0.0004996657 0.9995005
vt 0.9232124 0.9995002
vt 0.9232123 0.0004995465
vt 0.9232123 0.0004995465
vt 0.9995005 0.9995002
vt 0.9995003 0.0004995167
vt 0.9232124 0.9995002
vt 0.0004995167 0.604382
vt 0.4444599 0.3956179
vt 0.4444599 0.0004995167
vt 0.0004995167 0.9995005
vt 0.9232123 0.9995004
vt 0.9232122 0.6043819
vt 0.9995003 0.5786973
vt 0.9995003 0.1835788
vt 0.0004995167 0.1835788
vt 0.07678759 0.9995004
vt 0.07678762 0.6043819
vt 0.0004995167 0.5786973
vt 0.55554 0.395618
vt 0.55554 0.0004995465
vt 0.9995003 0.9995005
vt 0.9995003 0.604382
vt 0.9995005 0.0004998744
vt 0.9995003 0.9995005
vt 0.5555399 0.9995003
vt 0.5555401 0.0004996955
vt 0.07678762 0.9995002
vt 0.07678777 0.0004995465
vt 0.0004995167 0.9995002
vt 0.0004996657 0.0004995167
vt 0.0004995167 0.0004998744
vt 0.4444599 0.0004996955
vt 0.44446 0.9995003
vt 0.0004996657 0.9995005
vt 0.9232123 0.0004995465
vt 0.9232124 0.9995002
vt 0.9995003 0.0004995167
vt 0.9995005 0.9995002
vt 0.0004995167 0.604382
vt 0.4444599 0.0004995465
vt 0.4444599 0.395618
vt 0.0004995167 0.9995005
vt 0.9232122 0.604382
vt 0.9232123 0.9995004
vt 0.9995003 0.1835788
vt 0.9995003 0.5786973
vt 0.0004995167 0.1835788
vt 0.07678762 0.604382
vt 0.07678759 0.9995004
vt 0.0004995167 0.5786973
vt 0.5555399 0.0004995763
vt 0.55554 0.395618
vt 0.9995003 0.604382
vt 0.9995003 0.9995005

usemtl sn15_58_sn1559.JPG
usemap sn15_58_sn1559.JPG
f 3/3/3 1/1/1 2/2/2
f 1/1/1 3/3/3 4/4/4
f 7/7/7 5/5/5 6/6/6
f 5/5/5 7/7/7 8/8/8
f 3/3/3 9/9/9 10/10/10
f 9/9/9 3/3/3 11/11/11
f 14/14/14 12/12/12 13/13/13
f 12/12/12 14/14/14 15/15/15
f 18/18/18 16/16/16 17/17/17
f 16/16/16 18/18/18 4/4/4

usemtl sn15_50_sn1560.JPG
usemap sn15_50_sn1560.JPG
f 21/21/21 19/19/19 20/20/20
f 19/19/19 21/21/21 22/22/22
f 25/25/25 23/23/23 24/24/24
f 23/23/23 25/25/25 26/26/26
f 29/29/29 27/27/27 28/28/28
f 27/27/27 29/29/29 30/30/30
f 33/33/33 31/31/31 32/32/32
f 34/34/34 32/32/32 31/31/31
f 32/32/32 34/34/34 35/35/35
f 36/36/36 35/35/35 34/34/34
f 35/35/35 36/36/36 37/37/37
f 38/38/38 37/37/37 36/36/36
f 41/41/41 39/39/39 40/40/40
f 42/42/42 40/40/40 39/39/39
f 44/44/44 41/41/41 43/43/43
f 40/40/40 43/43/43 41/41/41
f 47/47/47 45/45/45 46/46/46
f 48/48/48 46/46/46 45/45/45
f 51/51/51 49/49/49 50/50/50
f 52/52/52 50/50/50 49/49/49
f 54/54/54 51/51/51 53/53/53
f 50/50/50 53/53/53 51/51/51
f 56/56/56 54/54/54 55/55/55
f 53/53/53 55/55/55 54/54/54
f 59/59/59 57/57/57 58/58/58
f 60/60/60 58/58/58 57/57/57
f 62/62/62 59/59/59 61/61/61
f 58/58/58 61/61/61 59/59/59
f 64/64/64 62/62/62 63/63/63
f 61/61/61 63/63/63 62/62/62
f 67/67/67 65/65/65 66/66/66
f 65/65/65 67/67/67 68/68/68
f 69/69/69 68/68/68 67/67/67
f 68/68/68 69/69/69 70/70/70
f 71/71/71 70/70/70 69/69/69
f 70/70/70 71/71/71 72/72/72
f 75/75/75 73/73/73 74/74/74
f 73/73/73 75/75/75 76/76/76
f 78/78/78 74/74/74 77/77/77
f 74/74/74 78/78/78 75/75/75
f 80/80/80 77/77/77 79/79/79
f 77/77/77 80/80/80 78/78/78
f 83/83/83 81/81/81 82/82/82
f 81/81/81 83/83/83 84/84/84
f 86/86/86 82/82/82 85/85/85
f 82/82/82 86/86/86 83/83/83
f 88/88/88 85/85/85 87/87/87
f 85/85/85 88/88/88 86/86/86
f 91/91/91 89/89/89 90/90/90
f 89/89/89 91/91/91 92/92/92
f 94/94/94 90/90/90 93/93/93
f 90/90/90 94/94/94 91/91/91
f 96/96/96 93/93/93 95/95/95
f 93/93/93 96/96/96 94/94/94
