mtllib ./Plane51.mtl
g Plane51
v -29.42957 12.19466 -51.67722
v 0.3154297 33.38092 -53.18518
v 27.87619 12.19466 -51.67722
v 59.45938 5.082001 -61.60367
v -62.35776 5.082001 -61.60367
v -29.42957 12.19466 -51.67722
v 27.87619 12.19466 -51.67722
v 58.52402 0.09765625 -59.92166
v -61.27994 0.09765625 -59.92166
v -62.35776 5.082001 -61.60367
v 59.45938 5.082001 -61.60367
v 49.32364 -4.834015 -55.69229
v -52.17618 -4.834015 -55.69229
v -61.27994 0.09765625 -59.92166
v 49.32364 -4.834015 -55.69229
v 58.52402 0.09765625 -59.92166
v 58.1301 0.1600647 99.11362
v 49.12531 -4.848938 95.00613
v 59.45938 5.082001 -61.60367
v 59.18347 5.109955 100.7693
v 59.18347 5.109955 100.7693
v 27.87619 12.19466 -51.67722
v 27.61111 12.19916 90.85959
v 59.45938 5.082001 -61.60367
v 0.3154297 33.38092 -53.18518
v 0.02804565 33.48155 92.36789
v -61.27994 0.09765625 -59.92166
v -52.17618 -4.834015 -55.69229
v -61.53198 0.1600647 99.11362
v -52.2948 -4.848938 95.00616
v -62.35776 5.082001 -61.60367
v -61.27994 0.09765625 -59.92166
v -62.65662 5.109955 100.7693
v -29.42957 12.19466 -51.67722
v -62.35776 5.082001 -61.60367
v -29.73923 12.19916 90.85959
v -62.65662 5.109955 100.7693
v 0.3154297 33.38092 -53.18518
v 0.02804565 33.48155 92.36789
v 27.61111 12.19916 90.85959
v 0.02804565 33.48155 92.36789
v -29.73923 12.19916 90.85959
v -62.65662 5.109955 100.7693
v 59.18347 5.109955 100.7693
v 27.61111 12.19916 90.85959
v -29.73923 12.19916 90.85959
v -61.53198 0.1600647 99.11362
v 58.1301 0.1600647 99.11362
v 59.18347 5.109955 100.7693
v -62.65662 5.109955 100.7693
v -52.2948 -4.848938 95.00616
v 49.12531 -4.848938 95.00613
v -52.17618 -4.834015 -55.69229
v -51.62753 -4.502167 -19.47641
v 48.70242 -4.502167 -19.47641
v 49.32364 -4.834015 -55.69229
v -51.62753 -4.502167 20.41531
v 48.70242 -4.502167 20.41531
v -52.2948 -4.848938 95.00616
v 49.12531 -4.848938 95.00613
v -0.0002441406 34.0968 92.49915
v -0.0002441406 34.0968 90.80978
v -0.0002441406 32.74277 90.27118
v -0.0002441406 34.0968 -51.79208
v -0.0002441406 34.0968 -53.48141
v -0.0002441406 32.74277 -51.25345

vn 0 -0.07099693 -0.9974765
vn 0 -0.07099693 -0.9974765
vn 0 -0.07099693 -0.9974765
vn 0 0.8128675 -0.5824484
vn 0 0.8128676 -0.5824485
vn 0 0.8128675 -0.5824484
vn 0 0.8128676 -0.5824485
vn 0 -0.4533698 -0.8913225
vn 0 -0.3197429 -0.9475043
vn 0 -0.3197429 -0.9475043
vn 0 -0.3197429 -0.9475044
vn 0 -0.6509886 -0.7590874
vn 0 -0.6509886 -0.7590874
vn 0 -0.6509886 -0.7590874
vn 0.4792504 -0.8776776 0.001050952
vn 0.8007528 -0.5989916 0.001995569
vn 0.6144274 -0.788972 0.001423852
vn 0.4859204 -0.8740029 0.0005529708
vn 0.9829462 -0.1838857 0.001701912
vn 0.9805436 -0.1962899 0.002098686
vn 0.2193926 0.9756366 0.0002854064
vn 0.4263688 0.9045492 0.0005996685
vn 0.4323563 0.9017025 0.0007755762
vn 0.2197629 0.9755532 0.0002054753
vn 0.6094292 0.7928402 0.0006551278
vn 0.6101647 0.7922741 0.000880966
vn -0.476171 -0.8793527 -0.0004095778
vn -0.4765031 -0.8791727 -0.0004354577
vn -0.6104328 -0.7920677 -0.0006780446
vn -0.4768487 -0.8789853 -0.0004623926
vn -0.9772846 -0.2119237 -0.001762275
vn -0.976292 -0.2164515 -0.001612539
vn -0.976292 -0.2164515 -0.001612539
vn -0.4733955 0.8808492 -0.001205332
vn -0.2108359 0.9775214 -0.0005248236
vn -0.3420478 0.9396822 -0.0007970402
vn -0.2106963 0.9775513 -0.000556096
vn -0.5802035 0.8144698 -0.001708674
vn -0.5808743 0.813992 -0.001500872
vn 0 -0.0706935 0.997498
vn 0 -0.0706935 0.997498
vn 0 -0.0706935 0.997498
vn 0 0.813313 0.5818263
vn 0 0.8133131 0.5818264
vn 0 0.813313 0.5818263
vn 0 0.813313 0.5818263
vn 0 -0.444802 0.8956289
vn 7.537647E-08 -0.5454727 0.8381286
vn 0 -0.3172169 0.948353
vn 0 -0.3172169 0.9483531
vn 1.067389E-07 -0.6340875 0.7732614
vn 2.32676E-07 -0.6340891 0.77326
vn 0 0.9999581 -0.009162672
vn 0 0.9999959 -0.002860765
vn 0 0.9999825 -0.005920879
vn 0 0.9999579 -0.009162671
vn 5.005857E-10 0.9999932 0.003672274
vn 0 0.9999975 0.002246296
vn 1.260624E-09 0.9999891 0.004648928
vn 6.337184E-10 0.9999893 0.004648929
vn -1 0 0
vn -1 0 0
vn -1 0 0
vn -1 0 0
vn -1 0 0
vn -1 0 0

vt 1.204446 0.242287
vt 0.4724261 1.012061
vt -0.1743205 0.2454276
vt 2.315045 0.6098061
vt -1.315045 0.6098069
vt -0.3338012 0.3901934
vt 1.373882 0.3901931
vt -1.174945 0.7188467
vt 4.948532 0.7188448
vt 4.997502 0.9994982
vt -1.223916 0.9995004
vt -0.6775872 0.4185966
vt 4.451174 0.418595
vt 4.948532 0.7188448
vt 0.2877313 0.4363916
vt 0.1029366 0.7544684
vt 9.897063 0.7544628
vt 9.712269 0.436386
vt 0.004995167 0.9995005
vt 9.995005 0.9994946
vt 2.111291 0.01250243
vt -0.9142833 0.4496156
vt 1.914615 0.4540721
vt -1.111292 0.007864118
vt -0.9442122 0.9128935
vt 1.94455 0.9177246
vt 0.1029366 0.7480249
vt 0.2877313 0.0004993677
vt 9.897063 0.7480288
vt 9.712269 0.0005031228
vt 0.004995167 0.9994967
vt 0.1029366 0.7480249
vt 9.995005 0.9995003
vt -0.6457352 0.4521101
vt -0.8681318 0.000500381
vt 2.645735 0.4521092
vt 2.868132 0.0004995465
vt -0.6457351 0.9050484
vt 2.645736 0.9050473
vt 1.214735 0.2351613
vt 0.4724261 1.012061
vt -0.1846097 0.238302
vt -1.537946 0.01459897
vt 2.537946 0.01459864
vt 1.481762 0.9091358
vt -0.4367666 0.9091356
vt -1.791802 0.7188467
vt 4.948532 0.7188448
vt 4.997502 0.9994982
vt -1.840773 0.9995004
vt -1.294444 0.4455273
vt 4.451174 0.4455257
vt 0 0
vt 0.3333333 0
vt 0.3333333 1
vt 0 1
vt 0.6666667 0
vt 0.6666667 1
vt 1 0
vt 1 1
vt 1 0.2222222
vt 0 0.2222222
vt 0 0.0410628
vt 0 0.2222222
vt 1 0.2222222
vt 0 0.0410628

usemtl sn15_14_sn1511.JPG
usemap sn15_14_sn1511.JPG
f 3/3/3 1/1/1 2/2/2
f 42/42/42 40/40/40 41/41/41

usemtl sn15_13_sn1503.JPG
usemap sn15_13_sn1503.JPG
f 6/6/6 4/4/4 5/5/5
f 4/4/4 6/6/6 7/7/7
f 23/23/23 21/21/21 22/22/22
f 24/24/24 22/22/22 21/21/21
f 26/26/26 22/22/22 25/25/25
f 22/22/22 26/26/26 23/23/23
f 29/29/29 27/27/27 28/28/28
f 28/28/28 30/30/30 29/29/29
f 33/33/33 31/31/31 32/32/32
f 32/32/32 29/29/29 33/33/33
f 36/36/36 34/34/34 35/35/35
f 35/35/35 37/37/37 36/36/36
f 39/39/39 38/38/38 34/34/34
f 34/34/34 36/36/36 39/39/39
f 45/45/45 43/43/43 44/44/44
f 43/43/43 45/45/45 46/46/46
f 55/55/55 53/53/53 54/54/54
f 53/53/53 55/55/55 56/56/56
f 58/58/58 54/54/54 57/57/57
f 54/54/54 58/58/58 55/55/55
f 60/60/60 57/57/57 59/59/59
f 57/57/57 60/60/60 58/58/58
f 63/63/63 61/61/61 62/62/62
f 66/66/66 64/64/64 65/65/65

usemtl sn15_12_sn1506.JPG
usemap sn15_12_sn1506.JPG
f 10/10/10 8/8/8 9/9/9
f 8/8/8 10/10/10 11/11/11
f 14/14/14 12/12/12 13/13/13
f 12/12/12 14/14/14 8/8/8
f 17/17/17 15/15/15 16/16/16
f 15/15/15 17/17/17 18/18/18
f 20/20/20 16/16/16 19/19/19
f 16/16/16 20/20/20 17/17/17
f 49/49/49 47/47/47 48/48/48
f 47/47/47 49/49/49 50/50/50
f 48/48/48 51/51/51 52/52/52
f 51/51/51 48/48/48 47/47/47
