mtllib ./Plane03.mtl
g Plane03
v 30.59517 -0.000289917 0.0002441406
v 30.59517 -29.88868 0.0002441406
v -0.0003128052 -0.000289917 0.0002441406
v -0.0003128052 -29.88868 0.0002441406
v -30.5958 -0.000289917 0.0002441406
v -30.5958 -29.88868 0.0002441406
v 30.59517 29.8881 0.0002441406
v -0.0003128052 29.8881 0.0002441406
v -30.5958 29.8881 0.0002441406
v -35.20979 29.88808 0.0002441406
v -35.20979 -29.88867 0.0002441406
v -47.72736 29.88808 0.0002441406
v -47.72736 -29.88867 0.0002441406
v 47.52469 29.88808 0.0002441406
v 47.52469 -29.88867 0.0002441406
v 35.0071 29.88808 0.0002441406
v 35.0071 -29.88867 0.0002441406

vn 0 0 -0.9999999
vn 0 0 -0.9999999
vn 0 0 -0.9999999
vn 0 0 -0.9999999
vn 0 0 -1
vn 0 0 -0.9999999
vn 0 0 -1
vn 0 0 -1
vn 0 0 -1
vn 0 0 -0.9999999
vn 0 0 -0.9999999
vn 0 0 -0.9999999
vn 0 0 -0.9999999
vn 0 0 -0.9999999
vn 0 0 -0.9999999
vn 0 0 -0.9999999
vn 0 0 -0.9999999

vt 0 0.5
vt 0 0
vt 0.5 0.5
vt 0.5 0
vt 1 0.5
vt 1 0
vt 0 1
vt 0.5 1
vt 1 1
vt 0.5169082 0.9927536
vt 0.5169082 0.03140097
vt 0.8381643 0.9927536
vt 0.8381643 0.03140097
vt 0.0473913 0.9947343
vt 0.0473913 0.03685991
vt 0.3812802 0.9947343
vt 0.3812802 0.03685991

usemtl sn15_46_sn1569.JPG
usemap sn15_46_sn1569.JPG
f 3/3/3 1/1/1 2/2/2
f 2/2/2 4/4/4 3/3/3
f 5/5/5 3/3/3 4/4/4
f 4/4/4 6/6/6 5/5/5
f 8/8/8 7/7/7 1/1/1
f 1/1/1 3/3/3 8/8/8
f 9/9/9 8/8/8 3/3/3
f 3/3/3 5/5/5 9/9/9

usemtl sn15_47_sn1570.JPG
usemap sn15_47_sn1570.JPG
f 12/12/12 10/10/10 11/11/11
f 11/11/11 13/13/13 12/12/12
f 16/16/16 14/14/14 15/15/15
f 15/15/15 17/17/17 16/16/16
