mtllib ./Plane64.mtl
g Plane64
v 8.300659 3.509262 -25.0661
v 8.582031 0.3419571 -23.48071
v 3.29892 0.3419571 -23.48071
v 9.095886 -1.352379 -29.38696
v -4.288147 -1.352379 -29.38696
v 8.582031 0.3419571 -23.48071
v 3.29892 0.3419571 -23.48071
v 8.966309 -3.586765 -27.83807
v -3.352814 -3.586769 -27.83807
v 9.095886 -1.352379 -29.38696
v -4.288147 -1.352379 -29.38696
v 8.574493 -5.764969 -25.93225
v 0.05441284 -5.764969 -25.93225
v -3.352814 -3.586769 -27.83807
v 0.05441284 -5.764969 -25.93225
v -2.958862 -3.524353 30.76508
v 0.2527771 -5.779888 28.21881
v -4.288147 -1.352379 -29.38696
v -4.012238 -1.324436 32.28967
v 3.29892 0.3419571 -23.48071
v -4.288147 -1.352379 -29.38696
v 3.563995 0.3464584 25.64313
v -4.012238 -1.324436 32.28967
v 8.300659 3.509262 -25.0661
v 8.588043 3.609894 27.22882
v 8.588043 3.609894 27.22882
v 3.563995 0.3464584 25.64313
v 8.291962 0.3464622 25.64313
v -4.012238 -1.324436 32.28967
v 8.377167 -1.324429 32.28973
v 3.563995 0.3464584 25.64313
v 8.291962 0.3464622 25.64313
v -2.958862 -3.524353 30.76508
v 8.349335 -3.524349 30.76508
v -4.012238 -1.324436 32.28967
v 8.377167 -1.324429 32.28973
v 0.2527771 -5.779888 28.21881
v 8.313202 -5.779888 28.21881
v 0.05441284 -5.764969 -25.93225
v 8.574493 -5.764969 -25.93225
v 0.2527771 -5.779888 28.21881
v 8.313202 -5.779888 28.21881

vn 0 -0.4476056 -0.894231
vn 0 -0.4476056 -0.894231
vn 0 -0.4476056 -0.894231
vn 0 0.9612295 -0.2757495
vn 0 0.9612296 -0.2757496
vn 0 0.9612296 -0.2757496
vn 0 0.9612295 -0.2757495
vn 1.406928E-07 -0.627702 -0.7784536
vn 1.250525E-07 -0.6005533 -0.7995847
vn 8.455246E-08 -0.5697084 -0.821847
vn 0 -0.569708 -0.8218471
vn 0 -0.658484 -0.7525947
vn 1.205381E-07 -0.6584843 -0.7525945
vn -0.7780046 -0.6282369 0.005218549
vn -0.5563159 -0.8309644 0.003272452
vn -0.6561 -0.7546625 0.004161858
vn -0.5737275 -0.819044 0.001876002
vn -0.9234908 -0.3835963 0.00430501
vn -0.9124367 -0.4091822 0.005388925
vn -0.4219127 0.9066348 0.001715584
vn -0.216625 0.9762546 0.0007718137
vn -0.304004 0.9526699 0.001320982
vn -0.2149344 0.9766284 0.0005190433
vn -0.5346988 0.8450417 0.001312286
vn -0.5399003 0.8417265 0.002068452
vn 3.335618E-07 -0.4370374 0.8994434
vn 3.335618E-07 -0.4370374 0.8994434
vn 3.335618E-07 -0.4370374 0.8994434
vn -1.798298E-06 0.9698243 0.2438049
vn -1.517722E-06 0.9698243 0.2438047
vn -1.517722E-06 0.9698243 0.2438047
vn -7.824901E-07 0.9698245 0.2438043
vn 1.62513E-07 -0.6965342 0.7175236
vn -1.058336E-06 -0.6414934 0.7671286
vn -1.84182E-06 -0.569616 0.8219109
vn -3.698264E-06 -0.5696231 0.8219061
vn 0 -0.7485484 0.66308
vn 1.474284E-07 -0.7485482 0.6630804
vn 0 -1 -0.0002755123
vn 0 -1 -0.0002755123
vn 0 -1 -0.0002755123
vn 0 -0.9999999 -0.0002755122

vt 0.4724261 1.012061
vt 1.029528 0.003639614
vt 0.0005976409 0.006780248
vt 0.9995005 0.3436437
vt 0.0004995167 0.3436445
vt 0.7729512 0.6340506
vt 0.227049 0.634051
vt 3.285174 0.7188448
vt 0.2001163 0.7188467
vt 3.285225 0.9994982
vt 0.1998494 0.9995004
vt 3.284649 0.4197432
vt 0.202827 0.4197447
vt 0.1316713 0.7544684
vt 0.1330526 0.4378974
vt 9.868187 0.7544628
vt 9.867706 0.4378919
vt 0.1309392 0.9995005
vt 9.868442 0.9994946
vt -0.2084819 0.4108566
vt -0.3763168 0.9995006
vt 1.187444 0.3902892
vt 1.376316 0.978094
vt -0.2535338 0.02279574
vt 1.232505 0.0004995465
vt 0.4724261 1.012061
vt 1.029528 0.003639614
vt 0.0005976409 0.006780248
vt 0.9995005 0.3436437
vt 0.0004995167 0.3436445
vt 0.7729512 0.6340506
vt 0.227049 0.634051
vt 3.135795 0.7188448
vt 0.2009144 0.7188467
vt 3.135974 0.9994982
vt 0.2009091 0.9995004
vt 3.133972 0.4384141
vt 0.2009692 0.4384157
vt -0.2864912 0.9995005
vt -0.2864912 0.0004994869
vt 1.286491 0.976241
vt 1.286491 0.03113487

usemtl sn15_11_sn1505.JPG
usemap sn15_11_sn1505.JPG
f 3/3/3 1/1/1 2/2/2
f 6/6/6 4/4/4 5/5/5
f 5/5/5 7/7/7 6/6/6
f 22/22/22 20/20/20 21/21/21
f 21/21/21 23/23/23 22/22/22
f 25/25/25 24/24/24 20/20/20
f 20/20/20 22/22/22 25/25/25
f 28/28/28 26/26/26 27/27/27
f 31/31/31 29/29/29 30/30/30
f 30/30/30 32/32/32 31/31/31

usemtl sn15_12_sn1506.JPG
usemap sn15_12_sn1506.JPG
f 10/10/10 8/8/8 9/9/9
f 9/9/9 11/11/11 10/10/10
f 8/8/8 12/12/12 13/13/13
f 13/13/13 9/9/9 8/8/8
f 16/16/16 14/14/14 15/15/15
f 15/15/15 17/17/17 16/16/16
f 19/19/19 18/18/18 14/14/14
f 14/14/14 16/16/16 19/19/19
f 35/35/35 33/33/33 34/34/34
f 34/34/34 36/36/36 35/35/35
f 33/33/33 37/37/37 38/38/38
f 38/38/38 34/34/34 33/33/33

usemtl sn15_15_sn1514.JPG
usemap sn15_15_sn1514.JPG
f 41/41/41 39/39/39 40/40/40
f 40/40/40 42/42/42 41/41/41
