mtllib ./Plane11.mtl
g Plane11
v -232.3772 0.0002760887 27.61478
v -289.8748 0.0002760887 27.61478
v -289.8748 0.0002760887 582.3869
v 338.3716 0.0002760887 582.3869
v 338.3716 0.0002760887 27.61479
v 292.336 0.0002760887 27.61478
v 292.336 0.0002760887 -19.51601
v 338.3716 0.0002760887 -19.516
v 338.3716 0.0002760887 -442.9202
v 292.336 0.0002760887 -442.9202
v 292.336 0.0002760887 -490.051
v 338.3716 0.0002760887 -490.051
v 338.3716 0.0002760887 -582.3876
v -289.8748 0.0002760887 -582.3876
v -289.8748 0.0002760887 -490.051
v -232.3772 0.0002760887 -490.051
v -232.3772 0.0002760887 -442.9202
v -289.8748 0.0002760887 -442.9202
v -232.3772 0.0002760887 -19.51601
v -289.8748 0.0002760887 -19.516

vn 0 1 0
vn 0 1 0
vn 0 1 0
vn 0 1 0
vn 0 1 0
vn 0 1 0
vn 0 1 0
vn 0 0.9999999 0
vn 0 0.9999999 0
vn 0 1 0
vn 0 1 0
vn 0 1 0
vn 0 0.9999999 0
vn 0 0.9999999 0
vn 0 1 0
vn 0 1 0
vn 0 1 0
vn 0 1 0
vn 0 1 0
vn 0 1 0

vt 0.8687142 0.5236849
vt 0.9995003 0.5236848
vt 0.9995005 0.9995004
vt 0.000499934 0.9995005
vt 0.0004997494 0.523685
vt 0.07472474 0.523685
vt 0.07472473 0.4832619
vt 0.0004997337 0.4832619
vt 0.0004995929 0.1201177
vt 0.07472458 0.1201177
vt 0.07472457 0.07969465
vt 0.0004995773 0.07969465
vt 0.0004995465 0.0004996359
vt 0.9995 0.0004994869
vt 0.9995001 0.07969452
vt 0.9207392 0.07969452
vt 0.9207393 0.1201176
vt 0.9995001 0.1201175
vt 0.8687142 0.4832618
vt 0.9995002 0.4832618

usemtl sn15_67_sn1558.jpg
usemap sn15_67_sn1558.jpg
f 3/3/3 1/1/1 2/2/2
f 6/6/6 4/4/4 5/5/5
f 6/6/6 3/3/3 4/4/4
f 7/7/7 3/3/3 6/6/6
f 7/7/7 1/1/1 3/3/3
f 10/10/10 8/8/8 9/9/9
f 10/10/10 7/7/7 8/8/8
f 13/13/13 11/11/11 12/12/12
f 14/14/14 11/11/11 13/13/13
f 14/14/14 10/10/10 11/11/11
f 14/14/14 7/7/7 10/10/10
f 16/16/16 14/14/14 15/15/15
f 16/16/16 7/7/7 14/14/14
f 17/17/17 7/7/7 16/16/16
f 18/18/18 7/7/7 17/17/17
f 19/19/19 7/7/7 18/18/18
f 19/19/19 1/1/1 7/7/7
f 19/19/19 18/18/18 20/20/20
