mtllib ./sob91.mtl
g sob91
v 0.2483215 -1.559883 0.0004882813
v 0.7063599 1.390712 2.735229
v -0.8725891 1.390713 0.0004882813
v 1.266785 -1.559883 1.764526
v 0.4760437 2.087402 3.134155
v -1.333221 2.087402 0.0004882813
v 3.864197 1.390712 2.735229
v 3.303772 -1.559883 1.764526
v 4.094513 2.087402 3.134155
v 5.443146 1.390713 0.0004882813
v 4.322235 -1.559883 0.0004882813
v 5.903778 2.087402 0.0004882813
v 3.864197 1.390713 -2.734253
v 3.303772 -1.559883 -1.76355
v 4.094513 2.087403 -3.133179
v 0.7063599 1.390713 -2.734253
v 1.266785 -1.559883 -1.76355
v 0.4760437 2.087403 -3.133179

vn -0.9098895 -0.3456561 0.2293965
vn -0.5070862 -0.4032458 0.7617456
vn -0.9132326 -0.4032491 -0.0582803
vn -0.2562854 -0.345649 0.9026874
vn -0.5380504 -0.5457156 0.6424144
vn -0.8253703 -0.545716 -0.1447688
vn 0.4061382 -0.4032422 0.8200291
vn 0.6535977 -0.3456527 0.673301
vn 0.2873125 -0.5457183 0.7871742
vn 0.9132326 -0.4032491 0.05828018
vn 0.9098895 -0.3456561 -0.2293966
vn 0.8253703 -0.545716 0.1447687
vn 0.5070862 -0.4032457 -0.7617456
vn 0.2562855 -0.3456489 -0.9026874
vn 0.5380504 -0.5457156 -0.6424144
vn -0.4061381 -0.4032421 -0.8200291
vn -0.6535977 -0.3456527 -0.673301
vn -0.2873124 -0.5457183 -0.7871742

vt 0.475605 0.0573774
vt 0.4123769 0.8655527
vt 0.630334 0.8655524
vt 0.3350124 0.05737752
vt 0.4441701 1.056378
vt 0.6939203 1.056378
vt -0.02353716 0.8655528
vt 0.05382723 0.05737764
vt -0.05533034 1.056378
vt -0.2414941 0.8655528
vt -0.08676541 0.05737764
vt -0.3050805 1.056378
vt -0.0235371 0.8655527
vt 0.05382714 0.05737752
vt -0.05533022 1.056378
vt 0.4123769 0.8655524
vt 0.3350123 0.0573774
vt 0.4441701 1.056378

usemtl sn15_43_sn1563.JPG
usemap sn15_43_sn1563.JPG
f 3/3/3 1/1/1 2/2/2
f 2/2/2 1/1/1 4/4/4
f 6/6/6 3/3/3 5/5/5
f 5/5/5 3/3/3 2/2/2
f 2/2/2 4/4/4 7/7/7
f 7/7/7 4/4/4 8/8/8
f 5/5/5 2/2/2 9/9/9
f 9/9/9 2/2/2 7/7/7
f 7/7/7 8/8/8 10/10/10
f 10/10/10 8/8/8 11/11/11
f 9/9/9 7/7/7 12/12/12
f 12/12/12 7/7/7 10/10/10
f 10/10/10 11/11/11 13/13/13
f 13/13/13 11/11/11 14/14/14
f 12/12/12 10/10/10 15/15/15
f 15/15/15 10/10/10 13/13/13
f 13/13/13 14/14/14 16/16/16
f 16/16/16 14/14/14 17/17/17
f 15/15/15 13/13/13 18/18/18
f 18/18/18 13/13/13 16/16/16
f 16/16/16 17/17/17 3/3/3
f 3/3/3 17/17/17 1/1/1
f 18/18/18 16/16/16 6/6/6
f 6/6/6 16/16/16 3/3/3
