mtllib ./SOBF125.mtl
g SOBF125
v 6.937672 -117.4916 -5.345899
v -2.084229 -54.86597 -7.583906
v 6.937644 -55.33856 -5.345907
v -2.084196 -117.4916 -7.583898
v -2.084196 -117.4916 -7.583898
v -7.000571 -55.33856 0.3047786
v -2.084229 -54.86597 -7.583906
v -7.000541 -117.4916 0.3047865
v -7.000541 -117.4916 0.3047865
v -1.01721 -55.33856 7.418308
v -1.017182 -117.4916 7.418316
v -1.017182 -117.4916 7.418316
v 7.597095 -55.33856 3.925977
v -1.01721 -55.33856 7.418308
v 7.597124 -117.4916 3.925984
v -2.084201 -2.97744 -7.583899
v 6.9377 -2.97744 -5.346018
v -7.000545 -2.977432 0.3047855
v -2.084201 -2.97744 -7.583899
v -1.017154 -2.977432 7.418197
v 7.597152 -2.977432 3.925865
v -1.017154 -2.977432 7.418197
v -2.084196 -117.4916 -7.583898
v 6.937672 -117.4916 -5.345899
v 9.963227 -122.9297 -7.890776
v -3.56955 -122.9297 -11.24783
v -7.000541 -117.4916 0.3047865
v -2.084196 -117.4916 -7.583898
v -3.56955 -122.9297 -11.24783
v -10.94411 -122.9297 0.5853099
v -1.017182 -117.4916 7.418316
v -1.969044 -122.9297 11.25549
v 7.597124 -117.4916 3.925984
v 10.95239 -122.9297 6.016982
v 6.604855 -128.6997 -5.066016
v -1.920795 -128.6997 -7.180908
v -1.920795 -128.6997 -7.180908
v -6.566744 -128.6997 0.2739237
v -0.9124554 -128.6997 6.996123
v 7.228049 -128.6997 3.695924

vn 0.3633301 1.753161E-07 -0.9316605
vn -0.01771523 -2.924015E-09 -0.9998431
vn 0.5910292 -4.674074E-07 -0.80665
vn -0.01771525 -3.276532E-09 -0.9998431
vn -0.9563816 -4.953E-07 -0.2921201
vn -0.9522718 2.737951E-07 0.3052512
vn -0.9563817 1.200529E-07 -0.2921199
vn -0.9563817 -4.688079E-07 -0.2921202
vn -0.5733643 -2.766251E-07 0.8193005
vn -0.5733643 4.534653E-07 0.8193007
vn -0.5733643 -2.707183E-07 0.8193005
vn 0.6020241 2.869655E-07 0.7984779
vn 0.9501286 6.275367E-08 0.3118588
vn 0.6020241 1.087465E-06 0.7984779
vn 0.9982696 4.758606E-07 0.05880291
vn -0.01772182 -1.162367E-06 -0.9998429
vn 0.7500942 -1.90796E-06 -0.6613311
vn -0.9954288 5.243835E-07 0.0955065
vn -0.9563817 5.252525E-07 -0.29212
vn -0.5733599 1.242693E-06 0.8193037
vn 0.8607528 7.619283E-07 0.5090233
vn 0.6020241 1.56182E-06 0.7984779
vn -0.01526755 0.5069756 -0.8618252
vn 0.6498076 0.5702245 -0.5025874
vn 0.5732327 -0.03363267 -0.8187022
vn -0.0174489 -0.1717919 -0.9849787
vn -0.8211184 0.5702251 0.0246539
vn -0.8243645 0.5069731 -0.2517965
vn -0.9495661 0.1191744 -0.2900373
vn -0.9449757 -0.03363784 0.3254064
vn -0.2302927 0.5702224 0.7885504
vn 0.01746905 -0.03364538 0.999281
vn 0.6787929 0.5702199 0.462698
vn 0.9557702 -0.03363868 0.2921846
vn 0.2390242 -0.5864624 -0.7739051
vn -0.01508904 -0.5240445 -0.8515572
vn -0.814544 -0.5240408 -0.2487956
vn -0.6482601 -0.5864667 0.4856086
vn 0.261516 -0.586465 0.7665951
vn 0.8098895 -0.5864632 -0.01182564

vt 0.7040725 -0.4300001
vt 0.7508792 0.5
vt 0.7040725 0.5
vt 0.7508792 -0.4300001
vt 0.5541072 -0.4300001
vt 0.6421522 0.5
vt 0.5541072 0.5
vt 0.6408902 -0.421015
vt 0.6421522 -0.4300001
vt 0.7517561 0.5
vt 0.7517561 -0.4300001
vt 0.5517266 -0.4300001
vt 0.6014675 0.5
vt 0.5517266 0.5
vt 0.6014675 -0.4300001
vt 0.7508792 1.43
vt 0.7040725 1.43
vt 0.6421522 1.43
vt 0.5541072 1.43
vt 0.7517561 1.43
vt 0.6014675 1.43
vt 0.5517266 1.43
vt 3.895412 0.9995005
vt 3 0.9995005
vt 3 0.5213346
vt 3.866076 0.5213346
vt 0.6335059 0.9995005
vt -0.1045878 0.9995005
vt -0.1339235 0.5213346
vt 0.6183991 0.5213346
vt 1.366494 0.9995005
vt 1.381601 0.5213346
vt 2.104587 0.9995005
vt 2.133923 0.5213346
vt 3 0.0004995167
vt 3.900584 0.0004995167
vt -0.09941554 0.0004995167
vt 0.6360356 0.0004995167
vt 1.363964 0.0004995167
vt 2.099415 0.0004995167

usemtl sn15_18_sn1547.JPG
usemap sn15_18_sn1547.JPG
f 3/3/3 1/1/1 2/2/2
f 2/2/2 1/1/1 4/4/4
f 7/7/7 5/5/5 6/6/6
f 6/6/6 5/5/5 8/8/8
f 6/6/6 9/9/9 10/10/10
f 10/10/10 9/9/9 11/11/11
f 14/14/14 12/12/12 13/13/13
f 13/13/13 12/12/12 15/15/15
f 13/13/13 15/15/15 3/3/3
f 3/3/3 15/15/15 1/1/1
f 17/17/17 3/3/3 16/16/16
f 16/16/16 3/3/3 2/2/2
f 19/19/19 7/7/7 18/18/18
f 18/18/18 7/7/7 6/6/6
f 18/18/18 6/6/6 20/20/20
f 20/20/20 6/6/6 10/10/10
f 22/22/22 14/14/14 21/21/21
f 21/21/21 14/14/14 13/13/13
f 21/21/21 13/13/13 17/17/17
f 17/17/17 13/13/13 3/3/3

usemtl sn15_72_sn1586.JPG
usemap sn15_72_sn1586.JPG
f 25/25/25 23/23/23 24/24/24
f 23/23/23 25/25/25 26/26/26
f 29/29/29 27/27/27 28/28/28
f 27/27/27 29/29/29 30/30/30
f 30/30/30 31/31/31 27/27/27
f 31/31/31 30/30/30 32/32/32
f 32/32/32 33/33/33 31/31/31
f 33/33/33 32/32/32 34/34/34
f 34/34/34 24/24/24 33/33/33
f 24/24/24 34/34/34 25/25/25
f 35/35/35 26/26/26 25/25/25
f 26/26/26 35/35/35 36/36/36
f 37/37/37 30/30/30 29/29/29
f 30/30/30 37/37/37 38/38/38
f 38/38/38 32/32/32 30/30/30
f 32/32/32 38/38/38 39/39/39
f 39/39/39 34/34/34 32/32/32
f 34/34/34 39/39/39 40/40/40
f 40/40/40 25/25/25 34/34/34
f 25/25/25 40/40/40 35/35/35
