mtllib ./bdvwst46.mtl
g bdvwst46
v -8.235809 194.5691 0.09438203
v 3.06887 194.5691 0.002072591
v -8.245772 -0.0001220703 -0.005666872
v 2.819878 -0.0001068115 0.001874722
v 2.819878 -194.5692 0.001874722
v -8.245772 -194.5692 -0.005666872

vn -0.5375359 0.0005146082 -0.8432407
vn -0.5338407 0.0002601319 -0.845585
vn -0.532589 0.0001740419 -0.8463739
vn -0.5300549 4.826544E-08 -0.8479633
vn -0.5300549 0 -0.8479633
vn -0.5300549 0 -0.8479633

vt 0.5552307 1.797128
vt 0.4446693 1.797128
vt 0.5553307 0.4999998
vt 0.4446693 0.4999999
vt 0.4446693 -0.7971277
vt 0.5553307 -0.7971277

usemtl sn20_37_an20r34.BMP
usemap sn20_37_an20r34.BMP
f 3/3/3 1/1/1 2/2/2
f 2/2/2 4/4/4 3/3/3
f 4/4/4 5/5/5 6/6/6
f 6/6/6 3/3/3 4/4/4
