mtllib ./bdvwst39.mtl
g bdvwst39
v -8.2372 194.5695 0.09304181
v 3.079252 194.5695 0.002182515
v -8.247124 0.0003662109 -0.006955903
v 2.819199 0.0003814697 0.002039549
v 2.819199 -194.5688 0.002039549
v -8.247124 -194.5688 -0.006955903

vn 0.7825149 0.0005143372 -0.6226318
vn 0.7852292 0.0002598753 -0.6192052
vn 0.7861442 0.0001738987 -0.6180433
vn 0.7879894 -1.172212E-07 -0.6156889
vn 0.7879894 0 -0.6156889
vn 0.7879894 0 -0.6156889

vt 0.5552307 1.797128
vt 0.4446693 1.797128
vt 0.5553307 0.4999998
vt 0.4446693 0.4999999
vt 0.4446693 -0.7971277
vt 0.5553307 -0.7971277

usemtl sn20_37_an20r34.BMP
usemap sn20_37_an20r34.BMP
f 3/3/3 1/1/1 2/2/2
f 2/2/2 4/4/4 3/3/3
f 4/4/4 5/5/5 6/6/6
f 6/6/6 3/3/3 4/4/4
