mtllib ./Circle02.mtl
g Circle02
v 44.62781 -6.103516E-05 -76.37337
v -0.0003662109 -6.103516E-05 -88.46063
v -44.62854 -6.103516E-05 -76.37335
v 76.37292 -6.103516E-05 -44.62819
v 88.46021 -6.103516E-05 -1.907349E-05
v 76.37305 -6.103516E-05 44.62815
v 44.62781 -6.103516E-05 76.37334
v -0.0003662109 -6.103516E-05 88.46061
v -44.62854 -6.103516E-05 76.37335
v -76.37366 -6.103516E-05 44.62815
v -88.46094 -6.103516E-05 -1.144409E-05
v -76.37378 -6.103516E-05 -44.62817

vn 0 1 0
vn 0 1 0
vn 0 1 0
vn 0 1 0
vn 0 1 0
vn 0 1 0
vn 0 0.9999999 0
vn 0 1 0
vn 0 1 0
vn 0 1 0
vn 0 1 0
vn 0 1 0

vt 0.2838693 0.1232266
vt 0.5129573 0.06117951
vt 0.7420453 0.1232266
vt 0.120913 0.286183
vt 0.05886593 0.5152709
vt 0.1209131 0.744359
vt 0.2838694 0.9073152
vt 0.5129574 0.9693623
vt 0.7420454 0.9073152
vt 0.9050016 0.7443588
vt 0.9670488 0.5152708
vt 0.9050016 0.2861829

usemtl sn20_38_n20r36.jpg
usemap sn20_38_n20r36.jpg
f 3/3/3 1/1/1 2/2/2
f 3/3/3 4/4/4 1/1/1
f 3/3/3 5/5/5 4/4/4
f 3/3/3 6/6/6 5/5/5
f 3/3/3 7/7/7 6/6/6
f 3/3/3 8/8/8 7/7/7
f 3/3/3 9/9/9 8/8/8
f 3/3/3 10/10/10 9/9/9
f 3/3/3 11/11/11 10/10/10
f 3/3/3 12/12/12 11/11/11
