mtllib ./Loft07.mtl
g Loft07
v -125.7748 -0.0001220703 126.0679
v -159.9402 -0.0001220703 159.9402
v -127.2724 -0.0001220703 177.7114
v -114.3738 -0.0001220703 140.0618
v -198.1622 -0.0001220703 197.1304
v -140.2278 -0.0001220703 219.123
v -98.98965 -0.0001220703 177.7114
v -88.91928 -0.0001220703 140.0618
v -109.1167 -0.0001220703 219.123
v -70.70682 -0.0001220703 177.7114
v -63.46475 -0.0001220703 140.0618
v -78.00558 -0.0001220703 219.123
v -42.42392 -0.0001220703 177.7114
v -38.01016 -0.0001220703 140.0618
v -46.89444 -0.0001220703 219.123
v -14.14108 -0.0001220703 177.7114
v -12.5556 -0.0001220703 140.0618
v -15.78333 -0.0001144409 219.123
v 14.14175 -0.0001144409 177.7114
v 12.89896 -0.0001220703 140.0618
v 15.32782 -0.0001144409 219.123
v 42.42459 -0.0001144409 177.7114
v 38.35352 -0.0001144409 140.0618
v 46.43893 -0.0001144409 219.123
v 70.70746 -0.0001144409 177.7114
v 63.80807 -0.0001144409 140.0618
v 77.55008 -0.0001144409 219.123
v 98.9903 -0.0001144409 177.7114
v 98.9903 -0.0001144409 175.5596
v 108.6612 -0.0001144409 219.123
v 100.0661 -0.0001144409 177.7114
v 127.2731 -0.0001144409 177.7114
v 114.7172 -0.0001144409 140.0618
v 89.26263 -0.0001144409 140.0618
v 122.067 -0.0001144409 219.123
v 139.7723 -0.0001144409 219.123
v 159.9408 -0.0001144409 159.9402
v 126.1182 -0.0001144409 126.0679
v 197.7067 -0.0001144409 197.1304
v 177.712 -0.0001144409 127.2725
v 140.1122 -0.0001144409 114.6667
v 219.6994 -0.0001144409 139.196
v 177.712 -0.0001144409 98.98975
v 140.1122 -0.0001144409 89.21216
v 219.6994 -0.0001144409 108.085
v 177.712 -0.0001144409 70.70679
v 140.1122 -0.0001144409 63.75781
v 219.6994 -0.0001144409 76.97388
v 177.712 -0.0001144409 64.07788
v 177.712 -0.0001144409 42.42407
v 140.1122 -0.0001144409 38.30322
v 140.1122 -0.0001144409 55.55493
v 219.6994 -0.0001144409 72.41553
v 219.6994 -0.0001144409 45.86279
v 177.712 -0.0001144409 64.07788
v 177.712 -0.0001144409 14.14111
v 140.1122 -0.0001220703 12.84863
v 219.6994 -0.0001144409 14.75171
v 177.712 -0.0001220703 -14.1416
v 140.1122 -0.0001220703 -12.60596
v 219.6994 -0.0001144409 -16.35938
v 177.712 -0.0001220703 -42.42456
v 140.1122 -0.0001220703 -38.06055
v 219.6994 -0.0001220703 -47.4707
v 177.712 -0.0001220703 -70.70728
v 140.1122 -0.0001220703 -63.51489
v 219.6994 -0.0001220703 -78.58179
v 177.712 -0.0001220703 -98.98999
v 140.1122 -0.0001220703 -88.96948
v 219.6994 -0.0001220703 -109.6929
v 177.712 -0.0001220703 -127.2729
v 140.1122 -0.0001220703 -114.4241
v 219.6994 -0.0001220703 -140.804
v 159.9409 -0.0001220703 -159.9407
v 126.1182 -0.0001220703 -125.8252
v 197.7069 -0.0001220703 -198.7383
v 127.273 -0.0001220703 -177.7117
v 114.7172 -0.0001220703 -139.8191
v 139.7721 -0.0001220703 -220.731
v 98.99017 -0.0001220703 -177.7119
v 89.26263 -0.0001220703 -139.8191
v 108.6609 -0.0001220703 -220.7312
v 66.733 -0.0001220703 -177.7119
v 60.23117 -0.0001220703 -139.8191
v 73.17801 -0.0001220703 -220.7312
v 42.42447 -0.0001220703 -177.7119
v 38.35352 -0.0001220703 -139.8191
v 46.43866 -0.0001220703 -220.7312
v 14.14166 -0.0001220703 -177.7119
v 12.89896 -0.0001220703 -139.8191
v 15.32758 -0.0001296997 -220.7312
v -14.14124 -0.0001296997 -177.7119
v -12.55563 -0.0001220703 -139.8191
v -15.78363 -0.0001296997 -220.7312
v -42.42404 -0.0001296997 -177.7119
v -38.01016 -0.0001296997 -139.8191
v -46.89468 -0.0001296997 -220.7312
v -70.70694 -0.0001296997 -177.7119
v -63.46475 -0.0001296997 -139.8191
v -78.00583 -0.0001296997 -220.7312
v -98.98978 -0.0001296997 -177.7119
v -88.91928 -0.0001296997 -139.8191
v -109.117 -0.0001296997 -220.7312
v -127.2726 -0.0001296997 -177.7119
v -114.3739 -0.0001296997 -139.8191
v -140.2281 -0.0001296997 -220.7312
v -159.9403 -0.0001296997 -159.9404
v -125.7748 -0.0001296997 -125.8252
v -198.1626 -0.0001296997 -198.738
v -177.7113 -0.0001296997 -127.2729
v -139.7689 -0.0001296997 -114.4241
v -220.1549 -0.0001296997 -140.804
v -177.7113 -0.0001296997 -98.98999
v -139.7689 -0.0001296997 -88.96948
v -220.1549 -0.0001296997 -109.6926
v -177.7113 -0.0001296997 -70.70728
v -139.7689 -0.0001296997 -63.51489
v -220.1549 -0.0001296997 -78.58154
v -177.7113 -0.0001296997 -42.42432
v -139.7689 -0.0001296997 -38.06055
v -220.1549 -0.0001296997 -47.47046
v -177.7113 -0.0001296997 -14.1416
v -139.7689 -0.0001220703 -12.60596
v -220.1549 -0.0001296997 -16.35938
v -177.7113 -0.0001220703 14.14136
v -139.7689 -0.0001220703 12.84863
v -220.1549 -0.0001296997 14.75171
v -177.7113 -0.0001220703 42.42407
v -139.7689 -0.0001220703 38.30322
v -220.1549 -0.0001220703 45.86279
v -177.7113 -0.0001220703 70.70679
v -139.7689 -0.0001220703 63.75781
v -220.1549 -0.0001220703 77.9436
v -177.7113 -0.0001220703 90.55371
v -177.7113 -0.0001220703 98.98975
v -139.7689 -0.0001220703 89.21216
v -139.7689 -0.0001220703 63.75781
v -220.1549 -0.0001220703 108.085
v -187.1571 -0.0001220703 100.4695
v -177.7113 -0.0001220703 127.2725
v -139.7689 -0.0001220703 114.6667
v -220.1549 -0.0001220703 120.6367
v -220.1549 -0.0001220703 139.196
v -159.9402 -0.0001220703 159.9402
v -125.7748 -0.0001220703 126.0679
v -198.1622 -0.0001220703 197.1304
v 80.2308 -0.0001144409 140.0618
v -220.1549 -0.0001220703 120.6367
v -187.1571 -0.0001220703 100.4695
v -177.7113 -0.0001220703 90.55371
v 219.6994 -0.0001144409 72.41553
v 140.1122 -0.0001144409 55.55493

vn 0 0.9999999 0
vn 0 1 0
vn 0 1 0
vn 0 1 0
vn 0 1 0
vn 0 1 0
vn 0 1 0
vn 0 1 0
vn 0 1 0
vn 0 1 0
vn 0 1 0
vn 0 1 0
vn -4.702356E-08 0.9999999 -3.719196E-08
vn 0 1 0
vn -8.429789E-08 1 -9.100233E-09
vn -8.977543E-08 0.9999999 -6.789642E-08
vn -9.634052E-08 1 -6.919191E-08
vn -8.429795E-08 1 -1.300033E-07
vn -8.977545E-08 1 -6.147328E-08
vn -9.634052E-08 1 -1.270896E-07
vn -8.429795E-08 1 -6.091582E-08
vn -4.275181E-08 1 -2.749286E-08
vn -9.634049E-08 1 1.041734E-08
vn 0 1 0
vn 0 1 0
vn 0 1 0
vn 0 1 0
vn 0 1 0
vn 0 1 0
vn 0 1 0
vn 0 1 0
vn 0 1 0
vn 0 0.9999999 0
vn 0 1 0
vn 0 1 0
vn 0 1 0
vn 0 1 0
vn 0 1 0
vn 0 1 0
vn 0 1 0
vn 0 1 0
vn 0 1 0
vn 0 1 0
vn 0 1 0
vn 0 1 0
vn 0 1 0
vn 0 0.9999999 0
vn 0 1 0
vn 0 1 0
vn 0 1 0
vn -6.906325E-08 0.9999999 -1.074726E-07
vn 0 1 0
vn 0 1 0
vn 0 1 0
vn 0 0.9999999 0
vn -9.208237E-08 1 -1.321553E-07
vn -1.310658E-07 1 -1.926812E-07
vn 0 0.9999999 0
vn -1.024201E-07 1 -1.371032E-07
vn 0 0.9999999 0
vn -1.281503E-07 1 -1.685959E-07
vn 0 1 0
vn 0 1 0
vn -6.691447E-08 1 -8.42977E-08
vn 0 1 0
vn 0 1 0
vn 0 0.9999999 0
vn 0 0.9999999 0
vn 0 0.9999999 0
vn 0 1 0
vn 0 1 0
vn 0 1 0
vn 0 1 0
vn 0 1 0
vn 0 1 0
vn 0 1 0
vn 0 0.9999999 0
vn 0 1 0
vn 0 0.9999999 0
vn 0 1 0
vn 0 1 0
vn 0 1 0
vn 0 0.9999999 0
vn 0 1 0
vn 0 1 0
vn -5.110206E-08 1 -3.836519E-08
vn 0 1 0
vn -9.286138E-08 1 -8.665027E-09
vn -8.972825E-08 1 -6.542231E-08
vn -9.634041E-08 0.9999999 -6.787641E-08
vn -8.429795E-08 1 -1.242508E-07
vn -8.972832E-08 1 -5.91494E-08
vn -9.634056E-08 1 -1.254025E-07
vn -8.42979E-08 1 -5.774524E-08
vn -4.202163E-08 1 -2.646969E-08
vn -9.634045E-08 1 1.122205E-08
vn 0 1 0
vn 0 1 0
vn 0 0.9999999 0
vn 0 0.9999999 0
vn 0 1 0
vn 0 0.9999999 0
vn 0 1 0
vn 0 1 0
vn 0 0.9999999 0
vn 0 0.9999999 0
vn 0 1 0
vn 0 1 0
vn 0 0.9999999 0
vn 0 1 0
vn 0 1 0
vn 0 1 0
vn 0 1 0
vn 0 1 0
vn 0 1 0
vn 0 1 0
vn 0 1 0
vn 0 1 0
vn 0 1 0
vn -6.073338E-08 1 -9.63409E-08
vn 0 1 0
vn -8.882757E-08 0.9999999 -1.321127E-07
vn -1.286476E-07 0.9999999 -1.926806E-07
vn 0 1 0
vn -9.753899E-08 1 -1.371382E-07
vn 0 1 0
vn -1.203879E-07 0.9999999 -1.685958E-07
vn 0 1 0
vn 0 1 0
vn -6.233473E-08 1 -8.340451E-08
vn 0 1 0
vn 0 1 0
vn 0 1 0
vn 0 0.9999999 0
vn 0 1 0
vn 0 1 0
vn 0 1 0
vn 0 1 0
vn 0 1 0
vn 0 1 0
vn 0 1 0
vn 0 1 0
vn 0 1 0
vn 0 1 0
vn 0 1 0
vn 0 1 0
vn 0 1 0
vn 0 1 0
vn 0 0.9999999 0
vn 0 1 0
vn 0 1 0
vn 0 1 0

vt 0 0
vt 0.5 0
vt 0.5 0.454546
vt 0 0.454546
vt 1 0
vt 1 0.454546
vt 0.5 0.9090911
vt 0 0.9090911
vt 1 0.9090911
vt 0.5 1.363636
vt 0 1.363636
vt 1 1.363636
vt 0.5 1.818182
vt 0 1.818182
vt 1 1.818182
vt 0.5 2.272728
vt 0 2.272728
vt 1 2.272728
vt 0.5 2.727273
vt 0 2.727273
vt 1 2.727273
vt 0.5 3.181819
vt 0 3.181819
vt 1 3.181819
vt 0.5 3.636364
vt 0 3.636364
vt 1 3.636364
vt 0.5 4.09091
vt 0.4515872 4.12802
vt 1 4.09091
vt 0.5 4.145311
vt 0.5 4.545455
vt 0 4.545455
vt 0 4.09091
vt 1 4.323884
vt 1 4.545455
vt 0.5 5
vt 0 5
vt 1 5
vt 0.5 5.454546
vt 0 5.454546
vt 1 5.454546
vt 0.5 5.909091
vt 0 5.909091
vt 1 5.909091
vt 0.5 6.363636
vt 0 6.363636
vt 1 6.363636
vt 0.5 6.612906
vt 0.5 6.818182
vt 0 6.818182
vt 0 6.652846
vt 1 6.572966
vt 1 6.818182
vt 0.5 6.612906
vt 0.5 7.272727
vt 0 7.272727
vt 1 7.272727
vt 0.5 7.727272
vt 0 7.727272
vt 1 7.727272
vt 0.5 8.181818
vt 0 8.181818
vt 1 8.181818
vt 0.5 8.636362
vt 0 8.636362
vt 1 8.636362
vt 0.5 9.090907
vt 0 9.090907
vt 1 9.090907
vt 0.5 9.545453
vt 0 9.545453
vt 1 9.545453
vt 0.5 9.999998
vt 0 9.999998
vt 1 9.999998
vt 0.5 10.45454
vt 0 10.45454
vt 1 10.45454
vt 0.5 10.90909
vt 0 10.90909
vt 1 10.90909
vt 0.5 11.36364
vt 0 11.36364
vt 1 11.36364
vt 0.5 11.81818
vt 0 11.81818
vt 1 11.81818
vt 0.5 12.27273
vt 0 12.27273
vt 1 12.27273
vt 0.5 12.72727
vt 0 12.72727
vt 1 12.72727
vt 0.5 13.18182
vt 0 13.18182
vt 1 13.18182
vt 0.5 13.63636
vt 0 13.63636
vt 1 13.63636
vt 0.5 14.09091
vt 0 14.09091
vt 1 14.09091
vt 0.5 14.54546
vt 0 14.54546
vt 1 14.54546
vt 0.5 15
vt 0 15
vt 1 15
vt 0.5 15.45455
vt 0 15.45455
vt 1 15.45455
vt 0.5 15.90909
vt 0 15.90909
vt 1 15.90909
vt 0.5 16.36364
vt 0 16.36364
vt 1 16.36364
vt 0.5 16.81818
vt 0 16.81818
vt 1 16.81818
vt 0.5 17.27273
vt 0 17.27273
vt 1 17.27273
vt 0.5 17.72727
vt 0 17.72727
vt 1 17.72727
vt 0.5 18.18182
vt 0 18.18182
vt 1 18.18182
vt 0.5 18.63636
vt 0 18.63636
vt 1 18.63636
vt 0.5 19.09806
vt 0.5 19.09091
vt 0 19.09091
vt 0 18.63636
vt 1 19.09091
vt 0.7125304 19.23364
vt 0.5 19.54545
vt 0 19.54545
vt 1 19.41703
vt 1 19.54545
vt 0.5 20
vt 0 20
vt 1 20
vt 0 3.966738
vt 1 19.41703
vt 0.7125304 19.23364
vt 0.5 19.09806
vt 1 6.572966
vt 0 6.652846

usemtl sn20_34_n20r03.JPG
usemap sn20_34_n20r03.JPG
f 3/3/3 1/1/1 2/2/2
f 1/1/1 3/3/3 4/4/4
f 6/6/6 2/2/2 5/5/5
f 2/2/2 6/6/6 3/3/3
f 7/7/7 4/4/4 3/3/3
f 4/4/4 7/7/7 8/8/8
f 9/9/9 3/3/3 6/6/6
f 3/3/3 9/9/9 7/7/7
f 10/10/10 8/8/8 7/7/7
f 8/8/8 10/10/10 11/11/11
f 12/12/12 7/7/7 9/9/9
f 7/7/7 12/12/12 10/10/10
f 13/13/13 11/11/11 10/10/10
f 11/11/11 13/13/13 14/14/14
f 15/15/15 10/10/10 12/12/12
f 10/10/10 15/15/15 13/13/13
f 16/16/16 14/14/14 13/13/13
f 14/14/14 16/16/16 17/17/17
f 18/18/18 13/13/13 15/15/15
f 13/13/13 18/18/18 16/16/16
f 19/19/19 17/17/17 16/16/16
f 17/17/17 19/19/19 20/20/20
f 21/21/21 16/16/16 18/18/18
f 16/16/16 21/21/21 19/19/19
f 22/22/22 20/20/20 19/19/19
f 20/20/20 22/22/22 23/23/23
f 24/24/24 19/19/19 21/21/21
f 19/19/19 24/24/24 22/22/22
f 25/25/25 23/23/23 22/22/22
f 23/23/23 25/25/25 26/26/26
f 27/27/27 22/22/22 24/24/24
f 22/22/22 27/27/27 25/25/25
f 28/28/28 26/26/26 25/25/25
f 26/26/26 28/28/28 29/29/29
f 30/30/30 25/25/25 27/27/27
f 25/25/25 30/30/30 28/28/28
f 31/31/31 29/29/29 28/28/28
f 34/34/34 32/32/32 33/33/33
f 35/35/35 28/28/28 30/30/30
f 31/31/31 36/36/36 32/32/32
f 37/37/37 33/33/33 32/32/32
f 33/33/33 37/37/37 38/38/38
f 39/39/39 32/32/32 36/36/36
f 32/32/32 39/39/39 37/37/37
f 40/40/40 38/38/38 37/37/37
f 38/38/38 40/40/40 41/41/41
f 42/42/42 37/37/37 39/39/39
f 37/37/37 42/42/42 40/40/40
f 43/43/43 41/41/41 40/40/40
f 41/41/41 43/43/43 44/44/44
f 45/45/45 40/40/40 42/42/42
f 40/40/40 45/45/45 43/43/43
f 46/46/46 44/44/44 43/43/43
f 44/44/44 46/46/46 47/47/47
f 48/48/48 43/43/43 45/45/45
f 43/43/43 48/48/48 46/46/46
f 49/49/49 47/47/47 46/46/46
f 52/52/52 50/50/50 51/51/51
f 53/53/53 46/46/46 48/48/48
f 55/55/55 54/54/54 50/50/50
f 56/56/56 51/51/51 50/50/50
f 51/51/51 56/56/56 57/57/57
f 58/58/58 50/50/50 54/54/54
f 50/50/50 58/58/58 56/56/56
f 59/59/59 57/57/57 56/56/56
f 57/57/57 59/59/59 60/60/60
f 61/61/61 56/56/56 58/58/58
f 56/56/56 61/61/61 59/59/59
f 62/62/62 60/60/60 59/59/59
f 60/60/60 62/62/62 63/63/63
f 64/64/64 59/59/59 61/61/61
f 59/59/59 64/64/64 62/62/62
f 65/65/65 63/63/63 62/62/62
f 63/63/63 65/65/65 66/66/66
f 67/67/67 62/62/62 64/64/64
f 62/62/62 67/67/67 65/65/65
f 68/68/68 66/66/66 65/65/65
f 66/66/66 68/68/68 69/69/69
f 70/70/70 65/65/65 67/67/67
f 65/65/65 70/70/70 68/68/68
f 71/71/71 69/69/69 68/68/68
f 69/69/69 71/71/71 72/72/72
f 73/73/73 68/68/68 70/70/70
f 68/68/68 73/73/73 71/71/71
f 74/74/74 72/72/72 71/71/71
f 72/72/72 74/74/74 75/75/75
f 76/76/76 71/71/71 73/73/73
f 71/71/71 76/76/76 74/74/74
f 77/77/77 75/75/75 74/74/74
f 75/75/75 77/77/77 78/78/78
f 79/79/79 74/74/74 76/76/76
f 74/74/74 79/79/79 77/77/77
f 80/80/80 78/78/78 77/77/77
f 78/78/78 80/80/80 81/81/81
f 82/82/82 77/77/77 79/79/79
f 77/77/77 82/82/82 80/80/80
f 83/83/83 81/81/81 80/80/80
f 81/81/81 83/83/83 84/84/84
f 85/85/85 80/80/80 82/82/82
f 80/80/80 85/85/85 83/83/83
f 86/86/86 84/84/84 83/83/83
f 84/84/84 86/86/86 87/87/87
f 88/88/88 83/83/83 85/85/85
f 83/83/83 88/88/88 86/86/86
f 89/89/89 87/87/87 86/86/86
f 87/87/87 89/89/89 90/90/90
f 91/91/91 86/86/86 88/88/88
f 86/86/86 91/91/91 89/89/89
f 92/92/92 90/90/90 89/89/89
f 90/90/90 92/92/92 93/93/93
f 94/94/94 89/89/89 91/91/91
f 89/89/89 94/94/94 92/92/92
f 95/95/95 93/93/93 92/92/92
f 93/93/93 95/95/95 96/96/96
f 97/97/97 92/92/92 94/94/94
f 92/92/92 97/97/97 95/95/95
f 98/98/98 96/96/96 95/95/95
f 96/96/96 98/98/98 99/99/99
f 100/100/100 95/95/95 97/97/97
f 95/95/95 100/100/100 98/98/98
f 101/101/101 99/99/99 98/98/98
f 99/99/99 101/101/101 102/102/102
f 103/103/103 98/98/98 100/100/100
f 98/98/98 103/103/103 101/101/101
f 104/104/104 102/102/102 101/101/101
f 102/102/102 104/104/104 105/105/105
f 106/106/106 101/101/101 103/103/103
f 101/101/101 106/106/106 104/104/104
f 107/107/107 105/105/105 104/104/104
f 105/105/105 107/107/107 108/108/108
f 109/109/109 104/104/104 106/106/106
f 104/104/104 109/109/109 107/107/107
f 110/110/110 108/108/108 107/107/107
f 108/108/108 110/110/110 111/111/111
f 112/112/112 107/107/107 109/109/109
f 107/107/107 112/112/112 110/110/110
f 113/113/113 111/111/111 110/110/110
f 111/111/111 113/113/113 114/114/114
f 115/115/115 110/110/110 112/112/112
f 110/110/110 115/115/115 113/113/113
f 116/116/116 114/114/114 113/113/113
f 114/114/114 116/116/116 117/117/117
f 118/118/118 113/113/113 115/115/115
f 113/113/113 118/118/118 116/116/116
f 119/119/119 117/117/117 116/116/116
f 117/117/117 119/119/119 120/120/120
f 121/121/121 116/116/116 118/118/118
f 116/116/116 121/121/121 119/119/119
f 122/122/122 120/120/120 119/119/119
f 120/120/120 122/122/122 123/123/123
f 124/124/124 119/119/119 121/121/121
f 119/119/119 124/124/124 122/122/122
f 125/125/125 123/123/123 122/122/122
f 123/123/123 125/125/125 126/126/126
f 127/127/127 122/122/122 124/124/124
f 122/122/122 127/127/127 125/125/125
f 128/128/128 126/126/126 125/125/125
f 126/126/126 128/128/128 129/129/129
f 130/130/130 125/125/125 127/127/127
f 125/125/125 130/130/130 128/128/128
f 131/131/131 129/129/129 128/128/128
f 129/129/129 131/131/131 132/132/132
f 133/133/133 128/128/128 130/130/130
f 128/128/128 133/133/133 131/131/131
f 134/134/134 132/132/132 131/131/131
f 137/137/137 135/135/135 136/136/136
f 138/138/138 131/131/131 133/133/133
f 131/131/131 138/138/138 139/139/139
f 140/140/140 136/136/136 135/135/135
f 136/136/136 140/140/140 141/141/141
f 142/142/142 139/139/139 138/138/138
f 135/135/135 143/143/143 140/140/140
f 144/144/144 141/141/141 140/140/140
f 141/141/141 144/144/144 145/145/145
f 146/146/146 140/140/140 143/143/143
f 140/140/140 146/146/146 144/144/144
f 31/31/31 28/28/28 35/35/35
f 36/36/36 31/31/31 35/35/35
f 32/32/32 34/34/34 31/31/31
f 31/31/31 34/34/34 29/29/29
f 26/26/26 29/29/29 147/147/147
f 147/147/147 29/29/29 34/34/34
f 143/143/143 135/135/135 148/148/148
f 148/148/148 135/135/135 149/149/149
f 131/131/131 139/139/139 134/134/134
f 150/150/150 149/149/149 135/135/135
f 135/135/135 137/137/137 150/150/150
f 49/49/49 46/46/46 53/53/53
f 54/54/54 55/55/55 151/151/151
f 152/152/152 47/47/47 49/49/49
f 50/50/50 52/52/52 55/55/55
