mtllib ./nobdub84.mtl
g nobdub84
v 41.30211 0.0003051758 -116.0266
v -13.36664 0.0003147125 -96.92578
v -13.36664 100.9122 -96.9258
v 41.30217 100.9122 -116.0266
v -9.252231 0.0003261566 -18.94794
v -9.252233 100.9122 -18.94795
v -25.37807 0.0003376007 34.38147
v -25.37802 100.9123 34.38145
v -16.97134 0.0003471375 106.3992
v -16.97134 100.9123 106.3992
v -2.027199 0.0003566742 179.9554
v -2.027138 100.9123 179.9554
v 66.39874 0.0003509521 184.8148
v 66.39874 100.9123 184.8148
v 41.35132 100.9122 -51.2333
v 41.35132 0.0003166199 -51.23328
v 66.34714 0.0003414154 116.8479
v 66.34719 100.9123 116.8479

vn 0.7059648 -3.110492E-07 -0.7082468
vn -0.9402803 -5.646621E-08 -0.3404012
vn -0.6793033 -6.946381E-08 -0.7338576
vn 0.7059648 -5.375435E-07 -0.7082468
vn -0.9715136 1.191807E-07 -0.2369838
vn -0.9921044 -2.48543E-08 -0.1254153
vn -0.996428 3.64434E-07 -0.08444674
vn -0.9757443 3.731868E-07 -0.2189131
vn -0.9963912 2.113612E-07 0.08487882
vn -0.9983819 2.163459E-07 0.05686535
vn -0.5561932 2.684326E-07 0.831053
vn -0.8841251 2.692566E-07 0.4672504
vn 0.6110061 0 0.791626
vn 0.6110061 -1.776227E-07 0.7916259
vn 0.9961942 -2.647735E-07 0.08716143
vn 0.9961942 3.765869E-08 0.08716097
vn 0.9961942 -2.647017E-07 0.08716156
vn 0.9961942 -5.294034E-07 0.08716197

vt -1.007702 0.009483114
vt -0.5461756 0.009482935
vt -0.5461754 0.9947221
vt -1.007701 0.9947222
vt 0.1008409 0.009482786
vt 0.1008411 0.9947219
vt 0.7793145 0.009482607
vt 0.7793146 0.9947218
vt 1.424316 0.009482458
vt 1.424316 0.9947217
vt 1.97443 0.009482339
vt 1.97443 0.9947215
vt 1.643716 0.009482518
vt 1.643716 0.9947217
vt -0.4517428 0.9947221
vt -0.451743 0.009482965
vt 1.060527 0.009482637
vt 1.060527 0.9947218

usemtl sn20_50_an20r23.JPG
usemap sn20_50_an20r23.JPG
f 3/3/3 1/1/1 2/2/2
f 4/4/4 1/1/1 3/3/3
f 6/6/6 2/2/2 5/5/5
f 3/3/3 2/2/2 6/6/6
f 8/8/8 5/5/5 7/7/7
f 6/6/6 5/5/5 8/8/8
f 10/10/10 7/7/7 9/9/9
f 8/8/8 7/7/7 10/10/10
f 12/12/12 9/9/9 11/11/11
f 10/10/10 9/9/9 12/12/12
f 14/14/14 11/11/11 13/13/13
f 12/12/12 11/11/11 14/14/14
f 1/1/1 15/15/15 16/16/16
f 15/15/15 1/1/1 4/4/4
f 14/14/14 17/17/17 18/18/18
f 17/17/17 14/14/14 13/13/13
