mtllib ./nobdub88.mtl
g nobdub88
v 41.30133 0.0003051758 -116.0264
v -13.36741 0.0003147125 -96.92552
v -13.36741 100.9122 -96.92552
v 41.3014 100.9122 -116.0264
v -9.253005 0.0003261566 -18.94768
v -9.253005 100.9122 -18.94768
v -25.37885 0.0003376007 34.38173
v -25.37879 100.9123 34.3817
v -16.97211 0.0003471375 106.3994
v -16.97211 100.9123 106.3994
v -2.027973 0.0003566742 179.9557
v -2.027914 100.9123 179.9557
v 66.39796 0.0003509521 184.8151
v 66.39796 100.9123 184.8151
v 41.35055 100.9122 -51.23304
v 41.35055 0.0003166199 -51.23304
v 66.34636 0.0003414154 116.8482
v 66.34642 100.9123 116.8482

vn 0.7059647 -1.93839E-07 -0.7082469
vn -0.9402803 0 -0.3404012
vn -0.6793034 7.370404E-08 -0.7338576
vn 0.7059647 -3.876779E-07 -0.7082469
vn -0.9715137 1.295372E-07 -0.2369839
vn -0.9921044 0 -0.1254153
vn -0.996428 3.439803E-07 -0.08444674
vn -0.9757443 3.766216E-07 -0.2189132
vn -0.9963912 2.105492E-07 0.08487882
vn -0.9983819 2.026676E-07 0.05686535
vn -0.5561931 4.011549E-07 0.8310531
vn -0.8841251 3.317248E-07 0.4672504
vn 0.6110061 1.104226E-07 0.791626
vn 0.6110061 -9.479547E-08 0.791626
vn 0.9961942 -3.024179E-07 0.08716138
vn 0.9961942 0 0.08716091
vn 0.9961942 -3.025613E-07 0.08716163
vn 0.9961942 -6.050078E-07 0.08716208

vt -1.007702 0.009483114
vt -0.5461756 0.009482935
vt -0.5461754 0.9947221
vt -1.007701 0.9947222
vt 0.1008409 0.009482786
vt 0.1008411 0.9947219
vt 0.7793145 0.009482607
vt 0.7793146 0.9947218
vt 1.424316 0.009482458
vt 1.424316 0.9947217
vt 1.97443 0.009482339
vt 1.97443 0.9947215
vt 1.643716 0.009482518
vt 1.643716 0.9947217
vt -0.4517428 0.9947221
vt -0.451743 0.009482965
vt 1.060527 0.009482637
vt 1.060527 0.9947218

usemtl sn20_50_an20r23.JPG
usemap sn20_50_an20r23.JPG
f 3/3/3 1/1/1 2/2/2
f 4/4/4 1/1/1 3/3/3
f 6/6/6 2/2/2 5/5/5
f 3/3/3 2/2/2 6/6/6
f 8/8/8 5/5/5 7/7/7
f 6/6/6 5/5/5 8/8/8
f 10/10/10 7/7/7 9/9/9
f 8/8/8 7/7/7 10/10/10
f 12/12/12 9/9/9 11/11/11
f 10/10/10 9/9/9 12/12/12
f 14/14/14 11/11/11 13/13/13
f 12/12/12 11/11/11 14/14/14
f 1/1/1 15/15/15 16/16/16
f 15/15/15 1/1/1 4/4/4
f 14/14/14 17/17/17 18/18/18
f 17/17/17 14/14/14 13/13/13
