mtllib ./Object10.mtl
g Object10
v 59.86123 -10.14182 -2199.5
v 59.86124 -10.14182 -2073.629
v 203.5146 -10.14183 -2073.629
v 203.5146 -10.14184 -2199.5
v 203.5146 -10.14184 -1928.939
v 322.9509 -10.14183 -1928.939
v 322.9431 -10.14183 -2073.5
v -8.312061 -10.14179 -1753.34
v 59.86123 -10.1418 -1750.593
v 59.86121 -10.14182 -1928.939
v -76.4854 -10.14181 -1928.939
v -76.48543 -10.14179 -1763.333
v -206.0686 -10.1418 -2068.114
v -206.0611 -10.1418 -1928.939
v -76.4854 -10.14181 -2073.629
v -630.7507 -10.14181 -1765.63
v -532.2438 -10.14181 -1765.63
v -532.2526 -10.1418 -1928.94
v -633.8364 -10.1418 -1928.94
v 217.7203 -10.14182 -1476.777
v 387.4239 -10.14182 -1457.63
v 387.416 -10.14182 -1603.673
v 232.2619 -10.14182 -1549.716
v -206.0355 -10.14181 -1457.63
v -90.66487 -10.14179 -1554.528
v -140.6225 -10.14179 -1616.099
v -206.0434 -10.14181 -1603.673
v -639.6415 -10.1418 -1603.672
v -647.6588 -10.1418 -1457.63
v -532.2272 -10.14181 -1457.63
v -532.2351 -10.14181 -1603.672
v 544.6501 -10.14178 -1483.332
v 322.9854 -10.14182 -1293.151
v 472.416 -10.14181 -1333.807
v 131.6878 -10.14181 -1428.891
v 59.86121 -10.1418 -1433.701
v 59.86122 -10.14182 -1293.152
v 211.1094 -10.14184 -1293.151
v -206.0266 -10.14181 -1293.152
v -206.0192 -10.14178 -1209.046
v -76.48552 -10.14178 -1113.412
v -76.48553 -10.1418 -1293.152
v -665.4296 -126.2623 -1928.94
v -882.5829 -217.4953 -1928.94
v -882.5828 -217.4953 -1765.629
v -656.3347 -126.2623 -1765.63
v -665.9266 -126.2624 -1603.672
v -882.5829 -217.4953 -1603.672
v -674.5759 -126.2624 -1457.63
v -882.5831 -217.4953 -1457.63
v -882.5829 -217.4953 -1293.153
v -674.576 -126.2624 -1293.153
v -662.8711 -53.08892 -1928.94
v -652.928 -53.08892 -1765.63
v -656.8228 -53.08892 -1603.672
v -660.335 -53.08892 -1457.63
v -666.25 -53.08892 -1293.153
v -641.7974 -10.14181 -1293.153
v -441.25 -10.14178 -1210.542
v -345.9473 -10.14178 -1178.404
v -351.318 -10.1418 -1293.152
v -441.2573 -10.14181 -1293.152
v 478.1475 -10.14181 -2043.061
v 417.4639 -10.14178 -2110.436
v 413.2737 -10.14178 -2203.428
v 322.9362 -10.14183 -2199.5
v -206.0807 -10.1418 -2291.295
v -76.4854 -10.1418 -2291.295
v -76.4854 -10.14178 -2307.3
v -206.0848 -10.14178 -2308.195
v 476.1323 -10.14182 -1911.795
v 604.2059 -10.14178 -1616.1
v 322.9312 -10.14182 -2291.295
v 203.5146 -10.14184 -2291.295
v -351.757 -10.14179 -2032.682
v -353.8792 -10.1418 -1928.939
v -356.4854 -10.14181 -1457.63
v -356.4854 -10.14181 -1603.673
v -206.0758 -10.1418 -2199.5
v -303.6661 -10.14178 -2196.494
v -307.2851 -10.14179 -2082.44
v 203.5146 -10.14182 -1763.333
v 387.4072 -10.14182 -1764.896
v -206.0522 -10.14181 -1765.63
v -530.911 -10.14182 -2040.556
v -636.4856 -10.14178 -2039.255
v -674.5759 -126.2624 -2093.173
v -882.5831 -217.4953 -2073.629
v -672.8704 -53.08892 -2093.173
v 567.0587 -10.14178 -1761.942
v 475.9572 -26.15049 -1900.392
v -356.4854 -10.1418 -1765.63
v 322.994 -10.14179 -1190.092
v 470.4862 -10.14182 -1180.01
v 59.86122 -10.14179 -1087.413
v 64.82977 -10.14179 -1086.465
v 216.9521 -10.14182 -1094.779
v -76.48552 -10.14178 -1483.333
v -882.5828 -217.4953 -1149.629
v -674.576 -126.2623 -1109.054
v -636.4853 -10.14179 -1198.291
v -672.8707 -53.08892 -1109.055
v -441.2663 -10.1418 -1457.63
v -441.2918 -10.1418 -1928.94
v -441.2829 -10.1418 -1765.63
v -441.2742 -10.1418 -1603.673
v -532.2183 -10.14181 -1293.153
v -567.7198 -10.14178 -1220.506
v -532.2114 -10.14178 -1218.154
v -440.2536 -10.14179 -2016.298
v -447.1071 -10.14178 -1212.517
v 59.86124 -10.14182 -2291.295
v 59.86122 -10.1418 -2307.3
v 433.4695 -10.14178 -2291.295
v 443.3988 -10.14178 -2314.295
v 322.9271 -10.1418 -2310.782
v -76.4854 -10.1418 -2199.5
v 203.5146 -10.14182 -2307.3
v -323.8381 -10.14178 -2309.009
v -320.7502 -10.14178 -2291.295
v 423.5402 -10.14178 -2241.211
v -311.6831 -10.14178 -2241.21
v 203.5145 -10.14182 -1616.1
v 238.0491 -10.14182 -1689.716
v -139.4042 -10.14179 -1689.716
v 131.6879 -10.14181 -1799.593
v -8.312153 -10.14179 -1487.525

vn 1.133783E-07 0.9999999 -2.993059E-09
vn 1.06814E-07 1 4.696895E-09
vn 5.107764E-08 1 6.551581E-09
vn 5.183292E-08 1 -7.122531E-09
vn 3.823491E-08 1 -4.953974E-08
vn -4.947352E-08 1 -5.87377E-08
vn -1.509901E-07 0.9999999 4.709885E-08
vn 1.082058E-07 1 -1.100581E-07
vn 7.365828E-08 1 -1.069467E-07
vn 1.054472E-07 1 -7.345166E-08
vn 1.545443E-08 1 -3.96419E-08
vn -5.34612E-08 1 -9.981301E-08
vn 8.132169E-08 0.9999999 9.774739E-09
vn 2.997626E-08 1 3.099046E-08
vn 5.584654E-08 1 4.666053E-09
vn -0.1873558 0.9822864 -0.003343775
vn -1.006687E-08 1 5.864486E-09
vn -3.713603E-09 1 -1.965177E-08
vn -0.3444253 0.9387324 0.0123586
vn 5.720209E-08 1 8.244847E-08
vn -1.097832E-07 1 -8.260901E-09
vn -8.564601E-08 1 -1.104889E-08
vn 2.374455E-08 1 -2.421069E-09
vn -7.023715E-08 1 5.825748E-09
vn -1.261899E-07 1 4.659366E-08
vn -2.039592E-07 0.9999999 3.535337E-08
vn -8.418557E-08 0.9999999 -1.185767E-08
vn -0.3245141 0.9457718 -0.01436476
vn -0.4990539 0.8665209 -0.009307897
vn -3.694452E-15 1 3.156108E-09
vn -3.365646E-09 1 -2.046902E-09
vn -1.55035E-07 1 -4.429892E-09
vn -1.683018E-07 1 -8.153395E-08
vn 6.029403E-08 1 1.323997E-08
vn 1.398619E-07 1 1.58318E-07
vn 5.21552E-08 0.9999999 1.357069E-07
vn 1.104918E-07 1 -1.57062E-08
vn -5.836316E-09 1 -3.119601E-09
vn -1.441697E-08 1 -4.960386E-08
vn 4.023018E-08 1 -2.144406E-07
vn 7.294958E-08 1 -1.347767E-07
vn 5.021457E-08 1 -2.367191E-15
vn -0.5591161 0.8287921 0.02219784
vn -0.3873354 0.921939 3.958158E-07
vn -0.3807332 0.9246849 -0.0002908162
vn -0.6567753 0.7540585 0.006483573
vn -0.6284251 0.7774585 -0.025301
vn -0.3923544 0.9197838 -0.007474411
vn -0.5072278 0.8617641 -0.009086391
vn -0.4016676 0.9157855 8.250753E-09
vn -0.401668 0.9157854 9.09987E-08
vn -0.6081526 0.7938137 -0.0031931
vn -0.963991 0.2602854 0.05452178
vn -0.9648436 0.2627976 -0.003775783
vn -0.9727497 0.2301768 -0.02787046
vn -0.9823529 0.1847949 -0.02887247
vn -0.9646642 0.2630851 -0.01446256
vn -0.2029141 0.9791576 0.008742404
vn 2.660238E-08 1 -2.049374E-07
vn 1.056886E-09 1 -1.662692E-07
vn 2.850363E-10 1 -8.96764E-08
vn -3.880468E-09 1 -6.887922E-08
vn -1.754767E-07 1 2.054588E-07
vn -3.888272E-07 1 3.475907E-07
vn -4.851794E-07 1 3.070388E-08
vn -1.787403E-07 0.9999999 3.032044E-08
vn 7.183079E-08 1 2.491117E-07
vn 5.737682E-08 1 9.556202E-08
vn 5.462478E-08 1 1.175719E-06
vn 4.914505E-08 1 7.500464E-07
vn 0.02600925 0.9995371 -0.01578178
vn -1.786566E-07 1 -4.470631E-09
vn -2.828573E-07 1 2.180608E-07
vn -3.451827E-10 1 2.028102E-07
vn 6.069666E-08 0.9999999 1.088467E-07
vn 3.564437E-09 1 4.949198E-08
vn 4.559347E-09 1 -2.348586E-09
vn 9.258629E-09 1 4.634112E-09
vn 7.034848E-08 1 -8.791158E-10
vn 1.836225E-07 1 3.545496E-09
vn 1.612502E-07 1 5.898247E-08
vn 3.782607E-08 1 -9.2127E-08
vn -8.479677E-08 1 -1.685458E-08
vn -3.273801E-08 1 -1.024696E-08
vn 1.157582E-08 1 3.056684E-08
vn -0.5023255 0.8643688 0.02314225
vn -0.6146283 0.7880738 0.03422894
vn -0.3939038 0.9190777 0.01166235
vn -0.9794362 0.1933377 0.05766605
vn 0.04635004 0.9985293 -0.02812401
vn 0.7994749 -0.3542877 -0.4850982
vn 8.891153E-09 0.9999999 4.340035E-09
vn -4.750149E-08 1 -1.224712E-07
vn 1.671231E-07 1 1.449877E-08
vn 5.351109E-08 0.9999999 -1.390607E-07
vn 1.507486E-07 1 -1.512754E-07
vn -4.334339E-09 1 -1.363771E-07
vn -9.04825E-09 1 6.760335E-08
vn -0.4016682 0.9157852 5.249325E-08
vn -0.7367328 0.6761346 -0.0081604
vn -0.4615154 0.8871297 -0.002165018
vn -0.9571557 0.2875205 -0.03442192
vn 0 1 6.142429E-09
vn -3.383733E-08 1 4.502088E-08
vn -1.071185E-08 1 2.000395E-09
vn 4.978723E-15 0.9999999 1.729423E-09
vn -9.7299E-09 0.9999999 -1.09582E-07
vn -8.082971E-08 1 -3.283061E-07
vn 1.023301E-08 1 -2.709934E-07
vn -1.682449E-07 0.9999999 1.945027E-07
vn 2.164342E-08 0.9999999 -2.58623E-07
vn 1.166861E-07 1 1.743299E-07
vn 1.170571E-07 1 1.191741E-06
vn -2.917692E-07 1 1.918162E-07
vn -1.418586E-07 1 2.168696E-08
vn -1.920883E-07 1 7.375437E-07
vn 6.66495E-08 1 6.758841E-09
vn -2.963927E-08 0.9999999 1.185655E-06
vn 0 1 0
vn 1.556383E-07 1 1.035041E-07
vn -3.475466E-07 1 -1.015889E-07
vn 1.944475E-07 1 -3.504126E-08
vn 2.302812E-08 1 4.417563E-10
vn 2.554062E-08 0.9999999 1.588172E-14
vn -6.541515E-07 1 -2.849583E-07
vn 9.375626E-08 1 -1.405398E-07
vn 7.096403E-08 1 1.124901E-07

vt -1.954179 -4.091291
vt -1.954179 -2.832583
vt -2.969961 -2.83258
vt -2.969962 -4.091291
vt -2.969961 -1.385676
vt -3.814503 -1.385673
vt -3.814448 -2.831281
vt -1.522263 0.4727663
vt -1.956115 0.4727664
vt -1.954178 -1.385678
vt -0.9900622 -1.38568
vt -1.088411 0.4727662
vt -0.073771 -2.777432
vt -0.07382399 -1.385681
vt -0.9900626 -2.832583
vt 2.929186 0.2474162
vt 2.232637 0.2474163
vt 2.232698 -1.385685
vt 2.951005 -1.385687
vt -2.870318 2.967565
vt -3.814683 3.327418
vt -3.814628 1.866979
vt -2.870318 2.376089
vt -0.0740037 3.327417
vt -1.08841 2.376089
vt -1.08841 1.784613
vt -0.07394785 1.866984
vt 2.992054 1.866986
vt 3.048744 3.327416
vt 2.23252 3.327415
vt 2.232575 1.866987
vt -4.943707 3.327418
vt -3.814746 4.972198
vt -5.13559 4.972201
vt -2.413217 2.967565
vt -1.956115 2.967565
vt -1.954177 4.972195
vt -3.023663 4.972198
vt -0.07406628 4.97219
vt -0.07411855 6.344565
vt -0.9900596 6.032537
vt -0.9900599 4.972192
vt 3.995498 -1.385687
vt 6.176118 -1.385689
vt 6.176117 0.2474166
vt 3.931188 0.2474159
vt 3.999013 1.866986
vt 6.176119 1.866989
vt 4.060174 3.327416
vt 6.17612 3.327415
vt 6.17612 4.972183
vt 4.060174 4.972184
vt 3.459992 -1.385686
vt 3.389684 0.2474148
vt 3.417226 1.866988
vt 3.44206 3.327416
vt 3.483886 4.972185
vt 3.007299 4.972185
vt 1.589214 6.328117
vt 0.9153229 6.681633
vt 0.9532987 4.972188
vt 1.589266 4.972188
vt -5.17612 -2.829591
vt -4.747023 -3.570722
vt -4.731945 -4.09129
vt -3.8144 -4.091293
vt -0.07368588 -5.009238
vt -0.9900632 -5.009241
vt -0.9900633 -5.73622
vt -0.07365781 -5.746072
vt -5.16187 -1.38567
vt -4.967682 1.86698
vt -3.814365 -5.009242
vt -2.969962 -5.00924
vt 0.9564014 -2.715428
vt 0.9714075 -1.385682
vt 0.9898376 3.327415
vt 0.9898373 1.866984
vt -0.07372081 -4.091287
vt 0.6250374 -4.091287
vt 0.6419373 -3.262764
vt -2.87032 0.4727666
vt -3.814566 0.2547579
vt -0.07388616 0.2474169
vt 2.223212 -2.802042
vt 2.969737 -2.787723
vt 4.060172 -3.028021
vt 6.176119 -2.832582
vt 3.530698 -3.028021
vt -4.994017 0.2627122
vt -5.160632 -1.260232
vt 0.9898371 0.2474166
vt -3.814806 6.553066
vt -5.121944 6.663963
vt -1.954177 6.318529
vt -1.98931 6.32895
vt -3.064976 6.237502
vt -1.08841 2.967565
vt 6.176119 6.407416
vt 4.060175 6.813167
vt 2.969737 6.462872
vt 3.530702 6.813165
vt 1.589329 3.327415
vt 1.589508 -1.385685
vt 1.589446 0.2474165
vt 1.589384 1.866986
vt 2.232458 4.972186
vt 2.483491 6.21851
vt 2.232409 6.244381
vt 1.582167 -2.535204
vt 1.63063 6.30639
vt -1.954179 -5.009238
vt -1.95418 -5.736223
vt -4.789989 -5.009242
vt -4.930411 -5.813165
vt -3.814336 -5.774523
vt -0.990063 -4.091289
vt -2.969962 -5.73622
vt 0.7589843 -5.75502
vt 0.6730351 -5.009238
vt -4.717394 -4.593632
vt 0.6163467 -4.517351
vt -2.870319 1.784612
vt -2.870319 1.12869
vt -1.088411 1.128689
vt -2.413218 0.4727665
vt -1.522262 2.967565

usemtl sn20_03_n20r01.jpg
usemap sn20_03_n20r01.jpg
f 3/3/3 1/1/1 2/2/2
f 1/1/1 3/3/3 4/4/4
f 7/7/7 5/5/5 6/6/6
f 5/5/5 7/7/7 3/3/3
f 10/10/10 8/8/8 9/9/9
f 12/12/12 10/10/10 11/11/11
f 11/11/11 13/13/13 14/14/14
f 13/13/13 11/11/11 15/15/15
f 18/18/18 16/16/16 17/17/17
f 16/16/16 18/18/18 19/19/19
f 22/22/22 20/20/20 21/21/21
f 20/20/20 22/22/22 23/23/23
f 26/26/26 24/24/24 25/25/25
f 24/24/24 26/26/26 27/27/27
f 30/30/30 28/28/28 29/29/29
f 28/28/28 30/30/30 31/31/31
f 33/33/33 32/32/32 21/21/21
f 32/32/32 33/33/33 34/34/34
f 37/37/37 35/35/35 36/36/36
f 20/20/20 37/37/37 38/38/38
f 41/41/41 39/39/39 40/40/40
f 39/39/39 41/41/41 42/42/42
f 45/45/45 43/43/43 44/44/44
f 43/43/43 45/45/45 46/46/46
f 45/45/45 47/47/47 46/46/46
f 47/47/47 45/45/45 48/48/48
f 51/51/51 49/49/49 50/50/50
f 49/49/49 51/51/51 52/52/52
f 54/54/54 19/19/19 53/53/53
f 19/19/19 54/54/54 16/16/16
f 54/54/54 28/28/28 16/16/16
f 28/28/28 54/54/54 55/55/55
f 57/57/57 29/29/29 56/56/56
f 29/29/29 57/57/57 58/58/58
f 46/46/46 53/53/53 43/43/43
f 53/53/53 46/46/46 54/54/54
f 47/47/47 54/54/54 46/46/46
f 54/54/54 47/47/47 55/55/55
f 52/52/52 56/56/56 49/49/49
f 56/56/56 52/52/52 57/57/57
f 61/61/61 59/59/59 60/60/60
f 59/59/59 61/61/61 62/62/62
f 64/64/64 7/7/7 63/63/63
f 65/65/65 7/7/7 64/64/64
f 66/66/66 7/7/7 65/65/65
f 69/69/69 67/67/67 68/68/68
f 67/67/67 69/69/69 70/70/70
f 71/71/71 7/7/7 6/6/6
f 7/7/7 71/71/71 63/63/63
f 32/32/32 22/22/22 21/21/21
f 22/22/22 32/32/32 72/72/72
f 21/21/21 38/38/38 33/33/33
f 38/38/38 21/21/21 20/20/20
f 74/74/74 66/66/66 73/73/73
f 66/66/66 74/74/74 4/4/4
f 14/14/14 75/75/75 76/76/76
f 75/75/75 14/14/14 13/13/13
f 27/27/27 77/77/77 24/24/24
f 77/77/77 27/27/27 78/78/78
f 40/40/40 61/61/61 60/60/60
f 61/61/61 40/40/40 39/39/39
f 80/80/80 13/13/13 79/79/79
f 81/81/81 13/13/13 80/80/80
f 75/75/75 13/13/13 81/81/81
f 6/6/6 82/82/82 83/83/83
f 82/82/82 6/6/6 5/5/5
f 15/15/15 10/10/10 2/2/2
f 10/10/10 15/15/15 11/11/11
f 11/11/11 84/84/84 12/12/12
f 84/84/84 11/11/11 14/14/14
f 85/85/85 19/19/19 18/18/18
f 19/19/19 85/85/85 86/86/86
f 88/88/88 43/43/43 87/87/87
f 43/43/43 88/88/88 44/44/44
f 53/53/53 86/86/86 89/89/89
f 86/86/86 53/53/53 19/19/19
f 43/43/43 89/89/89 87/87/87
f 89/89/89 43/43/43 53/53/53
f 83/83/83 71/71/71 6/6/6
f 90/90/90 71/71/71 83/83/83
f 91/91/91 71/71/71 90/90/90
f 84/84/84 76/76/76 92/92/92
f 76/76/76 84/84/84 14/14/14
f 93/93/93 34/34/34 33/33/33
f 34/34/34 93/93/93 94/94/94
f 96/96/96 37/37/37 95/95/95
f 97/97/97 37/37/37 96/96/96
f 97/97/97 38/38/38 37/37/37
f 98/98/98 39/39/39 42/42/42
f 39/39/39 98/98/98 24/24/24
f 99/99/99 52/52/52 51/51/51
f 52/52/52 99/99/99 100/100/100
f 57/57/57 101/101/101 58/58/58
f 101/101/101 57/57/57 102/102/102
f 100/100/100 57/57/57 52/52/52
f 57/57/57 100/100/100 102/102/102
f 77/77/77 62/62/62 61/61/61
f 62/62/62 77/77/77 103/103/103
f 97/97/97 33/33/33 38/38/38
f 33/33/33 97/97/97 93/93/93
f 24/24/24 61/61/61 39/39/39
f 61/61/61 24/24/24 77/77/77
f 92/92/92 104/104/104 105/105/105
f 104/104/104 92/92/92 76/76/76
f 77/77/77 106/106/106 103/103/103
f 106/106/106 77/77/77 78/78/78
f 101/101/101 107/107/107 58/58/58
f 108/108/108 107/107/107 101/101/101
f 109/109/109 107/107/107 108/108/108
f 104/104/104 85/85/85 18/18/18
f 110/110/110 85/85/85 104/104/104
f 58/58/58 30/30/30 29/29/29
f 30/30/30 58/58/58 107/107/107
f 109/109/109 62/62/62 107/107/107
f 111/111/111 62/62/62 109/109/109
f 59/59/59 62/62/62 111/111/111
f 30/30/30 62/62/62 103/103/103
f 62/62/62 30/30/30 107/107/107
f 18/18/18 105/105/105 104/104/104
f 105/105/105 18/18/18 17/17/17
f 106/106/106 30/30/30 103/103/103
f 30/30/30 106/106/106 31/31/31
f 75/75/75 104/104/104 76/76/76
f 110/110/110 104/104/104 75/75/75
f 69/69/69 112/112/112 113/113/113
f 112/112/112 69/69/69 68/68/68
f 116/116/116 114/114/114 115/115/115
f 114/114/114 116/116/116 73/73/73
f 79/79/79 68/68/68 67/67/67
f 68/68/68 79/79/79 117/117/117
f 118/118/118 73/73/73 116/116/116
f 73/73/73 118/118/118 74/74/74
f 120/120/120 70/70/70 119/119/119
f 70/70/70 120/120/120 67/67/67
f 4/4/4 112/112/112 1/1/1
f 112/112/112 4/4/4 74/74/74
f 65/65/65 73/73/73 66/66/66
f 121/121/121 73/73/73 65/65/65
f 114/114/114 73/73/73 121/121/121
f 3/3/3 66/66/66 4/4/4
f 66/66/66 3/3/3 7/7/7
f 120/120/120 79/79/79 67/67/67
f 122/122/122 79/79/79 120/120/120
f 80/80/80 79/79/79 122/122/122
f 79/79/79 15/15/15 117/117/117
f 15/15/15 79/79/79 13/13/13
f 83/83/83 123/123/123 22/22/22
f 123/123/123 83/83/83 124/124/124
f 12/12/12 27/27/27 125/125/125
f 27/27/27 12/12/12 84/84/84
f 31/31/31 16/16/16 28/28/28
f 16/16/16 31/31/31 17/17/17
f 48/48/48 49/49/49 47/47/47
f 49/49/49 48/48/48 50/50/50
f 55/55/55 29/29/29 28/28/28
f 29/29/29 55/55/55 56/56/56
f 47/47/47 56/56/56 55/55/55
f 56/56/56 47/47/47 49/49/49
f 72/72/72 83/83/83 22/22/22
f 83/83/83 72/72/72 90/90/90
f 84/84/84 78/78/78 27/27/27
f 78/78/78 84/84/84 92/92/92
f 92/92/92 106/106/106 78/78/78
f 106/106/106 92/92/92 105/105/105
f 105/105/105 31/31/31 106/106/106
f 31/31/31 105/105/105 17/17/17
f 2/2/2 117/117/117 15/15/15
f 117/117/117 2/2/2 1/1/1
f 10/10/10 82/82/82 5/5/5
f 82/82/82 10/10/10 126/126/126
f 37/37/37 98/98/98 42/42/42
f 98/98/98 37/37/37 127/127/127
f 2/2/2 5/5/5 3/3/3
f 5/5/5 2/2/2 10/10/10
f 41/41/41 37/37/37 42/42/42
f 37/37/37 41/41/41 95/95/95
f 113/113/113 74/74/74 118/118/118
f 74/74/74 113/113/113 112/112/112
f 1/1/1 68/68/68 117/117/117
f 68/68/68 1/1/1 112/112/112
f 125/125/125 27/27/27 26/26/26
f 25/25/25 24/24/24 98/98/98
f 127/127/127 37/37/37 36/36/36
f 37/37/37 20/20/20 35/35/35
f 23/23/23 22/22/22 123/123/123
f 124/124/124 83/83/83 82/82/82
f 126/126/126 10/10/10 9/9/9
f 10/10/10 12/12/12 8/8/8
