mtllib ./Object03.mtl
g Object03
v -220.2501 22.71759 317.9954
v -0.000123024 22.71759 318.5462
v -0.0001335144 22.71759 214.5546
v -220.2501 22.71759 214.5546
v 220.2498 22.71759 319.097
v 220.2498 22.71759 214.5546
v -123.2932 22.71759 -121.7028
v -0.0001430511 22.71759 -121.7543
v -0.0001420975 22.71759 -220.2499
v -220.2501 22.71759 -220.2499
v -220.2501 22.71759 4.577637E-05
v -122.9847 22.71759 4.577637E-05
v 220.2498 22.71759 -220.2499
v 220.2498 22.71759 -321.6527
v -0.0001420975 22.71759 -321.975
v -320.061 22.71759 317.7457
v -320.0866 22.71759 214.5546
v -320.1945 22.71759 -220.2499
v -220.2501 22.71759 -322.2973
v -320.2199 22.71759 -322.4435
v 319.8815 22.71759 319.3463
v 319.8147 22.71759 214.5546
v 319.5377 22.71759 -220.2499
v 319.4731 22.71759 -321.5075
v -122.7075 22.71759 109.3813
v -0.0001430511 22.71759 108.9391
v 220.2498 22.71759 6.103516E-05
v 101.8783 22.71759 4.577637E-05
v 101.9577 22.71759 108.5716
v -320.1399 22.71759 3.814697E-05
v 319.678 22.71759 6.866455E-05
v 101.7891 22.71759 -121.7969

vn 0 1 0
vn 0 1 0
vn 0 1 0
vn 0 1 0
vn 0 1 0
vn 0 1 0
vn 0 1 0
vn 0 0.9999999 0
vn 0 1 0
vn 0 1 0
vn 0 1 0
vn 0 1 0
vn 0 1 0
vn 0 1 0
vn 0 1 0
vn 0 1 0
vn 0 1 0
vn 0 1 0
vn 0 0.9999999 0
vn 0 1 0
vn 0 1 0
vn 0 1 0
vn 0 1 0
vn 0 1 0
vn 0 1 0
vn 0 1 0
vn 0 1 0
vn 0 1 0
vn 0 0.9999999 0
vn 0 1 0
vn 0 1 0
vn 0 1 0

vt 2.700809 3.695441
vt 0.4983092 3.700949
vt 0.4983093 2.661033
vt 2.700809 2.661033
vt -1.70419 3.706457
vt -1.70419 2.661033
vt 1.731239 -0.7015409
vt 0.4983094 -0.7020565
vt 0.4983094 -1.687012
vt 2.700809 -1.687013
vt 2.700809 0.5154871
vt 1.728155 0.5154872
vt -1.70419 -1.687013
vt -1.70419 -2.701041
vt 0.4983093 -2.704263
vt 3.698918 3.692944
vt 3.699174 2.661033
vt 3.700253 -1.687012
vt 2.700809 -2.707486
vt 3.700507 -2.708949
vt -2.700506 3.708949
vt -2.699839 2.661033
vt -2.697068 -1.687012
vt -2.696423 -2.699588
vt 1.725383 1.6093
vt 0.4983094 1.604877
vt -1.70419 0.5154873
vt -0.5204747 0.5154872
vt -0.5212692 1.601203
vt 3.699707 0.5154871
vt -2.698472 0.5154874
vt -0.5195835 -0.7024822

usemtl sn20_34_n20r03.JPG
usemap sn20_34_n20r03.JPG
f 3/3/3 1/1/1 2/2/2
f 1/1/1 3/3/3 4/4/4
f 5/5/5 3/3/3 2/2/2
f 3/3/3 5/5/5 6/6/6
f 9/9/9 7/7/7 8/8/8
f 10/10/10 7/7/7 9/9/9
f 11/11/11 7/7/7 10/10/10
f 12/12/12 7/7/7 11/11/11
f 14/14/14 9/9/9 13/13/13
f 9/9/9 14/14/14 15/15/15
f 4/4/4 16/16/16 1/1/1
f 16/16/16 4/4/4 17/17/17
f 19/19/19 18/18/18 10/10/10
f 18/18/18 19/19/19 20/20/20
f 22/22/22 5/5/5 21/21/21
f 5/5/5 22/22/22 6/6/6
f 24/24/24 13/13/13 23/23/23
f 13/13/13 24/24/24 14/14/14
f 11/11/11 25/25/25 12/12/12
f 4/4/4 25/25/25 11/11/11
f 26/26/26 4/4/4 3/3/3
f 26/26/26 25/25/25 4/4/4
f 28/28/28 6/6/6 27/27/27
f 29/29/29 6/6/6 28/28/28
f 26/26/26 6/6/6 29/29/29
f 3/3/3 6/6/6 26/26/26
f 11/11/11 17/17/17 4/4/4
f 17/17/17 11/11/11 30/30/30
f 31/31/31 6/6/6 22/22/22
f 6/6/6 31/31/31 27/27/27
f 10/10/10 15/15/15 19/19/19
f 15/15/15 10/10/10 9/9/9
f 27/27/27 32/32/32 28/28/28
f 13/13/13 32/32/32 27/27/27
f 13/13/13 8/8/8 32/32/32
f 13/13/13 9/9/9 8/8/8
f 10/10/10 30/30/30 11/11/11
f 30/30/30 10/10/10 18/18/18
f 23/23/23 27/27/27 31/31/31
f 27/27/27 23/23/23 13/13/13
