mtllib ./Plane13.mtl
g Plane13
v 14.12974 -24.85434 -7.553548
v 12.7015 -24.90873 -8.133759
v 3.511553 8.811081 -19.27262
v 6.112855 -24.3607 -8.379201
v -4.308225 4.78392 -21.06053
v -0.7582339 -26.04295 -8.579398
v -12.39384 6.461349 -19.64839
v -8.114466 -27.2719 -6.295584
v -14.09932 -24.85509 -8.624823
v 16.30881 -22.08233 -1.72024
v 14.12974 -24.85434 -7.553548
v 4.847961 10.86073 -13.46516
v 3.511553 8.811081 -19.27262
v -5.150055 30.53694 -15.17853
v -5.150055 30.53694 -15.17853
v -13.16652 13.97792 -12.75912
v -13.16652 13.97792 -12.75912
v -12.39384 6.461349 -19.64839
v -18.82454 -24.06932 1.181848
v -14.09932 -24.85509 -8.624823
v 17.00559 -24.23674 6.160865
v 5.653997 5.126389 -4.348782
v -4.332954 17.03137 -5.93622
v -4.332954 17.03137 -5.93622
v -5.150055 30.53694 -15.17853
v -12.35764 9.616745 -3.609735
v -12.35764 9.616745 -3.609735
v -5.150055 30.53694 -15.17853
v -17.81884 -22.28532 8.754647
v 9.68148 -25.39 16.41181
v 9.68148 -25.39 16.41181
v 5.653997 5.126389 -4.348782
v 1.48972 -22.90977 16.84756
v -6.680389 -22.48372 17.52881
v -12.45856 -22.54868 13.52895
v -12.45856 -22.54868 13.52895
v 0.8397907 -27.86471 -5.378508
v -0.5875369 -27.73512 -5.948813
v -13.74361 0.8079376 -9.480733
v -7.161303 -26.99229 -6.025026
v -21.64779 -2.442825 -12.22307
v -14.06826 -28.409 -6.631561
v -29.69719 -1.002319 -10.40206
v -21.45748 -30.0172 -4.719832
v -27.37858 -26.94583 -6.329344
v 3.06409 -26.74072 0.9657332
v 0.8397907 -27.86471 -5.378508
v -12.37817 1.26004 -3.345181
v -13.74361 0.8079376 -9.480733
v -12.37817 1.26004 -3.345181
v -13.74361 0.8079376 -9.480733
v -22.19961 9.084702 -3.060979
v -22.19961 9.084702 -3.060979
v -30.31889 4.499603 -1.805513
v -30.31889 4.499603 -1.805513
v -29.69719 -1.002319 -10.40206
v -32.11388 -28.60741 3.362482
v -27.37858 -26.94583 -6.329344
v 3.687944 -30.86946 8.022856
v -11.73037 -6.647598 3.982137
v -21.43855 5.488632 5.547534
v -21.43855 5.488632 5.547534
v -24.86664 5.018753 7.398333
v -30.31889 4.499603 -1.805513
v -24.86664 5.018753 7.398333
v -31.09051 -28.85949 11.13615
v -11.73037 -6.647598 3.982137
v -3.691091 -34.45932 17.65179
v 3.687944 -30.86946 8.022856
v -3.691091 -34.45932 17.65179
v -11.73037 -6.647598 3.982137
v -11.82552 -31.98922 18.73669
v -21.43855 5.488632 5.547534
v -19.98572 -31.56712 19.52923
v -24.86664 5.018753 7.398333
v -25.75203 -30.46693 15.66513
v -25.75203 -30.46693 15.66513
v -18.13948 -41.8891 -10.0916
v -18.93309 -41.9752 -9.148873
v -39.70848 -1.864563 -12.96352
v -21.06111 -40.83787 -4.404716
v -41.9166 -6.658371 -6.581204
v -22.56049 -42.43864 1.091944
v -43.58077 -3.632324 -0.5857323
v -22.51546 -42.88466 7.441975
v -26.56334 -39.93786 10.78831
v -14.1288 -37.31407 -10.97818
v -18.13948 -41.8891 -10.0916
v -35.72718 1.872894 -13.05371
v -39.70848 -1.864563 -12.96352
v -45.61288 26.70573 -10.65668
v -45.61288 26.70573 -10.65668
v -41.02839 7.300369 -0.135733
v -41.02839 7.300369 -0.135733
v -43.58077 -3.632324 -0.5857323
v -20.92442 -36.40768 16.49986
v -26.56334 -39.93786 10.78831
v -7.540987 -38.28611 -9.091059
v -27.12978 -3.27858 -10.10009
v -34.57891 11.9292 -5.83388
v -34.57891 11.9292 -5.83388
v -45.61288 26.70573 -10.65668
v -32.81981 3.861618 2.497224
v -32.81981 3.861618 2.497224
v -45.61288 26.70573 -10.65668
v -15.66466 -32.58075 17.14536
v -1.697171 -36.86348 -0.8656859
v -1.697171 -36.86348 -0.8656859
v -27.12978 -3.27858 -10.10009
v -4.344357 -33.04987 4.783595
v -6.187644 -31.73457 10.96391
v -10.65075 -32.25894 14.34335
v -10.65075 -32.25894 14.34335

vn 0.2300105 -0.1968664 -0.9530681
vn -0.06905811 -0.2929097 -0.953643
vn 0.04049391 -0.1502414 -0.9878197
vn 0.02820174 -0.313449 -0.9491861
vn -0.2113784 -0.1015404 -0.9721155
vn -0.2662455 -0.382966 -0.8845623
vn -0.2458068 -0.2917007 -0.9243862
vn -0.1738574 -0.3711611 -0.9121476
vn 0.07627369 -0.3345007 -0.9393039
vn 0.9219062 0.3102767 -0.2319856
vn 0.8524883 0.1804046 -0.4906302
vn 0.9163135 0.3695183 -0.1543556
vn 0.8524342 0.2749421 -0.4447053
vn 0.8851498 0.4568993 0.0880497
vn -0.4422574 0.2029764 -0.8736184
vn -0.594772 0.2960495 -0.7473961
vn -0.9581131 0.2034853 0.2015267
vn -0.9876124 -0.009970874 -0.1565955
vn -0.9981758 0.04895589 -0.03533482
vn -0.9546263 -0.1007275 -0.2802545
vn 0.8589426 0.4483998 0.2472957
vn 0.8684425 0.4596671 0.1857788
vn 0.7880188 0.5070969 0.3491117
vn 0.2292807 0.5274395 0.8180697
vn -0.1325011 0.5344304 0.834762
vn -0.2056947 0.4830326 0.8510988
vn -0.7546685 0.3582515 0.5496646
vn -0.7889082 0.4510146 0.4173844
vn -0.8450199 0.270873 0.4610522
vn 0.7716492 0.4649874 0.4339864
vn 0.3353007 0.5685909 0.7511843
vn 0.4821689 0.5255952 0.7009014
vn 0.4008794 0.5230358 0.7521498
vn -0.04920122 0.4955091 0.8672083
vn -0.401127 0.4017149 0.823239
vn -0.4896612 0.375512 0.786907
vn 0.2265246 0.05834785 -0.9722562
vn -0.08494276 -0.09047267 -0.9922699
vn 0.03149237 0.0798354 -0.9963105
vn 0.02349181 -0.1052214 -0.9941713
vn -0.1501883 0.1306903 -0.9799814
vn -0.270563 -0.2357315 -0.9333951
vn -0.2645844 -0.1104692 -0.9580145
vn -0.1961894 -0.2041927 -0.9590699
vn 0.04052289 -0.1351953 -0.98999
vn 0.8594685 0.5110548 -0.0116961
vn 0.803686 0.4115544 -0.4297811
vn 0.8699333 0.4880597 -0.0708083
vn 0.8348919 0.4155919 -0.3608863
vn 0.6269342 0.7787755 -0.0215016
vn 0.5708336 0.7702658 -0.2843233
vn 0.3021646 0.9444475 0.1292886
vn -0.3389701 0.6001204 -0.7245378
vn -0.3646032 0.6877259 -0.6277718
vn -0.9280359 0.1200906 0.3526011
vn -0.9916967 -0.05091351 -0.1180918
vn -0.9999017 -0.01251049 0.006344983
vn -0.9379978 -0.1498394 -0.3125832
vn 0.8264295 0.5492492 0.1238531
vn 0.8129735 0.5150044 0.2717433
vn 0.7791901 0.507434 0.3679315
vn 0.5395523 0.8141372 0.2146247
vn -0.2784397 0.9066634 0.3169112
vn -0.4139209 0.8635854 0.2879059
vn -0.6562793 0.2076233 0.7253895
vn -0.7707688 0.1732594 0.6131042
vn 0.6886143 0.4862603 0.5379232
vn 0.6886143 0.4862603 0.5379232
vn 0.6886143 0.4862603 0.5379232
vn 0.3854916 0.4852951 0.7847832
vn 0.5872163 0.4415559 0.6783845
vn 0.4781121 0.4190741 0.7718716
vn 0.5164623 0.3822759 0.7662452
vn 0.1018098 0.3229368 0.9409286
vn -0.03770623 0.2867652 0.9572586
vn -0.3817496 0.2064014 0.9009249
vn -0.4714768 0.1957567 0.8598773
vn -0.7655598 -0.4096666 -0.4960762
vn -0.8647946 -0.4580194 -0.2057876
vn -0.8645329 -0.3801156 -0.3287783
vn -0.8273168 -0.4762968 -0.2978057
vn -0.9390173 -0.3320915 -0.08922821
vn -0.870979 -0.4910854 0.01518818
vn -0.8981584 -0.4389187 -0.02572698
vn -0.8642037 -0.4957909 -0.08569315
vn -0.8016973 -0.4909342 -0.3409764
vn 0.0497548 0.06873921 -0.9963932
vn -0.1908418 -0.08204039 -0.9781865
vn 0.1122541 0.1299638 -0.985144
vn -0.1662062 -0.01257917 -0.9860108
vn 0.324746 0.2655843 -0.9077472
vn -0.9846789 -0.1127036 0.1330617
vn -0.9494002 -0.01218991 0.313832
vn -0.1715459 0.2314683 0.9575983
vn -0.4701245 0.0004755537 0.8825999
vn -0.3732904 0.07095584 0.9249971
vn -0.5586211 -0.09082822 0.8244347
vn 0.4703112 0.3104401 -0.8260958
vn 0.413669 0.2989729 -0.8599379
vn 0.5447202 0.3907924 -0.7419983
vn 0.8079633 0.5890631 -0.01413382
vn 0.6925306 0.6215288 0.3662009
vn 0.6776494 0.5862099 0.4440148
vn 0.1978205 0.4273218 0.8821923
vn 0.04675078 0.457741 0.8878556
vn 0.09529046 0.345521 0.9335603
vn 0.6206704 0.3858224 -0.6825754
vn 0.7864571 0.5984088 -0.1529444
vn 0.7837093 0.5354603 -0.3147726
vn 0.8045914 0.5542957 -0.2130467
vn 0.7511445 0.5929576 0.2901435
vn 0.5787698 0.5233387 0.6254134
vn 0.5136465 0.4973795 0.6991287

vt 0.04745185 0.04227754
vt 0.08632055 0.04133767
vt 0.3179414 0.6240534
vt 0.2716975 0.05080822
vt 0.5342196 0.5544596
vt 0.4651582 0.02173713
vt 0.7659872 0.5834473
vt 0.6785129 0.0004995167
vt 0.841642 0.04226458
vt 0.4533281 0.09018099
vt 0.6088454 0.04227754
vt 0.7825884 0.6594737
vt 0.9355167 0.6240534
vt 0.8496197 0.9995005
vt 0.5726621 0.9995005
vt 0.8049915 0.7133422
vt 0.1945289 0.7133422
vt 0.0184949 0.5834473
vt 0.541406 0.05584359
vt 0.2990992 0.04226458
vt 0.2483436 0.05295032
vt 0.5454758 0.5603778
vt 0.6092309 0.7661092
vt 0.4273378 0.7661092
vt 0.4273379 0.9995005
vt 0.1950085 0.6379763
vt 0.4325021 0.6379763
vt 0.1503803 0.9995005
vt 0.7391377 0.08667296
vt 0.0004995167 0.03302085
vt 0.767171 0.03302085
vt 0.7052912 0.5603778
vt 0.5348417 0.07588181
vt 0.3025123 0.08324447
vt 0.1493843 0.08212203
vt 0.8745837 0.08212203
vt 0.04745185 0.06375578
vt 0.08632055 0.06233269
vt 0.4488829 0.752052
vt 0.2716975 0.07667208
vt 0.6651611 0.64668
vt 0.4651582 0.03265548
vt 0.8969287 0.6905704
vt 0.6785129 0.0004995763
vt 0.841642 0.06373614
vt 0.4533281 0.1362865
vt 0.6088453 0.06375578
vt 0.7825884 0.8056819
vt 0.9355167 0.752052
vt 0.4256503 0.2174116
vt 0.4488829 0.06448328
vt 0.7036036 0.1503803
vt 0.7036036 0.9995004
vt 0.935933 0.8872443
vt 0.1945289 0.8872443
vt 0.0184949 0.6905704
vt 0.541406 0.08429611
vt 0.2990992 0.06373614
vt 0.2483436 0.07991546
vt 0.5454758 0.6556408
vt 0.6092309 0.9671391
vt 0.7036037 0.3907691
vt 0.8049915 0.4325021
vt 0.935933 0.1945289
vt 0.4325021 0.9657043
vt 0.7391377 0.1309749
vt 0.4256504 0.4545242
vt 0.232829 0.9995005
vt 0.0004995763 0.7516564
vt 0.767171 0.04974017
vt 0.5743496 0.6556408
vt 0.5348417 0.114636
vt 0.2963963 0.9671391
vt 0.3025123 0.1257838
vt 0.1950085 0.9657043
vt 0.1493843 0.1240844
vt 0.8745837 0.1240844
vt 0.04745188 0.04227754
vt 0.08632058 0.04133764
vt 0.3179414 0.6240534
vt 0.2716975 0.05080822
vt 0.5342196 0.5544596
vt 0.4651582 0.0217371
vt 0.7659872 0.5834473
vt 0.6785129 0.0004995167
vt 0.841642 0.04226458
vt 0.4533281 0.09018099
vt 0.6088454 0.04227754
vt 0.7825884 0.6594737
vt 0.9355167 0.6240534
vt 0.8496197 0.9995005
vt 0.5726621 0.9995005
vt 0.8049915 0.7133422
vt 0.1945289 0.7133422
vt 0.01849493 0.5834473
vt 0.541406 0.05584356
vt 0.2990992 0.04226458
vt 0.2483437 0.05295032
vt 0.5454758 0.5603778
vt 0.6092309 0.7661092
vt 0.4273378 0.7661092
vt 0.4273379 0.9995005
vt 0.1950085 0.6379763
vt 0.4325021 0.6379763
vt 0.1503803 0.9995005
vt 0.7391376 0.08667296
vt 0.0004995763 0.03302082
vt 0.767171 0.03302082
vt 0.7052912 0.5603778
vt 0.5348417 0.07588178
vt 0.3025123 0.08324444
vt 0.1493843 0.08212203
vt 0.8745837 0.08212203

usemtl sn20_17_n20r43.jpg
usemap sn20_17_n20r43.jpg
f 3/3/3 1/1/1 2/2/2
f 2/2/2 4/4/4 3/3/3
f 5/5/5 3/3/3 4/4/4
f 4/4/4 6/6/6 5/5/5
f 7/7/7 5/5/5 6/6/6
f 6/6/6 8/8/8 7/7/7
f 9/9/9 7/7/7 8/8/8
f 12/12/12 10/10/10 11/11/11
f 11/11/11 13/13/13 12/12/12
f 14/14/14 12/12/12 13/13/13
f 3/3/3 5/5/5 15/15/15
f 16/16/16 15/15/15 5/5/5
f 5/5/5 7/7/7 16/16/16
f 19/19/19 17/17/17 18/18/18
f 18/18/18 20/20/20 19/19/19
f 22/22/22 21/21/21 10/10/10
f 10/10/10 12/12/12 22/22/22
f 23/23/23 22/22/22 12/12/12
f 12/12/12 14/14/14 23/23/23
f 26/26/26 24/24/24 25/25/25
f 28/28/28 17/17/17 27/27/27
f 29/29/29 27/27/27 17/17/17
f 17/17/17 19/19/19 29/29/29
f 21/21/21 22/22/22 30/30/30
f 33/33/33 31/31/31 32/32/32
f 32/32/32 24/24/24 33/33/33
f 34/34/34 33/33/33 24/24/24
f 24/24/24 26/26/26 34/34/34
f 35/35/35 34/34/34 26/26/26
f 27/27/27 29/29/29 36/36/36
f 39/39/39 37/37/37 38/38/38
f 38/38/38 40/40/40 39/39/39
f 41/41/41 39/39/39 40/40/40
f 40/40/40 42/42/42 41/41/41
f 43/43/43 41/41/41 42/42/42
f 42/42/42 44/44/44 43/43/43
f 45/45/45 43/43/43 44/44/44
f 48/48/48 46/46/46 47/47/47
f 47/47/47 49/49/49 48/48/48
f 52/52/52 50/50/50 51/51/51
f 39/39/39 41/41/41 53/53/53
f 54/54/54 53/53/53 41/41/41
f 41/41/41 43/43/43 54/54/54
f 57/57/57 55/55/55 56/56/56
f 56/56/56 58/58/58 57/57/57
f 60/60/60 59/59/59 46/46/46
f 46/46/46 48/48/48 60/60/60
f 61/61/61 60/60/60 48/48/48
f 50/50/50 52/52/52 62/62/62
f 63/63/63 62/62/62 52/52/52
f 52/52/52 64/64/64 63/63/63
f 66/66/66 65/65/65 55/55/55
f 55/55/55 57/57/57 66/66/66
f 69/69/69 67/67/67 68/68/68
f 72/72/72 70/70/70 71/71/71
f 71/71/71 73/73/73 72/72/72
f 74/74/74 72/72/72 73/73/73
f 73/73/73 75/75/75 74/74/74
f 76/76/76 74/74/74 75/75/75
f 65/65/65 66/66/66 77/77/77
f 80/80/80 78/78/78 79/79/79
f 79/79/79 81/81/81 80/80/80
f 82/82/82 80/80/80 81/81/81
f 81/81/81 83/83/83 82/82/82
f 84/84/84 82/82/82 83/83/83
f 83/83/83 85/85/85 84/84/84
f 86/86/86 84/84/84 85/85/85
f 89/89/89 87/87/87 88/88/88
f 88/88/88 90/90/90 89/89/89
f 91/91/91 89/89/89 90/90/90
f 80/80/80 82/82/82 92/92/92
f 93/93/93 92/92/92 82/82/82
f 82/82/82 84/84/84 93/93/93
f 96/96/96 94/94/94 95/95/95
f 95/95/95 97/97/97 96/96/96
f 99/99/99 98/98/98 87/87/87
f 87/87/87 89/89/89 99/99/99
f 100/100/100 99/99/99 89/89/89
f 89/89/89 91/91/91 100/100/100
f 103/103/103 101/101/101 102/102/102
f 105/105/105 94/94/94 104/104/104
f 106/106/106 104/104/104 94/94/94
f 94/94/94 96/96/96 106/106/106
f 98/98/98 99/99/99 107/107/107
f 110/110/110 108/108/108 109/109/109
f 109/109/109 101/101/101 110/110/110
f 111/111/111 110/110/110 101/101/101
f 101/101/101 103/103/103 111/111/111
f 112/112/112 111/111/111 103/103/103
f 104/104/104 106/106/106 113/113/113
