mtllib ./Plane14.mtl
g Plane14
v 14.13696 -25.95952 -0.8511353
v 12.70923 -26.16255 -1.398743
v 3.529419 3.523148 -20.89349
v 6.120728 -25.69829 -1.783508
v -4.288696 -0.8313789 -21.58508
v -0.7501221 -27.37666 -1.547546
v -12.37561 1.152462 -20.66235
v -8.108521 -27.97437 0.9700317
v -14.09119 -26.24418 -1.910583
v 16.31055 -21.77168 4.067871
v 14.13696 -25.95952 -0.8511353
v 4.860596 7.006363 -15.81323
v 3.529419 3.523148 -20.89349
v -5.135986 17.84983 -22.56964
v -5.135986 17.84983 -22.56964
v -13.15454 10.1958 -15.95398
v -13.15454 10.1958 -15.95398
v -12.37561 1.152462 -20.66235
v -18.82532 -22.94816 7.354309
v -14.09119 -26.24418 -1.910583
v 17.00012 -21.81274 12.23865
v 5.658203 3.827087 -5.522644
v -4.327271 14.9132 -10.14606
v -4.327271 14.9132 -10.14606
v -5.135986 17.84983 -22.56964
v -12.354 8.351475 -5.986816
v -12.354 8.351475 -5.986816
v -5.135986 17.84983 -22.56964
v -17.82654 -19.26474 14.20819
v 9.666748 -20.27529 22.43231
v 9.666748 -20.27529 22.43231
v 5.658203 3.827087 -5.522644
v 1.474609 -17.76875 22.20404
v -6.696167 -17.18281 22.74463
v -12.4707 -18.28215 18.89276
v -12.4707 -18.28215 18.89276
v 4.148071 -10.43503 2.017151
v 2.721313 -10.45779 1.431458
v -10.43164 16.19543 -9.379211
v -3.852417 -9.761559 1.15979
v -18.33325 12.34381 -11.19373
v -10.75891 -11.28862 0.9344482
v -26.38428 14.20462 -9.814697
v -18.14966 -12.34897 3.190796
v -24.06946 -9.800224 0.8359985
v 6.366455 -7.706806 7.856262
v 4.148071 -10.43503 2.017151
v -9.071777 18.22045 -3.568542
v -10.43164 16.19543 -9.379211
v -9.071777 18.22045 -3.568542
v -10.43164 16.19543 -9.379211
v -18.89343 25.84972 -5.327881
v -18.89343 25.84972 -5.327881
v -27.01392 21.74387 -2.935669
v -27.01392 21.74387 -2.935669
v -26.38428 14.20462 -9.814697
v -28.8136 -8.897892 10.62335
v -24.06946 -9.800224 0.8359985
v 6.984009 -9.868198 15.74207
v -8.430664 12.47886 5.556335
v -18.14026 24.6044 3.918701
v -18.14026 24.6044 3.918701
v -21.56995 24.62876 5.825012
v -27.01392 21.74387 -2.935669
v -21.56995 24.62876 5.825012
v -27.79724 -7.129169 18.1983
v -8.430664 12.47886 5.556335
v -0.4038086 -10.84533 25.96552
v 6.984009 -9.868198 15.74207
v -0.4038086 -10.84533 25.96552
v -8.430664 12.47886 5.556335
v -8.539185 -8.180531 26.36694
v -18.14026 24.6044 3.918701
v -16.7002 -7.569611 27.01599
v -21.56995 24.62876 5.825012
v -22.46289 -7.508381 22.99371
v -22.46289 -7.508381 22.99371
v -17.41919 -35.45039 19.03058
v -18.55798 -35.76783 18.67273
v -26.86243 -2.399212 -10.86713
v -23.8429 -35.36189 18.18866
v -32.99292 -7.782688 -9.444458
v -29.28845 -37.45438 19.18475
v -39.51331 -5.468739 -9.502625
v -35.14282 -38.0529 21.61176
v -39.99316 -36.36403 18.46698
v -15.77576 -29.9621 21.26227
v -17.41919 -35.45039 19.03058
v -25.87158 2.250797 -8.179443
v -26.86243 -2.399212 -10.86713
v -34.4397 11.72338 -15.0401
v -34.4397 11.72338 -15.0401
v -40.37305 5.733608 -9.598389
v -40.37305 5.733608 -9.598389
v -39.51331 -5.468739 -9.502625
v -43.82568 -31.64476 24.78534
v -39.99316 -36.36403 18.46698
v -15.17969 -29.22961 28.11902
v -25.08716 -0.553215 1.855469
v -33.4187 12.04832 -6.905396
v -33.4187 12.04832 -6.905396
v -34.4397 11.72338 -15.0401
v -39.62646 4.489265 -0.4314575
v -39.62646 4.489265 -0.4314575
v -34.4397 11.72338 -15.0401
v -43.09717 -26.59478 28.87128
v -21.03528 -26.56125 36.01978
v -21.03528 -26.56125 36.01978
v -25.08716 -0.553215 1.855469
v -27.66113 -23.73491 34.76453
v -34.21008 -23.12346 35.01208
v -38.81714 -24.89296 32.31793
v -38.81714 -24.89296 32.31793

vn 0.3762406 -0.42449 -0.8235601
vn 0.08096108 -0.5295075 -0.844433
vn 0.2020005 -0.4265758 -0.8816057
vn 0.1763276 -0.5442694 -0.8201703
vn -0.02837924 -0.3940666 -0.9186438
vn -0.1246045 -0.6068186 -0.7850127
vn -0.09818992 -0.5280162 -0.8435388
vn -0.02904271 -0.5987279 -0.8004258
vn 0.2222555 -0.5601336 -0.7980306
vn 0.9468461 0.2777274 -0.1623266
vn 0.9187407 0.08335114 -0.385964
vn 0.9107436 0.3772396 -0.1680373
vn 0.9014861 0.2085855 -0.3792296
vn 0.7646834 0.6343689 -0.1132938
vn -0.3067358 -0.06396122 -0.9496432
vn -0.4487712 0.09305413 -0.8887886
vn -0.9743211 0.2248603 -0.01167532
vn -0.9509615 -0.0896436 -0.2960342
vn -0.980362 -0.002154195 -0.1971947
vn -0.8990381 -0.2075851 -0.3855371
vn 0.8096904 0.5311089 0.2496495
vn 0.8286937 0.5266523 0.1894837
vn 0.694289 0.7057629 0.1409308
vn 0.07576942 0.7541225 0.6523483
vn -0.5434527 0.8083208 0.2264434
vn -0.3939127 0.7013846 0.5940476
vn -0.7905546 0.5075138 0.342714
vn -0.5898018 0.7842703 0.1924932
vn -0.9067373 0.3452917 0.2420766
vn 0.6942707 0.591322 0.4102761
vn 0.2136706 0.7548191 0.6201557
vn 0.3665981 0.7063802 0.6055022
vn 0.2782936 0.7137175 0.6427752
vn -0.1842407 0.6983208 0.691667
vn -0.5249596 0.5822353 0.6208215
vn -0.6067322 0.5440479 0.5795583
vn 0.3758392 -0.1829953 -0.9084368
vn 0.07131533 -0.3444849 -0.9360791
vn 0.1869493 -0.1762998 -0.9664204
vn 0.178712 -0.3548277 -0.9176925
vn 0.004950999 -0.1303589 -0.9914544
vn -0.1212317 -0.4772592 -0.87036
vn -0.1114788 -0.3623181 -0.9253638
vn -0.04376236 -0.4503494 -0.8917793
vn 0.194867 -0.3820257 -0.9033732
vn 0.8507194 0.525445 -0.01357322
vn 0.8610208 0.320204 -0.3951106
vn 0.8703008 0.4885476 -0.06243253
vn 0.8810636 0.3429762 -0.3257213
vn 0.6225821 0.7721224 -0.1273515
vn 0.6082824 0.6944442 -0.3843692
vn 0.2782224 0.9575495 -0.07544003
vn -0.2214635 0.3807324 -0.8977732
vn -0.2619185 0.4890501 -0.8320029
vn -0.9717653 0.1685655 0.1651003
vn -0.9610161 -0.1195168 -0.2493269
vn -0.9885859 -0.05094247 -0.1417838
vn -0.8775564 -0.262614 -0.4011591
vn 0.7968875 0.59565 0.1008537
vn 0.7604631 0.5998346 0.2487854
vn 0.7120467 0.6157452 0.3374128
vn 0.4993433 0.8631025 0.07556767
vn -0.3245831 0.9455103 0.025615
vn -0.4538566 0.8910022 -0.0113758
vn -0.7616629 0.3594143 0.5391577
vn -0.8571791 0.2928831 0.4236312
vn 0.5959957 0.6350816 0.4913863
vn 0.5959957 0.6350816 0.4913863
vn 0.5959957 0.6350816 0.4913863
vn 0.2579908 0.6849829 0.681351
vn 0.4738751 0.6237022 0.6216413
vn 0.3514881 0.6214678 0.7001671
vn 0.3902473 0.5860378 0.7101175
vn -0.04662607 0.5565878 0.8294795
vn -0.1869813 0.5201741 0.8333408
vn -0.5179796 0.4142182 0.748412
vn -0.6001753 0.3898122 0.6984527
vn 0.3862462 -0.555649 -0.7362527
vn 0.09026242 -0.6474501 -0.7567436
vn 0.1956673 -0.5719203 -0.7966313
vn 0.1892596 -0.6492393 -0.7366607
vn 0.005112894 -0.5607955 -0.8279385
vn -0.1222531 -0.6961001 -0.7074594
vn -0.09381315 -0.6498664 -0.7542366
vn -0.02210047 -0.6919875 -0.7215713
vn 0.2379723 -0.6538822 -0.7181972
vn 0.9720646 0.1474069 -0.1826517
vn 0.9264487 -0.06044381 -0.3715364
vn 0.9505178 0.2059329 -0.23261
vn 0.9141755 0.03842057 -0.4034933
vn 0.8065131 0.4658265 -0.3640636
vn -0.257708 -0.284044 -0.9235289
vn -0.3397849 -0.196004 -0.9198526
vn -0.9925489 0.1199563 -0.02137871
vn -0.9496922 -0.1796127 -0.2565617
vn -0.9809532 -0.08992767 -0.1721745
vn -0.8989872 -0.2861839 -0.3315428
vn 0.8574805 0.4757341 0.1959703
vn 0.8810145 0.4526069 0.1376977
vn 0.7924839 0.6098765 0.004467033
vn 0.08357076 0.7920002 0.6047741
vn -0.7423813 0.6666644 0.06654762
vn -0.4460104 0.7091836 0.546016
vn -0.8341089 0.4588188 0.3061822
vn -0.6280453 0.76265 0.1546739
vn -0.9327247 0.2934198 0.2095934
vn 0.7373191 0.5768024 0.3516526
vn 0.2274933 0.78763 0.5726132
vn 0.3921723 0.7373201 0.5500544
vn 0.2947966 0.7538072 0.587256
vn -0.2102851 0.7429612 0.6354439
vn -0.5615125 0.6089685 0.5602331
vn -0.6426483 0.562319 0.520385

vt 0.04745185 0.04227754
vt 0.08632055 0.04133767
vt 0.3179414 0.6240534
vt 0.2716975 0.05080822
vt 0.5342196 0.5544596
vt 0.4651582 0.02173713
vt 0.7659872 0.5834473
vt 0.6785129 0.0004995167
vt 0.841642 0.04226458
vt 0.4533281 0.09018099
vt 0.6088454 0.04227754
vt 0.7825884 0.6594737
vt 0.9355167 0.6240534
vt 0.8496197 0.9995005
vt 0.5726621 0.9995005
vt 0.8049915 0.7133422
vt 0.1945289 0.7133422
vt 0.0184949 0.5834473
vt 0.541406 0.05584359
vt 0.2990992 0.04226458
vt 0.2483436 0.05295032
vt 0.5454758 0.5603778
vt 0.6092309 0.7661092
vt 0.4273378 0.7661092
vt 0.4273379 0.9995005
vt 0.1950085 0.6379763
vt 0.4325021 0.6379763
vt 0.1503803 0.9995005
vt 0.7391377 0.08667296
vt 0.0004995167 0.03302085
vt 0.767171 0.03302085
vt 0.7052912 0.5603778
vt 0.5348417 0.07588181
vt 0.3025123 0.08324447
vt 0.1493843 0.08212203
vt 0.8745837 0.08212203
vt 0.04745185 0.06375578
vt 0.08632055 0.06233269
vt 0.4488829 0.752052
vt 0.2716975 0.07667208
vt 0.6651611 0.64668
vt 0.4651582 0.03265548
vt 0.8969287 0.6905704
vt 0.6785129 0.0004995763
vt 0.841642 0.06373614
vt 0.4533281 0.1362865
vt 0.6088453 0.06375578
vt 0.7825884 0.8056819
vt 0.9355167 0.752052
vt 0.4256503 0.2174116
vt 0.4488829 0.06448328
vt 0.7036036 0.1503803
vt 0.7036036 0.9995004
vt 0.935933 0.8872443
vt 0.1945289 0.8872443
vt 0.0184949 0.6905704
vt 0.541406 0.08429611
vt 0.2990992 0.06373614
vt 0.2483436 0.07991546
vt 0.5454758 0.6556408
vt 0.6092309 0.9671391
vt 0.7036037 0.3907691
vt 0.8049915 0.4325021
vt 0.935933 0.1945289
vt 0.4325021 0.9657043
vt 0.7391377 0.1309749
vt 0.4256504 0.4545242
vt 0.232829 0.9995005
vt 0.0004995763 0.7516564
vt 0.767171 0.04974017
vt 0.5743496 0.6556408
vt 0.5348417 0.114636
vt 0.2963963 0.9671391
vt 0.3025123 0.1257838
vt 0.1950085 0.9657043
vt 0.1493843 0.1240844
vt 0.8745837 0.1240844
vt 0.04745188 0.04227754
vt 0.08632058 0.04133764
vt 0.3179414 0.6240534
vt 0.2716975 0.05080822
vt 0.5342196 0.5544596
vt 0.4651582 0.0217371
vt 0.7659872 0.5834473
vt 0.6785129 0.0004995167
vt 0.841642 0.04226458
vt 0.4533281 0.09018099
vt 0.6088454 0.04227754
vt 0.7825884 0.6594737
vt 0.9355167 0.6240534
vt 0.8496197 0.9995005
vt 0.5726621 0.9995005
vt 0.8049915 0.7133422
vt 0.1945289 0.7133422
vt 0.01849493 0.5834473
vt 0.541406 0.05584356
vt 0.2990992 0.04226458
vt 0.2483437 0.05295032
vt 0.5454758 0.5603778
vt 0.6092309 0.7661092
vt 0.4273378 0.7661092
vt 0.4273379 0.9995005
vt 0.1950085 0.6379763
vt 0.4325021 0.6379763
vt 0.1503803 0.9995005
vt 0.7391376 0.08667296
vt 0.0004995763 0.03302082
vt 0.767171 0.03302082
vt 0.7052912 0.5603778
vt 0.5348417 0.07588178
vt 0.3025123 0.08324444
vt 0.1493843 0.08212203
vt 0.8745837 0.08212203

usemtl sn20_17_n20r43.jpg
usemap sn20_17_n20r43.jpg
f 3/3/3 1/1/1 2/2/2
f 2/2/2 4/4/4 3/3/3
f 5/5/5 3/3/3 4/4/4
f 4/4/4 6/6/6 5/5/5
f 7/7/7 5/5/5 6/6/6
f 6/6/6 8/8/8 7/7/7
f 9/9/9 7/7/7 8/8/8
f 12/12/12 10/10/10 11/11/11
f 11/11/11 13/13/13 12/12/12
f 14/14/14 12/12/12 13/13/13
f 3/3/3 5/5/5 15/15/15
f 16/16/16 15/15/15 5/5/5
f 5/5/5 7/7/7 16/16/16
f 19/19/19 17/17/17 18/18/18
f 18/18/18 20/20/20 19/19/19
f 22/22/22 21/21/21 10/10/10
f 10/10/10 12/12/12 22/22/22
f 23/23/23 22/22/22 12/12/12
f 12/12/12 14/14/14 23/23/23
f 26/26/26 24/24/24 25/25/25
f 28/28/28 17/17/17 27/27/27
f 29/29/29 27/27/27 17/17/17
f 17/17/17 19/19/19 29/29/29
f 21/21/21 22/22/22 30/30/30
f 33/33/33 31/31/31 32/32/32
f 32/32/32 24/24/24 33/33/33
f 34/34/34 33/33/33 24/24/24
f 24/24/24 26/26/26 34/34/34
f 35/35/35 34/34/34 26/26/26
f 27/27/27 29/29/29 36/36/36
f 39/39/39 37/37/37 38/38/38
f 38/38/38 40/40/40 39/39/39
f 41/41/41 39/39/39 40/40/40
f 40/40/40 42/42/42 41/41/41
f 43/43/43 41/41/41 42/42/42
f 42/42/42 44/44/44 43/43/43
f 45/45/45 43/43/43 44/44/44
f 48/48/48 46/46/46 47/47/47
f 47/47/47 49/49/49 48/48/48
f 52/52/52 50/50/50 51/51/51
f 39/39/39 41/41/41 53/53/53
f 54/54/54 53/53/53 41/41/41
f 41/41/41 43/43/43 54/54/54
f 57/57/57 55/55/55 56/56/56
f 56/56/56 58/58/58 57/57/57
f 60/60/60 59/59/59 46/46/46
f 46/46/46 48/48/48 60/60/60
f 61/61/61 60/60/60 48/48/48
f 50/50/50 52/52/52 62/62/62
f 63/63/63 62/62/62 52/52/52
f 52/52/52 64/64/64 63/63/63
f 66/66/66 65/65/65 55/55/55
f 55/55/55 57/57/57 66/66/66
f 69/69/69 67/67/67 68/68/68
f 72/72/72 70/70/70 71/71/71
f 71/71/71 73/73/73 72/72/72
f 74/74/74 72/72/72 73/73/73
f 73/73/73 75/75/75 74/74/74
f 76/76/76 74/74/74 75/75/75
f 65/65/65 66/66/66 77/77/77
f 80/80/80 78/78/78 79/79/79
f 79/79/79 81/81/81 80/80/80
f 82/82/82 80/80/80 81/81/81
f 81/81/81 83/83/83 82/82/82
f 84/84/84 82/82/82 83/83/83
f 83/83/83 85/85/85 84/84/84
f 86/86/86 84/84/84 85/85/85
f 89/89/89 87/87/87 88/88/88
f 88/88/88 90/90/90 89/89/89
f 91/91/91 89/89/89 90/90/90
f 80/80/80 82/82/82 92/92/92
f 93/93/93 92/92/92 82/82/82
f 82/82/82 84/84/84 93/93/93
f 96/96/96 94/94/94 95/95/95
f 95/95/95 97/97/97 96/96/96
f 99/99/99 98/98/98 87/87/87
f 87/87/87 89/89/89 99/99/99
f 100/100/100 99/99/99 89/89/89
f 89/89/89 91/91/91 100/100/100
f 103/103/103 101/101/101 102/102/102
f 105/105/105 94/94/94 104/104/104
f 106/106/106 104/104/104 94/94/94
f 94/94/94 96/96/96 106/106/106
f 98/98/98 99/99/99 107/107/107
f 110/110/110 108/108/108 109/109/109
f 109/109/109 101/101/101 110/110/110
f 111/111/111 110/110/110 101/101/101
f 101/101/101 103/103/103 111/111/111
f 112/112/112 111/111/111 103/103/103
f 104/104/104 106/106/106 113/113/113
