mtllib ./sg06.mtl
g sg06
v -1610.27 -15.54365 631.99
v -1609.646 -17.56728 560.8575
v -1757.746 -17.56728 523.5649
v -1758.714 -15.54365 633.7729
v -1463.161 -15.54365 642.1688
v -1330.508 -15.54365 651.3476
v -1329.726 -17.56728 562.2076
v -1462.143 -17.56726 526.1401
v -1759.581 -89.70592 732.6497
v -1760.607 -206.4407 849.5567
v -1612.19 -206.4407 850.8583
v -1611.085 -89.7059 724.8594
v -1463.982 -89.70594 735.7391
v -1465.003 -206.4407 852.1494
v -1331.334 -89.70597 745.5499
v -1332.28 -206.4407 853.3136
v -1182.803 -206.4407 854.6245
v -1181.858 -89.70594 746.8609
v -1759.076 -37.51559 675.092
v -1610.603 -37.51559 669.9325
v -1463.45 -37.51559 675.117
v -1330.757 -37.51559 679.7922
v -1181.332 -37.51559 687.0164
v -1180.98 -15.54365 646.7992
v -1860.54 -17.5673 521.5922
v -1886.453 -22.99396 521.0948
v -1886.154 -22.75607 635.3036
v -1865.938 -15.54365 635.0609
v -1876.862 -89.70596 738.8024
v -1892.1 -206.4407 848.4035
v -1908.418 -37.51559 683.779
v -1867.691 -37.51559 681.41
v -1908.916 -89.70597 740.4839
v -1052.369 -206.4407 855.7684
v -1014.549 -89.7059 748.3283
v -1028.813 -89.70591 752.1647
v -1045.46 -22.11798 642.6769
v -1064.802 -15.54364 643.2653
v -1030.009 -45.2038 694.3322
v -1014.082 -45.2038 695.1022
v -1066.838 -16.32605 625.0827
v -1066.988 -24.99393 565.082
v -1077.079 -17.56727 529.4945
v -1064.325 -22.99393 529.6057
v -1756.949 -33.02509 432.6333
v -1850.66 -33.02509 430.8802
v -1179.943 -17.56728 528.5984
v -1076.462 -19.49089 519.8873
v -1059.022 -33.02509 461.0476
v -1071.243 -33.02509 438.6065
v -1056.996 -33.02509 455.2096
v -1179.145 -33.02509 437.6666
v -1328.928 -33.02509 471.2758
v -1608.848 -33.02509 469.9257
v -1461.346 -33.02509 435.2083
v -1872.159 -33.02509 468.1038

vn -0.08041107 0.9967602 -0.001780249
vn 0.1072411 0.994233 2.408773E-05
vn 0.09324177 0.9955147 0.01601627
vn -0.1439539 0.9895747 0.004375666
vn -0.1431183 0.9896878 -0.005935043
vn -0.2620305 0.9650432 -0.005613327
vn 0.08970154 0.9959687 6.012619E-05
vn 0.09091073 0.9958361 -0.006767623
vn -0.696593 0.7169955 0.02598971
vn -0.7065715 0.7076417 -0.0002000928
vn -0.6933168 0.7206326 -0.0007796288
vn -0.6809818 0.7322951 0.002796888
vn -0.6811821 0.7314966 -0.03005922
vn -0.7164759 0.6974458 -0.01521766
vn -0.7074129 0.7066807 -0.01301867
vn -0.7347633 0.6783235 -0.0002087355
vn -0.7347636 0.6783231 -0.000208497
vn -0.707333 0.7068163 -0.00952971
vn -0.6031684 0.7969829 0.03172165
vn -0.6061968 0.7952791 -0.007519424
vn -0.6197893 0.7845343 -0.01916265
vn -0.6331306 0.7737707 -0.02060324
vn -0.5884947 0.8085008 -0.0005913973
vn -0.08542325 0.9963393 0.003267542
vn 0.08517551 0.9961019 -0.02293526
vn 0.0858006 0.9593314 -0.2689266
vn -0.192993 0.9593526 -0.2059037
vn -0.172831 0.9834014 -0.05523652
vn -0.7101091 0.7027395 0.04361379
vn -0.7194583 0.6941472 0.02322668
vn -0.5872631 0.8085089 0.03788716
vn -0.5995329 0.7999108 0.02651608
vn -0.7135078 0.6992952 0.04350507
vn -0.7417742 0.6706498 -0.0002105236
vn -0.6929521 0.7071241 0.1406876
vn -0.6948059 0.719192 0.002742469
vn -0.1354633 0.9546493 0.2651308
vn -0.4080621 0.9118125 0.04564252
vn -0.5500162 0.8343289 0.03711325
vn -0.5443578 0.8385727 -0.02169025
vn 0.02759072 0.998315 0.05104832
vn 0.0896809 0.8468129 0.5242758
vn 0.03355353 0.9959902 0.08293211
vn 0.05678962 0.9274225 0.369679
vn 0.1675736 0.9856859 0.01850535
vn 0.1803876 0.9809183 -0.07252298
vn 0.07321136 0.9972824 -0.008236378
vn 0.1645345 0.9858101 0.03327069
vn 0.1232895 0.9497972 0.2875501
vn 0.1606114 0.9865663 0.0298495
vn 4.053159E-07 1 7.294574E-07
vn 0.1668854 0.9857116 -0.022843
vn 0.167583 0.985858 3.764033E-05
vn 0.1675831 0.9858579 3.762543E-05
vn 0.1675632 0.9857651 0.01377286
vn 0.2853143 0.8153399 -0.5038019

vt 0.8752021 0.7076826
vt 0.8761717 0.8187957
vt 1.247873 0.879198
vt 1.2463 0.698989
vt 0.5069947 0.6951786
vt 0.174968 0.6839032
vt 0.1762157 0.8268583
vt 0.5086573 0.8856802
vt 1.243983 0.3475024
vt 1.239708 -0.06089033
vt 0.8685617 -0.06217619
vt 0.8729775 0.3668185
vt 0.5047593 0.3530751
vt 0.5004911 -0.05896433
vt 0.1727227 0.3406822
vt 0.1595382 -0.06059316
vt -0.2142584 -0.06185608
vt -0.2010739 0.3439444
vt 1.245195 0.5723861
vt 0.8741496 0.5870504
vt 0.506019 0.5833777
vt 0.1740617 0.5800658
vt -0.1998264 0.572872
vt -0.1987386 0.6975263
vt 1.555598 0.8788483
vt 1.635143 0.8787602
vt 1.635143 0.6915253
vt 1.555598 0.6927093
vt 1.555598 0.3322466
vt 1.634678 -0.05923498
vt 1.635143 0.5514531
vt 1.555598 0.5571617
vt 1.635143 0.328077
vt -0.6704773 -0.0590093
vt -0.6614268 0.3475958
vt -0.5993805 0.3472852
vt -0.6614268 0.7098732
vt -0.5993805 0.7081109
vt -0.5993805 0.5655868
vt -0.6614268 0.5648201
vt -0.5993805 0.7387975
vt -0.6614268 0.8315846
vt -0.5993805 0.8941244
vt -0.6614268 0.894404
vt 1.248995 1.021396
vt 1.555598 1.020997
vt -0.1970426 0.8918686
vt -0.5993805 0.9077319
vt -0.6614268 0.9836396
vt -0.5993805 1.022858
vt -0.6614268 1.021188
vt -0.1959205 1.020491
vt 0.1773381 1.02336
vt 0.8772941 1.019822
vt 0.50978 1.023353
vt 1.635143 1.022264

usemtl sn20_40_an20r24.BMP
usemap sn20_40_an20r24.BMP
f 3/3/3 1/1/1 2/2/2
f 1/1/1 3/3/3 4/4/4
f 7/7/7 5/5/5 6/6/6
f 5/5/5 7/7/7 8/8/8
f 11/11/11 9/9/9 10/10/10
f 9/9/9 11/11/11 12/12/12
f 11/11/11 13/13/13 12/12/12
f 13/13/13 11/11/11 14/14/14
f 17/17/17 15/15/15 16/16/16
f 15/15/15 17/17/17 18/18/18
f 20/20/20 4/4/4 19/19/19
f 4/4/4 20/20/20 1/1/1
f 20/20/20 5/5/5 1/1/1
f 5/5/5 20/20/20 21/21/21
f 23/23/23 6/6/6 22/22/22
f 6/6/6 23/23/23 24/24/24
f 12/12/12 19/19/19 9/9/9
f 19/19/19 12/12/12 20/20/20
f 13/13/13 20/20/20 12/12/12
f 20/20/20 13/13/13 21/21/21
f 18/18/18 22/22/22 15/15/15
f 22/22/22 18/18/18 23/23/23
f 25/25/25 4/4/4 3/3/3
f 28/28/28 26/26/26 27/27/27
f 30/30/30 9/9/9 29/29/29
f 9/9/9 30/30/30 10/10/10
f 32/32/32 27/27/27 31/31/31
f 28/28/28 19/19/19 4/4/4
f 29/29/29 31/31/31 33/33/33
f 32/32/32 9/9/9 19/19/19
f 34/34/34 18/18/18 17/17/17
f 36/36/36 34/34/34 35/35/35
f 39/39/39 37/37/37 38/38/38
f 37/37/37 39/39/39 40/40/40
f 36/36/36 23/23/23 18/18/18
f 39/39/39 35/35/35 40/40/40
f 37/37/37 41/41/41 38/38/38
f 42/42/42 41/41/41 37/37/37
f 44/44/44 43/43/43 42/42/42
f 45/45/45 25/25/25 3/3/3
f 46/46/46 25/25/25 45/45/45
f 24/24/24 7/7/7 6/6/6
f 7/7/7 24/24/24 47/47/47
f 44/44/44 48/48/48 43/43/43
f 49/49/49 48/48/48 44/44/44
f 51/51/51 50/50/50 49/49/49
f 7/7/7 52/52/52 53/53/53
f 52/52/52 7/7/7 47/47/47
f 3/3/3 54/54/54 45/45/45
f 54/54/54 3/3/3 2/2/2
f 55/55/55 7/7/7 53/53/53
f 7/7/7 55/55/55 8/8/8
f 8/8/8 1/1/1 5/5/5
f 1/1/1 8/8/8 2/2/2
f 14/14/14 15/15/15 13/13/13
f 15/15/15 14/14/14 16/16/16
f 21/21/21 6/6/6 5/5/5
f 6/6/6 21/21/21 22/22/22
f 13/13/13 22/22/22 21/21/21
f 22/22/22 13/13/13 15/15/15
f 54/54/54 8/8/8 55/55/55
f 8/8/8 54/54/54 2/2/2
f 56/56/56 26/26/26 46/46/46
f 46/46/46 26/26/26 25/25/25
f 28/28/28 4/4/4 25/25/25
f 26/26/26 28/28/28 25/25/25
f 32/32/32 19/19/19 28/28/28
f 27/27/27 32/32/32 28/28/28
f 29/29/29 9/9/9 32/32/32
f 31/31/31 29/29/29 32/32/32
f 30/30/30 29/29/29 33/33/33
f 50/50/50 48/48/48 49/49/49
f 50/50/50 52/52/52 48/48/48
f 48/48/48 52/52/52 47/47/47
f 43/43/43 48/48/48 47/47/47
f 43/43/43 41/41/41 42/42/42
f 43/43/43 47/47/47 41/41/41
f 41/41/41 47/47/47 24/24/24
f 38/38/38 41/41/41 24/24/24
f 23/23/23 38/38/38 24/24/24
f 38/38/38 23/23/23 39/39/39
f 36/36/36 35/35/35 39/39/39
f 23/23/23 36/36/36 39/39/39
f 18/18/18 34/34/34 36/36/36
