mtllib ./TT.mtl
g TT
v 0.0004882813 1361.788 1863.602
v 0.0003662109 1793.465 0.0002441406
v 713.1702 1361.788 1721.743
v 1317.767 1361.788 1317.766
v 1721.745 1361.788 713.1699
v 1863.603 1361.788 6.103516E-05
v 1863.603 1361.788 6.103516E-05
v 0.0003662109 1793.465 0.0002441406
v 1721.745 1361.788 -713.1694
v 1317.766 1361.788 -1317.766
v 713.1701 1361.788 -1721.744
v 0.0001220703 1361.788 -1863.602
v 0.0001220703 1361.788 -1863.602
v 0.0003662109 1793.465 0.0002441406
v -713.1698 1361.788 -1721.743
v -1317.766 1361.788 -1317.765
v -1721.744 1361.788 -713.169
v -1863.602 1361.788 0.0005493164
v -1863.602 1361.788 0.0005493164
v 0.0003662109 1793.465 0.0002441406
v -1721.743 1361.788 713.1702
v -1317.765 1361.788 1317.766
v -713.1691 1361.788 1721.744
v 0.0004882813 1361.788 1863.602
v 0.0004882813 1.126129 2661.95
v 0.0004882813 1361.788 1863.602
v 1018.685 1.125885 2459.321
v 713.1702 1361.788 1721.743
v 1882.284 1.126129 1882.282
v 1317.767 1361.788 1317.766
v 2459.322 1.125885 1018.684
v 1721.745 1361.788 713.1699
v 2661.951 1.125916 0
v 1863.603 1361.788 6.103516E-05
v 2661.951 1.125916 0
v 1863.603 1361.788 6.103516E-05
v 2459.322 1.12616 -1018.684
v 1721.745 1361.788 -713.1694
v 1882.284 1.125946 -1882.283
v 1317.766 1361.788 -1317.766
v 1018.685 1.12619 -2459.321
v 713.1701 1361.788 -1721.744
v 6.103516E-05 1.125824 -2661.95
v 0.0001220703 1361.788 -1863.602
v 6.103516E-05 1.125824 -2661.95
v 0.0001220703 1361.788 -1863.602
v -1018.684 1.12619 -2459.321
v -713.1698 1361.788 -1721.743
v -1882.283 1.125946 -1882.282
v -1317.766 1361.788 -1317.765
v -2459.322 1.12616 -1018.683
v -1721.744 1361.788 -713.169
v -2661.95 1.12616 0.0006713867
v -1863.602 1361.788 0.0005493164
v -2661.95 1.12616 0.0006713867
v -1863.602 1361.788 0.0005493164
v -2459.321 1.125885 1018.685
v -1721.743 1361.788 713.1702
v -1882.283 1.126129 1882.283
v -1317.765 1361.788 1317.766
v -1018.684 1.125885 2459.321
v -713.1691 1361.788 1721.744
v 0.0004882813 1.126129 2661.95
v 0.0004882813 1361.788 1863.602

vn -0.04484107 -0.9732259 -0.2254344
vn -0.1479731 -0.9778588 -0.147973
vn -0.08635671 -0.9742059 -0.2084838
vn -0.1595668 -0.9742058 -0.1595665
vn -0.2084838 -0.9742058 -0.0863568
vn -0.2254343 -0.9732259 -0.04484155
vn -0.2254343 -0.973226 0.0448409
vn -0.1479731 -0.9778588 0.1479729
vn -0.2084837 -0.9742059 0.08635642
vn -0.1595662 -0.9742059 0.1595667
vn -0.08635681 -0.9742058 0.2084838
vn -0.0448423 -0.9732259 0.225434
vn 0.04484238 -0.9732259 0.225434
vn 0.1479731 -0.9778588 0.147973
vn 0.08635687 -0.9742059 0.2084838
vn 0.1595663 -0.9742059 0.1595666
vn 0.2084837 -0.9742059 0.0863566
vn 0.2254341 -0.973226 0.04484145
vn 0.2254341 -0.9732259 -0.04484234
vn 0.147973 -0.9778589 -0.1479733
vn 0.2084838 -0.9742058 -0.08635718
vn 0.1595668 -0.9742059 -0.1595665
vn 0.0863567 -0.9742059 -0.2084837
vn 0.04484092 -0.973226 -0.2254344
vn -0.1690916 -0.4987716 -0.8500794
vn -0.1690914 -0.4987715 -0.8500794
vn -0.2886816 -0.5055586 -0.8130643
vn -0.3950936 -0.5047706 -0.7675335
vn -0.577853 -0.5055586 -0.6407
vn -0.6587413 -0.5047706 -0.5579127
vn -0.7790521 -0.5055585 -0.3707945
vn -0.8221017 -0.5047705 -0.2633543
vn -0.8500797 -0.4987713 -0.1690909
vn -0.8500797 -0.4987714 -0.1690909
vn -0.8500797 -0.4987714 0.1690909
vn -0.8500797 -0.4987713 0.1690908
vn -0.8130644 -0.5055585 0.2886814
vn -0.7675333 -0.5047706 0.395094
vn -0.6406996 -0.5055586 0.5778534
vn -0.5579122 -0.5047707 0.6587415
vn -0.3707942 -0.5055587 0.779052
vn -0.2633543 -0.5047707 0.8221016
vn -0.1690913 -0.4987715 0.8500795
vn -0.1690919 -0.4987712 0.8500795
vn 0.1690909 -0.4987713 0.8500797
vn 0.1690914 -0.4987715 0.8500795
vn 0.2886817 -0.5055587 0.8130641
vn 0.3950941 -0.5047708 0.7675331
vn 0.5778533 -0.5055587 0.6406997
vn 0.6587414 -0.5047707 0.5579125
vn 0.779052 -0.5055586 0.3707944
vn 0.8221016 -0.5047708 0.2633541
vn 0.8500795 -0.4987716 0.1690908
vn 0.8500795 -0.4987717 0.1690906
vn 0.8500794 -0.4987716 -0.1690917
vn 0.8500794 -0.4987716 -0.1690917
vn 0.8130641 -0.5055587 -0.2886817
vn 0.7675331 -0.5047709 -0.3950939
vn 0.6406993 -0.5055588 -0.5778534
vn 0.5579121 -0.5047707 -0.6587417
vn 0.3707943 -0.5055584 -0.7790521
vn 0.2633545 -0.5047705 -0.8221017
vn 0.1690912 -0.4987713 -0.8500795
vn 0.1690905 -0.4987716 -0.8500795

vt 0.9977852 0.002656379
vt 0.9977852 0.9965475
vt 0.617199 0.0765442
vt 0.2930998 0.2931002
vt 0.07654375 0.6171994
vt 0.004097039 0.996548
vt 0.004097069 0.002656946
vt 0.9977852 0.002656439
vt 0.07654408 0.382801
vt 0.2931005 0.7069001
vt 0.6171995 0.9234562
vt 0.9977852 0.9965479
vt 0.004097576 0.996548
vt 0.004097039 0.002656916
vt 0.3828012 0.9234558
vt 0.7069005 0.7068995
vt 0.9234564 0.3828003
vt 0.9977852 0.002656379
vt 0.9977852 0.9965474
vt 0.004097427 0.9965479
vt 0.923456 0.6171987
vt 0.7068996 0.2930996
vt 0.3828004 0.0765436
vt 0.004097039 0.002656409
vt 0.003597284 0.6053784
vt 0.003597284 0.9965478
vt 0.2499999 0.6053784
vt 0.25 0.9965479
vt 0.4999999 0.6053784
vt 0.4999999 0.9965478
vt 0.7499999 0.6053784
vt 0.7499998 0.9965478
vt 0.9977852 0.6053784
vt 0.9977852 0.9965478
vt 0.003597523 0.6053784
vt 0.003597523 0.9965478
vt 0.25 0.6053784
vt 0.25 0.9965479
vt 0.5 0.6053784
vt 0.5 0.9965479
vt 0.75 0.6053784
vt 0.75 0.9965478
vt 0.9977852 0.6053784
vt 0.9977852 0.9965479
vt 0.003597523 0.6053784
vt 0.003597523 0.9965479
vt 0.25 0.6053784
vt 0.25 0.9965478
vt 0.5 0.6053784
vt 0.5 0.9965479
vt 0.75 0.6053784
vt 0.75 0.9965479
vt 0.9977852 0.6053784
vt 0.9977852 0.9965479
vt 0.003597523 0.6053784
vt 0.003597523 0.9965479
vt 0.25 0.6053784
vt 0.2324395 0.9965478
vt 0.5 0.6053784
vt 0.5 0.9965478
vt 0.75 0.6053784
vt 0.75 0.9965479
vt 0.9977852 0.6053784
vt 0.9977852 0.9965478

usemtl sn20_26_n20y07.JPG
usemap sn20_26_n20y07.JPG
f 3/3/3 1/1/1 2/2/2
f 4/4/4 3/3/3 2/2/2
f 5/5/5 4/4/4 2/2/2
f 6/6/6 5/5/5 2/2/2

usemtl sn20_27_n20y05.JPG
usemap sn20_27_n20y05.JPG
f 9/9/9 7/7/7 8/8/8
f 10/10/10 9/9/9 8/8/8
f 11/11/11 10/10/10 8/8/8
f 12/12/12 11/11/11 8/8/8

usemtl sn20_28_n20y06.JPG
usemap sn20_28_n20y06.JPG
f 15/15/15 13/13/13 14/14/14
f 16/16/16 15/15/15 14/14/14
f 17/17/17 16/16/16 14/14/14
f 18/18/18 17/17/17 14/14/14

usemtl sn20_29_n20y08.JPG
usemap sn20_29_n20y08.JPG
f 21/21/21 19/19/19 20/20/20
f 22/22/22 21/21/21 20/20/20
f 23/23/23 22/22/22 20/20/20
f 24/24/24 23/23/23 20/20/20

usemtl sn20_30_n20y01.JPG
usemap sn20_30_n20y01.JPG
f 27/27/27 25/25/25 26/26/26
f 28/28/28 27/27/27 26/26/26
f 29/29/29 27/27/27 28/28/28
f 30/30/30 29/29/29 28/28/28
f 31/31/31 29/29/29 30/30/30
f 32/32/32 31/31/31 30/30/30
f 33/33/33 31/31/31 32/32/32
f 34/34/34 33/33/33 32/32/32

usemtl sn20_31_n20y02.JPG
usemap sn20_31_n20y02.JPG
f 37/37/37 35/35/35 36/36/36
f 38/38/38 37/37/37 36/36/36
f 39/39/39 37/37/37 38/38/38
f 40/40/40 39/39/39 38/38/38
f 41/41/41 39/39/39 40/40/40
f 42/42/42 41/41/41 40/40/40
f 43/43/43 41/41/41 42/42/42
f 44/44/44 43/43/43 42/42/42

usemtl sn20_32_n20y03.JPG
usemap sn20_32_n20y03.JPG
f 47/47/47 45/45/45 46/46/46
f 48/48/48 47/47/47 46/46/46
f 49/49/49 47/47/47 48/48/48
f 50/50/50 49/49/49 48/48/48
f 51/51/51 49/49/49 50/50/50
f 52/52/52 51/51/51 50/50/50
f 53/53/53 51/51/51 52/52/52
f 54/54/54 53/53/53 52/52/52

usemtl sn20_33_n20y04.JPG
usemap sn20_33_n20y04.JPG
f 57/57/57 55/55/55 56/56/56
f 58/58/58 57/57/57 56/56/56
f 59/59/59 57/57/57 58/58/58
f 60/60/60 59/59/59 58/58/58
f 61/61/61 59/59/59 60/60/60
f 62/62/62 61/61/61 60/60/60
f 63/63/63 61/61/61 62/62/62
f 64/64/64 63/63/63 62/62/62
