mtllib ./Box07.mtl
g Box07
v -39.99963 335.0001 40.00012
v 40.00037 335.0001 40.00012
v 40.00037 335.0001 -39.99988
v -39.99963 335.0001 -39.99988
v -39.99963 9.155273E-05 -36.30847
v -34.98608 291.1434 -34.50305
v 34.98682 291.1434 -34.50305
v 40.00037 9.155273E-05 -36.30847
v -39.99963 9.155273E-05 -36.30847
v -39.99963 9.155273E-05 43.69153
v -34.98608 291.1434 35.46985
v -34.98608 291.1434 -34.50305
v 40.00037 9.155273E-05 43.69153
v 34.98682 291.1434 35.46985
v -34.98608 291.1434 35.46985
v -39.99963 9.155273E-05 43.69153
v 40.00037 9.155273E-05 -36.30847
v 34.98682 291.1434 -34.50305
v 34.98682 291.1434 35.46985
v 40.00037 9.155273E-05 43.69153
v -39.99963 335.0001 -39.99988
v 40.00037 335.0001 -39.99988
v 40.00037 303.0207 -39.64752
v -39.99963 303.0207 -39.64752
v -39.99963 335.0001 40.00012
v -39.99963 335.0001 -39.99988
v -39.99963 303.0207 -39.64752
v -39.99963 303.0207 40.35254
v 40.00037 335.0001 40.00012
v -39.99963 335.0001 40.00012
v -39.99963 303.0207 40.35254
v 40.00037 303.0207 40.35254
v 40.00037 303.0207 -39.64752
v 40.00037 335.0001 -39.99988
v 40.00037 335.0001 40.00012
v 40.00037 303.0207 40.35254
v -39.99963 303.0207 -39.64752
v 40.00037 303.0207 -39.64752
v 34.98682 291.1434 -34.50305
v -34.98608 291.1434 -34.50305
v -39.99963 303.0207 40.35254
v -39.99963 303.0207 -39.64752
v -34.98608 291.1434 -34.50305
v -34.98608 291.1434 35.46985
v 40.00037 303.0207 40.35254
v -39.99963 303.0207 40.35254
v -34.98608 291.1434 35.46985
v 34.98682 291.1434 35.46985
v 40.00037 303.0207 -39.64752
v 40.00037 303.0207 40.35254
v 34.98682 291.1434 35.46985
v 34.98682 291.1434 -34.50305

vn 0 1 0
vn 0 1 0
vn 0 1 0
vn 0 1 0
vn 0 0.00620102 -0.9999807
vn 0 0.00620102 -0.9999807
vn 0 0.00620102 -0.9999807
vn 0 0.00620102 -0.9999808
vn -0.9998518 0.01721766 0
vn -0.9998518 0.01721766 0
vn -0.9998518 0.01721766 0
vn -0.9998517 0.01721766 0
vn 0 0.02822804 0.9996015
vn 0 0.02822804 0.9996015
vn 0 0.02822804 0.9996015
vn 0 0.02822804 0.9996015
vn 0.9998518 0.01721766 0
vn 0.9998518 0.01721766 0
vn 0.9998518 0.01721766 0
vn 0.9998518 0.01721766 0
vn 0 -0.01101756 -0.9999393
vn 0 -0.01101756 -0.9999393
vn 0 -0.01101756 -0.9999393
vn 0 -0.01101756 -0.9999393
vn -1 0 0
vn -1 0 0
vn -1 0 0
vn -1 0 0
vn 0 0.01101947 0.9999393
vn 0 0.01101947 0.9999393
vn 0 0.01101947 0.9999393
vn 0 0.01101947 0.9999393
vn 1 0 0
vn 1 0 0
vn 1 0 0
vn 1 0 0
vn 0 -0.3974526 -0.9176227
vn 0 -0.3974525 -0.9176227
vn 0 -0.3974526 -0.9176227
vn 0 -0.3974525 -0.9176227
vn -0.9212866 -0.3888844 0
vn -0.9212865 -0.3888844 0
vn -0.9212866 -0.3888844 0
vn -0.9212866 -0.3888844 0
vn 0 -0.3802182 0.9248968
vn 0 -0.3802182 0.9248968
vn 0 -0.3802182 0.9248968
vn 0 -0.3802183 0.9248969
vn 0.9212866 -0.3888844 0
vn 0.9212865 -0.3888844 0
vn 0.9212866 -0.3888844 0
vn 0.9212866 -0.3888844 0

vt 0.9995005 0.9995003
vt 0.0004996657 0.9995005
vt 0.0004994869 0.0004996955
vt 0.9995003 0.0004994869
vt 0.9995003 0.0004995465
vt 0.9995003 0.8687158
vt 0.0004993315 0.8687158
vt 0.0004994869 0.0004995465
vt 0.0004994869 0.0004995465
vt 0.9995003 0.0004995465
vt 0.9995003 0.8687158
vt 0.0004996941 0.8687158
vt 0.9995003 0.0004995465
vt 0.9995003 0.8687158
vt 0.0004993315 0.8687158
vt 0.0004994869 0.0004995465
vt 0.9995003 0.0004995465
vt 0.9995003 0.8687158
vt 0.0004995387 0.8687158
vt 0.0004994869 0.0004995465
vt 0.9995003 0.9995005
vt 0.0004993081 0.9995005
vt 0.0004993252 0.904135
vt 0.9995003 0.904135
vt 0.9995003 0.9995005
vt 0.0004997253 0.9995005
vt 0.0004997026 0.904135
vt 0.9995003 0.904135
vt 0.9995003 0.9995005
vt 0.0004993081 0.9995005
vt 0.0004993252 0.904135
vt 0.9995003 0.904135
vt 0.9995002 0.904135
vt 0.9995003 0.9995005
vt 0.0004995465 0.9995005
vt 0.0004995408 0.904135
vt 0.9995003 0.904135
vt 0.0004993252 0.904135
vt 0.0004993315 0.8687158
vt 0.9995003 0.8687158
vt 0.9995003 0.904135
vt 0.0004997026 0.904135
vt 0.0004996941 0.8687158
vt 0.9995003 0.8687158
vt 0.9995003 0.904135
vt 0.0004993252 0.904135
vt 0.0004993315 0.8687158
vt 0.9995003 0.8687158
vt 0.9995002 0.904135
vt 0.0004995408 0.904135
vt 0.0004995387 0.8687158
vt 0.9995003 0.8687158

usemtl sn06_10_sn06zf.jpg
usemap sn06_10_sn06zf.jpg
f 3/3/3 1/1/1 2/2/2
f 1/1/1 3/3/3 4/4/4

usemtl sn06_09_sn06zhu2.jpg
usemap sn06_09_sn06zhu2.jpg
f 7/7/7 5/5/5 6/6/6
f 5/5/5 7/7/7 8/8/8
f 11/11/11 9/9/9 10/10/10
f 9/9/9 11/11/11 12/12/12
f 15/15/15 13/13/13 14/14/14
f 13/13/13 15/15/15 16/16/16
f 19/19/19 17/17/17 18/18/18
f 17/17/17 19/19/19 20/20/20
f 23/23/23 21/21/21 22/22/22
f 21/21/21 23/23/23 24/24/24
f 27/27/27 25/25/25 26/26/26
f 25/25/25 27/27/27 28/28/28
f 31/31/31 29/29/29 30/30/30
f 29/29/29 31/31/31 32/32/32
f 35/35/35 33/33/33 34/34/34
f 33/33/33 35/35/35 36/36/36
f 39/39/39 37/37/37 38/38/38
f 37/37/37 39/39/39 40/40/40
f 43/43/43 41/41/41 42/42/42
f 41/41/41 43/43/43 44/44/44
f 47/47/47 45/45/45 46/46/46
f 45/45/45 47/47/47 48/48/48
f 51/51/51 49/49/49 50/50/50
f 49/49/49 51/51/51 52/52/52
