mtllib ./Box16.mtl
g Box16
v -39.99957 320.0001 40.00043
v 40.00043 320.0001 40.00043
v 40.00043 320.0001 -39.99957
v -39.99957 320.0001 -39.99957
v -39.99957 9.155273E-05 -37.28296
v -34.97791 274.622 -34.5426
v 34.97876 274.622 -34.5426
v 40.00043 9.155273E-05 -37.28296
v -39.99957 9.155273E-05 -37.28296
v -39.99957 9.155273E-05 50.88098
v -34.97791 274.622 36.45953
v -34.97791 274.622 -34.5426
v 40.00043 9.155273E-05 42.71704
v 34.97876 274.622 35.41412
v -34.97791 274.622 36.45953
v -39.99957 9.155273E-05 50.88098
v 40.00043 9.155273E-05 -37.28296
v 34.97876 274.622 -34.5426
v 34.97876 274.622 35.41412
v 40.00043 9.155273E-05 42.71704
v -39.99957 320.0001 -39.99957
v 40.00043 320.0001 -39.99957
v 40.00043 288.3673 -39.73102
v -39.99957 288.3673 -39.73102
v -39.99957 320.0001 40.00043
v -39.99957 320.0001 -39.99957
v -39.99957 288.3673 -39.73102
v -39.99957 288.3673 41.07599
v 40.00043 320.0001 40.00043
v -39.99957 320.0001 40.00043
v -39.99957 288.3673 41.07599
v 40.00043 288.3673 40.26898
v 40.00043 288.3673 -39.73102
v 40.00043 320.0001 -39.99957
v 40.00043 320.0001 40.00043
v 40.00043 288.3673 40.26898
v -39.99957 288.3673 -39.73102
v 40.00043 288.3673 -39.73102
v 34.97876 274.622 -34.5426
v -34.97791 274.622 -34.5426
v -39.99957 288.3673 41.07599
v -39.99957 288.3673 -39.73102
v -34.97791 274.622 -34.5426
v -34.97791 274.622 36.45953
v 40.00043 288.3673 40.26898
v -39.99957 288.3673 41.07599
v -34.97791 274.622 36.45953
v 34.97876 274.622 35.41412
v 40.00043 288.3673 -39.73102
v 40.00043 288.3673 40.26898
v 34.97876 274.622 35.41412
v 34.97876 274.622 -34.5426

vn 0 1 0
vn 0 1 0
vn 0 1 0
vn 0 1 0
vn 0 0.009978155 -0.9999502
vn 0 0.009978155 -0.9999502
vn 0 0.009978155 -0.9999502
vn 0 0.009978154 -0.9999502
vn -0.9998328 0.01828269 0
vn -0.9998328 0.01828269 0
vn -0.9998328 0.01828269 0
vn -0.9998328 0.01828269 0
vn 0.06125021 0.03944811 0.9973426
vn 0.01493662 0.02685319 0.9995278
vn 0.06125021 0.03944811 0.9973426
vn 0.1013934 0.05032226 0.9935729
vn 0.9998329 0.01828269 0
vn 0.9998329 0.01828269 0
vn 0.9998329 0.01828269 0
vn 0.9998329 0.01828269 0
vn 0 -0.008489462 -0.9999641
vn 0 -0.008489462 -0.9999641
vn 0 -0.008489462 -0.9999641
vn 0 -0.008489462 -0.9999641
vn -0.9999999 0 0
vn -1 0 0
vn -0.9999999 0 0
vn -1 0 0
vn 0.005042591 0.02124058 0.9997616
vn 0 0.03398188 0.9994225
vn 0.005042591 0.02124058 0.9997616
vn 0.01008671 0.008489029 0.9999131
vn 1 0 0
vn 1 0 0
vn 1 0 0
vn 1 0 0
vn 0 -0.3531472 -0.9355677
vn 0 -0.3531472 -0.9355677
vn 0 -0.3531472 -0.9355677
vn 0 -0.3531472 -0.9355678
vn -0.9392793 -0.3431536 0
vn -0.9392793 -0.3431535 0
vn -0.9392793 -0.3431536 0
vn -0.9392793 -0.3431535 0
vn 0.01167848 -0.3257163 0.9453954
vn 0.009572816 -0.3152209 0.94897
vn 0.01167848 -0.3257163 0.9453954
vn 0.01406492 -0.3375699 0.9411954
vn 0.9392793 -0.3431536 0
vn 0.9392794 -0.3431536 0
vn 0.9392793 -0.3431536 0
vn 0.9392794 -0.3431536 0

vt 0.9995005 0.9995003
vt 0.0004996657 0.9995005
vt 0.0004994869 0.0004996955
vt 0.9995003 0.0004994869
vt 0.9995003 0.0004995465
vt 0.9995003 0.8150272
vt 0.0004996395 0.8150273
vt 0.0004994869 0.0004995465
vt 0.0004994869 0.0004995465
vt 0.9995003 0.0004995465
vt 0.9995003 0.8150272
vt 0.07946005 0.8150272
vt 0.9995003 0.0004995465
vt 0.9995003 0.8150272
vt 0.00928754 0.8152019
vt 0.0004994869 0.0004995465
vt 0.9995003 0.0004995465
vt 0.9995003 0.8150272
vt 0.000499436 0.8150272
vt 0.0004994869 0.0004995465
vt 0.9995003 0.9547691
vt 0.0004996657 0.9547692
vt 0.000499648 0.8604374
vt 0.9995003 0.8604373
vt 0.9995003 0.9547691
vt 0.09300667 0.9547691
vt 0.08386212 0.8604373
vt 0.9995003 0.8604373
vt 0.9995003 0.9547691
vt 0.01079524 0.9549737
vt 0.009777476 0.8606217
vt 0.9995003 0.8604373
vt 0.9995003 0.8604373
vt 0.9995003 0.9547691
vt 0.0004994273 0.954769
vt 0.0004994332 0.8604372
vt 0.9995003 0.8604373
vt 0.000499648 0.8604374
vt 0.0004996395 0.8150273
vt 0.9995003 0.8150272
vt 0.9995003 0.8604373
vt 0.08386212 0.8604373
vt 0.07946005 0.8150272
vt 0.9995003 0.8150272
vt 0.9995003 0.8604373
vt 0.009777476 0.8606217
vt 0.00928754 0.8152019
vt 0.9995003 0.8150272
vt 0.9995003 0.8604373
vt 0.0004994332 0.8604372
vt 0.000499436 0.8150272
vt 0.9995003 0.8150272

usemtl sn06_10_sn06zf.jpg
usemap sn06_10_sn06zf.jpg
f 3/3/3 1/1/1 2/2/2
f 1/1/1 3/3/3 4/4/4

usemtl sn06_09_sn06zhu2.jpg
usemap sn06_09_sn06zhu2.jpg
f 7/7/7 5/5/5 6/6/6
f 5/5/5 7/7/7 8/8/8
f 11/11/11 9/9/9 10/10/10
f 9/9/9 11/11/11 12/12/12
f 15/15/15 13/13/13 14/14/14
f 13/13/13 15/15/15 16/16/16
f 19/19/19 17/17/17 18/18/18
f 17/17/17 19/19/19 20/20/20
f 23/23/23 21/21/21 22/22/22
f 21/21/21 23/23/23 24/24/24
f 27/27/27 25/25/25 26/26/26
f 25/25/25 27/27/27 28/28/28
f 31/31/31 29/29/29 30/30/30
f 29/29/29 31/31/31 32/32/32
f 35/35/35 33/33/33 34/34/34
f 33/33/33 35/35/35 36/36/36
f 39/39/39 37/37/37 38/38/38
f 37/37/37 39/39/39 40/40/40
f 43/43/43 41/41/41 42/42/42
f 41/41/41 43/43/43 44/44/44
f 47/47/47 45/45/45 46/46/46
f 45/45/45 47/47/47 48/48/48
f 51/51/51 49/49/49 50/50/50
f 49/49/49 51/51/51 52/52/52
