mtllib ./Box17.mtl
g Box17
v 40.00037 335.0001 -39.99976
v -39.99963 335.0001 -39.99976
v -39.99963 335.0001 40.00024
v 40.00037 335.0001 40.00024
v 40.00037 335.0001 -39.99976
v 40.47275 305.4122 -39.75983
v -39.52725 305.4122 -39.75983
v -39.99963 335.0001 -39.99976
v -39.99963 335.0001 40.00024
v -39.99963 335.0001 -39.99976
v -39.52725 305.4122 -39.75983
v -39.52725 305.4122 40.24017
v 40.00037 335.0001 40.00024
v -39.99963 335.0001 40.00024
v -39.52725 305.4122 40.24017
v 40.47275 305.4122 40.24017
v 40.00037 335.0001 40.00024
v 40.47275 305.4122 40.24017
v 40.47275 305.4122 -39.75983
v 40.00037 335.0001 -39.99976
v 33.58093 294.7888 -32.57062
v -32.241 294.7888 -32.57062
v -39.52725 305.4122 -39.75983
v 40.47275 305.4122 -39.75983
v -32.241 294.7888 -32.57062
v -32.241 294.7888 33.25134
v -39.52725 305.4122 40.24017
v -39.52725 305.4122 -39.75983
v -32.241 294.7888 33.25134
v 33.58093 294.7888 33.25134
v 40.47275 305.4122 40.24017
v -39.52725 305.4122 40.24017
v 33.58093 294.7888 33.25134
v 33.58093 294.7888 -32.57062
v 40.47275 305.4122 -39.75983
v 40.47275 305.4122 40.24017
v 33.58093 294.7888 -32.57062
v 45.34875 9.155273E-05 -37.28314
v -34.65125 9.155273E-05 -37.28314
v -32.241 294.7888 -32.57062
v -34.65125 9.155273E-05 -37.28314
v -34.65125 9.155273E-05 42.71686
v -32.241 294.7888 33.25134
v -32.241 294.7888 -32.57062
v -34.65125 9.155273E-05 42.71686
v 45.34875 9.155273E-05 42.71686
v 33.58093 294.7888 33.25134
v -32.241 294.7888 33.25134
v 45.34875 9.155273E-05 42.71686
v 45.34875 9.155273E-05 -37.28314
v 33.58093 294.7888 -32.57062
v 33.58093 294.7888 33.25134

vn 0 1 0
vn 0 1 0
vn 0 1 0
vn 0 1 0
vn 0 -0.008108767 -0.9999672
vn 0 -0.008108767 -0.9999672
vn 0 -0.008108767 -0.9999672
vn 0 -0.008108767 -0.9999672
vn -0.9998726 -0.01596333 0
vn -0.9998726 -0.01596333 0
vn -0.9998726 -0.01596333 0
vn -0.9998726 -0.01596333 0
vn 0 0.008108767 0.9999672
vn 0 0.008108767 0.9999672
vn 0 0.008108767 0.9999672
vn 0 0.008108767 0.9999672
vn 0.9998726 0.01596333 0
vn 0.9998726 0.01596333 0
vn 0.9998726 0.01596333 0
vn 0.9998726 0.01596333 0
vn 0 -0.5604582 -0.8281827
vn 0 -0.5604582 -0.8281828
vn 0 -0.5604582 -0.8281827
vn 0 -0.5604582 -0.8281827
vn -0.8246698 -0.5656143 0
vn -0.8246699 -0.5656143 0
vn -0.8246698 -0.5656143 0
vn -0.8246698 -0.5656143 0
vn 0 -0.5496024 0.8354263
vn 0 -0.5496024 0.8354264
vn 0 -0.5496024 0.8354263
vn 0 -0.5496024 0.8354263
vn 0.838927 -0.5442441 0
vn 0.838927 -0.5442441 0
vn 0.838927 -0.5442441 0
vn 0.838927 -0.5442441 0
vn 0 0.01598407 -0.9998723
vn 0 0.01598407 -0.9998722
vn 0 0.01598407 -0.9998723
vn 0 0.01598407 -0.9998722
vn -0.9999666 0.008175915 0
vn -0.9999666 0.008175914 0
vn -0.9999666 0.008175915 0
vn -0.9999666 0.008175914 0
vn 0 0.03209295 0.9994848
vn 0 0.03209295 0.9994848
vn 0 0.03209295 0.9994848
vn 0 0.03209295 0.9994849
vn 0.9992042 0.03988774 0
vn 0.9992042 0.03988775 0
vn 0.9992042 0.03988774 0
vn 0.9992042 0.03988775 0

vt 0.0004994869 0.0004996955
vt 0.9995003 0.0004994869
vt 0.9995005 0.9995003
vt 0.0004996657 0.9995005
vt 0.0004995465 0.9995005
vt 0.0004995413 0.9112667
vt 0.9995003 0.9112667
vt 0.9995003 0.9995005
vt 0.9995003 0.9995005
vt 0.0004995465 0.9995005
vt 0.0004995413 0.9112667
vt 0.9995003 0.9112667
vt 0.9995003 0.9995005
vt 0.0004995465 0.9995005
vt 0.0004995413 0.9112667
vt 0.9995003 0.9112667
vt 0.0004995465 0.9995005
vt 0.0004995413 0.9112667
vt 0.9995003 0.9112667
vt 0.9995003 0.9995005
vt 0.0004995391 0.874429
vt 0.9995003 0.874429
vt 0.9995003 0.9112667
vt 0.0004995413 0.9112667
vt 0.0004995391 0.874429
vt 0.9995003 0.874429
vt 0.9995003 0.9112667
vt 0.0004995413 0.9112667
vt 0.0004995391 0.874429
vt 0.9995003 0.874429
vt 0.9995003 0.9112667
vt 0.0004995413 0.9112667
vt 0.0004995391 0.874429
vt 0.9995003 0.874429
vt 0.9995003 0.9112667
vt 0.0004995413 0.9112667
vt 0.0004995391 0.874429
vt 0.0004994869 0.0004995465
vt 0.9995003 0.0004995465
vt 0.9995003 0.874429
vt 0.0004994869 0.0004995465
vt 0.9995003 0.0004995465
vt 0.9995003 0.874429
vt 0.0004995391 0.874429
vt 0.0004994869 0.0004995465
vt 0.9995003 0.0004995465
vt 0.9995003 0.874429
vt 0.0004995391 0.874429
vt 0.0004994869 0.0004995465
vt 0.9995003 0.0004995465
vt 0.9995003 0.874429
vt 0.0004995391 0.874429

usemtl sn06_10_sn06zf.jpg
usemap sn06_10_sn06zf.jpg
f 3/3/3 1/1/1 2/2/2
f 1/1/1 3/3/3 4/4/4

usemtl sn06_09_sn06zhu2.jpg
usemap sn06_09_sn06zhu2.jpg
f 7/7/7 5/5/5 6/6/6
f 5/5/5 7/7/7 8/8/8
f 11/11/11 9/9/9 10/10/10
f 9/9/9 11/11/11 12/12/12
f 15/15/15 13/13/13 14/14/14
f 13/13/13 15/15/15 16/16/16
f 19/19/19 17/17/17 18/18/18
f 17/17/17 19/19/19 20/20/20
f 23/23/23 21/21/21 22/22/22
f 21/21/21 23/23/23 24/24/24
f 27/27/27 25/25/25 26/26/26
f 25/25/25 27/27/27 28/28/28
f 31/31/31 29/29/29 30/30/30
f 29/29/29 31/31/31 32/32/32
f 35/35/35 33/33/33 34/34/34
f 33/33/33 35/35/35 36/36/36
f 39/39/39 37/37/37 38/38/38
f 37/37/37 39/39/39 40/40/40
f 43/43/43 41/41/41 42/42/42
f 41/41/41 43/43/43 44/44/44
f 47/47/47 45/45/45 46/46/46
f 45/45/45 47/47/47 48/48/48
f 51/51/51 49/49/49 50/50/50
f 49/49/49 51/51/51 52/52/52
