mtllib ./Box22.mtl
g Box22
v -40.00043 335.0001 39.99991
v 39.99957 335.0001 39.99991
v 39.99957 335.0001 -40.00006
v -40.00043 335.0001 -40.00006
v -40.00043 9.155273E-05 -36.30865
v -34.18848 292.8959 -33.69412
v 34.18762 292.8959 -33.69412
v 39.99957 9.155273E-05 -36.30865
v -40.00043 9.155273E-05 -36.30865
v -40.00043 9.155273E-05 43.69131
v -34.18848 292.8959 34.68198
v -34.18848 292.8959 -33.69412
v 39.99957 9.155273E-05 43.69131
v 34.18762 292.8959 34.68198
v -34.18848 292.8959 34.68198
v -40.00043 9.155273E-05 43.69131
v 39.99957 9.155273E-05 -36.30865
v 34.18762 292.8959 -33.69412
v 34.18762 292.8959 34.68198
v 39.99957 9.155273E-05 43.69131
v -40.00043 335.0001 -40.00006
v 39.99957 335.0001 -40.00006
v 39.99957 304.6709 -39.66586
v -40.00043 304.6709 -39.66586
v -40.00043 335.0001 39.99991
v -40.00043 335.0001 -40.00006
v -40.00043 304.6709 -39.66586
v -40.00043 304.6709 40.33414
v 39.99957 335.0001 39.99991
v -40.00043 335.0001 39.99991
v -40.00043 304.6709 40.33414
v 39.99957 304.6709 40.33414
v 39.99957 304.6709 -39.66586
v 39.99957 335.0001 -40.00006
v 39.99957 335.0001 39.99991
v 39.99957 304.6709 40.33414
v -40.00043 304.6709 -39.66586
v 39.99957 304.6709 -39.66586
v 34.18762 292.8959 -33.69412
v -34.18848 292.8959 -33.69412
v -40.00043 304.6709 40.33414
v -40.00043 304.6709 -39.66586
v -34.18848 292.8959 -33.69412
v -34.18848 292.8959 34.68198
v 39.99957 304.6709 40.33414
v -40.00043 304.6709 40.33414
v -34.18848 292.8959 34.68198
v 34.18762 292.8959 34.68198
v 39.99957 304.6709 -39.66586
v 39.99957 304.6709 40.33414
v 34.18762 292.8959 34.68198
v 34.18762 292.8959 -33.69412

vn 0 0.9999999 0
vn 0 0.9999999 0
vn 0 0.9999999 0
vn 0 0.9999999 0
vn 0 0.008926136 -0.9999602
vn 0 0.008926135 -0.9999601
vn 0 0.008926136 -0.9999602
vn 0 0.008926136 -0.9999602
vn -0.9998032 0.01983916 0
vn -0.9998032 0.01983916 0
vn -0.9998032 0.01983916 0
vn -0.9998031 0.01983916 0
vn 0 0.03074499 0.9995272
vn 0 0.03074499 0.9995272
vn 0 0.03074499 0.9995272
vn 0 0.03074499 0.9995273
vn 0.9998032 0.01983916 0
vn 0.9998032 0.01983916 0
vn 0.9998032 0.01983916 0
vn 0.9998032 0.01983916 0
vn 0 -0.01101836 -0.9999392
vn 0 -0.01101836 -0.9999392
vn 0 -0.01101836 -0.9999392
vn 0 -0.01101836 -0.9999392
vn -1 0 0
vn -1 0 0
vn -1 0 0
vn -1 0 0
vn 0 0.01101937 0.9999392
vn 0 0.01101937 0.9999392
vn 0 0.01101937 0.9999392
vn 0 0.01101937 0.9999392
vn 1 0 0
vn 1 0 0
vn 1 0 0
vn 1 0 0
vn 0 -0.4523109 -0.8918604
vn 0 -0.4523109 -0.8918604
vn 0 -0.4523109 -0.8918604
vn 0 -0.4523109 -0.8918603
vn -0.8967167 -0.4426051 0
vn -0.8967166 -0.4426051 0
vn -0.8967167 -0.4426051 0
vn -0.8967166 -0.4426051 0
vn 0 -0.4327412 0.9015182
vn 0 -0.4327412 0.9015181
vn 0 -0.4327412 0.9015182
vn 0 -0.4327413 0.9015182
vn 0.8967167 -0.4426051 0
vn 0.8967166 -0.4426051 0
vn 0.8967167 -0.4426051 0
vn 0.8967166 -0.4426051 0

vt 0.9995005 0.9995003
vt 0.0004996657 0.9995005
vt 0.0004994869 0.0004996955
vt 0.9995003 0.0004994869
vt 0.9995003 0.0004995465
vt 0.9995003 0.8658163
vt 0.000499332 0.8658163
vt 0.0004994869 0.0004995465
vt 0.0004994869 0.0004995465
vt 0.9994999 0.0004995242
vt 0.9995002 0.8658163
vt 0.0004994869 0.8658163
vt 0.9995003 0.0004995465
vt 0.9995003 0.8658163
vt 0.000499332 0.8658163
vt 0.0004994869 0.0004995465
vt 0.9995002 0.0004995652
vt 0.9995003 0.8658163
vt 0.0004994869 0.8658163
vt 0.0004994869 0.0004995465
vt 0.9995003 0.9995005
vt 0.0004993081 0.9995005
vt 0.0004993243 0.9090562
vt 0.9995003 0.9090562
vt 0.9995003 0.9995005
vt 0.0004994869 0.9995005
vt 0.0004994869 0.9090562
vt 0.9995002 0.9090562
vt 0.9995003 0.9995005
vt 0.0004993081 0.9995005
vt 0.0004993243 0.9090562
vt 0.9995003 0.9090562
vt 0.9995003 0.9090562
vt 0.9995003 0.9995005
vt 0.0004994869 0.9995005
vt 0.0004994869 0.9090562
vt 0.9995003 0.9090562
vt 0.0004993243 0.9090562
vt 0.000499332 0.8658163
vt 0.9995003 0.8658163
vt 0.9995002 0.9090562
vt 0.0004994869 0.9090562
vt 0.0004994869 0.8658163
vt 0.9995002 0.8658163
vt 0.9995003 0.9090562
vt 0.0004993243 0.9090562
vt 0.000499332 0.8658163
vt 0.9995003 0.8658163
vt 0.9995003 0.9090562
vt 0.0004994869 0.9090562
vt 0.0004994869 0.8658163
vt 0.9995003 0.8658163

usemtl sn06_10_sn06zf.jpg
usemap sn06_10_sn06zf.jpg
f 3/3/3 1/1/1 2/2/2
f 1/1/1 3/3/3 4/4/4

usemtl sn06_09_sn06zhu2.jpg
usemap sn06_09_sn06zhu2.jpg
f 7/7/7 5/5/5 6/6/6
f 5/5/5 7/7/7 8/8/8
f 11/11/11 9/9/9 10/10/10
f 9/9/9 11/11/11 12/12/12
f 15/15/15 13/13/13 14/14/14
f 13/13/13 15/15/15 16/16/16
f 19/19/19 17/17/17 18/18/18
f 17/17/17 19/19/19 20/20/20
f 23/23/23 21/21/21 22/22/22
f 21/21/21 23/23/23 24/24/24
f 27/27/27 25/25/25 26/26/26
f 25/25/25 27/27/27 28/28/28
f 31/31/31 29/29/29 30/30/30
f 29/29/29 31/31/31 32/32/32
f 35/35/35 33/33/33 34/34/34
f 33/33/33 35/35/35 36/36/36
f 39/39/39 37/37/37 38/38/38
f 37/37/37 39/39/39 40/40/40
f 43/43/43 41/41/41 42/42/42
f 41/41/41 43/43/43 44/44/44
f 47/47/47 45/45/45 46/46/46
f 45/45/45 47/47/47 48/48/48
f 51/51/51 49/49/49 50/50/50
f 49/49/49 51/51/51 52/52/52
