mtllib ./Box48.mtl
g Box48
v -40.00012 335.0001 40.00049
v 39.99988 335.0001 40.00049
v 39.99988 335.0001 -39.99951
v -40.00012 335.0001 -39.99951
v -40.00012 9.155273E-05 -42.4624
v -33.89844 293.8466 -34.22375
v 33.89819 293.8466 -34.22375
v 39.99988 9.155273E-05 -42.4624
v -40.00012 9.155273E-05 37.5376
v -33.89844 293.8466 33.57288
v -33.89844 293.8466 -34.22375
v -40.00012 9.155273E-05 -42.4624
v 39.99988 9.155273E-05 37.5376
v 33.89819 293.8466 33.57288
v -33.89844 293.8466 33.57288
v -40.00012 9.155273E-05 37.5376
v 39.99988 9.155273E-05 -42.4624
v 33.89819 293.8466 -34.22375
v 33.89819 293.8466 33.57288
v 39.99988 9.155273E-05 37.5376
v -40.00012 335.0001 -39.99951
v 39.99988 335.0001 -39.99951
v 39.99988 306.9594 -40.20569
v -40.00012 306.9594 -40.20569
v -40.00012 335.0001 40.00049
v -40.00012 335.0001 -39.99951
v -40.00012 306.9594 -40.20569
v -40.00012 306.9594 39.79431
v 39.99988 335.0001 40.00049
v -40.00012 335.0001 40.00049
v -40.00012 306.9594 39.79431
v 39.99988 306.9594 39.79431
v 39.99988 335.0001 -39.99951
v 39.99988 335.0001 40.00049
v 39.99988 306.9594 39.79431
v 39.99988 306.9594 -40.20569
v -40.00012 306.9594 -40.20569
v 39.99988 306.9594 -40.20569
v 33.89819 293.8466 -34.22375
v -33.89844 293.8466 -34.22375
v -40.00012 306.9594 39.79431
v -40.00012 306.9594 -40.20569
v -33.89844 293.8466 -34.22375
v -33.89844 293.8466 33.57288
v 39.99988 306.9594 39.79431
v -40.00012 306.9594 39.79431
v -33.89844 293.8466 33.57288
v 33.89819 293.8466 33.57288
v 39.99988 306.9594 -40.20569
v 39.99988 306.9594 39.79431
v 33.89819 293.8466 33.57288
v 33.89819 293.8466 -34.22375

vn 0 1 0
vn 0 1 0
vn 0 1 0
vn 0 1 0
vn 0 0.02802623 -0.9996072
vn 0 0.02802623 -0.9996072
vn 0 0.02802623 -0.9996072
vn 0 0.02802623 -0.9996071
vn -0.9997845 0.0207604 0
vn -0.9997845 0.0207604 0
vn -0.9997845 0.0207604 0
vn -0.9997845 0.0207604 0
vn 0 0.01349126 0.999909
vn 0 0.01349126 0.9999089
vn 0 0.01349126 0.999909
vn 0 0.01349126 0.999909
vn 0.9997845 0.0207604 0
vn 0.9997844 0.0207604 0
vn 0.9997845 0.0207604 0
vn 0.9997845 0.0207604 0
vn 0 0.007352574 -0.9999729
vn 0 0.007352574 -0.9999729
vn 0 0.007352574 -0.9999729
vn 0 0.007352574 -0.9999729
vn -1 0 0
vn -1 0 0
vn -1 0 0
vn -1 0 0
vn 0 -0.007352574 0.9999729
vn 0 -0.007352574 0.9999729
vn 0 -0.007352574 0.9999729
vn 0 -0.007352574 0.9999729
vn 1 0 0
vn 1 0 0
vn 1 0 0
vn 1 0 0
vn 0 -0.4150423 -0.9098021
vn 0 -0.4150423 -0.9098021
vn 0 -0.4150423 -0.9098021
vn 0 -0.4150423 -0.9098022
vn -0.9066498 -0.4218841 0
vn -0.9066499 -0.4218841 0
vn -0.9066498 -0.4218841 0
vn -0.9066498 -0.4218841 0
vn 0 -0.4286545 0.9034685
vn 0 -0.4286545 0.9034685
vn 0 -0.4286545 0.9034685
vn 0 -0.4286545 0.9034684
vn 0.9066498 -0.4218841 0
vn 0.9066499 -0.4218841 0
vn 0.9066498 -0.4218841 0
vn 0.9066498 -0.4218841 0

vt 0.9995005 0.9995003
vt 0.0004996657 0.9995005
vt 0.0004994869 0.0004996955
vt 0.9995003 0.0004994869
vt 0.9995003 0.0004995465
vt 0.9995003 0.8673021
vt 0.0004996421 0.8673022
vt 0.0004994869 0.0004995465
vt 0.9995003 0.0004995465
vt 0.9995003 0.8673021
vt 0.0004995386 0.8673021
vt 0.0004994869 0.0004995465
vt 0.9995003 0.0004995465
vt 0.9995003 0.8673021
vt 0.000499642 0.8673022
vt 0.0004994869 0.0004995465
vt 0.9995003 0.0004995465
vt 0.9995003 0.8673021
vt 0.0004992283 0.8673021
vt 0.0004994869 0.0004995465
vt 0.9995003 0.9995005
vt 0.0004996657 0.9995006
vt 0.0004996508 0.9158807
vt 0.9995003 0.9158806
vt 0.9995003 0.9995005
vt 0.0004995465 0.9995005
vt 0.0004995415 0.9158806
vt 0.9995003 0.9158806
vt 0.9995003 0.9995005
vt 0.0004996657 0.9995006
vt 0.0004996508 0.9158807
vt 0.9995003 0.9158806
vt 0.9995003 0.9995005
vt 0.0004991889 0.9995005
vt 0.0004992138 0.9158806
vt 0.9995003 0.9158806
vt 0.9995003 0.9158806
vt 0.0004996508 0.9158807
vt 0.0004996421 0.8673022
vt 0.9995003 0.8673021
vt 0.9995003 0.9158806
vt 0.0004995415 0.9158806
vt 0.0004995386 0.8673021
vt 0.9995003 0.8673021
vt 0.9995003 0.9158806
vt 0.0004996508 0.9158807
vt 0.000499642 0.8673022
vt 0.9995003 0.8673021
vt 0.9995003 0.9158806
vt 0.0004992138 0.9158806
vt 0.0004992283 0.8673021
vt 0.9995003 0.8673021

usemtl sn06_10_sn06zf.jpg
usemap sn06_10_sn06zf.jpg
f 3/3/3 1/1/1 2/2/2
f 1/1/1 3/3/3 4/4/4

usemtl sn06_09_sn06zhu2.jpg
usemap sn06_09_sn06zhu2.jpg
f 7/7/7 5/5/5 6/6/6
f 5/5/5 7/7/7 8/8/8
f 11/11/11 9/9/9 10/10/10
f 9/9/9 11/11/11 12/12/12
f 15/15/15 13/13/13 14/14/14
f 13/13/13 15/15/15 16/16/16
f 19/19/19 17/17/17 18/18/18
f 17/17/17 19/19/19 20/20/20
f 23/23/23 21/21/21 22/22/22
f 21/21/21 23/23/23 24/24/24
f 27/27/27 25/25/25 26/26/26
f 25/25/25 27/27/27 28/28/28
f 31/31/31 29/29/29 30/30/30
f 29/29/29 31/31/31 32/32/32
f 35/35/35 33/33/33 34/34/34
f 33/33/33 35/35/35 36/36/36
f 39/39/39 37/37/37 38/38/38
f 37/37/37 39/39/39 40/40/40
f 43/43/43 41/41/41 42/42/42
f 41/41/41 43/43/43 44/44/44
f 47/47/47 45/45/45 46/46/46
f 45/45/45 47/47/47 48/48/48
f 51/51/51 49/49/49 50/50/50
f 49/49/49 51/51/51 52/52/52
