mtllib ./Box41.mtl
g Box41
v 39.99994 335.0001 -39.97566
v -39.97591 335.0001 -39.99982
v -40.00006 335.0001 39.97603
v 39.97578 335.0001 40.00018
v -35.90841 9.155273E-05 -39.99859
v -32.74948 299.5338 -33.02263
v 33.27635 299.5338 -33.0027
v 44.06744 9.155273E-05 -39.97443
v -32.76942 299.5338 33.00322
v -32.74948 299.5338 -33.02263
v -35.90841 9.155273E-05 -39.99859
v -35.9325 9.155273E-05 39.97726
v 33.25641 299.5338 33.02315
v -32.76942 299.5338 33.00322
v -35.9325 9.155273E-05 39.97726
v 44.04334 9.155273E-05 40.0014
v 33.27635 299.5338 -33.0027
v 33.25641 299.5338 33.02315
v 44.04334 9.155273E-05 40.0014
v 44.06744 9.155273E-05 -39.97443
v 39.99994 310.2226 -39.97566
v -39.97591 310.2226 -39.99982
v -39.97591 335.0001 -39.99982
v 39.99994 335.0001 -39.97566
v -39.97591 310.2226 -39.99982
v -40.00006 310.2226 39.97603
v -40.00006 335.0001 39.97603
v -39.97591 335.0001 -39.99982
v -40.00006 310.2226 39.97603
v 39.97578 310.2226 40.00018
v 39.97578 335.0001 40.00018
v -40.00006 335.0001 39.97603
v 39.97578 310.2226 40.00018
v 39.99994 310.2226 -39.97566
v 39.99994 335.0001 -39.97566
v 39.97578 335.0001 40.00018
v -32.74948 299.5338 -33.02263
v -39.97591 310.2226 -39.99982
v 39.99994 310.2226 -39.97566
v 33.27635 299.5338 -33.0027
v -40.00006 310.2226 39.97603
v -39.97591 310.2226 -39.99982
v -32.74948 299.5338 -33.02263
v -32.76942 299.5338 33.00322
v 39.97578 310.2226 40.00018
v -40.00006 310.2226 39.97603
v -32.76942 299.5338 33.00322
v 33.25641 299.5338 33.02315
v 39.99994 310.2226 -39.97566
v 39.97578 310.2226 40.00018
v 33.25641 299.5338 33.02315
v 33.27635 299.5338 -33.0027

vn 0 0.9999999 0
vn 0 1 0
vn 0 0.9999999 0
vn 0 1 0
vn 0.9997289 0.02327987 0.0003018379
vn 0.9997288 0.0232799 0.0003016591
vn 0.9997289 0.02327987 0.0003018379
vn 0.999729 0.02327985 0.0003019571
vn 0.0003015424 0.01055249 -0.9999442
vn 0.0003019755 0.0105526 -0.9999443
vn 0.0003015424 0.01055249 -0.9999442
vn 0.0003011848 0.01055241 -0.9999442
vn -0.9997289 0.02327988 -0.0003016591
vn -0.9997288 0.02327988 -0.0003016591
vn -0.9997289 0.02327988 -0.0003016591
vn -0.9997289 0.02327988 -0.0003017187
vn -0.0003013899 0.035996 0.9993519
vn -0.0003017966 0.0359961 0.9993518
vn -0.0003013899 0.035996 0.9993519
vn -0.0003010542 0.03599592 0.9993519
vn 0.9999999 0 0.0003019571
vn 0.9999999 0 0.0003019571
vn 0.9999999 0 0.0003019571
vn 0.9999999 0 0.0003019571
vn 0.0003019648 0 -0.9999999
vn 0.0003019648 0 -0.9999999
vn 0.0003019648 0 -0.9999999
vn 0.0003019648 0 -0.9999999
vn -0.9999999 0 -0.0003018379
vn -0.9999999 0 -0.0003018379
vn -0.9999999 0 -0.0003018379
vn -0.9999999 0 -0.0003018379
vn -0.0003020125 0 0.9999999
vn -0.0003020125 0 0.9999999
vn -0.0003020125 0 0.9999999
vn -0.0003020125 0 0.9999999
vn 0.8374666 -0.5464885 0.0002527833
vn 0.8374663 -0.5464888 0.0002529025
vn 0.8374666 -0.5464885 0.0002527833
vn 0.8374668 -0.546488 0.0002527237
vn 0.0002501359 -0.5601947 -0.8283608
vn 0.0002501256 -0.5601948 -0.8283609
vn 0.0002501359 -0.5601947 -0.8283608
vn 0.0002501484 -0.5601946 -0.8283609
vn -0.8374666 -0.5464883 -0.0002527237
vn -0.8374667 -0.5464882 -0.0002527833
vn -0.8374666 -0.5464883 -0.0002527237
vn -0.8374666 -0.5464885 -0.0002527237
vn -0.000255648 -0.5323293 0.8465373
vn -0.0002556557 -0.5323291 0.8465372
vn -0.000255648 -0.5323293 0.8465373
vn -0.0002556386 -0.5323293 0.8465372

vt 0.0004994869 0.0004996955
vt 0.9995003 0.0004994869
vt 0.9995005 0.9995003
vt 0.0004996657 0.9995005
vt 0.9511507 0.0004995465
vt 0.9135767 0.8937367
vt 0.1287453 0.8937367
vt 0.0004995167 0.0004995465
vt 0.9123735 0.8937367
vt 0.08762622 0.8937367
vt 0.0004995465 0.0004995465
vt 0.9995002 0.0004995465
vt 0.8712546 0.8937367
vt 0.08642313 0.8937367
vt 0.04884911 0.0004995465
vt 0.9995003 0.0004995465
vt 0.9123736 0.8937367
vt 0.08762622 0.8937367
vt 0.0004995465 0.0004995465
vt 0.9995002 0.0004995465
vt 0.04884911 0.9256118
vt 0.9995003 0.9256118
vt 0.9995003 0.9995005
vt 0.04884911 0.9995005
vt 0.0004995465 0.9256118
vt 0.9995002 0.9256118
vt 0.9995002 0.9995005
vt 0.0004995465 0.9995005
vt 0.0004995167 0.9256118
vt 0.9511507 0.9256118
vt 0.9511507 0.9995005
vt 0.0004995167 0.9995005
vt 0.0004995465 0.9256118
vt 0.9995002 0.9256118
vt 0.9995002 0.9995005
vt 0.0004995465 0.9995005
vt 0.9135767 0.8937367
vt 0.9995003 0.9256118
vt 0.04884911 0.9256118
vt 0.1287453 0.8937367
vt 0.9995002 0.9256118
vt 0.0004995465 0.9256118
vt 0.08762622 0.8937367
vt 0.9123735 0.8937367
vt 0.9511507 0.9256118
vt 0.0004995167 0.9256118
vt 0.08642313 0.8937367
vt 0.8712546 0.8937367
vt 0.9995002 0.9256118
vt 0.0004995465 0.9256118
vt 0.08762622 0.8937367
vt 0.9123736 0.8937367

usemtl sn06_10_sn06zf.jpg
usemap sn06_10_sn06zf.jpg
f 3/3/3 1/1/1 2/2/2
f 1/1/1 3/3/3 4/4/4

usemtl sn06_09_sn06zhu2.jpg
usemap sn06_09_sn06zhu2.jpg
f 7/7/7 5/5/5 6/6/6
f 5/5/5 7/7/7 8/8/8
f 11/11/11 9/9/9 10/10/10
f 9/9/9 11/11/11 12/12/12
f 15/15/15 13/13/13 14/14/14
f 13/13/13 15/15/15 16/16/16
f 19/19/19 17/17/17 18/18/18
f 17/17/17 19/19/19 20/20/20
f 23/23/23 21/21/21 22/22/22
f 21/21/21 23/23/23 24/24/24
f 27/27/27 25/25/25 26/26/26
f 25/25/25 27/27/27 28/28/28
f 31/31/31 29/29/29 30/30/30
f 29/29/29 31/31/31 32/32/32
f 35/35/35 33/33/33 34/34/34
f 33/33/33 35/35/35 36/36/36
f 39/39/39 37/37/37 38/38/38
f 37/37/37 39/39/39 40/40/40
f 43/43/43 41/41/41 42/42/42
f 41/41/41 43/43/43 44/44/44
f 47/47/47 45/45/45 46/46/46
f 45/45/45 47/47/47 48/48/48
f 51/51/51 49/49/49 50/50/50
f 49/49/49 51/51/51 52/52/52
