mtllib ./Box58.mtl
g Box58
v -40.00037 340.0001 39.99976
v 39.99963 340.0001 39.99976
v 39.99963 340.0001 -40.00024
v -40.00037 340.0001 -40.00024
v -40.00037 9.155273E-05 -42.46313
v -34.00037 298.9551 -34.3055
v 33.99963 298.9551 -34.3055
v 39.99963 9.155273E-05 -42.46313
v -40.00037 9.155273E-05 37.53687
v -34.00037 298.9551 33.6945
v -34.00037 298.9551 -34.3055
v -40.00037 9.155273E-05 -42.46313
v 39.99963 9.155273E-05 37.53687
v 33.99963 298.9551 33.6945
v -34.00037 298.9551 33.6945
v -40.00037 9.155273E-05 37.53687
v 39.99963 9.155273E-05 -42.46313
v 33.99963 298.9551 -34.3055
v 33.99963 298.9551 33.6945
v 39.99963 9.155273E-05 37.53687
v -40.00037 340.0001 -40.00024
v 39.99963 340.0001 -40.00024
v 39.99963 310.1403 -40.21654
v -40.00037 310.1403 -40.21654
v -40.00037 340.0001 39.99976
v -40.00037 340.0001 -40.00024
v -40.00037 310.1403 -40.21654
v -40.00037 310.1403 39.78346
v 39.99963 340.0001 39.99976
v -40.00037 340.0001 39.99976
v -40.00037 310.1403 39.78346
v 39.99963 310.1403 39.78346
v 39.99963 340.0001 -40.00024
v 39.99963 340.0001 39.99976
v 39.99963 310.1403 39.78346
v 39.99963 310.1403 -40.21654
v -40.00037 310.1403 -40.21654
v 39.99963 310.1403 -40.21654
v 33.99963 298.9551 -34.3055
v -34.00037 298.9551 -34.3055
v -40.00037 310.1403 39.78346
v -40.00037 310.1403 -40.21654
v -34.00037 298.9551 -34.3055
v -34.00037 298.9551 33.6945
v 39.99963 310.1403 39.78346
v -40.00037 310.1403 39.78346
v -34.00037 298.9551 33.6945
v 33.99963 298.9551 33.6945
v 39.99963 310.1403 -40.21654
v 39.99963 310.1403 39.78346
v 33.99963 298.9551 33.6945
v 33.99963 298.9551 -34.3055

vn 0 1 0
vn 0 1 0
vn 0 1 0
vn 0 1 0
vn 0 0.02727703 -0.9996279
vn 0 0.02727703 -0.9996279
vn 0 0.02727703 -0.9996279
vn 0 0.02727702 -0.9996279
vn -0.9997987 0.02006587 0
vn -0.9997987 0.02006587 0
vn -0.9997987 0.02006587 0
vn -0.9997987 0.02006587 0
vn 0 0.01285158 0.9999174
vn 0 0.01285158 0.9999173
vn 0 0.01285158 0.9999174
vn 0 0.01285158 0.9999174
vn 0.9997987 0.02006587 0
vn 0.9997987 0.02006587 0
vn 0.9997987 0.02006587 0
vn 0.9997987 0.02006587 0
vn 0 0.007243447 -0.9999738
vn 0 0.007243447 -0.9999738
vn 0 0.007243447 -0.9999738
vn 0 0.007243447 -0.9999738
vn -0.9999999 0 0
vn -0.9999999 0 0
vn -0.9999999 0 0
vn -0.9999999 0 0
vn 0 -0.007243447 0.9999738
vn 0 -0.007243447 0.9999738
vn 0 -0.007243447 0.9999738
vn 0 -0.007243447 0.9999738
vn 0.9999999 0 0
vn 0.9999999 0 0
vn 0.9999999 0 0
vn 0.9999999 0 0
vn 0 -0.4672358 -0.8841328
vn 0 -0.4672358 -0.8841327
vn 0 -0.4672358 -0.8841328
vn 0 -0.4672358 -0.8841328
vn -0.8812206 -0.4727053 0
vn -0.8812205 -0.4727053 0
vn -0.8812206 -0.4727053 0
vn -0.8812205 -0.4727053 0
vn 0 -0.4781208 0.8782941
vn 0 -0.4781208 0.8782942
vn 0 -0.4781208 0.8782941
vn 0 -0.4781207 0.8782941
vn 0.8812206 -0.4727053 0
vn 0.8812205 -0.4727053 0
vn 0.8812206 -0.4727053 0
vn 0.8812205 -0.4727053 0

vt 0.9995005 0.9995003
vt 0.0004996657 0.9995005
vt 0.0004994869 0.0004996955
vt 0.9995003 0.0004994869
vt 0.9995003 0.0004995465
vt 0.9995003 0.8756841
vt 0.0004994347 0.8756841
vt 0.0004994869 0.0004995465
vt 0.9995003 0.0004995465
vt 0.9995003 0.8756841
vt 0.0004993825 0.8756841
vt 0.0004994869 0.0004995465
vt 0.9995003 0.0004995465
vt 0.9995003 0.8756841
vt 0.0004994347 0.8756841
vt 0.0004994869 0.0004995465
vt 0.9995003 0.0004995465
vt 0.9995003 0.8756841
vt 0.0004995913 0.8756841
vt 0.0004994869 0.0004995465
vt 0.9995003 0.9995005
vt 0.0004994273 0.9995005
vt 0.0004994326 0.9117653
vt 0.9995003 0.9117653
vt 0.9995003 0.9995005
vt 0.0004993677 0.9995005
vt 0.0004993782 0.9117653
vt 0.9995003 0.9117653
vt 0.9995003 0.9995005
vt 0.0004994273 0.9995005
vt 0.0004994326 0.9117653
vt 0.9995003 0.9117653
vt 0.9995003 0.9995005
vt 0.0004996061 0.9995005
vt 0.0004995957 0.9117653
vt 0.9995003 0.9117653
vt 0.9995003 0.9117653
vt 0.0004994326 0.9117653
vt 0.0004994347 0.8756841
vt 0.9995003 0.8756841
vt 0.9995003 0.9117653
vt 0.0004993782 0.9117653
vt 0.0004993825 0.8756841
vt 0.9995003 0.8756841
vt 0.9995003 0.9117653
vt 0.0004994326 0.9117653
vt 0.0004994347 0.8756841
vt 0.9995003 0.8756841
vt 0.9995003 0.9117653
vt 0.0004995957 0.9117653
vt 0.0004995913 0.8756841
vt 0.9995003 0.8756841

usemtl sn06_10_sn06zf.jpg
usemap sn06_10_sn06zf.jpg
f 3/3/3 1/1/1 2/2/2
f 1/1/1 3/3/3 4/4/4

usemtl sn06_09_sn06zhu2.jpg
usemap sn06_09_sn06zhu2.jpg
f 7/7/7 5/5/5 6/6/6
f 5/5/5 7/7/7 8/8/8
f 11/11/11 9/9/9 10/10/10
f 9/9/9 11/11/11 12/12/12
f 15/15/15 13/13/13 14/14/14
f 13/13/13 15/15/15 16/16/16
f 19/19/19 17/17/17 18/18/18
f 17/17/17 19/19/19 20/20/20
f 23/23/23 21/21/21 22/22/22
f 21/21/21 23/23/23 24/24/24
f 27/27/27 25/25/25 26/26/26
f 25/25/25 27/27/27 28/28/28
f 31/31/31 29/29/29 30/30/30
f 29/29/29 31/31/31 32/32/32
f 35/35/35 33/33/33 34/34/34
f 33/33/33 35/35/35 36/36/36
f 39/39/39 37/37/37 38/38/38
f 37/37/37 39/39/39 40/40/40
f 43/43/43 41/41/41 42/42/42
f 41/41/41 43/43/43 44/44/44
f 47/47/47 45/45/45 46/46/46
f 45/45/45 47/47/47 48/48/48
f 51/51/51 49/49/49 50/50/50
f 49/49/49 51/51/51 52/52/52
