mtllib ./Box50.mtl
g Box50
v 40.00006 335.0001 -39.99994
v -39.99994 335.0001 -39.99994
v -39.99994 335.0001 40.00006
v 40.00006 335.0001 40.00006
v 35.2373 297.4045 -35.51862
v 40.00006 9.155273E-05 -42.46283
v -39.99994 9.155273E-05 -42.46283
v -35.23718 297.4045 -35.51862
v -35.23718 297.4045 -35.51862
v -39.99994 9.155273E-05 -42.46283
v -39.99994 9.155273E-05 37.53717
v -35.23718 297.4045 34.95581
v -35.23718 297.4045 34.95581
v -39.99994 9.155273E-05 37.53717
v 40.00006 9.155273E-05 37.53717
v 35.2373 297.4045 34.95581
v 35.2373 297.4045 34.95581
v 40.00006 9.155273E-05 37.53717
v 40.00006 9.155273E-05 -42.46283
v 35.2373 297.4045 -35.51862
v 40.00006 310.0757 -40.18317
v -39.99994 310.0757 -40.18317
v -39.99994 335.0001 -39.99994
v 40.00006 335.0001 -39.99994
v -39.99994 310.0757 -40.18317
v -39.99994 310.0757 39.81683
v -39.99994 335.0001 40.00006
v -39.99994 335.0001 -39.99994
v -39.99994 310.0757 39.81683
v 40.00006 310.0757 39.81683
v 40.00006 335.0001 40.00006
v -39.99994 335.0001 40.00006
v 40.00006 310.0757 39.81683
v 40.00006 310.0757 -40.18317
v 40.00006 335.0001 -39.99994
v 40.00006 335.0001 40.00006
v 35.2373 297.4045 -35.51862
v -35.23718 297.4045 -35.51862
v -39.99994 310.0757 -40.18317
v -35.23718 297.4045 -35.51862
v -35.23718 297.4045 34.95581
v -39.99994 310.0757 39.81683
v -39.99994 310.0757 -40.18317
v -35.23718 297.4045 34.95581
v 35.2373 297.4045 34.95581
v 40.00006 310.0757 39.81683
v -39.99994 310.0757 39.81683
v 35.2373 297.4045 34.95581
v 35.2373 297.4045 -35.51862
v 40.00006 310.0757 -40.18317
v 40.00006 310.0757 39.81683

vn 0 1 0
vn 0 1 0
vn 0 1 0
vn 0 1 0
vn 0 0.02334303 -0.9997275
vn 0 0.02334303 -0.9997275
vn 0 0.02334303 -0.9997275
vn 0 0.02334303 -0.9997275
vn -0.9998717 0.01601235 0
vn -0.9998719 0.01601236 0
vn -0.9998717 0.01601235 0
vn -0.9998718 0.01601236 0
vn 0 0.008679301 0.9999623
vn 0 0.008679301 0.9999624
vn 0 0.008679301 0.9999623
vn 0 0.008679301 0.9999624
vn 0.9998717 0.01601235 0
vn 0.9998719 0.01601236 0
vn 0.9998717 0.01601235 0
vn 0.9998718 0.01601235 0
vn 0 -0.06858575 -0.9976452
vn 0 0.007351149 -0.999973
vn 0 0.007351149 -0.999973
vn 0 0.007351149 -0.999973
vn -1 0 0
vn -1 0 0
vn -1 0 0
vn -1 0 0
vn 0 -0.007351149 0.999973
vn 0 -0.007351149 0.999973
vn 0 -0.007351149 0.999973
vn 0 -0.007351149 0.999973
vn 1 0 0
vn 1 0 0
vn 1 0 0
vn 1 0 0
vn 0 -0.3454584 -0.9384341
vn 0 -0.3454584 -0.9384341
vn 0 -0.3454584 -0.9384341
vn -0.9360604 -0.3518393 0
vn -0.9360604 -0.3518393 0
vn -0.9360604 -0.3518393 0
vn -0.9360604 -0.3518393 0
vn 0 -0.3581755 0.9336542
vn 0 -0.3581755 0.9336542
vn 0 -0.3581755 0.9336542
vn 0 -0.3581755 0.9336542
vn 0.9360604 -0.3518393 0
vn 0.9360604 -0.3518393 0
vn 0.9360604 -0.3518393 0
vn 0.9360604 -0.3518393 0

vt 0.0004994869 0.0004996955
vt 0.9995003 0.0004994869
vt 0.9995005 0.9995003
vt 0.0004996657 0.9995005
vt 0.0004996453 0.8853302
vt 0.0004994869 0.0004995465
vt 0.9995003 0.0004995465
vt 0.9995003 0.8853301
vt 0.0004995397 0.8853301
vt 0.0004994869 0.0004995465
vt 0.9995003 0.0004995465
vt 0.9995003 0.8853301
vt 0.0004996453 0.8853302
vt 0.0004994869 0.0004995465
vt 0.9995003 0.0004995465
vt 0.9995003 0.8853301
vt 0.000499223 0.8853301
vt 0.0004994869 0.0004995465
vt 0.9995003 0.0004995465
vt 0.9995003 0.8853301
vt 0.0004996525 0.9251739
vt 0.9995003 0.9251738
vt 0.9995003 0.9995005
vt 0.0004996657 0.9995006
vt 0.0004995421 0.9251738
vt 0.9995003 0.9251738
vt 0.9995003 0.9995005
vt 0.0004995465 0.9995005
vt 0.0004996525 0.9251739
vt 0.9995003 0.9251738
vt 0.9995003 0.9995005
vt 0.0004996657 0.9995006
vt 0.0004992111 0.9251738
vt 0.9995003 0.9251738
vt 0.9995003 0.9995005
vt 0.0004991889 0.9995005
vt 0.0004996453 0.8853302
vt 0.9995003 0.8853301
vt 0.9995003 0.9251738
vt 0.0004995397 0.8853301
vt 0.9995003 0.8853301
vt 0.9995003 0.9251738
vt 0.0004995421 0.9251738
vt 0.0004996453 0.8853302
vt 0.9995003 0.8853301
vt 0.9995003 0.9251738
vt 0.0004996525 0.9251739
vt 0.000499223 0.8853301
vt 0.9995003 0.8853301
vt 0.9995003 0.9251738
vt 0.0004992111 0.9251738

usemtl sn06_10_sn06zf.jpg
usemap sn06_10_sn06zf.jpg
f 3/3/3 1/1/1 2/2/2
f 1/1/1 3/3/3 4/4/4

usemtl sn06_09_sn06zhu2.jpg
usemap sn06_09_sn06zhu2.jpg
f 7/7/7 5/5/5 6/6/6
f 5/5/5 7/7/7 8/8/8
f 11/11/11 9/9/9 10/10/10
f 9/9/9 11/11/11 12/12/12
f 15/15/15 13/13/13 14/14/14
f 13/13/13 15/15/15 16/16/16
f 19/19/19 17/17/17 18/18/18
f 17/17/17 19/19/19 20/20/20
f 23/23/23 21/21/21 22/22/22
f 21/21/21 23/23/23 24/24/24
f 27/27/27 25/25/25 26/26/26
f 25/25/25 27/27/27 28/28/28
f 31/31/31 29/29/29 30/30/30
f 29/29/29 31/31/31 32/32/32
f 35/35/35 33/33/33 34/34/34
f 33/33/33 35/35/35 36/36/36
f 39/39/39 37/37/37 38/38/38
f 37/37/37 39/39/39 21/21/21
f 42/42/42 40/40/40 41/41/41
f 40/40/40 42/42/42 43/43/43
f 46/46/46 44/44/44 45/45/45
f 44/44/44 46/46/46 47/47/47
f 50/50/50 48/48/48 49/49/49
f 48/48/48 50/50/50 51/51/51
