mtllib ./Box62.mtl
g Box62
v -39.99976 320.0001 39.99957
v 40.00024 320.0001 39.99957
v 40.00024 320.0001 -40.00043
v -39.99976 320.0001 -40.00043
v -39.99976 9.155273E-05 -37.28378
v -33.32019 277.1387 -32.92526
v 33.32068 277.1387 -32.92526
v 40.00024 9.155273E-05 -37.28378
v -39.99976 9.155273E-05 42.71622
v -33.32019 277.1387 33.71558
v -33.32019 277.1387 -32.92526
v -39.99976 9.155273E-05 -37.28378
v 40.00024 9.155273E-05 42.71622
v 33.32068 277.1387 33.71558
v -33.32019 277.1387 33.71558
v -39.99976 9.155273E-05 42.71622
v 40.00024 9.155273E-05 -37.28378
v 33.32068 277.1387 -32.92526
v 33.32068 277.1387 33.71558
v 40.00024 9.155273E-05 42.71622
v -39.99976 320.0001 -40.00043
v 40.00024 320.0001 -40.00043
v 40.00024 288.1778 -39.73029
v -39.99976 288.1778 -39.73026
v -39.99976 320.0001 39.99957
v -39.99976 320.0001 -40.00043
v -39.99976 288.1778 -39.73026
v -39.99976 288.1778 40.26971
v 40.00024 320.0001 39.99957
v -39.99976 320.0001 39.99957
v -39.99976 288.1778 40.26971
v 40.00024 288.1778 40.26971
v 40.00024 288.1778 -39.73029
v 40.00024 320.0001 -40.00043
v 40.00024 320.0001 39.99957
v 40.00024 288.1778 40.26971
v -39.99976 288.1778 -39.73026
v 40.00024 288.1778 -39.73029
v 33.32068 277.1387 -32.92526
v -33.32019 277.1387 -32.92526
v -39.99976 288.1778 40.26971
v -39.99976 288.1778 -39.73026
v -33.32019 277.1387 -32.92526
v -33.32019 277.1387 33.71558
v 40.00024 288.1778 40.26971
v -39.99976 288.1778 40.26971
v -33.32019 277.1387 33.71558
v 33.32068 277.1387 33.71558
v 40.00024 288.1778 -39.73029
v 40.00024 288.1778 40.26971
v 33.32068 277.1387 33.71558
v 33.32068 277.1387 -32.92526

vn 0 1 0
vn 0 1 0
vn 0 1 0
vn 0 1 0
vn 0 0.01572492 -0.9998764
vn 0 0.01572491 -0.9998764
vn 0 0.01572492 -0.9998764
vn 0 0.01572491 -0.9998763
vn -0.9997097 0.02409489 0
vn -0.9997097 0.02409489 0
vn -0.9997097 0.02409489 0
vn -0.9997097 0.02409489 0
vn 0 0.03245992 0.999473
vn 0 0.03245992 0.9994731
vn 0 0.03245992 0.999473
vn 0 0.03245992 0.999473
vn 0.9997097 0.02409489 0
vn 0.9997097 0.02409489 0
vn 0.9997097 0.02409489 0
vn 0.9997097 0.02409489 0
vn -1.90728E-07 -0.008489233 -0.9999639
vn 0 -0.008488753 -0.9999639
vn -1.90728E-07 -0.008489233 -0.9999639
vn -3.81456E-07 -0.008489712 -0.9999639
vn -1 0 0
vn -0.9999999 0 0
vn -1 0 0
vn -1 0 0
vn 0 0.008488753 0.9999639
vn 0 0.008488753 0.9999639
vn 0 0.008488753 0.9999639
vn 0 0.008488753 0.9999639
vn 0.9999999 0 0
vn 0.9999999 0 0
vn 0.9999999 0 0
vn 0.9999999 0 0
vn -1.771552E-07 -0.5247549 -0.8512533
vn -3.247272E-07 -0.5247556 -0.8512529
vn -1.771552E-07 -0.5247549 -0.8512533
vn 0 -0.524754 -0.8512539
vn -0.8555672 -0.5176919 0
vn -0.8555671 -0.5176919 0
vn -0.8555672 -0.5176919 0
vn -0.8555672 -0.5176919 0
vn 0 -0.5105222 0.8598646
vn 0 -0.5105222 0.8598645
vn 0 -0.5105222 0.8598646
vn 0 -0.5105222 0.8598645
vn 0.8555671 -0.5176918 0
vn 0.8555672 -0.5176919 0
vn 0.8555671 -0.5176918 0
vn 0.8555672 -0.5176919 0

vt 0.9995005 0.9995003
vt 0.0004996657 0.9995005
vt 0.0004994869 0.0004996955
vt 0.9995003 0.0004994869
vt 0.9995003 0.0004995465
vt 0.9995003 0.8158131
vt 0.0004996397 0.8158131
vt 0.0004994869 0.0004995465
vt 0.9995003 0.0004995465
vt 0.9995003 0.8158131
vt 0.0004996907 0.8158131
vt 0.0004994869 0.0004995465
vt 0.9995003 0.0004995465
vt 0.9995003 0.8158131
vt 0.0004996397 0.8158131
vt 0.0004994869 0.0004995465
vt 0.9995003 0.0004995465
vt 0.9995003 0.8158131
vt 0.000499436 0.815813
vt 0.0004994869 0.0004995465
vt 0.9995003 0.9547691
vt 0.0004996657 0.9547692
vt 0.0004996479 0.859872
vt 0.9995003 0.859872
vt 0.9995003 0.9547691
vt 0.0004997253 0.9547691
vt 0.0004997017 0.859872
vt 0.9995003 0.859872
vt 0.9995003 0.9547691
vt 0.0004996657 0.9547692
vt 0.0004996479 0.859872
vt 0.9995003 0.859872
vt 0.9995003 0.859872
vt 0.9995003 0.9547691
vt 0.0004994273 0.954769
vt 0.0004994333 0.8598719
vt 0.9995003 0.859872
vt 0.0004996479 0.859872
vt 0.0004996397 0.8158131
vt 0.9995003 0.8158131
vt 0.9995003 0.859872
vt 0.0004997017 0.859872
vt 0.0004996907 0.8158131
vt 0.9995003 0.8158131
vt 0.9995003 0.859872
vt 0.0004996479 0.859872
vt 0.0004996397 0.8158131
vt 0.9995003 0.8158131
vt 0.9995003 0.859872
vt 0.0004994333 0.8598719
vt 0.000499436 0.815813
vt 0.9995003 0.8158131

usemtl sn06_10_sn06zf.jpg
usemap sn06_10_sn06zf.jpg
f 3/3/3 1/1/1 2/2/2
f 1/1/1 3/3/3 4/4/4

usemtl sn06_11_sn06zhu3.jpg
usemap sn06_11_sn06zhu3.jpg
f 7/7/7 5/5/5 6/6/6
f 5/5/5 7/7/7 8/8/8
f 11/11/11 9/9/9 10/10/10
f 9/9/9 11/11/11 12/12/12
f 15/15/15 13/13/13 14/14/14
f 13/13/13 15/15/15 16/16/16
f 19/19/19 17/17/17 18/18/18
f 17/17/17 19/19/19 20/20/20
f 23/23/23 21/21/21 22/22/22
f 21/21/21 23/23/23 24/24/24
f 27/27/27 25/25/25 26/26/26
f 25/25/25 27/27/27 28/28/28
f 31/31/31 29/29/29 30/30/30
f 29/29/29 31/31/31 32/32/32
f 35/35/35 33/33/33 34/34/34
f 33/33/33 35/35/35 36/36/36
f 39/39/39 37/37/37 38/38/38
f 37/37/37 39/39/39 40/40/40
f 43/43/43 41/41/41 42/42/42
f 41/41/41 43/43/43 44/44/44
f 47/47/47 45/45/45 46/46/46
f 45/45/45 47/47/47 48/48/48
f 51/51/51 49/49/49 50/50/50
f 49/49/49 51/51/51 52/52/52
