mtllib ./Box79.mtl
g Box79
v -25 290.0001 24.99988
v 25 290.0001 24.99988
v 25 290.0001 -25.00012
v -25 290.0001 -25.00012
v -25 9.155273E-05 -21.30872
v -19.94727 256.9621 -19.50024
v 19.94727 256.9621 -19.50024
v 25 9.155273E-05 -21.30872
v -25 9.155273E-05 28.69128
v -19.94727 256.9621 20.39435
v -19.94727 256.9621 -19.50024
v -25 9.155273E-05 -21.30872
v 25 9.155273E-05 28.69128
v 19.94727 256.9621 20.39435
v -19.94727 256.9621 20.39435
v -25 9.155273E-05 28.69128
v 25 9.155273E-05 -21.30872
v 19.94727 256.9621 -19.50024
v 19.94727 256.9621 20.39435
v 25 9.155273E-05 28.69128
v -25 290.0001 -25.00012
v 25 290.0001 -25.00012
v 25 265.4557 -24.68768
v -25 265.4557 -24.68768
v -25 290.0001 24.99988
v -25 290.0001 -25.00012
v -25 265.4557 -24.68768
v -25 265.4557 25.31232
v 25 290.0001 24.99988
v -25 290.0001 24.99988
v -25 265.4557 25.31232
v 25 265.4557 25.31232
v 25 265.4557 -24.68768
v 25 290.0001 -25.00012
v 25 290.0001 24.99988
v 25 265.4557 25.31232
v -25 265.4557 -24.68768
v 19.94727 256.9621 -19.50024
v -19.94727 256.9621 -19.50024
v -25 265.4557 25.31232
v -25 265.4557 -24.68768
v -19.94727 256.9621 -19.50024
v -19.94727 256.9621 20.39435
v 25 265.4557 25.31232
v -25 265.4557 25.31232
v -19.94727 256.9621 20.39435
v 19.94727 256.9621 20.39435
v 19.94727 256.9621 -19.50024
v 25 265.4557 -24.68768
v 25 265.4557 25.31232
v 19.94727 256.9621 20.39435

vn 0 1 0
vn 0 1 0
vn 0 1 0
vn 0 1 0
vn 0 0.00703772 -0.9999752
vn 0 0.007037721 -0.9999753
vn 0 0.00703772 -0.9999752
vn 0 0.00703772 -0.9999752
vn -0.9998067 0.01965952 0
vn -0.9998068 0.01965952 0
vn -0.9998067 0.01965952 0
vn -0.9998068 0.01965952 0
vn 0 0.03227175 0.9994791
vn 0 0.03227175 0.9994791
vn 0 0.03227175 0.9994791
vn 0 0.03227175 0.9994791
vn 0.9998067 0.01965955 0
vn 0.9998068 0.01965955 0
vn 0.9998067 0.01965955 0
vn 0.9998068 0.01965955 0
vn 0 -0.01272851 -0.9999191
vn 0 -0.01272851 -0.9999191
vn 0 -0.1004289 -0.9949443
vn 0 -0.01272851 -0.9999191
vn -1 0 0
vn -1 0 0
vn -1 0 0
vn -1 0 0
vn 0 0.01272851 0.9999191
vn 0 0.01272851 0.9999191
vn 0 0.01272851 0.9999191
vn 0 0.01272851 0.9999191
vn 1 0 0
vn 1 0 0
vn 1 0 0
vn 1 0 0
vn 0 -0.5212254 -0.8534191
vn 0 -0.5212254 -0.8534191
vn 0 -0.5212254 -0.8534191
vn -0.8594247 -0.5112624 0
vn -0.8594247 -0.5112624 0
vn -0.8594247 -0.5112624 0
vn -0.8594247 -0.5112624 0
vn 0 -0.5010853 0.8653978
vn 0 -0.5010854 0.8653978
vn 0 -0.5010853 0.8653978
vn 0 -0.5010855 0.8653979
vn 0.8594244 -0.511263 0
vn 0.8594244 -0.511263 0
vn 0.8594244 -0.511263 0
vn 0.8594244 -0.5112629 0

vt 0.9995005 0.9995002
vt 0.0004997849 0.9995005
vt 0.0004995465 0.0004997849
vt 0.9995002 0.0004995465
vt 0.8121877 0.0004995465
vt 0.8121877 0.7605443
vt 0.1878122 0.7605443
vt 0.1878122 0.0004995465
vt 0.8121877 0.0004995465
vt 0.8121877 0.7605443
vt 0.1878123 0.7605442
vt 0.1878122 0.0004995465
vt 0.8121877 0.0004995465
vt 0.8121877 0.7605443
vt 0.1878122 0.7605443
vt 0.1878122 0.0004995465
vt 0.8121877 0.0004995465
vt 0.8121877 0.7605443
vt 0.1878123 0.7605443
vt 0.1878122 0.0004995465
vt 0.8121877 0.8653063
vt 0.1878122 0.8653063
vt 0.1878122 0.7921126
vt 0.8121877 0.7921126
vt 0.8121877 0.8653063
vt 0.1878123 0.8653062
vt 0.1878123 0.7921125
vt 0.8121877 0.7921126
vt 0.8121877 0.8653063
vt 0.1878122 0.8653063
vt 0.1878122 0.7921126
vt 0.8121877 0.7921126
vt 0.8121877 0.7921126
vt 0.8121877 0.8653063
vt 0.1878123 0.8653063
vt 0.1878123 0.7921126
vt 0.8121877 0.7921126
vt 0.1878122 0.7605443
vt 0.8121877 0.7605443
vt 0.8121877 0.7921126
vt 0.1878123 0.7921125
vt 0.1878123 0.7605442
vt 0.8121877 0.7605443
vt 0.8121877 0.7921126
vt 0.1878122 0.7921126
vt 0.1878122 0.7605443
vt 0.8121877 0.7605443
vt 0.8121877 0.7605443
vt 0.8121877 0.7921126
vt 0.1878123 0.7921126
vt 0.1878123 0.7605443

usemtl sn06_10_sn06zf.jpg
usemap sn06_10_sn06zf.jpg
f 3/3/3 1/1/1 2/2/2
f 1/1/1 3/3/3 4/4/4

usemtl sn06_09_sn06zhu2.jpg
usemap sn06_09_sn06zhu2.jpg
f 7/7/7 5/5/5 6/6/6
f 5/5/5 7/7/7 8/8/8
f 11/11/11 9/9/9 10/10/10
f 9/9/9 11/11/11 12/12/12
f 15/15/15 13/13/13 14/14/14
f 13/13/13 15/15/15 16/16/16
f 19/19/19 17/17/17 18/18/18
f 17/17/17 19/19/19 20/20/20
f 23/23/23 21/21/21 22/22/22
f 21/21/21 23/23/23 24/24/24
f 27/27/27 25/25/25 26/26/26
f 25/25/25 27/27/27 28/28/28
f 31/31/31 29/29/29 30/30/30
f 29/29/29 31/31/31 32/32/32
f 35/35/35 33/33/33 34/34/34
f 33/33/33 35/35/35 36/36/36
f 38/38/38 37/37/37 23/23/23
f 37/37/37 38/38/38 39/39/39
f 42/42/42 40/40/40 41/41/41
f 40/40/40 42/42/42 43/43/43
f 46/46/46 44/44/44 45/45/45
f 44/44/44 46/46/46 47/47/47
f 50/50/50 48/48/48 49/49/49
f 48/48/48 50/50/50 51/51/51
