mtllib ./Box76.mtl
g Box76
v -25.00043 290.0001 25.00034
v 24.99957 290.0001 25.00034
v 24.99957 290.0001 -24.99966
v -25.00043 290.0001 -24.99966
v -25.00043 9.155273E-05 -21.30826
v -19.89862 255.9471 -19.4346
v 19.89777 255.9471 -19.4346
v 24.99957 9.155273E-05 -21.30826
v -25.00043 9.155273E-05 28.69174
v -19.89862 255.9471 20.36182
v -19.89862 255.9471 -19.4346
v -25.00043 9.155273E-05 -21.30826
v 24.99957 9.155273E-05 28.69174
v 19.89777 255.9471 20.36182
v -19.89862 255.9471 20.36182
v -25.00043 9.155273E-05 28.69174
v 24.99957 9.155273E-05 -21.30826
v 19.89777 255.9471 -19.4346
v 19.89777 255.9471 20.36182
v 24.99957 9.155273E-05 28.69174
v -25.00043 290.0001 -24.99966
v 24.99957 290.0001 -24.99966
v 24.99957 265.5251 -24.68811
v -25.00043 265.5251 -24.68811
v -25.00043 290.0001 25.00034
v -25.00043 290.0001 -24.99966
v -25.00043 265.5251 -24.68811
v -25.00043 265.5251 25.31189
v 24.99957 290.0001 25.00034
v -25.00043 290.0001 25.00034
v -25.00043 265.5251 25.31189
v 24.99957 265.5251 25.31189
v 24.99957 265.5251 -24.68811
v 24.99957 290.0001 -24.99966
v 24.99957 290.0001 25.00034
v 24.99957 265.5251 25.31189
v -25.00043 265.5251 -24.68811
v 24.99957 265.5251 -24.68811
v 19.89777 255.9471 -19.4346
v -19.89862 255.9471 -19.4346
v -25.00043 265.5251 25.31189
v -25.00043 265.5251 -24.68811
v -19.89862 255.9471 -19.4346
v -19.89862 255.9471 20.36182
v 24.99957 265.5251 25.31189
v -25.00043 265.5251 25.31189
v -19.89862 255.9471 20.36182
v 19.89777 255.9471 20.36182
v 19.89777 255.9471 -19.4346
v 24.99957 265.5251 -24.68811
v 24.99957 265.5251 25.31189
v 19.89777 255.9471 20.36182

vn 0 1 0
vn 0 1 0
vn 0 1 0
vn 0 1 0
vn 0 0.007320294 -0.9999732
vn 0 0.007320294 -0.9999733
vn 0 0.007320294 -0.9999732
vn 0 0.007320294 -0.9999732
vn -0.9998015 0.0199291 0
vn -0.9998013 0.0199291 0
vn -0.9998015 0.0199291 0
vn -0.9998014 0.0199291 0
vn 0 0.03252829 0.9994709
vn 0 0.03252829 0.9994708
vn 0 0.03252829 0.9994709
vn 0 0.03252829 0.9994708
vn 0.9998015 0.0199291 0
vn 0.9998013 0.0199291 0
vn 0.9998015 0.0199291 0
vn 0.9998014 0.0199291 0
vn 0 -0.01272846 -0.999919
vn 0 -0.01272846 -0.999919
vn 0 -0.01272846 -0.999919
vn 0 -0.01272846 -0.999919
vn -1 0 0
vn -1 0 0
vn -1 0 0
vn -1 0 0
vn 0 0.01272846 0.999919
vn 0 0.01272846 0.999919
vn 0 0.01272846 0.999919
vn 0 0.01272846 0.999919
vn 1 0 0
vn 1 0 0
vn 1 0 0
vn 1 0 0
vn 0 -0.4809051 -0.8767726
vn 0 -0.4809052 -0.8767726
vn 0 -0.4809051 -0.8767726
vn 0 -0.4809052 -0.8767726
vn -0.882601 -0.4701229 0
vn -0.882601 -0.4701228 0
vn -0.882601 -0.4701229 0
vn -0.882601 -0.4701229 0
vn 0 -0.4591236 0.8883724
vn 0 -0.4591236 0.8883724
vn 0 -0.4591236 0.8883724
vn 0 -0.4591236 0.8883724
vn 0.882601 -0.4701229 0
vn 0.882601 -0.4701228 0
vn 0.882601 -0.4701229 0
vn 0.882601 -0.4701229 0

vt 0.9995005 0.9995002
vt 0.0004997849 0.9995005
vt 0.0004995465 0.0004997849
vt 0.9995002 0.0004995465
vt 0.8121877 0.0004995465
vt 0.8121877 0.7567726
vt 0.1878122 0.7567726
vt 0.1878122 0.0004995465
vt 0.8121877 0.0004995465
vt 0.8121877 0.7567726
vt 0.1878123 0.7567725
vt 0.1878122 0.0004995465
vt 0.8121877 0.0004995465
vt 0.8121877 0.7567726
vt 0.1878122 0.7567726
vt 0.1878122 0.0004995465
vt 0.8121877 0.0004995465
vt 0.8121877 0.7567726
vt 0.1878123 0.7567726
vt 0.1878122 0.0004995465
vt 0.8121877 0.8653063
vt 0.1878122 0.8653063
vt 0.1878122 0.7923197
vt 0.8121877 0.7923197
vt 0.8121877 0.8653063
vt 0.1878123 0.8653062
vt 0.1878123 0.7923195
vt 0.8121877 0.7923197
vt 0.8121877 0.8653063
vt 0.1878122 0.8653063
vt 0.1878122 0.7923197
vt 0.8121877 0.7923197
vt 0.8121877 0.7923197
vt 0.8121877 0.8653063
vt 0.1878123 0.8653063
vt 0.1878123 0.7923197
vt 0.8121877 0.7923197
vt 0.1878122 0.7923197
vt 0.1878122 0.7567726
vt 0.8121877 0.7567726
vt 0.8121877 0.7923197
vt 0.1878123 0.7923195
vt 0.1878123 0.7567725
vt 0.8121877 0.7567726
vt 0.8121877 0.7923197
vt 0.1878122 0.7923197
vt 0.1878122 0.7567726
vt 0.8121877 0.7567726
vt 0.8121877 0.7567726
vt 0.8121877 0.7923197
vt 0.1878123 0.7923197
vt 0.1878123 0.7567726

usemtl sn06_10_sn06zf.jpg
usemap sn06_10_sn06zf.jpg
f 3/3/3 1/1/1 2/2/2
f 1/1/1 3/3/3 4/4/4

usemtl sn06_09_sn06zhu2.jpg
usemap sn06_09_sn06zhu2.jpg
f 7/7/7 5/5/5 6/6/6
f 5/5/5 7/7/7 8/8/8
f 11/11/11 9/9/9 10/10/10
f 9/9/9 11/11/11 12/12/12
f 15/15/15 13/13/13 14/14/14
f 13/13/13 15/15/15 16/16/16
f 19/19/19 17/17/17 18/18/18
f 17/17/17 19/19/19 20/20/20
f 23/23/23 21/21/21 22/22/22
f 21/21/21 23/23/23 24/24/24
f 27/27/27 25/25/25 26/26/26
f 25/25/25 27/27/27 28/28/28
f 31/31/31 29/29/29 30/30/30
f 29/29/29 31/31/31 32/32/32
f 35/35/35 33/33/33 34/34/34
f 33/33/33 35/35/35 36/36/36
f 39/39/39 37/37/37 38/38/38
f 37/37/37 39/39/39 40/40/40
f 43/43/43 41/41/41 42/42/42
f 41/41/41 43/43/43 44/44/44
f 47/47/47 45/45/45 46/46/46
f 45/45/45 47/47/47 48/48/48
f 51/51/51 49/49/49 50/50/50
f 49/49/49 51/51/51 52/52/52
