mtllib ./Plane09.mtl
g Plane09
v 92.62286 32.06366 -24.54306
v 163.5682 -74.04816 -83.93786
v 9.945653 -16.60284 -110.2895
v -155.2932 -10.98315 -114.318
v -50.76301 93.54651 -48.96861
v 9.945653 -16.60284 -110.2895
v -231.9901 -60.69991 57.86233
v -140.7532 92.30518 0.6791477
v 268.6371 -90.66995 16.04354
v 163.5682 -74.04816 -83.93786
v 181.3925 -17.8262 48.81146
v 19.55598 75.07455 39.25003
v -146.4281 92.10419 90.6692
v 92.62286 32.06366 -24.54306
v 79.91833 -12.8642 98.93958
v 279.795 -90.66995 88.4248
v 268.6371 -90.66995 16.04354
v -45.61541 70.40506 120.2805
v 167.9126 -83.70303 110.7051
v -127.8524 -19.2247 130.3411
v 189.7222 -196.75 -107.3901
v 2.791265 -164.6729 -163.4297
v 9.945653 -16.60284 -110.2895
v -130.1179 -141.4439 -172.7422
v 225.7197 -321.7563 -129.7412
v 32.31541 -306.0976 -179.0361
v -104.7108 -266.9367 -202.3344
v -218.8237 -283.1758 -188.1938
v 266.2405 -485.9474 -147.7472
v 104.6877 -478.0793 -195.7798
v -47.53611 -476.6296 -216.2287
v -178.5558 -477.8202 -218.9594
v -241.4352 -188.6194 -109.6791
v -286.2581 -189.6575 22.1432
v -286.2581 -189.6575 22.1432
v -308.6277 -188.4324 104.7684
v -297.3424 -291.3368 -93.38814
v -297.3424 -291.3368 -93.38814
v -345.8591 -292.3927 22.14946
v -359.3218 -292.7447 107.1672
v -300.7295 -553.5001 -157.4872
v -353.2416 -611.4607 -58.51956
v -405.9933 -610.0183 68.0548
v 341.9109 -195.625 16.50946
v 189.7222 -196.75 -107.3901
v 335.6364 -195.625 88.4008
v 341.9109 -195.625 16.50946
v 211.3506 -195.625 110.5904
v 376.8014 -322.3058 -10.73332
v 396.9445 -322.3058 72.06297
v 376.8014 -322.3058 -10.73332
v 250.1007 -322.3058 110.5738
v 403.1901 -489.9617 -57.08349
v 403.1901 -489.9617 -57.08349
v 476.765 -489.9617 51.72771
v 476.765 -489.9617 51.72771
v 330.288 -489.9617 110.5392

vn 0.6713414 0.7072591 -0.2215524
vn 0.6897115 0.4368075 -0.5774922
vn 0.6666442 0.6132917 -0.4236256
vn -0.04811776 0.4971378 -0.8663363
vn 0.3912144 0.8048201 -0.446336
vn 0.4869868 0.4112406 -0.7705357
vn -0.7164764 0.4305977 -0.5488599
vn -0.3816262 0.7946903 -0.4720475
vn 0.7664227 0.6243275 -0.1510341
vn 0.8327458 0.5218343 -0.1849955
vn 0.3976171 0.8525536 0.3391947
vn 0.2128176 0.9227426 0.3213326
vn -0.6226579 0.7591826 0.1895754
vn 0.2181629 0.8224626 0.5253192
vn 0.1745191 0.7523162 0.6352665
vn 0.0382472 0.472383 0.8805631
vn 0.7062517 0.6159019 0.3491035
vn -0.1391987 0.7504464 0.6461068
vn -0.2057447 0.4307865 0.8786877
vn -0.8220373 0.2316985 0.5201637
vn 0.7143911 0.2404707 -0.6571296
vn 0.6446851 0.2758345 -0.7129492
vn 0.7122304 0.2791933 -0.6440331
vn 0.2621845 0.3349507 -0.9050234
vn 0.8061267 0.2443698 -0.5389277
vn 0.6783769 0.1736248 -0.7139043
vn 0.5369644 0.1425985 -0.8314655
vn -0.02952456 0.1917232 -0.9810048
vn 0.8060451 0.2005909 -0.5568255
vn 0.6779572 0.1778383 -0.7132654
vn 0.5951258 0.1138038 -0.7955337
vn 0.3016437 0.07817636 -0.9502104
vn -0.4461224 0.3982524 -0.8014798
vn -0.579602 0.4431755 -0.6838546
vn -0.6221951 0.4577123 -0.6351163
vn -0.6477743 0.4498078 -0.614867
vn -0.4226193 0.2640177 -0.8669991
vn -0.5865716 0.1767204 -0.790382
vn -0.644381 0.2118296 -0.7347798
vn -0.7558315 0.2349163 -0.6111736
vn -0.3179785 0.1112947 -0.9415429
vn -0.5942109 0.1166216 -0.7958096
vn -0.6701536 0.1361106 -0.7296355
vn 0.8896936 0.3360704 -0.3090341
vn 0.8895063 0.299823 -0.3447964
vn 0.09580493 0.2579267 0.9614028
vn 0.7984885 0.4320498 0.4192244
vn -0.3324956 0.07289779 0.9402832
vn 0.9074739 0.3030355 -0.2909648
vn 0.187332 0.2285682 0.9553341
vn 0.8857026 0.3847933 0.2597404
vn -0.2838858 0.06422634 0.9567046
vn 0.8750415 0.2227423 -0.4297538
vn 0.9255214 0.292732 -0.2402455
vn 0.9592447 0.2743034 -0.06787693
vn 0.3019076 0.2647256 0.915845
vn -0.2012807 0.09222113 0.9751828

vt 0.4351854 0.8267357
vt 0.3548695 0.712649
vt 0.5287071 0.7744117
vt 0.7157015 0.7804537
vt 0.5974393 0.8928394
vt 0.5287071 0.7744117
vt 0.802581 0.7270004
vt 0.6993029 0.8915049
vt 0.2360148 0.6947779
vt 0.3548695 0.712649
vt 0.334763 0.7730964
vt 0.5179042 0.8729792
vt 0.7057688 0.8912888
vt 0.4351854 0.8267357
vt 0.4496228 0.7784313
vt 0.2234229 0.694778
vt 0.2360148 0.6947779
vt 0.5916963 0.8679588
vt 0.3500479 0.7022685
vt 0.6847665 0.7715927
vt 0.3252605 0.5807253
vt 0.5367778 0.6152132
vt 0.5287071 0.7744117
vt 0.6871827 0.640188
vt 0.2845122 0.446324
vt 0.5033585 0.4631594
vt 0.658416 0.5052636
vt 0.7875613 0.487804
vt 0.2386471 0.2697927
vt 0.4214486 0.2782522
vt 0.5937061 0.2798108
vt 0.7419762 0.2785308
vt 0.8131883 0.5894669
vt 0.8639772 0.5883508
vt 0.8639772 0.5883508
vt 0.8893324 0.589668
vt 0.8764647 0.4790296
vt 0.8764647 0.4790296
vt 0.931426 0.4778944
vt 0.9467027 0.477516
vt 0.8802667 0.197163
vt 0.9397413 0.1348463
vt 0.9995005 0.1363971
vt 0.153093 0.5819349
vt 0.3252605 0.5807253
vt 0.1602287 0.5819349
vt 0.153093 0.5819349
vt 0.3008902 0.5819349
vt 0.1135951 0.4457331
vt 0.09084007 0.4457331
vt 0.1135951 0.4457331
vt 0.2570378 0.4457331
vt 0.08370921 0.2654768
vt 0.08370921 0.2654768
vt 0.0004994869 0.2654768
vt 0.0004994869 0.2654768
vt 0.1662921 0.2654768

usemtl sn14_09_sn14010.jpg
usemap sn14_09_sn14010.jpg
f 3/3/3 1/1/1 2/2/2
f 6/6/6 4/4/4 5/5/5
f 5/5/5 1/1/1 3/3/3
f 8/8/8 4/4/4 7/7/7
f 11/11/11 9/9/9 10/10/10
f 1/1/1 11/11/11 10/10/10
f 1/1/1 5/5/5 12/12/12
f 12/12/12 5/5/5 8/8/8
f 7/7/7 13/13/13 8/8/8
f 11/11/11 14/14/14 15/15/15
f 12/12/12 15/15/15 14/14/14
f 11/11/11 16/16/16 17/17/17
f 13/13/13 18/18/18 12/12/12
f 12/12/12 8/8/8 13/13/13
f 11/11/11 19/19/19 16/16/16
f 15/15/15 19/19/19 11/11/11
f 15/15/15 12/12/12 18/18/18
f 20/20/20 18/18/18 13/13/13
f 7/7/7 20/20/20 13/13/13
f 23/23/23 21/21/21 22/22/22
f 21/21/21 23/23/23 2/2/2
f 4/4/4 22/22/22 24/24/24
f 22/22/22 4/4/4 6/6/6
f 21/21/21 25/25/25 26/26/26
f 26/26/26 22/22/22 21/21/21
f 22/22/22 26/26/26 27/27/27
f 27/27/27 24/24/24 22/22/22
f 24/24/24 27/27/27 28/28/28
f 25/25/25 29/29/29 30/30/30
f 30/30/30 26/26/26 25/25/25
f 26/26/26 30/30/30 31/31/31
f 31/31/31 27/27/27 26/26/26
f 27/27/27 31/31/31 32/32/32
f 32/32/32 28/28/28 27/27/27
f 5/5/5 4/4/4 8/8/8
f 33/33/33 7/7/7 4/4/4
f 7/7/7 33/33/33 34/34/34
f 7/7/7 35/35/35 36/36/36
f 4/4/4 24/24/24 33/33/33
f 33/33/33 28/28/28 37/37/37
f 37/37/37 34/34/34 33/33/33
f 34/34/34 38/38/38 39/39/39
f 39/39/39 36/36/36 35/35/35
f 36/36/36 39/39/39 40/40/40
f 28/28/28 33/33/33 24/24/24
f 28/28/28 32/32/32 41/41/41
f 41/41/41 37/37/37 28/28/28
f 38/38/38 41/41/41 42/42/42
f 42/42/42 39/39/39 38/38/38
f 39/39/39 42/42/42 43/43/43
f 43/43/43 40/40/40 39/39/39
f 10/10/10 44/44/44 45/45/45
f 44/44/44 10/10/10 9/9/9
f 17/17/17 46/46/46 47/47/47
f 46/46/46 17/17/17 16/16/16
f 16/16/16 48/48/48 46/46/46
f 48/48/48 16/16/16 19/19/19
f 45/45/45 49/49/49 25/25/25
f 49/49/49 45/45/45 44/44/44
f 47/47/47 50/50/50 51/51/51
f 50/50/50 47/47/47 46/46/46
f 46/46/46 52/52/52 50/50/50
f 52/52/52 46/46/46 48/48/48
f 25/25/25 53/53/53 29/29/29
f 54/54/54 25/25/25 49/49/49
f 49/49/49 55/55/55 54/54/54
f 56/56/56 51/51/51 50/50/50
f 50/50/50 57/57/57 56/56/56
f 57/57/57 50/50/50 52/52/52
