mtllib ./Plane04.mtl
g Plane04
v 115.5859 311.2394 -172.7611
v 122.8206 379.4389 -99.21104
v 217.1307 340.6061 -166.4954
v 33.70825 332.9906 -101.3611
v 15.81061 266.6845 -167.6506
v -44.47717 233.679 -113.3825
v 204.0909 424.8539 -20.8411
v 114.2318 403.2709 -42.27508
v 53.12616 375.1546 -42.27508
v -11.62805 313.5471 -14.68758
v -70.90936 229.9947 -31.70634
v -134.3077 37.93878 -14.94224
v -115.0244 37.93878 -125.4039
v 118.392 430.1236 36.87997
v 40.73688 386.6576 30.38389
v -76.3822 217.1045 51.05762
v 61.10547 374.6218 108.3317
v -10.18445 306.7598 77.00107
v -137.2117 37.93878 76.48721
v 147.8111 371.1062 147.7555
v -3.296997 298.4682 154.3064
v -80.92218 205.6676 131.8733
v -102.1686 39.0378 157.4882
v 137.6736 298.7284 218.4579
v 73.59009 298.7284 204.9729
v 24.43127 216.9401 214.3562
v 118.2798 212.0599 255.1257
v 75.86877 45.15781 286.0274
v 139.9524 45.15781 299.5124
v 13.98285 44.70605 258.2619
v -46.34814 79.64208 195.1008
v -30.54211 3.797897 241.9008
v -35.56067 216.0207 177.7982
v -102.1686 39.0378 157.4882
v 228.5267 394.4984 -100.8362
v 210.0946 424.0282 57.40676
v 212.2478 297.9228 205.7789
v 211.2413 215.034 251.2487
v 212.6189 44.35225 292.6915
v 231.1979 364.4669 119.0021
v 231.1979 364.4669 119.0021
v 3.461304 186.1293 -208.8519
v -62.18146 38.35069 -201.1861
v -115.0244 37.93878 -125.4039
v 66.20081 242.2935 -244.7394
v 269.3155 326.0168 -205.9467
v 249.5587 318.5743 -295.4836
v 186.0713 298.9259 -282.1912
v 120.6907 283.8996 -302.9911
v 17.46832 169.0385 -272.9612
v -28.36084 39.59148 -272.9612
v -62.18146 38.35069 -201.1861
v 318.628 320.382 -299.5738
v 51.01575 186.2275 -346.8813
v -17.72809 38.88785 -346.8813
v -28.36084 39.59148 -272.9612
v 246.8339 241.6244 -387.092
v 136.4205 204.7975 -397.3748
v 349.9938 240.8188 -386.5671
v 318.628 320.382 -299.5738
v 48.92175 97.58846 -407.6575
v -17.72809 38.88785 -346.8813
v -4.545654 -1.176208 -407.6575

vn -0.3498158 0.8237013 -0.4462569
vn -0.2309693 0.8134927 -0.5337442
vn -0.1768012 0.8918849 -0.4162726
vn -0.5669624 0.6950532 -0.4421025
vn -0.5698888 0.6113519 -0.5490679
vn -0.8405912 0.4152293 -0.3478377
vn -0.09090884 0.9552678 -0.2814229
vn -0.2990345 0.899852 -0.3175606
vn -0.5600054 0.7704469 -0.3046401
vn -0.7855867 0.6089972 -0.109435
vn -0.9051717 0.4030378 -0.1349996
vn -0.939763 0.3173289 -0.1270739
vn -0.9252064 0.3433751 -0.1615141
vn -0.2151695 0.9613807 0.171608
vn -0.6522722 0.7579833 0.001427405
vn -0.9207326 0.3841026 0.06867854
vn -0.4545275 0.7728174 0.4428973
vn -0.7840016 0.610413 0.1128605
vn -0.925462 0.3383856 0.1703393
vn -0.00845446 0.7902951 0.6126682
vn -0.6263508 0.5891455 0.5104824
vn -0.8627262 0.3569298 0.3581961
vn -0.8984469 0.247515 0.3626699
vn 0.00408015 0.5405678 0.8412906
vn -0.3288341 0.5730425 0.7506601
vn -0.4711375 0.2735871 0.838558
vn -0.1422315 0.2894168 0.9465771
vn -0.3346977 0.248797 0.9088881
vn -0.04563745 0.2512044 0.9668576
vn -0.5437449 0.2558519 0.7993006
vn -0.6329966 0.212617 0.7443853
vn -0.632157 0.3071947 0.7113431
vn -0.612384 0.25968 0.746694
vn -0.669283 0.2841456 0.6865286
vn -0.1293313 0.8532961 -0.5051329
vn 0.08310388 0.9082068 0.410188
vn 0.1940575 0.6486037 0.735972
vn 0.05806892 0.3312233 0.9417639
vn 0.05915558 0.2497677 0.9664971
vn 0.2721289 0.7366585 0.6190962
vn 0.2729761 0.7336919 0.622238
vn -0.78326 0.3720746 -0.4980604
vn -0.7785659 0.3177642 -0.5411662
vn -0.7774655 0.3151315 -0.5442789
vn -0.6814716 0.6483182 -0.3395287
vn 0.06950893 0.99277 -0.09785869
vn -0.1122944 0.8782772 -0.4647787
vn -0.2278852 0.9044268 -0.3606669
vn -0.4101672 0.794182 -0.4483722
vn -0.8510013 0.415732 -0.3208796
vn -0.8633388 0.3056546 -0.4015237
vn -0.8733566 0.3415732 -0.3472402
vn -0.03059024 0.9966314 -0.07609222
vn -0.7570965 0.5059641 -0.4132861
vn -0.8981451 0.4190451 -0.133179
vn -0.8997721 0.3724514 -0.2273543
vn -0.1318722 0.7791669 -0.6127875
vn -0.388227 0.6412218 -0.6619021
vn -0.01804199 0.7505241 -0.6605968
vn -0.0595787 0.7258152 -0.6853048
vn -0.6988804 0.4324784 -0.5696743
vn -0.7839079 0.3892755 -0.4836867
vn -0.7851207 0.4250343 -0.450479

vt 0.2777373 0.574982
vt 0.4034634 0.7603996
vt 0.3408412 0.6014229
vt 0.3728296 0.6027857
vt 0.2449536 0.4093036
vt 0.3235722 0.3871352
vt 0.5963534 0.809746
vt 0.5086884 0.7882413
vt 0.4792742 0.7636649
vt 0.5218667 0.5964617
vt 0.471092 0.3939709
vt 0.4964217 0.1220239
vt 0.2887073 0.1084235
vt 0.6641953 0.821459
vt 0.6148268 0.7826656
vt 0.6328683 0.3928937
vt 0.7807231 0.7817423
vt 0.7042682 0.6018178
vt 0.6752769 0.1332809
vt 0.9049006 0.7835233
vt 0.861341 0.6040882
vt 0.7911398 0.392847
vt 0.8535767 0.1442146
vt 1.062702 0.6122141
vt 1.002086 0.6105539
vt 1.008587 0.4128558
vt 1.139356 0.4136097
vt 1.201021 0.1653902
vt 1.261638 0.1670505
vt 1.113444 0.1615768
vt 0.9530594 0.1843378
vt 1.061919 0.1238046
vt 0.9047161 0.4075511
vt 0.8535767 0.1442146
vt 0.4547406 0.7733631
vt 0.7540163 0.8186584
vt 1.077348 0.609949
vt 1.180723 0.415732
vt 1.28683 0.1655066
vt 0.8931335 0.7741797
vt 0.8931335 0.7741797
vt 0.165744 0.3338176
vt 0.1671836 0.09945306
vt 0.2887073 0.1084235
vt 0.1222096 0.3784921
vt 0.2922602 0.5838131
vt 0.1059108 0.5662836
vt 0.08993793 0.6887213
vt 0.02642534 0.4713689
vt 0.0538249 0.20485
vt 0.04338232 0.09170049
vt 0.1671836 0.09945306
vt 0.134302 0.5673602
vt -0.07606369 0.2107736
vt -0.09674871 0.08198419
vt 0.04338232 0.09170049
vt -0.06803414 0.4240615
vt -0.1376639 0.326924
vt -0.01216504 0.423422
vt 0.134302 0.5673602
vt -0.1875867 0.1258114
vt -0.09674871 0.08198419
vt -0.2053726 0.03948134

usemtl sn14_10_sn14031.jpg
usemap sn14_10_sn14031.jpg
f 3/3/3 1/1/1 2/2/2
f 4/4/4 2/2/2 1/1/1
f 1/1/1 5/5/5 4/4/4
f 6/6/6 4/4/4 5/5/5
f 8/8/8 7/7/7 2/2/2
f 9/9/9 8/8/8 2/2/2
f 2/2/2 4/4/4 9/9/9
f 10/10/10 9/9/9 4/4/4
f 4/4/4 6/6/6 10/10/10
f 11/11/11 10/10/10 6/6/6
f 12/12/12 11/11/11 6/6/6
f 6/6/6 13/13/13 12/12/12
f 7/7/7 8/8/8 14/14/14
f 15/15/15 14/14/14 8/8/8
f 8/8/8 9/9/9 15/15/15
f 10/10/10 15/15/15 9/9/9
f 12/12/12 16/16/16 11/11/11
f 10/10/10 11/11/11 16/16/16
f 14/14/14 15/15/15 17/17/17
f 15/15/15 10/10/10 18/18/18
f 16/16/16 18/18/18 10/10/10
f 16/16/16 12/12/12 19/19/19
f 17/17/17 20/20/20 14/14/14
f 18/18/18 17/17/17 15/15/15
f 17/17/17 18/18/18 21/21/21
f 22/22/22 21/21/21 18/18/18
f 18/18/18 16/16/16 22/22/22
f 23/23/23 22/22/22 16/16/16
f 16/16/16 19/19/19 23/23/23
f 25/25/25 24/24/24 20/20/20
f 20/20/20 17/17/17 25/25/25
f 21/21/21 25/25/25 17/17/17
f 26/26/26 25/25/25 21/21/21
f 27/27/27 24/24/24 25/25/25
f 25/25/25 26/26/26 27/27/27
f 27/27/27 28/28/28 29/29/29
f 28/28/28 27/27/27 26/26/26
f 26/26/26 30/30/30 28/28/28
f 30/30/30 31/31/31 32/32/32
f 26/26/26 31/31/31 30/30/30
f 26/26/26 33/33/33 31/31/31
f 33/33/33 26/26/26 21/21/21
f 22/22/22 33/33/33 21/21/21
f 33/33/33 22/22/22 31/31/31
f 23/23/23 31/31/31 22/22/22
f 31/31/31 34/34/34 32/32/32
f 35/35/35 3/3/3 2/2/2
f 2/2/2 7/7/7 35/35/35
f 36/36/36 7/7/7 14/14/14
f 14/14/14 20/20/20 36/36/36
f 37/37/37 20/20/20 24/24/24
f 24/24/24 38/38/38 37/37/37
f 38/38/38 24/24/24 27/27/27
f 27/27/27 39/39/39 38/38/38
f 39/39/39 27/27/27 29/29/29
f 40/40/40 36/36/36 20/20/20
f 20/20/20 37/37/37 41/41/41
f 6/6/6 5/5/5 42/42/42
f 44/44/44 42/42/42 43/43/43
f 42/42/42 44/44/44 6/6/6
f 45/45/45 5/5/5 1/1/1
f 5/5/5 45/45/45 42/42/42
f 47/47/47 3/3/3 46/46/46
f 3/3/3 47/47/47 48/48/48
f 48/48/48 1/1/1 3/3/3
f 1/1/1 48/48/48 49/49/49
f 49/49/49 45/45/45 1/1/1
f 42/42/42 45/45/45 50/50/50
f 52/52/52 50/50/50 51/51/51
f 50/50/50 52/52/52 42/42/42
f 46/46/46 53/53/53 47/47/47
f 45/45/45 49/49/49 54/54/54
f 54/54/54 50/50/50 45/45/45
f 56/56/56 54/54/54 55/55/55
f 54/54/54 56/56/56 50/50/50
f 57/57/57 48/48/48 47/47/47
f 49/49/49 57/57/57 58/58/58
f 57/57/57 49/49/49 48/48/48
f 58/58/58 54/54/54 49/49/49
f 47/47/47 59/59/59 57/57/57
f 59/59/59 47/47/47 60/60/60
f 54/54/54 58/58/58 61/61/61
f 61/61/61 62/62/62 54/54/54
f 62/62/62 61/61/61 63/63/63
