mtllib ./Plane06.mtl
g Plane06
v 164.8623 440.3815 -95.83522
v 136.804 366.6042 -153.2184
v 80.97656 403.6554 -81.02679
v 46.13726 360.1294 -137.6337
v 80.97656 403.6554 -81.02679
v 46.13726 360.1294 -137.6337
v 23.07453 370.1942 -66.2049
v -34.78872 280.7909 -125.3123
v 46.13726 360.1294 -137.6337
v -32.2306 295.2598 -62.25363
v -87.81152 195.1239 -108.5484
v -70.74304 236.3969 -26.34144
v -126.722 56.90816 -14.89651
v -127.8181 56.90816 -112.2681
v -146.5109 3.051758E-05 -70.57027
v 156.6159 486.8943 -31.46374
v 164.8623 440.3815 -95.83522
v 77.97803 447.5452 -23.23615
v 80.97656 403.6554 -81.02679
v 77.97803 447.5452 -23.23615
v 80.97656 403.6554 -81.02679
v 1.373765 362.742 -0.868657
v 1.373765 362.742 -0.868657
v 1.373765 362.742 -0.868657
v -70.74304 236.3969 -26.34144
v -80.74538 207.35 34.71347
v -70.74304 236.3969 -26.34144
v 160.71 533.0995 40.08077
v 156.6159 486.8943 -31.46374
v 81.43383 495.5474 42.42615
v 77.97803 447.5452 -23.23615
v 81.43383 495.5474 42.42615
v 77.97803 447.5452 -23.23615
v 35.71624 464.9729 45.92974
v -25.07804 297.1789 52.09801
v -80.74538 207.35 34.71347
v -143.4664 18.96941 40.49538
v 1.373765 362.742 -0.868657
v -25.07804 297.1789 52.09801
v -119.3792 56.90816 92.03607
v -80.74538 207.35 34.71347
v 168.0807 506.3956 114.2233
v 160.71 533.0995 40.08077
v 87.62653 491.417 99.49101
v 81.43383 495.5474 42.42615
v 87.62653 491.417 99.49101
v 81.43383 495.5474 42.42615
v 42.6428 438.0501 109.7567
v 35.71624 464.9729 45.92974
v 1.516349 323.9341 119.8233
v -25.07804 297.1789 52.09801
v -60.83474 220.5119 119.794
v -80.74538 207.35 34.71347
v -25.07804 297.1789 52.09801
v -119.3792 56.90816 92.03607
v 123.5973 426.164 147.7667
v 66.55083 368.9539 159.6738
v 123.5973 426.164 147.7667
v 168.9658 322.3941 199.1445
v 168.0807 506.3956 114.2233
v 66.55083 368.9539 159.6738
v 66.55083 368.9539 159.6738
v 5.81548 282.8712 171.1543
v -52.6553 194.8205 163.2767
v -92.6393 51.38567 161.8622
v -135.5828 3.051758E-05 130.5625
v 108.4965 260.1256 223.9559
v 44.03579 256.4205 201.3047
v 190.3317 210.8972 240.5269
v 101.2086 193.1615 238.0798
v 41.8091 193.3732 211.6295
v 149.6337 53.05859 279.4703
v 68.22544 45.15781 264.8757
v 68.22544 45.15781 264.8757
v -4.124832 194.059 189.1676
v 7.44455 55.9797 234.6583
v -43.59048 78.71624 187.0368
v -38.32073 2.536758 214.7106
v -38.32073 2.536758 214.7106
v 226.2106 456.3586 137.1589
v 149.6337 53.05859 279.4703
v 242.7132 83.85616 264.3103
v 207.0717 5.145386 292.4795
v 136.804 366.6042 -153.2184
v 164.8623 440.3815 -95.83522
v 230.804 397.8537 -142.9877
v 230.1867 470.0303 -67.36603
v 230.804 397.8537 -142.9877
v 164.8623 440.3815 -95.83522
v 156.6159 486.8943 -31.46374
v 230.1867 470.0303 -67.36603
v 229.796 516.5991 -3.330144
v 156.6159 486.8943 -31.46374
v 160.71 533.0995 40.08077
v 229.796 516.5991 -3.330144
v 237.9011 515.1495 71.3568
v 160.71 533.0995 40.08077
v 168.0807 506.3956 114.2233
v 237.9011 515.1495 71.3568
v 226.2106 456.3586 137.1589
v 251.3583 318.3222 193.6368
v 256.5278 215.2455 232.9196
v 251.3583 318.3222 193.6368
v 242.7132 83.85616 264.3103
v 256.5278 215.2455 232.9196
v 263.4532 5.059845 286.0386

vn -0.5939581 0.6526596 -0.4703712
vn -0.4767411 0.7423572 -0.4707694
vn -0.4767411 0.7423572 -0.4707694
vn -0.3268189 0.8265547 -0.458254
vn -0.5980682 0.7967216 -0.08688506
vn -0.5980682 0.7967216 -0.08688506
vn -0.7539045 0.6569085 -0.0099608
vn -0.7972503 0.5965141 0.092535
vn -0.7543495 0.6534967 -0.06244085
vn -0.823602 0.5372767 0.181697
vn -0.878281 0.3633381 0.3108184
vn -0.8716519 0.3697696 0.3217039
vn -0.8977375 0.2986892 0.3238088
vn -0.8966871 0.2899837 0.3344576
vn -0.8879641 0.3190978 0.331204
vn -0.5828832 0.7112775 -0.3928503
vn -0.5812353 0.7130824 -0.3920193
vn -0.5812353 0.7130824 -0.3920193
vn -0.579509 0.7149633 -0.391148
vn -0.7453376 0.6614886 -0.08309418
vn -0.6712768 0.6662622 -0.32478
vn -0.8137548 0.575294 0.08270319
vn -0.8209128 0.5586389 -0.1184255
vn -0.7940869 0.4947229 0.353094
vn -0.8137738 0.493764 0.3065443
vn -0.9096906 0.3049651 0.281885
vn -0.9034633 0.296817 0.3092794
vn -0.5275365 0.7848164 -0.3252206
vn -0.551742 0.7637998 -0.3349484
vn -0.551742 0.7637998 -0.3349484
vn -0.5761058 0.7411804 -0.3446065
vn -0.6460921 0.706853 -0.2879653
vn -0.7803329 0.5577521 -0.2828307
vn -0.8689503 0.4911718 -0.06062625
vn -0.738416 0.4918421 0.4613386
vn -0.77056 0.486004 0.4123558
vn -0.8681744 0.3170263 0.3817951
vn -0.900983 0.3385877 0.2712711
vn -0.8401787 0.3421442 0.4207578
vn -0.8042416 0.3149784 0.5039683
vn -0.8042416 0.3149784 0.5039683
vn -0.02154829 0.7286986 0.6844956
vn -0.2169809 0.9144092 0.3417237
vn -0.08542292 0.7238861 0.6846107
vn -0.36013 0.8994206 0.2476871
vn -0.3472211 0.5920826 0.7272384
vn -0.5109647 0.7285248 0.4562528
vn -0.4846112 0.4982039 0.7189888
vn -0.7273456 0.4219131 0.5412558
vn -0.7351441 0.3999794 0.5473385
vn -0.7543099 0.5118178 0.411168
vn -0.7411272 0.3814794 0.5524526
vn -0.8047599 0.3830559 0.4534642
vn -0.7623066 0.5057325 0.4038853
vn -0.7611949 0.3125021 0.5682645
vn 0.07591243 0.4337164 0.8978459
vn -0.021285 0.4616439 0.8868099
vn 0.240792 0.4177299 0.8760828
vn 0.2984847 0.3970909 0.8678858
vn 0.2799448 0.4187501 0.8638746
vn 0.1091429 0.4135111 0.9039338
vn -0.1217058 0.4055737 0.9059236
vn -0.3496338 0.3757845 0.8582205
vn -0.3722501 0.2375064 0.8972294
vn -0.5771318 0.2711981 0.7703053
vn -0.6466447 0.4671347 0.6030225
vn 0.1435227 0.3414322 0.928884
vn -0.06138745 0.3112831 0.9483323
vn 0.349175 0.2672929 0.8981265
vn 0.126895 0.2386773 0.9627724
vn -0.08387217 0.2297086 0.9696388
vn 0.2018579 0.238603 0.9499063
vn 0.1432033 0.2162106 0.9657877
vn -0.07127613 0.2475851 0.9662408
vn -0.1200737 0.2391733 0.963524
vn -0.1833104 0.2182263 0.9585272
vn -0.2813334 0.168634 0.9446767
vn -0.3117174 0.234452 0.9207956
vn -0.2465982 0.2515186 0.9359102
vn 0.3495598 0.4045434 0.8450755
vn 0.3973436 0.2498352 0.8830066
vn 0.4025455 0.2575402 0.8784248
vn 0.39155 0.3060346 0.8677739
vn -0.3791747 0.6390607 -0.6691995
vn -0.3791747 0.6390607 -0.6691995
vn -0.3791747 0.6390607 -0.6691995
vn -0.2596421 0.7230111 -0.640188
vn -0.2596421 0.7230111 -0.640188
vn -0.2781757 0.7593232 -0.5882573
vn -0.2965316 0.8020101 -0.5185063
vn -0.2965316 0.8020101 -0.5185063
vn -0.29381 0.804292 -0.5165172
vn -0.3070902 0.8358802 -0.4549726
vn -0.0604941 0.954375 -0.2924188
vn -0.0604941 0.954375 -0.2924188
vn 0.2132227 0.973462 -0.08311346
vn 0.1917099 0.9401039 0.2818725
vn 0.3733122 0.8311247 0.4121527
vn 0.3733122 0.8311247 0.4121527
vn 0.5268866 0.6770136 0.5138512
vn 0.3866941 0.3899914 0.8356879
vn 0.3916032 0.3595233 0.8469888
vn 0.3903836 0.3584751 0.8479953
vn 0.4200524 0.2216249 0.8800218
vn 0.4200524 0.2216249 0.8800218
vn 0.4247221 0.2908137 0.8573439

vt 0.1454718 0.8192101
vt -0.005654395 0.7064142
vt 0.1083797 0.769934
vt -0.05114317 0.6986371
vt 0.1083797 0.769934
vt -0.05114317 0.6986371
vt 0.09469259 0.7256801
vt -0.08573055 0.5904997
vt -0.05114317 0.6986371
vt 0.06327301 0.6225094
vt -0.08344591 0.4751172
vt 0.1204134 0.5478705
vt 0.1199035 0.302723
vt -0.1105283 0.2839983
vt -0.02185655 0.2135648
vt 0.2834186 0.8951968
vt 0.1454718 0.8192101
vt 0.2359768 0.8411685
vt 0.1083797 0.769934
vt 0.2359768 0.8411685
vt 0.1083797 0.769934
vt 0.2297448 0.7275555
vt 0.2297448 0.7275555
vt 0.2297448 0.7275555
vt 0.1204134 0.5478705
vt 0.2589607 0.5195492
vt 0.1204134 0.5478705
vt 0.4496138 0.9723965
vt 0.2834186 0.8951968
vt 0.3874891 0.9196898
vt 0.2359768 0.8411685
vt 0.3874891 0.9196898
vt 0.2359768 0.8411685
vt 0.3579139 0.8774752
vt 0.3390077 0.6472538
vt 0.2589607 0.5195492
vt 0.24011 0.2609779
vt 0.2297448 0.7275555
vt 0.3390077 0.6472538
vt 0.3785863 0.3234143
vt 0.2589607 0.5195492
vt 0.6346046 0.9501647
vt 0.4496138 0.9723965
vt 0.5281673 0.9251141
vt 0.3874891 0.9196898
vt 0.5281673 0.9251141
vt 0.3874891 0.9196898
vt 0.518221 0.8529525
vt 0.3579139 0.8774752
vt 0.5193989 0.6975123
vt 0.3390077 0.6472538
vt 0.475924 0.5543577
vt 0.2589607 0.5195492
vt 0.3390077 0.6472538
vt 0.3785863 0.3234143
vt 0.6835276 0.8456379
vt 0.6669071 0.7682689
vt 0.6835276 0.8456379
vt 0.8599172 0.7141253
vt 0.6346046 0.9501647
vt 0.6669071 0.7682689
vt 0.6669071 0.7682689
vt 0.6497316 0.6511408
vt 0.5892807 0.5276427
vt 0.5683427 0.3298086
vt 0.4620663 0.2524236
vt 0.8712367 0.6322256
vt 0.7592984 0.6214497
vt 0.9917893 0.5695946
vt 0.9067219 0.5429415
vt 0.7899498 0.5369135
vt 1.0672 0.3597416
vt 0.9592737 0.3444053
vt 0.9592737 0.3444053
vt 0.6948494 0.5325825
vt 0.8309524 0.3521774
vt 0.6689721 0.3731516
vt 0.7491114 0.2740923
vt 0.7491114 0.2740923
vt 0.748542 0.887153
vt 1.0672 0.3597416
vt 1.112673 0.4010106
vt 1.156833 0.2977218
vt -0.005654395 0.7064142
vt 0.1454718 0.8192101
vt 0.1004281 0.7531989
vt 0.2684679 0.8667047
vt 0.1004281 0.7531989
vt 0.1454718 0.8192101
vt 0.2834186 0.8951968
vt 0.2684679 0.8667047
vt 0.4128139 0.9428675
vt 0.2834186 0.8951968
vt 0.4496138 0.9723965
vt 0.4128139 0.9428675
vt 0.59641 0.9553932
vt 0.4496138 0.9723965
vt 0.6346046 0.9501647
vt 0.59641 0.9553932
vt 0.748542 0.887153
vt 0.9229678 0.7092
vt 1.033937 0.5754772
vt 0.9229678 0.7092
vt 1.112673 0.4010106
vt 1.033937 0.5754772
vt 1.193325 0.2975426

usemtl sn14_09_sn14010.jpg
usemap sn14_09_sn14010.jpg
f 3/3/3 1/1/1 2/2/2
f 2/2/2 4/4/4 3/3/3
f 7/7/7 5/5/5 6/6/6
f 9/9/9 8/8/8 7/7/7
f 10/10/10 7/7/7 8/8/8
f 11/11/11 10/10/10 8/8/8
f 10/10/10 11/11/11 12/12/12
f 13/13/13 12/12/12 11/11/11
f 11/11/11 14/14/14 13/13/13
f 15/15/15 13/13/13 14/14/14
f 18/18/18 16/16/16 17/17/17
f 17/17/17 19/19/19 18/18/18
f 7/7/7 20/20/20 21/21/21
f 10/10/10 22/22/22 7/7/7
f 20/20/20 7/7/7 23/23/23
f 25/25/25 24/24/24 10/10/10
f 13/13/13 26/26/26 27/27/27
f 30/30/30 28/28/28 29/29/29
f 29/29/29 31/31/31 30/30/30
f 34/34/34 32/32/32 33/33/33
f 33/33/33 23/23/23 34/34/34
f 36/36/36 35/35/35 24/24/24
f 24/24/24 25/25/25 36/36/36
f 26/26/26 13/13/13 37/37/37
f 34/34/34 38/38/38 39/39/39
f 41/41/41 37/37/37 40/40/40
f 44/44/44 42/42/42 43/43/43
f 43/43/43 45/45/45 44/44/44
f 48/48/48 46/46/46 47/47/47
f 47/47/47 49/49/49 48/48/48
f 50/50/50 48/48/48 49/49/49
f 49/49/49 39/39/39 50/50/50
f 52/52/52 50/50/50 51/51/51
f 54/54/54 53/53/53 52/52/52
f 55/55/55 52/52/52 53/53/53
f 42/42/42 44/44/44 56/56/56
f 57/57/57 56/56/56 44/44/44
f 48/48/48 57/57/57 46/46/46
f 60/60/60 58/58/58 59/59/59
f 61/61/61 59/59/59 56/56/56
f 63/63/63 62/62/62 48/48/48
f 52/52/52 63/63/63 50/50/50
f 65/65/65 64/64/64 52/52/52
f 52/52/52 55/55/55 65/65/65
f 66/66/66 65/65/65 55/55/55
f 67/67/67 59/59/59 61/61/61
f 61/61/61 68/68/68 67/67/67
f 59/59/59 67/67/67 69/69/69
f 67/67/67 70/70/70 69/69/69
f 67/67/67 71/71/71 70/70/70
f 71/71/71 67/67/67 68/68/68
f 72/72/72 69/69/69 70/70/70
f 70/70/70 73/73/73 72/72/72
f 74/74/74 70/70/70 71/71/71
f 63/63/63 68/68/68 62/62/62
f 50/50/50 63/63/63 48/48/48
f 64/64/64 75/75/75 63/63/63
f 71/71/71 76/76/76 74/74/74
f 75/75/75 64/64/64 76/76/76
f 76/76/76 77/77/77 78/78/78
f 71/71/71 75/75/75 76/76/76
f 75/75/75 71/71/71 63/63/63
f 68/68/68 63/63/63 71/71/71
f 64/64/64 77/77/77 76/76/76
f 65/65/65 77/77/77 64/64/64
f 77/77/77 65/65/65 79/79/79
f 64/64/64 63/63/63 52/52/52
f 60/60/60 59/59/59 80/80/80
f 82/82/82 69/69/69 81/81/81
f 81/81/81 83/83/83 82/82/82
f 86/86/86 84/84/84 85/85/85
f 89/89/89 87/87/87 88/88/88
f 91/91/91 89/89/89 90/90/90
f 90/90/90 92/92/92 91/91/91
f 95/95/95 93/93/93 94/94/94
f 94/94/94 96/96/96 95/95/95
f 99/99/99 97/97/97 98/98/98
f 98/98/98 100/100/100 99/99/99
f 101/101/101 80/80/80 59/59/59
f 59/59/59 102/102/102 103/103/103
f 102/102/102 59/59/59 69/69/69
f 69/69/69 104/104/104 105/105/105
f 106/106/106 82/82/82 83/83/83
