mtllib ./Item08.mtl
g 0
v 4.96418 -5.748817 2.586758
v 2.941316 -5.748399 2.586758
v 2.564901 -2.584018 2.175408
v 4.681228 -2.584018 2.175408
v 2.941316 -5.748399 2.586758
v 2.941316 -5.748398 4.773098
v 2.564901 -2.584018 4.501678
v 2.564901 -2.584018 2.175408
v 2.941316 -5.748398 4.773098
v 4.96418 -5.748817 4.773098
v 4.681228 -2.584018 4.501678
v 2.564901 -2.584018 4.501678
v 4.96418 -5.748817 4.773098
v 4.96418 -5.748817 2.586758
v 4.681228 -2.584018 2.175408
v 4.681228 -2.584018 4.501678
v -3.010607 -5.748817 2.586758
v -5.03347 -5.748399 2.586758
v -4.750518 -2.584018 2.175408
v -2.634192 -2.584018 2.175408
v -5.03347 -5.748399 2.586758
v -5.03347 -5.748399 4.773098
v -4.750518 -2.584018 4.501678
v -4.750518 -2.584018 2.175408
v -5.03347 -5.748399 4.773098
v -3.010607 -5.748817 4.773098
v -2.634192 -2.584018 4.501678
v -4.750518 -2.584018 4.501678
v -3.010607 -5.748817 4.773098
v -3.010607 -5.748817 2.586758
v -2.634192 -2.584018 2.175408
v -2.634192 -2.584018 4.501678
v 4.964179 -5.748818 -4.817048
v 2.941315 -5.748399 -4.817048
v 2.5649 -2.584018 -4.545629
v 4.681227 -2.584018 -4.545629
v 2.941315 -5.748399 -4.817048
v 2.941315 -5.748399 -2.63071
v 2.5649 -2.584018 -2.21936
v 2.5649 -2.584018 -4.545629
v 2.941315 -5.748399 -2.63071
v 4.964179 -5.748817 -2.63071
v 4.681227 -2.584018 -2.21936
v 2.5649 -2.584018 -2.21936
v 4.964179 -5.748817 -2.63071
v 4.964179 -5.748818 -4.817048
v 4.681227 -2.584018 -4.545629
v 4.681227 -2.584018 -2.21936
v -3.010607 -5.748817 -4.817048
v -5.033471 -5.748399 -4.817048
v -4.750519 -2.584018 -4.545629
v -2.634192 -2.584018 -4.545629
v -5.033471 -5.748399 -4.817048
v -5.033471 -5.748399 -2.63071
v -4.750519 -2.584018 -2.21936
v -4.750519 -2.584018 -4.545629
v -5.033471 -5.748399 -2.63071
v -3.010607 -5.748817 -2.63071
v -2.634192 -2.584018 -2.21936
v -4.750519 -2.584018 -2.21936
v -3.010607 -5.748817 -2.63071
v -3.010607 -5.748817 -4.817048
v -2.634192 -2.584018 -4.545629
v -2.634192 -2.584018 -2.21936
v 5.828565 -2.139912 -5.235102
v -5.919941 -2.139912 -5.179015
v -7.206935 5.749636 -5.948968
v 7.101924 5.749636 -6.0274
v -5.919941 -2.139912 -5.179015
v -5.829051 -2.139911 5.235986
v -7.102412 5.749636 6.028282
v -7.206935 5.749636 -5.948968
v -5.829051 -2.139911 5.235986
v 5.919455 -2.139911 5.179898
v 7.206448 5.749636 5.94985
v -7.102412 5.749636 6.028282
v 5.919455 -2.139911 5.179898
v 5.828565 -2.139912 -5.235102
v 7.101924 5.749636 -6.0274
v 7.206448 5.749636 5.94985
v 4.632827 -2.632564 -4.491103
v -4.711401 -2.632564 -4.455995
v -5.919941 -2.139912 -5.179015
v 5.828565 -2.139912 -5.235102
v -5.22207 5.020598 -4.171138
v 5.158507 5.020598 -4.232116
v 7.101924 5.749636 -6.0274
v -7.206935 5.749636 -5.948968
v -4.711401 -2.632564 -4.455995
v -4.633314 -2.632564 4.491986
v -5.829051 -2.139911 5.235986
v -5.919941 -2.139912 -5.179015
v -5.158995 5.020598 4.232998
v -5.22207 5.020598 -4.171138
v -7.206935 5.749636 -5.948968
v -7.102412 5.749636 6.028282
v -4.633314 -2.632564 4.491986
v 4.710914 -2.632564 4.456879
v 5.919455 -2.139911 5.179898
v -5.829051 -2.139911 5.235986
v 5.221582 5.020598 4.17202
v -5.158995 5.020598 4.232998
v -7.102412 5.749636 6.028282
v 7.206448 5.749636 5.94985
v 4.710914 -2.632564 4.456879
v 4.632827 -2.632564 -4.491103
v 5.828565 -2.139912 -5.235102
v 5.919455 -2.139911 5.179898
v 5.158507 5.020598 -4.232116
v 5.221582 5.020598 4.17202
v 7.206448 5.749636 5.94985
v 7.101924 5.749636 -6.0274
v -4.711401 -2.632564 -4.455995
v 4.632827 -2.632564 -4.491103
v -5.22207 5.020598 -4.171138
v 5.158507 5.020598 -4.232116
v -4.633314 -2.632564 4.491986
v -4.711401 -2.632564 -4.455995
v -5.158995 5.020598 4.232998
v -5.22207 5.020598 -4.171138
v 4.710914 -2.632564 4.456879
v -4.633314 -2.632564 4.491986
v 5.221582 5.020598 4.17202
v -5.158995 5.020598 4.232998
v 4.632827 -2.632564 -4.491103
v 4.710914 -2.632564 4.456879
v 5.158507 5.020598 -4.232116
v 5.221582 5.020598 4.17202

vn -1.315219E-05 -0.1289022 -0.9916574
vn -2.679728E-05 -0.1289124 -0.9916561
vn -1.315219E-05 -0.1289022 -0.9916574
vn -1.117171E-07 -0.1288924 -0.9916586
vn -0.9929993 -0.1181208 1.248155E-08
vn -0.9929993 -0.1181208 2.576196E-08
vn -0.9929993 -0.1181208 1.248155E-08
vn -0.9929993 -0.1181208 0
vn 8.653254E-06 0.08545469 0.9963421
vn 1.770529E-05 0.08544974 0.9963425
vn 8.653254E-06 0.08545469 0.9963421
vn 0 0.0854594 0.9963416
vn 0.9960271 0.08905086 0
vn 0.9960271 0.08905086 0
vn 0.9960271 0.08905086 0
vn 0.9960271 0.08905086 0
vn -1.298057E-05 -0.1288995 -0.9916577
vn -2.667929E-05 -0.1289069 -0.9916567
vn -1.298057E-05 -0.1288995 -0.9916577
vn 1.117171E-07 -0.1288925 -0.9916586
vn -0.996026 0.08906255 0
vn -0.996026 0.08906255 0
vn -0.996026 0.08906255 0
vn -0.996026 0.08906255 0
vn 8.643231E-06 0.08545289 0.9963422
vn 1.768439E-05 0.08544607 0.9963427
vn 8.643231E-06 0.08545289 0.9963422
vn 0 0.0854594 0.9963416
vn 0.9930011 -0.1181054 0
vn 0.993001 -0.1181053 0
vn 0.9930011 -0.1181054 0
vn 0.9930012 -0.1181054 0
vn 8.653238E-06 0.08545453 -0.9963421
vn 1.770769E-05 0.08546135 -0.9963416
vn 8.653238E-06 0.08545453 -0.9963421
vn 0 0.085448 -0.9963426
vn -0.9929993 -0.1181208 0
vn -0.9929993 -0.1181208 0
vn -0.9929993 -0.1181208 0
vn -0.9929992 -0.1181208 0
vn -1.303796E-05 -0.1289022 0.9916573
vn -2.667679E-05 -0.1288949 0.9916583
vn -1.303796E-05 -0.1289022 0.9916573
vn 0 -0.1289093 0.9916564
vn 0.9960272 0.08905073 -9.409792E-09
vn 0.9960271 0.0890507 -1.942183E-08
vn 0.9960272 0.08905073 -9.409792E-09
vn 0.9960271 0.08905073 0
vn 8.643213E-06 0.08545274 -0.9963422
vn 1.768679E-05 0.08545768 -0.9963418
vn 8.643213E-06 0.08545274 -0.9963422
vn 0 0.08544803 -0.9963427
vn -0.996026 0.08906256 0
vn -0.996026 0.08906256 0
vn -0.996026 0.08906256 0
vn -0.9960261 0.08906256 0
vn -1.303769E-05 -0.1288996 0.9916577
vn -2.667565E-05 -0.1288894 0.9916589
vn -1.303769E-05 -0.1288996 0.9916577
vn 0 -0.1289093 0.9916564
vn 0.9930011 -0.1181054 0
vn 0.9930012 -0.1181054 0
vn 0.9930011 -0.1181054 0
vn 0.9930011 -0.1181054 0
vn -0.005137215 -0.098529 -0.9951209
vn -0.004751025 -0.09789675 -0.9951852
vn -0.005137215 -0.098529 -0.9951209
vn -0.005454263 -0.09904803 -0.9950677
vn -0.9870512 -0.1601736 0.008613802
vn -0.9870513 -0.1601736 0.008613838
vn -0.9870512 -0.1601736 0.008613802
vn -0.9870513 -0.1601735 0.00861377
vn 0.005137288 -0.09852879 0.9951209
vn 0.004751105 -0.09789653 0.9951852
vn 0.005137288 -0.09852879 0.9951209
vn 0.00545433 -0.09904781 0.9950678
vn 0.9870514 -0.1601734 -0.008613836
vn 0.9870512 -0.1601734 -0.008613863
vn 0.9870514 -0.1601734 -0.008613836
vn 0.9870513 -0.1601734 -0.00861381
vn -0.00241053 -0.8301483 -0.5575374
vn -0.002106563 -0.8280284 -0.5606821
vn -0.00241053 -0.8301483 -0.5575374
vn -0.002649841 -0.831809 -0.5550556
vn 0.00213325 0.9258847 0.3778
vn 0.002222277 0.9256766 0.3783093
vn 0.00213325 0.9258847 0.3778
vn 0.002068814 0.9260352 0.3774314
vn -0.3791786 -0.9253176 0.003309071
vn -0.3791787 -0.9253175 0.00330905
vn -0.3791786 -0.9253176 0.003309071
vn -0.3791784 -0.9253176 0.003309089
vn 0.3479642 0.9375035 -0.002861338
vn 0.3468299 0.9379245 -0.002603042
vn 0.3479642 0.9375035 -0.002861338
vn 0.3487643 0.9372055 -0.003043585
vn 0.002410532 -0.8301482 0.5575376
vn 0.002106509 -0.8280279 0.5606828
vn 0.002410532 -0.8301482 0.5575376
vn 0.002649885 -0.8318092 0.5550553
vn -0.002133265 0.9258847 -0.3778001
vn -0.002222277 0.9256766 -0.3783093
vn -0.002133265 0.9258847 -0.3778001
vn -0.00206884 0.9260352 -0.3774315
vn 0.3791783 -0.9253177 -0.003308954
vn 0.3791785 -0.9253176 -0.003308929
vn 0.3791783 -0.9253177 -0.003308954
vn 0.3791782 -0.9253178 -0.003308977
vn -0.3479643 0.9375035 0.002861346
vn -0.3468299 0.9379245 0.002603042
vn -0.3479643 0.9375035 0.002861346
vn -0.3487643 0.9372056 0.0030436
vn 0.003754553 -0.0369446 0.9993103
vn 0.004868175 -0.03551257 0.9993573
vn 0.004868175 -0.03551257 0.9993573
vn 0.005870692 -0.03422329 0.9993969
vn 0.9976316 0.06823071 -0.008706091
vn 0.997682 0.06756403 -0.008116284
vn 0.997682 0.06756403 -0.008116284
vn 0.9977346 0.06685406 -0.007488238
vn -0.003754451 -0.03694486 -0.9993103
vn -0.004868126 -0.03551275 -0.9993573
vn -0.004868126 -0.03551275 -0.9993573
vn -0.005870691 -0.03422341 -0.9993969
vn -0.9976315 0.06823067 0.00870603
vn -0.997682 0.067564 0.008116254
vn -0.997682 0.067564 0.008116254
vn -0.9977346 0.06685407 0.007488238

vt 0.07122605 0.1355732
vt 0.1452873 0.1355732
vt 0.1452873 0.4107662
vt 0.07122605 0.4107662
vt 0.07122605 0.1355732
vt 0.1452873 0.1355732
vt 0.1452873 0.4107662
vt 0.07122605 0.4107662
vt 0.07122605 0.1355732
vt 0.1452873 0.1355732
vt 0.1452873 0.4107662
vt 0.07122605 0.4107662
vt 0.07122605 0.1355732
vt 0.1452873 0.1355732
vt 0.1452873 0.4107662
vt 0.07122605 0.4107662
vt 0.07122605 0.1355732
vt 0.1452873 0.1355732
vt 0.1452873 0.4107662
vt 0.07122605 0.4107662
vt 0.07122605 0.1355732
vt 0.1452873 0.1355732
vt 0.1452873 0.4107662
vt 0.07122605 0.4107662
vt 0.07122605 0.1355732
vt 0.1452873 0.1355732
vt 0.1452873 0.4107662
vt 0.07122605 0.4107662
vt 0.07122605 0.1355732
vt 0.1452873 0.1355732
vt 0.1452873 0.4107662
vt 0.07122605 0.4107662
vt 0.07122605 0.1355732
vt 0.1452873 0.1355732
vt 0.1452873 0.4107662
vt 0.07122605 0.4107662
vt 0.07122605 0.1355732
vt 0.1452873 0.1355732
vt 0.1452873 0.4107662
vt 0.07122605 0.4107662
vt 0.07122605 0.1355732
vt 0.1452873 0.1355732
vt 0.1452873 0.4107662
vt 0.07122605 0.4107662
vt 0.07122605 0.1355732
vt 0.1452873 0.1355732
vt 0.1452873 0.4107662
vt 0.07122605 0.4107662
vt 0.07122605 0.1355732
vt 0.1452873 0.1355732
vt 0.1452873 0.4107662
vt 0.07122605 0.4107662
vt 0.07122605 0.1355732
vt 0.1452873 0.1355732
vt 0.1452873 0.4107662
vt 0.07122605 0.4107662
vt 0.07122605 0.1355732
vt 0.1452873 0.1355732
vt 0.1452873 0.4107662
vt 0.07122605 0.4107662
vt 0.07122605 0.1355732
vt 0.1452873 0.1355732
vt 0.1452873 0.4107662
vt 0.07122605 0.4107662
vt 0.05839892 0.4072569
vt 0.5637865 0.4072569
vt 0.5831239 0.7946315
vt 0.0370594 0.7946315
vt 0.05839895 0.4072569
vt 0.5637865 0.4072569
vt 0.5831238 0.7946315
vt 0.03705937 0.7946315
vt 0.05839892 0.4072569
vt 0.5637865 0.4072569
vt 0.5831239 0.7946315
vt 0.0370594 0.7946315
vt 0.05839892 0.4072569
vt 0.5637864 0.4072569
vt 0.5831239 0.7946315
vt 0.03705942 0.7946315
vt 0.05613181 0.4367293
vt 0.5751221 0.4367293
vt 0.5751221 0.4367293
vt 0.05613181 0.4367293
vt 0.1614987 0.3908046
vt 0.4630224 0.3908046
vt 0.4750958 0.4252874
vt 0.1494253 0.4252874
vt 0.05613184 0.4367293
vt 0.5751221 0.4367294
vt 0.5751221 0.4367294
vt 0.05613184 0.4367293
vt 0.1614987 0.3908046
vt 0.4630224 0.3908046
vt 0.4750958 0.4252874
vt 0.1494253 0.4252874
vt 0.05613181 0.4367294
vt 0.5751221 0.4367294
vt 0.5751221 0.4367294
vt 0.05613181 0.4367294
vt 0.1614987 0.3908046
vt 0.4630224 0.3908046
vt 0.4750958 0.4252874
vt 0.1494253 0.4252874
vt 0.05613181 0.4367294
vt 0.575122 0.4367293
vt 0.575122 0.4367293
vt 0.05613181 0.4367294
vt 0.1614987 0.3908046
vt 0.4630224 0.3908046
vt 0.4750958 0.4252874
vt 0.1494253 0.4252874
vt 0.5637865 0.4072569
vt 0.05839892 0.4072569
vt 0.5831239 0.7946315
vt 0.0370594 0.7946315
vt 0.5637865 0.4072569
vt 0.05839895 0.4072569
vt 0.5831238 0.7946315
vt 0.03705937 0.7946315
vt 0.5637865 0.4072569
vt 0.05839892 0.4072569
vt 0.5831239 0.7946315
vt 0.0370594 0.7946315
vt 0.5637864 0.4072569
vt 0.05839892 0.4072569
vt 0.5831239 0.7946315
vt 0.03705942 0.7946315

usemtl Item08_00_Item08.JPG
usemap Item08_00_Item08.JPG
f 3/3/3 1/1/1 2/2/2
f 1/1/1 3/3/3 4/4/4
f 7/7/7 5/5/5 6/6/6
f 5/5/5 7/7/7 8/8/8
f 11/11/11 9/9/9 10/10/10
f 9/9/9 11/11/11 12/12/12
f 15/15/15 13/13/13 14/14/14
f 13/13/13 15/15/15 16/16/16
f 19/19/19 17/17/17 18/18/18
f 17/17/17 19/19/19 20/20/20
f 23/23/23 21/21/21 22/22/22
f 21/21/21 23/23/23 24/24/24
f 27/27/27 25/25/25 26/26/26
f 25/25/25 27/27/27 28/28/28
f 31/31/31 29/29/29 30/30/30
f 29/29/29 31/31/31 32/32/32
f 35/35/35 33/33/33 34/34/34
f 33/33/33 35/35/35 36/36/36
f 39/39/39 37/37/37 38/38/38
f 37/37/37 39/39/39 40/40/40
f 43/43/43 41/41/41 42/42/42
f 41/41/41 43/43/43 44/44/44
f 47/47/47 45/45/45 46/46/46
f 45/45/45 47/47/47 48/48/48
f 51/51/51 49/49/49 50/50/50
f 49/49/49 51/51/51 52/52/52
f 55/55/55 53/53/53 54/54/54
f 53/53/53 55/55/55 56/56/56
f 59/59/59 57/57/57 58/58/58
f 57/57/57 59/59/59 60/60/60
f 63/63/63 61/61/61 62/62/62
f 61/61/61 63/63/63 64/64/64
f 67/67/67 65/65/65 66/66/66
f 65/65/65 67/67/67 68/68/68
f 71/71/71 69/69/69 70/70/70
f 69/69/69 71/71/71 72/72/72
f 75/75/75 73/73/73 74/74/74
f 73/73/73 75/75/75 76/76/76
f 79/79/79 77/77/77 78/78/78
f 77/77/77 79/79/79 80/80/80
f 83/83/83 81/81/81 82/82/82
f 81/81/81 83/83/83 84/84/84
f 87/87/87 85/85/85 86/86/86
f 85/85/85 87/87/87 88/88/88
f 91/91/91 89/89/89 90/90/90
f 89/89/89 91/91/91 92/92/92
f 95/95/95 93/93/93 94/94/94
f 93/93/93 95/95/95 96/96/96
f 99/99/99 97/97/97 98/98/98
f 97/97/97 99/99/99 100/100/100
f 103/103/103 101/101/101 102/102/102
f 101/101/101 103/103/103 104/104/104
f 107/107/107 105/105/105 106/106/106
f 105/105/105 107/107/107 108/108/108
f 111/111/111 109/109/109 110/110/110
f 109/109/109 111/111/111 112/112/112
f 115/115/115 113/113/113 114/114/114
f 114/114/114 116/116/116 115/115/115
f 119/119/119 117/117/117 118/118/118
f 118/118/118 120/120/120 119/119/119
f 123/123/123 121/121/121 122/122/122
f 122/122/122 124/124/124 123/123/123
f 127/127/127 125/125/125 126/126/126
f 126/126/126 128/128/128 127/127/127
