mtllib ./Box03.mtl
g Box03
v 80 0.000213623 -5.000069
v 80 0.000213623 4.999931
v 0 0.000213623 4.999931
v 0 0.000213623 -5.000069
v -80 0.000213623 4.999931
v -80 0.000213623 -5.000069
v 80 3.000214 -5.000069
v 0 3.000214 -5.000069
v 0 3.000214 4.999931
v 80 3.000214 4.999931
v -80 3.000214 -5.000069
v -80 3.000214 4.999931
v 80 0.000213623 -5.000069
v 0 3.000214 -5.000069
v 80 3.000214 -5.000069
v -80 0.000213623 -5.000069
v -80 3.000214 -5.000069
v -80 0.000213623 4.999931
v -80 3.000214 -5.000069
v -80 0.000213623 4.999931
v 0 0.000213623 4.999931
v -80 3.000214 4.999931
v 80 0.000213623 4.999931
v 80 3.000214 4.999931
v 80 0.000213623 4.999931
v 80 3.000214 -5.000069

vn 0.0187467 -0.9998242 0
vn 0 -1 0
vn 0 -1 0
vn 0 -0.9578263 -0.2873479
vn 0 -1 0
vn -0.07478995 -0.9971993 0
vn 0 1 0
vn 0 1 0
vn 0 0.9578263 0.2873479
vn 0.03747366 0.9992976 0
vn 0 1 0
vn -0.03747366 0.9992976 0
vn 0 0 -1
vn 0 0 -1
vn 0 0 -1
vn 0 0 -1
vn 0 0 -1
vn -1 0 0
vn -1 0 0
vn 0 0 1
vn 0 0 1
vn 0 0 1
vn 0 0 1
vn 0 0 1
vn 1 0 0
vn 1 0 0

vt 0.9995005 0.2619526
vt 0.9995005 0.6168919
vt 0.5 0.61689
vt 0.5 0.2619507
vt 0.0004995167 0.616888
vt 0.0004995167 0.2619488
vt 0.0004995167 0.2619526
vt 0.5 0.2619507
vt 0.5 0.61689
vt 0.0004995167 0.6168919
vt 0.9995005 0.2619488
vt 0.9995005 0.616888
vt 0.0004995167 0.2619488
vt 0.5 0.6168917
vt 0.0004995167 0.6168917
vt 0.9995005 0.2619488
vt 0.9995005 0.6168917
vt 0.9994967 0.2619488
vt 0.0004995167 0.6168917
vt 0.0004995167 0.2619488
vt 0.5 0.2619488
vt 0.0004995167 0.6168917
vt 0.9995005 0.2619488
vt 0.9995005 0.6168917
vt 0.0004995167 0.2619488
vt 0.9994967 0.6168917

usemtl sn05_05_1Rwd01.jpg
usemap sn05_05_1Rwd01.jpg
f 3/3/3 1/1/1 2/2/2
f 1/1/1 3/3/3 4/4/4
f 5/5/5 4/4/4 3/3/3
f 4/4/4 5/5/5 6/6/6
f 9/9/9 7/7/7 8/8/8
f 7/7/7 9/9/9 10/10/10
f 12/12/12 8/8/8 11/11/11
f 8/8/8 12/12/12 9/9/9
f 14/14/14 13/13/13 4/4/4
f 13/13/13 14/14/14 15/15/15
f 17/17/17 4/4/4 16/16/16
f 4/4/4 17/17/17 14/14/14
f 12/12/12 6/6/6 18/18/18
f 6/6/6 12/12/12 19/19/19
f 9/9/9 20/20/20 21/21/21
f 20/20/20 9/9/9 22/22/22
f 24/24/24 21/21/21 23/23/23
f 21/21/21 24/24/24 9/9/9
f 26/26/26 25/25/25 1/1/1
f 25/25/25 26/26/26 10/10/10
