mtllib ./Box02.mtl
g Box02
v 137.5956 -5.000462 0.0002746582
v 137.5956 8.054203 0.0002746582
v -137.5956 8.054203 0.0002746582
v -137.5956 -5.000462 0.0002746582
v 137.5956 -5.000462 -1.999725
v -137.5956 -5.000462 -1.999725
v -137.5956 8.054203 -1.999725
v 137.5956 8.054203 -1.999725
v 137.5956 -5.000462 0.0002746582
v -137.5956 -5.000462 0.0002746582
v -137.5956 -5.000462 -1.999725
v 137.5956 -5.000462 -1.999725

vn 0 0 1
vn 0 0 1
vn 0 0 1
vn 0 0 1
vn 0 0 -1
vn 0 0 -1
vn 0 0 -1
vn 0 0 -1
vn 0 -1 0
vn 0 -1 0
vn 0 -1 0
vn 0 -1 0

vt 5.760167 0.5744223
vt 5.760167 0.9995005
vt 0.02459931 0.999494
vt 0.02459931 0.5744098
vt 0.02459931 0.5744223
vt 5.760167 0.5744098
vt 5.760167 0.999494
vt 0.02459931 0.9995005
vt 0.02459931 0.5744098
vt 5.760167 0.5744098
vt 5.760167 0.9995005
vt 0.02459931 0.9995005

usemtl sn05_06_sn05zc.jpg
usemap sn05_06_sn05zc.jpg
f 3/3/3 1/1/1 2/2/2
f 1/1/1 3/3/3 4/4/4
f 7/7/7 5/5/5 6/6/6
f 5/5/5 7/7/7 8/8/8
f 11/11/11 9/9/9 10/10/10
f 9/9/9 11/11/11 12/12/12
