mtllib ./Box112.mtl
g Box112
v -48.80054 -27.47658 103.3344
v -15.29681 -27.47658 103.3344
v -5.376343 -4.786545 69.49728
v -19.03906 -4.786545 69.49728
v 18.20685 -27.47658 103.3344
v 8.286377 -4.786545 69.49728
v 51.97662 -27.47658 103.3344
v 22.21515 -4.786545 69.49728
v -19.03906 -4.786545 69.49728
v -5.376343 -4.786545 69.49728
v -2.295776 6.558487 68.72592
v -9.797424 6.558487 68.72592
v 8.286377 -4.786545 69.49728
v 5.205811 6.558487 68.72592
v 22.21515 -4.786545 69.49728
v 12.97345 6.558487 68.72592
v 51.71057 -27.47659 -0.432663
v 22.21515 -4.786545 -0.4326782
v 22.21515 -4.786545 34.53232
v 51.97662 -27.47659 51.45087
v 22.21515 -4.786545 -0.4326782
v 12.97345 6.558472 -1.204025
v 12.97345 6.558472 33.76096
v 22.21515 -4.786545 34.53232
v 22.21515 -4.786545 69.49728
v 51.97662 -27.47658 103.3344
v 12.97345 6.558487 68.72592
v 22.21515 -4.786545 69.49728
v -48.80054 -31.94514 103.3344
v -15.29681 -31.94514 103.3344
v -15.29681 -27.47658 103.3344
v -48.80054 -27.47658 103.3344
v 18.20685 -31.94514 103.3344
v 18.20685 -27.47658 103.3344
v 51.71057 -31.94514 103.3344
v 51.97662 -27.47658 103.3344
v 51.71057 -31.94514 51.45087
v 51.71057 -31.94516 -0.432663
v 51.71057 -27.47659 -0.432663
v 51.97662 -27.47659 51.45087
v 51.71057 -31.94514 103.3344
v 51.97662 -27.47658 103.3344
v -15.29681 -31.96301 103.3344
v -48.80054 -31.96301 103.3344
v -9.638916 -20.61798 83.93079
v -31.82678 -20.61798 83.93076
v 18.20685 -31.96301 103.3344
v 12.54895 -20.61798 83.93079
v 51.71057 -31.96301 103.3344
v 34.73682 -20.61798 83.93079
v 34.73682 -20.618 -0.432663
v 51.71057 -31.96301 -0.432663
v 34.73682 -20.618 41.74905
v 51.71057 -31.96301 51.45087
v 34.73682 -20.61798 83.93079
v 51.71057 -31.96301 103.3344

vn 0 0.8305522 0.5569407
vn 0 0.8305522 0.5569407
vn 0 0.8305523 0.5569407
vn 0 0.8305522 0.5569407
vn -2.093106E-07 0.8305522 0.5569407
vn 0 0.8305523 0.5569407
vn -5.033045E-07 0.8305522 0.5569407
vn -3.563312E-07 0.8305522 0.5569407
vn 0 0.06783459 0.9976966
vn 0 0.06783459 0.9976966
vn 0 0.06783459 0.9976966
vn 0 0.06783459 0.9976966
vn 0 0.06783459 0.9976966
vn 0 0.06783459 0.9976966
vn 0 0.06783459 0.9976966
vn 0 0.06783459 0.9976966
vn 0.6083422 0.7936726 -0.0018636
vn 0.609732 0.7926076 0
vn 0.6077526 0.7941254 -0.00132739
vn 0.6067084 0.7949236 -0.001163605
vn 0.7753149 0.6315749 0
vn 0.7753149 0.6315749 0
vn 0.775315 0.6315749 -9.444134E-08
vn 0.775315 0.6315747 -9.444133E-08
vn 0.6062906 0.7952431 -1.502288E-07
vn 0.6062906 0.7952431 -2.514698E-07
vn 0.7753152 0.6315746 -1.41662E-07
vn 0.7753153 0.6315743 0
vn 0 0 1
vn 0 0 1
vn 0 0 0.9999999
vn 0 0 1
vn -3.028224E-07 -2.270454E-06 1
vn -3.028226E-07 0 1
vn 0 -6.829388E-06 1
vn -4.536345E-07 -3.40119E-06 1
vn 0.9992117 -0.0396612 -0.001707942
vn 1 0 0
vn 0.9995539 -0.02975607 -0.002562789
vn 0.9982308 -0.05943341 -0.00170626
vn 0.9982322 -0.05943346 8.7396E-09
vn 0.9982322 -0.05943336 1.747916E-08
vn 0 -0.8632697 -0.5047427
vn 2.76586E-07 -0.86327 -0.5047423
vn 1.977866E-07 -0.86327 -0.5047424
vn 6.942306E-07 -0.8632705 -0.5047417
vn 1.726944E-07 -0.8632699 -0.5047426
vn 0 -0.8632698 -0.5047427
vn 4.597554E-07 -0.86327 -0.5047424
vn 2.765861E-07 -0.86327 -0.5047426
vn -0.5556893 -0.8313901 0
vn -0.5556893 -0.8313901 0
vn -0.5556893 -0.8313901 9.311037E-08
vn -0.5556895 -0.8313898 8.692091E-08
vn -0.5556896 -0.8313898 1.348638E-07
vn -0.5556898 -0.8313897 0

vt 0.0982139 0.2043348
vt 0.3660713 0.2043347
vt 0.4452504 0.7785028
vt 0.335751 0.7785031
vt 0.6339287 0.2043346
vt 0.5547498 0.7785028
vt 0.901786 0.2043344
vt 0.6642491 0.7785027
vt 0.3361529 0.7783003
vt 0.4453844 0.7783003
vt 0.470013 0.9149131
vt 0.4100386 0.9149131
vt 0.5546159 0.7783002
vt 0.5299873 0.9149131
vt 0.6638473 0.7783002
vt 0.5899616 0.9149131
vt 0.5029559 0.1912138
vt 0.5005521 0.6607015
vt 0.2758661 0.6607018
vt 0.168171 0.1912139
vt 0.5029561 0.6598023
vt 0.5079334 0.8678828
vt 0.2823176 0.867883
vt 0.2773402 0.6598023
vt 0.05118013 0.6607019
vt -0.1666139 0.1912142
vt 0.0567017 0.8678833
vt 0.05172452 0.6598025
vt -0.05279049 0.1168617
vt 0.2963484 0.1168618
vt 0.2963484 0.01482889
vt -0.05279049 0.01482883
vt 0.6454874 0.1168618
vt 0.6454874 0.01482895
vt 0.9946263 0.1168619
vt 0.9946263 0.01482895
vt 0.06258472 0.1013963
vt 0.499952 0.1018322
vt 0.500048 0.02329464
vt 0.06268062 0.02285869
vt -0.3747825 0.1009603
vt -0.3746867 0.02242269
vt 0.3660713 0.2043347
vt 0.0982139 0.2043348
vt 0.4113055 0.5144593
vt 0.2339165 0.5144595
vt 0.6339287 0.2043346
vt 0.5886946 0.5144593
vt 0.901786 0.2043344
vt 0.7660835 0.5144592
vt 0.502956 0.4352373
vt 0.5029559 0.1912138
vt 0.2307733 0.4352375
vt 0.168171 0.1912139
vt -0.04140953 0.4352377
vt -0.1666139 0.1912142

usemtl sn05_08_sn05roof.jpg
usemap sn05_08_sn05roof.jpg
f 3/3/3 1/1/1 2/2/2
f 1/1/1 3/3/3 4/4/4
f 6/6/6 2/2/2 5/5/5
f 2/2/2 6/6/6 3/3/3
f 8/8/8 5/5/5 7/7/7
f 5/5/5 8/8/8 6/6/6
f 11/11/11 9/9/9 10/10/10
f 9/9/9 11/11/11 12/12/12
f 14/14/14 10/10/10 13/13/13
f 10/10/10 14/14/14 11/11/11
f 16/16/16 13/13/13 15/15/15
f 13/13/13 16/16/16 14/14/14
f 19/19/19 17/17/17 18/18/18
f 17/17/17 19/19/19 20/20/20
f 23/23/23 21/21/21 22/22/22
f 21/21/21 23/23/23 24/24/24
f 25/25/25 20/20/20 19/19/19
f 20/20/20 25/25/25 26/26/26
f 27/27/27 24/24/24 23/23/23
f 24/24/24 27/27/27 28/28/28
f 45/45/45 43/43/43 44/44/44
f 44/44/44 46/46/46 45/45/45
f 48/48/48 47/47/47 43/43/43
f 43/43/43 45/45/45 48/48/48
f 50/50/50 49/49/49 47/47/47
f 47/47/47 48/48/48 50/50/50
f 53/53/53 51/51/51 52/52/52
f 52/52/52 54/54/54 53/53/53
f 55/55/55 53/53/53 54/54/54
f 54/54/54 56/56/56 55/55/55

usemtl sn05_10_kmn05r2.bmp
usemap sn05_10_kmn05r2.bmp
f 31/31/31 29/29/29 30/30/30
f 29/29/29 31/31/31 32/32/32
f 34/34/34 30/30/30 33/33/33
f 30/30/30 34/34/34 31/31/31
f 36/36/36 33/33/33 35/35/35
f 33/33/33 36/36/36 34/34/34
f 39/39/39 37/37/37 38/38/38
f 37/37/37 39/39/39 40/40/40
f 40/40/40 41/41/41 37/37/37
f 41/41/41 40/40/40 42/42/42
