mtllib ./Box188.mtl
g Box188
v -51.41785 0.0004272461 -6.625916
v 112.239 0.0004272461 -6.625916
v 112.239 0.0004272461 6.626526
v -51.41785 0.0004272461 6.626526
v -51.41785 5.856133 -6.625916
v -51.41785 5.856133 6.626526
v 112.239 5.856133 6.626526
v 112.239 5.856133 -6.625916
v -51.41785 0.0004272461 -6.625916
v -51.41785 0.0004272461 6.626526
v -51.41785 5.856133 6.626526
v -51.41785 5.856133 -6.625916
v -51.41785 0.0004272461 6.626526
v 112.239 0.0004272461 6.626526
v 112.239 5.856133 6.626526
v -51.41785 5.856133 6.626526
v 112.239 0.0004272461 6.626526
v 112.239 0.0004272461 -6.625916
v 112.239 5.856133 -6.625916
v 112.239 5.856133 6.626526
v 112.239 0.0004272461 -6.625916
v -51.41785 0.0004272461 -6.625916
v -51.41785 5.856133 -6.625916
v 112.239 5.856133 -6.625916
v -41.14486 0.0004272461 -3.090942
v -41.14486 0.0004272461 6.306641
v -54.39725 0.0004272461 540.011
v -54.39725 0.0004272461 -3.090942
v -41.14486 5.856133 -3.090942
v -54.39725 5.856133 -3.090942
v -54.39725 5.856133 -2.94519
v -54.39725 5.856133 540.011
v -41.14486 5.856133 540.011
v -41.14486 5.856133 6.798218
v -41.14486 0.0004272461 -3.090942
v -54.39725 0.0004272461 -3.090942
v -54.39725 5.856133 -3.090942
v -41.14486 5.856133 -3.090942
v -54.39725 0.0004272461 -3.090942
v -54.39725 0.0004272461 540.011
v -54.39725 5.856133 540.011
v -54.39725 5.856133 -2.94519
v -54.39725 5.856133 -3.090942
v -54.39725 0.0004272461 540.011
v -41.14486 0.0004272461 540.011
v -41.14486 5.856133 540.011
v -54.39725 5.856133 540.011
v -41.14486 5.749908 6.761169
v -41.14486 0.0004272461 -3.090942
v -41.14486 5.856133 -3.090942
v -41.14486 5.856133 6.798218
v -41.14486 0.0004272461 867.4919
v -41.14486 0.0004272461 975.5411
v -54.39725 0.0004272461 975.5411
v -54.39725 0.0004272461 867.4919
v -41.14486 5.856133 867.4919
v -54.39725 5.856133 867.4919
v -54.39725 5.856125 975.5411
v -41.14486 5.856125 975.5411
v -41.14486 0.0004272461 867.4919
v -54.39725 0.0004272461 867.4919
v -54.39725 5.856133 867.4919
v -41.14486 5.856133 867.4919
v -54.39725 0.0004272461 867.4919
v -54.39725 0.0004272461 975.5411
v -54.39725 5.856125 975.5411
v -54.39725 5.856133 867.4919
v -54.39725 0.0004272461 975.5411
v -41.14486 0.0004272461 975.5411
v -41.14486 5.856125 975.5411
v -54.39725 5.856125 975.5411
v -41.14486 0.0004272461 975.5411
v -41.14486 0.0004272461 867.4919
v -41.14486 5.856133 867.4919
v -41.14486 5.856125 975.5411
v -41.14486 5.856133 6.798218
v -54.39725 5.856133 -2.94519
v -41.14486 5.856133 6.798218
v -41.14486 5.856133 540.011
v -41.14486 0.0004272461 540.011
v -41.14486 0.0004272461 6.306641
v -41.14486 0.0004272461 6.306641
v -41.14486 0.0004272461 540.011

vn 0 -1 0
vn 0 -1 0
vn 0 -1 0
vn 0 -1 0
vn 0 1 0
vn 0 1 0
vn 0 1 0
vn 0 1 0
vn -1 0 0
vn -1 0 0
vn -1 0 0
vn -1 0 0
vn 0 0 1
vn 0 0 1
vn 0 0 1
vn 0 0 1
vn 1 0 0
vn 1 0 0
vn 1 0 0
vn 1 0 0
vn 0 0 -1
vn 0 0 -1
vn 0 0 -1
vn 0 0 -1
vn 0 -1 0
vn 0 -1 0
vn 0 -1 0
vn 0 -1 0
vn 0 1 0
vn 0 1 0
vn 0 1 0
vn 0 1 0
vn 0 1 0
vn 0 1 0
vn 0 0 -1
vn 0 0 -1
vn 0 0 -1
vn 0 0 -1
vn -1 0 0
vn -1 0 0
vn -1 0 0
vn -1 0 0
vn -0.9999999 0 0
vn 0 0 1
vn 0 0 1
vn 0 0 1
vn 0 0 1
vn 1 0 0
vn 1 0 0
vn 1 0 0
vn 1 0 0
vn 0 -1 0
vn 0 -1 0
vn 0 -1 0
vn 0 -1 0
vn 0 1 7.061034E-08
vn 0 1 7.061034E-08
vn 0 1 7.061034E-08
vn 0 1 7.061034E-08
vn 0 0 -1
vn 0 0 -1
vn 0 0 -1
vn 0 0 -1
vn -1 0 0
vn -1 0 0
vn -1 0 0
vn -0.9999999 0 0
vn 0 0 1
vn 0 0 1
vn 0 0 1
vn 0 0 1
vn 1 0 0
vn 1 0 0
vn 1 0 0
vn 1 0 0
vn 0 1 0
vn 0 1 0
vn 1 0 0
vn 1 0 0
vn 1 0 0
vn 1 0 0
vn 1 0 0
vn 0 -1 0

vt 0.9995 0.2343468
vt 0.0004990856 0.234345
vt 0.0004991889 0.122867
vt 0.9995001 0.1228686
vt 0.9995001 0.122867
vt 0.9995001 0.2343451
vt 0.0004991452 0.2343467
vt 0.0004991293 0.1228686
vt 0.8310211 0.2262248
vt 0.717384 0.2262247
vt 0.7173841 0.1225579
vt 0.8310212 0.122558
vt 0.9923435 0.2082176
vt 0.005230963 0.2092092
vt 0.004104674 0.140503
vt 0.9912173 0.1395114
vt 0.8310211 0.2262248
vt 0.717384 0.2262247
vt 0.7173841 0.1225579
vt 0.8310212 0.122558
vt 0.9923435 0.2082176
vt 0.005230963 0.2092092
vt 0.004104674 0.140503
vt 0.9912173 0.1395114
vt 0.9995 0.2343468
vt 0.9822137 0.2343467
vt 0.0004991889 0.122867
vt 0.9995001 0.1228686
vt 1.71979 0.122867
vt 1.71979 0.2365041
vt 1.719073 0.2365041
vt -0.9515182 0.2233574
vt -0.9515182 0.1228686
vt 1.671149 0.122867
vt 0.8310211 0.2262248
vt 0.717384 0.2262247
vt 0.7173841 0.1225579
vt 0.8310212 0.122558
vt 2.5043 0.2082176
vt -1.81134 0.2092092
vt -1.812466 0.140503
vt 2.502015 0.1395116
vt 2.503174 0.1395114
vt 0.8310211 0.2262248
vt 0.717384 0.2262247
vt 0.7173841 0.1225579
vt 0.8310212 0.122558
vt -1.734157 0.1417314
vt -1.81134 0.2092092
vt -1.812466 0.140503
vt -1.733884 0.1404849
vt 0.9995 0.2343468
vt 0.0004990856 0.234345
vt 0.0004991889 0.122867
vt 0.9995001 0.1228686
vt 0.9995001 0.122867
vt 0.9995001 0.2343451
vt 0.0004991452 0.2343467
vt 0.0004991293 0.1228686
vt 0.8310211 0.2262248
vt 0.717384 0.2262247
vt 0.7173841 0.1225579
vt 0.8310212 0.122558
vt 0.9923435 0.2082176
vt 0.005230963 0.2092092
vt 0.004104674 0.140503
vt 0.9912173 0.1395114
vt 0.8310211 0.2262248
vt 0.717384 0.2262247
vt 0.7173841 0.1225579
vt 0.8310212 0.122558
vt 0.9923435 0.2082176
vt 0.005230963 0.2092092
vt 0.004104674 0.140503
vt 0.9912173 0.1395114
vt 1.671149 0.122867
vt 1.719073 0.2233558
vt -1.733884 0.1404849
vt 2.503174 0.1395114
vt 2.5043 0.2082176
vt -1.736664 0.2091921
vt -1.736664 0.2091921
vt 0.0004990856 0.234345

usemtl sn05_10_kmn05r2.bmp
usemap sn05_10_kmn05r2.bmp
f 3/3/3 1/1/1 2/2/2
f 1/1/1 3/3/3 4/4/4
f 7/7/7 5/5/5 6/6/6
f 5/5/5 7/7/7 8/8/8
f 11/11/11 9/9/9 10/10/10
f 9/9/9 11/11/11 12/12/12
f 15/15/15 13/13/13 14/14/14
f 13/13/13 15/15/15 16/16/16
f 19/19/19 17/17/17 18/18/18
f 17/17/17 19/19/19 20/20/20
f 23/23/23 21/21/21 22/22/22
f 21/21/21 23/23/23 24/24/24
f 27/27/27 25/25/25 26/26/26
f 25/25/25 27/27/27 28/28/28
f 31/31/31 29/29/29 30/30/30
f 34/34/34 32/32/32 33/33/33
f 37/37/37 35/35/35 36/36/36
f 35/35/35 37/37/37 38/38/38
f 41/41/41 39/39/39 40/40/40
f 39/39/39 42/42/42 43/43/43
f 46/46/46 44/44/44 45/45/45
f 44/44/44 46/46/46 47/47/47
f 50/50/50 48/48/48 49/49/49
f 48/48/48 50/50/50 51/51/51
f 54/54/54 52/52/52 53/53/53
f 52/52/52 54/54/54 55/55/55
f 58/58/58 56/56/56 57/57/57
f 56/56/56 58/58/58 59/59/59
f 62/62/62 60/60/60 61/61/61
f 60/60/60 62/62/62 63/63/63
f 66/66/66 64/64/64 65/65/65
f 64/64/64 66/66/66 67/67/67
f 70/70/70 68/68/68 69/69/69
f 68/68/68 70/70/70 71/71/71
f 74/74/74 72/72/72 73/73/73
f 72/72/72 74/74/74 75/75/75
f 76/76/76 29/29/29 31/31/31
f 39/39/39 41/41/41 42/42/42
f 32/32/32 34/34/34 77/77/77
f 80/80/80 78/78/78 79/79/79
f 81/81/81 48/48/48 51/51/51
f 48/48/48 81/81/81 49/49/49
f 78/78/78 80/80/80 82/82/82
f 27/27/27 26/26/26 83/83/83
