mtllib ./Box227.mtl
g Box227
v 45.84539 -17.18653 1.513831
v 4.464095 -17.18653 1.501332
v 4.464095 -20.18653 1.501332
v 45.84541 -20.18653 1.513831
v 45.84539 -31.08346 1.513831
v 4.46411 -31.08346 1.501332
v 4.46411 -34.08346 1.501332
v 45.84539 -34.08346 1.513831
v -37.59165 -20.18653 -1.510465
v 4.465001 -20.18653 -1.497762
v 4.464095 -20.18653 1.501332
v -37.59255 -20.18653 1.488629
v -37.59255 -17.18653 1.488629
v 4.464095 -17.18653 1.501332
v 4.465001 -17.18653 -1.497762
v -37.59165 -17.18653 -1.510465
v -37.59165 -17.18653 -1.510465
v 4.465001 -17.18653 -1.497762
v 4.465001 -20.18653 -1.497762
v -37.59165 -20.18653 -1.510465
v -37.26977 -19.08254 -0.2008877
v 4.464605 -19.08254 -0.1882819
v 4.464605 -31.4797 -0.1882819
v -37.26977 -31.4797 -0.2008877
v -37.59257 -31.08346 1.488629
v 4.46411 -31.08346 1.501332
v 4.465001 -31.08346 -1.497762
v -37.59166 -31.08346 -1.510465
v -37.59166 -31.08346 -1.510465
v 4.465001 -31.08346 -1.497762
v 4.465001 -34.08346 -1.497762
v -37.59166 -34.08346 -1.510465
v -37.59255 -17.18653 1.488629
v -37.59255 -20.18653 1.488629
v -37.59257 -31.08346 1.488629
v -37.59257 -34.08346 1.488629
v 45.8463 -20.18653 -1.485263
v 45.84541 -20.18653 1.513831
v 45.84539 -17.18653 1.513831
v 45.84632 -17.18653 -1.485263
v 45.84632 -17.18653 -1.485263
v 45.8463 -20.18653 -1.485263
v 45.84592 -19.08254 -0.1757828
v 45.84592 -31.4797 -0.1757828
v 45.84539 -31.08346 1.513831
v 45.84632 -31.08346 -1.485263
v 45.84632 -31.08346 -1.485263
v 45.84632 -34.08346 -1.485263

vn -0.9999999 -7.201881E-10 -0.0003020167
vn -0.9999999 0 -0.0003020167
vn -0.9999999 -3.571795E-10 -0.0003020167
vn -0.9999999 -1.440376E-09 -0.0003020167
vn -0.9999998 0 -0.0003020167
vn -0.9999999 0 -0.0003020167
vn -0.9999998 0 -0.0003020167
vn -0.9999998 0 -0.0003020167
vn 0 -0.9999999 0
vn 0 -1 0
vn 0 -1 0
vn 0 -0.9999999 0
vn 0 1 0
vn 0 1 0
vn 0 1 0
vn 0 1 0
vn 0.9999999 0 0.0003020167
vn 0.9999999 0 0.0003020167
vn 0.9999999 -3.809638E-10 0.0003020167
vn 0.9999999 0 0.0003020167
vn 0.9999998 0 0.0003020167
vn 0.9999998 0 0.0003020167
vn 0.9999998 0 0.0003020167
vn 0.9999998 0 0.0003020167
vn 0 1 0
vn 0 1 0
vn 0 0.9999999 0
vn 0 1 0
vn 0.9999999 0 0.0003020167
vn 0.9999998 0 0.0003020167
vn 0.9999999 0 0.0003020167
vn 0.9999999 0 0.0003020167
vn -0.9999999 0 -0.0003020167
vn -0.9999999 0 -0.0003020167
vn -0.9999999 0 -0.0003020167
vn -0.9999999 0 -0.0003020167
vn 0 -1 0
vn 0 -1 0
vn 0 0.9999999 0
vn 0 1 0
vn 0.9999999 -7.681448E-10 0.0003020167
vn 0.9999999 -1.53629E-09 0.0003020167
vn 0.9999998 0 0.0003020167
vn 0.9999998 0 0.0003020167
vn 0 1 0
vn 0 1 0
vn 0.9999999 0 0.0003020167
vn 0.9999999 0 0.0003020167

vt 0.4355811 -0.001086712
vt 0.4325799 -0.8063187
vt 1.002547 -0.8063192
vt 1.005548 -0.00108695
vt 0.4355811 -0.001086712
vt 0.43258 -0.8063185
vt 1.002547 -0.8063191
vt 1.005548 -0.001087189
vt 0.9994971 -1.624693
vt 1.002544 -0.8063196
vt 0.4325982 -0.8063192
vt 0.4295515 -1.624693
vt 0.4492791 3.668495
vt 0.4462257 2.850122
vt 1.016171 2.850122
vt 1.019225 3.668495
vt 0.4492575 3.668495
vt 0.4462075 2.850122
vt 1.016175 2.850122
vt 1.019225 3.668495
vt 8.823912 0.5480995
vt 7.462793 0.5480995
vt 7.462793 0.0004995465
vt 8.823912 0.0004995465
vt 0.4492791 3.668495
vt 0.4462257 2.850122
vt 1.016171 2.850121
vt 1.019225 3.668495
vt 0.4492575 3.668495
vt 0.4462074 2.850121
vt 1.016175 2.850121
vt 1.019225 3.668495
vt 0.4295299 -1.624692
vt 0.999497 -1.624693
vt 0.4295299 -1.624692
vt 0.999497 -1.624693
vt 1.005542 -0.001087427
vt 0.435596 -0.00108695
vt 0.4432213 2.04489
vt 1.013167 2.044889
vt 0.4432064 2.04489
vt 1.013174 2.04489
vt 6.11319 0.5480995
vt 6.11319 0.0004995465
vt 0.4432213 2.04489
vt 1.013167 2.044889
vt 0.4432064 2.04489
vt 1.013173 2.044889

usemtl sn05_00_sn05zu.jpg
usemap sn05_00_sn05zu.jpg
f 3/3/3 1/1/1 2/2/2
f 1/1/1 3/3/3 4/4/4
f 7/7/7 5/5/5 6/6/6
f 5/5/5 7/7/7 8/8/8
f 11/11/11 9/9/9 10/10/10
f 9/9/9 11/11/11 12/12/12
f 15/15/15 13/13/13 14/14/14
f 13/13/13 15/15/15 16/16/16
f 19/19/19 17/17/17 18/18/18
f 17/17/17 19/19/19 20/20/20
f 27/27/27 25/25/25 26/26/26
f 25/25/25 27/27/27 28/28/28
f 31/31/31 29/29/29 30/30/30
f 29/29/29 31/31/31 32/32/32
f 3/3/3 33/33/33 34/34/34
f 33/33/33 3/3/3 2/2/2
f 7/7/7 35/35/35 36/36/36
f 35/35/35 7/7/7 6/6/6
f 11/11/11 37/37/37 38/38/38
f 37/37/37 11/11/11 10/10/10
f 15/15/15 39/39/39 40/40/40
f 39/39/39 15/15/15 14/14/14
f 19/19/19 41/41/41 42/42/42
f 41/41/41 19/19/19 18/18/18
f 27/27/27 45/45/45 46/46/46
f 45/45/45 27/27/27 26/26/26
f 31/31/31 47/47/47 48/48/48
f 47/47/47 31/31/31 30/30/30

usemtl sn05_06_sn05zc.jpg
usemap sn05_06_sn05zc.jpg
f 23/23/23 21/21/21 22/22/22
f 21/21/21 23/23/23 24/24/24
f 23/23/23 43/43/43 44/44/44
f 43/43/43 23/23/23 22/22/22
