mtllib ./Box213.mtl
g Box213
v 112.6822 -0.0001220703 0.2339172
v 112.6822 -13.5937 0.2339172
v 117.5193 -0.0001220703 0.2339172
v 117.5193 -13.5937 0.2339172
v 122.3563 -0.0001220703 0.2339172
v 122.3563 -13.5937 0.2339172
v 112.6822 13.59346 0.2339172
v 117.5193 13.59346 0.2339172
v 122.3563 13.59346 0.2339172
v 117.5193 -13.5937 0.2339172
v 112.6822 -13.5937 0.2339172
v 117.5193 -13.5937 -0.2337341
v 112.6822 -13.5937 -0.2337341
v 122.3563 -13.5937 0.2339172
v 122.3563 -13.5937 -0.2337341
v 122.3563 -0.0001220703 0.2339172
v 122.3563 -13.5937 0.2339172
v 122.3563 -0.0001220703 -0.2337189
v 122.3563 -13.5937 -0.2337341
v 122.3563 13.59346 0.2339172
v 122.3563 13.59346 -0.2337189
v 117.5193 13.59346 0.2339172
v 122.3563 13.59346 0.2339172
v 117.5193 13.59346 -0.2337189
v 122.3563 13.59346 -0.2337189
v 112.6822 13.59346 0.2339172
v 112.6822 13.59346 -0.2337189
v 112.6822 -0.0001220703 0.2339172
v 112.6822 13.59346 0.2339172
v 112.6822 -0.0001220703 -0.2337189
v 112.6822 13.59346 -0.2337189
v 112.6822 -13.5937 0.2339172
v 112.6822 -13.5937 -0.2337341
v 102.0249 -0.0001220703 0.2339172
v 102.0249 -13.5937 0.2339172
v 106.862 -0.0001220703 0.2339172
v 106.862 -13.5937 0.2339172
v 111.699 -0.0001220703 0.2339172
v 111.699 -13.5937 0.2339172
v 102.0249 13.59346 0.2339325
v 106.862 13.59346 0.2339325
v 111.699 13.59346 0.2339325
v 106.862 -13.5937 0.2339172
v 102.0249 -13.5937 0.2339172
v 106.862 -13.5937 -0.2337189
v 102.0249 -13.5937 -0.2337189
v 111.699 -13.5937 0.2339172
v 111.699 -13.5937 -0.2337341
v 111.699 -0.0001220703 0.2339172
v 111.699 -13.5937 0.2339172
v 111.699 -0.0001220703 -0.2337189
v 111.699 -13.5937 -0.2337341
v 111.699 13.59346 0.2339325
v 111.699 13.59346 -0.2337189
v 106.862 13.59346 0.2339325
v 111.699 13.59346 0.2339325
v 106.862 13.59346 -0.2337189
v 111.699 13.59346 -0.2337189
v 102.0249 13.59346 0.2339325
v 102.0249 13.59346 -0.2337189
v 102.0249 -0.0001220703 0.2339172
v 102.0249 13.59346 0.2339325
v 102.0249 -0.0001220703 -0.2337189
v 102.0249 13.59346 -0.2337189
v 102.0249 -13.5937 0.2339172
v 102.0249 -13.5937 -0.2337189
v -29.76852 -0.0001220703 0.2339478
v -29.76852 -13.5937 0.2339478
v -24.93149 -0.0001220703 0.2339478
v -24.93149 -13.5937 0.2339478
v -20.09445 -0.0001220703 0.2339478
v -20.09445 -13.5937 0.2339478
v -29.76852 13.59346 0.233963
v -24.93149 13.59346 0.233963
v -20.09445 13.59346 0.233963
v -24.93149 -13.5937 0.2339478
v -29.76852 -13.5937 0.2339478
v -24.93149 -13.5937 -0.2336884
v -29.76852 -13.5937 -0.2336884
v -20.09445 -13.5937 0.2339478
v -20.09445 -13.5937 -0.2336884
v -20.09445 -0.0001220703 0.2339478
v -20.09445 -13.5937 0.2339478
v -20.09445 -0.0001220703 -0.2336884
v -20.09445 -13.5937 -0.2336884
v -20.09445 13.59346 0.233963
v -20.09445 13.59346 -0.2336884
v -24.93149 13.59346 0.233963
v -20.09445 13.59346 0.233963
v -24.93149 13.59346 -0.2336884
v -20.09445 13.59346 -0.2336884
v -29.76852 13.59346 0.233963
v -29.76852 13.59346 -0.2336884
v -29.76852 -0.0001220703 0.2339478
v -29.76852 13.59346 0.233963
v -29.76852 -0.0001220703 -0.2336884
v -29.76852 13.59346 -0.2336884
v -29.76852 -13.5937 0.2339478
v -29.76852 -13.5937 -0.2336884
v -40.42578 -0.0001220703 0.2339478
v -40.42578 -13.5937 0.2339478
v -35.58878 -0.0001220703 0.2339478
v -35.58878 -13.5937 0.2339478
v -30.75174 -0.0001220703 0.2339478
v -30.75174 -13.5937 0.2339478
v -40.42578 13.59346 0.233963
v -35.58878 13.59346 0.233963
v -30.75174 13.59346 0.233963
v -35.58878 -13.5937 0.2339478
v -40.42578 -13.5937 0.2339478
v -35.58878 -13.5937 -0.2336884
v -40.42578 -13.5937 -0.2336884
v -30.75174 -13.5937 0.2339478
v -30.75174 -13.5937 -0.2336884
v -30.75174 -0.0001220703 0.2339478
v -30.75174 -13.5937 0.2339478
v -30.75174 -0.0001220703 -0.2336884
v -30.75174 -13.5937 -0.2336884
v -30.75174 13.59346 0.233963
v -30.75174 13.59346 -0.2336884
v -35.58878 13.59346 0.233963
v -30.75174 13.59346 0.233963
v -35.58878 13.59346 -0.2336731
v -30.75174 13.59346 -0.2336884
v -40.42578 13.59346 0.233963
v -40.42578 13.59346 -0.2336731
v -40.42578 -0.0001220703 0.2339478
v -40.42578 13.59346 0.233963
v -40.42578 -0.0001220703 -0.2336884
v -40.42578 13.59346 -0.2336731
v -40.42578 -13.5937 0.2339478
v -40.42578 -13.5937 -0.2336884
v -111.6989 -0.0001220703 0.233963
v -111.6989 -13.5937 0.233963
v -106.8618 -0.0001220703 0.233963
v -106.8618 -13.5937 0.233963
v -102.0248 -0.0001220703 0.233963
v -102.0248 -13.5937 0.233963
v -111.6989 13.59346 0.233963
v -106.8618 13.59346 0.233963
v -102.0248 13.59346 0.233963
v -106.8618 -13.5937 0.233963
v -111.6989 -13.5937 0.233963
v -106.8618 -13.5937 -0.2336884
v -111.6989 -13.5937 -0.2336884
v -102.0248 -13.5937 0.233963
v -102.0248 -13.5937 -0.2336884
v -102.0248 -0.0001220703 0.233963
v -102.0248 -13.5937 0.233963
v -102.0248 -0.0001220703 -0.2336731
v -102.0248 -13.5937 -0.2336884
v -102.0248 13.59346 0.233963
v -102.0248 13.59346 -0.2336731
v -106.8618 13.59346 0.233963
v -102.0248 13.59346 0.233963
v -106.8618 13.59346 -0.2336731
v -102.0248 13.59346 -0.2336731
v -111.6989 13.59346 0.233963
v -111.6989 13.59346 -0.2336731
v -111.6989 -0.0001220703 0.233963
v -111.6989 13.59346 0.233963
v -111.6989 -0.0001220703 -0.2336731
v -111.6989 13.59346 -0.2336731
v -111.6989 -13.5937 0.233963
v -111.6989 -13.5937 -0.2336884
v -122.3562 -0.0001220703 0.233963
v -122.3562 -13.5937 0.233963
v -117.5191 -0.0001220703 0.233963
v -117.5191 -13.5937 0.233963
v -112.6821 -0.0001220703 0.233963
v -112.6821 -13.5937 0.233963
v -122.3562 13.59346 0.2339783
v -117.5191 13.59346 0.2339783
v -112.6821 13.59346 0.233963
v -117.5191 -13.5937 0.233963
v -122.3562 -13.5937 0.233963
v -117.5191 -13.5937 -0.2336884
v -122.3562 -13.5937 -0.2336731
v -112.6821 -13.5937 0.233963
v -112.6821 -13.5937 -0.2336884
v -112.6821 -0.0001220703 0.233963
v -112.6821 -13.5937 0.233963
v -112.6821 -0.0001220703 -0.2336731
v -112.6821 -13.5937 -0.2336884
v -112.6821 13.59346 0.233963
v -112.6821 13.59346 -0.2336731
v -117.5191 13.59346 0.2339783
v -112.6821 13.59346 0.233963
v -117.5191 13.59346 -0.2336731
v -112.6821 13.59346 -0.2336731
v -122.3562 13.59346 0.2339783
v -122.3562 13.59346 -0.2336731
v -122.3562 -0.0001220703 0.233963
v -122.3562 13.59346 0.2339783
v -122.3562 -0.0001220703 -0.2336731
v -122.3562 13.59346 -0.2336731
v -122.3562 -13.5937 0.233963
v -122.3562 -13.5937 -0.2336731

vn 0 0 1
vn 0 0 1
vn 0 0 1
vn 0 0 1
vn 0 0 1
vn 0 0 1
vn 0 0 1
vn 0 0 1
vn 0 0 1
vn 0 -1 0
vn 0 -1 0
vn 0 -1 0
vn 0 -1 0
vn 0 -1 0
vn 0 -1 0
vn 1 0 0
vn 1 0 0
vn 1 0 0
vn 1 0 0
vn 0.9999999 0 0
vn 0.9999999 0 0
vn 0 1 0
vn 0 1 0
vn 0 1 0
vn 0 1 0
vn 0 1 0
vn 0 1 0
vn -1 0 0
vn -0.9999999 0 0
vn -1 0 0
vn -0.9999999 0 0
vn -1 0 0
vn -1 0 0
vn 0 -7.48333E-07 1
vn 0 0 1
vn 0 -5.612497E-07 1
vn 0 0 1
vn 0 -3.741665E-07 1
vn 0 0 1
vn 0 -1.122499E-06 1
vn 0 -1.122499E-06 1
vn 0 -1.122499E-06 1
vn 0 -1 0
vn 0 -1 0
vn 0 -1 0
vn 0 -1 0
vn 0 -1 0
vn 0 -1 0
vn 1 0 0
vn 1 0 0
vn 1 0 0
vn 1 0 0
vn 1 0 0
vn 1 0 0
vn 0 1 0
vn 0 1 0
vn 0 1 0
vn 0 1 0
vn 0 1 0
vn 0 1 0
vn -1 0 0
vn -1 0 0
vn -1 0 0
vn -1 0 0
vn -0.9999999 0 0
vn -0.9999999 0 0
vn 0 -7.48333E-07 1
vn 0 0 1
vn 0 -5.612497E-07 1
vn 0 0 1
vn 0 -3.741665E-07 1
vn 0 0 1
vn 0 -1.122499E-06 1
vn 0 -1.122499E-06 1
vn 0 -1.122499E-06 1
vn 0 -1 0
vn 0 -1 0
vn 0 -1 0
vn 0 -1 0
vn 0 -1 0
vn 0 -1 0
vn 1 0 0
vn 0.9999999 0 0
vn 1 0 0
vn 0.9999999 0 0
vn 1 0 0
vn 1 0 0
vn 0 1 0
vn 0 1 0
vn 0 1 0
vn 0 1 0
vn 0 1 0
vn 0 1 0
vn -1 0 0
vn -1 0 0
vn -1 0 0
vn -1 0 0
vn -0.9999999 0 0
vn -0.9999999 0 0
vn 0 -7.48333E-07 1
vn 0 0 1
vn 0 -5.612503E-07 1
vn 0 0 1
vn 0 -3.741665E-07 1
vn 0 0 1
vn 0 -1.122499E-06 1
vn 0 -1.122499E-06 1
vn 0 -1.122499E-06 1
vn 0 -1 0
vn 0 -1 0
vn 0 -1 0
vn 0 -1 0
vn 0 -1 0
vn 0 -1 0
vn 1 0 0
vn 0.9999999 0 0
vn 1 0 0
vn 0.9999999 0 0
vn 1 0 0
vn 1 0 0
vn 0 1 0
vn 0 1 0
vn 0 1 0
vn 0 1 0
vn 0 1 0
vn 0 1 0
vn -1 0 0
vn -0.9999999 0 0
vn -1 0 0
vn -0.9999999 0 0
vn -0.9999999 0 0
vn -0.9999999 0 0
vn 0 0 1
vn 0 0 1
vn 0 0 1
vn 0 0 1
vn 0 0 1
vn 0 0 1
vn 0 0 1
vn 0 0 1
vn 0 0 1
vn 0 -1 0
vn 0 -1 0
vn 0 -1 0
vn 0 -1 0
vn 0 -1 0
vn 0 -1 0
vn 1 0 0
vn 1 0 0
vn 1 0 0
vn 1 0 0
vn 0.9999999 0 0
vn 0.9999999 0 0
vn 0 1 0
vn 0 1 0
vn 0 1 0
vn 0 1 0
vn 0 1 0
vn 0 1 0
vn -1 0 0
vn -0.9999999 0 0
vn -1 0 0
vn -0.9999999 0 0
vn -1 0 0
vn -1 0 0
vn 0 -7.48333E-07 1
vn 0 0 1
vn 5.257623E-07 -3.741665E-07 1
vn 0 0 1
vn 0 0 1
vn 0 0 1
vn 0 -1.122499E-06 1
vn 1.051525E-06 -1.122499E-06 1
vn 1.577287E-06 -5.612497E-07 1
vn 0 -1 0
vn 0 -1 0
vn 0 -1 0
vn 0 -1 0
vn 0 -1 0
vn 0 -1 0
vn 1 0 0
vn 1 0 0
vn 1 0 0
vn 1 0 0
vn 0.9999999 0 0
vn 0.9999999 0 0
vn 0 1 0
vn 0 1 0
vn 0 1 0
vn 0 1 0
vn 0 1 0
vn 0 1 0
vn -1 0 0
vn -1 0 0
vn -1 0 0
vn -1 0 0
vn -0.9999999 0 0
vn -0.9999999 0 0

vt 0.9928239 0.5
vt 0.9928239 0.007536232
vt 0.7400966 0.5
vt 0.7400966 0.007536232
vt 0.4873693 0.5
vt 0.4873693 0.007536232
vt 0.9928239 1
vt 0.7400966 1
vt 0.4873693 1
vt 0.4986954 0.9635991
vt 0.01172298 0.9635991
vt 0.4986954 1
vt 0.01172298 1
vt 0.9856688 0.9635991
vt 0.9856688 1
vt 0.5372339 0.4987924
vt 0.5372339 0.01075263
vt 0.4608337 0.498792
vt 0.4608337 0.01075213
vt 0.5372339 0.9868323
vt 0.4608337 0.9868323
vt 0.4986954 0.9635991
vt 0.01172298 0.9635991
vt 0.4986954 1
vt 0.01172298 1
vt 0.9856688 0.9635991
vt 0.9856688 1
vt 0.5372339 0.4987924
vt 0.5372339 0.01075263
vt 0.4608337 0.498792
vt 0.4608337 0.01075213
vt 0.5372339 0.9868323
vt 0.4608337 0.9868323
vt 0.5029688 0.5
vt 0.5029688 0
vt 0.2502415 0.5
vt 0.2502415 0
vt -0.002485738 0.5
vt -0.002485738 0
vt 0.5029688 1
vt 0.2502415 1
vt -0.002485738 1
vt 0.4986954 0.9635991
vt 0.01172298 0.9635991
vt 0.4986954 1
vt 0.01172298 1
vt 0.9856688 0.9635991
vt 0.9856688 1
vt 0.5372339 0.4987924
vt 0.5372339 0.01075263
vt 0.4608337 0.498792
vt 0.4608337 0.01075213
vt 0.5372339 0.9868323
vt 0.4608337 0.9868323
vt 0.4986954 0.9635991
vt 0.01172298 0.9635991
vt 0.4986954 1
vt 0.01172298 1
vt 0.9856688 0.9635991
vt 0.9856688 1
vt 0.5372339 0.4987924
vt 0.5372339 0.01075263
vt 0.4608337 0.498792
vt 0.4608337 0.01075213
vt 0.5372339 0.9868323
vt 0.4608337 0.9868323
vt 0.9928239 0.5
vt 0.9928239 0.007536232
vt 0.7400966 0.5
vt 0.7400966 0.007536232
vt 0.4873693 0.5
vt 0.4873693 0.007536232
vt 0.9928239 1
vt 0.7400966 1
vt 0.4873693 1
vt 0.4986954 0.9635991
vt 0.01172298 0.9635991
vt 0.4986954 1
vt 0.01172298 1
vt 0.9856688 0.9635991
vt 0.9856688 1
vt 0.5372339 0.4987924
vt 0.5372339 0.01075263
vt 0.4608337 0.498792
vt 0.4608337 0.01075213
vt 0.5372339 0.9868323
vt 0.4608337 0.9868323
vt 0.4986954 0.9635991
vt 0.01172298 0.9635991
vt 0.4986954 1
vt 0.01172298 1
vt 0.9856688 0.9635991
vt 0.9856688 1
vt 0.5372339 0.4987924
vt 0.5372339 0.01075263
vt 0.4608337 0.498792
vt 0.4608337 0.01075213
vt 0.5372339 0.9868323
vt 0.4608337 0.9868323
vt 0.5029688 0.5
vt 0.5029688 0
vt 0.2502415 0.5
vt 0.2502415 0
vt -0.002485738 0.5
vt -0.002485738 0
vt 0.5029688 1
vt 0.2502415 1
vt -0.002485738 1
vt 0.4986954 0.9635991
vt 0.01172298 0.9635991
vt 0.4986954 1
vt 0.01172298 1
vt 0.9856688 0.9635991
vt 0.9856688 1
vt 0.5372339 0.4987924
vt 0.5372339 0.01075263
vt 0.4608337 0.498792
vt 0.4608337 0.01075213
vt 0.5372339 0.9868323
vt 0.4608337 0.9868323
vt 0.4986954 0.9635991
vt 0.01172298 0.9635991
vt 0.4986954 1
vt 0.01172298 1
vt 0.9856688 0.9635991
vt 0.9856688 1
vt 0.5372339 0.4987924
vt 0.5372339 0.01075263
vt 0.4608337 0.498792
vt 0.4608337 0.01075213
vt 0.5372339 0.9868323
vt 0.4608337 0.9868323
vt 0.9928239 0.5
vt 0.9928239 0.007536232
vt 0.7400966 0.5
vt 0.7400966 0.007536232
vt 0.4873693 0.5
vt 0.4873693 0.007536232
vt 0.9928239 1
vt 0.7400966 1
vt 0.4873693 1
vt 0.4986954 0.9635991
vt 0.01172298 0.9635991
vt 0.4986954 1
vt 0.01172298 1
vt 0.9856688 0.9635991
vt 0.9856688 1
vt 0.5372339 0.4987924
vt 0.5372339 0.01075263
vt 0.4608337 0.498792
vt 0.4608337 0.01075213
vt 0.5372339 0.9868323
vt 0.4608337 0.9868323
vt 0.4986954 0.9635991
vt 0.01172298 0.9635991
vt 0.4986954 1
vt 0.01172298 1
vt 0.9856688 0.9635991
vt 0.9856688 1
vt 0.5372339 0.4987924
vt 0.5372339 0.01075263
vt 0.4608337 0.498792
vt 0.4608337 0.01075213
vt 0.5372339 0.9868323
vt 0.4608337 0.9868323
vt 0.5029688 0.5
vt 0.5029688 0
vt 0.2502415 0.5
vt 0.2502415 0
vt -0.002485738 0.5
vt -0.002485738 0
vt 0.5029688 1
vt 0.2502415 1
vt -0.002485738 1
vt 0.4986954 0.9635991
vt 0.01172298 0.9635991
vt 0.4986954 1
vt 0.01172298 1
vt 0.9856688 0.9635991
vt 0.9856688 1
vt 0.5372339 0.4987924
vt 0.5372339 0.01075263
vt 0.4608337 0.498792
vt 0.4608337 0.01075213
vt 0.5372339 0.9868323
vt 0.4608337 0.9868323
vt 0.4986954 0.9635991
vt 0.01172298 0.9635991
vt 0.4986954 1
vt 0.01172298 1
vt 0.9856688 0.9635991
vt 0.9856688 1
vt 0.5372339 0.4987924
vt 0.5372339 0.01075263
vt 0.4608337 0.498792
vt 0.4608337 0.01075213
vt 0.5372339 0.9868323
vt 0.4608337 0.9868323

usemtl sn05_22_303w27.jpg
usemap sn05_22_303w27.jpg
f 3/3/3 1/1/1 2/2/2
f 2/2/2 4/4/4 3/3/3
f 5/5/5 3/3/3 4/4/4
f 4/4/4 6/6/6 5/5/5
f 8/8/8 7/7/7 1/1/1
f 1/1/1 3/3/3 8/8/8
f 9/9/9 8/8/8 3/3/3
f 3/3/3 5/5/5 9/9/9
f 12/12/12 10/10/10 11/11/11
f 11/11/11 13/13/13 12/12/12
f 15/15/15 14/14/14 10/10/10
f 10/10/10 12/12/12 15/15/15
f 18/18/18 16/16/16 17/17/17
f 17/17/17 19/19/19 18/18/18
f 21/21/21 20/20/20 16/16/16
f 16/16/16 18/18/18 21/21/21
f 24/24/24 22/22/22 23/23/23
f 23/23/23 25/25/25 24/24/24
f 27/27/27 26/26/26 22/22/22
f 22/22/22 24/24/24 27/27/27
f 30/30/30 28/28/28 29/29/29
f 29/29/29 31/31/31 30/30/30
f 33/33/33 32/32/32 28/28/28
f 28/28/28 30/30/30 33/33/33
f 36/36/36 34/34/34 35/35/35
f 35/35/35 37/37/37 36/36/36
f 38/38/38 36/36/36 37/37/37
f 37/37/37 39/39/39 38/38/38
f 41/41/41 40/40/40 34/34/34
f 34/34/34 36/36/36 41/41/41
f 42/42/42 41/41/41 36/36/36
f 36/36/36 38/38/38 42/42/42
f 45/45/45 43/43/43 44/44/44
f 44/44/44 46/46/46 45/45/45
f 48/48/48 47/47/47 43/43/43
f 43/43/43 45/45/45 48/48/48
f 51/51/51 49/49/49 50/50/50
f 50/50/50 52/52/52 51/51/51
f 54/54/54 53/53/53 49/49/49
f 49/49/49 51/51/51 54/54/54
f 57/57/57 55/55/55 56/56/56
f 56/56/56 58/58/58 57/57/57
f 60/60/60 59/59/59 55/55/55
f 55/55/55 57/57/57 60/60/60
f 63/63/63 61/61/61 62/62/62
f 62/62/62 64/64/64 63/63/63
f 66/66/66 65/65/65 61/61/61
f 61/61/61 63/63/63 66/66/66
f 69/69/69 67/67/67 68/68/68
f 68/68/68 70/70/70 69/69/69
f 71/71/71 69/69/69 70/70/70
f 70/70/70 72/72/72 71/71/71
f 74/74/74 73/73/73 67/67/67
f 67/67/67 69/69/69 74/74/74
f 75/75/75 74/74/74 69/69/69
f 69/69/69 71/71/71 75/75/75
f 78/78/78 76/76/76 77/77/77
f 77/77/77 79/79/79 78/78/78
f 81/81/81 80/80/80 76/76/76
f 76/76/76 78/78/78 81/81/81
f 84/84/84 82/82/82 83/83/83
f 83/83/83 85/85/85 84/84/84
f 87/87/87 86/86/86 82/82/82
f 82/82/82 84/84/84 87/87/87
f 90/90/90 88/88/88 89/89/89
f 89/89/89 91/91/91 90/90/90
f 93/93/93 92/92/92 88/88/88
f 88/88/88 90/90/90 93/93/93
f 96/96/96 94/94/94 95/95/95
f 95/95/95 97/97/97 96/96/96
f 99/99/99 98/98/98 94/94/94
f 94/94/94 96/96/96 99/99/99
f 102/102/102 100/100/100 101/101/101
f 101/101/101 103/103/103 102/102/102
f 104/104/104 102/102/102 103/103/103
f 103/103/103 105/105/105 104/104/104
f 107/107/107 106/106/106 100/100/100
f 100/100/100 102/102/102 107/107/107
f 108/108/108 107/107/107 102/102/102
f 102/102/102 104/104/104 108/108/108
f 111/111/111 109/109/109 110/110/110
f 110/110/110 112/112/112 111/111/111
f 114/114/114 113/113/113 109/109/109
f 109/109/109 111/111/111 114/114/114
f 117/117/117 115/115/115 116/116/116
f 116/116/116 118/118/118 117/117/117
f 120/120/120 119/119/119 115/115/115
f 115/115/115 117/117/117 120/120/120
f 123/123/123 121/121/121 122/122/122
f 122/122/122 124/124/124 123/123/123
f 126/126/126 125/125/125 121/121/121
f 121/121/121 123/123/123 126/126/126
f 129/129/129 127/127/127 128/128/128
f 128/128/128 130/130/130 129/129/129
f 132/132/132 131/131/131 127/127/127
f 127/127/127 129/129/129 132/132/132
f 135/135/135 133/133/133 134/134/134
f 134/134/134 136/136/136 135/135/135
f 137/137/137 135/135/135 136/136/136
f 136/136/136 138/138/138 137/137/137
f 140/140/140 139/139/139 133/133/133
f 133/133/133 135/135/135 140/140/140
f 141/141/141 140/140/140 135/135/135
f 135/135/135 137/137/137 141/141/141
f 144/144/144 142/142/142 143/143/143
f 143/143/143 145/145/145 144/144/144
f 147/147/147 146/146/146 142/142/142
f 142/142/142 144/144/144 147/147/147
f 150/150/150 148/148/148 149/149/149
f 149/149/149 151/151/151 150/150/150
f 153/153/153 152/152/152 148/148/148
f 148/148/148 150/150/150 153/153/153
f 156/156/156 154/154/154 155/155/155
f 155/155/155 157/157/157 156/156/156
f 159/159/159 158/158/158 154/154/154
f 154/154/154 156/156/156 159/159/159
f 162/162/162 160/160/160 161/161/161
f 161/161/161 163/163/163 162/162/162
f 165/165/165 164/164/164 160/160/160
f 160/160/160 162/162/162 165/165/165
f 168/168/168 166/166/166 167/167/167
f 167/167/167 169/169/169 168/168/168
f 170/170/170 168/168/168 169/169/169
f 169/169/169 171/171/171 170/170/170
f 173/173/173 172/172/172 166/166/166
f 166/166/166 168/168/168 173/173/173
f 174/174/174 173/173/173 168/168/168
f 168/168/168 170/170/170 174/174/174
f 177/177/177 175/175/175 176/176/176
f 176/176/176 178/178/178 177/177/177
f 180/180/180 179/179/179 175/175/175
f 175/175/175 177/177/177 180/180/180
f 183/183/183 181/181/181 182/182/182
f 182/182/182 184/184/184 183/183/183
f 186/186/186 185/185/185 181/181/181
f 181/181/181 183/183/183 186/186/186
f 189/189/189 187/187/187 188/188/188
f 188/188/188 190/190/190 189/189/189
f 192/192/192 191/191/191 187/187/187
f 187/187/187 189/189/189 192/192/192
f 195/195/195 193/193/193 194/194/194
f 194/194/194 196/196/196 195/195/195
f 198/198/198 197/197/197 193/193/193
f 193/193/193 195/195/195 198/198/198
