mtllib ./Box285.mtl
g Box285
v -0.1187744 -39.93804 53.99564
v -0.1187744 4.448536 53.99564
v -3.786072 -39.93804 53.99564
v -3.786072 4.448536 53.99564
v -3.786072 -39.93804 53.99564
v -0.1187744 4.448536 53.99564
v -3.786072 26.39425 53.99564
v -27.06207 4.448536 53.99564
v -27.10901 26.56811 53.99564
v -50.86206 4.448536 53.99561
v -50.86206 -39.93804 53.99564
v -27.06207 -39.93804 53.99564
v -50.86206 -39.93804 53.99564
v -50.86206 26.71534 53.99561
v -50.86206 4.448536 53.99561
v -27.10901 26.56811 53.99564
v -50.86206 4.448536 53.99561
v -27.06207 -39.93804 53.99564
v 0.03955078 26.00437 53.99564
v -0.1187744 4.448536 53.99564
v -46.86475 4.44854 -3.881378
v -50.64203 4.44854 -3.881378
v -46.86475 26.71534 17.97128
v -50.64203 26.71534 17.97128
v -50.64203 -39.92243 -49.547
v -46.86469 -39.92243 -49.547
v -47.14508 4.448536 53.99561
v -47.14508 -39.93804 53.99564
v -46.86475 4.44854 -3.881378
v -46.86469 -39.92243 -49.547
v -47.14508 -39.93804 53.99564
v -46.86475 26.71534 17.97128
v -47.14508 4.448536 53.99561
v -47.14508 26.71534 53.99561
v -47.14508 4.448536 53.99561
v -50.64209 51.82481 43.4375
v -46.86475 51.82481 43.4375
v 47.43781 26.71534 17.97131
v 47.66058 26.71534 53.99564
v 47.80078 51.82481 43.53241
v 47.76715 51.82481 53.95013
v 47.80078 51.82481 43.53241
v 47.66058 26.71534 53.99564
v -0.01226807 51.82481 53.95013
v -3.702515 51.82481 53.95013
v -3.702515 51.82481 53.95013
v -46.93201 51.82481 53.95029
v -47.14508 26.71534 53.99561
v -46.86475 51.82481 43.4375
v -47.14508 26.71534 53.99561
v -46.93201 51.82481 53.95029
v -46.86475 51.82481 43.4375
v -50.69489 51.82481 53.95029
v -50.64209 51.82481 43.4375
v -47.14508 26.71534 53.99561
v -46.93201 51.82481 53.95029
v -50.86206 26.71534 53.99561
v -50.69489 51.82481 53.95029
v -50.86206 26.71534 53.99561
v -46.93201 51.82481 53.95029
v -27.10901 26.56811 53.99564
v -27.16968 51.82481 53.95016
v -3.702515 51.82481 53.95013
v -27.16968 51.82481 53.95016
v -27.16968 51.82481 53.95016
v -46.93201 51.82481 53.95029
v 44.16638 4.448536 53.99561
v 44.38641 4.44854 -3.881378
v 44.16638 -39.93804 53.99564
v 44.38647 -39.92243 -49.547
v 44.16638 -39.93804 53.99564
v 44.38641 4.44854 -3.881378
v 44.38641 26.71534 17.97128
v 44.16638 26.71534 53.99561
v 44.38641 26.71534 17.97128
v 44.16638 4.448536 53.99561
v 44.33362 51.82481 53.95029
v 44.38641 51.82481 43.4375
v 44.16638 26.71534 53.99561
v 44.38641 51.82481 43.4375
v 48.16376 4.44854 -3.881378
v 44.38641 4.44854 -3.881378
v 48.16376 26.71534 17.97128
v 44.38641 26.71534 17.97128
v 44.38647 -39.92243 -49.547
v 44.38641 4.44854 -3.881378
v 48.16376 -39.92243 -49.547
v 48.16376 -39.92243 -49.547
v 47.88342 4.448536 53.99561
v 47.88342 -39.93804 53.99564
v 48.16376 4.44854 -3.881378
v 48.16376 -39.92243 -49.547
v 48.16376 26.71534 17.97128
v 47.66058 26.71534 53.99564
v 44.38641 26.71534 17.97128
v 44.38641 51.82481 43.4375
v 47.80078 51.82481 43.53241
v 48.16376 26.71534 17.97128
v 44.38641 51.82481 43.4375
v 47.76715 51.82481 53.95013
v 47.66058 26.71534 53.99564
v 47.80078 51.82481 43.53241
v 48.16376 26.71534 17.97128
v 47.80078 51.82481 43.53241
v 47.66058 26.71534 53.99564
v 47.76715 51.82481 53.95013
v 47.80078 51.82481 43.53241
v 44.33362 51.82481 53.95029
v 44.38641 51.82481 43.4375
v 44.33362 51.82481 53.95029
v 47.80078 51.82481 43.53241
v 47.66058 26.71534 53.99564
v 47.76715 51.82481 53.95013
v 44.16638 26.71534 53.99561
v 44.33362 51.82481 53.95029
v 47.76715 51.82481 53.95013
v 47.66058 26.71534 53.99564
v 44.16638 4.448536 53.99561
v 47.66058 26.71534 53.99564
v 44.16638 4.448536 53.99561
v 47.88342 4.448536 53.99561
v 44.16638 4.448536 53.99561
v 47.88342 -39.93804 53.99564
v 44.16638 4.448536 53.99561
v 44.16638 -39.93804 53.99564
v -0.01226807 51.82481 53.95013
v -0.01226807 51.82481 53.95013
v 44.33362 51.82481 53.95029
v 44.16638 4.448536 53.99561
v -0.1187744 4.448536 53.99564
v 44.16638 4.448536 53.99561
v 44.16638 -39.93804 53.99564
v -0.1187744 -39.93804 53.99564

vn 0 0 0.9999999
vn 0 0 0.9999999
vn 0 0 0.9999999
vn 0 0 1
vn 0 0 1
vn 0 0 0.9999999
vn 1.103769E-05 0.0009618112 0.9999995
vn -4.319157E-07 1.542611E-07 1
vn -6.476214E-07 -1.374203E-09 1
vn -1.282252E-06 6.875408E-07 1
vn -1.282252E-06 6.875408E-07 1
vn 0 0 1
vn 0 0 1
vn -1.284786E-06 0 1
vn -1.284786E-06 0 1
vn 2.338016E-06 0.0008741173 0.9999996
vn -1.282252E-06 -2.72084E-09 1
vn 0 0 1
vn -5.381743E-06 0.0009606418 0.9999995
vn 0 0 1
vn 0 0.7117324 -0.7024507
vn 0 0.7117324 -0.7024507
vn 0 0.706678 -0.7075351
vn 0 0.7066781 -0.7075351
vn 0 0.7172002 -0.6968672
vn 0 0.7172002 -0.6968671
vn 0.9999882 3.330151E-09 0.004843569
vn 0.9999882 3.330151E-09 0.004843569
vn 0.9999908 -0.002238811 0.00368242
vn 0.9999925 -0.002785205 0.00270758
vn 0.9999925 -0.002785205 0.00270758
vn 0.9999689 -0.004428308 0.006517503
vn 0.999977 -0.004753429 0.004843514
vn 0.9999697 0 0.007781576
vn 0.9999697 0 0.007781576
vn 0 0.7120769 -0.7021015
vn 0 0.7120769 -0.7021015
vn -0.9999476 0.008159978 0.006183787
vn -0.9999476 0.008159978 0.006183787
vn -0.9999476 0.008159978 0.006183787
vn -0.9999858 0.0042382 -0.003228142
vn -0.9999858 0.0042382 -0.003228142
vn -0.9999858 0.0042382 -0.003228142
vn 0 0.001762233 0.9999985
vn 0 0.001762233 0.9999985
vn 0.0001822852 0.001788651 0.9999983
vn 0.9999436 -0.008473765 0.006397633
vn 0.9999436 -0.008473765 0.006397633
vn 0.99994 -0.008023336 0.007468756
vn 0.9999387 -0.007891888 0.007781332
vn 0 1 0
vn 0 0.9999999 0
vn 0 0.9999999 0
vn 0 1 0
vn 0 0.001804838 0.9999984
vn 0 0.001804838 0.9999984
vn 0 0.001804838 0.9999984
vn 0 0.001804838 0.9999983
vn 0 0.001804838 0.9999983
vn 0 0.001804838 0.9999983
vn 1.342143E-05 0.001800391 0.9999983
vn 1.342143E-05 0.001800391 0.9999983
vn 1.300436E-06 0.001789246 0.9999985
vn 1.300436E-06 0.001789246 0.9999985
vn 6.176909E-06 0.001800373 0.9999983
vn 6.176909E-06 0.001800373 0.9999983
vn -0.999992 0.0012464 -0.003801683
vn -0.999992 0.0012464 -0.003801683
vn -0.9999928 -2.613814E-09 -0.003801686
vn -0.9999954 0.002185921 -0.002125285
vn -0.9999954 0.002185921 -0.002125285
vn -0.9999954 0.002185921 -0.002125285
vn -0.9999858 0.003730952 -0.003801659
vn -0.999976 0.003283089 -0.006107719
vn -0.999976 0.003283089 -0.006107719
vn -0.9999814 0 -0.006107753
vn -0.9999652 0.006650992 -0.005021844
vn -0.9999652 0.006650992 -0.005021844
vn -0.9999652 0.006650992 -0.005021844
vn -0.9999623 0.00619441 -0.006107634
vn 0 0.7117324 -0.7024508
vn 0 0.7089541 -0.7052546
vn 0 0.7047008 -0.7095047
vn 0 0.7004384 -0.7137128
vn 0 0.7172003 -0.6968672
vn 0 0.7172003 -0.6968672
vn 0 0.7172003 -0.6968672
vn 0 0.7172002 -0.6968672
vn 0.9999794 0.0004080701 0.006414098
vn 0.9999924 -0.001786936 0.003473164
vn 0.9999908 -0.002239228 0.003682099
vn 0.9999925 -0.002785974 0.00270699
vn 0.9999647 0.0009094277 0.008343658
vn 0.9998524 0.0100062 0.01396554
vn 0 0.7120769 -0.7021015
vn 0 0.7120769 -0.7021015
vn 0.01947197 0.7133843 -0.7005024
vn 0.01947197 0.7133843 -0.7005024
vn 0.01947197 0.7133843 -0.7005024
vn 0.9999858 -0.0042382 0.003228142
vn 0.9999858 -0.0042382 0.003228142
vn 0.9999858 -0.0042382 0.003228142
vn 0.9999025 0.0002368771 0.01396624
vn 0.9999025 0.0002368771 0.01396624
vn 0.9999025 0.0002368771 0.01396624
vn 0 1 0
vn 0 1 0
vn 0 1 0
vn 0 1 0
vn 0 1 0
vn 0 1 0
vn -8.733763E-06 0.001812167 0.9999983
vn -8.733763E-06 0.001812167 0.9999983
vn -7.13008E-06 0.0009753024 0.9999996
vn 4.444042E-05 0.001804542 0.9999985
vn 4.444042E-05 0.001804542 0.9999985
vn -8.733777E-06 0 1
vn -8.733777E-06 0 1
vn 0 -1.370542E-06 1
vn 0 -1.370542E-06 1
vn 0 0 1
vn 0 6.875408E-07 1
vn 0 6.875408E-07 1
vn 0 6.875408E-07 1
vn 6.357538E-07 6.875408E-07 1
vn -2.770042E-05 0.001762178 0.9999985
vn -3.440852E-06 0.001804861 0.9999984
vn -3.440852E-06 0.001804861 0.9999984
vn 6.891153E-07 0 1
vn 4.587086E-07 2.294699E-07 1
vn 6.891153E-07 6.875408E-07 1
vn 0 0 1
vn 0 0 1

vt 1.537236 0.0009989738
vt 1.537236 0.9674518
vt 1.426246 0.0009989738
vt 1.426246 0.9674518
vt 1.426246 0.0009989738
vt 1.537236 0.9674518
vt 1.426246 1.445288
vt 0.7218019 0.9674518
vt 0.7203809 1.449073
vt 0.00149864 0.9674518
vt 0.00149864 0.0009989738
vt 0.7218019 0.0009989738
vt 0.00149864 0.0009989738
vt 0.001498729 1.452279
vt 0.00149864 0.9674518
vt 0.7203809 1.449073
vt 0.00149864 0.9674518
vt 0.7218019 0.0009989738
vt 1.542029 1.436799
vt 1.537236 0.9674518
vt 0.3246782 0.7002199
vt 0.4333273 0.70022
vt 0.3246781 -0.02359486
vt 0.433327 -0.02359487
vt 0.4333278 2.041899
vt 0.3246786 2.041899
vt 0.1035713 0.3187669
vt 0.1035712 -1.092254
vt 0.5467532 0.318767
vt 0.896429 -1.091758
vt 0.1035712 -1.092254
vt 0.3794207 1.026614
vt 0.1035713 0.3187669
vt 0.1035713 1.026614
vt 0.1035713 0.3187669
vt 0.4333268 -0.6768355
vt 0.3246779 -0.6768355
vt 1.411856 0.7059788
vt 1.999001 0.7059788
vt 1.861157 0.9305907
vt 1.999001 0.9305907
vt 1.861157 0.9305907
vt 1.999001 0.7059788
vt 1.54046 1.999001
vt 1.428776 1.999001
vt 1.428776 1.999001
vt 0.1039185 1.824829
vt 0.1035713 1.026614
vt 0.1844181 1.824829
vt 0.1035713 1.026614
vt 0.4389147 0.9995002
vt 0.441037 0.0005013645
vt 0.3202162 0.9995006
vt 0.3218822 0.0005010962
vt 0.1139941 1.452279
vt 0.1204412 1.999001
vt 0.001498729 1.452279
vt 0.006558985 1.999001
vt 0.001498729 1.452279
vt 0.1204412 1.999001
vt 0.7203809 1.449073
vt 0.718546 1.999001
vt 1.428776 1.999001
vt 0.718546 1.999001
vt 0.718546 1.999001
vt 0.1204412 1.999001
vt 0.8964289 0.3187669
vt 0.4532469 0.318767
vt 0.896429 -1.092254
vt 0.1035711 -1.091758
vt 0.896429 -1.092254
vt 0.4532469 0.318767
vt 0.6205795 1.026614
vt 0.8964289 1.026614
vt 0.6205795 1.026614
vt 0.8964289 0.3187669
vt 0.8960817 1.824829
vt 0.815582 1.824829
vt 0.8964289 1.026614
vt 0.815582 1.824829
vt 0.3246782 0.7002199
vt 0.4333273 0.70022
vt 0.3246781 -0.02359486
vt 0.433327 -0.02359487
vt 0.4333278 2.041899
vt 0.4333273 0.70022
vt 0.3246786 2.041899
vt 0.3246786 2.041899
vt 0.001498908 0.9674518
vt 0.00149864 0.0009989738
vt 1.676726 0.9674519
vt 2.998501 0.00133878
vt 1.044209 1.452279
vt 0.001498461 1.452279
vt 0.433327 -0.02359487
vt 0.4333268 -0.6768355
vt 0.3246779 -0.6768355
vt 0.3246781 -0.02359486
vt 0.4333268 -0.6768355
vt 0.002815604 1.999001
vt 0.001498461 1.452279
vt 0.3043523 1.999001
vt 1.044209 1.452279
vt 0.3043523 1.999001
vt 0.001498461 1.452279
vt 0.3210154 0.9290414
vt 0.3246779 -0.6768355
vt 0.3210154 0.9290414
vt 0.4520056 0.9290414
vt 0.3210154 0.9290414
vt 0.3246779 -0.6768355
vt 2.983273 1.452279
vt 2.986496 1.999001
vt 2.877521 1.452279
vt 2.882581 1.999001
vt 2.986496 1.999001
vt 2.983273 1.452279
vt 2.877521 0.9674518
vt 2.983273 1.452279
vt 2.877521 0.9674518
vt 2.990016 0.9674518
vt 2.877521 0.9674518
vt 2.990016 0.0009989738
vt 2.877521 0.9674518
vt 2.877521 0.0009989738
vt 1.54046 1.999001
vt 1.54046 1.999001
vt 2.882581 1.999001
vt 2.877521 0.9674518
vt 1.537236 0.9674518
vt 2.877521 0.9674518
vt 2.877521 0.0009989738
vt 1.537236 0.0009989738

usemtl sn05_01_sn05d.jpg
usemap sn05_01_sn05d.jpg
f 3/3/3 1/1/1 2/2/2
f 6/6/6 4/4/4 5/5/5
f 8/8/8 4/4/4 7/7/7
f 7/7/7 9/9/9 8/8/8
f 8/8/8 10/10/10 11/11/11
f 13/13/13 12/12/12 8/8/8
f 16/16/16 14/14/14 15/15/15
f 17/17/17 8/8/8 9/9/9
f 18/18/18 5/5/5 4/4/4
f 4/4/4 8/8/8 12/12/12
f 19/19/19 7/7/7 4/4/4
f 4/4/4 20/20/20 19/19/19
f 40/40/40 38/38/38 39/39/39
f 43/43/43 41/41/41 42/42/42
f 19/19/19 44/44/44 45/45/45
f 46/46/46 7/7/7 19/19/19
f 57/57/57 55/55/55 56/56/56
f 60/60/60 58/58/58 59/59/59
f 62/62/62 61/61/61 7/7/7
f 7/7/7 63/63/63 64/64/64
f 16/16/16 65/65/65 66/66/66
f 91/91/91 89/89/89 90/90/90
f 90/90/90 92/92/92 91/91/91
f 89/89/89 91/91/91 93/93/93
f 93/93/93 94/94/94 89/89/89
f 102/102/102 100/100/100 101/101/101
f 105/105/105 103/103/103 104/104/104
f 114/114/114 112/112/112 113/113/113
f 116/116/116 115/115/115 114/114/114
f 118/118/118 117/117/117 114/114/114
f 121/121/121 119/119/119 120/120/120
f 123/123/123 121/121/121 122/122/122
f 125/125/125 123/123/123 124/124/124
f 114/114/114 126/126/126 19/19/19
f 128/128/128 127/127/127 114/114/114
f 130/130/130 129/129/129 114/114/114
f 19/19/19 130/130/130 114/114/114
f 125/125/125 131/131/131 130/130/130
f 133/133/133 132/132/132 130/130/130

usemtl sn05_26_s1.jpg
usemap sn05_26_s1.jpg
f 23/23/23 21/21/21 22/22/22
f 22/22/22 24/24/24 23/23/23
f 26/26/26 25/25/25 22/22/22
f 22/22/22 21/21/21 26/26/26
f 29/29/29 27/27/27 28/28/28
f 31/31/31 30/30/30 29/29/29
f 33/33/33 29/29/29 32/32/32
f 32/32/32 34/34/34 35/35/35
f 23/23/23 24/24/24 36/36/36
f 36/36/36 37/37/37 23/23/23
f 49/49/49 47/47/47 48/48/48
f 50/50/50 32/32/32 49/49/49
f 53/53/53 51/51/51 52/52/52
f 52/52/52 54/54/54 53/53/53
f 69/69/69 67/67/67 68/68/68
f 72/72/72 70/70/70 71/71/71
f 73/73/73 68/68/68 67/67/67
f 76/76/76 74/74/74 75/75/75
f 79/79/79 77/77/77 78/78/78
f 80/80/80 75/75/75 74/74/74
f 83/83/83 81/81/81 82/82/82
f 82/82/82 84/84/84 83/83/83
f 87/87/87 85/85/85 86/86/86
f 82/82/82 81/81/81 88/88/88
f 83/83/83 95/95/95 96/96/96
f 99/99/99 97/97/97 98/98/98
f 108/108/108 106/106/106 107/107/107
f 111/111/111 109/109/109 110/110/110
