mtllib ./Box86.mtl
g Box86
v -106.3974 -0.0002746582 105.4497
v -106.3974 -0.0002746582 -14.77103
v 96.84723 -0.0002746582 -14.77106
v 96.84723 -0.0002746582 105.4497
v 96.84723 -0.0002746582 -14.77106
v 57.4527 26.84308 -14.77106
v 57.69373 26.71295 86.80743
v 96.84723 -0.0002746582 105.4497
v 0.9872437 48.29974 -114.5153
v 0.9872437 48.29974 -14.77103
v 57.4527 26.84308 -14.77106
v 57.19879 26.98016 -121.7708
v -106.3974 -0.0002746582 -140.3739
v -60.4346 26.84039 -121.7839
v 57.19879 26.98016 -121.7708
v 96.84723 -0.0002746582 -140.3739
v -60.4346 26.84039 -121.7839
v -106.3974 -0.0002746582 -140.3739
v -106.3974 -0.0002746582 -14.77103
v -60.52448 26.90411 -14.77103
v 0.9872437 48.29974 79.59042
v 0.9872437 48.29974 -14.77103
v -60.52448 26.90411 -14.77103
v -60.60983 26.9646 86.82639
v -106.3974 -0.0002746582 105.4497
v 96.84723 -0.0002746582 105.4497
v 57.69373 26.71295 86.80743
v -60.60983 26.9646 86.82639
v 57.19879 26.98016 -121.7708
v -60.4346 26.84039 -121.7839
v 0.9872437 48.29974 -114.5153
v -60.60983 26.9646 86.82639
v 57.69373 26.71295 86.80743
v 0.9872437 48.29974 79.59042
v -106.3974 -0.0002746582 -140.3739
v 96.84723 -0.0002746582 -140.3739
v 96.84723 -0.0002746582 -140.3739
v 0.9872437 48.29974 79.59042
v 57.69373 26.71295 86.80743
v -106.3974 -0.0002746582 105.4497
v 0.9872437 48.29974 -114.5153
v -60.4346 26.84039 -121.7839

vn 0 -0.9999999 0
vn 0 -0.9999999 0
vn 0 -0.9999999 0
vn 0 -0.9999999 0
vn 0.5630868 0.8263978 -0.0001273451
vn 0.5630997 0.8263889 -0.0002774723
vn 0.5633654 0.8262079 -0.0001274721
vn 0.5635911 0.8260539 0
vn 0.3549307 0.9348926 0.0001839985
vn 0.3552148 0.9347847 0
vn 0.3551999 0.9347904 0.0001837337
vn 0.4896819 0.8719011 5.028433E-05
vn -0.0002141202 0.5685282 -0.8226637
vn -0.0005858924 0.5700539 -0.8216071
vn -0.0002141202 0.5685282 -0.8226637
vn -6.414352E-08 0.5676488 -0.8232707
vn -0.5050273 0.8631033 -0.0004315551
vn -0.5042782 0.8635412 0
vn -0.5058656 0.8626121 -0.0004308348
vn -0.5059066 0.8625878 -0.0009385447
vn -0.3279294 0.944702 -0.0004344401
vn -0.3285241 0.9444956 0
vn -0.3285569 0.9444842 -0.0004342649
vn -0.444237 0.8959091 -0.0005792474
vn 0.0004947738 0.5702426 0.8214762
vn 1.231326E-07 0.5722878 0.8200529
vn 0.0004947738 0.5702426 0.8214762
vn 0.001337536 0.5667496 0.823889
vn -0.0002766392 0.3215192 -0.946903
vn -0.0002766392 0.3215192 -0.946903
vn -0.0002766392 0.3215192 -0.946903
vn 0.0008304548 0.3190358 0.9477423
vn 0.0008304548 0.3190358 0.9477423
vn 0.0008304548 0.3190358 0.9477423
vn 0 -1 0
vn 0 -0.9999999 0
vn 0.562588 0.8267373 0
vn 0.3554826 0.9346828 0.0001834554
vn 0.3557304 0.9345886 0.0003531678
vn -0.5074539 0.861679 0
vn -0.3291519 0.9442769 -0.0004340984
vn -0.3297374 0.9440724 -0.0008390818

vt 0.9995002 0.9995005
vt 0.5109359 0.9995004
vt 0.5109363 0.0004995498
vt 0.9995005 0.0004996955
vt 0.5077648 0.04871019
vt 0.4894495 0.5316774
vt -0.5893242 0.5289301
vt -0.7691156 0.04871033
vt 1.503049 0.9668348
vt 0.4488267 0.9488448
vt 0.4951109 0.5132009
vt 1.625798 0.5345712
vt 1.456861 0.3721573
vt 1.026549 0.7038985
vt -0.08291441 0.6476379
vt -0.4600521 0.2706832
vt 1.668126 0.4926245
vt 1.852249 1.000699
vt 0.5909632 1.000699
vt 0.5935163 0.4930139
vt -0.3563837 0.01962681
vt 0.5845633 -0.003876305
vt 0.5863899 0.4676569
vt -0.4267125 0.4933836
vt -0.382348 0.0004994869
vt 1.366021 0.0004994869
vt 1.040759 0.5915611
vt 0.005927079 0.5943807
vt 0.01459223 0.2832603
vt 0.976374 0.2767537
vt 0.4778758 0.8520686
vt 0.0004995167 0.3506468
vt 0.9995005 0.3390019
vt 0.5206493 0.7539932
vt 0.0004995167 0.9995003
vt 0.0004999042 0.0004993975
vt 1.841809 0.04871005
vt -0.5485029 0.9318256
vt -0.5782881 0.4929133
vt -0.6162768 1.000699
vt 1.579186 -0.02872014
vt 1.653493 0.4405588

usemtl sn05_-01_
usemap sn05_-01_
f 3/3/3 1/1/1 2/2/2
f 1/1/1 3/3/3 4/4/4
f 3/3/3 35/35/35 36/36/36
f 35/35/35 3/3/3 2/2/2

usemtl sn05_08_sn05roof.jpg
usemap sn05_08_sn05roof.jpg
f 7/7/7 5/5/5 6/6/6
f 5/5/5 7/7/7 8/8/8
f 11/11/11 9/9/9 10/10/10
f 9/9/9 11/11/11 12/12/12
f 15/15/15 13/13/13 14/14/14
f 13/13/13 15/15/15 16/16/16
f 19/19/19 17/17/17 18/18/18
f 17/17/17 19/19/19 20/20/20
f 23/23/23 21/21/21 22/22/22
f 21/21/21 23/23/23 24/24/24
f 27/27/27 25/25/25 26/26/26
f 25/25/25 27/27/27 28/28/28
f 12/12/12 5/5/5 37/37/37
f 5/5/5 12/12/12 6/6/6
f 11/11/11 38/38/38 39/39/39
f 38/38/38 11/11/11 10/10/10
f 24/24/24 19/19/19 40/40/40
f 19/19/19 24/24/24 20/20/20
f 23/23/23 41/41/41 42/42/42
f 41/41/41 23/23/23 22/22/22

usemtl sn05_23_sn05wa2.jpg
usemap sn05_23_sn05wa2.jpg
f 31/31/31 29/29/29 30/30/30
f 34/34/34 32/32/32 33/33/33
