mtllib ./Box87.mtl
g Box87
v 11.65643 11.53183 -82.93977
v 23.58533 0.0001220703 -253.7133
v 13.54291 13.39001 -241.6182
v -2.521973 25.23819 -235.6279
v -2.521973 25.23819 -82.56805
v -31.04456 0.0001220703 -253.7133
v -20.6405 13.25024 -241.6319
v 13.54291 13.39001 -241.6182
v 23.58533 0.0001220703 -253.7133
v -20.6405 13.25024 -241.6319
v -31.04456 0.0001220703 -253.7133
v -31.04456 0.0001220703 -82.56805
v -20.65912 13.30862 -82.56805
v -2.521973 25.23819 90.84827
v -2.521973 25.23819 -82.56805
v -20.68018 13.37448 96.81973
v -31.04456 0.0001220703 108.9344
v 23.58527 0.0001220703 108.9344
v 12.45721 12.50922 94.85738
v -20.68018 13.37448 96.81973
v 13.54291 13.39001 -241.6182
v -20.6405 13.25024 -241.6319
v -2.521973 25.23819 -235.6279
v -20.68018 13.37448 96.81973
v 12.45721 12.50922 94.85738
v -2.521973 25.23819 90.84827
v -2.521973 25.23819 90.84827
v 12.45721 12.50922 94.85738
v -31.04456 0.0001220703 108.9344
v -2.521973 25.23819 -235.6279
v 23.58527 0.0001220703 108.9344
v 23.58533 0.0001220703 -82.56805

vn 0.7163559 0.697727 0.003347813
vn 0.7519547 0.6591661 0.008014572
vn 0.6989051 0.7151306 0.01094823
vn 0.5935526 0.8047951 0
vn 0.6600009 0.751262 0.002092383
vn -0.0009441419 0.6720439 -0.7405106
vn -0.002465377 0.6748212 -0.7379771
vn -0.0009441419 0.6720439 -0.7405106
vn 0 0.6703148 -0.7420768
vn -0.7057834 0.7084277 -0.0002395184
vn -0.7865132 0.6175735 0
vn -0.7884827 0.6150569 -0.0001536077
vn -0.623886 0.7815153 -0.0002280387
vn -0.5482666 0.8363035 -0.0001888337
vn -0.5495275 0.8354756 0
vn -0.7057165 0.7084942 -0.0002403028
vn 0.02271827 0.7114261 0.7023936
vn 0 0.7475089 0.6642517
vn 0.02271827 0.7114261 0.7023936
vn 0.06198893 0.6432353 0.7631551
vn -0.001482681 0.4495991 -0.8932292
vn -0.001482681 0.4495991 -0.8932292
vn -0.001482681 0.4495991 -0.8932292
vn 0.06453961 0.3680888 0.9275481
vn 0.06453961 0.3680888 0.9275481
vn 0.06453961 0.3680888 0.9275481
vn 0.6475499 0.7620231 0
vn 0.6962858 0.7177561 -0.003502524
vn -0.7904365 0.6125441 0
vn -0.5506402 0.8347427 -0.0001889735
vn 0.7471465 0.6646594 2.379555E-07
vn 0.7141076 0.7000321 -0.002324014

vt 0.5645593 0.4660954
vt 2.801574 0.2209833
vt 2.643138 0.4273321
vt 2.564669 0.7574298
vt 0.5596902 0.7574299
vt 0.9995003 0.0004994869
vt 0.8214546 0.5708758
vt 0.200081 0.5291594
vt 0.0004995465 0.0004994869
vt -1.039319 0.2799645
vt -1.148671 0.02121592
vt 0.400408 0.02121579
vt 0.400408 0.2795007
vt 1.970044 0.7305703
vt 0.4004084 0.7305705
vt 2.024093 0.2789777
vt 0.07785229 0.0004994869
vt 0.9244631 0.0004994869
vt 0.7252868 0.6509572
vt 0.1747138 0.6525932
vt 0.0004995763 0.002772003
vt 0.9995005 0.0004985631
vt 0.4699918 0.9994995
vt 0.9995005 0.9995001
vt 0.00584582 0.9849004
vt 0.471177 0.0004990101
vt -1.711944 0.75743
vt -1.764461 0.4496413
vt 2.133745 0.02121564
vt -0.9849755 0.7305706
vt -1.94886 0.2209836
vt 0.5596897 0.2209834

usemtl sn05_08_sn05roof.jpg
usemap sn05_08_sn05roof.jpg
f 3/3/3 1/1/1 2/2/2
f 3/3/3 4/4/4 5/5/5
f 8/8/8 6/6/6 7/7/7
f 6/6/6 8/8/8 9/9/9
f 12/12/12 10/10/10 11/11/11
f 10/10/10 12/12/12 13/13/13
f 13/13/13 14/14/14 15/15/15
f 14/14/14 13/13/13 16/16/16
f 19/19/19 17/17/17 18/18/18
f 17/17/17 19/19/19 20/20/20
f 28/28/28 5/5/5 27/27/27
f 1/1/1 5/5/5 28/28/28
f 16/16/16 12/12/12 29/29/29
f 12/12/12 16/16/16 13/13/13
f 13/13/13 30/30/30 10/10/10
f 30/30/30 13/13/13 15/15/15
f 32/32/32 28/28/28 31/31/31
f 32/32/32 1/1/1 28/28/28
f 3/3/3 5/5/5 1/1/1
f 2/2/2 1/1/1 32/32/32

usemtl sn05_23_sn05wa2.jpg
usemap sn05_23_sn05wa2.jpg
f 23/23/23 21/21/21 22/22/22
f 26/26/26 24/24/24 25/25/25
