mtllib ./inder31.mtl
g inder31
v 3.200043 -4.33004 -0.0002861023
v 6.155907 -0.3302765 -0.0002861023
v -6.155823 -0.3302765 -0.0002861023
v -3.199951 -4.33004 -0.0002861023
v 3.082977 -4.33004 -94.73265
v 3.200043 -4.33004 -0.0002861023
v -3.199951 -4.33004 -0.0002861023
v -3.082886 -4.33004 -94.73265
v -6.155823 -0.3302765 -0.0002861023
v -5.930618 -0.3302765 -94.73265
v -4.809219 -0.3302765 -566.4594
v 4.809311 -0.3302765 -566.4594
v 2.500046 -4.33004 -566.4594
v -2.499954 -4.33004 -566.4594
v 6.155907 -0.3302765 -0.0002861023
v 5.93071 -0.3302765 -94.73265
v -2.838081 -4.33004 -292.8394
v -2.675652 -4.33004 -424.2833
v 2.675735 -4.33004 -424.2833
v 2.838173 -4.33004 -292.8394
v -5.459671 -0.3302765 -292.8394
v -5.147202 -0.3302765 -424.2833
v 5.147293 -0.3302765 -424.2833
v 5.459763 -0.3302765 -292.8394
v -2.954445 -4.33004 -198.6763
v 2.954529 -4.33004 -198.6763
v -5.683517 -0.3302765 -198.6763
v 5.683609 -0.3302765 -198.6763
v -2.499954 -4.33004 -566.4594
v 2.500046 -4.33004 -566.4594
v -4.809219 -0.3302765 -566.4594
v 4.809311 -0.3302765 -566.4594

vn 0 0 1
vn 0 0 1
vn 0 0 1
vn 0 0 0.9999999
vn 0.3358551 -0.9419134 -0.0005388072
vn 0.3930979 -0.9194964 -0.0004857704
vn -0.3992634 -0.916836 -0.0007212733
vn -0.5039667 -0.8637227 -0.0008203617
vn -0.8042204 -0.5943282 -0.001911849
vn -0.8112622 -0.5846802 -0.001629586
vn 0 0 -1
vn 0 0 -1
vn 0 0 -1
vn 0 0 -0.9999999
vn 0.80942 -0.5872281 -0.001462193
vn 0.8185434 -0.5744423 -0.001624933
vn -0.2768637 -0.9609092 -0.0003421337
vn -0.6140469 -0.7892687 -0.001109264
vn 0.2910455 -0.9567091 -0.0003596607
vn 0.5924774 -0.8055863 -0.001070299
vn -0.8383981 -0.5450563 -0.00151455
vn -0.8506909 -0.5256624 -0.00202227
vn 0.8512735 -0.5247198 -0.00153781
vn 0.8363583 -0.5481795 -0.001988202
vn -0.4102051 -0.911993 -0.0006577582
vn 0.4292878 -0.9031675 -0.0006991179
vn -0.8221104 -0.5693259 -0.001631394
vn 0.8293656 -0.5587039 -0.001666572
vn -0.3012452 -0.9535466 -0.0003722705
vn 0.6330969 -0.7740718 -0.001143667
vn -0.8583853 -0.513003 -0.001550665
vn 0.8660235 -0.499999 -0.002058719

vt 0.2502497 0.0004996061
vt 0.01955375 0.4618916
vt 0.9804462 0.4618914
vt 0.7497502 0.0004995167
vt 0.7133615 -0.4642425
vt 0.7133615 -0.9259256
vt 0.8150172 -0.9259256
vt 0.8150172 -0.4642425
vt 0.89349 -0.9259256
vt 0.89349 -0.4642425
vt 0.9804462 0.4618914
vt 0.01955375 0.4618916
vt 0.2502497 0.0004996061
vt 0.7497502 0.0004995167
vt 0.6348886 -0.9259256
vt 0.6348886 -0.4642425
vt 0.8150172 0.5012411
vt 0.8150172 1.14184
vt 0.7133615 1.14184
vt 0.7133615 0.5012412
vt 0.89349 0.5012412
vt 0.89349 1.14184
vt 0.6348886 1.14184
vt 0.6348886 0.5012412
vt 0.8150172 0.04233235
vt 0.7133615 0.04233235
vt 0.89349 0.04233238
vt 0.6348886 0.04233235
vt 0.8150172 1.834742
vt 0.7133615 1.834742
vt 0.89349 1.834742
vt 0.6348886 1.834742

usemtl sn05_00_sn05zu.jpg
usemap sn05_00_sn05zu.jpg
f 3/3/3 1/1/1 2/2/2
f 1/1/1 3/3/3 4/4/4
f 7/7/7 5/5/5 6/6/6
f 5/5/5 7/7/7 8/8/8
f 10/10/10 7/7/7 9/9/9
f 7/7/7 10/10/10 8/8/8
f 13/13/13 11/11/11 12/12/12
f 11/11/11 13/13/13 14/14/14
f 5/5/5 15/15/15 6/6/6
f 15/15/15 5/5/5 16/16/16
f 19/19/19 17/17/17 18/18/18
f 17/17/17 19/19/19 20/20/20
f 18/18/18 21/21/21 22/22/22
f 21/21/21 18/18/18 17/17/17
f 23/23/23 20/20/20 19/19/19
f 20/20/20 23/23/23 24/24/24
f 25/25/25 5/5/5 8/8/8
f 5/5/5 25/25/25 26/26/26
f 27/27/27 8/8/8 10/10/10
f 8/8/8 27/27/27 25/25/25
f 26/26/26 16/16/16 5/5/5
f 16/16/16 26/26/26 28/28/28
f 26/26/26 17/17/17 20/20/20
f 17/17/17 26/26/26 25/25/25
f 25/25/25 21/21/21 17/17/17
f 21/21/21 25/25/25 27/27/27
f 28/28/28 20/20/20 24/24/24
f 20/20/20 28/28/28 26/26/26
f 19/19/19 29/29/29 30/30/30
f 29/29/29 19/19/19 18/18/18
f 18/18/18 31/31/31 29/29/29
f 31/31/31 18/18/18 22/22/22
f 23/23/23 30/30/30 32/32/32
f 30/30/30 23/23/23 19/19/19
