mtllib ./lt01.mtl
g lt01
v 45.28534 25.13026 -35.61258
v 45.28534 30.13026 -35.61258
v 45.28534 30.13026 -29.65656
v 45.28534 25.09195 -29.65017
v -45.28503 25.13029 -35.61259
v -45.28503 25.09196 -29.65018
v -45.28503 30.13029 -29.65657
v -45.28503 30.13029 -35.61259
v 45.28534 25.13026 -35.61258
v 45.28534 25.09195 -29.65017
v -45.28503 25.09196 -29.65018
v -45.28503 25.13029 -35.61259
v 45.28534 25.09195 -29.65017
v 45.28534 30.13026 -29.65656
v -45.28503 30.13029 -29.65657
v -45.28503 25.09196 -29.65018
v 45.28534 30.13026 -29.65656
v 45.28534 30.13026 -35.61258
v -45.28503 30.13029 -35.61259
v -45.28503 30.13029 -29.65657
v 45.28534 30.13026 -35.61258
v -45.28503 25.13029 -35.61259
v 45.28534 20.05363 -29.64377
v 45.28534 25.09195 -29.65017
v 45.28534 25.05363 -23.68776
v 45.28534 20.03908 -23.73826
v -45.28503 20.05367 -29.64378
v -45.28503 20.03911 -23.73827
v -45.28503 25.05367 -23.68777
v -45.28503 25.09196 -29.65018
v 45.28534 20.05363 -29.64377
v 45.28534 20.03908 -23.73826
v -45.28503 20.03911 -23.73827
v -45.28503 20.05367 -29.64378
v 45.28534 20.03908 -23.73826
v 45.28534 25.05363 -23.68776
v -45.28503 25.05367 -23.68777
v -45.28503 20.03911 -23.73827
v 45.28534 25.05363 -23.68776
v -45.28503 25.05367 -23.68777
v -45.28503 20.05367 -29.64378
v 45.28534 15.02454 -23.78877
v 45.28534 20.03908 -23.73826
v 45.28534 20.02452 -17.83275
v 45.2854 15.00932 -17.79445
v -45.28503 15.02455 -23.78878
v -45.28503 15.00935 -17.79446
v -45.28503 20.02455 -17.83276
v -45.28503 20.03911 -23.73827
v 45.28534 15.02454 -23.78877
v 45.2854 15.00932 -17.79445
v -45.28503 15.00935 -17.79446
v -45.28503 15.02455 -23.78878
v 45.2854 15.00932 -17.79445
v 45.28534 20.02452 -17.83275
v -45.28503 20.02455 -17.83276
v -45.28503 15.00935 -17.79446
v 45.28534 20.02452 -17.83275
v -45.28503 20.02455 -17.83276
v -45.28503 15.02455 -23.78878
v 45.2854 9.994125 -17.75613
v 45.2854 15.00932 -17.79445
v 45.2854 14.99413 -11.80012
v 45.2854 10.03239 -11.82028
v -45.28497 9.994141 -17.75615
v -45.28497 10.03242 -11.82029
v -45.28497 14.99414 -11.80013
v -45.28503 15.00935 -17.79446
v 45.2854 9.994125 -17.75613
v 45.2854 10.03239 -11.82028
v -45.28497 10.03242 -11.82029
v -45.28497 9.994141 -17.75615
v 45.2854 10.03239 -11.82028
v 45.2854 14.99413 -11.80012
v -45.28497 14.99414 -11.80013
v -45.28497 10.03242 -11.82029
v 45.2854 14.99413 -11.80012
v -45.28497 14.99414 -11.80013
v -45.28497 9.994141 -17.75615
v 45.2854 5.070694 -11.84044
v 45.2854 10.03239 -11.82028
v 45.2854 10.07068 -5.884422
v 45.2854 5.032364 -5.878029
v -45.28497 5.070709 -11.84045
v -45.28497 5.032394 -5.87804
v -45.28497 10.07069 -5.884432
v -45.28497 10.03242 -11.82029
v 45.2854 5.070694 -11.84044
v 45.2854 5.032364 -5.878029
v -45.28497 5.032394 -5.87804
v -45.28497 5.070709 -11.84045
v 45.2854 5.032364 -5.878029
v 45.2854 10.07068 -5.884422
v -45.28497 10.07069 -5.884432
v -45.28497 5.032394 -5.87804
v 45.2854 10.07068 -5.884422
v -45.28497 10.07069 -5.884432
v -45.28497 5.070709 -11.84045
v 45.2854 -0.005950928 -5.87163
v 45.2854 5.032364 -5.878029
v 45.2854 4.994049 0.08438301
v 45.2854 -0.02049255 0.03388596
v -45.28497 -0.00592041 -5.871641
v -45.28497 -0.02047729 0.03387451
v -45.28497 4.99408 0.08437347
v -45.28497 5.032394 -5.87804
v 45.2854 -0.005950928 -5.87163
v 45.2854 -0.02049255 0.03388596
v -45.28497 -0.02047729 0.03387451
v -45.28497 -0.00592041 -5.871641
v 45.2854 -0.02049255 0.03388596
v 45.2854 4.994049 0.08438301
v -45.28497 4.99408 0.08437347
v -45.28497 -0.02047729 0.03387451
v 45.2854 4.994049 0.08438301
v -45.28497 4.99408 0.08437347
v -45.28497 -0.00592041 -5.871641
v 45.2854 -5.035049 -0.01661301
v 45.2854 -0.02049255 0.03388596
v 45.2854 -0.03504944 5.939402
v 45.2854 -5.058319 5.918626
v -45.28497 -5.035034 -0.01662445
v -45.28497 -5.058304 5.918615
v -45.28497 -0.03503418 5.939391
v -45.28497 -0.02047729 0.03387451
v 45.2854 -5.035049 -0.01661301
v 45.2854 -5.058319 5.918626
v -45.28497 -5.058304 5.918615
v -45.28497 -5.035034 -0.01662445
v 45.2854 -5.058319 5.918626
v 45.2854 -0.03504944 5.939402
v -45.28497 -0.03503418 5.939391
v -45.28497 -5.058304 5.918615
v 45.2854 -0.03504944 5.939402
v -45.28497 -0.03503418 5.939391
v -45.28497 -5.035034 -0.01662445
v 45.2854 -10.08159 5.897851
v 45.2854 -5.058319 5.918626
v 45.2854 -5.081589 11.85386
v 45.2854 -10.04329 11.83371
v -45.28497 -10.08156 5.89784
v -45.28503 -10.04327 11.8337
v -45.28497 -5.081558 11.85385
v -45.28497 -5.058304 5.918615
v 45.2854 -10.08159 5.897851
v 45.2854 -10.04329 11.83371
v -45.28503 -10.04327 11.8337
v -45.28497 -10.08156 5.89784
v 45.2854 -10.04329 11.83371
v 45.2854 -5.081589 11.85386
v -45.28497 -5.081558 11.85385
v -45.28503 -10.04327 11.8337
v 45.2854 -5.081589 11.85386
v -45.28497 -5.081558 11.85385
v -45.28497 -10.08156 5.89784
v 45.28534 -15.00502 11.81355
v 45.2854 -10.04329 11.83371
v 45.28534 -10.00502 17.76956
v 45.28534 -15.04332 17.77595
v -45.28503 -15.00499 11.81354
v -45.28503 -15.0433 17.77594
v -45.28503 -10.00499 17.76955
v -45.28503 -10.04327 11.8337
v 45.28534 -15.00502 11.81355
v 45.28534 -15.04332 17.77595
v -45.28503 -15.0433 17.77594
v -45.28503 -15.00499 11.81354
v 45.28534 -15.04332 17.77595
v 45.28534 -10.00502 17.76956
v -45.28503 -10.00499 17.76955
v -45.28503 -15.0433 17.77594
v 45.28534 -10.00502 17.76956
v -45.28503 -10.00499 17.76955
v -45.28503 -15.00499 11.81354
v 45.28534 -20.08165 17.78236
v 45.28534 -15.04332 17.77595
v 45.28534 -15.08165 23.73837
v 45.28534 -20.09621 23.68787
v -45.28503 -20.08162 17.78234
v -45.28503 -20.09618 23.68786
v -45.28503 -15.08162 23.73836
v -45.28503 -15.0433 17.77594
v 45.28534 -20.08165 17.78236
v 45.28534 -20.09621 23.68787
v -45.28503 -20.09618 23.68786
v -45.28503 -20.08162 17.78234
v 45.28534 -20.09621 23.68787
v 45.28534 -15.08165 23.73837
v -45.28503 -15.08162 23.73836
v -45.28503 -20.09618 23.68786
v 45.28534 -15.08165 23.73837
v -45.28503 -15.08162 23.73836
v -45.28503 -20.08162 17.78234
v 45.28534 -25.11075 23.63737
v 45.28534 -20.09621 23.68787
v 45.28534 -20.11075 29.59339
v 45.28534 -25.1207 29.62458
v -45.28503 -25.11073 23.63736
v -45.28503 -25.12067 29.62457
v -45.28503 -20.11073 29.59338
v -45.28503 -20.09618 23.68786
v 45.28534 -25.11075 23.63737
v 45.28534 -25.1207 29.62458
v -45.28503 -25.12067 29.62457
v -45.28503 -25.11073 23.63736
v 45.28534 -25.1207 29.62458
v 45.28534 -20.11075 29.59339
v -45.28503 -20.11073 29.59338
v -45.28503 -25.12067 29.62457
v 45.28534 -20.11075 29.59339
v -45.28503 -20.11073 29.59338
v -45.28503 -25.11073 23.63736
v 45.2854 -30.13065 29.65577
v 45.28534 -25.1207 29.62458
v 45.2854 -25.13065 35.61178
v 45.2854 -30.13065 35.61178
v -45.28503 -30.13062 29.65575
v -45.28503 -30.13062 35.61177
v -45.28503 -25.13062 35.61177
v -45.28503 -25.12067 29.62457
v 45.2854 -30.13065 29.65577
v 45.2854 -30.13065 35.61178
v -45.28503 -30.13062 35.61177
v -45.28503 -30.13062 29.65575
v 45.2854 -30.13065 35.61178
v 45.2854 -25.13065 35.61178
v -45.28503 -25.13062 35.61177
v -45.28503 -30.13062 35.61177
v 45.2854 -25.13065 35.61178
v -45.28503 -25.13062 35.61177
v -45.28503 -30.13062 29.65575

vn 0.1309594 -1.512738E-06 -0.9913877
vn 1 0 0
vn 0.9999999 0 0
vn 0.0328979 -0.001269412 -0.999458
vn -1 0 0
vn -1 0 0
vn -1 0 0
vn -0.06561938 7.612951E-07 -0.9978447
vn -2.51761E-07 -0.9999793 -0.006427211
vn 0 1 0
vn 5.117343E-05 0.3144095 -0.9492875
vn -3.355891E-07 -0.9999793 -0.006428484
vn -1.049772E-07 0.001268581 0.9999992
vn -1.259254E-07 0.001268204 0.9999992
vn -1.049772E-07 0.001268581 0.9999992
vn -8.402896E-08 0.001268958 0.9999992
vn 3.369488E-07 1 0
vn 3.369488E-07 1 0
vn 3.369488E-07 1 0
vn 3.369488E-07 1 0
vn 1.47415E-07 -3.814697E-07 -0.9999999
vn 1.47415E-07 -3.814697E-07 -0.9999999
vn 0.1296261 -0.001259757 -0.9915621
vn 0.9999999 0 0
vn 0.9999999 0 0
vn 0.03258377 0.01006577 -0.9994183
vn -1 0 0
vn -1 0 0
vn -1 0 0
vn -0.06568893 -0.00126698 -0.9978393
vn -3.366417E-07 -0.9999969 -0.002464959
vn 0 0 0
vn 0 0 0
vn -3.366417E-07 -0.9999969 -0.002464959
vn -1.508511E-07 -0.0100711 0.9999493
vn -1.719138E-07 -0.01007148 0.9999493
vn -1.508511E-07 -0.0100711 0.9999493
vn -1.297883E-07 -0.01007072 0.9999493
vn 2.518988E-07 0.9999794 0.006424646
vn 3.358653E-07 0.9999793 0.00642337
vn 1.049775E-07 -0.001270099 -0.9999992
vn 0.1302704 0.009986476 -0.9914282
vn 1 0 0
vn 1 6.091638E-06 -5.113837E-06
vn 0.03307242 -0.007634166 -0.9994237
vn -1 0 0
vn -1 0 0
vn -1 0 0
vn -0.06506357 0.01004938 -0.9978305
vn -2.524492E-07 -0.9999968 -0.002536623
vn -5.391184E-06 0 -1
vn -0.0001831055 0.9999999 0.0003255208
vn -1.68263E-07 -0.9999967 -0.002535351
vn -1.237713E-07 0.007637999 0.9999709
vn -1.237713E-07 0.007637999 0.9999709
vn -1.237713E-07 0.007637999 0.9999709
vn -1.237712E-07 0.007637999 0.9999709
vn 3.366417E-07 0.9999969 0.002464959
vn 3.366417E-07 0.9999969 0.002464959
vn 1.078728E-07 0.01007112 -0.9999493
vn 0.1299072 -0.00757403 -0.9914973
vn 1 0 0
vn 0.9999999 0 0
vn 0.03275087 0.004060271 -0.9994552
vn -1 -6.108299E-06 5.127843E-06
vn -1 0 0
vn -1 -6.108299E-06 5.127843E-06
vn -0.06603636 -0.007622865 -0.997788
vn -2.535247E-07 -0.9999792 0.006448249
vn 0 0 -0.9999999
vn -0.000406901 0.9999999 0
vn -1.692936E-07 -0.9999792 0.006449534
vn -1.273875E-07 -0.004062438 0.9999918
vn -1.270475E-07 -0.004062432 0.9999918
vn -1.273875E-07 -0.004062438 0.9999918
vn -1.277276E-07 -0.004062444 0.9999918
vn 2.523873E-07 0.9999967 0.002536622
vn 1.681531E-07 0.9999968 0.002537895
vn 1.244108E-07 -0.007638747 -0.9999708
vn 0.1312386 0.00402732 -0.9913427
vn 1 0 0
vn 1 0 0
vn 0.03289789 -0.00126941 -0.9994579
vn -0.9999999 0 0
vn -1 0 0
vn -0.9999999 0 0
vn -0.06539597 0.004053749 -0.9978513
vn -2.518853E-07 -0.9999793 -0.006427214
vn 1.001911E-05 0.3693445 -0.9292926
vn 0.04825629 0.6791252 -0.7324345
vn -1.676568E-07 -0.9999794 -0.006425934
vn -1.155087E-07 0.001268774 0.9999992
vn -1.050835E-07 0.001268962 0.9999992
vn -1.155087E-07 0.001268774 0.9999992
vn -1.25934E-07 0.001268587 0.9999992
vn 2.534553E-07 0.9999793 -0.006448248
vn 1.69155E-07 0.9999792 -0.006446962
vn 1.273796E-07 0.004062451 -0.9999918
vn 0.1296259 -0.001259381 -0.9915621
vn 1 0 0
vn 1 0 0
vn 0.03258368 0.01006461 -0.9994183
vn -0.9999999 0 0
vn -1 0 0
vn -0.9999999 0 0
vn -0.06568893 -0.001267354 -0.9978393
vn -2.52401E-07 -0.9999969 -0.002463665
vn 0 0 1
vn -0.0648007 0.08779415 0.9940287
vn -3.366414E-07 -0.9999969 -0.002464957
vn -1.183385E-07 -0.01006979 0.9999493
vn -1.086603E-07 -0.01006961 0.9999493
vn -1.183385E-07 -0.01006979 0.9999493
vn -1.280167E-07 -0.01006996 0.9999493
vn 3.3621E-07 0.9999794 0.006425927
vn 3.36279E-07 0.9999794 0.006425926
vn 1.259254E-07 -0.001270097 -0.9999992
vn 0.1297396 0.009984854 -0.9914979
vn 1 0 0
vn 1 0 0
vn 0.03274874 0.004133568 -0.999455
vn -1 0 0
vn -1 0 0
vn -1 0 0
vn -0.06506366 0.01004863 -0.9978305
vn -1.680106E-07 -0.9999923 -0.003920562
vn 0 0 0
vn 0.06515864 -0.08780713 -0.9940042
vn -1.679828E-07 -0.9999923 -0.003920562
vn -1.165332E-07 -0.004135875 0.9999915
vn -1.165332E-07 -0.004135875 0.9999915
vn -1.165332E-07 -0.004135875 0.9999915
vn -1.165332E-07 -0.004135875 0.9999915
vn 1.681744E-07 0.9999969 0.002464956
vn 1.681883E-07 0.999997 0.002464956
vn 1.280823E-07 0.01006996 -0.9999493
vn 0.1291741 0.004101037 -0.9916134
vn 1 0 0
vn 1 0 0
vn 0.03275056 0.004060355 -0.9994553
vn -1 6.133812E-06 -5.149259E-06
vn -1 1.234332E-05 -1.036206E-05
vn -1 6.133812E-06 -5.149259E-06
vn -0.06539191 0.004127036 -0.9978511
vn -2.53483E-07 -0.9999793 0.006450818
vn 5.327908E-06 -0.1527618 0.988263
vn 5.009555E-06 -0.3693445 0.9292926
vn -3.377556E-07 -0.9999791 0.006449531
vn -1.1686E-07 -0.00406245 0.9999918
vn -1.172001E-07 -0.004062457 0.9999917
vn -1.1686E-07 -0.00406245 0.9999918
vn -1.165199E-07 -0.004062444 0.9999918
vn 2.522654E-07 0.9999923 0.003919276
vn 3.364924E-07 0.9999923 0.003917991
vn 1.221341E-07 0.004135787 -0.9999915
vn 0.131238 0.004026496 -0.9913427
vn 0.9999999 -1.234328E-05 1.036204E-05
vn 1 -6.110558E-06 5.129742E-06
vn 0.03289771 -0.001270543 -0.9994579
vn -1 0 0
vn -1 0 0
vn -1 0 0
vn -0.06539585 0.00405394 -0.9978512
vn -2.518856E-07 -0.9999794 -0.006424661
vn 0 0.5258974 0.850548
vn 3.389945E-06 0.7775719 0.628794
vn -3.361142E-07 -0.9999794 -0.00642594
vn -1.260399E-07 0.001268585 0.9999992
vn -1.25934E-07 0.001268587 0.9999992
vn -1.260399E-07 0.001268585 0.9999992
vn -1.261459E-07 0.001268583 0.9999992
vn 2.534971E-07 0.9999793 -0.006448254
vn 3.37756E-07 0.9999791 -0.006449539
vn 1.221235E-07 0.004062534 -0.9999917
vn 0.129626 -0.001260504 -0.9915621
vn 0.9999999 0 0
vn 1 0 0
vn 0.03258385 0.01006445 -0.9994184
vn -1 0 0
vn -1 0 0
vn -1 0 0
vn -0.06568899 -0.001268487 -0.9978393
vn -3.366414E-07 -0.9999969 -0.002464957
vn 0 0 -1
vn -0.06506819 0 -0.9978808
vn -3.366414E-07 -0.9999969 -0.002464957
vn -1.297227E-07 -0.01006996 0.9999493
vn -1.297227E-07 -0.01006996 0.9999493
vn -1.297227E-07 -0.01006996 0.9999493
vn -1.297227E-07 -0.01006996 0.9999493
vn 2.518985E-07 0.9999793 0.006427199
vn 3.361407E-07 0.9999794 0.00642592
vn 1.260314E-07 -0.001271231 -0.9999992
vn 0.1301271 0.009984372 -0.9914471
vn 1 0 0
vn 1 0 0
vn 0.03303387 -0.006221888 -0.9994348
vn -1 0 0
vn -1 0 0
vn -1 0 0
vn -0.06506364 0.01004826 -0.9978306
vn -2.525129E-07 -0.9999986 -0.001661664
vn 0 -1 0
vn -7.629372E-05 0.999997 0.002441399
vn -2.525301E-07 -0.9999986 -0.001661664
vn -1.250517E-07 0.006225291 0.9999806
vn -1.253143E-07 0.006225285 0.9999806
vn -1.250517E-07 0.006225291 0.9999806
vn -1.247891E-07 0.006225295 0.9999806
vn 2.52401E-07 0.9999969 0.002463665
vn 1.681605E-07 0.9999969 0.002464957
vn 1.187979E-07 0.0100698 -0.9999493
vn 0.1306044 -0.006171164 -0.9914153
vn 0.9999999 1.211945E-05 -1.017413E-05
vn 1 6.081542E-06 -5.10538E-06
vn 1 0 0
vn -1 0 0
vn -1 0 0
vn -1 0 0
vn -0.06595948 -0.006211729 -0.997803
vn -2.527114E-07 -1 0
vn -2.527114E-07 -1 0
vn -2.527114E-07 -1 0
vn -2.527114E-07 -1 0
vn -1.263557E-07 0 1
vn -1.263557E-07 0 1
vn -1.263557E-07 0 1
vn -1.263557E-07 0 1
vn 2.524957E-07 0.9999987 0.001661664
vn 2.524956E-07 0.9999986 0.001661664
vn 1.24756E-07 -0.006225286 -0.9999806

vt 0.5895004 0.0004999042
vt 0.5895003 0.9995005
vt 0.3273112 0.9995002
vt 0.3273113 0.0004995167
vt 0.3273112 0.0004999042
vt 0.5895003 0.0004995167
vt 0.5895004 0.9995002
vt 0.3273113 0.9995005
vt 0.3273112 0.0004995167
vt 0.5895003 0.0004995167
vt 0.5895003 0.9995005
vt 0.3273112 0.9995005
vt 0.3273111 0.0004995167
vt 0.5895002 0.0004995167
vt 0.5895002 0.9995005
vt 0.3273111 0.9995005
vt 0.3273112 0.0004995167
vt 0.5895003 0.0004995167
vt 0.5895003 0.9995005
vt 0.3273112 0.9995005
vt 0.3273111 0.0004995167
vt 0.5895001 0.9995005
vt 0.5895004 0.0004999042
vt 0.5895003 0.9995005
vt 0.3273112 0.9995002
vt 0.3273113 0.0004995167
vt 0.3273112 0.0004999042
vt 0.5895003 0.0004995167
vt 0.5895004 0.9995002
vt 0.3273113 0.9995005
vt 0.3273112 0.0004995167
vt 0.5895003 0.0004995167
vt 0.5895003 0.9995005
vt 0.3273112 0.9995005
vt 0.3273111 0.0004995167
vt 0.5895002 0.0004995167
vt 0.5895002 0.9995005
vt 0.3273111 0.9995005
vt 0.3273112 0.0004995167
vt 0.3273112 0.9995005
vt 0.5895001 0.9995005
vt 0.5895004 0.0004999042
vt 0.5895003 0.9995005
vt 0.3273112 0.9995002
vt 0.3273113 0.0004995167
vt 0.3273112 0.0004999042
vt 0.5895003 0.0004995167
vt 0.5895004 0.9995002
vt 0.3273113 0.9995005
vt 0.3273112 0.0004995167
vt 0.5895003 0.0004995167
vt 0.5895003 0.9995005
vt 0.3273112 0.9995005
vt 0.3273111 0.0004995167
vt 0.5895002 0.0004995167
vt 0.5895002 0.9995005
vt 0.3273111 0.9995005
vt 0.3273112 0.0004995167
vt 0.3273112 0.9995005
vt 0.5895001 0.9995005
vt 0.5895004 0.0004999042
vt 0.5895003 0.9995005
vt 0.3273112 0.9995002
vt 0.3273113 0.0004995167
vt 0.3273112 0.0004999042
vt 0.5895003 0.0004995167
vt 0.5895004 0.9995002
vt 0.3273113 0.9995005
vt 0.3273112 0.0004995167
vt 0.5895003 0.0004995167
vt 0.5895003 0.9995005
vt 0.3273112 0.9995005
vt 0.3273111 0.0004995167
vt 0.5895002 0.0004995167
vt 0.5895002 0.9995005
vt 0.3273111 0.9995005
vt 0.3273112 0.0004995167
vt 0.3273112 0.9995005
vt 0.5895001 0.9995005
vt 0.5895004 0.0004999042
vt 0.5895003 0.9995005
vt 0.3273112 0.9995002
vt 0.3273113 0.0004995167
vt 0.3273112 0.0004999042
vt 0.5895003 0.0004995167
vt 0.5895004 0.9995002
vt 0.3273113 0.9995005
vt 0.3273112 0.0004995167
vt 0.5895003 0.0004995167
vt 0.5895003 0.9995005
vt 0.3273112 0.9995005
vt 0.3273111 0.0004995167
vt 0.5895002 0.0004995167
vt 0.5895002 0.9995005
vt 0.3273111 0.9995005
vt 0.3273112 0.0004995167
vt 0.3273112 0.9995005
vt 0.5895001 0.9995005
vt 0.5895004 0.0004999042
vt 0.5895003 0.9995005
vt 0.3273112 0.9995002
vt 0.3273113 0.0004995167
vt 0.3273112 0.0004999042
vt 0.5895003 0.0004995167
vt 0.5895004 0.9995002
vt 0.3273113 0.9995005
vt 0.3273112 0.0004995167
vt 0.5895003 0.0004995167
vt 0.5895003 0.9995005
vt 0.3273112 0.9995005
vt 0.3273111 0.0004995167
vt 0.5895002 0.0004995167
vt 0.5895002 0.9995005
vt 0.3273111 0.9995005
vt 0.3273112 0.0004995167
vt 0.3273112 0.9995005
vt 0.5895001 0.9995005
vt 0.5895004 0.0004999042
vt 0.5895003 0.9995005
vt 0.3273112 0.9995002
vt 0.3273113 0.0004995167
vt 0.3273112 0.0004999042
vt 0.5895003 0.0004995167
vt 0.5895004 0.9995002
vt 0.3273113 0.9995005
vt 0.3273112 0.0004995167
vt 0.5895003 0.0004995167
vt 0.5895003 0.9995005
vt 0.3273112 0.9995005
vt 0.3273111 0.0004995167
vt 0.5895002 0.0004995167
vt 0.5895002 0.9995005
vt 0.3273111 0.9995005
vt 0.3273112 0.0004995167
vt 0.3273112 0.9995005
vt 0.5895001 0.9995005
vt 0.5895004 0.0004999042
vt 0.5895003 0.9995005
vt 0.3273112 0.9995002
vt 0.3273113 0.0004995167
vt 0.3273112 0.0004999042
vt 0.5895003 0.0004995167
vt 0.5895004 0.9995002
vt 0.3273113 0.9995005
vt 0.3273112 0.0004995167
vt 0.5895003 0.0004995167
vt 0.5895003 0.9995005
vt 0.3273112 0.9995005
vt 0.3273111 0.0004995167
vt 0.5895002 0.0004995167
vt 0.5895002 0.9995005
vt 0.3273111 0.9995005
vt 0.3273112 0.0004995167
vt 0.3273112 0.9995005
vt 0.5895001 0.9995005
vt 0.5895004 0.0004999042
vt 0.5895003 0.9995005
vt 0.3273112 0.9995002
vt 0.3273113 0.0004995167
vt 0.3273112 0.0004999042
vt 0.5895003 0.0004995167
vt 0.5895004 0.9995002
vt 0.3273113 0.9995005
vt 0.3273112 0.0004995167
vt 0.5895003 0.0004995167
vt 0.5895003 0.9995005
vt 0.3273112 0.9995005
vt 0.3273111 0.0004995167
vt 0.5895002 0.0004995167
vt 0.5895002 0.9995005
vt 0.3273111 0.9995005
vt 0.3273112 0.0004995167
vt 0.3273112 0.9995005
vt 0.5895001 0.9995005
vt 0.5895004 0.0004999042
vt 0.5895003 0.9995005
vt 0.3273112 0.9995002
vt 0.3273113 0.0004995167
vt 0.3273112 0.0004999042
vt 0.5895003 0.0004995167
vt 0.5895004 0.9995002
vt 0.3273113 0.9995005
vt 0.3273112 0.0004995167
vt 0.5895003 0.0004995167
vt 0.5895003 0.9995005
vt 0.3273112 0.9995005
vt 0.3273111 0.0004995167
vt 0.5895002 0.0004995167
vt 0.5895002 0.9995005
vt 0.3273111 0.9995005
vt 0.3273112 0.0004995167
vt 0.3273112 0.9995005
vt 0.5895001 0.9995005
vt 0.5895004 0.0004999042
vt 0.5895003 0.9995005
vt 0.3273112 0.9995002
vt 0.3273113 0.0004995167
vt 0.3273112 0.0004999042
vt 0.5895003 0.0004995167
vt 0.5895004 0.9995002
vt 0.3273113 0.9995005
vt 0.3273112 0.0004995167
vt 0.5895003 0.0004995167
vt 0.5895003 0.9995005
vt 0.3273112 0.9995005
vt 0.3273111 0.0004995167
vt 0.5895002 0.0004995167
vt 0.5895002 0.9995005
vt 0.3273111 0.9995005
vt 0.3273112 0.0004995167
vt 0.3273112 0.9995005
vt 0.5895001 0.9995005
vt 0.5895004 0.0004999042
vt 0.5895003 0.9995005
vt 0.3273112 0.9995002
vt 0.3273113 0.0004995167
vt 0.3273112 0.0004999042
vt 0.5895003 0.0004995167
vt 0.5895004 0.9995002
vt 0.3273113 0.9995005
vt 0.3273112 0.0004995167
vt 0.5895003 0.0004995167
vt 0.5895003 0.9995005
vt 0.3273112 0.9995005
vt 0.3273111 0.0004995167
vt 0.5895002 0.0004995167
vt 0.5895002 0.9995005
vt 0.3273111 0.9995005
vt 0.3273112 0.0004995167
vt 0.3273112 0.9995005
vt 0.5895001 0.9995005

usemtl sn05_26_s1.jpg
usemap sn05_26_s1.jpg
f 3/3/3 1/1/1 2/2/2
f 1/1/1 3/3/3 4/4/4
f 7/7/7 5/5/5 6/6/6
f 5/5/5 7/7/7 8/8/8
f 11/11/11 9/9/9 10/10/10
f 9/9/9 11/11/11 12/12/12
f 15/15/15 13/13/13 14/14/14
f 13/13/13 15/15/15 16/16/16
f 19/19/19 17/17/17 18/18/18
f 17/17/17 19/19/19 20/20/20
f 22/22/22 21/21/21 1/1/1
f 21/21/21 22/22/22 8/8/8
f 25/25/25 23/23/23 24/24/24
f 23/23/23 25/25/25 26/26/26
f 29/29/29 27/27/27 28/28/28
f 27/27/27 29/29/29 30/30/30
f 33/33/33 31/31/31 32/32/32
f 31/31/31 33/33/33 34/34/34
f 37/37/37 35/35/35 36/36/36
f 35/35/35 37/37/37 38/38/38
f 11/11/11 39/39/39 10/10/10
f 39/39/39 11/11/11 40/40/40
f 41/41/41 4/4/4 23/23/23
f 4/4/4 41/41/41 30/30/30
f 44/44/44 42/42/42 43/43/43
f 42/42/42 44/44/44 45/45/45
f 48/48/48 46/46/46 47/47/47
f 46/46/46 48/48/48 49/49/49
f 52/52/52 50/50/50 51/51/51
f 50/50/50 52/52/52 53/53/53
f 56/56/56 54/54/54 55/55/55
f 54/54/54 56/56/56 57/57/57
f 33/33/33 58/58/58 32/32/32
f 58/58/58 33/33/33 59/59/59
f 60/60/60 26/26/26 42/42/42
f 26/26/26 60/60/60 49/49/49
f 63/63/63 61/61/61 62/62/62
f 61/61/61 63/63/63 64/64/64
f 67/67/67 65/65/65 66/66/66
f 65/65/65 67/67/67 68/68/68
f 71/71/71 69/69/69 70/70/70
f 69/69/69 71/71/71 72/72/72
f 75/75/75 73/73/73 74/74/74
f 73/73/73 75/75/75 76/76/76
f 52/52/52 77/77/77 51/51/51
f 77/77/77 52/52/52 78/78/78
f 79/79/79 45/45/45 61/61/61
f 45/45/45 79/79/79 68/68/68
f 82/82/82 80/80/80 81/81/81
f 80/80/80 82/82/82 83/83/83
f 86/86/86 84/84/84 85/85/85
f 84/84/84 86/86/86 87/87/87
f 90/90/90 88/88/88 89/89/89
f 88/88/88 90/90/90 91/91/91
f 94/94/94 92/92/92 93/93/93
f 92/92/92 94/94/94 95/95/95
f 71/71/71 96/96/96 70/70/70
f 96/96/96 71/71/71 97/97/97
f 98/98/98 64/64/64 80/80/80
f 64/64/64 98/98/98 87/87/87
f 101/101/101 99/99/99 100/100/100
f 99/99/99 101/101/101 102/102/102
f 105/105/105 103/103/103 104/104/104
f 103/103/103 105/105/105 106/106/106
f 109/109/109 107/107/107 108/108/108
f 107/107/107 109/109/109 110/110/110
f 113/113/113 111/111/111 112/112/112
f 111/111/111 113/113/113 114/114/114
f 90/90/90 115/115/115 89/89/89
f 115/115/115 90/90/90 116/116/116
f 117/117/117 83/83/83 99/99/99
f 83/83/83 117/117/117 106/106/106
f 120/120/120 118/118/118 119/119/119
f 118/118/118 120/120/120 121/121/121
f 124/124/124 122/122/122 123/123/123
f 122/122/122 124/124/124 125/125/125
f 128/128/128 126/126/126 127/127/127
f 126/126/126 128/128/128 129/129/129
f 132/132/132 130/130/130 131/131/131
f 130/130/130 132/132/132 133/133/133
f 109/109/109 134/134/134 108/108/108
f 134/134/134 109/109/109 135/135/135
f 136/136/136 102/102/102 118/118/118
f 102/102/102 136/136/136 125/125/125
f 139/139/139 137/137/137 138/138/138
f 137/137/137 139/139/139 140/140/140
f 143/143/143 141/141/141 142/142/142
f 141/141/141 143/143/143 144/144/144
f 147/147/147 145/145/145 146/146/146
f 145/145/145 147/147/147 148/148/148
f 151/151/151 149/149/149 150/150/150
f 149/149/149 151/151/151 152/152/152
f 128/128/128 153/153/153 127/127/127
f 153/153/153 128/128/128 154/154/154
f 155/155/155 121/121/121 137/137/137
f 121/121/121 155/155/155 144/144/144
f 158/158/158 156/156/156 157/157/157
f 156/156/156 158/158/158 159/159/159
f 162/162/162 160/160/160 161/161/161
f 160/160/160 162/162/162 163/163/163
f 166/166/166 164/164/164 165/165/165
f 164/164/164 166/166/166 167/167/167
f 170/170/170 168/168/168 169/169/169
f 168/168/168 170/170/170 171/171/171
f 147/147/147 172/172/172 146/146/146
f 172/172/172 147/147/147 173/173/173
f 174/174/174 140/140/140 156/156/156
f 140/140/140 174/174/174 163/163/163
f 177/177/177 175/175/175 176/176/176
f 175/175/175 177/177/177 178/178/178
f 181/181/181 179/179/179 180/180/180
f 179/179/179 181/181/181 182/182/182
f 185/185/185 183/183/183 184/184/184
f 183/183/183 185/185/185 186/186/186
f 189/189/189 187/187/187 188/188/188
f 187/187/187 189/189/189 190/190/190
f 166/166/166 191/191/191 165/165/165
f 191/191/191 166/166/166 192/192/192
f 193/193/193 159/159/159 175/175/175
f 159/159/159 193/193/193 182/182/182
f 196/196/196 194/194/194 195/195/195
f 194/194/194 196/196/196 197/197/197
f 200/200/200 198/198/198 199/199/199
f 198/198/198 200/200/200 201/201/201
f 204/204/204 202/202/202 203/203/203
f 202/202/202 204/204/204 205/205/205
f 208/208/208 206/206/206 207/207/207
f 206/206/206 208/208/208 209/209/209
f 185/185/185 210/210/210 184/184/184
f 210/210/210 185/185/185 211/211/211
f 212/212/212 178/178/178 194/194/194
f 178/178/178 212/212/212 201/201/201
f 215/215/215 213/213/213 214/214/214
f 213/213/213 215/215/215 216/216/216
f 219/219/219 217/217/217 218/218/218
f 217/217/217 219/219/219 220/220/220
f 223/223/223 221/221/221 222/222/222
f 221/221/221 223/223/223 224/224/224
f 227/227/227 225/225/225 226/226/226
f 225/225/225 227/227/227 228/228/228
f 204/204/204 229/229/229 203/203/203
f 229/229/229 204/204/204 230/230/230
f 231/231/231 197/197/197 213/213/213
f 197/197/197 231/231/231 220/220/220
