mtllib ./nder25.mtl
g nder25
v 53.97726 7.629395E-06 4.365707
v 58.34259 31.09032 0.0003852844
v 53.97726 31.08627 4.365707
v 58.34259 7.629395E-06 0.0003852844
v 58.34259 7.629395E-06 0.0003852844
v 53.97726 31.09032 -4.364937
v 58.34259 31.09032 0.0003852844
v 53.97726 7.629395E-06 -4.364937
v 49.61194 31.09032 0.0003852844
v 49.61194 7.629395E-06 0.0003852844
v 58.34259 31.09032 0.0003852844
v 53.97726 31.09032 4.365707
v 112.0194 7.629395E-06 4.365707
v 116.3847 31.09032 0.0003852844
v 112.0194 31.09032 4.365707
v 116.3847 7.629395E-06 0.0003852844
v 116.3847 7.629395E-06 0.0003852844
v 112.0194 31.14101 -4.364937
v 116.3847 31.09032 0.0003852844
v 112.0194 7.629395E-06 -4.364937
v 107.6541 31.09032 0.0003852844
v 107.6541 7.629395E-06 0.0003852844
v 112.0194 31.09032 -4.364937
v 107.6541 31.09032 0.0003852844
v 170.3392 7.629395E-06 4.365707
v 174.7046 31.09032 0.0003852844
v 170.3392 31.09032 4.365707
v 174.7046 7.629395E-06 0.0003852844
v 174.7046 7.629395E-06 0.0003852844
v 170.3392 31.09032 -4.364937
v 174.7046 31.09032 0.0003852844
v 170.3392 7.629395E-06 -4.364937
v 165.9739 31.09032 0.0003852844
v 165.9739 7.629395E-06 0.0003852844
v 228.2703 7.629395E-06 4.365707
v 232.6356 31.11097 0.0003852844
v 228.2703 31.09032 4.365707
v 232.6356 7.629395E-06 0.0003852844
v 232.6356 7.629395E-06 0.0003852844
v 228.2703 31.09032 -4.364937
v 232.6356 31.11097 0.0003852844
v 228.2703 7.629395E-06 -4.364937
v 223.905 31.11208 0.0003852844
v 223.905 7.629395E-06 0.0003852844
v 232.6356 31.09032 0.0003852844
v 228.2703 31.09032 -4.364937
v 232.6356 31.09032 0.0003852844
v 223.905 31.09032 0.0003852844
v 228.2703 31.09032 4.365707

vn 0.3162522 0 0.9486752
vn 0.7071065 0 0.7071071
vn -0.3162275 0 0.9486834
vn 0.7071065 0 0.7071071
vn 0.7071065 0 -0.7071071
vn 0.3162275 0 -0.9486834
vn 0.7071065 0 -0.7071071
vn -0.3162275 0 -0.9486834
vn -0.9486997 0 -0.3161786
vn -0.9486915 0 0.3162033
vn 0.7071065 0 0.7071071
vn 0 0 1
vn 0.3162275 0 0.9486834
vn 0.7071065 0 0.7071071
vn -0.3162275 0 0.9486834
vn 0.7071065 0 0.7071071
vn 0.7071064 0 -0.7071071
vn 0.3162275 0 -0.9486834
vn 0.7071065 0 -0.7071071
vn -0.3159184 0 -0.9487863
vn -0.9485801 0 -0.3165372
vn -0.9486833 0 0.316228
vn 0 0 0.9999999
vn 0.7071065 0 0.7071071
vn 0.3162275 0 0.9486834
vn 0.7071065 0 0.7071071
vn -0.3162275 0 0.9486834
vn 0.7071065 0 0.7071071
vn 0.7071065 0 -0.7071071
vn 0.3162275 0 -0.9486834
vn 0.7071065 0 -0.7071071
vn -0.3162275 0 -0.9486834
vn -0.9486833 0 -0.316228
vn -0.9486833 0 0.316228
vn 0.3163535 0 0.9486414
vn 0.7071065 0 0.7071071
vn -0.3166123 0 0.948555
vn 0.7071065 0 0.7071071
vn 0.7071065 0 -0.7071071
vn 0.3166191 0 -0.9485527
vn 0.7071065 0 -0.7071071
vn -0.3163604 0 -0.9486391
vn -0.9486833 0 -0.3162281
vn -0.9487275 0 0.3160952
vn -0.7071065 0 -0.7071071
vn -0.7071065 0 0.7071071
vn -0.7071065 0 0.7071071
vn 1 0 0
vn 0.7071065 0 -0.7071071

vt 0.3248938 0.0004995465
vt 0.4346874 0.4999999
vt 0.3248938 0.4999999
vt 0.4346874 0.0004995465
vt -0.00448695 0.0004995465
vt 0.1053067 0.4999999
vt -0.00448695 0.4999999
vt 0.1053067 0.0004995465
vt 0.2151003 0.4999999
vt 0.2151003 0.0004995465
vt 0.4346874 0.9995003
vt 0.3248938 0.9995003
vt 0.3248938 0.0004995465
vt 0.4346874 0.4999999
vt 0.3248938 0.4999999
vt 0.4346874 0.0004995465
vt -0.00448695 0.0004995465
vt 0.1053067 0.4999999
vt -0.00448695 0.4999999
vt 0.1053067 0.0004995465
vt 0.2151003 0.4999999
vt 0.2151003 0.0004995465
vt 0.1053067 0.9995003
vt 0.2151003 0.9995003
vt 0.3248938 0.0004995465
vt 0.4346874 0.4999999
vt 0.3248938 0.4999999
vt 0.4346874 0.0004995465
vt -0.00448695 0.0004995465
vt 0.1053067 0.4999999
vt -0.00448695 0.4999999
vt 0.1053067 0.0004995465
vt 0.2151003 0.4999999
vt 0.2151003 0.0004995465
vt 0.3248938 0.0004995465
vt 0.4346874 0.4999999
vt 0.3248938 0.4999999
vt 0.4346874 0.0004995465
vt -0.00448695 0.0004995465
vt 0.1053067 0.4999999
vt -0.00448695 0.4999999
vt 0.1053067 0.0004995465
vt 0.2151003 0.4999999
vt 0.2151003 0.0004995465
vt 0.4346874 0.9995003
vt 0.1053067 0.9995003
vt -0.00448695 0.9995003
vt 0.2151003 0.9995003
vt 0.3248938 0.9995003

usemtl sn05_00_sn05zu.jpg
usemap sn05_00_sn05zu.jpg
f 3/3/3 1/1/1 2/2/2
f 2/2/2 1/1/1 4/4/4
f 7/7/7 5/5/5 6/6/6
f 6/6/6 5/5/5 8/8/8
f 6/6/6 8/8/8 9/9/9
f 9/9/9 8/8/8 10/10/10
f 9/9/9 10/10/10 3/3/3
f 3/3/3 10/10/10 1/1/1
f 12/12/12 3/3/3 11/11/11
f 12/12/12 9/9/9 3/3/3
f 15/15/15 13/13/13 14/14/14
f 14/14/14 13/13/13 16/16/16
f 19/19/19 17/17/17 18/18/18
f 18/18/18 17/17/17 20/20/20
f 18/18/18 20/20/20 21/21/21
f 21/21/21 20/20/20 22/22/22
f 21/21/21 22/22/22 15/15/15
f 15/15/15 22/22/22 13/13/13
f 23/23/23 19/19/19 18/18/18
f 23/23/23 18/18/18 24/24/24
f 27/27/27 25/25/25 26/26/26
f 26/26/26 25/25/25 28/28/28
f 31/31/31 29/29/29 30/30/30
f 30/30/30 29/29/29 32/32/32
f 30/30/30 32/32/32 33/33/33
f 33/33/33 32/32/32 34/34/34
f 33/33/33 34/34/34 27/27/27
f 27/27/27 34/34/34 25/25/25
f 37/37/37 35/35/35 36/36/36
f 36/36/36 35/35/35 38/38/38
f 41/41/41 39/39/39 40/40/40
f 40/40/40 39/39/39 42/42/42
f 40/40/40 42/42/42 43/43/43
f 43/43/43 42/42/42 44/44/44
f 43/43/43 44/44/44 37/37/37
f 37/37/37 44/44/44 35/35/35
f 45/45/45 37/37/37 36/36/36
f 47/47/47 41/41/41 46/46/46
f 48/48/48 40/40/40 43/43/43
f 48/48/48 43/43/43 49/49/49
