mtllib ./nder03.mtl
g nder03
v -1154.621 1510.705 968.8423
v -1154.621 0 968.8423
v -1507.251 0 0.0002746582
v -1507.251 1510.705 0.0002746582
v -261.7314 1510.705 1484.352
v -261.7314 0 1484.352
v 753.6253 1510.705 1305.318
v 753.6253 0 1305.318
v -261.7314 0 1484.352
v -261.7314 1510.705 1484.352
v 1416.352 1510.705 515.51
v 1416.352 0 515.5101
v 1416.352 1510.705 -515.5101
v 1416.352 0 -515.5101
v 753.6248 1510.705 -1305.317
v 753.6248 0 -1305.317
v -261.7319 1510.705 -1484.352
v -261.7319 0 -1484.352
v -1154.621 1510.705 -968.8414
v -1154.621 0 -968.8414

vn 0.8378856 0 -0.545846
vn 0.6830505 0 -0.7303711
vn 0.9927206 0 -0.1204403
vn 0.9927206 0 0.1204401
vn 0.4999999 0 -0.8660254
vn 0.4999999 0 -0.8660254
vn -0.392056 0 -0.9199414
vn -0.6006646 -1.829018E-08 -0.799501
vn -0.1736482 0 -0.9848077
vn -0.1736482 0 -0.9848077
vn -0.8916593 -1.829017E-08 -0.4527071
vn -0.9740452 -1.829017E-08 -0.2263535
vn -0.9740451 6.737881E-15 0.2263539
vn -0.8916591 0 0.4527075
vn -0.6006644 0 0.7995012
vn -0.3920557 0 0.9199414
vn 0.05377389 0 0.9985532
vn 0.290995 0 0.9567247
vn 0.6830509 0 0.7303709
vn 0.8378857 0 0.5458459

vt 5.192861 0.9995004
vt 5.192861 0.0004995763
vt 4.5 0.0004995763
vt 4.5 0.9995004
vt 5.863902 0.9995004
vt 5.863902 0.0004995763
vt 0.5180743 0.9995004
vt 0.5180743 0.0004996061
vt -0.1360985 0.0004995763
vt -0.1360985 0.9995004
vt 1.171631 0.9995004
vt 1.171631 0.0004995763
vt 1.828369 0.9995004
vt 1.828369 0.0004995763
vt 2.481925 0.9995004
vt 2.481925 0.0004995763
vt 3.136098 0.9995004
vt 3.136098 0.0004995763
vt 3.807139 0.9995004
vt 3.807139 0.0004995763

usemtl sn05_11_aMed1wu.bmp
usemap sn05_11_aMed1wu.bmp
f 3/3/3 1/1/1 2/2/2
f 1/1/1 3/3/3 4/4/4
f 2/2/2 5/5/5 6/6/6
f 5/5/5 2/2/2 1/1/1
f 9/9/9 7/7/7 8/8/8
f 7/7/7 9/9/9 10/10/10
f 8/8/8 11/11/11 12/12/12
f 11/11/11 8/8/8 7/7/7
f 12/12/12 13/13/13 14/14/14
f 13/13/13 12/12/12 11/11/11
f 14/14/14 15/15/15 16/16/16
f 15/15/15 14/14/14 13/13/13
f 16/16/16 17/17/17 18/18/18
f 17/17/17 16/16/16 15/15/15
f 18/18/18 19/19/19 20/20/20
f 19/19/19 18/18/18 17/17/17
f 20/20/20 4/4/4 3/3/3
f 4/4/4 20/20/20 19/19/19
