mtllib ./nder33.mtl
g nder33
v 3.200043 -4.33004 10.35989
v 6.155907 -0.3302765 10.35989
v -6.155823 -0.3302765 10.35989
v -3.199951 -4.33004 10.35989
v 3.200043 -4.33004 10.35989
v -3.199951 -4.33004 10.35989
v -2.499954 -4.33004 -116.1952
v 2.500046 -4.33004 -116.1952
v -6.155823 -0.3302765 10.35989
v -4.809219 -0.3302765 -116.1952
v -4.809219 -0.3302765 -116.1952
v 4.809311 -0.3302765 -116.1952
v 2.500046 -4.33004 -116.1952
v -2.499954 -4.33004 -116.1952
v 4.809311 -0.3302765 -116.1952
v 6.155907 -0.3302765 10.35989

vn 0 0 1
vn 0 0 1
vn 0 0 1
vn 0 0 0.9999999
vn 0.4327402 -0.9015118 -0.003499042
vn -0.3930967 -0.9194945 -0.002174283
vn -0.4327401 -0.901512 -0.003499054
vn 0.4800424 -0.8772412 -0.002655194
vn -0.8352883 -0.5497709 -0.006753982
vn -0.8659886 -0.4999789 -0.009214512
vn 0 0 -1
vn 0 0 -1
vn 0 0 -1
vn 0 0 -0.9999999
vn 0.8352886 -0.5497703 -0.006753959
vn 0.8041931 -0.5943065 -0.008556932

vt 0.2502497 0.0004996061
vt 0.01955375 0.4618916
vt 0.9804462 0.4618914
vt 0.7497502 0.0004995167
vt 0.7133615 -0.9259256
vt 0.8150172 -0.9259256
vt 0.8150172 1.834742
vt 0.7133615 1.834742
vt 0.89349 -0.9259256
vt 0.89349 1.834742
vt 0.9804462 0.4618914
vt 0.01955375 0.4618916
vt 0.2502497 0.0004996061
vt 0.7497502 0.0004995167
vt 0.6348886 1.834742
vt 0.6348886 -0.9259256

usemtl sn05_00_sn05zu.jpg
usemap sn05_00_sn05zu.jpg
f 3/3/3 1/1/1 2/2/2
f 1/1/1 3/3/3 4/4/4
f 7/7/7 5/5/5 6/6/6
f 5/5/5 7/7/7 8/8/8
f 7/7/7 9/9/9 10/10/10
f 9/9/9 7/7/7 6/6/6
f 13/13/13 11/11/11 12/12/12
f 11/11/11 13/13/13 14/14/14
f 15/15/15 5/5/5 8/8/8
f 5/5/5 15/15/15 16/16/16
