mtllib ./nder17.mtl
g nder17
v -4.73761 -31.00948 0.784977
v -1.199768 -31.00948 5.654388
v -1.199768 31.16289 5.654385
v -4.73761 31.16289 0.784977
v -1.199768 -31.00948 5.654388
v 4.524536 -31.00948 3.794437
v 4.524536 31.16289 3.794437
v -1.199768 31.16289 5.654385
v 4.524536 -31.00948 -2.224483
v 4.524536 31.16289 -2.224483
v -1.199768 -31.00948 -4.084431
v -1.199768 31.16289 -4.084435

vn -0.9719041 1.428751E-08 0.2353771
vn -0.8090164 3.567891E-08 0.587786
vn -0.8090163 1.783946E-08 0.5877862
vn -0.9719041 -1.428751E-08 -0.2353771
vn 0.3090185 2.803359E-08 0.9510561
vn 0.9246387 0 0.3808456
vn 0.6479382 2.245188E-08 0.761693
vn 0.3090182 5.606719E-08 0.9510561
vn 0.6479382 -2.245188E-08 -0.761693
vn 0.9246387 0 -0.3808456
vn -0.5241919 -3.673934E-08 -0.8516002
vn -0.07647885 -3.673944E-08 -0.9970712

vt 0.3488949 0.008663798
vt 0.4442778 0.008663798
vt 0.4442778 1.006307
vt 0.3488949 1.006307
vt 0.003749162 0.008663798
vt 0.0866041 0.008663817
vt 0.08660407 1.006307
vt 0.003749162 1.006307
vt 0.1706571 0.008663798
vt 0.1706571 1.006307
vt 0.253512 0.008663798
vt 0.253512 1.006307

usemtl sn05_00_sn05zu.jpg
usemap sn05_00_sn05zu.jpg
f 3/3/3 1/1/1 2/2/2
f 1/1/1 3/3/3 4/4/4
f 7/7/7 5/5/5 6/6/6
f 5/5/5 7/7/7 8/8/8
f 10/10/10 6/6/6 9/9/9
f 6/6/6 10/10/10 7/7/7
f 12/12/12 9/9/9 11/11/11
f 9/9/9 12/12/12 10/10/10
f 4/4/4 11/11/11 1/1/1
f 11/11/11 4/4/4 12/12/12
