mtllib ./Object53.mtl
g Object53
v 8.01729 140.6736 -8.507695
v -8.853905 155.347 -19.00464
v -8.722576 151.2549 -22.30191
v 7.885965 144.7657 -5.210419
v 7.885965 144.7657 -5.210419
v -5.511197 155.347 -23.06115
v -8.853905 155.347 -19.00464
v 11.22867 144.7657 -9.266928
v 11.22867 144.7657 -9.266928
v -8.722576 151.2549 -22.30191
v -5.511197 155.347 -23.06115
v 8.01729 140.6736 -8.507695
v -18.86598 173.7751 -28.98283
v -18.80128 171.7593 -30.60711
v -17.21933 173.7752 -30.98113
v -18.86598 173.7751 -28.98283
v -18.80128 171.7593 -30.60711
v -17.21933 173.7752 -30.98113

vn 0.1291716 -0.449334 0.8839761
vn 0.05252221 -0.4072645 0.9117987
vn -0.01354957 -0.3684645 0.929543
vn 0.129171 -0.4493344 0.8839758
vn 0.4050111 0.898764 -0.1678969
vn 0.5241582 0.8234341 -0.2172892
vn 0.6149428 0.7462299 -0.254924
vn 0.4050111 0.898764 -0.1678969
vn -0.5341396 -0.449337 -0.7160944
vn -0.6079931 -0.4072673 -0.6815261
vn -0.6672407 -0.3684672 -0.6473187
vn -0.5341396 -0.4493372 -0.7160943
vn -0.1197514 -0.301199 0.9460121
vn -0.1197531 -0.3011996 0.9460115
vn 0.7341851 0.60691 -0.3043559
vn 0.734185 0.6069099 -0.3043563
vn -0.7539458 -0.3012013 -0.583818
vn -0.7539467 -0.3012028 -0.5838161

vt 0.0004995763 -0.2512252
vt 0.3048176 0.5471682
vt 0.0004995763 0.5471682
vt 0.3048176 -0.2512252
vt 0.3700571 -0.2512252
vt 0.6299429 0.5471682
vt 0.3700571 0.5471682
vt 0.6299429 -0.2512252
vt 0.6951823 -0.2512252
vt 0.9995004 0.5471682
vt 0.6951823 0.5471682
vt 0.9995004 -0.2512252
vt 0.2795607 1.232798
vt 0.1296503 1.232798
vt 0.5640112 1.232798
vt 0.4359886 1.232798
vt 0.9167974 1.232798
vt 0.7668869 1.232798

usemtl sn05_37_sn3tr4.JPG
usemap sn05_37_sn3tr4.JPG
f 3/3/3 1/1/1 2/2/2
f 2/2/2 1/1/1 4/4/4
f 7/7/7 5/5/5 6/6/6
f 6/6/6 5/5/5 8/8/8
f 11/11/11 9/9/9 10/10/10
f 10/10/10 9/9/9 12/12/12
f 14/14/14 3/3/3 13/13/13
f 13/13/13 3/3/3 2/2/2
f 16/16/16 7/7/7 15/15/15
f 15/15/15 7/7/7 6/6/6
f 18/18/18 11/11/11 17/17/17
f 17/17/17 11/11/11 10/10/10
