mtllib ./Object08.mtl
g Object08
v -50.83885 -1.755455 -1.755493
v 30.34231 -1.755455 -1.755493
v 30.34231 -1.755455 1.754517
v -50.83885 -1.755455 1.754517
v 30.34231 1.754539 1.754517
v 30.34231 1.754539 -1.755493
v -50.83885 1.754539 -1.755493
v -50.83885 1.754539 1.754517
v 30.34231 -1.755455 1.754517
v 30.34231 1.754539 1.754517
v -50.83885 1.754539 1.754517
v -50.83885 -1.755455 1.754517
v -50.83885 -1.755463 95.94479
v 30.34231 -1.755463 95.94479
v 30.34231 -1.755463 99.4548
v -50.83885 -1.755463 99.4548
v 30.34231 1.754539 99.4548
v 30.34231 1.754539 95.94479
v -50.83885 1.754539 95.94479
v -50.83885 1.754539 99.4548
v 30.34231 -1.755463 99.4548
v 30.34231 1.754539 99.4548
v -50.83885 1.754539 99.4548
v -50.83885 -1.755463 99.4548
v -50.83885 -1.755463 188.72
v 30.34231 -1.755463 188.72
v 30.34231 -1.755463 192.23
v -50.83885 -1.755463 192.23
v 30.34231 1.754539 192.23
v 30.34231 1.754539 188.72
v -50.83885 1.754539 188.72
v -50.83885 1.754539 192.23
v 30.34231 -1.755463 192.23
v 30.34231 1.754539 192.23
v -50.83885 1.754539 192.23
v -50.83885 -1.755463 192.23
v -50.83885 -1.755455 -1.755493
v -50.83885 1.754539 -1.755493
v 30.34231 1.754539 -1.755493
v 30.34231 -1.755455 -1.755493
v -50.83885 -1.755463 95.94479
v -50.83885 1.754539 95.94479
v 30.34231 1.754539 95.94479
v 30.34231 -1.755463 95.94479
v -50.83885 -1.755463 188.72
v -50.83885 1.754539 188.72
v 30.34231 1.754539 188.72
v 30.34231 -1.755463 188.72

vn 0 -1 0
vn 0 -1 0
vn 0 -1 0
vn 0 -1 0
vn 0 1 0
vn 0 1 0
vn 0 1 0
vn 0 1 0
vn 0 0 1
vn 0 0 1
vn 0 0 1
vn 0 0 1
vn 0 -1 0
vn 0 -1 0
vn 0 -1 0
vn 0 -1 0
vn 0 1 0
vn 0 1 0
vn 0 1 0
vn 0 1 0
vn 0 0 1
vn 0 0 1
vn 0 0 1
vn 0 0 1
vn 0 -1 0
vn 0 -1 0
vn 0 -1 0
vn 0 -1 0
vn 0 1 0
vn 0 1 0
vn 0 1 0
vn 0 1 0
vn 0 0 1
vn 0 0 1
vn 0 0 1
vn 0 0 1
vn 0 0 -1
vn 0 0 -1
vn 0 0 -1
vn 0 0 -1
vn 0 0 -1
vn 0 0 -1
vn 0 0 -1
vn 0 0 -1
vn 0 0 -1
vn 0 0 -1
vn 0 0 -1
vn 0 0 -1

vt 0.005044173 0.2759987
vt 0.9963157 0.275108
vt 0.9963157 0.3910709
vt 0.005044173 0.3919615
vt 0.005509641 0.3908297
vt 0.005509581 0.2748668
vt 0.9967811 0.2739547
vt 0.9967811 0.3899175
vt 0.005509641 0.3908406
vt 0.005509581 0.2748562
vt 0.9967811 0.2739548
vt 0.9967811 0.3899391
vt 0.005044173 0.2759987
vt 0.9963157 0.275108
vt 0.9963157 0.3910708
vt 0.005044173 0.3919615
vt 0.005509641 0.3908297
vt 0.005509581 0.2748668
vt 0.9967811 0.2739546
vt 0.9967811 0.3899175
vt 0.005509641 0.3908406
vt 0.005509581 0.2748562
vt 0.9967811 0.2739548
vt 0.9967811 0.3899391
vt 0.005044173 0.2759987
vt 0.9963157 0.275108
vt 0.9963157 0.3910708
vt 0.005044173 0.3919615
vt 0.005509641 0.3908297
vt 0.005509581 0.2748668
vt 0.9967811 0.2739547
vt 0.9967811 0.3899175
vt 0.005509641 0.3908406
vt 0.005509581 0.2748562
vt 0.9967811 0.2739548
vt 0.9967811 0.3899391
vt 0.005044233 0.391983
vt 0.005044173 0.2759988
vt 0.9963157 0.2750973
vt 0.9963157 0.3910816
vt 0.005044233 0.3919829
vt 0.005044173 0.2759988
vt 0.9963157 0.2750973
vt 0.9963157 0.3910815
vt 0.005044233 0.3919829
vt 0.005044173 0.2759988
vt 0.9963157 0.2750973
vt 0.9963157 0.3910815

usemtl sn05_05_1Rwd01.jpg
usemap sn05_05_1Rwd01.jpg
f 3/3/3 1/1/1 2/2/2
f 1/1/1 3/3/3 4/4/4
f 7/7/7 5/5/5 6/6/6
f 5/5/5 7/7/7 8/8/8
f 11/11/11 9/9/9 10/10/10
f 9/9/9 11/11/11 12/12/12
f 15/15/15 13/13/13 14/14/14
f 13/13/13 15/15/15 16/16/16
f 19/19/19 17/17/17 18/18/18
f 17/17/17 19/19/19 20/20/20
f 23/23/23 21/21/21 22/22/22
f 21/21/21 23/23/23 24/24/24
f 27/27/27 25/25/25 26/26/26
f 25/25/25 27/27/27 28/28/28
f 31/31/31 29/29/29 30/30/30
f 29/29/29 31/31/31 32/32/32
f 35/35/35 33/33/33 34/34/34
f 33/33/33 35/35/35 36/36/36
f 39/39/39 37/37/37 38/38/38
f 37/37/37 39/39/39 40/40/40
f 43/43/43 41/41/41 42/42/42
f 41/41/41 43/43/43 44/44/44
f 47/47/47 45/45/45 46/46/46
f 45/45/45 47/47/47 48/48/48
