mtllib ./Object07.mtl
g Object07
v -86.87424 29.99977 -0.6681366
v -11.22159 29.99977 -0.6681366
v -11.22159 -0.0002288818 -55.78829
v -86.34958 -0.0002288818 -55.78829
v 165.5424 29.99977 -0.6681366
v 89.05515 29.99977 -0.6681366
v 89.05515 -0.0002288818 57.53734
v 201.7754 -0.0002288818 57.53734
v 201.7754 29.99977 -0.6681366
v -86.34958 -3.772339 -55.7883
v -11.22159 -3.772339 -55.7883
v -11.22159 11.91878 -26.97238
v -11.22159 26.22766 -0.69487
v -86.34958 26.22766 -0.69487
v -86.34958 11.25504 -28.19131
v 89.05518 26.22766 -0.69487
v 89.05515 9.739807 31.29459
v -11.22159 9.827042 31.12532
v -11.22159 26.22766 -0.69487
v -86.34958 -3.772339 57.5106
v -86.87418 -0.0002288818 57.53734
v -86.87424 29.99977 -0.6681366
v -86.34958 26.22766 -0.69487
v -86.34958 9.89241 30.99852
v -86.34958 11.25504 -28.19131
v -86.34958 26.22766 -0.69487
v -86.87424 29.99977 -0.6681366
v -86.34958 -0.0002288818 -55.78829
v -86.34958 -3.772339 -55.7883
v 89.05515 -3.772339 57.5106
v 89.05515 -0.0002288818 57.53734
v -11.22159 -0.0002288818 57.53734
v -11.22159 -3.772339 57.5106
v -86.34958 -0.0002288818 -55.78829
v -11.22159 -0.0002288818 -55.78829
v -11.22159 -3.772339 -55.7883
v -86.34958 -3.772339 -55.7883
v 201.7754 29.99977 -0.6681366
v 201.7754 -0.0002288818 57.53734
v 202.3 -3.772339 57.5106
v 202.3 9.641281 31.48573
v 202.3 26.22766 -0.69487
v 202.3 -3.772339 -55.7883
v 202.3 -0.0002288818 -55.78829
v 201.7754 29.99977 -0.6681366
v 202.3 26.22766 -0.69487
v 202.3 13.80521 -23.50806
v 61.9606 -0.0002288818 -55.78829
v 89.05515 7.847061 -41.37016
v 89.05515 -0.0002288818 -55.78829
v 165.5424 29.99977 -0.6681366
v 89.05515 7.847061 -41.37016
v -86.87418 -0.0002288818 57.53734
v -11.22159 -0.0002288818 57.53734
v 35.2626 12.36166 -26.23393
v 60.5975 -3.662277 -55.7883
v 89.05515 -3.68438 -55.7883
v 89.05518 26.22766 -0.69487
v -86.34958 9.89241 30.99852
v -86.34958 26.22766 -0.69487
v -86.87418 -0.0002288818 57.53734
v -86.34958 -3.772339 57.5106
v 61.9606 -0.0002288818 -55.78829
v 60.5975 -3.662277 -55.7883
v 202.3 -3.772339 -55.7883
v 89.05515 -3.68438 -55.7883
v 89.05515 -0.0002288818 -55.78829
v 202.3 -0.0002288818 -55.78829
v 202.3 26.22766 -0.69487
v 202.3 9.641281 31.48573
v 202.3 -3.772339 57.5106
v 201.7754 -0.0002288818 57.53734
v 165.5424 29.99977 -0.6681366
v 201.7754 29.99977 -0.6681366
v 202.3 -0.0002288818 -55.78829
v 61.9606 -0.0002288818 -55.78829
v 202.3 13.80521 -23.50806
v 202.3 26.22766 -0.69487
v 89.05518 12.83581 -25.36063
v 61.9606 -0.0002288818 -55.78829
v 202.3 -3.772339 -55.7883
v 202.3 -3.772339 57.5106
v 89.05515 -3.772339 57.5106
v -11.22159 -3.772339 57.5106
v -86.34958 -3.772339 57.5106

vn 0 0.9999996 0.0009193789
vn 0 0.9996285 0.02725913
vn 0 0.8783342 -0.478047
vn 0 0.8783343 -0.4780471
vn 0 0.888879 0.458142
vn 1.523449E-09 0.9999999 9.140696E-09
vn 0 0.8888791 0.458142
vn 0 0.8888789 0.458142
vn 0 0.8888791 0.458142
vn -4.180241E-08 -0.8782369 0.4782258
vn 0.0006577668 -0.8782367 0.4782258
vn 0.0004432888 -0.8783109 0.4780899
vn 0.0001203297 -0.8784297 0.4778717
vn 0 -0.8782368 0.4782259
vn -2.055095E-08 -0.8782368 0.4782259
vn 2.16551E-08 -0.888879 -0.4581419
vn 5.796791E-09 -0.888879 -0.458142
vn -1.760415E-08 -0.8888791 -0.458142
vn -4.769499E-08 -0.8888791 -0.458142
vn -0.9880655 -0.136918 -0.07056897
vn -0.9880665 -0.1369129 -0.07056597
vn -0.988065 -0.1369209 -0.0705706
vn -0.9880636 -0.1369284 -0.07057496
vn -0.9880636 -0.1369288 -0.07057524
vn -0.9875963 -0.1378957 0.0750883
vn -0.9875963 -0.1378957 0.0750883
vn -0.9970368 -0.06945554 0.03306515
vn -0.9999546 3.669242E-08 -0.009518031
vn -0.9987434 -0.04640577 0.01892632
vn 0 -0.007086943 0.999975
vn 0 -0.007086942 0.9999749
vn 0 -0.007086942 0.9999748
vn 0 -0.007086943 0.9999749
vn 5.077598E-08 2.02258E-06 -1
vn 0 1.01129E-06 -1
vn 2.564833E-08 1.53705E-06 -1
vn 1.01552E-07 3.03387E-06 -1
vn 0.9880663 0.1369128 0.07056699
vn 0.9880663 0.1369129 0.07056702
vn 0.9880663 0.1369128 0.07056699
vn 0.9880663 0.1369128 0.07056696
vn 0.9880664 0.1369128 0.07056698
vn 0.9984387 0.05135779 -0.02196443
vn 0.9999548 -2.887311E-08 0.009516924
vn 0.9970376 0.06944755 -0.03306134
vn 0.9875992 0.1378801 -0.07507977
vn 0.9875992 0.1378802 -0.07507984
vn 0 0.8783343 -0.4780471
vn -1.794805E-08 0.8783343 -0.478047
vn -3.465132E-09 0.8783343 -0.478047
vn 0 0.8783342 -0.4780471
vn 6.357849E-09 0.8783343 -0.4780471
vn 0 0.8888791 0.458142
vn 0 0.8888791 0.458142
vn 0.0001638815 -0.8787927 0.4772036
vn 0.0007707421 -0.878641 0.4774824
vn -0.0004940182 -0.8788993 0.4770071
vn -8.520101E-05 -0.8786613 0.4774454
vn -1.002685E-07 -0.8888791 -0.458142
vn 0 -0.8888791 -0.4581417
vn 0 -0.007086942 0.9999749
vn 0 -0.007086942 0.9999748
vn -7.790814E-10 1.026405E-06 -1
vn -9.140278E-10 1.042024E-06 -1
vn -3.289064E-08 2.04644E-06 -1
vn -4.45664E-08 1.036433E-06 -1
vn -2.941346E-08 1.939557E-06 -1
vn 0 3.03387E-06 -1
vn -2.239717E-08 -0.8888791 -0.4581419
vn -3.121144E-08 -0.888879 -0.458142
vn 0 -0.007086943 0.9999748
vn 0 -0.007086942 0.9999748
vn -2.869247E-09 0.8783342 -0.4780471
vn 0 0.8783343 -0.4780471
vn 0 0.8783342 -0.478047
vn 2.51359E-09 0.8783343 -0.4780471
vn -0.0002109748 -0.878419 0.4778914
vn 0 -0.8782369 0.4782258
vn -0.000331132 -0.8786582 0.4774513
vn 4.131738E-10 1.038473E-06 -1
vn -0.0004883319 -0.8785224 0.4777009
vn 0 -0.8888791 -0.458142
vn -1.587294E-08 -0.888879 -0.4581421
vn 2.616592E-08 -0.8888791 -0.458142
vn -7.508437E-08 -0.888879 -0.4581421

vt 1.594429 0.4944881
vt 1.019807 0.4944883
vt 1.023792 0.01767779
vt 1.594429 0.01767763
vt -0.3228107 0.4944887
vt 0.2581513 0.4944885
vt 0.2581515 0.9982325
vt -0.5980193 0.9982327
vt -0.5980195 0.4944887
vt 3.599699 0.2120783
vt 2.66292 0.2120785
vt 2.66292 0.52253
vt 2.66292 0.8404474
vt 3.599699 0.8404472
vt 3.599699 0.5004478
vt 1.884517 0.212079
vt 1.884517 0.5495458
vt 3.552788 0.5466403
vt 3.552788 0.2120786
vt 0.7424405 0.9969631
vt 0.6665895 0.9988812
vt 0.665948 0.01803684
vt 0.7357999 0.01611872
vt 0.7394158 0.5501969
vt 0.8481584 0.5027232
vt 0.8466882 0.9923162
vt 0.7841108 0.9936361
vt 0.7820808 0.01265986
vt 0.8496339 0.01133977
vt 0.8634312 0.1073267
vt 0.8699687 0.0004996185
vt -0.3796697 0.0004996029
vt -0.3862072 0.1073267
vt 2.274677 0.0004996359
vt 1.33844 0.0004996359
vt 1.33844 0.1073265
vt 2.274677 0.1073265
vt 0.8251882 0.0009581745
vt 0.8252145 0.9995005
vt 0.7657571 0.9990418
vt 0.7657452 0.552573
vt 0.7657306 0.0004995763
vt 0.5144861 0.0004994869
vt 0.5897036 0.0004996657
vt 0.5941634 0.9995005
vt 0.5145112 0.999016
vt 0.5145008 0.5855483
vt 0.4650145 0.01767795
vt 0.2589381 0.1424003
vt 0.2597803 0.01767801
vt -0.3228107 0.4944887
vt 0.263249 0.1424003
vt 1.594429 0.9982322
vt 1.019807 0.9982324
vt 2.084222 0.5359079
vt 1.769877 0.2120786
vt 1.414539 0.2120787
vt 1.41256 0.8404476
vt 4.802668 0.5444635
vt 4.802668 0.2120783
vt -1.322445 0.0004995912
vt -1.322444 0.1073267
vt 0.4312398 0.0004996359
vt 0.4409633 0.07129538
vt -1.322444 0.1073265
vt 0.08682385 0.07853139
vt 0.08493659 0.0004996359
vt -1.322445 0.0004996359
vt 0.0004994869 0.2120795
vt 0.0004995199 0.5528271
vt 2.274677 0.1073267
vt 2.274677 0.0004996359
vt -0.3228107 0.4944887
vt -0.5980195 0.4944887
vt -0.5980197 0.01767826
vt 0.4708525 0.01767795
vt 0.000499564 0.5852903
vt 0.0004995763 0.8404478
vt 1.413446 0.5517288
vt 0.4216615 0.0004996359
vt 0.0004995465 0.2120789
vt 0.0004995465 0.8413734
vt 1.884517 0.8413729
vt 3.552788 0.8413724
vt 4.802668 0.8413722

usemtl sn05_08_sn05roof.jpg
usemap sn05_08_sn05roof.jpg
f 3/3/3 1/1/1 2/2/2
f 1/1/1 3/3/3 4/4/4
f 7/7/7 5/5/5 6/6/6
f 8/8/8 5/5/5 7/7/7
f 9/9/9 5/5/5 8/8/8
f 22/22/22 20/20/20 21/21/21
f 24/24/24 22/22/22 23/23/23
f 27/27/27 25/25/25 26/26/26
f 29/29/29 27/27/27 28/28/28
f 40/40/40 38/38/38 39/39/39
f 38/38/38 41/41/41 42/42/42
f 45/45/45 43/43/43 44/44/44
f 47/47/47 45/45/45 46/46/46
f 50/50/50 48/48/48 49/49/49
f 6/6/6 51/51/51 52/52/52
f 54/54/54 1/1/1 53/53/53
f 1/1/1 54/54/54 2/2/2
f 7/7/7 2/2/2 54/54/54
f 2/2/2 7/7/7 6/6/6
f 75/75/75 73/73/73 74/74/74
f 50/50/50 73/73/73 75/75/75
f 50/50/50 49/49/49 73/73/73
f 2/2/2 76/76/76 3/3/3
f 6/6/6 76/76/76 2/2/2
f 6/6/6 52/52/52 76/76/76
f 27/27/27 29/29/29 25/25/25
f 43/43/43 45/45/45 47/47/47
f 38/38/38 40/40/40 41/41/41
f 20/20/20 22/22/22 24/24/24

usemtl sn05_09_sn5roof.jpg
usemap sn05_09_sn5roof.jpg
f 12/12/12 10/10/10 11/11/11
f 15/15/15 13/13/13 14/14/14
f 18/18/18 16/16/16 17/17/17
f 16/16/16 18/18/18 19/19/19
f 55/55/55 13/13/13 12/12/12
f 57/57/57 55/55/55 56/56/56
f 58/58/58 13/13/13 55/55/55
f 19/19/19 59/59/59 60/60/60
f 59/59/59 19/19/19 18/18/18
f 17/17/17 69/69/69 70/70/70
f 69/69/69 17/17/17 16/16/16
f 58/58/58 77/77/77 78/78/78
f 77/77/77 58/58/58 79/79/79
f 12/12/12 13/13/13 15/15/15
f 10/10/10 12/12/12 15/15/15
f 56/56/56 12/12/12 11/11/11
f 56/56/56 55/55/55 12/12/12
f 58/58/58 55/55/55 79/79/79
f 79/79/79 55/55/55 57/57/57
f 81/81/81 79/79/79 57/57/57
f 79/79/79 81/81/81 77/77/77
f 83/83/83 70/70/70 82/82/82
f 70/70/70 83/83/83 17/17/17
f 84/84/84 17/17/17 83/83/83
f 17/17/17 84/84/84 18/18/18
f 85/85/85 18/18/18 84/84/84
f 18/18/18 85/85/85 59/59/59

usemtl sn05_10_kmn05r2.bmp
usemap sn05_10_kmn05r2.bmp
f 32/32/32 30/30/30 31/31/31
f 30/30/30 32/32/32 33/33/33
f 36/36/36 34/34/34 35/35/35
f 34/34/34 36/36/36 37/37/37
f 62/62/62 32/32/32 61/61/61
f 32/32/32 62/62/62 33/33/33
f 63/63/63 36/36/36 35/35/35
f 36/36/36 63/63/63 64/64/64
f 67/67/67 65/65/65 66/66/66
f 65/65/65 67/67/67 68/68/68
f 31/31/31 71/71/71 72/72/72
f 71/71/71 31/31/31 30/30/30
f 80/80/80 66/66/66 64/64/64
f 66/66/66 80/80/80 67/67/67
