mtllib ./Object60.mtl
g Object60
v -61.37902 105.7834 -140.6908
v -51.15802 123.7175 -162.7211
v -47.13851 118.716 -163.0528
v -65.39853 110.7848 -140.359
v -65.39853 110.7848 -140.359
v -45.73912 123.7175 -159.2702
v -51.15802 123.7175 -162.7211
v -59.97963 110.7848 -136.9082
v -59.97963 110.7848 -136.9082
v -47.13851 118.716 -163.0528
v -45.73912 123.7175 -159.2702
v -61.37902 105.7834 -140.6908
v -40.54472 146.2408 -176.3531
v -38.56466 143.777 -176.5165
v -37.87531 146.2408 -174.6532
v -40.54472 146.2408 -176.3531
v -38.56466 143.777 -176.5165
v -37.87531 146.2408 -174.6532

vn -0.8616449 -0.4493341 0.2359383
vn -0.8986012 -0.4072656 0.1632504
vn -0.924265 -0.3684663 0.09983304
vn -0.8616452 -0.449333 0.2359397
vn 0.216004 0.8987643 0.38153
vn 0.2795486 0.8234342 0.4937699
vn 0.3279668 0.7462299 0.5792915
vn 0.2160045 0.8987641 0.3815298
vn 0.6456621 -0.4493365 -0.6174279
vn 0.6023506 -0.4072669 -0.6865184
vn 0.5611781 -0.368466 -0.7411557
vn 0.6456618 -0.449337 -0.6174279
vn -0.953554 -0.3012006 -0.003569603
vn -0.9535543 -0.3011997 -0.003567249
vn 0.3915628 0.6069093 0.6916212
vn 0.391564 0.6069091 0.6916206
vn 0.4875836 -0.3011996 -0.8194762
vn 0.4875843 -0.3011989 -0.8194759

vt 0.0004995763 -0.2512252
vt 0.3048176 0.5471682
vt 0.0004995763 0.5471682
vt 0.3048176 -0.2512252
vt 0.3700571 -0.2512252
vt 0.6299429 0.5471682
vt 0.3700571 0.5471682
vt 0.6299429 -0.2512252
vt 0.6951823 -0.2512252
vt 0.9995004 0.5471682
vt 0.6951823 0.5471682
vt 0.9995004 -0.2512252
vt 0.2795607 1.232798
vt 0.1296503 1.232798
vt 0.5640112 1.232798
vt 0.4359886 1.232798
vt 0.9167974 1.232798
vt 0.7668869 1.232798

usemtl sn05_37_sn3tr4.JPG
usemap sn05_37_sn3tr4.JPG
f 3/3/3 1/1/1 2/2/2
f 2/2/2 1/1/1 4/4/4
f 7/7/7 5/5/5 6/6/6
f 6/6/6 5/5/5 8/8/8
f 11/11/11 9/9/9 10/10/10
f 10/10/10 9/9/9 12/12/12
f 14/14/14 3/3/3 13/13/13
f 13/13/13 3/3/3 2/2/2
f 16/16/16 7/7/7 15/15/15
f 15/15/15 7/7/7 6/6/6
f 18/18/18 11/11/11 17/17/17
f 17/17/17 11/11/11 10/10/10
