mtllib ./Object06.mtl
g Object06
v -83.34586 -2.500366 77.58804
v 128.8051 -2.500366 77.58804
v -83.34586 2.499634 77.58804
v 128.8051 2.499634 77.58804
v -83.34586 -2.500366 -175.0693
v -83.34586 -2.500366 77.58804
v -83.34586 2.499634 -175.0693
v -83.34586 2.499634 77.58804
v 128.8052 -2.500366 -175.0693
v -83.34586 -2.500366 -175.0693
v 128.8052 2.499634 -175.0693
v -83.34586 2.499634 -175.0693
v 128.8051 -2.500366 77.58804
v 128.8052 -2.500366 -175.0693
v 128.8051 2.499634 77.58804
v 128.8052 2.499634 -175.0693
v 121.4477 2.499634 -167.7118
v 121.4477 2.499634 70.23053
v 128.8051 2.499634 77.58804
v 128.8052 2.499634 -175.0693
v 128.8052 2.499634 -175.0693
v -83.34586 2.499634 -175.0693
v 121.4477 2.499634 -167.7118
v -75.98831 2.499634 -167.7118
v 128.8051 2.499634 77.58804
v 121.4477 2.499634 70.23053
v -83.34586 2.499634 77.58804
v -75.98831 2.499634 70.23053
v -83.34586 2.499634 -175.0693
v -83.34586 2.499634 77.58804
v -75.98831 2.499634 -167.7118
v -75.98831 2.499634 70.23053

vn 0 0 1
vn 0 0 1
vn 0 0 1
vn 0 0 1
vn -1 0 0
vn -1 0 0
vn -1 0 0
vn -1 0 0
vn 0 0 -1
vn 0 0 -1
vn 0 0 -1
vn 0 0 -1
vn 1 0 4.831456E-07
vn 1 0 4.831456E-07
vn 1 0 4.831456E-07
vn 1 0 4.831456E-07
vn 0 1 0
vn 0 0.9999999 0
vn 0 1 0
vn 0 1 0
vn 0 0.9999999 0
vn 0 1 0
vn 0 1 0
vn 0 1 0
vn 0 1 0
vn 0 0.9999999 0
vn 0 0.9999999 0
vn 0 1 0
vn 0 0.9999999 0
vn 0 0.9999999 0
vn 0 0.9999999 0
vn 0 1 0

vt 0.09138453 1.548467
vt 0.09138453 -0.5258583
vt 0.0004994432 1.548467
vt 0.0004994869 -0.5258584
vt 0.09581685 2.116107
vt 0.09581685 -1.039405
vt -0.006928129 2.116107
vt -0.006928086 -1.039405
vt 0.09370327 0.9995005
vt 0.09370327 -1.999585
vt 0.0004994432 0.9995005
vt 0.0004994869 -1.999585
vt 0.09080476 2.956787
vt 0.09080476 0.1728078
vt 0.0004994432 2.956787
vt 0.0004994869 0.1728078
vt 0.0004992472 -0.7124354
vt 0.0005070739 1.712435
vt 0.09515244 1.785978
vt 0.09514409 -0.7859777
vt 0.09056312 1.991608
vt 0.09055883 -0.9916088
vt 0.0005042135 1.860171
vt 0.0004993658 -0.8601722
vt -0.006830855 1.534553
vt 0.08745462 1.44471
vt -0.006836176 -0.5046077
vt 0.08744866 -0.4147646
vt 0.0004996061 -1.024725
vt 0.0005079508 2.024725
vt 0.09079391 -0.9375294
vt 0.09080493 1.937529

usemtl sn05_27_sn05rf2.jpg
usemap sn05_27_sn05rf2.jpg
f 3/3/3 1/1/1 2/2/2
f 4/4/4 3/3/3 2/2/2
f 7/7/7 5/5/5 6/6/6
f 8/8/8 7/7/7 6/6/6
f 11/11/11 9/9/9 10/10/10
f 12/12/12 11/11/11 10/10/10
f 15/15/15 13/13/13 14/14/14
f 16/16/16 15/15/15 14/14/14
f 19/19/19 17/17/17 18/18/18
f 17/17/17 19/19/19 20/20/20
f 23/23/23 21/21/21 22/22/22
f 24/24/24 23/23/23 22/22/22
f 27/27/27 25/25/25 26/26/26
f 27/27/27 26/26/26 28/28/28
f 31/31/31 29/29/29 30/30/30
f 32/32/32 31/31/31 30/30/30
