mtllib ./Object55.mtl
g Object55
v 8.503943 87.36411 -13.55897
v 27.61236 105.2983 -28.54777
v 31.34443 100.2968 -27.0186
v 4.771863 92.36559 -15.08815
v 4.771863 92.36559 -15.08815
v 30.87398 105.2983 -23.01292
v 27.61236 105.2983 -28.54777
v 8.033486 92.36559 -9.553294
v 8.033486 92.36559 -9.553294
v 31.34443 100.2968 -27.0186
v 30.87398 105.2983 -23.01292
v 8.503943 87.36411 -13.55897
v 43.25777 127.8215 -35.87566
v 45.09621 125.3577 -35.12235
v 44.86448 127.8215 -33.14912
v 43.25777 127.8215 -35.87566
v 45.09621 125.3577 -35.12235
v 44.86448 127.8215 -33.14912

vn -0.8748452 -0.4493336 -0.1809563
vn -0.8747745 -0.4072642 -0.2624986
vn -0.8688505 -0.3684644 -0.330655
vn -0.8748447 -0.4493344 -0.1809569
vn 0.01925011 0.8987638 0.4380105
vn 0.02491319 0.8234341 0.5668648
vn 0.02922845 0.74623 0.6650463
vn 0.01925009 0.8987637 0.4380105
vn 0.855597 -0.4493339 -0.2570075
vn 0.8483727 -0.4072646 -0.3382297
vn 0.8364919 -0.3684656 -0.4056037
vn 0.8555971 -0.4493335 -0.2570075
vn -0.8480029 -0.3011994 -0.4360848
vn -0.848 -0.3012013 -0.436089
vn 0.03489622 0.6069106 0.7940035
vn 0.03489727 0.6069105 0.7940036
vn 0.8064756 -0.3012004 -0.508798
vn 0.8064734 -0.3012027 -0.5088001

vt 0.0004995763 -0.2512252
vt 0.3048176 0.5471682
vt 0.0004995763 0.5471682
vt 0.3048176 -0.2512252
vt 0.3700571 -0.2512252
vt 0.6299429 0.5471682
vt 0.3700571 0.5471682
vt 0.6299429 -0.2512252
vt 0.6951823 -0.2512252
vt 0.9995004 0.5471682
vt 0.6951823 0.5471682
vt 0.9995004 -0.2512252
vt 0.2795607 1.232798
vt 0.1296503 1.232798
vt 0.5640112 1.232798
vt 0.4359886 1.232798
vt 0.9167974 1.232798
vt 0.7668869 1.232798

usemtl sn05_37_sn3tr4.JPG
usemap sn05_37_sn3tr4.JPG
f 3/3/3 1/1/1 2/2/2
f 2/2/2 1/1/1 4/4/4
f 7/7/7 5/5/5 6/6/6
f 6/6/6 5/5/5 8/8/8
f 11/11/11 9/9/9 10/10/10
f 10/10/10 9/9/9 12/12/12
f 14/14/14 3/3/3 13/13/13
f 13/13/13 3/3/3 2/2/2
f 16/16/16 7/7/7 15/15/15
f 15/15/15 7/7/7 6/6/6
f 18/18/18 11/11/11 17/17/17
f 17/17/17 11/11/11 10/10/10
