mtllib ./Object101.mtl
g Object101
v 10.15277 22.95853 -70.28327
v -13.4472 22.95853 -70.28327
v -13.4472 22.95853 70.206
v 10.15277 22.95853 70.206
v 10.15277 16.23819 -70.28327
v -13.4472 16.23819 -70.28327
v -13.4472 22.95853 -70.28327
v 10.15277 22.95853 -70.28327
v -13.4472 16.23819 70.206
v 10.15277 16.23819 70.206
v 10.15277 22.95853 70.206
v -13.4472 22.95853 70.206
v 10.15277 16.23819 70.206
v 10.15277 16.23819 -70.28327
v 10.15277 22.95853 -70.28327
v 10.15277 22.95853 70.206

vn 0 1 0
vn 0 1 0
vn 0 1 0
vn 0 1 0
vn 0 0 -1
vn 0 0 -1
vn 0 0 -1
vn 0 0 -1
vn 0 0 1
vn 0 0 1
vn 0 0 1
vn 0 0 1
vn 0.9999999 0 0
vn 0.9999999 0 0
vn 0.9999999 0 0
vn 0.9999999 0 0

vt 1.173709 0.1185106
vt 1.173709 0.2262052
vt -0.1849315 0.2262052
vt -0.1849317 0.1185107
vt 0.6089438 0.2277933
vt 0.4561916 0.2277934
vt 0.4561915 0.1224234
vt 0.6089438 0.1224233
vt 0.4561916 0.2277934
vt 0.3034394 0.2277935
vt 0.3034394 0.1224234
vt 0.4561915 0.1224234
vt 1.371148 0.232333
vt -0.3734248 0.232333
vt -0.3734249 0.1203476
vt 1.371148 0.1203476

usemtl sn05_10_kmn05r2.bmp
usemap sn05_10_kmn05r2.bmp
f 3/3/3 1/1/1 2/2/2
f 1/1/1 3/3/3 4/4/4
f 7/7/7 5/5/5 6/6/6
f 5/5/5 7/7/7 8/8/8
f 11/11/11 9/9/9 10/10/10
f 9/9/9 11/11/11 12/12/12
f 15/15/15 13/13/13 14/14/14
f 13/13/13 15/15/15 16/16/16
