mtllib ./Object45.mtl
g Object45
v -51.2071 105.7838 196.2252
v -35.40627 123.7179 214.6788
v -36.77428 118.7164 218.4743
v -49.83909 110.7852 192.4296
v -49.83909 110.7852 192.4296
v -40.79783 123.7179 218.1763
v -35.40627 123.7179 214.6788
v -55.23064 110.7852 195.927
v -55.23064 110.7852 195.927
v -36.77428 118.7164 218.4743
v -40.79783 123.7179 218.1763
v -51.2071 105.7838 196.2252
v -27.41074 146.2411 230.0003
v -28.08461 143.7774 231.8701
v -30.06668 146.2411 231.7232
v -27.41074 146.2411 230.0003
v -28.08461 143.7774 231.8701
v -30.06668 146.2411 231.7232

vn 0.4905669 -0.449459 0.7465458
vn 0.432862 -0.4073828 0.8041579
vn 0.3804844 -0.3685744 0.8481654
vn 0.4905671 -0.4494588 0.7465457
vn 0.2960477 0.8988233 -0.323222
vn 0.3831565 0.8235244 -0.4183283
vn 0.4495379 0.7463427 -0.4908036
vn 0.2960488 0.8988234 -0.3232204
vn -0.7866459 -0.4494576 -0.4232919
vn -0.8389817 -0.4073827 -0.3607617
vn -0.8782321 -0.3685758 -0.3047296
vn -0.7866469 -0.4494542 -0.4232937
vn 0.2911983 -0.3012922 0.9079793
vn 0.291204 -0.3012899 0.9079784
vn 0.5367423 0.60704 -0.586012
vn 0.5367452 0.6070406 -0.5860087
vn -0.9299958 -0.3012933 -0.2105471
vn -0.929996 -0.3012881 -0.210554

vt 0.0004995763 -0.2512252
vt 0.3048176 0.5471682
vt 0.0004995763 0.5471682
vt 0.3048176 -0.2512252
vt 0.3700571 -0.2512252
vt 0.6299429 0.5471682
vt 0.3700571 0.5471682
vt 0.6299429 -0.2512252
vt 0.6951823 -0.2512252
vt 0.9995004 0.5471682
vt 0.6951823 0.5471682
vt 0.9995004 -0.2512252
vt 0.2795607 1.232798
vt 0.1296503 1.232798
vt 0.5640112 1.232798
vt 0.4359886 1.232798
vt 0.9167974 1.232798
vt 0.7668869 1.232798

usemtl sn05_37_sn3tr4.JPG
usemap sn05_37_sn3tr4.JPG
f 3/3/3 1/1/1 2/2/2
f 2/2/2 1/1/1 4/4/4
f 7/7/7 5/5/5 6/6/6
f 6/6/6 5/5/5 8/8/8
f 11/11/11 9/9/9 10/10/10
f 10/10/10 9/9/9 12/12/12
f 14/14/14 3/3/3 13/13/13
f 13/13/13 3/3/3 2/2/2
f 16/16/16 7/7/7 15/15/15
f 15/15/15 7/7/7 6/6/6
f 18/18/18 11/11/11 17/17/17
f 17/17/17 11/11/11 10/10/10
