mtllib ./Object54.mtl
g Object54
v 1.74123 105.7834 -13.39802
v -18.87914 123.7175 -26.22761
v -18.71863 118.716 -30.2576
v 1.580727 110.7848 -9.368018
v 1.580727 110.7848 -9.368018
v -14.79361 123.7175 -31.18557
v -18.87914 123.7175 -26.22761
v 5.666203 110.7848 -14.32595
v 5.666203 110.7848 -14.32595
v -18.71863 118.716 -30.2576
v -14.79361 123.7175 -31.18557
v 1.74123 105.7834 -13.39802
v -31.11611 146.2408 -38.42316
v -31.03703 143.777 -40.4084
v -29.10355 146.2408 -40.86551
v -31.11611 146.2408 -38.42316
v -31.03703 143.777 -40.4084
v -29.10355 146.2408 -40.86551

vn 0.129173 -0.4493334 0.8839762
vn 0.05252349 -0.4072641 0.911799
vn -0.01354936 -0.3684643 0.9295431
vn 0.1291729 -0.4493334 0.8839762
vn 0.4050102 0.8987641 -0.167898
vn 0.5241578 0.8234339 -0.2172906
vn 0.6149419 0.7462301 -0.2549254
vn 0.4050101 0.8987641 -0.1678986
vn -0.5341391 -0.4493352 -0.7160958
vn -0.607993 -0.4072664 -0.6815265
vn -0.6672399 -0.3684673 -0.6473196
vn -0.5341392 -0.4493317 -0.716098
vn -0.1197514 -0.3011988 0.9460121
vn -0.1197543 -0.3012 0.9460114
vn 0.7341845 0.6069097 -0.3043579
vn 0.734184 0.6069095 -0.3043599
vn -0.7539451 -0.3011998 -0.5838199
vn -0.7539427 -0.3011954 -0.583825

vt 0.0004995763 -0.2512252
vt 0.3048176 0.5471682
vt 0.0004995763 0.5471682
vt 0.3048176 -0.2512252
vt 0.3700571 -0.2512252
vt 0.6299429 0.5471682
vt 0.3700571 0.5471682
vt 0.6299429 -0.2512252
vt 0.6951823 -0.2512252
vt 0.9995004 0.5471682
vt 0.6951823 0.5471682
vt 0.9995004 -0.2512252
vt 0.2795607 1.232798
vt 0.1296503 1.232798
vt 0.5640112 1.232798
vt 0.4359886 1.232798
vt 0.9167974 1.232798
vt 0.7668869 1.232798

usemtl sn05_37_sn3tr4.JPG
usemap sn05_37_sn3tr4.JPG
f 3/3/3 1/1/1 2/2/2
f 2/2/2 1/1/1 4/4/4
f 7/7/7 5/5/5 6/6/6
f 6/6/6 5/5/5 8/8/8
f 11/11/11 9/9/9 10/10/10
f 10/10/10 9/9/9 12/12/12
f 14/14/14 3/3/3 13/13/13
f 13/13/13 3/3/3 2/2/2
f 16/16/16 7/7/7 15/15/15
f 15/15/15 7/7/7 6/6/6
f 18/18/18 11/11/11 17/17/17
f 17/17/17 11/11/11 10/10/10
