mtllib ./Object100.mtl
g Object100
v 1.890381 -43.04042 60.88219
v 1.890381 -67.58983 60.88219
v -1.284241 -43.04042 60.88219
v -1.284241 -67.58983 60.88219
v -1.284241 -43.04042 60.88219
v 1.890381 -67.58983 60.88219
v -1.284241 -67.58983 64.05679
v 1.890381 -67.58983 64.05679
v -1.284241 -43.04042 64.05679
v 1.890381 -43.04042 64.05679
v -1.284241 -43.04042 64.05679
v 1.890381 -67.58983 64.05679
v -1.284241 -43.04042 60.88219
v -1.284241 -67.58983 60.88219
v -1.284241 -43.04042 64.05679
v -1.284241 -67.58983 64.05679
v -1.284241 -43.04042 64.05679
v -1.284241 -67.58983 60.88219
v 1.890381 -43.04042 60.88219
v -1.284241 -43.04042 60.88219
v 1.890381 -43.04042 64.05679
v -1.284241 -43.04042 64.05679
v 1.890381 -43.04042 64.05679
v -1.284241 -43.04042 60.88219
v 1.890381 -67.58983 60.88219
v 1.890381 -67.58983 64.05679
v 1.890381 -43.04042 64.05679
v 1.890381 -67.58983 64.05679
v 1.890381 -43.04042 60.88219
v 1.890381 -19.24271 26.77962
v 1.890381 -43.79213 26.77963
v -1.284241 -19.24271 26.77962
v -1.284241 -43.79213 26.77963
v -1.284241 -19.24271 26.77962
v 1.890381 -43.79213 26.77963
v -1.284241 -43.79213 29.95423
v 1.890381 -43.79213 29.95423
v -1.284241 -19.24269 29.95423
v 1.890381 -19.24269 29.95423
v -1.284241 -19.24269 29.95423
v 1.890381 -43.79213 29.95423
v -1.284241 -19.24271 26.77962
v -1.284241 -43.79213 26.77963
v -1.284241 -19.24269 29.95423
v -1.284241 -43.79213 29.95423
v -1.284241 -19.24269 29.95423
v -1.284241 -43.79213 26.77963
v 1.890381 -19.24271 26.77962
v -1.284241 -19.24271 26.77962
v 1.890381 -19.24269 29.95423
v -1.284241 -19.24269 29.95423
v 1.890381 -19.24269 29.95423
v -1.284241 -19.24271 26.77962
v 1.890381 -43.79213 26.77963
v 1.890381 -43.79213 29.95423
v 1.890381 -19.24269 29.95423
v 1.890381 -43.79213 29.95423
v 1.890381 -19.24271 26.77962
v 1.890381 7.293472 -7.856021
v 1.890381 -17.25597 -7.856011
v -1.284241 7.293472 -7.856021
v -1.284241 -17.25597 -7.856011
v -1.284241 7.293472 -7.856021
v 1.890381 -17.25597 -7.856011
v -1.284241 -17.25597 -4.68141
v 1.890381 -17.25597 -4.68141
v -1.284241 7.293472 -4.681419
v 1.890381 7.293472 -4.681419
v -1.284241 7.293472 -4.681419
v 1.890381 -17.25597 -4.68141
v -1.284241 7.293472 -7.856021
v -1.284241 -17.25597 -7.856011
v -1.284241 7.293472 -4.681419
v -1.284241 -17.25597 -4.68141
v -1.284241 7.293472 -4.681419
v -1.284241 -17.25597 -7.856011
v 1.890381 7.293472 -7.856021
v -1.284241 7.293472 -7.856021
v 1.890381 7.293472 -4.681419
v -1.284241 7.293472 -4.681419
v 1.890381 7.293472 -4.681419
v -1.284241 7.293472 -7.856021
v 1.890381 -17.25597 -7.856011
v 1.890381 -17.25597 -4.68141
v 1.890381 7.293472 -4.681419
v 1.890381 -17.25597 -4.68141
v 1.890381 7.293472 -7.856021
v 1.890381 45.89317 -65.2321
v 1.890381 21.34377 -65.23209
v -1.284241 45.89317 -65.2321
v -1.284241 21.34377 -65.23209
v -1.284241 45.89317 -65.2321
v 1.890381 21.34377 -65.23209
v -1.284241 21.34377 -62.05749
v 1.890381 21.34377 -62.05749
v -1.284241 45.89317 -62.0575
v 1.890381 45.89317 -62.0575
v -1.284241 45.89317 -62.0575
v 1.890381 21.34377 -62.05749
v -1.284241 45.89317 -65.2321
v -1.284241 21.34377 -65.23209
v -1.284241 45.89317 -62.0575
v -1.284241 21.34377 -62.05749
v -1.284241 45.89317 -62.0575
v -1.284241 21.34377 -65.23209
v 1.890381 45.89317 -65.2321
v -1.284241 45.89317 -65.2321
v 1.890381 45.89317 -62.0575
v -1.284241 45.89317 -62.0575
v 1.890381 45.89317 -62.0575
v -1.284241 45.89317 -65.2321
v 1.890381 21.34377 -65.23209
v 1.890381 21.34377 -62.05749
v 1.890381 45.89317 -62.0575
v 1.890381 21.34377 -62.05749
v 1.890381 45.89317 -65.2321

vn 0.7071042 0 -0.7071093
vn 0 0 -1
vn 0 0 -1
vn 0 0 -1
vn 0 0 -1
vn 0 0 -1
vn 0 0 1
vn 0 0 1
vn 0 0 1
vn 0 0 1
vn 0 0 1
vn 0 0 1
vn -1 0 0
vn -1 0 0
vn -1 0 0
vn -1 0 0
vn -1 0 0
vn -1 0 0
vn 0 1 0
vn 0 1 0
vn 0 1 0
vn 0 1 0
vn 0 1 0
vn 0 1 0
vn 1 0 0
vn 1 0 0
vn 1 0 0
vn 1 0 0
vn 1 0 0
vn 0.7071042 -2.197533E-07 -0.7071093
vn 0 -3.107769E-07 -0.9999999
vn 0 -3.107769E-07 -0.9999999
vn 0 -3.107769E-07 -0.9999999
vn 0 -3.107769E-07 -0.9999999
vn 0 -3.107769E-07 -0.9999999
vn 0 0 1
vn 0 0 1
vn 0 0 1
vn 0 0 1
vn 0 0 1
vn 0 0 1
vn -1 0 0
vn -1 0 0
vn -1 0 0
vn -1 0 0
vn -1 0 0
vn -1 0 0
vn 0 1 -4.806514E-06
vn 0 1 -4.806514E-06
vn 0 1 -4.806514E-06
vn 0 1 -4.806514E-06
vn 0 1 -4.806514E-06
vn 0 1 -4.806514E-06
vn 1 0 0
vn 1 0 0
vn 0.9999999 0 0
vn 0.9999999 0 0
vn 0.9999999 0 0
vn 0.7071045 -2.884259E-07 -0.707109
vn 0 -4.078944E-07 -1
vn 0 -4.078944E-07 -1
vn 0 -4.078944E-07 -1
vn 0 -4.078944E-07 -1
vn 0 -4.078944E-07 -1
vn 0 3.884709E-07 1
vn 0 3.884709E-07 1
vn 0 3.884709E-07 1
vn 0 3.884709E-07 1
vn 0 3.884709E-07 1
vn 0 3.884709E-07 1
vn -1 0 0
vn -1 0 0
vn -1 0 0
vn -1 0 0
vn -1 0 0
vn -1 0 0
vn 0 1 0
vn 0 1 0
vn 0 1 0
vn 0 1 0
vn 0 1 0
vn 0 1 0
vn 1 0 0
vn 1 0 0
vn 1 0 0
vn 1 0 0
vn 1 0 0
vn 0.7071042 -4.395068E-07 -0.7071093
vn 0 -6.215542E-07 -1
vn 0 -6.215542E-07 -1
vn 0 -6.215542E-07 -1
vn 0 -6.215542E-07 -1
vn 0 -6.215542E-07 -1
vn 0 4.661657E-07 1
vn 0 4.661657E-07 1
vn 0 4.661657E-07 1
vn 0 4.661657E-07 1
vn 0 4.661657E-07 1
vn 0 4.661657E-07 1
vn -1 0 0
vn -1 0 0
vn -1 0 0
vn -1 0 0
vn -1 0 0
vn -1 0 0
vn 0 1 0
vn 0 1 0
vn 0 1 0
vn 0 1 0
vn 0 1 0
vn 0 1 0
vn 1 0 0
vn 1 0 0
vn 1 0 0
vn 1 0 0
vn 1 0 0

vt 0.999499 0.9995005
vt 0.9995005 0.0004995465
vt 0.0004995167 0.9995004
vt 0.0005010068 0.0004994869
vt 0.0004995167 0.9995004
vt 0.9995005 0.0004995465
vt 0.999499 0.0004994869
vt 0.0004995167 0.0004995465
vt 0.9995005 0.9995004
vt 0.0005010068 0.9995005
vt 0.9995005 0.9995004
vt 0.0004995167 0.0004995465
vt 0.9995004 0.9995004
vt 0.9995005 0.0004995167
vt 0.0004995028 0.9995004
vt 0.0004995465 0.000499473
vt 0.0004995028 0.9995004
vt 0.9995005 0.0004995167
vt 0.999499 0.0004995465
vt 0.0004995167 0.0004995465
vt 0.999499 0.2362154
vt 0.0004995167 0.2362154
vt 0.999499 0.2362154
vt 0.0004995167 0.0004995465
vt 0.9995004 0.0004995465
vt 0.0004995028 0.0004995465
vt 0.0004995465 0.9995005
vt 0.0004995028 0.0004995465
vt 0.9995005 0.9995005
vt 0.999499 0.9995005
vt 0.9995005 0.0004995465
vt 0.0004995167 0.9995004
vt 0.0005010068 0.0004994869
vt 0.0004995167 0.9995004
vt 0.9995005 0.0004995465
vt 0.999499 0.0004994869
vt 0.0004995167 0.0004995465
vt 0.9995005 0.9995004
vt 0.0005010068 0.9995005
vt 0.9995005 0.9995004
vt 0.0004995167 0.0004995465
vt 0.9995004 0.9995004
vt 0.9995005 0.0004995167
vt 0.0004995028 0.9995004
vt 0.0004995465 0.000499473
vt 0.0004995028 0.9995004
vt 0.9995005 0.0004995167
vt 0.999499 0.0004995465
vt 0.0004995167 0.0004995465
vt 0.999499 0.2362154
vt 0.0004995167 0.2362154
vt 0.999499 0.2362154
vt 0.0004995167 0.0004995465
vt 0.9995004 0.0004995465
vt 0.0004995028 0.0004995465
vt 0.0004995465 0.9995005
vt 0.0004995028 0.0004995465
vt 0.9995005 0.9995005
vt 0.999499 0.9995005
vt 0.9995005 0.0004995465
vt 0.0004995167 0.9995004
vt 0.0005010068 0.0004994869
vt 0.0004995167 0.9995004
vt 0.9995005 0.0004995465
vt 0.999499 0.0004994869
vt 0.0004995167 0.0004995465
vt 0.9995005 0.9995004
vt 0.0005010068 0.9995005
vt 0.9995005 0.9995004
vt 0.0004995167 0.0004995465
vt 0.9995004 0.9995004
vt 0.9995005 0.0004995167
vt 0.0004995028 0.9995004
vt 0.0004995465 0.000499473
vt 0.0004995028 0.9995004
vt 0.9995005 0.0004995167
vt 0.999499 0.0004995465
vt 0.0004995167 0.0004995465
vt 0.999499 0.2362154
vt 0.0004995167 0.2362154
vt 0.999499 0.2362154
vt 0.0004995167 0.0004995465
vt 0.9995004 0.0004995465
vt 0.0004995028 0.0004995465
vt 0.0004995465 0.9995005
vt 0.0004995028 0.0004995465
vt 0.9995005 0.9995005
vt 0.999499 0.9995005
vt 0.9995005 0.0004995465
vt 0.0004995167 0.9995004
vt 0.0005010068 0.0004994869
vt 0.0004995167 0.9995004
vt 0.9995005 0.0004995465
vt 0.999499 0.0004994869
vt 0.0004995167 0.0004995465
vt 0.9995005 0.9995004
vt 0.0005010068 0.9995005
vt 0.9995005 0.9995004
vt 0.0004995167 0.0004995465
vt 0.9995004 0.9995004
vt 0.9995005 0.0004995167
vt 0.0004995028 0.9995004
vt 0.0004995465 0.000499473
vt 0.0004995028 0.9995004
vt 0.9995005 0.0004995167
vt 0.999499 0.0004995465
vt 0.0004995167 0.0004995465
vt 0.999499 0.2362154
vt 0.0004995167 0.2362154
vt 0.999499 0.2362154
vt 0.0004995167 0.0004995465
vt 0.9995004 0.0004995465
vt 0.0004995028 0.0004995465
vt 0.0004995465 0.9995005
vt 0.0004995028 0.0004995465
vt 0.9995005 0.9995005

usemtl sn05_34_sn05z.jpg
usemap sn05_34_sn05z.jpg
f 3/3/3 1/1/1 2/2/2
f 6/6/6 4/4/4 5/5/5
f 9/9/9 7/7/7 8/8/8
f 12/12/12 10/10/10 11/11/11
f 15/15/15 13/13/13 14/14/14
f 18/18/18 16/16/16 17/17/17
f 21/21/21 19/19/19 20/20/20
f 24/24/24 22/22/22 23/23/23
f 26/26/26 25/25/25 1/1/1
f 29/29/29 27/27/27 28/28/28
f 32/32/32 30/30/30 31/31/31
f 35/35/35 33/33/33 34/34/34
f 38/38/38 36/36/36 37/37/37
f 41/41/41 39/39/39 40/40/40
f 44/44/44 42/42/42 43/43/43
f 47/47/47 45/45/45 46/46/46
f 50/50/50 48/48/48 49/49/49
f 53/53/53 51/51/51 52/52/52
f 55/55/55 54/54/54 30/30/30
f 58/58/58 56/56/56 57/57/57
f 61/61/61 59/59/59 60/60/60
f 64/64/64 62/62/62 63/63/63
f 67/67/67 65/65/65 66/66/66
f 70/70/70 68/68/68 69/69/69
f 73/73/73 71/71/71 72/72/72
f 76/76/76 74/74/74 75/75/75
f 79/79/79 77/77/77 78/78/78
f 82/82/82 80/80/80 81/81/81
f 84/84/84 83/83/83 59/59/59
f 87/87/87 85/85/85 86/86/86
f 90/90/90 88/88/88 89/89/89
f 93/93/93 91/91/91 92/92/92
f 96/96/96 94/94/94 95/95/95
f 99/99/99 97/97/97 98/98/98
f 102/102/102 100/100/100 101/101/101
f 105/105/105 103/103/103 104/104/104
f 108/108/108 106/106/106 107/107/107
f 111/111/111 109/109/109 110/110/110
f 113/113/113 112/112/112 88/88/88
f 116/116/116 114/114/114 115/115/115
