mtllib ./Object24.mtl
g Object24
v 0.243042 -48.04842 62.18848
v 0.243042 -48.82004 61.55241
v -0.756958 -48.82004 61.55241
v -0.756958 -48.04842 62.18848
v -0.756958 41.87108 -62.87956
v 0.243042 41.87108 -62.87956
v 0.243042 -48.04842 62.18848
v -0.756958 -48.04842 62.18848
v 1.243042 -53.63797 62.61082
v 1.243042 -55.18121 61.33866
v -0.756958 -55.18121 61.33866
v -0.756958 -53.63797 62.61082
v -0.756958 36.55315 -62.78674
v 1.243042 36.55315 -62.78673
v 1.243042 -53.63797 62.61082
v -0.756958 -53.63797 62.61082
v -0.756958 -48.04842 62.18848
v -0.756958 40.5562 -62.85661
v -0.756958 41.87108 -62.87956
v 0.243042 40.5562 -62.85661
v 0.243042 -48.82004 61.55241
v 0.243042 41.87108 -62.87956
v -0.756958 -48.82004 61.55241
v 0.243042 -48.82004 61.55241
v 0.243042 40.5562 -62.85661
v -0.756958 40.5562 -62.85661
v -0.756958 -53.63797 62.61082
v -0.756958 33.92339 -62.74084
v -0.756958 36.55315 -62.78674
v 1.243042 33.92339 -62.74083
v 1.243042 -55.18121 61.33866
v 1.243042 36.55315 -62.78673
v -0.756958 -55.18121 61.33866
v 1.243042 -55.18121 61.33866
v 1.243042 33.92339 -62.74083
v -0.756958 33.92339 -62.74084
v -0.4972534 -67.59001 63.73581
v -0.4972534 -56.31612 63.44627
v -0.4972534 22.69637 -62.54486
v -0.4972534 35.44737 -62.76743
v -0.4972534 22.69637 -62.54486
v -0.4972534 -56.31612 63.44627
v 0.8798218 -56.31612 63.44627
v 0.8798218 -67.59001 63.73581
v 0.8798218 22.69637 -62.54486
v 0.8798218 22.69637 -62.54486
v 0.8798218 35.44737 -62.76743
v 0.8798218 -56.31612 63.44627

vn -0.9999799 0.004035531 -0.004895474
vn 0 0.6360795 -0.7716236
vn 0.9999143 0.008322357 -0.01009579
vn 0 0.6360795 -0.7716236
vn 0 -0.8119328 -0.583751
vn 0 -0.8119328 -0.583751
vn 0 -0.8119328 -0.583751
vn 0 -0.8119328 -0.583751
vn -0.9999196 0.008070598 -0.009790329
vn 0 0.6360817 -0.7716217
vn 0.9996558 0.0166871 -0.02024288
vn 0 0.6360817 -0.7716217
vn 5.568496E-07 -0.8118262 -0.5838991
vn 1.113699E-06 -0.8118262 -0.5838991
vn 5.568496E-07 -0.8118262 -0.5838991
vn 0 -0.8118263 -0.5838991
vn 1 0 0
vn 1 0 0
vn 1 0 0
vn -1 0 0
vn -1 0 0
vn -1 0 0
vn 0 0.8121476 0.583452
vn 0 0.8121476 0.583452
vn 0 0.8121476 0.583452
vn 0 0.8121476 0.583452
vn 1 0 0
vn 1 0 0
vn 1 0 0
vn -1 0 0
vn -1 0 0
vn -1 0 0
vn -2.225118E-06 0.8122559 0.5833013
vn 0 0.8122559 0.5833013
vn -2.225118E-06 0.8122559 0.5833013
vn -4.450236E-06 0.8122559 0.5833013
vn -1 0 0
vn -1 0 0
vn -1 0 0
vn -1 0 0
vn -1 0 0
vn -1 0 0
vn 1 0 0
vn 1 0 0
vn 1 0 0
vn 1 0 0
vn 1 0 0
vn 1 0 0

vt 10.20514 0.992651
vt 5.306444 0.992651
vt 5.306443 0.9637517
vt 10.20514 0.9637517
vt 8.967602 0.9637517
vt 8.967602 0.992651
vt 5.306443 0.992651
vt 5.306443 0.9637517
vt 4.048927 0.993289
vt 1.501289 0.993289
vt 1.501289 0.9646876
vt 4.048927 0.9646876
vt 3.413463 0.9646876
vt 3.413463 0.993289
vt 1.501289 0.993289
vt 1.501289 0.9646876
vt 5.306443 0.9926193
vt 8.936302 0.9637756
vt 8.967602 0.992643
vt 6.57529 0.9637752
vt 10.20515 0.9637516
vt 6.543991 0.9926459
vt 10.20515 0.9637517
vt 10.20515 0.992651
vt 6.57529 0.992651
vt 6.57529 0.9637517
vt 1.501289 0.993289
vt 3.380907 0.9646876
vt 3.413463 0.993289
vt 2.169309 0.9646876
vt 4.048927 0.9646876
vt 2.136754 0.993289
vt 4.048927 0.9646876
vt 4.048927 0.993289
vt 2.169309 0.993289
vt 2.169309 0.9646876
vt 6.035237 0.0004995465
vt 6.03565 0.4773759
vt 1.562581 0.0007587959
vt 1.559046 0.4772317
vt 1.562581 0.0007587959
vt 6.03565 0.4773759
vt 6.03565 0.4773759
vt 6.035237 0.0004995465
vt 1.562581 0.0007587959
vt 1.562581 0.0007587959
vt 1.559046 0.4772317
vt 6.03565 0.4773759

usemtl sn05_05_1Rwd01.jpg
usemap sn05_05_1Rwd01.jpg
f 3/3/3 1/1/1 2/2/2
f 1/1/1 3/3/3 4/4/4
f 7/7/7 5/5/5 6/6/6
f 5/5/5 7/7/7 8/8/8
f 11/11/11 9/9/9 10/10/10
f 9/9/9 11/11/11 12/12/12
f 15/15/15 13/13/13 14/14/14
f 13/13/13 15/15/15 16/16/16
f 18/18/18 17/17/17 3/3/3
f 17/17/17 18/18/18 19/19/19
f 1/1/1 20/20/20 21/21/21
f 20/20/20 1/1/1 22/22/22
f 25/25/25 23/23/23 24/24/24
f 23/23/23 25/25/25 26/26/26
f 28/28/28 27/27/27 11/11/11
f 27/27/27 28/28/28 29/29/29
f 9/9/9 30/30/30 31/31/31
f 30/30/30 9/9/9 32/32/32
f 35/35/35 33/33/33 34/34/34
f 33/33/33 35/35/35 36/36/36

usemtl sn05_21_sn5door1.jpg
usemap sn05_21_sn5door1.jpg
f 39/39/39 37/37/37 38/38/38
f 42/42/42 40/40/40 41/41/41
f 45/45/45 43/43/43 44/44/44
f 48/48/48 46/46/46 47/47/47
