mtllib ./Object95.mtl
g Object95
v -51.1441 -25.71828 -105.3015
v -34.17041 -14.37326 -85.89784
v -31.60327 -14.37326 -88.9572
v -48.57703 -25.71828 -108.3608
v -21.38269 -3.028244 -71.46434
v -18.81555 -3.028244 -74.52371
v -11.8457 8.826782 -68.73969
v -9.278564 8.826782 -71.79904
v -48.80054 -27.47658 -103.3349
v -46.2334 -27.47658 -106.3943
v -29.2597 -16.13156 -86.99068
v -31.82678 -16.13156 -83.93132
v -16.47198 -4.786545 -72.55719
v -19.03906 -4.786545 -69.49782
v -6.265686 8.351776 -69.27092
v -8.832825 8.351776 -66.21156
v -51.1441 -25.71828 -105.3015
v -48.57703 -25.71828 -108.3608
v -46.2334 -27.47658 -106.3943
v -48.80054 -27.47658 -103.3349
v -48.57703 -25.71828 -108.3608
v -31.60327 -14.37326 -88.9572
v -29.2597 -16.13156 -86.99068
v -46.2334 -27.47658 -106.3943
v -18.81555 -3.028244 -74.52371
v -16.47198 -4.786545 -72.55719
v -9.278564 8.826782 -71.79904
v -6.265686 8.351776 -69.27092
v 35.61652 -14.88394 -88.12418
v 38.3656 -14.88394 -85.22723
v 53.92975 -25.71828 -105.4409
v 51.18066 -25.71828 -108.3378
v 24.16827 -3.028244 -71.60374
v 26.91742 -3.028244 -68.7068
v 12.09631 7.819336 -71.45575
v 14.8454 7.819336 -68.55881
v 33.39734 -16.64224 -86.01823
v 48.96143 -27.47658 -106.2319
v 51.71051 -27.47658 -103.335
v 36.14642 -16.64224 -83.12131
v 21.9491 -4.786545 -69.49782
v 24.69818 -4.786545 -66.60086
v 9.243408 7.34433 -68.7484
v 11.99249 7.34433 -65.85147
v 48.96143 -27.47658 -106.2319
v 51.18066 -25.71828 -108.3378
v 53.92975 -25.71828 -105.4409
v 51.71051 -27.47658 -103.335
v 33.39734 -16.64224 -86.01823
v 35.61652 -14.88394 -88.12418
v 51.18066 -25.71828 -108.3378
v 48.96143 -27.47658 -106.2319
v 21.9491 -4.786545 -69.49782
v 24.16827 -3.028244 -71.60374
v 9.243408 7.34433 -68.7484
v 12.09631 7.819336 -71.45575
v 11.99249 7.34433 -65.85147
v 14.8454 7.819336 -68.55881
v 12.09631 7.819336 -71.45575
v 9.243408 7.34433 -68.7484
v 24.69818 -4.786545 -66.60086
v 26.91742 -3.028244 -68.7068
v 14.8454 7.819336 -68.55881
v 11.99249 7.34433 -65.85147
v 36.14642 -16.64224 -83.12131
v 38.3656 -14.88394 -85.22723
v 51.71051 -27.47658 -103.335
v 53.92975 -25.71828 -105.4409
v -4.55011 16.64365 -68.71796
v -4.55011 4.273132 -68.71796
v -4.55011 16.64365 -83.09866
v -4.55011 4.273132 -83.09866
v -4.55011 16.64365 -97.47937
v -4.55011 4.273132 -97.47937
v -4.55011 29.01414 -68.71796
v -4.55011 29.01414 -83.09866
v -4.55011 29.01414 -97.47937
v 12.7121 16.64365 -68.71796
v 12.7121 4.273132 -68.71796
v 12.7121 16.64365 -83.09866
v 12.7121 4.273132 -83.09866
v 12.7121 16.64365 -97.47937
v 12.7121 4.273132 -97.47937
v 12.7121 29.01414 -68.71796
v 12.7121 29.01414 -83.09866
v 12.7121 29.01414 -97.47937
v 54.25977 -19.59137 -106.6065
v 46.79688 -22.06882 -97.8322
v 51.88263 -26.33968 -103.8053
v 49.17401 -15.32051 -100.6334
v 59.34552 -23.86221 -112.5795
v 56.96838 -30.61052 -109.7784
v 56.63684 -12.84306 -109.4076
v 51.55109 -8.572205 -103.4346
v 61.7226 -17.11392 -115.3807
v -44.61871 -14.27687 -102.9693
v -42.052 -21.02518 -100.3407
v -50.1087 -18.54771 -108.573
v -47.54199 -25.29602 -105.9445
v -55.59875 -22.81857 -114.1768
v -53.03204 -29.56688 -111.5483
v -47.18542 -7.528564 -105.5978
v -52.67542 -11.79941 -111.2016
v -58.16547 -16.07027 -116.8053

vn -0.3116423 0.9135081 -0.2614993
vn -0.3613421 0.8817587 -0.3032055
vn -0.3348745 0.8993893 -0.2809945
vn -0.3116438 0.9135082 -0.2614974
vn -0.5254524 0.7276655 -0.4409112
vn -0.4523998 0.8069875 -0.3796123
vn -0.6087207 0.6070903 -0.5107841
vn -0.6087211 0.6070908 -0.5107832
vn 0.3116423 -0.9135081 0.2614993
vn 0.3116408 -0.9135082 0.2615011
vn 0.3348756 -0.8993893 0.2809932
vn 0.3613459 -0.8817585 0.3032015
vn 0.4577447 -0.8018393 0.384088
vn 0.5323039 -0.7191337 0.4466535
vn 0.6111105 -0.6029914 0.512782
vn 0.6111081 -0.6029891 0.5127873
vn -0.3817156 -0.8670078 -0.3202978
vn -0.3817153 -0.8670095 -0.3202938
vn -0.3817156 -0.8670078 -0.3202978
vn -0.381716 -0.8670062 -0.3203019
vn 0.6990893 0.1498475 -0.6991566
vn 0.6942931 0.1346988 -0.7069747
vn 0.6968403 0.1426664 -0.702894
vn 0.6990867 0.1498551 -0.6991576
vn 0.6213208 -0.1100956 -0.7757831
vn 0.6538182 0.02567913 -0.7562158
vn 0.5856234 -0.2978498 -0.753877
vn 0.5586023 -0.251147 -0.790499
vn 0.3130119 0.9021048 -0.2970361
vn 0.3422441 0.8816959 -0.3247788
vn 0.2864681 0.918714 -0.2718471
vn 0.2864681 0.918714 -0.2718471
vn 0.422606 0.812754 -0.4010424
vn 0.4844241 0.744314 -0.4597064
vn 0.5618315 0.6325217 -0.5331619
vn 0.5618327 0.6325246 -0.5331572
vn -0.3130113 -0.9021047 0.297037
vn -0.2864677 -0.9187137 0.2718481
vn -0.2864677 -0.9187137 0.2718481
vn -0.3422452 -0.8816959 0.3247778
vn -0.427772 -0.8076047 0.4059383
vn -0.4919169 -0.7349196 0.4668091
vn -0.5657958 -0.6257747 0.536918
vn -0.5657951 -0.6257734 0.5369202
vn 0.3614457 -0.8670114 -0.3429987
vn 0.3614457 -0.8670118 -0.3429978
vn 0.3614457 -0.8670114 -0.3429987
vn 0.3614457 -0.8670111 -0.3429996
vn -0.7431855 0.1598173 -0.6497183
vn -0.744954 0.1664867 -0.6460075
vn -0.741471 0.1534976 -0.6531915
vn -0.7414683 0.1535057 -0.6531926
vn -0.6883796 5.541202E-05 -0.7253507
vn -0.6195861 -0.2516263 -0.7435034
vn -0.4784909 -0.4874316 -0.7303815
vn -0.5161546 -0.5656391 -0.643146
vn -0.08697394 0.9927858 0.08253508
vn -0.08697416 0.9927857 0.08253507
vn -0.08697394 0.9927858 0.08253508
vn -0.08697371 0.9927857 0.08253508
vn 0.6195834 0.251621 0.7435074
vn 0.688377 -6.129585E-05 0.7253531
vn 0.478488 0.4874305 0.7303841
vn 0.5389187 0.523697 0.6597789
vn 0.7449518 -0.1664934 0.6460084
vn 0.7431843 -0.159821 0.6497186
vn 0.7414697 -0.1535008 0.6531922
vn 0.7414666 -0.1535072 0.6531943
vn 1 0 0
vn 0.9999999 0 0
vn 1 0 0
vn 1 0 0
vn 1 0 0
vn 0.9999999 0 0
vn 1 0 0
vn 1 0 0
vn 1 0 0
vn 1 0 0
vn 0.9999999 0 0
vn 1 0 0
vn 1 0 0
vn 1 0 0
vn 0.9999999 0 0
vn 1 0 0
vn 1 0 0
vn 1 0 0
vn 0.7616397 0.000692257 0.6480004
vn 0.7616387 0.0006895924 0.6480016
vn 0.7616387 0.0006898708 0.6480016
vn 0.76164 0.0006928636 0.648
vn 0.7616394 0.0006916413 0.6480009
vn 0.7616389 0.0006887591 0.6480014
vn 0.7616407 0.0006946429 0.6479993
vn 0.7616405 0.0006957362 0.6479995
vn 0.7616405 0.000694917 0.6479993
vn 0.7145846 -0.0006904567 -0.6995487
vn 0.7145845 -0.0006913531 -0.6995488
vn 0.7145828 -0.0006924099 -0.6995505
vn 0.7145824 -0.0006932059 -0.6995509
vn 0.7145813 -0.0006935755 -0.6995521
vn 0.7145816 -0.0006927877 -0.6995518
vn 0.7145846 -0.0006904567 -0.6995487
vn 0.7145834 -0.0006914239 -0.69955
vn 0.7145809 -0.0006933581 -0.6995525

vt 0.9995005 0.1208618
vt 0.6665002 0.1208627
vt 0.6665002 0.2335566
vt 0.9995006 0.2335558
vt 0.3334998 0.1208636
vt 0.3334999 0.2335575
vt 0.000499487 0.1208644
vt 0.000499622 0.2335584
vt 0.9995005 0.2335584
vt 0.9995005 0.1208644
vt 0.6665002 0.1208635
vt 0.6665002 0.2335575
vt 0.3334998 0.1208627
vt 0.3334999 0.2335567
vt 0.0004995466 0.1208619
vt 0.0004995624 0.2335559
vt 0.4502934 0.2320619
vt 0.5597765 0.2320619
vt 0.5597765 0.1233004
vt 0.4502934 0.1233004
vt 0.0004995167 0.2352493
vt 0.3334998 0.2352493
vt 0.3334998 0.1222386
vt 0.0004995167 0.1222386
vt 0.6665002 0.2352493
vt 0.6665002 0.1222386
vt 0.9995005 0.2352493
vt 0.9995005 0.1222386
vt 0.6665002 0.2335566
vt 0.6665002 0.1208627
vt 0.9995005 0.1208618
vt 0.9995006 0.2335558
vt 0.3334999 0.2335575
vt 0.3334998 0.1208636
vt 0.000499622 0.2335584
vt 0.000499487 0.1208644
vt 0.6665002 0.1208635
vt 0.9995005 0.1208644
vt 0.9995005 0.2335584
vt 0.6665002 0.2335575
vt 0.3334998 0.1208627
vt 0.3334999 0.2335567
vt 0.0004995466 0.1208619
vt 0.0004995624 0.2335559
vt 0.5597765 0.1233004
vt 0.5597765 0.2320619
vt 0.4502934 0.2320619
vt 0.4502934 0.1233004
vt 0.3334998 0.1222386
vt 0.3334998 0.2352493
vt 0.0004995167 0.2352493
vt 0.0004995167 0.1222386
vt 0.6665002 0.1222386
vt 0.6665002 0.2352493
vt 0.9995005 0.1222386
vt 0.9995005 0.2352493
vt 0.5597765 0.1233004
vt 0.5597765 0.2320619
vt 0.4502934 0.2320619
vt 0.4502934 0.1233004
vt 0.3334998 0.1222386
vt 0.3334998 0.2352493
vt 0.0004995167 0.2352493
vt 0.0004995167 0.1222386
vt 0.6665002 0.1222386
vt 0.6665002 0.2352493
vt 0.9995005 0.1222386
vt 0.9995005 0.2352493
vt 0.2350269 0.6807585
vt 0.2350269 0.5643575
vt 0.1186258 0.6807585
vt 0.1186258 0.5643575
vt 0.002224673 0.6807585
vt 0.002224695 0.5643574
vt 0.2350269 0.7971596
vt 0.1186257 0.7971596
vt 0.002224654 0.7971596
vt 0.2350269 0.6807585
vt 0.2350269 0.5643575
vt 0.1186258 0.6807585
vt 0.1186258 0.5643575
vt 0.002224673 0.6807585
vt 0.002224695 0.5643574
vt 0.2350269 0.7971596
vt 0.1186257 0.7971596
vt 0.002224654 0.7971596
vt 0.1186258 0.6807585
vt 0.2350269 0.5643575
vt 0.1186258 0.5643575
vt 0.2350269 0.6807585
vt 0.002224654 0.6807585
vt 0.002224684 0.5643574
vt 0.1186257 0.7971596
vt 0.2350268 0.7971596
vt 0.002224624 0.7971596
vt 0.2350269 0.6807585
vt 0.2350269 0.5643575
vt 0.1186258 0.6807585
vt 0.1186258 0.5643575
vt 0.002224673 0.6807585
vt 0.002224695 0.5643574
vt 0.2350269 0.7971596
vt 0.1186257 0.7971596
vt 0.002224654 0.7971596

usemtl sn05_10_kmn05r2.bmp
usemap sn05_10_kmn05r2.bmp
f 3/3/3 1/1/1 2/2/2
f 1/1/1 3/3/3 4/4/4
f 6/6/6 2/2/2 5/5/5
f 2/2/2 6/6/6 3/3/3
f 8/8/8 5/5/5 7/7/7
f 5/5/5 8/8/8 6/6/6
f 11/11/11 9/9/9 10/10/10
f 9/9/9 11/11/11 12/12/12
f 13/13/13 12/12/12 11/11/11
f 12/12/12 13/13/13 14/14/14
f 15/15/15 14/14/14 13/13/13
f 14/14/14 15/15/15 16/16/16
f 19/19/19 17/17/17 18/18/18
f 17/17/17 19/19/19 20/20/20
f 23/23/23 21/21/21 22/22/22
f 21/21/21 23/23/23 24/24/24
f 26/26/26 22/22/22 25/25/25
f 22/22/22 26/26/26 23/23/23
f 28/28/28 25/25/25 27/27/27
f 25/25/25 28/28/28 26/26/26
f 31/31/31 29/29/29 30/30/30
f 29/29/29 31/31/31 32/32/32
f 30/30/30 33/33/33 34/34/34
f 33/33/33 30/30/30 29/29/29
f 34/34/34 35/35/35 36/36/36
f 35/35/35 34/34/34 33/33/33
f 39/39/39 37/37/37 38/38/38
f 37/37/37 39/39/39 40/40/40
f 40/40/40 41/41/41 37/37/37
f 41/41/41 40/40/40 42/42/42
f 42/42/42 43/43/43 41/41/41
f 43/43/43 42/42/42 44/44/44
f 47/47/47 45/45/45 46/46/46
f 45/45/45 47/47/47 48/48/48
f 51/51/51 49/49/49 50/50/50
f 49/49/49 51/51/51 52/52/52
f 50/50/50 53/53/53 54/54/54
f 53/53/53 50/50/50 49/49/49
f 54/54/54 55/55/55 56/56/56
f 55/55/55 54/54/54 53/53/53
f 59/59/59 57/57/57 58/58/58
f 57/57/57 59/59/59 60/60/60
f 63/63/63 61/61/61 62/62/62
f 61/61/61 63/63/63 64/64/64
f 62/62/62 65/65/65 66/66/66
f 65/65/65 62/62/62 61/61/61
f 66/66/66 67/67/67 68/68/68
f 67/67/67 66/66/66 65/65/65
f 71/71/71 69/69/69 70/70/70
f 70/70/70 72/72/72 71/71/71
f 73/73/73 71/71/71 72/72/72
f 72/72/72 74/74/74 73/73/73
f 76/76/76 75/75/75 69/69/69
f 69/69/69 71/71/71 76/76/76
f 77/77/77 76/76/76 71/71/71
f 71/71/71 73/73/73 77/77/77
f 80/80/80 78/78/78 79/79/79
f 79/79/79 81/81/81 80/80/80
f 82/82/82 80/80/80 81/81/81
f 81/81/81 83/83/83 82/82/82
f 85/85/85 84/84/84 78/78/78
f 78/78/78 80/80/80 85/85/85
f 86/86/86 85/85/85 80/80/80
f 80/80/80 82/82/82 86/86/86
f 89/89/89 87/87/87 88/88/88
f 90/90/90 88/88/88 87/87/87
f 92/92/92 91/91/91 89/89/89
f 87/87/87 89/89/89 91/91/91
f 87/87/87 93/93/93 90/90/90
f 94/94/94 90/90/90 93/93/93
f 91/91/91 95/95/95 87/87/87
f 93/93/93 87/87/87 95/95/95
f 98/98/98 96/96/96 97/97/97
f 97/97/97 99/99/99 98/98/98
f 100/100/100 98/98/98 99/99/99
f 99/99/99 101/101/101 100/100/100
f 103/103/103 102/102/102 96/96/96
f 96/96/96 98/98/98 103/103/103
f 104/104/104 103/103/103 98/98/98
f 98/98/98 100/100/100 104/104/104
