mtllib ./Object04.mtl
g Object04
v -538.9183 0.0001220703 -245.7412
v -537.4383 0.0001220703 39.38779
v -499.906 22.68977 1.402802
v -501.8478 22.68977 -284.4173
v -537.4383 -5.492447 39.38779
v -537.4383 0.0001220703 39.38779
v -538.9183 0.0001220703 -245.7412
v -538.9183 -5.492447 -245.7412
v -80.29401 -5.492447 39.48792
v -80.29401 0.0001220703 39.48792
v -537.4383 0.0001220703 39.38779
v -537.4383 -5.492447 39.38779
v -460.3928 0.0001220703 -38.89072
v -499.906 22.68977 1.402802
v -42.92474 19.21701 0.9964905
v -3.394653 0.0001220703 -38.76474
v -460.3928 0.0001220703 -38.89072
v -465.8188 0.0001220703 -322.3347
v -501.8478 22.68977 -284.4173
v -499.906 22.68977 1.402802
v -1590.527 -5.492447 397.7856
v -1631.486 15.1972 397.7856
v -1631.099 15.1972 -285.3664
v -1631.099 22.68977 -285.3664
v -1631.486 22.68977 397.7856
v -1590.527 0.0001220703 397.7856
v -1590.806 0.0001220703 -245.8532
v -1631.486 22.68977 397.7856
v -1631.099 22.68977 -285.3664
v -1669.084 0.0001220703 -322.8987
v -1669.359 0.0001220703 397.7856
v -1631.099 22.68977 -285.3664
v -1590.806 0.0001220703 -245.8532
v -538.9183 0.0001220703 -245.7412
v -501.8478 22.68977 -284.4173
v -1590.806 -5.492447 -245.8532
v -1590.806 0.0001220703 -245.8532
v -1590.527 0.0001220703 397.7856
v -1590.527 -5.492447 397.7856
v -1590.806 0.0001220703 -245.8532
v -1590.806 -5.492447 -245.8532
v -538.9183 -5.492447 -245.7412
v -538.9183 0.0001220703 -245.7412
v -1631.486 22.68977 397.7856
v -1669.359 0.0001220703 397.7856
v -1669.359 -5.20903 397.7856
v -1631.486 15.1972 397.7856
v -1590.527 -5.492447 397.7856
v -1590.527 0.0001220703 397.7856
v -1631.486 22.68977 397.7856
v -1631.486 15.1972 397.7856
v -501.8478 22.68977 -284.4173
v -465.8188 0.0001220703 -322.3347
v -1669.084 0.0001220703 -322.8987
v -1631.099 22.68977 -285.3664
v -499.906 22.68977 1.402802
v -537.4383 0.0001220703 39.38779
v -80.29401 0.0001220703 39.48792
v -42.92474 19.21701 0.9964905
v -39.30908 22.68977 1156.76
v -722.0153 0.0001220703 1117.573
v -722.0153 22.68977 1157.681
v -78.82227 0.0001220703 1116.467
v -722.0153 22.68977 1157.681
v -1.776794 0.0001220703 1194.745
v -39.30908 22.68977 1156.76
v -722.0153 0.0001220703 1195.361
v -80.29401 0.0001220703 39.48792
v -39.30908 22.68977 1156.76
v -42.92474 19.21701 0.9964905
v -78.82227 0.0001220703 1116.467
v -78.8222 -5.492447 1116.467
v -722.0153 0.0001220703 1117.573
v -78.82227 0.0001220703 1116.467
v -722.0153 -5.492447 1117.573
v -78.8222 -5.492447 1116.467
v -80.29401 0.0001220703 39.48792
v -80.29401 -5.492447 39.48792
v -78.82227 0.0001220703 1116.467
v -722.0153 22.68977 1157.681
v -722.0153 -5.20903 1195.361
v -722.0153 0.0001220703 1195.361
v -722.0153 15.1972 1157.681
v -722.0153 -5.492447 1117.573
v -722.0153 22.68977 1157.681
v -722.0153 0.0001220703 1117.573
v -722.0153 15.1972 1157.681
v -1.776794 0.0001220703 1194.745
v -42.92474 19.21701 0.9964905
v -39.30908 22.68977 1156.76
v -3.394653 0.0001220703 -38.76474
v -1647.874 22.68977 770.3439
v -1607.531 0.0001220703 819.0071
v -1607.51 0.0001220703 770.3439
v -1647.824 22.68977 858.5203
v -1647.874 15.48064 770.3439
v -1607.531 -5.20903 819.0071
v -1647.824 15.48064 858.5203
v -1607.51 -5.20903 770.3439
v -1607.531 0.0001220703 819.0071
v -1342.632 22.68977 858.4139
v -1302.86 0.0001220703 821.7787
v -1647.824 22.68977 858.5203
v -1607.51 0.0001220703 770.3439
v -1607.531 -5.20903 819.0071
v -1607.51 -5.20903 770.3439
v -1607.531 0.0001220703 819.0071
v -1685.857 0.0001220703 770.3439
v -1647.824 22.68977 858.5203
v -1647.874 22.68977 770.3439
v -1685.81 0.0001220703 896.0525
v -1381.879 0.2645874 892.9382
v -1647.824 22.68977 858.5203
v -1685.81 0.0001220703 896.0525
v -1342.632 22.68977 858.4139
v -1607.531 0.0001220703 819.0071
v -1302.86 -5.492447 821.7787
v -1607.531 -5.20903 819.0071
v -1302.86 0.0001220703 821.7787
v -1607.531 -5.20903 819.0071
v -1342.632 16.67128 859.4551
v -1647.824 15.48064 858.5203
v -1302.86 -5.492447 821.7787
v -1302.966 0.0001220703 1118.974
v -722.0153 22.68977 1157.681
v -722.0153 0.0001220703 1117.573
v -1343.259 22.68977 1158.487
v -1302.86 0.0001220703 821.7787
v -1302.966 -5.492447 1118.974
v -1302.86 -5.492447 821.7787
v -1302.966 0.0001220703 1118.974
v -1302.966 -5.492447 1118.974
v -722.0153 0.0001220703 1117.573
v -722.0153 -5.492447 1117.573
v -1302.966 0.0001220703 1118.974
v -722.0153 0.0001220703 1195.361
v -1343.259 22.68977 1158.487
v -1381.245 0.0001220703 1196.02
v -722.0153 22.68977 1157.681
v -1343.259 22.68977 1158.487
v -1381.879 0.2645874 892.9382
v -1381.245 0.0001220703 1196.02
v -1342.632 22.68977 858.4139
v -1302.966 0.0001220703 1118.974
v -1342.632 22.68977 858.4139
v -1343.259 22.68977 1158.487
v -1302.86 0.0001220703 821.7787
v -537.4383 -5.492447 39.38779
v -538.9183 -5.492447 -245.7412
v -499.906 15.1972 1.402802
v -501.8477 15.1972 -284.4174
v -1590.806 -5.492447 -245.8532
v -1590.806 -5.492447 -245.8532
v -1631.099 15.1972 -285.3664
v -538.9183 -5.492447 -245.7412
v -501.8477 15.1972 -284.4174
v -537.4383 -5.492447 39.38779
v -499.906 15.1972 1.402802
v -80.29401 -5.492447 39.48792
v -42.92474 11.44101 0.99646
v -722.0153 -5.492447 1117.573
v -39.30908 15.1972 1156.76
v -722.0153 15.1972 1157.681
v -78.8222 -5.492447 1116.467
v -39.30908 15.1972 1156.76
v -80.29401 -5.492447 39.48792
v -42.92474 11.44101 0.99646
v -78.8222 -5.492447 1116.467
v -722.0153 15.1972 1157.681
v -1302.966 -5.492447 1118.974
v -722.0153 -5.492447 1117.573
v -1343.259 14.91377 1158.487
v -1342.632 14.91377 858.4139
v -1302.966 -5.492447 1118.974
v -1343.259 14.91377 1158.487
v -1302.86 -5.492447 821.7787

vn -0.5173572 0.855764 0.003100571
vn -0.5153618 0.8569685 0.002675019
vn -0.5173572 0.855764 0.003100571
vn -0.5193602 0.8545482 0.00352837
vn -0.9999865 0 0.005190495
vn -0.9999865 0 0.005190495
vn -0.9999865 0 0.005190495
vn -0.9999865 0 0.005190495
vn -0.0002190297 0 1
vn -0.0002190297 0 1
vn -0.0002190297 0 1
vn -0.0002190297 0 1
vn 0.003229745 0.887256 -0.4612661
vn 0.006209117 0.8739228 -0.4860251
vn 0.003229745 0.887256 -0.4612661
vn 0.0001199251 0.9004049 -0.4350529
vn 0.5099055 0.8602051 -0.006599511
vn 0.5252677 0.8508777 -0.01005525
vn 0.5099055 0.8602051 -0.006599511
vn 0.4953832 0.868668 -0.003365478
vn -0.453796 -0.8911057 -3.695051E-05
vn -0.4508769 -0.8925861 -0.0002551533
vn -0.453796 -0.8911057 -3.695051E-05
vn 0.4875915 0.8730718 3.970151E-05
vn 0.4845796 0.8747472 0.0002742243
vn 0.4875915 0.8730718 3.970151E-05
vn 0.4908231 0.8712592 -0.0002124264
vn -0.5132794 0.8582215 -0.0002417275
vn -0.5125982 0.8586285 -0.00029008
vn -0.5132794 0.8582215 -0.0002417275
vn -0.5139264 0.8578342 -0.0001957742
vn -0.0002442169 0.8648852 0.5019697
vn -5.305541E-05 0.8671713 0.4980098
vn -0.0002442169 0.8648852 0.5019697
vn -0.0004250291 0.8627061 0.5057056
vn 0.9999999 0 -0.0004327962
vn 0.9999999 0 -0.0004327962
vn 0.9999999 0 -0.0004327962
vn 0.9999999 0 -0.0004327962
vn -0.0001065328 0 1
vn -0.0001065328 0 1
vn -0.0001065328 0 1
vn -0.0001065328 0 1
vn 0 0 1
vn 0 0 1
vn 0 0 1
vn 0 0 1
vn 0 0 1
vn 0 0 1
vn 0 0 1
vn 0 0 1
vn 0.0003343279 0.8569398 -0.5154164
vn 0.0002405628 0.8582 -0.5133153
vn 0.0003343279 0.8569398 -0.5154164
vn 0.0004350842 0.8555798 -0.5176708
vn 0.003487932 0.8755189 0.4831714
vn -0.0001123017 0.8585505 0.5127288
vn 0.003487932 0.8755189 0.4831714
vn 0.007179721 0.8918689 0.452237
vn -0.0007506743 0.8710223 -0.4912429
vn -0.0007506743 0.8710223 -0.4912429
vn -0.0006637342 0.8703777 -0.4923843
vn -0.0008425142 0.8717017 -0.4900363
vn 0.0005630198 0.8577167 0.5141222
vn 0.0005630198 0.8577167 0.5141222
vn 0.0006905907 0.8588018 0.5123075
vn 0.0004412577 0.8566775 0.5158522
vn -0.4785888 0.878039 -0.0002751985
vn -0.4785888 0.878039 -0.0002751985
vn -0.4583249 0.8887838 -0.001236748
vn -0.4984913 0.8668944 0.0006812118
vn -0.001719287 -9.552628E-09 -0.9999985
vn -0.001719287 -9.552628E-09 -0.9999985
vn -0.001719287 -1.910526E-08 -0.9999985
vn -0.001719287 0 -0.9999985
vn -0.999999 -5.561421E-06 0.001366573
vn -0.999999 -5.561421E-06 0.001366573
vn -0.999999 0 0.001366601
vn -0.999999 -1.112284E-05 0.001366545
vn -0.9999999 0 0
vn -0.9999999 0 0
vn -1 0 0
vn -1 0 0
vn -1 0 0
vn -1 0 0
vn -1 0 0
vn -1 0 0
vn 0.4776891 0.8785259 -0.002323261
vn 0.4776891 0.8785259 -0.002323261
vn 0.5204482 0.853883 -0.004193848
vn 0.4367426 0.8995863 -0.0005728269
vn 0.4902984 0.8715546 -0.0001032167
vn 0.4902984 0.8715546 -0.0001032167
vn 0.4900089 0.8717175 0.0002126574
vn 0.4904582 0.8714646 -0.0002777026
vn -0.4564216 -0.8897637 9.608959E-05
vn -0.4564216 -0.8897637 9.608959E-05
vn -0.4565767 -0.8896841 0.0002585204
vn -0.4561407 -0.8899077 -0.0001979494
vn 0.00222969 0.8600579 -0.5101917
vn 0.00222969 0.8600579 -0.5101917
vn 0.004755857 0.8524475 -0.5227911
vn -0.0001735295 0.8671182 -0.4981022
vn 0.9999999 0 0.0004339656
vn 0.9999999 0 0.0004339656
vn 0.9999999 0 0.0004339656
vn 0.9999999 0 0.0004339656
vn -0.5127344 0.8585473 0.0002343996
vn -0.5127344 0.8585473 0.0002343996
vn -0.5128301 0.8584901 0.0002903698
vn -0.5126672 0.8585873 0.0001951526
vn 0.002448261 0.8463927 0.5325536
vn 0.002448261 0.8463927 0.5325536
vn 0.004593008 0.8537011 0.5207431
vn 0.0001898238 0.8385181 0.5448736
vn 0.009096675 0 -0.9999586
vn 0.009096675 0 -0.9999586
vn 0.009096674 0 -0.9999586
vn 0.009096675 0 -0.9999587
vn -0.00164033 -0.87502 0.484084
vn -0.00164033 -0.87502 0.484084
vn 0.002027021 -0.8850498 0.4654918
vn -0.005378154 -0.8643812 0.5028085
vn -0.000910382 0.8686008 -0.4955117
vn -0.000910382 0.8686008 -0.4955117
vn -0.001188141 0.8703772 -0.4923841
vn -0.0006474188 0.8669087 -0.4984666
vn 0.9999999 0 0.0003565227
vn 0.9999999 0 0.0003565227
vn 0.9999999 0 0.0003565227
vn 0.9999999 0 0.0003565227
vn -0.002413029 0 -0.9999971
vn -0.002413029 0 -0.9999971
vn -0.002413029 0 -0.9999971
vn -0.002413029 0 -0.9999971
vn 0.0005914292 0.8560953 0.5168177
vn 0.0005914292 0.8560953 0.5168177
vn 0.0005171162 0.8555438 0.5177303
vn 0.0006699994 0.8566775 0.5158522
vn -0.5041263 0.8636299 0.0003852059
vn -0.5041263 0.8636299 0.0003852059
vn -0.5114817 0.8592923 0.001821246
vn -0.4967985 0.8678654 -0.001038177
vn 0.4935211 0.8697338 0.0006056999
vn 0.4935211 0.8697338 0.0006056999
vn 0.4914303 0.8709162 0.001026959
vn 0.4956471 0.868524 0.0001767084
vn 0.4808187 -0.8768165 -0.002495721
vn 0.4827681 -0.8757435 -0.00289325
vn 0.4827681 -0.8757435 -0.00289325
vn 0.484726 -0.8746599 -0.003293024
vn -0.4569305 -0.8895023 0.0001977578
vn 4.942176E-05 -0.8858817 -0.4639111
vn 0.0002275472 -0.8838544 -0.4677622
vn 0.0002275472 -0.8838544 -0.4677622
vn 0.0003961436 -0.8819199 -0.4713991
vn 0.0001047505 -0.878225 -0.4782479
vn -0.003829767 -0.8957981 -0.4444449
vn -0.003829767 -0.8957981 -0.4444449
vn -0.00786389 -0.9124747 -0.4090576
vn 0.0006988639 -0.8892927 0.4573378
vn 0.0006988639 -0.8892927 0.4573378
vn 0.0006179857 -0.8887222 0.4584456
vn 0.0007842829 -0.8898938 0.456167
vn 0.4395414 -0.8982221 0.0005095737
vn 0.4395414 -0.8982221 0.0005095737
vn 0.4141603 -0.9102024 0.00166248
vn 0.4643792 -0.8856362 -0.0006346218
vn 0.001052886 -0.8883978 0.4590732
vn 0.001052886 -0.8883978 0.4590732
vn 0.001106246 -0.8887219 0.4584455
vn 0.001002203 -0.8880897 0.4596691
vn -0.4545617 -0.8907151 -0.0005578864
vn -0.4545617 -0.8907151 -0.0005578864
vn -0.4525427 -0.8917423 -0.0009456961
vn -0.4566162 -0.8896637 -0.0001627941

vt -0.9300822 0.002202843
vt 0.9995005 0.0004994869
vt 0.7334431 0.999424
vt -1.227772 1.001007
vt 3.10456 0.108945
vt 3.10456 0.0004994795
vt -0.003783822 0.0004994812
vt -0.003783703 0.108945
vt 3.402787 0.09998363
vt 3.402787 0.0004996411
vt 0.0004995465 0.0004995987
vt 0.0004995465 0.0999836
vt 3.101703 0.01787959
vt 3.381382 0.9999355
vt 0.4029827 1.003201
vt 0.1348992 0.01167181
vt 0.4894647 0.999076
vt -1.334113 0.9991843
vt -1.058816 0.005876457
vt 0.7334431 0.004293591
vt 4.997502 0.9095436
vt 4.997502 0.0004527974
vt 0.002497435 0.009037317
vt 3.381382 0.9999355
vt -1.086402 1.004834
vt -1.086402 0.009116346
vt 3.101703 0.01787959
vt 4.617334 1.01675
vt 0.06428479 1.018909
vt -0.1764589 0.02633257
vt 4.625964 0.02787977
vt 0.7334431 0.004293591
vt 0.4894647 0.999076
vt -6.082968 0.9994663
vt -6.319463 0.0105225
vt 5.761159 0.1110222
vt 5.761158 0.0004994795
vt 0.0004995465 0.0004994869
vt 0.0004995167 0.1110222
vt -2.61759 0.0004994869
vt -2.61759 0.1125439
vt 6.669516 0.1125439
vt 6.669514 0.0004994801
vt 0.06955522 0.006897613
vt 0.0622319 1.005872
vt -0.002453938 1.012184
vt 0.004869536 0.01320915
vt 0.07537872 0.008051604
vt 0.1387302 0.008051768
vt 0.1421333 1.007053
vt 0.07878189 1.007053
vt -6.98434 1.005653
vt -7.231544 0.007765516
vt 0.9995005 0.0004994869
vt 0.7334431 0.999424
vt 0.06428479 1.018909
vt -0.1764589 0.02633257
vt 2.860208 0.0273109
vt 3.099525 1.01747
vt 3.381382 0.9999355
vt -1.086402 0.009116346
vt -1.086402 1.004834
vt 3.101703 0.01787959
vt 4.617334 1.01675
vt -0.1764589 0.02633257
vt 0.06428479 1.018909
vt 4.625964 0.02787977
vt -6.135192 0.9994694
vt 0.7334431 0.004293591
vt -6.379803 0.01057579
vt 0.4894647 0.999076
vt 5.761159 0.1110222
vt 0.0004995465 0.0004994869
vt 5.761158 0.0004994795
vt 0.0004995167 0.1110222
vt -2.61759 0.1125439
vt 6.743309 0.00049948
vt 6.74331 0.1125439
vt -2.61759 0.0004994869
vt 0.06955522 0.006897613
vt -0.002453938 1.012184
vt 0.0622319 1.005872
vt 0.004869536 0.01320915
vt 0.07537872 0.008051604
vt 0.1421333 1.007053
vt 0.1387302 0.008051768
vt 0.07878189 1.007053
vt 0.9995005 0.0004994869
vt -7.050369 1.005706
vt 0.7334431 0.999424
vt -7.306677 0.00783184
vt 2.804712 1.000568
vt 3.101703 0.01787959
vt 2.785055 0.01721703
vt 3.381382 0.9999355
vt 2.103572 1.000568
vt 2.324446 0.01787959
vt 2.58781 0.9999355
vt 2.060708 0.01721703
vt 0.4894647 0.999076
vt -1.056498 0.00587441
vt -1.331791 0.9991841
vt 0.7334431 0.004293591
vt 5.325616 0.0004994801
vt 5.761159 0.1110222
vt 5.325616 0.1110222
vt 5.761158 0.0004994795
vt 0.6612259 0.02660245
vt 0.06428479 1.018909
vt 0.65196 1.018631
vt -0.1764589 0.02633257
vt -0.9275461 0.002200605
vt 0.7334431 0.999424
vt 0.9995005 0.0004994869
vt -1.225235 1.001005
vt -2.61759 0.0004994869
vt -0.04408445 0.1125439
vt -2.61759 0.1125439
vt -0.04408493 0.000499485
vt 0.4512159 0.999076
vt -1.208776 0.0175169
vt 0.7334431 0.01593608
vt -1.520524 0.9991841
vt 0.4894647 0.999076
vt -3.272812 0.00783179
vt -3.265371 0.999299
vt 0.7334431 0.004293591
vt 3.102121 0.0004994829
vt 5.761159 0.1110222
vt 3.102121 0.1110222
vt 5.761158 0.0004994795
vt -2.61759 0.1125439
vt 2.688139 0.000499483
vt 2.68814 0.1125439
vt -2.61759 0.0004994869
vt -3.651278 0.004605004
vt 0.7334431 0.999424
vt 0.9995005 0.0004994869
vt -3.650482 1.002962
vt 0.06428479 1.018909
vt 1.845552 0.026984
vt -0.1764589 0.02633257
vt 2.064101 1.017961
vt 3.101703 0.01787959
vt 1.419016 1.002087
vt 3.381382 0.9999355
vt 1.168534 0.0138346
vt 0.9995005 0.0004994869
vt -0.9300822 0.002202843
vt 0.7334431 0.999424
vt -1.227772 1.001007
vt 0.2914058 0.9033645
vt 0.4894647 0.999076
vt 0.7334431 0.004293591
vt -6.082968 0.9994663
vt -6.319463 0.0105225
vt -0.1764589 0.02633257
vt 0.06428479 1.018909
vt 2.860208 0.0273109
vt 3.099525 1.01747
vt -1.086402 0.009116346
vt 3.381382 0.9999355
vt -1.086402 1.004834
vt 3.101703 0.01787959
vt 0.7334431 0.004293591
vt -6.135192 0.9994694
vt -6.379803 0.01057579
vt 0.4894647 0.999076
vt -3.272812 0.00783179
vt 0.4894647 0.999076
vt -3.265371 0.999299
vt 0.7334431 0.004293591
vt 1.419016 1.002087
vt 3.101703 0.01787959
vt 3.381382 0.9999355
vt 1.168534 0.0138346

usemtl sn05_08_sn05roof.jpg
usemap sn05_08_sn05roof.jpg
f 3/3/3 1/1/1 2/2/2
f 1/1/1 3/3/3 4/4/4
f 15/15/15 13/13/13 14/14/14
f 13/13/13 15/15/15 16/16/16
f 19/19/19 17/17/17 18/18/18
f 17/17/17 19/19/19 20/20/20
f 23/23/23 21/21/21 22/22/22
f 26/26/26 24/24/24 25/25/25
f 24/24/24 26/26/26 27/27/27
f 30/30/30 28/28/28 29/29/29
f 28/28/28 30/30/30 31/31/31
f 34/34/34 32/32/32 33/33/33
f 32/32/32 34/34/34 35/35/35
f 46/46/46 44/44/44 45/45/45
f 44/44/44 46/46/46 47/47/47
f 50/50/50 48/48/48 49/49/49
f 48/48/48 50/50/50 51/51/51
f 54/54/54 52/52/52 53/53/53
f 52/52/52 54/54/54 55/55/55
f 58/58/58 56/56/56 57/57/57
f 56/56/56 58/58/58 59/59/59
f 62/62/62 60/60/60 61/61/61
f 63/63/63 61/61/61 60/60/60
f 66/66/66 64/64/64 65/65/65
f 67/67/67 65/65/65 64/64/64
f 70/70/70 68/68/68 69/69/69
f 71/71/71 69/69/69 68/68/68
f 82/82/82 80/80/80 81/81/81
f 83/83/83 81/81/81 80/80/80
f 86/86/86 84/84/84 85/85/85
f 87/87/87 85/85/85 84/84/84
f 90/90/90 88/88/88 89/89/89
f 91/91/91 89/89/89 88/88/88
f 94/94/94 92/92/92 93/93/93
f 95/95/95 93/93/93 92/92/92
f 98/98/98 96/96/96 97/97/97
f 99/99/99 97/97/97 96/96/96
f 102/102/102 100/100/100 101/101/101
f 103/103/103 101/101/101 100/100/100
f 110/110/110 108/108/108 109/109/109
f 111/111/111 109/109/109 108/108/108
f 114/114/114 112/112/112 113/113/113
f 115/115/115 113/113/113 112/112/112
f 122/122/122 120/120/120 121/121/121
f 123/123/123 121/121/121 120/120/120
f 126/126/126 124/124/124 125/125/125
f 127/127/127 125/125/125 124/124/124
f 138/138/138 136/136/136 137/137/137
f 139/139/139 137/137/137 136/136/136
f 142/142/142 140/140/140 141/141/141
f 143/143/143 141/141/141 140/140/140
f 146/146/146 144/144/144 145/145/145
f 147/147/147 145/145/145 144/144/144
f 150/150/150 148/148/148 149/149/149
f 149/149/149 151/151/151 150/150/150
f 23/23/23 152/152/152 21/21/21
f 155/155/155 153/153/153 154/154/154
f 154/154/154 156/156/156 155/155/155
f 159/159/159 157/157/157 158/158/158
f 158/158/158 160/160/160 159/159/159
f 163/163/163 161/161/161 162/162/162
f 164/164/164 162/162/162 161/161/161
f 167/167/167 165/165/165 166/166/166
f 168/168/168 166/166/166 165/165/165
f 171/171/171 169/169/169 170/170/170
f 172/172/172 170/170/170 169/169/169
f 175/175/175 173/173/173 174/174/174
f 176/176/176 174/174/174 173/173/173

usemtl sn05_10_kmn05r2.bmp
usemap sn05_10_kmn05r2.bmp
f 7/7/7 5/5/5 6/6/6
f 5/5/5 7/7/7 8/8/8
f 11/11/11 9/9/9 10/10/10
f 9/9/9 11/11/11 12/12/12
f 38/38/38 36/36/36 37/37/37
f 36/36/36 38/38/38 39/39/39
f 42/42/42 40/40/40 41/41/41
f 40/40/40 42/42/42 43/43/43
f 74/74/74 72/72/72 73/73/73
f 75/75/75 73/73/73 72/72/72
f 78/78/78 76/76/76 77/77/77
f 79/79/79 77/77/77 76/76/76
f 106/106/106 104/104/104 105/105/105
f 107/107/107 105/105/105 104/104/104
f 118/118/118 116/116/116 117/117/117
f 119/119/119 117/117/117 116/116/116
f 130/130/130 128/128/128 129/129/129
f 131/131/131 129/129/129 128/128/128
f 134/134/134 132/132/132 133/133/133
f 135/135/135 133/133/133 132/132/132
