mtllib ./Object105.mtl
g Object105
v -85.21455 30.73418 2.166626
v -85.21455 17.67952 2.166626
v 5.343689 17.67952 2.166626
v 5.343704 30.73418 2.166626
v -85.21455 17.67952 0.166626
v -85.21455 30.73418 0.166626
v 5.343689 30.73418 0.166626
v 5.343704 17.67952 0.166626
v -85.21455 17.67952 2.166626
v -85.21455 17.67952 0.166626
v 5.343704 17.67952 0.166626
v 5.343689 17.67952 2.166626

vn 0 0 0.9999999
vn 0 0 1
vn 0 0 0.9999999
vn 0 0 1
vn 0 0 -0.9999999
vn 0 0 -1
vn 0 0 -0.9999999
vn 0 0 -1
vn 0 -1 0
vn 0 -1 0
vn 0 -1 0
vn 0 -1 0

vt 0.02459931 0.999494
vt 0.02459979 0.5744157
vt 1.725654 0.5744177
vt 1.725654 0.9994959
vt 5.760167 0.5744098
vt 5.760167 0.999494
vt 4.059113 0.9994977
vt 4.059112 0.5744135
vt 5.760167 0.5744098
vt 5.760167 0.9995005
vt 4.059112 0.9995005
vt 4.059113 0.5744098

usemtl sn05_06_sn05zc.jpg
usemap sn05_06_sn05zc.jpg
f 3/3/3 1/1/1 2/2/2
f 1/1/1 3/3/3 4/4/4
f 7/7/7 5/5/5 6/6/6
f 5/5/5 7/7/7 8/8/8
f 11/11/11 9/9/9 10/10/10
f 9/9/9 11/11/11 12/12/12
