mtllib ./Object69.mtl
g Object69
v 8.507264 87.36449 -13.55828
v 27.62117 105.2987 -28.5445
v 31.35327 100.2972 -27.01433
v 4.775114 92.36597 -15.08848
v 4.775114 92.36597 -15.08848
v 30.88191 105.2987 -23.0083
v 27.62117 105.2987 -28.5445
v 8.03585 92.36597 -9.552277
v 8.03585 92.36597 -9.552277
v 31.35327 100.2972 -27.01433
v 30.88191 105.2987 -23.0083
v 8.507264 87.36449 -13.55828
v 43.2699 127.8219 -35.86966
v 45.1084 125.3581 -35.11587
v 44.8762 127.8219 -33.14247
v 43.2699 127.8219 -35.86966
v 45.1084 125.3581 -35.11587
v 44.8762 127.8219 -33.14247

vn -0.624053 -0.4493743 -0.6392344
vn -0.5783972 -0.4073026 -0.7067964
vn -0.535375 -0.3684989 -0.7599882
vn -0.6240507 -0.4493765 -0.6392351
vn -0.2289668 0.8987831 0.3738491
vn -0.296329 0.8234634 0.4838358
vn -0.3476567 0.7462664 0.5676455
vn -0.2289668 0.8987831 0.3738492
vn 0.8530101 -0.4493744 0.2653986
vn 0.8924448 -0.407304 0.1940251
vn 0.9202745 -0.3685038 0.131528
vn 0.8530115 -0.4493708 0.2654003
vn -0.4591361 -0.3012286 -0.8357365
vn -0.4591347 -0.3012292 -0.835737
vn -0.4150782 0.6069519 0.6777313
vn -0.4150732 0.6069511 0.6777349
vn 0.9531037 -0.3012326 0.02919353
vn 0.953104 -0.3012317 0.0291946

vt 0.0004995763 -0.2512252
vt 0.3048176 0.5471682
vt 0.0004995763 0.5471682
vt 0.3048176 -0.2512252
vt 0.3700571 -0.2512252
vt 0.6299429 0.5471682
vt 0.3700571 0.5471682
vt 0.6299429 -0.2512252
vt 0.6951823 -0.2512252
vt 0.9995004 0.5471682
vt 0.6951823 0.5471682
vt 0.9995004 -0.2512252
vt 0.2795607 1.232798
vt 0.1296503 1.232798
vt 0.5640112 1.232798
vt 0.4359886 1.232798
vt 0.9167974 1.232798
vt 0.7668869 1.232798

usemtl sn05_37_sn3tr4.JPG
usemap sn05_37_sn3tr4.JPG
f 3/3/3 1/1/1 2/2/2
f 2/2/2 1/1/1 4/4/4
f 7/7/7 5/5/5 6/6/6
f 6/6/6 5/5/5 8/8/8
f 11/11/11 9/9/9 10/10/10
f 10/10/10 9/9/9 12/12/12
f 14/14/14 3/3/3 13/13/13
f 13/13/13 3/3/3 2/2/2
f 16/16/16 7/7/7 15/15/15
f 15/15/15 7/7/7 6/6/6
f 18/18/18 11/11/11 17/17/17
f 17/17/17 11/11/11 10/10/10
