mtllib ./Object64.mtl
g Object64
v -67.82527 118.8281 -133.5695
v -85.73144 136.7623 -87.10313
v -89.8243 131.7608 -86.46973
v -63.73241 123.8296 -134.2029
v -63.73241 123.8296 -134.2029
v -91.08756 136.7623 -90.82995
v -85.73144 136.7623 -87.10313
v -69.08856 123.8296 -137.9298
v -69.08856 123.8296 -137.9298
v -89.8243 131.7608 -86.46973
v -91.08756 136.7623 -90.82995
v -67.82527 118.8281 -133.5695
v -100.616 164.0391 -58.05656
v -102.6322 161.5753 -57.74456
v -103.2545 164.0391 -59.89248
v -100.616 164.0391 -58.05656
v -102.6322 161.5753 -57.74456
v -103.2545 164.0391 -59.89248

vn 0.7520974 -0.5207134 -0.4039889
vn 0.7968801 -0.4915958 -0.3511633
vn 0.8341516 -0.4623203 -0.3007508
vn 0.7520974 -0.5207136 -0.4039887
vn -0.1117962 0.9695784 -0.2177598
vn -0.1675094 0.9303133 -0.3262786
vn -0.216742 0.8802212 -0.4221773
vn -0.1117958 0.9695783 -0.21776
vn -0.6392961 -0.4521171 0.6220053
vn -0.6087271 -0.4148579 0.6762723
vn -0.5789868 -0.3800445 0.7213462
vn -0.6392953 -0.4521188 0.6220049
vn 0.8903496 -0.4050264 -0.2079206
vn 0.8903496 -0.4050269 -0.2079199
vn -0.2944391 0.7644479 -0.5735197
vn -0.2944345 0.7644478 -0.5735222
vn -0.5233752 -0.3177405 0.7906449
vn -0.5233763 -0.3177391 0.7906446

vt 0.0004995763 -0.2512252
vt 0.3048176 0.5471682
vt 0.0004995763 0.5471682
vt 0.3048176 -0.2512252
vt 0.3700571 -0.2512252
vt 0.6299429 0.5471682
vt 0.3700571 0.5471682
vt 0.6299429 -0.2512252
vt 0.6951823 -0.2512252
vt 0.9995004 0.5471682
vt 0.6951823 0.5471682
vt 0.9995004 -0.2512252
vt 0.2795607 1.232798
vt 0.1296503 1.232798
vt 0.5640112 1.232798
vt 0.4359886 1.232798
vt 0.9167974 1.232798
vt 0.7668869 1.232798

usemtl sn05_37_sn3tr4.JPG
usemap sn05_37_sn3tr4.JPG
f 3/3/3 1/1/1 2/2/2
f 2/2/2 1/1/1 4/4/4
f 7/7/7 5/5/5 6/6/6
f 6/6/6 5/5/5 8/8/8
f 11/11/11 9/9/9 10/10/10
f 10/10/10 9/9/9 12/12/12
f 14/14/14 3/3/3 13/13/13
f 13/13/13 3/3/3 2/2/2
f 16/16/16 7/7/7 15/15/15
f 15/15/15 7/7/7 6/6/6
f 18/18/18 11/11/11 17/17/17
f 17/17/17 11/11/11 10/10/10
