mtllib ./Object70.mtl
g Object70
v 1.743747 105.7838 -13.39886
v -18.876 123.7179 -26.23447
v -18.71455 118.7164 -30.26488
v 1.582355 110.7852 -9.368425
v 1.582355 110.7852 -9.368425
v -14.78892 123.7179 -31.19206
v -18.876 123.7179 -26.23447
v 5.669405 110.7852 -14.32603
v 5.669405 110.7852 -14.32603
v -18.71455 118.7164 -30.26488
v -14.78892 123.7179 -31.19206
v 1.743747 105.7838 -13.39886
v -31.11158 146.2411 -38.4341
v -31.03207 143.7774 -40.41953
v -29.09826 146.2411 -40.87626
v -31.11158 146.2411 -38.4341
v -31.03207 143.7774 -40.41953
v -29.09826 146.2411 -40.87626

vn -0.3872451 -0.4493729 0.8050498
vn -0.4663482 -0.4073021 0.7852542
vn -0.5310466 -0.3685 0.7630183
vn -0.3872443 -0.4493717 0.8050509
vn 0.4296147 0.8987832 0.08729219
vn 0.5560079 0.8234634 0.1129743
vn 0.6523178 0.7462665 0.1325437
vn 0.429615 0.8987831 0.08729124
vn -0.04235312 -0.4493753 -0.8923385
vn -0.1229092 -0.4073039 -0.9049844
vn -0.1911546 -0.3685008 -0.9097621
vn -0.04235306 -0.4493752 -0.8923386
vn -0.6283005 -0.3012292 0.7172861
vn -0.6282981 -0.3012278 0.7172889
vn 0.7788243 0.6069517 0.1582483
vn 0.7788247 0.6069514 0.1582468
vn -0.2985452 -0.3012293 -0.9056112
vn -0.2985425 -0.3012269 -0.9056129

vt 0.0004995763 -0.2512252
vt 0.3048176 0.5471682
vt 0.0004995763 0.5471682
vt 0.3048176 -0.2512252
vt 0.3700571 -0.2512252
vt 0.6299429 0.5471682
vt 0.3700571 0.5471682
vt 0.6299429 -0.2512252
vt 0.6951823 -0.2512252
vt 0.9995004 0.5471682
vt 0.6951823 0.5471682
vt 0.9995004 -0.2512252
vt 0.2795607 1.232798
vt 0.1296503 1.232798
vt 0.5640112 1.232798
vt 0.4359886 1.232798
vt 0.9167974 1.232798
vt 0.7668869 1.232798

usemtl sn05_37_sn3tr4.JPG
usemap sn05_37_sn3tr4.JPG
f 3/3/3 1/1/1 2/2/2
f 2/2/2 1/1/1 4/4/4
f 7/7/7 5/5/5 6/6/6
f 6/6/6 5/5/5 8/8/8
f 11/11/11 9/9/9 10/10/10
f 10/10/10 9/9/9 12/12/12
f 14/14/14 3/3/3 13/13/13
f 13/13/13 3/3/3 2/2/2
f 16/16/16 7/7/7 15/15/15
f 15/15/15 7/7/7 6/6/6
f 18/18/18 11/11/11 17/17/17
f 17/17/17 11/11/11 10/10/10
