mtllib ./Object102.mtl
g Object102
v 1.647827 12.35809 -70.28296
v -10.15216 12.35809 -70.28296
v 1.647827 12.35809 -35.16064
v -10.15216 12.35809 -35.16064
v 13.44781 12.35809 -70.28296
v 13.44781 12.35809 -35.16064
v 1.647827 12.35809 -0.03832054
v -10.15216 12.35809 -0.03832054
v 13.44781 12.35809 -0.03832054
v 13.44781 12.35809 -0.03832054
v 1.647827 5.637741 -70.28296
v -10.15216 5.637741 -70.28296
v 1.647827 12.35809 -70.28296
v -10.15216 12.35809 -70.28296
v 13.44781 5.637741 -70.28296
v 1.647827 5.637741 -70.28296
v 13.44781 12.35809 -70.28296
v 13.44781 5.637741 -35.16064
v 13.44781 5.637741 -70.28296
v 13.44781 12.35809 -35.16064
v 13.44781 12.35809 -70.28296
v 13.44781 5.637741 -0.03832054
v 13.44781 5.637741 -35.16064
v 13.44781 12.35809 -0.03832054
v 13.44781 5.637741 -35.16064

vn 0 1 0
vn 0 1 0
vn 0 1 0
vn 0 1 0
vn 0 1 0
vn 0 1 0
vn 0 1 0
vn 0 1 0
vn 0 1 0
vn 0 1 0
vn 0 0 -1
vn 0 0 -1
vn 0 0 -0.9999999
vn 0 0 -1
vn 0 0 -1
vn 0 0 -1
vn 0 0 -1
vn 1 0 0
vn 1 0 0
vn 1 0 0
vn 1 0 0
vn 1 0 0
vn 1 0 0
vn 1 0 0
vn 1 0 0

vt 0.9974186 0.1745818
vt 0.9974186 0.1185106
vt 0.7476684 0.1745818
vt 0.7476683 0.1185106
vt 0.9974186 0.230653
vt 0.7476684 0.2306531
vt 0.4979182 0.1745819
vt 0.4979182 0.1185107
vt 0.4979183 0.2306531
vt 0.4979183 0.2306531
vt 0.4561916 0.2277934
vt 0.6089438 0.2277933
vt 0.4561915 0.1224234
vt 0.6089438 0.1224233
vt 0.3034394 0.2277935
vt 0.4561916 0.2277934
vt 0.3034394 0.1224234
vt 0.744809 0.2323329
vt 0.9945593 0.2323329
vt 0.744809 0.1203475
vt 0.9945592 0.1203475
vt 0.4950587 0.232333
vt 0.744809 0.2323329
vt 0.4950587 0.1203476
vt 0.744809 0.2323329

usemtl sn05_10_kmn05r2.bmp
usemap sn05_10_kmn05r2.bmp
f 3/3/3 1/1/1 2/2/2
f 2/2/2 4/4/4 3/3/3
f 6/6/6 5/5/5 1/1/1
f 1/1/1 3/3/3 6/6/6
f 7/7/7 3/3/3 4/4/4
f 4/4/4 8/8/8 7/7/7
f 9/9/9 6/6/6 3/3/3
f 3/3/3 7/7/7 10/10/10
f 13/13/13 11/11/11 12/12/12
f 12/12/12 14/14/14 13/13/13
f 17/17/17 15/15/15 16/16/16
f 11/11/11 13/13/13 17/17/17
f 20/20/20 18/18/18 19/19/19
f 19/19/19 21/21/21 20/20/20
f 24/24/24 22/22/22 23/23/23
f 25/25/25 20/20/20 24/24/24
