mtllib ./Object68.mtl
g Object68
v 8.025481 118.8285 -6.130562
v 51.9629 136.7627 17.31741
v 52.0919 131.7612 21.45743
v 7.896502 123.83 -10.27061
v 7.896502 123.83 -10.27061
v 47.60951 136.7627 22.17896
v 51.9629 136.7627 17.31741
v 3.543096 123.83 -5.409024
v 3.543096 123.83 -5.409024
v 52.0919 131.7612 21.45743
v 47.60951 136.7627 22.17896
v 8.025481 118.8285 -6.130562
v 78.97784 164.0395 35.63898
v 79.04135 161.5757 37.67842
v 76.8333 164.0395 38.03386
v 78.97784 164.0395 35.63898
v 79.04135 161.5757 37.67842
v 76.8333 164.0395 38.03386

vn 0.1885504 -0.520754 -0.8326247
vn 0.2577965 -0.4916353 -0.8317666
vn 0.3202952 -0.4623589 -0.8268225
vn 0.1885509 -0.5207552 -0.8326238
vn -0.2376635 0.9695848 -0.05849291
vn -0.3561042 0.930327 -0.08764324
vn -0.4607732 0.8802429 -0.1134042
vn -0.2376635 0.9695848 -0.05849283
vn 0.04998365 -0.4521568 0.8905368
vn 0.1109934 -0.4148956 0.9030737
vn 0.1645219 -0.3800815 0.9102037
vn 0.04998365 -0.4521565 0.8905369
vn 0.4272234 -0.405063 -0.8083342
vn 0.4272276 -0.4050667 -0.8083302
vn -0.6259643 0.7644829 -0.1540606
vn -0.6259644 0.7644827 -0.1540607
vn 0.2533066 -0.3177722 0.9137048
vn 0.2533064 -0.3177716 0.9137052

vt 0.0004995763 -0.2512252
vt 0.3048176 0.5471682
vt 0.0004995763 0.5471682
vt 0.3048176 -0.2512252
vt 0.3700571 -0.2512252
vt 0.6299429 0.5471682
vt 0.3700571 0.5471682
vt 0.6299429 -0.2512252
vt 0.6951823 -0.2512252
vt 0.9995004 0.5471682
vt 0.6951823 0.5471682
vt 0.9995004 -0.2512252
vt 0.2795607 1.232798
vt 0.1296503 1.232798
vt 0.5640112 1.232798
vt 0.4359886 1.232798
vt 0.9167974 1.232798
vt 0.7668869 1.232798

usemtl sn05_37_sn3tr4.JPG
usemap sn05_37_sn3tr4.JPG
f 3/3/3 1/1/1 2/2/2
f 2/2/2 1/1/1 4/4/4
f 7/7/7 5/5/5 6/6/6
f 6/6/6 5/5/5 8/8/8
f 11/11/11 9/9/9 10/10/10
f 10/10/10 9/9/9 12/12/12
f 14/14/14 3/3/3 13/13/13
f 13/13/13 3/3/3 2/2/2
f 16/16/16 7/7/7 15/15/15
f 15/15/15 7/7/7 6/6/6
f 18/18/18 11/11/11 17/17/17
f 17/17/17 11/11/11 10/10/10
