mtllib ./Object103.mtl
g Object103
v -10.15216 12.35809 70.28241
v 1.647827 12.35809 70.28241
v 1.647827 12.35809 35.1601
v -10.15216 12.35809 35.1601
v 13.44781 12.35809 70.28241
v 13.44781 12.35809 35.1601
v 1.647827 12.35809 0.03778076
v -10.15216 12.35809 0.03778076
v 13.44781 12.35809 0.03778076
v -10.15216 5.637741 70.28241
v 1.647827 5.637741 70.28241
v 1.647827 12.35809 70.28241
v -10.15216 12.35809 70.28241
v 13.44781 5.637741 70.28241
v 13.44781 12.35809 70.28241
v 13.44781 5.637741 70.28241
v 13.44781 5.637741 35.1601
v 13.44781 12.35809 35.1601
v 13.44781 12.35809 70.28241
v 13.44781 5.637741 0.03778076
v 13.44781 12.35809 0.03778076

vn 0 1 0
vn 0 1 0
vn 0 1 0
vn 0 1 0
vn 0 1 0
vn 0 1 0
vn 0 1 0
vn 0 1 0
vn 0 1 0
vn 0 0 1
vn 0 0 0.9999999
vn 0 0 0.9999999
vn 0 0 1
vn 0 0 1
vn 0 0 1
vn 1 0 0
vn 1 0 0
vn 1 0 0
vn 1 0 0
vn 1 0 0
vn 1 0 0

vt 0.9974186 0.1185106
vt 0.9974186 0.1745818
vt 0.7476684 0.1745818
vt 0.7476683 0.1185106
vt 0.9974186 0.230653
vt 0.7476684 0.2306531
vt 0.4979182 0.1745819
vt 0.4979182 0.1185107
vt 0.4979183 0.2306531
vt 0.6089438 0.2277933
vt 0.4561916 0.2277934
vt 0.4561915 0.1224234
vt 0.6089438 0.1224233
vt 0.3034394 0.2277935
vt 0.3034394 0.1224234
vt 0.9945593 0.2323329
vt 0.744809 0.2323329
vt 0.744809 0.1203475
vt 0.9945592 0.1203475
vt 0.4950587 0.232333
vt 0.4950587 0.1203476

usemtl sn05_10_kmn05r2.bmp
usemap sn05_10_kmn05r2.bmp
f 3/3/3 1/1/1 2/2/2
f 1/1/1 3/3/3 4/4/4
f 6/6/6 2/2/2 5/5/5
f 2/2/2 6/6/6 3/3/3
f 7/7/7 4/4/4 3/3/3
f 4/4/4 7/7/7 8/8/8
f 9/9/9 3/3/3 6/6/6
f 3/3/3 9/9/9 7/7/7
f 12/12/12 10/10/10 11/11/11
f 10/10/10 12/12/12 13/13/13
f 15/15/15 11/11/11 14/14/14
f 11/11/11 15/15/15 12/12/12
f 18/18/18 16/16/16 17/17/17
f 16/16/16 18/18/18 19/19/19
f 21/21/21 17/17/17 20/20/20
f 17/17/17 21/21/21 18/18/18
