mtllib ./Object76.mtl
g Object76
v 0.3560196 93.03462 -6.334108
v -36.7177 117.692 26.88262
v -40.64897 112.6905 25.58478
v 4.287285 98.03609 -5.036271
v 4.287285 98.03609 -5.036271
v -39.7902 117.692 21.12905
v -36.7177 117.692 26.88262
v 1.214741 98.03609 -10.78987
v 1.214741 98.03609 -10.78987
v -40.64897 112.6905 25.58478
v -39.7902 117.692 21.12905
v 0.3560196 93.03462 -6.334108
v -60.23006 145.2148 42.81207
v -62.16666 142.751 42.17277
v -61.74366 145.2148 39.97779
v -60.23006 145.2148 42.81207
v -62.16666 142.751 42.17277
v -61.74366 145.2148 39.97779

vn -0.5532149 -0.4962905 0.6690658
vn -0.6075584 -0.4683527 0.6414972
vn -0.6585196 -0.438712 0.6114603
vn -0.5532149 -0.4962905 0.6690658
vn 0.2866062 0.9335827 0.2151286
vn 0.3642183 0.8902839 0.2733853
vn 0.4361188 0.8382363 0.3273536
vn 0.2866067 0.9335827 0.2151278
vn 0.2635599 -0.4234435 -0.8667364
vn 0.2233233 -0.3935644 -0.8917589
vn 0.1842063 -0.3638495 -0.9130617
vn 0.2635583 -0.4234471 -0.866735
vn -0.7496955 -0.3752921 0.5450804
vn -0.7496932 -0.3752883 0.545086
vn 0.5581615 0.716191 0.4189585
vn 0.5581652 0.716191 0.4189537
vn 0.1093484 -0.3052526 -0.9459723
vn 0.1093419 -0.3052597 -0.945971

vt 0.0004995763 -0.2512252
vt 0.3048176 0.5471682
vt 0.0004995763 0.5471682
vt 0.3048176 -0.2512252
vt 0.3700571 -0.2512252
vt 0.6299429 0.5471682
vt 0.3700571 0.5471682
vt 0.6299429 -0.2512252
vt 0.6951823 -0.2512252
vt 0.9995004 0.5471682
vt 0.6951823 0.5471682
vt 0.9995004 -0.2512252
vt 0.2795607 1.232798
vt 0.1296503 1.232798
vt 0.5640112 1.232798
vt 0.4359886 1.232798
vt 0.9167974 1.232798
vt 0.7668869 1.232798

usemtl sn05_37_sn3tr4.JPG
usemap sn05_37_sn3tr4.JPG
f 3/3/3 1/1/1 2/2/2
f 2/2/2 1/1/1 4/4/4
f 7/7/7 5/5/5 6/6/6
f 6/6/6 5/5/5 8/8/8
f 11/11/11 9/9/9 10/10/10
f 10/10/10 9/9/9 12/12/12
f 14/14/14 3/3/3 13/13/13
f 13/13/13 3/3/3 2/2/2
f 16/16/16 7/7/7 15/15/15
f 15/15/15 7/7/7 6/6/6
f 18/18/18 11/11/11 17/17/17
f 17/17/17 11/11/11 10/10/10
