mtllib ./Object92.mtl
g Object92
v 92.70605 -4.786545 -0.4326782
v 63.21057 -27.47659 -0.432663
v 92.70605 -4.786545 34.53232
v 62.94458 -27.47659 51.45087
v 101.9477 6.558472 -1.204025
v 92.70605 -4.786545 -0.4326782
v 101.9477 6.558472 33.76096
v 92.70605 -4.786545 34.53232
v 92.70605 -4.786545 69.49728
v 62.94458 -27.47658 103.3344
v 101.9477 6.558487 68.72592
v 92.70605 -4.786545 69.49728
v 63.21057 -31.94516 -0.432663
v 63.21057 -31.94514 51.45087
v 63.21057 -27.47659 -0.432663
v 62.94458 -27.47659 51.45087
v 63.21057 -31.94514 103.3344
v 62.94458 -27.47658 103.3344

vn -0.6097313 0.7926082 0
vn -0.6083418 0.793673 -0.00186317
vn -0.6077522 0.7941256 -0.001327084
vn -0.6067083 0.7949237 -0.001163331
vn -0.775317 0.6315724 0
vn -0.7753169 0.6315723 0
vn -0.7753169 0.6315723 -9.187315E-08
vn -0.7753171 0.6315722 -9.187315E-08
vn -0.6062906 0.7952431 -1.397197E-07
vn -0.6062906 0.7952431 -2.338785E-07
vn -0.7753171 0.6315721 -1.378097E-07
vn -0.7753173 0.6315718 0
vn -1 0 0
vn -0.9992121 -0.03965212 -0.001707551
vn -0.9995541 -0.02974925 -0.002562202
vn -0.9982316 -0.05941982 -0.00170587
vn -0.9982331 -0.05941987 8.737603E-09
vn -0.998233 -0.05941977 1.747517E-08

vt 0.502956 0.659974
vt 0.5029559 0.1912138
vt 0.2776033 0.6599742
vt 0.168171 0.1912139
vt 0.5079334 0.8678828
vt 0.5029561 0.6598023
vt 0.2823176 0.867883
vt 0.2773402 0.6598023
vt 0.05029931 0.6599744
vt -0.1666139 0.1912142
vt 0.0567017 0.8678833
vt 0.05172452 0.6598025
vt 0.499952 0.1018322
vt 0.06258472 0.1013963
vt 0.500048 0.02329464
vt 0.06268062 0.02285869
vt -0.3747825 0.1009603
vt -0.3746867 0.02242269

usemtl sn05_08_sn05roof.jpg
usemap sn05_08_sn05roof.jpg
f 3/3/3 1/1/1 2/2/2
f 2/2/2 4/4/4 3/3/3
f 7/7/7 5/5/5 6/6/6
f 6/6/6 8/8/8 7/7/7
f 9/9/9 3/3/3 4/4/4
f 4/4/4 10/10/10 9/9/9
f 11/11/11 7/7/7 8/8/8
f 8/8/8 12/12/12 11/11/11

usemtl sn05_10_kmn05r2.bmp
usemap sn05_10_kmn05r2.bmp
f 15/15/15 13/13/13 14/14/14
f 14/14/14 16/16/16 15/15/15
f 16/16/16 14/14/14 17/17/17
f 17/17/17 18/18/18 16/16/16
