mtllib ./Object94.mtl
g Object94
v 36.34021 -16.55424 -83.94146
v 53.71185 -30.52301 -102.2424
v 33.77307 -16.55424 -87.00082
v 51.14478 -30.52301 -105.3018
v 11.84631 16.59253 -68.74
v 36.34021 -16.55424 -83.94146
v 9.279175 16.59253 -71.79935
v 33.77307 -16.55424 -87.00082
v 48.80115 -33.09013 -103.3353
v 51.36829 -33.09013 -100.2759
v 31.4295 -19.12135 -85.03429
v 33.99658 -19.12135 -81.97494
v 31.4295 -19.12135 -85.03429
v 33.99658 -19.12135 -81.97494
v 6.266296 15.89905 -69.27123
v 8.833435 15.89905 -66.21188
v 51.14478 -30.52301 -105.3018
v 53.71185 -30.52301 -102.2424
v 48.80115 -33.09013 -103.3353
v 51.36829 -33.09013 -100.2759
v 33.77307 -16.55424 -87.00082
v 51.14478 -30.52301 -105.3018
v 31.4295 -19.12135 -85.03429
v 48.80115 -33.09013 -103.3353
v 9.279175 16.59253 -71.79935
v 33.77307 -16.55424 -87.00082
v 6.266296 15.89905 -69.27123
v 31.4295 -19.12135 -85.03429
v 11.84631 16.59253 -68.74
v 9.279175 16.59253 -71.79935
v 8.833435 15.89905 -66.21188
v 6.266296 15.89905 -69.27123
v 36.34021 -16.55424 -83.94146
v 11.84631 16.59253 -68.74
v 33.99658 -19.12135 -81.97494
v 8.833435 15.89905 -66.21188
v 53.71185 -30.52301 -102.2424
v 36.34021 -16.55424 -83.94146
v 51.36829 -33.09013 -100.2759
v 33.99658 -19.12135 -81.97494
v -38.36499 -17.56169 -85.22755
v -35.61591 -17.56169 -88.12449
v -54.58704 -31.53046 -104.5549
v -51.83795 -31.53046 -107.4518
v -14.84479 15.58508 -68.55912
v -12.0957 15.58508 -71.45606
v -38.36499 -17.56169 -85.22755
v -35.61591 -17.56169 -88.12449
v -49.61871 -34.09758 -105.3459
v -33.39673 -20.1288 -86.01855
v -52.36786 -34.09758 -102.449
v -36.14581 -20.1288 -83.12162
v -33.39673 -20.1288 -86.01855
v -9.242798 14.8916 -68.74871
v -36.14581 -20.1288 -83.12162
v -11.99188 14.8916 -65.85178
v -51.83795 -31.53046 -107.4518
v -49.61871 -34.09758 -105.3459
v -54.58704 -31.53046 -104.5549
v -52.36786 -34.09758 -102.449
v -35.61591 -17.56169 -88.12449
v -33.39673 -20.1288 -86.01855
v -51.83795 -31.53046 -107.4518
v -49.61871 -34.09758 -105.3459
v -12.0957 15.58508 -71.45606
v -9.242798 14.8916 -68.74871
v -35.61591 -17.56169 -88.12449
v -33.39673 -20.1288 -86.01855
v -38.36499 -16.91876 85.2268
v -54.58704 -30.88753 104.5541
v -35.61591 -16.91876 88.12374
v -51.83795 -30.88753 107.4511
v -14.84479 16.22803 68.55837
v -38.36499 -16.91876 85.2268
v -12.0957 16.22803 71.45531
v -35.61591 -16.91876 88.12374
v -49.61871 -33.45465 105.3451
v -52.3678 -33.45465 102.4482
v -33.39673 -19.48587 86.01781
v -36.14581 -19.48587 83.12087
v -33.39673 -19.48587 86.01781
v -36.14581 -19.48587 83.12087
v -9.242798 15.53452 68.74798
v -11.99188 15.53452 65.85104
v -51.83795 -30.88753 107.4511
v -54.58704 -30.88753 104.5541
v -49.61871 -33.45465 105.3451
v -52.3678 -33.45465 102.4482
v -35.61591 -16.91876 88.12374
v -51.83795 -30.88753 107.4511
v -33.39673 -19.48587 86.01781
v -49.61871 -33.45465 105.3451
v -12.0957 16.22803 71.45531
v -35.61591 -16.91876 88.12374
v -9.242798 15.53452 68.74798
v -33.39673 -19.48587 86.01781
v 37.21594 -16.55424 84.31147
v 34.64886 -16.55424 87.37083
v 54.58765 -30.52301 102.6124
v 52.02051 -30.52301 105.6718
v 12.72205 16.59253 69.11001
v 10.15497 16.59253 72.16936
v 37.21594 -16.55424 84.31147
v 34.64886 -16.55424 87.37083
v 49.67694 -33.09013 103.7053
v 32.30524 -19.12135 85.4043
v 52.24402 -33.09013 100.6459
v 34.87238 -19.12135 82.34495
v 32.30524 -19.12135 85.4043
v 7.14209 15.89905 69.64124
v 34.87238 -19.12135 82.34495
v 9.709167 15.89905 66.58189
v 52.02051 -30.52301 105.6718
v 49.67694 -33.09013 103.7053
v 54.58765 -30.52301 102.6124
v 52.24402 -33.09013 100.6459
v 34.64886 -16.55424 87.37083
v 32.30524 -19.12135 85.4043
v 52.02051 -30.52301 105.6718
v 49.67694 -33.09013 103.7053
v 10.15497 16.59253 72.16936
v 7.14209 15.89905 69.64124
v 34.64886 -16.55424 87.37083
v 32.30524 -19.12135 85.4043
v 12.72205 16.59253 69.11001
v 9.709167 15.89905 66.58189
v 10.15497 16.59253 72.16936
v 7.14209 15.89905 69.64124
v 37.21594 -16.55424 84.31147
v 34.87238 -19.12135 82.34495
v 12.72205 16.59253 69.11001
v 9.709167 15.89905 66.58189
v 54.58765 -30.52301 102.6124
v 52.24402 -33.09013 100.6459
v 37.21594 -16.55424 84.31147
v 34.87238 -19.12135 82.34495
v 8.571106 14.87357 -68.71827
v 8.571106 14.87357 -83.09898
v 8.571106 27.24408 -83.09898
v 8.571106 27.24408 -68.71827
v 8.571106 14.87357 -97.47968
v 8.571106 27.24408 -97.47968
v 8.571106 39.61459 -83.09898
v 8.571106 39.61459 -68.71827
v 8.571106 39.61459 -97.47968
v -8.691101 14.87357 -68.71827
v -8.691101 14.87357 -83.09898
v -8.691101 27.24408 -83.09898
v -8.691101 27.24408 -68.71827
v -8.691101 14.87357 -97.47968
v -8.691101 27.24408 -97.47968
v -8.691101 39.61459 -83.09898
v -8.691101 39.61459 -68.71827
v -8.691101 39.61459 -97.47968
v -8.691101 14.87357 68.61352
v -8.691101 27.24408 82.99422
v -8.691101 14.87357 82.99422
v -8.691101 27.24408 68.61352
v -8.691101 27.24408 97.37493
v -8.691101 14.87357 97.37493
v -8.691101 39.61459 82.99422
v -8.691101 39.61459 68.61352
v -8.691101 39.61459 97.37493
v 8.571106 14.87357 68.61352
v 8.571106 27.24408 82.99422
v 8.571106 14.87357 82.99422
v 8.571106 27.24408 68.61352
v 8.571106 27.24408 97.37493
v 8.571106 14.87357 97.37493
v 8.571106 39.61459 82.99422
v 8.571106 39.61459 68.61352
v 8.571106 39.61459 97.37493
v -44.78668 -25.15045 -96.50654
v -52.24951 -22.673 -105.2808
v -47.16376 -18.40216 -99.30772
v -49.87238 -29.42131 -102.4796
v -57.33527 -26.94386 -111.2539
v -54.95813 -33.69217 -108.4527
v -54.62659 -15.9247 -108.082
v -49.54083 -11.65385 -102.1089
v -59.71234 -20.19556 -114.0551
v -45.58527 -24.65672 96.57439
v -48.15198 -17.90842 99.20293
v -53.64197 -22.17928 104.8067
v -51.07526 -28.92758 102.1782
v -59.13202 -26.45013 110.4105
v -56.56531 -33.19844 107.7819
v -50.71869 -11.16013 101.8315
v -56.20868 -15.43097 107.4352
v -61.69873 -19.70183 113.039
v 47.22705 -24.65501 94.82751
v 55.28375 -22.17757 103.0598
v 52.7171 -28.92587 100.4313
v 49.79376 -17.90671 97.45605
v 60.7738 -26.44841 108.6636
v 58.20709 -33.19672 106.035
v 57.85046 -15.42926 105.6883
v 52.36047 -11.1584 100.0846
v 63.34052 -19.7001 111.2921
v 45.89331 -25.14874 -95.36597
v 51.38336 -29.41959 -100.9697
v 53.95001 -22.67128 -103.5983
v 48.46002 -18.40044 -97.99451
v 56.87335 -33.69044 -106.5735
v 59.44006 -26.94214 -109.202
v 56.51672 -15.92297 -106.2268
v 51.02673 -11.65213 -100.6231
v 62.00677 -20.19383 -111.8306
v 44.10889 -25.15047 -97.11286
v 49.59894 -29.42133 -102.7166
v 50.49115 -29.42046 -101.8432
v 45.0011 -25.1496 -96.23942
v 55.08893 -33.69217 -108.3204
v 55.98114 -33.69131 -107.447
v 51.38336 -29.41959 -100.9697
v 45.89331 -25.14874 -95.36597
v 56.87335 -33.69044 -106.5735

vn 0.3728453 0.8735594 -0.3128584
vn 0.3728471 0.8735595 -0.3128562
vn 0.3728471 0.8735595 -0.3128562
vn 0.3728488 0.8735595 -0.3128539
vn 0.5805538 0.6524135 -0.4871489
vn 0.5805538 0.6524135 -0.4871489
vn 0.5805538 0.6524135 -0.4871489
vn 0.5805538 0.6524135 -0.4871489
vn -0.3728456 -0.8735591 0.3128587
vn -0.3728473 -0.8735593 0.3128565
vn -0.3728473 -0.8735593 0.3128565
vn -0.3728491 -0.8735593 0.3128542
vn -0.5866382 -0.6430808 0.4922426
vn -0.5866356 -0.6430802 0.4922463
vn -0.5866356 -0.6430802 0.4922463
vn -0.5866331 -0.6430796 0.4922501
vn 0.492406 -0.7660446 -0.4131733
vn 0.4924058 -0.7660421 -0.413178
vn 0.4924058 -0.7660421 -0.413178
vn 0.4924056 -0.7660397 -0.4131827
vn -0.6912776 0.08103723 -0.718031
vn -0.6912757 0.0810426 -0.7180321
vn -0.6912757 0.0810426 -0.7180321
vn -0.6912737 0.08104795 -0.7180333
vn -0.6245849 -0.106745 -0.7736273
vn -0.6092774 -0.08575094 -0.7883071
vn -0.6092774 -0.08575094 -0.7883071
vn -0.5962603 -0.06839992 -0.799872
vn -0.1330177 0.9848086 0.1116166
vn -0.1330177 0.9848086 0.1116166
vn -0.1330177 0.9848086 0.1116166
vn -0.1330177 0.9848086 0.1116166
vn 0.5940266 0.07149013 0.8012624
vn 0.6092746 0.08574732 0.7883095
vn 0.6092746 0.08574732 0.7883095
vn 0.6256736 0.1014197 0.773464
vn 0.6912783 -0.08103814 0.71803
vn 0.6912757 -0.0810426 0.7180321
vn 0.6912757 -0.0810426 0.7180321
vn 0.691273 -0.08104704 0.7180342
vn -0.353053 0.8735595 -0.3350334
vn -0.353053 0.8735595 -0.3350334
vn -0.353053 0.8735595 -0.3350334
vn -0.353053 0.8735595 -0.3350334
vn -0.5497352 0.652414 -0.5216771
vn -0.5497352 0.652414 -0.5216771
vn -0.5497352 0.652414 -0.5216771
vn -0.5497352 0.652414 -0.5216771
vn 0.3530487 -0.8735592 0.3350386
vn 0.3530505 -0.8735592 0.3350365
vn 0.3530505 -0.8735592 0.3350365
vn 0.3530523 -0.8735593 0.3350345
vn 0.5554905 -0.6430802 0.5271415
vn 0.5554905 -0.6430802 0.5271415
vn 0.5554905 -0.6430802 0.5271415
vn 0.5554905 -0.6430802 0.5271415
vn -0.4662595 -0.766048 -0.4424619
vn -0.4662589 -0.7660452 -0.4424675
vn -0.4662589 -0.7660452 -0.4424675
vn -0.4662583 -0.7660424 -0.442473
vn 0.7338215 0.08104083 -0.6744912
vn 0.7338195 0.08104653 -0.6744927
vn 0.7338195 0.08104653 -0.6744927
vn 0.7338176 0.08105222 -0.674494
vn 0.6706517 -0.1067491 -0.734051
vn 0.6562666 -0.08575166 -0.7496405
vn 0.6562666 -0.08575166 -0.7496405
vn 0.6439781 -0.06839795 -0.7619804
vn -0.353053 0.8735595 0.3350334
vn -0.3530525 0.8735594 0.3350339
vn -0.3530525 0.8735594 0.3350339
vn -0.3530521 0.8735595 0.3350343
vn -0.5497353 0.6524139 0.5216773
vn -0.5497353 0.6524139 0.5216773
vn -0.5497353 0.6524139 0.5216773
vn -0.5497353 0.6524139 0.5216773
vn 0.3530529 -0.8735588 -0.335035
vn 0.3530533 -0.8735589 -0.3350346
vn 0.3530533 -0.8735589 -0.3350346
vn 0.3530537 -0.8735589 -0.3350341
vn 0.5554917 -0.6430805 -0.5271399
vn 0.5554917 -0.6430805 -0.5271399
vn 0.5554917 -0.6430805 -0.5271399
vn 0.5554917 -0.6430805 -0.5271399
vn -0.4662592 -0.7660469 0.4424641
vn -0.4662592 -0.7660469 0.4424641
vn -0.4662592 -0.7660469 0.4424641
vn -0.4662592 -0.7660469 0.4424641
vn 0.7338203 0.08104295 0.6744923
vn 0.7338184 0.08104865 0.6744937
vn 0.7338184 0.08104865 0.6744937
vn 0.7338164 0.08105434 0.6744951
vn 0.6706495 -0.1067463 0.7340534
vn 0.6562647 -0.08574944 0.7496423
vn 0.6562647 -0.08574944 0.7496423
vn 0.6439763 -0.06839608 0.7619819
vn 0.3728488 0.8735595 0.3128539
vn 0.3728471 0.8735595 0.3128562
vn 0.3728471 0.8735595 0.3128562
vn 0.3728453 0.8735594 0.3128584
vn 0.5805591 0.6524141 0.4871417
vn 0.5805591 0.6524141 0.4871417
vn 0.5805591 0.6524141 0.4871417
vn 0.5805591 0.6524141 0.4871417
vn -0.3728491 -0.8735593 -0.3128542
vn -0.3728473 -0.8735593 -0.3128565
vn -0.3728473 -0.8735593 -0.3128565
vn -0.3728456 -0.8735591 -0.3128587
vn -0.5866331 -0.6430796 -0.4922501
vn -0.5866356 -0.6430802 -0.4922463
vn -0.5866356 -0.6430802 -0.4922463
vn -0.5866382 -0.6430808 -0.4922426
vn 0.4924056 -0.7660397 0.4131827
vn 0.4924058 -0.7660421 0.413178
vn 0.4924058 -0.7660421 0.413178
vn 0.492406 -0.7660446 0.4131733
vn -0.6912736 0.08104827 0.7180333
vn -0.6912757 0.0810426 0.7180321
vn -0.6912757 0.0810426 0.7180321
vn -0.6912776 0.0810369 0.7180308
vn -0.6245849 -0.106745 0.7736273
vn -0.6092746 -0.08574731 0.7883094
vn -0.6092746 -0.08574731 0.7883094
vn -0.5962554 -0.06839343 0.7998762
vn -0.133019 0.9848086 -0.111615
vn -0.133019 0.9848086 -0.111615
vn -0.133019 0.9848086 -0.111615
vn -0.133019 0.9848086 -0.111615
vn 0.5940319 0.07149608 -0.801258
vn 0.6092774 0.08575095 -0.788307
vn 0.6092774 0.08575095 -0.788307
vn 0.6256734 0.1014206 -0.773464
vn 0.6912731 -0.08104677 -0.718034
vn 0.6912757 -0.0810426 -0.7180321
vn 0.6912757 -0.0810426 -0.7180321
vn 0.6912782 -0.0810384 -0.7180302
vn 0.9999999 0 0
vn 1 0 0
vn 1 0 0
vn 1 0 0
vn 0.9999999 0 0
vn 1 0 0
vn 1 0 0
vn 0.9999999 0 0
vn 0.9999999 0 0
vn 0.9999999 0 0
vn 1 0 0
vn 1 0 0
vn 1 0 0
vn 0.9999999 0 0
vn 1 0 0
vn 1 0 0
vn 0.9999999 0 0
vn 0.9999999 0 0
vn 0.9999999 0 0
vn 1 0 0
vn 1 0 0
vn 1 0 0
vn 1 0 0
vn 0.9999999 0 0
vn 1 0 0
vn 0.9999999 0 0
vn 0.9999999 0 0
vn 0.9999999 0 0
vn 1 0 0
vn 1 0 0
vn 1 0 0
vn 1 0 0
vn 0.9999999 0 0
vn 1 0 0
vn 0.9999999 0 0
vn 0.9999999 0 0
vn 0.7616412 -0.0006901928 -0.6479986
vn 0.7616406 -0.0006919055 -0.6479993
vn 0.7616405 -0.0006946438 -0.6479993
vn 0.7616397 -0.0006884908 -0.6480003
vn 0.7616394 -0.0006910937 -0.6480008
vn 0.7616386 -0.0006904263 -0.6480017
vn 0.7616406 -0.0006946432 -0.6479993
vn 0.7616405 -0.0006957367 -0.6479995
vn 0.7616407 -0.0006940962 -0.6479992
vn 0.7145846 -0.0006904561 0.6995487
vn 0.7145845 -0.0006910589 0.6995488
vn 0.7145829 -0.0006920157 0.6995504
vn 0.7145821 -0.0006923816 0.6995513
vn 0.714581 -0.000693761 0.6995524
vn 0.7145809 -0.0006933443 0.6995525
vn 0.7145844 -0.0006922646 0.699549
vn 0.7145835 -0.0006918362 0.6995499
vn 0.7145815 -0.0006936911 0.6995519
vn 0.7145833 0.0006946807 -0.69955
vn 0.7145828 0.0006939479 -0.6995505
vn 0.7145835 0.000696107 -0.6995498
vn 0.7145838 0.0006910127 -0.6995495
vn 0.7145831 0.0006942537 -0.6995502
vn 0.7145843 0.0006922356 -0.699549
vn 0.7145831 0.0006916046 -0.6995503
vn 0.7145839 0.0006910127 -0.6995495
vn 0.7145816 0.0006927883 -0.6995518
vn 0.7145841 0.0006940691 0.6995493
vn 0.7145833 0.0006956994 0.6995499
vn 0.7145829 0.0006939293 0.6995504
vn 0.7145845 0.0006910126 0.6995488
vn 0.7145839 0.0006910127 0.6995495
vn 0.7145824 0.0006942352 0.6995509
vn 0.7145832 0.0006919937 0.6995501
vn 0.7145843 0.0006922356 0.699549
vn 0.7145808 0.0006933443 0.6995525
vn -0.3340499 -0.8782805 0.3421024
vn -0.3340529 -0.8782801 0.3421004
vn -0.3340496 -0.87828 0.3421041
vn -0.3340511 -0.8782808 0.3421004
vn -0.3340578 -0.8782802 0.3420952
vn -0.3340533 -0.8782798 0.3421008
vn -0.3340506 -0.8782805 0.342102
vn -0.3340565 -0.8782814 0.3420936
vn -0.3340497 -0.8782794 0.3421053

vt 0.6665002 0.1208627
vt 0.9995005 0.1208618
vt 0.6665002 0.2335566
vt 0.9995006 0.2335558
vt 0.000499487 0.1208644
vt 0.3334998 0.1208636
vt 0.000499622 0.2335584
vt 0.3334999 0.2335575
vt 0.9995005 0.1208644
vt 0.9995005 0.2335584
vt 0.6665002 0.1208635
vt 0.6665002 0.2335575
vt 0.3334998 0.1208627
vt 0.3334999 0.2335567
vt 0.0004995466 0.1208619
vt 0.0004995624 0.2335559
vt 0.5597765 0.2320619
vt 0.4502934 0.2320619
vt 0.5597765 0.1233004
vt 0.4502934 0.1233004
vt 0.3334998 0.2352493
vt 0.0004995167 0.2352493
vt 0.3334998 0.1222386
vt 0.0004995167 0.1222386
vt 0.9995005 0.2352493
vt 0.6665002 0.2352493
vt 0.9995005 0.1222386
vt 0.6665002 0.1222386
vt 0.5597765 0.2320619
vt 0.4502934 0.2320619
vt 0.5597765 0.1233004
vt 0.4502934 0.1233004
vt 0.3334998 0.2352493
vt 0.0004995167 0.2352493
vt 0.3334998 0.1222386
vt 0.0004995167 0.1222386
vt 0.9995005 0.2352493
vt 0.6665002 0.2352493
vt 0.9995005 0.1222386
vt 0.6665002 0.1222386
vt 0.6665002 0.1208627
vt 0.6665002 0.2335566
vt 0.9995005 0.1208618
vt 0.9995006 0.2335558
vt 0.000499487 0.1208644
vt 0.000499622 0.2335584
vt 0.3334998 0.1208636
vt 0.3334999 0.2335575
vt 0.9995005 0.1208644
vt 0.6665002 0.1208635
vt 0.9995005 0.2335584
vt 0.6665002 0.2335575
vt 0.3334998 0.1208627
vt 0.0004995466 0.1208619
vt 0.3334999 0.2335567
vt 0.0004995624 0.2335559
vt 0.5597765 0.2320619
vt 0.5597765 0.1233004
vt 0.4502934 0.2320619
vt 0.4502934 0.1233004
vt 0.3334998 0.2352493
vt 0.3334998 0.1222386
vt 0.0004995167 0.2352493
vt 0.0004995167 0.1222386
vt 0.9995005 0.2352493
vt 0.9995005 0.1222386
vt 0.6665002 0.2352493
vt 0.6665002 0.1222386
vt 0.6665002 0.1208627
vt 0.9995005 0.1208618
vt 0.6665002 0.2335566
vt 0.9995006 0.2335558
vt 0.000499487 0.1208644
vt 0.3334998 0.1208636
vt 0.000499622 0.2335584
vt 0.3334999 0.2335575
vt 0.9995005 0.1208644
vt 0.9995005 0.2335584
vt 0.6665002 0.1208635
vt 0.6665002 0.2335575
vt 0.3334998 0.1208627
vt 0.3334999 0.2335567
vt 0.0004995466 0.1208619
vt 0.0004995624 0.2335559
vt 0.5597765 0.2320619
vt 0.4502934 0.2320619
vt 0.5597765 0.1233004
vt 0.4502934 0.1233004
vt 0.3334998 0.2352493
vt 0.0004995167 0.2352493
vt 0.3334998 0.1222386
vt 0.0004995167 0.1222386
vt 0.9995005 0.2352493
vt 0.6665002 0.2352493
vt 0.9995005 0.1222386
vt 0.6665002 0.1222386
vt 0.6665002 0.1208627
vt 0.6665002 0.2335566
vt 0.9995005 0.1208618
vt 0.9995006 0.2335558
vt 0.000499487 0.1208644
vt 0.000499622 0.2335584
vt 0.3334998 0.1208636
vt 0.3334999 0.2335575
vt 0.9995005 0.1208644
vt 0.6665002 0.1208635
vt 0.9995005 0.2335584
vt 0.6665002 0.2335575
vt 0.3334998 0.1208627
vt 0.0004995466 0.1208619
vt 0.3334999 0.2335567
vt 0.0004995624 0.2335559
vt 0.5597765 0.2320619
vt 0.5597765 0.1233004
vt 0.4502934 0.2320619
vt 0.4502934 0.1233004
vt 0.3334998 0.2352493
vt 0.3334998 0.1222386
vt 0.0004995167 0.2352493
vt 0.0004995167 0.1222386
vt 0.9995005 0.2352493
vt 0.9995005 0.1222386
vt 0.6665002 0.2352493
vt 0.6665002 0.1222386
vt 0.5597765 0.2320619
vt 0.5597765 0.1233004
vt 0.4502934 0.2320619
vt 0.4502934 0.1233004
vt 0.3334998 0.2352493
vt 0.3334998 0.1222386
vt 0.0004995167 0.2352493
vt 0.0004995167 0.1222386
vt 0.9995005 0.2352493
vt 0.9995005 0.1222386
vt 0.6665002 0.2352493
vt 0.6665002 0.1222386
vt 0.2350269 0.5643575
vt 0.1186258 0.5643575
vt 0.1186258 0.6807585
vt 0.2350269 0.6807585
vt 0.002224684 0.5643574
vt 0.002224654 0.6807585
vt 0.1186257 0.7971596
vt 0.2350268 0.7971596
vt 0.002224624 0.7971596
vt 0.2350269 0.5643575
vt 0.1186258 0.5643575
vt 0.1186258 0.6807585
vt 0.2350269 0.6807585
vt 0.002224684 0.5643574
vt 0.002224654 0.6807585
vt 0.1186257 0.7971596
vt 0.2350268 0.7971596
vt 0.002224624 0.7971596
vt 0.2350269 0.5643575
vt 0.1186258 0.6807585
vt 0.1186258 0.5643575
vt 0.2350269 0.6807585
vt 0.002224654 0.6807585
vt 0.002224684 0.5643574
vt 0.1186257 0.7971596
vt 0.2350268 0.7971596
vt 0.002224624 0.7971596
vt 0.2350269 0.5643575
vt 0.1186258 0.6807585
vt 0.1186258 0.5643575
vt 0.2350269 0.6807585
vt 0.002224654 0.6807585
vt 0.002224684 0.5643574
vt 0.1186257 0.7971596
vt 0.2350268 0.7971596
vt 0.002224624 0.7971596
vt 0.2350269 0.5643575
vt 0.1186258 0.6807585
vt 0.2350269 0.6807585
vt 0.1186258 0.5643575
vt 0.002224673 0.6807585
vt 0.002224695 0.5643574
vt 0.1186257 0.7971596
vt 0.2350269 0.7971596
vt 0.002224654 0.7971596
vt 0.2350269 0.5643575
vt 0.2350269 0.6807585
vt 0.1186258 0.6807585
vt 0.1186258 0.5643575
vt 0.002224673 0.6807585
vt 0.002224695 0.5643574
vt 0.2350269 0.7971596
vt 0.1186257 0.7971596
vt 0.002224654 0.7971596
vt 0.2350269 0.5643575
vt 0.1186258 0.6807585
vt 0.1186258 0.5643575
vt 0.2350269 0.6807585
vt 0.002224654 0.6807585
vt 0.002224684 0.5643574
vt 0.1186257 0.7971596
vt 0.2350268 0.7971596
vt 0.002224624 0.7971596
vt 0.2350269 0.5643575
vt 0.1186258 0.5643575
vt 0.1186258 0.6807585
vt 0.2350269 0.6807585
vt 0.002224684 0.5643574
vt 0.002224654 0.6807585
vt 0.1186257 0.7971596
vt 0.2350268 0.7971596
vt 0.002224624 0.7971596
vt 0.5066251 0.6113513
vt 0.6230262 0.6113513
vt 0.6230262 0.7277524
vt 0.5066251 0.7277524
vt 0.7394273 0.6113513
vt 0.7394273 0.7277524
vt 0.6230262 0.8441535
vt 0.5066251 0.8441535
vt 0.7394273 0.8441535

usemtl sn05_10_kmn05r2.bmp
usemap sn05_10_kmn05r2.bmp
f 3/3/3 1/1/1 2/2/2
f 2/2/2 4/4/4 3/3/3
f 7/7/7 5/5/5 6/6/6
f 6/6/6 8/8/8 7/7/7
f 11/11/11 9/9/9 10/10/10
f 10/10/10 12/12/12 11/11/11
f 15/15/15 13/13/13 14/14/14
f 14/14/14 16/16/16 15/15/15
f 19/19/19 17/17/17 18/18/18
f 18/18/18 20/20/20 19/19/19
f 23/23/23 21/21/21 22/22/22
f 22/22/22 24/24/24 23/23/23
f 27/27/27 25/25/25 26/26/26
f 26/26/26 28/28/28 27/27/27
f 31/31/31 29/29/29 30/30/30
f 30/30/30 32/32/32 31/31/31
f 35/35/35 33/33/33 34/34/34
f 34/34/34 36/36/36 35/35/35
f 39/39/39 37/37/37 38/38/38
f 38/38/38 40/40/40 39/39/39
f 43/43/43 41/41/41 42/42/42
f 42/42/42 44/44/44 43/43/43
f 47/47/47 45/45/45 46/46/46
f 46/46/46 48/48/48 47/47/47
f 51/51/51 49/49/49 50/50/50
f 50/50/50 52/52/52 51/51/51
f 55/55/55 53/53/53 54/54/54
f 54/54/54 56/56/56 55/55/55
f 59/59/59 57/57/57 58/58/58
f 58/58/58 60/60/60 59/59/59
f 63/63/63 61/61/61 62/62/62
f 62/62/62 64/64/64 63/63/63
f 67/67/67 65/65/65 66/66/66
f 66/66/66 68/68/68 67/67/67
f 71/71/71 69/69/69 70/70/70
f 70/70/70 72/72/72 71/71/71
f 75/75/75 73/73/73 74/74/74
f 74/74/74 76/76/76 75/75/75
f 79/79/79 77/77/77 78/78/78
f 78/78/78 80/80/80 79/79/79
f 83/83/83 81/81/81 82/82/82
f 82/82/82 84/84/84 83/83/83
f 87/87/87 85/85/85 86/86/86
f 86/86/86 88/88/88 87/87/87
f 91/91/91 89/89/89 90/90/90
f 90/90/90 92/92/92 91/91/91
f 95/95/95 93/93/93 94/94/94
f 94/94/94 96/96/96 95/95/95
f 99/99/99 97/97/97 98/98/98
f 98/98/98 100/100/100 99/99/99
f 103/103/103 101/101/101 102/102/102
f 102/102/102 104/104/104 103/103/103
f 107/107/107 105/105/105 106/106/106
f 106/106/106 108/108/108 107/107/107
f 111/111/111 109/109/109 110/110/110
f 110/110/110 112/112/112 111/111/111
f 115/115/115 113/113/113 114/114/114
f 114/114/114 116/116/116 115/115/115
f 119/119/119 117/117/117 118/118/118
f 118/118/118 120/120/120 119/119/119
f 123/123/123 121/121/121 122/122/122
f 122/122/122 124/124/124 123/123/123
f 127/127/127 125/125/125 126/126/126
f 126/126/126 128/128/128 127/127/127
f 131/131/131 129/129/129 130/130/130
f 130/130/130 132/132/132 131/131/131
f 135/135/135 133/133/133 134/134/134
f 134/134/134 136/136/136 135/135/135
f 139/139/139 137/137/137 138/138/138
f 137/137/137 139/139/139 140/140/140
f 142/142/142 138/138/138 141/141/141
f 138/138/138 142/142/142 139/139/139
f 143/143/143 140/140/140 139/139/139
f 140/140/140 143/143/143 144/144/144
f 145/145/145 139/139/139 142/142/142
f 139/139/139 145/145/145 143/143/143
f 148/148/148 146/146/146 147/147/147
f 146/146/146 148/148/148 149/149/149
f 151/151/151 147/147/147 150/150/150
f 147/147/147 151/151/151 148/148/148
f 152/152/152 149/149/149 148/148/148
f 149/149/149 152/152/152 153/153/153
f 154/154/154 148/148/148 151/151/151
f 148/148/148 154/154/154 152/152/152
f 157/157/157 155/155/155 156/156/156
f 158/158/158 156/156/156 155/155/155
f 160/160/160 157/157/157 159/159/159
f 156/156/156 159/159/159 157/157/157
f 156/156/156 158/158/158 161/161/161
f 162/162/162 161/161/161 158/158/158
f 159/159/159 156/156/156 163/163/163
f 161/161/161 163/163/163 156/156/156
f 166/166/166 164/164/164 165/165/165
f 167/167/167 165/165/165 164/164/164
f 169/169/169 166/166/166 168/168/168
f 165/165/165 168/168/168 166/166/166
f 165/165/165 167/167/167 170/170/170
f 171/171/171 170/170/170 167/167/167
f 168/168/168 165/165/165 172/172/172
f 170/170/170 172/172/172 165/165/165
f 175/175/175 173/173/173 174/174/174
f 176/176/176 174/174/174 173/173/173
f 174/174/174 176/176/176 177/177/177
f 178/178/178 177/177/177 176/176/176
f 180/180/180 175/175/175 179/179/179
f 174/174/174 179/179/179 175/175/175
f 179/179/179 174/174/174 181/181/181
f 177/177/177 181/181/181 174/174/174
f 184/184/184 182/182/182 183/183/183
f 182/182/182 184/184/184 185/185/185
f 186/186/186 185/185/185 184/184/184
f 185/185/185 186/186/186 187/187/187
f 189/189/189 183/183/183 188/188/188
f 183/183/183 189/189/189 184/184/184
f 190/190/190 184/184/184 189/189/189
f 184/184/184 190/190/190 186/186/186
f 193/193/193 191/191/191 192/192/192
f 194/194/194 192/192/192 191/191/191
f 196/196/196 193/193/193 195/195/195
f 192/192/192 195/195/195 193/193/193
f 192/192/192 194/194/194 197/197/197
f 198/198/198 197/197/197 194/194/194
f 195/195/195 192/192/192 199/199/199
f 197/197/197 199/199/199 192/192/192
f 202/202/202 200/200/200 201/201/201
f 200/200/200 202/202/202 203/203/203
f 205/205/205 201/201/201 204/204/204
f 201/201/201 205/205/205 202/202/202
f 206/206/206 203/203/203 202/202/202
f 203/203/203 206/206/206 207/207/207
f 208/208/208 202/202/202 205/205/205
f 202/202/202 208/208/208 206/206/206
f 211/211/211 209/209/209 210/210/210
f 209/209/209 211/211/211 212/212/212
f 214/214/214 210/210/210 213/213/213
f 210/210/210 214/214/214 211/211/211
f 215/215/215 212/212/212 211/211/211
f 212/212/212 215/215/215 216/216/216
f 217/217/217 211/211/211 214/214/214
f 211/211/211 217/217/217 215/215/215
