mtllib ./Plane93.mtl
g Plane93
v 123.0472 112.0649 -68.87473
v 123.0472 -112.0656 -68.87473
v 43.51709 112.0649 68.87558
v 43.51709 -112.0656 68.87558
v 150.0358 112.0649 38.54062
v 150.0358 -112.0656 38.54059
v 12.2854 112.0649 -40.98956
v 12.2854 -112.0656 -40.98959
v 132.2799 112.0649 133.71
v 132.2799 -112.0656 133.71
v 52.74976 112.0649 271.4603
v 52.74976 -112.0656 271.4603
v 159.2684 112.0649 241.1253
v 159.2684 -112.0656 241.1253
v 21.51807 112.0649 161.5951
v 21.51807 -112.0656 161.5951
v 21.77686 112.0649 358.8602
v 21.77673 -112.0656 358.8603
v -57.75342 112.0649 496.6105
v -57.75342 -112.0656 496.6105
v 48.76526 112.0649 466.2756
v 48.76526 -112.0656 466.2756
v -88.98511 112.0649 386.7454
v -88.98511 -112.0656 386.7454
v 47.05212 112.0649 490.2926
v 47.052 -112.0656 490.2926
v -32.47815 112.0649 628.0428
v -32.47815 -112.0656 628.0428
v 74.04053 112.0649 597.7079
v 74.04053 -112.0656 597.7079
v -63.70984 112.0649 518.1777
v -63.70984 -112.0656 518.1777
v 47.052 112.0649 656.5005
v 47.052 -112.0656 656.5005
v -32.47815 112.0649 794.2508
v -32.47815 -112.0656 794.2508
v 74.04041 112.0649 763.9159
v 74.04041 -112.0656 763.9159
v -63.70984 112.0649 684.3857
v -63.70984 -112.0656 684.3857
v 47.052 112.0649 822.7085
v 47.052 -112.0656 822.7085
v -32.47815 112.0649 960.4587
v -32.47815 -112.0656 960.4587
v 74.04041 112.0649 930.1238
v 74.04041 -112.0656 930.1238
v -63.70984 112.0649 850.5936
v -63.70984 -112.0656 850.5936
v 47.052 112.0649 988.9164
v 47.052 -112.0656 988.9164
v -32.47815 112.0649 1126.667
v -32.47827 -112.0656 1126.667
v 74.04041 112.0649 1096.332
v 74.04041 -112.0656 1096.332
v -63.70984 112.0649 1016.802
v -63.70984 -112.0656 1016.802
v 47.052 112.0649 1155.125
v 47.05188 -112.0656 1155.125
v -32.47827 112.0649 1292.875
v -32.47827 -112.0656 1292.875
v 74.04041 112.0649 1262.54
v 74.04041 -112.0655 1262.54
v -63.70996 112.0649 1183.01
v -63.70996 -112.0656 1183.01
v 47.05188 112.0649 1321.333
v 47.05188 -112.0656 1321.333
v -32.47827 112.0649 1459.083
v -32.47827 -112.0656 1459.083
v 74.04041 112.0649 1428.748
v 74.04028 -112.0655 1428.748
v -63.70984 112.0649 1349.218
v -63.70984 -112.0656 1349.218
v 178.361 112.0649 1424.736
v 178.361 -112.0655 1424.736
v 98.83081 112.0649 1562.486
v 98.83081 -112.0656 1562.486
v 205.3495 112.0649 1365.486
v 205.3495 -112.0655 1365.486
v 67.59924 112.0649 1285.956
v 67.59924 -112.0655 1285.956
v 178.3611 112.0649 1240.413
v 178.361 -112.0655 1240.413
v 98.83093 112.0649 1378.164
v 98.83081 -112.0656 1378.164
v 205.3495 112.0649 1347.829
v 205.3495 -112.0655 1347.829
v 67.59912 112.0649 1268.298
v 67.59912 -112.0655 1268.298
v 178.361 112.0649 889.4252
v 178.361 -112.0655 889.4252
v 98.83081 112.0649 1027.175
v 98.83081 -112.0656 1027.175
v 205.3495 112.0649 1163.506
v 205.3495 -112.0655 1163.506
v 67.59912 112.0649 1083.976
v 67.59912 -112.0655 1083.976
v 178.3611 112.0649 705.1025
v 178.3611 -112.0656 705.1025
v 98.83093 112.0649 842.8528
v 98.83093 -112.0656 842.8528
v 205.3495 112.0649 979.1833
v 205.3495 -112.0655 979.1833
v 67.59924 112.0649 899.6531
v 67.59924 -112.0656 899.6531
v 178.3611 112.0649 520.7798
v 178.3611 -112.0656 520.7798
v 98.83093 112.0649 658.5301
v 98.83093 -112.0656 658.5302
v 205.3496 112.0649 794.8607
v 205.3495 -112.0655 794.8607
v 67.59924 112.0649 715.3304
v 67.59924 -112.0656 715.3304
v 178.3612 112.0649 336.4572
v 178.3611 -112.0656 336.4572
v 98.83093 112.0649 474.2075
v 98.83093 -112.0656 474.2075
v 205.3496 112.0649 610.538
v 205.3496 -112.0655 610.538
v 67.59924 112.0649 531.0078
v 67.59924 -112.0656 531.0078
v 261.6428 112.0649 152.1346
v 261.6428 -112.0656 152.1346
v 182.1127 112.0649 289.8849
v 182.1127 -112.0656 289.8849
v 205.3496 112.0649 426.2153
v 205.3496 -112.0655 426.2153
v 67.59937 112.0649 346.6852
v 67.59924 -112.0656 346.6852
v 261.6429 112.0649 -32.18811
v 261.6428 -112.0656 -32.18808
v 182.1127 112.0649 105.5622
v 182.1127 -112.0656 105.5622
v 288.6313 112.0649 241.8927
v 288.6312 -112.0655 241.8927
v 150.881 112.0649 162.3625
v 150.881 -112.0656 162.3625
v 400.7715 112.0649 107.4744
v 400.7715 -112.0656 107.4744
v 321.2413 112.0649 245.2247
v 321.2413 -112.0656 245.2247
v 427.7599 112.0649 48.22427
v 427.7599 -112.0655 48.22427
v 290.0096 112.0649 -31.30594
v 290.0096 -112.0656 -31.30591
v 317.4899 112.0649 274.7358
v 317.4899 -112.0656 274.7358
v 237.9596 112.0649 412.4861
v 237.9596 -112.0656 412.4861
v 344.4783 112.0649 382.1512
v 344.4783 -112.0655 382.1512
v 206.7279 112.0649 302.621
v 206.7279 -112.0655 302.621
v 317.4899 112.0649 441.9973
v 317.4897 -112.0655 441.9973
v 237.9596 112.0649 579.7476
v 237.9596 -112.0656 579.7476
v 344.4783 112.0649 549.4127
v 344.4781 -112.0655 549.4127
v 206.7279 112.0649 469.8824
v 206.7279 -112.0655 469.8824
v 317.4897 112.0649 609.2587
v 317.4897 -112.0655 609.2587
v 237.9596 112.0649 747.0091
v 237.9596 -112.0656 747.0091
v 344.4781 112.0649 716.6741
v 344.4781 -112.0655 716.6741
v 206.7279 112.0649 637.1439
v 206.7279 -112.0655 637.144
v 317.4897 112.0649 776.5203
v 317.4897 -112.0655 776.5203
v 237.9596 112.0649 914.2706
v 237.9596 -112.0656 914.2706
v 344.4781 112.0649 883.9355
v 344.4781 -112.0655 883.9355
v 206.7279 112.0649 804.4054
v 206.7279 -112.0655 804.4054
v 317.4897 112.0649 943.7817
v 317.4897 -112.0655 943.7817
v 237.9595 112.0649 1081.532
v 237.9595 -112.0655 1081.532
v 344.4781 112.0649 1051.197
v 344.4781 -112.0655 1051.197
v 206.7279 112.0649 971.6669
v 206.7279 -112.0655 971.6669
v 317.4897 112.0649 1111.043
v 317.4897 -112.0655 1111.043
v 237.9595 112.0649 1248.793
v 237.9595 -112.0655 1248.793
v 344.4781 112.0649 1218.458
v 344.4781 -112.0655 1218.458
v 206.7279 112.0649 1138.928
v 206.7279 -112.0655 1138.928
v 317.4896 112.0649 1278.305
v 317.4896 -112.0655 1278.305
v 237.9595 112.0649 1416.055
v 237.9595 -112.0655 1416.055
v 344.478 112.0649 1385.72
v 344.478 -112.0655 1385.72
v 206.7278 112.0649 1306.19
v 206.7278 -112.0655 1306.19
v 317.4896 112.0649 1445.566
v 317.4896 -112.0655 1445.566
v 237.9595 112.0649 1583.316
v 237.9595 -112.0655 1583.316
v 344.478 112.0649 1386.316
v 344.478 -112.0655 1386.316
v 206.7278 112.0649 1306.786
v 206.7278 -112.0655 1306.786
v 461.0498 112.0649 1445.665
v 461.0498 -112.0655 1445.665
v 381.5195 112.0649 1583.415
v 381.5195 -112.0655 1583.415
v 488.0382 112.0649 1386.415
v 488.0382 -112.0655 1386.415
v 350.288 112.0649 1306.884
v 350.288 -112.0655 1306.884
v 461.0497 112.0649 1311.845
v 461.0497 -112.0655 1311.845
v 381.5197 112.0649 1449.596
v 381.5195 -112.0655 1449.596
v 488.0382 112.0649 1419.261
v 488.0382 -112.0655 1419.261
v 350.288 112.0649 1339.731
v 350.288 -112.0655 1339.731
v 461.0498 112.0649 1178.027
v 461.0498 -112.0655 1178.027
v 381.5195 112.0649 1315.777
v 381.5195 -112.0655 1315.777
v 488.0382 112.0649 1285.442
v 488.0382 -112.0655 1285.442
v 350.288 112.0649 1205.912
v 350.288 -112.0655 1205.912
v 461.0498 112.0649 1044.208
v 461.0498 -112.0655 1044.208
v 381.5197 112.0649 1181.958
v 381.5197 -112.0655 1181.958
v 488.0382 112.0649 1151.623
v 488.0382 -112.0655 1151.623
v 350.288 112.0649 1072.093
v 350.288 -112.0655 1072.093
v 461.0498 112.0649 910.3885
v 461.0498 -112.0655 910.3885
v 381.5197 112.0649 1048.139
v 381.5197 -112.0655 1048.139
v 488.0383 112.0649 1017.804
v 488.0382 -112.0655 1017.804
v 350.288 112.0649 938.2736
v 350.288 -112.0655 938.2736
v 461.0498 112.0649 776.5695
v 461.0498 -112.0655 776.5695
v 381.5197 112.0649 914.3197
v 381.5197 -112.0655 914.3198
v 488.0383 112.0649 883.9848
v 488.0382 -112.0655 883.9848
v 350.288 112.0649 804.4545
v 350.288 -112.0655 804.4546
v 461.0499 112.0649 642.7504
v 461.0499 -112.0655 642.7504
v 381.5197 112.0649 780.5007
v 381.5197 -112.0655 780.5007
v 488.0382 112.0649 750.1658
v 488.0382 -112.0655 750.1658
v 350.2881 112.0649 670.6356
v 350.288 -112.0655 670.6356
v 461.0499 112.0649 508.9314
v 461.0499 -112.0655 508.9314
v 381.5197 112.0649 646.6817
v 381.5197 -112.0655 646.6817
v 488.0382 112.0649 616.3467
v 488.0382 -112.0655 616.3467
v 350.288 112.0649 536.8165
v 350.288 -112.0655 536.8165
v 461.0499 112.0649 375.1124
v 461.0499 -112.0655 375.1124
v 381.5197 112.0649 512.8627
v 381.5197 -112.0655 512.8627
v 488.0383 112.0649 482.5278
v 488.0383 -112.0655 482.5278
v 350.2881 112.0649 402.9976
v 350.2881 -112.0655 402.9976
v 544.3317 112.0649 241.2934
v 544.3317 -112.0655 241.2934
v 464.8014 112.0649 379.0437
v 464.8014 -112.0655 379.0437
v 488.0383 112.0649 348.7087
v 488.0383 -112.0655 348.7087
v 350.2881 112.0649 269.1786
v 350.2881 -112.0655 269.1785

vn -0.8660254 0 -0.4999999
vn -0.8660254 0 -0.4999999
vn -0.8660254 0 -0.4999999
vn -0.8660254 0 -0.4999999
vn 0.4999999 1.179179E-07 -0.8660254
vn 0.4999999 1.179179E-07 -0.8660254
vn 0.4999999 1.179179E-07 -0.8660254
vn 0.4999999 1.179179E-07 -0.8660254
vn -0.8660255 0 -0.4999999
vn -0.8660255 0 -0.4999999
vn -0.8660255 0 -0.4999999
vn -0.8660254 0 -0.4999999
vn 0.4999999 0 -0.8660254
vn 0.4999999 0 -0.8660254
vn 0.4999999 0 -0.8660254
vn 0.4999999 0 -0.8660254
vn -0.8660251 4.035915E-07 -0.5000004
vn -0.8660253 2.017958E-07 -0.5000002
vn -0.8660253 2.017958E-07 -0.5000002
vn -0.8660254 0 -0.4999999
vn 0.4999999 0 -0.8660254
vn 0.4999999 0 -0.8660254
vn 0.4999999 0 -0.8660254
vn 0.4999999 0 -0.8660254
vn -0.866025 4.716715E-07 -0.5000005
vn -0.8660253 2.358358E-07 -0.5000003
vn -0.8660253 2.358358E-07 -0.5000003
vn -0.8660254 0 -0.4999999
vn 0.4999997 0 -0.8660256
vn 0.4999997 0 -0.8660256
vn 0.4999997 0 -0.8660256
vn 0.4999997 0 -0.8660256
vn -0.8660254 0 -0.5000001
vn -0.8660254 0 -0.5000001
vn -0.8660254 0 -0.5000001
vn -0.8660254 0 -0.5000001
vn 0.5000004 0 -0.8660252
vn 0.5000004 0 -0.8660252
vn 0.5000004 0 -0.8660252
vn 0.5000004 0 -0.8660252
vn -0.8660254 0 -0.5000001
vn -0.8660254 0 -0.5000001
vn -0.8660254 0 -0.5000001
vn -0.8660254 0 -0.5000001
vn 0.5000004 0 -0.8660252
vn 0.5000004 0 -0.8660252
vn 0.5000004 0 -0.8660252
vn 0.5000004 0 -0.8660252
vn -0.8660255 0 -0.4999999
vn -0.8660253 2.358358E-07 -0.5000002
vn -0.8660253 2.358358E-07 -0.5000002
vn -0.8660251 4.716715E-07 -0.5000004
vn 0.5000004 0 -0.8660252
vn 0.5000004 0 -0.8660252
vn 0.5000004 0 -0.8660252
vn 0.5000004 0 -0.8660252
vn -0.8660251 4.716715E-07 -0.5000007
vn -0.8660251 2.358358E-07 -0.5000003
vn -0.8660251 2.358358E-07 -0.5000003
vn -0.8660254 0 -0.5000001
vn 0.5000002 0 -0.8660252
vn 0.5000002 0 -0.8660252
vn 0.5000002 0 -0.8660252
vn 0.5000002 0 -0.8660252
vn -0.8660251 0 -0.5000004
vn -0.8660251 0 -0.5000004
vn -0.8660251 0 -0.5000004
vn -0.8660251 0 -0.5000004
vn 0.5000006 -2.723201E-07 -0.866025
vn 0.5000008 -1.361601E-07 -0.866025
vn 0.5000008 -1.361601E-07 -0.866025
vn 0.500001 0 -0.8660249
vn -0.8660251 0 -0.5000004
vn -0.8660251 0 -0.5000004
vn -0.8660251 0 -0.5000004
vn -0.8660251 0 -0.5000004
vn 0.4999994 0 -0.8660256
vn 0.4999994 0 -0.8660256
vn 0.4999994 0 -0.8660256
vn 0.4999994 0 -0.8660256
vn -0.8660254 4.716717E-07 -0.5000001
vn -0.8660254 4.716717E-07 -0.5000001
vn -0.8660254 4.716717E-07 -0.5000001
vn -0.8660254 4.716717E-07 -0.5000001
vn 0.5000002 0 -0.8660252
vn 0.5000002 0 -0.8660252
vn 0.5000002 0 -0.8660252
vn 0.5000002 0 -0.8660252
vn -0.8660251 0 -0.5000004
vn -0.8660251 0 -0.5000004
vn -0.8660251 0 -0.5000004
vn -0.8660251 0 -0.5000004
vn 0.4999991 0 -0.8660259
vn 0.4999991 0 -0.8660259
vn 0.4999991 0 -0.8660259
vn 0.4999991 0 -0.8660259
vn -0.8660255 0 -0.4999997
vn -0.8660255 0 -0.4999997
vn -0.8660255 0 -0.4999997
vn -0.8660256 0 -0.4999997
vn 0.5000001 0 -0.8660254
vn 0.5000001 0 -0.8660254
vn 0.5000001 0 -0.8660254
vn 0.5000001 0 -0.8660254
vn -0.8660254 0 -0.5000001
vn -0.8660254 -6.807993E-08 -0.4999999
vn -0.8660254 -6.807993E-08 -0.4999999
vn -0.8660255 -1.361599E-07 -0.4999999
vn 0.5 -2.723198E-07 -0.8660254
vn 0.5000002 -1.3616E-07 -0.8660253
vn 0.5000002 -1.3616E-07 -0.8660253
vn 0.5000004 0 -0.8660252
vn -0.8660251 4.716715E-07 -0.5000004
vn -0.8660253 2.358358E-07 -0.5000002
vn -0.8660253 2.358358E-07 -0.5000002
vn -0.8660255 0 -0.4999999
vn 0.5 0 -0.8660254
vn 0.5 0 -0.8660254
vn 0.5 0 -0.8660254
vn 0.5 0 -0.8660254
vn -0.8660255 -6.807993E-08 -0.4999999
vn -0.8660254 -3.403997E-08 -0.4999999
vn -0.8660254 -3.403997E-08 -0.4999999
vn -0.8660254 0 -0.4999999
vn 0.5000002 0 -0.8660253
vn 0.5000001 -1.361599E-07 -0.8660254
vn 0.5000001 -1.361599E-07 -0.8660254
vn 0.4999999 -2.723197E-07 -0.8660254
vn -0.8660251 4.035915E-07 -0.5000004
vn -0.8660253 2.017958E-07 -0.5000002
vn -0.8660253 2.017958E-07 -0.5000002
vn -0.8660254 0 -0.4999999
vn 0.5 -2.133608E-07 -0.8660254
vn 0.5000002 -1.066805E-07 -0.8660254
vn 0.5000002 -1.066805E-07 -0.8660254
vn 0.5000003 0 -0.8660253
vn -0.8660254 -6.807993E-08 -0.4999999
vn -0.8660254 -5.105995E-08 -0.4999999
vn -0.8660254 -5.105995E-08 -0.4999999
vn -0.8660254 -3.403997E-08 -0.4999999
vn 0.5000004 0 -0.8660252
vn 0.5000002 -5.895895E-08 -0.8660253
vn 0.5000002 -5.895895E-08 -0.8660253
vn 0.5000002 -1.179179E-07 -0.8660254
vn -0.8660251 0 -0.5000005
vn -0.8660251 0 -0.5000005
vn -0.8660251 0 -0.5000005
vn -0.8660251 0 -0.5000005
vn 0.5 0 -0.8660254
vn 0.5 0 -0.8660254
vn 0.5 0 -0.8660254
vn 0.5 0 -0.8660254
vn -0.8660251 4.716716E-07 -0.5000004
vn -0.8660253 2.358358E-07 -0.5000002
vn -0.8660253 2.358358E-07 -0.5000002
vn -0.8660254 0 -0.4999999
vn 0.5 -2.723198E-07 -0.8660254
vn 0.5000002 -1.3616E-07 -0.8660253
vn 0.5000002 -1.3616E-07 -0.8660253
vn 0.5000004 0 -0.8660252
vn -0.8660256 0 -0.4999997
vn -0.8660255 0 -0.4999997
vn -0.8660255 0 -0.4999997
vn -0.8660255 0 -0.4999997
vn 0.5000004 0 -0.8660252
vn 0.5000002 -1.179179E-07 -0.8660253
vn 0.5000002 -1.179179E-07 -0.8660253
vn 0.5000001 -2.358359E-07 -0.8660254
vn -0.8660254 0 -0.4999999
vn -0.8660254 0 -0.4999999
vn -0.8660254 0 -0.4999999
vn -0.8660254 0 -0.4999999
vn 0.5000001 0 -0.8660254
vn 0.5000001 0 -0.8660254
vn 0.5000001 0 -0.8660254
vn 0.5000001 0 -0.8660254
vn -0.8660251 0 -0.5000005
vn -0.8660251 0 -0.5000004
vn -0.8660251 0 -0.5000004
vn -0.8660251 0 -0.5000004
vn 0.5000001 0 -0.8660254
vn 0.5000001 0 -0.8660254
vn 0.5000001 0 -0.8660254
vn 0.5000001 0 -0.8660254
vn -0.8660251 0 -0.5000007
vn -0.8660251 0 -0.5000007
vn -0.8660251 0 -0.5000007
vn -0.866025 0 -0.5000006
vn 0.5000006 0 -0.866025
vn 0.5000006 0 -0.866025
vn 0.5000006 0 -0.866025
vn 0.5000006 0 -0.866025
vn -0.8660254 0 -0.5000001
vn -0.8660254 0 -0.5000001
vn -0.8660254 0 -0.5000001
vn -0.8660254 0 -0.5000001
vn 0.4999994 0 -0.8660256
vn 0.4999994 0 -0.8660256
vn 0.4999994 0 -0.8660256
vn 0.4999994 0 -0.8660256
vn -0.8660251 0 -0.5000004
vn -0.8660251 0 -0.5000004
vn -0.8660251 0 -0.5000004
vn -0.8660251 0 -0.5000004
vn 0.4999994 0 -0.8660256
vn 0.4999994 0 -0.8660256
vn 0.4999994 0 -0.8660256
vn 0.4999994 0 -0.8660256
vn -0.8660253 0 -0.5000003
vn -0.8660253 0 -0.5000003
vn -0.8660253 0 -0.5000003
vn -0.8660253 0 -0.5000003
vn 0.5000006 0 -0.866025
vn 0.5000006 0 -0.866025
vn 0.5000006 0 -0.866025
vn 0.5000006 0 -0.866025
vn -0.8660259 0 -0.4999991
vn -0.8660258 2.35836E-07 -0.4999995
vn -0.8660258 2.35836E-07 -0.4999995
vn -0.8660256 4.716718E-07 -0.4999997
vn 0.4999995 0 -0.8660257
vn 0.4999995 0 -0.8660257
vn 0.4999995 0 -0.8660257
vn 0.4999994 0 -0.8660256
vn -0.866025 0 -0.5000006
vn -0.866025 0 -0.5000006
vn -0.866025 0 -0.5000006
vn -0.866025 0 -0.5000006
vn 0.5000007 0 -0.8660251
vn 0.5000007 0 -0.8660251
vn 0.5000007 0 -0.8660251
vn 0.5000006 0 -0.866025
vn -0.8660254 0 -0.5000001
vn -0.8660254 0 -0.5000001
vn -0.8660254 0 -0.5000001
vn -0.8660254 0 -0.5000001
vn 0.4999995 0 -0.8660257
vn 0.4999995 0 -0.8660257
vn 0.4999995 0 -0.8660257
vn 0.4999994 0 -0.8660256
vn -0.8660257 0 -0.4999996
vn -0.8660257 0 -0.4999996
vn -0.8660257 0 -0.4999996
vn -0.8660257 0 -0.4999996
vn 0.5 -2.723198E-07 -0.8660254
vn 0.5000002 -1.3616E-07 -0.8660253
vn 0.5000002 -1.3616E-07 -0.8660253
vn 0.5000004 0 -0.8660252
vn -0.8660254 0 -0.5000001
vn -0.8660254 -6.807993E-08 -0.4999999
vn -0.8660254 -6.807993E-08 -0.4999999
vn -0.8660255 -1.361599E-07 -0.4999999
vn 0.5000002 -2.7232E-07 -0.8660252
vn 0.5000003 -2.540779E-07 -0.8660252
vn 0.5000003 -2.540779E-07 -0.8660252
vn 0.5000004 -2.358358E-07 -0.8660252
vn -0.8660251 0 -0.5000004
vn -0.8660251 0 -0.5000004
vn -0.8660251 0 -0.5000004
vn -0.8660251 0 -0.5000004
vn 0.5000004 0 -0.8660251
vn 0.5000002 -1.3616E-07 -0.8660253
vn 0.5000002 -1.3616E-07 -0.8660253
vn 0.5000001 -2.723198E-07 -0.8660254
vn -0.8660251 0 -0.5000005
vn -0.8660251 0 -0.5000005
vn -0.8660251 0 -0.5000005
vn -0.8660251 0 -0.5000004
vn 0.5000004 0 -0.8660252
vn 0.5000004 0 -0.8660252
vn 0.5000004 0 -0.8660252
vn 0.5000004 0 -0.8660252
vn -0.8660251 0 -0.5000005
vn -0.8660251 0 -0.5000005
vn -0.8660251 0 -0.5000005
vn -0.8660251 0 -0.5000004
vn 0.5000004 0 -0.8660252
vn 0.5000004 0 -0.8660252
vn 0.5000004 0 -0.8660252
vn 0.5000004 0 -0.8660252
vn -0.8660251 0 -0.5000005
vn -0.8660251 0 -0.5000005
vn -0.8660251 0 -0.5000005
vn -0.8660251 0 -0.5000005
vn 0.5000002 0 -0.8660253
vn 0.5000003 5.895896E-08 -0.8660253
vn 0.5000003 5.895896E-08 -0.8660253
vn 0.5000004 1.179179E-07 -0.8660252

vt 0 1
vt 0 0
vt 1 1
vt 1 0
vt 0 1
vt 0 0
vt 1 1
vt 1 0
vt 0 1
vt 0 0
vt 1 1
vt 1 0
vt 0 1
vt 0 0
vt 1 1
vt 1 0
vt 0 1
vt 0 0
vt 1 1
vt 1 0
vt 0 1
vt 0 0
vt 1 1
vt 1 0
vt 0 1
vt 0 0
vt 1 1
vt 1 0
vt 0 1
vt 0 0
vt 1 1
vt 1 0
vt 0 1
vt 0 0
vt 1 1
vt 1 0
vt 0 1
vt 0 0
vt 1 1
vt 1 0
vt 0 1
vt 0 0
vt 1 1
vt 1 0
vt 0 1
vt 0 0
vt 1 1
vt 1 0
vt 0 1
vt 0 0
vt 1 1
vt 1 0
vt 0 1
vt 0 0
vt 1 1
vt 1 0
vt 0 1
vt 0 0
vt 1 1
vt 1 0
vt 0 1
vt 0 0
vt 1 1
vt 1 0
vt 0 1
vt 0 0
vt 1 1
vt 1 0
vt 0 1
vt 0 0
vt 1 1
vt 1 0
vt 0 1
vt 0 0
vt 1 1
vt 1 0
vt 0 1
vt 0 0
vt 1 1
vt 1 0
vt 0 1
vt 0 0
vt 1 1
vt 1 0
vt 0 1
vt 0 0
vt 1 1
vt 1 0
vt 0 1
vt 0 0
vt 1 1
vt 1 0
vt 0 1
vt 0 0
vt 1 1
vt 1 0
vt 0 1
vt 0 0
vt 1 1
vt 1 0
vt 0 1
vt 0 0
vt 1 1
vt 1 0
vt 0 1
vt 0 0
vt 1 1
vt 1 0
vt 0 1
vt 0 0
vt 1 1
vt 1 0
vt 0 1
vt 0 0
vt 1 1
vt 1 0
vt 0 1
vt 0 0
vt 1 1
vt 1 0
vt 0 1
vt 0 0
vt 1 1
vt 1 0
vt 0 1
vt 0 0
vt 1 1
vt 1 0
vt 0 1
vt 0 0
vt 1 1
vt 1 0
vt 0 1
vt 0 0
vt 1 1
vt 1 0
vt 0 1
vt 0 0
vt 1 1
vt 1 0
vt 0 1
vt 0 0
vt 1 1
vt 1 0
vt 0 1
vt 0 0
vt 1 1
vt 1 0
vt 0 1
vt 0 0
vt 1 1
vt 1 0
vt 0 1
vt 0 0
vt 1 1
vt 1 0
vt 0 1
vt 0 0
vt 1 1
vt 1 0
vt 0 1
vt 0 0
vt 1 1
vt 1 0
vt 0 1
vt 0 0
vt 1 1
vt 1 0
vt 0 1
vt 0 0
vt 1 1
vt 1 0
vt 0 1
vt 0 0
vt 1 1
vt 1 0
vt 0 1
vt 0 0
vt 1 1
vt 1 0
vt 0 1
vt 0 0
vt 1 1
vt 1 0
vt 0 1
vt 0 0
vt 1 1
vt 1 0
vt 0 1
vt 0 0
vt 1 1
vt 1 0
vt 0 1
vt 0 0
vt 1 1
vt 1 0
vt 0 1
vt 0 0
vt 1 1
vt 1 0
vt 0 1
vt 0 0
vt 1 1
vt 1 0
vt 0 1
vt 0 0
vt 1 1
vt 1 0
vt 0 1
vt 0 0
vt 1 1
vt 1 0
vt 0 1
vt 0 0
vt 1 1
vt 1 0
vt 0 1
vt 0 0
vt 1 1
vt 1 0
vt 0 1
vt 0 0
vt 1 1
vt 1 0
vt 0 1
vt 0 0
vt 1 1
vt 1 0
vt 0 1
vt 0 0
vt 1 1
vt 1 0
vt 0 1
vt 0 0
vt 1 1
vt 1 0
vt 0 1
vt 0 0
vt 1 1
vt 1 0
vt 0 1
vt 0 0
vt 1 1
vt 1 0
vt 0 1
vt 0 0
vt 1 1
vt 1 0
vt 0 1
vt 0 0
vt 1 1
vt 1 0
vt 0 1
vt 0 0
vt 1 1
vt 1 0
vt 0 1
vt 0 0
vt 1 1
vt 1 0
vt 0 1
vt 0 0
vt 1 1
vt 1 0
vt 0 1
vt 0 0
vt 1 1
vt 1 0
vt 0 1
vt 0 0
vt 1 1
vt 1 0
vt 0 1
vt 0 0
vt 1 1
vt 1 0
vt 0 1
vt 0 0
vt 1 1
vt 1 0
vt 0 1
vt 0 0
vt 1 1
vt 1 0
vt 0 1
vt 0 0
vt 1 1
vt 1 0

usemtl sn05_39_kmtree01.bmp
usemap sn05_39_kmtree01.bmp
f 3/3/3 1/1/1 2/2/2
f 2/2/2 4/4/4 3/3/3
f 7/7/7 5/5/5 6/6/6
f 6/6/6 8/8/8 7/7/7
f 11/11/11 9/9/9 10/10/10
f 10/10/10 12/12/12 11/11/11
f 15/15/15 13/13/13 14/14/14
f 14/14/14 16/16/16 15/15/15
f 19/19/19 17/17/17 18/18/18
f 18/18/18 20/20/20 19/19/19
f 23/23/23 21/21/21 22/22/22
f 22/22/22 24/24/24 23/23/23
f 27/27/27 25/25/25 26/26/26
f 26/26/26 28/28/28 27/27/27
f 31/31/31 29/29/29 30/30/30
f 30/30/30 32/32/32 31/31/31
f 35/35/35 33/33/33 34/34/34
f 34/34/34 36/36/36 35/35/35
f 39/39/39 37/37/37 38/38/38
f 38/38/38 40/40/40 39/39/39
f 43/43/43 41/41/41 42/42/42
f 42/42/42 44/44/44 43/43/43
f 47/47/47 45/45/45 46/46/46
f 46/46/46 48/48/48 47/47/47
f 51/51/51 49/49/49 50/50/50
f 50/50/50 52/52/52 51/51/51
f 55/55/55 53/53/53 54/54/54
f 54/54/54 56/56/56 55/55/55
f 59/59/59 57/57/57 58/58/58
f 58/58/58 60/60/60 59/59/59
f 63/63/63 61/61/61 62/62/62
f 62/62/62 64/64/64 63/63/63
f 67/67/67 65/65/65 66/66/66
f 66/66/66 68/68/68 67/67/67
f 71/71/71 69/69/69 70/70/70
f 70/70/70 72/72/72 71/71/71
f 75/75/75 73/73/73 74/74/74
f 74/74/74 76/76/76 75/75/75
f 79/79/79 77/77/77 78/78/78
f 78/78/78 80/80/80 79/79/79
f 83/83/83 81/81/81 82/82/82
f 82/82/82 84/84/84 83/83/83
f 87/87/87 85/85/85 86/86/86
f 86/86/86 88/88/88 87/87/87
f 91/91/91 89/89/89 90/90/90
f 90/90/90 92/92/92 91/91/91
f 95/95/95 93/93/93 94/94/94
f 94/94/94 96/96/96 95/95/95
f 99/99/99 97/97/97 98/98/98
f 98/98/98 100/100/100 99/99/99
f 103/103/103 101/101/101 102/102/102
f 102/102/102 104/104/104 103/103/103
f 107/107/107 105/105/105 106/106/106
f 106/106/106 108/108/108 107/107/107
f 111/111/111 109/109/109 110/110/110
f 110/110/110 112/112/112 111/111/111
f 115/115/115 113/113/113 114/114/114
f 114/114/114 116/116/116 115/115/115
f 119/119/119 117/117/117 118/118/118
f 118/118/118 120/120/120 119/119/119
f 123/123/123 121/121/121 122/122/122
f 122/122/122 124/124/124 123/123/123
f 127/127/127 125/125/125 126/126/126
f 126/126/126 128/128/128 127/127/127
f 131/131/131 129/129/129 130/130/130
f 130/130/130 132/132/132 131/131/131
f 135/135/135 133/133/133 134/134/134
f 134/134/134 136/136/136 135/135/135
f 139/139/139 137/137/137 138/138/138
f 138/138/138 140/140/140 139/139/139
f 143/143/143 141/141/141 142/142/142
f 142/142/142 144/144/144 143/143/143
f 147/147/147 145/145/145 146/146/146
f 146/146/146 148/148/148 147/147/147
f 151/151/151 149/149/149 150/150/150
f 150/150/150 152/152/152 151/151/151
f 155/155/155 153/153/153 154/154/154
f 154/154/154 156/156/156 155/155/155
f 159/159/159 157/157/157 158/158/158
f 158/158/158 160/160/160 159/159/159
f 163/163/163 161/161/161 162/162/162
f 162/162/162 164/164/164 163/163/163
f 167/167/167 165/165/165 166/166/166
f 166/166/166 168/168/168 167/167/167
f 171/171/171 169/169/169 170/170/170
f 170/170/170 172/172/172 171/171/171
f 175/175/175 173/173/173 174/174/174
f 174/174/174 176/176/176 175/175/175
f 179/179/179 177/177/177 178/178/178
f 178/178/178 180/180/180 179/179/179
f 183/183/183 181/181/181 182/182/182
f 182/182/182 184/184/184 183/183/183
f 187/187/187 185/185/185 186/186/186
f 186/186/186 188/188/188 187/187/187
f 191/191/191 189/189/189 190/190/190
f 190/190/190 192/192/192 191/191/191
f 195/195/195 193/193/193 194/194/194
f 194/194/194 196/196/196 195/195/195
f 199/199/199 197/197/197 198/198/198
f 198/198/198 200/200/200 199/199/199
f 203/203/203 201/201/201 202/202/202
f 202/202/202 204/204/204 203/203/203
f 207/207/207 205/205/205 206/206/206
f 206/206/206 208/208/208 207/207/207
f 211/211/211 209/209/209 210/210/210
f 210/210/210 212/212/212 211/211/211
f 215/215/215 213/213/213 214/214/214
f 214/214/214 216/216/216 215/215/215
f 219/219/219 217/217/217 218/218/218
f 218/218/218 220/220/220 219/219/219
f 223/223/223 221/221/221 222/222/222
f 222/222/222 224/224/224 223/223/223
f 227/227/227 225/225/225 226/226/226
f 226/226/226 228/228/228 227/227/227
f 231/231/231 229/229/229 230/230/230
f 230/230/230 232/232/232 231/231/231
f 235/235/235 233/233/233 234/234/234
f 234/234/234 236/236/236 235/235/235
f 239/239/239 237/237/237 238/238/238
f 238/238/238 240/240/240 239/239/239
f 243/243/243 241/241/241 242/242/242
f 242/242/242 244/244/244 243/243/243
f 247/247/247 245/245/245 246/246/246
f 246/246/246 248/248/248 247/247/247
f 251/251/251 249/249/249 250/250/250
f 250/250/250 252/252/252 251/251/251
f 255/255/255 253/253/253 254/254/254
f 254/254/254 256/256/256 255/255/255
f 259/259/259 257/257/257 258/258/258
f 258/258/258 260/260/260 259/259/259
f 263/263/263 261/261/261 262/262/262
f 262/262/262 264/264/264 263/263/263
f 267/267/267 265/265/265 266/266/266
f 266/266/266 268/268/268 267/267/267
f 271/271/271 269/269/269 270/270/270
f 270/270/270 272/272/272 271/271/271
f 275/275/275 273/273/273 274/274/274
f 274/274/274 276/276/276 275/275/275
f 279/279/279 277/277/277 278/278/278
f 278/278/278 280/280/280 279/279/279
f 283/283/283 281/281/281 282/282/282
f 282/282/282 284/284/284 283/283/283
f 287/287/287 285/285/285 286/286/286
f 286/286/286 288/288/288 287/287/287
