mtllib ./Plane07.mtl
g Plane07
v 2941.639 0.0001835823 -1332.598
v 2941.639 0.0001835823 -2665.197
v 816.6274 0.0001835823 -1288.175
v 844.5293 0.0001835823 -2665.197
v -0.0002441406 0.0001835823 -1288.175
v -0.0002441406 0.0001835823 -2665.197
v -1421.182 0.0001835823 -1288.175
v -1470.82 0.0001835823 -2665.197
v -2941.64 0.0001835823 -1332.598
v -2941.64 0.0001835823 -2665.197
v 2941.639 0.0001835823 -0.0002593994
v 816.6274 0.0001835823 -0.0002593994
v -1421.182 0.0001835823 -0.0002593994
v -2941.64 0.0001835823 -0.0002593994
v 2941.639 0.0001835823 763.1677
v 816.6274 0.0001835823 728.7556
v -1421.182 0.0001835823 728.7556
v -2941.64 0.0001835823 763.1677
v 2941.639 0.0001835823 2665.196
v 844.5293 0.0001835823 2665.196
v -0.0002441406 0.0001835823 2665.196
v -0.0002441406 0.0001835823 728.7556
v -1470.82 0.0001835823 2665.196
v -2941.64 0.0001835823 2665.196

vn 0 1 0
vn 0 1 0
vn 0 1 0
vn 0 0.9999999 0
vn 0 1 0
vn 0 1 0
vn 0 1 0
vn 0 1 0
vn 0 1 0
vn 0 1 0
vn 0 1 0
vn 0 1 0
vn 0 1 0
vn 0 1 0
vn 0 1 0
vn 0 1 0
vn 0 1 0
vn 0 1 0
vn 0 1 0
vn 0 1 0
vn 0 1 0
vn 0 1 0
vn 0 1 0
vn 0 1 0

vt 0.009992123 5.005
vt 0.009990931 0.009995699
vt 7.226676 5.17151
vt 7.131919 0.009993911
vt 9.999999 5.17151
vt 9.999998 0.009993315
vt 14.82643 5.171508
vt 14.995 0.009992123
vt 19.99001 5.004993
vt 19.99 0.009990931
vt 0.009993315 10
vt 7.226677 10
vt 14.82643 9.999999
vt 19.99001 9.999998
vt 0.009993911 12.8606
vt 7.226678 12.73161
vt 14.82643 12.73161
vt 19.99001 12.86059
vt 0.009995699 19.99001
vt 7.131923 19.99001
vt 10 19.99001
vt 10 12.73161
vt 14.995 19.99001
vt 19.99001 19.99

usemtl sn05_14_sn05g.jpg
usemap sn05_14_sn05g.jpg
f 3/3/3 1/1/1 2/2/2
f 2/2/2 4/4/4 3/3/3
f 5/5/5 3/3/3 4/4/4
f 4/4/4 6/6/6 5/5/5
f 7/7/7 5/5/5 6/6/6
f 6/6/6 8/8/8 7/7/7
f 9/9/9 7/7/7 8/8/8
f 8/8/8 10/10/10 9/9/9
f 12/12/12 11/11/11 1/1/1
f 1/1/1 3/3/3 12/12/12
f 14/14/14 13/13/13 7/7/7
f 7/7/7 9/9/9 14/14/14
f 16/16/16 15/15/15 11/11/11
f 11/11/11 12/12/12 16/16/16
f 18/18/18 17/17/17 13/13/13
f 13/13/13 14/14/14 18/18/18
f 20/20/20 19/19/19 15/15/15
f 15/15/15 16/16/16 20/20/20
f 21/21/21 20/20/20 16/16/16
f 16/16/16 22/22/22 21/21/21
f 23/23/23 21/21/21 22/22/22
f 22/22/22 17/17/17 23/23/23
f 24/24/24 23/23/23 17/17/17
f 17/17/17 18/18/18 24/24/24
